<?xml version="1.0" encoding="UTF-8" standalone="no"?>
<!DOCTYPE svg PUBLIC "-//W3C//DTD SVG 1.1//EN"
 "http://www.w3.org/Graphics/SVG/1.1/DTD/svg11.dtd">
<!-- Generated by graphviz version 2.36.0 (20140111.2315)
 -->
<!-- Title: gameEngine.levels.BaseLevel.getDuration Pages: 1 -->
<!--zoomable 244 -->
<svg id="main" version="1.1" xmlns="http://www.w3.org/2000/svg" xmlns:xlink="http://www.w3.org/1999/xlink" xml:space="preserve" onload="init(evt)">
<style type="text/css"><![CDATA[
.edge:hover path { stroke: red; }
.edge:hover polygon { stroke: red; fill: red; }
]]></style>
<script type="text/javascript"><![CDATA[
var edges = document.getElementsByTagName('g');
if (edges && edges.length) {
  for (var i=0;i<edges.length;i++) {
    if (edges[i].id.substr(0,4)=='edge') {
      edges[i].setAttribute('class','edge');
    }
  }
}
]]></script>
        <defs>
                <circle id="rim" cx="0" cy="0" r="7"/>
                <circle id="rim2" cx="0" cy="0" r="3.5"/>
                <g id="zoomPlus">
                        <use xlink:href="#rim" fill="#404040">
                                <set attributeName="fill" to="#808080" begin="zoomplus.mouseover" end="zoomplus.mouseout"/>
                        </use>
                        <path d="M-4,0h8M0,-4v8" fill="none" stroke="white" stroke-width="1.5" pointer-events="none"/>
                </g>
                <g id="zoomMin">
                        <use xlink:href="#rim" fill="#404040">
                                <set attributeName="fill" to="#808080" begin="zoomminus.mouseover" end="zoomminus.mouseout"/>
                        </use>
                        <path d="M-4,0h8" fill="none" stroke="white" stroke-width="1.5" pointer-events="none"/>
                </g>
                <g id="dirArrow">
                        <path fill="none" stroke="white" stroke-width="1.5" d="M0,-3.0v7 M-2.5,-0.5L0,-3.0L2.5,-0.5"/>
                </g>
               <g id="resetDef">
                       <use xlink:href="#rim2" fill="#404040">
                               <set attributeName="fill" to="#808080" begin="reset.mouseover" end="reset.mouseout"/>
                       </use>
               </g>
        </defs>

<script type="text/javascript">
var viewWidth = 1672;
var viewHeight = 244;
var sectionId = 'dynsection-3';
</script>
<script xlink:href="../../svgpan.js"/>
<svg id="graph" class="graph">
<g id="viewport">
<title>gameEngine.levels.BaseLevel.getDuration</title>
<polygon fill="white" stroke="none" points="-4,4 -4,-240 1668,-240 1668,4 -4,4"/>
<!-- Node1 -->
<g id="node1" class="node"><title>Node1</title>
<polygon fill="#bfbfbf" stroke="black" points="0.5,-97 0.5,-127 177.5,-127 177.5,-97 0.5,-97"/>
<text text-anchor="start" x="8.5" y="-115" font-family="Helvetica,sans-Serif" font-size="10.00">gameEngine.levels.BaseLevel.get</text>
<text text-anchor="middle" x="89" y="-104" font-family="Helvetica,sans-Serif" font-size="10.00">Duration</text>
</g>
<!-- Node2 -->
<g id="node2" class="node"><title>Node2</title>
<g id="a_node2"><a xlink:href="../../d0/d94/classgame_engine_1_1_main_engine_manager.html#a9730cb1b41966ae46599b3c5ee2b670d" target="_top" xlink:title="gameEngine.MainEngineManager.load\lLevel">
<polygon fill="white" stroke="black" points="214.5,-97 214.5,-127 413.5,-127 413.5,-97 214.5,-97"/>
<text text-anchor="start" x="222.5" y="-115" font-family="Helvetica,sans-Serif" font-size="10.00">gameEngine.MainEngineManager.load</text>
<text text-anchor="middle" x="314" y="-104" font-family="Helvetica,sans-Serif" font-size="10.00">Level</text>
</a>
</g>
</g>
<!-- Node1&#45;&gt;Node2 -->
<g id="edge1" class="edge"><title>Node1&#45;&gt;Node2</title>
<path fill="none" stroke="midnightblue" d="M187.971,-112C196.676,-112 205.494,-112 214.206,-112"/>
<polygon fill="midnightblue" stroke="midnightblue" points="187.815,-108.5 177.815,-112 187.815,-115.5 187.815,-108.5"/>
</g>
<!-- Node3 -->
<g id="node3" class="node"><title>Node3</title>
<g id="a_node3"><a xlink:href="../../d0/d94/classgame_engine_1_1_main_engine_manager.html#aabfa2b7038b0fe0d1a5d0f1761740fbe" target="_top" xlink:title="gameEngine.MainEngineManager.load\lAuthoringLevel">
<polygon fill="white" stroke="black" points="450.5,-151 450.5,-181 649.5,-181 649.5,-151 450.5,-151"/>
<text text-anchor="start" x="458.5" y="-169" font-family="Helvetica,sans-Serif" font-size="10.00">gameEngine.MainEngineManager.load</text>
<text text-anchor="middle" x="550" y="-158" font-family="Helvetica,sans-Serif" font-size="10.00">AuthoringLevel</text>
</a>
</g>
</g>
<!-- Node2&#45;&gt;Node3 -->
<g id="edge2" class="edge"><title>Node2&#45;&gt;Node3</title>
<path fill="none" stroke="midnightblue" d="M390.22,-129.359C420.342,-136.31 454.717,-144.242 483.762,-150.945"/>
<polygon fill="midnightblue" stroke="midnightblue" points="390.713,-125.88 380.182,-127.042 389.139,-132.701 390.713,-125.88"/>
</g>
<!-- Node5 -->
<g id="node5" class="node"><title>Node5</title>
<g id="a_node5"><a xlink:href="../../d0/d94/classgame_engine_1_1_main_engine_manager.html#ac87a53b1ff4fa7c2f32846ad7d2f140b" target="_top" xlink:title="gameEngine.MainEngineManager.load\lNextLevel">
<polygon fill="white" stroke="black" points="450.5,-97 450.5,-127 649.5,-127 649.5,-97 450.5,-97"/>
<text text-anchor="start" x="458.5" y="-115" font-family="Helvetica,sans-Serif" font-size="10.00">gameEngine.MainEngineManager.load</text>
<text text-anchor="middle" x="550" y="-104" font-family="Helvetica,sans-Serif" font-size="10.00">NextLevel</text>
</a>
</g>
</g>
<!-- Node2&#45;&gt;Node5 -->
<g id="edge4" class="edge"><title>Node2&#45;&gt;Node5</title>
<path fill="none" stroke="midnightblue" d="M423.834,-112C432.621,-112 441.469,-112 450.18,-112"/>
<polygon fill="midnightblue" stroke="midnightblue" points="423.559,-108.5 413.559,-112 423.559,-115.5 423.559,-108.5"/>
</g>
<!-- Node19 -->
<g id="node19" class="node"><title>Node19</title>
<g id="a_node19"><a xlink:href="../../d0/d94/classgame_engine_1_1_main_engine_manager.html#a877d3b0d8eeb5a117fe7043df349d101" target="_top" xlink:title="gameEngine.MainEngineManager.load\lState">
<polygon fill="white" stroke="black" points="450.5,-37 450.5,-67 649.5,-67 649.5,-37 450.5,-37"/>
<text text-anchor="start" x="458.5" y="-55" font-family="Helvetica,sans-Serif" font-size="10.00">gameEngine.MainEngineManager.load</text>
<text text-anchor="middle" x="550" y="-44" font-family="Helvetica,sans-Serif" font-size="10.00">State</text>
</a>
</g>
</g>
<!-- Node2&#45;&gt;Node19 -->
<g id="edge18" class="edge"><title>Node2&#45;&gt;Node19</title>
<path fill="none" stroke="midnightblue" d="M383.563,-94.4198C417.408,-85.7416 457.819,-75.3796 490.23,-67.0693"/>
<polygon fill="midnightblue" stroke="midnightblue" points="382.563,-91.0628 373.746,-96.9369 384.302,-97.8434 382.563,-91.0628"/>
</g>
<!-- Node4 -->
<g id="node4" class="node"><title>Node4</title>
<g id="a_node4"><a xlink:href="../../da/d10/classgame_authoring_1_1scenes_1_1level_building_1_1_level_display_cell.html#a7c364973b2428267a31e0a8e7be0238f" target="_top" xlink:title="gameAuthoring.scenes.level\lBuilding.LevelDisplayCell.Level\lDisplayCell">
<polygon fill="white" stroke="black" points="728.5,-151.5 728.5,-192.5 889.5,-192.5 889.5,-151.5 728.5,-151.5"/>
<text text-anchor="start" x="736.5" y="-180.5" font-family="Helvetica,sans-Serif" font-size="10.00">gameAuthoring.scenes.level</text>
<text text-anchor="start" x="736.5" y="-169.5" font-family="Helvetica,sans-Serif" font-size="10.00">Building.LevelDisplayCell.Level</text>
<text text-anchor="middle" x="809" y="-158.5" font-family="Helvetica,sans-Serif" font-size="10.00">DisplayCell</text>
</a>
</g>
</g>
<!-- Node3&#45;&gt;Node4 -->
<g id="edge3" class="edge"><title>Node3&#45;&gt;Node4</title>
<path fill="none" stroke="midnightblue" d="M659.777,-168.54C682.788,-169.077 706.663,-169.634 728.356,-170.141"/>
<polygon fill="midnightblue" stroke="midnightblue" points="659.707,-165.037 649.628,-168.303 659.543,-172.035 659.707,-165.037"/>
</g>
<!-- Node6 -->
<g id="node6" class="node"><title>Node6</title>
<g id="a_node6"><a xlink:href="../../d0/d94/classgame_engine_1_1_main_engine_manager.html#a3677f4b740d81288c36309962d323265" target="_top" xlink:title="gameEngine.MainEngineManager.initializeGame">
<polygon fill="white" stroke="black" points="686,-113.5 686,-132.5 932,-132.5 932,-113.5 686,-113.5"/>
<text text-anchor="middle" x="809" y="-120.5" font-family="Helvetica,sans-Serif" font-size="10.00">gameEngine.MainEngineManager.initializeGame</text>
</a>
</g>
</g>
<!-- Node5&#45;&gt;Node6 -->
<g id="edge5" class="edge"><title>Node5&#45;&gt;Node6</title>
<path fill="none" stroke="midnightblue" d="M659.736,-116.654C668.404,-117.025 677.194,-117.401 685.945,-117.776"/>
<polygon fill="midnightblue" stroke="midnightblue" points="659.768,-113.152 649.628,-116.221 659.469,-120.146 659.768,-113.152"/>
</g>
<!-- Node15 -->
<g id="node15" class="node"><title>Node15</title>
<g id="a_node15"><a xlink:href="../../d0/d94/classgame_engine_1_1_main_engine_manager.html#afd86188ac12b9cc28f5d05d7a7350af0" target="_top" xlink:title="gameEngine.MainEngineManager.on\lLevelEnd">
<polygon fill="white" stroke="black" points="713.5,-64 713.5,-94 904.5,-94 904.5,-64 713.5,-64"/>
<text text-anchor="start" x="721.5" y="-82" font-family="Helvetica,sans-Serif" font-size="10.00">gameEngine.MainEngineManager.on</text>
<text text-anchor="middle" x="809" y="-71" font-family="Helvetica,sans-Serif" font-size="10.00">LevelEnd</text>
</a>
</g>
</g>
<!-- Node5&#45;&gt;Node15 -->
<g id="edge14" class="edge"><title>Node5&#45;&gt;Node15</title>
<path fill="none" stroke="midnightblue" d="M660.019,-98.0014C677.786,-95.7201 696.061,-93.3735 713.443,-91.1415"/>
<polygon fill="midnightblue" stroke="midnightblue" points="659.101,-94.5905 649.628,-99.3357 659.992,-101.534 659.101,-94.5905"/>
</g>
<!-- Node7 -->
<g id="node7" class="node"><title>Node7</title>
<g id="a_node7"><a xlink:href="../../da/d69/classgame_player_1_1main_classes_1_1managers_1_1_gui_manager.html#a02a63a3d495b31cce0c4976f95758a49" target="_top" xlink:title="gamePlayer.mainClasses.managers.\lGuiManager.startGame">
<polygon fill="white" stroke="black" points="975.5,-181 975.5,-211 1166.5,-211 1166.5,-181 975.5,-181"/>
<text text-anchor="start" x="983.5" y="-199" font-family="Helvetica,sans-Serif" font-size="10.00">gamePlayer.mainClasses.managers.</text>
<text text-anchor="middle" x="1071" y="-188" font-family="Helvetica,sans-Serif" font-size="10.00">GuiManager.startGame</text>
</a>
</g>
</g>
<!-- Node6&#45;&gt;Node7 -->
<g id="edge6" class="edge"><title>Node6&#45;&gt;Node7</title>
<path fill="none" stroke="midnightblue" d="M898.054,-134.357C909.555,-136.528 921.116,-139.061 932,-142 969.132,-152.027 1009.96,-168.759 1037.5,-180.945"/>
<polygon fill="midnightblue" stroke="midnightblue" points="898.443,-130.871 887.981,-132.542 897.202,-137.76 898.443,-130.871"/>
</g>
<!-- Node9 -->
<g id="node9" class="node"><title>Node9</title>
<g id="a_node9"><a xlink:href="../../da/d69/classgame_player_1_1main_classes_1_1managers_1_1_gui_manager.html#aa9b035d2a17b73719ca8a26d8ebde9ce" target="_top" xlink:title="gamePlayer.mainClasses.managers.\lGuiManager.startSinglePlayerGame">
<polygon fill="white" stroke="black" points="975.5,-108 975.5,-138 1166.5,-138 1166.5,-108 975.5,-108"/>
<text text-anchor="start" x="983.5" y="-126" font-family="Helvetica,sans-Serif" font-size="10.00">gamePlayer.mainClasses.managers.</text>
<text text-anchor="middle" x="1071" y="-115" font-family="Helvetica,sans-Serif" font-size="10.00">GuiManager.startSinglePlayerGame</text>
</a>
</g>
</g>
<!-- Node6&#45;&gt;Node9 -->
<g id="edge8" class="edge"><title>Node6&#45;&gt;Node9</title>
<path fill="none" stroke="midnightblue" d="M942.224,-123C953.353,-123 964.46,-123 975.219,-123"/>
<polygon fill="midnightblue" stroke="midnightblue" points="942.006,-119.5 932.006,-123 942.006,-126.5 942.006,-119.5"/>
</g>
<!-- Node8 -->
<g id="node8" class="node"><title>Node8</title>
<g id="a_node8"><a xlink:href="../../da/d69/classgame_player_1_1main_classes_1_1managers_1_1_gui_manager.html#a287842e1d39b7ecf2e13befeeafa1a7b" target="_top" xlink:title="gamePlayer.mainClasses.managers.\lGuiManager.loadGame">
<polygon fill="white" stroke="black" points="1221.5,-206 1221.5,-236 1412.5,-236 1412.5,-206 1221.5,-206"/>
<text text-anchor="start" x="1229.5" y="-224" font-family="Helvetica,sans-Serif" font-size="10.00">gamePlayer.mainClasses.managers.</text>
<text text-anchor="middle" x="1317" y="-213" font-family="Helvetica,sans-Serif" font-size="10.00">GuiManager.loadGame</text>
</a>
</g>
</g>
<!-- Node7&#45;&gt;Node8 -->
<g id="edge7" class="edge"><title>Node7&#45;&gt;Node8</title>
<path fill="none" stroke="midnightblue" d="M1176.86,-206.744C1191.65,-208.259 1206.78,-209.81 1221.37,-211.304"/>
<polygon fill="midnightblue" stroke="midnightblue" points="1176.99,-203.239 1166.69,-205.701 1176.28,-210.203 1176.99,-203.239"/>
</g>
<!-- Node10 -->
<g id="node10" class="node"><title>Node10</title>
<g id="a_node10"><a xlink:href="../../da/d69/classgame_player_1_1main_classes_1_1managers_1_1_gui_manager.html#a3f657f0e3ba1e493d2dd02b5df5e03f6" target="_top" xlink:title="gamePlayer.mainClasses.managers.\lGuiManager.replayGame">
<polygon fill="white" stroke="black" points="1221.5,-157 1221.5,-187 1412.5,-187 1412.5,-157 1221.5,-157"/>
<text text-anchor="start" x="1229.5" y="-175" font-family="Helvetica,sans-Serif" font-size="10.00">gamePlayer.mainClasses.managers.</text>
<text text-anchor="middle" x="1317" y="-164" font-family="Helvetica,sans-Serif" font-size="10.00">GuiManager.replayGame</text>
</a>
</g>
</g>
<!-- Node9&#45;&gt;Node10 -->
<g id="edge9" class="edge"><title>Node9&#45;&gt;Node10</title>
<path fill="none" stroke="midnightblue" d="M1156.85,-140.04C1184.33,-145.558 1214.59,-151.634 1241.28,-156.994"/>
<polygon fill="midnightblue" stroke="midnightblue" points="1157.36,-136.572 1146.87,-138.035 1155.98,-143.435 1157.36,-136.572"/>
</g>
<!-- Node11 -->
<g id="node11" class="node"><title>Node11</title>
<g id="a_node11"><a xlink:href="../../d4/d3f/classgame_player_1_1main_classes_1_1managers_1_1_welcome_manager.html#a5da8d3f5b8bc1c4bd4c555140bd9384c" target="_top" xlink:title="gamePlayer.mainClasses.managers.\lWelcomeManager.startSinglePlayerGame">
<polygon fill="white" stroke="black" points="1210,-108 1210,-138 1424,-138 1424,-108 1210,-108"/>
<text text-anchor="start" x="1218" y="-126" font-family="Helvetica,sans-Serif" font-size="10.00">gamePlayer.mainClasses.managers.</text>
<text text-anchor="middle" x="1317" y="-115" font-family="Helvetica,sans-Serif" font-size="10.00">WelcomeManager.startSinglePlayerGame</text>
</a>
</g>
</g>
<!-- Node9&#45;&gt;Node11 -->
<g id="edge10" class="edge"><title>Node9&#45;&gt;Node11</title>
<path fill="none" stroke="midnightblue" d="M1176.98,-123C1187.79,-123 1198.79,-123 1209.61,-123"/>
<polygon fill="midnightblue" stroke="midnightblue" points="1176.69,-119.5 1166.69,-123 1176.69,-126.5 1176.69,-119.5"/>
</g>
<!-- Node13 -->
<g id="node13" class="node"><title>Node13</title>
<g id="a_node13"><a xlink:href="../../d3/dee/classgame_player_1_1main_classes_1_1welcome_screen_1_1_game_start_manager.html#a0c44b3f25d2a30fe2e7aeca9da7161a9" target="_top" xlink:title="gamePlayer.mainClasses.welcome\lScreen.GameStartManager.startSingle\lPlayerGame">
<polygon fill="white" stroke="black" points="1215.5,-48.5 1215.5,-89.5 1418.5,-89.5 1418.5,-48.5 1215.5,-48.5"/>
<text text-anchor="start" x="1223.5" y="-77.5" font-family="Helvetica,sans-Serif" font-size="10.00">gamePlayer.mainClasses.welcome</text>
<text text-anchor="start" x="1223.5" y="-66.5" font-family="Helvetica,sans-Serif" font-size="10.00">Screen.GameStartManager.startSingle</text>
<text text-anchor="middle" x="1317" y="-55.5" font-family="Helvetica,sans-Serif" font-size="10.00">PlayerGame</text>
</a>
</g>
</g>
<!-- Node9&#45;&gt;Node13 -->
<g id="edge12" class="edge"><title>Node9&#45;&gt;Node13</title>
<path fill="none" stroke="midnightblue" d="M1149.82,-105.777C1173.2,-100.603 1199.08,-94.8753 1223.32,-89.5107"/>
<polygon fill="midnightblue" stroke="midnightblue" points="1148.98,-102.38 1139.97,-107.958 1150.49,-109.214 1148.98,-102.38"/>
</g>
<!-- Node12 -->
<g id="node12" class="node"><title>Node12</title>
<g id="a_node12"><a xlink:href="../../d4/d3f/classgame_player_1_1main_classes_1_1managers_1_1_welcome_manager.html#ae6495396aef63551116c0835c40574e1" target="_top" xlink:title="gamePlayer.mainClasses.managers.\lWelcomeManager.startGame">
<polygon fill="white" stroke="black" points="1466.5,-108 1466.5,-138 1657.5,-138 1657.5,-108 1466.5,-108"/>
<text text-anchor="start" x="1474.5" y="-126" font-family="Helvetica,sans-Serif" font-size="10.00">gamePlayer.mainClasses.managers.</text>
<text text-anchor="middle" x="1562" y="-115" font-family="Helvetica,sans-Serif" font-size="10.00">WelcomeManager.startGame</text>
</a>
</g>
</g>
<!-- Node11&#45;&gt;Node12 -->
<g id="edge11" class="edge"><title>Node11&#45;&gt;Node12</title>
<path fill="none" stroke="midnightblue" d="M1434.47,-123C1445.19,-123 1455.95,-123 1466.44,-123"/>
<polygon fill="midnightblue" stroke="midnightblue" points="1434.23,-119.5 1424.23,-123 1434.23,-126.5 1434.23,-119.5"/>
</g>
<!-- Node14 -->
<g id="node14" class="node"><title>Node14</title>
<g id="a_node14"><a xlink:href="../../d3/dee/classgame_player_1_1main_classes_1_1welcome_screen_1_1_game_start_manager.html#a4ac849399bf00c6df86f0db25ea95ed8" target="_top" xlink:title="gamePlayer.mainClasses.welcome\lScreen.GameStartManager.startGame">
<polygon fill="white" stroke="black" points="1460.5,-54 1460.5,-84 1663.5,-84 1663.5,-54 1460.5,-54"/>
<text text-anchor="start" x="1468.5" y="-72" font-family="Helvetica,sans-Serif" font-size="10.00">gamePlayer.mainClasses.welcome</text>
<text text-anchor="middle" x="1562" y="-61" font-family="Helvetica,sans-Serif" font-size="10.00">Screen.GameStartManager.startGame</text>
</a>
</g>
</g>
<!-- Node13&#45;&gt;Node14 -->
<g id="edge13" class="edge"><title>Node13&#45;&gt;Node14</title>
<path fill="none" stroke="midnightblue" d="M1428.7,-69C1439.29,-69 1450,-69 1460.48,-69"/>
<polygon fill="midnightblue" stroke="midnightblue" points="1428.59,-65.5001 1418.59,-69 1428.59,-72.5001 1428.59,-65.5001"/>
</g>
<!-- Node16 -->
<g id="node16" class="node"><title>Node16</title>
<g id="a_node16"><a xlink:href="../../d0/d94/classgame_engine_1_1_main_engine_manager.html#aa167e2a5e062c22e361f11a25db3c3ef" target="_top" xlink:title="gameEngine.MainEngineManager.game\lUpdate">
<polygon fill="white" stroke="black" points="968,-30 968,-60 1174,-60 1174,-30 968,-30"/>
<text text-anchor="start" x="976" y="-48" font-family="Helvetica,sans-Serif" font-size="10.00">gameEngine.MainEngineManager.game</text>
<text text-anchor="middle" x="1071" y="-37" font-family="Helvetica,sans-Serif" font-size="10.00">Update</text>
</a>
</g>
</g>
<!-- Node15&#45;&gt;Node16 -->
<g id="edge15" class="edge"><title>Node15&#45;&gt;Node16</title>
<path fill="none" stroke="midnightblue" d="M914.77,-65.2993C932.181,-63.0225 950.22,-60.6635 967.572,-58.3944"/>
<polygon fill="midnightblue" stroke="midnightblue" points="914.063,-61.8618 904.601,-66.629 914.971,-68.8028 914.063,-61.8618"/>
</g>
<!-- Node17 -->
<g id="node17" class="node"><title>Node17</title>
<g id="a_node17"><a xlink:href="../../d0/d94/classgame_engine_1_1_main_engine_manager.html#a0d381e03af0128b42e169322c2d1ca00" target="_top" xlink:title="gameEngine.MainEngineManager.create\lTimeline">
<polygon fill="white" stroke="black" points="1212.5,-0 1212.5,-30 1421.5,-30 1421.5,-0 1212.5,-0"/>
<text text-anchor="start" x="1220.5" y="-18" font-family="Helvetica,sans-Serif" font-size="10.00">gameEngine.MainEngineManager.create</text>
<text text-anchor="middle" x="1317" y="-7" font-family="Helvetica,sans-Serif" font-size="10.00">Timeline</text>
</a>
</g>
</g>
<!-- Node16&#45;&gt;Node17 -->
<g id="edge16" class="edge"><title>Node16&#45;&gt;Node17</title>
<path fill="none" stroke="midnightblue" d="M1184.21,-31.2037C1193.6,-30.0494 1203.06,-28.8855 1212.38,-27.7397"/>
<polygon fill="midnightblue" stroke="midnightblue" points="1183.56,-27.7569 1174.06,-32.4511 1184.42,-34.7046 1183.56,-27.7569"/>
</g>
<!-- Node18 -->
<g id="node18" class="node"><title>Node18</title>
<g id="a_node18"><a xlink:href="../../d0/d94/classgame_engine_1_1_main_engine_manager.html#aec2cd142182da8ef024078d42fb5bc23" target="_top" xlink:title="gameEngine.MainEngineManager.\lMainEngineManager">
<polygon fill="white" stroke="black" points="1472.5,-0 1472.5,-30 1651.5,-30 1651.5,-0 1472.5,-0"/>
<text text-anchor="start" x="1480.5" y="-18" font-family="Helvetica,sans-Serif" font-size="10.00">gameEngine.MainEngineManager.</text>
<text text-anchor="middle" x="1562" y="-7" font-family="Helvetica,sans-Serif" font-size="10.00">MainEngineManager</text>
</a>
</g>
</g>
<!-- Node17&#45;&gt;Node18 -->
<g id="edge17" class="edge"><title>Node17&#45;&gt;Node18</title>
<path fill="none" stroke="midnightblue" d="M1432.02,-15C1445.49,-15 1459.09,-15 1472.14,-15"/>
<polygon fill="midnightblue" stroke="midnightblue" points="1431.76,-11.5001 1421.76,-15 1431.76,-18.5001 1431.76,-11.5001"/>
</g>
<!-- Node20 -->
<g id="node20" class="node"><title>Node20</title>
<g id="a_node20"><a xlink:href="../../da/d69/classgame_player_1_1main_classes_1_1managers_1_1_gui_manager.html#a3c6a6b6581cd16f2c9e702ce936c217b" target="_top" xlink:title="gamePlayer.mainClasses.managers.\lGuiManager.loadState">
<polygon fill="white" stroke="black" points="713.5,-15 713.5,-45 904.5,-45 904.5,-15 713.5,-15"/>
<text text-anchor="start" x="721.5" y="-33" font-family="Helvetica,sans-Serif" font-size="10.00">gamePlayer.mainClasses.managers.</text>
<text text-anchor="middle" x="809" y="-22" font-family="Helvetica,sans-Serif" font-size="10.00">GuiManager.loadState</text>
</a>
</g>
</g>
<!-- Node19&#45;&gt;Node20 -->
<g id="edge19" class="edge"><title>Node19&#45;&gt;Node20</title>
<path fill="none" stroke="midnightblue" d="M660.019,-42.6676C677.786,-41.1468 696.061,-39.5824 713.443,-38.0944"/>
<polygon fill="midnightblue" stroke="midnightblue" points="659.293,-39.2169 649.628,-43.5571 659.89,-46.1914 659.293,-39.2169"/>
</g>
</g>
</svg>
        <g id="navigator" transform="translate(0 0)" fill="#404254">
                <rect fill="#f2f5e9" fill-opacity="0.5" stroke="#606060" stroke-width=".5" x="0" y="0" width="60" height="60"/>
                <use id="zoomplus" xlink:href="#zoomPlus" x="17" y="9" onmousedown="handleZoom(evt,'in')"/>
                <use id="zoomminus" xlink:href="#zoomMin" x="42" y="9" onmousedown="handleZoom(evt,'out')"/>
                <use id="reset" xlink:href="#resetDef" x="30" y="36" onmousedown="handleReset()"/>
                <g id="arrowUp" xlink:href="#dirArrow" transform="translate(30 24)" onmousedown="handlePan(0,-1)">
                  <use xlink:href="#rim" fill="#404040">
                        <set attributeName="fill" to="#808080" begin="arrowUp.mouseover" end="arrowUp.mouseout"/>
                  </use>
                  <path fill="none" stroke="white" stroke-width="1.5" d="M0,-3.0v7 M-2.5,-0.5L0,-3.0L2.5,-0.5"/>
                </g>
                <g id="arrowRight" xlink:href="#dirArrow" transform="rotate(90) translate(36 -43)" onmousedown="handlePan(1,0)">
                  <use xlink:href="#rim" fill="#404040">
                        <set attributeName="fill" to="#808080" begin="arrowRight.mouseover" end="arrowRight.mouseout"/>
                  </use>
                  <path fill="none" stroke="white" stroke-width="1.5" d="M0,-3.0v7 M-2.5,-0.5L0,-3.0L2.5,-0.5"/>
                </g>
                <g id="arrowDown" xlink:href="#dirArrow" transform="rotate(180) translate(-30 -48)" onmousedown="handlePan(0,1)">
                  <use xlink:href="#rim" fill="#404040">
                        <set attributeName="fill" to="#808080" begin="arrowDown.mouseover" end="arrowDown.mouseout"/>
                  </use>
                  <path fill="none" stroke="white" stroke-width="1.5" d="M0,-3.0v7 M-2.5,-0.5L0,-3.0L2.5,-0.5"/>
                </g>
                <g id="arrowLeft" xlink:href="#dirArrow" transform="rotate(270) translate(-36 17)" onmousedown="handlePan(-1,0)">
                  <use xlink:href="#rim" fill="#404040">
                        <set attributeName="fill" to="#808080" begin="arrowLeft.mouseover" end="arrowLeft.mouseout"/>
                  </use>
                  <path fill="none" stroke="white" stroke-width="1.5" d="M0,-3.0v7 M-2.5,-0.5L0,-3.0L2.5,-0.5"/>
                </g>
        </g>
        <svg viewBox="0 0 15 15" width="100%" height="30px" preserveAspectRatio="xMaxYMin meet">
         <g id="arrow_out" transform="scale(0.3 0.3)">
          <a xlink:href="classgame_engine_1_1levels_1_1_base_level_a10e08749157dcd85085d053a952503db_icgraph_org.svg" target="_base">
           <rect id="button" ry="5" rx="5" y="6" x="6" height="38" width="38"
                fill="#f2f5e9" fill-opacity="0.5" stroke="#606060" stroke-width="1.0"/>
           <path id="arrow"
             d="M 11.500037,31.436501 C 11.940474,20.09759 22.043105,11.32322 32.158766,21.979434 L 37.068811,17.246167 C 37.068811,17.246167 37.088388,32 37.088388,32 L 22.160133,31.978069 C 22.160133,31.978069 26.997745,27.140456 26.997745,27.140456 C 18.528582,18.264221 13.291696,25.230495 11.500037,31.436501 z"
             style="fill:#404040;"/>
          </a>
         </g>
        </svg>
</svg>
