<?xml version="1.0" encoding="UTF-8" standalone="no"?>
<!DOCTYPE svg PUBLIC "-//W3C//DTD SVG 1.1//EN"
 "http://www.w3.org/Graphics/SVG/1.1/DTD/svg11.dtd">
<!-- Generated by graphviz version 2.36.0 (20140111.2315)
 -->
<!-- Title: gameEngine.Data.TowerTileGrid.setAsNotChanged Pages: 1 -->
<svg width="618pt" height="38pt"
 viewBox="0.00 0.00 618.00 38.00" xmlns="http://www.w3.org/2000/svg" xmlns:xlink="http://www.w3.org/1999/xlink">
<g id="graph0" class="graph" transform="scale(1 1) rotate(0) translate(4 34)">
<title>gameEngine.Data.TowerTileGrid.setAsNotChanged</title>
<polygon fill="white" stroke="none" points="-4,4 -4,-34 614,-34 614,4 -4,4"/>
<!-- Node1 -->
<g id="node1" class="node"><title>Node1</title>
<polygon fill="#bfbfbf" stroke="black" points="0,-0 0,-30 148,-30 148,-0 0,-0"/>
<text text-anchor="start" x="8" y="-18" font-family="Helvetica,sans-Serif" font-size="10.00">gameEngine.Data.TowerTile</text>
<text text-anchor="middle" x="74" y="-7" font-family="Helvetica,sans-Serif" font-size="10.00">Grid.setAsNotChanged</text>
</g>
<!-- Node2 -->
<g id="node2" class="node"><title>Node2</title>
<g id="a_node2"><a xlink:href="../../d0/d94/classgame_engine_1_1_main_engine_manager.html#a0d381e03af0128b42e169322c2d1ca00" target="_top" xlink:title="gameEngine.MainEngineManager.create\lTimeline">
<polygon fill="white" stroke="black" points="184.5,-0 184.5,-30 393.5,-30 393.5,-0 184.5,-0"/>
<text text-anchor="start" x="192.5" y="-18" font-family="Helvetica,sans-Serif" font-size="10.00">gameEngine.MainEngineManager.create</text>
<text text-anchor="middle" x="289" y="-7" font-family="Helvetica,sans-Serif" font-size="10.00">Timeline</text>
</a>
</g>
</g>
<!-- Node1&#45;&gt;Node2 -->
<g id="edge1" class="edge"><title>Node1&#45;&gt;Node2</title>
<path fill="none" stroke="midnightblue" d="M158.269,-15C166.782,-15 175.502,-15 184.199,-15"/>
<polygon fill="midnightblue" stroke="midnightblue" points="158.005,-11.5001 148.005,-15 158.004,-18.5001 158.005,-11.5001"/>
</g>
<!-- Node3 -->
<g id="node3" class="node"><title>Node3</title>
<g id="a_node3"><a xlink:href="../../d0/d94/classgame_engine_1_1_main_engine_manager.html#aec2cd142182da8ef024078d42fb5bc23" target="_top" xlink:title="gameEngine.MainEngineManager.\lMainEngineManager">
<polygon fill="white" stroke="black" points="430.5,-0 430.5,-30 609.5,-30 609.5,-0 430.5,-0"/>
<text text-anchor="start" x="438.5" y="-18" font-family="Helvetica,sans-Serif" font-size="10.00">gameEngine.MainEngineManager.</text>
<text text-anchor="middle" x="520" y="-7" font-family="Helvetica,sans-Serif" font-size="10.00">MainEngineManager</text>
</a>
</g>
</g>
<!-- Node2&#45;&gt;Node3 -->
<g id="edge2" class="edge"><title>Node2&#45;&gt;Node3</title>
<path fill="none" stroke="midnightblue" d="M403.804,-15C412.694,-15 421.591,-15 430.278,-15"/>
<polygon fill="midnightblue" stroke="midnightblue" points="403.78,-11.5001 393.78,-15 403.78,-18.5001 403.78,-11.5001"/>
</g>
</g>
</svg>
