<?xml version="1.0" encoding="UTF-8" standalone="no"?>
<!DOCTYPE svg PUBLIC "-//W3C//DTD SVG 1.1//EN"
 "http://www.w3.org/Graphics/SVG/1.1/DTD/svg11.dtd">
<!-- Generated by graphviz version 2.36.0 (20140111.2315)
 -->
<!-- Title: gameAuthoring.scenes.pathBuilding.pathComponents.Path.clearEnemyEndingLocations Pages: 1 -->
<!--zoomable 277 -->
<svg id="main" version="1.1" xmlns="http://www.w3.org/2000/svg" xmlns:xlink="http://www.w3.org/1999/xlink" xml:space="preserve" onload="init(evt)">
<style type="text/css"><![CDATA[
.edge:hover path { stroke: red; }
.edge:hover polygon { stroke: red; fill: red; }
]]></style>
<script type="text/javascript"><![CDATA[
var edges = document.getElementsByTagName('g');
if (edges && edges.length) {
  for (var i=0;i<edges.length;i++) {
    if (edges[i].id.substr(0,4)=='edge') {
      edges[i].setAttribute('class','edge');
    }
  }
}
]]></script>
        <defs>
                <circle id="rim" cx="0" cy="0" r="7"/>
                <circle id="rim2" cx="0" cy="0" r="3.5"/>
                <g id="zoomPlus">
                        <use xlink:href="#rim" fill="#404040">
                                <set attributeName="fill" to="#808080" begin="zoomplus.mouseover" end="zoomplus.mouseout"/>
                        </use>
                        <path d="M-4,0h8M0,-4v8" fill="none" stroke="white" stroke-width="1.5" pointer-events="none"/>
                </g>
                <g id="zoomMin">
                        <use xlink:href="#rim" fill="#404040">
                                <set attributeName="fill" to="#808080" begin="zoomminus.mouseover" end="zoomminus.mouseout"/>
                        </use>
                        <path d="M-4,0h8" fill="none" stroke="white" stroke-width="1.5" pointer-events="none"/>
                </g>
                <g id="dirArrow">
                        <path fill="none" stroke="white" stroke-width="1.5" d="M0,-3.0v7 M-2.5,-0.5L0,-3.0L2.5,-0.5"/>
                </g>
               <g id="resetDef">
                       <use xlink:href="#rim2" fill="#404040">
                               <set attributeName="fill" to="#808080" begin="reset.mouseover" end="reset.mouseout"/>
                       </use>
               </g>
        </defs>

<script type="text/javascript">
var viewWidth = 1182;
var viewHeight = 277;
var sectionId = 'dynsection-14';
</script>
<script xlink:href="../../svgpan.js"/>
<svg id="graph" class="graph">
<g id="viewport">
<title>gameAuthoring.scenes.pathBuilding.pathComponents.Path.clearEnemyEndingLocations</title>
<polygon fill="white" stroke="none" points="-4,4 -4,-273 1178,-273 1178,4 -4,4"/>
<!-- Node1 -->
<g id="node1" class="node"><title>Node1</title>
<polygon fill="#bfbfbf" stroke="black" points="0.5,-123.5 0.5,-164.5 191.5,-164.5 191.5,-123.5 0.5,-123.5"/>
<text text-anchor="start" x="8.5" y="-152.5" font-family="Helvetica,sans-Serif" font-size="10.00">gameAuthoring.scenes.path</text>
<text text-anchor="start" x="8.5" y="-141.5" font-family="Helvetica,sans-Serif" font-size="10.00">Building.pathComponents.Path.clear</text>
<text text-anchor="middle" x="96" y="-130.5" font-family="Helvetica,sans-Serif" font-size="10.00">EnemyEndingLocations</text>
</g>
<!-- Node2 -->
<g id="node2" class="node"><title>Node2</title>
<g id="a_node2"><a xlink:href="../../d2/d34/classgame_authoring_1_1scenes_1_1path_building_1_1path_components_1_1_path_creation_tests.html#ab4a8cef229bd216128c5de4eb71b83f2" target="_top" xlink:title="gameAuthoring.scenes.path\lBuilding.pathComponents.PathCreation\lTests.AddingStartingLocationWithNearbyEnding\lLocationTest">
<polygon fill="white" stroke="black" points="228,-217 228,-269 470,-269 470,-217 228,-217"/>
<text text-anchor="start" x="236" y="-257" font-family="Helvetica,sans-Serif" font-size="10.00">gameAuthoring.scenes.path</text>
<text text-anchor="start" x="236" y="-246" font-family="Helvetica,sans-Serif" font-size="10.00">Building.pathComponents.PathCreation</text>
<text text-anchor="start" x="236" y="-235" font-family="Helvetica,sans-Serif" font-size="10.00">Tests.AddingStartingLocationWithNearbyEnding</text>
<text text-anchor="middle" x="349" y="-224" font-family="Helvetica,sans-Serif" font-size="10.00">LocationTest</text>
</a>
</g>
</g>
<!-- Node1&#45;&gt;Node2 -->
<g id="edge1" class="edge"><title>Node1&#45;&gt;Node2</title>
<path fill="none" stroke="midnightblue" d="M145.528,-169.002C169.913,-181.04 200.132,-195.173 228,-206 237.754,-209.79 248.069,-213.459 258.392,-216.92"/>
<polygon fill="midnightblue" stroke="midnightblue" points="146.997,-165.824 136.485,-164.503 143.879,-172.091 146.997,-165.824"/>
</g>
<!-- Node3 -->
<g id="node3" class="node"><title>Node3</title>
<g id="a_node3"><a xlink:href="../../d2/d34/classgame_authoring_1_1scenes_1_1path_building_1_1path_components_1_1_path_creation_tests.html#a8932141b60470a4000f603f423bcf6e0" target="_top" xlink:title="gameAuthoring.scenes.path\lBuilding.pathComponents.PathCreation\lTests.ClearEndingLocationsTest">
<polygon fill="white" stroke="black" points="246.5,-156.5 246.5,-197.5 451.5,-197.5 451.5,-156.5 246.5,-156.5"/>
<text text-anchor="start" x="254.5" y="-185.5" font-family="Helvetica,sans-Serif" font-size="10.00">gameAuthoring.scenes.path</text>
<text text-anchor="start" x="254.5" y="-174.5" font-family="Helvetica,sans-Serif" font-size="10.00">Building.pathComponents.PathCreation</text>
<text text-anchor="middle" x="349" y="-163.5" font-family="Helvetica,sans-Serif" font-size="10.00">Tests.ClearEndingLocationsTest</text>
</a>
</g>
</g>
<!-- Node1&#45;&gt;Node3 -->
<g id="edge2" class="edge"><title>Node1&#45;&gt;Node3</title>
<path fill="none" stroke="midnightblue" d="M201.703,-157.766C216.497,-159.711 231.687,-161.708 246.421,-163.645"/>
<polygon fill="midnightblue" stroke="midnightblue" points="201.906,-154.262 191.535,-156.429 200.993,-161.203 201.906,-154.262"/>
</g>
<!-- Node4 -->
<g id="node4" class="node"><title>Node4</title>
<g id="a_node4"><a xlink:href="../../d7/db2/classgame_authoring_1_1scenes_1_1path_building_1_1building_panes_1_1location_pane_1_1_enemy_ending_locations_pane.html#a5f965f99ceeda41de57c945cce3d9648" target="_top" xlink:title="gameAuthoring.scenes.path\lBuilding.buildingPanes.location\lPane.EnemyEndingLocationsPane.create\lEnemyEndingLocationsSetupComponents">
<polygon fill="white" stroke="black" points="240,-85 240,-137 458,-137 458,-85 240,-85"/>
<text text-anchor="start" x="248" y="-125" font-family="Helvetica,sans-Serif" font-size="10.00">gameAuthoring.scenes.path</text>
<text text-anchor="start" x="248" y="-114" font-family="Helvetica,sans-Serif" font-size="10.00">Building.buildingPanes.location</text>
<text text-anchor="start" x="248" y="-103" font-family="Helvetica,sans-Serif" font-size="10.00">Pane.EnemyEndingLocationsPane.create</text>
<text text-anchor="middle" x="349" y="-92" font-family="Helvetica,sans-Serif" font-size="10.00">EnemyEndingLocationsSetupComponents</text>
</a>
</g>
</g>
<!-- Node1&#45;&gt;Node4 -->
<g id="edge3" class="edge"><title>Node1&#45;&gt;Node4</title>
<path fill="none" stroke="midnightblue" d="M201.554,-130.254C214.137,-128.6 227.009,-126.907 239.645,-125.246"/>
<polygon fill="midnightblue" stroke="midnightblue" points="200.993,-126.797 191.535,-131.571 201.906,-133.738 200.993,-126.797"/>
</g>
<!-- Node6 -->
<g id="node6" class="node"><title>Node6</title>
<g id="a_node6"><a xlink:href="../../d1/d65/classgame_authoring_1_1scenes_1_1path_building_1_1path_components_1_1_path.html#ad24c25f1b3ceea27be80c193da3c531a" target="_top" xlink:title="gameAuthoring.scenes.path\lBuilding.pathComponents.Path.resetPath">
<polygon fill="white" stroke="black" points="242.5,-36 242.5,-66 455.5,-66 455.5,-36 242.5,-36"/>
<text text-anchor="start" x="250.5" y="-54" font-family="Helvetica,sans-Serif" font-size="10.00">gameAuthoring.scenes.path</text>
<text text-anchor="middle" x="349" y="-43" font-family="Helvetica,sans-Serif" font-size="10.00">Building.pathComponents.Path.resetPath</text>
</a>
</g>
</g>
<!-- Node1&#45;&gt;Node6 -->
<g id="edge5" class="edge"><title>Node1&#45;&gt;Node6</title>
<path fill="none" stroke="midnightblue" d="M139.179,-118.336C164.223,-104.069 197.041,-87.0245 228,-76 238.725,-72.1807 250.209,-68.8659 261.665,-66.0115"/>
<polygon fill="midnightblue" stroke="midnightblue" points="137.232,-115.418 130.322,-123.45 140.732,-121.48 137.232,-115.418"/>
</g>
<!-- Node5 -->
<g id="node5" class="node"><title>Node5</title>
<g id="a_node5"><a xlink:href="../../d7/db2/classgame_authoring_1_1scenes_1_1path_building_1_1building_panes_1_1location_pane_1_1_enemy_ending_locations_pane.html#a0258666bc94d8721be382d35a7f512a9" target="_top" xlink:title="gameAuthoring.scenes.path\lBuilding.buildingPanes.location\lPane.EnemyEndingLocationsPane.EnemyEnding\lLocationsPane">
<polygon fill="white" stroke="black" points="506.5,-85 506.5,-137 751.5,-137 751.5,-85 506.5,-85"/>
<text text-anchor="start" x="514.5" y="-125" font-family="Helvetica,sans-Serif" font-size="10.00">gameAuthoring.scenes.path</text>
<text text-anchor="start" x="514.5" y="-114" font-family="Helvetica,sans-Serif" font-size="10.00">Building.buildingPanes.location</text>
<text text-anchor="start" x="514.5" y="-103" font-family="Helvetica,sans-Serif" font-size="10.00">Pane.EnemyEndingLocationsPane.EnemyEnding</text>
<text text-anchor="middle" x="629" y="-92" font-family="Helvetica,sans-Serif" font-size="10.00">LocationsPane</text>
</a>
</g>
</g>
<!-- Node4&#45;&gt;Node5 -->
<g id="edge4" class="edge"><title>Node4&#45;&gt;Node5</title>
<path fill="none" stroke="midnightblue" d="M468.281,-111C480.825,-111 493.599,-111 506.182,-111"/>
<polygon fill="midnightblue" stroke="midnightblue" points="468.278,-107.5 458.278,-111 468.278,-114.5 468.278,-107.5"/>
</g>
<!-- Node7 -->
<g id="node7" class="node"><title>Node7</title>
<g id="a_node7"><a xlink:href="../../d6/d82/classgame_authoring_1_1scenes_1_1path_building_1_1_path_building_scene.html#a7014943a026844bb492142b89f197969" target="_top" xlink:title="gameAuthoring.scenes.path\lBuilding.PathBuildingScene.resetBuild">
<polygon fill="white" stroke="black" points="530.5,-36 530.5,-66 727.5,-66 727.5,-36 530.5,-36"/>
<text text-anchor="start" x="538.5" y="-54" font-family="Helvetica,sans-Serif" font-size="10.00">gameAuthoring.scenes.path</text>
<text text-anchor="middle" x="629" y="-43" font-family="Helvetica,sans-Serif" font-size="10.00">Building.PathBuildingScene.resetBuild</text>
</a>
</g>
</g>
<!-- Node6&#45;&gt;Node7 -->
<g id="edge6" class="edge"><title>Node6&#45;&gt;Node7</title>
<path fill="none" stroke="midnightblue" d="M465.972,-51C487.323,-51 509.419,-51 530.169,-51"/>
<polygon fill="midnightblue" stroke="midnightblue" points="465.893,-47.5001 455.893,-51 465.893,-54.5001 465.893,-47.5001"/>
</g>
<!-- Node8 -->
<g id="node8" class="node"><title>Node8</title>
<g id="a_node8"><a xlink:href="../../d6/d82/classgame_authoring_1_1scenes_1_1path_building_1_1_path_building_scene.html#a9e29faac2f6cb3602cf3bc2b6de78f5e" target="_top" xlink:title="gameAuthoring.scenes.path\lBuilding.PathBuildingScene.create\lPathBuildingOptions">
<polygon fill="white" stroke="black" points="788.5,-60.5 788.5,-101.5 967.5,-101.5 967.5,-60.5 788.5,-60.5"/>
<text text-anchor="start" x="796.5" y="-89.5" font-family="Helvetica,sans-Serif" font-size="10.00">gameAuthoring.scenes.path</text>
<text text-anchor="start" x="796.5" y="-78.5" font-family="Helvetica,sans-Serif" font-size="10.00">Building.PathBuildingScene.create</text>
<text text-anchor="middle" x="878" y="-67.5" font-family="Helvetica,sans-Serif" font-size="10.00">PathBuildingOptions</text>
</a>
</g>
</g>
<!-- Node7&#45;&gt;Node8 -->
<g id="edge7" class="edge"><title>Node7&#45;&gt;Node8</title>
<path fill="none" stroke="midnightblue" d="M737.984,-64.1154C754.725,-66.1488 771.853,-68.2291 788.111,-70.2038"/>
<polygon fill="midnightblue" stroke="midnightblue" points="737.97,-60.5881 727.621,-62.8568 737.126,-67.5371 737.97,-60.5881"/>
</g>
<!-- Node10 -->
<g id="node10" class="node"><title>Node10</title>
<g id="a_node10"><a xlink:href="../../d6/d82/classgame_authoring_1_1scenes_1_1path_building_1_1_path_building_scene.html#a1c76a52dba358b52c7127783882726f9" target="_top" xlink:title="gameAuthoring.scenes.path\lBuilding.PathBuildingScene.set\lBackground">
<polygon fill="white" stroke="black" points="796,-0.5 796,-41.5 960,-41.5 960,-0.5 796,-0.5"/>
<text text-anchor="start" x="804" y="-29.5" font-family="Helvetica,sans-Serif" font-size="10.00">gameAuthoring.scenes.path</text>
<text text-anchor="start" x="804" y="-18.5" font-family="Helvetica,sans-Serif" font-size="10.00">Building.PathBuildingScene.set</text>
<text text-anchor="middle" x="878" y="-7.5" font-family="Helvetica,sans-Serif" font-size="10.00">Background</text>
</a>
</g>
</g>
<!-- Node7&#45;&gt;Node10 -->
<g id="edge9" class="edge"><title>Node7&#45;&gt;Node10</title>
<path fill="none" stroke="midnightblue" d="M737.779,-37.9094C757.317,-35.5364 777.389,-33.0986 795.995,-30.8387"/>
<polygon fill="midnightblue" stroke="midnightblue" points="737.126,-34.4629 727.621,-39.1432 737.97,-41.4119 737.126,-34.4629"/>
</g>
<!-- Node9 -->
<g id="node9" class="node"><title>Node9</title>
<g id="a_node9"><a xlink:href="../../d6/d82/classgame_authoring_1_1scenes_1_1path_building_1_1_path_building_scene.html#aa265fe743457d8feda83464c9af1f288" target="_top" xlink:title="gameAuthoring.scenes.path\lBuilding.PathBuildingScene.Path\lBuildingScene">
<polygon fill="white" stroke="black" points="1004,-60.5 1004,-101.5 1174,-101.5 1174,-60.5 1004,-60.5"/>
<text text-anchor="start" x="1012" y="-89.5" font-family="Helvetica,sans-Serif" font-size="10.00">gameAuthoring.scenes.path</text>
<text text-anchor="start" x="1012" y="-78.5" font-family="Helvetica,sans-Serif" font-size="10.00">Building.PathBuildingScene.Path</text>
<text text-anchor="middle" x="1089" y="-67.5" font-family="Helvetica,sans-Serif" font-size="10.00">BuildingScene</text>
</a>
</g>
</g>
<!-- Node8&#45;&gt;Node9 -->
<g id="edge8" class="edge"><title>Node8&#45;&gt;Node9</title>
<path fill="none" stroke="midnightblue" d="M977.826,-81C986.541,-81 995.309,-81 1003.89,-81"/>
<polygon fill="midnightblue" stroke="midnightblue" points="977.635,-77.5001 967.635,-81 977.635,-84.5001 977.635,-77.5001"/>
</g>
</g>
</svg>
        <g id="navigator" transform="translate(0 0)" fill="#404254">
                <rect fill="#f2f5e9" fill-opacity="0.5" stroke="#606060" stroke-width=".5" x="0" y="0" width="60" height="60"/>
                <use id="zoomplus" xlink:href="#zoomPlus" x="17" y="9" onmousedown="handleZoom(evt,'in')"/>
                <use id="zoomminus" xlink:href="#zoomMin" x="42" y="9" onmousedown="handleZoom(evt,'out')"/>
                <use id="reset" xlink:href="#resetDef" x="30" y="36" onmousedown="handleReset()"/>
                <g id="arrowUp" xlink:href="#dirArrow" transform="translate(30 24)" onmousedown="handlePan(0,-1)">
                  <use xlink:href="#rim" fill="#404040">
                        <set attributeName="fill" to="#808080" begin="arrowUp.mouseover" end="arrowUp.mouseout"/>
                  </use>
                  <path fill="none" stroke="white" stroke-width="1.5" d="M0,-3.0v7 M-2.5,-0.5L0,-3.0L2.5,-0.5"/>
                </g>
                <g id="arrowRight" xlink:href="#dirArrow" transform="rotate(90) translate(36 -43)" onmousedown="handlePan(1,0)">
                  <use xlink:href="#rim" fill="#404040">
                        <set attributeName="fill" to="#808080" begin="arrowRight.mouseover" end="arrowRight.mouseout"/>
                  </use>
                  <path fill="none" stroke="white" stroke-width="1.5" d="M0,-3.0v7 M-2.5,-0.5L0,-3.0L2.5,-0.5"/>
                </g>
                <g id="arrowDown" xlink:href="#dirArrow" transform="rotate(180) translate(-30 -48)" onmousedown="handlePan(0,1)">
                  <use xlink:href="#rim" fill="#404040">
                        <set attributeName="fill" to="#808080" begin="arrowDown.mouseover" end="arrowDown.mouseout"/>
                  </use>
                  <path fill="none" stroke="white" stroke-width="1.5" d="M0,-3.0v7 M-2.5,-0.5L0,-3.0L2.5,-0.5"/>
                </g>
                <g id="arrowLeft" xlink:href="#dirArrow" transform="rotate(270) translate(-36 17)" onmousedown="handlePan(-1,0)">
                  <use xlink:href="#rim" fill="#404040">
                        <set attributeName="fill" to="#808080" begin="arrowLeft.mouseover" end="arrowLeft.mouseout"/>
                  </use>
                  <path fill="none" stroke="white" stroke-width="1.5" d="M0,-3.0v7 M-2.5,-0.5L0,-3.0L2.5,-0.5"/>
                </g>
        </g>
        <svg viewBox="0 0 15 15" width="100%" height="30px" preserveAspectRatio="xMaxYMin meet">
         <g id="arrow_out" transform="scale(0.3 0.3)">
          <a xlink:href="classgame_authoring_1_1scenes_1_1path_building_1_1path_components_1_1_path_ae389111213dce9b57bf6bbd788449fb0_icgraph_org.svg" target="_base">
           <rect id="button" ry="5" rx="5" y="6" x="6" height="38" width="38"
                fill="#f2f5e9" fill-opacity="0.5" stroke="#606060" stroke-width="1.0"/>
           <path id="arrow"
             d="M 11.500037,31.436501 C 11.940474,20.09759 22.043105,11.32322 32.158766,21.979434 L 37.068811,17.246167 C 37.068811,17.246167 37.088388,32 37.088388,32 L 22.160133,31.978069 C 22.160133,31.978069 26.997745,27.140456 26.997745,27.140456 C 18.528582,18.264221 13.291696,25.230495 11.500037,31.436501 z"
             style="fill:#404040;"/>
          </a>
         </g>
        </svg>
</svg>
