<?xml version="1.0" encoding="UTF-8" standalone="no"?>
<!DOCTYPE svg PUBLIC "-//W3C//DTD SVG 1.1//EN"
 "http://www.w3.org/Graphics/SVG/1.1/DTD/svg11.dtd">
<!-- Generated by graphviz version 2.36.0 (20140111.2315)
 -->
<!-- Title: gameAuthoring.scenes.pathBuilding.pathComponents.Path.tryToAddConnectComponentToEndingLocation Pages: 1 -->
<!--zoomable 289 -->
<svg id="main" version="1.1" xmlns="http://www.w3.org/2000/svg" xmlns:xlink="http://www.w3.org/1999/xlink" xml:space="preserve" onload="init(evt)">
<style type="text/css"><![CDATA[
.edge:hover path { stroke: red; }
.edge:hover polygon { stroke: red; fill: red; }
]]></style>
<script type="text/javascript"><![CDATA[
var edges = document.getElementsByTagName('g');
if (edges && edges.length) {
  for (var i=0;i<edges.length;i++) {
    if (edges[i].id.substr(0,4)=='edge') {
      edges[i].setAttribute('class','edge');
    }
  }
}
]]></script>
        <defs>
                <circle id="rim" cx="0" cy="0" r="7"/>
                <circle id="rim2" cx="0" cy="0" r="3.5"/>
                <g id="zoomPlus">
                        <use xlink:href="#rim" fill="#404040">
                                <set attributeName="fill" to="#808080" begin="zoomplus.mouseover" end="zoomplus.mouseout"/>
                        </use>
                        <path d="M-4,0h8M0,-4v8" fill="none" stroke="white" stroke-width="1.5" pointer-events="none"/>
                </g>
                <g id="zoomMin">
                        <use xlink:href="#rim" fill="#404040">
                                <set attributeName="fill" to="#808080" begin="zoomminus.mouseover" end="zoomminus.mouseout"/>
                        </use>
                        <path d="M-4,0h8" fill="none" stroke="white" stroke-width="1.5" pointer-events="none"/>
                </g>
                <g id="dirArrow">
                        <path fill="none" stroke="white" stroke-width="1.5" d="M0,-3.0v7 M-2.5,-0.5L0,-3.0L2.5,-0.5"/>
                </g>
               <g id="resetDef">
                       <use xlink:href="#rim2" fill="#404040">
                               <set attributeName="fill" to="#808080" begin="reset.mouseover" end="reset.mouseout"/>
                       </use>
               </g>
        </defs>

<script type="text/javascript">
var viewWidth = 508;
var viewHeight = 289;
var sectionId = 'dynsection-54';
</script>
<script xlink:href="../../svgpan.js"/>
<svg id="graph" class="graph">
<g id="viewport">
<title>gameAuthoring.scenes.pathBuilding.pathComponents.Path.tryToAddConnectComponentToEndingLocation</title>
<polygon fill="white" stroke="none" points="-4,4 -4,-285 504,-285 504,4 -4,4"/>
<!-- Node1 -->
<g id="node1" class="node"><title>Node1</title>
<polygon fill="#bfbfbf" stroke="black" points="0,-119.5 0,-160.5 224,-160.5 224,-119.5 0,-119.5"/>
<text text-anchor="start" x="8" y="-148.5" font-family="Helvetica,sans-Serif" font-size="10.00">gameAuthoring.scenes.path</text>
<text text-anchor="start" x="8" y="-137.5" font-family="Helvetica,sans-Serif" font-size="10.00">Building.pathComponents.Path.try</text>
<text text-anchor="middle" x="112" y="-126.5" font-family="Helvetica,sans-Serif" font-size="10.00">ToAddConnectComponentToEndingLocation</text>
</g>
<!-- Node2 -->
<g id="node2" class="node"><title>Node2</title>
<g id="a_node2"><a xlink:href="../../d1/d65/classgame_authoring_1_1scenes_1_1path_building_1_1path_components_1_1_path.html#a14ed64a3566a6bbc791a361c8906f448" target="_top" xlink:title="gameAuthoring.scenes.path\lBuilding.pathComponents.Path.added\lComponentIsWithinCircle">
<polygon fill="white" stroke="black" points="281.5,-239.5 281.5,-280.5 478.5,-280.5 478.5,-239.5 281.5,-239.5"/>
<text text-anchor="start" x="289.5" y="-268.5" font-family="Helvetica,sans-Serif" font-size="10.00">gameAuthoring.scenes.path</text>
<text text-anchor="start" x="289.5" y="-257.5" font-family="Helvetica,sans-Serif" font-size="10.00">Building.pathComponents.Path.added</text>
<text text-anchor="middle" x="380" y="-246.5" font-family="Helvetica,sans-Serif" font-size="10.00">ComponentIsWithinCircle</text>
</a>
</g>
</g>
<!-- Node1&#45;&gt;Node2 -->
<g id="edge1" class="edge"><title>Node1&#45;&gt;Node2</title>
<path fill="none" stroke="midnightblue" d="M141.23,-160.513C169.889,-180.493 216.164,-210.486 260,-229 266.144,-231.595 272.561,-234.019 279.093,-236.273"/>
<polygon fill="midnightblue" stroke="midnightblue" points="278.133,-239.642 288.726,-239.457 280.33,-232.996 278.133,-239.642"/>
</g>
<!-- Node3 -->
<g id="node3" class="node"><title>Node3</title>
<g id="a_node3"><a xlink:href="../../df/dea/interfacegame_authoring_1_1scenes_1_1path_building_1_1path_components_1_1_path_component.html#a40cb4921333d7a54fa51132e33b8bfa2" target="_top" xlink:title="gameAuthoring.scenes.path\lBuilding.pathComponents.PathComponent.get\lEndingPoint">
<polygon fill="white" stroke="black" points="260.5,-179.5 260.5,-220.5 499.5,-220.5 499.5,-179.5 260.5,-179.5"/>
<text text-anchor="start" x="268.5" y="-208.5" font-family="Helvetica,sans-Serif" font-size="10.00">gameAuthoring.scenes.path</text>
<text text-anchor="start" x="268.5" y="-197.5" font-family="Helvetica,sans-Serif" font-size="10.00">Building.pathComponents.PathComponent.get</text>
<text text-anchor="middle" x="380" y="-186.5" font-family="Helvetica,sans-Serif" font-size="10.00">EndingPoint</text>
</a>
</g>
</g>
<!-- Node1&#45;&gt;Node3 -->
<g id="edge2" class="edge"><title>Node1&#45;&gt;Node3</title>
<path fill="none" stroke="midnightblue" d="M204.17,-160.565C227.963,-165.931 253.744,-171.747 278.013,-177.221"/>
<polygon fill="midnightblue" stroke="midnightblue" points="277.424,-180.676 287.949,-179.462 278.964,-173.848 277.424,-180.676"/>
</g>
<!-- Node4 -->
<g id="node4" class="node"><title>Node4</title>
<g id="a_node4"><a xlink:href="../../d1/d65/classgame_authoring_1_1scenes_1_1path_building_1_1path_components_1_1_path.html#a628d6d2e49adf5a7f774d6fc2c1cefbe" target="_top" xlink:title="gameAuthoring.scenes.path\lBuilding.pathComponents.Path.get\lRouteContaining">
<polygon fill="white" stroke="black" points="288.5,-119.5 288.5,-160.5 471.5,-160.5 471.5,-119.5 288.5,-119.5"/>
<text text-anchor="start" x="296.5" y="-148.5" font-family="Helvetica,sans-Serif" font-size="10.00">gameAuthoring.scenes.path</text>
<text text-anchor="start" x="296.5" y="-137.5" font-family="Helvetica,sans-Serif" font-size="10.00">Building.pathComponents.Path.get</text>
<text text-anchor="middle" x="380" y="-126.5" font-family="Helvetica,sans-Serif" font-size="10.00">RouteContaining</text>
</a>
</g>
</g>
<!-- Node1&#45;&gt;Node4 -->
<g id="edge3" class="edge"><title>Node1&#45;&gt;Node4</title>
<path fill="none" stroke="midnightblue" d="M224.267,-140C242.118,-140 260.506,-140 278.097,-140"/>
<polygon fill="midnightblue" stroke="midnightblue" points="278.353,-143.5 288.353,-140 278.353,-136.5 278.353,-143.5"/>
</g>
<!-- Node5 -->
<g id="node5" class="node"><title>Node5</title>
<g id="a_node5"><a xlink:href="../../d7/d4d/classgame_authoring_1_1scenes_1_1path_building_1_1path_components_1_1_path_route.html#a269c86f753c0de8a2a92f274ed6aba00" target="_top" xlink:title="gameAuthoring.scenes.path\lBuilding.pathComponents.PathRoute.set\lEndingLocation">
<polygon fill="white" stroke="black" points="275.5,-59.5 275.5,-100.5 484.5,-100.5 484.5,-59.5 275.5,-59.5"/>
<text text-anchor="start" x="283.5" y="-88.5" font-family="Helvetica,sans-Serif" font-size="10.00">gameAuthoring.scenes.path</text>
<text text-anchor="start" x="283.5" y="-77.5" font-family="Helvetica,sans-Serif" font-size="10.00">Building.pathComponents.PathRoute.set</text>
<text text-anchor="middle" x="380" y="-66.5" font-family="Helvetica,sans-Serif" font-size="10.00">EndingLocation</text>
</a>
</g>
</g>
<!-- Node1&#45;&gt;Node5 -->
<g id="edge4" class="edge"><title>Node1&#45;&gt;Node5</title>
<path fill="none" stroke="midnightblue" d="M204.17,-119.435C227.963,-114.069 253.744,-108.253 278.013,-102.779"/>
<polygon fill="midnightblue" stroke="midnightblue" points="278.964,-106.152 287.949,-100.538 277.424,-99.324 278.964,-106.152"/>
</g>
<!-- Node6 -->
<g id="node6" class="node"><title>Node6</title>
<g id="a_node6"><a xlink:href="../../df/dea/interfacegame_authoring_1_1scenes_1_1path_building_1_1path_components_1_1_path_component.html#ad55a38352b711c11555a316964e3eb0e" target="_top" xlink:title="gameAuthoring.scenes.path\lBuilding.pathComponents.PathComponent.set\lEndingPoint">
<polygon fill="white" stroke="black" points="260.5,0.5 260.5,-40.5 499.5,-40.5 499.5,0.5 260.5,0.5"/>
<text text-anchor="start" x="268.5" y="-28.5" font-family="Helvetica,sans-Serif" font-size="10.00">gameAuthoring.scenes.path</text>
<text text-anchor="start" x="268.5" y="-17.5" font-family="Helvetica,sans-Serif" font-size="10.00">Building.pathComponents.PathComponent.set</text>
<text text-anchor="middle" x="380" y="-6.5" font-family="Helvetica,sans-Serif" font-size="10.00">EndingPoint</text>
</a>
</g>
</g>
<!-- Node1&#45;&gt;Node6 -->
<g id="edge5" class="edge"><title>Node1&#45;&gt;Node6</title>
<path fill="none" stroke="midnightblue" d="M140.893,-119.355C169.478,-99.0791 215.867,-68.5638 260,-50 265.284,-47.7773 270.772,-45.6904 276.363,-43.7353"/>
<polygon fill="midnightblue" stroke="midnightblue" points="277.473,-47.0548 285.85,-40.5689 275.257,-40.4148 277.473,-47.0548"/>
</g>
</g>
</svg>
        <g id="navigator" transform="translate(0 0)" fill="#404254">
                <rect fill="#f2f5e9" fill-opacity="0.5" stroke="#606060" stroke-width=".5" x="0" y="0" width="60" height="60"/>
                <use id="zoomplus" xlink:href="#zoomPlus" x="17" y="9" onmousedown="handleZoom(evt,'in')"/>
                <use id="zoomminus" xlink:href="#zoomMin" x="42" y="9" onmousedown="handleZoom(evt,'out')"/>
                <use id="reset" xlink:href="#resetDef" x="30" y="36" onmousedown="handleReset()"/>
                <g id="arrowUp" xlink:href="#dirArrow" transform="translate(30 24)" onmousedown="handlePan(0,-1)">
                  <use xlink:href="#rim" fill="#404040">
                        <set attributeName="fill" to="#808080" begin="arrowUp.mouseover" end="arrowUp.mouseout"/>
                  </use>
                  <path fill="none" stroke="white" stroke-width="1.5" d="M0,-3.0v7 M-2.5,-0.5L0,-3.0L2.5,-0.5"/>
                </g>
                <g id="arrowRight" xlink:href="#dirArrow" transform="rotate(90) translate(36 -43)" onmousedown="handlePan(1,0)">
                  <use xlink:href="#rim" fill="#404040">
                        <set attributeName="fill" to="#808080" begin="arrowRight.mouseover" end="arrowRight.mouseout"/>
                  </use>
                  <path fill="none" stroke="white" stroke-width="1.5" d="M0,-3.0v7 M-2.5,-0.5L0,-3.0L2.5,-0.5"/>
                </g>
                <g id="arrowDown" xlink:href="#dirArrow" transform="rotate(180) translate(-30 -48)" onmousedown="handlePan(0,1)">
                  <use xlink:href="#rim" fill="#404040">
                        <set attributeName="fill" to="#808080" begin="arrowDown.mouseover" end="arrowDown.mouseout"/>
                  </use>
                  <path fill="none" stroke="white" stroke-width="1.5" d="M0,-3.0v7 M-2.5,-0.5L0,-3.0L2.5,-0.5"/>
                </g>
                <g id="arrowLeft" xlink:href="#dirArrow" transform="rotate(270) translate(-36 17)" onmousedown="handlePan(-1,0)">
                  <use xlink:href="#rim" fill="#404040">
                        <set attributeName="fill" to="#808080" begin="arrowLeft.mouseover" end="arrowLeft.mouseout"/>
                  </use>
                  <path fill="none" stroke="white" stroke-width="1.5" d="M0,-3.0v7 M-2.5,-0.5L0,-3.0L2.5,-0.5"/>
                </g>
        </g>
        <svg viewBox="0 0 15 15" width="100%" height="30px" preserveAspectRatio="xMaxYMin meet">
         <g id="arrow_out" transform="scale(0.3 0.3)">
          <a xlink:href="classgame_authoring_1_1scenes_1_1path_building_1_1path_components_1_1_path_a15aa19b79c590df6ddbb354798c999c9_cgraph_org.svg" target="_base">
           <rect id="button" ry="5" rx="5" y="6" x="6" height="38" width="38"
                fill="#f2f5e9" fill-opacity="0.5" stroke="#606060" stroke-width="1.0"/>
           <path id="arrow"
             d="M 11.500037,31.436501 C 11.940474,20.09759 22.043105,11.32322 32.158766,21.979434 L 37.068811,17.246167 C 37.068811,17.246167 37.088388,32 37.088388,32 L 22.160133,31.978069 C 22.160133,31.978069 26.997745,27.140456 26.997745,27.140456 C 18.528582,18.264221 13.291696,25.230495 11.500037,31.436501 z"
             style="fill:#404040;"/>
          </a>
         </g>
        </svg>
</svg>
