<?xml version="1.0" encoding="UTF-8" standalone="no"?>
<!DOCTYPE svg PUBLIC "-//W3C//DTD SVG 1.1//EN"
 "http://www.w3.org/Graphics/SVG/1.1/DTD/svg11.dtd">
<!-- Generated by graphviz version 2.36.0 (20140111.2315)
 -->
<!-- Title: gameAuthoring.scenes.pathBuilding.pathComponents.Path.getNumRoutes Pages: 1 -->
<svg width="446pt" height="529pt"
 viewBox="0.00 0.00 446.00 529.00" xmlns="http://www.w3.org/2000/svg" xmlns:xlink="http://www.w3.org/1999/xlink">
<g id="graph0" class="graph" transform="scale(1 1) rotate(0) translate(4 525)">
<title>gameAuthoring.scenes.pathBuilding.pathComponents.Path.getNumRoutes</title>
<polygon fill="white" stroke="none" points="-4,4 -4,-525 442,-525 442,4 -4,4"/>
<!-- Node1 -->
<g id="node1" class="node"><title>Node1</title>
<polygon fill="#bfbfbf" stroke="black" points="0.5,-239.5 0.5,-280.5 183.5,-280.5 183.5,-239.5 0.5,-239.5"/>
<text text-anchor="start" x="8.5" y="-268.5" font-family="Helvetica,sans-Serif" font-size="10.00">gameAuthoring.scenes.path</text>
<text text-anchor="start" x="8.5" y="-257.5" font-family="Helvetica,sans-Serif" font-size="10.00">Building.pathComponents.Path.get</text>
<text text-anchor="middle" x="92" y="-246.5" font-family="Helvetica,sans-Serif" font-size="10.00">NumRoutes</text>
</g>
<!-- Node2 -->
<g id="node2" class="node"><title>Node2</title>
<g id="a_node2"><a xlink:href="../../d2/d34/classgame_authoring_1_1scenes_1_1path_building_1_1path_components_1_1_path_creation_tests.html#a0911a7565ec3a567911ed649f2c837d0" target="_top" xlink:title="gameAuthoring.scenes.path\lBuilding.pathComponents.PathCreation\lTests.AddSingleCurveComponentTest">
<polygon fill="white" stroke="black" points="226.5,-479.5 226.5,-520.5 431.5,-520.5 431.5,-479.5 226.5,-479.5"/>
<text text-anchor="start" x="234.5" y="-508.5" font-family="Helvetica,sans-Serif" font-size="10.00">gameAuthoring.scenes.path</text>
<text text-anchor="start" x="234.5" y="-497.5" font-family="Helvetica,sans-Serif" font-size="10.00">Building.pathComponents.PathCreation</text>
<text text-anchor="middle" x="329" y="-486.5" font-family="Helvetica,sans-Serif" font-size="10.00">Tests.AddSingleCurveComponentTest</text>
</a>
</g>
</g>
<!-- Node1&#45;&gt;Node2 -->
<g id="edge1" class="edge"><title>Node1&#45;&gt;Node2</title>
<path fill="none" stroke="midnightblue" d="M103.244,-290.374C120.212,-336.046 158.51,-422.046 220,-469 225.194,-472.966 230.878,-476.425 236.835,-479.441"/>
<polygon fill="midnightblue" stroke="midnightblue" points="106.451,-288.951 99.7591,-280.738 99.8685,-291.332 106.451,-288.951"/>
</g>
<!-- Node3 -->
<g id="node3" class="node"><title>Node3</title>
<g id="a_node3"><a xlink:href="../../d2/d34/classgame_authoring_1_1scenes_1_1path_building_1_1path_components_1_1_path_creation_tests.html#a8299a5b4ff7674dbfa2223a26fd4c2db" target="_top" xlink:title="gameAuthoring.scenes.path\lBuilding.pathComponents.PathCreation\lTests.AddSingleLineComponentTest">
<polygon fill="white" stroke="black" points="226.5,-419.5 226.5,-460.5 431.5,-460.5 431.5,-419.5 226.5,-419.5"/>
<text text-anchor="start" x="234.5" y="-448.5" font-family="Helvetica,sans-Serif" font-size="10.00">gameAuthoring.scenes.path</text>
<text text-anchor="start" x="234.5" y="-437.5" font-family="Helvetica,sans-Serif" font-size="10.00">Building.pathComponents.PathCreation</text>
<text text-anchor="middle" x="329" y="-426.5" font-family="Helvetica,sans-Serif" font-size="10.00">Tests.AddSingleLineComponentTest</text>
</a>
</g>
</g>
<!-- Node1&#45;&gt;Node3 -->
<g id="edge2" class="edge"><title>Node1&#45;&gt;Node3</title>
<path fill="none" stroke="midnightblue" d="M110.337,-289.208C131.874,-322.984 171.735,-377.912 220,-409 226.15,-412.961 232.815,-416.427 239.714,-419.458"/>
<polygon fill="midnightblue" stroke="midnightblue" points="113.281,-287.314 105.01,-280.692 107.346,-291.026 113.281,-287.314"/>
</g>
<!-- Node4 -->
<g id="node4" class="node"><title>Node4</title>
<g id="a_node4"><a xlink:href="../../d2/d34/classgame_authoring_1_1scenes_1_1path_building_1_1path_components_1_1_path_creation_tests.html#ac9531a7f491a2dd23e3f1f4fefeae341" target="_top" xlink:title="gameAuthoring.scenes.path\lBuilding.pathComponents.PathCreation\lTests.AttemptToConnectRoutesFORKTest">
<polygon fill="white" stroke="black" points="225,-359.5 225,-400.5 433,-400.5 433,-359.5 225,-359.5"/>
<text text-anchor="start" x="233" y="-388.5" font-family="Helvetica,sans-Serif" font-size="10.00">gameAuthoring.scenes.path</text>
<text text-anchor="start" x="233" y="-377.5" font-family="Helvetica,sans-Serif" font-size="10.00">Building.pathComponents.PathCreation</text>
<text text-anchor="middle" x="329" y="-366.5" font-family="Helvetica,sans-Serif" font-size="10.00">Tests.AttemptToConnectRoutesFORKTest</text>
</a>
</g>
</g>
<!-- Node1&#45;&gt;Node4 -->
<g id="edge3" class="edge"><title>Node1&#45;&gt;Node4</title>
<path fill="none" stroke="midnightblue" d="M125.157,-287.079C149.773,-306.64 185.291,-332.431 220,-349 228.098,-352.866 236.773,-356.343 245.556,-359.447"/>
<polygon fill="midnightblue" stroke="midnightblue" points="127.227,-284.253 117.243,-280.707 122.837,-289.705 127.227,-284.253"/>
</g>
<!-- Node5 -->
<g id="node5" class="node"><title>Node5</title>
<g id="a_node5"><a xlink:href="../../d2/d34/classgame_authoring_1_1scenes_1_1path_building_1_1path_components_1_1_path_creation_tests.html#a6981d0f68e924cf3aca2ebb00a781c66" target="_top" xlink:title="gameAuthoring.scenes.path\lBuilding.pathComponents.PathCreation\lTests.AttemptToConnectRoutesNoForkTest">
<polygon fill="white" stroke="black" points="220,-299.5 220,-340.5 438,-340.5 438,-299.5 220,-299.5"/>
<text text-anchor="start" x="228" y="-328.5" font-family="Helvetica,sans-Serif" font-size="10.00">gameAuthoring.scenes.path</text>
<text text-anchor="start" x="228" y="-317.5" font-family="Helvetica,sans-Serif" font-size="10.00">Building.pathComponents.PathCreation</text>
<text text-anchor="middle" x="329" y="-306.5" font-family="Helvetica,sans-Serif" font-size="10.00">Tests.AttemptToConnectRoutesNoForkTest</text>
</a>
</g>
</g>
<!-- Node1&#45;&gt;Node5 -->
<g id="edge4" class="edge"><title>Node1&#45;&gt;Node5</title>
<path fill="none" stroke="midnightblue" d="M183.47,-283.099C204.58,-288.488 226.92,-294.192 247.56,-299.462"/>
<polygon fill="midnightblue" stroke="midnightblue" points="184.1,-279.647 173.545,-280.565 182.368,-286.43 184.1,-279.647"/>
</g>
<!-- Node6 -->
<g id="node6" class="node"><title>Node6</title>
<g id="a_node6"><a xlink:href="../../d2/d34/classgame_authoring_1_1scenes_1_1path_building_1_1path_components_1_1_path_creation_tests.html#abc7f89653e322c800da5fc26c4719b5a" target="_top" xlink:title="gameAuthoring.scenes.path\lBuilding.pathComponents.PathCreation\lTests.ConnectLineToCurveTest">
<polygon fill="white" stroke="black" points="226.5,-239.5 226.5,-280.5 431.5,-280.5 431.5,-239.5 226.5,-239.5"/>
<text text-anchor="start" x="234.5" y="-268.5" font-family="Helvetica,sans-Serif" font-size="10.00">gameAuthoring.scenes.path</text>
<text text-anchor="start" x="234.5" y="-257.5" font-family="Helvetica,sans-Serif" font-size="10.00">Building.pathComponents.PathCreation</text>
<text text-anchor="middle" x="329" y="-246.5" font-family="Helvetica,sans-Serif" font-size="10.00">Tests.ConnectLineToCurveTest</text>
</a>
</g>
</g>
<!-- Node1&#45;&gt;Node6 -->
<g id="edge5" class="edge"><title>Node1&#45;&gt;Node6</title>
<path fill="none" stroke="midnightblue" d="M193.749,-260C204.491,-260 215.424,-260 226.178,-260"/>
<polygon fill="midnightblue" stroke="midnightblue" points="193.521,-256.5 183.521,-260 193.521,-263.5 193.521,-256.5"/>
</g>
<!-- Node7 -->
<g id="node7" class="node"><title>Node7</title>
<g id="a_node7"><a xlink:href="../../d2/d34/classgame_authoring_1_1scenes_1_1path_building_1_1path_components_1_1_path_creation_tests.html#a7271f13f8ea9f6e6f9137d8237802963" target="_top" xlink:title="gameAuthoring.scenes.path\lBuilding.pathComponents.PathCreation\lTests.ConnectRoutesTest">
<polygon fill="white" stroke="black" points="226.5,-179.5 226.5,-220.5 431.5,-220.5 431.5,-179.5 226.5,-179.5"/>
<text text-anchor="start" x="234.5" y="-208.5" font-family="Helvetica,sans-Serif" font-size="10.00">gameAuthoring.scenes.path</text>
<text text-anchor="start" x="234.5" y="-197.5" font-family="Helvetica,sans-Serif" font-size="10.00">Building.pathComponents.PathCreation</text>
<text text-anchor="middle" x="329" y="-186.5" font-family="Helvetica,sans-Serif" font-size="10.00">Tests.ConnectRoutesTest</text>
</a>
</g>
</g>
<!-- Node1&#45;&gt;Node7 -->
<g id="edge6" class="edge"><title>Node1&#45;&gt;Node7</title>
<path fill="none" stroke="midnightblue" d="M183.47,-236.901C204.58,-231.512 226.92,-225.808 247.56,-220.538"/>
<polygon fill="midnightblue" stroke="midnightblue" points="182.368,-233.57 173.545,-239.435 184.1,-240.353 182.368,-233.57"/>
</g>
<!-- Node8 -->
<g id="node8" class="node"><title>Node8</title>
<g id="a_node8"><a xlink:href="../../d2/d34/classgame_authoring_1_1scenes_1_1path_building_1_1path_components_1_1_path_creation_tests.html#a890f9b36b921569b05338a8b8658e03b" target="_top" xlink:title="gameAuthoring.scenes.path\lBuilding.pathComponents.PathCreation\lTests.ConnectTwoCurvesTest">
<polygon fill="white" stroke="black" points="226.5,-119.5 226.5,-160.5 431.5,-160.5 431.5,-119.5 226.5,-119.5"/>
<text text-anchor="start" x="234.5" y="-148.5" font-family="Helvetica,sans-Serif" font-size="10.00">gameAuthoring.scenes.path</text>
<text text-anchor="start" x="234.5" y="-137.5" font-family="Helvetica,sans-Serif" font-size="10.00">Building.pathComponents.PathCreation</text>
<text text-anchor="middle" x="329" y="-126.5" font-family="Helvetica,sans-Serif" font-size="10.00">Tests.ConnectTwoCurvesTest</text>
</a>
</g>
</g>
<!-- Node1&#45;&gt;Node8 -->
<g id="edge7" class="edge"><title>Node1&#45;&gt;Node8</title>
<path fill="none" stroke="midnightblue" d="M124.603,-232.883C149.188,-213.003 184.915,-186.677 220,-170 227.294,-166.533 235.061,-163.402 242.956,-160.588"/>
<polygon fill="midnightblue" stroke="midnightblue" points="122.223,-230.308 116.709,-239.355 126.661,-235.721 122.223,-230.308"/>
</g>
<!-- Node9 -->
<g id="node9" class="node"><title>Node9</title>
<g id="a_node9"><a xlink:href="../../d2/d34/classgame_authoring_1_1scenes_1_1path_building_1_1path_components_1_1_path_creation_tests.html#ad3d391bd2d9c1a46dc8244db73f7448a" target="_top" xlink:title="gameAuthoring.scenes.path\lBuilding.pathComponents.PathCreation\lTests.ConnectTwoLinesTest">
<polygon fill="white" stroke="black" points="226.5,-59.5 226.5,-100.5 431.5,-100.5 431.5,-59.5 226.5,-59.5"/>
<text text-anchor="start" x="234.5" y="-88.5" font-family="Helvetica,sans-Serif" font-size="10.00">gameAuthoring.scenes.path</text>
<text text-anchor="start" x="234.5" y="-77.5" font-family="Helvetica,sans-Serif" font-size="10.00">Building.pathComponents.PathCreation</text>
<text text-anchor="middle" x="329" y="-66.5" font-family="Helvetica,sans-Serif" font-size="10.00">Tests.ConnectTwoLinesTest</text>
</a>
</g>
</g>
<!-- Node1&#45;&gt;Node9 -->
<g id="edge8" class="edge"><title>Node1&#45;&gt;Node9</title>
<path fill="none" stroke="midnightblue" d="M110.069,-230.798C131.474,-196.748 171.333,-141.166 220,-110 225.572,-106.432 231.569,-103.282 237.779,-100.503"/>
<polygon fill="midnightblue" stroke="midnightblue" points="107.048,-229.029 104.78,-239.378 113.007,-232.703 107.048,-229.029"/>
</g>
<!-- Node10 -->
<g id="node10" class="node"><title>Node10</title>
<g id="a_node10"><a xlink:href="../../d2/d34/classgame_authoring_1_1scenes_1_1path_building_1_1path_components_1_1_path_creation_tests.html#a1f6df71a1808af781e53fb0ebe9eb1fa" target="_top" xlink:title="gameAuthoring.scenes.path\lBuilding.pathComponents.PathCreation\lTests.CreateTwoRoutesTest">
<polygon fill="white" stroke="black" points="226.5,0.5 226.5,-40.5 431.5,-40.5 431.5,0.5 226.5,0.5"/>
<text text-anchor="start" x="234.5" y="-28.5" font-family="Helvetica,sans-Serif" font-size="10.00">gameAuthoring.scenes.path</text>
<text text-anchor="start" x="234.5" y="-17.5" font-family="Helvetica,sans-Serif" font-size="10.00">Building.pathComponents.PathCreation</text>
<text text-anchor="middle" x="329" y="-6.5" font-family="Helvetica,sans-Serif" font-size="10.00">Tests.CreateTwoRoutesTest</text>
</a>
</g>
</g>
<!-- Node1&#45;&gt;Node10 -->
<g id="edge9" class="edge"><title>Node1&#45;&gt;Node10</title>
<path fill="none" stroke="midnightblue" d="M103.024,-229.767C119.806,-183.882 157.985,-97.038 220,-50 224.651,-46.472 229.696,-43.3588 234.977,-40.6118"/>
<polygon fill="midnightblue" stroke="midnightblue" points="99.6369,-228.846 99.5823,-239.44 106.232,-231.192 99.6369,-228.846"/>
</g>
</g>
</svg>
