<?xml version="1.0" encoding="UTF-8" standalone="no"?>
<!DOCTYPE svg PUBLIC "-//W3C//DTD SVG 1.1//EN"
 "http://www.w3.org/Graphics/SVG/1.1/DTD/svg11.dtd">
<!-- Generated by graphviz version 2.36.0 (20140111.2315)
 -->
<!-- Title: gameAuthoring.scenes.pathBuilding.pathComponents.Path.drawComponents Pages: 1 -->
<!--zoomable 962 -->
<svg id="main" version="1.1" xmlns="http://www.w3.org/2000/svg" xmlns:xlink="http://www.w3.org/1999/xlink" xml:space="preserve" onload="init(evt)">
<style type="text/css"><![CDATA[
.edge:hover path { stroke: red; }
.edge:hover polygon { stroke: red; fill: red; }
]]></style>
<script type="text/javascript"><![CDATA[
var edges = document.getElementsByTagName('g');
if (edges && edges.length) {
  for (var i=0;i<edges.length;i++) {
    if (edges[i].id.substr(0,4)=='edge') {
      edges[i].setAttribute('class','edge');
    }
  }
}
]]></script>
        <defs>
                <circle id="rim" cx="0" cy="0" r="7"/>
                <circle id="rim2" cx="0" cy="0" r="3.5"/>
                <g id="zoomPlus">
                        <use xlink:href="#rim" fill="#404040">
                                <set attributeName="fill" to="#808080" begin="zoomplus.mouseover" end="zoomplus.mouseout"/>
                        </use>
                        <path d="M-4,0h8M0,-4v8" fill="none" stroke="white" stroke-width="1.5" pointer-events="none"/>
                </g>
                <g id="zoomMin">
                        <use xlink:href="#rim" fill="#404040">
                                <set attributeName="fill" to="#808080" begin="zoomminus.mouseover" end="zoomminus.mouseout"/>
                        </use>
                        <path d="M-4,0h8" fill="none" stroke="white" stroke-width="1.5" pointer-events="none"/>
                </g>
                <g id="dirArrow">
                        <path fill="none" stroke="white" stroke-width="1.5" d="M0,-3.0v7 M-2.5,-0.5L0,-3.0L2.5,-0.5"/>
                </g>
               <g id="resetDef">
                       <use xlink:href="#rim2" fill="#404040">
                               <set attributeName="fill" to="#808080" begin="reset.mouseover" end="reset.mouseout"/>
                       </use>
               </g>
        </defs>

<script type="text/javascript">
var viewWidth = 1518;
var viewHeight = 962;
var sectionId = 'dynsection-28';
</script>
<script xlink:href="../../svgpan.js"/>
<svg id="graph" class="graph">
<g id="viewport">
<title>gameAuthoring.scenes.pathBuilding.pathComponents.Path.drawComponents</title>
<polygon fill="white" stroke="none" points="-4,4 -4,-958 1514,-958 1514,4 -4,4"/>
<!-- Node1 -->
<g id="node1" class="node"><title>Node1</title>
<polygon fill="#bfbfbf" stroke="black" points="0,-624.5 0,-665.5 190,-665.5 190,-624.5 0,-624.5"/>
<text text-anchor="start" x="8" y="-653.5" font-family="Helvetica,sans-Serif" font-size="10.00">gameAuthoring.scenes.path</text>
<text text-anchor="start" x="8" y="-642.5" font-family="Helvetica,sans-Serif" font-size="10.00">Building.pathComponents.Path.draw</text>
<text text-anchor="middle" x="95" y="-631.5" font-family="Helvetica,sans-Serif" font-size="10.00">Components</text>
</g>
<!-- Node2 -->
<g id="node2" class="node"><title>Node2</title>
<g id="a_node2"><a xlink:href="../../d1/d65/classgame_authoring_1_1scenes_1_1path_building_1_1path_components_1_1_path.html#af2f92d642a6fe0c48c6b87193d462f00" target="_top" xlink:title="gameAuthoring.scenes.path\lBuilding.pathComponents.Path.attempt\lToConnectRoutes">
<polygon fill="white" stroke="black" points="226,-624.5 226,-665.5 432,-665.5 432,-624.5 226,-624.5"/>
<text text-anchor="start" x="234" y="-653.5" font-family="Helvetica,sans-Serif" font-size="10.00">gameAuthoring.scenes.path</text>
<text text-anchor="start" x="234" y="-642.5" font-family="Helvetica,sans-Serif" font-size="10.00">Building.pathComponents.Path.attempt</text>
<text text-anchor="middle" x="329" y="-631.5" font-family="Helvetica,sans-Serif" font-size="10.00">ToConnectRoutes</text>
</a>
</g>
</g>
<!-- Node1&#45;&gt;Node2 -->
<g id="edge1" class="edge"><title>Node1&#45;&gt;Node2</title>
<path fill="none" stroke="midnightblue" d="M200.054,-645C208.639,-645 217.311,-645 225.881,-645"/>
<polygon fill="midnightblue" stroke="midnightblue" points="200.029,-641.5 190.029,-645 200.029,-648.5 200.029,-641.5"/>
</g>
<!-- Node3 -->
<g id="node3" class="node"><title>Node3</title>
<g id="a_node3"><a xlink:href="../../d1/d65/classgame_authoring_1_1scenes_1_1path_building_1_1path_components_1_1_path.html#acffcf828c8875053d700834381b6b747" target="_top" xlink:title="gameAuthoring.scenes.path\lBuilding.pathComponents.Path.add\lComponentToPath">
<polygon fill="white" stroke="black" points="506.5,-522.5 506.5,-563.5 691.5,-563.5 691.5,-522.5 506.5,-522.5"/>
<text text-anchor="start" x="514.5" y="-551.5" font-family="Helvetica,sans-Serif" font-size="10.00">gameAuthoring.scenes.path</text>
<text text-anchor="start" x="514.5" y="-540.5" font-family="Helvetica,sans-Serif" font-size="10.00">Building.pathComponents.Path.add</text>
<text text-anchor="middle" x="599" y="-529.5" font-family="Helvetica,sans-Serif" font-size="10.00">ComponentToPath</text>
</a>
</g>
</g>
<!-- Node2&#45;&gt;Node3 -->
<g id="edge2" class="edge"><title>Node2&#45;&gt;Node3</title>
<path fill="none" stroke="midnightblue" d="M393.425,-620.861C439.156,-603.455 500.233,-580.21 543.716,-563.66"/>
<polygon fill="midnightblue" stroke="midnightblue" points="392.012,-617.653 383.911,-624.481 394.502,-624.195 392.012,-617.653"/>
</g>
<!-- Node6 -->
<g id="node6" class="node"><title>Node6</title>
<g id="a_node6"><a xlink:href="../../d2/d34/classgame_authoring_1_1scenes_1_1path_building_1_1path_components_1_1_path_creation_tests.html#ac9531a7f491a2dd23e3f1f4fefeae341" target="_top" xlink:title="gameAuthoring.scenes.path\lBuilding.pathComponents.PathCreation\lTests.AttemptToConnectRoutesFORKTest">
<polygon fill="white" stroke="black" points="786,-912.5 786,-953.5 994,-953.5 994,-912.5 786,-912.5"/>
<text text-anchor="start" x="794" y="-941.5" font-family="Helvetica,sans-Serif" font-size="10.00">gameAuthoring.scenes.path</text>
<text text-anchor="start" x="794" y="-930.5" font-family="Helvetica,sans-Serif" font-size="10.00">Building.pathComponents.PathCreation</text>
<text text-anchor="middle" x="890" y="-919.5" font-family="Helvetica,sans-Serif" font-size="10.00">Tests.AttemptToConnectRoutesFORKTest</text>
</a>
</g>
</g>
<!-- Node2&#45;&gt;Node6 -->
<g id="edge21" class="edge"><title>Node2&#45;&gt;Node6</title>
<path fill="none" stroke="midnightblue" d="M351.455,-673.559C376.42,-705.078 420.348,-755.508 468,-787 566.262,-851.94 696.553,-891.277 786.021,-912.495"/>
<polygon fill="midnightblue" stroke="midnightblue" points="354.142,-671.313 345.227,-665.589 348.627,-675.624 354.142,-671.313"/>
</g>
<!-- Node7 -->
<g id="node7" class="node"><title>Node7</title>
<g id="a_node7"><a xlink:href="../../d2/d34/classgame_authoring_1_1scenes_1_1path_building_1_1path_components_1_1_path_creation_tests.html#a6981d0f68e924cf3aca2ebb00a781c66" target="_top" xlink:title="gameAuthoring.scenes.path\lBuilding.pathComponents.PathCreation\lTests.AttemptToConnectRoutesNoForkTest">
<polygon fill="white" stroke="black" points="781,-852.5 781,-893.5 999,-893.5 999,-852.5 781,-852.5"/>
<text text-anchor="start" x="789" y="-881.5" font-family="Helvetica,sans-Serif" font-size="10.00">gameAuthoring.scenes.path</text>
<text text-anchor="start" x="789" y="-870.5" font-family="Helvetica,sans-Serif" font-size="10.00">Building.pathComponents.PathCreation</text>
<text text-anchor="middle" x="890" y="-859.5" font-family="Helvetica,sans-Serif" font-size="10.00">Tests.AttemptToConnectRoutesNoForkTest</text>
</a>
</g>
</g>
<!-- Node2&#45;&gt;Node7 -->
<g id="edge22" class="edge"><title>Node2&#45;&gt;Node7</title>
<path fill="none" stroke="midnightblue" d="M378.552,-670.388C457.861,-711.063 620.924,-791.393 766,-842 776.708,-845.735 788.086,-849.223 799.431,-852.41"/>
<polygon fill="midnightblue" stroke="midnightblue" points="379.796,-667.092 369.303,-665.629 376.593,-673.316 379.796,-667.092"/>
</g>
<!-- Node21 -->
<g id="node21" class="node"><title>Node21</title>
<g id="a_node21"><a xlink:href="../../d7/da7/classgame_authoring_1_1scenes_1_1path_building_1_1building_panes_1_1_select_component_pane.html#abfee75cf2b6d4ca0978cc7b44d15f3de" target="_top" xlink:title="gameAuthoring.scenes.path\lBuilding.buildingPanes.SelectComponent\lPane.handleSelectionAndTryToConnectComponents">
<polygon fill="white" stroke="black" points="468,-246.5 468,-287.5 730,-287.5 730,-246.5 468,-246.5"/>
<text text-anchor="start" x="476" y="-275.5" font-family="Helvetica,sans-Serif" font-size="10.00">gameAuthoring.scenes.path</text>
<text text-anchor="start" x="476" y="-264.5" font-family="Helvetica,sans-Serif" font-size="10.00">Building.buildingPanes.SelectComponent</text>
<text text-anchor="middle" x="599" y="-253.5" font-family="Helvetica,sans-Serif" font-size="10.00">Pane.handleSelectionAndTryToConnectComponents</text>
</a>
</g>
</g>
<!-- Node2&#45;&gt;Node21 -->
<g id="edge23" class="edge"><title>Node2&#45;&gt;Node21</title>
<path fill="none" stroke="midnightblue" d="M350.504,-616.08C402.426,-542.847 538.165,-351.394 583.223,-287.842"/>
<polygon fill="midnightblue" stroke="midnightblue" points="347.528,-614.227 344.599,-624.409 353.238,-618.275 347.528,-614.227"/>
</g>
<!-- Node4 -->
<g id="node4" class="node"><title>Node4</title>
<g id="a_node4"><a xlink:href="../../d2/d34/classgame_authoring_1_1scenes_1_1path_building_1_1path_components_1_1_path_creation_tests.html#a0911a7565ec3a567911ed649f2c837d0" target="_top" xlink:title="gameAuthoring.scenes.path\lBuilding.pathComponents.PathCreation\lTests.AddSingleCurveComponentTest">
<polygon fill="white" stroke="black" points="787.5,-240.5 787.5,-281.5 992.5,-281.5 992.5,-240.5 787.5,-240.5"/>
<text text-anchor="start" x="795.5" y="-269.5" font-family="Helvetica,sans-Serif" font-size="10.00">gameAuthoring.scenes.path</text>
<text text-anchor="start" x="795.5" y="-258.5" font-family="Helvetica,sans-Serif" font-size="10.00">Building.pathComponents.PathCreation</text>
<text text-anchor="middle" x="890" y="-247.5" font-family="Helvetica,sans-Serif" font-size="10.00">Tests.AddSingleCurveComponentTest</text>
</a>
</g>
</g>
<!-- Node3&#45;&gt;Node4 -->
<g id="edge3" class="edge"><title>Node3&#45;&gt;Node4</title>
<path fill="none" stroke="midnightblue" d="M611.343,-512.806C632.932,-459.594 685.119,-349.338 766,-292 772.557,-287.351 779.745,-283.398 787.251,-280.036"/>
<polygon fill="midnightblue" stroke="midnightblue" points="607.989,-511.768 607.55,-522.354 614.494,-514.352 607.989,-511.768"/>
</g>
<!-- Node5 -->
<g id="node5" class="node"><title>Node5</title>
<g id="a_node5"><a xlink:href="../../d2/d34/classgame_authoring_1_1scenes_1_1path_building_1_1path_components_1_1_path_creation_tests.html#a8299a5b4ff7674dbfa2223a26fd4c2db" target="_top" xlink:title="gameAuthoring.scenes.path\lBuilding.pathComponents.PathCreation\lTests.AddSingleLineComponentTest">
<polygon fill="white" stroke="black" points="787.5,-180.5 787.5,-221.5 992.5,-221.5 992.5,-180.5 787.5,-180.5"/>
<text text-anchor="start" x="795.5" y="-209.5" font-family="Helvetica,sans-Serif" font-size="10.00">gameAuthoring.scenes.path</text>
<text text-anchor="start" x="795.5" y="-198.5" font-family="Helvetica,sans-Serif" font-size="10.00">Building.pathComponents.PathCreation</text>
<text text-anchor="middle" x="890" y="-187.5" font-family="Helvetica,sans-Serif" font-size="10.00">Tests.AddSingleLineComponentTest</text>
</a>
</g>
</g>
<!-- Node3&#45;&gt;Node5 -->
<g id="edge4" class="edge"><title>Node3&#45;&gt;Node5</title>
<path fill="none" stroke="midnightblue" d="M615.773,-512.971C656.614,-435.263 762.871,-233.431 766,-231 772.509,-225.943 779.75,-221.724 787.37,-218.205"/>
<polygon fill="midnightblue" stroke="midnightblue" points="612.458,-511.754 610.904,-522.235 618.655,-515.011 612.458,-511.754"/>
</g>
<!-- Node3&#45;&gt;Node6 -->
<g id="edge5" class="edge"><title>Node3&#45;&gt;Node6</title>
<path fill="none" stroke="midnightblue" d="M610.199,-573.295C637.071,-651.427 711.492,-856.802 766,-902 772.018,-906.99 778.732,-911.192 785.834,-914.729"/>
<polygon fill="midnightblue" stroke="midnightblue" points="613.42,-571.897 606.873,-563.566 606.796,-574.161 613.42,-571.897"/>
</g>
<!-- Node3&#45;&gt;Node7 -->
<g id="edge6" class="edge"><title>Node3&#45;&gt;Node7</title>
<path fill="none" stroke="midnightblue" d="M623.549,-571.792C651.975,-607.693 699.722,-671.813 730,-733 752.628,-778.726 728.648,-807.248 766,-842 770.514,-846.2 775.513,-849.852 780.835,-853.026"/>
<polygon fill="midnightblue" stroke="midnightblue" points="626.078,-569.35 617.104,-563.718 620.607,-573.717 626.078,-569.35"/>
</g>
<!-- Node8 -->
<g id="node8" class="node"><title>Node8</title>
<g id="a_node8"><a xlink:href="../../d2/d34/classgame_authoring_1_1scenes_1_1path_building_1_1path_components_1_1_path_creation_tests.html#adbb59fd676db1e150df898e9509dd212" target="_top" xlink:title="gameAuthoring.scenes.path\lBuilding.pathComponents.PathCreation\lTests.ConnectComponentToEndingLocationTest">
<polygon fill="white" stroke="black" points="769.5,-120.5 769.5,-161.5 1010.5,-161.5 1010.5,-120.5 769.5,-120.5"/>
<text text-anchor="start" x="777.5" y="-149.5" font-family="Helvetica,sans-Serif" font-size="10.00">gameAuthoring.scenes.path</text>
<text text-anchor="start" x="777.5" y="-138.5" font-family="Helvetica,sans-Serif" font-size="10.00">Building.pathComponents.PathCreation</text>
<text text-anchor="middle" x="890" y="-127.5" font-family="Helvetica,sans-Serif" font-size="10.00">Tests.ConnectComponentToEndingLocationTest</text>
</a>
</g>
</g>
<!-- Node3&#45;&gt;Node8 -->
<g id="edge7" class="edge"><title>Node3&#45;&gt;Node8</title>
<path fill="none" stroke="midnightblue" d="M618.073,-513.5C645.286,-468.11 697.093,-377.807 730,-296 751.575,-242.363 724.287,-211.03 766,-171 769.648,-167.5 773.633,-164.386 777.865,-161.618"/>
<polygon fill="midnightblue" stroke="midnightblue" points="614.979,-511.853 612.813,-522.224 620.974,-515.467 614.979,-511.853"/>
</g>
<!-- Node9 -->
<g id="node9" class="node"><title>Node9</title>
<g id="a_node9"><a xlink:href="../../d2/d34/classgame_authoring_1_1scenes_1_1path_building_1_1path_components_1_1_path_creation_tests.html#afcc8871849fbf8c9a24a5b382c77a167" target="_top" xlink:title="gameAuthoring.scenes.path\lBuilding.pathComponents.PathCreation\lTests.ConnectComponentToStartingLocationTest">
<polygon fill="white" stroke="black" points="766.5,-60.5 766.5,-101.5 1013.5,-101.5 1013.5,-60.5 766.5,-60.5"/>
<text text-anchor="start" x="774.5" y="-89.5" font-family="Helvetica,sans-Serif" font-size="10.00">gameAuthoring.scenes.path</text>
<text text-anchor="start" x="774.5" y="-78.5" font-family="Helvetica,sans-Serif" font-size="10.00">Building.pathComponents.PathCreation</text>
<text text-anchor="middle" x="890" y="-67.5" font-family="Helvetica,sans-Serif" font-size="10.00">Tests.ConnectComponentToStartingLocationTest</text>
</a>
</g>
</g>
<!-- Node3&#45;&gt;Node9 -->
<g id="edge8" class="edge"><title>Node3&#45;&gt;Node9</title>
<path fill="none" stroke="midnightblue" d="M618.986,-513.844C647.391,-468.903 700.732,-379.178 730,-296 757.803,-216.984 708.179,-171.607 766,-111 769.338,-107.501 773.011,-104.382 776.936,-101.604"/>
<polygon fill="midnightblue" stroke="midnightblue" points="615.907,-512.163 613.487,-522.478 621.811,-515.924 615.907,-512.163"/>
</g>
<!-- Node10 -->
<g id="node10" class="node"><title>Node10</title>
<g id="a_node10"><a xlink:href="../../d2/d34/classgame_authoring_1_1scenes_1_1path_building_1_1path_components_1_1_path_creation_tests.html#abc7f89653e322c800da5fc26c4719b5a" target="_top" xlink:title="gameAuthoring.scenes.path\lBuilding.pathComponents.PathCreation\lTests.ConnectLineToCurveTest">
<polygon fill="white" stroke="black" points="787.5,-792.5 787.5,-833.5 992.5,-833.5 992.5,-792.5 787.5,-792.5"/>
<text text-anchor="start" x="795.5" y="-821.5" font-family="Helvetica,sans-Serif" font-size="10.00">gameAuthoring.scenes.path</text>
<text text-anchor="start" x="795.5" y="-810.5" font-family="Helvetica,sans-Serif" font-size="10.00">Building.pathComponents.PathCreation</text>
<text text-anchor="middle" x="890" y="-799.5" font-family="Helvetica,sans-Serif" font-size="10.00">Tests.ConnectLineToCurveTest</text>
</a>
</g>
</g>
<!-- Node3&#45;&gt;Node10 -->
<g id="edge9" class="edge"><title>Node3&#45;&gt;Node10</title>
<path fill="none" stroke="midnightblue" d="M619.86,-572.157C662.792,-635.112 760.817,-778.414 766,-782 772.61,-786.574 779.835,-790.473 787.366,-793.798"/>
<polygon fill="midnightblue" stroke="midnightblue" points="622.708,-570.121 614.183,-563.83 616.924,-574.064 622.708,-570.121"/>
</g>
<!-- Node11 -->
<g id="node11" class="node"><title>Node11</title>
<g id="a_node11"><a xlink:href="../../d2/d34/classgame_authoring_1_1scenes_1_1path_building_1_1path_components_1_1_path_creation_tests.html#a7271f13f8ea9f6e6f9137d8237802963" target="_top" xlink:title="gameAuthoring.scenes.path\lBuilding.pathComponents.PathCreation\lTests.ConnectRoutesTest">
<polygon fill="white" stroke="black" points="787.5,-732.5 787.5,-773.5 992.5,-773.5 992.5,-732.5 787.5,-732.5"/>
<text text-anchor="start" x="795.5" y="-761.5" font-family="Helvetica,sans-Serif" font-size="10.00">gameAuthoring.scenes.path</text>
<text text-anchor="start" x="795.5" y="-750.5" font-family="Helvetica,sans-Serif" font-size="10.00">Building.pathComponents.PathCreation</text>
<text text-anchor="middle" x="890" y="-739.5" font-family="Helvetica,sans-Serif" font-size="10.00">Tests.ConnectRoutesTest</text>
</a>
</g>
</g>
<!-- Node3&#45;&gt;Node11 -->
<g id="edge10" class="edge"><title>Node3&#45;&gt;Node11</title>
<path fill="none" stroke="midnightblue" d="M618.965,-572.305C646.462,-612.368 701.256,-683.631 766,-722 772.725,-725.986 779.951,-729.462 787.408,-732.494"/>
<polygon fill="midnightblue" stroke="midnightblue" points="621.701,-570.103 613.202,-563.778 615.902,-574.023 621.701,-570.103"/>
</g>
<!-- Node12 -->
<g id="node12" class="node"><title>Node12</title>
<g id="a_node12"><a xlink:href="../../d2/d34/classgame_authoring_1_1scenes_1_1path_building_1_1path_components_1_1_path_creation_tests.html#a890f9b36b921569b05338a8b8658e03b" target="_top" xlink:title="gameAuthoring.scenes.path\lBuilding.pathComponents.PathCreation\lTests.ConnectTwoCurvesTest">
<polygon fill="white" stroke="black" points="787.5,-672.5 787.5,-713.5 992.5,-713.5 992.5,-672.5 787.5,-672.5"/>
<text text-anchor="start" x="795.5" y="-701.5" font-family="Helvetica,sans-Serif" font-size="10.00">gameAuthoring.scenes.path</text>
<text text-anchor="start" x="795.5" y="-690.5" font-family="Helvetica,sans-Serif" font-size="10.00">Building.pathComponents.PathCreation</text>
<text text-anchor="middle" x="890" y="-679.5" font-family="Helvetica,sans-Serif" font-size="10.00">Tests.ConnectTwoCurvesTest</text>
</a>
</g>
</g>
<!-- Node3&#45;&gt;Node12 -->
<g id="edge11" class="edge"><title>Node3&#45;&gt;Node12</title>
<path fill="none" stroke="midnightblue" d="M630.297,-570.14C661.994,-597.167 714.256,-637.991 766,-662 774.49,-665.939 783.551,-669.425 792.76,-672.499"/>
<polygon fill="midnightblue" stroke="midnightblue" points="632.554,-567.464 622.695,-563.585 627.982,-572.766 632.554,-567.464"/>
</g>
<!-- Node13 -->
<g id="node13" class="node"><title>Node13</title>
<g id="a_node13"><a xlink:href="../../d2/d34/classgame_authoring_1_1scenes_1_1path_building_1_1path_components_1_1_path_creation_tests.html#ad3d391bd2d9c1a46dc8244db73f7448a" target="_top" xlink:title="gameAuthoring.scenes.path\lBuilding.pathComponents.PathCreation\lTests.ConnectTwoLinesTest">
<polygon fill="white" stroke="black" points="787.5,-612.5 787.5,-653.5 992.5,-653.5 992.5,-612.5 787.5,-612.5"/>
<text text-anchor="start" x="795.5" y="-641.5" font-family="Helvetica,sans-Serif" font-size="10.00">gameAuthoring.scenes.path</text>
<text text-anchor="start" x="795.5" y="-630.5" font-family="Helvetica,sans-Serif" font-size="10.00">Building.pathComponents.PathCreation</text>
<text text-anchor="middle" x="890" y="-619.5" font-family="Helvetica,sans-Serif" font-size="10.00">Tests.ConnectTwoLinesTest</text>
</a>
</g>
</g>
<!-- Node3&#45;&gt;Node13 -->
<g id="edge12" class="edge"><title>Node3&#45;&gt;Node13</title>
<path fill="none" stroke="midnightblue" d="M663.498,-567.158C694.23,-578.441 731.795,-591.636 766,-602 777.908,-605.608 790.551,-609.133 803.024,-612.437"/>
<polygon fill="midnightblue" stroke="midnightblue" points="664.367,-563.748 653.774,-563.568 661.943,-570.315 664.367,-563.748"/>
</g>
<!-- Node14 -->
<g id="node14" class="node"><title>Node14</title>
<g id="a_node14"><a xlink:href="../../d2/d34/classgame_authoring_1_1scenes_1_1path_building_1_1path_components_1_1_path_creation_tests.html#a1f6df71a1808af781e53fb0ebe9eb1fa" target="_top" xlink:title="gameAuthoring.scenes.path\lBuilding.pathComponents.PathCreation\lTests.CreateTwoRoutesTest">
<polygon fill="white" stroke="black" points="787.5,-552.5 787.5,-593.5 992.5,-593.5 992.5,-552.5 787.5,-552.5"/>
<text text-anchor="start" x="795.5" y="-581.5" font-family="Helvetica,sans-Serif" font-size="10.00">gameAuthoring.scenes.path</text>
<text text-anchor="start" x="795.5" y="-570.5" font-family="Helvetica,sans-Serif" font-size="10.00">Building.pathComponents.PathCreation</text>
<text text-anchor="middle" x="890" y="-559.5" font-family="Helvetica,sans-Serif" font-size="10.00">Tests.CreateTwoRoutesTest</text>
</a>
</g>
</g>
<!-- Node3&#45;&gt;Node14 -->
<g id="edge13" class="edge"><title>Node3&#45;&gt;Node14</title>
<path fill="none" stroke="midnightblue" d="M701.938,-553.582C729.656,-556.459 759.669,-559.575 787.37,-562.45"/>
<polygon fill="midnightblue" stroke="midnightblue" points="702.146,-550.085 691.838,-552.533 701.424,-557.047 702.146,-550.085"/>
</g>
<!-- Node15 -->
<g id="node15" class="node"><title>Node15</title>
<g id="a_node15"><a xlink:href="../../d2/d34/classgame_authoring_1_1scenes_1_1path_building_1_1path_components_1_1_path_creation_tests.html#af5b11ca9b84de06fbdf1bdd7ddf1b459" target="_top" xlink:title="gameAuthoring.scenes.path\lBuilding.pathComponents.PathCreation\lTests.GetRouteContainingComponentTest">
<polygon fill="white" stroke="black" points="783,-492.5 783,-533.5 997,-533.5 997,-492.5 783,-492.5"/>
<text text-anchor="start" x="791" y="-521.5" font-family="Helvetica,sans-Serif" font-size="10.00">gameAuthoring.scenes.path</text>
<text text-anchor="start" x="791" y="-510.5" font-family="Helvetica,sans-Serif" font-size="10.00">Building.pathComponents.PathCreation</text>
<text text-anchor="middle" x="890" y="-499.5" font-family="Helvetica,sans-Serif" font-size="10.00">Tests.GetRouteContainingComponentTest</text>
</a>
</g>
</g>
<!-- Node3&#45;&gt;Node15 -->
<g id="edge14" class="edge"><title>Node3&#45;&gt;Node15</title>
<path fill="none" stroke="midnightblue" d="M701.786,-532.434C728.024,-529.71 756.328,-526.772 782.786,-524.026"/>
<polygon fill="midnightblue" stroke="midnightblue" points="701.424,-528.953 691.838,-533.467 702.146,-535.915 701.424,-528.953"/>
</g>
<!-- Node16 -->
<g id="node16" class="node"><title>Node16</title>
<g id="a_node16"><a xlink:href="../../db/d5b/classgame_authoring_1_1scenes_1_1path_building_1_1building_panes_1_1_line_drawing_pane.html#a1592c5e4b43e931037cfcf357896ff4e" target="_top" xlink:title="gameAuthoring.scenes.path\lBuilding.buildingPanes.LineDrawing\lPane.handleBuildScreenClick">
<polygon fill="white" stroke="black" points="798.5,-432.5 798.5,-473.5 981.5,-473.5 981.5,-432.5 798.5,-432.5"/>
<text text-anchor="start" x="806.5" y="-461.5" font-family="Helvetica,sans-Serif" font-size="10.00">gameAuthoring.scenes.path</text>
<text text-anchor="start" x="806.5" y="-450.5" font-family="Helvetica,sans-Serif" font-size="10.00">Building.buildingPanes.LineDrawing</text>
<text text-anchor="middle" x="890" y="-439.5" font-family="Helvetica,sans-Serif" font-size="10.00">Pane.handleBuildScreenClick</text>
</a>
</g>
</g>
<!-- Node3&#45;&gt;Node16 -->
<g id="edge15" class="edge"><title>Node3&#45;&gt;Node16</title>
<path fill="none" stroke="midnightblue" d="M661.609,-518.942C692.653,-507.279 731.037,-493.549 766,-483 776.837,-479.73 788.292,-476.562 799.677,-473.587"/>
<polygon fill="midnightblue" stroke="midnightblue" points="660.34,-515.68 652.223,-522.489 662.814,-522.228 660.34,-515.68"/>
</g>
<!-- Node17 -->
<g id="node17" class="node"><title>Node17</title>
<g id="a_node17"><a xlink:href="../../d1/dad/classgame_authoring_1_1scenes_1_1path_building_1_1building_panes_1_1_curve_drawing_pane.html#a9b35c65041978c3a4628a16e26033a42" target="_top" xlink:title="gameAuthoring.scenes.path\lBuilding.buildingPanes.CurveDrawing\lPane.handleBuildScreenClick">
<polygon fill="white" stroke="black" points="794.5,-372.5 794.5,-413.5 985.5,-413.5 985.5,-372.5 794.5,-372.5"/>
<text text-anchor="start" x="802.5" y="-401.5" font-family="Helvetica,sans-Serif" font-size="10.00">gameAuthoring.scenes.path</text>
<text text-anchor="start" x="802.5" y="-390.5" font-family="Helvetica,sans-Serif" font-size="10.00">Building.buildingPanes.CurveDrawing</text>
<text text-anchor="middle" x="890" y="-379.5" font-family="Helvetica,sans-Serif" font-size="10.00">Pane.handleBuildScreenClick</text>
</a>
</g>
</g>
<!-- Node3&#45;&gt;Node17 -->
<g id="edge16" class="edge"><title>Node3&#45;&gt;Node17</title>
<path fill="none" stroke="midnightblue" d="M629.946,-515.772C661.552,-488.445 713.914,-447.05 766,-423 774.98,-418.854 784.604,-415.238 794.367,-412.094"/>
<polygon fill="midnightblue" stroke="midnightblue" points="627.594,-513.179 622.371,-522.397 632.202,-518.448 627.594,-513.179"/>
</g>
<!-- Node20 -->
<g id="node20" class="node"><title>Node20</title>
<g id="a_node20"><a xlink:href="../../d0/d17/classgame_authoring_1_1scenes_1_1path_building_1_1path_components_1_1route_to_point_translation_02993d587809a0174c9c81c680c3a1c8.html#a112d08c7563a9a6d9b371ea3c5fb0015" target="_top" xlink:title="gameAuthoring.scenes.path\lBuilding.pathComponents.routeTo\lPointTranslation.BackendRouteTranslation\lTests.testRoutesTranslation">
<polygon fill="white" stroke="black" points="783,-301 783,-353 997,-353 997,-301 783,-301"/>
<text text-anchor="start" x="791" y="-341" font-family="Helvetica,sans-Serif" font-size="10.00">gameAuthoring.scenes.path</text>
<text text-anchor="start" x="791" y="-330" font-family="Helvetica,sans-Serif" font-size="10.00">Building.pathComponents.routeTo</text>
<text text-anchor="start" x="791" y="-319" font-family="Helvetica,sans-Serif" font-size="10.00">PointTranslation.BackendRouteTranslation</text>
<text text-anchor="middle" x="890" y="-308" font-family="Helvetica,sans-Serif" font-size="10.00">Tests.testRoutesTranslation</text>
</a>
</g>
</g>
<!-- Node3&#45;&gt;Node20 -->
<g id="edge20" class="edge"><title>Node3&#45;&gt;Node20</title>
<path fill="none" stroke="midnightblue" d="M619.134,-513.873C646.83,-473.987 701.856,-402.795 766,-363 771.861,-359.364 778.106,-356.08 784.557,-353.117"/>
<polygon fill="midnightblue" stroke="midnightblue" points="616.086,-512.129 613.327,-522.359 621.863,-516.083 616.086,-512.129"/>
</g>
<!-- Node18 -->
<g id="node18" class="node"><title>Node18</title>
<g id="a_node18"><a xlink:href="../../d1/dad/classgame_authoring_1_1scenes_1_1path_building_1_1building_panes_1_1_curve_drawing_pane.html#a4157681e1cbd0859e25b7ece8ff99a56" target="_top" xlink:title="gameAuthoring.scenes.path\lBuilding.buildingPanes.CurveDrawing\lPane.addListeners">
<polygon fill="white" stroke="black" points="1060.5,-372.5 1060.5,-413.5 1251.5,-413.5 1251.5,-372.5 1060.5,-372.5"/>
<text text-anchor="start" x="1068.5" y="-401.5" font-family="Helvetica,sans-Serif" font-size="10.00">gameAuthoring.scenes.path</text>
<text text-anchor="start" x="1068.5" y="-390.5" font-family="Helvetica,sans-Serif" font-size="10.00">Building.buildingPanes.CurveDrawing</text>
<text text-anchor="middle" x="1156" y="-379.5" font-family="Helvetica,sans-Serif" font-size="10.00">Pane.addListeners</text>
</a>
</g>
</g>
<!-- Node17&#45;&gt;Node18 -->
<g id="edge17" class="edge"><title>Node17&#45;&gt;Node18</title>
<path fill="none" stroke="midnightblue" d="M995.61,-386.381C1016.93,-386.174 1039.25,-386.212 1060.21,-386.494"/>
<polygon fill="midnightblue" stroke="midnightblue" points="995.523,-382.882 985.564,-386.497 995.604,-389.881 995.523,-382.882"/>
</g>
<!-- Node18&#45;&gt;Node17 -->
<g id="edge19" class="edge"><title>Node18&#45;&gt;Node17</title>
<path fill="none" stroke="midnightblue" d="M1050.16,-399.621C1028.83,-399.826 1006.51,-399.786 985.564,-399.503"/>
<polygon fill="midnightblue" stroke="midnightblue" points="1050.25,-403.121 1060.21,-399.506 1050.17,-396.121 1050.25,-403.121"/>
</g>
<!-- Node19 -->
<g id="node19" class="node"><title>Node19</title>
<g id="a_node19"><a xlink:href="../../d1/dad/classgame_authoring_1_1scenes_1_1path_building_1_1building_panes_1_1_curve_drawing_pane.html#a5e42a8d5bc78ce626583ea766277b804" target="_top" xlink:title="gameAuthoring.scenes.path\lBuilding.buildingPanes.CurveDrawing\lPane.executeEnterFunction">
<polygon fill="white" stroke="black" points="1308.5,-372.5 1308.5,-413.5 1499.5,-413.5 1499.5,-372.5 1308.5,-372.5"/>
<text text-anchor="start" x="1316.5" y="-401.5" font-family="Helvetica,sans-Serif" font-size="10.00">gameAuthoring.scenes.path</text>
<text text-anchor="start" x="1316.5" y="-390.5" font-family="Helvetica,sans-Serif" font-size="10.00">Building.buildingPanes.CurveDrawing</text>
<text text-anchor="middle" x="1404" y="-379.5" font-family="Helvetica,sans-Serif" font-size="10.00">Pane.executeEnterFunction</text>
</a>
</g>
</g>
<!-- Node18&#45;&gt;Node19 -->
<g id="edge18" class="edge"><title>Node18&#45;&gt;Node19</title>
<path fill="none" stroke="midnightblue" d="M1261.83,-393C1277.26,-393 1293.08,-393 1308.29,-393"/>
<polygon fill="midnightblue" stroke="midnightblue" points="1261.76,-389.5 1251.76,-393 1261.76,-396.5 1261.76,-389.5"/>
</g>
<!-- Node22 -->
<g id="node22" class="node"><title>Node22</title>
<g id="a_node22"><a xlink:href="../../d7/da7/classgame_authoring_1_1scenes_1_1path_building_1_1building_panes_1_1_select_component_pane.html#a6f69903216e7f0c8dc628fd667a50496" target="_top" xlink:title="gameAuthoring.scenes.path\lBuilding.buildingPanes.SelectComponent\lPane.addSelectionListeners">
<polygon fill="white" stroke="black" points="784,-0.5 784,-41.5 996,-41.5 996,-0.5 784,-0.5"/>
<text text-anchor="start" x="792" y="-29.5" font-family="Helvetica,sans-Serif" font-size="10.00">gameAuthoring.scenes.path</text>
<text text-anchor="start" x="792" y="-18.5" font-family="Helvetica,sans-Serif" font-size="10.00">Building.buildingPanes.SelectComponent</text>
<text text-anchor="middle" x="890" y="-7.5" font-family="Helvetica,sans-Serif" font-size="10.00">Pane.addSelectionListeners</text>
</a>
</g>
</g>
<!-- Node21&#45;&gt;Node22 -->
<g id="edge24" class="edge"><title>Node21&#45;&gt;Node22</title>
<path fill="none" stroke="midnightblue" d="M614.397,-237.217C638.778,-190.066 692.779,-98.6993 766,-51 771.617,-47.3407 777.642,-44.1276 783.897,-41.3061"/>
<polygon fill="midnightblue" stroke="midnightblue" points="611.189,-235.803 609.783,-246.304 617.431,-238.972 611.189,-235.803"/>
</g>
<!-- Node23 -->
<g id="node23" class="node"><title>Node23</title>
<g id="a_node23"><a xlink:href="../../d7/da7/classgame_authoring_1_1scenes_1_1path_building_1_1building_panes_1_1_select_component_pane.html#ab264186c3b2f4ed9391d64633b70d5ed" target="_top" xlink:title="gameAuthoring.scenes.path\lBuilding.buildingPanes.SelectComponent\lPane.addListenersToComponents">
<polygon fill="white" stroke="black" points="1050,-0.5 1050,-41.5 1262,-41.5 1262,-0.5 1050,-0.5"/>
<text text-anchor="start" x="1058" y="-29.5" font-family="Helvetica,sans-Serif" font-size="10.00">gameAuthoring.scenes.path</text>
<text text-anchor="start" x="1058" y="-18.5" font-family="Helvetica,sans-Serif" font-size="10.00">Building.buildingPanes.SelectComponent</text>
<text text-anchor="middle" x="1156" y="-7.5" font-family="Helvetica,sans-Serif" font-size="10.00">Pane.addListenersToComponents</text>
</a>
</g>
</g>
<!-- Node22&#45;&gt;Node23 -->
<g id="edge25" class="edge"><title>Node22&#45;&gt;Node23</title>
<path fill="none" stroke="midnightblue" d="M1006.11,-21C1020.65,-21 1035.46,-21 1049.83,-21"/>
<polygon fill="midnightblue" stroke="midnightblue" points="1006.1,-17.5001 996.098,-21 1006.1,-24.5001 1006.1,-17.5001"/>
</g>
<!-- Node24 -->
<g id="node24" class="node"><title>Node24</title>
<g id="a_node24"><a xlink:href="../../d7/da7/classgame_authoring_1_1scenes_1_1path_building_1_1building_panes_1_1_select_component_pane.html#a102b73ae9c6cab53a0738a3be5f8e3a4" target="_top" xlink:title="gameAuthoring.scenes.path\lBuilding.buildingPanes.SelectComponent\lPane.executeEnterFunction">
<polygon fill="white" stroke="black" points="1298,-0.5 1298,-41.5 1510,-41.5 1510,-0.5 1298,-0.5"/>
<text text-anchor="start" x="1306" y="-29.5" font-family="Helvetica,sans-Serif" font-size="10.00">gameAuthoring.scenes.path</text>
<text text-anchor="start" x="1306" y="-18.5" font-family="Helvetica,sans-Serif" font-size="10.00">Building.buildingPanes.SelectComponent</text>
<text text-anchor="middle" x="1404" y="-7.5" font-family="Helvetica,sans-Serif" font-size="10.00">Pane.executeEnterFunction</text>
</a>
</g>
</g>
<!-- Node23&#45;&gt;Node24 -->
<g id="edge26" class="edge"><title>Node23&#45;&gt;Node24</title>
<path fill="none" stroke="midnightblue" d="M1272.11,-21C1280.72,-21 1289.38,-21 1297.92,-21"/>
<polygon fill="midnightblue" stroke="midnightblue" points="1272.04,-17.5001 1262.04,-21 1272.04,-24.5001 1272.04,-17.5001"/>
</g>
</g>
</svg>
        <g id="navigator" transform="translate(0 0)" fill="#404254">
                <rect fill="#f2f5e9" fill-opacity="0.5" stroke="#606060" stroke-width=".5" x="0" y="0" width="60" height="60"/>
                <use id="zoomplus" xlink:href="#zoomPlus" x="17" y="9" onmousedown="handleZoom(evt,'in')"/>
                <use id="zoomminus" xlink:href="#zoomMin" x="42" y="9" onmousedown="handleZoom(evt,'out')"/>
                <use id="reset" xlink:href="#resetDef" x="30" y="36" onmousedown="handleReset()"/>
                <g id="arrowUp" xlink:href="#dirArrow" transform="translate(30 24)" onmousedown="handlePan(0,-1)">
                  <use xlink:href="#rim" fill="#404040">
                        <set attributeName="fill" to="#808080" begin="arrowUp.mouseover" end="arrowUp.mouseout"/>
                  </use>
                  <path fill="none" stroke="white" stroke-width="1.5" d="M0,-3.0v7 M-2.5,-0.5L0,-3.0L2.5,-0.5"/>
                </g>
                <g id="arrowRight" xlink:href="#dirArrow" transform="rotate(90) translate(36 -43)" onmousedown="handlePan(1,0)">
                  <use xlink:href="#rim" fill="#404040">
                        <set attributeName="fill" to="#808080" begin="arrowRight.mouseover" end="arrowRight.mouseout"/>
                  </use>
                  <path fill="none" stroke="white" stroke-width="1.5" d="M0,-3.0v7 M-2.5,-0.5L0,-3.0L2.5,-0.5"/>
                </g>
                <g id="arrowDown" xlink:href="#dirArrow" transform="rotate(180) translate(-30 -48)" onmousedown="handlePan(0,1)">
                  <use xlink:href="#rim" fill="#404040">
                        <set attributeName="fill" to="#808080" begin="arrowDown.mouseover" end="arrowDown.mouseout"/>
                  </use>
                  <path fill="none" stroke="white" stroke-width="1.5" d="M0,-3.0v7 M-2.5,-0.5L0,-3.0L2.5,-0.5"/>
                </g>
                <g id="arrowLeft" xlink:href="#dirArrow" transform="rotate(270) translate(-36 17)" onmousedown="handlePan(-1,0)">
                  <use xlink:href="#rim" fill="#404040">
                        <set attributeName="fill" to="#808080" begin="arrowLeft.mouseover" end="arrowLeft.mouseout"/>
                  </use>
                  <path fill="none" stroke="white" stroke-width="1.5" d="M0,-3.0v7 M-2.5,-0.5L0,-3.0L2.5,-0.5"/>
                </g>
        </g>
        <svg viewBox="0 0 15 15" width="100%" height="30px" preserveAspectRatio="xMaxYMin meet">
         <g id="arrow_out" transform="scale(0.3 0.3)">
          <a xlink:href="classgame_authoring_1_1scenes_1_1path_building_1_1path_components_1_1_path_a951795636cdc85669be6d0ddc9ac7416_icgraph_org.svg" target="_base">
           <rect id="button" ry="5" rx="5" y="6" x="6" height="38" width="38"
                fill="#f2f5e9" fill-opacity="0.5" stroke="#606060" stroke-width="1.0"/>
           <path id="arrow"
             d="M 11.500037,31.436501 C 11.940474,20.09759 22.043105,11.32322 32.158766,21.979434 L 37.068811,17.246167 C 37.068811,17.246167 37.088388,32 37.088388,32 L 22.160133,31.978069 C 22.160133,31.978069 26.997745,27.140456 26.997745,27.140456 C 18.528582,18.264221 13.291696,25.230495 11.500037,31.436501 z"
             style="fill:#404040;"/>
          </a>
         </g>
        </svg>
</svg>
