<?xml version="1.0" encoding="UTF-8" standalone="no"?>
<!DOCTYPE svg PUBLIC "-//W3C//DTD SVG 1.1//EN"
 "http://www.w3.org/Graphics/SVG/1.1/DTD/svg11.dtd">
<!-- Generated by graphviz version 2.36.0 (20140111.2315)
 -->
<!-- Title: gameAuthoring.scenes.pathBuilding.pathComponents.Path.addEndingLocation Pages: 1 -->
<svg width="1096pt" height="109pt"
 viewBox="0.00 0.00 1096.00 109.00" xmlns="http://www.w3.org/2000/svg" xmlns:xlink="http://www.w3.org/1999/xlink">
<g id="graph0" class="graph" transform="scale(1 1) rotate(0) translate(4 105)">
<title>gameAuthoring.scenes.pathBuilding.pathComponents.Path.addEndingLocation</title>
<polygon fill="white" stroke="none" points="-4,4 -4,-105 1092,-105 1092,4 -4,4"/>
<!-- Node1 -->
<g id="node1" class="node"><title>Node1</title>
<polygon fill="#bfbfbf" stroke="black" points="0.5,-29.5 0.5,-70.5 185.5,-70.5 185.5,-29.5 0.5,-29.5"/>
<text text-anchor="start" x="8.5" y="-58.5" font-family="Helvetica,sans-Serif" font-size="10.00">gameAuthoring.scenes.path</text>
<text text-anchor="start" x="8.5" y="-47.5" font-family="Helvetica,sans-Serif" font-size="10.00">Building.pathComponents.Path.add</text>
<text text-anchor="middle" x="93" y="-36.5" font-family="Helvetica,sans-Serif" font-size="10.00">EndingLocation</text>
</g>
<!-- Node2 -->
<g id="node2" class="node"><title>Node2</title>
<g id="a_node2"><a xlink:href="../../d1/d65/classgame_authoring_1_1scenes_1_1path_building_1_1path_components_1_1_path.html#a893183d1c19a9aef3ec0713f8762343d" target="_top" xlink:title="gameAuthoring.scenes.path\lBuilding.pathComponents.Path.can\lCreateLocationAtPoint">
<polygon fill="white" stroke="black" points="222.5,-29.5 222.5,-70.5 407.5,-70.5 407.5,-29.5 222.5,-29.5"/>
<text text-anchor="start" x="230.5" y="-58.5" font-family="Helvetica,sans-Serif" font-size="10.00">gameAuthoring.scenes.path</text>
<text text-anchor="start" x="230.5" y="-47.5" font-family="Helvetica,sans-Serif" font-size="10.00">Building.pathComponents.Path.can</text>
<text text-anchor="middle" x="315" y="-36.5" font-family="Helvetica,sans-Serif" font-size="10.00">CreateLocationAtPoint</text>
</a>
</g>
</g>
<!-- Node1&#45;&gt;Node2 -->
<g id="edge1" class="edge"><title>Node1&#45;&gt;Node2</title>
<path fill="none" stroke="midnightblue" d="M185.707,-50C194.53,-50 203.515,-50 212.425,-50"/>
<polygon fill="midnightblue" stroke="midnightblue" points="212.442,-53.5001 222.442,-50 212.442,-46.5001 212.442,-53.5001"/>
</g>
<!-- Node3 -->
<g id="node3" class="node"><title>Node3</title>
<g id="a_node3"><a xlink:href="../../d1/d65/classgame_authoring_1_1scenes_1_1path_building_1_1path_components_1_1_path.html#ac1221fd95019b7ec3bf9aac00eb52c14" target="_top" xlink:title="gameAuthoring.scenes.path\lBuilding.pathComponents.Path.is\lAnotherEndingLocationToClose">
<polygon fill="white" stroke="black" points="444.5,-59.5 444.5,-100.5 619.5,-100.5 619.5,-59.5 444.5,-59.5"/>
<text text-anchor="start" x="452.5" y="-88.5" font-family="Helvetica,sans-Serif" font-size="10.00">gameAuthoring.scenes.path</text>
<text text-anchor="start" x="452.5" y="-77.5" font-family="Helvetica,sans-Serif" font-size="10.00">Building.pathComponents.Path.is</text>
<text text-anchor="middle" x="532" y="-66.5" font-family="Helvetica,sans-Serif" font-size="10.00">AnotherEndingLocationToClose</text>
</a>
</g>
</g>
<!-- Node2&#45;&gt;Node3 -->
<g id="edge2" class="edge"><title>Node2&#45;&gt;Node3</title>
<path fill="none" stroke="midnightblue" d="M407.803,-62.8097C416.593,-64.0362 425.526,-65.2827 434.361,-66.5154"/>
<polygon fill="midnightblue" stroke="midnightblue" points="433.892,-69.9839 444.28,-67.8995 434.86,-63.0511 433.892,-69.9839"/>
</g>
<!-- Node6 -->
<g id="node6" class="node"><title>Node6</title>
<g id="a_node6"><a xlink:href="../../d1/d65/classgame_authoring_1_1scenes_1_1path_building_1_1path_components_1_1_path.html#a35ce4590ee29657f91cde1b00932282a" target="_top" xlink:title="gameAuthoring.scenes.path\lBuilding.pathComponents.Path.is\lAnotherStartingLocationToClose">
<polygon fill="white" stroke="black" points="444.5,0.5 444.5,-40.5 619.5,-40.5 619.5,0.5 444.5,0.5"/>
<text text-anchor="start" x="452.5" y="-28.5" font-family="Helvetica,sans-Serif" font-size="10.00">gameAuthoring.scenes.path</text>
<text text-anchor="start" x="452.5" y="-17.5" font-family="Helvetica,sans-Serif" font-size="10.00">Building.pathComponents.Path.is</text>
<text text-anchor="middle" x="532" y="-6.5" font-family="Helvetica,sans-Serif" font-size="10.00">AnotherStartingLocationToClose</text>
</a>
</g>
</g>
<!-- Node2&#45;&gt;Node6 -->
<g id="edge5" class="edge"><title>Node2&#45;&gt;Node6</title>
<path fill="none" stroke="midnightblue" d="M407.803,-37.1903C416.593,-35.9638 425.526,-34.7173 434.361,-33.4846"/>
<polygon fill="midnightblue" stroke="midnightblue" points="434.86,-36.9489 444.28,-32.1005 433.892,-30.0161 434.86,-36.9489"/>
</g>
<!-- Node4 -->
<g id="node4" class="node"><title>Node4</title>
<g id="a_node4"><a xlink:href="../../d1/d65/classgame_authoring_1_1scenes_1_1path_building_1_1path_components_1_1_path.html#a963667d2ff2267b90db8c7acffb22a5d" target="_top" xlink:title="gameAuthoring.scenes.path\lBuilding.pathComponents.Path.is\lLocationCloseToPoint">
<polygon fill="white" stroke="black" points="656.5,-29.5 656.5,-70.5 831.5,-70.5 831.5,-29.5 656.5,-29.5"/>
<text text-anchor="start" x="664.5" y="-58.5" font-family="Helvetica,sans-Serif" font-size="10.00">gameAuthoring.scenes.path</text>
<text text-anchor="start" x="664.5" y="-47.5" font-family="Helvetica,sans-Serif" font-size="10.00">Building.pathComponents.Path.is</text>
<text text-anchor="middle" x="744" y="-36.5" font-family="Helvetica,sans-Serif" font-size="10.00">LocationCloseToPoint</text>
</a>
</g>
</g>
<!-- Node3&#45;&gt;Node4 -->
<g id="edge3" class="edge"><title>Node3&#45;&gt;Node4</title>
<path fill="none" stroke="midnightblue" d="M619.627,-67.6246C628.411,-66.3699 637.371,-65.0898 646.253,-63.821"/>
<polygon fill="midnightblue" stroke="midnightblue" points="646.828,-67.2745 656.233,-62.3953 645.838,-60.3448 646.828,-67.2745"/>
</g>
<!-- Node5 -->
<g id="node5" class="node"><title>Node5</title>
<g id="a_node5"><a xlink:href="../../d3/d91/classgame_authoring_1_1scenes_1_1path_building_1_1enemy_locations_1_1_path_location.html#a8ec7f9674ee9080d0a9cf05a0f2cb55f" target="_top" xlink:title="gameAuthoring.scenes.path\lBuilding.enemyLocations.PathLocation.get\lCenterLoc">
<polygon fill="white" stroke="black" points="868.5,-29.5 868.5,-70.5 1087.5,-70.5 1087.5,-29.5 868.5,-29.5"/>
<text text-anchor="start" x="876.5" y="-58.5" font-family="Helvetica,sans-Serif" font-size="10.00">gameAuthoring.scenes.path</text>
<text text-anchor="start" x="876.5" y="-47.5" font-family="Helvetica,sans-Serif" font-size="10.00">Building.enemyLocations.PathLocation.get</text>
<text text-anchor="middle" x="978" y="-36.5" font-family="Helvetica,sans-Serif" font-size="10.00">CenterLoc</text>
</a>
</g>
</g>
<!-- Node4&#45;&gt;Node5 -->
<g id="edge4" class="edge"><title>Node4&#45;&gt;Node5</title>
<path fill="none" stroke="midnightblue" d="M831.718,-50C840.415,-50 849.346,-50 858.299,-50"/>
<polygon fill="midnightblue" stroke="midnightblue" points="858.405,-53.5001 868.405,-50 858.405,-46.5001 858.405,-53.5001"/>
</g>
<!-- Node6&#45;&gt;Node4 -->
<g id="edge6" class="edge"><title>Node6&#45;&gt;Node4</title>
<path fill="none" stroke="midnightblue" d="M619.627,-32.3754C628.411,-33.6301 637.371,-34.9102 646.253,-36.179"/>
<polygon fill="midnightblue" stroke="midnightblue" points="645.838,-39.6552 656.233,-37.6047 646.828,-32.7255 645.838,-39.6552"/>
</g>
</g>
</svg>
