<?xml version="1.0" encoding="UTF-8" standalone="no"?>
<!DOCTYPE svg PUBLIC "-//W3C//DTD SVG 1.1//EN"
 "http://www.w3.org/Graphics/SVG/1.1/DTD/svg11.dtd">
<!-- Generated by graphviz version 2.36.0 (20140111.2315)
 -->
<!-- Title: gameAuthoring.scenes.pathBuilding.pathComponents.Path.deleteSelectedComponent Pages: 1 -->
<svg width="452pt" height="109pt"
 viewBox="0.00 0.00 452.00 109.00" xmlns="http://www.w3.org/2000/svg" xmlns:xlink="http://www.w3.org/1999/xlink">
<g id="graph0" class="graph" transform="scale(1 1) rotate(0) translate(4 105)">
<title>gameAuthoring.scenes.pathBuilding.pathComponents.Path.deleteSelectedComponent</title>
<polygon fill="white" stroke="none" points="-4,4 -4,-105 448,-105 448,4 -4,4"/>
<!-- Node1 -->
<g id="node1" class="node"><title>Node1</title>
<polygon fill="#bfbfbf" stroke="black" points="0.5,-29.5 0.5,-70.5 197.5,-70.5 197.5,-29.5 0.5,-29.5"/>
<text text-anchor="start" x="8.5" y="-58.5" font-family="Helvetica,sans-Serif" font-size="10.00">gameAuthoring.scenes.path</text>
<text text-anchor="start" x="8.5" y="-47.5" font-family="Helvetica,sans-Serif" font-size="10.00">Building.pathComponents.Path.delete</text>
<text text-anchor="middle" x="99" y="-36.5" font-family="Helvetica,sans-Serif" font-size="10.00">SelectedComponent</text>
</g>
<!-- Node2 -->
<g id="node2" class="node"><title>Node2</title>
<g id="a_node2"><a xlink:href="../../d7/d4d/classgame_authoring_1_1scenes_1_1path_building_1_1path_components_1_1_path_route.html#aa15bdbf4ff5f98537667883999ebaf2b" target="_top" xlink:title="gameAuthoring.scenes.path\lBuilding.pathComponents.PathRoute.get\lComponents">
<polygon fill="white" stroke="black" points="234,-59.5 234,-100.5 444,-100.5 444,-59.5 234,-59.5"/>
<text text-anchor="start" x="242" y="-88.5" font-family="Helvetica,sans-Serif" font-size="10.00">gameAuthoring.scenes.path</text>
<text text-anchor="start" x="242" y="-77.5" font-family="Helvetica,sans-Serif" font-size="10.00">Building.pathComponents.PathRoute.get</text>
<text text-anchor="middle" x="339" y="-66.5" font-family="Helvetica,sans-Serif" font-size="10.00">Components</text>
</a>
</g>
</g>
<!-- Node1&#45;&gt;Node2 -->
<g id="edge1" class="edge"><title>Node1&#45;&gt;Node2</title>
<path fill="none" stroke="midnightblue" d="M197.834,-62.332C206.404,-63.4123 215.125,-64.5116 223.813,-65.6066"/>
<polygon fill="midnightblue" stroke="midnightblue" points="223.624,-69.1105 233.984,-66.8887 224.5,-62.1655 223.624,-69.1105"/>
</g>
<!-- Node3 -->
<g id="node3" class="node"><title>Node3</title>
<g id="a_node3"><a xlink:href="../../d1/d65/classgame_authoring_1_1scenes_1_1path_building_1_1path_components_1_1_path.html#a628d6d2e49adf5a7f774d6fc2c1cefbe" target="_top" xlink:title="gameAuthoring.scenes.path\lBuilding.pathComponents.Path.get\lRouteContaining">
<polygon fill="white" stroke="black" points="247.5,0.5 247.5,-40.5 430.5,-40.5 430.5,0.5 247.5,0.5"/>
<text text-anchor="start" x="255.5" y="-28.5" font-family="Helvetica,sans-Serif" font-size="10.00">gameAuthoring.scenes.path</text>
<text text-anchor="start" x="255.5" y="-17.5" font-family="Helvetica,sans-Serif" font-size="10.00">Building.pathComponents.Path.get</text>
<text text-anchor="middle" x="339" y="-6.5" font-family="Helvetica,sans-Serif" font-size="10.00">RouteContaining</text>
</a>
</g>
</g>
<!-- Node1&#45;&gt;Node3 -->
<g id="edge2" class="edge"><title>Node1&#45;&gt;Node3</title>
<path fill="none" stroke="midnightblue" d="M197.834,-37.668C210.911,-36.0196 224.341,-34.3267 237.464,-32.6726"/>
<polygon fill="midnightblue" stroke="midnightblue" points="237.945,-36.1398 247.428,-31.4166 237.069,-29.1948 237.945,-36.1398"/>
</g>
</g>
</svg>
