<?xml version="1.0" encoding="UTF-8" standalone="no"?>
<!DOCTYPE svg PUBLIC "-//W3C//DTD SVG 1.1//EN"
 "http://www.w3.org/Graphics/SVG/1.1/DTD/svg11.dtd">
<!-- Generated by graphviz version 2.36.0 (20140111.2315)
 -->
<!-- Title: gameAuthoring.scenes.pathBuilding.pathComponents.Path.resetPath Pages: 1 -->
<svg width="878pt" height="109pt"
 viewBox="0.00 0.00 878.00 109.00" xmlns="http://www.w3.org/2000/svg" xmlns:xlink="http://www.w3.org/1999/xlink">
<g id="graph0" class="graph" transform="scale(1 1) rotate(0) translate(4 105)">
<title>gameAuthoring.scenes.pathBuilding.pathComponents.Path.resetPath</title>
<polygon fill="white" stroke="none" points="-4,4 -4,-105 874,-105 874,4 -4,4"/>
<!-- Node1 -->
<g id="node1" class="node"><title>Node1</title>
<polygon fill="#bfbfbf" stroke="black" points="0.5,-35 0.5,-65 213.5,-65 213.5,-35 0.5,-35"/>
<text text-anchor="start" x="8.5" y="-53" font-family="Helvetica,sans-Serif" font-size="10.00">gameAuthoring.scenes.path</text>
<text text-anchor="middle" x="107" y="-42" font-family="Helvetica,sans-Serif" font-size="10.00">Building.pathComponents.Path.resetPath</text>
</g>
<!-- Node2 -->
<g id="node2" class="node"><title>Node2</title>
<g id="a_node2"><a xlink:href="../../d6/d82/classgame_authoring_1_1scenes_1_1path_building_1_1_path_building_scene.html#a7014943a026844bb492142b89f197969" target="_top" xlink:title="gameAuthoring.scenes.path\lBuilding.PathBuildingScene.resetBuild">
<polygon fill="white" stroke="black" points="250.5,-35 250.5,-65 447.5,-65 447.5,-35 250.5,-35"/>
<text text-anchor="start" x="258.5" y="-53" font-family="Helvetica,sans-Serif" font-size="10.00">gameAuthoring.scenes.path</text>
<text text-anchor="middle" x="349" y="-42" font-family="Helvetica,sans-Serif" font-size="10.00">Building.PathBuildingScene.resetBuild</text>
</a>
</g>
</g>
<!-- Node1&#45;&gt;Node2 -->
<g id="edge1" class="edge"><title>Node1&#45;&gt;Node2</title>
<path fill="none" stroke="midnightblue" d="M223.658,-50C232.573,-50 241.52,-50 250.302,-50"/>
<polygon fill="midnightblue" stroke="midnightblue" points="223.617,-46.5001 213.617,-50 223.617,-53.5001 223.617,-46.5001"/>
</g>
<!-- Node3 -->
<g id="node3" class="node"><title>Node3</title>
<g id="a_node3"><a xlink:href="../../d6/d82/classgame_authoring_1_1scenes_1_1path_building_1_1_path_building_scene.html#a9e29faac2f6cb3602cf3bc2b6de78f5e" target="_top" xlink:title="gameAuthoring.scenes.path\lBuilding.PathBuildingScene.create\lPathBuildingOptions">
<polygon fill="white" stroke="black" points="484.5,-59.5 484.5,-100.5 663.5,-100.5 663.5,-59.5 484.5,-59.5"/>
<text text-anchor="start" x="492.5" y="-88.5" font-family="Helvetica,sans-Serif" font-size="10.00">gameAuthoring.scenes.path</text>
<text text-anchor="start" x="492.5" y="-77.5" font-family="Helvetica,sans-Serif" font-size="10.00">Building.PathBuildingScene.create</text>
<text text-anchor="middle" x="574" y="-66.5" font-family="Helvetica,sans-Serif" font-size="10.00">PathBuildingOptions</text>
</a>
</g>
</g>
<!-- Node2&#45;&gt;Node3 -->
<g id="edge2" class="edge"><title>Node2&#45;&gt;Node3</title>
<path fill="none" stroke="midnightblue" d="M457.832,-64.5066C466.731,-65.7037 475.66,-66.905 484.394,-68.0799"/>
<polygon fill="midnightblue" stroke="midnightblue" points="458.188,-61.0231 447.811,-63.1584 457.255,-67.9606 458.188,-61.0231"/>
</g>
<!-- Node5 -->
<g id="node5" class="node"><title>Node5</title>
<g id="a_node5"><a xlink:href="../../d6/d82/classgame_authoring_1_1scenes_1_1path_building_1_1_path_building_scene.html#a1c76a52dba358b52c7127783882726f9" target="_top" xlink:title="gameAuthoring.scenes.path\lBuilding.PathBuildingScene.set\lBackground">
<polygon fill="white" stroke="black" points="492,0.5 492,-40.5 656,-40.5 656,0.5 492,0.5"/>
<text text-anchor="start" x="500" y="-28.5" font-family="Helvetica,sans-Serif" font-size="10.00">gameAuthoring.scenes.path</text>
<text text-anchor="start" x="500" y="-17.5" font-family="Helvetica,sans-Serif" font-size="10.00">Building.PathBuildingScene.set</text>
<text text-anchor="middle" x="574" y="-6.5" font-family="Helvetica,sans-Serif" font-size="10.00">Background</text>
</a>
</g>
</g>
<!-- Node2&#45;&gt;Node5 -->
<g id="edge4" class="edge"><title>Node2&#45;&gt;Node5</title>
<path fill="none" stroke="midnightblue" d="M457.871,-35.4882C469.347,-33.9443 480.875,-32.3935 491.967,-30.9013"/>
<polygon fill="midnightblue" stroke="midnightblue" points="457.255,-32.0394 447.811,-36.8416 458.188,-38.9769 457.255,-32.0394"/>
</g>
<!-- Node4 -->
<g id="node4" class="node"><title>Node4</title>
<g id="a_node4"><a xlink:href="../../d6/d82/classgame_authoring_1_1scenes_1_1path_building_1_1_path_building_scene.html#aa265fe743457d8feda83464c9af1f288" target="_top" xlink:title="gameAuthoring.scenes.path\lBuilding.PathBuildingScene.Path\lBuildingScene">
<polygon fill="white" stroke="black" points="700,-59.5 700,-100.5 870,-100.5 870,-59.5 700,-59.5"/>
<text text-anchor="start" x="708" y="-88.5" font-family="Helvetica,sans-Serif" font-size="10.00">gameAuthoring.scenes.path</text>
<text text-anchor="start" x="708" y="-77.5" font-family="Helvetica,sans-Serif" font-size="10.00">Building.PathBuildingScene.Path</text>
<text text-anchor="middle" x="785" y="-66.5" font-family="Helvetica,sans-Serif" font-size="10.00">BuildingScene</text>
</a>
</g>
</g>
<!-- Node3&#45;&gt;Node4 -->
<g id="edge3" class="edge"><title>Node3&#45;&gt;Node4</title>
<path fill="none" stroke="midnightblue" d="M673.826,-80C682.541,-80 691.309,-80 699.886,-80"/>
<polygon fill="midnightblue" stroke="midnightblue" points="673.635,-76.5001 663.635,-80 673.635,-83.5001 673.635,-76.5001"/>
</g>
</g>
</svg>
