<?xml version="1.0" encoding="UTF-8" standalone="no"?>
<!DOCTYPE svg PUBLIC "-//W3C//DTD SVG 1.1//EN"
 "http://www.w3.org/Graphics/SVG/1.1/DTD/svg11.dtd">
<!-- Generated by graphviz version 2.36.0 (20140111.2315)
 -->
<!-- Title: gameAuthoring.scenes.pathBuilding.pathComponents.Path.isPathCompletedAndRoutesVerified Pages: 1 -->
<svg width="824pt" height="48pt"
 viewBox="0.00 0.00 824.00 48.00" xmlns="http://www.w3.org/2000/svg" xmlns:xlink="http://www.w3.org/1999/xlink">
<g id="graph0" class="graph" transform="scale(1 1) rotate(0) translate(4 44)">
<title>gameAuthoring.scenes.pathBuilding.pathComponents.Path.isPathCompletedAndRoutesVerified</title>
<polygon fill="white" stroke="none" points="-4,4 -4,-44 820,-44 820,4 -4,4"/>
<!-- Node1 -->
<g id="node1" class="node"><title>Node1</title>
<polygon fill="#bfbfbf" stroke="black" points="0,0.5 0,-40.5 176,-40.5 176,0.5 0,0.5"/>
<text text-anchor="start" x="8" y="-28.5" font-family="Helvetica,sans-Serif" font-size="10.00">gameAuthoring.scenes.path</text>
<text text-anchor="start" x="8" y="-17.5" font-family="Helvetica,sans-Serif" font-size="10.00">Building.pathComponents.Path.is</text>
<text text-anchor="middle" x="88" y="-6.5" font-family="Helvetica,sans-Serif" font-size="10.00">PathCompletedAndRoutesVerified</text>
</g>
<!-- Node2 -->
<g id="node2" class="node"><title>Node2</title>
<g id="a_node2"><a xlink:href="../../d6/d82/classgame_authoring_1_1scenes_1_1path_building_1_1_path_building_scene.html#ae77dd48a8e8e500b98024d01001320d5" target="_top" xlink:title="gameAuthoring.scenes.path\lBuilding.PathBuildingScene.handle\lFinishButtonClick">
<polygon fill="white" stroke="black" points="212.5,0.5 212.5,-40.5 393.5,-40.5 393.5,0.5 212.5,0.5"/>
<text text-anchor="start" x="220.5" y="-28.5" font-family="Helvetica,sans-Serif" font-size="10.00">gameAuthoring.scenes.path</text>
<text text-anchor="start" x="220.5" y="-17.5" font-family="Helvetica,sans-Serif" font-size="10.00">Building.PathBuildingScene.handle</text>
<text text-anchor="middle" x="303" y="-6.5" font-family="Helvetica,sans-Serif" font-size="10.00">FinishButtonClick</text>
</a>
</g>
</g>
<!-- Node1&#45;&gt;Node2 -->
<g id="edge1" class="edge"><title>Node1&#45;&gt;Node2</title>
<path fill="none" stroke="midnightblue" d="M186.397,-20C195.084,-20 203.853,-20 212.469,-20"/>
<polygon fill="midnightblue" stroke="midnightblue" points="186.25,-16.5001 176.25,-20 186.25,-23.5001 186.25,-16.5001"/>
</g>
<!-- Node3 -->
<g id="node3" class="node"><title>Node3</title>
<g id="a_node3"><a xlink:href="../../d6/d82/classgame_authoring_1_1scenes_1_1path_building_1_1_path_building_scene.html#a9e29faac2f6cb3602cf3bc2b6de78f5e" target="_top" xlink:title="gameAuthoring.scenes.path\lBuilding.PathBuildingScene.create\lPathBuildingOptions">
<polygon fill="white" stroke="black" points="430.5,0.5 430.5,-40.5 609.5,-40.5 609.5,0.5 430.5,0.5"/>
<text text-anchor="start" x="438.5" y="-28.5" font-family="Helvetica,sans-Serif" font-size="10.00">gameAuthoring.scenes.path</text>
<text text-anchor="start" x="438.5" y="-17.5" font-family="Helvetica,sans-Serif" font-size="10.00">Building.PathBuildingScene.create</text>
<text text-anchor="middle" x="520" y="-6.5" font-family="Helvetica,sans-Serif" font-size="10.00">PathBuildingOptions</text>
</a>
</g>
</g>
<!-- Node2&#45;&gt;Node3 -->
<g id="edge2" class="edge"><title>Node2&#45;&gt;Node3</title>
<path fill="none" stroke="midnightblue" d="M403.89,-20C412.675,-20 421.528,-20 430.214,-20"/>
<polygon fill="midnightblue" stroke="midnightblue" points="403.623,-16.5001 393.623,-20 403.622,-23.5001 403.623,-16.5001"/>
</g>
<!-- Node4 -->
<g id="node4" class="node"><title>Node4</title>
<g id="a_node4"><a xlink:href="../../d6/d82/classgame_authoring_1_1scenes_1_1path_building_1_1_path_building_scene.html#aa265fe743457d8feda83464c9af1f288" target="_top" xlink:title="gameAuthoring.scenes.path\lBuilding.PathBuildingScene.Path\lBuildingScene">
<polygon fill="white" stroke="black" points="646,0.5 646,-40.5 816,-40.5 816,0.5 646,0.5"/>
<text text-anchor="start" x="654" y="-28.5" font-family="Helvetica,sans-Serif" font-size="10.00">gameAuthoring.scenes.path</text>
<text text-anchor="start" x="654" y="-17.5" font-family="Helvetica,sans-Serif" font-size="10.00">Building.PathBuildingScene.Path</text>
<text text-anchor="middle" x="731" y="-6.5" font-family="Helvetica,sans-Serif" font-size="10.00">BuildingScene</text>
</a>
</g>
</g>
<!-- Node3&#45;&gt;Node4 -->
<g id="edge3" class="edge"><title>Node3&#45;&gt;Node4</title>
<path fill="none" stroke="midnightblue" d="M619.826,-20C628.541,-20 637.309,-20 645.886,-20"/>
<polygon fill="midnightblue" stroke="midnightblue" points="619.635,-16.5001 609.635,-20 619.635,-23.5001 619.635,-16.5001"/>
</g>
</g>
</svg>
