<?xml version="1.0" encoding="UTF-8" standalone="no"?>
<!DOCTYPE svg PUBLIC "-//W3C//DTD SVG 1.1//EN"
 "http://www.w3.org/Graphics/SVG/1.1/DTD/svg11.dtd">
<!-- Generated by graphviz version 2.36.0 (20140111.2315)
 -->
<!-- Title: gameAuthoring.scenes.pathBuilding.pathComponents.Path.addComponentToPath Pages: 1 -->
<svg width="970pt" height="746pt"
 viewBox="0.00 0.00 970.00 746.00" xmlns="http://www.w3.org/2000/svg" xmlns:xlink="http://www.w3.org/1999/xlink">
<g id="graph0" class="graph" transform="scale(1 1) rotate(0) translate(4 742)">
<title>gameAuthoring.scenes.pathBuilding.pathComponents.Path.addComponentToPath</title>
<polygon fill="white" stroke="none" points="-4,4 -4,-742 966,-742 966,4 -4,4"/>
<!-- Node1 -->
<g id="node1" class="node"><title>Node1</title>
<polygon fill="#bfbfbf" stroke="black" points="0.5,-228.5 0.5,-269.5 185.5,-269.5 185.5,-228.5 0.5,-228.5"/>
<text text-anchor="start" x="8.5" y="-257.5" font-family="Helvetica,sans-Serif" font-size="10.00">gameAuthoring.scenes.path</text>
<text text-anchor="start" x="8.5" y="-246.5" font-family="Helvetica,sans-Serif" font-size="10.00">Building.pathComponents.Path.add</text>
<text text-anchor="middle" x="93" y="-235.5" font-family="Helvetica,sans-Serif" font-size="10.00">ComponentToPath</text>
</g>
<!-- Node2 -->
<g id="node2" class="node"><title>Node2</title>
<g id="a_node2"><a xlink:href="../../d1/d65/classgame_authoring_1_1scenes_1_1path_building_1_1path_components_1_1_path.html#af2f92d642a6fe0c48c6b87193d462f00" target="_top" xlink:title="gameAuthoring.scenes.path\lBuilding.pathComponents.Path.attempt\lToConnectRoutes">
<polygon fill="white" stroke="black" points="222,-464.5 222,-505.5 428,-505.5 428,-464.5 222,-464.5"/>
<text text-anchor="start" x="230" y="-493.5" font-family="Helvetica,sans-Serif" font-size="10.00">gameAuthoring.scenes.path</text>
<text text-anchor="start" x="230" y="-482.5" font-family="Helvetica,sans-Serif" font-size="10.00">Building.pathComponents.Path.attempt</text>
<text text-anchor="middle" x="325" y="-471.5" font-family="Helvetica,sans-Serif" font-size="10.00">ToConnectRoutes</text>
</a>
</g>
</g>
<!-- Node1&#45;&gt;Node2 -->
<g id="edge1" class="edge"><title>Node1&#45;&gt;Node2</title>
<path fill="none" stroke="midnightblue" d="M114.009,-269.531C155.298,-311.897 249.985,-409.054 296.789,-457.079"/>
<polygon fill="midnightblue" stroke="midnightblue" points="294.388,-459.63 303.874,-464.349 299.401,-454.744 294.388,-459.63"/>
</g>
<!-- Node20 -->
<g id="node20" class="node"><title>Node20</title>
<g id="a_node20"><a xlink:href="../../d1/d65/classgame_authoring_1_1scenes_1_1path_building_1_1path_components_1_1_path.html#ac216f4faac2841dfad15ce4a0666668e" target="_top" xlink:title="gameAuthoring.scenes.path\lBuilding.pathComponents.Path.component\lAddedToStartingLocation">
<polygon fill="white" stroke="black" points="464,-228.5 464,-269.5 686,-269.5 686,-228.5 464,-228.5"/>
<text text-anchor="start" x="472" y="-257.5" font-family="Helvetica,sans-Serif" font-size="10.00">gameAuthoring.scenes.path</text>
<text text-anchor="start" x="472" y="-246.5" font-family="Helvetica,sans-Serif" font-size="10.00">Building.pathComponents.Path.component</text>
<text text-anchor="middle" x="575" y="-235.5" font-family="Helvetica,sans-Serif" font-size="10.00">AddedToStartingLocation</text>
</a>
</g>
</g>
<!-- Node1&#45;&gt;Node20 -->
<g id="edge22" class="edge"><title>Node1&#45;&gt;Node20</title>
<path fill="none" stroke="midnightblue" d="M185.697,-249C261.789,-249 370.591,-249 453.676,-249"/>
<polygon fill="midnightblue" stroke="midnightblue" points="453.677,-252.5 463.677,-249 453.677,-245.5 453.677,-252.5"/>
</g>
<!-- Node22 -->
<g id="node22" class="node"><title>Node22</title>
<g id="a_node22"><a xlink:href="../../d1/d65/classgame_authoring_1_1scenes_1_1path_building_1_1path_components_1_1_path.html#a566439af641cd2c42eb4a1012045f093" target="_top" xlink:title="gameAuthoring.scenes.path\lBuilding.pathComponents.Path.create\lNewRoute">
<polygon fill="white" stroke="black" points="226,-103.5 226,-144.5 424,-144.5 424,-103.5 226,-103.5"/>
<text text-anchor="start" x="234" y="-132.5" font-family="Helvetica,sans-Serif" font-size="10.00">gameAuthoring.scenes.path</text>
<text text-anchor="start" x="234" y="-121.5" font-family="Helvetica,sans-Serif" font-size="10.00">Building.pathComponents.Path.create</text>
<text text-anchor="middle" x="325" y="-110.5" font-family="Helvetica,sans-Serif" font-size="10.00">NewRoute</text>
</a>
</g>
</g>
<!-- Node1&#45;&gt;Node22 -->
<g id="edge28" class="edge"><title>Node1&#45;&gt;Node22</title>
<path fill="none" stroke="midnightblue" d="M131.722,-228.499C171.58,-206.837 234.489,-172.647 277.416,-149.317"/>
<polygon fill="midnightblue" stroke="midnightblue" points="279.142,-152.363 286.257,-144.512 275.8,-146.212 279.142,-152.363"/>
</g>
<!-- Node3 -->
<g id="node3" class="node"><title>Node3</title>
<g id="a_node3"><a xlink:href="../../d1/d65/classgame_authoring_1_1scenes_1_1path_building_1_1path_components_1_1_path.html#a628d6d2e49adf5a7f774d6fc2c1cefbe" target="_top" xlink:title="gameAuthoring.scenes.path\lBuilding.pathComponents.Path.get\lRouteContaining">
<polygon fill="white" stroke="black" points="750.5,-228.5 750.5,-269.5 933.5,-269.5 933.5,-228.5 750.5,-228.5"/>
<text text-anchor="start" x="758.5" y="-257.5" font-family="Helvetica,sans-Serif" font-size="10.00">gameAuthoring.scenes.path</text>
<text text-anchor="start" x="758.5" y="-246.5" font-family="Helvetica,sans-Serif" font-size="10.00">Building.pathComponents.Path.get</text>
<text text-anchor="middle" x="842" y="-235.5" font-family="Helvetica,sans-Serif" font-size="10.00">RouteContaining</text>
</a>
</g>
</g>
<!-- Node2&#45;&gt;Node3 -->
<g id="edge2" class="edge"><title>Node2&#45;&gt;Node3</title>
<path fill="none" stroke="midnightblue" d="M346.256,-464.321C371.742,-439.291 417.792,-397.242 464,-371 551.34,-321.399 661.685,-288.692 740.384,-269.743"/>
<polygon fill="midnightblue" stroke="midnightblue" points="741.383,-273.103 750.303,-267.387 739.765,-266.292 741.383,-273.103"/>
</g>
<!-- Node4 -->
<g id="node4" class="node"><title>Node4</title>
<g id="a_node4"><a xlink:href="../../d1/d65/classgame_authoring_1_1scenes_1_1path_building_1_1path_components_1_1_path.html#a6ea935a9238c3c073740926923914205" target="_top" xlink:title="gameAuthoring.scenes.path\lBuilding.pathComponents.Path.close\lEnoughToConnect">
<polygon fill="white" stroke="black" points="479,-380.5 479,-421.5 671,-421.5 671,-380.5 479,-380.5"/>
<text text-anchor="start" x="487" y="-409.5" font-family="Helvetica,sans-Serif" font-size="10.00">gameAuthoring.scenes.path</text>
<text text-anchor="start" x="487" y="-398.5" font-family="Helvetica,sans-Serif" font-size="10.00">Building.pathComponents.Path.close</text>
<text text-anchor="middle" x="575" y="-387.5" font-family="Helvetica,sans-Serif" font-size="10.00">EnoughToConnect</text>
</a>
</g>
</g>
<!-- Node2&#45;&gt;Node4 -->
<g id="edge3" class="edge"><title>Node2&#45;&gt;Node4</title>
<path fill="none" stroke="midnightblue" d="M374.715,-464.47C400.927,-453.797 433.958,-440.943 464,-431 470.783,-428.755 477.84,-426.547 484.958,-424.41"/>
<polygon fill="midnightblue" stroke="midnightblue" points="486.082,-427.727 494.684,-421.542 484.103,-421.013 486.082,-427.727"/>
</g>
<!-- Node7 -->
<g id="node7" class="node"><title>Node7</title>
<g id="a_node7"><a xlink:href="../../d7/d4d/classgame_authoring_1_1scenes_1_1path_building_1_1path_components_1_1_path_route.html#a13ce0765803077a702f680249baa9bb3" target="_top" xlink:title="gameAuthoring.scenes.path\lBuilding.pathComponents.PathRoute.getFirst">
<polygon fill="white" stroke="black" points="727,-517 727,-547 957,-547 957,-517 727,-517"/>
<text text-anchor="start" x="735" y="-535" font-family="Helvetica,sans-Serif" font-size="10.00">gameAuthoring.scenes.path</text>
<text text-anchor="middle" x="842" y="-524" font-family="Helvetica,sans-Serif" font-size="10.00">Building.pathComponents.PathRoute.getFirst</text>
</a>
</g>
</g>
<!-- Node2&#45;&gt;Node7 -->
<g id="edge6" class="edge"><title>Node2&#45;&gt;Node7</title>
<path fill="none" stroke="midnightblue" d="M428.055,-494.314C510.927,-501.877 628.125,-512.573 716.507,-520.639"/>
<polygon fill="midnightblue" stroke="midnightblue" points="716.317,-524.136 726.594,-521.559 716.953,-517.165 716.317,-524.136"/>
</g>
<!-- Node8 -->
<g id="node8" class="node"><title>Node8</title>
<g id="a_node8"><a xlink:href="../../d7/d4d/classgame_authoring_1_1scenes_1_1path_building_1_1path_components_1_1_path_route.html#a3fd91e69117cf50c3374a5c30324ea8c" target="_top" xlink:title="gameAuthoring.scenes.path\lBuilding.pathComponents.PathRoute.get\lComponentsBefore">
<polygon fill="white" stroke="black" points="470,-92.5 470,-133.5 680,-133.5 680,-92.5 470,-92.5"/>
<text text-anchor="start" x="478" y="-121.5" font-family="Helvetica,sans-Serif" font-size="10.00">gameAuthoring.scenes.path</text>
<text text-anchor="start" x="478" y="-110.5" font-family="Helvetica,sans-Serif" font-size="10.00">Building.pathComponents.PathRoute.get</text>
<text text-anchor="middle" x="575" y="-99.5" font-family="Helvetica,sans-Serif" font-size="10.00">ComponentsBefore</text>
</a>
</g>
</g>
<!-- Node2&#45;&gt;Node8 -->
<g id="edge7" class="edge"><title>Node2&#45;&gt;Node8</title>
<path fill="none" stroke="midnightblue" d="M333.986,-464.353C352.54,-417.833 401.758,-302.381 464,-219 486.139,-189.342 516.827,-160.521 540.166,-140.437"/>
<polygon fill="midnightblue" stroke="midnightblue" points="542.731,-142.85 548.088,-133.71 538.2,-137.514 542.731,-142.85"/>
</g>
<!-- Node12 -->
<g id="node12" class="node"><title>Node12</title>
<g id="a_node12"><a xlink:href="../../d1/d65/classgame_authoring_1_1scenes_1_1path_building_1_1path_components_1_1_path.html#a951795636cdc85669be6d0ddc9ac7416" target="_top" xlink:title="gameAuthoring.scenes.path\lBuilding.pathComponents.Path.draw\lComponents">
<polygon fill="white" stroke="black" points="480,-696.5 480,-737.5 670,-737.5 670,-696.5 480,-696.5"/>
<text text-anchor="start" x="488" y="-725.5" font-family="Helvetica,sans-Serif" font-size="10.00">gameAuthoring.scenes.path</text>
<text text-anchor="start" x="488" y="-714.5" font-family="Helvetica,sans-Serif" font-size="10.00">Building.pathComponents.Path.draw</text>
<text text-anchor="middle" x="575" y="-703.5" font-family="Helvetica,sans-Serif" font-size="10.00">Components</text>
</a>
</g>
</g>
<!-- Node2&#45;&gt;Node12 -->
<g id="edge11" class="edge"><title>Node2&#45;&gt;Node12</title>
<path fill="none" stroke="midnightblue" d="M334.345,-505.607C351.959,-546.46 396.914,-637.912 464,-686 466.869,-688.056 469.87,-689.977 472.971,-691.77"/>
<polygon fill="midnightblue" stroke="midnightblue" points="471.47,-694.935 481.95,-696.494 474.73,-688.74 471.47,-694.935"/>
</g>
<!-- Node13 -->
<g id="node13" class="node"><title>Node13</title>
<g id="a_node13"><a xlink:href="../../d7/d4d/classgame_authoring_1_1scenes_1_1path_building_1_1path_components_1_1_path_route.html#aa15bdbf4ff5f98537667883999ebaf2b" target="_top" xlink:title="gameAuthoring.scenes.path\lBuilding.pathComponents.PathRoute.get\lComponents">
<polygon fill="white" stroke="black" points="470,-576.5 470,-617.5 680,-617.5 680,-576.5 470,-576.5"/>
<text text-anchor="start" x="478" y="-605.5" font-family="Helvetica,sans-Serif" font-size="10.00">gameAuthoring.scenes.path</text>
<text text-anchor="start" x="478" y="-594.5" font-family="Helvetica,sans-Serif" font-size="10.00">Building.pathComponents.PathRoute.get</text>
<text text-anchor="middle" x="575" y="-583.5" font-family="Helvetica,sans-Serif" font-size="10.00">Components</text>
</a>
</g>
</g>
<!-- Node2&#45;&gt;Node13 -->
<g id="edge12" class="edge"><title>Node2&#45;&gt;Node13</title>
<path fill="none" stroke="midnightblue" d="M358.51,-505.6C385.891,-522.341 426.485,-545.762 464,-562 473.104,-565.941 482.8,-569.666 492.518,-573.112"/>
<polygon fill="midnightblue" stroke="midnightblue" points="491.629,-576.507 502.223,-576.462 493.913,-569.89 491.629,-576.507"/>
</g>
<!-- Node14 -->
<g id="node14" class="node"><title>Node14</title>
<g id="a_node14"><a xlink:href="../../d1/d65/classgame_authoring_1_1scenes_1_1path_building_1_1path_components_1_1_path.html#ab8d42b0db73a69b6c63a74445e552045" target="_top" xlink:title="gameAuthoring.scenes.path\lBuilding.pathComponents.Path.connect\lRoutes">
<polygon fill="white" stroke="black" points="472,-440.5 472,-481.5 678,-481.5 678,-440.5 472,-440.5"/>
<text text-anchor="start" x="480" y="-469.5" font-family="Helvetica,sans-Serif" font-size="10.00">gameAuthoring.scenes.path</text>
<text text-anchor="start" x="480" y="-458.5" font-family="Helvetica,sans-Serif" font-size="10.00">Building.pathComponents.Path.connect</text>
<text text-anchor="middle" x="575" y="-447.5" font-family="Helvetica,sans-Serif" font-size="10.00">Routes</text>
</a>
</g>
</g>
<!-- Node2&#45;&gt;Node14 -->
<g id="edge13" class="edge"><title>Node2&#45;&gt;Node14</title>
<path fill="none" stroke="midnightblue" d="M428.303,-475.1C439.336,-474.032 450.605,-472.941 461.746,-471.863"/>
<polygon fill="midnightblue" stroke="midnightblue" points="462.316,-475.325 471.932,-470.878 461.642,-468.357 462.316,-475.325"/>
</g>
<!-- Node16 -->
<g id="node16" class="node"><title>Node16</title>
<g id="a_node16"><a xlink:href="../../d7/d4d/classgame_authoring_1_1scenes_1_1path_building_1_1path_components_1_1_path_route.html#aa9aab066fdb4fe1e6a4b37f991b9ad4b" target="_top" xlink:title="gameAuthoring.scenes.path\lBuilding.pathComponents.PathRoute.getLast">
<polygon fill="white" stroke="black" points="727,-566 727,-596 957,-596 957,-566 727,-566"/>
<text text-anchor="start" x="735" y="-584" font-family="Helvetica,sans-Serif" font-size="10.00">gameAuthoring.scenes.path</text>
<text text-anchor="middle" x="842" y="-573" font-family="Helvetica,sans-Serif" font-size="10.00">Building.pathComponents.PathRoute.getLast</text>
</a>
</g>
</g>
<!-- Node2&#45;&gt;Node16 -->
<g id="edge21" class="edge"><title>Node2&#45;&gt;Node16</title>
<path fill="none" stroke="midnightblue" d="M399.453,-505.578C420.225,-511.011 442.916,-516.583 464,-521 548.256,-538.651 644.066,-553.837 718.015,-564.515"/>
<polygon fill="midnightblue" stroke="midnightblue" points="717.905,-568.035 728.301,-565.991 718.9,-561.106 717.905,-568.035"/>
</g>
<!-- Node18 -->
<g id="node18" class="node"><title>Node18</title>
<g id="a_node18"><a xlink:href="../../d1/d65/classgame_authoring_1_1scenes_1_1path_building_1_1path_components_1_1_path.html#a0e9944b01a3b570b39583f806a5a53a4" target="_top" xlink:title="gameAuthoring.scenes.path\lBuilding.pathComponents.Path.ensure\lLocationsAreInFront">
<polygon fill="white" stroke="black" points="475,-636.5 475,-677.5 675,-677.5 675,-636.5 475,-636.5"/>
<text text-anchor="start" x="483" y="-665.5" font-family="Helvetica,sans-Serif" font-size="10.00">gameAuthoring.scenes.path</text>
<text text-anchor="start" x="483" y="-654.5" font-family="Helvetica,sans-Serif" font-size="10.00">Building.pathComponents.Path.ensure</text>
<text text-anchor="middle" x="575" y="-643.5" font-family="Helvetica,sans-Serif" font-size="10.00">LocationsAreInFront</text>
</a>
</g>
</g>
<!-- Node2&#45;&gt;Node18 -->
<g id="edge19" class="edge"><title>Node2&#45;&gt;Node18</title>
<path fill="none" stroke="midnightblue" d="M340.487,-505.561C363.254,-536.346 410.385,-594.194 464,-626 467.847,-628.282 471.871,-630.403 476.008,-632.373"/>
<polygon fill="midnightblue" stroke="midnightblue" points="474.665,-635.606 485.227,-636.449 477.496,-629.204 474.665,-635.606"/>
</g>
<!-- Node5 -->
<g id="node5" class="node"><title>Node5</title>
<g id="a_node5"><a xlink:href="../../df/dea/interfacegame_authoring_1_1scenes_1_1path_building_1_1path_components_1_1_path_component.html#a40cb4921333d7a54fa51132e33b8bfa2" target="_top" xlink:title="gameAuthoring.scenes.path\lBuilding.pathComponents.PathComponent.get\lEndingPoint">
<polygon fill="white" stroke="black" points="722.5,-408.5 722.5,-449.5 961.5,-449.5 961.5,-408.5 722.5,-408.5"/>
<text text-anchor="start" x="730.5" y="-437.5" font-family="Helvetica,sans-Serif" font-size="10.00">gameAuthoring.scenes.path</text>
<text text-anchor="start" x="730.5" y="-426.5" font-family="Helvetica,sans-Serif" font-size="10.00">Building.pathComponents.PathComponent.get</text>
<text text-anchor="middle" x="842" y="-415.5" font-family="Helvetica,sans-Serif" font-size="10.00">EndingPoint</text>
</a>
</g>
</g>
<!-- Node4&#45;&gt;Node5 -->
<g id="edge4" class="edge"><title>Node4&#45;&gt;Node5</title>
<path fill="none" stroke="midnightblue" d="M671.297,-411.069C684.55,-412.469 698.345,-413.927 712.087,-415.379"/>
<polygon fill="midnightblue" stroke="midnightblue" points="711.764,-418.864 722.077,-416.435 712.5,-411.903 711.764,-418.864"/>
</g>
<!-- Node6 -->
<g id="node6" class="node"><title>Node6</title>
<g id="a_node6"><a xlink:href="../../df/dea/interfacegame_authoring_1_1scenes_1_1path_building_1_1path_components_1_1_path_component.html#afce688f365df0f66dad76d541e0c2b24" target="_top" xlink:title="gameAuthoring.scenes.path\lBuilding.pathComponents.PathComponent.get\lStartingPoint">
<polygon fill="white" stroke="black" points="722.5,-288.5 722.5,-329.5 961.5,-329.5 961.5,-288.5 722.5,-288.5"/>
<text text-anchor="start" x="730.5" y="-317.5" font-family="Helvetica,sans-Serif" font-size="10.00">gameAuthoring.scenes.path</text>
<text text-anchor="start" x="730.5" y="-306.5" font-family="Helvetica,sans-Serif" font-size="10.00">Building.pathComponents.PathComponent.get</text>
<text text-anchor="middle" x="842" y="-295.5" font-family="Helvetica,sans-Serif" font-size="10.00">StartingPoint</text>
</a>
</g>
</g>
<!-- Node4&#45;&gt;Node6 -->
<g id="edge5" class="edge"><title>Node4&#45;&gt;Node6</title>
<path fill="none" stroke="midnightblue" d="M619.4,-380.479C648.087,-367.439 686.761,-350.845 722,-339 728.873,-336.69 736.021,-334.464 743.251,-332.34"/>
<polygon fill="midnightblue" stroke="midnightblue" points="744.49,-335.626 753.141,-329.51 742.564,-328.896 744.49,-335.626"/>
</g>
<!-- Node9 -->
<g id="node9" class="node"><title>Node9</title>
<g id="a_node9"><a xlink:href="../../d7/d4d/classgame_authoring_1_1scenes_1_1path_building_1_1path_components_1_1_path_route.html#aeee9e89e67151550871dc81b5c2c8938" target="_top" xlink:title="gameAuthoring.scenes.path\lBuilding.pathComponents.PathRoute.\lPathRoute">
<polygon fill="white" stroke="black" points="745,-48.5 745,-89.5 939,-89.5 939,-48.5 745,-48.5"/>
<text text-anchor="start" x="753" y="-77.5" font-family="Helvetica,sans-Serif" font-size="10.00">gameAuthoring.scenes.path</text>
<text text-anchor="start" x="753" y="-66.5" font-family="Helvetica,sans-Serif" font-size="10.00">Building.pathComponents.PathRoute.</text>
<text text-anchor="middle" x="842" y="-55.5" font-family="Helvetica,sans-Serif" font-size="10.00">PathRoute</text>
</a>
</g>
</g>
<!-- Node8&#45;&gt;Node9 -->
<g id="edge8" class="edge"><title>Node8&#45;&gt;Node9</title>
<path fill="none" stroke="midnightblue" d="M680.355,-95.6732C698.319,-92.6904 717.007,-89.5875 735.014,-86.5977"/>
<polygon fill="midnightblue" stroke="midnightblue" points="735.647,-90.0405 744.939,-84.9498 734.501,-83.1351 735.647,-90.0405"/>
</g>
<!-- Node10 -->
<g id="node10" class="node"><title>Node10</title>
<g id="a_node10"><a xlink:href="../../d7/d4d/classgame_authoring_1_1scenes_1_1path_building_1_1path_components_1_1_path_route.html#a9096e6b2d30f29e4fb791a73297079ac" target="_top" xlink:title="gameAuthoring.scenes.path\lBuilding.pathComponents.PathRoute.set\lStartingLocation">
<polygon fill="white" stroke="black" points="737.5,-108.5 737.5,-149.5 946.5,-149.5 946.5,-108.5 737.5,-108.5"/>
<text text-anchor="start" x="745.5" y="-137.5" font-family="Helvetica,sans-Serif" font-size="10.00">gameAuthoring.scenes.path</text>
<text text-anchor="start" x="745.5" y="-126.5" font-family="Helvetica,sans-Serif" font-size="10.00">Building.pathComponents.PathRoute.set</text>
<text text-anchor="middle" x="842" y="-115.5" font-family="Helvetica,sans-Serif" font-size="10.00">StartingLocation</text>
</a>
</g>
</g>
<!-- Node8&#45;&gt;Node10 -->
<g id="edge9" class="edge"><title>Node8&#45;&gt;Node10</title>
<path fill="none" stroke="midnightblue" d="M680.355,-119.301C695.681,-120.226 711.535,-121.183 727.043,-122.12"/>
<polygon fill="midnightblue" stroke="midnightblue" points="726.982,-125.622 737.175,-122.731 727.404,-118.635 726.982,-125.622"/>
</g>
<!-- Node11 -->
<g id="node11" class="node"><title>Node11</title>
<g id="a_node11"><a xlink:href="../../d7/d4d/classgame_authoring_1_1scenes_1_1path_building_1_1path_components_1_1_path_route.html#ab8edca6679b327f0dd85b506e458dffd" target="_top" xlink:title="gameAuthoring.scenes.path\lBuilding.pathComponents.PathRoute.add">
<polygon fill="white" stroke="black" points="736,-0 736,-30 948,-30 948,-0 736,-0"/>
<text text-anchor="start" x="744" y="-18" font-family="Helvetica,sans-Serif" font-size="10.00">gameAuthoring.scenes.path</text>
<text text-anchor="middle" x="842" y="-7" font-family="Helvetica,sans-Serif" font-size="10.00">Building.pathComponents.PathRoute.add</text>
</a>
</g>
</g>
<!-- Node8&#45;&gt;Node11 -->
<g id="edge10" class="edge"><title>Node8&#45;&gt;Node11</title>
<path fill="none" stroke="midnightblue" d="M609.942,-92.467C638.815,-75.8267 681.865,-52.9296 722,-39 728.707,-36.6721 735.71,-34.5412 742.814,-32.5959"/>
<polygon fill="midnightblue" stroke="midnightblue" points="743.754,-35.968 752.547,-30.0571 741.987,-29.1947 743.754,-35.968"/>
</g>
<!-- Node14&#45;&gt;Node5 -->
<g id="edge17" class="edge"><title>Node14&#45;&gt;Node5</title>
<path fill="none" stroke="midnightblue" d="M678.077,-448.674C689.241,-447.326 700.71,-445.941 712.143,-444.56"/>
<polygon fill="midnightblue" stroke="midnightblue" points="712.663,-448.023 722.172,-443.349 711.824,-441.073 712.663,-448.023"/>
</g>
<!-- Node14&#45;&gt;Node7 -->
<g id="edge14" class="edge"><title>Node14&#45;&gt;Node7</title>
<path fill="none" stroke="midnightblue" d="M640.937,-481.616C677.894,-493.322 717.694,-505.872 722,-507 732.319,-509.703 743.202,-512.312 754.022,-514.761"/>
<polygon fill="midnightblue" stroke="midnightblue" points="753.403,-518.208 763.924,-516.962 754.922,-511.375 753.403,-518.208"/>
</g>
<!-- Node15 -->
<g id="node15" class="node"><title>Node15</title>
<g id="a_node15"><a xlink:href="../../df/dea/interfacegame_authoring_1_1scenes_1_1path_building_1_1path_components_1_1_path_component.html#aab453652f9fce168759c573fb46d08f2" target="_top" xlink:title="gameAuthoring.scenes.path\lBuilding.pathComponents.PathComponent.set\lStartingPoint">
<polygon fill="white" stroke="black" points="722.5,-348.5 722.5,-389.5 961.5,-389.5 961.5,-348.5 722.5,-348.5"/>
<text text-anchor="start" x="730.5" y="-377.5" font-family="Helvetica,sans-Serif" font-size="10.00">gameAuthoring.scenes.path</text>
<text text-anchor="start" x="730.5" y="-366.5" font-family="Helvetica,sans-Serif" font-size="10.00">Building.pathComponents.PathComponent.set</text>
<text text-anchor="middle" x="842" y="-355.5" font-family="Helvetica,sans-Serif" font-size="10.00">StartingPoint</text>
</a>
</g>
</g>
<!-- Node14&#45;&gt;Node15 -->
<g id="edge15" class="edge"><title>Node14&#45;&gt;Node15</title>
<path fill="none" stroke="midnightblue" d="M662.698,-440.494C670.765,-437.426 678.658,-433.942 686,-430 704.602,-420.011 703.261,-408.73 722,-399 725.829,-397.012 729.797,-395.15 733.858,-393.408"/>
<polygon fill="midnightblue" stroke="midnightblue" points="735.497,-396.522 743.48,-389.556 732.895,-390.023 735.497,-396.522"/>
</g>
<!-- Node14&#45;&gt;Node16 -->
<g id="edge16" class="edge"><title>Node14&#45;&gt;Node16</title>
<path fill="none" stroke="midnightblue" d="M607.016,-481.597C648.008,-508.757 715.799,-553.437 722,-556 728.292,-558.601 734.887,-560.943 741.609,-563.051"/>
<polygon fill="midnightblue" stroke="midnightblue" points="740.947,-566.504 751.528,-565.973 742.925,-559.79 740.947,-566.504"/>
</g>
<!-- Node17 -->
<g id="node17" class="node"><title>Node17</title>
<g id="a_node17"><a xlink:href="../../d7/d4d/classgame_authoring_1_1scenes_1_1path_building_1_1path_components_1_1_path_route.html#aa583fef68392267c832ea1229641d3dc" target="_top" xlink:title="gameAuthoring.scenes.path\lBuilding.pathComponents.PathRoute.addAll">
<polygon fill="white" stroke="black" points="730,-468 730,-498 954,-498 954,-468 730,-468"/>
<text text-anchor="start" x="738" y="-486" font-family="Helvetica,sans-Serif" font-size="10.00">gameAuthoring.scenes.path</text>
<text text-anchor="middle" x="842" y="-475" font-family="Helvetica,sans-Serif" font-size="10.00">Building.pathComponents.PathRoute.addAll</text>
</a>
</g>
</g>
<!-- Node14&#45;&gt;Node17 -->
<g id="edge18" class="edge"><title>Node14&#45;&gt;Node17</title>
<path fill="none" stroke="midnightblue" d="M678.077,-469.474C691.687,-470.604 705.749,-471.772 719.647,-472.925"/>
<polygon fill="midnightblue" stroke="midnightblue" points="719.474,-476.423 729.729,-473.762 720.053,-469.447 719.474,-476.423"/>
</g>
<!-- Node19 -->
<g id="node19" class="node"><title>Node19</title>
<g id="a_node19"><a xlink:href="../../d1/d65/classgame_authoring_1_1scenes_1_1path_building_1_1path_components_1_1_path.html#a3af7f7eaea416705f5035403d7e3c560" target="_top" xlink:title="gameAuthoring.scenes.path\lBuilding.pathComponents.Path.bring\lComponentToFrontOfGroup">
<polygon fill="white" stroke="black" points="746.5,-636.5 746.5,-677.5 937.5,-677.5 937.5,-636.5 746.5,-636.5"/>
<text text-anchor="start" x="754.5" y="-665.5" font-family="Helvetica,sans-Serif" font-size="10.00">gameAuthoring.scenes.path</text>
<text text-anchor="start" x="754.5" y="-654.5" font-family="Helvetica,sans-Serif" font-size="10.00">Building.pathComponents.Path.bring</text>
<text text-anchor="middle" x="842" y="-643.5" font-family="Helvetica,sans-Serif" font-size="10.00">ComponentToFrontOfGroup</text>
</a>
</g>
</g>
<!-- Node18&#45;&gt;Node19 -->
<g id="edge20" class="edge"><title>Node18&#45;&gt;Node19</title>
<path fill="none" stroke="midnightblue" d="M675.053,-657C695.049,-657 716.133,-657 736.315,-657"/>
<polygon fill="midnightblue" stroke="midnightblue" points="736.458,-660.5 746.458,-657 736.458,-653.5 736.458,-660.5"/>
</g>
<!-- Node20&#45;&gt;Node3 -->
<g id="edge26" class="edge"><title>Node20&#45;&gt;Node3</title>
<path fill="none" stroke="midnightblue" d="M686.082,-249C703.913,-249 722.302,-249 739.906,-249"/>
<polygon fill="midnightblue" stroke="midnightblue" points="740.17,-252.5 750.17,-249 740.17,-245.5 740.17,-252.5"/>
</g>
<!-- Node20&#45;&gt;Node6 -->
<g id="edge24" class="edge"><title>Node20&#45;&gt;Node6</title>
<path fill="none" stroke="midnightblue" d="M666.827,-269.565C690.531,-274.931 716.215,-280.747 740.393,-286.221"/>
<polygon fill="midnightblue" stroke="midnightblue" points="739.765,-289.667 750.291,-288.462 741.311,-282.84 739.765,-289.667"/>
</g>
<!-- Node20&#45;&gt;Node10 -->
<g id="edge27" class="edge"><title>Node20&#45;&gt;Node10</title>
<path fill="none" stroke="midnightblue" d="M603.681,-228.345C632.054,-208.06 678.113,-177.539 722,-159 727.281,-156.769 732.766,-154.676 738.355,-152.716"/>
<polygon fill="midnightblue" stroke="midnightblue" points="739.467,-156.035 747.839,-149.543 737.245,-149.397 739.467,-156.035"/>
</g>
<!-- Node20&#45;&gt;Node15 -->
<g id="edge25" class="edge"><title>Node20&#45;&gt;Node15</title>
<path fill="none" stroke="midnightblue" d="M604.015,-269.524C632.462,-289.513 678.41,-319.512 722,-338 728.14,-340.604 734.555,-343.035 741.084,-345.295"/>
<polygon fill="midnightblue" stroke="midnightblue" points="740.121,-348.663 750.714,-348.485 742.322,-342.018 740.121,-348.663"/>
</g>
<!-- Node21 -->
<g id="node21" class="node"><title>Node21</title>
<g id="a_node21"><a xlink:href="../../d1/d65/classgame_authoring_1_1scenes_1_1path_building_1_1path_components_1_1_path.html#a14ed64a3566a6bbc791a361c8906f448" target="_top" xlink:title="gameAuthoring.scenes.path\lBuilding.pathComponents.Path.added\lComponentIsWithinCircle">
<polygon fill="white" stroke="black" points="743.5,-168.5 743.5,-209.5 940.5,-209.5 940.5,-168.5 743.5,-168.5"/>
<text text-anchor="start" x="751.5" y="-197.5" font-family="Helvetica,sans-Serif" font-size="10.00">gameAuthoring.scenes.path</text>
<text text-anchor="start" x="751.5" y="-186.5" font-family="Helvetica,sans-Serif" font-size="10.00">Building.pathComponents.Path.added</text>
<text text-anchor="middle" x="842" y="-175.5" font-family="Helvetica,sans-Serif" font-size="10.00">ComponentIsWithinCircle</text>
</a>
</g>
</g>
<!-- Node20&#45;&gt;Node21 -->
<g id="edge23" class="edge"><title>Node20&#45;&gt;Node21</title>
<path fill="none" stroke="midnightblue" d="M666.827,-228.435C690.531,-223.069 716.215,-217.253 740.393,-211.779"/>
<polygon fill="midnightblue" stroke="midnightblue" points="741.311,-215.16 750.291,-209.538 739.765,-208.333 741.311,-215.16"/>
</g>
<!-- Node22&#45;&gt;Node11 -->
<g id="edge29" class="edge"><title>Node22&#45;&gt;Node11</title>
<path fill="none" stroke="midnightblue" d="M389.846,-103.432C413.046,-96.3832 439.564,-88.815 464,-83 552.856,-61.855 654.874,-43.8271 730.359,-31.6574"/>
<polygon fill="midnightblue" stroke="midnightblue" points="731.043,-35.0926 740.363,-30.0538 729.935,-28.1808 731.043,-35.0926"/>
</g>
</g>
</svg>
