<?xml version="1.0" encoding="UTF-8" standalone="no"?>
<!DOCTYPE svg PUBLIC "-//W3C//DTD SVG 1.1//EN"
 "http://www.w3.org/Graphics/SVG/1.1/DTD/svg11.dtd">
<!-- Generated by graphviz version 2.36.0 (20140111.2315)
 -->
<!-- Title: gameAuthoring.scenes.pathBuilding.pathComponents.Path.canCreateLocationAtPoint Pages: 1 -->
<svg width="982pt" height="657pt"
 viewBox="0.00 0.00 982.00 657.00" xmlns="http://www.w3.org/2000/svg" xmlns:xlink="http://www.w3.org/1999/xlink">
<g id="graph0" class="graph" transform="scale(1 1) rotate(0) translate(4 653)">
<title>gameAuthoring.scenes.pathBuilding.pathComponents.Path.canCreateLocationAtPoint</title>
<polygon fill="white" stroke="none" points="-4,4 -4,-653 978,-653 978,4 -4,4"/>
<!-- Node1 -->
<g id="node1" class="node"><title>Node1</title>
<polygon fill="#bfbfbf" stroke="black" points="0.5,-381.5 0.5,-422.5 185.5,-422.5 185.5,-381.5 0.5,-381.5"/>
<text text-anchor="start" x="8.5" y="-410.5" font-family="Helvetica,sans-Serif" font-size="10.00">gameAuthoring.scenes.path</text>
<text text-anchor="start" x="8.5" y="-399.5" font-family="Helvetica,sans-Serif" font-size="10.00">Building.pathComponents.Path.can</text>
<text text-anchor="middle" x="93" y="-388.5" font-family="Helvetica,sans-Serif" font-size="10.00">CreateLocationAtPoint</text>
</g>
<!-- Node2 -->
<g id="node2" class="node"><title>Node2</title>
<g id="a_node2"><a xlink:href="../../d1/d65/classgame_authoring_1_1scenes_1_1path_building_1_1path_components_1_1_path.html#a04116934c677b663b7ab964a9cd86582" target="_top" xlink:title="gameAuthoring.scenes.path\lBuilding.pathComponents.Path.add\lEndingLocation">
<polygon fill="white" stroke="black" points="222.5,-435.5 222.5,-476.5 407.5,-476.5 407.5,-435.5 222.5,-435.5"/>
<text text-anchor="start" x="230.5" y="-464.5" font-family="Helvetica,sans-Serif" font-size="10.00">gameAuthoring.scenes.path</text>
<text text-anchor="start" x="230.5" y="-453.5" font-family="Helvetica,sans-Serif" font-size="10.00">Building.pathComponents.Path.add</text>
<text text-anchor="middle" x="315" y="-442.5" font-family="Helvetica,sans-Serif" font-size="10.00">EndingLocation</text>
</a>
</g>
</g>
<!-- Node1&#45;&gt;Node2 -->
<g id="edge1" class="edge"><title>Node1&#45;&gt;Node2</title>
<path fill="none" stroke="midnightblue" d="M187.583,-424.97C201.819,-428.465 216.43,-432.051 230.433,-435.488"/>
<polygon fill="midnightblue" stroke="midnightblue" points="188.346,-421.554 177.8,-422.569 186.678,-428.352 188.346,-421.554"/>
</g>
<!-- Node3 -->
<g id="node3" class="node"><title>Node3</title>
<g id="a_node3"><a xlink:href="../../d2/d34/classgame_authoring_1_1scenes_1_1path_building_1_1path_components_1_1_path_creation_tests.html#ab4a8cef229bd216128c5de4eb71b83f2" target="_top" xlink:title="gameAuthoring.scenes.path\lBuilding.pathComponents.PathCreation\lTests.AddingStartingLocationWithNearbyEnding\lLocationTest">
<polygon fill="white" stroke="black" points="447,-597 447,-649 689,-649 689,-597 447,-597"/>
<text text-anchor="start" x="455" y="-637" font-family="Helvetica,sans-Serif" font-size="10.00">gameAuthoring.scenes.path</text>
<text text-anchor="start" x="455" y="-626" font-family="Helvetica,sans-Serif" font-size="10.00">Building.pathComponents.PathCreation</text>
<text text-anchor="start" x="455" y="-615" font-family="Helvetica,sans-Serif" font-size="10.00">Tests.AddingStartingLocationWithNearbyEnding</text>
<text text-anchor="middle" x="568" y="-604" font-family="Helvetica,sans-Serif" font-size="10.00">LocationTest</text>
</a>
</g>
</g>
<!-- Node1&#45;&gt;Node3 -->
<g id="edge8" class="edge"><title>Node1&#45;&gt;Node3</title>
<path fill="none" stroke="midnightblue" d="M131.47,-428.35C156.529,-445.454 190.552,-467.698 222,-485 317.135,-537.342 342.29,-548.982 444,-587 453.275,-590.467 463.041,-593.816 472.849,-596.984"/>
<polygon fill="midnightblue" stroke="midnightblue" points="133.223,-425.308 122.999,-422.531 129.26,-431.078 133.223,-425.308"/>
</g>
<!-- Node9 -->
<g id="node9" class="node"><title>Node9</title>
<g id="a_node9"><a xlink:href="../../d2/d34/classgame_authoring_1_1scenes_1_1path_building_1_1path_components_1_1_path_creation_tests.html#a9780eb9efd149303053d680604c6af3b" target="_top" xlink:title="gameAuthoring.scenes.path\lBuilding.pathComponents.PathCreation\lTests.AddingStartingLocationWithNearbyStart\lLocationTest">
<polygon fill="white" stroke="black" points="451,-263 451,-315 685,-315 685,-263 451,-263"/>
<text text-anchor="start" x="459" y="-303" font-family="Helvetica,sans-Serif" font-size="10.00">gameAuthoring.scenes.path</text>
<text text-anchor="start" x="459" y="-292" font-family="Helvetica,sans-Serif" font-size="10.00">Building.pathComponents.PathCreation</text>
<text text-anchor="start" x="459" y="-281" font-family="Helvetica,sans-Serif" font-size="10.00">Tests.AddingStartingLocationWithNearbyStart</text>
<text text-anchor="middle" x="568" y="-270" font-family="Helvetica,sans-Serif" font-size="10.00">LocationTest</text>
</a>
</g>
</g>
<!-- Node1&#45;&gt;Node9 -->
<g id="edge9" class="edge"><title>Node1&#45;&gt;Node9</title>
<path fill="none" stroke="midnightblue" d="M189.718,-379.133C267.391,-360.577 376.917,-334.411 457.964,-315.049"/>
<polygon fill="midnightblue" stroke="midnightblue" points="188.844,-375.743 179.931,-381.471 190.471,-382.552 188.844,-375.743"/>
</g>
<!-- Node10 -->
<g id="node10" class="node"><title>Node10</title>
<g id="a_node10"><a xlink:href="../../d1/d65/classgame_authoring_1_1scenes_1_1path_building_1_1path_components_1_1_path.html#abc0cce4638a30f00c66ee0051e93efa9" target="_top" xlink:title="gameAuthoring.scenes.path\lBuilding.pathComponents.Path.add\lStartingLocation">
<polygon fill="white" stroke="black" points="222.5,-164.5 222.5,-205.5 407.5,-205.5 407.5,-164.5 222.5,-164.5"/>
<text text-anchor="start" x="230.5" y="-193.5" font-family="Helvetica,sans-Serif" font-size="10.00">gameAuthoring.scenes.path</text>
<text text-anchor="start" x="230.5" y="-182.5" font-family="Helvetica,sans-Serif" font-size="10.00">Building.pathComponents.Path.add</text>
<text text-anchor="middle" x="315" y="-171.5" font-family="Helvetica,sans-Serif" font-size="10.00">StartingLocation</text>
</a>
</g>
</g>
<!-- Node1&#45;&gt;Node10 -->
<g id="edge10" class="edge"><title>Node1&#45;&gt;Node10</title>
<path fill="none" stroke="midnightblue" d="M122.441,-373.947C167.253,-329.746 253.268,-244.904 292.969,-205.744"/>
<polygon fill="midnightblue" stroke="midnightblue" points="119.756,-371.679 115.095,-381.193 124.672,-376.663 119.756,-371.679"/>
</g>
<!-- Node2&#45;&gt;Node3 -->
<g id="edge2" class="edge"><title>Node2&#45;&gt;Node3</title>
<path fill="none" stroke="midnightblue" d="M337.235,-485.284C360.309,-515.059 399.838,-560.477 444,-587 450.104,-590.666 456.603,-593.978 463.305,-596.967"/>
<polygon fill="midnightblue" stroke="midnightblue" points="339.737,-482.793 330.894,-476.957 334.168,-487.034 339.737,-482.793"/>
</g>
<!-- Node4 -->
<g id="node4" class="node"><title>Node4</title>
<g id="a_node4"><a xlink:href="../../d7/db2/classgame_authoring_1_1scenes_1_1path_building_1_1building_panes_1_1location_pane_1_1_enemy_ending_locations_pane.html#ae78dd63d1cf867a527aedcd26ed20411" target="_top" xlink:title="gameAuthoring.scenes.path\lBuilding.buildingPanes.location\lPane.EnemyEndingLocationsPane.addNew\lEndingLocation">
<polygon fill="white" stroke="black" points="459,-526 459,-578 677,-578 677,-526 459,-526"/>
<text text-anchor="start" x="467" y="-566" font-family="Helvetica,sans-Serif" font-size="10.00">gameAuthoring.scenes.path</text>
<text text-anchor="start" x="467" y="-555" font-family="Helvetica,sans-Serif" font-size="10.00">Building.buildingPanes.location</text>
<text text-anchor="start" x="467" y="-544" font-family="Helvetica,sans-Serif" font-size="10.00">Pane.EnemyEndingLocationsPane.addNew</text>
<text text-anchor="middle" x="568" y="-533" font-family="Helvetica,sans-Serif" font-size="10.00">EndingLocation</text>
</a>
</g>
</g>
<!-- Node2&#45;&gt;Node4 -->
<g id="edge3" class="edge"><title>Node2&#45;&gt;Node4</title>
<path fill="none" stroke="midnightblue" d="M365.911,-480.976C389.298,-492.167 417.738,-505.053 444,-515 454.01,-518.791 464.59,-522.462 475.175,-525.923"/>
<polygon fill="midnightblue" stroke="midnightblue" points="367.408,-477.813 356.881,-476.62 364.367,-484.118 367.408,-477.813"/>
</g>
<!-- Node6 -->
<g id="node6" class="node"><title>Node6</title>
<g id="a_node6"><a xlink:href="../../d2/d34/classgame_authoring_1_1scenes_1_1path_building_1_1path_components_1_1_path_creation_tests.html#a8932141b60470a4000f603f423bcf6e0" target="_top" xlink:title="gameAuthoring.scenes.path\lBuilding.pathComponents.PathCreation\lTests.ClearEndingLocationsTest">
<polygon fill="white" stroke="black" points="465.5,-465.5 465.5,-506.5 670.5,-506.5 670.5,-465.5 465.5,-465.5"/>
<text text-anchor="start" x="473.5" y="-494.5" font-family="Helvetica,sans-Serif" font-size="10.00">gameAuthoring.scenes.path</text>
<text text-anchor="start" x="473.5" y="-483.5" font-family="Helvetica,sans-Serif" font-size="10.00">Building.pathComponents.PathCreation</text>
<text text-anchor="middle" x="568" y="-472.5" font-family="Helvetica,sans-Serif" font-size="10.00">Tests.ClearEndingLocationsTest</text>
</a>
</g>
</g>
<!-- Node2&#45;&gt;Node6 -->
<g id="edge5" class="edge"><title>Node2&#45;&gt;Node6</title>
<path fill="none" stroke="midnightblue" d="M417.893,-468.178C433.559,-470.051 449.734,-471.984 465.393,-473.856"/>
<polygon fill="midnightblue" stroke="midnightblue" points="418.027,-464.67 407.682,-466.958 417.196,-471.62 418.027,-464.67"/>
</g>
<!-- Node7 -->
<g id="node7" class="node"><title>Node7</title>
<g id="a_node7"><a xlink:href="../../d2/d34/classgame_authoring_1_1scenes_1_1path_building_1_1path_components_1_1_path_creation_tests.html#adbb59fd676db1e150df898e9509dd212" target="_top" xlink:title="gameAuthoring.scenes.path\lBuilding.pathComponents.PathCreation\lTests.ConnectComponentToEndingLocationTest">
<polygon fill="white" stroke="black" points="447.5,-405.5 447.5,-446.5 688.5,-446.5 688.5,-405.5 447.5,-405.5"/>
<text text-anchor="start" x="455.5" y="-434.5" font-family="Helvetica,sans-Serif" font-size="10.00">gameAuthoring.scenes.path</text>
<text text-anchor="start" x="455.5" y="-423.5" font-family="Helvetica,sans-Serif" font-size="10.00">Building.pathComponents.PathCreation</text>
<text text-anchor="middle" x="568" y="-412.5" font-family="Helvetica,sans-Serif" font-size="10.00">Tests.ConnectComponentToEndingLocationTest</text>
</a>
</g>
</g>
<!-- Node2&#45;&gt;Node7 -->
<g id="edge6" class="edge"><title>Node2&#45;&gt;Node7</title>
<path fill="none" stroke="midnightblue" d="M417.739,-443.84C427.469,-442.677 437.396,-441.491 447.275,-440.31"/>
<polygon fill="midnightblue" stroke="midnightblue" points="417.196,-440.38 407.682,-445.042 418.027,-447.33 417.196,-440.38"/>
</g>
<!-- Node8 -->
<g id="node8" class="node"><title>Node8</title>
<g id="a_node8"><a xlink:href="../../d2/d34/classgame_authoring_1_1scenes_1_1path_building_1_1path_components_1_1_path_creation_tests.html#a4a44352c312aae9f64faf3bf43eb0558" target="_top" xlink:title="gameAuthoring.scenes.path\lBuilding.pathComponents.PathCreation\lTests.EndingLocationsMustExistToBeConfigured\lCorrectlyTest">
<polygon fill="white" stroke="black" points="447,-334 447,-386 689,-386 689,-334 447,-334"/>
<text text-anchor="start" x="455" y="-374" font-family="Helvetica,sans-Serif" font-size="10.00">gameAuthoring.scenes.path</text>
<text text-anchor="start" x="455" y="-363" font-family="Helvetica,sans-Serif" font-size="10.00">Building.pathComponents.PathCreation</text>
<text text-anchor="start" x="455" y="-352" font-family="Helvetica,sans-Serif" font-size="10.00">Tests.EndingLocationsMustExistToBeConfigured</text>
<text text-anchor="middle" x="568" y="-341" font-family="Helvetica,sans-Serif" font-size="10.00">CorrectlyTest</text>
</a>
</g>
</g>
<!-- Node2&#45;&gt;Node8 -->
<g id="edge7" class="edge"><title>Node2&#45;&gt;Node8</title>
<path fill="none" stroke="midnightblue" d="M364.759,-430.986C388.33,-419.455 417.249,-406.116 444,-396 453.157,-392.537 462.8,-389.201 472.491,-386.051"/>
<polygon fill="midnightblue" stroke="midnightblue" points="363.091,-427.906 355.673,-435.471 366.189,-434.184 363.091,-427.906"/>
</g>
<!-- Node5 -->
<g id="node5" class="node"><title>Node5</title>
<g id="a_node5"><a xlink:href="../../d7/db2/classgame_authoring_1_1scenes_1_1path_building_1_1building_panes_1_1location_pane_1_1_enemy_ending_locations_pane.html#a0258666bc94d8721be382d35a7f512a9" target="_top" xlink:title="gameAuthoring.scenes.path\lBuilding.buildingPanes.location\lPane.EnemyEndingLocationsPane.EnemyEnding\lLocationsPane">
<polygon fill="white" stroke="black" points="728.5,-526 728.5,-578 973.5,-578 973.5,-526 728.5,-526"/>
<text text-anchor="start" x="736.5" y="-566" font-family="Helvetica,sans-Serif" font-size="10.00">gameAuthoring.scenes.path</text>
<text text-anchor="start" x="736.5" y="-555" font-family="Helvetica,sans-Serif" font-size="10.00">Building.buildingPanes.location</text>
<text text-anchor="start" x="736.5" y="-544" font-family="Helvetica,sans-Serif" font-size="10.00">Pane.EnemyEndingLocationsPane.EnemyEnding</text>
<text text-anchor="middle" x="851" y="-533" font-family="Helvetica,sans-Serif" font-size="10.00">LocationsPane</text>
</a>
</g>
</g>
<!-- Node4&#45;&gt;Node5 -->
<g id="edge4" class="edge"><title>Node4&#45;&gt;Node5</title>
<path fill="none" stroke="midnightblue" d="M687.486,-552C700.967,-552 714.724,-552 728.246,-552"/>
<polygon fill="midnightblue" stroke="midnightblue" points="687.24,-548.5 677.24,-552 687.24,-555.5 687.24,-548.5"/>
</g>
<!-- Node10&#45;&gt;Node9 -->
<g id="edge11" class="edge"><title>Node10&#45;&gt;Node9</title>
<path fill="none" stroke="midnightblue" d="M359.089,-210.725C383.431,-224.528 414.757,-241.098 444,-253 452.656,-256.523 461.782,-259.859 470.991,-262.974"/>
<polygon fill="midnightblue" stroke="midnightblue" points="360.537,-207.521 350.12,-205.585 357.057,-213.594 360.537,-207.521"/>
</g>
<!-- Node11 -->
<g id="node11" class="node"><title>Node11</title>
<g id="a_node11"><a xlink:href="../../d5/d35/classgame_authoring_1_1scenes_1_1path_building_1_1building_panes_1_1location_pane_1_1_enemy_starting_locations_pane.html#a99da2d74595e2ced350eaa6979e94c34" target="_top" xlink:title="gameAuthoring.scenes.path\lBuilding.buildingPanes.location\lPane.EnemyStartingLocationsPane.addNew\lStartingLocation">
<polygon fill="white" stroke="black" points="456,-192 456,-244 680,-244 680,-192 456,-192"/>
<text text-anchor="start" x="464" y="-232" font-family="Helvetica,sans-Serif" font-size="10.00">gameAuthoring.scenes.path</text>
<text text-anchor="start" x="464" y="-221" font-family="Helvetica,sans-Serif" font-size="10.00">Building.buildingPanes.location</text>
<text text-anchor="start" x="464" y="-210" font-family="Helvetica,sans-Serif" font-size="10.00">Pane.EnemyStartingLocationsPane.addNew</text>
<text text-anchor="middle" x="568" y="-199" font-family="Helvetica,sans-Serif" font-size="10.00">StartingLocation</text>
</a>
</g>
</g>
<!-- Node10&#45;&gt;Node11 -->
<g id="edge12" class="edge"><title>Node10&#45;&gt;Node11</title>
<path fill="none" stroke="midnightblue" d="M417.699,-198.371C430.291,-200.026 443.214,-201.725 455.937,-203.398"/>
<polygon fill="midnightblue" stroke="midnightblue" points="418.053,-194.887 407.682,-197.054 417.141,-201.828 418.053,-194.887"/>
</g>
<!-- Node13 -->
<g id="node13" class="node"><title>Node13</title>
<g id="a_node13"><a xlink:href="../../d2/d34/classgame_authoring_1_1scenes_1_1path_building_1_1path_components_1_1_path_creation_tests.html#a1b3e108c133dca1b16387742bcdcb898" target="_top" xlink:title="gameAuthoring.scenes.path\lBuilding.pathComponents.PathCreation\lTests.ClearStartingLocationsTest">
<polygon fill="white" stroke="black" points="465.5,-131.5 465.5,-172.5 670.5,-172.5 670.5,-131.5 465.5,-131.5"/>
<text text-anchor="start" x="473.5" y="-160.5" font-family="Helvetica,sans-Serif" font-size="10.00">gameAuthoring.scenes.path</text>
<text text-anchor="start" x="473.5" y="-149.5" font-family="Helvetica,sans-Serif" font-size="10.00">Building.pathComponents.PathCreation</text>
<text text-anchor="middle" x="568" y="-138.5" font-family="Helvetica,sans-Serif" font-size="10.00">Tests.ClearStartingLocationsTest</text>
</a>
</g>
</g>
<!-- Node10&#45;&gt;Node13 -->
<g id="edge14" class="edge"><title>Node10&#45;&gt;Node13</title>
<path fill="none" stroke="midnightblue" d="M417.893,-171.604C433.559,-169.544 449.734,-167.417 465.393,-165.359"/>
<polygon fill="midnightblue" stroke="midnightblue" points="417.141,-168.172 407.682,-172.946 418.053,-175.113 417.141,-168.172"/>
</g>
<!-- Node14 -->
<g id="node14" class="node"><title>Node14</title>
<g id="a_node14"><a xlink:href="../../d2/d34/classgame_authoring_1_1scenes_1_1path_building_1_1path_components_1_1_path_creation_tests.html#afcc8871849fbf8c9a24a5b382c77a167" target="_top" xlink:title="gameAuthoring.scenes.path\lBuilding.pathComponents.PathCreation\lTests.ConnectComponentToStartingLocationTest">
<polygon fill="white" stroke="black" points="444.5,-71.5 444.5,-112.5 691.5,-112.5 691.5,-71.5 444.5,-71.5"/>
<text text-anchor="start" x="452.5" y="-100.5" font-family="Helvetica,sans-Serif" font-size="10.00">gameAuthoring.scenes.path</text>
<text text-anchor="start" x="452.5" y="-89.5" font-family="Helvetica,sans-Serif" font-size="10.00">Building.pathComponents.PathCreation</text>
<text text-anchor="middle" x="568" y="-78.5" font-family="Helvetica,sans-Serif" font-size="10.00">Tests.ConnectComponentToStartingLocationTest</text>
</a>
</g>
</g>
<!-- Node10&#45;&gt;Node14 -->
<g id="edge15" class="edge"><title>Node10&#45;&gt;Node14</title>
<path fill="none" stroke="midnightblue" d="M361.196,-159.74C385.234,-147.086 415.615,-132.307 444,-122 453.4,-118.587 463.345,-115.439 473.343,-112.57"/>
<polygon fill="midnightblue" stroke="midnightblue" points="359.492,-156.682 352.311,-164.472 362.783,-162.86 359.492,-156.682"/>
</g>
<!-- Node15 -->
<g id="node15" class="node"><title>Node15</title>
<g id="a_node15"><a xlink:href="../../d2/d34/classgame_authoring_1_1scenes_1_1path_building_1_1path_components_1_1_path_creation_tests.html#ab8a4d34a45d95158ced9633f8c06ce10" target="_top" xlink:title="gameAuthoring.scenes.path\lBuilding.pathComponents.PathCreation\lTests.StartingLocationsMustExistToBeConfigured\lCorrectlyTest">
<polygon fill="white" stroke="black" points="444,-0 444,-52 692,-52 692,-0 444,-0"/>
<text text-anchor="start" x="452" y="-40" font-family="Helvetica,sans-Serif" font-size="10.00">gameAuthoring.scenes.path</text>
<text text-anchor="start" x="452" y="-29" font-family="Helvetica,sans-Serif" font-size="10.00">Building.pathComponents.PathCreation</text>
<text text-anchor="start" x="452" y="-18" font-family="Helvetica,sans-Serif" font-size="10.00">Tests.StartingLocationsMustExistToBeConfigured</text>
<text text-anchor="middle" x="568" y="-7" font-family="Helvetica,sans-Serif" font-size="10.00">CorrectlyTest</text>
</a>
</g>
</g>
<!-- Node10&#45;&gt;Node15 -->
<g id="edge16" class="edge"><title>Node10&#45;&gt;Node15</title>
<path fill="none" stroke="midnightblue" d="M338.417,-156.609C361.907,-128.685 401.283,-86.7487 444,-62 450.257,-58.3749 456.908,-55.0901 463.751,-52.1175"/>
<polygon fill="midnightblue" stroke="midnightblue" points="335.617,-154.503 331.937,-164.438 341.009,-158.966 335.617,-154.503"/>
</g>
<!-- Node12 -->
<g id="node12" class="node"><title>Node12</title>
<g id="a_node12"><a xlink:href="../../d5/d35/classgame_authoring_1_1scenes_1_1path_building_1_1building_panes_1_1location_pane_1_1_enemy_starting_locations_pane.html#a10c40052b7617364122bc439c83468cc" target="_top" xlink:title="gameAuthoring.scenes.path\lBuilding.buildingPanes.location\lPane.EnemyStartingLocationsPane.Enemy\lStartingLocationsPane">
<polygon fill="white" stroke="black" points="741.5,-192 741.5,-244 960.5,-244 960.5,-192 741.5,-192"/>
<text text-anchor="start" x="749.5" y="-232" font-family="Helvetica,sans-Serif" font-size="10.00">gameAuthoring.scenes.path</text>
<text text-anchor="start" x="749.5" y="-221" font-family="Helvetica,sans-Serif" font-size="10.00">Building.buildingPanes.location</text>
<text text-anchor="start" x="749.5" y="-210" font-family="Helvetica,sans-Serif" font-size="10.00">Pane.EnemyStartingLocationsPane.Enemy</text>
<text text-anchor="middle" x="851" y="-199" font-family="Helvetica,sans-Serif" font-size="10.00">StartingLocationsPane</text>
</a>
</g>
</g>
<!-- Node11&#45;&gt;Node12 -->
<g id="edge13" class="edge"><title>Node11&#45;&gt;Node12</title>
<path fill="none" stroke="midnightblue" d="M690.486,-218C707.326,-218 724.536,-218 741.126,-218"/>
<polygon fill="midnightblue" stroke="midnightblue" points="690.059,-214.5 680.059,-218 690.059,-221.5 690.059,-214.5"/>
</g>
</g>
</svg>
