<?xml version="1.0" encoding="UTF-8" standalone="no"?>
<!DOCTYPE svg PUBLIC "-//W3C//DTD SVG 1.1//EN"
 "http://www.w3.org/Graphics/SVG/1.1/DTD/svg11.dtd">
<!-- Generated by graphviz version 2.36.0 (20140111.2315)
 -->
<!-- Title: gameAuthoring.scenes.pathBuilding.pathComponents.Path.componentAddedToStartingLocation Pages: 1 -->
<svg width="506pt" height="289pt"
 viewBox="0.00 0.00 506.00 289.00" xmlns="http://www.w3.org/2000/svg" xmlns:xlink="http://www.w3.org/1999/xlink">
<g id="graph0" class="graph" transform="scale(1 1) rotate(0) translate(4 285)">
<title>gameAuthoring.scenes.pathBuilding.pathComponents.Path.componentAddedToStartingLocation</title>
<polygon fill="white" stroke="none" points="-4,4 -4,-285 502,-285 502,4 -4,4"/>
<!-- Node1 -->
<g id="node1" class="node"><title>Node1</title>
<polygon fill="#bfbfbf" stroke="black" points="0,-119.5 0,-160.5 222,-160.5 222,-119.5 0,-119.5"/>
<text text-anchor="start" x="8" y="-148.5" font-family="Helvetica,sans-Serif" font-size="10.00">gameAuthoring.scenes.path</text>
<text text-anchor="start" x="8" y="-137.5" font-family="Helvetica,sans-Serif" font-size="10.00">Building.pathComponents.Path.component</text>
<text text-anchor="middle" x="111" y="-126.5" font-family="Helvetica,sans-Serif" font-size="10.00">AddedToStartingLocation</text>
</g>
<!-- Node2 -->
<g id="node2" class="node"><title>Node2</title>
<g id="a_node2"><a xlink:href="../../d1/d65/classgame_authoring_1_1scenes_1_1path_building_1_1path_components_1_1_path.html#a14ed64a3566a6bbc791a361c8906f448" target="_top" xlink:title="gameAuthoring.scenes.path\lBuilding.pathComponents.Path.added\lComponentIsWithinCircle">
<polygon fill="white" stroke="black" points="279.5,-239.5 279.5,-280.5 476.5,-280.5 476.5,-239.5 279.5,-239.5"/>
<text text-anchor="start" x="287.5" y="-268.5" font-family="Helvetica,sans-Serif" font-size="10.00">gameAuthoring.scenes.path</text>
<text text-anchor="start" x="287.5" y="-257.5" font-family="Helvetica,sans-Serif" font-size="10.00">Building.pathComponents.Path.added</text>
<text text-anchor="middle" x="378" y="-246.5" font-family="Helvetica,sans-Serif" font-size="10.00">ComponentIsWithinCircle</text>
</a>
</g>
</g>
<!-- Node1&#45;&gt;Node2 -->
<g id="edge1" class="edge"><title>Node1&#45;&gt;Node2</title>
<path fill="none" stroke="midnightblue" d="M140.015,-160.524C168.462,-180.513 214.41,-210.512 258,-229 264.14,-231.604 270.555,-234.035 277.084,-236.295"/>
<polygon fill="midnightblue" stroke="midnightblue" points="276.121,-239.663 286.714,-239.485 278.322,-233.018 276.121,-239.663"/>
</g>
<!-- Node3 -->
<g id="node3" class="node"><title>Node3</title>
<g id="a_node3"><a xlink:href="../../d1/d65/classgame_authoring_1_1scenes_1_1path_building_1_1path_components_1_1_path.html#a628d6d2e49adf5a7f774d6fc2c1cefbe" target="_top" xlink:title="gameAuthoring.scenes.path\lBuilding.pathComponents.Path.get\lRouteContaining">
<polygon fill="white" stroke="black" points="286.5,-179.5 286.5,-220.5 469.5,-220.5 469.5,-179.5 286.5,-179.5"/>
<text text-anchor="start" x="294.5" y="-208.5" font-family="Helvetica,sans-Serif" font-size="10.00">gameAuthoring.scenes.path</text>
<text text-anchor="start" x="294.5" y="-197.5" font-family="Helvetica,sans-Serif" font-size="10.00">Building.pathComponents.Path.get</text>
<text text-anchor="middle" x="378" y="-186.5" font-family="Helvetica,sans-Serif" font-size="10.00">RouteContaining</text>
</a>
</g>
</g>
<!-- Node1&#45;&gt;Node3 -->
<g id="edge2" class="edge"><title>Node1&#45;&gt;Node3</title>
<path fill="none" stroke="midnightblue" d="M202.827,-160.565C226.531,-165.931 252.215,-171.747 276.393,-177.221"/>
<polygon fill="midnightblue" stroke="midnightblue" points="275.765,-180.667 286.291,-179.462 277.311,-173.84 275.765,-180.667"/>
</g>
<!-- Node4 -->
<g id="node4" class="node"><title>Node4</title>
<g id="a_node4"><a xlink:href="../../df/dea/interfacegame_authoring_1_1scenes_1_1path_building_1_1path_components_1_1_path_component.html#afce688f365df0f66dad76d541e0c2b24" target="_top" xlink:title="gameAuthoring.scenes.path\lBuilding.pathComponents.PathComponent.get\lStartingPoint">
<polygon fill="white" stroke="black" points="258.5,-119.5 258.5,-160.5 497.5,-160.5 497.5,-119.5 258.5,-119.5"/>
<text text-anchor="start" x="266.5" y="-148.5" font-family="Helvetica,sans-Serif" font-size="10.00">gameAuthoring.scenes.path</text>
<text text-anchor="start" x="266.5" y="-137.5" font-family="Helvetica,sans-Serif" font-size="10.00">Building.pathComponents.PathComponent.get</text>
<text text-anchor="middle" x="378" y="-126.5" font-family="Helvetica,sans-Serif" font-size="10.00">StartingPoint</text>
</a>
</g>
</g>
<!-- Node1&#45;&gt;Node4 -->
<g id="edge3" class="edge"><title>Node1&#45;&gt;Node4</title>
<path fill="none" stroke="midnightblue" d="M222.082,-140C230.667,-140 239.382,-140 248.076,-140"/>
<polygon fill="midnightblue" stroke="midnightblue" points="248.265,-143.5 258.264,-140 248.264,-136.5 248.265,-143.5"/>
</g>
<!-- Node5 -->
<g id="node5" class="node"><title>Node5</title>
<g id="a_node5"><a xlink:href="../../d7/d4d/classgame_authoring_1_1scenes_1_1path_building_1_1path_components_1_1_path_route.html#a9096e6b2d30f29e4fb791a73297079ac" target="_top" xlink:title="gameAuthoring.scenes.path\lBuilding.pathComponents.PathRoute.set\lStartingLocation">
<polygon fill="white" stroke="black" points="273.5,-59.5 273.5,-100.5 482.5,-100.5 482.5,-59.5 273.5,-59.5"/>
<text text-anchor="start" x="281.5" y="-88.5" font-family="Helvetica,sans-Serif" font-size="10.00">gameAuthoring.scenes.path</text>
<text text-anchor="start" x="281.5" y="-77.5" font-family="Helvetica,sans-Serif" font-size="10.00">Building.pathComponents.PathRoute.set</text>
<text text-anchor="middle" x="378" y="-66.5" font-family="Helvetica,sans-Serif" font-size="10.00">StartingLocation</text>
</a>
</g>
</g>
<!-- Node1&#45;&gt;Node5 -->
<g id="edge4" class="edge"><title>Node1&#45;&gt;Node5</title>
<path fill="none" stroke="midnightblue" d="M202.827,-119.435C226.531,-114.069 252.215,-108.253 276.393,-102.779"/>
<polygon fill="midnightblue" stroke="midnightblue" points="277.311,-106.16 286.291,-100.538 275.765,-99.3325 277.311,-106.16"/>
</g>
<!-- Node6 -->
<g id="node6" class="node"><title>Node6</title>
<g id="a_node6"><a xlink:href="../../df/dea/interfacegame_authoring_1_1scenes_1_1path_building_1_1path_components_1_1_path_component.html#aab453652f9fce168759c573fb46d08f2" target="_top" xlink:title="gameAuthoring.scenes.path\lBuilding.pathComponents.PathComponent.set\lStartingPoint">
<polygon fill="white" stroke="black" points="258.5,0.5 258.5,-40.5 497.5,-40.5 497.5,0.5 258.5,0.5"/>
<text text-anchor="start" x="266.5" y="-28.5" font-family="Helvetica,sans-Serif" font-size="10.00">gameAuthoring.scenes.path</text>
<text text-anchor="start" x="266.5" y="-17.5" font-family="Helvetica,sans-Serif" font-size="10.00">Building.pathComponents.PathComponent.set</text>
<text text-anchor="middle" x="378" y="-6.5" font-family="Helvetica,sans-Serif" font-size="10.00">StartingPoint</text>
</a>
</g>
</g>
<!-- Node1&#45;&gt;Node6 -->
<g id="edge5" class="edge"><title>Node1&#45;&gt;Node6</title>
<path fill="none" stroke="midnightblue" d="M139.681,-119.345C168.054,-99.0604 214.113,-68.5389 258,-50 263.281,-47.7692 268.766,-45.676 274.355,-43.716"/>
<polygon fill="midnightblue" stroke="midnightblue" points="275.467,-47.0348 283.839,-40.5426 273.245,-40.3965 275.467,-47.0348"/>
</g>
</g>
</svg>
