<?xml version="1.0" encoding="UTF-8" standalone="no"?>
<!DOCTYPE svg PUBLIC "-//W3C//DTD SVG 1.1//EN"
 "http://www.w3.org/Graphics/SVG/1.1/DTD/svg11.dtd">
<!-- Generated by graphviz version 2.36.0 (20140111.2315)
 -->
<!-- Title: gameAuthoring.scenes.pathBuilding.buildingPanes.ComponentVisibilityPane.addListeners Pages: 1 -->
<svg width="410pt" height="48pt"
 viewBox="0.00 0.00 410.00 48.00" xmlns="http://www.w3.org/2000/svg" xmlns:xlink="http://www.w3.org/1999/xlink">
<g id="graph0" class="graph" transform="scale(1 1) rotate(0) translate(4 44)">
<title>gameAuthoring.scenes.pathBuilding.buildingPanes.ComponentVisibilityPane.addListeners</title>
<polygon fill="white" stroke="none" points="-4,4 -4,-44 406,-44 406,4 -4,4"/>
<!-- Node1 -->
<g id="node1" class="node"><title>Node1</title>
<polygon fill="#bfbfbf" stroke="black" points="0,0.5 0,-40.5 182,-40.5 182,0.5 0,0.5"/>
<text text-anchor="start" x="8" y="-28.5" font-family="Helvetica,sans-Serif" font-size="10.00">gameAuthoring.scenes.path</text>
<text text-anchor="start" x="8" y="-17.5" font-family="Helvetica,sans-Serif" font-size="10.00">Building.buildingPanes.Component</text>
<text text-anchor="middle" x="91" y="-6.5" font-family="Helvetica,sans-Serif" font-size="10.00">VisibilityPane.addListeners</text>
</g>
<!-- Node2 -->
<g id="node2" class="node"><title>Node2</title>
<g id="a_node2"><a xlink:href="../../d1/d65/classgame_authoring_1_1scenes_1_1path_building_1_1path_components_1_1_path.html#abc157365887356e62820ada65bf18002" target="_top" xlink:title="gameAuthoring.scenes.path\lBuilding.pathComponents.Path.get\lAllPathComponents">
<polygon fill="white" stroke="black" points="218.5,0.5 218.5,-40.5 401.5,-40.5 401.5,0.5 218.5,0.5"/>
<text text-anchor="start" x="226.5" y="-28.5" font-family="Helvetica,sans-Serif" font-size="10.00">gameAuthoring.scenes.path</text>
<text text-anchor="start" x="226.5" y="-17.5" font-family="Helvetica,sans-Serif" font-size="10.00">Building.pathComponents.Path.get</text>
<text text-anchor="middle" x="310" y="-6.5" font-family="Helvetica,sans-Serif" font-size="10.00">AllPathComponents</text>
</a>
</g>
</g>
<!-- Node1&#45;&gt;Node2 -->
<g id="edge1" class="edge"><title>Node1&#45;&gt;Node2</title>
<path fill="none" stroke="midnightblue" d="M182.142,-20C190.763,-20 199.543,-20 208.256,-20"/>
<polygon fill="midnightblue" stroke="midnightblue" points="208.44,-23.5001 218.44,-20 208.44,-16.5001 208.44,-23.5001"/>
</g>
</g>
</svg>
