<?xml version="1.0" encoding="UTF-8" standalone="no"?>
<!DOCTYPE svg PUBLIC "-//W3C//DTD SVG 1.1//EN"
 "http://www.w3.org/Graphics/SVG/1.1/DTD/svg11.dtd">
<!-- Generated by graphviz version 2.36.0 (20140111.2315)
 -->
<!-- Title: gameAuthoring.scenes.pathBuilding.buildingPanes.ComponentVisibilityPane.executeEnterFunction Pages: 1 -->
<svg width="632pt" height="75pt"
 viewBox="0.00 0.00 632.00 75.00" xmlns="http://www.w3.org/2000/svg" xmlns:xlink="http://www.w3.org/1999/xlink">
<g id="graph0" class="graph" transform="scale(1 1) rotate(0) translate(4 71)">
<title>gameAuthoring.scenes.pathBuilding.buildingPanes.ComponentVisibilityPane.executeEnterFunction</title>
<polygon fill="white" stroke="none" points="-4,4 -4,-71 628,-71 628,4 -4,4"/>
<!-- Node1 -->
<g id="node1" class="node"><title>Node1</title>
<polygon fill="#bfbfbf" stroke="black" points="0.5,-0.5 0.5,-41.5 185.5,-41.5 185.5,-0.5 0.5,-0.5"/>
<text text-anchor="start" x="8.5" y="-29.5" font-family="Helvetica,sans-Serif" font-size="10.00">gameAuthoring.scenes.path</text>
<text text-anchor="start" x="8.5" y="-18.5" font-family="Helvetica,sans-Serif" font-size="10.00">Building.buildingPanes.Component</text>
<text text-anchor="middle" x="93" y="-7.5" font-family="Helvetica,sans-Serif" font-size="10.00">VisibilityPane.executeEnterFunction</text>
</g>
<!-- Node2 -->
<g id="node2" class="node"><title>Node2</title>
<g id="a_node2"><a xlink:href="../../d6/d64/classgame_authoring_1_1scenes_1_1path_building_1_1building_panes_1_1_component_visibility_pane.html#a7ab5463d4f16b372a195d45aafee87b9" target="_top" xlink:title="gameAuthoring.scenes.path\lBuilding.buildingPanes.Component\lVisibilityPane.addListeners">
<polygon fill="white" stroke="black" points="222,-25.5 222,-66.5 404,-66.5 404,-25.5 222,-25.5"/>
<text text-anchor="start" x="230" y="-54.5" font-family="Helvetica,sans-Serif" font-size="10.00">gameAuthoring.scenes.path</text>
<text text-anchor="start" x="230" y="-43.5" font-family="Helvetica,sans-Serif" font-size="10.00">Building.buildingPanes.Component</text>
<text text-anchor="middle" x="313" y="-32.5" font-family="Helvetica,sans-Serif" font-size="10.00">VisibilityPane.addListeners</text>
</a>
</g>
</g>
<!-- Node1&#45;&gt;Node2 -->
<g id="edge1" class="edge"><title>Node1&#45;&gt;Node2</title>
<path fill="none" stroke="midnightblue" d="M185.504,-31.4936C194.13,-32.4828 202.906,-33.4893 211.609,-34.4873"/>
<polygon fill="midnightblue" stroke="midnightblue" points="211.444,-37.9912 221.778,-35.6534 212.242,-31.0368 211.444,-37.9912"/>
</g>
<!-- Node3 -->
<g id="node3" class="node"><title>Node3</title>
<g id="a_node3"><a xlink:href="../../d1/d65/classgame_authoring_1_1scenes_1_1path_building_1_1path_components_1_1_path.html#abc157365887356e62820ada65bf18002" target="_top" xlink:title="gameAuthoring.scenes.path\lBuilding.pathComponents.Path.get\lAllPathComponents">
<polygon fill="white" stroke="black" points="440.5,-0.5 440.5,-41.5 623.5,-41.5 623.5,-0.5 440.5,-0.5"/>
<text text-anchor="start" x="448.5" y="-29.5" font-family="Helvetica,sans-Serif" font-size="10.00">gameAuthoring.scenes.path</text>
<text text-anchor="start" x="448.5" y="-18.5" font-family="Helvetica,sans-Serif" font-size="10.00">Building.pathComponents.Path.get</text>
<text text-anchor="middle" x="532" y="-7.5" font-family="Helvetica,sans-Serif" font-size="10.00">AllPathComponents</text>
</a>
</g>
</g>
<!-- Node1&#45;&gt;Node3 -->
<g id="edge3" class="edge"><title>Node1&#45;&gt;Node3</title>
<path fill="none" stroke="midnightblue" d="M185.582,-16.9882C197.824,-16.5792 210.215,-16.2301 222,-16 302.873,-14.421 323.127,-14.4086 404,-16 412.576,-16.1687 421.475,-16.4015 430.402,-16.675"/>
<polygon fill="midnightblue" stroke="midnightblue" points="430.369,-20.1757 440.477,-16.9998 430.595,-13.1793 430.369,-20.1757"/>
</g>
<!-- Node2&#45;&gt;Node3 -->
<g id="edge2" class="edge"><title>Node2&#45;&gt;Node3</title>
<path fill="none" stroke="midnightblue" d="M404.142,-35.6149C412.763,-34.6218 421.543,-33.6103 430.256,-32.6065"/>
<polygon fill="midnightblue" stroke="midnightblue" points="430.906,-36.0548 440.44,-31.4332 430.105,-29.1008 430.906,-36.0548"/>
</g>
</g>
</svg>
