<?xml version="1.0" encoding="UTF-8" standalone="no"?>
<!DOCTYPE svg PUBLIC "-//W3C//DTD SVG 1.1//EN"
 "http://www.w3.org/Graphics/SVG/1.1/DTD/svg11.dtd">
<!-- Generated by graphviz version 2.36.0 (20140111.2315)
 -->
<!-- Title: gameAuthoring.scenes.pathBuilding.buildingPanes.ComponentVisibilityPane.removeListeners Pages: 1 -->
<svg width="408pt" height="48pt"
 viewBox="0.00 0.00 408.00 48.00" xmlns="http://www.w3.org/2000/svg" xmlns:xlink="http://www.w3.org/1999/xlink">
<g id="graph0" class="graph" transform="scale(1 1) rotate(0) translate(4 44)">
<title>gameAuthoring.scenes.pathBuilding.buildingPanes.ComponentVisibilityPane.removeListeners</title>
<polygon fill="white" stroke="none" points="-4,4 -4,-44 404,-44 404,4 -4,4"/>
<!-- Node1 -->
<g id="node1" class="node"><title>Node1</title>
<polygon fill="#bfbfbf" stroke="black" points="0,0.5 0,-40.5 182,-40.5 182,0.5 0,0.5"/>
<text text-anchor="start" x="8" y="-28.5" font-family="Helvetica,sans-Serif" font-size="10.00">gameAuthoring.scenes.path</text>
<text text-anchor="start" x="8" y="-17.5" font-family="Helvetica,sans-Serif" font-size="10.00">Building.buildingPanes.Component</text>
<text text-anchor="middle" x="91" y="-6.5" font-family="Helvetica,sans-Serif" font-size="10.00">VisibilityPane.removeListeners</text>
</g>
<!-- Node2 -->
<g id="node2" class="node"><title>Node2</title>
<g id="a_node2"><a xlink:href="../../d6/d64/classgame_authoring_1_1scenes_1_1path_building_1_1building_panes_1_1_component_visibility_pane.html#aef089ef7c369e80f0911850f209a3449" target="_top" xlink:title="gameAuthoring.scenes.path\lBuilding.buildingPanes.Component\lVisibilityPane.executeExitFunction">
<polygon fill="white" stroke="black" points="218,0.5 218,-40.5 400,-40.5 400,0.5 218,0.5"/>
<text text-anchor="start" x="226" y="-28.5" font-family="Helvetica,sans-Serif" font-size="10.00">gameAuthoring.scenes.path</text>
<text text-anchor="start" x="226" y="-17.5" font-family="Helvetica,sans-Serif" font-size="10.00">Building.buildingPanes.Component</text>
<text text-anchor="middle" x="309" y="-6.5" font-family="Helvetica,sans-Serif" font-size="10.00">VisibilityPane.executeExitFunction</text>
</a>
</g>
</g>
<!-- Node1&#45;&gt;Node2 -->
<g id="edge1" class="edge"><title>Node1&#45;&gt;Node2</title>
<path fill="none" stroke="midnightblue" d="M192.059,-20C200.631,-20 209.27,-20 217.759,-20"/>
<polygon fill="midnightblue" stroke="midnightblue" points="192.039,-16.5001 182.039,-20 192.039,-23.5001 192.039,-16.5001"/>
</g>
</g>
</svg>
