<?xml version="1.0" encoding="UTF-8" standalone="no"?>
<!DOCTYPE svg PUBLIC "-//W3C//DTD SVG 1.1//EN"
 "http://www.w3.org/Graphics/SVG/1.1/DTD/svg11.dtd">
<!-- Generated by graphviz version 2.36.0 (20140111.2315)
 -->
<!-- Title: gameAuthoring.scenes.actorBuildingScenes.BuildingSceneMenu.BuildingSceneMenu Pages: 1 -->
<svg width="628pt" height="103pt"
 viewBox="0.00 0.00 628.00 103.00" xmlns="http://www.w3.org/2000/svg" xmlns:xlink="http://www.w3.org/1999/xlink">
<g id="graph0" class="graph" transform="scale(1 1) rotate(0) translate(4 99)">
<title>gameAuthoring.scenes.actorBuildingScenes.BuildingSceneMenu.BuildingSceneMenu</title>
<polygon fill="white" stroke="none" points="-4,4 -4,-99 624,-99 624,4 -4,4"/>
<!-- Node1 -->
<g id="node1" class="node"><title>Node1</title>
<polygon fill="#bfbfbf" stroke="black" points="0.5,-26.5 0.5,-67.5 189.5,-67.5 189.5,-26.5 0.5,-26.5"/>
<text text-anchor="start" x="8.5" y="-55.5" font-family="Helvetica,sans-Serif" font-size="10.00">gameAuthoring.scenes.actor</text>
<text text-anchor="start" x="8.5" y="-44.5" font-family="Helvetica,sans-Serif" font-size="10.00">BuildingScenes.BuildingSceneMenu.</text>
<text text-anchor="middle" x="95" y="-33.5" font-family="Helvetica,sans-Serif" font-size="10.00">BuildingSceneMenu</text>
</g>
<!-- Node2 -->
<g id="node2" class="node"><title>Node2</title>
<g id="a_node2"><a xlink:href="../../dc/d2e/classutilities_1_1multilanguage_1_1_multi_language_utility.html#aaa34262e5a69e5d96d435c4f9872e544" target="_top" xlink:title="utilities.multilanguage.\lMultiLanguageUtility.getInstance">
<polygon fill="white" stroke="black" points="226.5,-59 226.5,-89 397.5,-89 397.5,-59 226.5,-59"/>
<text text-anchor="start" x="234.5" y="-77" font-family="Helvetica,sans-Serif" font-size="10.00">utilities.multilanguage.</text>
<text text-anchor="middle" x="312" y="-66" font-family="Helvetica,sans-Serif" font-size="10.00">MultiLanguageUtility.getInstance</text>
</a>
</g>
</g>
<!-- Node1&#45;&gt;Node2 -->
<g id="edge1" class="edge"><title>Node1&#45;&gt;Node2</title>
<path fill="none" stroke="midnightblue" d="M189.677,-58.764C198.556,-59.8792 207.564,-61.0103 216.451,-62.1265"/>
<polygon fill="midnightblue" stroke="midnightblue" points="216.063,-65.6051 226.422,-63.3785 216.936,-58.6597 216.063,-65.6051"/>
</g>
<!-- Node4 -->
<g id="node4" class="node"><title>Node4</title>
<g id="a_node4"><a xlink:href="../../dc/d2e/classutilities_1_1multilanguage_1_1_multi_language_utility.html#a6bc704aa624d0bc11d5f18717ef5842a" target="_top" xlink:title="utilities.multilanguage.\lMultiLanguageUtility.getString\lProperty">
<polygon fill="white" stroke="black" points="232.5,0.5 232.5,-40.5 391.5,-40.5 391.5,0.5 232.5,0.5"/>
<text text-anchor="start" x="240.5" y="-28.5" font-family="Helvetica,sans-Serif" font-size="10.00">utilities.multilanguage.</text>
<text text-anchor="start" x="240.5" y="-17.5" font-family="Helvetica,sans-Serif" font-size="10.00">MultiLanguageUtility.getString</text>
<text text-anchor="middle" x="312" y="-6.5" font-family="Helvetica,sans-Serif" font-size="10.00">Property</text>
</a>
</g>
</g>
<!-- Node1&#45;&gt;Node4 -->
<g id="edge3" class="edge"><title>Node1&#45;&gt;Node4</title>
<path fill="none" stroke="midnightblue" d="M189.677,-35.236C200.482,-33.879 211.476,-32.4983 222.214,-31.1499"/>
<polygon fill="midnightblue" stroke="midnightblue" points="222.929,-34.5876 232.415,-29.8688 222.057,-27.6422 222.929,-34.5876"/>
</g>
<!-- Node3 -->
<g id="node3" class="node"><title>Node3</title>
<g id="a_node3"><a xlink:href="../../dc/d2e/classutilities_1_1multilanguage_1_1_multi_language_utility.html#a18c8cee78f923458998009428cd84970" target="_top" xlink:title="utilities.multilanguage.\lMultiLanguageUtility.MultiLanguage\lUtility">
<polygon fill="white" stroke="black" points="434.5,-53.5 434.5,-94.5 619.5,-94.5 619.5,-53.5 434.5,-53.5"/>
<text text-anchor="start" x="442.5" y="-82.5" font-family="Helvetica,sans-Serif" font-size="10.00">utilities.multilanguage.</text>
<text text-anchor="start" x="442.5" y="-71.5" font-family="Helvetica,sans-Serif" font-size="10.00">MultiLanguageUtility.MultiLanguage</text>
<text text-anchor="middle" x="527" y="-60.5" font-family="Helvetica,sans-Serif" font-size="10.00">Utility</text>
</a>
</g>
</g>
<!-- Node2&#45;&gt;Node3 -->
<g id="edge2" class="edge"><title>Node2&#45;&gt;Node3</title>
<path fill="none" stroke="midnightblue" d="M397.795,-74C406.384,-74 415.169,-74 423.915,-74"/>
<polygon fill="midnightblue" stroke="midnightblue" points="424.149,-77.5001 434.149,-74 424.149,-70.5001 424.149,-77.5001"/>
</g>
<!-- Node5 -->
<g id="node5" class="node"><title>Node5</title>
<g id="a_node5"><a xlink:href="../../dc/d2e/classutilities_1_1multilanguage_1_1_multi_language_utility.html#a124b4a760f410841ecc50dd4b16e40bb" target="_top" xlink:title="utilities.multilanguage.\lMultiLanguageUtility.getProperty">
<polygon fill="white" stroke="black" points="441.5,-5 441.5,-35 612.5,-35 612.5,-5 441.5,-5"/>
<text text-anchor="start" x="449.5" y="-23" font-family="Helvetica,sans-Serif" font-size="10.00">utilities.multilanguage.</text>
<text text-anchor="middle" x="527" y="-12" font-family="Helvetica,sans-Serif" font-size="10.00">MultiLanguageUtility.getProperty</text>
</a>
</g>
</g>
<!-- Node4&#45;&gt;Node5 -->
<g id="edge4" class="edge"><title>Node4&#45;&gt;Node5</title>
<path fill="none" stroke="midnightblue" d="M391.708,-20C404.551,-20 417.974,-20 431.156,-20"/>
<polygon fill="midnightblue" stroke="midnightblue" points="431.176,-23.5001 441.176,-20 431.176,-16.5001 431.176,-23.5001"/>
</g>
</g>
</svg>
