<?xml version="1.0" encoding="UTF-8" standalone="no"?>
<!DOCTYPE svg PUBLIC "-//W3C//DTD SVG 1.1//EN"
 "http://www.w3.org/Graphics/SVG/1.1/DTD/svg11.dtd">
<!-- Generated by graphviz version 2.36.0 (20140111.2315)
 -->
<!-- Title: gameAuthoring.scenes.actorBuildingScenes.BuildingSceneMenu.addMenuItemToFileMenu Pages: 1 -->
<svg width="692pt" height="109pt"
 viewBox="0.00 0.00 692.00 109.00" xmlns="http://www.w3.org/2000/svg" xmlns:xlink="http://www.w3.org/1999/xlink">
<g id="graph0" class="graph" transform="scale(1 1) rotate(0) translate(4 105)">
<title>gameAuthoring.scenes.actorBuildingScenes.BuildingSceneMenu.addMenuItemToFileMenu</title>
<polygon fill="white" stroke="none" points="-4,4 -4,-105 688,-105 688,4 -4,4"/>
<!-- Node1 -->
<g id="node1" class="node"><title>Node1</title>
<polygon fill="#bfbfbf" stroke="black" points="0.5,-30.5 0.5,-71.5 207.5,-71.5 207.5,-30.5 0.5,-30.5"/>
<text text-anchor="start" x="8.5" y="-59.5" font-family="Helvetica,sans-Serif" font-size="10.00">gameAuthoring.scenes.actor</text>
<text text-anchor="start" x="8.5" y="-48.5" font-family="Helvetica,sans-Serif" font-size="10.00">BuildingScenes.BuildingSceneMenu.add</text>
<text text-anchor="middle" x="104" y="-37.5" font-family="Helvetica,sans-Serif" font-size="10.00">MenuItemToFileMenu</text>
</g>
<!-- Node2 -->
<g id="node2" class="node"><title>Node2</title>
<g id="a_node2"><a xlink:href="../../d4/d5e/classgame_authoring_1_1scenes_1_1level_building_1_1_level_building_scene.html#a1378893d8197db294380765fbf2d72db" target="_top" xlink:title="gameAuthoring.scenes.level\lBuilding.LevelBuildingScene.create\lMenuAndAddNewLevelOption">
<polygon fill="white" stroke="black" points="260.5,-60.5 260.5,-101.5 443.5,-101.5 443.5,-60.5 260.5,-60.5"/>
<text text-anchor="start" x="268.5" y="-89.5" font-family="Helvetica,sans-Serif" font-size="10.00">gameAuthoring.scenes.level</text>
<text text-anchor="start" x="268.5" y="-78.5" font-family="Helvetica,sans-Serif" font-size="10.00">Building.LevelBuildingScene.create</text>
<text text-anchor="middle" x="352" y="-67.5" font-family="Helvetica,sans-Serif" font-size="10.00">MenuAndAddNewLevelOption</text>
</a>
</g>
</g>
<!-- Node1&#45;&gt;Node2 -->
<g id="edge1" class="edge"><title>Node1&#45;&gt;Node2</title>
<path fill="none" stroke="midnightblue" d="M217.873,-64.765C232.116,-66.502 246.542,-68.2612 260.379,-69.9487"/>
<polygon fill="midnightblue" stroke="midnightblue" points="217.895,-61.2418 207.545,-63.5055 217.048,-68.1904 217.895,-61.2418"/>
</g>
<!-- Node4 -->
<g id="node4" class="node"><title>Node4</title>
<g id="a_node4"><a xlink:href="../../d5/de6/classgame_authoring_1_1scenes_1_1actor_building_scenes_1_1_actor_building_scene.html#a4b14803e395701d52cf61ed9a1ef0229" target="_top" xlink:title="gameAuthoring.scenes.actor\lBuildingScenes.ActorBuildingScene.setup\lFileMenu">
<polygon fill="white" stroke="black" points="244.5,-0.5 244.5,-41.5 459.5,-41.5 459.5,-0.5 244.5,-0.5"/>
<text text-anchor="start" x="252.5" y="-29.5" font-family="Helvetica,sans-Serif" font-size="10.00">gameAuthoring.scenes.actor</text>
<text text-anchor="start" x="252.5" y="-18.5" font-family="Helvetica,sans-Serif" font-size="10.00">BuildingScenes.ActorBuildingScene.setup</text>
<text text-anchor="middle" x="352" y="-7.5" font-family="Helvetica,sans-Serif" font-size="10.00">FileMenu</text>
</a>
</g>
</g>
<!-- Node1&#45;&gt;Node4 -->
<g id="edge3" class="edge"><title>Node1&#45;&gt;Node4</title>
<path fill="none" stroke="midnightblue" d="M217.545,-37.2749C226.44,-36.1903 235.407,-35.0967 244.261,-34.017"/>
<polygon fill="midnightblue" stroke="midnightblue" points="217.048,-33.8096 207.545,-38.4945 217.895,-40.7582 217.048,-33.8096"/>
</g>
<!-- Node3 -->
<g id="node3" class="node"><title>Node3</title>
<g id="a_node3"><a xlink:href="../../d4/d5e/classgame_authoring_1_1scenes_1_1level_building_1_1_level_building_scene.html#a8b556e86b4aef6b87a1be44f901cec69" target="_top" xlink:title="gameAuthoring.scenes.level\lBuilding.LevelBuildingScene.Level\lBuildingScene">
<polygon fill="white" stroke="black" points="501.5,-60.5 501.5,-101.5 678.5,-101.5 678.5,-60.5 501.5,-60.5"/>
<text text-anchor="start" x="509.5" y="-89.5" font-family="Helvetica,sans-Serif" font-size="10.00">gameAuthoring.scenes.level</text>
<text text-anchor="start" x="509.5" y="-78.5" font-family="Helvetica,sans-Serif" font-size="10.00">Building.LevelBuildingScene.Level</text>
<text text-anchor="middle" x="590" y="-67.5" font-family="Helvetica,sans-Serif" font-size="10.00">BuildingScene</text>
</a>
</g>
</g>
<!-- Node2&#45;&gt;Node3 -->
<g id="edge2" class="edge"><title>Node2&#45;&gt;Node3</title>
<path fill="none" stroke="midnightblue" d="M453.884,-81C469.691,-81 485.917,-81 501.395,-81"/>
<polygon fill="midnightblue" stroke="midnightblue" points="453.569,-77.5001 443.569,-81 453.569,-84.5001 453.569,-77.5001"/>
</g>
<!-- Node5 -->
<g id="node5" class="node"><title>Node5</title>
<g id="a_node5"><a xlink:href="../../d5/de6/classgame_authoring_1_1scenes_1_1actor_building_scenes_1_1_actor_building_scene.html#af797c48013cb5e0b128c5e184056a90d" target="_top" xlink:title="gameAuthoring.scenes.actor\lBuildingScenes.ActorBuildingScene.\lActorBuildingScene">
<polygon fill="white" stroke="black" points="496,-0.5 496,-41.5 684,-41.5 684,-0.5 496,-0.5"/>
<text text-anchor="start" x="504" y="-29.5" font-family="Helvetica,sans-Serif" font-size="10.00">gameAuthoring.scenes.actor</text>
<text text-anchor="start" x="504" y="-18.5" font-family="Helvetica,sans-Serif" font-size="10.00">BuildingScenes.ActorBuildingScene.</text>
<text text-anchor="middle" x="590" y="-7.5" font-family="Helvetica,sans-Serif" font-size="10.00">ActorBuildingScene</text>
</a>
</g>
</g>
<!-- Node4&#45;&gt;Node5 -->
<g id="edge4" class="edge"><title>Node4&#45;&gt;Node5</title>
<path fill="none" stroke="midnightblue" d="M469.838,-21C478.566,-21 487.302,-21 495.856,-21"/>
<polygon fill="midnightblue" stroke="midnightblue" points="469.608,-17.5001 459.608,-21 469.608,-24.5001 469.608,-17.5001"/>
</g>
</g>
</svg>
