<?xml version="1.0" encoding="UTF-8" standalone="no"?>
<!DOCTYPE svg PUBLIC "-//W3C//DTD SVG 1.1//EN"
 "http://www.w3.org/Graphics/SVG/1.1/DTD/svg11.dtd">
<!-- Generated by graphviz version 2.36.0 (20140111.2315)
 -->
<!-- Title: gamePlayer.mainClasses.managers.WelcomeManager Pages: 1 -->
<!--zoomable 223 -->
<svg id="main" version="1.1" xmlns="http://www.w3.org/2000/svg" xmlns:xlink="http://www.w3.org/1999/xlink" xml:space="preserve" onload="init(evt)">
<style type="text/css"><![CDATA[
.edge:hover path { stroke: red; }
.edge:hover polygon { stroke: red; fill: red; }
]]></style>
<script type="text/javascript"><![CDATA[
var edges = document.getElementsByTagName('g');
if (edges && edges.length) {
  for (var i=0;i<edges.length;i++) {
    if (edges[i].id.substr(0,4)=='edge') {
      edges[i].setAttribute('class','edge');
    }
  }
}
]]></script>
        <defs>
                <circle id="rim" cx="0" cy="0" r="7"/>
                <circle id="rim2" cx="0" cy="0" r="3.5"/>
                <g id="zoomPlus">
                        <use xlink:href="#rim" fill="#404040">
                                <set attributeName="fill" to="#808080" begin="zoomplus.mouseover" end="zoomplus.mouseout"/>
                        </use>
                        <path d="M-4,0h8M0,-4v8" fill="none" stroke="white" stroke-width="1.5" pointer-events="none"/>
                </g>
                <g id="zoomMin">
                        <use xlink:href="#rim" fill="#404040">
                                <set attributeName="fill" to="#808080" begin="zoomminus.mouseover" end="zoomminus.mouseout"/>
                        </use>
                        <path d="M-4,0h8" fill="none" stroke="white" stroke-width="1.5" pointer-events="none"/>
                </g>
                <g id="dirArrow">
                        <path fill="none" stroke="white" stroke-width="1.5" d="M0,-3.0v7 M-2.5,-0.5L0,-3.0L2.5,-0.5"/>
                </g>
               <g id="resetDef">
                       <use xlink:href="#rim2" fill="#404040">
                               <set attributeName="fill" to="#808080" begin="reset.mouseover" end="reset.mouseout"/>
                       </use>
               </g>
        </defs>

<script type="text/javascript">
var viewWidth = 958;
var viewHeight = 223;
var sectionId = 'dynsection-1';
</script>
<script xlink:href="../../svgpan.js"/>
<svg id="graph" class="graph">
<g id="viewport">
<title>gamePlayer.mainClasses.managers.WelcomeManager</title>
<polygon fill="white" stroke="none" points="-4,4 -4,-219 954,-219 954,4 -4,4"/>
<!-- Node1 -->
<g id="node1" class="node"><title>Node1</title>
<polygon fill="#bfbfbf" stroke="black" points="758.5,-97 758.5,-127 949.5,-127 949.5,-97 758.5,-97"/>
<text text-anchor="start" x="766.5" y="-115" font-family="Helvetica,sans-Serif" font-size="10.00">gamePlayer.mainClasses.managers.</text>
<text text-anchor="middle" x="854" y="-104" font-family="Helvetica,sans-Serif" font-size="10.00">WelcomeManager</text>
</g>
<!-- Node2 -->
<g id="node2" class="node"><title>Node2</title>
<g id="a_node2"><a xlink:href="../../d1/de4/interfacegame_player_1_1gui_items_listeners_1_1_navigator_listener.html" target="_top" xlink:title="gamePlayer.guiItemsListeners.\lNavigatorListener">
<polygon fill="white" stroke="black" points="507,-185 507,-215 671,-215 671,-185 507,-185"/>
<text text-anchor="start" x="515" y="-203" font-family="Helvetica,sans-Serif" font-size="10.00">gamePlayer.guiItemsListeners.</text>
<text text-anchor="middle" x="589" y="-192" font-family="Helvetica,sans-Serif" font-size="10.00">NavigatorListener</text>
</a>
</g>
</g>
<!-- Node2&#45;&gt;Node1 -->
<g id="edge1" class="edge"><title>Node2&#45;&gt;Node1</title>
<path fill="none" stroke="midnightblue" d="M653.091,-182.172C680.01,-174.281 711.685,-164.621 740,-155 765.439,-146.356 793.689,-135.606 815.58,-127.017"/>
<polygon fill="midnightblue" stroke="midnightblue" points="652.024,-178.837 643.403,-184.995 653.983,-185.557 652.024,-178.837"/>
</g>
<!-- Node3 -->
<g id="node3" class="node"><title>Node3</title>
<polygon fill="white" stroke="#bfbfbf" points="566.5,-146.5 566.5,-165.5 611.5,-165.5 611.5,-146.5 566.5,-146.5"/>
<text text-anchor="middle" x="589" y="-153.5" font-family="Helvetica,sans-Serif" font-size="10.00">Stage</text>
</g>
<!-- Node3&#45;&gt;Node1 -->
<g id="edge2" class="edge"><title>Node3&#45;&gt;Node1</title>
<path fill="none" stroke="#9a32cd" stroke-dasharray="5,2" d="M621.572,-150.718C656.425,-144.887 714.095,-135.239 763.146,-127.033"/>
<polygon fill="#9a32cd" stroke="#9a32cd" points="620.808,-147.297 611.522,-152.399 621.963,-154.201 620.808,-147.297"/>
<text text-anchor="middle" x="715" y="-143" font-family="Helvetica,sans-Serif" font-size="10.00"> myStage</text>
</g>
<!-- Node4 -->
<g id="node4" class="node"><title>Node4</title>
<g id="a_node4"><a xlink:href="../../dc/dbd/classgame_player_1_1gui_items_1_1welcome_1_1_welcome_navigator.html" target="_top" xlink:title="gamePlayer.guiItems.welcome.\lWelcomeNavigator">
<polygon fill="white" stroke="black" points="506.5,-97 506.5,-127 671.5,-127 671.5,-97 506.5,-97"/>
<text text-anchor="start" x="514.5" y="-115" font-family="Helvetica,sans-Serif" font-size="10.00">gamePlayer.guiItems.welcome.</text>
<text text-anchor="middle" x="589" y="-104" font-family="Helvetica,sans-Serif" font-size="10.00">WelcomeNavigator</text>
</a>
</g>
</g>
<!-- Node4&#45;&gt;Node1 -->
<g id="edge3" class="edge"><title>Node4&#45;&gt;Node1</title>
<path fill="none" stroke="#9a32cd" stroke-dasharray="5,2" d="M681.882,-112C706.648,-112 733.482,-112 758.394,-112"/>
<polygon fill="#9a32cd" stroke="#9a32cd" points="681.773,-108.5 671.773,-112 681.773,-115.5 681.773,-108.5"/>
<text text-anchor="middle" x="715" y="-115" font-family="Helvetica,sans-Serif" font-size="10.00"> navigator</text>
</g>
<!-- Node5 -->
<g id="node5" class="node"><title>Node5</title>
<g id="a_node5"><a xlink:href="../../de/d25/interfacegame_player_1_1gui_items_1_1_gui_item.html" target="_top" xlink:title="gamePlayer.guiItems.GuiItem">
<polygon fill="white" stroke="black" points="261,-148.5 261,-167.5 419,-167.5 419,-148.5 261,-148.5"/>
<text text-anchor="middle" x="340" y="-155.5" font-family="Helvetica,sans-Serif" font-size="10.00">gamePlayer.guiItems.GuiItem</text>
</a>
</g>
</g>
<!-- Node5&#45;&gt;Node4 -->
<g id="edge4" class="edge"><title>Node5&#45;&gt;Node4</title>
<path fill="none" stroke="midnightblue" d="M406.467,-146.743C431.94,-142.279 461.356,-137.02 488,-132 496.351,-130.426 505.087,-128.74 513.768,-127.038"/>
<polygon fill="midnightblue" stroke="midnightblue" points="405.796,-143.308 396.548,-148.477 407.001,-150.203 405.796,-143.308"/>
</g>
<!-- Node6 -->
<g id="node6" class="node"><title>Node6</title>
<g id="a_node6"><a xlink:href="../../d7/d02/interfacegame_player_1_1main_classes_1_1gui_builder_1_1_gui_element.html" target="_top" xlink:title="gamePlayer.mainClasses.gui\lBuilder.GuiElement">
<polygon fill="white" stroke="black" points="0,-143 0,-173 154,-173 154,-143 0,-143"/>
<text text-anchor="start" x="8" y="-161" font-family="Helvetica,sans-Serif" font-size="10.00">gamePlayer.mainClasses.gui</text>
<text text-anchor="middle" x="77" y="-150" font-family="Helvetica,sans-Serif" font-size="10.00">Builder.GuiElement</text>
</a>
</g>
</g>
<!-- Node6&#45;&gt;Node5 -->
<g id="edge5" class="edge"><title>Node6&#45;&gt;Node5</title>
<path fill="none" stroke="midnightblue" d="M164.585,-158C195.689,-158 230.56,-158 260.9,-158"/>
<polygon fill="midnightblue" stroke="midnightblue" points="164.194,-154.5 154.194,-158 164.194,-161.5 164.194,-154.5"/>
</g>
<!-- Node7 -->
<g id="node7" class="node"><title>Node7</title>
<polygon fill="white" stroke="#bfbfbf" points="299.5,-110.5 299.5,-129.5 380.5,-129.5 380.5,-110.5 299.5,-110.5"/>
<text text-anchor="middle" x="340" y="-117.5" font-family="Helvetica,sans-Serif" font-size="10.00">Dimension2D</text>
</g>
<!-- Node7&#45;&gt;Node4 -->
<g id="edge6" class="edge"><title>Node7&#45;&gt;Node4</title>
<path fill="none" stroke="#9a32cd" stroke-dasharray="5,2" d="M391.025,-118.38C424.14,-117.307 468.328,-115.876 506.46,-114.641"/>
<polygon fill="#9a32cd" stroke="#9a32cd" points="390.566,-114.893 380.685,-118.715 390.793,-121.889 390.566,-114.893"/>
<text text-anchor="middle" x="463" y="-120" font-family="Helvetica,sans-Serif" font-size="10.00"> mySize</text>
</g>
<!-- Node8 -->
<g id="node8" class="node"><title>Node8</title>
<g id="a_node8"><a xlink:href="../../df/db4/classutilities_1_1_x_m_l_parsing_1_1_x_m_l_parser.html" target="_top" xlink:title="utilities.XMLParsing.XMLParser">
<polygon fill="white" stroke="black" points="260,-61.5 260,-80.5 420,-80.5 420,-61.5 260,-61.5"/>
<text text-anchor="middle" x="340" y="-68.5" font-family="Helvetica,sans-Serif" font-size="10.00">utilities.XMLParsing.XMLParser</text>
</a>
</g>
</g>
<!-- Node8&#45;&gt;Node1 -->
<g id="edge10" class="edge"><title>Node8&#45;&gt;Node1</title>
<path fill="none" stroke="#9a32cd" stroke-dasharray="5,2" d="M430.226,-67.9852C496.995,-66.7864 590.459,-67.3474 672,-76 712.303,-80.2768 756.971,-89.1172 791.849,-96.9668"/>
<polygon fill="#9a32cd" stroke="#9a32cd" points="430.089,-64.4872 420.159,-68.1829 430.226,-71.4858 430.089,-64.4872"/>
<text text-anchor="middle" x="589" y="-79" font-family="Helvetica,sans-Serif" font-size="10.00"> myParser</text>
</g>
<!-- Node8&#45;&gt;Node4 -->
<g id="edge7" class="edge"><title>Node8&#45;&gt;Node4</title>
<path fill="none" stroke="#9a32cd" stroke-dasharray="5,2" d="M408.305,-82.1721C438.53,-87.1892 474.463,-93.1538 506.224,-98.4259"/>
<polygon fill="#9a32cd" stroke="#9a32cd" points="408.726,-78.6941 398.288,-80.5093 407.579,-85.5996 408.726,-78.6941"/>
<text text-anchor="middle" x="463" y="-99" font-family="Helvetica,sans-Serif" font-size="10.00"> myParser</text>
</g>
<!-- Node9 -->
<g id="node9" class="node"><title>Node9</title>
<polygon fill="white" stroke="#bfbfbf" points="43.5,-61.5 43.5,-80.5 110.5,-80.5 110.5,-61.5 43.5,-61.5"/>
<text text-anchor="middle" x="77" y="-68.5" font-family="Helvetica,sans-Serif" font-size="10.00">Document</text>
</g>
<!-- Node9&#45;&gt;Node8 -->
<g id="edge8" class="edge"><title>Node9&#45;&gt;Node8</title>
<path fill="none" stroke="#9a32cd" stroke-dasharray="5,2" d="M120.641,-71C158.292,-71 214.161,-71 259.961,-71"/>
<polygon fill="#9a32cd" stroke="#9a32cd" points="120.528,-67.5001 110.528,-71 120.528,-74.5001 120.528,-67.5001"/>
<text text-anchor="middle" x="207" y="-74" font-family="Helvetica,sans-Serif" font-size="10.00"> myDocument</text>
</g>
<!-- Node10 -->
<g id="node10" class="node"><title>Node10</title>
<polygon fill="white" stroke="#bfbfbf" points="319,-186.5 319,-205.5 361,-205.5 361,-186.5 319,-186.5"/>
<text text-anchor="middle" x="340" y="-193.5" font-family="Helvetica,sans-Serif" font-size="10.00">HBox</text>
</g>
<!-- Node10&#45;&gt;Node4 -->
<g id="edge9" class="edge"><title>Node10&#45;&gt;Node4</title>
<path fill="none" stroke="#9a32cd" stroke-dasharray="5,2" d="M371.454,-189.642C386.232,-186.312 404.17,-181.907 420,-177 450.905,-167.419 459.811,-166.884 488,-151 496.83,-146.025 497.003,-141.666 506,-137 513.266,-133.231 521.195,-129.928 529.167,-127.064"/>
<polygon fill="#9a32cd" stroke="#9a32cd" points="370.342,-186.303 361.327,-191.869 371.845,-193.139 370.342,-186.303"/>
<text text-anchor="middle" x="463" y="-174" font-family="Helvetica,sans-Serif" font-size="10.00"> navPane</text>
</g>
<!-- Node11 -->
<g id="node11" class="node"><title>Node11</title>
<polygon fill="white" stroke="#bfbfbf" points="566,-0.5 566,-19.5 612,-19.5 612,-0.5 566,-0.5"/>
<text text-anchor="middle" x="589" y="-7.5" font-family="Helvetica,sans-Serif" font-size="10.00">Group</text>
</g>
<!-- Node11&#45;&gt;Node1 -->
<g id="edge11" class="edge"><title>Node11&#45;&gt;Node1</title>
<path fill="none" stroke="#9a32cd" stroke-dasharray="5,2" d="M622.49,-10.1043C653.67,-11.2182 701.562,-15.6246 740,-31 778.771,-46.5086 816.746,-78.0475 837.294,-96.8682"/>
<polygon fill="#9a32cd" stroke="#9a32cd" points="622.289,-6.59792 612.201,-9.835 622.106,-13.5955 622.289,-6.59792"/>
<text text-anchor="middle" x="715" y="-34" font-family="Helvetica,sans-Serif" font-size="10.00"> myGroup</text>
</g>
</g>
</svg>
        <g id="navigator" transform="translate(0 0)" fill="#404254">
                <rect fill="#f2f5e9" fill-opacity="0.5" stroke="#606060" stroke-width=".5" x="0" y="0" width="60" height="60"/>
                <use id="zoomplus" xlink:href="#zoomPlus" x="17" y="9" onmousedown="handleZoom(evt,'in')"/>
                <use id="zoomminus" xlink:href="#zoomMin" x="42" y="9" onmousedown="handleZoom(evt,'out')"/>
                <use id="reset" xlink:href="#resetDef" x="30" y="36" onmousedown="handleReset()"/>
                <g id="arrowUp" xlink:href="#dirArrow" transform="translate(30 24)" onmousedown="handlePan(0,-1)">
                  <use xlink:href="#rim" fill="#404040">
                        <set attributeName="fill" to="#808080" begin="arrowUp.mouseover" end="arrowUp.mouseout"/>
                  </use>
                  <path fill="none" stroke="white" stroke-width="1.5" d="M0,-3.0v7 M-2.5,-0.5L0,-3.0L2.5,-0.5"/>
                </g>
                <g id="arrowRight" xlink:href="#dirArrow" transform="rotate(90) translate(36 -43)" onmousedown="handlePan(1,0)">
                  <use xlink:href="#rim" fill="#404040">
                        <set attributeName="fill" to="#808080" begin="arrowRight.mouseover" end="arrowRight.mouseout"/>
                  </use>
                  <path fill="none" stroke="white" stroke-width="1.5" d="M0,-3.0v7 M-2.5,-0.5L0,-3.0L2.5,-0.5"/>
                </g>
                <g id="arrowDown" xlink:href="#dirArrow" transform="rotate(180) translate(-30 -48)" onmousedown="handlePan(0,1)">
                  <use xlink:href="#rim" fill="#404040">
                        <set attributeName="fill" to="#808080" begin="arrowDown.mouseover" end="arrowDown.mouseout"/>
                  </use>
                  <path fill="none" stroke="white" stroke-width="1.5" d="M0,-3.0v7 M-2.5,-0.5L0,-3.0L2.5,-0.5"/>
                </g>
                <g id="arrowLeft" xlink:href="#dirArrow" transform="rotate(270) translate(-36 17)" onmousedown="handlePan(-1,0)">
                  <use xlink:href="#rim" fill="#404040">
                        <set attributeName="fill" to="#808080" begin="arrowLeft.mouseover" end="arrowLeft.mouseout"/>
                  </use>
                  <path fill="none" stroke="white" stroke-width="1.5" d="M0,-3.0v7 M-2.5,-0.5L0,-3.0L2.5,-0.5"/>
                </g>
        </g>
        <svg viewBox="0 0 15 15" width="100%" height="30px" preserveAspectRatio="xMaxYMin meet">
         <g id="arrow_out" transform="scale(0.3 0.3)">
          <a xlink:href="classgame_player_1_1main_classes_1_1managers_1_1_welcome_manager__coll__graph_org.svg" target="_base">
           <rect id="button" ry="5" rx="5" y="6" x="6" height="38" width="38"
                fill="#f2f5e9" fill-opacity="0.5" stroke="#606060" stroke-width="1.0"/>
           <path id="arrow"
             d="M 11.500037,31.436501 C 11.940474,20.09759 22.043105,11.32322 32.158766,21.979434 L 37.068811,17.246167 C 37.068811,17.246167 37.088388,32 37.088388,32 L 22.160133,31.978069 C 22.160133,31.978069 26.997745,27.140456 26.997745,27.140456 C 18.528582,18.264221 13.291696,25.230495 11.500037,31.436501 z"
             style="fill:#404040;"/>
          </a>
         </g>
        </svg>
</svg>
