<?xml version="1.0" encoding="UTF-8" standalone="no"?>
<!DOCTYPE svg PUBLIC "-//W3C//DTD SVG 1.1//EN"
 "http://www.w3.org/Graphics/SVG/1.1/DTD/svg11.dtd">
<!-- Generated by graphviz version 2.36.0 (20140111.2315)
 -->
<!-- Title: gameAuthoring.scenes.actorBuildingScenes.ActorBuildingScene.clearFields Pages: 1 -->
<!--zoomable 223 -->
<svg id="main" version="1.1" xmlns="http://www.w3.org/2000/svg" xmlns:xlink="http://www.w3.org/1999/xlink" xml:space="preserve" onload="init(evt)">
<style type="text/css"><![CDATA[
.edge:hover path { stroke: red; }
.edge:hover polygon { stroke: red; fill: red; }
]]></style>
<script type="text/javascript"><![CDATA[
var edges = document.getElementsByTagName('g');
if (edges && edges.length) {
  for (var i=0;i<edges.length;i++) {
    if (edges[i].id.substr(0,4)=='edge') {
      edges[i].setAttribute('class','edge');
    }
  }
}
]]></script>
        <defs>
                <circle id="rim" cx="0" cy="0" r="7"/>
                <circle id="rim2" cx="0" cy="0" r="3.5"/>
                <g id="zoomPlus">
                        <use xlink:href="#rim" fill="#404040">
                                <set attributeName="fill" to="#808080" begin="zoomplus.mouseover" end="zoomplus.mouseout"/>
                        </use>
                        <path d="M-4,0h8M0,-4v8" fill="none" stroke="white" stroke-width="1.5" pointer-events="none"/>
                </g>
                <g id="zoomMin">
                        <use xlink:href="#rim" fill="#404040">
                                <set attributeName="fill" to="#808080" begin="zoomminus.mouseover" end="zoomminus.mouseout"/>
                        </use>
                        <path d="M-4,0h8" fill="none" stroke="white" stroke-width="1.5" pointer-events="none"/>
                </g>
                <g id="dirArrow">
                        <path fill="none" stroke="white" stroke-width="1.5" d="M0,-3.0v7 M-2.5,-0.5L0,-3.0L2.5,-0.5"/>
                </g>
               <g id="resetDef">
                       <use xlink:href="#rim2" fill="#404040">
                               <set attributeName="fill" to="#808080" begin="reset.mouseover" end="reset.mouseout"/>
                       </use>
               </g>
        </defs>

<script type="text/javascript">
var viewWidth = 680;
var viewHeight = 223;
var sectionId = 'dynsection-9';
</script>
<script xlink:href="../../svgpan.js"/>
<svg id="graph" class="graph">
<g id="viewport">
<title>gameAuthoring.scenes.actorBuildingScenes.ActorBuildingScene.clearFields</title>
<polygon fill="white" stroke="none" points="-4,4 -4,-219 676,-219 676,4 -4,4"/>
<!-- Node1 -->
<g id="node1" class="node"><title>Node1</title>
<polygon fill="#bfbfbf" stroke="black" points="0,-83.5 0,-124.5 212,-124.5 212,-83.5 0,-83.5"/>
<text text-anchor="start" x="8" y="-112.5" font-family="Helvetica,sans-Serif" font-size="10.00">gameAuthoring.scenes.actor</text>
<text text-anchor="start" x="8" y="-101.5" font-family="Helvetica,sans-Serif" font-size="10.00">BuildingScenes.ActorBuildingScene.clear</text>
<text text-anchor="middle" x="106" y="-90.5" font-family="Helvetica,sans-Serif" font-size="10.00">Fields</text>
</g>
<!-- Node2 -->
<g id="node2" class="node"><title>Node2</title>
<g id="a_node2"><a xlink:href="../../d5/de6/classgame_authoring_1_1scenes_1_1actor_building_scenes_1_1_actor_building_scene.html#a4a20dec94c383a5eb3a91406f2447208" target="_top" xlink:title="gameAuthoring.scenes.actor\lBuildingScenes.ActorBuildingScene.clear\lActorSpecificFields">
<polygon fill="white" stroke="black" points="248,-173.5 248,-214.5 460,-214.5 460,-173.5 248,-173.5"/>
<text text-anchor="start" x="256" y="-202.5" font-family="Helvetica,sans-Serif" font-size="10.00">gameAuthoring.scenes.actor</text>
<text text-anchor="start" x="256" y="-191.5" font-family="Helvetica,sans-Serif" font-size="10.00">BuildingScenes.ActorBuildingScene.clear</text>
<text text-anchor="middle" x="354" y="-180.5" font-family="Helvetica,sans-Serif" font-size="10.00">ActorSpecificFields</text>
</a>
</g>
</g>
<!-- Node1&#45;&gt;Node2 -->
<g id="edge1" class="edge"><title>Node1&#45;&gt;Node2</title>
<path fill="none" stroke="midnightblue" d="M152.544,-124.547C179.921,-136.523 215.623,-151.485 248,-163 254.956,-165.474 262.219,-167.911 269.535,-170.265"/>
<polygon fill="midnightblue" stroke="midnightblue" points="268.931,-173.744 279.52,-173.42 271.039,-167.07 268.931,-173.744"/>
</g>
<!-- Node3 -->
<g id="node3" class="node"><title>Node3</title>
<g id="a_node3"><a xlink:href="../../dc/d20/classutilities_1_1_java_f_xutilities_1_1_drag_and_drop_file_panes_1_1image_panes_1_1_drag_and_drop_file_pane.html#a22d6f246777b35474dfb4a1766d5e225" target="_top" xlink:title="utilities.JavaFXutilities.\lDragAndDropFilePanes.imagePanes.\lDragAndDropFilePane.getPane">
<polygon fill="white" stroke="black" points="259,-113.5 259,-154.5 449,-154.5 449,-113.5 259,-113.5"/>
<text text-anchor="start" x="267" y="-142.5" font-family="Helvetica,sans-Serif" font-size="10.00">utilities.JavaFXutilities.</text>
<text text-anchor="start" x="267" y="-131.5" font-family="Helvetica,sans-Serif" font-size="10.00">DragAndDropFilePanes.imagePanes.</text>
<text text-anchor="middle" x="354" y="-120.5" font-family="Helvetica,sans-Serif" font-size="10.00">DragAndDropFilePane.getPane</text>
</a>
</g>
</g>
<!-- Node1&#45;&gt;Node3 -->
<g id="edge2" class="edge"><title>Node1&#45;&gt;Node3</title>
<path fill="none" stroke="midnightblue" d="M212.04,-116.81C224.18,-118.29 236.56,-119.8 248.691,-121.279"/>
<polygon fill="midnightblue" stroke="midnightblue" points="248.462,-124.777 258.812,-122.514 249.309,-117.829 248.462,-124.777"/>
</g>
<!-- Node4 -->
<g id="node4" class="node"><title>Node4</title>
<g id="a_node4"><a xlink:href="../../dc/d20/classutilities_1_1_java_f_xutilities_1_1_drag_and_drop_file_panes_1_1image_panes_1_1_drag_and_drop_file_pane.html#a280b6913384945a5d819f81e0a166638" target="_top" xlink:title="utilities.JavaFXutilities.\lDragAndDropFilePanes.imagePanes.\lDragAndDropFilePane.reset">
<polygon fill="white" stroke="black" points="259,-53.5 259,-94.5 449,-94.5 449,-53.5 259,-53.5"/>
<text text-anchor="start" x="267" y="-82.5" font-family="Helvetica,sans-Serif" font-size="10.00">utilities.JavaFXutilities.</text>
<text text-anchor="start" x="267" y="-71.5" font-family="Helvetica,sans-Serif" font-size="10.00">DragAndDropFilePanes.imagePanes.</text>
<text text-anchor="middle" x="354" y="-60.5" font-family="Helvetica,sans-Serif" font-size="10.00">DragAndDropFilePane.reset</text>
</a>
</g>
</g>
<!-- Node1&#45;&gt;Node4 -->
<g id="edge3" class="edge"><title>Node1&#45;&gt;Node4</title>
<path fill="none" stroke="midnightblue" d="M212.04,-91.1903C224.18,-89.7097 236.56,-88.2 248.691,-86.7206"/>
<polygon fill="midnightblue" stroke="midnightblue" points="249.309,-90.1713 258.812,-85.4864 248.462,-83.2227 249.309,-90.1713"/>
</g>
<!-- Node5 -->
<g id="node5" class="node"><title>Node5</title>
<g id="a_node5"><a xlink:href="../../d7/d46/classutilities_1_1_java_f_xutilities_1_1slider_1_1_slider_container.html#ac4e7c185d5de5afe2a491faf8f6b49d8" target="_top" xlink:title="utilities.JavaFXutilities.slider.\lSliderContainer.resetSlider">
<polygon fill="white" stroke="black" points="279.5,-5 279.5,-35 428.5,-35 428.5,-5 279.5,-5"/>
<text text-anchor="start" x="287.5" y="-23" font-family="Helvetica,sans-Serif" font-size="10.00">utilities.JavaFXutilities.slider.</text>
<text text-anchor="middle" x="354" y="-12" font-family="Helvetica,sans-Serif" font-size="10.00">SliderContainer.resetSlider</text>
</a>
</g>
</g>
<!-- Node1&#45;&gt;Node5 -->
<g id="edge4" class="edge"><title>Node1&#45;&gt;Node5</title>
<path fill="none" stroke="midnightblue" d="M149.751,-83.4565C177.323,-70.7993 214.216,-54.9531 248,-44 255.05,-41.7144 262.433,-39.5612 269.878,-37.5543"/>
<polygon fill="midnightblue" stroke="midnightblue" points="270.884,-40.9094 279.678,-35.0014 269.119,-34.1355 270.884,-40.9094"/>
</g>
<!-- Node6 -->
<g id="node6" class="node"><title>Node6</title>
<g id="a_node6"><a xlink:href="../../db/d3a/classgame_authoring_1_1scenes_1_1actor_building_scenes_1_1behavior_builders_1_1_slider_info.html#a70e2b6cb39ab74c62aada0c7e8042325" target="_top" xlink:title="gameAuthoring.scenes.actor\lBuildingScenes.behaviorBuilders.\lSliderInfo.getMyMin">
<polygon fill="white" stroke="black" points="496.5,0.5 496.5,-40.5 671.5,-40.5 671.5,0.5 496.5,0.5"/>
<text text-anchor="start" x="504.5" y="-28.5" font-family="Helvetica,sans-Serif" font-size="10.00">gameAuthoring.scenes.actor</text>
<text text-anchor="start" x="504.5" y="-17.5" font-family="Helvetica,sans-Serif" font-size="10.00">BuildingScenes.behaviorBuilders.</text>
<text text-anchor="middle" x="584" y="-6.5" font-family="Helvetica,sans-Serif" font-size="10.00">SliderInfo.getMyMin</text>
</a>
</g>
</g>
<!-- Node5&#45;&gt;Node6 -->
<g id="edge5" class="edge"><title>Node5&#45;&gt;Node6</title>
<path fill="none" stroke="midnightblue" d="M428.71,-20C447.102,-20 467.099,-20 486.413,-20"/>
<polygon fill="midnightblue" stroke="midnightblue" points="486.439,-23.5001 496.438,-20 486.438,-16.5001 486.439,-23.5001"/>
</g>
</g>
</svg>
        <g id="navigator" transform="translate(0 0)" fill="#404254">
                <rect fill="#f2f5e9" fill-opacity="0.5" stroke="#606060" stroke-width=".5" x="0" y="0" width="60" height="60"/>
                <use id="zoomplus" xlink:href="#zoomPlus" x="17" y="9" onmousedown="handleZoom(evt,'in')"/>
                <use id="zoomminus" xlink:href="#zoomMin" x="42" y="9" onmousedown="handleZoom(evt,'out')"/>
                <use id="reset" xlink:href="#resetDef" x="30" y="36" onmousedown="handleReset()"/>
                <g id="arrowUp" xlink:href="#dirArrow" transform="translate(30 24)" onmousedown="handlePan(0,-1)">
                  <use xlink:href="#rim" fill="#404040">
                        <set attributeName="fill" to="#808080" begin="arrowUp.mouseover" end="arrowUp.mouseout"/>
                  </use>
                  <path fill="none" stroke="white" stroke-width="1.5" d="M0,-3.0v7 M-2.5,-0.5L0,-3.0L2.5,-0.5"/>
                </g>
                <g id="arrowRight" xlink:href="#dirArrow" transform="rotate(90) translate(36 -43)" onmousedown="handlePan(1,0)">
                  <use xlink:href="#rim" fill="#404040">
                        <set attributeName="fill" to="#808080" begin="arrowRight.mouseover" end="arrowRight.mouseout"/>
                  </use>
                  <path fill="none" stroke="white" stroke-width="1.5" d="M0,-3.0v7 M-2.5,-0.5L0,-3.0L2.5,-0.5"/>
                </g>
                <g id="arrowDown" xlink:href="#dirArrow" transform="rotate(180) translate(-30 -48)" onmousedown="handlePan(0,1)">
                  <use xlink:href="#rim" fill="#404040">
                        <set attributeName="fill" to="#808080" begin="arrowDown.mouseover" end="arrowDown.mouseout"/>
                  </use>
                  <path fill="none" stroke="white" stroke-width="1.5" d="M0,-3.0v7 M-2.5,-0.5L0,-3.0L2.5,-0.5"/>
                </g>
                <g id="arrowLeft" xlink:href="#dirArrow" transform="rotate(270) translate(-36 17)" onmousedown="handlePan(-1,0)">
                  <use xlink:href="#rim" fill="#404040">
                        <set attributeName="fill" to="#808080" begin="arrowLeft.mouseover" end="arrowLeft.mouseout"/>
                  </use>
                  <path fill="none" stroke="white" stroke-width="1.5" d="M0,-3.0v7 M-2.5,-0.5L0,-3.0L2.5,-0.5"/>
                </g>
        </g>
        <svg viewBox="0 0 15 15" width="100%" height="30px" preserveAspectRatio="xMaxYMin meet">
         <g id="arrow_out" transform="scale(0.3 0.3)">
          <a xlink:href="classgame_authoring_1_1scenes_1_1actor_building_scenes_1_1_actor_building_scene_a903b7fdfe27f5faad827063d80a02f34_cgraph_org.svg" target="_base">
           <rect id="button" ry="5" rx="5" y="6" x="6" height="38" width="38"
                fill="#f2f5e9" fill-opacity="0.5" stroke="#606060" stroke-width="1.0"/>
           <path id="arrow"
             d="M 11.500037,31.436501 C 11.940474,20.09759 22.043105,11.32322 32.158766,21.979434 L 37.068811,17.246167 C 37.068811,17.246167 37.088388,32 37.088388,32 L 22.160133,31.978069 C 22.160133,31.978069 26.997745,27.140456 26.997745,27.140456 C 18.528582,18.264221 13.291696,25.230495 11.500037,31.436501 z"
             style="fill:#404040;"/>
          </a>
         </g>
        </svg>
</svg>
