<?xml version="1.0" encoding="UTF-8" standalone="no"?>
<!DOCTYPE svg PUBLIC "-//W3C//DTD SVG 1.1//EN"
 "http://www.w3.org/Graphics/SVG/1.1/DTD/svg11.dtd">
<!-- Generated by graphviz version 2.36.0 (20140111.2315)
 -->
<!-- Title: gameAuthoring.scenes.actorBuildingScenes.ActorBuildingScene.configureAndDisplayRightPane Pages: 1 -->
<svg width="500pt" height="48pt"
 viewBox="0.00 0.00 500.00 48.00" xmlns="http://www.w3.org/2000/svg" xmlns:xlink="http://www.w3.org/1999/xlink">
<g id="graph0" class="graph" transform="scale(1 1) rotate(0) translate(4 44)">
<title>gameAuthoring.scenes.actorBuildingScenes.ActorBuildingScene.configureAndDisplayRightPane</title>
<polygon fill="white" stroke="none" points="-4,4 -4,-44 496,-44 496,4 -4,4"/>
<!-- Node1 -->
<g id="node1" class="node"><title>Node1</title>
<polygon fill="#bfbfbf" stroke="black" points="0.5,0.5 0.5,-40.5 233.5,-40.5 233.5,0.5 0.5,0.5"/>
<text text-anchor="start" x="8.5" y="-28.5" font-family="Helvetica,sans-Serif" font-size="10.00">gameAuthoring.scenes.actor</text>
<text text-anchor="start" x="8.5" y="-17.5" font-family="Helvetica,sans-Serif" font-size="10.00">BuildingScenes.ActorBuildingScene.configure</text>
<text text-anchor="middle" x="117" y="-6.5" font-family="Helvetica,sans-Serif" font-size="10.00">AndDisplayRightPane</text>
</g>
<!-- Node2 -->
<g id="node2" class="node"><title>Node2</title>
<g id="a_node2"><a xlink:href="../../d5/de6/classgame_authoring_1_1scenes_1_1actor_building_scenes_1_1_actor_building_scene.html#a4f66f383e096abe7ffa0cbca5a4734d6" target="_top" xlink:title="gameAuthoring.scenes.actor\lBuildingScenes.ActorBuildingScene.update">
<polygon fill="white" stroke="black" points="270,-5 270,-35 492,-35 492,-5 270,-5"/>
<text text-anchor="start" x="278" y="-23" font-family="Helvetica,sans-Serif" font-size="10.00">gameAuthoring.scenes.actor</text>
<text text-anchor="middle" x="381" y="-12" font-family="Helvetica,sans-Serif" font-size="10.00">BuildingScenes.ActorBuildingScene.update</text>
</a>
</g>
</g>
<!-- Node1&#45;&gt;Node2 -->
<g id="edge1" class="edge"><title>Node1&#45;&gt;Node2</title>
<path fill="none" stroke="midnightblue" d="M243.89,-20C252.608,-20 261.356,-20 269.98,-20"/>
<polygon fill="midnightblue" stroke="midnightblue" points="243.68,-16.5001 233.68,-20 243.68,-23.5001 243.68,-16.5001"/>
</g>
</g>
</svg>
