<?xml version="1.0" encoding="UTF-8" standalone="no"?>
<!DOCTYPE svg PUBLIC "-//W3C//DTD SVG 1.1//EN"
 "http://www.w3.org/Graphics/SVG/1.1/DTD/svg11.dtd">
<!-- Generated by graphviz version 2.36.0 (20140111.2315)
 -->
<!-- Title: gameAuthoring.scenes.actorBuildingScenes.ActorBuildingScene.update Pages: 1 -->
<svg width="500pt" height="109pt"
 viewBox="0.00 0.00 500.00 109.00" xmlns="http://www.w3.org/2000/svg" xmlns:xlink="http://www.w3.org/1999/xlink">
<g id="graph0" class="graph" transform="scale(1 1) rotate(0) translate(4 105)">
<title>gameAuthoring.scenes.actorBuildingScenes.ActorBuildingScene.update</title>
<polygon fill="white" stroke="none" points="-4,4 -4,-105 496,-105 496,4 -4,4"/>
<!-- Node1 -->
<g id="node1" class="node"><title>Node1</title>
<polygon fill="#bfbfbf" stroke="black" points="0,-35 0,-65 222,-65 222,-35 0,-35"/>
<text text-anchor="start" x="8" y="-53" font-family="Helvetica,sans-Serif" font-size="10.00">gameAuthoring.scenes.actor</text>
<text text-anchor="middle" x="111" y="-42" font-family="Helvetica,sans-Serif" font-size="10.00">BuildingScenes.ActorBuildingScene.update</text>
</g>
<!-- Node2 -->
<g id="node2" class="node"><title>Node2</title>
<g id="a_node2"><a xlink:href="../../d5/de6/classgame_authoring_1_1scenes_1_1actor_building_scenes_1_1_actor_building_scene.html#aae1ba8ea5d86a7e817ad87e524b68f6c" target="_top" xlink:title="gameAuthoring.scenes.actor\lBuildingScenes.ActorBuildingScene.configure\lAndDisplayRightPane">
<polygon fill="white" stroke="black" points="258.5,-59.5 258.5,-100.5 491.5,-100.5 491.5,-59.5 258.5,-59.5"/>
<text text-anchor="start" x="266.5" y="-88.5" font-family="Helvetica,sans-Serif" font-size="10.00">gameAuthoring.scenes.actor</text>
<text text-anchor="start" x="266.5" y="-77.5" font-family="Helvetica,sans-Serif" font-size="10.00">BuildingScenes.ActorBuildingScene.configure</text>
<text text-anchor="middle" x="375" y="-66.5" font-family="Helvetica,sans-Serif" font-size="10.00">AndDisplayRightPane</text>
</a>
</g>
</g>
<!-- Node1&#45;&gt;Node2 -->
<g id="edge1" class="edge"><title>Node1&#45;&gt;Node2</title>
<path fill="none" stroke="midnightblue" d="M222.352,-62.6358C230.896,-63.6141 239.56,-64.6061 248.194,-65.5948"/>
<polygon fill="midnightblue" stroke="midnightblue" points="247.974,-69.0923 258.307,-66.7527 248.77,-62.1377 247.974,-69.0923"/>
</g>
<!-- Node3 -->
<g id="node3" class="node"><title>Node3</title>
<g id="a_node3"><a xlink:href="../../d5/de6/classgame_authoring_1_1scenes_1_1actor_building_scenes_1_1_actor_building_scene.html#aceefbff0f5ddd65e3a74ba5dcf6a29cc" target="_top" xlink:title="gameAuthoring.scenes.actor\lBuildingScenes.ActorBuildingScene.finish\lBuildingActors">
<polygon fill="white" stroke="black" points="268.5,0.5 268.5,-40.5 481.5,-40.5 481.5,0.5 268.5,0.5"/>
<text text-anchor="start" x="276.5" y="-28.5" font-family="Helvetica,sans-Serif" font-size="10.00">gameAuthoring.scenes.actor</text>
<text text-anchor="start" x="276.5" y="-17.5" font-family="Helvetica,sans-Serif" font-size="10.00">BuildingScenes.ActorBuildingScene.finish</text>
<text text-anchor="middle" x="375" y="-6.5" font-family="Helvetica,sans-Serif" font-size="10.00">BuildingActors</text>
</a>
</g>
</g>
<!-- Node1&#45;&gt;Node3 -->
<g id="edge2" class="edge"><title>Node1&#45;&gt;Node3</title>
<path fill="none" stroke="midnightblue" d="M222.352,-37.3642C234.261,-36.0006 246.404,-34.6102 258.373,-33.2398"/>
<polygon fill="midnightblue" stroke="midnightblue" points="258.84,-36.7092 268.377,-32.0942 258.044,-29.7547 258.84,-36.7092"/>
</g>
</g>
</svg>
