<?xml version="1.0" encoding="UTF-8" standalone="no"?>
<!DOCTYPE svg PUBLIC "-//W3C//DTD SVG 1.1//EN"
 "http://www.w3.org/Graphics/SVG/1.1/DTD/svg11.dtd">
<!-- Generated by graphviz version 2.36.0 (20140111.2315)
 -->
<!-- Title: gameAuthoring.scenes.actorBuildingScenes.ActorBuildingScene.clearFields Pages: 1 -->
<!--zoomable 170 -->
<svg id="main" version="1.1" xmlns="http://www.w3.org/2000/svg" xmlns:xlink="http://www.w3.org/1999/xlink" xml:space="preserve" onload="init(evt)">
<style type="text/css"><![CDATA[
.edge:hover path { stroke: red; }
.edge:hover polygon { stroke: red; fill: red; }
]]></style>
<script type="text/javascript"><![CDATA[
var edges = document.getElementsByTagName('g');
if (edges && edges.length) {
  for (var i=0;i<edges.length;i++) {
    if (edges[i].id.substr(0,4)=='edge') {
      edges[i].setAttribute('class','edge');
    }
  }
}
]]></script>
        <defs>
                <circle id="rim" cx="0" cy="0" r="7"/>
                <circle id="rim2" cx="0" cy="0" r="3.5"/>
                <g id="zoomPlus">
                        <use xlink:href="#rim" fill="#404040">
                                <set attributeName="fill" to="#808080" begin="zoomplus.mouseover" end="zoomplus.mouseout"/>
                        </use>
                        <path d="M-4,0h8M0,-4v8" fill="none" stroke="white" stroke-width="1.5" pointer-events="none"/>
                </g>
                <g id="zoomMin">
                        <use xlink:href="#rim" fill="#404040">
                                <set attributeName="fill" to="#808080" begin="zoomminus.mouseover" end="zoomminus.mouseout"/>
                        </use>
                        <path d="M-4,0h8" fill="none" stroke="white" stroke-width="1.5" pointer-events="none"/>
                </g>
                <g id="dirArrow">
                        <path fill="none" stroke="white" stroke-width="1.5" d="M0,-3.0v7 M-2.5,-0.5L0,-3.0L2.5,-0.5"/>
                </g>
               <g id="resetDef">
                       <use xlink:href="#rim2" fill="#404040">
                               <set attributeName="fill" to="#808080" begin="reset.mouseover" end="reset.mouseout"/>
                       </use>
               </g>
        </defs>

<script type="text/javascript">
var viewWidth = 1006;
var viewHeight = 170;
var sectionId = 'dynsection-10';
</script>
<script xlink:href="../../svgpan.js"/>
<svg id="graph" class="graph">
<g id="viewport">
<title>gameAuthoring.scenes.actorBuildingScenes.ActorBuildingScene.clearFields</title>
<polygon fill="white" stroke="none" points="-4,4 -4,-166 1002,-166 1002,4 -4,4"/>
<!-- Node1 -->
<g id="node1" class="node"><title>Node1</title>
<polygon fill="#bfbfbf" stroke="black" points="0,-90.5 0,-131.5 212,-131.5 212,-90.5 0,-90.5"/>
<text text-anchor="start" x="8" y="-119.5" font-family="Helvetica,sans-Serif" font-size="10.00">gameAuthoring.scenes.actor</text>
<text text-anchor="start" x="8" y="-108.5" font-family="Helvetica,sans-Serif" font-size="10.00">BuildingScenes.ActorBuildingScene.clear</text>
<text text-anchor="middle" x="106" y="-97.5" font-family="Helvetica,sans-Serif" font-size="10.00">Fields</text>
</g>
<!-- Node2 -->
<g id="node2" class="node"><title>Node2</title>
<g id="a_node2"><a xlink:href="../../d5/de6/classgame_authoring_1_1scenes_1_1actor_building_scenes_1_1_actor_building_scene.html#a7956b5ed3dcd86f2cca525066bbd4361" target="_top" xlink:title="gameAuthoring.scenes.actor\lBuildingScenes.ActorBuildingScene.attempt\lToSaveActor">
<polygon fill="white" stroke="black" points="248.5,-120.5 248.5,-161.5 475.5,-161.5 475.5,-120.5 248.5,-120.5"/>
<text text-anchor="start" x="256.5" y="-149.5" font-family="Helvetica,sans-Serif" font-size="10.00">gameAuthoring.scenes.actor</text>
<text text-anchor="start" x="256.5" y="-138.5" font-family="Helvetica,sans-Serif" font-size="10.00">BuildingScenes.ActorBuildingScene.attempt</text>
<text text-anchor="middle" x="362" y="-127.5" font-family="Helvetica,sans-Serif" font-size="10.00">ToSaveActor</text>
</a>
</g>
</g>
<!-- Node1&#45;&gt;Node2 -->
<g id="edge1" class="edge"><title>Node1&#45;&gt;Node2</title>
<path fill="none" stroke="midnightblue" d="M222.216,-124.608C230.832,-125.626 239.521,-126.652 248.122,-127.668"/>
<polygon fill="midnightblue" stroke="midnightblue" points="222.487,-121.116 212.145,-123.419 221.665,-128.068 222.487,-121.116"/>
</g>
<!-- Node5 -->
<g id="node5" class="node"><title>Node5</title>
<g id="a_node5"><a xlink:href="../../d4/d66/classgame_authoring_1_1scenes_1_1actor_building_scenes_1_1_tower_building_scene.html#a5fa4e9809e27472f0b30ee27b5962f21" target="_top" xlink:title="gameAuthoring.scenes.actor\lBuildingScenes.TowerBuildingScene.handle\lAddUpgrade">
<polygon fill="white" stroke="black" points="251.5,-60.5 251.5,-101.5 472.5,-101.5 472.5,-60.5 251.5,-60.5"/>
<text text-anchor="start" x="259.5" y="-89.5" font-family="Helvetica,sans-Serif" font-size="10.00">gameAuthoring.scenes.actor</text>
<text text-anchor="start" x="259.5" y="-78.5" font-family="Helvetica,sans-Serif" font-size="10.00">BuildingScenes.TowerBuildingScene.handle</text>
<text text-anchor="middle" x="362" y="-67.5" font-family="Helvetica,sans-Serif" font-size="10.00">AddUpgrade</text>
</a>
</g>
</g>
<!-- Node1&#45;&gt;Node5 -->
<g id="edge4" class="edge"><title>Node1&#45;&gt;Node5</title>
<path fill="none" stroke="midnightblue" d="M222.226,-97.3907C231.941,-96.2432 241.748,-95.0848 251.419,-93.9427"/>
<polygon fill="midnightblue" stroke="midnightblue" points="221.665,-93.9324 212.145,-98.5813 222.487,-100.884 221.665,-93.9324"/>
</g>
<!-- Node3 -->
<g id="node3" class="node"><title>Node3</title>
<g id="a_node3"><a xlink:href="../../d5/de6/classgame_authoring_1_1scenes_1_1actor_building_scenes_1_1_actor_building_scene.html#a4b14803e395701d52cf61ed9a1ef0229" target="_top" xlink:title="gameAuthoring.scenes.actor\lBuildingScenes.ActorBuildingScene.setup\lFileMenu">
<polygon fill="white" stroke="black" points="515.5,-120.5 515.5,-161.5 730.5,-161.5 730.5,-120.5 515.5,-120.5"/>
<text text-anchor="start" x="523.5" y="-149.5" font-family="Helvetica,sans-Serif" font-size="10.00">gameAuthoring.scenes.actor</text>
<text text-anchor="start" x="523.5" y="-138.5" font-family="Helvetica,sans-Serif" font-size="10.00">BuildingScenes.ActorBuildingScene.setup</text>
<text text-anchor="middle" x="623" y="-127.5" font-family="Helvetica,sans-Serif" font-size="10.00">FileMenu</text>
</a>
</g>
</g>
<!-- Node2&#45;&gt;Node3 -->
<g id="edge2" class="edge"><title>Node2&#45;&gt;Node3</title>
<path fill="none" stroke="midnightblue" d="M486.006,-141C495.78,-141 505.604,-141 515.253,-141"/>
<polygon fill="midnightblue" stroke="midnightblue" points="485.848,-137.5 475.848,-141 485.848,-144.5 485.848,-137.5"/>
</g>
<!-- Node4 -->
<g id="node4" class="node"><title>Node4</title>
<g id="a_node4"><a xlink:href="../../d5/de6/classgame_authoring_1_1scenes_1_1actor_building_scenes_1_1_actor_building_scene.html#af797c48013cb5e0b128c5e184056a90d" target="_top" xlink:title="gameAuthoring.scenes.actor\lBuildingScenes.ActorBuildingScene.\lActorBuildingScene">
<polygon fill="white" stroke="black" points="790,-120.5 790,-161.5 978,-161.5 978,-120.5 790,-120.5"/>
<text text-anchor="start" x="798" y="-149.5" font-family="Helvetica,sans-Serif" font-size="10.00">gameAuthoring.scenes.actor</text>
<text text-anchor="start" x="798" y="-138.5" font-family="Helvetica,sans-Serif" font-size="10.00">BuildingScenes.ActorBuildingScene.</text>
<text text-anchor="middle" x="884" y="-127.5" font-family="Helvetica,sans-Serif" font-size="10.00">ActorBuildingScene</text>
</a>
</g>
</g>
<!-- Node3&#45;&gt;Node4 -->
<g id="edge3" class="edge"><title>Node3&#45;&gt;Node4</title>
<path fill="none" stroke="midnightblue" d="M740.953,-141C757.265,-141 773.844,-141 789.644,-141"/>
<polygon fill="midnightblue" stroke="midnightblue" points="740.841,-137.5 730.841,-141 740.84,-144.5 740.841,-137.5"/>
</g>
<!-- Node6 -->
<g id="node6" class="node"><title>Node6</title>
<g id="a_node6"><a xlink:href="../../d4/d66/classgame_authoring_1_1scenes_1_1actor_building_scenes_1_1_tower_building_scene.html#abf6e70d174b0496097e281803b8655e6" target="_top" xlink:title="gameAuthoring.scenes.actor\lBuildingScenes.TowerBuildingScene.redraw\lTowerDisplay">
<polygon fill="white" stroke="black" points="512.5,-60.5 512.5,-101.5 733.5,-101.5 733.5,-60.5 512.5,-60.5"/>
<text text-anchor="start" x="520.5" y="-89.5" font-family="Helvetica,sans-Serif" font-size="10.00">gameAuthoring.scenes.actor</text>
<text text-anchor="start" x="520.5" y="-78.5" font-family="Helvetica,sans-Serif" font-size="10.00">BuildingScenes.TowerBuildingScene.redraw</text>
<text text-anchor="middle" x="623" y="-67.5" font-family="Helvetica,sans-Serif" font-size="10.00">TowerDisplay</text>
</a>
</g>
</g>
<!-- Node5&#45;&gt;Node6 -->
<g id="edge5" class="edge"><title>Node5&#45;&gt;Node6</title>
<path fill="none" stroke="midnightblue" d="M483.015,-81C492.814,-81 502.686,-81 512.404,-81"/>
<polygon fill="midnightblue" stroke="midnightblue" points="482.839,-77.5001 472.839,-81 482.839,-84.5001 482.839,-77.5001"/>
</g>
<!-- Node7 -->
<g id="node7" class="node"><title>Node7</title>
<g id="a_node7"><a xlink:href="../../d4/d66/classgame_authoring_1_1scenes_1_1actor_building_scenes_1_1_tower_building_scene.html#a0eb2856ee189de1452b66ae4fe2d81ae" target="_top" xlink:title="gameAuthoring.scenes.actor\lBuildingScenes.TowerBuildingScene.make\lNewActor">
<polygon fill="white" stroke="black" points="776,-60.5 776,-101.5 992,-101.5 992,-60.5 776,-60.5"/>
<text text-anchor="start" x="784" y="-89.5" font-family="Helvetica,sans-Serif" font-size="10.00">gameAuthoring.scenes.actor</text>
<text text-anchor="start" x="784" y="-78.5" font-family="Helvetica,sans-Serif" font-size="10.00">BuildingScenes.TowerBuildingScene.make</text>
<text text-anchor="middle" x="884" y="-67.5" font-family="Helvetica,sans-Serif" font-size="10.00">NewActor</text>
</a>
</g>
</g>
<!-- Node6&#45;&gt;Node7 -->
<g id="edge6" class="edge"><title>Node6&#45;&gt;Node7</title>
<path fill="none" stroke="midnightblue" d="M744.002,-81C754.639,-81 765.362,-81 775.882,-81"/>
<polygon fill="midnightblue" stroke="midnightblue" points="743.839,-77.5001 733.839,-81 743.839,-84.5001 743.839,-77.5001"/>
</g>
<!-- Node8 -->
<g id="node8" class="node"><title>Node8</title>
<g id="a_node8"><a xlink:href="../../d4/d66/classgame_authoring_1_1scenes_1_1actor_building_scenes_1_1_tower_building_scene.html#ab9a78d521b93dbdd55e5dc1f71adb3f8" target="_top" xlink:title="gameAuthoring.scenes.actor\lBuildingScenes.TowerBuildingScene.initialize\lActorsAndBuildActorDisplay">
<polygon fill="white" stroke="black" points="770.5,-0.5 770.5,-41.5 997.5,-41.5 997.5,-0.5 770.5,-0.5"/>
<text text-anchor="start" x="778.5" y="-29.5" font-family="Helvetica,sans-Serif" font-size="10.00">gameAuthoring.scenes.actor</text>
<text text-anchor="start" x="778.5" y="-18.5" font-family="Helvetica,sans-Serif" font-size="10.00">BuildingScenes.TowerBuildingScene.initialize</text>
<text text-anchor="middle" x="884" y="-7.5" font-family="Helvetica,sans-Serif" font-size="10.00">ActorsAndBuildActorDisplay</text>
</a>
</g>
</g>
<!-- Node6&#45;&gt;Node8 -->
<g id="edge7" class="edge"><title>Node6&#45;&gt;Node8</title>
<path fill="none" stroke="midnightblue" d="M722.763,-58.1206C746.306,-52.6665 771.288,-46.8792 794.345,-41.5378"/>
<polygon fill="midnightblue" stroke="midnightblue" points="721.723,-54.7687 712.771,-60.4353 723.303,-61.5881 721.723,-54.7687"/>
</g>
</g>
</svg>
        <g id="navigator" transform="translate(0 0)" fill="#404254">
                <rect fill="#f2f5e9" fill-opacity="0.5" stroke="#606060" stroke-width=".5" x="0" y="0" width="60" height="60"/>
                <use id="zoomplus" xlink:href="#zoomPlus" x="17" y="9" onmousedown="handleZoom(evt,'in')"/>
                <use id="zoomminus" xlink:href="#zoomMin" x="42" y="9" onmousedown="handleZoom(evt,'out')"/>
                <use id="reset" xlink:href="#resetDef" x="30" y="36" onmousedown="handleReset()"/>
                <g id="arrowUp" xlink:href="#dirArrow" transform="translate(30 24)" onmousedown="handlePan(0,-1)">
                  <use xlink:href="#rim" fill="#404040">
                        <set attributeName="fill" to="#808080" begin="arrowUp.mouseover" end="arrowUp.mouseout"/>
                  </use>
                  <path fill="none" stroke="white" stroke-width="1.5" d="M0,-3.0v7 M-2.5,-0.5L0,-3.0L2.5,-0.5"/>
                </g>
                <g id="arrowRight" xlink:href="#dirArrow" transform="rotate(90) translate(36 -43)" onmousedown="handlePan(1,0)">
                  <use xlink:href="#rim" fill="#404040">
                        <set attributeName="fill" to="#808080" begin="arrowRight.mouseover" end="arrowRight.mouseout"/>
                  </use>
                  <path fill="none" stroke="white" stroke-width="1.5" d="M0,-3.0v7 M-2.5,-0.5L0,-3.0L2.5,-0.5"/>
                </g>
                <g id="arrowDown" xlink:href="#dirArrow" transform="rotate(180) translate(-30 -48)" onmousedown="handlePan(0,1)">
                  <use xlink:href="#rim" fill="#404040">
                        <set attributeName="fill" to="#808080" begin="arrowDown.mouseover" end="arrowDown.mouseout"/>
                  </use>
                  <path fill="none" stroke="white" stroke-width="1.5" d="M0,-3.0v7 M-2.5,-0.5L0,-3.0L2.5,-0.5"/>
                </g>
                <g id="arrowLeft" xlink:href="#dirArrow" transform="rotate(270) translate(-36 17)" onmousedown="handlePan(-1,0)">
                  <use xlink:href="#rim" fill="#404040">
                        <set attributeName="fill" to="#808080" begin="arrowLeft.mouseover" end="arrowLeft.mouseout"/>
                  </use>
                  <path fill="none" stroke="white" stroke-width="1.5" d="M0,-3.0v7 M-2.5,-0.5L0,-3.0L2.5,-0.5"/>
                </g>
        </g>
        <svg viewBox="0 0 15 15" width="100%" height="30px" preserveAspectRatio="xMaxYMin meet">
         <g id="arrow_out" transform="scale(0.3 0.3)">
          <a xlink:href="classgame_authoring_1_1scenes_1_1actor_building_scenes_1_1_actor_building_scene_a903b7fdfe27f5faad827063d80a02f34_icgraph_org.svg" target="_base">
           <rect id="button" ry="5" rx="5" y="6" x="6" height="38" width="38"
                fill="#f2f5e9" fill-opacity="0.5" stroke="#606060" stroke-width="1.0"/>
           <path id="arrow"
             d="M 11.500037,31.436501 C 11.940474,20.09759 22.043105,11.32322 32.158766,21.979434 L 37.068811,17.246167 C 37.068811,17.246167 37.088388,32 37.088388,32 L 22.160133,31.978069 C 22.160133,31.978069 26.997745,27.140456 26.997745,27.140456 C 18.528582,18.264221 13.291696,25.230495 11.500037,31.436501 z"
             style="fill:#404040;"/>
          </a>
         </g>
        </svg>
</svg>
