<?xml version="1.0" encoding="UTF-8" standalone="no"?>
<!DOCTYPE svg PUBLIC "-//W3C//DTD SVG 1.1//EN"
 "http://www.w3.org/Graphics/SVG/1.1/DTD/svg11.dtd">
<!-- Generated by graphviz version 2.36.0 (20140111.2315)
 -->
<!-- Title: gameAuthoring.scenes.actorBuildingScenes.ActorBuildingScene.createActorNameTextField Pages: 1 -->
<svg width="708pt" height="48pt"
 viewBox="0.00 0.00 708.00 48.00" xmlns="http://www.w3.org/2000/svg" xmlns:xlink="http://www.w3.org/1999/xlink">
<g id="graph0" class="graph" transform="scale(1 1) rotate(0) translate(4 44)">
<title>gameAuthoring.scenes.actorBuildingScenes.ActorBuildingScene.createActorNameTextField</title>
<polygon fill="white" stroke="none" points="-4,4 -4,-44 704,-44 704,4 -4,4"/>
<!-- Node1 -->
<g id="node1" class="node"><title>Node1</title>
<polygon fill="#bfbfbf" stroke="black" points="0.5,0.5 0.5,-40.5 219.5,-40.5 219.5,0.5 0.5,0.5"/>
<text text-anchor="start" x="8.5" y="-28.5" font-family="Helvetica,sans-Serif" font-size="10.00">gameAuthoring.scenes.actor</text>
<text text-anchor="start" x="8.5" y="-17.5" font-family="Helvetica,sans-Serif" font-size="10.00">BuildingScenes.ActorBuildingScene.create</text>
<text text-anchor="middle" x="110" y="-6.5" font-family="Helvetica,sans-Serif" font-size="10.00">ActorNameTextField</text>
</g>
<!-- Node2 -->
<g id="node2" class="node"><title>Node2</title>
<g id="a_node2"><a xlink:href="../../d5/de6/classgame_authoring_1_1scenes_1_1actor_building_scenes_1_1_actor_building_scene.html#a202b5536ad1f0cc370567fb4224940a9" target="_top" xlink:title="gameAuthoring.scenes.actor\lBuildingScenes.ActorBuildingScene.create\lCenterDisplay">
<polygon fill="white" stroke="black" points="256.5,0.5 256.5,-40.5 475.5,-40.5 475.5,0.5 256.5,0.5"/>
<text text-anchor="start" x="264.5" y="-28.5" font-family="Helvetica,sans-Serif" font-size="10.00">gameAuthoring.scenes.actor</text>
<text text-anchor="start" x="264.5" y="-17.5" font-family="Helvetica,sans-Serif" font-size="10.00">BuildingScenes.ActorBuildingScene.create</text>
<text text-anchor="middle" x="366" y="-6.5" font-family="Helvetica,sans-Serif" font-size="10.00">CenterDisplay</text>
</a>
</g>
</g>
<!-- Node1&#45;&gt;Node2 -->
<g id="edge1" class="edge"><title>Node1&#45;&gt;Node2</title>
<path fill="none" stroke="midnightblue" d="M230.092,-20C238.868,-20 247.694,-20 256.402,-20"/>
<polygon fill="midnightblue" stroke="midnightblue" points="229.824,-16.5001 219.824,-20 229.824,-23.5001 229.824,-16.5001"/>
</g>
<!-- Node3 -->
<g id="node3" class="node"><title>Node3</title>
<g id="a_node3"><a xlink:href="../../d5/de6/classgame_authoring_1_1scenes_1_1actor_building_scenes_1_1_actor_building_scene.html#af797c48013cb5e0b128c5e184056a90d" target="_top" xlink:title="gameAuthoring.scenes.actor\lBuildingScenes.ActorBuildingScene.\lActorBuildingScene">
<polygon fill="white" stroke="black" points="512,0.5 512,-40.5 700,-40.5 700,0.5 512,0.5"/>
<text text-anchor="start" x="520" y="-28.5" font-family="Helvetica,sans-Serif" font-size="10.00">gameAuthoring.scenes.actor</text>
<text text-anchor="start" x="520" y="-17.5" font-family="Helvetica,sans-Serif" font-size="10.00">BuildingScenes.ActorBuildingScene.</text>
<text text-anchor="middle" x="606" y="-6.5" font-family="Helvetica,sans-Serif" font-size="10.00">ActorBuildingScene</text>
</a>
</g>
</g>
<!-- Node2&#45;&gt;Node3 -->
<g id="edge2" class="edge"><title>Node2&#45;&gt;Node3</title>
<path fill="none" stroke="midnightblue" d="M485.817,-20C494.571,-20 503.326,-20 511.892,-20"/>
<polygon fill="midnightblue" stroke="midnightblue" points="485.553,-16.5001 475.553,-20 485.553,-23.5001 485.553,-16.5001"/>
</g>
</g>
</svg>
