<?xml version="1.0" encoding="UTF-8" standalone="no"?>
<!DOCTYPE svg PUBLIC "-//W3C//DTD SVG 1.1//EN"
 "http://www.w3.org/Graphics/SVG/1.1/DTD/svg11.dtd">
<!-- Generated by graphviz version 2.36.0 (20140111.2315)
 -->
<!-- Title: gameAuthoring.scenes.actorBuildingScenes.actorListView.CreatedEnemiesDisplay Pages: 1 -->
<svg width="484pt" height="87pt"
 viewBox="0.00 0.00 484.00 87.00" xmlns="http://www.w3.org/2000/svg" xmlns:xlink="http://www.w3.org/1999/xlink">
<g id="graph0" class="graph" transform="scale(1 1) rotate(0) translate(4 83)">
<title>gameAuthoring.scenes.actorBuildingScenes.actorListView.CreatedEnemiesDisplay</title>
<polygon fill="white" stroke="none" points="-4,4 -4,-83 480,-83 480,4 -4,4"/>
<!-- Node1 -->
<g id="node1" class="node"><title>Node1</title>
<polygon fill="#bfbfbf" stroke="black" points="280,-18.5 280,-59.5 476,-59.5 476,-18.5 280,-18.5"/>
<text text-anchor="start" x="288" y="-47.5" font-family="Helvetica,sans-Serif" font-size="10.00">gameAuthoring.scenes.actor</text>
<text text-anchor="start" x="288" y="-36.5" font-family="Helvetica,sans-Serif" font-size="10.00">BuildingScenes.actorListView.Created</text>
<text text-anchor="middle" x="378" y="-25.5" font-family="Helvetica,sans-Serif" font-size="10.00">EnemiesDisplay</text>
</g>
<!-- Node2 -->
<g id="node2" class="node"><title>Node2</title>
<polygon fill="white" stroke="#bfbfbf" points="27,-49 27,-79 167,-79 167,-49 27,-49"/>
<text text-anchor="start" x="35" y="-67" font-family="Helvetica,sans-Serif" font-size="10.00">javafx::scene::control</text>
<text text-anchor="middle" x="97" y="-56" font-family="Helvetica,sans-Serif" font-size="10.00">::ListView&lt; BaseEnemy &gt;</text>
</g>
<!-- Node2&#45;&gt;Node1 -->
<g id="edge1" class="edge"><title>Node2&#45;&gt;Node1</title>
<path fill="none" stroke="midnightblue" d="M177.481,-56.878C209.356,-54.0219 246.396,-50.7029 279.847,-47.7054"/>
<polygon fill="midnightblue" stroke="midnightblue" points="176.972,-53.4095 167.325,-57.7881 177.597,-60.3816 176.972,-53.4095"/>
</g>
<!-- Node3 -->
<g id="node3" class="node"><title>Node3</title>
<polygon fill="white" stroke="#bfbfbf" points="0,-0 0,-30 194,-30 194,-0 0,-0"/>
<text text-anchor="start" x="8" y="-18" font-family="Helvetica,sans-Serif" font-size="10.00">ObservableList&lt; gameEngine.actors.</text>
<text text-anchor="middle" x="97" y="-7" font-family="Helvetica,sans-Serif" font-size="10.00">BaseEnemy &gt;</text>
</g>
<!-- Node3&#45;&gt;Node1 -->
<g id="edge2" class="edge"><title>Node3&#45;&gt;Node1</title>
<path fill="none" stroke="#9a32cd" stroke-dasharray="5,2" d="M204.197,-24.1353C229.058,-26.2738 255.417,-28.5413 279.86,-30.6439"/>
<polygon fill="#9a32cd" stroke="#9a32cd" points="204.279,-20.6295 194.016,-23.2594 203.679,-27.6037 204.279,-20.6295"/>
<text text-anchor="middle" x="237" y="-31" font-family="Helvetica,sans-Serif" font-size="10.00"> myActors</text>
</g>
</g>
</svg>
