<?xml version="1.0" encoding="UTF-8" standalone="no"?>
<!DOCTYPE svg PUBLIC "-//W3C//DTD SVG 1.1//EN"
 "http://www.w3.org/Graphics/SVG/1.1/DTD/svg11.dtd">
<!-- Generated by graphviz version 2.36.0 (20140111.2315)
 -->
<!-- Title: gameEngine.actors.ProjectileInfo.getMove Pages: 1 -->
<svg width="582pt" height="136pt"
 viewBox="0.00 0.00 582.00 136.00" xmlns="http://www.w3.org/2000/svg" xmlns:xlink="http://www.w3.org/1999/xlink">
<g id="graph0" class="graph" transform="scale(1 1) rotate(0) translate(4 132)">
<title>gameEngine.actors.ProjectileInfo.getMove</title>
<polygon fill="white" stroke="none" points="-4,4 -4,-132 578,-132 578,4 -4,4"/>
<!-- Node1 -->
<g id="node1" class="node"><title>Node1</title>
<polygon fill="#bfbfbf" stroke="black" points="0,-49 0,-79 156,-79 156,-49 0,-49"/>
<text text-anchor="start" x="8" y="-67" font-family="Helvetica,sans-Serif" font-size="10.00">gameEngine.actors.Projectile</text>
<text text-anchor="middle" x="78" y="-56" font-family="Helvetica,sans-Serif" font-size="10.00">Info.getMove</text>
</g>
<!-- Node2 -->
<g id="node2" class="node"><title>Node2</title>
<g id="a_node2"><a xlink:href="../../da/d6a/classgame_engine_1_1actors_1_1_base_projectile.html#ae8d140742d4cb1d90689e52e30195f83" target="_top" xlink:title="gameEngine.actors.BaseProjectile.\lBaseProjectile">
<polygon fill="white" stroke="black" points="192.5,-98 192.5,-128 375.5,-128 375.5,-98 192.5,-98"/>
<text text-anchor="start" x="200.5" y="-116" font-family="Helvetica,sans-Serif" font-size="10.00">gameEngine.actors.BaseProjectile.</text>
<text text-anchor="middle" x="284" y="-105" font-family="Helvetica,sans-Serif" font-size="10.00">BaseProjectile</text>
</a>
</g>
</g>
<!-- Node1&#45;&gt;Node2 -->
<g id="edge1" class="edge"><title>Node1&#45;&gt;Node2</title>
<path fill="none" stroke="midnightblue" d="M151.457,-81.4038C174.024,-86.8243 198.702,-92.752 220.525,-97.9938"/>
<polygon fill="midnightblue" stroke="midnightblue" points="152.134,-77.967 141.593,-79.0346 150.499,-84.7734 152.134,-77.967"/>
</g>
<!-- Node3 -->
<g id="node3" class="node"><title>Node3</title>
<g id="a_node3"><a xlink:href="../../db/d9e/classgame_engine_1_1actors_1_1behaviors_1_1_ao_e_attack.html#a35d7f53636d745562765310ca1e4b850" target="_top" xlink:title="gameEngine.actors.behaviors.\lAoEAttack.performAttack">
<polygon fill="white" stroke="black" points="203,-49 203,-79 365,-79 365,-49 203,-49"/>
<text text-anchor="start" x="211" y="-67" font-family="Helvetica,sans-Serif" font-size="10.00">gameEngine.actors.behaviors.</text>
<text text-anchor="middle" x="284" y="-56" font-family="Helvetica,sans-Serif" font-size="10.00">AoEAttack.performAttack</text>
</a>
</g>
</g>
<!-- Node1&#45;&gt;Node3 -->
<g id="edge2" class="edge"><title>Node1&#45;&gt;Node3</title>
<path fill="none" stroke="midnightblue" d="M166.217,-64C178.332,-64 190.73,-64 202.71,-64"/>
<polygon fill="midnightblue" stroke="midnightblue" points="166.124,-60.5001 156.124,-64 166.124,-67.5001 166.124,-60.5001"/>
</g>
<!-- Node4 -->
<g id="node4" class="node"><title>Node4</title>
<g id="a_node4"><a xlink:href="../../d9/d41/classgame_engine_1_1actors_1_1behaviors_1_1_range_attack.html#ad01ed9c7d2605735948e6a8b0d1a9485" target="_top" xlink:title="gameEngine.actors.behaviors.\lRangeAttack.shootActorFromActor">
<polygon fill="white" stroke="black" points="193,-0 193,-30 375,-30 375,-0 193,-0"/>
<text text-anchor="start" x="201" y="-18" font-family="Helvetica,sans-Serif" font-size="10.00">gameEngine.actors.behaviors.</text>
<text text-anchor="middle" x="284" y="-7" font-family="Helvetica,sans-Serif" font-size="10.00">RangeAttack.shootActorFromActor</text>
</a>
</g>
</g>
<!-- Node1&#45;&gt;Node4 -->
<g id="edge3" class="edge"><title>Node1&#45;&gt;Node4</title>
<path fill="none" stroke="midnightblue" d="M151.457,-46.5962C174.024,-41.1757 198.702,-35.248 220.525,-30.0062"/>
<polygon fill="midnightblue" stroke="midnightblue" points="150.499,-43.2266 141.593,-48.9654 152.134,-50.033 150.499,-43.2266"/>
</g>
<!-- Node5 -->
<g id="node5" class="node"><title>Node5</title>
<g id="a_node5"><a xlink:href="../../d9/d41/classgame_engine_1_1actors_1_1behaviors_1_1_range_attack.html#adce033b0e318665ad52cde7c985b8538" target="_top" xlink:title="gameEngine.actors.behaviors.\lRangeAttack.performAttack">
<polygon fill="white" stroke="black" points="412,-0 412,-30 574,-30 574,-0 412,-0"/>
<text text-anchor="start" x="420" y="-18" font-family="Helvetica,sans-Serif" font-size="10.00">gameEngine.actors.behaviors.</text>
<text text-anchor="middle" x="493" y="-7" font-family="Helvetica,sans-Serif" font-size="10.00">RangeAttack.performAttack</text>
</a>
</g>
</g>
<!-- Node4&#45;&gt;Node5 -->
<g id="edge4" class="edge"><title>Node4&#45;&gt;Node5</title>
<path fill="none" stroke="midnightblue" d="M385.243,-15C394.171,-15 403.131,-15 411.857,-15"/>
<polygon fill="midnightblue" stroke="midnightblue" points="385.191,-11.5001 375.191,-15 385.191,-18.5001 385.191,-11.5001"/>
</g>
</g>
</svg>
