<?xml version="1.0" encoding="UTF-8" standalone="no"?>
<!DOCTYPE svg PUBLIC "-//W3C//DTD SVG 1.1//EN"
 "http://www.w3.org/Graphics/SVG/1.1/DTD/svg11.dtd">
<!-- Generated by graphviz version 2.36.0 (20140111.2315)
 -->
<!-- Title: gameAuthoring.scenes.pathBuilding.pathComponents.PathRoute.PathRoute Pages: 1 -->
<!--zoomable 962 -->
<svg id="main" version="1.1" xmlns="http://www.w3.org/2000/svg" xmlns:xlink="http://www.w3.org/1999/xlink" xml:space="preserve" onload="init(evt)">
<style type="text/css"><![CDATA[
.edge:hover path { stroke: red; }
.edge:hover polygon { stroke: red; fill: red; }
]]></style>
<script type="text/javascript"><![CDATA[
var edges = document.getElementsByTagName('g');
if (edges && edges.length) {
  for (var i=0;i<edges.length;i++) {
    if (edges[i].id.substr(0,4)=='edge') {
      edges[i].setAttribute('class','edge');
    }
  }
}
]]></script>
        <defs>
                <circle id="rim" cx="0" cy="0" r="7"/>
                <circle id="rim2" cx="0" cy="0" r="3.5"/>
                <g id="zoomPlus">
                        <use xlink:href="#rim" fill="#404040">
                                <set attributeName="fill" to="#808080" begin="zoomplus.mouseover" end="zoomplus.mouseout"/>
                        </use>
                        <path d="M-4,0h8M0,-4v8" fill="none" stroke="white" stroke-width="1.5" pointer-events="none"/>
                </g>
                <g id="zoomMin">
                        <use xlink:href="#rim" fill="#404040">
                                <set attributeName="fill" to="#808080" begin="zoomminus.mouseover" end="zoomminus.mouseout"/>
                        </use>
                        <path d="M-4,0h8" fill="none" stroke="white" stroke-width="1.5" pointer-events="none"/>
                </g>
                <g id="dirArrow">
                        <path fill="none" stroke="white" stroke-width="1.5" d="M0,-3.0v7 M-2.5,-0.5L0,-3.0L2.5,-0.5"/>
                </g>
               <g id="resetDef">
                       <use xlink:href="#rim2" fill="#404040">
                               <set attributeName="fill" to="#808080" begin="reset.mouseover" end="reset.mouseout"/>
                       </use>
               </g>
        </defs>

<script type="text/javascript">
var viewWidth = 1768;
var viewHeight = 962;
var sectionId = 'dynsection-2';
</script>
<script xlink:href="../../svgpan.js"/>
<svg id="graph" class="graph">
<g id="viewport">
<title>gameAuthoring.scenes.pathBuilding.pathComponents.PathRoute.PathRoute</title>
<polygon fill="white" stroke="none" points="-4,4 -4,-958 1764,-958 1764,4 -4,4"/>
<!-- Node1 -->
<g id="node1" class="node"><title>Node1</title>
<polygon fill="#bfbfbf" stroke="black" points="0,-624.5 0,-665.5 194,-665.5 194,-624.5 0,-624.5"/>
<text text-anchor="start" x="8" y="-653.5" font-family="Helvetica,sans-Serif" font-size="10.00">gameAuthoring.scenes.path</text>
<text text-anchor="start" x="8" y="-642.5" font-family="Helvetica,sans-Serif" font-size="10.00">Building.pathComponents.PathRoute.</text>
<text text-anchor="middle" x="97" y="-631.5" font-family="Helvetica,sans-Serif" font-size="10.00">PathRoute</text>
</g>
<!-- Node2 -->
<g id="node2" class="node"><title>Node2</title>
<g id="a_node2"><a xlink:href="../../d7/d4d/classgame_authoring_1_1scenes_1_1path_building_1_1path_components_1_1_path_route.html#a3fd91e69117cf50c3374a5c30324ea8c" target="_top" xlink:title="gameAuthoring.scenes.path\lBuilding.pathComponents.PathRoute.get\lComponentsBefore">
<polygon fill="white" stroke="black" points="230,-624.5 230,-665.5 440,-665.5 440,-624.5 230,-624.5"/>
<text text-anchor="start" x="238" y="-653.5" font-family="Helvetica,sans-Serif" font-size="10.00">gameAuthoring.scenes.path</text>
<text text-anchor="start" x="238" y="-642.5" font-family="Helvetica,sans-Serif" font-size="10.00">Building.pathComponents.PathRoute.get</text>
<text text-anchor="middle" x="335" y="-631.5" font-family="Helvetica,sans-Serif" font-size="10.00">ComponentsBefore</text>
</a>
</g>
</g>
<!-- Node1&#45;&gt;Node2 -->
<g id="edge1" class="edge"><title>Node1&#45;&gt;Node2</title>
<path fill="none" stroke="midnightblue" d="M204.561,-645C212.99,-645 221.498,-645 229.91,-645"/>
<polygon fill="midnightblue" stroke="midnightblue" points="204.331,-641.5 194.331,-645 204.331,-648.5 204.331,-641.5"/>
</g>
<!-- Node3 -->
<g id="node3" class="node"><title>Node3</title>
<g id="a_node3"><a xlink:href="../../d1/d65/classgame_authoring_1_1scenes_1_1path_building_1_1path_components_1_1_path.html#af2f92d642a6fe0c48c6b87193d462f00" target="_top" xlink:title="gameAuthoring.scenes.path\lBuilding.pathComponents.Path.attempt\lToConnectRoutes">
<polygon fill="white" stroke="black" points="476,-624.5 476,-665.5 682,-665.5 682,-624.5 476,-624.5"/>
<text text-anchor="start" x="484" y="-653.5" font-family="Helvetica,sans-Serif" font-size="10.00">gameAuthoring.scenes.path</text>
<text text-anchor="start" x="484" y="-642.5" font-family="Helvetica,sans-Serif" font-size="10.00">Building.pathComponents.Path.attempt</text>
<text text-anchor="middle" x="579" y="-631.5" font-family="Helvetica,sans-Serif" font-size="10.00">ToConnectRoutes</text>
</a>
</g>
</g>
<!-- Node2&#45;&gt;Node3 -->
<g id="edge2" class="edge"><title>Node2&#45;&gt;Node3</title>
<path fill="none" stroke="midnightblue" d="M450.129,-645C458.756,-645 467.429,-645 475.973,-645"/>
<polygon fill="midnightblue" stroke="midnightblue" points="450.034,-641.5 440.034,-645 450.034,-648.5 450.034,-641.5"/>
</g>
<!-- Node4 -->
<g id="node4" class="node"><title>Node4</title>
<g id="a_node4"><a xlink:href="../../d1/d65/classgame_authoring_1_1scenes_1_1path_building_1_1path_components_1_1_path.html#acffcf828c8875053d700834381b6b747" target="_top" xlink:title="gameAuthoring.scenes.path\lBuilding.pathComponents.Path.add\lComponentToPath">
<polygon fill="white" stroke="black" points="756.5,-522.5 756.5,-563.5 941.5,-563.5 941.5,-522.5 756.5,-522.5"/>
<text text-anchor="start" x="764.5" y="-551.5" font-family="Helvetica,sans-Serif" font-size="10.00">gameAuthoring.scenes.path</text>
<text text-anchor="start" x="764.5" y="-540.5" font-family="Helvetica,sans-Serif" font-size="10.00">Building.pathComponents.Path.add</text>
<text text-anchor="middle" x="849" y="-529.5" font-family="Helvetica,sans-Serif" font-size="10.00">ComponentToPath</text>
</a>
</g>
</g>
<!-- Node3&#45;&gt;Node4 -->
<g id="edge3" class="edge"><title>Node3&#45;&gt;Node4</title>
<path fill="none" stroke="midnightblue" d="M643.425,-620.861C689.156,-603.455 750.233,-580.21 793.716,-563.66"/>
<polygon fill="midnightblue" stroke="midnightblue" points="642.012,-617.653 633.911,-624.481 644.502,-624.195 642.012,-617.653"/>
</g>
<!-- Node7 -->
<g id="node7" class="node"><title>Node7</title>
<g id="a_node7"><a xlink:href="../../d2/d34/classgame_authoring_1_1scenes_1_1path_building_1_1path_components_1_1_path_creation_tests.html#ac9531a7f491a2dd23e3f1f4fefeae341" target="_top" xlink:title="gameAuthoring.scenes.path\lBuilding.pathComponents.PathCreation\lTests.AttemptToConnectRoutesFORKTest">
<polygon fill="white" stroke="black" points="1036,-912.5 1036,-953.5 1244,-953.5 1244,-912.5 1036,-912.5"/>
<text text-anchor="start" x="1044" y="-941.5" font-family="Helvetica,sans-Serif" font-size="10.00">gameAuthoring.scenes.path</text>
<text text-anchor="start" x="1044" y="-930.5" font-family="Helvetica,sans-Serif" font-size="10.00">Building.pathComponents.PathCreation</text>
<text text-anchor="middle" x="1140" y="-919.5" font-family="Helvetica,sans-Serif" font-size="10.00">Tests.AttemptToConnectRoutesFORKTest</text>
</a>
</g>
</g>
<!-- Node3&#45;&gt;Node7 -->
<g id="edge22" class="edge"><title>Node3&#45;&gt;Node7</title>
<path fill="none" stroke="midnightblue" d="M601.455,-673.559C626.42,-705.078 670.348,-755.508 718,-787 816.262,-851.94 946.553,-891.277 1036.02,-912.495"/>
<polygon fill="midnightblue" stroke="midnightblue" points="604.142,-671.313 595.227,-665.589 598.627,-675.624 604.142,-671.313"/>
</g>
<!-- Node8 -->
<g id="node8" class="node"><title>Node8</title>
<g id="a_node8"><a xlink:href="../../d2/d34/classgame_authoring_1_1scenes_1_1path_building_1_1path_components_1_1_path_creation_tests.html#a6981d0f68e924cf3aca2ebb00a781c66" target="_top" xlink:title="gameAuthoring.scenes.path\lBuilding.pathComponents.PathCreation\lTests.AttemptToConnectRoutesNoForkTest">
<polygon fill="white" stroke="black" points="1031,-852.5 1031,-893.5 1249,-893.5 1249,-852.5 1031,-852.5"/>
<text text-anchor="start" x="1039" y="-881.5" font-family="Helvetica,sans-Serif" font-size="10.00">gameAuthoring.scenes.path</text>
<text text-anchor="start" x="1039" y="-870.5" font-family="Helvetica,sans-Serif" font-size="10.00">Building.pathComponents.PathCreation</text>
<text text-anchor="middle" x="1140" y="-859.5" font-family="Helvetica,sans-Serif" font-size="10.00">Tests.AttemptToConnectRoutesNoForkTest</text>
</a>
</g>
</g>
<!-- Node3&#45;&gt;Node8 -->
<g id="edge23" class="edge"><title>Node3&#45;&gt;Node8</title>
<path fill="none" stroke="midnightblue" d="M628.552,-670.388C707.861,-711.063 870.924,-791.393 1016,-842 1026.71,-845.735 1038.09,-849.223 1049.43,-852.41"/>
<polygon fill="midnightblue" stroke="midnightblue" points="629.796,-667.092 619.303,-665.629 626.593,-673.316 629.796,-667.092"/>
</g>
<!-- Node22 -->
<g id="node22" class="node"><title>Node22</title>
<g id="a_node22"><a xlink:href="../../d7/da7/classgame_authoring_1_1scenes_1_1path_building_1_1building_panes_1_1_select_component_pane.html#abfee75cf2b6d4ca0978cc7b44d15f3de" target="_top" xlink:title="gameAuthoring.scenes.path\lBuilding.buildingPanes.SelectComponent\lPane.handleSelectionAndTryToConnectComponents">
<polygon fill="white" stroke="black" points="718,-246.5 718,-287.5 980,-287.5 980,-246.5 718,-246.5"/>
<text text-anchor="start" x="726" y="-275.5" font-family="Helvetica,sans-Serif" font-size="10.00">gameAuthoring.scenes.path</text>
<text text-anchor="start" x="726" y="-264.5" font-family="Helvetica,sans-Serif" font-size="10.00">Building.buildingPanes.SelectComponent</text>
<text text-anchor="middle" x="849" y="-253.5" font-family="Helvetica,sans-Serif" font-size="10.00">Pane.handleSelectionAndTryToConnectComponents</text>
</a>
</g>
</g>
<!-- Node3&#45;&gt;Node22 -->
<g id="edge24" class="edge"><title>Node3&#45;&gt;Node22</title>
<path fill="none" stroke="midnightblue" d="M600.504,-616.08C652.426,-542.847 788.165,-351.394 833.223,-287.842"/>
<polygon fill="midnightblue" stroke="midnightblue" points="597.528,-614.227 594.599,-624.409 603.238,-618.275 597.528,-614.227"/>
</g>
<!-- Node5 -->
<g id="node5" class="node"><title>Node5</title>
<g id="a_node5"><a xlink:href="../../d2/d34/classgame_authoring_1_1scenes_1_1path_building_1_1path_components_1_1_path_creation_tests.html#a0911a7565ec3a567911ed649f2c837d0" target="_top" xlink:title="gameAuthoring.scenes.path\lBuilding.pathComponents.PathCreation\lTests.AddSingleCurveComponentTest">
<polygon fill="white" stroke="black" points="1037.5,-240.5 1037.5,-281.5 1242.5,-281.5 1242.5,-240.5 1037.5,-240.5"/>
<text text-anchor="start" x="1045.5" y="-269.5" font-family="Helvetica,sans-Serif" font-size="10.00">gameAuthoring.scenes.path</text>
<text text-anchor="start" x="1045.5" y="-258.5" font-family="Helvetica,sans-Serif" font-size="10.00">Building.pathComponents.PathCreation</text>
<text text-anchor="middle" x="1140" y="-247.5" font-family="Helvetica,sans-Serif" font-size="10.00">Tests.AddSingleCurveComponentTest</text>
</a>
</g>
</g>
<!-- Node4&#45;&gt;Node5 -->
<g id="edge4" class="edge"><title>Node4&#45;&gt;Node5</title>
<path fill="none" stroke="midnightblue" d="M861.343,-512.806C882.932,-459.594 935.119,-349.338 1016,-292 1022.56,-287.351 1029.75,-283.398 1037.25,-280.036"/>
<polygon fill="midnightblue" stroke="midnightblue" points="857.989,-511.768 857.55,-522.354 864.494,-514.352 857.989,-511.768"/>
</g>
<!-- Node6 -->
<g id="node6" class="node"><title>Node6</title>
<g id="a_node6"><a xlink:href="../../d2/d34/classgame_authoring_1_1scenes_1_1path_building_1_1path_components_1_1_path_creation_tests.html#a8299a5b4ff7674dbfa2223a26fd4c2db" target="_top" xlink:title="gameAuthoring.scenes.path\lBuilding.pathComponents.PathCreation\lTests.AddSingleLineComponentTest">
<polygon fill="white" stroke="black" points="1037.5,-180.5 1037.5,-221.5 1242.5,-221.5 1242.5,-180.5 1037.5,-180.5"/>
<text text-anchor="start" x="1045.5" y="-209.5" font-family="Helvetica,sans-Serif" font-size="10.00">gameAuthoring.scenes.path</text>
<text text-anchor="start" x="1045.5" y="-198.5" font-family="Helvetica,sans-Serif" font-size="10.00">Building.pathComponents.PathCreation</text>
<text text-anchor="middle" x="1140" y="-187.5" font-family="Helvetica,sans-Serif" font-size="10.00">Tests.AddSingleLineComponentTest</text>
</a>
</g>
</g>
<!-- Node4&#45;&gt;Node6 -->
<g id="edge5" class="edge"><title>Node4&#45;&gt;Node6</title>
<path fill="none" stroke="midnightblue" d="M865.773,-512.971C906.614,-435.263 1012.87,-233.431 1016,-231 1022.51,-225.943 1029.75,-221.724 1037.37,-218.205"/>
<polygon fill="midnightblue" stroke="midnightblue" points="862.458,-511.754 860.904,-522.235 868.655,-515.011 862.458,-511.754"/>
</g>
<!-- Node4&#45;&gt;Node7 -->
<g id="edge6" class="edge"><title>Node4&#45;&gt;Node7</title>
<path fill="none" stroke="midnightblue" d="M860.199,-573.295C887.071,-651.427 961.492,-856.802 1016,-902 1022.02,-906.99 1028.73,-911.192 1035.83,-914.729"/>
<polygon fill="midnightblue" stroke="midnightblue" points="863.42,-571.897 856.873,-563.566 856.796,-574.161 863.42,-571.897"/>
</g>
<!-- Node4&#45;&gt;Node8 -->
<g id="edge7" class="edge"><title>Node4&#45;&gt;Node8</title>
<path fill="none" stroke="midnightblue" d="M873.549,-571.792C901.975,-607.693 949.722,-671.813 980,-733 1002.63,-778.726 978.648,-807.248 1016,-842 1020.51,-846.2 1025.51,-849.852 1030.84,-853.026"/>
<polygon fill="midnightblue" stroke="midnightblue" points="876.078,-569.35 867.104,-563.718 870.607,-573.717 876.078,-569.35"/>
</g>
<!-- Node9 -->
<g id="node9" class="node"><title>Node9</title>
<g id="a_node9"><a xlink:href="../../d2/d34/classgame_authoring_1_1scenes_1_1path_building_1_1path_components_1_1_path_creation_tests.html#adbb59fd676db1e150df898e9509dd212" target="_top" xlink:title="gameAuthoring.scenes.path\lBuilding.pathComponents.PathCreation\lTests.ConnectComponentToEndingLocationTest">
<polygon fill="white" stroke="black" points="1019.5,-120.5 1019.5,-161.5 1260.5,-161.5 1260.5,-120.5 1019.5,-120.5"/>
<text text-anchor="start" x="1027.5" y="-149.5" font-family="Helvetica,sans-Serif" font-size="10.00">gameAuthoring.scenes.path</text>
<text text-anchor="start" x="1027.5" y="-138.5" font-family="Helvetica,sans-Serif" font-size="10.00">Building.pathComponents.PathCreation</text>
<text text-anchor="middle" x="1140" y="-127.5" font-family="Helvetica,sans-Serif" font-size="10.00">Tests.ConnectComponentToEndingLocationTest</text>
</a>
</g>
</g>
<!-- Node4&#45;&gt;Node9 -->
<g id="edge8" class="edge"><title>Node4&#45;&gt;Node9</title>
<path fill="none" stroke="midnightblue" d="M868.073,-513.5C895.286,-468.11 947.093,-377.807 980,-296 1001.58,-242.363 974.287,-211.03 1016,-171 1019.65,-167.5 1023.63,-164.386 1027.86,-161.618"/>
<polygon fill="midnightblue" stroke="midnightblue" points="864.979,-511.853 862.813,-522.224 870.974,-515.467 864.979,-511.853"/>
</g>
<!-- Node10 -->
<g id="node10" class="node"><title>Node10</title>
<g id="a_node10"><a xlink:href="../../d2/d34/classgame_authoring_1_1scenes_1_1path_building_1_1path_components_1_1_path_creation_tests.html#afcc8871849fbf8c9a24a5b382c77a167" target="_top" xlink:title="gameAuthoring.scenes.path\lBuilding.pathComponents.PathCreation\lTests.ConnectComponentToStartingLocationTest">
<polygon fill="white" stroke="black" points="1016.5,-60.5 1016.5,-101.5 1263.5,-101.5 1263.5,-60.5 1016.5,-60.5"/>
<text text-anchor="start" x="1024.5" y="-89.5" font-family="Helvetica,sans-Serif" font-size="10.00">gameAuthoring.scenes.path</text>
<text text-anchor="start" x="1024.5" y="-78.5" font-family="Helvetica,sans-Serif" font-size="10.00">Building.pathComponents.PathCreation</text>
<text text-anchor="middle" x="1140" y="-67.5" font-family="Helvetica,sans-Serif" font-size="10.00">Tests.ConnectComponentToStartingLocationTest</text>
</a>
</g>
</g>
<!-- Node4&#45;&gt;Node10 -->
<g id="edge9" class="edge"><title>Node4&#45;&gt;Node10</title>
<path fill="none" stroke="midnightblue" d="M868.986,-513.844C897.391,-468.903 950.732,-379.178 980,-296 1007.8,-216.984 958.179,-171.607 1016,-111 1019.34,-107.501 1023.01,-104.382 1026.94,-101.604"/>
<polygon fill="midnightblue" stroke="midnightblue" points="865.907,-512.163 863.487,-522.478 871.811,-515.924 865.907,-512.163"/>
</g>
<!-- Node11 -->
<g id="node11" class="node"><title>Node11</title>
<g id="a_node11"><a xlink:href="../../d2/d34/classgame_authoring_1_1scenes_1_1path_building_1_1path_components_1_1_path_creation_tests.html#abc7f89653e322c800da5fc26c4719b5a" target="_top" xlink:title="gameAuthoring.scenes.path\lBuilding.pathComponents.PathCreation\lTests.ConnectLineToCurveTest">
<polygon fill="white" stroke="black" points="1037.5,-792.5 1037.5,-833.5 1242.5,-833.5 1242.5,-792.5 1037.5,-792.5"/>
<text text-anchor="start" x="1045.5" y="-821.5" font-family="Helvetica,sans-Serif" font-size="10.00">gameAuthoring.scenes.path</text>
<text text-anchor="start" x="1045.5" y="-810.5" font-family="Helvetica,sans-Serif" font-size="10.00">Building.pathComponents.PathCreation</text>
<text text-anchor="middle" x="1140" y="-799.5" font-family="Helvetica,sans-Serif" font-size="10.00">Tests.ConnectLineToCurveTest</text>
</a>
</g>
</g>
<!-- Node4&#45;&gt;Node11 -->
<g id="edge10" class="edge"><title>Node4&#45;&gt;Node11</title>
<path fill="none" stroke="midnightblue" d="M869.86,-572.157C912.792,-635.112 1010.82,-778.414 1016,-782 1022.61,-786.574 1029.84,-790.473 1037.37,-793.798"/>
<polygon fill="midnightblue" stroke="midnightblue" points="872.708,-570.121 864.183,-563.83 866.924,-574.064 872.708,-570.121"/>
</g>
<!-- Node12 -->
<g id="node12" class="node"><title>Node12</title>
<g id="a_node12"><a xlink:href="../../d2/d34/classgame_authoring_1_1scenes_1_1path_building_1_1path_components_1_1_path_creation_tests.html#a7271f13f8ea9f6e6f9137d8237802963" target="_top" xlink:title="gameAuthoring.scenes.path\lBuilding.pathComponents.PathCreation\lTests.ConnectRoutesTest">
<polygon fill="white" stroke="black" points="1037.5,-732.5 1037.5,-773.5 1242.5,-773.5 1242.5,-732.5 1037.5,-732.5"/>
<text text-anchor="start" x="1045.5" y="-761.5" font-family="Helvetica,sans-Serif" font-size="10.00">gameAuthoring.scenes.path</text>
<text text-anchor="start" x="1045.5" y="-750.5" font-family="Helvetica,sans-Serif" font-size="10.00">Building.pathComponents.PathCreation</text>
<text text-anchor="middle" x="1140" y="-739.5" font-family="Helvetica,sans-Serif" font-size="10.00">Tests.ConnectRoutesTest</text>
</a>
</g>
</g>
<!-- Node4&#45;&gt;Node12 -->
<g id="edge11" class="edge"><title>Node4&#45;&gt;Node12</title>
<path fill="none" stroke="midnightblue" d="M868.965,-572.305C896.462,-612.368 951.256,-683.631 1016,-722 1022.73,-725.986 1029.95,-729.462 1037.41,-732.494"/>
<polygon fill="midnightblue" stroke="midnightblue" points="871.701,-570.103 863.202,-563.778 865.902,-574.023 871.701,-570.103"/>
</g>
<!-- Node13 -->
<g id="node13" class="node"><title>Node13</title>
<g id="a_node13"><a xlink:href="../../d2/d34/classgame_authoring_1_1scenes_1_1path_building_1_1path_components_1_1_path_creation_tests.html#a890f9b36b921569b05338a8b8658e03b" target="_top" xlink:title="gameAuthoring.scenes.path\lBuilding.pathComponents.PathCreation\lTests.ConnectTwoCurvesTest">
<polygon fill="white" stroke="black" points="1037.5,-672.5 1037.5,-713.5 1242.5,-713.5 1242.5,-672.5 1037.5,-672.5"/>
<text text-anchor="start" x="1045.5" y="-701.5" font-family="Helvetica,sans-Serif" font-size="10.00">gameAuthoring.scenes.path</text>
<text text-anchor="start" x="1045.5" y="-690.5" font-family="Helvetica,sans-Serif" font-size="10.00">Building.pathComponents.PathCreation</text>
<text text-anchor="middle" x="1140" y="-679.5" font-family="Helvetica,sans-Serif" font-size="10.00">Tests.ConnectTwoCurvesTest</text>
</a>
</g>
</g>
<!-- Node4&#45;&gt;Node13 -->
<g id="edge12" class="edge"><title>Node4&#45;&gt;Node13</title>
<path fill="none" stroke="midnightblue" d="M880.297,-570.14C911.994,-597.167 964.256,-637.991 1016,-662 1024.49,-665.939 1033.55,-669.425 1042.76,-672.499"/>
<polygon fill="midnightblue" stroke="midnightblue" points="882.554,-567.464 872.695,-563.585 877.982,-572.766 882.554,-567.464"/>
</g>
<!-- Node14 -->
<g id="node14" class="node"><title>Node14</title>
<g id="a_node14"><a xlink:href="../../d2/d34/classgame_authoring_1_1scenes_1_1path_building_1_1path_components_1_1_path_creation_tests.html#ad3d391bd2d9c1a46dc8244db73f7448a" target="_top" xlink:title="gameAuthoring.scenes.path\lBuilding.pathComponents.PathCreation\lTests.ConnectTwoLinesTest">
<polygon fill="white" stroke="black" points="1037.5,-612.5 1037.5,-653.5 1242.5,-653.5 1242.5,-612.5 1037.5,-612.5"/>
<text text-anchor="start" x="1045.5" y="-641.5" font-family="Helvetica,sans-Serif" font-size="10.00">gameAuthoring.scenes.path</text>
<text text-anchor="start" x="1045.5" y="-630.5" font-family="Helvetica,sans-Serif" font-size="10.00">Building.pathComponents.PathCreation</text>
<text text-anchor="middle" x="1140" y="-619.5" font-family="Helvetica,sans-Serif" font-size="10.00">Tests.ConnectTwoLinesTest</text>
</a>
</g>
</g>
<!-- Node4&#45;&gt;Node14 -->
<g id="edge13" class="edge"><title>Node4&#45;&gt;Node14</title>
<path fill="none" stroke="midnightblue" d="M913.498,-567.158C944.23,-578.441 981.795,-591.636 1016,-602 1027.91,-605.608 1040.55,-609.133 1053.02,-612.437"/>
<polygon fill="midnightblue" stroke="midnightblue" points="914.367,-563.748 903.774,-563.568 911.943,-570.315 914.367,-563.748"/>
</g>
<!-- Node15 -->
<g id="node15" class="node"><title>Node15</title>
<g id="a_node15"><a xlink:href="../../d2/d34/classgame_authoring_1_1scenes_1_1path_building_1_1path_components_1_1_path_creation_tests.html#a1f6df71a1808af781e53fb0ebe9eb1fa" target="_top" xlink:title="gameAuthoring.scenes.path\lBuilding.pathComponents.PathCreation\lTests.CreateTwoRoutesTest">
<polygon fill="white" stroke="black" points="1037.5,-552.5 1037.5,-593.5 1242.5,-593.5 1242.5,-552.5 1037.5,-552.5"/>
<text text-anchor="start" x="1045.5" y="-581.5" font-family="Helvetica,sans-Serif" font-size="10.00">gameAuthoring.scenes.path</text>
<text text-anchor="start" x="1045.5" y="-570.5" font-family="Helvetica,sans-Serif" font-size="10.00">Building.pathComponents.PathCreation</text>
<text text-anchor="middle" x="1140" y="-559.5" font-family="Helvetica,sans-Serif" font-size="10.00">Tests.CreateTwoRoutesTest</text>
</a>
</g>
</g>
<!-- Node4&#45;&gt;Node15 -->
<g id="edge14" class="edge"><title>Node4&#45;&gt;Node15</title>
<path fill="none" stroke="midnightblue" d="M951.938,-553.582C979.656,-556.459 1009.67,-559.575 1037.37,-562.45"/>
<polygon fill="midnightblue" stroke="midnightblue" points="952.146,-550.085 941.838,-552.533 951.424,-557.047 952.146,-550.085"/>
</g>
<!-- Node16 -->
<g id="node16" class="node"><title>Node16</title>
<g id="a_node16"><a xlink:href="../../d2/d34/classgame_authoring_1_1scenes_1_1path_building_1_1path_components_1_1_path_creation_tests.html#af5b11ca9b84de06fbdf1bdd7ddf1b459" target="_top" xlink:title="gameAuthoring.scenes.path\lBuilding.pathComponents.PathCreation\lTests.GetRouteContainingComponentTest">
<polygon fill="white" stroke="black" points="1033,-492.5 1033,-533.5 1247,-533.5 1247,-492.5 1033,-492.5"/>
<text text-anchor="start" x="1041" y="-521.5" font-family="Helvetica,sans-Serif" font-size="10.00">gameAuthoring.scenes.path</text>
<text text-anchor="start" x="1041" y="-510.5" font-family="Helvetica,sans-Serif" font-size="10.00">Building.pathComponents.PathCreation</text>
<text text-anchor="middle" x="1140" y="-499.5" font-family="Helvetica,sans-Serif" font-size="10.00">Tests.GetRouteContainingComponentTest</text>
</a>
</g>
</g>
<!-- Node4&#45;&gt;Node16 -->
<g id="edge15" class="edge"><title>Node4&#45;&gt;Node16</title>
<path fill="none" stroke="midnightblue" d="M951.786,-532.434C978.024,-529.71 1006.33,-526.772 1032.79,-524.026"/>
<polygon fill="midnightblue" stroke="midnightblue" points="951.424,-528.953 941.838,-533.467 952.146,-535.915 951.424,-528.953"/>
</g>
<!-- Node17 -->
<g id="node17" class="node"><title>Node17</title>
<g id="a_node17"><a xlink:href="../../db/d5b/classgame_authoring_1_1scenes_1_1path_building_1_1building_panes_1_1_line_drawing_pane.html#a1592c5e4b43e931037cfcf357896ff4e" target="_top" xlink:title="gameAuthoring.scenes.path\lBuilding.buildingPanes.LineDrawing\lPane.handleBuildScreenClick">
<polygon fill="white" stroke="black" points="1048.5,-432.5 1048.5,-473.5 1231.5,-473.5 1231.5,-432.5 1048.5,-432.5"/>
<text text-anchor="start" x="1056.5" y="-461.5" font-family="Helvetica,sans-Serif" font-size="10.00">gameAuthoring.scenes.path</text>
<text text-anchor="start" x="1056.5" y="-450.5" font-family="Helvetica,sans-Serif" font-size="10.00">Building.buildingPanes.LineDrawing</text>
<text text-anchor="middle" x="1140" y="-439.5" font-family="Helvetica,sans-Serif" font-size="10.00">Pane.handleBuildScreenClick</text>
</a>
</g>
</g>
<!-- Node4&#45;&gt;Node17 -->
<g id="edge16" class="edge"><title>Node4&#45;&gt;Node17</title>
<path fill="none" stroke="midnightblue" d="M911.609,-518.942C942.653,-507.279 981.037,-493.549 1016,-483 1026.84,-479.73 1038.29,-476.562 1049.68,-473.587"/>
<polygon fill="midnightblue" stroke="midnightblue" points="910.34,-515.68 902.223,-522.489 912.814,-522.228 910.34,-515.68"/>
</g>
<!-- Node18 -->
<g id="node18" class="node"><title>Node18</title>
<g id="a_node18"><a xlink:href="../../d1/dad/classgame_authoring_1_1scenes_1_1path_building_1_1building_panes_1_1_curve_drawing_pane.html#a9b35c65041978c3a4628a16e26033a42" target="_top" xlink:title="gameAuthoring.scenes.path\lBuilding.buildingPanes.CurveDrawing\lPane.handleBuildScreenClick">
<polygon fill="white" stroke="black" points="1044.5,-372.5 1044.5,-413.5 1235.5,-413.5 1235.5,-372.5 1044.5,-372.5"/>
<text text-anchor="start" x="1052.5" y="-401.5" font-family="Helvetica,sans-Serif" font-size="10.00">gameAuthoring.scenes.path</text>
<text text-anchor="start" x="1052.5" y="-390.5" font-family="Helvetica,sans-Serif" font-size="10.00">Building.buildingPanes.CurveDrawing</text>
<text text-anchor="middle" x="1140" y="-379.5" font-family="Helvetica,sans-Serif" font-size="10.00">Pane.handleBuildScreenClick</text>
</a>
</g>
</g>
<!-- Node4&#45;&gt;Node18 -->
<g id="edge17" class="edge"><title>Node4&#45;&gt;Node18</title>
<path fill="none" stroke="midnightblue" d="M879.946,-515.772C911.552,-488.445 963.914,-447.05 1016,-423 1024.98,-418.854 1034.6,-415.238 1044.37,-412.094"/>
<polygon fill="midnightblue" stroke="midnightblue" points="877.594,-513.179 872.371,-522.397 882.202,-518.448 877.594,-513.179"/>
</g>
<!-- Node21 -->
<g id="node21" class="node"><title>Node21</title>
<g id="a_node21"><a xlink:href="../../d0/d17/classgame_authoring_1_1scenes_1_1path_building_1_1path_components_1_1route_to_point_translation_02993d587809a0174c9c81c680c3a1c8.html#a112d08c7563a9a6d9b371ea3c5fb0015" target="_top" xlink:title="gameAuthoring.scenes.path\lBuilding.pathComponents.routeTo\lPointTranslation.BackendRouteTranslation\lTests.testRoutesTranslation">
<polygon fill="white" stroke="black" points="1033,-301 1033,-353 1247,-353 1247,-301 1033,-301"/>
<text text-anchor="start" x="1041" y="-341" font-family="Helvetica,sans-Serif" font-size="10.00">gameAuthoring.scenes.path</text>
<text text-anchor="start" x="1041" y="-330" font-family="Helvetica,sans-Serif" font-size="10.00">Building.pathComponents.routeTo</text>
<text text-anchor="start" x="1041" y="-319" font-family="Helvetica,sans-Serif" font-size="10.00">PointTranslation.BackendRouteTranslation</text>
<text text-anchor="middle" x="1140" y="-308" font-family="Helvetica,sans-Serif" font-size="10.00">Tests.testRoutesTranslation</text>
</a>
</g>
</g>
<!-- Node4&#45;&gt;Node21 -->
<g id="edge21" class="edge"><title>Node4&#45;&gt;Node21</title>
<path fill="none" stroke="midnightblue" d="M869.134,-513.873C896.83,-473.987 951.856,-402.795 1016,-363 1021.86,-359.364 1028.11,-356.08 1034.56,-353.117"/>
<polygon fill="midnightblue" stroke="midnightblue" points="866.086,-512.129 863.327,-522.359 871.863,-516.083 866.086,-512.129"/>
</g>
<!-- Node19 -->
<g id="node19" class="node"><title>Node19</title>
<g id="a_node19"><a xlink:href="../../d1/dad/classgame_authoring_1_1scenes_1_1path_building_1_1building_panes_1_1_curve_drawing_pane.html#a4157681e1cbd0859e25b7ece8ff99a56" target="_top" xlink:title="gameAuthoring.scenes.path\lBuilding.buildingPanes.CurveDrawing\lPane.addListeners">
<polygon fill="white" stroke="black" points="1310.5,-372.5 1310.5,-413.5 1501.5,-413.5 1501.5,-372.5 1310.5,-372.5"/>
<text text-anchor="start" x="1318.5" y="-401.5" font-family="Helvetica,sans-Serif" font-size="10.00">gameAuthoring.scenes.path</text>
<text text-anchor="start" x="1318.5" y="-390.5" font-family="Helvetica,sans-Serif" font-size="10.00">Building.buildingPanes.CurveDrawing</text>
<text text-anchor="middle" x="1406" y="-379.5" font-family="Helvetica,sans-Serif" font-size="10.00">Pane.addListeners</text>
</a>
</g>
</g>
<!-- Node18&#45;&gt;Node19 -->
<g id="edge18" class="edge"><title>Node18&#45;&gt;Node19</title>
<path fill="none" stroke="midnightblue" d="M1245.61,-386.381C1266.93,-386.174 1289.25,-386.212 1310.21,-386.494"/>
<polygon fill="midnightblue" stroke="midnightblue" points="1245.52,-382.882 1235.56,-386.497 1245.6,-389.881 1245.52,-382.882"/>
</g>
<!-- Node19&#45;&gt;Node18 -->
<g id="edge20" class="edge"><title>Node19&#45;&gt;Node18</title>
<path fill="none" stroke="midnightblue" d="M1300.16,-399.621C1278.83,-399.826 1256.51,-399.786 1235.56,-399.503"/>
<polygon fill="midnightblue" stroke="midnightblue" points="1300.25,-403.121 1310.21,-399.506 1300.17,-396.121 1300.25,-403.121"/>
</g>
<!-- Node20 -->
<g id="node20" class="node"><title>Node20</title>
<g id="a_node20"><a xlink:href="../../d1/dad/classgame_authoring_1_1scenes_1_1path_building_1_1building_panes_1_1_curve_drawing_pane.html#a5e42a8d5bc78ce626583ea766277b804" target="_top" xlink:title="gameAuthoring.scenes.path\lBuilding.buildingPanes.CurveDrawing\lPane.executeEnterFunction">
<polygon fill="white" stroke="black" points="1558.5,-372.5 1558.5,-413.5 1749.5,-413.5 1749.5,-372.5 1558.5,-372.5"/>
<text text-anchor="start" x="1566.5" y="-401.5" font-family="Helvetica,sans-Serif" font-size="10.00">gameAuthoring.scenes.path</text>
<text text-anchor="start" x="1566.5" y="-390.5" font-family="Helvetica,sans-Serif" font-size="10.00">Building.buildingPanes.CurveDrawing</text>
<text text-anchor="middle" x="1654" y="-379.5" font-family="Helvetica,sans-Serif" font-size="10.00">Pane.executeEnterFunction</text>
</a>
</g>
</g>
<!-- Node19&#45;&gt;Node20 -->
<g id="edge19" class="edge"><title>Node19&#45;&gt;Node20</title>
<path fill="none" stroke="midnightblue" d="M1511.83,-393C1527.26,-393 1543.08,-393 1558.29,-393"/>
<polygon fill="midnightblue" stroke="midnightblue" points="1511.76,-389.5 1501.76,-393 1511.76,-396.5 1511.76,-389.5"/>
</g>
<!-- Node23 -->
<g id="node23" class="node"><title>Node23</title>
<g id="a_node23"><a xlink:href="../../d7/da7/classgame_authoring_1_1scenes_1_1path_building_1_1building_panes_1_1_select_component_pane.html#a6f69903216e7f0c8dc628fd667a50496" target="_top" xlink:title="gameAuthoring.scenes.path\lBuilding.buildingPanes.SelectComponent\lPane.addSelectionListeners">
<polygon fill="white" stroke="black" points="1034,-0.5 1034,-41.5 1246,-41.5 1246,-0.5 1034,-0.5"/>
<text text-anchor="start" x="1042" y="-29.5" font-family="Helvetica,sans-Serif" font-size="10.00">gameAuthoring.scenes.path</text>
<text text-anchor="start" x="1042" y="-18.5" font-family="Helvetica,sans-Serif" font-size="10.00">Building.buildingPanes.SelectComponent</text>
<text text-anchor="middle" x="1140" y="-7.5" font-family="Helvetica,sans-Serif" font-size="10.00">Pane.addSelectionListeners</text>
</a>
</g>
</g>
<!-- Node22&#45;&gt;Node23 -->
<g id="edge25" class="edge"><title>Node22&#45;&gt;Node23</title>
<path fill="none" stroke="midnightblue" d="M864.397,-237.217C888.778,-190.066 942.779,-98.6993 1016,-51 1021.62,-47.3407 1027.64,-44.1276 1033.9,-41.3061"/>
<polygon fill="midnightblue" stroke="midnightblue" points="861.189,-235.803 859.783,-246.304 867.431,-238.972 861.189,-235.803"/>
</g>
<!-- Node24 -->
<g id="node24" class="node"><title>Node24</title>
<g id="a_node24"><a xlink:href="../../d7/da7/classgame_authoring_1_1scenes_1_1path_building_1_1building_panes_1_1_select_component_pane.html#ab264186c3b2f4ed9391d64633b70d5ed" target="_top" xlink:title="gameAuthoring.scenes.path\lBuilding.buildingPanes.SelectComponent\lPane.addListenersToComponents">
<polygon fill="white" stroke="black" points="1300,-0.5 1300,-41.5 1512,-41.5 1512,-0.5 1300,-0.5"/>
<text text-anchor="start" x="1308" y="-29.5" font-family="Helvetica,sans-Serif" font-size="10.00">gameAuthoring.scenes.path</text>
<text text-anchor="start" x="1308" y="-18.5" font-family="Helvetica,sans-Serif" font-size="10.00">Building.buildingPanes.SelectComponent</text>
<text text-anchor="middle" x="1406" y="-7.5" font-family="Helvetica,sans-Serif" font-size="10.00">Pane.addListenersToComponents</text>
</a>
</g>
</g>
<!-- Node23&#45;&gt;Node24 -->
<g id="edge26" class="edge"><title>Node23&#45;&gt;Node24</title>
<path fill="none" stroke="midnightblue" d="M1256.11,-21C1270.65,-21 1285.46,-21 1299.83,-21"/>
<polygon fill="midnightblue" stroke="midnightblue" points="1256.1,-17.5001 1246.1,-21 1256.1,-24.5001 1256.1,-17.5001"/>
</g>
<!-- Node25 -->
<g id="node25" class="node"><title>Node25</title>
<g id="a_node25"><a xlink:href="../../d7/da7/classgame_authoring_1_1scenes_1_1path_building_1_1building_panes_1_1_select_component_pane.html#a102b73ae9c6cab53a0738a3be5f8e3a4" target="_top" xlink:title="gameAuthoring.scenes.path\lBuilding.buildingPanes.SelectComponent\lPane.executeEnterFunction">
<polygon fill="white" stroke="black" points="1548,-0.5 1548,-41.5 1760,-41.5 1760,-0.5 1548,-0.5"/>
<text text-anchor="start" x="1556" y="-29.5" font-family="Helvetica,sans-Serif" font-size="10.00">gameAuthoring.scenes.path</text>
<text text-anchor="start" x="1556" y="-18.5" font-family="Helvetica,sans-Serif" font-size="10.00">Building.buildingPanes.SelectComponent</text>
<text text-anchor="middle" x="1654" y="-7.5" font-family="Helvetica,sans-Serif" font-size="10.00">Pane.executeEnterFunction</text>
</a>
</g>
</g>
<!-- Node24&#45;&gt;Node25 -->
<g id="edge27" class="edge"><title>Node24&#45;&gt;Node25</title>
<path fill="none" stroke="midnightblue" d="M1522.11,-21C1530.72,-21 1539.38,-21 1547.92,-21"/>
<polygon fill="midnightblue" stroke="midnightblue" points="1522.04,-17.5001 1512.04,-21 1522.04,-24.5001 1522.04,-17.5001"/>
</g>
</g>
</svg>
        <g id="navigator" transform="translate(0 0)" fill="#404254">
                <rect fill="#f2f5e9" fill-opacity="0.5" stroke="#606060" stroke-width=".5" x="0" y="0" width="60" height="60"/>
                <use id="zoomplus" xlink:href="#zoomPlus" x="17" y="9" onmousedown="handleZoom(evt,'in')"/>
                <use id="zoomminus" xlink:href="#zoomMin" x="42" y="9" onmousedown="handleZoom(evt,'out')"/>
                <use id="reset" xlink:href="#resetDef" x="30" y="36" onmousedown="handleReset()"/>
                <g id="arrowUp" xlink:href="#dirArrow" transform="translate(30 24)" onmousedown="handlePan(0,-1)">
                  <use xlink:href="#rim" fill="#404040">
                        <set attributeName="fill" to="#808080" begin="arrowUp.mouseover" end="arrowUp.mouseout"/>
                  </use>
                  <path fill="none" stroke="white" stroke-width="1.5" d="M0,-3.0v7 M-2.5,-0.5L0,-3.0L2.5,-0.5"/>
                </g>
                <g id="arrowRight" xlink:href="#dirArrow" transform="rotate(90) translate(36 -43)" onmousedown="handlePan(1,0)">
                  <use xlink:href="#rim" fill="#404040">
                        <set attributeName="fill" to="#808080" begin="arrowRight.mouseover" end="arrowRight.mouseout"/>
                  </use>
                  <path fill="none" stroke="white" stroke-width="1.5" d="M0,-3.0v7 M-2.5,-0.5L0,-3.0L2.5,-0.5"/>
                </g>
                <g id="arrowDown" xlink:href="#dirArrow" transform="rotate(180) translate(-30 -48)" onmousedown="handlePan(0,1)">
                  <use xlink:href="#rim" fill="#404040">
                        <set attributeName="fill" to="#808080" begin="arrowDown.mouseover" end="arrowDown.mouseout"/>
                  </use>
                  <path fill="none" stroke="white" stroke-width="1.5" d="M0,-3.0v7 M-2.5,-0.5L0,-3.0L2.5,-0.5"/>
                </g>
                <g id="arrowLeft" xlink:href="#dirArrow" transform="rotate(270) translate(-36 17)" onmousedown="handlePan(-1,0)">
                  <use xlink:href="#rim" fill="#404040">
                        <set attributeName="fill" to="#808080" begin="arrowLeft.mouseover" end="arrowLeft.mouseout"/>
                  </use>
                  <path fill="none" stroke="white" stroke-width="1.5" d="M0,-3.0v7 M-2.5,-0.5L0,-3.0L2.5,-0.5"/>
                </g>
        </g>
        <svg viewBox="0 0 15 15" width="100%" height="30px" preserveAspectRatio="xMaxYMin meet">
         <g id="arrow_out" transform="scale(0.3 0.3)">
          <a xlink:href="classgame_authoring_1_1scenes_1_1path_building_1_1path_components_1_1_path_route_aeee9e89e67151550871dc81b5c2c8938_icgraph_org.svg" target="_base">
           <rect id="button" ry="5" rx="5" y="6" x="6" height="38" width="38"
                fill="#f2f5e9" fill-opacity="0.5" stroke="#606060" stroke-width="1.0"/>
           <path id="arrow"
             d="M 11.500037,31.436501 C 11.940474,20.09759 22.043105,11.32322 32.158766,21.979434 L 37.068811,17.246167 C 37.068811,17.246167 37.088388,32 37.088388,32 L 22.160133,31.978069 C 22.160133,31.978069 26.997745,27.140456 26.997745,27.140456 C 18.528582,18.264221 13.291696,25.230495 11.500037,31.436501 z"
             style="fill:#404040;"/>
          </a>
         </g>
        </svg>
</svg>
