<?xml version="1.0" encoding="UTF-8" standalone="no"?>
<!DOCTYPE svg PUBLIC "-//W3C//DTD SVG 1.1//EN"
 "http://www.w3.org/Graphics/SVG/1.1/DTD/svg11.dtd">
<!-- Generated by graphviz version 2.36.0 (20140111.2315)
 -->
<!-- Title: gameAuthoring.scenes.pathBuilding.pathComponents.PathRoute.getLast Pages: 1 -->
<!--zoomable 962 -->
<svg id="main" version="1.1" xmlns="http://www.w3.org/2000/svg" xmlns:xlink="http://www.w3.org/1999/xlink" xml:space="preserve" onload="init(evt)">
<style type="text/css"><![CDATA[
.edge:hover path { stroke: red; }
.edge:hover polygon { stroke: red; fill: red; }
]]></style>
<script type="text/javascript"><![CDATA[
var edges = document.getElementsByTagName('g');
if (edges && edges.length) {
  for (var i=0;i<edges.length;i++) {
    if (edges[i].id.substr(0,4)=='edge') {
      edges[i].setAttribute('class','edge');
    }
  }
}
]]></script>
        <defs>
                <circle id="rim" cx="0" cy="0" r="7"/>
                <circle id="rim2" cx="0" cy="0" r="3.5"/>
                <g id="zoomPlus">
                        <use xlink:href="#rim" fill="#404040">
                                <set attributeName="fill" to="#808080" begin="zoomplus.mouseover" end="zoomplus.mouseout"/>
                        </use>
                        <path d="M-4,0h8M0,-4v8" fill="none" stroke="white" stroke-width="1.5" pointer-events="none"/>
                </g>
                <g id="zoomMin">
                        <use xlink:href="#rim" fill="#404040">
                                <set attributeName="fill" to="#808080" begin="zoomminus.mouseover" end="zoomminus.mouseout"/>
                        </use>
                        <path d="M-4,0h8" fill="none" stroke="white" stroke-width="1.5" pointer-events="none"/>
                </g>
                <g id="dirArrow">
                        <path fill="none" stroke="white" stroke-width="1.5" d="M0,-3.0v7 M-2.5,-0.5L0,-3.0L2.5,-0.5"/>
                </g>
               <g id="resetDef">
                       <use xlink:href="#rim2" fill="#404040">
                               <set attributeName="fill" to="#808080" begin="reset.mouseover" end="reset.mouseout"/>
                       </use>
               </g>
        </defs>

<script type="text/javascript">
var viewWidth = 1800;
var viewHeight = 962;
var sectionId = 'dynsection-9';
</script>
<script xlink:href="../../svgpan.js"/>
<svg id="graph" class="graph">
<g id="viewport">
<title>gameAuthoring.scenes.pathBuilding.pathComponents.PathRoute.getLast</title>
<polygon fill="white" stroke="none" points="-4,4 -4,-958 1796,-958 1796,4 -4,4"/>
<!-- Node1 -->
<g id="node1" class="node"><title>Node1</title>
<polygon fill="#bfbfbf" stroke="black" points="0,-773 0,-803 230,-803 230,-773 0,-773"/>
<text text-anchor="start" x="8" y="-791" font-family="Helvetica,sans-Serif" font-size="10.00">gameAuthoring.scenes.path</text>
<text text-anchor="middle" x="115" y="-780" font-family="Helvetica,sans-Serif" font-size="10.00">Building.pathComponents.PathRoute.getLast</text>
</g>
<!-- Node2 -->
<g id="node2" class="node"><title>Node2</title>
<g id="a_node2"><a xlink:href="../../d1/d65/classgame_authoring_1_1scenes_1_1path_building_1_1path_components_1_1_path.html#af2f92d642a6fe0c48c6b87193d462f00" target="_top" xlink:title="gameAuthoring.scenes.path\lBuilding.pathComponents.Path.attempt\lToConnectRoutes">
<polygon fill="white" stroke="black" points="508,-792.5 508,-833.5 714,-833.5 714,-792.5 508,-792.5"/>
<text text-anchor="start" x="516" y="-821.5" font-family="Helvetica,sans-Serif" font-size="10.00">gameAuthoring.scenes.path</text>
<text text-anchor="start" x="516" y="-810.5" font-family="Helvetica,sans-Serif" font-size="10.00">Building.pathComponents.Path.attempt</text>
<text text-anchor="middle" x="611" y="-799.5" font-family="Helvetica,sans-Serif" font-size="10.00">ToConnectRoutes</text>
</a>
</g>
</g>
<!-- Node1&#45;&gt;Node2 -->
<g id="edge1" class="edge"><title>Node1&#45;&gt;Node2</title>
<path fill="none" stroke="midnightblue" d="M240.464,-794.299C323.029,-798.477 430.059,-803.894 507.665,-807.821"/>
<polygon fill="midnightblue" stroke="midnightblue" points="240.429,-790.793 230.264,-793.783 240.075,-797.784 240.429,-790.793"/>
</g>
<!-- Node25 -->
<g id="node25" class="node"><title>Node25</title>
<g id="a_node25"><a xlink:href="../../d1/d65/classgame_authoring_1_1scenes_1_1path_building_1_1path_components_1_1_path.html#ab8d42b0db73a69b6c63a74445e552045" target="_top" xlink:title="gameAuthoring.scenes.path\lBuilding.pathComponents.Path.connect\lRoutes">
<polygon fill="white" stroke="black" points="266,-743.5 266,-784.5 472,-784.5 472,-743.5 266,-743.5"/>
<text text-anchor="start" x="274" y="-772.5" font-family="Helvetica,sans-Serif" font-size="10.00">gameAuthoring.scenes.path</text>
<text text-anchor="start" x="274" y="-761.5" font-family="Helvetica,sans-Serif" font-size="10.00">Building.pathComponents.Path.connect</text>
<text text-anchor="middle" x="369" y="-750.5" font-family="Helvetica,sans-Serif" font-size="10.00">Routes</text>
</a>
</g>
</g>
<!-- Node1&#45;&gt;Node25 -->
<g id="edge27" class="edge"><title>Node1&#45;&gt;Node25</title>
<path fill="none" stroke="midnightblue" d="M240.226,-776.169C248.776,-775.355 257.337,-774.539 265.752,-773.738"/>
<polygon fill="midnightblue" stroke="midnightblue" points="239.826,-772.691 230.203,-777.124 240.49,-779.66 239.826,-772.691"/>
</g>
<!-- Node3 -->
<g id="node3" class="node"><title>Node3</title>
<g id="a_node3"><a xlink:href="../../d1/d65/classgame_authoring_1_1scenes_1_1path_building_1_1path_components_1_1_path.html#acffcf828c8875053d700834381b6b747" target="_top" xlink:title="gameAuthoring.scenes.path\lBuilding.pathComponents.Path.add\lComponentToPath">
<polygon fill="white" stroke="black" points="788.5,-450.5 788.5,-491.5 973.5,-491.5 973.5,-450.5 788.5,-450.5"/>
<text text-anchor="start" x="796.5" y="-479.5" font-family="Helvetica,sans-Serif" font-size="10.00">gameAuthoring.scenes.path</text>
<text text-anchor="start" x="796.5" y="-468.5" font-family="Helvetica,sans-Serif" font-size="10.00">Building.pathComponents.Path.add</text>
<text text-anchor="middle" x="881" y="-457.5" font-family="Helvetica,sans-Serif" font-size="10.00">ComponentToPath</text>
</a>
</g>
</g>
<!-- Node2&#45;&gt;Node3 -->
<g id="edge2" class="edge"><title>Node2&#45;&gt;Node3</title>
<path fill="none" stroke="midnightblue" d="M634.491,-784.299C687.256,-716.964 817.994,-550.127 863.818,-491.65"/>
<polygon fill="midnightblue" stroke="midnightblue" points="631.574,-782.347 628.161,-792.377 637.084,-786.664 631.574,-782.347"/>
</g>
<!-- Node6 -->
<g id="node6" class="node"><title>Node6</title>
<g id="a_node6"><a xlink:href="../../d2/d34/classgame_authoring_1_1scenes_1_1path_building_1_1path_components_1_1_path_creation_tests.html#ac9531a7f491a2dd23e3f1f4fefeae341" target="_top" xlink:title="gameAuthoring.scenes.path\lBuilding.pathComponents.PathCreation\lTests.AttemptToConnectRoutesFORKTest">
<polygon fill="white" stroke="black" points="1068,-852.5 1068,-893.5 1276,-893.5 1276,-852.5 1068,-852.5"/>
<text text-anchor="start" x="1076" y="-881.5" font-family="Helvetica,sans-Serif" font-size="10.00">gameAuthoring.scenes.path</text>
<text text-anchor="start" x="1076" y="-870.5" font-family="Helvetica,sans-Serif" font-size="10.00">Building.pathComponents.PathCreation</text>
<text text-anchor="middle" x="1172" y="-859.5" font-family="Helvetica,sans-Serif" font-size="10.00">Tests.AttemptToConnectRoutesFORKTest</text>
</a>
</g>
</g>
<!-- Node2&#45;&gt;Node6 -->
<g id="edge21" class="edge"><title>Node2&#45;&gt;Node6</title>
<path fill="none" stroke="midnightblue" d="M724.367,-825.061C824.603,-835.82 970.163,-851.443 1067.58,-861.899"/>
<polygon fill="midnightblue" stroke="midnightblue" points="724.52,-821.557 714.204,-823.97 723.773,-828.517 724.52,-821.557"/>
</g>
<!-- Node7 -->
<g id="node7" class="node"><title>Node7</title>
<g id="a_node7"><a xlink:href="../../d2/d34/classgame_authoring_1_1scenes_1_1path_building_1_1path_components_1_1_path_creation_tests.html#a6981d0f68e924cf3aca2ebb00a781c66" target="_top" xlink:title="gameAuthoring.scenes.path\lBuilding.pathComponents.PathCreation\lTests.AttemptToConnectRoutesNoForkTest">
<polygon fill="white" stroke="black" points="1063,-792.5 1063,-833.5 1281,-833.5 1281,-792.5 1063,-792.5"/>
<text text-anchor="start" x="1071" y="-821.5" font-family="Helvetica,sans-Serif" font-size="10.00">gameAuthoring.scenes.path</text>
<text text-anchor="start" x="1071" y="-810.5" font-family="Helvetica,sans-Serif" font-size="10.00">Building.pathComponents.PathCreation</text>
<text text-anchor="middle" x="1172" y="-799.5" font-family="Helvetica,sans-Serif" font-size="10.00">Tests.AttemptToConnectRoutesNoForkTest</text>
</a>
</g>
</g>
<!-- Node2&#45;&gt;Node7 -->
<g id="edge22" class="edge"><title>Node2&#45;&gt;Node7</title>
<path fill="none" stroke="midnightblue" d="M724.205,-813C822.819,-813 965.394,-813 1062.8,-813"/>
<polygon fill="midnightblue" stroke="midnightblue" points="724.204,-809.5 714.204,-813 724.204,-816.5 724.204,-809.5"/>
</g>
<!-- Node21 -->
<g id="node21" class="node"><title>Node21</title>
<g id="a_node21"><a xlink:href="../../d7/da7/classgame_authoring_1_1scenes_1_1path_building_1_1building_panes_1_1_select_component_pane.html#abfee75cf2b6d4ca0978cc7b44d15f3de" target="_top" xlink:title="gameAuthoring.scenes.path\lBuilding.buildingPanes.SelectComponent\lPane.handleSelectionAndTryToConnectComponents">
<polygon fill="white" stroke="black" points="750,-901.5 750,-942.5 1012,-942.5 1012,-901.5 750,-901.5"/>
<text text-anchor="start" x="758" y="-930.5" font-family="Helvetica,sans-Serif" font-size="10.00">gameAuthoring.scenes.path</text>
<text text-anchor="start" x="758" y="-919.5" font-family="Helvetica,sans-Serif" font-size="10.00">Building.buildingPanes.SelectComponent</text>
<text text-anchor="middle" x="881" y="-908.5" font-family="Helvetica,sans-Serif" font-size="10.00">Pane.handleSelectionAndTryToConnectComponents</text>
</a>
</g>
</g>
<!-- Node2&#45;&gt;Node21 -->
<g id="edge23" class="edge"><title>Node2&#45;&gt;Node21</title>
<path fill="none" stroke="midnightblue" d="M663.657,-837.891C689.374,-849.947 721.077,-864.307 750,-876 772.085,-884.928 796.64,-893.865 818.41,-901.455"/>
<polygon fill="midnightblue" stroke="midnightblue" points="665.007,-834.658 654.469,-833.563 662.024,-840.991 665.007,-834.658"/>
</g>
<!-- Node4 -->
<g id="node4" class="node"><title>Node4</title>
<g id="a_node4"><a xlink:href="../../d2/d34/classgame_authoring_1_1scenes_1_1path_building_1_1path_components_1_1_path_creation_tests.html#a0911a7565ec3a567911ed649f2c837d0" target="_top" xlink:title="gameAuthoring.scenes.path\lBuilding.pathComponents.PathCreation\lTests.AddSingleCurveComponentTest">
<polygon fill="white" stroke="black" points="1069.5,-540.5 1069.5,-581.5 1274.5,-581.5 1274.5,-540.5 1069.5,-540.5"/>
<text text-anchor="start" x="1077.5" y="-569.5" font-family="Helvetica,sans-Serif" font-size="10.00">gameAuthoring.scenes.path</text>
<text text-anchor="start" x="1077.5" y="-558.5" font-family="Helvetica,sans-Serif" font-size="10.00">Building.pathComponents.PathCreation</text>
<text text-anchor="middle" x="1172" y="-547.5" font-family="Helvetica,sans-Serif" font-size="10.00">Tests.AddSingleCurveComponentTest</text>
</a>
</g>
</g>
<!-- Node3&#45;&gt;Node4 -->
<g id="edge3" class="edge"><title>Node3&#45;&gt;Node4</title>
<path fill="none" stroke="midnightblue" d="M945.498,-495.158C976.23,-506.441 1013.8,-519.636 1048,-530 1059.91,-533.608 1072.55,-537.133 1085.02,-540.437"/>
<polygon fill="midnightblue" stroke="midnightblue" points="946.367,-491.748 935.774,-491.568 943.943,-498.315 946.367,-491.748"/>
</g>
<!-- Node5 -->
<g id="node5" class="node"><title>Node5</title>
<g id="a_node5"><a xlink:href="../../d2/d34/classgame_authoring_1_1scenes_1_1path_building_1_1path_components_1_1_path_creation_tests.html#a8299a5b4ff7674dbfa2223a26fd4c2db" target="_top" xlink:title="gameAuthoring.scenes.path\lBuilding.pathComponents.PathCreation\lTests.AddSingleLineComponentTest">
<polygon fill="white" stroke="black" points="1069.5,-480.5 1069.5,-521.5 1274.5,-521.5 1274.5,-480.5 1069.5,-480.5"/>
<text text-anchor="start" x="1077.5" y="-509.5" font-family="Helvetica,sans-Serif" font-size="10.00">gameAuthoring.scenes.path</text>
<text text-anchor="start" x="1077.5" y="-498.5" font-family="Helvetica,sans-Serif" font-size="10.00">Building.pathComponents.PathCreation</text>
<text text-anchor="middle" x="1172" y="-487.5" font-family="Helvetica,sans-Serif" font-size="10.00">Tests.AddSingleLineComponentTest</text>
</a>
</g>
</g>
<!-- Node3&#45;&gt;Node5 -->
<g id="edge4" class="edge"><title>Node3&#45;&gt;Node5</title>
<path fill="none" stroke="midnightblue" d="M983.938,-481.582C1011.66,-484.459 1041.67,-487.575 1069.37,-490.45"/>
<polygon fill="midnightblue" stroke="midnightblue" points="984.146,-478.085 973.838,-480.533 983.424,-485.047 984.146,-478.085"/>
</g>
<!-- Node3&#45;&gt;Node6 -->
<g id="edge5" class="edge"><title>Node3&#45;&gt;Node6</title>
<path fill="none" stroke="midnightblue" d="M886.535,-501.695C898.734,-572.958 939.032,-750.5 1048,-842 1053.99,-847.027 1060.68,-851.256 1067.76,-854.812"/>
<polygon fill="midnightblue" stroke="midnightblue" points="889.949,-500.886 884.873,-491.586 883.042,-502.022 889.949,-500.886"/>
</g>
<!-- Node3&#45;&gt;Node7 -->
<g id="edge6" class="edge"><title>Node3&#45;&gt;Node7</title>
<path fill="none" stroke="midnightblue" d="M889.366,-501.529C906.133,-564.243 953.238,-707.892 1048,-782 1053.03,-785.934 1058.5,-789.375 1064.24,-792.383"/>
<polygon fill="midnightblue" stroke="midnightblue" points="892.749,-500.631 886.845,-491.834 885.974,-502.393 892.749,-500.631"/>
</g>
<!-- Node8 -->
<g id="node8" class="node"><title>Node8</title>
<g id="a_node8"><a xlink:href="../../d2/d34/classgame_authoring_1_1scenes_1_1path_building_1_1path_components_1_1_path_creation_tests.html#adbb59fd676db1e150df898e9509dd212" target="_top" xlink:title="gameAuthoring.scenes.path\lBuilding.pathComponents.PathCreation\lTests.ConnectComponentToEndingLocationTest">
<polygon fill="white" stroke="black" points="1051.5,-420.5 1051.5,-461.5 1292.5,-461.5 1292.5,-420.5 1051.5,-420.5"/>
<text text-anchor="start" x="1059.5" y="-449.5" font-family="Helvetica,sans-Serif" font-size="10.00">gameAuthoring.scenes.path</text>
<text text-anchor="start" x="1059.5" y="-438.5" font-family="Helvetica,sans-Serif" font-size="10.00">Building.pathComponents.PathCreation</text>
<text text-anchor="middle" x="1172" y="-427.5" font-family="Helvetica,sans-Serif" font-size="10.00">Tests.ConnectComponentToEndingLocationTest</text>
</a>
</g>
</g>
<!-- Node3&#45;&gt;Node8 -->
<g id="edge7" class="edge"><title>Node3&#45;&gt;Node8</title>
<path fill="none" stroke="midnightblue" d="M984.063,-460.405C1005.83,-458.146 1029,-455.741 1051.35,-453.42"/>
<polygon fill="midnightblue" stroke="midnightblue" points="983.424,-456.953 973.838,-461.467 984.146,-463.915 983.424,-456.953"/>
</g>
<!-- Node9 -->
<g id="node9" class="node"><title>Node9</title>
<g id="a_node9"><a xlink:href="../../d2/d34/classgame_authoring_1_1scenes_1_1path_building_1_1path_components_1_1_path_creation_tests.html#afcc8871849fbf8c9a24a5b382c77a167" target="_top" xlink:title="gameAuthoring.scenes.path\lBuilding.pathComponents.PathCreation\lTests.ConnectComponentToStartingLocationTest">
<polygon fill="white" stroke="black" points="1048.5,-360.5 1048.5,-401.5 1295.5,-401.5 1295.5,-360.5 1048.5,-360.5"/>
<text text-anchor="start" x="1056.5" y="-389.5" font-family="Helvetica,sans-Serif" font-size="10.00">gameAuthoring.scenes.path</text>
<text text-anchor="start" x="1056.5" y="-378.5" font-family="Helvetica,sans-Serif" font-size="10.00">Building.pathComponents.PathCreation</text>
<text text-anchor="middle" x="1172" y="-367.5" font-family="Helvetica,sans-Serif" font-size="10.00">Tests.ConnectComponentToStartingLocationTest</text>
</a>
</g>
</g>
<!-- Node3&#45;&gt;Node9 -->
<g id="edge8" class="edge"><title>Node3&#45;&gt;Node9</title>
<path fill="none" stroke="midnightblue" d="M943.609,-446.942C974.653,-435.279 1013.04,-421.549 1048,-411 1058.84,-407.73 1070.29,-404.562 1081.68,-401.587"/>
<polygon fill="midnightblue" stroke="midnightblue" points="942.34,-443.68 934.223,-450.489 944.814,-450.228 942.34,-443.68"/>
</g>
<!-- Node10 -->
<g id="node10" class="node"><title>Node10</title>
<g id="a_node10"><a xlink:href="../../d2/d34/classgame_authoring_1_1scenes_1_1path_building_1_1path_components_1_1_path_creation_tests.html#abc7f89653e322c800da5fc26c4719b5a" target="_top" xlink:title="gameAuthoring.scenes.path\lBuilding.pathComponents.PathCreation\lTests.ConnectLineToCurveTest">
<polygon fill="white" stroke="black" points="1069.5,-300.5 1069.5,-341.5 1274.5,-341.5 1274.5,-300.5 1069.5,-300.5"/>
<text text-anchor="start" x="1077.5" y="-329.5" font-family="Helvetica,sans-Serif" font-size="10.00">gameAuthoring.scenes.path</text>
<text text-anchor="start" x="1077.5" y="-318.5" font-family="Helvetica,sans-Serif" font-size="10.00">Building.pathComponents.PathCreation</text>
<text text-anchor="middle" x="1172" y="-307.5" font-family="Helvetica,sans-Serif" font-size="10.00">Tests.ConnectLineToCurveTest</text>
</a>
</g>
</g>
<!-- Node3&#45;&gt;Node10 -->
<g id="edge9" class="edge"><title>Node3&#45;&gt;Node10</title>
<path fill="none" stroke="midnightblue" d="M911.946,-443.772C943.552,-416.445 995.914,-375.05 1048,-351 1055.58,-347.499 1063.63,-344.376 1071.82,-341.596"/>
<polygon fill="midnightblue" stroke="midnightblue" points="909.594,-441.179 904.371,-450.397 914.202,-446.448 909.594,-441.179"/>
</g>
<!-- Node11 -->
<g id="node11" class="node"><title>Node11</title>
<g id="a_node11"><a xlink:href="../../d2/d34/classgame_authoring_1_1scenes_1_1path_building_1_1path_components_1_1_path_creation_tests.html#a7271f13f8ea9f6e6f9137d8237802963" target="_top" xlink:title="gameAuthoring.scenes.path\lBuilding.pathComponents.PathCreation\lTests.ConnectRoutesTest">
<polygon fill="white" stroke="black" points="1069.5,-0.5 1069.5,-41.5 1274.5,-41.5 1274.5,-0.5 1069.5,-0.5"/>
<text text-anchor="start" x="1077.5" y="-29.5" font-family="Helvetica,sans-Serif" font-size="10.00">gameAuthoring.scenes.path</text>
<text text-anchor="start" x="1077.5" y="-18.5" font-family="Helvetica,sans-Serif" font-size="10.00">Building.pathComponents.PathCreation</text>
<text text-anchor="middle" x="1172" y="-7.5" font-family="Helvetica,sans-Serif" font-size="10.00">Tests.ConnectRoutesTest</text>
</a>
</g>
</g>
<!-- Node3&#45;&gt;Node11 -->
<g id="edge10" class="edge"><title>Node3&#45;&gt;Node11</title>
<path fill="none" stroke="midnightblue" d="M903.676,-442.115C932.961,-401.607 984.637,-324.609 1012,-251 1043.47,-166.343 986.118,-116.786 1048,-51 1054.1,-44.5159 1061.35,-39.3326 1069.23,-35.2007"/>
<polygon fill="midnightblue" stroke="midnightblue" points="900.679,-440.285 897.61,-450.426 906.333,-444.412 900.679,-440.285"/>
</g>
<!-- Node12 -->
<g id="node12" class="node"><title>Node12</title>
<g id="a_node12"><a xlink:href="../../d2/d34/classgame_authoring_1_1scenes_1_1path_building_1_1path_components_1_1_path_creation_tests.html#a890f9b36b921569b05338a8b8658e03b" target="_top" xlink:title="gameAuthoring.scenes.path\lBuilding.pathComponents.PathCreation\lTests.ConnectTwoCurvesTest">
<polygon fill="white" stroke="black" points="1069.5,-240.5 1069.5,-281.5 1274.5,-281.5 1274.5,-240.5 1069.5,-240.5"/>
<text text-anchor="start" x="1077.5" y="-269.5" font-family="Helvetica,sans-Serif" font-size="10.00">gameAuthoring.scenes.path</text>
<text text-anchor="start" x="1077.5" y="-258.5" font-family="Helvetica,sans-Serif" font-size="10.00">Building.pathComponents.PathCreation</text>
<text text-anchor="middle" x="1172" y="-247.5" font-family="Helvetica,sans-Serif" font-size="10.00">Tests.ConnectTwoCurvesTest</text>
</a>
</g>
</g>
<!-- Node3&#45;&gt;Node12 -->
<g id="edge11" class="edge"><title>Node3&#45;&gt;Node12</title>
<path fill="none" stroke="midnightblue" d="M900.497,-442.029C927.769,-401.765 982.66,-329.507 1048,-291 1054.72,-287.038 1061.95,-283.598 1069.4,-280.612"/>
<polygon fill="midnightblue" stroke="midnightblue" points="897.584,-440.089 894.947,-450.35 903.408,-443.973 897.584,-440.089"/>
</g>
<!-- Node13 -->
<g id="node13" class="node"><title>Node13</title>
<g id="a_node13"><a xlink:href="../../d2/d34/classgame_authoring_1_1scenes_1_1path_building_1_1path_components_1_1_path_creation_tests.html#ad3d391bd2d9c1a46dc8244db73f7448a" target="_top" xlink:title="gameAuthoring.scenes.path\lBuilding.pathComponents.PathCreation\lTests.ConnectTwoLinesTest">
<polygon fill="white" stroke="black" points="1069.5,-180.5 1069.5,-221.5 1274.5,-221.5 1274.5,-180.5 1069.5,-180.5"/>
<text text-anchor="start" x="1077.5" y="-209.5" font-family="Helvetica,sans-Serif" font-size="10.00">gameAuthoring.scenes.path</text>
<text text-anchor="start" x="1077.5" y="-198.5" font-family="Helvetica,sans-Serif" font-size="10.00">Building.pathComponents.PathCreation</text>
<text text-anchor="middle" x="1172" y="-187.5" font-family="Helvetica,sans-Serif" font-size="10.00">Tests.ConnectTwoLinesTest</text>
</a>
</g>
</g>
<!-- Node3&#45;&gt;Node13 -->
<g id="edge12" class="edge"><title>Node3&#45;&gt;Node13</title>
<path fill="none" stroke="midnightblue" d="M894.175,-440.915C916.582,-389.506 969.373,-285.076 1048,-231 1054.61,-226.454 1061.84,-222.594 1069.37,-219.317"/>
<polygon fill="midnightblue" stroke="midnightblue" points="890.933,-439.596 890.222,-450.167 897.37,-442.346 890.933,-439.596"/>
</g>
<!-- Node14 -->
<g id="node14" class="node"><title>Node14</title>
<g id="a_node14"><a xlink:href="../../d2/d34/classgame_authoring_1_1scenes_1_1path_building_1_1path_components_1_1_path_creation_tests.html#a1f6df71a1808af781e53fb0ebe9eb1fa" target="_top" xlink:title="gameAuthoring.scenes.path\lBuilding.pathComponents.PathCreation\lTests.CreateTwoRoutesTest">
<polygon fill="white" stroke="black" points="1069.5,-120.5 1069.5,-161.5 1274.5,-161.5 1274.5,-120.5 1069.5,-120.5"/>
<text text-anchor="start" x="1077.5" y="-149.5" font-family="Helvetica,sans-Serif" font-size="10.00">gameAuthoring.scenes.path</text>
<text text-anchor="start" x="1077.5" y="-138.5" font-family="Helvetica,sans-Serif" font-size="10.00">Building.pathComponents.PathCreation</text>
<text text-anchor="middle" x="1172" y="-127.5" font-family="Helvetica,sans-Serif" font-size="10.00">Tests.CreateTwoRoutesTest</text>
</a>
</g>
</g>
<!-- Node3&#45;&gt;Node14 -->
<g id="edge13" class="edge"><title>Node3&#45;&gt;Node14</title>
<path fill="none" stroke="midnightblue" d="M900.754,-441.66C927.033,-400.032 975.666,-321.085 1012,-251 1029.95,-216.385 1018.02,-195.926 1048,-171 1054.42,-165.66 1061.65,-161.245 1069.3,-157.597"/>
<polygon fill="midnightblue" stroke="midnightblue" points="897.738,-439.882 895.344,-450.203 903.651,-443.627 897.738,-439.882"/>
</g>
<!-- Node15 -->
<g id="node15" class="node"><title>Node15</title>
<g id="a_node15"><a xlink:href="../../d2/d34/classgame_authoring_1_1scenes_1_1path_building_1_1path_components_1_1_path_creation_tests.html#af5b11ca9b84de06fbdf1bdd7ddf1b459" target="_top" xlink:title="gameAuthoring.scenes.path\lBuilding.pathComponents.PathCreation\lTests.GetRouteContainingComponentTest">
<polygon fill="white" stroke="black" points="1065,-60.5 1065,-101.5 1279,-101.5 1279,-60.5 1065,-60.5"/>
<text text-anchor="start" x="1073" y="-89.5" font-family="Helvetica,sans-Serif" font-size="10.00">gameAuthoring.scenes.path</text>
<text text-anchor="start" x="1073" y="-78.5" font-family="Helvetica,sans-Serif" font-size="10.00">Building.pathComponents.PathCreation</text>
<text text-anchor="middle" x="1172" y="-67.5" font-family="Helvetica,sans-Serif" font-size="10.00">Tests.GetRouteContainingComponentTest</text>
</a>
</g>
</g>
<!-- Node3&#45;&gt;Node15 -->
<g id="edge14" class="edge"><title>Node3&#45;&gt;Node15</title>
<path fill="none" stroke="midnightblue" d="M902.685,-442.135C931.034,-401.362 981.869,-323.743 1012,-251 1036.59,-191.644 1002.29,-156.145 1048,-111 1053,-106.058 1058.68,-101.882 1064.78,-98.3587"/>
<polygon fill="midnightblue" stroke="midnightblue" points="899.697,-440.3 896.824,-450.498 905.429,-444.317 899.697,-440.3"/>
</g>
<!-- Node16 -->
<g id="node16" class="node"><title>Node16</title>
<g id="a_node16"><a xlink:href="../../db/d5b/classgame_authoring_1_1scenes_1_1path_building_1_1building_panes_1_1_line_drawing_pane.html#a1592c5e4b43e931037cfcf357896ff4e" target="_top" xlink:title="gameAuthoring.scenes.path\lBuilding.buildingPanes.LineDrawing\lPane.handleBuildScreenClick">
<polygon fill="white" stroke="black" points="1080.5,-732.5 1080.5,-773.5 1263.5,-773.5 1263.5,-732.5 1080.5,-732.5"/>
<text text-anchor="start" x="1088.5" y="-761.5" font-family="Helvetica,sans-Serif" font-size="10.00">gameAuthoring.scenes.path</text>
<text text-anchor="start" x="1088.5" y="-750.5" font-family="Helvetica,sans-Serif" font-size="10.00">Building.buildingPanes.LineDrawing</text>
<text text-anchor="middle" x="1172" y="-739.5" font-family="Helvetica,sans-Serif" font-size="10.00">Pane.handleBuildScreenClick</text>
</a>
</g>
</g>
<!-- Node3&#45;&gt;Node16 -->
<g id="edge15" class="edge"><title>Node3&#45;&gt;Node16</title>
<path fill="none" stroke="midnightblue" d="M893.343,-501.194C914.932,-554.406 967.119,-664.662 1048,-722 1057.7,-728.877 1068.78,-734.233 1080.23,-738.402"/>
<polygon fill="midnightblue" stroke="midnightblue" points="896.494,-499.648 889.55,-491.646 889.989,-502.232 896.494,-499.648"/>
</g>
<!-- Node17 -->
<g id="node17" class="node"><title>Node17</title>
<g id="a_node17"><a xlink:href="../../d1/dad/classgame_authoring_1_1scenes_1_1path_building_1_1building_panes_1_1_curve_drawing_pane.html#a9b35c65041978c3a4628a16e26033a42" target="_top" xlink:title="gameAuthoring.scenes.path\lBuilding.buildingPanes.CurveDrawing\lPane.handleBuildScreenClick">
<polygon fill="white" stroke="black" points="1076.5,-672.5 1076.5,-713.5 1267.5,-713.5 1267.5,-672.5 1076.5,-672.5"/>
<text text-anchor="start" x="1084.5" y="-701.5" font-family="Helvetica,sans-Serif" font-size="10.00">gameAuthoring.scenes.path</text>
<text text-anchor="start" x="1084.5" y="-690.5" font-family="Helvetica,sans-Serif" font-size="10.00">Building.buildingPanes.CurveDrawing</text>
<text text-anchor="middle" x="1172" y="-679.5" font-family="Helvetica,sans-Serif" font-size="10.00">Pane.handleBuildScreenClick</text>
</a>
</g>
</g>
<!-- Node3&#45;&gt;Node17 -->
<g id="edge16" class="edge"><title>Node3&#45;&gt;Node17</title>
<path fill="none" stroke="midnightblue" d="M899.271,-500.365C925.765,-542.751 980.526,-620.529 1048,-662 1056.72,-667.362 1066.34,-671.799 1076.23,-675.47"/>
<polygon fill="midnightblue" stroke="midnightblue" points="902.121,-498.319 893.901,-491.635 896.159,-501.986 902.121,-498.319"/>
</g>
<!-- Node20 -->
<g id="node20" class="node"><title>Node20</title>
<g id="a_node20"><a xlink:href="../../d0/d17/classgame_authoring_1_1scenes_1_1path_building_1_1path_components_1_1route_to_point_translation_02993d587809a0174c9c81c680c3a1c8.html#a112d08c7563a9a6d9b371ea3c5fb0015" target="_top" xlink:title="gameAuthoring.scenes.path\lBuilding.pathComponents.routeTo\lPointTranslation.BackendRouteTranslation\lTests.testRoutesTranslation">
<polygon fill="white" stroke="black" points="1065,-601 1065,-653 1279,-653 1279,-601 1065,-601"/>
<text text-anchor="start" x="1073" y="-641" font-family="Helvetica,sans-Serif" font-size="10.00">gameAuthoring.scenes.path</text>
<text text-anchor="start" x="1073" y="-630" font-family="Helvetica,sans-Serif" font-size="10.00">Building.pathComponents.routeTo</text>
<text text-anchor="start" x="1073" y="-619" font-family="Helvetica,sans-Serif" font-size="10.00">PointTranslation.BackendRouteTranslation</text>
<text text-anchor="middle" x="1172" y="-608" font-family="Helvetica,sans-Serif" font-size="10.00">Tests.testRoutesTranslation</text>
</a>
</g>
</g>
<!-- Node3&#45;&gt;Node20 -->
<g id="edge20" class="edge"><title>Node3&#45;&gt;Node20</title>
<path fill="none" stroke="midnightblue" d="M913.078,-498.116C945.008,-524.764 997.106,-564.97 1048,-590 1056.1,-593.986 1064.72,-597.636 1073.49,-600.958"/>
<polygon fill="midnightblue" stroke="midnightblue" points="915.31,-495.42 905.408,-491.651 910.798,-500.772 915.31,-495.42"/>
</g>
<!-- Node18 -->
<g id="node18" class="node"><title>Node18</title>
<g id="a_node18"><a xlink:href="../../d1/dad/classgame_authoring_1_1scenes_1_1path_building_1_1building_panes_1_1_curve_drawing_pane.html#a4157681e1cbd0859e25b7ece8ff99a56" target="_top" xlink:title="gameAuthoring.scenes.path\lBuilding.buildingPanes.CurveDrawing\lPane.addListeners">
<polygon fill="white" stroke="black" points="1342.5,-672.5 1342.5,-713.5 1533.5,-713.5 1533.5,-672.5 1342.5,-672.5"/>
<text text-anchor="start" x="1350.5" y="-701.5" font-family="Helvetica,sans-Serif" font-size="10.00">gameAuthoring.scenes.path</text>
<text text-anchor="start" x="1350.5" y="-690.5" font-family="Helvetica,sans-Serif" font-size="10.00">Building.buildingPanes.CurveDrawing</text>
<text text-anchor="middle" x="1438" y="-679.5" font-family="Helvetica,sans-Serif" font-size="10.00">Pane.addListeners</text>
</a>
</g>
</g>
<!-- Node17&#45;&gt;Node18 -->
<g id="edge17" class="edge"><title>Node17&#45;&gt;Node18</title>
<path fill="none" stroke="midnightblue" d="M1277.61,-686.381C1298.93,-686.174 1321.25,-686.212 1342.21,-686.494"/>
<polygon fill="midnightblue" stroke="midnightblue" points="1277.52,-682.882 1267.56,-686.497 1277.6,-689.881 1277.52,-682.882"/>
</g>
<!-- Node18&#45;&gt;Node17 -->
<g id="edge19" class="edge"><title>Node18&#45;&gt;Node17</title>
<path fill="none" stroke="midnightblue" d="M1332.16,-699.621C1310.83,-699.826 1288.51,-699.786 1267.56,-699.503"/>
<polygon fill="midnightblue" stroke="midnightblue" points="1332.25,-703.121 1342.21,-699.506 1332.17,-696.121 1332.25,-703.121"/>
</g>
<!-- Node19 -->
<g id="node19" class="node"><title>Node19</title>
<g id="a_node19"><a xlink:href="../../d1/dad/classgame_authoring_1_1scenes_1_1path_building_1_1building_panes_1_1_curve_drawing_pane.html#a5e42a8d5bc78ce626583ea766277b804" target="_top" xlink:title="gameAuthoring.scenes.path\lBuilding.buildingPanes.CurveDrawing\lPane.executeEnterFunction">
<polygon fill="white" stroke="black" points="1590.5,-672.5 1590.5,-713.5 1781.5,-713.5 1781.5,-672.5 1590.5,-672.5"/>
<text text-anchor="start" x="1598.5" y="-701.5" font-family="Helvetica,sans-Serif" font-size="10.00">gameAuthoring.scenes.path</text>
<text text-anchor="start" x="1598.5" y="-690.5" font-family="Helvetica,sans-Serif" font-size="10.00">Building.buildingPanes.CurveDrawing</text>
<text text-anchor="middle" x="1686" y="-679.5" font-family="Helvetica,sans-Serif" font-size="10.00">Pane.executeEnterFunction</text>
</a>
</g>
</g>
<!-- Node18&#45;&gt;Node19 -->
<g id="edge18" class="edge"><title>Node18&#45;&gt;Node19</title>
<path fill="none" stroke="midnightblue" d="M1543.83,-693C1559.26,-693 1575.08,-693 1590.29,-693"/>
<polygon fill="midnightblue" stroke="midnightblue" points="1543.76,-689.5 1533.76,-693 1543.76,-696.5 1543.76,-689.5"/>
</g>
<!-- Node22 -->
<g id="node22" class="node"><title>Node22</title>
<g id="a_node22"><a xlink:href="../../d7/da7/classgame_authoring_1_1scenes_1_1path_building_1_1building_panes_1_1_select_component_pane.html#a6f69903216e7f0c8dc628fd667a50496" target="_top" xlink:title="gameAuthoring.scenes.path\lBuilding.buildingPanes.SelectComponent\lPane.addSelectionListeners">
<polygon fill="white" stroke="black" points="1066,-912.5 1066,-953.5 1278,-953.5 1278,-912.5 1066,-912.5"/>
<text text-anchor="start" x="1074" y="-941.5" font-family="Helvetica,sans-Serif" font-size="10.00">gameAuthoring.scenes.path</text>
<text text-anchor="start" x="1074" y="-930.5" font-family="Helvetica,sans-Serif" font-size="10.00">Building.buildingPanes.SelectComponent</text>
<text text-anchor="middle" x="1172" y="-919.5" font-family="Helvetica,sans-Serif" font-size="10.00">Pane.addSelectionListeners</text>
</a>
</g>
</g>
<!-- Node21&#45;&gt;Node22 -->
<g id="edge24" class="edge"><title>Node21&#45;&gt;Node22</title>
<path fill="none" stroke="midnightblue" d="M1022.26,-927.339C1036.93,-927.897 1051.66,-928.457 1065.83,-928.997"/>
<polygon fill="midnightblue" stroke="midnightblue" points="1022.25,-923.836 1012.13,-926.953 1021.99,-930.831 1022.25,-923.836"/>
</g>
<!-- Node23 -->
<g id="node23" class="node"><title>Node23</title>
<g id="a_node23"><a xlink:href="../../d7/da7/classgame_authoring_1_1scenes_1_1path_building_1_1building_panes_1_1_select_component_pane.html#ab264186c3b2f4ed9391d64633b70d5ed" target="_top" xlink:title="gameAuthoring.scenes.path\lBuilding.buildingPanes.SelectComponent\lPane.addListenersToComponents">
<polygon fill="white" stroke="black" points="1332,-912.5 1332,-953.5 1544,-953.5 1544,-912.5 1332,-912.5"/>
<text text-anchor="start" x="1340" y="-941.5" font-family="Helvetica,sans-Serif" font-size="10.00">gameAuthoring.scenes.path</text>
<text text-anchor="start" x="1340" y="-930.5" font-family="Helvetica,sans-Serif" font-size="10.00">Building.buildingPanes.SelectComponent</text>
<text text-anchor="middle" x="1438" y="-919.5" font-family="Helvetica,sans-Serif" font-size="10.00">Pane.addListenersToComponents</text>
</a>
</g>
</g>
<!-- Node22&#45;&gt;Node23 -->
<g id="edge25" class="edge"><title>Node22&#45;&gt;Node23</title>
<path fill="none" stroke="midnightblue" d="M1288.11,-933C1302.65,-933 1317.46,-933 1331.83,-933"/>
<polygon fill="midnightblue" stroke="midnightblue" points="1288.1,-929.5 1278.1,-933 1288.1,-936.5 1288.1,-929.5"/>
</g>
<!-- Node24 -->
<g id="node24" class="node"><title>Node24</title>
<g id="a_node24"><a xlink:href="../../d7/da7/classgame_authoring_1_1scenes_1_1path_building_1_1building_panes_1_1_select_component_pane.html#a102b73ae9c6cab53a0738a3be5f8e3a4" target="_top" xlink:title="gameAuthoring.scenes.path\lBuilding.buildingPanes.SelectComponent\lPane.executeEnterFunction">
<polygon fill="white" stroke="black" points="1580,-912.5 1580,-953.5 1792,-953.5 1792,-912.5 1580,-912.5"/>
<text text-anchor="start" x="1588" y="-941.5" font-family="Helvetica,sans-Serif" font-size="10.00">gameAuthoring.scenes.path</text>
<text text-anchor="start" x="1588" y="-930.5" font-family="Helvetica,sans-Serif" font-size="10.00">Building.buildingPanes.SelectComponent</text>
<text text-anchor="middle" x="1686" y="-919.5" font-family="Helvetica,sans-Serif" font-size="10.00">Pane.executeEnterFunction</text>
</a>
</g>
</g>
<!-- Node23&#45;&gt;Node24 -->
<g id="edge26" class="edge"><title>Node23&#45;&gt;Node24</title>
<path fill="none" stroke="midnightblue" d="M1554.11,-933C1562.72,-933 1571.38,-933 1579.92,-933"/>
<polygon fill="midnightblue" stroke="midnightblue" points="1554.04,-929.5 1544.04,-933 1554.04,-936.5 1554.04,-929.5"/>
</g>
<!-- Node25&#45;&gt;Node2 -->
<g id="edge28" class="edge"><title>Node25&#45;&gt;Node2</title>
<path fill="none" stroke="midnightblue" d="M480.71,-786.603C490.316,-788.564 500.002,-790.542 509.519,-792.485"/>
<polygon fill="midnightblue" stroke="midnightblue" points="481.236,-783.139 470.738,-784.567 479.836,-789.997 481.236,-783.139"/>
</g>
<!-- Node25&#45;&gt;Node11 -->
<g id="edge29" class="edge"><title>Node25&#45;&gt;Node11</title>
<path fill="none" stroke="midnightblue" d="M388.49,-734.781C459.206,-625.578 724.859,-238.124 1048,-51 1054.75,-47.0898 1062,-43.6871 1069.47,-40.7265"/>
<polygon fill="midnightblue" stroke="midnightblue" points="385.462,-733.018 382.991,-743.321 391.347,-736.808 385.462,-733.018"/>
</g>
</g>
</svg>
        <g id="navigator" transform="translate(0 0)" fill="#404254">
                <rect fill="#f2f5e9" fill-opacity="0.5" stroke="#606060" stroke-width=".5" x="0" y="0" width="60" height="60"/>
                <use id="zoomplus" xlink:href="#zoomPlus" x="17" y="9" onmousedown="handleZoom(evt,'in')"/>
                <use id="zoomminus" xlink:href="#zoomMin" x="42" y="9" onmousedown="handleZoom(evt,'out')"/>
                <use id="reset" xlink:href="#resetDef" x="30" y="36" onmousedown="handleReset()"/>
                <g id="arrowUp" xlink:href="#dirArrow" transform="translate(30 24)" onmousedown="handlePan(0,-1)">
                  <use xlink:href="#rim" fill="#404040">
                        <set attributeName="fill" to="#808080" begin="arrowUp.mouseover" end="arrowUp.mouseout"/>
                  </use>
                  <path fill="none" stroke="white" stroke-width="1.5" d="M0,-3.0v7 M-2.5,-0.5L0,-3.0L2.5,-0.5"/>
                </g>
                <g id="arrowRight" xlink:href="#dirArrow" transform="rotate(90) translate(36 -43)" onmousedown="handlePan(1,0)">
                  <use xlink:href="#rim" fill="#404040">
                        <set attributeName="fill" to="#808080" begin="arrowRight.mouseover" end="arrowRight.mouseout"/>
                  </use>
                  <path fill="none" stroke="white" stroke-width="1.5" d="M0,-3.0v7 M-2.5,-0.5L0,-3.0L2.5,-0.5"/>
                </g>
                <g id="arrowDown" xlink:href="#dirArrow" transform="rotate(180) translate(-30 -48)" onmousedown="handlePan(0,1)">
                  <use xlink:href="#rim" fill="#404040">
                        <set attributeName="fill" to="#808080" begin="arrowDown.mouseover" end="arrowDown.mouseout"/>
                  </use>
                  <path fill="none" stroke="white" stroke-width="1.5" d="M0,-3.0v7 M-2.5,-0.5L0,-3.0L2.5,-0.5"/>
                </g>
                <g id="arrowLeft" xlink:href="#dirArrow" transform="rotate(270) translate(-36 17)" onmousedown="handlePan(-1,0)">
                  <use xlink:href="#rim" fill="#404040">
                        <set attributeName="fill" to="#808080" begin="arrowLeft.mouseover" end="arrowLeft.mouseout"/>
                  </use>
                  <path fill="none" stroke="white" stroke-width="1.5" d="M0,-3.0v7 M-2.5,-0.5L0,-3.0L2.5,-0.5"/>
                </g>
        </g>
        <svg viewBox="0 0 15 15" width="100%" height="30px" preserveAspectRatio="xMaxYMin meet">
         <g id="arrow_out" transform="scale(0.3 0.3)">
          <a xlink:href="classgame_authoring_1_1scenes_1_1path_building_1_1path_components_1_1_path_route_aa9aab066fdb4fe1e6a4b37f991b9ad4b_icgraph_org.svg" target="_base">
           <rect id="button" ry="5" rx="5" y="6" x="6" height="38" width="38"
                fill="#f2f5e9" fill-opacity="0.5" stroke="#606060" stroke-width="1.0"/>
           <path id="arrow"
             d="M 11.500037,31.436501 C 11.940474,20.09759 22.043105,11.32322 32.158766,21.979434 L 37.068811,17.246167 C 37.068811,17.246167 37.088388,32 37.088388,32 L 22.160133,31.978069 C 22.160133,31.978069 26.997745,27.140456 26.997745,27.140456 C 18.528582,18.264221 13.291696,25.230495 11.500037,31.436501 z"
             style="fill:#404040;"/>
          </a>
         </g>
        </svg>
</svg>
