<?xml version="1.0" encoding="UTF-8" standalone="no"?>
<!DOCTYPE svg PUBLIC "-//W3C//DTD SVG 1.1//EN"
 "http://www.w3.org/Graphics/SVG/1.1/DTD/svg11.dtd">
<!-- Generated by graphviz version 2.36.0 (20140111.2315)
 -->
<!-- Title: utilities.JavaFXutilities.numericalTextFields.LabeledNumericalTextField Pages: 1 -->
<svg width="271pt" height="178pt"
 viewBox="0.00 0.00 271.00 178.00" xmlns="http://www.w3.org/2000/svg" xmlns:xlink="http://www.w3.org/1999/xlink">
<g id="graph0" class="graph" transform="scale(1 1) rotate(0) translate(4 174)">
<title>utilities.JavaFXutilities.numericalTextFields.LabeledNumericalTextField</title>
<polygon fill="white" stroke="none" points="-4,4 -4,-174 267,-174 267,4 -4,4"/>
<!-- Node1 -->
<g id="node1" class="node"><title>Node1</title>
<polygon fill="#bfbfbf" stroke="black" points="-0.5,-1 -0.5,-31 190.5,-31 190.5,-1 -0.5,-1"/>
<text text-anchor="start" x="7.5" y="-19" font-family="Helvetica,sans-Serif" font-size="10.00">utilities.JavaFXutilities.numerical</text>
<text text-anchor="middle" x="95" y="-8" font-family="Helvetica,sans-Serif" font-size="10.00">TextFields.LabeledNumericalTextField</text>
</g>
<!-- Node2 -->
<g id="node2" class="node"><title>Node2</title>
<polygon fill="white" stroke="#bfbfbf" points="36.5,-86.5 36.5,-105.5 77.5,-105.5 77.5,-86.5 36.5,-86.5"/>
<text text-anchor="middle" x="57" y="-93.5" font-family="Helvetica,sans-Serif" font-size="10.00">VBox</text>
</g>
<!-- Node2&#45;&gt;Node1 -->
<g id="edge1" class="edge"><title>Node2&#45;&gt;Node1</title>
<path fill="none" stroke="midnightblue" d="M65.6265,-77.2931C72.4176,-63.3533 81.7586,-44.1797 88.0689,-31.227"/>
<polygon fill="midnightblue" stroke="midnightblue" points="62.4451,-75.8318 61.2119,-86.3546 68.7381,-78.8976 62.4451,-75.8318"/>
</g>
<!-- Node3 -->
<g id="node3" class="node"><title>Node3</title>
<g id="a_node3"><a xlink:href="../../dc/dc4/classutilities_1_1_java_f_xutilities_1_1numerical_text_fields_1_1_numerical_text_field.html" target="_top" xlink:title="utilities.JavaFXutilities.numerical\lTextFields.NumericalTextField">
<polygon fill="white" stroke="black" points="95,-81 95,-111 263,-111 263,-81 95,-81"/>
<text text-anchor="start" x="103" y="-99" font-family="Helvetica,sans-Serif" font-size="10.00">utilities.JavaFXutilities.numerical</text>
<text text-anchor="middle" x="179" y="-88" font-family="Helvetica,sans-Serif" font-size="10.00">TextFields.NumericalTextField</text>
</a>
</g>
</g>
<!-- Node3&#45;&gt;Node1 -->
<g id="edge2" class="edge"><title>Node3&#45;&gt;Node1</title>
<path fill="none" stroke="#9a32cd" stroke-dasharray="5,2" d="M155.974,-73.6185C141.44,-60.123 123.069,-43.0639 110.309,-31.2157"/>
<polygon fill="#9a32cd" stroke="#9a32cd" points="153.884,-76.4538 163.593,-80.6936 158.647,-71.3243 153.884,-76.4538"/>
<text text-anchor="middle" x="171" y="-53.5" font-family="Helvetica,sans-Serif" font-size="10.00"> myTextField</text>
</g>
<!-- Node4 -->
<g id="node4" class="node"><title>Node4</title>
<polygon fill="white" stroke="#bfbfbf" points="151,-150.5 151,-169.5 207,-169.5 207,-150.5 151,-150.5"/>
<text text-anchor="middle" x="179" y="-157.5" font-family="Helvetica,sans-Serif" font-size="10.00">TextField</text>
</g>
<!-- Node4&#45;&gt;Node3 -->
<g id="edge3" class="edge"><title>Node4&#45;&gt;Node3</title>
<path fill="none" stroke="midnightblue" d="M179,-140.183C179,-130.886 179,-119.851 179,-111.263"/>
<polygon fill="midnightblue" stroke="midnightblue" points="175.5,-140.379 179,-150.379 182.5,-140.379 175.5,-140.379"/>
</g>
</g>
</svg>
