<?xml version="1.0" encoding="UTF-8" standalone="no"?>
<!DOCTYPE svg PUBLIC "-//W3C//DTD SVG 1.1//EN"
 "http://www.w3.org/Graphics/SVG/1.1/DTD/svg11.dtd">
<!-- Generated by graphviz version 2.36.0 (20140111.2315)
 -->
<!-- Title: gamePlayer.guiFeatures.WinStatusProperty.set Pages: 1 -->
<svg width="376pt" height="38pt"
 viewBox="0.00 0.00 376.00 38.00" xmlns="http://www.w3.org/2000/svg" xmlns:xlink="http://www.w3.org/1999/xlink">
<g id="graph0" class="graph" transform="scale(1 1) rotate(0) translate(4 34)">
<title>gamePlayer.guiFeatures.WinStatusProperty.set</title>
<polygon fill="white" stroke="none" points="-4,4 -4,-34 372,-34 372,4 -4,4"/>
<!-- Node1 -->
<g id="node1" class="node"><title>Node1</title>
<polygon fill="#bfbfbf" stroke="black" points="0.5,-0 0.5,-30 151.5,-30 151.5,-0 0.5,-0"/>
<text text-anchor="start" x="8.5" y="-18" font-family="Helvetica,sans-Serif" font-size="10.00">gamePlayer.guiFeatures.Win</text>
<text text-anchor="middle" x="76" y="-7" font-family="Helvetica,sans-Serif" font-size="10.00">StatusProperty.set</text>
</g>
<!-- Node2 -->
<g id="node2" class="node"><title>Node2</title>
<g id="a_node2"><a xlink:href="../../df/de4/classgame_player_1_1gui_features_1_1_win_status_property.html#ad9f0124d092032e74f462bc61b11c0ed" target="_top" xlink:title="gamePlayer.guiFeatures.Win\lStatusProperty.WinStatusProperty">
<polygon fill="white" stroke="black" points="188.5,-0 188.5,-30 367.5,-30 367.5,-0 188.5,-0"/>
<text text-anchor="start" x="196.5" y="-18" font-family="Helvetica,sans-Serif" font-size="10.00">gamePlayer.guiFeatures.Win</text>
<text text-anchor="middle" x="278" y="-7" font-family="Helvetica,sans-Serif" font-size="10.00">StatusProperty.WinStatusProperty</text>
</a>
</g>
</g>
<!-- Node1&#45;&gt;Node2 -->
<g id="edge1" class="edge"><title>Node1&#45;&gt;Node2</title>
<path fill="none" stroke="midnightblue" d="M161.878,-15C170.575,-15 179.428,-15 188.165,-15"/>
<polygon fill="midnightblue" stroke="midnightblue" points="161.757,-11.5001 151.757,-15 161.757,-18.5001 161.757,-11.5001"/>
</g>
</g>
</svg>
