<?xml version="1.0" encoding="UTF-8" standalone="no"?>
<!DOCTYPE svg PUBLIC "-//W3C//DTD SVG 1.1//EN"
 "http://www.w3.org/Graphics/SVG/1.1/DTD/svg11.dtd">
<!-- Generated by graphviz version 2.36.0 (20140111.2315)
 -->
<!-- Title: gamePlayer.guiItems.gameWorld.GameWorld.getMap Pages: 1 -->
<svg width="1616pt" height="435pt"
 viewBox="0.00 0.00 1616.00 435.00" xmlns="http://www.w3.org/2000/svg" xmlns:xlink="http://www.w3.org/1999/xlink">
<g id="graph0" class="graph" transform="scale(1 1) rotate(0) translate(4 431)">
<title>gamePlayer.guiItems.gameWorld.GameWorld.getMap</title>
<polygon fill="white" stroke="none" points="-4,4 -4,-431 1612,-431 1612,4 -4,4"/>
<!-- Node1 -->
<g id="node1" class="node"><title>Node1</title>
<polygon fill="#bfbfbf" stroke="black" points="0,-213 0,-243 148,-243 148,-213 0,-213"/>
<text text-anchor="start" x="8" y="-231" font-family="Helvetica,sans-Serif" font-size="10.00">gamePlayer.guiItems.game</text>
<text text-anchor="middle" x="74" y="-220" font-family="Helvetica,sans-Serif" font-size="10.00">World.GameWorld.getMap</text>
</g>
<!-- Node2 -->
<g id="node2" class="node"><title>Node2</title>
<g id="a_node2"><a xlink:href="../../da/d69/classgame_player_1_1main_classes_1_1managers_1_1_gui_manager.html#a3c54e67481646eaa1208a9f69cc1ea78" target="_top" xlink:title="gamePlayer.mainClasses.managers.\lGuiManager.deselectTower">
<polygon fill="white" stroke="black" points="184.5,-385 184.5,-415 375.5,-415 375.5,-385 184.5,-385"/>
<text text-anchor="start" x="192.5" y="-403" font-family="Helvetica,sans-Serif" font-size="10.00">gamePlayer.mainClasses.managers.</text>
<text text-anchor="middle" x="280" y="-392" font-family="Helvetica,sans-Serif" font-size="10.00">GuiManager.deselectTower</text>
</a>
</g>
</g>
<!-- Node1&#45;&gt;Node2 -->
<g id="edge1" class="edge"><title>Node1&#45;&gt;Node2</title>
<path fill="none" stroke="midnightblue" d="M87.4803,-252.332C104.911,-283.958 139.477,-338.816 184,-370 192.642,-376.053 202.559,-380.924 212.653,-384.834"/>
<polygon fill="midnightblue" stroke="midnightblue" points="90.4491,-250.463 82.6287,-243.315 84.2847,-253.779 90.4491,-250.463"/>
</g>
<!-- Node3 -->
<g id="node3" class="node"><title>Node3</title>
<g id="a_node3"><a xlink:href="../../da/d69/classgame_player_1_1main_classes_1_1managers_1_1_gui_manager.html#ad5da35abd0e1b0f2938b85549703118e" target="_top" xlink:title="gamePlayer.mainClasses.managers.\lGuiManager.selectTower">
<polygon fill="white" stroke="black" points="421.5,-385 421.5,-415 612.5,-415 612.5,-385 421.5,-385"/>
<text text-anchor="start" x="429.5" y="-403" font-family="Helvetica,sans-Serif" font-size="10.00">gamePlayer.mainClasses.managers.</text>
<text text-anchor="middle" x="517" y="-392" font-family="Helvetica,sans-Serif" font-size="10.00">GuiManager.selectTower</text>
</a>
</g>
</g>
<!-- Node1&#45;&gt;Node3 -->
<g id="edge31" class="edge"><title>Node1&#45;&gt;Node3</title>
<path fill="none" stroke="midnightblue" d="M92.4955,-251.07C112.073,-275.163 146.061,-312.153 184,-332 195.257,-337.889 342.502,-366.795 437.078,-384.972"/>
<polygon fill="midnightblue" stroke="midnightblue" points="95.1509,-248.786 86.1889,-243.135 89.6709,-253.141 95.1509,-248.786"/>
</g>
<!-- Node8 -->
<g id="node8" class="node"><title>Node8</title>
<g id="a_node8"><a xlink:href="../../da/d69/classgame_player_1_1main_classes_1_1managers_1_1_gui_manager.html#ae90e338dc9959e32627518bde3fdf2ff" target="_top" xlink:title="gamePlayer.mainClasses.managers.\lGuiManager.placeTower">
<polygon fill="white" stroke="black" points="1404.5,-340 1404.5,-370 1595.5,-370 1595.5,-340 1404.5,-340"/>
<text text-anchor="start" x="1412.5" y="-358" font-family="Helvetica,sans-Serif" font-size="10.00">gamePlayer.mainClasses.managers.</text>
<text text-anchor="middle" x="1500" y="-347" font-family="Helvetica,sans-Serif" font-size="10.00">GuiManager.placeTower</text>
</a>
</g>
</g>
<!-- Node1&#45;&gt;Node8 -->
<g id="edge30" class="edge"><title>Node1&#45;&gt;Node8</title>
<path fill="none" stroke="midnightblue" d="M112.272,-247.436C132.852,-257.207 159.202,-268.183 184,-274 416.289,-328.494 1143.3,-347.964 1404.43,-353.304"/>
<polygon fill="midnightblue" stroke="midnightblue" points="113.774,-244.274 103.249,-243.054 110.716,-250.571 113.774,-244.274"/>
</g>
<!-- Node9 -->
<g id="node9" class="node"><title>Node9</title>
<g id="a_node9"><a xlink:href="../../da/d69/classgame_player_1_1main_classes_1_1managers_1_1_gui_manager.html#a568a35b44fce8599b5ecdc25d973ab74" target="_top" xlink:title="gamePlayer.mainClasses.managers.\lGuiManager.endGame">
<polygon fill="white" stroke="black" points="184.5,-213 184.5,-243 375.5,-243 375.5,-213 184.5,-213"/>
<text text-anchor="start" x="192.5" y="-231" font-family="Helvetica,sans-Serif" font-size="10.00">gamePlayer.mainClasses.managers.</text>
<text text-anchor="middle" x="280" y="-220" font-family="Helvetica,sans-Serif" font-size="10.00">GuiManager.endGame</text>
</a>
</g>
</g>
<!-- Node1&#45;&gt;Node9 -->
<g id="edge9" class="edge"><title>Node1&#45;&gt;Node9</title>
<path fill="none" stroke="midnightblue" d="M158.126,-228C166.776,-228 175.615,-228 184.38,-228"/>
<polygon fill="midnightblue" stroke="midnightblue" points="158.073,-224.5 148.072,-228 158.072,-231.5 158.073,-224.5"/>
</g>
<!-- Node11 -->
<g id="node11" class="node"><title>Node11</title>
<g id="a_node11"><a xlink:href="../../da/d69/classgame_player_1_1main_classes_1_1managers_1_1_gui_manager.html#aa9b035d2a17b73719ca8a26d8ebde9ce" target="_top" xlink:title="gamePlayer.mainClasses.managers.\lGuiManager.startSinglePlayerGame">
<polygon fill="white" stroke="black" points="658.5,-99 658.5,-129 849.5,-129 849.5,-99 658.5,-99"/>
<text text-anchor="start" x="666.5" y="-117" font-family="Helvetica,sans-Serif" font-size="10.00">gamePlayer.mainClasses.managers.</text>
<text text-anchor="middle" x="754" y="-106" font-family="Helvetica,sans-Serif" font-size="10.00">GuiManager.startSinglePlayerGame</text>
</a>
</g>
</g>
<!-- Node1&#45;&gt;Node11 -->
<g id="edge36" class="edge"><title>Node1&#45;&gt;Node11</title>
<path fill="none" stroke="midnightblue" d="M146.892,-210.758C159.239,-208.013 171.966,-205.318 184,-203 350.048,-171.013 545.039,-142.446 658.26,-126.741"/>
<polygon fill="midnightblue" stroke="midnightblue" points="146.08,-207.354 137.093,-212.964 147.618,-214.183 146.08,-207.354"/>
</g>
<!-- Node17 -->
<g id="node17" class="node"><title>Node17</title>
<g id="a_node17"><a xlink:href="../../da/d69/classgame_player_1_1main_classes_1_1managers_1_1_gui_manager.html#aa0b614e03bdec959e13e3d5ca2e1f614" target="_top" xlink:title="gamePlayer.mainClasses.managers.\lGuiManager.startMultiPlayerGame">
<polygon fill="white" stroke="black" points="658.5,-213 658.5,-243 849.5,-243 849.5,-213 658.5,-213"/>
<text text-anchor="start" x="666.5" y="-231" font-family="Helvetica,sans-Serif" font-size="10.00">gamePlayer.mainClasses.managers.</text>
<text text-anchor="middle" x="754" y="-220" font-family="Helvetica,sans-Serif" font-size="10.00">GuiManager.startMultiPlayerGame</text>
</a>
</g>
</g>
<!-- Node1&#45;&gt;Node17 -->
<g id="edge35" class="edge"><title>Node1&#45;&gt;Node17</title>
<path fill="none" stroke="midnightblue" d="M142.18,-245.177C155.925,-248.017 170.359,-250.516 184,-252 377.525,-273.053 428.132,-269.612 622,-252 642.379,-250.149 664.323,-246.709 684.316,-243.001"/>
<polygon fill="midnightblue" stroke="midnightblue" points="142.826,-241.736 132.314,-243.059 141.356,-248.58 142.826,-241.736"/>
</g>
<!-- Node26 -->
<g id="node26" class="node"><title>Node26</title>
<g id="a_node26"><a xlink:href="../../da/d69/classgame_player_1_1main_classes_1_1managers_1_1_gui_manager.html#a3d36ca856fc27c4473fd32be1f05fbf8" target="_top" xlink:title="gamePlayer.mainClasses.managers.\lGuiManager.escapePlace">
<polygon fill="white" stroke="black" points="184.5,-125 184.5,-155 375.5,-155 375.5,-125 184.5,-125"/>
<text text-anchor="start" x="192.5" y="-143" font-family="Helvetica,sans-Serif" font-size="10.00">gamePlayer.mainClasses.managers.</text>
<text text-anchor="middle" x="280" y="-132" font-family="Helvetica,sans-Serif" font-size="10.00">GuiManager.escapePlace</text>
</a>
</g>
</g>
<!-- Node1&#45;&gt;Node26 -->
<g id="edge29" class="edge"><title>Node1&#45;&gt;Node26</title>
<path fill="none" stroke="midnightblue" d="M109.227,-207.701C130.316,-195.725 158.174,-180.841 184,-170 197.077,-164.51 211.524,-159.46 225.121,-155.13"/>
<polygon fill="midnightblue" stroke="midnightblue" points="107.268,-204.79 100.339,-212.804 110.754,-210.861 107.268,-204.79"/>
</g>
<!-- Node27 -->
<g id="node27" class="node"><title>Node27</title>
<g id="a_node27"><a xlink:href="../../da/d69/classgame_player_1_1main_classes_1_1managers_1_1_gui_manager.html#a7749aaba2ab03cd1cb8dc3ad2ebfbd6f" target="_top" xlink:title="gamePlayer.mainClasses.managers.\lGuiManager.sellTower">
<polygon fill="white" stroke="black" points="184.5,-76 184.5,-106 375.5,-106 375.5,-76 184.5,-76"/>
<text text-anchor="start" x="192.5" y="-94" font-family="Helvetica,sans-Serif" font-size="10.00">gamePlayer.mainClasses.managers.</text>
<text text-anchor="middle" x="280" y="-83" font-family="Helvetica,sans-Serif" font-size="10.00">GuiManager.sellTower</text>
</a>
</g>
</g>
<!-- Node1&#45;&gt;Node27 -->
<g id="edge32" class="edge"><title>Node1&#45;&gt;Node27</title>
<path fill="none" stroke="midnightblue" d="M91.0461,-204.853C110.189,-179.017 144.595,-137.847 184,-115 189.887,-111.587 196.253,-108.655 202.805,-106.136"/>
<polygon fill="midnightblue" stroke="midnightblue" points="88.1912,-202.828 85.1543,-212.978 93.8581,-206.937 88.1912,-202.828"/>
</g>
<!-- Node28 -->
<g id="node28" class="node"><title>Node28</title>
<g id="a_node28"><a xlink:href="../../da/d69/classgame_player_1_1main_classes_1_1managers_1_1_gui_manager.html#a02a63a3d495b31cce0c4976f95758a49" target="_top" xlink:title="gamePlayer.mainClasses.managers.\lGuiManager.startGame">
<polygon fill="white" stroke="black" points="184.5,-27 184.5,-57 375.5,-57 375.5,-27 184.5,-27"/>
<text text-anchor="start" x="192.5" y="-45" font-family="Helvetica,sans-Serif" font-size="10.00">gamePlayer.mainClasses.managers.</text>
<text text-anchor="middle" x="280" y="-34" font-family="Helvetica,sans-Serif" font-size="10.00">GuiManager.startGame</text>
</a>
</g>
</g>
<!-- Node1&#45;&gt;Node28 -->
<g id="edge33" class="edge"><title>Node1&#45;&gt;Node28</title>
<path fill="none" stroke="midnightblue" d="M84.6665,-203.514C100.112,-167.655 133.819,-101.297 184,-66 188.87,-62.5746 194.184,-59.6372 199.73,-57.1184"/>
<polygon fill="midnightblue" stroke="midnightblue" points="81.4257,-202.192 80.7959,-212.768 87.8836,-204.893 81.4257,-202.192"/>
</g>
<!-- Node2&#45;&gt;Node3 -->
<g id="edge2" class="edge"><title>Node2&#45;&gt;Node3</title>
<path fill="none" stroke="midnightblue" d="M385.865,-393.285C397.647,-393.22 409.6,-393.246 421.243,-393.364"/>
<polygon fill="midnightblue" stroke="midnightblue" points="385.54,-389.787 375.568,-393.366 385.595,-396.787 385.54,-389.787"/>
</g>
<!-- Node3&#45;&gt;Node2 -->
<g id="edge8" class="edge"><title>Node3&#45;&gt;Node2</title>
<path fill="none" stroke="midnightblue" d="M410.944,-406.716C399.16,-406.78 387.208,-406.753 375.568,-406.634"/>
<polygon fill="midnightblue" stroke="midnightblue" points="411.271,-410.214 421.243,-406.636 411.216,-403.214 411.271,-410.214"/>
</g>
<!-- Node4 -->
<g id="node4" class="node"><title>Node4</title>
<g id="a_node4"><a xlink:href="../../da/d69/classgame_player_1_1main_classes_1_1managers_1_1_gui_manager.html#a162f5822f9bff033684bd28cada2f03e" target="_top" xlink:title="gamePlayer.mainClasses.managers.\lGuiManager.upgradeTower">
<polygon fill="white" stroke="black" points="658.5,-347 658.5,-377 849.5,-377 849.5,-347 658.5,-347"/>
<text text-anchor="start" x="666.5" y="-365" font-family="Helvetica,sans-Serif" font-size="10.00">gamePlayer.mainClasses.managers.</text>
<text text-anchor="middle" x="754" y="-354" font-family="Helvetica,sans-Serif" font-size="10.00">GuiManager.upgradeTower</text>
</a>
</g>
</g>
<!-- Node3&#45;&gt;Node4 -->
<g id="edge3" class="edge"><title>Node3&#45;&gt;Node4</title>
<path fill="none" stroke="midnightblue" d="M620.798,-383.377C633.848,-381.267 647.143,-379.117 660.027,-377.034"/>
<polygon fill="midnightblue" stroke="midnightblue" points="620.191,-379.93 610.878,-384.981 621.309,-386.84 620.191,-379.93"/>
</g>
<!-- Node5 -->
<g id="node5" class="node"><title>Node5</title>
<g id="a_node5"><a xlink:href="../../da/d69/classgame_player_1_1main_classes_1_1managers_1_1_gui_manager.html#a148dc947569bdc60c98be5a853cf82ee" target="_top" xlink:title="gamePlayer.mainClasses.managers.\lGuiManager.makeTower">
<polygon fill="white" stroke="black" points="658.5,-396 658.5,-426 849.5,-426 849.5,-396 658.5,-396"/>
<text text-anchor="start" x="666.5" y="-414" font-family="Helvetica,sans-Serif" font-size="10.00">gamePlayer.mainClasses.managers.</text>
<text text-anchor="middle" x="754" y="-403" font-family="Helvetica,sans-Serif" font-size="10.00">GuiManager.makeTower</text>
</a>
</g>
</g>
<!-- Node3&#45;&gt;Node5 -->
<g id="edge4" class="edge"><title>Node3&#45;&gt;Node5</title>
<path fill="none" stroke="midnightblue" d="M622.865,-404.909C634.647,-405.46 646.6,-406.02 658.243,-406.565"/>
<polygon fill="midnightblue" stroke="midnightblue" points="622.72,-401.398 612.568,-404.427 622.393,-408.39 622.72,-401.398"/>
</g>
<!-- Node6 -->
<g id="node6" class="node"><title>Node6</title>
<g id="a_node6"><a xlink:href="../../db/d6b/classgame_player_1_1gui_features_1_1_tower_placer.html#a8a56e5205e61a12602015f880e47070c" target="_top" xlink:title="gamePlayer.guiFeatures.Tower\lPlacer.drop">
<polygon fill="white" stroke="black" points="915.5,-385 915.5,-415 1076.5,-415 1076.5,-385 915.5,-385"/>
<text text-anchor="start" x="923.5" y="-403" font-family="Helvetica,sans-Serif" font-size="10.00">gamePlayer.guiFeatures.Tower</text>
<text text-anchor="middle" x="996" y="-392" font-family="Helvetica,sans-Serif" font-size="10.00">Placer.drop</text>
</a>
</g>
</g>
<!-- Node5&#45;&gt;Node6 -->
<g id="edge5" class="edge"><title>Node5&#45;&gt;Node6</title>
<path fill="none" stroke="midnightblue" d="M859.533,-406.209C878.233,-405.352 897.444,-404.471 915.306,-403.653"/>
<polygon fill="midnightblue" stroke="midnightblue" points="859.339,-402.714 849.51,-406.668 859.66,-409.707 859.339,-402.714"/>
</g>
<!-- Node7 -->
<g id="node7" class="node"><title>Node7</title>
<g id="a_node7"><a xlink:href="../../db/d6b/classgame_player_1_1gui_features_1_1_tower_placer.html#a2798d82694ca4f2a02b48f9516f0cd1b" target="_top" xlink:title="gamePlayer.guiFeatures.Tower\lPlacer.placeItem">
<polygon fill="white" stroke="black" points="1168.5,-365 1168.5,-395 1329.5,-395 1329.5,-365 1168.5,-365"/>
<text text-anchor="start" x="1176.5" y="-383" font-family="Helvetica,sans-Serif" font-size="10.00">gamePlayer.guiFeatures.Tower</text>
<text text-anchor="middle" x="1249" y="-372" font-family="Helvetica,sans-Serif" font-size="10.00">Placer.placeItem</text>
</a>
</g>
</g>
<!-- Node6&#45;&gt;Node7 -->
<g id="edge6" class="edge"><title>Node6&#45;&gt;Node7</title>
<path fill="none" stroke="midnightblue" d="M1086.85,-392.841C1113.5,-390.717 1142.49,-388.407 1168.44,-386.339"/>
<polygon fill="midnightblue" stroke="midnightblue" points="1086.45,-389.361 1076.76,-393.644 1087.01,-396.339 1086.45,-389.361"/>
</g>
<!-- Node7&#45;&gt;Node8 -->
<g id="edge7" class="edge"><title>Node7&#45;&gt;Node8</title>
<path fill="none" stroke="midnightblue" d="M1339.97,-370.967C1360.92,-368.863 1383.29,-366.618 1404.43,-364.495"/>
<polygon fill="midnightblue" stroke="midnightblue" points="1339.41,-367.505 1329.81,-371.987 1340.11,-374.47 1339.41,-367.505"/>
</g>
<!-- Node10 -->
<g id="node10" class="node"><title>Node10</title>
<g id="a_node10"><a xlink:href="../../da/d69/classgame_player_1_1main_classes_1_1managers_1_1_gui_manager.html#a6f0d5fa9c335707fd051fa83bd82f9bf" target="_top" xlink:title="gamePlayer.mainClasses.managers.\lGuiManager.initializeNewGameElements">
<polygon fill="white" stroke="black" points="412.5,-213 412.5,-243 621.5,-243 621.5,-213 412.5,-213"/>
<text text-anchor="start" x="420.5" y="-231" font-family="Helvetica,sans-Serif" font-size="10.00">gamePlayer.mainClasses.managers.</text>
<text text-anchor="middle" x="517" y="-220" font-family="Helvetica,sans-Serif" font-size="10.00">GuiManager.initializeNewGameElements</text>
</a>
</g>
</g>
<!-- Node9&#45;&gt;Node10 -->
<g id="edge10" class="edge"><title>Node9&#45;&gt;Node10</title>
<path fill="none" stroke="midnightblue" d="M385.572,-228C394.48,-228 403.488,-228 412.389,-228"/>
<polygon fill="midnightblue" stroke="midnightblue" points="385.568,-224.5 375.568,-228 385.568,-231.5 385.568,-224.5"/>
</g>
<!-- Node10&#45;&gt;Node11 -->
<g id="edge11" class="edge"><title>Node10&#45;&gt;Node11</title>
<path fill="none" stroke="midnightblue" d="M590.909,-209.891C601.52,-206.42 612.172,-202.454 622,-198 664.326,-178.818 708.912,-147.493 733.614,-129.001"/>
<polygon fill="midnightblue" stroke="midnightblue" points="589.691,-206.605 581.2,-212.941 591.789,-213.283 589.691,-206.605"/>
</g>
<!-- Node10&#45;&gt;Node17 -->
<g id="edge17" class="edge"><title>Node10&#45;&gt;Node17</title>
<path fill="none" stroke="midnightblue" d="M631.778,-228C640.672,-228 649.595,-228 658.342,-228"/>
<polygon fill="midnightblue" stroke="midnightblue" points="631.759,-224.5 621.758,-228 631.758,-231.5 631.759,-224.5"/>
</g>
<!-- Node12 -->
<g id="node12" class="node"><title>Node12</title>
<g id="a_node12"><a xlink:href="../../da/d69/classgame_player_1_1main_classes_1_1managers_1_1_gui_manager.html#a3f657f0e3ba1e493d2dd02b5df5e03f6" target="_top" xlink:title="gamePlayer.mainClasses.managers.\lGuiManager.replayGame">
<polygon fill="white" stroke="black" points="900.5,-99 900.5,-129 1091.5,-129 1091.5,-99 900.5,-99"/>
<text text-anchor="start" x="908.5" y="-117" font-family="Helvetica,sans-Serif" font-size="10.00">gamePlayer.mainClasses.managers.</text>
<text text-anchor="middle" x="996" y="-106" font-family="Helvetica,sans-Serif" font-size="10.00">GuiManager.replayGame</text>
</a>
</g>
</g>
<!-- Node11&#45;&gt;Node12 -->
<g id="edge12" class="edge"><title>Node11&#45;&gt;Node12</title>
<path fill="none" stroke="midnightblue" d="M859.735,-114C873.188,-114 886.901,-114 900.183,-114"/>
<polygon fill="midnightblue" stroke="midnightblue" points="859.51,-110.5 849.51,-114 859.51,-117.5 859.51,-110.5"/>
</g>
<!-- Node13 -->
<g id="node13" class="node"><title>Node13</title>
<g id="a_node13"><a xlink:href="../../d4/d3f/classgame_player_1_1main_classes_1_1managers_1_1_welcome_manager.html#a5da8d3f5b8bc1c4bd4c555140bd9384c" target="_top" xlink:title="gamePlayer.mainClasses.managers.\lWelcomeManager.startSinglePlayerGame">
<polygon fill="white" stroke="black" points="1142,-51 1142,-81 1356,-81 1356,-51 1142,-51"/>
<text text-anchor="start" x="1150" y="-69" font-family="Helvetica,sans-Serif" font-size="10.00">gamePlayer.mainClasses.managers.</text>
<text text-anchor="middle" x="1249" y="-58" font-family="Helvetica,sans-Serif" font-size="10.00">WelcomeManager.startSinglePlayerGame</text>
</a>
</g>
</g>
<!-- Node11&#45;&gt;Node13 -->
<g id="edge13" class="edge"><title>Node11&#45;&gt;Node13</title>
<path fill="none" stroke="midnightblue" d="M835.367,-97.0202C852.043,-93.9598 869.546,-91.0844 886,-89 971.746,-78.1374 1069.6,-72.3113 1141.94,-69.2436"/>
<polygon fill="midnightblue" stroke="midnightblue" points="834.291,-93.6609 825.107,-98.9443 835.581,-100.541 834.291,-93.6609"/>
</g>
<!-- Node15 -->
<g id="node15" class="node"><title>Node15</title>
<g id="a_node15"><a xlink:href="../../d3/dee/classgame_player_1_1main_classes_1_1welcome_screen_1_1_game_start_manager.html#a0c44b3f25d2a30fe2e7aeca9da7161a9" target="_top" xlink:title="gamePlayer.mainClasses.welcome\lScreen.GameStartManager.startSingle\lPlayerGame">
<polygon fill="white" stroke="black" points="894.5,-0.5 894.5,-41.5 1097.5,-41.5 1097.5,-0.5 894.5,-0.5"/>
<text text-anchor="start" x="902.5" y="-29.5" font-family="Helvetica,sans-Serif" font-size="10.00">gamePlayer.mainClasses.welcome</text>
<text text-anchor="start" x="902.5" y="-18.5" font-family="Helvetica,sans-Serif" font-size="10.00">Screen.GameStartManager.startSingle</text>
<text text-anchor="middle" x="996" y="-7.5" font-family="Helvetica,sans-Serif" font-size="10.00">PlayerGame</text>
</a>
</g>
</g>
<!-- Node11&#45;&gt;Node15 -->
<g id="edge15" class="edge"><title>Node11&#45;&gt;Node15</title>
<path fill="none" stroke="midnightblue" d="M795.763,-94.6133C821.384,-82.764 855.288,-67.6917 886,-56 899.188,-50.9794 913.445,-46.0514 927.164,-41.551"/>
<polygon fill="midnightblue" stroke="midnightblue" points="793.963,-91.5906 786.373,-98.9831 796.917,-97.9371 793.963,-91.5906"/>
</g>
<!-- Node14 -->
<g id="node14" class="node"><title>Node14</title>
<g id="a_node14"><a xlink:href="../../d4/d3f/classgame_player_1_1main_classes_1_1managers_1_1_welcome_manager.html#ae6495396aef63551116c0835c40574e1" target="_top" xlink:title="gamePlayer.mainClasses.managers.\lWelcomeManager.startGame">
<polygon fill="white" stroke="black" points="1404.5,-132 1404.5,-162 1595.5,-162 1595.5,-132 1404.5,-132"/>
<text text-anchor="start" x="1412.5" y="-150" font-family="Helvetica,sans-Serif" font-size="10.00">gamePlayer.mainClasses.managers.</text>
<text text-anchor="middle" x="1500" y="-139" font-family="Helvetica,sans-Serif" font-size="10.00">WelcomeManager.startGame</text>
</a>
</g>
</g>
<!-- Node13&#45;&gt;Node14 -->
<g id="edge14" class="edge"><title>Node13&#45;&gt;Node14</title>
<path fill="none" stroke="midnightblue" d="M1333.21,-83.53C1340.95,-85.5554 1348.65,-87.7188 1356,-90 1394.29,-101.885 1436.8,-119.411 1465.44,-131.888"/>
<polygon fill="midnightblue" stroke="midnightblue" points="1333.94,-80.1054 1323.39,-81.04 1332.22,-86.8907 1333.94,-80.1054"/>
</g>
<!-- Node16 -->
<g id="node16" class="node"><title>Node16</title>
<g id="a_node16"><a xlink:href="../../d3/dee/classgame_player_1_1main_classes_1_1welcome_screen_1_1_game_start_manager.html#a4ac849399bf00c6df86f0db25ea95ed8" target="_top" xlink:title="gamePlayer.mainClasses.welcome\lScreen.GameStartManager.startGame">
<polygon fill="white" stroke="black" points="1398.5,-56 1398.5,-86 1601.5,-86 1601.5,-56 1398.5,-56"/>
<text text-anchor="start" x="1406.5" y="-74" font-family="Helvetica,sans-Serif" font-size="10.00">gamePlayer.mainClasses.welcome</text>
<text text-anchor="middle" x="1500" y="-63" font-family="Helvetica,sans-Serif" font-size="10.00">Screen.GameStartManager.startGame</text>
</a>
</g>
</g>
<!-- Node15&#45;&gt;Node16 -->
<g id="edge16" class="edge"><title>Node15&#45;&gt;Node16</title>
<path fill="none" stroke="midnightblue" d="M1107.9,-22.8567C1179.06,-25.1125 1273.27,-30.0816 1356,-41 1382.91,-44.5515 1412.31,-50.3751 1437.41,-55.951"/>
<polygon fill="midnightblue" stroke="midnightblue" points="1107.68,-19.3483 1097.58,-22.5431 1107.47,-26.3451 1107.68,-19.3483"/>
</g>
<!-- Node17&#45;&gt;Node12 -->
<g id="edge22" class="edge"><title>Node17&#45;&gt;Node12</title>
<path fill="none" stroke="midnightblue" d="M780.251,-206.208C805.414,-185.616 845.973,-155.366 886,-138 893.91,-134.568 902.364,-131.604 910.933,-129.049"/>
<polygon fill="midnightblue" stroke="midnightblue" points="777.786,-203.706 772.331,-212.789 782.259,-209.09 777.786,-203.706"/>
</g>
<!-- Node18 -->
<g id="node18" class="node"><title>Node18</title>
<g id="a_node18"><a xlink:href="../../da/d69/classgame_player_1_1main_classes_1_1managers_1_1_gui_manager.html#ad50f462f8d45a5bbfc8a17290372a1ab" target="_top" xlink:title="gamePlayer.mainClasses.managers.\lGuiManager.joinMultiPlayerGame">
<polygon fill="white" stroke="black" points="900.5,-267 900.5,-297 1091.5,-297 1091.5,-267 900.5,-267"/>
<text text-anchor="start" x="908.5" y="-285" font-family="Helvetica,sans-Serif" font-size="10.00">gamePlayer.mainClasses.managers.</text>
<text text-anchor="middle" x="996" y="-274" font-family="Helvetica,sans-Serif" font-size="10.00">GuiManager.joinMultiPlayerGame</text>
</a>
</g>
</g>
<!-- Node17&#45;&gt;Node18 -->
<g id="edge18" class="edge"><title>Node17&#45;&gt;Node18</title>
<path fill="none" stroke="midnightblue" d="M831.746,-245.268C862.737,-252.241 898.17,-260.213 928.089,-266.945"/>
<polygon fill="midnightblue" stroke="midnightblue" points="832.378,-241.823 821.853,-243.042 830.841,-248.652 832.378,-241.823"/>
</g>
<!-- Node22 -->
<g id="node22" class="node"><title>Node22</title>
<g id="a_node22"><a xlink:href="../../d4/d3f/classgame_player_1_1main_classes_1_1managers_1_1_welcome_manager.html#a55598dd2973b0a9b979151dd60c9e436" target="_top" xlink:title="gamePlayer.mainClasses.managers.\lWelcomeManager.pollEngineForMultiPlayer\lReadiness">
<polygon fill="white" stroke="black" points="886.5,-207.5 886.5,-248.5 1105.5,-248.5 1105.5,-207.5 886.5,-207.5"/>
<text text-anchor="start" x="894.5" y="-236.5" font-family="Helvetica,sans-Serif" font-size="10.00">gamePlayer.mainClasses.managers.</text>
<text text-anchor="start" x="894.5" y="-225.5" font-family="Helvetica,sans-Serif" font-size="10.00">WelcomeManager.pollEngineForMultiPlayer</text>
<text text-anchor="middle" x="996" y="-214.5" font-family="Helvetica,sans-Serif" font-size="10.00">Readiness</text>
</a>
</g>
</g>
<!-- Node17&#45;&gt;Node22 -->
<g id="edge23" class="edge"><title>Node17&#45;&gt;Node22</title>
<path fill="none" stroke="midnightblue" d="M859.766,-228C868.556,-228 877.457,-228 886.276,-228"/>
<polygon fill="midnightblue" stroke="midnightblue" points="859.51,-224.5 849.51,-228 859.51,-231.5 859.51,-224.5"/>
</g>
<!-- Node24 -->
<g id="node24" class="node"><title>Node24</title>
<g id="a_node24"><a xlink:href="../../d3/dee/classgame_player_1_1main_classes_1_1welcome_screen_1_1_game_start_manager.html#a5d5001d1ee14ae57deef01f6e3ddde31" target="_top" xlink:title="gamePlayer.mainClasses.welcome\lScreen.GameStartManager.pollEngine\lForMultiPlayerReadiness">
<polygon fill="white" stroke="black" points="896,-147.5 896,-188.5 1096,-188.5 1096,-147.5 896,-147.5"/>
<text text-anchor="start" x="904" y="-176.5" font-family="Helvetica,sans-Serif" font-size="10.00">gamePlayer.mainClasses.welcome</text>
<text text-anchor="start" x="904" y="-165.5" font-family="Helvetica,sans-Serif" font-size="10.00">Screen.GameStartManager.pollEngine</text>
<text text-anchor="middle" x="996" y="-154.5" font-family="Helvetica,sans-Serif" font-size="10.00">ForMultiPlayerReadiness</text>
</a>
</g>
</g>
<!-- Node17&#45;&gt;Node24 -->
<g id="edge26" class="edge"><title>Node17&#45;&gt;Node24</title>
<path fill="none" stroke="midnightblue" d="M825.176,-210.456C852.672,-203.582 884.41,-195.648 912.954,-188.511"/>
<polygon fill="midnightblue" stroke="midnightblue" points="824.105,-207.116 815.252,-212.937 825.803,-213.907 824.105,-207.116"/>
</g>
<!-- Node19 -->
<g id="node19" class="node"><title>Node19</title>
<g id="a_node19"><a xlink:href="../../d4/d3f/classgame_player_1_1main_classes_1_1managers_1_1_welcome_manager.html#a71a2a80cfe9d3a07d7becc506178acfd" target="_top" xlink:title="gamePlayer.mainClasses.managers.\lWelcomeManager.joinMultiPlayerGame">
<polygon fill="white" stroke="black" points="1148.5,-267 1148.5,-297 1349.5,-297 1349.5,-267 1148.5,-267"/>
<text text-anchor="start" x="1156.5" y="-285" font-family="Helvetica,sans-Serif" font-size="10.00">gamePlayer.mainClasses.managers.</text>
<text text-anchor="middle" x="1249" y="-274" font-family="Helvetica,sans-Serif" font-size="10.00">WelcomeManager.joinMultiPlayerGame</text>
</a>
</g>
</g>
<!-- Node18&#45;&gt;Node19 -->
<g id="edge19" class="edge"><title>Node18&#45;&gt;Node19</title>
<path fill="none" stroke="midnightblue" d="M1101.58,-282C1116.98,-282 1132.81,-282 1148.11,-282"/>
<polygon fill="midnightblue" stroke="midnightblue" points="1101.53,-278.5 1091.53,-282 1101.53,-285.5 1101.53,-278.5"/>
</g>
<!-- Node21 -->
<g id="node21" class="node"><title>Node21</title>
<g id="a_node21"><a xlink:href="../../d3/dee/classgame_player_1_1main_classes_1_1welcome_screen_1_1_game_start_manager.html#a7465850240e12e23aec544dbfd08f6a0" target="_top" xlink:title="gamePlayer.mainClasses.welcome\lScreen.GameStartManager.joinMulti\lPlayerGame">
<polygon fill="white" stroke="black" points="1154,-207.5 1154,-248.5 1344,-248.5 1344,-207.5 1154,-207.5"/>
<text text-anchor="start" x="1162" y="-236.5" font-family="Helvetica,sans-Serif" font-size="10.00">gamePlayer.mainClasses.welcome</text>
<text text-anchor="start" x="1162" y="-225.5" font-family="Helvetica,sans-Serif" font-size="10.00">Screen.GameStartManager.joinMulti</text>
<text text-anchor="middle" x="1249" y="-214.5" font-family="Helvetica,sans-Serif" font-size="10.00">PlayerGame</text>
</a>
</g>
</g>
<!-- Node18&#45;&gt;Node21 -->
<g id="edge21" class="edge"><title>Node18&#45;&gt;Node21</title>
<path fill="none" stroke="midnightblue" d="M1076.84,-264.823C1101.25,-259.572 1128.32,-253.748 1153.6,-248.31"/>
<polygon fill="midnightblue" stroke="midnightblue" points="1075.96,-261.433 1066.92,-266.958 1077.43,-268.276 1075.96,-261.433"/>
</g>
<!-- Node20 -->
<g id="node20" class="node"><title>Node20</title>
<g id="a_node20"><a xlink:href="../../d4/d3f/classgame_player_1_1main_classes_1_1managers_1_1_welcome_manager.html#aa605746e09c481b225463d37a82427e3" target="_top" xlink:title="gamePlayer.mainClasses.managers.\lWelcomeManager.startMultiPlayerOptions">
<polygon fill="white" stroke="black" points="1392.5,-267 1392.5,-297 1607.5,-297 1607.5,-267 1392.5,-267"/>
<text text-anchor="start" x="1400.5" y="-285" font-family="Helvetica,sans-Serif" font-size="10.00">gamePlayer.mainClasses.managers.</text>
<text text-anchor="middle" x="1500" y="-274" font-family="Helvetica,sans-Serif" font-size="10.00">WelcomeManager.startMultiPlayerOptions</text>
</a>
</g>
</g>
<!-- Node19&#45;&gt;Node20 -->
<g id="edge20" class="edge"><title>Node19&#45;&gt;Node20</title>
<path fill="none" stroke="midnightblue" d="M1360.03,-282C1370.72,-282 1381.55,-282 1392.2,-282"/>
<polygon fill="midnightblue" stroke="midnightblue" points="1359.84,-278.5 1349.84,-282 1359.84,-285.5 1359.84,-278.5"/>
</g>
<!-- Node23 -->
<g id="node23" class="node"><title>Node23</title>
<g id="a_node23"><a xlink:href="../../d4/d3f/classgame_player_1_1main_classes_1_1managers_1_1_welcome_manager.html#a0669db103a94675dce875042258da508" target="_top" xlink:title="gamePlayer.mainClasses.managers.\lWelcomeManager.startMultiPlayerGame">
<polygon fill="white" stroke="black" points="1145.5,-159 1145.5,-189 1352.5,-189 1352.5,-159 1145.5,-159"/>
<text text-anchor="start" x="1153.5" y="-177" font-family="Helvetica,sans-Serif" font-size="10.00">gamePlayer.mainClasses.managers.</text>
<text text-anchor="middle" x="1249" y="-166" font-family="Helvetica,sans-Serif" font-size="10.00">WelcomeManager.startMultiPlayerGame</text>
</a>
</g>
</g>
<!-- Node22&#45;&gt;Node23 -->
<g id="edge24" class="edge"><title>Node22&#45;&gt;Node23</title>
<path fill="none" stroke="midnightblue" d="M1102.67,-205.266C1128.12,-199.792 1154.68,-194.077 1178.03,-189.054"/>
<polygon fill="midnightblue" stroke="midnightblue" points="1101.65,-201.906 1092.61,-207.431 1103.12,-208.749 1101.65,-201.906"/>
</g>
<!-- Node23&#45;&gt;Node14 -->
<g id="edge25" class="edge"><title>Node23&#45;&gt;Node14</title>
<path fill="none" stroke="midnightblue" d="M1362.74,-161.775C1376.56,-160.276 1390.59,-158.756 1404.11,-157.289"/>
<polygon fill="midnightblue" stroke="midnightblue" points="1362.28,-158.304 1352.72,-162.862 1363.03,-165.264 1362.28,-158.304"/>
</g>
<!-- Node25 -->
<g id="node25" class="node"><title>Node25</title>
<g id="a_node25"><a xlink:href="../../d3/dee/classgame_player_1_1main_classes_1_1welcome_screen_1_1_game_start_manager.html#a994c29260d6cb90abf19dca2b3463b6a" target="_top" xlink:title="gamePlayer.mainClasses.welcome\lScreen.GameStartManager.startMulti\lPlayerGame">
<polygon fill="white" stroke="black" points="1151,-99.5 1151,-140.5 1347,-140.5 1347,-99.5 1151,-99.5"/>
<text text-anchor="start" x="1159" y="-128.5" font-family="Helvetica,sans-Serif" font-size="10.00">gamePlayer.mainClasses.welcome</text>
<text text-anchor="start" x="1159" y="-117.5" font-family="Helvetica,sans-Serif" font-size="10.00">Screen.GameStartManager.startMulti</text>
<text text-anchor="middle" x="1249" y="-106.5" font-family="Helvetica,sans-Serif" font-size="10.00">PlayerGame</text>
</a>
</g>
</g>
<!-- Node24&#45;&gt;Node25 -->
<g id="edge27" class="edge"><title>Node24&#45;&gt;Node25</title>
<path fill="none" stroke="midnightblue" d="M1106.37,-147.085C1121.14,-144.261 1136.21,-141.378 1150.75,-138.598"/>
<polygon fill="midnightblue" stroke="midnightblue" points="1105.37,-143.713 1096.2,-149.029 1106.68,-150.588 1105.37,-143.713"/>
</g>
<!-- Node25&#45;&gt;Node16 -->
<g id="edge28" class="edge"><title>Node25&#45;&gt;Node16</title>
<path fill="none" stroke="midnightblue" d="M1357.36,-98.8737C1379.29,-94.5575 1401.95,-90.0989 1422.53,-86.0475"/>
<polygon fill="midnightblue" stroke="midnightblue" points="1356.48,-95.4797 1347.34,-100.845 1357.83,-102.348 1356.48,-95.4797"/>
</g>
<!-- Node29 -->
<g id="node29" class="node"><title>Node29</title>
<g id="a_node29"><a xlink:href="../../da/d69/classgame_player_1_1main_classes_1_1managers_1_1_gui_manager.html#a287842e1d39b7ecf2e13befeeafa1a7b" target="_top" xlink:title="gamePlayer.mainClasses.managers.\lGuiManager.loadGame">
<polygon fill="white" stroke="black" points="421.5,-27 421.5,-57 612.5,-57 612.5,-27 421.5,-27"/>
<text text-anchor="start" x="429.5" y="-45" font-family="Helvetica,sans-Serif" font-size="10.00">gamePlayer.mainClasses.managers.</text>
<text text-anchor="middle" x="517" y="-34" font-family="Helvetica,sans-Serif" font-size="10.00">GuiManager.loadGame</text>
</a>
</g>
</g>
<!-- Node28&#45;&gt;Node29 -->
<g id="edge34" class="edge"><title>Node28&#45;&gt;Node29</title>
<path fill="none" stroke="midnightblue" d="M385.865,-42C397.647,-42 409.6,-42 421.243,-42"/>
<polygon fill="midnightblue" stroke="midnightblue" points="385.568,-38.5001 375.568,-42 385.568,-45.5001 385.568,-38.5001"/>
</g>
</g>
</svg>
