<?xml version="1.0" encoding="UTF-8" standalone="no"?>
<!DOCTYPE svg PUBLIC "-//W3C//DTD SVG 1.1//EN"
 "http://www.w3.org/Graphics/SVG/1.1/DTD/svg11.dtd">
<!-- Generated by graphviz version 2.36.0 (20140111.2315)
 -->
<!-- Title: gamePlayer.guiItems.gameWorld.GameWorld.setBackground Pages: 1 -->
<svg width="1644pt" height="324pt"
 viewBox="0.00 0.00 1644.00 324.11" xmlns="http://www.w3.org/2000/svg" xmlns:xlink="http://www.w3.org/1999/xlink">
<g id="graph0" class="graph" transform="scale(1 1) rotate(0) translate(4 320.111)">
<title>gamePlayer.guiItems.gameWorld.GameWorld.setBackground</title>
<polygon fill="white" stroke="none" points="-4,4 -4,-320.111 1640,-320.111 1640,4 -4,4"/>
<!-- Node1 -->
<g id="node1" class="node"><title>Node1</title>
<polygon fill="#bfbfbf" stroke="black" points="0.5,-246 0.5,-276 175.5,-276 175.5,-246 0.5,-246"/>
<text text-anchor="start" x="8.5" y="-264" font-family="Helvetica,sans-Serif" font-size="10.00">gamePlayer.guiItems.game</text>
<text text-anchor="middle" x="88" y="-253" font-family="Helvetica,sans-Serif" font-size="10.00">World.GameWorld.setBackground</text>
</g>
<!-- Node2 -->
<g id="node2" class="node"><title>Node2</title>
<g id="a_node2"><a xlink:href="../../da/d69/classgame_player_1_1main_classes_1_1managers_1_1_gui_manager.html#aaaecc4585a203eff3a5dc3c49f81a2bc" target="_top" xlink:title="gamePlayer.mainClasses.managers.\lGuiManager.addBackground">
<polygon fill="white" stroke="black" points="212.5,-246 212.5,-276 403.5,-276 403.5,-246 212.5,-246"/>
<text text-anchor="start" x="220.5" y="-264" font-family="Helvetica,sans-Serif" font-size="10.00">gamePlayer.mainClasses.managers.</text>
<text text-anchor="middle" x="308" y="-253" font-family="Helvetica,sans-Serif" font-size="10.00">GuiManager.addBackground</text>
</a>
</g>
</g>
<!-- Node1&#45;&gt;Node2 -->
<g id="edge1" class="edge"><title>Node1&#45;&gt;Node2</title>
<path fill="none" stroke="midnightblue" d="M185.98,-261C194.716,-261 203.556,-261 212.272,-261"/>
<polygon fill="midnightblue" stroke="midnightblue" points="185.786,-257.5 175.786,-261 185.786,-264.5 185.786,-257.5"/>
</g>
<!-- Node3 -->
<g id="node3" class="node"><title>Node3</title>
<g id="a_node3"><a xlink:href="../../da/d69/classgame_player_1_1main_classes_1_1managers_1_1_gui_manager.html#a02a63a3d495b31cce0c4976f95758a49" target="_top" xlink:title="gamePlayer.mainClasses.managers.\lGuiManager.startGame">
<polygon fill="white" stroke="black" points="449.5,-271 449.5,-301 640.5,-301 640.5,-271 449.5,-271"/>
<text text-anchor="start" x="457.5" y="-289" font-family="Helvetica,sans-Serif" font-size="10.00">gamePlayer.mainClasses.managers.</text>
<text text-anchor="middle" x="545" y="-278" font-family="Helvetica,sans-Serif" font-size="10.00">GuiManager.startGame</text>
</a>
</g>
</g>
<!-- Node2&#45;&gt;Node3 -->
<g id="edge2" class="edge"><title>Node2&#45;&gt;Node3</title>
<path fill="none" stroke="midnightblue" d="M413.865,-272.156C425.647,-273.409 437.6,-274.681 449.243,-275.919"/>
<polygon fill="midnightblue" stroke="midnightblue" points="413.882,-268.638 403.568,-271.06 413.141,-275.599 413.882,-268.638"/>
</g>
<!-- Node5 -->
<g id="node5" class="node"><title>Node5</title>
<g id="a_node5"><a xlink:href="../../da/d69/classgame_player_1_1main_classes_1_1managers_1_1_gui_manager.html#a6f0d5fa9c335707fd051fa83bd82f9bf" target="_top" xlink:title="gamePlayer.mainClasses.managers.\lGuiManager.initializeNewGameElements">
<polygon fill="white" stroke="black" points="440.5,-222 440.5,-252 649.5,-252 649.5,-222 440.5,-222"/>
<text text-anchor="start" x="448.5" y="-240" font-family="Helvetica,sans-Serif" font-size="10.00">gamePlayer.mainClasses.managers.</text>
<text text-anchor="middle" x="545" y="-229" font-family="Helvetica,sans-Serif" font-size="10.00">GuiManager.initializeNewGameElements</text>
</a>
</g>
</g>
<!-- Node2&#45;&gt;Node5 -->
<g id="edge4" class="edge"><title>Node2&#45;&gt;Node5</title>
<path fill="none" stroke="midnightblue" d="M413.572,-250.32C422.48,-249.411 431.488,-248.491 440.389,-247.582"/>
<polygon fill="midnightblue" stroke="midnightblue" points="413.16,-246.844 403.568,-251.342 413.872,-253.808 413.16,-246.844"/>
</g>
<!-- Node4 -->
<g id="node4" class="node"><title>Node4</title>
<g id="a_node4"><a xlink:href="../../da/d69/classgame_player_1_1main_classes_1_1managers_1_1_gui_manager.html#a287842e1d39b7ecf2e13befeeafa1a7b" target="_top" xlink:title="gamePlayer.mainClasses.managers.\lGuiManager.loadGame">
<polygon fill="white" stroke="black" points="686.5,-271 686.5,-301 877.5,-301 877.5,-271 686.5,-271"/>
<text text-anchor="start" x="694.5" y="-289" font-family="Helvetica,sans-Serif" font-size="10.00">gamePlayer.mainClasses.managers.</text>
<text text-anchor="middle" x="782" y="-278" font-family="Helvetica,sans-Serif" font-size="10.00">GuiManager.loadGame</text>
</a>
</g>
</g>
<!-- Node3&#45;&gt;Node4 -->
<g id="edge3" class="edge"><title>Node3&#45;&gt;Node4</title>
<path fill="none" stroke="midnightblue" d="M650.865,-286C662.647,-286 674.6,-286 686.243,-286"/>
<polygon fill="midnightblue" stroke="midnightblue" points="650.568,-282.5 640.568,-286 650.568,-289.5 650.568,-282.5"/>
</g>
<!-- Node6 -->
<g id="node6" class="node"><title>Node6</title>
<g id="a_node6"><a xlink:href="../../da/d69/classgame_player_1_1main_classes_1_1managers_1_1_gui_manager.html#aa9b035d2a17b73719ca8a26d8ebde9ce" target="_top" xlink:title="gamePlayer.mainClasses.managers.\lGuiManager.startSinglePlayerGame">
<polygon fill="white" stroke="black" points="686.5,-222 686.5,-252 877.5,-252 877.5,-222 686.5,-222"/>
<text text-anchor="start" x="694.5" y="-240" font-family="Helvetica,sans-Serif" font-size="10.00">gamePlayer.mainClasses.managers.</text>
<text text-anchor="middle" x="782" y="-229" font-family="Helvetica,sans-Serif" font-size="10.00">GuiManager.startSinglePlayerGame</text>
</a>
</g>
</g>
<!-- Node5&#45;&gt;Node6 -->
<g id="edge5" class="edge"><title>Node5&#45;&gt;Node6</title>
<path fill="none" stroke="midnightblue" d="M659.778,-237C668.672,-237 677.595,-237 686.342,-237"/>
<polygon fill="midnightblue" stroke="midnightblue" points="659.759,-233.5 649.758,-237 659.758,-240.5 659.759,-233.5"/>
</g>
<!-- Node12 -->
<g id="node12" class="node"><title>Node12</title>
<g id="a_node12"><a xlink:href="../../da/d69/classgame_player_1_1main_classes_1_1managers_1_1_gui_manager.html#aa0b614e03bdec959e13e3d5ca2e1f614" target="_top" xlink:title="gamePlayer.mainClasses.managers.\lGuiManager.startMultiPlayerGame">
<polygon fill="white" stroke="black" points="686.5,-141 686.5,-171 877.5,-171 877.5,-141 686.5,-141"/>
<text text-anchor="start" x="694.5" y="-159" font-family="Helvetica,sans-Serif" font-size="10.00">gamePlayer.mainClasses.managers.</text>
<text text-anchor="middle" x="782" y="-148" font-family="Helvetica,sans-Serif" font-size="10.00">GuiManager.startMultiPlayerGame</text>
</a>
</g>
</g>
<!-- Node5&#45;&gt;Node12 -->
<g id="edge11" class="edge"><title>Node5&#45;&gt;Node12</title>
<path fill="none" stroke="midnightblue" d="M599.353,-218.61C641.011,-204.252 698.18,-184.547 737.185,-171.102"/>
<polygon fill="midnightblue" stroke="midnightblue" points="597.965,-215.387 589.651,-221.954 600.246,-222.005 597.965,-215.387"/>
</g>
<!-- Node7 -->
<g id="node7" class="node"><title>Node7</title>
<g id="a_node7"><a xlink:href="../../da/d69/classgame_player_1_1main_classes_1_1managers_1_1_gui_manager.html#a3f657f0e3ba1e493d2dd02b5df5e03f6" target="_top" xlink:title="gamePlayer.mainClasses.managers.\lGuiManager.replayGame">
<polygon fill="white" stroke="black" points="928.5,-195 928.5,-225 1119.5,-225 1119.5,-195 928.5,-195"/>
<text text-anchor="start" x="936.5" y="-213" font-family="Helvetica,sans-Serif" font-size="10.00">gamePlayer.mainClasses.managers.</text>
<text text-anchor="middle" x="1024" y="-202" font-family="Helvetica,sans-Serif" font-size="10.00">GuiManager.replayGame</text>
</a>
</g>
</g>
<!-- Node6&#45;&gt;Node7 -->
<g id="edge6" class="edge"><title>Node6&#45;&gt;Node7</title>
<path fill="none" stroke="midnightblue" d="M887.735,-225.217C901.188,-223.704 914.901,-222.161 928.183,-220.667"/>
<polygon fill="midnightblue" stroke="midnightblue" points="887.056,-221.772 877.51,-226.368 887.838,-228.728 887.056,-221.772"/>
</g>
<!-- Node8 -->
<g id="node8" class="node"><title>Node8</title>
<g id="a_node8"><a xlink:href="../../d4/d3f/classgame_player_1_1main_classes_1_1managers_1_1_welcome_manager.html#a5da8d3f5b8bc1c4bd4c555140bd9384c" target="_top" xlink:title="gamePlayer.mainClasses.managers.\lWelcomeManager.startSinglePlayerGame">
<polygon fill="white" stroke="black" points="1170,-270 1170,-300 1384,-300 1384,-270 1170,-270"/>
<text text-anchor="start" x="1178" y="-288" font-family="Helvetica,sans-Serif" font-size="10.00">gamePlayer.mainClasses.managers.</text>
<text text-anchor="middle" x="1277" y="-277" font-family="Helvetica,sans-Serif" font-size="10.00">WelcomeManager.startSinglePlayerGame</text>
</a>
</g>
</g>
<!-- Node6&#45;&gt;Node8 -->
<g id="edge7" class="edge"><title>Node6&#45;&gt;Node8</title>
<path fill="none" stroke="midnightblue" d="M864.022,-255.571C868.841,-257.517 873.539,-259.654 878,-262 896.688,-271.827 894.205,-285.652 914,-293 1013.45,-329.918 1139.08,-314.689 1213.17,-300.019"/>
<polygon fill="midnightblue" stroke="midnightblue" points="865.226,-252.284 854.633,-252.06 862.774,-258.841 865.226,-252.284"/>
</g>
<!-- Node10 -->
<g id="node10" class="node"><title>Node10</title>
<g id="a_node10"><a xlink:href="../../d3/dee/classgame_player_1_1main_classes_1_1welcome_screen_1_1_game_start_manager.html#a0c44b3f25d2a30fe2e7aeca9da7161a9" target="_top" xlink:title="gamePlayer.mainClasses.welcome\lScreen.GameStartManager.startSingle\lPlayerGame">
<polygon fill="white" stroke="black" points="922.5,-243.5 922.5,-284.5 1125.5,-284.5 1125.5,-243.5 922.5,-243.5"/>
<text text-anchor="start" x="930.5" y="-272.5" font-family="Helvetica,sans-Serif" font-size="10.00">gamePlayer.mainClasses.welcome</text>
<text text-anchor="start" x="930.5" y="-261.5" font-family="Helvetica,sans-Serif" font-size="10.00">Screen.GameStartManager.startSingle</text>
<text text-anchor="middle" x="1024" y="-250.5" font-family="Helvetica,sans-Serif" font-size="10.00">PlayerGame</text>
</a>
</g>
</g>
<!-- Node6&#45;&gt;Node10 -->
<g id="edge9" class="edge"><title>Node6&#45;&gt;Node10</title>
<path fill="none" stroke="midnightblue" d="M887.567,-248.764C899.08,-250.059 910.786,-251.376 922.251,-252.666"/>
<polygon fill="midnightblue" stroke="midnightblue" points="887.838,-245.272 877.51,-247.632 887.056,-252.228 887.838,-245.272"/>
</g>
<!-- Node9 -->
<g id="node9" class="node"><title>Node9</title>
<g id="a_node9"><a xlink:href="../../d4/d3f/classgame_player_1_1main_classes_1_1managers_1_1_welcome_manager.html#ae6495396aef63551116c0835c40574e1" target="_top" xlink:title="gamePlayer.mainClasses.managers.\lWelcomeManager.startGame">
<polygon fill="white" stroke="black" points="1432.5,-220 1432.5,-250 1623.5,-250 1623.5,-220 1432.5,-220"/>
<text text-anchor="start" x="1440.5" y="-238" font-family="Helvetica,sans-Serif" font-size="10.00">gamePlayer.mainClasses.managers.</text>
<text text-anchor="middle" x="1528" y="-227" font-family="Helvetica,sans-Serif" font-size="10.00">WelcomeManager.startGame</text>
</a>
</g>
</g>
<!-- Node8&#45;&gt;Node9 -->
<g id="edge8" class="edge"><title>Node8&#45;&gt;Node9</title>
<path fill="none" stroke="midnightblue" d="M1362.79,-267.974C1391.71,-262.167 1423.82,-255.72 1451.91,-250.077"/>
<polygon fill="midnightblue" stroke="midnightblue" points="1361.82,-264.598 1352.71,-269.998 1363.2,-271.461 1361.82,-264.598"/>
</g>
<!-- Node11 -->
<g id="node11" class="node"><title>Node11</title>
<g id="a_node11"><a xlink:href="../../d3/dee/classgame_player_1_1main_classes_1_1welcome_screen_1_1_game_start_manager.html#a4ac849399bf00c6df86f0db25ea95ed8" target="_top" xlink:title="gamePlayer.mainClasses.welcome\lScreen.GameStartManager.startGame">
<polygon fill="white" stroke="black" points="1426.5,-143 1426.5,-173 1629.5,-173 1629.5,-143 1426.5,-143"/>
<text text-anchor="start" x="1434.5" y="-161" font-family="Helvetica,sans-Serif" font-size="10.00">gamePlayer.mainClasses.welcome</text>
<text text-anchor="middle" x="1528" y="-150" font-family="Helvetica,sans-Serif" font-size="10.00">Screen.GameStartManager.startGame</text>
</a>
</g>
</g>
<!-- Node10&#45;&gt;Node11 -->
<g id="edge10" class="edge"><title>Node10&#45;&gt;Node11</title>
<path fill="none" stroke="midnightblue" d="M1135.82,-253.115C1207.36,-244.674 1302.03,-230.845 1384,-210 1421.63,-200.429 1463.2,-184.704 1491.77,-173.048"/>
<polygon fill="midnightblue" stroke="midnightblue" points="1135.41,-249.639 1125.88,-254.271 1136.22,-256.592 1135.41,-249.639"/>
</g>
<!-- Node12&#45;&gt;Node7 -->
<g id="edge16" class="edge"><title>Node12&#45;&gt;Node7</title>
<path fill="none" stroke="midnightblue" d="M859.746,-173.268C890.737,-180.241 926.17,-188.213 956.089,-194.945"/>
<polygon fill="midnightblue" stroke="midnightblue" points="860.378,-169.823 849.853,-171.042 858.841,-176.652 860.378,-169.823"/>
</g>
<!-- Node13 -->
<g id="node13" class="node"><title>Node13</title>
<g id="a_node13"><a xlink:href="../../da/d69/classgame_player_1_1main_classes_1_1managers_1_1_gui_manager.html#ad50f462f8d45a5bbfc8a17290372a1ab" target="_top" xlink:title="gamePlayer.mainClasses.managers.\lGuiManager.joinMultiPlayerGame">
<polygon fill="white" stroke="black" points="928.5,-27 928.5,-57 1119.5,-57 1119.5,-27 928.5,-27"/>
<text text-anchor="start" x="936.5" y="-45" font-family="Helvetica,sans-Serif" font-size="10.00">gamePlayer.mainClasses.managers.</text>
<text text-anchor="middle" x="1024" y="-34" font-family="Helvetica,sans-Serif" font-size="10.00">GuiManager.joinMultiPlayerGame</text>
</a>
</g>
</g>
<!-- Node12&#45;&gt;Node13 -->
<g id="edge12" class="edge"><title>Node12&#45;&gt;Node13</title>
<path fill="none" stroke="midnightblue" d="M808.251,-134.208C833.414,-113.616 873.973,-83.3658 914,-66 921.91,-62.5681 930.364,-59.6041 938.933,-57.0491"/>
<polygon fill="midnightblue" stroke="midnightblue" points="805.786,-131.706 800.331,-140.789 810.259,-137.09 805.786,-131.706"/>
</g>
<!-- Node17 -->
<g id="node17" class="node"><title>Node17</title>
<g id="a_node17"><a xlink:href="../../d4/d3f/classgame_player_1_1main_classes_1_1managers_1_1_welcome_manager.html#a55598dd2973b0a9b979151dd60c9e436" target="_top" xlink:title="gamePlayer.mainClasses.managers.\lWelcomeManager.pollEngineForMultiPlayer\lReadiness">
<polygon fill="white" stroke="black" points="914.5,-135.5 914.5,-176.5 1133.5,-176.5 1133.5,-135.5 914.5,-135.5"/>
<text text-anchor="start" x="922.5" y="-164.5" font-family="Helvetica,sans-Serif" font-size="10.00">gamePlayer.mainClasses.managers.</text>
<text text-anchor="start" x="922.5" y="-153.5" font-family="Helvetica,sans-Serif" font-size="10.00">WelcomeManager.pollEngineForMultiPlayer</text>
<text text-anchor="middle" x="1024" y="-142.5" font-family="Helvetica,sans-Serif" font-size="10.00">Readiness</text>
</a>
</g>
</g>
<!-- Node12&#45;&gt;Node17 -->
<g id="edge17" class="edge"><title>Node12&#45;&gt;Node17</title>
<path fill="none" stroke="midnightblue" d="M887.766,-156C896.556,-156 905.457,-156 914.276,-156"/>
<polygon fill="midnightblue" stroke="midnightblue" points="887.51,-152.5 877.51,-156 887.51,-159.5 887.51,-152.5"/>
</g>
<!-- Node19 -->
<g id="node19" class="node"><title>Node19</title>
<g id="a_node19"><a xlink:href="../../d3/dee/classgame_player_1_1main_classes_1_1welcome_screen_1_1_game_start_manager.html#a5d5001d1ee14ae57deef01f6e3ddde31" target="_top" xlink:title="gamePlayer.mainClasses.welcome\lScreen.GameStartManager.pollEngine\lForMultiPlayerReadiness">
<polygon fill="white" stroke="black" points="924,-75.5 924,-116.5 1124,-116.5 1124,-75.5 924,-75.5"/>
<text text-anchor="start" x="932" y="-104.5" font-family="Helvetica,sans-Serif" font-size="10.00">gamePlayer.mainClasses.welcome</text>
<text text-anchor="start" x="932" y="-93.5" font-family="Helvetica,sans-Serif" font-size="10.00">Screen.GameStartManager.pollEngine</text>
<text text-anchor="middle" x="1024" y="-82.5" font-family="Helvetica,sans-Serif" font-size="10.00">ForMultiPlayerReadiness</text>
</a>
</g>
</g>
<!-- Node12&#45;&gt;Node19 -->
<g id="edge20" class="edge"><title>Node12&#45;&gt;Node19</title>
<path fill="none" stroke="midnightblue" d="M853.176,-138.456C880.672,-131.582 912.41,-123.648 940.954,-116.511"/>
<polygon fill="midnightblue" stroke="midnightblue" points="852.105,-135.116 843.252,-140.937 853.803,-141.907 852.105,-135.116"/>
</g>
<!-- Node14 -->
<g id="node14" class="node"><title>Node14</title>
<g id="a_node14"><a xlink:href="../../d4/d3f/classgame_player_1_1main_classes_1_1managers_1_1_welcome_manager.html#a71a2a80cfe9d3a07d7becc506178acfd" target="_top" xlink:title="gamePlayer.mainClasses.managers.\lWelcomeManager.joinMultiPlayerGame">
<polygon fill="white" stroke="black" points="1176.5,-0 1176.5,-30 1377.5,-30 1377.5,-0 1176.5,-0"/>
<text text-anchor="start" x="1184.5" y="-18" font-family="Helvetica,sans-Serif" font-size="10.00">gamePlayer.mainClasses.managers.</text>
<text text-anchor="middle" x="1277" y="-7" font-family="Helvetica,sans-Serif" font-size="10.00">WelcomeManager.joinMultiPlayerGame</text>
</a>
</g>
</g>
<!-- Node13&#45;&gt;Node14 -->
<g id="edge13" class="edge"><title>Node13&#45;&gt;Node14</title>
<path fill="none" stroke="midnightblue" d="M1129.58,-30.7503C1144.98,-29.0941 1160.81,-27.3913 1176.11,-25.7456"/>
<polygon fill="midnightblue" stroke="midnightblue" points="1129.1,-27.2814 1119.53,-31.8309 1129.85,-34.2412 1129.1,-27.2814"/>
</g>
<!-- Node16 -->
<g id="node16" class="node"><title>Node16</title>
<g id="a_node16"><a xlink:href="../../d3/dee/classgame_player_1_1main_classes_1_1welcome_screen_1_1_game_start_manager.html#a7465850240e12e23aec544dbfd08f6a0" target="_top" xlink:title="gamePlayer.mainClasses.welcome\lScreen.GameStartManager.joinMulti\lPlayerGame">
<polygon fill="white" stroke="black" points="1182,-48.5 1182,-89.5 1372,-89.5 1372,-48.5 1182,-48.5"/>
<text text-anchor="start" x="1190" y="-77.5" font-family="Helvetica,sans-Serif" font-size="10.00">gamePlayer.mainClasses.welcome</text>
<text text-anchor="start" x="1190" y="-66.5" font-family="Helvetica,sans-Serif" font-size="10.00">Screen.GameStartManager.joinMulti</text>
<text text-anchor="middle" x="1277" y="-55.5" font-family="Helvetica,sans-Serif" font-size="10.00">PlayerGame</text>
</a>
</g>
</g>
<!-- Node13&#45;&gt;Node16 -->
<g id="edge15" class="edge"><title>Node13&#45;&gt;Node16</title>
<path fill="none" stroke="midnightblue" d="M1129.67,-53.2596C1147.02,-55.1253 1164.91,-57.0497 1181.97,-58.8849"/>
<polygon fill="midnightblue" stroke="midnightblue" points="1129.85,-49.7588 1119.53,-52.1691 1129.1,-56.7186 1129.85,-49.7588"/>
</g>
<!-- Node15 -->
<g id="node15" class="node"><title>Node15</title>
<g id="a_node15"><a xlink:href="../../d4/d3f/classgame_player_1_1main_classes_1_1managers_1_1_welcome_manager.html#aa605746e09c481b225463d37a82427e3" target="_top" xlink:title="gamePlayer.mainClasses.managers.\lWelcomeManager.startMultiPlayerOptions">
<polygon fill="white" stroke="black" points="1420.5,-0 1420.5,-30 1635.5,-30 1635.5,-0 1420.5,-0"/>
<text text-anchor="start" x="1428.5" y="-18" font-family="Helvetica,sans-Serif" font-size="10.00">gamePlayer.mainClasses.managers.</text>
<text text-anchor="middle" x="1528" y="-7" font-family="Helvetica,sans-Serif" font-size="10.00">WelcomeManager.startMultiPlayerOptions</text>
</a>
</g>
</g>
<!-- Node14&#45;&gt;Node15 -->
<g id="edge14" class="edge"><title>Node14&#45;&gt;Node15</title>
<path fill="none" stroke="midnightblue" d="M1388.03,-15C1398.72,-15 1409.55,-15 1420.2,-15"/>
<polygon fill="midnightblue" stroke="midnightblue" points="1387.84,-11.5001 1377.84,-15 1387.84,-18.5001 1387.84,-11.5001"/>
</g>
<!-- Node18 -->
<g id="node18" class="node"><title>Node18</title>
<g id="a_node18"><a xlink:href="../../d4/d3f/classgame_player_1_1main_classes_1_1managers_1_1_welcome_manager.html#a0669db103a94675dce875042258da508" target="_top" xlink:title="gamePlayer.mainClasses.managers.\lWelcomeManager.startMultiPlayerGame">
<polygon fill="white" stroke="black" points="1173.5,-171 1173.5,-201 1380.5,-201 1380.5,-171 1173.5,-171"/>
<text text-anchor="start" x="1181.5" y="-189" font-family="Helvetica,sans-Serif" font-size="10.00">gamePlayer.mainClasses.managers.</text>
<text text-anchor="middle" x="1277" y="-178" font-family="Helvetica,sans-Serif" font-size="10.00">WelcomeManager.startMultiPlayerGame</text>
</a>
</g>
</g>
<!-- Node17&#45;&gt;Node18 -->
<g id="edge18" class="edge"><title>Node17&#45;&gt;Node18</title>
<path fill="none" stroke="midnightblue" d="M1143.82,-170.201C1153.62,-171.373 1163.48,-172.551 1173.15,-173.707"/>
<polygon fill="midnightblue" stroke="midnightblue" points="1143.98,-166.696 1133.63,-168.984 1143.15,-173.646 1143.98,-166.696"/>
</g>
<!-- Node18&#45;&gt;Node9 -->
<g id="edge19" class="edge"><title>Node18&#45;&gt;Node9</title>
<path fill="none" stroke="midnightblue" d="M1364.22,-202.967C1392.36,-208.505 1423.39,-214.611 1450.74,-219.994"/>
<polygon fill="midnightblue" stroke="midnightblue" points="1364.89,-199.531 1354.4,-201.035 1363.54,-206.4 1364.89,-199.531"/>
</g>
<!-- Node20 -->
<g id="node20" class="node"><title>Node20</title>
<g id="a_node20"><a xlink:href="../../d3/dee/classgame_player_1_1main_classes_1_1welcome_screen_1_1_game_start_manager.html#a994c29260d6cb90abf19dca2b3463b6a" target="_top" xlink:title="gamePlayer.mainClasses.welcome\lScreen.GameStartManager.startMulti\lPlayerGame">
<polygon fill="white" stroke="black" points="1179,-109.5 1179,-150.5 1375,-150.5 1375,-109.5 1179,-109.5"/>
<text text-anchor="start" x="1187" y="-138.5" font-family="Helvetica,sans-Serif" font-size="10.00">gamePlayer.mainClasses.welcome</text>
<text text-anchor="start" x="1187" y="-127.5" font-family="Helvetica,sans-Serif" font-size="10.00">Screen.GameStartManager.startMulti</text>
<text text-anchor="middle" x="1277" y="-116.5" font-family="Helvetica,sans-Serif" font-size="10.00">PlayerGame</text>
</a>
</g>
</g>
<!-- Node19&#45;&gt;Node20 -->
<g id="edge21" class="edge"><title>Node19&#45;&gt;Node20</title>
<path fill="none" stroke="midnightblue" d="M1134.37,-110.815C1149.14,-112.815 1164.21,-114.857 1178.75,-116.827"/>
<polygon fill="midnightblue" stroke="midnightblue" points="1134.58,-107.312 1124.2,-109.438 1133.64,-114.248 1134.58,-107.312"/>
</g>
<!-- Node20&#45;&gt;Node11 -->
<g id="edge22" class="edge"><title>Node20&#45;&gt;Node11</title>
<path fill="none" stroke="midnightblue" d="M1385.64,-142.104C1399.19,-143.628 1413.01,-145.182 1426.45,-146.693"/>
<polygon fill="midnightblue" stroke="midnightblue" points="1385.67,-138.585 1375.34,-140.946 1384.89,-145.541 1385.67,-138.585"/>
</g>
</g>
</svg>
