<?xml version="1.0" encoding="UTF-8" standalone="no"?>
<!DOCTYPE svg PUBLIC "-//W3C//DTD SVG 1.1//EN"
 "http://www.w3.org/Graphics/SVG/1.1/DTD/svg11.dtd">
<!-- Generated by graphviz version 2.36.0 (20140111.2315)
 -->
<!-- Title: gamePlayer.guiItems.welcome.GameChooser.loadGameDescriptions Pages: 1 -->
<svg width="690pt" height="48pt"
 viewBox="0.00 0.00 690.00 48.00" xmlns="http://www.w3.org/2000/svg" xmlns:xlink="http://www.w3.org/1999/xlink">
<g id="graph0" class="graph" transform="scale(1 1) rotate(0) translate(4 44)">
<title>gamePlayer.guiItems.welcome.GameChooser.loadGameDescriptions</title>
<polygon fill="white" stroke="none" points="-4,4 -4,-44 686,-44 686,4 -4,4"/>
<!-- Node1 -->
<g id="node1" class="node"><title>Node1</title>
<polygon fill="#bfbfbf" stroke="black" points="0.5,-5 0.5,-35 197.5,-35 197.5,-5 0.5,-5"/>
<text text-anchor="start" x="8.5" y="-23" font-family="Helvetica,sans-Serif" font-size="10.00">gamePlayer.guiItems.welcome.</text>
<text text-anchor="middle" x="99" y="-12" font-family="Helvetica,sans-Serif" font-size="10.00">GameChooser.loadGameDescriptions</text>
</g>
<!-- Node2 -->
<g id="node2" class="node"><title>Node2</title>
<g id="a_node2"><a xlink:href="../../dc/d80/classgame_player_1_1main_classes_1_1welcome_screen_1_1available_games_1_1_game_description_loader.html#a11fd7d4b0a0ef71b5c5460712bab3faa" target="_top" xlink:title="gamePlayer.mainClasses.welcome\lScreen.availableGames.GameDescription\lLoader.getDescriptions">
<polygon fill="white" stroke="black" points="234,0.5 234,-40.5 450,-40.5 450,0.5 234,0.5"/>
<text text-anchor="start" x="242" y="-28.5" font-family="Helvetica,sans-Serif" font-size="10.00">gamePlayer.mainClasses.welcome</text>
<text text-anchor="start" x="242" y="-17.5" font-family="Helvetica,sans-Serif" font-size="10.00">Screen.availableGames.GameDescription</text>
<text text-anchor="middle" x="342" y="-6.5" font-family="Helvetica,sans-Serif" font-size="10.00">Loader.getDescriptions</text>
</a>
</g>
</g>
<!-- Node1&#45;&gt;Node2 -->
<g id="edge1" class="edge"><title>Node1&#45;&gt;Node2</title>
<path fill="none" stroke="midnightblue" d="M197.677,-20C206.211,-20 214.903,-20 223.574,-20"/>
<polygon fill="midnightblue" stroke="midnightblue" points="223.733,-23.5001 233.733,-20 223.733,-16.5001 223.733,-23.5001"/>
</g>
<!-- Node3 -->
<g id="node3" class="node"><title>Node3</title>
<g id="a_node3"><a xlink:href="../../dc/d37/classutilities_1_1_java_f_xutilities_1_1image_view_1_1_string_to_image_view_converter.html#a5beb76f3bbfa4aae7d9b897a285b007b" target="_top" xlink:title="utilities.JavaFXutilities.image\lView.StringToImageViewConverter.get\lImageView">
<polygon fill="white" stroke="black" points="486,0.5 486,-40.5 682,-40.5 682,0.5 486,0.5"/>
<text text-anchor="start" x="494" y="-28.5" font-family="Helvetica,sans-Serif" font-size="10.00">utilities.JavaFXutilities.image</text>
<text text-anchor="start" x="494" y="-17.5" font-family="Helvetica,sans-Serif" font-size="10.00">View.StringToImageViewConverter.get</text>
<text text-anchor="middle" x="584" y="-6.5" font-family="Helvetica,sans-Serif" font-size="10.00">ImageView</text>
</a>
</g>
</g>
<!-- Node2&#45;&gt;Node3 -->
<g id="edge2" class="edge"><title>Node2&#45;&gt;Node3</title>
<path fill="none" stroke="midnightblue" d="M450.015,-20C458.457,-20 466.986,-20 475.432,-20"/>
<polygon fill="midnightblue" stroke="midnightblue" points="475.682,-23.5001 485.682,-20 475.682,-16.5001 475.682,-23.5001"/>
</g>
</g>
</svg>
