<?xml version="1.0" encoding="UTF-8" standalone="no"?>
<!DOCTYPE svg PUBLIC "-//W3C//DTD SVG 1.1//EN"
 "http://www.w3.org/Graphics/SVG/1.1/DTD/svg11.dtd">
<!-- Generated by graphviz version 2.36.0 (20140111.2315)
 -->
<!-- Title: gamePlayer.unusedCodeWarehouse.guiItems.store.UpgradeStore.buildHeader Pages: 1 -->
<svg width="698pt" height="38pt"
 viewBox="0.00 0.00 698.00 38.00" xmlns="http://www.w3.org/2000/svg" xmlns:xlink="http://www.w3.org/1999/xlink">
<g id="graph0" class="graph" transform="scale(1 1) rotate(0) translate(4 34)">
<title>gamePlayer.unusedCodeWarehouse.guiItems.store.UpgradeStore.buildHeader</title>
<polygon fill="white" stroke="none" points="-4,4 -4,-34 694,-34 694,4 -4,4"/>
<!-- Node1 -->
<g id="node1" class="node"><title>Node1</title>
<polygon fill="#bfbfbf" stroke="black" points="0,-0 0,-30 206,-30 206,-0 0,-0"/>
<text text-anchor="start" x="8" y="-18" font-family="Helvetica,sans-Serif" font-size="10.00">gamePlayer.unusedCodeWarehouse.gui</text>
<text text-anchor="middle" x="103" y="-7" font-family="Helvetica,sans-Serif" font-size="10.00">Items.store.UpgradeStore.buildHeader</text>
</g>
<!-- Node2 -->
<g id="node2" class="node"><title>Node2</title>
<g id="a_node2"><a xlink:href="../../d9/d76/classgame_player_1_1unused_code_warehouse_1_1gui_items_1_1store_1_1_upgrade_store.html#a330c209a0e5d3988232f90a11220cecf" target="_top" xlink:title="gamePlayer.unusedCodeWarehouse.gui\lItems.store.UpgradeStore.initialize">
<polygon fill="white" stroke="black" points="242,-0 242,-30 448,-30 448,-0 242,-0"/>
<text text-anchor="start" x="250" y="-18" font-family="Helvetica,sans-Serif" font-size="10.00">gamePlayer.unusedCodeWarehouse.gui</text>
<text text-anchor="middle" x="345" y="-7" font-family="Helvetica,sans-Serif" font-size="10.00">Items.store.UpgradeStore.initialize</text>
</a>
</g>
</g>
<!-- Node1&#45;&gt;Node2 -->
<g id="edge1" class="edge"><title>Node1&#45;&gt;Node2</title>
<path fill="none" stroke="midnightblue" d="M216.187,-15C224.784,-15 233.435,-15 241.962,-15"/>
<polygon fill="midnightblue" stroke="midnightblue" points="216.13,-11.5001 206.13,-15 216.13,-18.5001 216.13,-11.5001"/>
</g>
<!-- Node3 -->
<g id="node3" class="node"><title>Node3</title>
<g id="a_node3"><a xlink:href="../../d6/dac/classgame_player_1_1unused_code_warehouse_1_1gui_items_1_1store_1_1_store.html#a59b7d877cfeac5073a0baf17ef643ee5" target="_top" xlink:title="gamePlayer.unusedCodeWarehouse.gui\lItems.store.Store.selectTower">
<polygon fill="white" stroke="black" points="484,-0 484,-30 690,-30 690,-0 484,-0"/>
<text text-anchor="start" x="492" y="-18" font-family="Helvetica,sans-Serif" font-size="10.00">gamePlayer.unusedCodeWarehouse.gui</text>
<text text-anchor="middle" x="587" y="-7" font-family="Helvetica,sans-Serif" font-size="10.00">Items.store.Store.selectTower</text>
</a>
</g>
</g>
<!-- Node2&#45;&gt;Node3 -->
<g id="edge2" class="edge"><title>Node2&#45;&gt;Node3</title>
<path fill="none" stroke="midnightblue" d="M458.187,-15C466.784,-15 475.435,-15 483.962,-15"/>
<polygon fill="midnightblue" stroke="midnightblue" points="458.13,-11.5001 448.13,-15 458.13,-18.5001 458.13,-11.5001"/>
</g>
</g>
</svg>
