<?xml version="1.0" encoding="UTF-8" standalone="no"?>
<!DOCTYPE svg PUBLIC "-//W3C//DTD SVG 1.1//EN"
 "http://www.w3.org/Graphics/SVG/1.1/DTD/svg11.dtd">
<!-- Generated by graphviz version 2.36.0 (20140111.2315)
 -->
<!-- Title: gameAuthoring.scenes.levelBuilding.LevelBuildingDisplay Pages: 1 -->
<svg width="474pt" height="202pt"
 viewBox="0.00 0.00 474.00 202.00" xmlns="http://www.w3.org/2000/svg" xmlns:xlink="http://www.w3.org/1999/xlink">
<g id="graph0" class="graph" transform="scale(1 1) rotate(0) translate(4 198)">
<title>gameAuthoring.scenes.levelBuilding.LevelBuildingDisplay</title>
<polygon fill="white" stroke="none" points="-4,4 -4,-198 470,-198 470,4 -4,4"/>
<!-- Node1 -->
<g id="node1" class="node"><title>Node1</title>
<polygon fill="#bfbfbf" stroke="black" points="312,-93 312,-123 466,-123 466,-93 312,-93"/>
<text text-anchor="start" x="320" y="-111" font-family="Helvetica,sans-Serif" font-size="10.00">gameAuthoring.scenes.level</text>
<text text-anchor="middle" x="389" y="-100" font-family="Helvetica,sans-Serif" font-size="10.00">Building.LevelBuildingDisplay</text>
</g>
<!-- Node2 -->
<g id="node2" class="node"><title>Node2</title>
<polygon fill="white" stroke="#bfbfbf" points="57,-174.5 57,-193.5 123,-193.5 123,-174.5 57,-174.5"/>
<text text-anchor="middle" x="90" y="-181.5" font-family="Helvetica,sans-Serif" font-size="10.00">ScrollPane</text>
</g>
<!-- Node2&#45;&gt;Node1 -->
<g id="edge1" class="edge"><title>Node2&#45;&gt;Node1</title>
<path fill="none" stroke="midnightblue" d="M133.263,-180.087C174.829,-175.504 239.755,-166.369 294,-150 316.759,-143.132 341.242,-132.064 359.514,-123.014"/>
<polygon fill="midnightblue" stroke="midnightblue" points="132.793,-176.617 123.22,-181.156 133.534,-183.578 132.793,-176.617"/>
</g>
<!-- Node3 -->
<g id="node3" class="node"><title>Node3</title>
<polygon fill="white" stroke="#bfbfbf" points="69.5,-136.5 69.5,-155.5 110.5,-155.5 110.5,-136.5 69.5,-136.5"/>
<text text-anchor="middle" x="90" y="-143.5" font-family="Helvetica,sans-Serif" font-size="10.00">VBox</text>
</g>
<!-- Node3&#45;&gt;Node1 -->
<g id="edge2" class="edge"><title>Node3&#45;&gt;Node1</title>
<path fill="none" stroke="#9a32cd" stroke-dasharray="5,2" d="M120.665,-143.065C160.253,-139.051 232.514,-131.385 294,-123 299.813,-122.207 305.821,-121.346 311.859,-120.45"/>
<polygon fill="#9a32cd" stroke="#9a32cd" points="120.233,-139.591 110.633,-144.075 120.934,-146.556 120.233,-139.591"/>
<text text-anchor="middle" x="246" y="-138" font-family="Helvetica,sans-Serif" font-size="10.00"> myLevelsContainer</text>
</g>
<!-- Node4 -->
<g id="node4" class="node"><title>Node4</title>
<polygon fill="white" stroke="#bfbfbf" points="70,-98.5 70,-117.5 110,-117.5 110,-98.5 70,-98.5"/>
<text text-anchor="middle" x="90" y="-105.5" font-family="Helvetica,sans-Serif" font-size="10.00">Pane</text>
</g>
<!-- Node4&#45;&gt;Node1 -->
<g id="edge3" class="edge"><title>Node4&#45;&gt;Node1</title>
<path fill="none" stroke="#9a32cd" stroke-dasharray="5,2" d="M120.054,-108C164.115,-108 249.312,-108 311.852,-108"/>
<polygon fill="#9a32cd" stroke="#9a32cd" points="120.031,-104.5 110.03,-108 120.03,-111.5 120.031,-104.5"/>
<text text-anchor="middle" x="246" y="-111" font-family="Helvetica,sans-Serif" font-size="10.00"> myPane</text>
</g>
<!-- Node5 -->
<g id="node5" class="node"><title>Node5</title>
<polygon fill="white" stroke="#bfbfbf" points="20,-49 20,-79 160,-79 160,-49 20,-49"/>
<text text-anchor="start" x="28" y="-67" font-family="Helvetica,sans-Serif" font-size="10.00">List&lt; gameEngine.actors.</text>
<text text-anchor="middle" x="90" y="-56" font-family="Helvetica,sans-Serif" font-size="10.00">BaseEnemy &gt;</text>
</g>
<!-- Node5&#45;&gt;Node1 -->
<g id="edge4" class="edge"><title>Node5&#45;&gt;Node1</title>
<path fill="none" stroke="#9a32cd" stroke-dasharray="5,2" d="M170.456,-75.0444C207.95,-80.3345 253.298,-86.8456 294,-93 299.801,-93.8771 305.8,-94.7994 311.832,-95.7375"/>
<polygon fill="#9a32cd" stroke="#9a32cd" points="170.49,-71.5148 160.1,-73.5861 169.514,-78.4464 170.49,-71.5148"/>
<text text-anchor="middle" x="246" y="-96" font-family="Helvetica,sans-Serif" font-size="10.00"> myEnemies</text>
</g>
<!-- Node6 -->
<g id="node6" class="node"><title>Node6</title>
<polygon fill="white" stroke="#bfbfbf" points="0,-0 0,-30 180,-30 180,-0 0,-0"/>
<text text-anchor="start" x="8" y="-18" font-family="Helvetica,sans-Serif" font-size="10.00">List&lt; gameAuthoring.scenes.level</text>
<text text-anchor="middle" x="90" y="-7" font-family="Helvetica,sans-Serif" font-size="10.00">Building.LevelDisplayCell &gt;</text>
</g>
<!-- Node6&#45;&gt;Node1 -->
<g id="edge5" class="edge"><title>Node6&#45;&gt;Node1</title>
<path fill="none" stroke="#9a32cd" stroke-dasharray="5,2" d="M176.836,-32.3876C213.402,-40.7556 256.247,-51.8464 294,-65 316.37,-72.794 340.662,-83.9828 358.947,-92.9933"/>
<polygon fill="#9a32cd" stroke="#9a32cd" points="177.223,-28.8871 166.698,-30.1002 175.682,-35.7155 177.223,-28.8871"/>
<text text-anchor="middle" x="246" y="-68" font-family="Helvetica,sans-Serif" font-size="10.00"> myLevelCells</text>
</g>
</g>
</svg>
