<?xml version="1.0" encoding="UTF-8" standalone="no"?>
<!DOCTYPE svg PUBLIC "-//W3C//DTD SVG 1.1//EN"
 "http://www.w3.org/Graphics/SVG/1.1/DTD/svg11.dtd">
<!-- Generated by graphviz version 2.36.0 (20140111.2315)
 -->
<!-- Title: gameEngine.actors.behaviors.EnemyHomingMovement Pages: 1 -->
<svg width="930pt" height="420pt"
 viewBox="0.00 0.00 930.00 420.00" xmlns="http://www.w3.org/2000/svg" xmlns:xlink="http://www.w3.org/1999/xlink">
<g id="graph0" class="graph" transform="scale(1 1) rotate(0) translate(4 416)">
<title>gameEngine.actors.behaviors.EnemyHomingMovement</title>
<polygon fill="white" stroke="none" points="-4,4 -4,-416 926,-416 926,4 -4,4"/>
<!-- Node1 -->
<g id="node1" class="node"><title>Node1</title>
<polygon fill="#bfbfbf" stroke="black" points="760,-247 760,-277 922,-277 922,-247 760,-247"/>
<text text-anchor="start" x="768" y="-265" font-family="Helvetica,sans-Serif" font-size="10.00">gameEngine.actors.behaviors.</text>
<text text-anchor="middle" x="841" y="-254" font-family="Helvetica,sans-Serif" font-size="10.00">EnemyHomingMovement</text>
</g>
<!-- Node2 -->
<g id="node2" class="node"><title>Node2</title>
<g id="a_node2"><a xlink:href="../../de/d4a/classgame_engine_1_1actors_1_1behaviors_1_1_base_movement_behavior.html" target="_top" xlink:title="gameEngine.actors.behaviors.\lBaseMovementBehavior">
<polygon fill="white" stroke="black" points="474,-313 474,-343 636,-343 636,-313 474,-313"/>
<text text-anchor="start" x="482" y="-331" font-family="Helvetica,sans-Serif" font-size="10.00">gameEngine.actors.behaviors.</text>
<text text-anchor="middle" x="555" y="-320" font-family="Helvetica,sans-Serif" font-size="10.00">BaseMovementBehavior</text>
</a>
</g>
</g>
<!-- Node2&#45;&gt;Node1 -->
<g id="edge1" class="edge"><title>Node2&#45;&gt;Node1</title>
<path fill="none" stroke="midnightblue" d="M630.759,-310.626C675.58,-300.21 732.023,-287.093 774.988,-277.108"/>
<polygon fill="midnightblue" stroke="midnightblue" points="629.747,-307.268 620.799,-312.941 631.332,-314.086 629.747,-307.268"/>
</g>
<!-- Node3 -->
<g id="node3" class="node"><title>Node3</title>
<g id="a_node3"><a xlink:href="../../dd/d43/interfacegame_engine_1_1actors_1_1behaviors_1_1_i_behavior.html" target="_top" xlink:title="gameEngine.actors.behaviors.\lIBehavior">
<polygon fill="white" stroke="black" points="139,-382 139,-412 301,-412 301,-382 139,-382"/>
<text text-anchor="start" x="147" y="-400" font-family="Helvetica,sans-Serif" font-size="10.00">gameEngine.actors.behaviors.</text>
<text text-anchor="middle" x="220" y="-389" font-family="Helvetica,sans-Serif" font-size="10.00">IBehavior</text>
</a>
</g>
</g>
<!-- Node3&#45;&gt;Node2 -->
<g id="edge2" class="edge"><title>Node3&#45;&gt;Node2</title>
<path fill="none" stroke="midnightblue" d="M311.231,-384.218C355.158,-377.342 408.596,-368.007 456,-357 472.938,-353.067 491.269,-347.896 507.445,-343.01"/>
<polygon fill="midnightblue" stroke="midnightblue" points="310.493,-380.791 301.147,-385.78 311.564,-387.708 310.493,-380.791"/>
</g>
<!-- Node4 -->
<g id="node4" class="node"><title>Node4</title>
<polygon fill="white" stroke="#bfbfbf" points="175.5,-343.5 175.5,-362.5 264.5,-362.5 264.5,-343.5 175.5,-343.5"/>
<text text-anchor="middle" x="220" y="-350.5" font-family="Helvetica,sans-Serif" font-size="10.00">List&lt; Double &gt;</text>
</g>
<!-- Node4&#45;&gt;Node2 -->
<g id="edge3" class="edge"><title>Node4&#45;&gt;Node2</title>
<path fill="none" stroke="#9a32cd" stroke-dasharray="5,2" d="M274.556,-348.979C328.379,-344.938 411.994,-338.661 473.745,-334.025"/>
<polygon fill="#9a32cd" stroke="#9a32cd" points="274.244,-345.493 264.534,-349.732 274.768,-352.473 274.244,-345.493"/>
<text text-anchor="middle" x="404" y="-345" font-family="Helvetica,sans-Serif" font-size="10.00"> myList</text>
</g>
<!-- Node5 -->
<g id="node5" class="node"><title>Node5</title>
<polygon fill="white" stroke="#bfbfbf" points="118.5,-283.5 118.5,-324.5 321.5,-324.5 321.5,-283.5 118.5,-283.5"/>
<text text-anchor="start" x="126.5" y="-312.5" font-family="Helvetica,sans-Serif" font-size="10.00">List&lt; gameAuthoring.scenes.path</text>
<text text-anchor="start" x="126.5" y="-301.5" font-family="Helvetica,sans-Serif" font-size="10.00">Building.pathComponents.routeToPoint</text>
<text text-anchor="middle" x="220" y="-290.5" font-family="Helvetica,sans-Serif" font-size="10.00">Translation.VisibilityPoint &gt;</text>
</g>
<!-- Node5&#45;&gt;Node2 -->
<g id="edge4" class="edge"><title>Node5&#45;&gt;Node2</title>
<path fill="none" stroke="#9a32cd" stroke-dasharray="5,2" d="M331.779,-311.234C371.023,-313.879 415.485,-316.967 456,-320 461.788,-320.433 467.767,-320.893 473.784,-321.363"/>
<polygon fill="#9a32cd" stroke="#9a32cd" points="331.868,-307.732 321.655,-310.554 331.398,-314.717 331.868,-307.732"/>
<text text-anchor="middle" x="404" y="-323" font-family="Helvetica,sans-Serif" font-size="10.00"> myRoute</text>
</g>
<!-- Node6 -->
<g id="node6" class="node"><title>Node6</title>
<g id="a_node6"><a xlink:href="../../d5/d02/classgame_engine_1_1actors_1_1_base_actor.html" target="_top" xlink:title="gameEngine.actors.BaseActor">
<polygon fill="white" stroke="black" points="474,-152.5 474,-171.5 636,-171.5 636,-152.5 474,-152.5"/>
<text text-anchor="middle" x="555" y="-159.5" font-family="Helvetica,sans-Serif" font-size="10.00">gameEngine.actors.BaseActor</text>
</a>
</g>
</g>
<!-- Node6&#45;&gt;Node1 -->
<g id="edge5" class="edge"><title>Node6&#45;&gt;Node1</title>
<path fill="none" stroke="#9a32cd" stroke-dasharray="5,2" d="M592.824,-174.966C645.375,-193.47 741.661,-227.373 797.278,-246.957"/>
<polygon fill="#9a32cd" stroke="#9a32cd" points="593.826,-171.608 583.231,-171.588 591.501,-178.211 593.826,-171.608"/>
<text text-anchor="middle" x="698" y="-230" font-family="Helvetica,sans-Serif" font-size="10.00"> myHomedEnemy</text>
</g>
<!-- Node7 -->
<g id="node7" class="node"><title>Node7</title>
<polygon fill="white" stroke="#bfbfbf" points="184.5,-245.5 184.5,-264.5 255.5,-264.5 255.5,-245.5 184.5,-245.5"/>
<text text-anchor="middle" x="220" y="-252.5" font-family="Helvetica,sans-Serif" font-size="10.00">Observable</text>
</g>
<!-- Node7&#45;&gt;Node6 -->
<g id="edge6" class="edge"><title>Node7&#45;&gt;Node6</title>
<path fill="none" stroke="midnightblue" d="M265.945,-253.096C314.155,-249.921 392.365,-241.468 456,-219 488.851,-207.401 523.123,-184.593 541.147,-171.621"/>
<polygon fill="midnightblue" stroke="midnightblue" points="265.603,-249.611 255.835,-253.714 266.03,-256.598 265.603,-249.611"/>
</g>
<!-- Node8 -->
<g id="node8" class="node"><title>Node8</title>
<polygon fill="white" stroke="#bfbfbf" points="106,-196 106,-226 334,-226 334,-196 106,-196"/>
<text text-anchor="start" x="114" y="-214" font-family="Helvetica,sans-Serif" font-size="10.00">Map&lt; String, gameEngine.actors.behaviors.</text>
<text text-anchor="middle" x="220" y="-203" font-family="Helvetica,sans-Serif" font-size="10.00">IBehavior &gt;</text>
</g>
<!-- Node8&#45;&gt;Node6 -->
<g id="edge7" class="edge"><title>Node8&#45;&gt;Node6</title>
<path fill="none" stroke="#9a32cd" stroke-dasharray="5,2" d="M336.135,-194.534C374.293,-189.026 416.98,-182.809 456,-177 467.747,-175.251 480.281,-173.355 492.324,-171.519"/>
<polygon fill="#9a32cd" stroke="#9a32cd" points="335.417,-191.102 326.019,-195.993 336.416,-198.03 335.417,-191.102"/>
<text text-anchor="middle" x="404" y="-207" font-family="Helvetica,sans-Serif" font-size="10.00"> myBehaviors</text>
<text text-anchor="middle" x="404" y="-196" font-family="Helvetica,sans-Serif" font-size="10.00">myDebuffs</text>
</g>
<!-- Node9 -->
<g id="node9" class="node"><title>Node9</title>
<g id="a_node9"><a xlink:href="../../d2/d81/interfacegame_engine_1_1_manager_interface_1_1_information_interface.html" target="_top" xlink:title="gameEngine.ManagerInterface.\lInformationInterface">
<polygon fill="white" stroke="black" points="136.5,-147 136.5,-177 303.5,-177 303.5,-147 136.5,-147"/>
<text text-anchor="start" x="144.5" y="-165" font-family="Helvetica,sans-Serif" font-size="10.00">gameEngine.ManagerInterface.</text>
<text text-anchor="middle" x="220" y="-154" font-family="Helvetica,sans-Serif" font-size="10.00">InformationInterface</text>
</a>
</g>
</g>
<!-- Node9&#45;&gt;Node6 -->
<g id="edge8" class="edge"><title>Node9&#45;&gt;Node6</title>
<path fill="none" stroke="#9a32cd" stroke-dasharray="5,2" d="M313.974,-162C364.291,-162 425.819,-162 473.982,-162"/>
<polygon fill="#9a32cd" stroke="#9a32cd" points="313.742,-158.5 303.742,-162 313.742,-165.5 313.742,-158.5"/>
<text text-anchor="middle" x="404" y="-165" font-family="Helvetica,sans-Serif" font-size="10.00"> myInfo</text>
</g>
<!-- Node10 -->
<g id="node10" class="node"><title>Node10</title>
<polygon fill="white" stroke="#bfbfbf" points="126,-98 126,-128 314,-128 314,-98 126,-98"/>
<text text-anchor="start" x="134" y="-116" font-family="Helvetica,sans-Serif" font-size="10.00">Set&lt; Class&lt;?extends</text>
<text text-anchor="middle" x="220" y="-105" font-family="Helvetica,sans-Serif" font-size="10.00"> gameEngine.actors.BaseActor &gt; &gt;</text>
</g>
<!-- Node10&#45;&gt;Node6 -->
<g id="edge9" class="edge"><title>Node10&#45;&gt;Node6</title>
<path fill="none" stroke="#9a32cd" stroke-dasharray="5,2" d="M324.237,-127.75C365.26,-133.66 412.87,-140.579 456,-147 467.747,-148.749 480.281,-150.645 492.324,-152.481"/>
<polygon fill="#9a32cd" stroke="#9a32cd" points="324.626,-124.27 314.23,-126.309 323.629,-131.198 324.626,-124.27"/>
<text text-anchor="middle" x="404" y="-150" font-family="Helvetica,sans-Serif" font-size="10.00"> myTypes</text>
</g>
<!-- Node11 -->
<g id="node11" class="node"><title>Node11</title>
<polygon fill="white" stroke="#bfbfbf" points="125,-49 125,-79 315,-79 315,-49 125,-49"/>
<text text-anchor="start" x="133" y="-67" font-family="Helvetica,sans-Serif" font-size="10.00">Set&lt; gameEngine.actors.behaviors.</text>
<text text-anchor="middle" x="220" y="-56" font-family="Helvetica,sans-Serif" font-size="10.00">IBehavior &gt;</text>
</g>
<!-- Node11&#45;&gt;Node6 -->
<g id="edge10" class="edge"><title>Node11&#45;&gt;Node6</title>
<path fill="none" stroke="#9a32cd" stroke-dasharray="5,2" d="M318.619,-81.0028C361.386,-89.7284 411.797,-101.764 456,-117 484.851,-126.944 516.692,-142.468 536.019,-152.436"/>
<polygon fill="#9a32cd" stroke="#9a32cd" points="319.264,-77.5625 308.77,-79.024 317.885,-84.4254 319.264,-77.5625"/>
<text text-anchor="middle" x="404" y="-120" font-family="Helvetica,sans-Serif" font-size="10.00"> myDebuffsToRemove</text>
</g>
<!-- Node12 -->
<g id="node12" class="node"><title>Node12</title>
<g id="a_node12"><a xlink:href="../../dd/df0/classutilities_1_1_java_f_xutilities_1_1image_view_1_1_centered_image_view.html" target="_top" xlink:title="utilities.JavaFXutilities.image\lView.CenteredImageView">
<polygon fill="white" stroke="black" points="144.5,-0 144.5,-30 295.5,-30 295.5,-0 144.5,-0"/>
<text text-anchor="start" x="152.5" y="-18" font-family="Helvetica,sans-Serif" font-size="10.00">utilities.JavaFXutilities.image</text>
<text text-anchor="middle" x="220" y="-7" font-family="Helvetica,sans-Serif" font-size="10.00">View.CenteredImageView</text>
</a>
</g>
</g>
<!-- Node12&#45;&gt;Node6 -->
<g id="edge11" class="edge"><title>Node12&#45;&gt;Node6</title>
<path fill="none" stroke="#9a32cd" stroke-dasharray="5,2" d="M305.633,-25.3798C352.184,-33.6923 409.712,-48.3792 456,-74 494.412,-95.2616 530.331,-134.131 545.89,-152.237"/>
<polygon fill="#9a32cd" stroke="#9a32cd" points="306.02,-21.8951 295.572,-23.6512 304.835,-28.794 306.02,-21.8951"/>
<text text-anchor="middle" x="404" y="-77" font-family="Helvetica,sans-Serif" font-size="10.00"> myNode</text>
</g>
<!-- Node13 -->
<g id="node13" class="node"><title>Node13</title>
<polygon fill="white" stroke="#bfbfbf" points="0,-5.5 0,-24.5 68,-24.5 68,-5.5 0,-5.5"/>
<text text-anchor="middle" x="34" y="-12.5" font-family="Helvetica,sans-Serif" font-size="10.00">ImageView</text>
</g>
<!-- Node13&#45;&gt;Node12 -->
<g id="edge12" class="edge"><title>Node13&#45;&gt;Node12</title>
<path fill="none" stroke="midnightblue" d="M78.4898,-15C98.1539,-15 121.959,-15 144.344,-15"/>
<polygon fill="midnightblue" stroke="midnightblue" points="78.321,-11.5001 68.321,-15 78.321,-18.5001 78.321,-11.5001"/>
</g>
</g>
</svg>
