<?xml version="1.0" encoding="UTF-8" standalone="no"?>
<!DOCTYPE svg PUBLIC "-//W3C//DTD SVG 1.1//EN"
 "http://www.w3.org/Graphics/SVG/1.1/DTD/svg11.dtd">
<!-- Generated by graphviz version 2.36.0 (20140111.2315)
 -->
<!-- Title: gameEngine.CoOpManager.initializeGame Pages: 1 -->
<!--zoomable 175 -->
<svg id="main" version="1.1" xmlns="http://www.w3.org/2000/svg" xmlns:xlink="http://www.w3.org/1999/xlink" xml:space="preserve" onload="init(evt)">
<style type="text/css"><![CDATA[
.edge:hover path { stroke: red; }
.edge:hover polygon { stroke: red; fill: red; }
]]></style>
<script type="text/javascript"><![CDATA[
var edges = document.getElementsByTagName('g');
if (edges && edges.length) {
  for (var i=0;i<edges.length;i++) {
    if (edges[i].id.substr(0,4)=='edge') {
      edges[i].setAttribute('class','edge');
    }
  }
}
]]></script>
        <defs>
                <circle id="rim" cx="0" cy="0" r="7"/>
                <circle id="rim2" cx="0" cy="0" r="3.5"/>
                <g id="zoomPlus">
                        <use xlink:href="#rim" fill="#404040">
                                <set attributeName="fill" to="#808080" begin="zoomplus.mouseover" end="zoomplus.mouseout"/>
                        </use>
                        <path d="M-4,0h8M0,-4v8" fill="none" stroke="white" stroke-width="1.5" pointer-events="none"/>
                </g>
                <g id="zoomMin">
                        <use xlink:href="#rim" fill="#404040">
                                <set attributeName="fill" to="#808080" begin="zoomminus.mouseover" end="zoomminus.mouseout"/>
                        </use>
                        <path d="M-4,0h8" fill="none" stroke="white" stroke-width="1.5" pointer-events="none"/>
                </g>
                <g id="dirArrow">
                        <path fill="none" stroke="white" stroke-width="1.5" d="M0,-3.0v7 M-2.5,-0.5L0,-3.0L2.5,-0.5"/>
                </g>
               <g id="resetDef">
                       <use xlink:href="#rim2" fill="#404040">
                               <set attributeName="fill" to="#808080" begin="reset.mouseover" end="reset.mouseout"/>
                       </use>
               </g>
        </defs>

<script type="text/javascript">
var viewWidth = 1336;
var viewHeight = 175;
var sectionId = 'dynsection-12';
</script>
<script xlink:href="../../svgpan.js"/>
<svg id="graph" class="graph">
<g id="viewport">
<title>gameEngine.CoOpManager.initializeGame</title>
<polygon fill="white" stroke="none" points="-4,4 -4,-171 1332,-171 1332,4 -4,4"/>
<!-- Node1 -->
<g id="node1" class="node"><title>Node1</title>
<polygon fill="#bfbfbf" stroke="black" points="0,-68.5 0,-87.5 218,-87.5 218,-68.5 0,-68.5"/>
<text text-anchor="middle" x="109" y="-75.5" font-family="Helvetica,sans-Serif" font-size="10.00">gameEngine.CoOpManager.initializeGame</text>
</g>
<!-- Node2 -->
<g id="node2" class="node"><title>Node2</title>
<g id="a_node2"><a xlink:href="../../d0/d94/classgame_engine_1_1_main_engine_manager.html#ad3268c769066fc73884a7454eb082ba7" target="_top" xlink:title="gameEngine.MainEngineManager.add\lGroups">
<polygon fill="white" stroke="black" points="254.5,-88 254.5,-118 451.5,-118 451.5,-88 254.5,-88"/>
<text text-anchor="start" x="262.5" y="-106" font-family="Helvetica,sans-Serif" font-size="10.00">gameEngine.MainEngineManager.add</text>
<text text-anchor="middle" x="353" y="-95" font-family="Helvetica,sans-Serif" font-size="10.00">Groups</text>
</a>
</g>
</g>
<!-- Node1&#45;&gt;Node2 -->
<g id="edge1" class="edge"><title>Node1&#45;&gt;Node2</title>
<path fill="none" stroke="midnightblue" d="M202.18,-87.5227C215.938,-88.944 230.224,-90.4198 244.268,-91.8707"/>
<polygon fill="midnightblue" stroke="midnightblue" points="244.134,-95.3754 254.441,-92.9216 244.854,-88.4125 244.134,-95.3754"/>
</g>
<!-- Node3 -->
<g id="node3" class="node"><title>Node3</title>
<g id="a_node3"><a xlink:href="../../d4/d66/classgame_engine_1_1_co_op_manager.html#ad4b88a1ebf8918a80ea2a3ba697442e3" target="_top" xlink:title="gameEngine.CoOpManager.allow\lInteraction">
<polygon fill="white" stroke="black" points="266.5,-39 266.5,-69 439.5,-69 439.5,-39 266.5,-39"/>
<text text-anchor="start" x="274.5" y="-57" font-family="Helvetica,sans-Serif" font-size="10.00">gameEngine.CoOpManager.allow</text>
<text text-anchor="middle" x="353" y="-46" font-family="Helvetica,sans-Serif" font-size="10.00">Interaction</text>
</a>
</g>
</g>
<!-- Node1&#45;&gt;Node3 -->
<g id="edge2" class="edge"><title>Node1&#45;&gt;Node3</title>
<path fill="none" stroke="midnightblue" d="M205.992,-68.4801C222.494,-66.8436 239.644,-65.1427 256.142,-63.5066"/>
<polygon fill="midnightblue" stroke="midnightblue" points="256.713,-66.9672 266.319,-62.4973 256.022,-60.0014 256.713,-66.9672"/>
</g>
<!-- Node4 -->
<g id="node4" class="node"><title>Node4</title>
<g id="a_node4"><a xlink:href="../../d4/d66/classgame_engine_1_1_co_op_manager.html#a15a51949e52c7652ea6f6e420868bd6d" target="_top" xlink:title="gameEngine.CoOpManager.get\lTowersFromServer">
<polygon fill="white" stroke="black" points="698,-39 698,-69 864,-69 864,-39 698,-39"/>
<text text-anchor="start" x="706" y="-57" font-family="Helvetica,sans-Serif" font-size="10.00">gameEngine.CoOpManager.get</text>
<text text-anchor="middle" x="781" y="-46" font-family="Helvetica,sans-Serif" font-size="10.00">TowersFromServer</text>
</a>
</g>
</g>
<!-- Node3&#45;&gt;Node4 -->
<g id="edge3" class="edge"><title>Node3&#45;&gt;Node4</title>
<path fill="none" stroke="midnightblue" d="M439.779,-55.4705C455.805,-55.6912 472.412,-55.8837 488,-56 565.331,-56.5771 584.669,-56.6553 662,-56 670.32,-55.9295 678.97,-55.831 687.636,-55.7153"/>
<polygon fill="midnightblue" stroke="midnightblue" points="687.847,-59.2127 697.796,-55.572 687.748,-52.2134 687.847,-59.2127"/>
</g>
<!-- Node11 -->
<g id="node11" class="node"><title>Node11</title>
<g id="a_node11"><a xlink:href="../../d4/d66/classgame_engine_1_1_co_op_manager.html#af2b56fd3bc5e8ae23648b6ffc0c18dff" target="_top" xlink:title="gameEngine.CoOpManager.start\lLevel">
<polygon fill="white" stroke="black" points="488.5,-17 488.5,-47 661.5,-47 661.5,-17 488.5,-17"/>
<text text-anchor="start" x="496.5" y="-35" font-family="Helvetica,sans-Serif" font-size="10.00">gameEngine.CoOpManager.start</text>
<text text-anchor="middle" x="575" y="-24" font-family="Helvetica,sans-Serif" font-size="10.00">Level</text>
</a>
</g>
</g>
<!-- Node3&#45;&gt;Node11 -->
<g id="edge10" class="edge"><title>Node3&#45;&gt;Node11</title>
<path fill="none" stroke="midnightblue" d="M439.688,-45.4312C452.254,-44.1746 465.266,-42.8734 478.022,-41.5978"/>
<polygon fill="midnightblue" stroke="midnightblue" points="478.582,-45.0593 488.184,-40.5816 477.886,-38.0941 478.582,-45.0593"/>
</g>
<!-- Node5 -->
<g id="node5" class="node"><title>Node5</title>
<g id="a_node5"><a xlink:href="../../d4/d66/classgame_engine_1_1_co_op_manager.html#a6d2b1134b6ee9495331e5fdc76b99873" target="_top" xlink:title="gameEngine.CoOpManager.add\lTower">
<polygon fill="white" stroke="black" points="931,-88 931,-118 1099,-118 1099,-88 931,-88"/>
<text text-anchor="start" x="939" y="-106" font-family="Helvetica,sans-Serif" font-size="10.00">gameEngine.CoOpManager.add</text>
<text text-anchor="middle" x="1015" y="-95" font-family="Helvetica,sans-Serif" font-size="10.00">Tower</text>
</a>
</g>
</g>
<!-- Node4&#45;&gt;Node5 -->
<g id="edge4" class="edge"><title>Node4&#45;&gt;Node5</title>
<path fill="none" stroke="midnightblue" d="M853.184,-69.0346C878.46,-74.373 907.09,-80.4198 933.115,-85.9166"/>
<polygon fill="midnightblue" stroke="midnightblue" points="932.443,-89.3517 942.95,-87.9938 933.889,-82.5028 932.443,-89.3517"/>
</g>
<!-- Node9 -->
<g id="node9" class="node"><title>Node9</title>
<g id="a_node9"><a xlink:href="../../d5/db4/classutilities_1_1_g_s_o_n_1_1_g_s_o_n_file_reader.html#a49e27e4c4dc02a80911ce5f1dab1f152" target="_top" xlink:title="utilities.GSON.GSONFileReader.read\lWrappers">
<polygon fill="white" stroke="black" points="921.5,-39 921.5,-69 1108.5,-69 1108.5,-39 921.5,-39"/>
<text text-anchor="start" x="929.5" y="-57" font-family="Helvetica,sans-Serif" font-size="10.00">utilities.GSON.GSONFileReader.read</text>
<text text-anchor="middle" x="1015" y="-46" font-family="Helvetica,sans-Serif" font-size="10.00">Wrappers</text>
</a>
</g>
</g>
<!-- Node4&#45;&gt;Node9 -->
<g id="edge8" class="edge"><title>Node4&#45;&gt;Node9</title>
<path fill="none" stroke="midnightblue" d="M864.121,-54C879.305,-54 895.337,-54 911.047,-54"/>
<polygon fill="midnightblue" stroke="midnightblue" points="911.311,-57.5001 921.311,-54 911.311,-50.5001 911.311,-57.5001"/>
</g>
<!-- Node10 -->
<g id="node10" class="node"><title>Node10</title>
<g id="a_node10"><a xlink:href="../../da/dae/classutilities_1_1networking_1_1_h_t_t_p_connection.html#a83fe2ca04deb090dbffa9b9ab2e44a3e" target="_top" xlink:title="utilities.networking.HTTPConnection.sendGet">
<polygon fill="white" stroke="black" points="900,-0.5 900,-19.5 1130,-19.5 1130,-0.5 900,-0.5"/>
<text text-anchor="middle" x="1015" y="-7.5" font-family="Helvetica,sans-Serif" font-size="10.00">utilities.networking.HTTPConnection.sendGet</text>
</a>
</g>
</g>
<!-- Node4&#45;&gt;Node10 -->
<g id="edge9" class="edge"><title>Node4&#45;&gt;Node10</title>
<path fill="none" stroke="midnightblue" d="M850.535,-38.9518C866.727,-35.5429 883.951,-32.0361 900,-29 914.176,-26.3182 929.383,-23.644 943.923,-21.1846"/>
<polygon fill="midnightblue" stroke="midnightblue" points="944.577,-24.6238 953.861,-19.5188 943.42,-17.7201 944.577,-24.6238"/>
</g>
<!-- Node6 -->
<g id="node6" class="node"><title>Node6</title>
<g id="a_node6"><a xlink:href="../../df/da2/classutilities_1_1_g_s_o_n_1_1object_wrappers_1_1_data_wrapper.html#a17f40cda61275ecf97d25f881604c4dd" target="_top" xlink:title="utilities.GSON.objectWrappers.\lDataWrapper.getName">
<polygon fill="white" stroke="black" points="1166,-137 1166,-167 1328,-167 1328,-137 1166,-137"/>
<text text-anchor="start" x="1174" y="-155" font-family="Helvetica,sans-Serif" font-size="10.00">utilities.GSON.objectWrappers.</text>
<text text-anchor="middle" x="1247" y="-144" font-family="Helvetica,sans-Serif" font-size="10.00">DataWrapper.getName</text>
</a>
</g>
</g>
<!-- Node5&#45;&gt;Node6 -->
<g id="edge5" class="edge"><title>Node5&#45;&gt;Node6</title>
<path fill="none" stroke="midnightblue" d="M1086.57,-118.035C1111.52,-123.349 1139.76,-129.367 1165.47,-134.844"/>
<polygon fill="midnightblue" stroke="midnightblue" points="1165.05,-138.333 1175.56,-136.994 1166.51,-131.487 1165.05,-138.333"/>
</g>
<!-- Node7 -->
<g id="node7" class="node"><title>Node7</title>
<g id="a_node7"><a xlink:href="../../df/da2/classutilities_1_1_g_s_o_n_1_1object_wrappers_1_1_data_wrapper.html#a3f1322770e9dce3c439bb7e1347c3e2f" target="_top" xlink:title="utilities.GSON.objectWrappers.\lDataWrapper.getX">
<polygon fill="white" stroke="black" points="1166,-88 1166,-118 1328,-118 1328,-88 1166,-88"/>
<text text-anchor="start" x="1174" y="-106" font-family="Helvetica,sans-Serif" font-size="10.00">utilities.GSON.objectWrappers.</text>
<text text-anchor="middle" x="1247" y="-95" font-family="Helvetica,sans-Serif" font-size="10.00">DataWrapper.getX</text>
</a>
</g>
</g>
<!-- Node5&#45;&gt;Node7 -->
<g id="edge6" class="edge"><title>Node5&#45;&gt;Node7</title>
<path fill="none" stroke="midnightblue" d="M1099.04,-103C1117.38,-103 1136.91,-103 1155.54,-103"/>
<polygon fill="midnightblue" stroke="midnightblue" points="1155.78,-106.5 1165.78,-103 1155.78,-99.5001 1155.78,-106.5"/>
</g>
<!-- Node8 -->
<g id="node8" class="node"><title>Node8</title>
<g id="a_node8"><a xlink:href="../../df/da2/classutilities_1_1_g_s_o_n_1_1object_wrappers_1_1_data_wrapper.html#aea9e22ae53699f7f4a554eeb7e3fc05e" target="_top" xlink:title="utilities.GSON.objectWrappers.\lDataWrapper.getY">
<polygon fill="white" stroke="black" points="1166,-39 1166,-69 1328,-69 1328,-39 1166,-39"/>
<text text-anchor="start" x="1174" y="-57" font-family="Helvetica,sans-Serif" font-size="10.00">utilities.GSON.objectWrappers.</text>
<text text-anchor="middle" x="1247" y="-46" font-family="Helvetica,sans-Serif" font-size="10.00">DataWrapper.getY</text>
</a>
</g>
</g>
<!-- Node5&#45;&gt;Node8 -->
<g id="edge7" class="edge"><title>Node5&#45;&gt;Node8</title>
<path fill="none" stroke="midnightblue" d="M1086.57,-87.9654C1111.52,-82.6506 1139.76,-76.6335 1165.47,-71.156"/>
<polygon fill="midnightblue" stroke="midnightblue" points="1166.51,-74.5131 1175.56,-69.0062 1165.05,-67.6668 1166.51,-74.5131"/>
</g>
<!-- Node11&#45;&gt;Node4 -->
<g id="edge11" class="edge"><title>Node11&#45;&gt;Node4</title>
<path fill="none" stroke="midnightblue" d="M661.628,-41.2344C670.248,-42.164 679.029,-43.111 687.715,-44.0477"/>
<polygon fill="midnightblue" stroke="midnightblue" points="687.536,-47.5486 697.853,-45.141 688.286,-40.5889 687.536,-47.5486"/>
</g>
</g>
</svg>
        <g id="navigator" transform="translate(0 0)" fill="#404254">
                <rect fill="#f2f5e9" fill-opacity="0.5" stroke="#606060" stroke-width=".5" x="0" y="0" width="60" height="60"/>
                <use id="zoomplus" xlink:href="#zoomPlus" x="17" y="9" onmousedown="handleZoom(evt,'in')"/>
                <use id="zoomminus" xlink:href="#zoomMin" x="42" y="9" onmousedown="handleZoom(evt,'out')"/>
                <use id="reset" xlink:href="#resetDef" x="30" y="36" onmousedown="handleReset()"/>
                <g id="arrowUp" xlink:href="#dirArrow" transform="translate(30 24)" onmousedown="handlePan(0,-1)">
                  <use xlink:href="#rim" fill="#404040">
                        <set attributeName="fill" to="#808080" begin="arrowUp.mouseover" end="arrowUp.mouseout"/>
                  </use>
                  <path fill="none" stroke="white" stroke-width="1.5" d="M0,-3.0v7 M-2.5,-0.5L0,-3.0L2.5,-0.5"/>
                </g>
                <g id="arrowRight" xlink:href="#dirArrow" transform="rotate(90) translate(36 -43)" onmousedown="handlePan(1,0)">
                  <use xlink:href="#rim" fill="#404040">
                        <set attributeName="fill" to="#808080" begin="arrowRight.mouseover" end="arrowRight.mouseout"/>
                  </use>
                  <path fill="none" stroke="white" stroke-width="1.5" d="M0,-3.0v7 M-2.5,-0.5L0,-3.0L2.5,-0.5"/>
                </g>
                <g id="arrowDown" xlink:href="#dirArrow" transform="rotate(180) translate(-30 -48)" onmousedown="handlePan(0,1)">
                  <use xlink:href="#rim" fill="#404040">
                        <set attributeName="fill" to="#808080" begin="arrowDown.mouseover" end="arrowDown.mouseout"/>
                  </use>
                  <path fill="none" stroke="white" stroke-width="1.5" d="M0,-3.0v7 M-2.5,-0.5L0,-3.0L2.5,-0.5"/>
                </g>
                <g id="arrowLeft" xlink:href="#dirArrow" transform="rotate(270) translate(-36 17)" onmousedown="handlePan(-1,0)">
                  <use xlink:href="#rim" fill="#404040">
                        <set attributeName="fill" to="#808080" begin="arrowLeft.mouseover" end="arrowLeft.mouseout"/>
                  </use>
                  <path fill="none" stroke="white" stroke-width="1.5" d="M0,-3.0v7 M-2.5,-0.5L0,-3.0L2.5,-0.5"/>
                </g>
        </g>
        <svg viewBox="0 0 15 15" width="100%" height="30px" preserveAspectRatio="xMaxYMin meet">
         <g id="arrow_out" transform="scale(0.3 0.3)">
          <a xlink:href="classgame_engine_1_1_co_op_manager_af6188fa0b89fef3dea97e3ce873b883e_cgraph_org.svg" target="_base">
           <rect id="button" ry="5" rx="5" y="6" x="6" height="38" width="38"
                fill="#f2f5e9" fill-opacity="0.5" stroke="#606060" stroke-width="1.0"/>
           <path id="arrow"
             d="M 11.500037,31.436501 C 11.940474,20.09759 22.043105,11.32322 32.158766,21.979434 L 37.068811,17.246167 C 37.068811,17.246167 37.088388,32 37.088388,32 L 22.160133,31.978069 C 22.160133,31.978069 26.997745,27.140456 26.997745,27.140456 C 18.528582,18.264221 13.291696,25.230495 11.500037,31.436501 z"
             style="fill:#404040;"/>
          </a>
         </g>
        </svg>
</svg>
