<?xml version="1.0" encoding="UTF-8" standalone="no"?>
<!DOCTYPE svg PUBLIC "-//W3C//DTD SVG 1.1//EN"
 "http://www.w3.org/Graphics/SVG/1.1/DTD/svg11.dtd">
<!-- Generated by graphviz version 2.36.0 (20140111.2315)
 -->
<!-- Title: utilities.chatroom.Chatroom Pages: 1 -->
<!--zoomable 96 -->
<svg id="main" version="1.1" xmlns="http://www.w3.org/2000/svg" xmlns:xlink="http://www.w3.org/1999/xlink" xml:space="preserve" onload="init(evt)">
<style type="text/css"><![CDATA[
.edge:hover path { stroke: red; }
.edge:hover polygon { stroke: red; fill: red; }
]]></style>
<script type="text/javascript"><![CDATA[
var edges = document.getElementsByTagName('g');
if (edges && edges.length) {
  for (var i=0;i<edges.length;i++) {
    if (edges[i].id.substr(0,4)=='edge') {
      edges[i].setAttribute('class','edge');
    }
  }
}
]]></script>
        <defs>
                <circle id="rim" cx="0" cy="0" r="7"/>
                <circle id="rim2" cx="0" cy="0" r="3.5"/>
                <g id="zoomPlus">
                        <use xlink:href="#rim" fill="#404040">
                                <set attributeName="fill" to="#808080" begin="zoomplus.mouseover" end="zoomplus.mouseout"/>
                        </use>
                        <path d="M-4,0h8M0,-4v8" fill="none" stroke="white" stroke-width="1.5" pointer-events="none"/>
                </g>
                <g id="zoomMin">
                        <use xlink:href="#rim" fill="#404040">
                                <set attributeName="fill" to="#808080" begin="zoomminus.mouseover" end="zoomminus.mouseout"/>
                        </use>
                        <path d="M-4,0h8" fill="none" stroke="white" stroke-width="1.5" pointer-events="none"/>
                </g>
                <g id="dirArrow">
                        <path fill="none" stroke="white" stroke-width="1.5" d="M0,-3.0v7 M-2.5,-0.5L0,-3.0L2.5,-0.5"/>
                </g>
               <g id="resetDef">
                       <use xlink:href="#rim2" fill="#404040">
                               <set attributeName="fill" to="#808080" begin="reset.mouseover" end="reset.mouseout"/>
                       </use>
               </g>
        </defs>

<script type="text/javascript">
var viewWidth = 623;
var viewHeight = 96;
var sectionId = 'dynsection-1';
</script>
<script xlink:href="../../svgpan.js"/>
<svg id="graph" class="graph">
<g id="viewport">
<title>utilities.chatroom.Chatroom</title>
<polygon fill="white" stroke="none" points="-4,4 -4,-92 619,-92 619,4 -4,4"/>
<!-- Node1 -->
<g id="node1" class="node"><title>Node1</title>
<polygon fill="#bfbfbf" stroke="black" points="157.5,-0.5 157.5,-19.5 308.5,-19.5 308.5,-0.5 157.5,-0.5"/>
<text text-anchor="middle" x="233" y="-7.5" font-family="Helvetica,sans-Serif" font-size="10.00">utilities.chatroom.Chatroom</text>
</g>
<!-- Node2 -->
<g id="node2" class="node"><title>Node2</title>
<polygon fill="white" stroke="#bfbfbf" points="-0.5,-68.5 -0.5,-87.5 44.5,-87.5 44.5,-68.5 -0.5,-68.5"/>
<text text-anchor="middle" x="22" y="-75.5" font-family="Helvetica,sans-Serif" font-size="10.00">Stage</text>
</g>
<!-- Node2&#45;&gt;Node1 -->
<g id="edge1" class="edge"><title>Node2&#45;&gt;Node1</title>
<path fill="none" stroke="midnightblue" d="M41.5498,-62.7338C53.9864,-54.3182 70.7561,-44.1447 87,-38 109.543,-29.4726 135.094,-23.5725 158.45,-19.5181"/>
<polygon fill="midnightblue" stroke="midnightblue" points="39.5285,-59.8764 33.3293,-68.4683 43.5334,-65.6175 39.5285,-59.8764"/>
</g>
<!-- Node3 -->
<g id="node3" class="node"><title>Node3</title>
<polygon fill="white" stroke="#bfbfbf" points="62.5,-68.5 62.5,-87.5 103.5,-87.5 103.5,-68.5 62.5,-68.5"/>
<text text-anchor="middle" x="83" y="-75.5" font-family="Helvetica,sans-Serif" font-size="10.00">VBox</text>
</g>
<!-- Node3&#45;&gt;Node1 -->
<g id="edge2" class="edge"><title>Node3&#45;&gt;Node1</title>
<path fill="none" stroke="#9a32cd" stroke-dasharray="5,2" d="M86.5256,-58.7098C88.8631,-51.2587 92.7091,-43.1937 99,-38 108.836,-29.879 134.041,-23.8174 159.972,-19.5175"/>
<polygon fill="#9a32cd" stroke="#9a32cd" points="83.1147,-57.924 84.1279,-68.4703 89.9125,-59.594 83.1147,-57.924"/>
<text text-anchor="middle" x="132.5" y="-41.5" font-family="Helvetica,sans-Serif" font-size="10.00"> myMessages</text>
</g>
<!-- Node4 -->
<g id="node4" class="node"><title>Node4</title>
<polygon fill="white" stroke="#bfbfbf" points="145,-68.5 145,-87.5 201,-87.5 201,-68.5 145,-68.5"/>
<text text-anchor="middle" x="173" y="-75.5" font-family="Helvetica,sans-Serif" font-size="10.00">Timeline</text>
</g>
<!-- Node4&#45;&gt;Node1 -->
<g id="edge3" class="edge"><title>Node4&#45;&gt;Node1</title>
<path fill="none" stroke="#9a32cd" stroke-dasharray="5,2" d="M169.543,-58.4948C169.209,-51.5618 170.081,-43.9345 174,-38 179.649,-29.446 188.737,-23.5617 198.105,-19.5299"/>
<polygon fill="#9a32cd" stroke="#9a32cd" points="166.077,-58.9896 170.797,-68.4752 173.023,-58.1168 166.077,-58.9896"/>
<text text-anchor="middle" x="222.5" y="-41.5" font-family="Helvetica,sans-Serif" font-size="10.00"> myRequestTimeline</text>
</g>
<!-- Node5 -->
<g id="node5" class="node"><title>Node5</title>
<polygon fill="white" stroke="#bfbfbf" points="260,-68.5 260,-87.5 326,-87.5 326,-68.5 260,-68.5"/>
<text text-anchor="middle" x="293" y="-75.5" font-family="Helvetica,sans-Serif" font-size="10.00">ScrollPane</text>
</g>
<!-- Node5&#45;&gt;Node1 -->
<g id="edge4" class="edge"><title>Node5&#45;&gt;Node1</title>
<path fill="none" stroke="#9a32cd" stroke-dasharray="5,2" d="M284.889,-58.8586C281.249,-51.8837 276.524,-44.1312 271,-38 264.5,-30.7848 255.744,-24.4012 248.275,-19.655"/>
<polygon fill="#9a32cd" stroke="#9a32cd" points="281.916,-60.7527 289.411,-68.2418 288.222,-57.7138 281.916,-60.7527"/>
<text text-anchor="middle" x="314" y="-41.5" font-family="Helvetica,sans-Serif" font-size="10.00"> myScrollPane</text>
</g>
<!-- Node6 -->
<g id="node6" class="node"><title>Node6</title>
<polygon fill="white" stroke="#bfbfbf" points="356,-68.5 356,-87.5 412,-87.5 412,-68.5 356,-68.5"/>
<text text-anchor="middle" x="384" y="-75.5" font-family="Helvetica,sans-Serif" font-size="10.00">TextField</text>
</g>
<!-- Node6&#45;&gt;Node1 -->
<g id="edge5" class="edge"><title>Node6&#45;&gt;Node1</title>
<path fill="none" stroke="#9a32cd" stroke-dasharray="5,2" d="M373.776,-59.9299C368.262,-52.1237 360.783,-43.426 352,-38 338.122,-29.4266 321.827,-23.568 305.824,-19.5667"/>
<polygon fill="#9a32cd" stroke="#9a32cd" points="370.921,-61.9593 379.307,-68.4346 376.789,-58.1432 370.921,-61.9593"/>
<text text-anchor="middle" x="395" y="-41.5" font-family="Helvetica,sans-Serif" font-size="10.00"> myTextField</text>
</g>
<!-- Node7 -->
<g id="node7" class="node"><title>Node7</title>
<g id="a_node7"><a xlink:href="../../da/dae/classutilities_1_1networking_1_1_h_t_t_p_connection.html" target="_top" xlink:title="utilities.networking.HTTPConnection">
<polygon fill="white" stroke="black" points="430,-68.5 430,-87.5 616,-87.5 616,-68.5 430,-68.5"/>
<text text-anchor="middle" x="523" y="-75.5" font-family="Helvetica,sans-Serif" font-size="10.00">utilities.networking.HTTPConnection</text>
</a>
</g>
</g>
<!-- Node7&#45;&gt;Node1 -->
<g id="edge6" class="edge"><title>Node7&#45;&gt;Node1</title>
<path fill="none" stroke="#9a32cd" stroke-dasharray="5,2" d="M496.866,-64.1757C478.123,-55.5027 452.039,-44.4868 428,-38 389.394,-27.5823 345.345,-21.0473 308.892,-17.022"/>
<polygon fill="#9a32cd" stroke="#9a32cd" points="495.411,-67.3592 505.948,-68.4611 498.398,-61.0285 495.411,-67.3592"/>
<text text-anchor="middle" x="510" y="-41.5" font-family="Helvetica,sans-Serif" font-size="10.00"> HTTP_CONNECTOR</text>
</g>
</g>
</svg>
        <g id="navigator" transform="translate(0 0)" fill="#404254">
                <rect fill="#f2f5e9" fill-opacity="0.5" stroke="#606060" stroke-width=".5" x="0" y="0" width="60" height="60"/>
                <use id="zoomplus" xlink:href="#zoomPlus" x="17" y="9" onmousedown="handleZoom(evt,'in')"/>
                <use id="zoomminus" xlink:href="#zoomMin" x="42" y="9" onmousedown="handleZoom(evt,'out')"/>
                <use id="reset" xlink:href="#resetDef" x="30" y="36" onmousedown="handleReset()"/>
                <g id="arrowUp" xlink:href="#dirArrow" transform="translate(30 24)" onmousedown="handlePan(0,-1)">
                  <use xlink:href="#rim" fill="#404040">
                        <set attributeName="fill" to="#808080" begin="arrowUp.mouseover" end="arrowUp.mouseout"/>
                  </use>
                  <path fill="none" stroke="white" stroke-width="1.5" d="M0,-3.0v7 M-2.5,-0.5L0,-3.0L2.5,-0.5"/>
                </g>
                <g id="arrowRight" xlink:href="#dirArrow" transform="rotate(90) translate(36 -43)" onmousedown="handlePan(1,0)">
                  <use xlink:href="#rim" fill="#404040">
                        <set attributeName="fill" to="#808080" begin="arrowRight.mouseover" end="arrowRight.mouseout"/>
                  </use>
                  <path fill="none" stroke="white" stroke-width="1.5" d="M0,-3.0v7 M-2.5,-0.5L0,-3.0L2.5,-0.5"/>
                </g>
                <g id="arrowDown" xlink:href="#dirArrow" transform="rotate(180) translate(-30 -48)" onmousedown="handlePan(0,1)">
                  <use xlink:href="#rim" fill="#404040">
                        <set attributeName="fill" to="#808080" begin="arrowDown.mouseover" end="arrowDown.mouseout"/>
                  </use>
                  <path fill="none" stroke="white" stroke-width="1.5" d="M0,-3.0v7 M-2.5,-0.5L0,-3.0L2.5,-0.5"/>
                </g>
                <g id="arrowLeft" xlink:href="#dirArrow" transform="rotate(270) translate(-36 17)" onmousedown="handlePan(-1,0)">
                  <use xlink:href="#rim" fill="#404040">
                        <set attributeName="fill" to="#808080" begin="arrowLeft.mouseover" end="arrowLeft.mouseout"/>
                  </use>
                  <path fill="none" stroke="white" stroke-width="1.5" d="M0,-3.0v7 M-2.5,-0.5L0,-3.0L2.5,-0.5"/>
                </g>
        </g>
        <svg viewBox="0 0 15 15" width="100%" height="30px" preserveAspectRatio="xMaxYMin meet">
         <g id="arrow_out" transform="scale(0.3 0.3)">
          <a xlink:href="classutilities_1_1chatroom_1_1_chatroom__coll__graph_org.svg" target="_base">
           <rect id="button" ry="5" rx="5" y="6" x="6" height="38" width="38"
                fill="#f2f5e9" fill-opacity="0.5" stroke="#606060" stroke-width="1.0"/>
           <path id="arrow"
             d="M 11.500037,31.436501 C 11.940474,20.09759 22.043105,11.32322 32.158766,21.979434 L 37.068811,17.246167 C 37.068811,17.246167 37.088388,32 37.088388,32 L 22.160133,31.978069 C 22.160133,31.978069 26.997745,27.140456 26.997745,27.140456 C 18.528582,18.264221 13.291696,25.230495 11.500037,31.436501 z"
             style="fill:#404040;"/>
          </a>
         </g>
        </svg>
</svg>
