<?xml version="1.0" encoding="UTF-8" standalone="no"?>
<!DOCTYPE svg PUBLIC "-//W3C//DTD SVG 1.1//EN"
 "http://www.w3.org/Graphics/SVG/1.1/DTD/svg11.dtd">
<!-- Generated by graphviz version 2.36.0 (20140111.2315)
 -->
<!-- Title: gameAuthoring.scenes.actorBuildingScenes.TowerBuildingScene.redrawTowerDisplay Pages: 1 -->
<svg width="494pt" height="109pt"
 viewBox="0.00 0.00 494.00 109.00" xmlns="http://www.w3.org/2000/svg" xmlns:xlink="http://www.w3.org/1999/xlink">
<g id="graph0" class="graph" transform="scale(1 1) rotate(0) translate(4 105)">
<title>gameAuthoring.scenes.actorBuildingScenes.TowerBuildingScene.redrawTowerDisplay</title>
<polygon fill="white" stroke="none" points="-4,4 -4,-105 490,-105 490,4 -4,4"/>
<!-- Node1 -->
<g id="node1" class="node"><title>Node1</title>
<polygon fill="#bfbfbf" stroke="black" points="0.5,-29.5 0.5,-70.5 221.5,-70.5 221.5,-29.5 0.5,-29.5"/>
<text text-anchor="start" x="8.5" y="-58.5" font-family="Helvetica,sans-Serif" font-size="10.00">gameAuthoring.scenes.actor</text>
<text text-anchor="start" x="8.5" y="-47.5" font-family="Helvetica,sans-Serif" font-size="10.00">BuildingScenes.TowerBuildingScene.redraw</text>
<text text-anchor="middle" x="111" y="-36.5" font-family="Helvetica,sans-Serif" font-size="10.00">TowerDisplay</text>
</g>
<!-- Node2 -->
<g id="node2" class="node"><title>Node2</title>
<g id="a_node2"><a xlink:href="../../d4/d66/classgame_authoring_1_1scenes_1_1actor_building_scenes_1_1_tower_building_scene.html#ab9a78d521b93dbdd55e5dc1f71adb3f8" target="_top" xlink:title="gameAuthoring.scenes.actor\lBuildingScenes.TowerBuildingScene.initialize\lActorsAndBuildActorDisplay">
<polygon fill="white" stroke="black" points="258.5,-59.5 258.5,-100.5 485.5,-100.5 485.5,-59.5 258.5,-59.5"/>
<text text-anchor="start" x="266.5" y="-88.5" font-family="Helvetica,sans-Serif" font-size="10.00">gameAuthoring.scenes.actor</text>
<text text-anchor="start" x="266.5" y="-77.5" font-family="Helvetica,sans-Serif" font-size="10.00">BuildingScenes.TowerBuildingScene.initialize</text>
<text text-anchor="middle" x="372" y="-66.5" font-family="Helvetica,sans-Serif" font-size="10.00">ActorsAndBuildActorDisplay</text>
</a>
</g>
</g>
<!-- Node1&#45;&gt;Node2 -->
<g id="edge1" class="edge"><title>Node1&#45;&gt;Node2</title>
<path fill="none" stroke="midnightblue" d="M232.005,-63.9002C240.696,-64.9068 249.443,-65.9201 258.09,-66.9217"/>
<polygon fill="midnightblue" stroke="midnightblue" points="232.176,-60.3966 221.839,-62.7227 231.37,-67.3502 232.176,-60.3966"/>
</g>
<!-- Node3 -->
<g id="node3" class="node"><title>Node3</title>
<g id="a_node3"><a xlink:href="../../d4/d66/classgame_authoring_1_1scenes_1_1actor_building_scenes_1_1_tower_building_scene.html#a0eb2856ee189de1452b66ae4fe2d81ae" target="_top" xlink:title="gameAuthoring.scenes.actor\lBuildingScenes.TowerBuildingScene.make\lNewActor">
<polygon fill="white" stroke="black" points="264,0.5 264,-40.5 480,-40.5 480,0.5 264,0.5"/>
<text text-anchor="start" x="272" y="-28.5" font-family="Helvetica,sans-Serif" font-size="10.00">gameAuthoring.scenes.actor</text>
<text text-anchor="start" x="272" y="-17.5" font-family="Helvetica,sans-Serif" font-size="10.00">BuildingScenes.TowerBuildingScene.make</text>
<text text-anchor="middle" x="372" y="-6.5" font-family="Helvetica,sans-Serif" font-size="10.00">NewActor</text>
</a>
</g>
</g>
<!-- Node1&#45;&gt;Node3 -->
<g id="edge2" class="edge"><title>Node1&#45;&gt;Node3</title>
<path fill="none" stroke="midnightblue" d="M232.002,-36.1002C242.639,-34.8681 253.362,-33.626 263.882,-32.4075"/>
<polygon fill="midnightblue" stroke="midnightblue" points="231.37,-32.6498 221.839,-37.2773 232.176,-39.6034 231.37,-32.6498"/>
</g>
</g>
</svg>
