<?xml version="1.0" encoding="UTF-8" standalone="no"?>
<!DOCTYPE svg PUBLIC "-//W3C//DTD SVG 1.1//EN"
 "http://www.w3.org/Graphics/SVG/1.1/DTD/svg11.dtd">
<!-- Generated by graphviz version 2.36.0 (20140111.2315)
 -->
<!-- Title: gameEngine.CoOpManager.joinGame Pages: 1 -->
<svg width="922pt" height="97pt"
 viewBox="0.00 0.00 922.00 97.00" xmlns="http://www.w3.org/2000/svg" xmlns:xlink="http://www.w3.org/1999/xlink">
<g id="graph0" class="graph" transform="scale(1 1) rotate(0) translate(4 93)">
<title>gameEngine.CoOpManager.joinGame</title>
<polygon fill="white" stroke="none" points="-4,4 -4,-93 918,-93 918,4 -4,4"/>
<!-- Node1 -->
<g id="node1" class="node"><title>Node1</title>
<polygon fill="#bfbfbf" stroke="black" points="0,-37.5 0,-56.5 196,-56.5 196,-37.5 0,-37.5"/>
<text text-anchor="middle" x="98" y="-44.5" font-family="Helvetica,sans-Serif" font-size="10.00">gameEngine.CoOpManager.joinGame</text>
</g>
<!-- Node2 -->
<g id="node2" class="node"><title>Node2</title>
<g id="a_node2"><a xlink:href="../../da/d69/classgame_player_1_1main_classes_1_1managers_1_1_gui_manager.html#ad50f462f8d45a5bbfc8a17290372a1ab" target="_top" xlink:title="gamePlayer.mainClasses.managers.\lGuiManager.joinMultiPlayerGame">
<polygon fill="white" stroke="black" points="232.5,-32 232.5,-62 423.5,-62 423.5,-32 232.5,-32"/>
<text text-anchor="start" x="240.5" y="-50" font-family="Helvetica,sans-Serif" font-size="10.00">gamePlayer.mainClasses.managers.</text>
<text text-anchor="middle" x="328" y="-39" font-family="Helvetica,sans-Serif" font-size="10.00">GuiManager.joinMultiPlayerGame</text>
</a>
</g>
</g>
<!-- Node1&#45;&gt;Node2 -->
<g id="edge1" class="edge"><title>Node1&#45;&gt;Node2</title>
<path fill="none" stroke="midnightblue" d="M206.196,-47C214.893,-47 223.643,-47 232.243,-47"/>
<polygon fill="midnightblue" stroke="midnightblue" points="206.023,-43.5001 196.023,-47 206.023,-50.5001 206.023,-43.5001"/>
</g>
<!-- Node3 -->
<g id="node3" class="node"><title>Node3</title>
<g id="a_node3"><a xlink:href="../../d4/d3f/classgame_player_1_1main_classes_1_1managers_1_1_welcome_manager.html#a71a2a80cfe9d3a07d7becc506178acfd" target="_top" xlink:title="gamePlayer.mainClasses.managers.\lWelcomeManager.joinMultiPlayerGame">
<polygon fill="white" stroke="black" points="460.5,-59 460.5,-89 661.5,-89 661.5,-59 460.5,-59"/>
<text text-anchor="start" x="468.5" y="-77" font-family="Helvetica,sans-Serif" font-size="10.00">gamePlayer.mainClasses.managers.</text>
<text text-anchor="middle" x="561" y="-66" font-family="Helvetica,sans-Serif" font-size="10.00">WelcomeManager.joinMultiPlayerGame</text>
</a>
</g>
</g>
<!-- Node2&#45;&gt;Node3 -->
<g id="edge2" class="edge"><title>Node2&#45;&gt;Node3</title>
<path fill="none" stroke="midnightblue" d="M433.597,-59.2256C442.473,-60.2631 451.436,-61.3107 460.274,-62.3437"/>
<polygon fill="midnightblue" stroke="midnightblue" points="433.962,-55.7445 423.623,-58.0598 433.149,-62.6972 433.962,-55.7445"/>
</g>
<!-- Node5 -->
<g id="node5" class="node"><title>Node5</title>
<g id="a_node5"><a xlink:href="../../d3/dee/classgame_player_1_1main_classes_1_1welcome_screen_1_1_game_start_manager.html#a7465850240e12e23aec544dbfd08f6a0" target="_top" xlink:title="gamePlayer.mainClasses.welcome\lScreen.GameStartManager.joinMulti\lPlayerGame">
<polygon fill="white" stroke="black" points="466,0.5 466,-40.5 656,-40.5 656,0.5 466,0.5"/>
<text text-anchor="start" x="474" y="-28.5" font-family="Helvetica,sans-Serif" font-size="10.00">gamePlayer.mainClasses.welcome</text>
<text text-anchor="start" x="474" y="-17.5" font-family="Helvetica,sans-Serif" font-size="10.00">Screen.GameStartManager.joinMulti</text>
<text text-anchor="middle" x="561" y="-6.5" font-family="Helvetica,sans-Serif" font-size="10.00">PlayerGame</text>
</a>
</g>
</g>
<!-- Node2&#45;&gt;Node5 -->
<g id="edge4" class="edge"><title>Node2&#45;&gt;Node5</title>
<path fill="none" stroke="midnightblue" d="M433.824,-34.7478C444.516,-33.4982 455.331,-32.2341 465.898,-30.999"/>
<polygon fill="midnightblue" stroke="midnightblue" points="433.149,-31.3028 423.623,-35.9402 433.962,-38.2555 433.149,-31.3028"/>
</g>
<!-- Node4 -->
<g id="node4" class="node"><title>Node4</title>
<g id="a_node4"><a xlink:href="../../d4/d3f/classgame_player_1_1main_classes_1_1managers_1_1_welcome_manager.html#aa605746e09c481b225463d37a82427e3" target="_top" xlink:title="gamePlayer.mainClasses.managers.\lWelcomeManager.startMultiPlayerOptions">
<polygon fill="white" stroke="black" points="698.5,-59 698.5,-89 913.5,-89 913.5,-59 698.5,-59"/>
<text text-anchor="start" x="706.5" y="-77" font-family="Helvetica,sans-Serif" font-size="10.00">gamePlayer.mainClasses.managers.</text>
<text text-anchor="middle" x="806" y="-66" font-family="Helvetica,sans-Serif" font-size="10.00">WelcomeManager.startMultiPlayerOptions</text>
</a>
</g>
</g>
<!-- Node3&#45;&gt;Node4 -->
<g id="edge3" class="edge"><title>Node3&#45;&gt;Node4</title>
<path fill="none" stroke="midnightblue" d="M671.773,-74C680.532,-74 689.374,-74 698.113,-74"/>
<polygon fill="midnightblue" stroke="midnightblue" points="671.539,-70.5001 661.539,-74 671.539,-77.5001 671.539,-70.5001"/>
</g>
</g>
</svg>
