<?xml version="1.0" encoding="UTF-8" standalone="no"?>
<!DOCTYPE svg PUBLIC "-//W3C//DTD SVG 1.1//EN"
 "http://www.w3.org/Graphics/SVG/1.1/DTD/svg11.dtd">
<!-- Generated by graphviz version 2.36.0 (20140111.2315)
 -->
<!-- Title: gameEngine.CoOpManager.convertTowersToString Pages: 1 -->
<svg width="628pt" height="87pt"
 viewBox="0.00 0.00 628.00 87.00" xmlns="http://www.w3.org/2000/svg" xmlns:xlink="http://www.w3.org/1999/xlink">
<g id="graph0" class="graph" transform="scale(1 1) rotate(0) translate(4 83)">
<title>gameEngine.CoOpManager.convertTowersToString</title>
<polygon fill="white" stroke="none" points="-4,4 -4,-83 624,-83 624,4 -4,4"/>
<!-- Node1 -->
<g id="node1" class="node"><title>Node1</title>
<polygon fill="#bfbfbf" stroke="black" points="0,-24 0,-54 186,-54 186,-24 0,-24"/>
<text text-anchor="start" x="8" y="-42" font-family="Helvetica,sans-Serif" font-size="10.00">gameEngine.CoOpManager.convert</text>
<text text-anchor="middle" x="93" y="-31" font-family="Helvetica,sans-Serif" font-size="10.00">TowersToString</text>
</g>
<!-- Node2 -->
<g id="node2" class="node"><title>Node2</title>
<g id="a_node2"><a xlink:href="../../d4/d66/classgame_engine_1_1_co_op_manager.html#ad5584e14774b52926698fb63b4b1c6fd" target="_top" xlink:title="gameEngine.CoOpManager.write\lTowersToServer">
<polygon fill="white" stroke="black" points="222.5,-24 222.5,-54 395.5,-54 395.5,-24 222.5,-24"/>
<text text-anchor="start" x="230.5" y="-42" font-family="Helvetica,sans-Serif" font-size="10.00">gameEngine.CoOpManager.write</text>
<text text-anchor="middle" x="309" y="-31" font-family="Helvetica,sans-Serif" font-size="10.00">TowersToServer</text>
</a>
</g>
</g>
<!-- Node1&#45;&gt;Node2 -->
<g id="edge1" class="edge"><title>Node1&#45;&gt;Node2</title>
<path fill="none" stroke="midnightblue" d="M196.471,-39C205.156,-39 213.881,-39 222.416,-39"/>
<polygon fill="midnightblue" stroke="midnightblue" points="196.308,-35.5001 186.308,-39 196.308,-42.5001 196.308,-35.5001"/>
</g>
<!-- Node3 -->
<g id="node3" class="node"><title>Node3</title>
<g id="a_node3"><a xlink:href="../../d4/d66/classgame_engine_1_1_co_op_manager.html#ac47b70262d8632fbc594ac5419377725" target="_top" xlink:title="gameEngine.CoOpManager.remove\lTower">
<polygon fill="white" stroke="black" points="432.5,-49 432.5,-79 619.5,-79 619.5,-49 432.5,-49"/>
<text text-anchor="start" x="440.5" y="-67" font-family="Helvetica,sans-Serif" font-size="10.00">gameEngine.CoOpManager.remove</text>
<text text-anchor="middle" x="526" y="-56" font-family="Helvetica,sans-Serif" font-size="10.00">Tower</text>
</a>
</g>
</g>
<!-- Node2&#45;&gt;Node3 -->
<g id="edge2" class="edge"><title>Node2&#45;&gt;Node3</title>
<path fill="none" stroke="midnightblue" d="M405.559,-50.1115C414.44,-51.1442 423.431,-52.1897 432.286,-53.2193"/>
<polygon fill="midnightblue" stroke="midnightblue" points="405.929,-46.631 395.591,-48.9525 405.12,-53.5842 405.929,-46.631"/>
</g>
<!-- Node4 -->
<g id="node4" class="node"><title>Node4</title>
<g id="a_node4"><a xlink:href="../../d4/d66/classgame_engine_1_1_co_op_manager.html#af79a82231e7ef2225ef6fabeb0269d12" target="_top" xlink:title="gameEngine.CoOpManager.add\lTower">
<polygon fill="white" stroke="black" points="442,-0 442,-30 610,-30 610,-0 442,-0"/>
<text text-anchor="start" x="450" y="-18" font-family="Helvetica,sans-Serif" font-size="10.00">gameEngine.CoOpManager.add</text>
<text text-anchor="middle" x="526" y="-7" font-family="Helvetica,sans-Serif" font-size="10.00">Tower</text>
</a>
</g>
</g>
<!-- Node2&#45;&gt;Node4 -->
<g id="edge3" class="edge"><title>Node2&#45;&gt;Node4</title>
<path fill="none" stroke="midnightblue" d="M405.656,-28.3221C417.71,-26.9765 429.966,-25.6085 441.806,-24.2868"/>
<polygon fill="midnightblue" stroke="midnightblue" points="405.141,-24.8577 395.591,-29.4456 405.918,-31.8145 405.141,-24.8577"/>
</g>
</g>
</svg>
