<?xml version="1.0" encoding="UTF-8" standalone="no"?>
<!DOCTYPE svg PUBLIC "-//W3C//DTD SVG 1.1//EN"
 "http://www.w3.org/Graphics/SVG/1.1/DTD/svg11.dtd">
<!-- Generated by graphviz version 2.36.0 (20140111.2315)
 -->
<!-- Title: gameAuthoring.scenes.actorBuildingScenes.TowerBuildingScene.setupEnemyTowerCanShootSelection Pages: 1 -->
<svg width="494pt" height="48pt"
 viewBox="0.00 0.00 494.00 48.00" xmlns="http://www.w3.org/2000/svg" xmlns:xlink="http://www.w3.org/1999/xlink">
<g id="graph0" class="graph" transform="scale(1 1) rotate(0) translate(4 44)">
<title>gameAuthoring.scenes.actorBuildingScenes.TowerBuildingScene.setupEnemyTowerCanShootSelection</title>
<polygon fill="white" stroke="none" points="-4,4 -4,-44 490,-44 490,4 -4,4"/>
<!-- Node1 -->
<g id="node1" class="node"><title>Node1</title>
<polygon fill="#bfbfbf" stroke="black" points="0,0.5 0,-40.5 216,-40.5 216,0.5 0,0.5"/>
<text text-anchor="start" x="8" y="-28.5" font-family="Helvetica,sans-Serif" font-size="10.00">gameAuthoring.scenes.actor</text>
<text text-anchor="start" x="8" y="-17.5" font-family="Helvetica,sans-Serif" font-size="10.00">BuildingScenes.TowerBuildingScene.setup</text>
<text text-anchor="middle" x="108" y="-6.5" font-family="Helvetica,sans-Serif" font-size="10.00">EnemyTowerCanShootSelection</text>
</g>
<!-- Node2 -->
<g id="node2" class="node"><title>Node2</title>
<g id="a_node2"><a xlink:href="../../d4/d66/classgame_authoring_1_1scenes_1_1actor_building_scenes_1_1_tower_building_scene.html#a3f9397d9b0674af19816c0c746e35a5e" target="_top" xlink:title="gameAuthoring.scenes.actor\lBuildingScenes.TowerBuildingScene.configure\lAndDisplayRightPane">
<polygon fill="white" stroke="black" points="252.5,0.5 252.5,-40.5 485.5,-40.5 485.5,0.5 252.5,0.5"/>
<text text-anchor="start" x="260.5" y="-28.5" font-family="Helvetica,sans-Serif" font-size="10.00">gameAuthoring.scenes.actor</text>
<text text-anchor="start" x="260.5" y="-17.5" font-family="Helvetica,sans-Serif" font-size="10.00">BuildingScenes.TowerBuildingScene.configure</text>
<text text-anchor="middle" x="369" y="-6.5" font-family="Helvetica,sans-Serif" font-size="10.00">AndDisplayRightPane</text>
</a>
</g>
</g>
<!-- Node1&#45;&gt;Node2 -->
<g id="edge1" class="edge"><title>Node1&#45;&gt;Node2</title>
<path fill="none" stroke="midnightblue" d="M226.366,-20C235.049,-20 243.807,-20 252.479,-20"/>
<polygon fill="midnightblue" stroke="midnightblue" points="226.215,-16.5001 216.215,-20 226.215,-23.5001 226.215,-16.5001"/>
</g>
</g>
</svg>
