<?xml version="1.0" encoding="UTF-8" standalone="no"?>
<!DOCTYPE svg PUBLIC "-//W3C//DTD SVG 1.1//EN"
 "http://www.w3.org/Graphics/SVG/1.1/DTD/svg11.dtd">
<!-- Generated by graphviz version 2.36.0 (20140111.2315)
 -->
<!-- Title: gameAuthoring.scenes.actorBuildingScenes.TowerBuildingScene.initializeActorsAndBuildActorDisplay Pages: 1 -->
<svg width="1460pt" height="223pt"
 viewBox="0.00 0.00 1460.00 223.00" xmlns="http://www.w3.org/2000/svg" xmlns:xlink="http://www.w3.org/1999/xlink">
<g id="graph0" class="graph" transform="scale(1 1) rotate(0) translate(4 219)">
<title>gameAuthoring.scenes.actorBuildingScenes.TowerBuildingScene.initializeActorsAndBuildActorDisplay</title>
<polygon fill="white" stroke="none" points="-4,4 -4,-219 1456,-219 1456,4 -4,4"/>
<!-- Node1 -->
<g id="node1" class="node"><title>Node1</title>
<polygon fill="#bfbfbf" stroke="black" points="0.5,-83.5 0.5,-124.5 227.5,-124.5 227.5,-83.5 0.5,-83.5"/>
<text text-anchor="start" x="8.5" y="-112.5" font-family="Helvetica,sans-Serif" font-size="10.00">gameAuthoring.scenes.actor</text>
<text text-anchor="start" x="8.5" y="-101.5" font-family="Helvetica,sans-Serif" font-size="10.00">BuildingScenes.TowerBuildingScene.initialize</text>
<text text-anchor="middle" x="114" y="-90.5" font-family="Helvetica,sans-Serif" font-size="10.00">ActorsAndBuildActorDisplay</text>
</g>
<!-- Node2 -->
<g id="node2" class="node"><title>Node2</title>
<g id="a_node2"><a xlink:href="../../d4/d66/classgame_authoring_1_1scenes_1_1actor_building_scenes_1_1_tower_building_scene.html#abf6e70d174b0496097e281803b8655e6" target="_top" xlink:title="gameAuthoring.scenes.actor\lBuildingScenes.TowerBuildingScene.redraw\lTowerDisplay">
<polygon fill="white" stroke="black" points="264.5,-83.5 264.5,-124.5 485.5,-124.5 485.5,-83.5 264.5,-83.5"/>
<text text-anchor="start" x="272.5" y="-112.5" font-family="Helvetica,sans-Serif" font-size="10.00">gameAuthoring.scenes.actor</text>
<text text-anchor="start" x="272.5" y="-101.5" font-family="Helvetica,sans-Serif" font-size="10.00">BuildingScenes.TowerBuildingScene.redraw</text>
<text text-anchor="middle" x="375" y="-90.5" font-family="Helvetica,sans-Serif" font-size="10.00">TowerDisplay</text>
</a>
</g>
</g>
<!-- Node1&#45;&gt;Node2 -->
<g id="edge1" class="edge"><title>Node1&#45;&gt;Node2</title>
<path fill="none" stroke="midnightblue" d="M227.848,-104C236.568,-104 245.39,-104 254.154,-104"/>
<polygon fill="midnightblue" stroke="midnightblue" points="254.404,-107.5 264.404,-104 254.404,-100.5 254.404,-107.5"/>
</g>
<!-- Node3 -->
<g id="node3" class="node"><title>Node3</title>
<g id="a_node3"><a xlink:href="../../d4/d66/classgame_authoring_1_1scenes_1_1actor_building_scenes_1_1_tower_building_scene.html#a5fa4e9809e27472f0b30ee27b5962f21" target="_top" xlink:title="gameAuthoring.scenes.actor\lBuildingScenes.TowerBuildingScene.handle\lAddUpgrade">
<polygon fill="white" stroke="black" points="522.5,-83.5 522.5,-124.5 743.5,-124.5 743.5,-83.5 522.5,-83.5"/>
<text text-anchor="start" x="530.5" y="-112.5" font-family="Helvetica,sans-Serif" font-size="10.00">gameAuthoring.scenes.actor</text>
<text text-anchor="start" x="530.5" y="-101.5" font-family="Helvetica,sans-Serif" font-size="10.00">BuildingScenes.TowerBuildingScene.handle</text>
<text text-anchor="middle" x="633" y="-90.5" font-family="Helvetica,sans-Serif" font-size="10.00">AddUpgrade</text>
</a>
</g>
</g>
<!-- Node2&#45;&gt;Node3 -->
<g id="edge2" class="edge"><title>Node2&#45;&gt;Node3</title>
<path fill="none" stroke="midnightblue" d="M485.681,-104C494.362,-104 503.158,-104 511.905,-104"/>
<polygon fill="midnightblue" stroke="midnightblue" points="512.14,-107.5 522.14,-104 512.14,-100.5 512.14,-107.5"/>
</g>
<!-- Node4 -->
<g id="node4" class="node"><title>Node4</title>
<g id="a_node4"><a xlink:href="../../d5/de6/classgame_authoring_1_1scenes_1_1actor_building_scenes_1_1_actor_building_scene.html#a903b7fdfe27f5faad827063d80a02f34" target="_top" xlink:title="gameAuthoring.scenes.actor\lBuildingScenes.ActorBuildingScene.clear\lFields">
<polygon fill="white" stroke="black" points="780,-83.5 780,-124.5 992,-124.5 992,-83.5 780,-83.5"/>
<text text-anchor="start" x="788" y="-112.5" font-family="Helvetica,sans-Serif" font-size="10.00">gameAuthoring.scenes.actor</text>
<text text-anchor="start" x="788" y="-101.5" font-family="Helvetica,sans-Serif" font-size="10.00">BuildingScenes.ActorBuildingScene.clear</text>
<text text-anchor="middle" x="886" y="-90.5" font-family="Helvetica,sans-Serif" font-size="10.00">Fields</text>
</a>
</g>
</g>
<!-- Node3&#45;&gt;Node4 -->
<g id="edge3" class="edge"><title>Node3&#45;&gt;Node4</title>
<path fill="none" stroke="midnightblue" d="M743.727,-104C752.355,-104 761.084,-104 769.748,-104"/>
<polygon fill="midnightblue" stroke="midnightblue" points="769.878,-107.5 779.878,-104 769.878,-100.5 769.878,-107.5"/>
</g>
<!-- Node5 -->
<g id="node5" class="node"><title>Node5</title>
<g id="a_node5"><a xlink:href="../../d5/de6/classgame_authoring_1_1scenes_1_1actor_building_scenes_1_1_actor_building_scene.html#a4a20dec94c383a5eb3a91406f2447208" target="_top" xlink:title="gameAuthoring.scenes.actor\lBuildingScenes.ActorBuildingScene.clear\lActorSpecificFields">
<polygon fill="white" stroke="black" points="1028,-173.5 1028,-214.5 1240,-214.5 1240,-173.5 1028,-173.5"/>
<text text-anchor="start" x="1036" y="-202.5" font-family="Helvetica,sans-Serif" font-size="10.00">gameAuthoring.scenes.actor</text>
<text text-anchor="start" x="1036" y="-191.5" font-family="Helvetica,sans-Serif" font-size="10.00">BuildingScenes.ActorBuildingScene.clear</text>
<text text-anchor="middle" x="1134" y="-180.5" font-family="Helvetica,sans-Serif" font-size="10.00">ActorSpecificFields</text>
</a>
</g>
</g>
<!-- Node4&#45;&gt;Node5 -->
<g id="edge4" class="edge"><title>Node4&#45;&gt;Node5</title>
<path fill="none" stroke="midnightblue" d="M932.544,-124.547C959.921,-136.523 995.623,-151.485 1028,-163 1034.96,-165.474 1042.22,-167.911 1049.53,-170.265"/>
<polygon fill="midnightblue" stroke="midnightblue" points="1048.93,-173.744 1059.52,-173.42 1051.04,-167.07 1048.93,-173.744"/>
</g>
<!-- Node6 -->
<g id="node6" class="node"><title>Node6</title>
<g id="a_node6"><a xlink:href="../../dc/d20/classutilities_1_1_java_f_xutilities_1_1_drag_and_drop_file_panes_1_1image_panes_1_1_drag_and_drop_file_pane.html#a22d6f246777b35474dfb4a1766d5e225" target="_top" xlink:title="utilities.JavaFXutilities.\lDragAndDropFilePanes.imagePanes.\lDragAndDropFilePane.getPane">
<polygon fill="white" stroke="black" points="1039,-113.5 1039,-154.5 1229,-154.5 1229,-113.5 1039,-113.5"/>
<text text-anchor="start" x="1047" y="-142.5" font-family="Helvetica,sans-Serif" font-size="10.00">utilities.JavaFXutilities.</text>
<text text-anchor="start" x="1047" y="-131.5" font-family="Helvetica,sans-Serif" font-size="10.00">DragAndDropFilePanes.imagePanes.</text>
<text text-anchor="middle" x="1134" y="-120.5" font-family="Helvetica,sans-Serif" font-size="10.00">DragAndDropFilePane.getPane</text>
</a>
</g>
</g>
<!-- Node4&#45;&gt;Node6 -->
<g id="edge5" class="edge"><title>Node4&#45;&gt;Node6</title>
<path fill="none" stroke="midnightblue" d="M992.04,-116.81C1004.18,-118.29 1016.56,-119.8 1028.69,-121.279"/>
<polygon fill="midnightblue" stroke="midnightblue" points="1028.46,-124.777 1038.81,-122.514 1029.31,-117.829 1028.46,-124.777"/>
</g>
<!-- Node7 -->
<g id="node7" class="node"><title>Node7</title>
<g id="a_node7"><a xlink:href="../../dc/d20/classutilities_1_1_java_f_xutilities_1_1_drag_and_drop_file_panes_1_1image_panes_1_1_drag_and_drop_file_pane.html#a280b6913384945a5d819f81e0a166638" target="_top" xlink:title="utilities.JavaFXutilities.\lDragAndDropFilePanes.imagePanes.\lDragAndDropFilePane.reset">
<polygon fill="white" stroke="black" points="1039,-53.5 1039,-94.5 1229,-94.5 1229,-53.5 1039,-53.5"/>
<text text-anchor="start" x="1047" y="-82.5" font-family="Helvetica,sans-Serif" font-size="10.00">utilities.JavaFXutilities.</text>
<text text-anchor="start" x="1047" y="-71.5" font-family="Helvetica,sans-Serif" font-size="10.00">DragAndDropFilePanes.imagePanes.</text>
<text text-anchor="middle" x="1134" y="-60.5" font-family="Helvetica,sans-Serif" font-size="10.00">DragAndDropFilePane.reset</text>
</a>
</g>
</g>
<!-- Node4&#45;&gt;Node7 -->
<g id="edge6" class="edge"><title>Node4&#45;&gt;Node7</title>
<path fill="none" stroke="midnightblue" d="M992.04,-91.1903C1004.18,-89.7097 1016.56,-88.2 1028.69,-86.7206"/>
<polygon fill="midnightblue" stroke="midnightblue" points="1029.31,-90.1713 1038.81,-85.4864 1028.46,-83.2227 1029.31,-90.1713"/>
</g>
<!-- Node8 -->
<g id="node8" class="node"><title>Node8</title>
<g id="a_node8"><a xlink:href="../../d7/d46/classutilities_1_1_java_f_xutilities_1_1slider_1_1_slider_container.html#ac4e7c185d5de5afe2a491faf8f6b49d8" target="_top" xlink:title="utilities.JavaFXutilities.slider.\lSliderContainer.resetSlider">
<polygon fill="white" stroke="black" points="1059.5,-5 1059.5,-35 1208.5,-35 1208.5,-5 1059.5,-5"/>
<text text-anchor="start" x="1067.5" y="-23" font-family="Helvetica,sans-Serif" font-size="10.00">utilities.JavaFXutilities.slider.</text>
<text text-anchor="middle" x="1134" y="-12" font-family="Helvetica,sans-Serif" font-size="10.00">SliderContainer.resetSlider</text>
</a>
</g>
</g>
<!-- Node4&#45;&gt;Node8 -->
<g id="edge7" class="edge"><title>Node4&#45;&gt;Node8</title>
<path fill="none" stroke="midnightblue" d="M929.751,-83.4565C957.323,-70.7993 994.216,-54.9531 1028,-44 1035.05,-41.7144 1042.43,-39.5612 1049.88,-37.5543"/>
<polygon fill="midnightblue" stroke="midnightblue" points="1050.88,-40.9094 1059.68,-35.0014 1049.12,-34.1355 1050.88,-40.9094"/>
</g>
<!-- Node9 -->
<g id="node9" class="node"><title>Node9</title>
<g id="a_node9"><a xlink:href="../../db/d3a/classgame_authoring_1_1scenes_1_1actor_building_scenes_1_1behavior_builders_1_1_slider_info.html#a70e2b6cb39ab74c62aada0c7e8042325" target="_top" xlink:title="gameAuthoring.scenes.actor\lBuildingScenes.behaviorBuilders.\lSliderInfo.getMyMin">
<polygon fill="white" stroke="black" points="1276.5,0.5 1276.5,-40.5 1451.5,-40.5 1451.5,0.5 1276.5,0.5"/>
<text text-anchor="start" x="1284.5" y="-28.5" font-family="Helvetica,sans-Serif" font-size="10.00">gameAuthoring.scenes.actor</text>
<text text-anchor="start" x="1284.5" y="-17.5" font-family="Helvetica,sans-Serif" font-size="10.00">BuildingScenes.behaviorBuilders.</text>
<text text-anchor="middle" x="1364" y="-6.5" font-family="Helvetica,sans-Serif" font-size="10.00">SliderInfo.getMyMin</text>
</a>
</g>
</g>
<!-- Node8&#45;&gt;Node9 -->
<g id="edge8" class="edge"><title>Node8&#45;&gt;Node9</title>
<path fill="none" stroke="midnightblue" d="M1208.71,-20C1227.1,-20 1247.1,-20 1266.41,-20"/>
<polygon fill="midnightblue" stroke="midnightblue" points="1266.44,-23.5001 1276.44,-20 1266.44,-16.5001 1266.44,-23.5001"/>
</g>
</g>
</svg>
