<?xml version="1.0" encoding="UTF-8" standalone="no"?>
<!DOCTYPE svg PUBLIC "-//W3C//DTD SVG 1.1//EN"
 "http://www.w3.org/Graphics/SVG/1.1/DTD/svg11.dtd">
<!-- Generated by graphviz version 2.36.0 (20140111.2315)
 -->
<!-- Title: gameEngine.CoOpManager.getTowersFromServer Pages: 1 -->
<!--zoomable 237 -->
<svg id="main" version="1.1" xmlns="http://www.w3.org/2000/svg" xmlns:xlink="http://www.w3.org/1999/xlink" xml:space="preserve" onload="init(evt)">
<style type="text/css"><![CDATA[
.edge:hover path { stroke: red; }
.edge:hover polygon { stroke: red; fill: red; }
]]></style>
<script type="text/javascript"><![CDATA[
var edges = document.getElementsByTagName('g');
if (edges && edges.length) {
  for (var i=0;i<edges.length;i++) {
    if (edges[i].id.substr(0,4)=='edge') {
      edges[i].setAttribute('class','edge');
    }
  }
}
]]></script>
        <defs>
                <circle id="rim" cx="0" cy="0" r="7"/>
                <circle id="rim2" cx="0" cy="0" r="3.5"/>
                <g id="zoomPlus">
                        <use xlink:href="#rim" fill="#404040">
                                <set attributeName="fill" to="#808080" begin="zoomplus.mouseover" end="zoomplus.mouseout"/>
                        </use>
                        <path d="M-4,0h8M0,-4v8" fill="none" stroke="white" stroke-width="1.5" pointer-events="none"/>
                </g>
                <g id="zoomMin">
                        <use xlink:href="#rim" fill="#404040">
                                <set attributeName="fill" to="#808080" begin="zoomminus.mouseover" end="zoomminus.mouseout"/>
                        </use>
                        <path d="M-4,0h8" fill="none" stroke="white" stroke-width="1.5" pointer-events="none"/>
                </g>
                <g id="dirArrow">
                        <path fill="none" stroke="white" stroke-width="1.5" d="M0,-3.0v7 M-2.5,-0.5L0,-3.0L2.5,-0.5"/>
                </g>
               <g id="resetDef">
                       <use xlink:href="#rim2" fill="#404040">
                               <set attributeName="fill" to="#808080" begin="reset.mouseover" end="reset.mouseout"/>
                       </use>
               </g>
        </defs>

<script type="text/javascript">
var viewWidth = 1842;
var viewHeight = 237;
var sectionId = 'dynsection-11';
</script>
<script xlink:href="../../svgpan.js"/>
<svg id="graph" class="graph">
<g id="viewport">
<title>gameEngine.CoOpManager.getTowersFromServer</title>
<polygon fill="white" stroke="none" points="-4,4 -4,-233 1838,-233 1838,4 -4,4"/>
<!-- Node1 -->
<g id="node1" class="node"><title>Node1</title>
<polygon fill="#bfbfbf" stroke="black" points="0,-96 0,-126 166,-126 166,-96 0,-96"/>
<text text-anchor="start" x="8" y="-114" font-family="Helvetica,sans-Serif" font-size="10.00">gameEngine.CoOpManager.get</text>
<text text-anchor="middle" x="83" y="-103" font-family="Helvetica,sans-Serif" font-size="10.00">TowersFromServer</text>
</g>
<!-- Node2 -->
<g id="node2" class="node"><title>Node2</title>
<g id="a_node2"><a xlink:href="../../d4/d66/classgame_engine_1_1_co_op_manager.html#af79a82231e7ef2225ef6fabeb0269d12" target="_top" xlink:title="gameEngine.CoOpManager.add\lTower">
<polygon fill="white" stroke="black" points="212,-162 212,-192 380,-192 380,-162 212,-162"/>
<text text-anchor="start" x="220" y="-180" font-family="Helvetica,sans-Serif" font-size="10.00">gameEngine.CoOpManager.add</text>
<text text-anchor="middle" x="296" y="-169" font-family="Helvetica,sans-Serif" font-size="10.00">Tower</text>
</a>
</g>
</g>
<!-- Node1&#45;&gt;Node2 -->
<g id="edge1" class="edge"><title>Node1&#45;&gt;Node2</title>
<path fill="none" stroke="midnightblue" d="M142.077,-129.166C174.951,-139.449 215.582,-152.158 246.699,-161.892"/>
<polygon fill="midnightblue" stroke="midnightblue" points="142.732,-125.704 132.143,-126.059 140.642,-132.385 142.732,-125.704"/>
</g>
<!-- Node3 -->
<g id="node3" class="node"><title>Node3</title>
<g id="a_node3"><a xlink:href="../../d4/d66/classgame_engine_1_1_co_op_manager.html#ad4b88a1ebf8918a80ea2a3ba697442e3" target="_top" xlink:title="gameEngine.CoOpManager.allow\lInteraction">
<polygon fill="white" stroke="black" points="426.5,-71 426.5,-101 599.5,-101 599.5,-71 426.5,-71"/>
<text text-anchor="start" x="434.5" y="-89" font-family="Helvetica,sans-Serif" font-size="10.00">gameEngine.CoOpManager.allow</text>
<text text-anchor="middle" x="513" y="-78" font-family="Helvetica,sans-Serif" font-size="10.00">Interaction</text>
</a>
</g>
</g>
<!-- Node1&#45;&gt;Node3 -->
<g id="edge2" class="edge"><title>Node1&#45;&gt;Node3</title>
<path fill="none" stroke="midnightblue" d="M176.436,-117.132C237.291,-119.81 318.61,-120.805 390,-113 411.888,-110.607 435.598,-105.867 456.244,-101.018"/>
<polygon fill="midnightblue" stroke="midnightblue" points="176.237,-113.619 166.086,-116.651 175.913,-120.611 176.237,-113.619"/>
</g>
<!-- Node18 -->
<g id="node18" class="node"><title>Node18</title>
<g id="a_node18"><a xlink:href="../../d4/d66/classgame_engine_1_1_co_op_manager.html#ac47b70262d8632fbc594ac5419377725" target="_top" xlink:title="gameEngine.CoOpManager.remove\lTower">
<polygon fill="white" stroke="black" points="202.5,-74 202.5,-104 389.5,-104 389.5,-74 202.5,-74"/>
<text text-anchor="start" x="210.5" y="-92" font-family="Helvetica,sans-Serif" font-size="10.00">gameEngine.CoOpManager.remove</text>
<text text-anchor="middle" x="296" y="-81" font-family="Helvetica,sans-Serif" font-size="10.00">Tower</text>
</a>
</g>
</g>
<!-- Node1&#45;&gt;Node18 -->
<g id="edge17" class="edge"><title>Node1&#45;&gt;Node18</title>
<path fill="none" stroke="midnightblue" d="M176.224,-101.384C184.837,-100.486 193.57,-99.5756 202.188,-98.677"/>
<polygon fill="midnightblue" stroke="midnightblue" points="175.765,-97.913 166.182,-102.431 176.491,-104.875 175.765,-97.913"/>
</g>
<!-- Node19 -->
<g id="node19" class="node"><title>Node19</title>
<g id="a_node19"><a xlink:href="../../d4/d66/classgame_engine_1_1_co_op_manager.html#af2b56fd3bc5e8ae23648b6ffc0c18dff" target="_top" xlink:title="gameEngine.CoOpManager.start\lLevel">
<polygon fill="white" stroke="black" points="209.5,-25 209.5,-55 382.5,-55 382.5,-25 209.5,-25"/>
<text text-anchor="start" x="217.5" y="-43" font-family="Helvetica,sans-Serif" font-size="10.00">gameEngine.CoOpManager.start</text>
<text text-anchor="middle" x="296" y="-32" font-family="Helvetica,sans-Serif" font-size="10.00">Level</text>
</a>
</g>
</g>
<!-- Node1&#45;&gt;Node19 -->
<g id="edge18" class="edge"><title>Node1&#45;&gt;Node19</title>
<path fill="none" stroke="midnightblue" d="M127.835,-92.0057C149.849,-82.8614 177.077,-72.1433 202,-64 211.669,-60.8409 222.01,-57.8247 232.154,-55.0626"/>
<polygon fill="midnightblue" stroke="midnightblue" points="126.298,-88.8547 118.428,-95.9484 129.004,-95.3106 126.298,-88.8547"/>
</g>
<!-- Node4 -->
<g id="node4" class="node"><title>Node4</title>
<g id="a_node4"><a xlink:href="../../d4/d66/classgame_engine_1_1_co_op_manager.html#af6188fa0b89fef3dea97e3ce873b883e" target="_top" xlink:title="gameEngine.CoOpManager.initializeGame">
<polygon fill="white" stroke="black" points="636,-98.5 636,-117.5 854,-117.5 854,-98.5 636,-98.5"/>
<text text-anchor="middle" x="745" y="-105.5" font-family="Helvetica,sans-Serif" font-size="10.00">gameEngine.CoOpManager.initializeGame</text>
</a>
</g>
</g>
<!-- Node3&#45;&gt;Node4 -->
<g id="edge3" class="edge"><title>Node3&#45;&gt;Node4</title>
<path fill="none" stroke="midnightblue" d="M609.631,-95.1474C621.088,-96.2432 632.809,-97.3643 644.321,-98.4654"/>
<polygon fill="midnightblue" stroke="midnightblue" points="609.931,-91.6602 599.644,-94.192 609.265,-98.6284 609.931,-91.6602"/>
</g>
<!-- Node17 -->
<g id="node17" class="node"><title>Node17</title>
<g id="a_node17"><a xlink:href="../../d4/d66/classgame_engine_1_1_co_op_manager.html#a1e977212e886dab17670950489c15801" target="_top" xlink:title="gameEngine.CoOpManager.on\lLevelEnd">
<polygon fill="white" stroke="black" points="664,-49 664,-79 826,-79 826,-49 664,-49"/>
<text text-anchor="start" x="672" y="-67" font-family="Helvetica,sans-Serif" font-size="10.00">gameEngine.CoOpManager.on</text>
<text text-anchor="middle" x="745" y="-56" font-family="Helvetica,sans-Serif" font-size="10.00">LevelEnd</text>
</a>
</g>
</g>
<!-- Node3&#45;&gt;Node17 -->
<g id="edge16" class="edge"><title>Node3&#45;&gt;Node17</title>
<path fill="none" stroke="midnightblue" d="M609.613,-76.8544C627.702,-75.1242 646.45,-73.3309 663.996,-71.6526"/>
<polygon fill="midnightblue" stroke="midnightblue" points="609.265,-73.3716 599.644,-77.808 609.931,-80.3398 609.265,-73.3716"/>
</g>
<!-- Node5 -->
<g id="node5" class="node"><title>Node5</title>
<g id="a_node5"><a xlink:href="../../da/d69/classgame_player_1_1main_classes_1_1managers_1_1_gui_manager.html#aa0b614e03bdec959e13e3d5ca2e1f614" target="_top" xlink:title="gamePlayer.mainClasses.managers.\lGuiManager.startMultiPlayerGame">
<polygon fill="white" stroke="black" points="890.5,-93 890.5,-123 1081.5,-123 1081.5,-93 890.5,-93"/>
<text text-anchor="start" x="898.5" y="-111" font-family="Helvetica,sans-Serif" font-size="10.00">gamePlayer.mainClasses.managers.</text>
<text text-anchor="middle" x="986" y="-100" font-family="Helvetica,sans-Serif" font-size="10.00">GuiManager.startMultiPlayerGame</text>
</a>
</g>
</g>
<!-- Node4&#45;&gt;Node5 -->
<g id="edge4" class="edge"><title>Node4&#45;&gt;Node5</title>
<path fill="none" stroke="midnightblue" d="M864.445,-108C873.089,-108 881.741,-108 890.219,-108"/>
<polygon fill="midnightblue" stroke="midnightblue" points="864.311,-104.5 854.311,-108 864.311,-111.5 864.311,-104.5"/>
</g>
<!-- Node6 -->
<g id="node6" class="node"><title>Node6</title>
<g id="a_node6"><a xlink:href="../../da/d69/classgame_player_1_1main_classes_1_1managers_1_1_gui_manager.html#ad50f462f8d45a5bbfc8a17290372a1ab" target="_top" xlink:title="gamePlayer.mainClasses.managers.\lGuiManager.joinMultiPlayerGame">
<polygon fill="white" stroke="black" points="1132.5,-169 1132.5,-199 1323.5,-199 1323.5,-169 1132.5,-169"/>
<text text-anchor="start" x="1140.5" y="-187" font-family="Helvetica,sans-Serif" font-size="10.00">gamePlayer.mainClasses.managers.</text>
<text text-anchor="middle" x="1228" y="-176" font-family="Helvetica,sans-Serif" font-size="10.00">GuiManager.joinMultiPlayerGame</text>
</a>
</g>
</g>
<!-- Node5&#45;&gt;Node6 -->
<g id="edge5" class="edge"><title>Node5&#45;&gt;Node6</title>
<path fill="none" stroke="midnightblue" d="M1030.82,-126.907C1056,-137.306 1088.42,-149.903 1118,-159 1129.78,-162.624 1142.43,-165.988 1154.78,-168.999"/>
<polygon fill="midnightblue" stroke="midnightblue" points="1032.12,-123.657 1021.54,-123.042 1029.43,-130.119 1032.12,-123.657"/>
</g>
<!-- Node10 -->
<g id="node10" class="node"><title>Node10</title>
<g id="a_node10"><a xlink:href="../../da/d69/classgame_player_1_1main_classes_1_1managers_1_1_gui_manager.html#a3f657f0e3ba1e493d2dd02b5df5e03f6" target="_top" xlink:title="gamePlayer.mainClasses.managers.\lGuiManager.replayGame">
<polygon fill="white" stroke="black" points="1132.5,-120 1132.5,-150 1323.5,-150 1323.5,-120 1132.5,-120"/>
<text text-anchor="start" x="1140.5" y="-138" font-family="Helvetica,sans-Serif" font-size="10.00">gamePlayer.mainClasses.managers.</text>
<text text-anchor="middle" x="1228" y="-127" font-family="Helvetica,sans-Serif" font-size="10.00">GuiManager.replayGame</text>
</a>
</g>
</g>
<!-- Node5&#45;&gt;Node10 -->
<g id="edge9" class="edge"><title>Node5&#45;&gt;Node10</title>
<path fill="none" stroke="midnightblue" d="M1091.74,-119.783C1105.19,-121.296 1118.9,-122.839 1132.18,-124.333"/>
<polygon fill="midnightblue" stroke="midnightblue" points="1091.84,-116.272 1081.51,-118.632 1091.06,-123.228 1091.84,-116.272"/>
</g>
<!-- Node11 -->
<g id="node11" class="node"><title>Node11</title>
<g id="a_node11"><a xlink:href="../../d4/d3f/classgame_player_1_1main_classes_1_1managers_1_1_welcome_manager.html#a55598dd2973b0a9b979151dd60c9e436" target="_top" xlink:title="gamePlayer.mainClasses.managers.\lWelcomeManager.pollEngineForMultiPlayer\lReadiness">
<polygon fill="white" stroke="black" points="1118.5,-60.5 1118.5,-101.5 1337.5,-101.5 1337.5,-60.5 1118.5,-60.5"/>
<text text-anchor="start" x="1126.5" y="-89.5" font-family="Helvetica,sans-Serif" font-size="10.00">gamePlayer.mainClasses.managers.</text>
<text text-anchor="start" x="1126.5" y="-78.5" font-family="Helvetica,sans-Serif" font-size="10.00">WelcomeManager.pollEngineForMultiPlayer</text>
<text text-anchor="middle" x="1228" y="-67.5" font-family="Helvetica,sans-Serif" font-size="10.00">Readiness</text>
</a>
</g>
</g>
<!-- Node5&#45;&gt;Node11 -->
<g id="edge10" class="edge"><title>Node5&#45;&gt;Node11</title>
<path fill="none" stroke="midnightblue" d="M1091.48,-96.246C1100.36,-95.2467 1109.36,-94.2343 1118.28,-93.2314"/>
<polygon fill="midnightblue" stroke="midnightblue" points="1091.06,-92.7715 1081.51,-97.3676 1091.84,-99.7277 1091.06,-92.7715"/>
</g>
<!-- Node14 -->
<g id="node14" class="node"><title>Node14</title>
<g id="a_node14"><a xlink:href="../../d3/dee/classgame_player_1_1main_classes_1_1welcome_screen_1_1_game_start_manager.html#a5d5001d1ee14ae57deef01f6e3ddde31" target="_top" xlink:title="gamePlayer.mainClasses.welcome\lScreen.GameStartManager.pollEngine\lForMultiPlayerReadiness">
<polygon fill="white" stroke="black" points="1128,-0.5 1128,-41.5 1328,-41.5 1328,-0.5 1128,-0.5"/>
<text text-anchor="start" x="1136" y="-29.5" font-family="Helvetica,sans-Serif" font-size="10.00">gamePlayer.mainClasses.welcome</text>
<text text-anchor="start" x="1136" y="-18.5" font-family="Helvetica,sans-Serif" font-size="10.00">Screen.GameStartManager.pollEngine</text>
<text text-anchor="middle" x="1228" y="-7.5" font-family="Helvetica,sans-Serif" font-size="10.00">ForMultiPlayerReadiness</text>
</a>
</g>
</g>
<!-- Node5&#45;&gt;Node14 -->
<g id="edge13" class="edge"><title>Node5&#45;&gt;Node14</title>
<path fill="none" stroke="midnightblue" d="M1027.63,-88.5418C1053.2,-76.7436 1087.1,-61.9126 1118,-51 1127.35,-47.6993 1137.25,-44.5334 1147.12,-41.5776"/>
<polygon fill="midnightblue" stroke="midnightblue" points="1025.85,-85.509 1018.26,-92.9006 1028.81,-91.8558 1025.85,-85.509"/>
</g>
<!-- Node7 -->
<g id="node7" class="node"><title>Node7</title>
<g id="a_node7"><a xlink:href="../../d4/d3f/classgame_player_1_1main_classes_1_1managers_1_1_welcome_manager.html#a71a2a80cfe9d3a07d7becc506178acfd" target="_top" xlink:title="gamePlayer.mainClasses.managers.\lWelcomeManager.joinMultiPlayerGame">
<polygon fill="white" stroke="black" points="1377.5,-198 1377.5,-228 1578.5,-228 1578.5,-198 1377.5,-198"/>
<text text-anchor="start" x="1385.5" y="-216" font-family="Helvetica,sans-Serif" font-size="10.00">gamePlayer.mainClasses.managers.</text>
<text text-anchor="middle" x="1478" y="-205" font-family="Helvetica,sans-Serif" font-size="10.00">WelcomeManager.joinMultiPlayerGame</text>
</a>
</g>
</g>
<!-- Node6&#45;&gt;Node7 -->
<g id="edge6" class="edge"><title>Node6&#45;&gt;Node7</title>
<path fill="none" stroke="midnightblue" d="M1334.16,-196.297C1348.45,-197.969 1363.09,-199.68 1377.29,-201.34"/>
<polygon fill="midnightblue" stroke="midnightblue" points="1334.16,-192.773 1323.82,-195.088 1333.35,-199.726 1334.16,-192.773"/>
</g>
<!-- Node9 -->
<g id="node9" class="node"><title>Node9</title>
<g id="a_node9"><a xlink:href="../../d3/dee/classgame_player_1_1main_classes_1_1welcome_screen_1_1_game_start_manager.html#a7465850240e12e23aec544dbfd08f6a0" target="_top" xlink:title="gamePlayer.mainClasses.welcome\lScreen.GameStartManager.joinMulti\lPlayerGame">
<polygon fill="white" stroke="black" points="1383,-138.5 1383,-179.5 1573,-179.5 1573,-138.5 1383,-138.5"/>
<text text-anchor="start" x="1391" y="-167.5" font-family="Helvetica,sans-Serif" font-size="10.00">gamePlayer.mainClasses.welcome</text>
<text text-anchor="start" x="1391" y="-156.5" font-family="Helvetica,sans-Serif" font-size="10.00">Screen.GameStartManager.joinMulti</text>
<text text-anchor="middle" x="1478" y="-145.5" font-family="Helvetica,sans-Serif" font-size="10.00">PlayerGame</text>
</a>
</g>
</g>
<!-- Node6&#45;&gt;Node9 -->
<g id="edge8" class="edge"><title>Node6&#45;&gt;Node9</title>
<path fill="none" stroke="midnightblue" d="M1333.84,-173.432C1350.04,-171.798 1366.69,-170.12 1382.64,-168.512"/>
<polygon fill="midnightblue" stroke="midnightblue" points="1333.42,-169.956 1323.82,-174.442 1334.12,-176.921 1333.42,-169.956"/>
</g>
<!-- Node8 -->
<g id="node8" class="node"><title>Node8</title>
<g id="a_node8"><a xlink:href="../../d4/d3f/classgame_player_1_1main_classes_1_1managers_1_1_welcome_manager.html#aa605746e09c481b225463d37a82427e3" target="_top" xlink:title="gamePlayer.mainClasses.managers.\lWelcomeManager.startMultiPlayerOptions">
<polygon fill="white" stroke="black" points="1618.5,-198 1618.5,-228 1833.5,-228 1833.5,-198 1618.5,-198"/>
<text text-anchor="start" x="1626.5" y="-216" font-family="Helvetica,sans-Serif" font-size="10.00">gamePlayer.mainClasses.managers.</text>
<text text-anchor="middle" x="1726" y="-205" font-family="Helvetica,sans-Serif" font-size="10.00">WelcomeManager.startMultiPlayerOptions</text>
</a>
</g>
</g>
<!-- Node7&#45;&gt;Node8 -->
<g id="edge7" class="edge"><title>Node7&#45;&gt;Node8</title>
<path fill="none" stroke="midnightblue" d="M1588.86,-213C1598.66,-213 1608.56,-213 1618.33,-213"/>
<polygon fill="midnightblue" stroke="midnightblue" points="1588.7,-209.5 1578.7,-213 1588.7,-216.5 1588.7,-209.5"/>
</g>
<!-- Node12 -->
<g id="node12" class="node"><title>Node12</title>
<g id="a_node12"><a xlink:href="../../d4/d3f/classgame_player_1_1main_classes_1_1managers_1_1_welcome_manager.html#a0669db103a94675dce875042258da508" target="_top" xlink:title="gamePlayer.mainClasses.managers.\lWelcomeManager.startMultiPlayerGame">
<polygon fill="white" stroke="black" points="1374.5,-66 1374.5,-96 1581.5,-96 1581.5,-66 1374.5,-66"/>
<text text-anchor="start" x="1382.5" y="-84" font-family="Helvetica,sans-Serif" font-size="10.00">gamePlayer.mainClasses.managers.</text>
<text text-anchor="middle" x="1478" y="-73" font-family="Helvetica,sans-Serif" font-size="10.00">WelcomeManager.startMultiPlayerGame</text>
</a>
</g>
</g>
<!-- Node11&#45;&gt;Node12 -->
<g id="edge11" class="edge"><title>Node11&#45;&gt;Node12</title>
<path fill="none" stroke="midnightblue" d="M1348.02,-81C1356.78,-81 1365.56,-81 1374.21,-81"/>
<polygon fill="midnightblue" stroke="midnightblue" points="1347.78,-77.5001 1337.78,-81 1347.78,-84.5001 1347.78,-77.5001"/>
</g>
<!-- Node13 -->
<g id="node13" class="node"><title>Node13</title>
<g id="a_node13"><a xlink:href="../../d4/d3f/classgame_player_1_1main_classes_1_1managers_1_1_welcome_manager.html#ae6495396aef63551116c0835c40574e1" target="_top" xlink:title="gamePlayer.mainClasses.managers.\lWelcomeManager.startGame">
<polygon fill="white" stroke="black" points="1630.5,-66 1630.5,-96 1821.5,-96 1821.5,-66 1630.5,-66"/>
<text text-anchor="start" x="1638.5" y="-84" font-family="Helvetica,sans-Serif" font-size="10.00">gamePlayer.mainClasses.managers.</text>
<text text-anchor="middle" x="1726" y="-73" font-family="Helvetica,sans-Serif" font-size="10.00">WelcomeManager.startGame</text>
</a>
</g>
</g>
<!-- Node12&#45;&gt;Node13 -->
<g id="edge12" class="edge"><title>Node12&#45;&gt;Node13</title>
<path fill="none" stroke="midnightblue" d="M1591.86,-81C1604.78,-81 1617.84,-81 1630.49,-81"/>
<polygon fill="midnightblue" stroke="midnightblue" points="1591.54,-77.5001 1581.54,-81 1591.54,-84.5001 1591.54,-77.5001"/>
</g>
<!-- Node15 -->
<g id="node15" class="node"><title>Node15</title>
<g id="a_node15"><a xlink:href="../../d3/dee/classgame_player_1_1main_classes_1_1welcome_screen_1_1_game_start_manager.html#a994c29260d6cb90abf19dca2b3463b6a" target="_top" xlink:title="gamePlayer.mainClasses.welcome\lScreen.GameStartManager.startMulti\lPlayerGame">
<polygon fill="white" stroke="black" points="1380,-0.5 1380,-41.5 1576,-41.5 1576,-0.5 1380,-0.5"/>
<text text-anchor="start" x="1388" y="-29.5" font-family="Helvetica,sans-Serif" font-size="10.00">gamePlayer.mainClasses.welcome</text>
<text text-anchor="start" x="1388" y="-18.5" font-family="Helvetica,sans-Serif" font-size="10.00">Screen.GameStartManager.startMulti</text>
<text text-anchor="middle" x="1478" y="-7.5" font-family="Helvetica,sans-Serif" font-size="10.00">PlayerGame</text>
</a>
</g>
</g>
<!-- Node14&#45;&gt;Node15 -->
<g id="edge14" class="edge"><title>Node14&#45;&gt;Node15</title>
<path fill="none" stroke="midnightblue" d="M1338.11,-21C1351.95,-21 1366.05,-21 1379.69,-21"/>
<polygon fill="midnightblue" stroke="midnightblue" points="1338.09,-17.5001 1328.09,-21 1338.09,-24.5001 1338.09,-17.5001"/>
</g>
<!-- Node16 -->
<g id="node16" class="node"><title>Node16</title>
<g id="a_node16"><a xlink:href="../../d3/dee/classgame_player_1_1main_classes_1_1welcome_screen_1_1_game_start_manager.html#a4ac849399bf00c6df86f0db25ea95ed8" target="_top" xlink:title="gamePlayer.mainClasses.welcome\lScreen.GameStartManager.startGame">
<polygon fill="white" stroke="black" points="1624.5,-6 1624.5,-36 1827.5,-36 1827.5,-6 1624.5,-6"/>
<text text-anchor="start" x="1632.5" y="-24" font-family="Helvetica,sans-Serif" font-size="10.00">gamePlayer.mainClasses.welcome</text>
<text text-anchor="middle" x="1726" y="-13" font-family="Helvetica,sans-Serif" font-size="10.00">Screen.GameStartManager.startGame</text>
</a>
</g>
</g>
<!-- Node15&#45;&gt;Node16 -->
<g id="edge15" class="edge"><title>Node15&#45;&gt;Node16</title>
<path fill="none" stroke="midnightblue" d="M1586.32,-21C1598.99,-21 1611.88,-21 1624.44,-21"/>
<polygon fill="midnightblue" stroke="midnightblue" points="1586.23,-17.5001 1576.23,-21 1586.23,-24.5001 1586.23,-17.5001"/>
</g>
<!-- Node19&#45;&gt;Node3 -->
<g id="edge19" class="edge"><title>Node19&#45;&gt;Node3</title>
<path fill="none" stroke="midnightblue" d="M377.336,-57.1881C398.519,-61.7204 421.208,-66.5748 441.81,-70.9826"/>
<polygon fill="midnightblue" stroke="midnightblue" points="377.91,-53.7318 367.399,-55.0621 376.445,-60.5769 377.91,-53.7318"/>
</g>
</g>
</svg>
        <g id="navigator" transform="translate(0 0)" fill="#404254">
                <rect fill="#f2f5e9" fill-opacity="0.5" stroke="#606060" stroke-width=".5" x="0" y="0" width="60" height="60"/>
                <use id="zoomplus" xlink:href="#zoomPlus" x="17" y="9" onmousedown="handleZoom(evt,'in')"/>
                <use id="zoomminus" xlink:href="#zoomMin" x="42" y="9" onmousedown="handleZoom(evt,'out')"/>
                <use id="reset" xlink:href="#resetDef" x="30" y="36" onmousedown="handleReset()"/>
                <g id="arrowUp" xlink:href="#dirArrow" transform="translate(30 24)" onmousedown="handlePan(0,-1)">
                  <use xlink:href="#rim" fill="#404040">
                        <set attributeName="fill" to="#808080" begin="arrowUp.mouseover" end="arrowUp.mouseout"/>
                  </use>
                  <path fill="none" stroke="white" stroke-width="1.5" d="M0,-3.0v7 M-2.5,-0.5L0,-3.0L2.5,-0.5"/>
                </g>
                <g id="arrowRight" xlink:href="#dirArrow" transform="rotate(90) translate(36 -43)" onmousedown="handlePan(1,0)">
                  <use xlink:href="#rim" fill="#404040">
                        <set attributeName="fill" to="#808080" begin="arrowRight.mouseover" end="arrowRight.mouseout"/>
                  </use>
                  <path fill="none" stroke="white" stroke-width="1.5" d="M0,-3.0v7 M-2.5,-0.5L0,-3.0L2.5,-0.5"/>
                </g>
                <g id="arrowDown" xlink:href="#dirArrow" transform="rotate(180) translate(-30 -48)" onmousedown="handlePan(0,1)">
                  <use xlink:href="#rim" fill="#404040">
                        <set attributeName="fill" to="#808080" begin="arrowDown.mouseover" end="arrowDown.mouseout"/>
                  </use>
                  <path fill="none" stroke="white" stroke-width="1.5" d="M0,-3.0v7 M-2.5,-0.5L0,-3.0L2.5,-0.5"/>
                </g>
                <g id="arrowLeft" xlink:href="#dirArrow" transform="rotate(270) translate(-36 17)" onmousedown="handlePan(-1,0)">
                  <use xlink:href="#rim" fill="#404040">
                        <set attributeName="fill" to="#808080" begin="arrowLeft.mouseover" end="arrowLeft.mouseout"/>
                  </use>
                  <path fill="none" stroke="white" stroke-width="1.5" d="M0,-3.0v7 M-2.5,-0.5L0,-3.0L2.5,-0.5"/>
                </g>
        </g>
        <svg viewBox="0 0 15 15" width="100%" height="30px" preserveAspectRatio="xMaxYMin meet">
         <g id="arrow_out" transform="scale(0.3 0.3)">
          <a xlink:href="classgame_engine_1_1_co_op_manager_a15a51949e52c7652ea6f6e420868bd6d_icgraph_org.svg" target="_base">
           <rect id="button" ry="5" rx="5" y="6" x="6" height="38" width="38"
                fill="#f2f5e9" fill-opacity="0.5" stroke="#606060" stroke-width="1.0"/>
           <path id="arrow"
             d="M 11.500037,31.436501 C 11.940474,20.09759 22.043105,11.32322 32.158766,21.979434 L 37.068811,17.246167 C 37.068811,17.246167 37.088388,32 37.088388,32 L 22.160133,31.978069 C 22.160133,31.978069 26.997745,27.140456 26.997745,27.140456 C 18.528582,18.264221 13.291696,25.230495 11.500037,31.436501 z"
             style="fill:#404040;"/>
          </a>
         </g>
        </svg>
</svg>
