<?xml version="1.0" encoding="UTF-8" standalone="no"?>
<!DOCTYPE svg PUBLIC "-//W3C//DTD SVG 1.1//EN"
 "http://www.w3.org/Graphics/SVG/1.1/DTD/svg11.dtd">
<!-- Generated by graphviz version 2.36.0 (20140111.2315)
 -->
<!-- Title: gameEngine.CoOpManager.removeTower Pages: 1 -->
<!--zoomable 262 -->
<svg id="main" version="1.1" xmlns="http://www.w3.org/2000/svg" xmlns:xlink="http://www.w3.org/1999/xlink" xml:space="preserve" onload="init(evt)">
<style type="text/css"><![CDATA[
.edge:hover path { stroke: red; }
.edge:hover polygon { stroke: red; fill: red; }
]]></style>
<script type="text/javascript"><![CDATA[
var edges = document.getElementsByTagName('g');
if (edges && edges.length) {
  for (var i=0;i<edges.length;i++) {
    if (edges[i].id.substr(0,4)=='edge') {
      edges[i].setAttribute('class','edge');
    }
  }
}
]]></script>
        <defs>
                <circle id="rim" cx="0" cy="0" r="7"/>
                <circle id="rim2" cx="0" cy="0" r="3.5"/>
                <g id="zoomPlus">
                        <use xlink:href="#rim" fill="#404040">
                                <set attributeName="fill" to="#808080" begin="zoomplus.mouseover" end="zoomplus.mouseout"/>
                        </use>
                        <path d="M-4,0h8M0,-4v8" fill="none" stroke="white" stroke-width="1.5" pointer-events="none"/>
                </g>
                <g id="zoomMin">
                        <use xlink:href="#rim" fill="#404040">
                                <set attributeName="fill" to="#808080" begin="zoomminus.mouseover" end="zoomminus.mouseout"/>
                        </use>
                        <path d="M-4,0h8" fill="none" stroke="white" stroke-width="1.5" pointer-events="none"/>
                </g>
                <g id="dirArrow">
                        <path fill="none" stroke="white" stroke-width="1.5" d="M0,-3.0v7 M-2.5,-0.5L0,-3.0L2.5,-0.5"/>
                </g>
               <g id="resetDef">
                       <use xlink:href="#rim2" fill="#404040">
                               <set attributeName="fill" to="#808080" begin="reset.mouseover" end="reset.mouseout"/>
                       </use>
               </g>
        </defs>

<script type="text/javascript">
var viewWidth = 908;
var viewHeight = 262;
var sectionId = 'dynsection-19';
</script>
<script xlink:href="../../svgpan.js"/>
<svg id="graph" class="graph">
<g id="viewport">
<title>gameEngine.CoOpManager.removeTower</title>
<polygon fill="white" stroke="none" points="-4,4 -4,-258 904,-258 904,4 -4,4"/>
<!-- Node1 -->
<g id="node1" class="node"><title>Node1</title>
<polygon fill="#bfbfbf" stroke="black" points="0.5,-76 0.5,-106 187.5,-106 187.5,-76 0.5,-76"/>
<text text-anchor="start" x="8.5" y="-94" font-family="Helvetica,sans-Serif" font-size="10.00">gameEngine.CoOpManager.remove</text>
<text text-anchor="middle" x="94" y="-83" font-family="Helvetica,sans-Serif" font-size="10.00">Tower</text>
</g>
<!-- Node2 -->
<g id="node2" class="node"><title>Node2</title>
<g id="a_node2"><a xlink:href="../../d4/d66/classgame_engine_1_1_co_op_manager.html#a15a51949e52c7652ea6f6e420868bd6d" target="_top" xlink:title="gameEngine.CoOpManager.get\lTowersFromServer">
<polygon fill="white" stroke="black" points="228,-109 228,-139 394,-139 394,-109 228,-109"/>
<text text-anchor="start" x="236" y="-127" font-family="Helvetica,sans-Serif" font-size="10.00">gameEngine.CoOpManager.get</text>
<text text-anchor="middle" x="311" y="-116" font-family="Helvetica,sans-Serif" font-size="10.00">TowersFromServer</text>
</a>
</g>
</g>
<!-- Node1&#45;&gt;Node2 -->
<g id="edge1" class="edge"><title>Node1&#45;&gt;Node2</title>
<path fill="none" stroke="midnightblue" d="M187.739,-105.234C197.712,-106.765 207.858,-108.322 217.824,-109.852"/>
<polygon fill="midnightblue" stroke="midnightblue" points="217.302,-113.313 227.718,-111.371 218.364,-106.394 217.302,-113.313"/>
</g>
<!-- Node9 -->
<g id="node9" class="node"><title>Node9</title>
<g id="a_node9"><a xlink:href="../../d4/d66/classgame_engine_1_1_co_op_manager.html#ad5584e14774b52926698fb63b4b1c6fd" target="_top" xlink:title="gameEngine.CoOpManager.write\lTowersToServer">
<polygon fill="white" stroke="black" points="224.5,-44 224.5,-74 397.5,-74 397.5,-44 224.5,-44"/>
<text text-anchor="start" x="232.5" y="-62" font-family="Helvetica,sans-Serif" font-size="10.00">gameEngine.CoOpManager.write</text>
<text text-anchor="middle" x="311" y="-51" font-family="Helvetica,sans-Serif" font-size="10.00">TowersToServer</text>
</a>
</g>
</g>
<!-- Node1&#45;&gt;Node9 -->
<g id="edge8" class="edge"><title>Node1&#45;&gt;Node9</title>
<path fill="none" stroke="midnightblue" d="M187.739,-77.1969C196.575,-75.8819 205.546,-74.5466 214.408,-73.2277"/>
<polygon fill="midnightblue" stroke="midnightblue" points="214.978,-76.6815 224.354,-71.7474 213.947,-69.7577 214.978,-76.6815"/>
</g>
<!-- Node3 -->
<g id="node3" class="node"><title>Node3</title>
<g id="a_node3"><a xlink:href="../../d4/d66/classgame_engine_1_1_co_op_manager.html#a6d2b1134b6ee9495331e5fdc76b99873" target="_top" xlink:title="gameEngine.CoOpManager.add\lTower">
<polygon fill="white" stroke="black" points="467,-175 467,-205 635,-205 635,-175 467,-175"/>
<text text-anchor="start" x="475" y="-193" font-family="Helvetica,sans-Serif" font-size="10.00">gameEngine.CoOpManager.add</text>
<text text-anchor="middle" x="551" y="-182" font-family="Helvetica,sans-Serif" font-size="10.00">Tower</text>
</a>
</g>
</g>
<!-- Node2&#45;&gt;Node3 -->
<g id="edge2" class="edge"><title>Node2&#45;&gt;Node3</title>
<path fill="none" stroke="midnightblue" d="M352.871,-139.011C376.398,-147.33 406.637,-157.479 434,-165 443.785,-167.689 454.099,-170.27 464.376,-172.683"/>
<polygon fill="midnightblue" stroke="midnightblue" points="463.67,-176.112 474.2,-174.943 465.24,-169.29 463.67,-176.112"/>
</g>
<!-- Node7 -->
<g id="node7" class="node"><title>Node7</title>
<g id="a_node7"><a xlink:href="../../d5/db4/classutilities_1_1_g_s_o_n_1_1_g_s_o_n_file_reader.html#a49e27e4c4dc02a80911ce5f1dab1f152" target="_top" xlink:title="utilities.GSON.GSONFileReader.read\lWrappers">
<polygon fill="white" stroke="black" points="457.5,-126 457.5,-156 644.5,-156 644.5,-126 457.5,-126"/>
<text text-anchor="start" x="465.5" y="-144" font-family="Helvetica,sans-Serif" font-size="10.00">utilities.GSON.GSONFileReader.read</text>
<text text-anchor="middle" x="551" y="-133" font-family="Helvetica,sans-Serif" font-size="10.00">Wrappers</text>
</a>
</g>
</g>
<!-- Node2&#45;&gt;Node7 -->
<g id="edge6" class="edge"><title>Node2&#45;&gt;Node7</title>
<path fill="none" stroke="midnightblue" d="M394.239,-129.874C411.199,-131.086 429.264,-132.376 446.858,-133.633"/>
<polygon fill="midnightblue" stroke="midnightblue" points="446.926,-137.146 457.15,-134.368 447.425,-130.164 446.926,-137.146"/>
</g>
<!-- Node8 -->
<g id="node8" class="node"><title>Node8</title>
<g id="a_node8"><a xlink:href="../../da/dae/classutilities_1_1networking_1_1_h_t_t_p_connection.html#a83fe2ca04deb090dbffa9b9ab2e44a3e" target="_top" xlink:title="utilities.networking.HTTPConnection.sendGet">
<polygon fill="white" stroke="black" points="436,-87.5 436,-106.5 666,-106.5 666,-87.5 436,-87.5"/>
<text text-anchor="middle" x="551" y="-94.5" font-family="Helvetica,sans-Serif" font-size="10.00">utilities.networking.HTTPConnection.sendGet</text>
</a>
</g>
</g>
<!-- Node2&#45;&gt;Node8 -->
<g id="edge7" class="edge"><title>Node2&#45;&gt;Node8</title>
<path fill="none" stroke="midnightblue" d="M394.239,-114.67C414.215,-112.404 435.723,-109.964 456.19,-107.642"/>
<polygon fill="midnightblue" stroke="midnightblue" points="456.6,-111.118 466.142,-106.513 455.811,-104.163 456.6,-111.118"/>
</g>
<!-- Node4 -->
<g id="node4" class="node"><title>Node4</title>
<g id="a_node4"><a xlink:href="../../df/da2/classutilities_1_1_g_s_o_n_1_1object_wrappers_1_1_data_wrapper.html#a17f40cda61275ecf97d25f881604c4dd" target="_top" xlink:title="utilities.GSON.objectWrappers.\lDataWrapper.getName">
<polygon fill="white" stroke="black" points="721,-224 721,-254 883,-254 883,-224 721,-224"/>
<text text-anchor="start" x="729" y="-242" font-family="Helvetica,sans-Serif" font-size="10.00">utilities.GSON.objectWrappers.</text>
<text text-anchor="middle" x="802" y="-231" font-family="Helvetica,sans-Serif" font-size="10.00">DataWrapper.getName</text>
</a>
</g>
</g>
<!-- Node3&#45;&gt;Node4 -->
<g id="edge3" class="edge"><title>Node3&#45;&gt;Node4</title>
<path fill="none" stroke="midnightblue" d="M628.4,-205.035C655.767,-210.42 686.797,-216.526 714.926,-222.062"/>
<polygon fill="midnightblue" stroke="midnightblue" points="714.256,-225.497 724.744,-223.994 715.608,-218.629 714.256,-225.497"/>
</g>
<!-- Node5 -->
<g id="node5" class="node"><title>Node5</title>
<g id="a_node5"><a xlink:href="../../df/da2/classutilities_1_1_g_s_o_n_1_1object_wrappers_1_1_data_wrapper.html#a3f1322770e9dce3c439bb7e1347c3e2f" target="_top" xlink:title="utilities.GSON.objectWrappers.\lDataWrapper.getX">
<polygon fill="white" stroke="black" points="721,-175 721,-205 883,-205 883,-175 721,-175"/>
<text text-anchor="start" x="729" y="-193" font-family="Helvetica,sans-Serif" font-size="10.00">utilities.GSON.objectWrappers.</text>
<text text-anchor="middle" x="802" y="-182" font-family="Helvetica,sans-Serif" font-size="10.00">DataWrapper.getX</text>
</a>
</g>
</g>
<!-- Node3&#45;&gt;Node5 -->
<g id="edge4" class="edge"><title>Node3&#45;&gt;Node5</title>
<path fill="none" stroke="midnightblue" d="M635.26,-190C659.49,-190 686.07,-190 710.712,-190"/>
<polygon fill="midnightblue" stroke="midnightblue" points="710.775,-193.5 720.775,-190 710.775,-186.5 710.775,-193.5"/>
</g>
<!-- Node6 -->
<g id="node6" class="node"><title>Node6</title>
<g id="a_node6"><a xlink:href="../../df/da2/classutilities_1_1_g_s_o_n_1_1object_wrappers_1_1_data_wrapper.html#aea9e22ae53699f7f4a554eeb7e3fc05e" target="_top" xlink:title="utilities.GSON.objectWrappers.\lDataWrapper.getY">
<polygon fill="white" stroke="black" points="721,-126 721,-156 883,-156 883,-126 721,-126"/>
<text text-anchor="start" x="729" y="-144" font-family="Helvetica,sans-Serif" font-size="10.00">utilities.GSON.objectWrappers.</text>
<text text-anchor="middle" x="802" y="-133" font-family="Helvetica,sans-Serif" font-size="10.00">DataWrapper.getY</text>
</a>
</g>
</g>
<!-- Node3&#45;&gt;Node6 -->
<g id="edge5" class="edge"><title>Node3&#45;&gt;Node6</title>
<path fill="none" stroke="midnightblue" d="M628.4,-174.965C655.767,-169.58 686.797,-163.474 714.926,-157.938"/>
<polygon fill="midnightblue" stroke="midnightblue" points="715.608,-161.371 724.744,-156.006 714.256,-154.503 715.608,-161.371"/>
</g>
<!-- Node10 -->
<g id="node10" class="node"><title>Node10</title>
<g id="a_node10"><a xlink:href="../../da/dae/classutilities_1_1networking_1_1_h_t_t_p_connection.html#a0206f93b4a11b7a226efb2c9cdf8f251" target="_top" xlink:title="utilities.networking.HTTPConnection.sendPost">
<polygon fill="white" stroke="black" points="434.5,-49.5 434.5,-68.5 667.5,-68.5 667.5,-49.5 434.5,-49.5"/>
<text text-anchor="middle" x="551" y="-56.5" font-family="Helvetica,sans-Serif" font-size="10.00">utilities.networking.HTTPConnection.sendPost</text>
</a>
</g>
</g>
<!-- Node9&#45;&gt;Node10 -->
<g id="edge9" class="edge"><title>Node9&#45;&gt;Node10</title>
<path fill="none" stroke="midnightblue" d="M397.587,-59C406.205,-59 415.077,-59 424.001,-59"/>
<polygon fill="midnightblue" stroke="midnightblue" points="424.089,-62.5001 434.089,-59 424.089,-55.5001 424.089,-62.5001"/>
</g>
<!-- Node11 -->
<g id="node11" class="node"><title>Node11</title>
<g id="a_node11"><a xlink:href="../../d4/d66/classgame_engine_1_1_co_op_manager.html#af3f1305ae766bda3afc2e2579c40d33b" target="_top" xlink:title="gameEngine.CoOpManager.convert\lTowersToString">
<polygon fill="white" stroke="black" points="458,-0 458,-30 644,-30 644,-0 458,-0"/>
<text text-anchor="start" x="466" y="-18" font-family="Helvetica,sans-Serif" font-size="10.00">gameEngine.CoOpManager.convert</text>
<text text-anchor="middle" x="551" y="-7" font-family="Helvetica,sans-Serif" font-size="10.00">TowersToString</text>
</a>
</g>
</g>
<!-- Node9&#45;&gt;Node11 -->
<g id="edge10" class="edge"><title>Node9&#45;&gt;Node11</title>
<path fill="none" stroke="midnightblue" d="M393.24,-43.9808C414.282,-40.0908 437.08,-35.8759 458.604,-31.8968"/>
<polygon fill="midnightblue" stroke="midnightblue" points="459.525,-35.2859 468.722,-30.0262 458.252,-28.4025 459.525,-35.2859"/>
</g>
<!-- Node12 -->
<g id="node12" class="node"><title>Node12</title>
<g id="a_node12"><a xlink:href="../../d3/d3e/classutilities_1_1_g_s_o_n_1_1_g_s_o_n_file_writer.html#a7df255ca05096ebb80dc015fc6813f29" target="_top" xlink:title="utilities.GSON.GSONFileWriter.convert\lWrappersToJson">
<polygon fill="white" stroke="black" points="704.5,-0 704.5,-30 899.5,-30 899.5,-0 704.5,-0"/>
<text text-anchor="start" x="712.5" y="-18" font-family="Helvetica,sans-Serif" font-size="10.00">utilities.GSON.GSONFileWriter.convert</text>
<text text-anchor="middle" x="802" y="-7" font-family="Helvetica,sans-Serif" font-size="10.00">WrappersToJson</text>
</a>
</g>
</g>
<!-- Node11&#45;&gt;Node12 -->
<g id="edge11" class="edge"><title>Node11&#45;&gt;Node12</title>
<path fill="none" stroke="midnightblue" d="M644.011,-15C660.302,-15 677.391,-15 694.052,-15"/>
<polygon fill="midnightblue" stroke="midnightblue" points="694.36,-18.5001 704.36,-15 694.36,-11.5001 694.36,-18.5001"/>
</g>
</g>
</svg>
        <g id="navigator" transform="translate(0 0)" fill="#404254">
                <rect fill="#f2f5e9" fill-opacity="0.5" stroke="#606060" stroke-width=".5" x="0" y="0" width="60" height="60"/>
                <use id="zoomplus" xlink:href="#zoomPlus" x="17" y="9" onmousedown="handleZoom(evt,'in')"/>
                <use id="zoomminus" xlink:href="#zoomMin" x="42" y="9" onmousedown="handleZoom(evt,'out')"/>
                <use id="reset" xlink:href="#resetDef" x="30" y="36" onmousedown="handleReset()"/>
                <g id="arrowUp" xlink:href="#dirArrow" transform="translate(30 24)" onmousedown="handlePan(0,-1)">
                  <use xlink:href="#rim" fill="#404040">
                        <set attributeName="fill" to="#808080" begin="arrowUp.mouseover" end="arrowUp.mouseout"/>
                  </use>
                  <path fill="none" stroke="white" stroke-width="1.5" d="M0,-3.0v7 M-2.5,-0.5L0,-3.0L2.5,-0.5"/>
                </g>
                <g id="arrowRight" xlink:href="#dirArrow" transform="rotate(90) translate(36 -43)" onmousedown="handlePan(1,0)">
                  <use xlink:href="#rim" fill="#404040">
                        <set attributeName="fill" to="#808080" begin="arrowRight.mouseover" end="arrowRight.mouseout"/>
                  </use>
                  <path fill="none" stroke="white" stroke-width="1.5" d="M0,-3.0v7 M-2.5,-0.5L0,-3.0L2.5,-0.5"/>
                </g>
                <g id="arrowDown" xlink:href="#dirArrow" transform="rotate(180) translate(-30 -48)" onmousedown="handlePan(0,1)">
                  <use xlink:href="#rim" fill="#404040">
                        <set attributeName="fill" to="#808080" begin="arrowDown.mouseover" end="arrowDown.mouseout"/>
                  </use>
                  <path fill="none" stroke="white" stroke-width="1.5" d="M0,-3.0v7 M-2.5,-0.5L0,-3.0L2.5,-0.5"/>
                </g>
                <g id="arrowLeft" xlink:href="#dirArrow" transform="rotate(270) translate(-36 17)" onmousedown="handlePan(-1,0)">
                  <use xlink:href="#rim" fill="#404040">
                        <set attributeName="fill" to="#808080" begin="arrowLeft.mouseover" end="arrowLeft.mouseout"/>
                  </use>
                  <path fill="none" stroke="white" stroke-width="1.5" d="M0,-3.0v7 M-2.5,-0.5L0,-3.0L2.5,-0.5"/>
                </g>
        </g>
        <svg viewBox="0 0 15 15" width="100%" height="30px" preserveAspectRatio="xMaxYMin meet">
         <g id="arrow_out" transform="scale(0.3 0.3)">
          <a xlink:href="classgame_engine_1_1_co_op_manager_ac47b70262d8632fbc594ac5419377725_cgraph_org.svg" target="_base">
           <rect id="button" ry="5" rx="5" y="6" x="6" height="38" width="38"
                fill="#f2f5e9" fill-opacity="0.5" stroke="#606060" stroke-width="1.0"/>
           <path id="arrow"
             d="M 11.500037,31.436501 C 11.940474,20.09759 22.043105,11.32322 32.158766,21.979434 L 37.068811,17.246167 C 37.068811,17.246167 37.088388,32 37.088388,32 L 22.160133,31.978069 C 22.160133,31.978069 26.997745,27.140456 26.997745,27.140456 C 18.528582,18.264221 13.291696,25.230495 11.500037,31.436501 z"
             style="fill:#404040;"/>
          </a>
         </g>
        </svg>
</svg>
