<?xml version="1.0" encoding="UTF-8" standalone="no"?>
<!DOCTYPE svg PUBLIC "-//W3C//DTD SVG 1.1//EN"
 "http://www.w3.org/Graphics/SVG/1.1/DTD/svg11.dtd">
<!-- Generated by graphviz version 2.36.0 (20140111.2315)
 -->
<!-- Title: gameEngine.CoOpManager.addTower Pages: 1 -->
<svg width="2046pt" height="285pt"
 viewBox="0.00 0.00 2046.00 285.00" xmlns="http://www.w3.org/2000/svg" xmlns:xlink="http://www.w3.org/1999/xlink">
<g id="graph0" class="graph" transform="scale(1 1) rotate(0) translate(4 281)">
<title>gameEngine.CoOpManager.addTower</title>
<polygon fill="white" stroke="none" points="-4,4 -4,-281 2042,-281 2042,4 -4,4"/>
<!-- Node1 -->
<g id="node1" class="node"><title>Node1</title>
<polygon fill="#bfbfbf" stroke="black" points="0,-73 0,-103 168,-103 168,-73 0,-73"/>
<text text-anchor="start" x="8" y="-91" font-family="Helvetica,sans-Serif" font-size="10.00">gameEngine.CoOpManager.add</text>
<text text-anchor="middle" x="84" y="-80" font-family="Helvetica,sans-Serif" font-size="10.00">Tower</text>
</g>
<!-- Node2 -->
<g id="node2" class="node"><title>Node2</title>
<g id="a_node2"><a xlink:href="../../d4/d66/classgame_engine_1_1_co_op_manager.html#a15a51949e52c7652ea6f6e420868bd6d" target="_top" xlink:title="gameEngine.CoOpManager.get\lTowersFromServer">
<polygon fill="white" stroke="black" points="204,-73 204,-103 370,-103 370,-73 204,-73"/>
<text text-anchor="start" x="212" y="-91" font-family="Helvetica,sans-Serif" font-size="10.00">gameEngine.CoOpManager.get</text>
<text text-anchor="middle" x="287" y="-80" font-family="Helvetica,sans-Serif" font-size="10.00">TowersFromServer</text>
</a>
</g>
</g>
<!-- Node1&#45;&gt;Node2 -->
<g id="edge1" class="edge"><title>Node1&#45;&gt;Node2</title>
<path fill="none" stroke="midnightblue" d="M178.479,-88C186.943,-88 195.473,-88 203.828,-88"/>
<polygon fill="midnightblue" stroke="midnightblue" points="178.205,-84.5001 168.205,-88 178.205,-91.5001 178.205,-84.5001"/>
</g>
<!-- Node3 -->
<g id="node3" class="node"><title>Node3</title>
<g id="a_node3"><a xlink:href="../../d4/d66/classgame_engine_1_1_co_op_manager.html#ad4b88a1ebf8918a80ea2a3ba697442e3" target="_top" xlink:title="gameEngine.CoOpManager.allow\lInteraction">
<polygon fill="white" stroke="black" points="630.5,-120 630.5,-150 803.5,-150 803.5,-120 630.5,-120"/>
<text text-anchor="start" x="638.5" y="-138" font-family="Helvetica,sans-Serif" font-size="10.00">gameEngine.CoOpManager.allow</text>
<text text-anchor="middle" x="717" y="-127" font-family="Helvetica,sans-Serif" font-size="10.00">Interaction</text>
</a>
</g>
</g>
<!-- Node2&#45;&gt;Node3 -->
<g id="edge2" class="edge"><title>Node2&#45;&gt;Node3</title>
<path fill="none" stroke="midnightblue" d="M324.869,-107.733C347.56,-118.742 377.638,-131.345 406,-137 480.686,-151.89 567.519,-149.709 630.253,-144.779"/>
<polygon fill="midnightblue" stroke="midnightblue" points="326.136,-104.454 315.623,-103.138 323.02,-110.723 326.136,-104.454"/>
</g>
<!-- Node18 -->
<g id="node18" class="node"><title>Node18</title>
<g id="a_node18"><a xlink:href="../../d4/d66/classgame_engine_1_1_co_op_manager.html#af2b56fd3bc5e8ae23648b6ffc0c18dff" target="_top" xlink:title="gameEngine.CoOpManager.start\lLevel">
<polygon fill="white" stroke="black" points="413.5,-98 413.5,-128 586.5,-128 586.5,-98 413.5,-98"/>
<text text-anchor="start" x="421.5" y="-116" font-family="Helvetica,sans-Serif" font-size="10.00">gameEngine.CoOpManager.start</text>
<text text-anchor="middle" x="500" y="-105" font-family="Helvetica,sans-Serif" font-size="10.00">Level</text>
</a>
</g>
</g>
<!-- Node2&#45;&gt;Node18 -->
<g id="edge17" class="edge"><title>Node2&#45;&gt;Node18</title>
<path fill="none" stroke="midnightblue" d="M380.191,-98.9231C391.164,-100.223 402.333,-101.547 413.211,-102.835"/>
<polygon fill="midnightblue" stroke="midnightblue" points="380.525,-95.4382 370.182,-97.7372 379.701,-102.39 380.525,-95.4382"/>
</g>
<!-- Node19 -->
<g id="node19" class="node"><title>Node19</title>
<g id="a_node19"><a xlink:href="../../d4/d66/classgame_engine_1_1_co_op_manager.html#ac47b70262d8632fbc594ac5419377725" target="_top" xlink:title="gameEngine.CoOpManager.remove\lTower">
<polygon fill="white" stroke="black" points="406.5,-49 406.5,-79 593.5,-79 593.5,-49 406.5,-49"/>
<text text-anchor="start" x="414.5" y="-67" font-family="Helvetica,sans-Serif" font-size="10.00">gameEngine.CoOpManager.remove</text>
<text text-anchor="middle" x="500" y="-56" font-family="Helvetica,sans-Serif" font-size="10.00">Tower</text>
</a>
</g>
</g>
<!-- Node2&#45;&gt;Node19 -->
<g id="edge19" class="edge"><title>Node2&#45;&gt;Node19</title>
<path fill="none" stroke="midnightblue" d="M380.224,-77.5101C388.837,-76.5304 397.57,-75.5371 406.188,-74.5568"/>
<polygon fill="midnightblue" stroke="midnightblue" points="379.723,-74.0444 370.182,-78.6523 380.514,-80.9996 379.723,-74.0444"/>
</g>
<!-- Node20 -->
<g id="node20" class="node"><title>Node20</title>
<g id="a_node20"><a xlink:href="../../d4/d66/classgame_engine_1_1_co_op_manager.html#af79a82231e7ef2225ef6fabeb0269d12" target="_top" xlink:title="gameEngine.CoOpManager.add\lTower">
<polygon fill="white" stroke="black" points="416,-0 416,-30 584,-30 584,-0 416,-0"/>
<text text-anchor="start" x="424" y="-18" font-family="Helvetica,sans-Serif" font-size="10.00">gameEngine.CoOpManager.add</text>
<text text-anchor="middle" x="500" y="-7" font-family="Helvetica,sans-Serif" font-size="10.00">Tower</text>
</a>
</g>
</g>
<!-- Node2&#45;&gt;Node20 -->
<g id="edge20" class="edge"><title>Node2&#45;&gt;Node20</title>
<path fill="none" stroke="midnightblue" d="M331.35,-68.864C353.448,-59.4953 380.893,-48.4452 406,-40 416.459,-36.4821 427.706,-33.1164 438.64,-30.0583"/>
<polygon fill="midnightblue" stroke="midnightblue" points="329.734,-65.7485 321.916,-72.8989 332.487,-72.1846 329.734,-65.7485"/>
</g>
<!-- Node4 -->
<g id="node4" class="node"><title>Node4</title>
<g id="a_node4"><a xlink:href="../../d4/d66/classgame_engine_1_1_co_op_manager.html#af6188fa0b89fef3dea97e3ce873b883e" target="_top" xlink:title="gameEngine.CoOpManager.initializeGame">
<polygon fill="white" stroke="black" points="840,-147.5 840,-166.5 1058,-166.5 1058,-147.5 840,-147.5"/>
<text text-anchor="middle" x="949" y="-154.5" font-family="Helvetica,sans-Serif" font-size="10.00">gameEngine.CoOpManager.initializeGame</text>
</a>
</g>
</g>
<!-- Node3&#45;&gt;Node4 -->
<g id="edge3" class="edge"><title>Node3&#45;&gt;Node4</title>
<path fill="none" stroke="midnightblue" d="M813.631,-144.147C825.088,-145.243 836.809,-146.364 848.321,-147.465"/>
<polygon fill="midnightblue" stroke="midnightblue" points="813.931,-140.66 803.644,-143.192 813.265,-147.628 813.931,-140.66"/>
</g>
<!-- Node17 -->
<g id="node17" class="node"><title>Node17</title>
<g id="a_node17"><a xlink:href="../../d4/d66/classgame_engine_1_1_co_op_manager.html#a1e977212e886dab17670950489c15801" target="_top" xlink:title="gameEngine.CoOpManager.on\lLevelEnd">
<polygon fill="white" stroke="black" points="868,-98 868,-128 1030,-128 1030,-98 868,-98"/>
<text text-anchor="start" x="876" y="-116" font-family="Helvetica,sans-Serif" font-size="10.00">gameEngine.CoOpManager.on</text>
<text text-anchor="middle" x="949" y="-105" font-family="Helvetica,sans-Serif" font-size="10.00">LevelEnd</text>
</a>
</g>
</g>
<!-- Node3&#45;&gt;Node17 -->
<g id="edge16" class="edge"><title>Node3&#45;&gt;Node17</title>
<path fill="none" stroke="midnightblue" d="M813.613,-125.854C831.702,-124.124 850.45,-122.331 867.996,-120.653"/>
<polygon fill="midnightblue" stroke="midnightblue" points="813.265,-122.372 803.644,-126.808 813.931,-129.34 813.265,-122.372"/>
</g>
<!-- Node5 -->
<g id="node5" class="node"><title>Node5</title>
<g id="a_node5"><a xlink:href="../../da/d69/classgame_player_1_1main_classes_1_1managers_1_1_gui_manager.html#aa0b614e03bdec959e13e3d5ca2e1f614" target="_top" xlink:title="gamePlayer.mainClasses.managers.\lGuiManager.startMultiPlayerGame">
<polygon fill="white" stroke="black" points="1094.5,-142 1094.5,-172 1285.5,-172 1285.5,-142 1094.5,-142"/>
<text text-anchor="start" x="1102.5" y="-160" font-family="Helvetica,sans-Serif" font-size="10.00">gamePlayer.mainClasses.managers.</text>
<text text-anchor="middle" x="1190" y="-149" font-family="Helvetica,sans-Serif" font-size="10.00">GuiManager.startMultiPlayerGame</text>
</a>
</g>
</g>
<!-- Node4&#45;&gt;Node5 -->
<g id="edge4" class="edge"><title>Node4&#45;&gt;Node5</title>
<path fill="none" stroke="midnightblue" d="M1068.44,-157C1077.09,-157 1085.74,-157 1094.22,-157"/>
<polygon fill="midnightblue" stroke="midnightblue" points="1068.31,-153.5 1058.31,-157 1068.31,-160.5 1068.31,-153.5"/>
</g>
<!-- Node6 -->
<g id="node6" class="node"><title>Node6</title>
<g id="a_node6"><a xlink:href="../../da/d69/classgame_player_1_1main_classes_1_1managers_1_1_gui_manager.html#ad50f462f8d45a5bbfc8a17290372a1ab" target="_top" xlink:title="gamePlayer.mainClasses.managers.\lGuiManager.joinMultiPlayerGame">
<polygon fill="white" stroke="black" points="1336.5,-218 1336.5,-248 1527.5,-248 1527.5,-218 1336.5,-218"/>
<text text-anchor="start" x="1344.5" y="-236" font-family="Helvetica,sans-Serif" font-size="10.00">gamePlayer.mainClasses.managers.</text>
<text text-anchor="middle" x="1432" y="-225" font-family="Helvetica,sans-Serif" font-size="10.00">GuiManager.joinMultiPlayerGame</text>
</a>
</g>
</g>
<!-- Node5&#45;&gt;Node6 -->
<g id="edge5" class="edge"><title>Node5&#45;&gt;Node6</title>
<path fill="none" stroke="midnightblue" d="M1234.82,-175.907C1260,-186.306 1292.42,-198.903 1322,-208 1333.78,-211.624 1346.43,-214.988 1358.78,-217.999"/>
<polygon fill="midnightblue" stroke="midnightblue" points="1236.12,-172.657 1225.54,-172.042 1233.43,-179.119 1236.12,-172.657"/>
</g>
<!-- Node10 -->
<g id="node10" class="node"><title>Node10</title>
<g id="a_node10"><a xlink:href="../../da/d69/classgame_player_1_1main_classes_1_1managers_1_1_gui_manager.html#a3f657f0e3ba1e493d2dd02b5df5e03f6" target="_top" xlink:title="gamePlayer.mainClasses.managers.\lGuiManager.replayGame">
<polygon fill="white" stroke="black" points="1336.5,-169 1336.5,-199 1527.5,-199 1527.5,-169 1336.5,-169"/>
<text text-anchor="start" x="1344.5" y="-187" font-family="Helvetica,sans-Serif" font-size="10.00">gamePlayer.mainClasses.managers.</text>
<text text-anchor="middle" x="1432" y="-176" font-family="Helvetica,sans-Serif" font-size="10.00">GuiManager.replayGame</text>
</a>
</g>
</g>
<!-- Node5&#45;&gt;Node10 -->
<g id="edge9" class="edge"><title>Node5&#45;&gt;Node10</title>
<path fill="none" stroke="midnightblue" d="M1295.74,-168.783C1309.19,-170.296 1322.9,-171.839 1336.18,-173.333"/>
<polygon fill="midnightblue" stroke="midnightblue" points="1295.84,-165.272 1285.51,-167.632 1295.06,-172.228 1295.84,-165.272"/>
</g>
<!-- Node11 -->
<g id="node11" class="node"><title>Node11</title>
<g id="a_node11"><a xlink:href="../../d4/d3f/classgame_player_1_1main_classes_1_1managers_1_1_welcome_manager.html#a55598dd2973b0a9b979151dd60c9e436" target="_top" xlink:title="gamePlayer.mainClasses.managers.\lWelcomeManager.pollEngineForMultiPlayer\lReadiness">
<polygon fill="white" stroke="black" points="1322.5,-109.5 1322.5,-150.5 1541.5,-150.5 1541.5,-109.5 1322.5,-109.5"/>
<text text-anchor="start" x="1330.5" y="-138.5" font-family="Helvetica,sans-Serif" font-size="10.00">gamePlayer.mainClasses.managers.</text>
<text text-anchor="start" x="1330.5" y="-127.5" font-family="Helvetica,sans-Serif" font-size="10.00">WelcomeManager.pollEngineForMultiPlayer</text>
<text text-anchor="middle" x="1432" y="-116.5" font-family="Helvetica,sans-Serif" font-size="10.00">Readiness</text>
</a>
</g>
</g>
<!-- Node5&#45;&gt;Node11 -->
<g id="edge10" class="edge"><title>Node5&#45;&gt;Node11</title>
<path fill="none" stroke="midnightblue" d="M1295.48,-145.246C1304.36,-144.247 1313.36,-143.234 1322.28,-142.231"/>
<polygon fill="midnightblue" stroke="midnightblue" points="1295.06,-141.772 1285.51,-146.368 1295.84,-148.728 1295.06,-141.772"/>
</g>
<!-- Node14 -->
<g id="node14" class="node"><title>Node14</title>
<g id="a_node14"><a xlink:href="../../d3/dee/classgame_player_1_1main_classes_1_1welcome_screen_1_1_game_start_manager.html#a5d5001d1ee14ae57deef01f6e3ddde31" target="_top" xlink:title="gamePlayer.mainClasses.welcome\lScreen.GameStartManager.pollEngine\lForMultiPlayerReadiness">
<polygon fill="white" stroke="black" points="1332,-49.5 1332,-90.5 1532,-90.5 1532,-49.5 1332,-49.5"/>
<text text-anchor="start" x="1340" y="-78.5" font-family="Helvetica,sans-Serif" font-size="10.00">gamePlayer.mainClasses.welcome</text>
<text text-anchor="start" x="1340" y="-67.5" font-family="Helvetica,sans-Serif" font-size="10.00">Screen.GameStartManager.pollEngine</text>
<text text-anchor="middle" x="1432" y="-56.5" font-family="Helvetica,sans-Serif" font-size="10.00">ForMultiPlayerReadiness</text>
</a>
</g>
</g>
<!-- Node5&#45;&gt;Node14 -->
<g id="edge13" class="edge"><title>Node5&#45;&gt;Node14</title>
<path fill="none" stroke="midnightblue" d="M1231.63,-137.542C1257.2,-125.744 1291.1,-110.913 1322,-100 1331.35,-96.6993 1341.25,-93.5334 1351.12,-90.5776"/>
<polygon fill="midnightblue" stroke="midnightblue" points="1229.85,-134.509 1222.26,-141.901 1232.81,-140.856 1229.85,-134.509"/>
</g>
<!-- Node7 -->
<g id="node7" class="node"><title>Node7</title>
<g id="a_node7"><a xlink:href="../../d4/d3f/classgame_player_1_1main_classes_1_1managers_1_1_welcome_manager.html#a71a2a80cfe9d3a07d7becc506178acfd" target="_top" xlink:title="gamePlayer.mainClasses.managers.\lWelcomeManager.joinMultiPlayerGame">
<polygon fill="white" stroke="black" points="1581.5,-247 1581.5,-277 1782.5,-277 1782.5,-247 1581.5,-247"/>
<text text-anchor="start" x="1589.5" y="-265" font-family="Helvetica,sans-Serif" font-size="10.00">gamePlayer.mainClasses.managers.</text>
<text text-anchor="middle" x="1682" y="-254" font-family="Helvetica,sans-Serif" font-size="10.00">WelcomeManager.joinMultiPlayerGame</text>
</a>
</g>
</g>
<!-- Node6&#45;&gt;Node7 -->
<g id="edge6" class="edge"><title>Node6&#45;&gt;Node7</title>
<path fill="none" stroke="midnightblue" d="M1538.16,-245.297C1552.45,-246.969 1567.09,-248.68 1581.29,-250.34"/>
<polygon fill="midnightblue" stroke="midnightblue" points="1538.16,-241.773 1527.82,-244.088 1537.35,-248.726 1538.16,-241.773"/>
</g>
<!-- Node9 -->
<g id="node9" class="node"><title>Node9</title>
<g id="a_node9"><a xlink:href="../../d3/dee/classgame_player_1_1main_classes_1_1welcome_screen_1_1_game_start_manager.html#a7465850240e12e23aec544dbfd08f6a0" target="_top" xlink:title="gamePlayer.mainClasses.welcome\lScreen.GameStartManager.joinMulti\lPlayerGame">
<polygon fill="white" stroke="black" points="1587,-187.5 1587,-228.5 1777,-228.5 1777,-187.5 1587,-187.5"/>
<text text-anchor="start" x="1595" y="-216.5" font-family="Helvetica,sans-Serif" font-size="10.00">gamePlayer.mainClasses.welcome</text>
<text text-anchor="start" x="1595" y="-205.5" font-family="Helvetica,sans-Serif" font-size="10.00">Screen.GameStartManager.joinMulti</text>
<text text-anchor="middle" x="1682" y="-194.5" font-family="Helvetica,sans-Serif" font-size="10.00">PlayerGame</text>
</a>
</g>
</g>
<!-- Node6&#45;&gt;Node9 -->
<g id="edge8" class="edge"><title>Node6&#45;&gt;Node9</title>
<path fill="none" stroke="midnightblue" d="M1537.84,-222.432C1554.04,-220.798 1570.69,-219.12 1586.64,-217.512"/>
<polygon fill="midnightblue" stroke="midnightblue" points="1537.42,-218.956 1527.82,-223.442 1538.12,-225.921 1537.42,-218.956"/>
</g>
<!-- Node8 -->
<g id="node8" class="node"><title>Node8</title>
<g id="a_node8"><a xlink:href="../../d4/d3f/classgame_player_1_1main_classes_1_1managers_1_1_welcome_manager.html#aa605746e09c481b225463d37a82427e3" target="_top" xlink:title="gamePlayer.mainClasses.managers.\lWelcomeManager.startMultiPlayerOptions">
<polygon fill="white" stroke="black" points="1822.5,-247 1822.5,-277 2037.5,-277 2037.5,-247 1822.5,-247"/>
<text text-anchor="start" x="1830.5" y="-265" font-family="Helvetica,sans-Serif" font-size="10.00">gamePlayer.mainClasses.managers.</text>
<text text-anchor="middle" x="1930" y="-254" font-family="Helvetica,sans-Serif" font-size="10.00">WelcomeManager.startMultiPlayerOptions</text>
</a>
</g>
</g>
<!-- Node7&#45;&gt;Node8 -->
<g id="edge7" class="edge"><title>Node7&#45;&gt;Node8</title>
<path fill="none" stroke="midnightblue" d="M1792.86,-262C1802.66,-262 1812.56,-262 1822.33,-262"/>
<polygon fill="midnightblue" stroke="midnightblue" points="1792.7,-258.5 1782.7,-262 1792.7,-265.5 1792.7,-258.5"/>
</g>
<!-- Node12 -->
<g id="node12" class="node"><title>Node12</title>
<g id="a_node12"><a xlink:href="../../d4/d3f/classgame_player_1_1main_classes_1_1managers_1_1_welcome_manager.html#a0669db103a94675dce875042258da508" target="_top" xlink:title="gamePlayer.mainClasses.managers.\lWelcomeManager.startMultiPlayerGame">
<polygon fill="white" stroke="black" points="1578.5,-115 1578.5,-145 1785.5,-145 1785.5,-115 1578.5,-115"/>
<text text-anchor="start" x="1586.5" y="-133" font-family="Helvetica,sans-Serif" font-size="10.00">gamePlayer.mainClasses.managers.</text>
<text text-anchor="middle" x="1682" y="-122" font-family="Helvetica,sans-Serif" font-size="10.00">WelcomeManager.startMultiPlayerGame</text>
</a>
</g>
</g>
<!-- Node11&#45;&gt;Node12 -->
<g id="edge11" class="edge"><title>Node11&#45;&gt;Node12</title>
<path fill="none" stroke="midnightblue" d="M1552.02,-130C1560.78,-130 1569.56,-130 1578.21,-130"/>
<polygon fill="midnightblue" stroke="midnightblue" points="1551.78,-126.5 1541.78,-130 1551.78,-133.5 1551.78,-126.5"/>
</g>
<!-- Node13 -->
<g id="node13" class="node"><title>Node13</title>
<g id="a_node13"><a xlink:href="../../d4/d3f/classgame_player_1_1main_classes_1_1managers_1_1_welcome_manager.html#ae6495396aef63551116c0835c40574e1" target="_top" xlink:title="gamePlayer.mainClasses.managers.\lWelcomeManager.startGame">
<polygon fill="white" stroke="black" points="1834.5,-115 1834.5,-145 2025.5,-145 2025.5,-115 1834.5,-115"/>
<text text-anchor="start" x="1842.5" y="-133" font-family="Helvetica,sans-Serif" font-size="10.00">gamePlayer.mainClasses.managers.</text>
<text text-anchor="middle" x="1930" y="-122" font-family="Helvetica,sans-Serif" font-size="10.00">WelcomeManager.startGame</text>
</a>
</g>
</g>
<!-- Node12&#45;&gt;Node13 -->
<g id="edge12" class="edge"><title>Node12&#45;&gt;Node13</title>
<path fill="none" stroke="midnightblue" d="M1795.86,-130C1808.78,-130 1821.84,-130 1834.49,-130"/>
<polygon fill="midnightblue" stroke="midnightblue" points="1795.54,-126.5 1785.54,-130 1795.54,-133.5 1795.54,-126.5"/>
</g>
<!-- Node15 -->
<g id="node15" class="node"><title>Node15</title>
<g id="a_node15"><a xlink:href="../../d3/dee/classgame_player_1_1main_classes_1_1welcome_screen_1_1_game_start_manager.html#a994c29260d6cb90abf19dca2b3463b6a" target="_top" xlink:title="gamePlayer.mainClasses.welcome\lScreen.GameStartManager.startMulti\lPlayerGame">
<polygon fill="white" stroke="black" points="1584,-49.5 1584,-90.5 1780,-90.5 1780,-49.5 1584,-49.5"/>
<text text-anchor="start" x="1592" y="-78.5" font-family="Helvetica,sans-Serif" font-size="10.00">gamePlayer.mainClasses.welcome</text>
<text text-anchor="start" x="1592" y="-67.5" font-family="Helvetica,sans-Serif" font-size="10.00">Screen.GameStartManager.startMulti</text>
<text text-anchor="middle" x="1682" y="-56.5" font-family="Helvetica,sans-Serif" font-size="10.00">PlayerGame</text>
</a>
</g>
</g>
<!-- Node14&#45;&gt;Node15 -->
<g id="edge14" class="edge"><title>Node14&#45;&gt;Node15</title>
<path fill="none" stroke="midnightblue" d="M1542.11,-70C1555.95,-70 1570.05,-70 1583.69,-70"/>
<polygon fill="midnightblue" stroke="midnightblue" points="1542.09,-66.5001 1532.09,-70 1542.09,-73.5001 1542.09,-66.5001"/>
</g>
<!-- Node16 -->
<g id="node16" class="node"><title>Node16</title>
<g id="a_node16"><a xlink:href="../../d3/dee/classgame_player_1_1main_classes_1_1welcome_screen_1_1_game_start_manager.html#a4ac849399bf00c6df86f0db25ea95ed8" target="_top" xlink:title="gamePlayer.mainClasses.welcome\lScreen.GameStartManager.startGame">
<polygon fill="white" stroke="black" points="1828.5,-55 1828.5,-85 2031.5,-85 2031.5,-55 1828.5,-55"/>
<text text-anchor="start" x="1836.5" y="-73" font-family="Helvetica,sans-Serif" font-size="10.00">gamePlayer.mainClasses.welcome</text>
<text text-anchor="middle" x="1930" y="-62" font-family="Helvetica,sans-Serif" font-size="10.00">Screen.GameStartManager.startGame</text>
</a>
</g>
</g>
<!-- Node15&#45;&gt;Node16 -->
<g id="edge15" class="edge"><title>Node15&#45;&gt;Node16</title>
<path fill="none" stroke="midnightblue" d="M1790.32,-70C1802.99,-70 1815.88,-70 1828.44,-70"/>
<polygon fill="midnightblue" stroke="midnightblue" points="1790.23,-66.5001 1780.23,-70 1790.23,-73.5001 1790.23,-66.5001"/>
</g>
<!-- Node18&#45;&gt;Node3 -->
<g id="edge18" class="edge"><title>Node18&#45;&gt;Node3</title>
<path fill="none" stroke="midnightblue" d="M596.795,-122.802C607.974,-123.946 619.323,-125.107 630.352,-126.236"/>
<polygon fill="midnightblue" stroke="midnightblue" points="596.896,-119.294 586.591,-121.758 596.183,-126.258 596.896,-119.294"/>
</g>
</g>
</svg>
