<?xml version="1.0" encoding="UTF-8" standalone="no"?>
<!DOCTYPE svg PUBLIC "-//W3C//DTD SVG 1.1//EN"
 "http://www.w3.org/Graphics/SVG/1.1/DTD/svg11.dtd">
<!-- Generated by graphviz version 2.36.0 (20140111.2315)
 -->
<!-- Title: gameAuthoring.scenes.actorBuildingScenes.TowerBuildingScene.finishBuildingActors Pages: 1 -->
<svg width="486pt" height="48pt"
 viewBox="0.00 0.00 486.00 48.00" xmlns="http://www.w3.org/2000/svg" xmlns:xlink="http://www.w3.org/1999/xlink">
<g id="graph0" class="graph" transform="scale(1 1) rotate(0) translate(4 44)">
<title>gameAuthoring.scenes.actorBuildingScenes.TowerBuildingScene.finishBuildingActors</title>
<polygon fill="white" stroke="none" points="-4,4 -4,-44 482,-44 482,4 -4,4"/>
<!-- Node1 -->
<g id="node1" class="node"><title>Node1</title>
<polygon fill="#bfbfbf" stroke="black" points="0,0.5 0,-40.5 214,-40.5 214,0.5 0,0.5"/>
<text text-anchor="start" x="8" y="-28.5" font-family="Helvetica,sans-Serif" font-size="10.00">gameAuthoring.scenes.actor</text>
<text text-anchor="start" x="8" y="-17.5" font-family="Helvetica,sans-Serif" font-size="10.00">BuildingScenes.TowerBuildingScene.finish</text>
<text text-anchor="middle" x="107" y="-6.5" font-family="Helvetica,sans-Serif" font-size="10.00">BuildingActors</text>
</g>
<!-- Node2 -->
<g id="node2" class="node"><title>Node2</title>
<g id="a_node2"><a xlink:href="../../d2/d0a/interfacegame_authoring_1_1mainclasses_1_1controller_interfaces_1_1_i_tower_configuring.html#a954bcd75e1bcca3017a4ed271821f95c" target="_top" xlink:title="gameAuthoring.mainclasses.controller\lInterfaces.ITowerConfiguring.configureTowers">
<polygon fill="white" stroke="black" points="250,-5 250,-35 478,-35 478,-5 250,-5"/>
<text text-anchor="start" x="258" y="-23" font-family="Helvetica,sans-Serif" font-size="10.00">gameAuthoring.mainclasses.controller</text>
<text text-anchor="middle" x="364" y="-12" font-family="Helvetica,sans-Serif" font-size="10.00">Interfaces.ITowerConfiguring.configureTowers</text>
</a>
</g>
</g>
<!-- Node1&#45;&gt;Node2 -->
<g id="edge1" class="edge"><title>Node1&#45;&gt;Node2</title>
<path fill="none" stroke="midnightblue" d="M214.296,-20C222.744,-20 231.319,-20 239.867,-20"/>
<polygon fill="midnightblue" stroke="midnightblue" points="239.882,-23.5001 249.882,-20 239.882,-16.5001 239.882,-23.5001"/>
</g>
</g>
</svg>
