<?xml version="1.0" encoding="UTF-8" standalone="no"?>
<!DOCTYPE svg PUBLIC "-//W3C//DTD SVG 1.1//EN"
 "http://www.w3.org/Graphics/SVG/1.1/DTD/svg11.dtd">
<!-- Generated by graphviz version 2.36.0 (20140111.2315)
 -->
<!-- Title: gameAuthoring.scenes.actorBuildingScenes.TowerBuildingScene.actorSpecificFieldsValid Pages: 1 -->
<!--zoomable 169 -->
<svg id="main" version="1.1" xmlns="http://www.w3.org/2000/svg" xmlns:xlink="http://www.w3.org/1999/xlink" xml:space="preserve" onload="init(evt)">
<style type="text/css"><![CDATA[
.edge:hover path { stroke: red; }
.edge:hover polygon { stroke: red; fill: red; }
]]></style>
<script type="text/javascript"><![CDATA[
var edges = document.getElementsByTagName('g');
if (edges && edges.length) {
  for (var i=0;i<edges.length;i++) {
    if (edges[i].id.substr(0,4)=='edge') {
      edges[i].setAttribute('class','edge');
    }
  }
}
]]></script>
        <defs>
                <circle id="rim" cx="0" cy="0" r="7"/>
                <circle id="rim2" cx="0" cy="0" r="3.5"/>
                <g id="zoomPlus">
                        <use xlink:href="#rim" fill="#404040">
                                <set attributeName="fill" to="#808080" begin="zoomplus.mouseover" end="zoomplus.mouseout"/>
                        </use>
                        <path d="M-4,0h8M0,-4v8" fill="none" stroke="white" stroke-width="1.5" pointer-events="none"/>
                </g>
                <g id="zoomMin">
                        <use xlink:href="#rim" fill="#404040">
                                <set attributeName="fill" to="#808080" begin="zoomminus.mouseover" end="zoomminus.mouseout"/>
                        </use>
                        <path d="M-4,0h8" fill="none" stroke="white" stroke-width="1.5" pointer-events="none"/>
                </g>
                <g id="dirArrow">
                        <path fill="none" stroke="white" stroke-width="1.5" d="M0,-3.0v7 M-2.5,-0.5L0,-3.0L2.5,-0.5"/>
                </g>
               <g id="resetDef">
                       <use xlink:href="#rim2" fill="#404040">
                               <set attributeName="fill" to="#808080" begin="reset.mouseover" end="reset.mouseout"/>
                       </use>
               </g>
        </defs>

<script type="text/javascript">
var viewWidth = 934;
var viewHeight = 169;
var sectionId = 'dynsection-2';
</script>
<script xlink:href="../../svgpan.js"/>
<svg id="graph" class="graph">
<g id="viewport">
<title>gameAuthoring.scenes.actorBuildingScenes.TowerBuildingScene.actorSpecificFieldsValid</title>
<polygon fill="white" stroke="none" points="-4,4 -4,-165 930,-165 930,4 -4,4"/>
<!-- Node1 -->
<g id="node1" class="node"><title>Node1</title>
<polygon fill="#bfbfbf" stroke="black" points="0,-59.5 0,-100.5 214,-100.5 214,-59.5 0,-59.5"/>
<text text-anchor="start" x="8" y="-88.5" font-family="Helvetica,sans-Serif" font-size="10.00">gameAuthoring.scenes.actor</text>
<text text-anchor="start" x="8" y="-77.5" font-family="Helvetica,sans-Serif" font-size="10.00">BuildingScenes.TowerBuildingScene.actor</text>
<text text-anchor="middle" x="107" y="-66.5" font-family="Helvetica,sans-Serif" font-size="10.00">SpecificFieldsValid</text>
</g>
<!-- Node2 -->
<g id="node2" class="node"><title>Node2</title>
<g id="a_node2"><a xlink:href="../../d4/d66/classgame_authoring_1_1scenes_1_1actor_building_scenes_1_1_tower_building_scene.html#a75b749fe8be2d0cf2e2a658abb09f360" target="_top" xlink:title="gameAuthoring.scenes.actor\lBuildingScenes.TowerBuildingScene.is\lAllTowerNamesUnique">
<polygon fill="white" stroke="black" points="252.5,-119.5 252.5,-160.5 449.5,-160.5 449.5,-119.5 252.5,-119.5"/>
<text text-anchor="start" x="260.5" y="-148.5" font-family="Helvetica,sans-Serif" font-size="10.00">gameAuthoring.scenes.actor</text>
<text text-anchor="start" x="260.5" y="-137.5" font-family="Helvetica,sans-Serif" font-size="10.00">BuildingScenes.TowerBuildingScene.is</text>
<text text-anchor="middle" x="351" y="-126.5" font-family="Helvetica,sans-Serif" font-size="10.00">AllTowerNamesUnique</text>
</a>
</g>
</g>
<!-- Node1&#45;&gt;Node2 -->
<g id="edge1" class="edge"><title>Node1&#45;&gt;Node2</title>
<path fill="none" stroke="midnightblue" d="M190.944,-100.565C212.302,-105.86 235.42,-111.592 257.241,-117.002"/>
<polygon fill="midnightblue" stroke="midnightblue" points="256.616,-120.453 267.164,-119.462 258.3,-113.659 256.616,-120.453"/>
</g>
<!-- Node3 -->
<g id="node3" class="node"><title>Node3</title>
<g id="a_node3"><a xlink:href="../../de/d35/classgame_authoring_1_1scenes_1_1actor_building_scenes_1_1_projectile_pane.html#a98b420a6bc2c8a3bf0d47b8bb524dafb" target="_top" xlink:title="gameAuthoring.scenes.actor\lBuildingScenes.ProjectilePane.is\lInfoValid">
<polygon fill="white" stroke="black" points="266,-59.5 266,-100.5 436,-100.5 436,-59.5 266,-59.5"/>
<text text-anchor="start" x="274" y="-88.5" font-family="Helvetica,sans-Serif" font-size="10.00">gameAuthoring.scenes.actor</text>
<text text-anchor="start" x="274" y="-77.5" font-family="Helvetica,sans-Serif" font-size="10.00">BuildingScenes.ProjectilePane.is</text>
<text text-anchor="middle" x="351" y="-66.5" font-family="Helvetica,sans-Serif" font-size="10.00">InfoValid</text>
</a>
</g>
</g>
<!-- Node1&#45;&gt;Node3 -->
<g id="edge2" class="edge"><title>Node1&#45;&gt;Node3</title>
<path fill="none" stroke="midnightblue" d="M214.145,-80C227.908,-80 241.932,-80 255.489,-80"/>
<polygon fill="midnightblue" stroke="midnightblue" points="255.753,-83.5001 265.753,-80 255.753,-76.5001 255.753,-83.5001"/>
</g>
<!-- Node4 -->
<g id="node4" class="node"><title>Node4</title>
<g id="a_node4"><a xlink:href="../../d8/dbd/classutilities_1_1_java_f_xutilities_1_1numerical_text_fields_1_1_labeled_numerical_text_field.html#ad22c78a7a22485dbaf15431c9a489bbd" target="_top" xlink:title="utilities.JavaFXutilities.numerical\lTextFields.LabeledNumericalTextField.is\lValueEntered">
<polygon fill="white" stroke="black" points="250.5,0.5 250.5,-40.5 451.5,-40.5 451.5,0.5 250.5,0.5"/>
<text text-anchor="start" x="258.5" y="-28.5" font-family="Helvetica,sans-Serif" font-size="10.00">utilities.JavaFXutilities.numerical</text>
<text text-anchor="start" x="258.5" y="-17.5" font-family="Helvetica,sans-Serif" font-size="10.00">TextFields.LabeledNumericalTextField.is</text>
<text text-anchor="middle" x="351" y="-6.5" font-family="Helvetica,sans-Serif" font-size="10.00">ValueEntered</text>
</a>
</g>
</g>
<!-- Node1&#45;&gt;Node4 -->
<g id="edge3" class="edge"><title>Node1&#45;&gt;Node4</title>
<path fill="none" stroke="midnightblue" d="M190.944,-59.4353C212.302,-54.1401 235.42,-48.4082 257.241,-42.9981"/>
<polygon fill="midnightblue" stroke="midnightblue" points="258.3,-46.3415 267.164,-40.5378 256.616,-39.5472 258.3,-46.3415"/>
</g>
<!-- Node5 -->
<g id="node5" class="node"><title>Node5</title>
<g id="a_node5"><a xlink:href="../../dc/dc4/classutilities_1_1_java_f_xutilities_1_1numerical_text_fields_1_1_numerical_text_field.html#a93ab2c03308370bacb4cf17917e23d5f" target="_top" xlink:title="utilities.JavaFXutilities.numerical\lTextFields.NumericalTextField.isValue\lEntered">
<polygon fill="white" stroke="black" points="488,0.5 488,-40.5 678,-40.5 678,0.5 488,0.5"/>
<text text-anchor="start" x="496" y="-28.5" font-family="Helvetica,sans-Serif" font-size="10.00">utilities.JavaFXutilities.numerical</text>
<text text-anchor="start" x="496" y="-17.5" font-family="Helvetica,sans-Serif" font-size="10.00">TextFields.NumericalTextField.isValue</text>
<text text-anchor="middle" x="583" y="-6.5" font-family="Helvetica,sans-Serif" font-size="10.00">Entered</text>
</a>
</g>
</g>
<!-- Node4&#45;&gt;Node5 -->
<g id="edge4" class="edge"><title>Node4&#45;&gt;Node5</title>
<path fill="none" stroke="midnightblue" d="M451.544,-20C460.182,-20 468.94,-20 477.616,-20"/>
<polygon fill="midnightblue" stroke="midnightblue" points="477.752,-23.5001 487.752,-20 477.752,-16.5001 477.752,-23.5001"/>
</g>
<!-- Node6 -->
<g id="node6" class="node"><title>Node6</title>
<g id="a_node6"><a xlink:href="../../dc/dc4/classutilities_1_1_java_f_xutilities_1_1numerical_text_fields_1_1_numerical_text_field.html#a9845b092d6d88a4a2322ee2394eab870" target="_top" xlink:title="utilities.JavaFXutilities.numerical\lTextFields.NumericalTextField.getNumber">
<polygon fill="white" stroke="black" points="714.5,-5 714.5,-35 925.5,-35 925.5,-5 714.5,-5"/>
<text text-anchor="start" x="722.5" y="-23" font-family="Helvetica,sans-Serif" font-size="10.00">utilities.JavaFXutilities.numerical</text>
<text text-anchor="middle" x="820" y="-12" font-family="Helvetica,sans-Serif" font-size="10.00">TextFields.NumericalTextField.getNumber</text>
</a>
</g>
</g>
<!-- Node5&#45;&gt;Node6 -->
<g id="edge5" class="edge"><title>Node5&#45;&gt;Node6</title>
<path fill="none" stroke="midnightblue" d="M678.229,-20C686.765,-20 695.471,-20 704.158,-20"/>
<polygon fill="midnightblue" stroke="midnightblue" points="704.335,-23.5001 714.335,-20 704.335,-16.5001 704.335,-23.5001"/>
</g>
</g>
</svg>
        <g id="navigator" transform="translate(0 0)" fill="#404254">
                <rect fill="#f2f5e9" fill-opacity="0.5" stroke="#606060" stroke-width=".5" x="0" y="0" width="60" height="60"/>
                <use id="zoomplus" xlink:href="#zoomPlus" x="17" y="9" onmousedown="handleZoom(evt,'in')"/>
                <use id="zoomminus" xlink:href="#zoomMin" x="42" y="9" onmousedown="handleZoom(evt,'out')"/>
                <use id="reset" xlink:href="#resetDef" x="30" y="36" onmousedown="handleReset()"/>
                <g id="arrowUp" xlink:href="#dirArrow" transform="translate(30 24)" onmousedown="handlePan(0,-1)">
                  <use xlink:href="#rim" fill="#404040">
                        <set attributeName="fill" to="#808080" begin="arrowUp.mouseover" end="arrowUp.mouseout"/>
                  </use>
                  <path fill="none" stroke="white" stroke-width="1.5" d="M0,-3.0v7 M-2.5,-0.5L0,-3.0L2.5,-0.5"/>
                </g>
                <g id="arrowRight" xlink:href="#dirArrow" transform="rotate(90) translate(36 -43)" onmousedown="handlePan(1,0)">
                  <use xlink:href="#rim" fill="#404040">
                        <set attributeName="fill" to="#808080" begin="arrowRight.mouseover" end="arrowRight.mouseout"/>
                  </use>
                  <path fill="none" stroke="white" stroke-width="1.5" d="M0,-3.0v7 M-2.5,-0.5L0,-3.0L2.5,-0.5"/>
                </g>
                <g id="arrowDown" xlink:href="#dirArrow" transform="rotate(180) translate(-30 -48)" onmousedown="handlePan(0,1)">
                  <use xlink:href="#rim" fill="#404040">
                        <set attributeName="fill" to="#808080" begin="arrowDown.mouseover" end="arrowDown.mouseout"/>
                  </use>
                  <path fill="none" stroke="white" stroke-width="1.5" d="M0,-3.0v7 M-2.5,-0.5L0,-3.0L2.5,-0.5"/>
                </g>
                <g id="arrowLeft" xlink:href="#dirArrow" transform="rotate(270) translate(-36 17)" onmousedown="handlePan(-1,0)">
                  <use xlink:href="#rim" fill="#404040">
                        <set attributeName="fill" to="#808080" begin="arrowLeft.mouseover" end="arrowLeft.mouseout"/>
                  </use>
                  <path fill="none" stroke="white" stroke-width="1.5" d="M0,-3.0v7 M-2.5,-0.5L0,-3.0L2.5,-0.5"/>
                </g>
        </g>
        <svg viewBox="0 0 15 15" width="100%" height="30px" preserveAspectRatio="xMaxYMin meet">
         <g id="arrow_out" transform="scale(0.3 0.3)">
          <a xlink:href="classgame_authoring_1_1scenes_1_1actor_building_scenes_1_1_tower_building_scene_a34a88f39003843c72cec7e89a442f24d_cgraph_org.svg" target="_base">
           <rect id="button" ry="5" rx="5" y="6" x="6" height="38" width="38"
                fill="#f2f5e9" fill-opacity="0.5" stroke="#606060" stroke-width="1.0"/>
           <path id="arrow"
             d="M 11.500037,31.436501 C 11.940474,20.09759 22.043105,11.32322 32.158766,21.979434 L 37.068811,17.246167 C 37.068811,17.246167 37.088388,32 37.088388,32 L 22.160133,31.978069 C 22.160133,31.978069 26.997745,27.140456 26.997745,27.140456 C 18.528582,18.264221 13.291696,25.230495 11.500037,31.436501 z"
             style="fill:#404040;"/>
          </a>
         </g>
        </svg>
</svg>
