<?xml version="1.0" encoding="UTF-8" standalone="no"?>
<!DOCTYPE svg PUBLIC "-//W3C//DTD SVG 1.1//EN"
 "http://www.w3.org/Graphics/SVG/1.1/DTD/svg11.dtd">
<!-- Generated by graphviz version 2.36.0 (20140111.2315)
 -->
<!-- Title: gamePlayer.unusedCodeWarehouse.guiItems.headsUpDisplayA.Health.initialize Pages: 1 -->
<!--zoomable 105 -->
<svg id="main" version="1.1" xmlns="http://www.w3.org/2000/svg" xmlns:xlink="http://www.w3.org/1999/xlink" xml:space="preserve" onload="init(evt)">
<style type="text/css"><![CDATA[
.edge:hover path { stroke: red; }
.edge:hover polygon { stroke: red; fill: red; }
]]></style>
<script type="text/javascript"><![CDATA[
var edges = document.getElementsByTagName('g');
if (edges && edges.length) {
  for (var i=0;i<edges.length;i++) {
    if (edges[i].id.substr(0,4)=='edge') {
      edges[i].setAttribute('class','edge');
    }
  }
}
]]></script>
        <defs>
                <circle id="rim" cx="0" cy="0" r="7"/>
                <circle id="rim2" cx="0" cy="0" r="3.5"/>
                <g id="zoomPlus">
                        <use xlink:href="#rim" fill="#404040">
                                <set attributeName="fill" to="#808080" begin="zoomplus.mouseover" end="zoomplus.mouseout"/>
                        </use>
                        <path d="M-4,0h8M0,-4v8" fill="none" stroke="white" stroke-width="1.5" pointer-events="none"/>
                </g>
                <g id="zoomMin">
                        <use xlink:href="#rim" fill="#404040">
                                <set attributeName="fill" to="#808080" begin="zoomminus.mouseover" end="zoomminus.mouseout"/>
                        </use>
                        <path d="M-4,0h8" fill="none" stroke="white" stroke-width="1.5" pointer-events="none"/>
                </g>
                <g id="dirArrow">
                        <path fill="none" stroke="white" stroke-width="1.5" d="M0,-3.0v7 M-2.5,-0.5L0,-3.0L2.5,-0.5"/>
                </g>
               <g id="resetDef">
                       <use xlink:href="#rim2" fill="#404040">
                               <set attributeName="fill" to="#808080" begin="reset.mouseover" end="reset.mouseout"/>
                       </use>
               </g>
        </defs>

<script type="text/javascript">
var viewWidth = 1358;
var viewHeight = 105;
var sectionId = 'dynsection-2';
</script>
<script xlink:href="../../svgpan.js"/>
<svg id="graph" class="graph">
<g id="viewport">
<title>gamePlayer.unusedCodeWarehouse.guiItems.headsUpDisplayA.Health.initialize</title>
<polygon fill="white" stroke="none" points="-4,4 -4,-100.626 1354,-100.626 1354,4 -4,4"/>
<!-- Node1 -->
<g id="node1" class="node"><title>Node1</title>
<polygon fill="#bfbfbf" stroke="black" points="0,-49 0,-79 206,-79 206,-49 0,-49"/>
<text text-anchor="start" x="8" y="-67" font-family="Helvetica,sans-Serif" font-size="10.00">gamePlayer.unusedCodeWarehouse.gui</text>
<text text-anchor="middle" x="103" y="-56" font-family="Helvetica,sans-Serif" font-size="10.00">Items.headsUpDisplayA.Health.initialize</text>
</g>
<!-- Node2 -->
<g id="node2" class="node"><title>Node2</title>
<g id="a_node2"><a xlink:href="../../df/db4/classutilities_1_1_x_m_l_parsing_1_1_x_m_l_parser.html#aac8c276e1fe06546bb4cc6488dd15047" target="_top" xlink:title="utilities.XMLParsing.XMLParser.get\lDimension">
<polygon fill="white" stroke="black" points="530,-44 530,-74 708,-74 708,-44 530,-44"/>
<text text-anchor="start" x="538" y="-62" font-family="Helvetica,sans-Serif" font-size="10.00">utilities.XMLParsing.XMLParser.get</text>
<text text-anchor="middle" x="619" y="-51" font-family="Helvetica,sans-Serif" font-size="10.00">Dimension</text>
</a>
</g>
</g>
<!-- Node1&#45;&gt;Node2 -->
<g id="edge1" class="edge"><title>Node1&#45;&gt;Node2</title>
<path fill="none" stroke="midnightblue" d="M176.388,-79.0016C197.449,-82.7101 220.558,-86.1494 242,-88 353.585,-97.6308 382.738,-100.837 494,-88 514.386,-85.6479 536.29,-81.1892 555.931,-76.4605"/>
<polygon fill="midnightblue" stroke="midnightblue" points="556.808,-79.8492 565.674,-74.0496 555.126,-73.0542 556.808,-79.8492"/>
</g>
<!-- Node6 -->
<g id="node6" class="node"><title>Node6</title>
<g id="a_node6"><a xlink:href="../../df/dd1/classgame_player_1_1unused_code_warehouse_1_1gui_items_1_1heads_up_display_a_1_1_health.html#aefb9a5eef8d22b32f899300bb35f2675" target="_top" xlink:title="gamePlayer.unusedCodeWarehouse.gui\lItems.headsUpDisplayA.Health.makeHealthBar">
<polygon fill="white" stroke="black" points="246.5,-49 246.5,-79 489.5,-79 489.5,-49 246.5,-49"/>
<text text-anchor="start" x="254.5" y="-67" font-family="Helvetica,sans-Serif" font-size="10.00">gamePlayer.unusedCodeWarehouse.gui</text>
<text text-anchor="middle" x="368" y="-56" font-family="Helvetica,sans-Serif" font-size="10.00">Items.headsUpDisplayA.Health.makeHealthBar</text>
</a>
</g>
</g>
<!-- Node1&#45;&gt;Node6 -->
<g id="edge5" class="edge"><title>Node1&#45;&gt;Node6</title>
<path fill="none" stroke="midnightblue" d="M206.059,-64C215.914,-64 226.001,-64 236.083,-64"/>
<polygon fill="midnightblue" stroke="midnightblue" points="236.156,-67.5001 246.156,-64 236.156,-60.5001 236.156,-67.5001"/>
</g>
<!-- Node7 -->
<g id="node7" class="node"><title>Node7</title>
<g id="a_node7"><a xlink:href="../../df/dd1/classgame_player_1_1unused_code_warehouse_1_1gui_items_1_1heads_up_display_a_1_1_health.html#aa2528e437b85f0e24534585cd3453299" target="_top" xlink:title="gamePlayer.unusedCodeWarehouse.gui\lItems.headsUpDisplayA.Health.makeHeartImage">
<polygon fill="white" stroke="black" points="242,-0 242,-30 494,-30 494,-0 242,-0"/>
<text text-anchor="start" x="250" y="-18" font-family="Helvetica,sans-Serif" font-size="10.00">gamePlayer.unusedCodeWarehouse.gui</text>
<text text-anchor="middle" x="368" y="-7" font-family="Helvetica,sans-Serif" font-size="10.00">Items.headsUpDisplayA.Health.makeHeartImage</text>
</a>
</g>
</g>
<!-- Node1&#45;&gt;Node7 -->
<g id="edge6" class="edge"><title>Node1&#45;&gt;Node7</title>
<path fill="none" stroke="midnightblue" d="M184.696,-48.9654C213.727,-43.5565 246.663,-37.4203 276.476,-31.8657"/>
<polygon fill="midnightblue" stroke="midnightblue" points="277.267,-35.2787 286.457,-30.0062 275.985,-28.3971 277.267,-35.2787"/>
</g>
<!-- Node3 -->
<g id="node3" class="node"><title>Node3</title>
<g id="a_node3"><a xlink:href="../../df/db4/classutilities_1_1_x_m_l_parsing_1_1_x_m_l_parser.html#a159b395412a8ce61e6decfefc9ed9854" target="_top" xlink:title="utilities.XMLParsing.XMLParser.get\lDoubleValuesFromTag">
<polygon fill="white" stroke="black" points="744,-44 744,-74 922,-74 922,-44 744,-44"/>
<text text-anchor="start" x="752" y="-62" font-family="Helvetica,sans-Serif" font-size="10.00">utilities.XMLParsing.XMLParser.get</text>
<text text-anchor="middle" x="833" y="-51" font-family="Helvetica,sans-Serif" font-size="10.00">DoubleValuesFromTag</text>
</a>
</g>
</g>
<!-- Node2&#45;&gt;Node3 -->
<g id="edge2" class="edge"><title>Node2&#45;&gt;Node3</title>
<path fill="none" stroke="midnightblue" d="M708.065,-59C716.569,-59 725.232,-59 733.825,-59"/>
<polygon fill="midnightblue" stroke="midnightblue" points="733.868,-62.5001 743.868,-59 733.868,-55.5001 733.868,-62.5001"/>
</g>
<!-- Node4 -->
<g id="node4" class="node"><title>Node4</title>
<g id="a_node4"><a xlink:href="../../df/db4/classutilities_1_1_x_m_l_parsing_1_1_x_m_l_parser.html#a70485375200a84f459aa83ffedbea646" target="_top" xlink:title="utilities.XMLParsing.XMLParser.get\lValuesFromTag">
<polygon fill="white" stroke="black" points="958,-22 958,-52 1136,-52 1136,-22 958,-22"/>
<text text-anchor="start" x="966" y="-40" font-family="Helvetica,sans-Serif" font-size="10.00">utilities.XMLParsing.XMLParser.get</text>
<text text-anchor="middle" x="1047" y="-29" font-family="Helvetica,sans-Serif" font-size="10.00">ValuesFromTag</text>
</a>
</g>
</g>
<!-- Node3&#45;&gt;Node4 -->
<g id="edge3" class="edge"><title>Node3&#45;&gt;Node4</title>
<path fill="none" stroke="midnightblue" d="M922.065,-49.8611C930.569,-48.9787 939.232,-48.0797 947.825,-47.188"/>
<polygon fill="midnightblue" stroke="midnightblue" points="948.282,-50.6594 957.868,-46.1458 947.56,-43.6968 948.282,-50.6594"/>
</g>
<!-- Node5 -->
<g id="node5" class="node"><title>Node5</title>
<g id="a_node5"><a xlink:href="../../df/db4/classutilities_1_1_x_m_l_parsing_1_1_x_m_l_parser.html#ab3a0a60481d20e93b1382f9a8a31fe9d" target="_top" xlink:title="utilities.XMLParsing.XMLParser.get\lValues">
<polygon fill="white" stroke="black" points="1172,-22 1172,-52 1350,-52 1350,-22 1172,-22"/>
<text text-anchor="start" x="1180" y="-40" font-family="Helvetica,sans-Serif" font-size="10.00">utilities.XMLParsing.XMLParser.get</text>
<text text-anchor="middle" x="1261" y="-29" font-family="Helvetica,sans-Serif" font-size="10.00">Values</text>
</a>
</g>
</g>
<!-- Node4&#45;&gt;Node5 -->
<g id="edge4" class="edge"><title>Node4&#45;&gt;Node5</title>
<path fill="none" stroke="midnightblue" d="M1136.07,-37C1144.57,-37 1153.23,-37 1161.82,-37"/>
<polygon fill="midnightblue" stroke="midnightblue" points="1161.87,-40.5001 1171.87,-37 1161.87,-33.5001 1161.87,-40.5001"/>
</g>
<!-- Node7&#45;&gt;Node2 -->
<g id="edge8" class="edge"><title>Node7&#45;&gt;Node2</title>
<path fill="none" stroke="midnightblue" d="M453.995,-30.0192C476.208,-33.9445 500.293,-38.2004 522.991,-42.2112"/>
<polygon fill="midnightblue" stroke="midnightblue" points="522.509,-45.6802 532.965,-43.9738 523.727,-38.787 522.509,-45.6802"/>
</g>
<!-- Node7&#45;&gt;Node4 -->
<g id="edge7" class="edge"><title>Node7&#45;&gt;Node4</title>
<path fill="none" stroke="midnightblue" d="M494.356,-19.0736C625.275,-23.328 827.909,-29.9128 947.715,-33.8061"/>
<polygon fill="midnightblue" stroke="midnightblue" points="947.867,-37.3128 957.976,-34.1395 948.095,-30.3165 947.867,-37.3128"/>
</g>
</g>
</svg>
        <g id="navigator" transform="translate(0 0)" fill="#404254">
                <rect fill="#f2f5e9" fill-opacity="0.5" stroke="#606060" stroke-width=".5" x="0" y="0" width="60" height="60"/>
                <use id="zoomplus" xlink:href="#zoomPlus" x="17" y="9" onmousedown="handleZoom(evt,'in')"/>
                <use id="zoomminus" xlink:href="#zoomMin" x="42" y="9" onmousedown="handleZoom(evt,'out')"/>
                <use id="reset" xlink:href="#resetDef" x="30" y="36" onmousedown="handleReset()"/>
                <g id="arrowUp" xlink:href="#dirArrow" transform="translate(30 24)" onmousedown="handlePan(0,-1)">
                  <use xlink:href="#rim" fill="#404040">
                        <set attributeName="fill" to="#808080" begin="arrowUp.mouseover" end="arrowUp.mouseout"/>
                  </use>
                  <path fill="none" stroke="white" stroke-width="1.5" d="M0,-3.0v7 M-2.5,-0.5L0,-3.0L2.5,-0.5"/>
                </g>
                <g id="arrowRight" xlink:href="#dirArrow" transform="rotate(90) translate(36 -43)" onmousedown="handlePan(1,0)">
                  <use xlink:href="#rim" fill="#404040">
                        <set attributeName="fill" to="#808080" begin="arrowRight.mouseover" end="arrowRight.mouseout"/>
                  </use>
                  <path fill="none" stroke="white" stroke-width="1.5" d="M0,-3.0v7 M-2.5,-0.5L0,-3.0L2.5,-0.5"/>
                </g>
                <g id="arrowDown" xlink:href="#dirArrow" transform="rotate(180) translate(-30 -48)" onmousedown="handlePan(0,1)">
                  <use xlink:href="#rim" fill="#404040">
                        <set attributeName="fill" to="#808080" begin="arrowDown.mouseover" end="arrowDown.mouseout"/>
                  </use>
                  <path fill="none" stroke="white" stroke-width="1.5" d="M0,-3.0v7 M-2.5,-0.5L0,-3.0L2.5,-0.5"/>
                </g>
                <g id="arrowLeft" xlink:href="#dirArrow" transform="rotate(270) translate(-36 17)" onmousedown="handlePan(-1,0)">
                  <use xlink:href="#rim" fill="#404040">
                        <set attributeName="fill" to="#808080" begin="arrowLeft.mouseover" end="arrowLeft.mouseout"/>
                  </use>
                  <path fill="none" stroke="white" stroke-width="1.5" d="M0,-3.0v7 M-2.5,-0.5L0,-3.0L2.5,-0.5"/>
                </g>
        </g>
        <svg viewBox="0 0 15 15" width="100%" height="30px" preserveAspectRatio="xMaxYMin meet">
         <g id="arrow_out" transform="scale(0.3 0.3)">
          <a xlink:href="classgame_player_1_1unused_code_warehouse_1_1gui_items_1_1heads_up_display_a_1_1_health_a93e500b13c08bfcd9ed09fe89b1a8914_cgraph_org.svg" target="_base">
           <rect id="button" ry="5" rx="5" y="6" x="6" height="38" width="38"
                fill="#f2f5e9" fill-opacity="0.5" stroke="#606060" stroke-width="1.0"/>
           <path id="arrow"
             d="M 11.500037,31.436501 C 11.940474,20.09759 22.043105,11.32322 32.158766,21.979434 L 37.068811,17.246167 C 37.068811,17.246167 37.088388,32 37.088388,32 L 22.160133,31.978069 C 22.160133,31.978069 26.997745,27.140456 26.997745,27.140456 C 18.528582,18.264221 13.291696,25.230495 11.500037,31.436501 z"
             style="fill:#404040;"/>
          </a>
         </g>
        </svg>
</svg>
