<?xml version="1.0" encoding="UTF-8" standalone="no"?>
<!DOCTYPE svg PUBLIC "-//W3C//DTD SVG 1.1//EN"
 "http://www.w3.org/Graphics/SVG/1.1/DTD/svg11.dtd">
<!-- Generated by graphviz version 2.36.0 (20140111.2315)
 -->
<!-- Title: gamePlayer.unusedCodeWarehouse.guiItems.headsUpDisplayA.Health.makeHeartImage Pages: 1 -->
<svg width="1116pt" height="60pt"
 viewBox="0.00 0.00 1116.00 60.00" xmlns="http://www.w3.org/2000/svg" xmlns:xlink="http://www.w3.org/1999/xlink">
<g id="graph0" class="graph" transform="scale(1 1) rotate(0) translate(4 56)">
<title>gamePlayer.unusedCodeWarehouse.guiItems.headsUpDisplayA.Health.makeHeartImage</title>
<polygon fill="white" stroke="none" points="-4,4 -4,-56 1112,-56 1112,4 -4,4"/>
<!-- Node1 -->
<g id="node1" class="node"><title>Node1</title>
<polygon fill="#bfbfbf" stroke="black" points="0,-0 0,-30 252,-30 252,-0 0,-0"/>
<text text-anchor="start" x="8" y="-18" font-family="Helvetica,sans-Serif" font-size="10.00">gamePlayer.unusedCodeWarehouse.gui</text>
<text text-anchor="middle" x="126" y="-7" font-family="Helvetica,sans-Serif" font-size="10.00">Items.headsUpDisplayA.Health.makeHeartImage</text>
</g>
<!-- Node2 -->
<g id="node2" class="node"><title>Node2</title>
<g id="a_node2"><a xlink:href="../../df/db4/classutilities_1_1_x_m_l_parsing_1_1_x_m_l_parser.html#aac8c276e1fe06546bb4cc6488dd15047" target="_top" xlink:title="utilities.XMLParsing.XMLParser.get\lDimension">
<polygon fill="white" stroke="black" points="288,-22 288,-52 466,-52 466,-22 288,-22"/>
<text text-anchor="start" x="296" y="-40" font-family="Helvetica,sans-Serif" font-size="10.00">utilities.XMLParsing.XMLParser.get</text>
<text text-anchor="middle" x="377" y="-29" font-family="Helvetica,sans-Serif" font-size="10.00">Dimension</text>
</a>
</g>
</g>
<!-- Node1&#45;&gt;Node2 -->
<g id="edge1" class="edge"><title>Node1&#45;&gt;Node2</title>
<path fill="none" stroke="midnightblue" d="M252.229,-26.0645C260.753,-26.8176 269.272,-27.5703 277.627,-28.3084"/>
<polygon fill="midnightblue" stroke="midnightblue" points="277.457,-31.8069 287.726,-29.2007 278.073,-24.8341 277.457,-31.8069"/>
</g>
<!-- Node4 -->
<g id="node4" class="node"><title>Node4</title>
<g id="a_node4"><a xlink:href="../../df/db4/classutilities_1_1_x_m_l_parsing_1_1_x_m_l_parser.html#a70485375200a84f459aa83ffedbea646" target="_top" xlink:title="utilities.XMLParsing.XMLParser.get\lValuesFromTag">
<polygon fill="white" stroke="black" points="716,-0 716,-30 894,-30 894,-0 716,-0"/>
<text text-anchor="start" x="724" y="-18" font-family="Helvetica,sans-Serif" font-size="10.00">utilities.XMLParsing.XMLParser.get</text>
<text text-anchor="middle" x="805" y="-7" font-family="Helvetica,sans-Serif" font-size="10.00">ValuesFromTag</text>
</a>
</g>
</g>
<!-- Node1&#45;&gt;Node4 -->
<g id="edge5" class="edge"><title>Node1&#45;&gt;Node4</title>
<path fill="none" stroke="midnightblue" d="M252.244,-12.4386C264.328,-12.26 276.399,-12.1081 288,-12 462.215,-10.377 505.791,-9.89294 680,-12 688.357,-12.1011 697.031,-12.2405 705.732,-12.4042"/>
<polygon fill="midnightblue" stroke="midnightblue" points="705.876,-15.9077 715.943,-12.6068 706.014,-8.90904 705.876,-15.9077"/>
</g>
<!-- Node3 -->
<g id="node3" class="node"><title>Node3</title>
<g id="a_node3"><a xlink:href="../../df/db4/classutilities_1_1_x_m_l_parsing_1_1_x_m_l_parser.html#a159b395412a8ce61e6decfefc9ed9854" target="_top" xlink:title="utilities.XMLParsing.XMLParser.get\lDoubleValuesFromTag">
<polygon fill="white" stroke="black" points="502,-22 502,-52 680,-52 680,-22 502,-22"/>
<text text-anchor="start" x="510" y="-40" font-family="Helvetica,sans-Serif" font-size="10.00">utilities.XMLParsing.XMLParser.get</text>
<text text-anchor="middle" x="591" y="-29" font-family="Helvetica,sans-Serif" font-size="10.00">DoubleValuesFromTag</text>
</a>
</g>
</g>
<!-- Node2&#45;&gt;Node3 -->
<g id="edge2" class="edge"><title>Node2&#45;&gt;Node3</title>
<path fill="none" stroke="midnightblue" d="M466.065,-37C474.569,-37 483.232,-37 491.825,-37"/>
<polygon fill="midnightblue" stroke="midnightblue" points="491.868,-40.5001 501.868,-37 491.868,-33.5001 491.868,-40.5001"/>
</g>
<!-- Node3&#45;&gt;Node4 -->
<g id="edge3" class="edge"><title>Node3&#45;&gt;Node4</title>
<path fill="none" stroke="midnightblue" d="M680.065,-27.8611C688.569,-26.9787 697.232,-26.0797 705.825,-25.188"/>
<polygon fill="midnightblue" stroke="midnightblue" points="706.282,-28.6594 715.868,-24.1458 705.56,-21.6968 706.282,-28.6594"/>
</g>
<!-- Node5 -->
<g id="node5" class="node"><title>Node5</title>
<g id="a_node5"><a xlink:href="../../df/db4/classutilities_1_1_x_m_l_parsing_1_1_x_m_l_parser.html#ab3a0a60481d20e93b1382f9a8a31fe9d" target="_top" xlink:title="utilities.XMLParsing.XMLParser.get\lValues">
<polygon fill="white" stroke="black" points="930,-0 930,-30 1108,-30 1108,-0 930,-0"/>
<text text-anchor="start" x="938" y="-18" font-family="Helvetica,sans-Serif" font-size="10.00">utilities.XMLParsing.XMLParser.get</text>
<text text-anchor="middle" x="1019" y="-7" font-family="Helvetica,sans-Serif" font-size="10.00">Values</text>
</a>
</g>
</g>
<!-- Node4&#45;&gt;Node5 -->
<g id="edge4" class="edge"><title>Node4&#45;&gt;Node5</title>
<path fill="none" stroke="midnightblue" d="M894.065,-15C902.569,-15 911.232,-15 919.825,-15"/>
<polygon fill="midnightblue" stroke="midnightblue" points="919.868,-18.5001 929.868,-15 919.868,-11.5001 919.868,-18.5001"/>
</g>
</g>
</svg>
