<?xml version="1.0" encoding="UTF-8" standalone="no"?>
<!DOCTYPE svg PUBLIC "-//W3C//DTD SVG 1.1//EN"
 "http://www.w3.org/Graphics/SVG/1.1/DTD/svg11.dtd">
<!-- Generated by graphviz version 2.36.0 (20140111.2315)
 -->
<!-- Title: utilities.JavaFXutilities.BackgroundFromPath.get Pages: 1 -->
<svg width="412pt" height="87pt"
 viewBox="0.00 0.00 412.00 87.00" xmlns="http://www.w3.org/2000/svg" xmlns:xlink="http://www.w3.org/1999/xlink">
<g id="graph0" class="graph" transform="scale(1 1) rotate(0) translate(4 83)">
<title>utilities.JavaFXutilities.BackgroundFromPath.get</title>
<polygon fill="white" stroke="none" points="-4,4 -4,-83 408,-83 408,4 -4,4"/>
<!-- Node1 -->
<g id="node1" class="node"><title>Node1</title>
<polygon fill="#bfbfbf" stroke="black" points="0.5,-24 0.5,-54 137.5,-54 137.5,-24 0.5,-24"/>
<text text-anchor="start" x="8.5" y="-42" font-family="Helvetica,sans-Serif" font-size="10.00">utilities.JavaFXutilities.</text>
<text text-anchor="middle" x="69" y="-31" font-family="Helvetica,sans-Serif" font-size="10.00">BackgroundFromPath.get</text>
</g>
<!-- Node2 -->
<g id="node2" class="node"><title>Node2</title>
<g id="a_node2"><a xlink:href="../../d9/d67/classgame_player_1_1gui_items_1_1tower_upgrade_1_1_background_label.html#ab39914041836dc5dacd047acfdb381ab" target="_top" xlink:title="gamePlayer.guiItems.tower\lUpgrade.BackgroundLabel.BackgroundLabel">
<polygon fill="white" stroke="black" points="174.5,-49 174.5,-79 403.5,-79 403.5,-49 174.5,-49"/>
<text text-anchor="start" x="182.5" y="-67" font-family="Helvetica,sans-Serif" font-size="10.00">gamePlayer.guiItems.tower</text>
<text text-anchor="middle" x="289" y="-56" font-family="Helvetica,sans-Serif" font-size="10.00">Upgrade.BackgroundLabel.BackgroundLabel</text>
</a>
</g>
</g>
<!-- Node1&#45;&gt;Node2 -->
<g id="edge1" class="edge"><title>Node1&#45;&gt;Node2</title>
<path fill="none" stroke="midnightblue" d="M147.749,-47.9162C156.363,-48.904 165.262,-49.9245 174.204,-50.95"/>
<polygon fill="midnightblue" stroke="midnightblue" points="148.115,-44.4353 137.782,-46.7731 147.318,-51.3897 148.115,-44.4353"/>
</g>
<!-- Node3 -->
<g id="node3" class="node"><title>Node3</title>
<g id="a_node3"><a xlink:href="../../d3/d83/classgame_player_1_1gui_items_1_1tower_upgrade_1_1_panel_button.html#a60152d29a519a2f802d808ef9bf0b09d" target="_top" xlink:title="gamePlayer.guiItems.tower\lUpgrade.PanelButton.PanelButton">
<polygon fill="white" stroke="black" points="199.5,-0 199.5,-30 378.5,-30 378.5,-0 199.5,-0"/>
<text text-anchor="start" x="207.5" y="-18" font-family="Helvetica,sans-Serif" font-size="10.00">gamePlayer.guiItems.tower</text>
<text text-anchor="middle" x="289" y="-7" font-family="Helvetica,sans-Serif" font-size="10.00">Upgrade.PanelButton.PanelButton</text>
</a>
</g>
</g>
<!-- Node1&#45;&gt;Node3 -->
<g id="edge2" class="edge"><title>Node1&#45;&gt;Node3</title>
<path fill="none" stroke="midnightblue" d="M148.003,-30.4125C164.662,-28.5785 182.375,-26.6284 199.4,-24.7541"/>
<polygon fill="midnightblue" stroke="midnightblue" points="147.338,-26.9644 137.782,-31.5378 148.105,-33.9224 147.338,-26.9644"/>
</g>
</g>
</svg>
