<?xml version="1.0" encoding="UTF-8" standalone="no"?>
<!DOCTYPE svg PUBLIC "-//W3C//DTD SVG 1.1//EN"
 "http://www.w3.org/Graphics/SVG/1.1/DTD/svg11.dtd">
<!-- Generated by graphviz version 2.36.0 (20140111.2315)
 -->
<!-- Title: gameAuthoring.scenes.pathBuilding.PathBuildingScene.getBuildingOptionsPane Pages: 1 -->
<!--zoomable 252 -->
<svg id="main" version="1.1" xmlns="http://www.w3.org/2000/svg" xmlns:xlink="http://www.w3.org/1999/xlink" xml:space="preserve" onload="init(evt)">
<style type="text/css"><![CDATA[
.edge:hover path { stroke: red; }
.edge:hover polygon { stroke: red; fill: red; }
]]></style>
<script type="text/javascript"><![CDATA[
var edges = document.getElementsByTagName('g');
if (edges && edges.length) {
  for (var i=0;i<edges.length;i++) {
    if (edges[i].id.substr(0,4)=='edge') {
      edges[i].setAttribute('class','edge');
    }
  }
}
]]></script>
        <defs>
                <circle id="rim" cx="0" cy="0" r="7"/>
                <circle id="rim2" cx="0" cy="0" r="3.5"/>
                <g id="zoomPlus">
                        <use xlink:href="#rim" fill="#404040">
                                <set attributeName="fill" to="#808080" begin="zoomplus.mouseover" end="zoomplus.mouseout"/>
                        </use>
                        <path d="M-4,0h8M0,-4v8" fill="none" stroke="white" stroke-width="1.5" pointer-events="none"/>
                </g>
                <g id="zoomMin">
                        <use xlink:href="#rim" fill="#404040">
                                <set attributeName="fill" to="#808080" begin="zoomminus.mouseover" end="zoomminus.mouseout"/>
                        </use>
                        <path d="M-4,0h8" fill="none" stroke="white" stroke-width="1.5" pointer-events="none"/>
                </g>
                <g id="dirArrow">
                        <path fill="none" stroke="white" stroke-width="1.5" d="M0,-3.0v7 M-2.5,-0.5L0,-3.0L2.5,-0.5"/>
                </g>
               <g id="resetDef">
                       <use xlink:href="#rim2" fill="#404040">
                               <set attributeName="fill" to="#808080" begin="reset.mouseover" end="reset.mouseout"/>
                       </use>
               </g>
        </defs>

<script type="text/javascript">
var viewWidth = 850;
var viewHeight = 252;
var sectionId = 'dynsection-11';
</script>
<script xlink:href="../../svgpan.js"/>
<svg id="graph" class="graph">
<g id="viewport">
<title>gameAuthoring.scenes.pathBuilding.PathBuildingScene.getBuildingOptionsPane</title>
<polygon fill="white" stroke="none" points="-4,4 -4,-248.206 846,-248.206 846,4 -4,4"/>
<!-- Node1 -->
<g id="node1" class="node"><title>Node1</title>
<polygon fill="#bfbfbf" stroke="black" points="0,-150.5 0,-191.5 164,-191.5 164,-150.5 0,-150.5"/>
<text text-anchor="start" x="8" y="-179.5" font-family="Helvetica,sans-Serif" font-size="10.00">gameAuthoring.scenes.path</text>
<text text-anchor="start" x="8" y="-168.5" font-family="Helvetica,sans-Serif" font-size="10.00">Building.PathBuildingScene.get</text>
<text text-anchor="middle" x="82" y="-157.5" font-family="Helvetica,sans-Serif" font-size="10.00">BuildingOptionsPane</text>
</g>
<!-- Node2 -->
<g id="node2" class="node"><title>Node2</title>
<g id="a_node2"><a xlink:href="../../d6/d82/classgame_authoring_1_1scenes_1_1path_building_1_1_path_building_scene.html#a8c90615104b0968e1f02d4ee5f0116ba" target="_top" xlink:title="gameAuthoring.scenes.path\lBuilding.PathBuildingScene.set\lCurrentDrawingPane">
<polygon fill="white" stroke="black" points="200,-150.5 200,-191.5 364,-191.5 364,-150.5 200,-150.5"/>
<text text-anchor="start" x="208" y="-179.5" font-family="Helvetica,sans-Serif" font-size="10.00">gameAuthoring.scenes.path</text>
<text text-anchor="start" x="208" y="-168.5" font-family="Helvetica,sans-Serif" font-size="10.00">Building.PathBuildingScene.set</text>
<text text-anchor="middle" x="282" y="-157.5" font-family="Helvetica,sans-Serif" font-size="10.00">CurrentDrawingPane</text>
</a>
</g>
</g>
<!-- Node1&#45;&gt;Node2 -->
<g id="edge1" class="edge"><title>Node1&#45;&gt;Node2</title>
<path fill="none" stroke="midnightblue" d="M164.105,-171C172.457,-171 180.985,-171 189.44,-171"/>
<polygon fill="midnightblue" stroke="midnightblue" points="189.7,-174.5 199.7,-171 189.7,-167.5 189.7,-174.5"/>
</g>
<!-- Node3 -->
<g id="node3" class="node"><title>Node3</title>
<g id="a_node3"><a xlink:href="../../d6/d82/classgame_authoring_1_1scenes_1_1path_building_1_1_path_building_scene.html#abdf4eb46d826f9c2a553a93c98381dbf" target="_top" xlink:title="gameAuthoring.scenes.path\lBuilding.PathBuildingScene.isCurrentPane">
<polygon fill="white" stroke="black" points="626.5,-210 626.5,-240 841.5,-240 841.5,-210 626.5,-210"/>
<text text-anchor="start" x="634.5" y="-228" font-family="Helvetica,sans-Serif" font-size="10.00">gameAuthoring.scenes.path</text>
<text text-anchor="middle" x="734" y="-217" font-family="Helvetica,sans-Serif" font-size="10.00">Building.PathBuildingScene.isCurrentPane</text>
</a>
</g>
</g>
<!-- Node2&#45;&gt;Node3 -->
<g id="edge2" class="edge"><title>Node2&#45;&gt;Node3</title>
<path fill="none" stroke="midnightblue" d="M313.727,-191.528C336.471,-205.433 368.795,-222.577 400,-230 470.345,-246.733 551.431,-245.924 615.975,-240.719"/>
<polygon fill="midnightblue" stroke="midnightblue" points="616.521,-244.185 626.187,-239.848 615.926,-237.211 616.521,-244.185"/>
</g>
<!-- Node4 -->
<g id="node4" class="node"><title>Node4</title>
<g id="a_node4"><a xlink:href="../../d6/d82/classgame_authoring_1_1scenes_1_1path_building_1_1_path_building_scene.html#aa76b1ea77eec6b9d9c5421d3788cb313" target="_top" xlink:title="gameAuthoring.scenes.path\lBuilding.PathBuildingScene.can\lDrawPathComponents">
<polygon fill="white" stroke="black" points="412,-180.5 412,-221.5 578,-221.5 578,-180.5 412,-180.5"/>
<text text-anchor="start" x="420" y="-209.5" font-family="Helvetica,sans-Serif" font-size="10.00">gameAuthoring.scenes.path</text>
<text text-anchor="start" x="420" y="-198.5" font-family="Helvetica,sans-Serif" font-size="10.00">Building.PathBuildingScene.can</text>
<text text-anchor="middle" x="495" y="-187.5" font-family="Helvetica,sans-Serif" font-size="10.00">DrawPathComponents</text>
</a>
</g>
</g>
<!-- Node2&#45;&gt;Node4 -->
<g id="edge3" class="edge"><title>Node2&#45;&gt;Node4</title>
<path fill="none" stroke="midnightblue" d="M364.276,-182.556C376.551,-184.301 389.289,-186.112 401.774,-187.887"/>
<polygon fill="midnightblue" stroke="midnightblue" points="401.327,-191.359 411.72,-189.301 402.312,-184.428 401.327,-191.359"/>
</g>
<!-- Node5 -->
<g id="node5" class="node"><title>Node5</title>
<g id="a_node5"><a xlink:href="../../d6/d82/classgame_authoring_1_1scenes_1_1path_building_1_1_path_building_scene.html#acb18e6ea26b04bb83b91f3e385612fe6" target="_top" xlink:title="gameAuthoring.scenes.path\lBuilding.PathBuildingScene.deselect\lOptionsComponents">
<polygon fill="white" stroke="black" points="400.5,-120.5 400.5,-161.5 589.5,-161.5 589.5,-120.5 400.5,-120.5"/>
<text text-anchor="start" x="408.5" y="-149.5" font-family="Helvetica,sans-Serif" font-size="10.00">gameAuthoring.scenes.path</text>
<text text-anchor="start" x="408.5" y="-138.5" font-family="Helvetica,sans-Serif" font-size="10.00">Building.PathBuildingScene.deselect</text>
<text text-anchor="middle" x="495" y="-127.5" font-family="Helvetica,sans-Serif" font-size="10.00">OptionsComponents</text>
</a>
</g>
</g>
<!-- Node2&#45;&gt;Node5 -->
<g id="edge5" class="edge"><title>Node2&#45;&gt;Node5</title>
<path fill="none" stroke="midnightblue" d="M364.276,-159.444C372.88,-158.221 381.711,-156.965 390.523,-155.712"/>
<polygon fill="midnightblue" stroke="midnightblue" points="391.043,-159.174 400.45,-154.301 390.057,-152.243 391.043,-159.174"/>
</g>
<!-- Node6 -->
<g id="node6" class="node"><title>Node6</title>
<g id="a_node6"><a xlink:href="../../d6/d82/classgame_authoring_1_1scenes_1_1path_building_1_1_path_building_scene.html#aae116242235a0efa968985d96e6e385e" target="_top" xlink:title="gameAuthoring.scenes.path\lBuilding.PathBuildingScene.set\lCurrentBuildingPane">
<polygon fill="white" stroke="black" points="413,-60.5 413,-101.5 577,-101.5 577,-60.5 413,-60.5"/>
<text text-anchor="start" x="421" y="-89.5" font-family="Helvetica,sans-Serif" font-size="10.00">gameAuthoring.scenes.path</text>
<text text-anchor="start" x="421" y="-78.5" font-family="Helvetica,sans-Serif" font-size="10.00">Building.PathBuildingScene.set</text>
<text text-anchor="middle" x="495" y="-67.5" font-family="Helvetica,sans-Serif" font-size="10.00">CurrentBuildingPane</text>
</a>
</g>
</g>
<!-- Node2&#45;&gt;Node6 -->
<g id="edge6" class="edge"><title>Node2&#45;&gt;Node6</title>
<path fill="none" stroke="midnightblue" d="M319.154,-150.497C341.91,-138.088 372.146,-122.495 400,-111 404.998,-108.937 410.192,-106.927 415.459,-104.988"/>
<polygon fill="midnightblue" stroke="midnightblue" points="416.753,-108.243 424.989,-101.579 414.395,-101.652 416.753,-108.243"/>
</g>
<!-- Node4&#45;&gt;Node3 -->
<g id="edge4" class="edge"><title>Node4&#45;&gt;Node3</title>
<path fill="none" stroke="midnightblue" d="M578.226,-209.327C590.463,-210.566 603.271,-211.863 616.056,-213.158"/>
<polygon fill="midnightblue" stroke="midnightblue" points="615.99,-216.669 626.292,-214.194 616.695,-209.704 615.99,-216.669"/>
</g>
<!-- Node7 -->
<g id="node7" class="node"><title>Node7</title>
<g id="a_node7"><a xlink:href="../../d4/d78/classgame_authoring_1_1scenes_1_1path_building_1_1building_panes_1_1_building_pane.html#a44b447044a666a8265e7d4cccd8e6b08" target="_top" xlink:title="gameAuthoring.scenes.path\lBuilding.buildingPanes.Building\lPane.executeExitFunction">
<polygon fill="white" stroke="black" points="652.5,-120.5 652.5,-161.5 815.5,-161.5 815.5,-120.5 652.5,-120.5"/>
<text text-anchor="start" x="660.5" y="-149.5" font-family="Helvetica,sans-Serif" font-size="10.00">gameAuthoring.scenes.path</text>
<text text-anchor="start" x="660.5" y="-138.5" font-family="Helvetica,sans-Serif" font-size="10.00">Building.buildingPanes.Building</text>
<text text-anchor="middle" x="734" y="-127.5" font-family="Helvetica,sans-Serif" font-size="10.00">Pane.executeExitFunction</text>
</a>
</g>
</g>
<!-- Node6&#45;&gt;Node7 -->
<g id="edge7" class="edge"><title>Node6&#45;&gt;Node7</title>
<path fill="none" stroke="midnightblue" d="M577.23,-101.565C598.263,-106.889 621.039,-112.655 642.513,-118.092"/>
<polygon fill="midnightblue" stroke="midnightblue" points="641.724,-121.503 652.277,-120.564 643.442,-114.717 641.724,-121.503"/>
</g>
<!-- Node8 -->
<g id="node8" class="node"><title>Node8</title>
<g id="a_node8"><a xlink:href="../../d4/d78/classgame_authoring_1_1scenes_1_1path_building_1_1building_panes_1_1_building_pane.html#aaa45fd64c5462eda2ac271126820618c" target="_top" xlink:title="gameAuthoring.scenes.path\lBuilding.buildingPanes.Building\lPane.executeEnterFunction">
<polygon fill="white" stroke="black" points="652.5,-60.5 652.5,-101.5 815.5,-101.5 815.5,-60.5 652.5,-60.5"/>
<text text-anchor="start" x="660.5" y="-89.5" font-family="Helvetica,sans-Serif" font-size="10.00">gameAuthoring.scenes.path</text>
<text text-anchor="start" x="660.5" y="-78.5" font-family="Helvetica,sans-Serif" font-size="10.00">Building.buildingPanes.Building</text>
<text text-anchor="middle" x="734" y="-67.5" font-family="Helvetica,sans-Serif" font-size="10.00">Pane.executeEnterFunction</text>
</a>
</g>
</g>
<!-- Node6&#45;&gt;Node8 -->
<g id="edge8" class="edge"><title>Node6&#45;&gt;Node8</title>
<path fill="none" stroke="midnightblue" d="M577.23,-81C598.168,-81 620.834,-81 642.223,-81"/>
<polygon fill="midnightblue" stroke="midnightblue" points="642.277,-84.5001 652.277,-81 642.277,-77.5001 642.277,-84.5001"/>
</g>
<!-- Node9 -->
<g id="node9" class="node"><title>Node9</title>
<g id="a_node9"><a xlink:href="../../d4/d78/classgame_authoring_1_1scenes_1_1path_building_1_1building_panes_1_1_building_pane.html#a41c56b421d936126177667cf2c94afd4" target="_top" xlink:title="gameAuthoring.scenes.path\lBuilding.buildingPanes.Building\lPane.refreshScreen">
<polygon fill="white" stroke="black" points="652.5,-0.5 652.5,-41.5 815.5,-41.5 815.5,-0.5 652.5,-0.5"/>
<text text-anchor="start" x="660.5" y="-29.5" font-family="Helvetica,sans-Serif" font-size="10.00">gameAuthoring.scenes.path</text>
<text text-anchor="start" x="660.5" y="-18.5" font-family="Helvetica,sans-Serif" font-size="10.00">Building.buildingPanes.Building</text>
<text text-anchor="middle" x="734" y="-7.5" font-family="Helvetica,sans-Serif" font-size="10.00">Pane.refreshScreen</text>
</a>
</g>
</g>
<!-- Node6&#45;&gt;Node9 -->
<g id="edge9" class="edge"><title>Node6&#45;&gt;Node9</title>
<path fill="none" stroke="midnightblue" d="M577.23,-60.4353C598.263,-55.1107 621.039,-49.3445 642.513,-43.908"/>
<polygon fill="midnightblue" stroke="midnightblue" points="643.442,-47.2833 652.277,-41.4361 641.724,-40.4974 643.442,-47.2833"/>
</g>
</g>
</svg>
        <g id="navigator" transform="translate(0 0)" fill="#404254">
                <rect fill="#f2f5e9" fill-opacity="0.5" stroke="#606060" stroke-width=".5" x="0" y="0" width="60" height="60"/>
                <use id="zoomplus" xlink:href="#zoomPlus" x="17" y="9" onmousedown="handleZoom(evt,'in')"/>
                <use id="zoomminus" xlink:href="#zoomMin" x="42" y="9" onmousedown="handleZoom(evt,'out')"/>
                <use id="reset" xlink:href="#resetDef" x="30" y="36" onmousedown="handleReset()"/>
                <g id="arrowUp" xlink:href="#dirArrow" transform="translate(30 24)" onmousedown="handlePan(0,-1)">
                  <use xlink:href="#rim" fill="#404040">
                        <set attributeName="fill" to="#808080" begin="arrowUp.mouseover" end="arrowUp.mouseout"/>
                  </use>
                  <path fill="none" stroke="white" stroke-width="1.5" d="M0,-3.0v7 M-2.5,-0.5L0,-3.0L2.5,-0.5"/>
                </g>
                <g id="arrowRight" xlink:href="#dirArrow" transform="rotate(90) translate(36 -43)" onmousedown="handlePan(1,0)">
                  <use xlink:href="#rim" fill="#404040">
                        <set attributeName="fill" to="#808080" begin="arrowRight.mouseover" end="arrowRight.mouseout"/>
                  </use>
                  <path fill="none" stroke="white" stroke-width="1.5" d="M0,-3.0v7 M-2.5,-0.5L0,-3.0L2.5,-0.5"/>
                </g>
                <g id="arrowDown" xlink:href="#dirArrow" transform="rotate(180) translate(-30 -48)" onmousedown="handlePan(0,1)">
                  <use xlink:href="#rim" fill="#404040">
                        <set attributeName="fill" to="#808080" begin="arrowDown.mouseover" end="arrowDown.mouseout"/>
                  </use>
                  <path fill="none" stroke="white" stroke-width="1.5" d="M0,-3.0v7 M-2.5,-0.5L0,-3.0L2.5,-0.5"/>
                </g>
                <g id="arrowLeft" xlink:href="#dirArrow" transform="rotate(270) translate(-36 17)" onmousedown="handlePan(-1,0)">
                  <use xlink:href="#rim" fill="#404040">
                        <set attributeName="fill" to="#808080" begin="arrowLeft.mouseover" end="arrowLeft.mouseout"/>
                  </use>
                  <path fill="none" stroke="white" stroke-width="1.5" d="M0,-3.0v7 M-2.5,-0.5L0,-3.0L2.5,-0.5"/>
                </g>
        </g>
        <svg viewBox="0 0 15 15" width="100%" height="30px" preserveAspectRatio="xMaxYMin meet">
         <g id="arrow_out" transform="scale(0.3 0.3)">
          <a xlink:href="classgame_authoring_1_1scenes_1_1path_building_1_1_path_building_scene_adb120be479f6c84517e189aca0addc6f_cgraph_org.svg" target="_base">
           <rect id="button" ry="5" rx="5" y="6" x="6" height="38" width="38"
                fill="#f2f5e9" fill-opacity="0.5" stroke="#606060" stroke-width="1.0"/>
           <path id="arrow"
             d="M 11.500037,31.436501 C 11.940474,20.09759 22.043105,11.32322 32.158766,21.979434 L 37.068811,17.246167 C 37.068811,17.246167 37.088388,32 37.088388,32 L 22.160133,31.978069 C 22.160133,31.978069 26.997745,27.140456 26.997745,27.140456 C 18.528582,18.264221 13.291696,25.230495 11.500037,31.436501 z"
             style="fill:#404040;"/>
          </a>
         </g>
        </svg>
</svg>
