<?xml version="1.0" encoding="UTF-8" standalone="no"?>
<!DOCTYPE svg PUBLIC "-//W3C//DTD SVG 1.1//EN"
 "http://www.w3.org/Graphics/SVG/1.1/DTD/svg11.dtd">
<!-- Generated by graphviz version 2.36.0 (20140111.2315)
 -->
<!-- Title: gameAuthoring.scenes.pathBuilding.PathBuildingScene.proceedToStartLocationSelection Pages: 1 -->
<svg width="596pt" height="169pt"
 viewBox="0.00 0.00 596.00 169.00" xmlns="http://www.w3.org/2000/svg" xmlns:xlink="http://www.w3.org/1999/xlink">
<g id="graph0" class="graph" transform="scale(1 1) rotate(0) translate(4 165)">
<title>gameAuthoring.scenes.pathBuilding.PathBuildingScene.proceedToStartLocationSelection</title>
<polygon fill="white" stroke="none" points="-4,4 -4,-165 592,-165 592,4 -4,4"/>
<!-- Node1 -->
<g id="node1" class="node"><title>Node1</title>
<polygon fill="#bfbfbf" stroke="black" points="0,-59.5 0,-100.5 188,-100.5 188,-59.5 0,-59.5"/>
<text text-anchor="start" x="8" y="-88.5" font-family="Helvetica,sans-Serif" font-size="10.00">gameAuthoring.scenes.path</text>
<text text-anchor="start" x="8" y="-77.5" font-family="Helvetica,sans-Serif" font-size="10.00">Building.PathBuildingScene.proceed</text>
<text text-anchor="middle" x="94" y="-66.5" font-family="Helvetica,sans-Serif" font-size="10.00">ToStartLocationSelection</text>
</g>
<!-- Node2 -->
<g id="node2" class="node"><title>Node2</title>
<g id="a_node2"><a xlink:href="../../d6/d82/classgame_authoring_1_1scenes_1_1path_building_1_1_path_building_scene.html#aae116242235a0efa968985d96e6e385e" target="_top" xlink:title="gameAuthoring.scenes.path\lBuilding.PathBuildingScene.set\lCurrentBuildingPane">
<polygon fill="white" stroke="black" points="224,-59.5 224,-100.5 388,-100.5 388,-59.5 224,-59.5"/>
<text text-anchor="start" x="232" y="-88.5" font-family="Helvetica,sans-Serif" font-size="10.00">gameAuthoring.scenes.path</text>
<text text-anchor="start" x="232" y="-77.5" font-family="Helvetica,sans-Serif" font-size="10.00">Building.PathBuildingScene.set</text>
<text text-anchor="middle" x="306" y="-66.5" font-family="Helvetica,sans-Serif" font-size="10.00">CurrentBuildingPane</text>
</a>
</g>
</g>
<!-- Node1&#45;&gt;Node2 -->
<g id="edge1" class="edge"><title>Node1&#45;&gt;Node2</title>
<path fill="none" stroke="midnightblue" d="M188.026,-80C196.528,-80 205.135,-80 213.622,-80"/>
<polygon fill="midnightblue" stroke="midnightblue" points="213.9,-83.5001 223.899,-80 213.899,-76.5001 213.9,-83.5001"/>
</g>
<!-- Node3 -->
<g id="node3" class="node"><title>Node3</title>
<g id="a_node3"><a xlink:href="../../d4/d78/classgame_authoring_1_1scenes_1_1path_building_1_1building_panes_1_1_building_pane.html#a44b447044a666a8265e7d4cccd8e6b08" target="_top" xlink:title="gameAuthoring.scenes.path\lBuilding.buildingPanes.Building\lPane.executeExitFunction">
<polygon fill="white" stroke="black" points="424.5,-119.5 424.5,-160.5 587.5,-160.5 587.5,-119.5 424.5,-119.5"/>
<text text-anchor="start" x="432.5" y="-148.5" font-family="Helvetica,sans-Serif" font-size="10.00">gameAuthoring.scenes.path</text>
<text text-anchor="start" x="432.5" y="-137.5" font-family="Helvetica,sans-Serif" font-size="10.00">Building.buildingPanes.Building</text>
<text text-anchor="middle" x="506" y="-126.5" font-family="Helvetica,sans-Serif" font-size="10.00">Pane.executeExitFunction</text>
</a>
</g>
</g>
<!-- Node2&#45;&gt;Node3 -->
<g id="edge2" class="edge"><title>Node2&#45;&gt;Node3</title>
<path fill="none" stroke="midnightblue" d="M374.863,-100.565C391.708,-105.669 409.891,-111.179 427.172,-116.416"/>
<polygon fill="midnightblue" stroke="midnightblue" points="426.64,-119.912 437.225,-119.462 428.67,-113.212 426.64,-119.912"/>
</g>
<!-- Node4 -->
<g id="node4" class="node"><title>Node4</title>
<g id="a_node4"><a xlink:href="../../d4/d78/classgame_authoring_1_1scenes_1_1path_building_1_1building_panes_1_1_building_pane.html#aaa45fd64c5462eda2ac271126820618c" target="_top" xlink:title="gameAuthoring.scenes.path\lBuilding.buildingPanes.Building\lPane.executeEnterFunction">
<polygon fill="white" stroke="black" points="424.5,-59.5 424.5,-100.5 587.5,-100.5 587.5,-59.5 424.5,-59.5"/>
<text text-anchor="start" x="432.5" y="-88.5" font-family="Helvetica,sans-Serif" font-size="10.00">gameAuthoring.scenes.path</text>
<text text-anchor="start" x="432.5" y="-77.5" font-family="Helvetica,sans-Serif" font-size="10.00">Building.buildingPanes.Building</text>
<text text-anchor="middle" x="506" y="-66.5" font-family="Helvetica,sans-Serif" font-size="10.00">Pane.executeEnterFunction</text>
</a>
</g>
</g>
<!-- Node2&#45;&gt;Node4 -->
<g id="edge3" class="edge"><title>Node2&#45;&gt;Node4</title>
<path fill="none" stroke="midnightblue" d="M388.105,-80C396.703,-80 405.486,-80 414.185,-80"/>
<polygon fill="midnightblue" stroke="midnightblue" points="414.341,-83.5001 424.341,-80 414.341,-76.5001 414.341,-83.5001"/>
</g>
<!-- Node5 -->
<g id="node5" class="node"><title>Node5</title>
<g id="a_node5"><a xlink:href="../../d4/d78/classgame_authoring_1_1scenes_1_1path_building_1_1building_panes_1_1_building_pane.html#a41c56b421d936126177667cf2c94afd4" target="_top" xlink:title="gameAuthoring.scenes.path\lBuilding.buildingPanes.Building\lPane.refreshScreen">
<polygon fill="white" stroke="black" points="424.5,0.5 424.5,-40.5 587.5,-40.5 587.5,0.5 424.5,0.5"/>
<text text-anchor="start" x="432.5" y="-28.5" font-family="Helvetica,sans-Serif" font-size="10.00">gameAuthoring.scenes.path</text>
<text text-anchor="start" x="432.5" y="-17.5" font-family="Helvetica,sans-Serif" font-size="10.00">Building.buildingPanes.Building</text>
<text text-anchor="middle" x="506" y="-6.5" font-family="Helvetica,sans-Serif" font-size="10.00">Pane.refreshScreen</text>
</a>
</g>
</g>
<!-- Node2&#45;&gt;Node5 -->
<g id="edge4" class="edge"><title>Node2&#45;&gt;Node5</title>
<path fill="none" stroke="midnightblue" d="M374.863,-59.4353C391.708,-54.3309 409.891,-48.8208 427.172,-43.5842"/>
<polygon fill="midnightblue" stroke="midnightblue" points="428.67,-46.7875 437.225,-40.5378 426.64,-40.0883 428.67,-46.7875"/>
</g>
</g>
</svg>
