<?xml version="1.0" encoding="UTF-8" standalone="no"?>
<!DOCTYPE svg PUBLIC "-//W3C//DTD SVG 1.1//EN"
 "http://www.w3.org/Graphics/SVG/1.1/DTD/svg11.dtd">
<!-- Generated by graphviz version 2.36.0 (20140111.2315)
 -->
<!-- Title: gameAuthoring.scenes.pathBuilding.PathBuildingScene.handleKeyPress Pages: 1 -->
<svg width="670pt" height="109pt"
 viewBox="0.00 0.00 670.00 109.00" xmlns="http://www.w3.org/2000/svg" xmlns:xlink="http://www.w3.org/1999/xlink">
<g id="graph0" class="graph" transform="scale(1 1) rotate(0) translate(4 105)">
<title>gameAuthoring.scenes.pathBuilding.PathBuildingScene.handleKeyPress</title>
<polygon fill="white" stroke="none" points="-4,4 -4,-105 666,-105 666,4 -4,4"/>
<!-- Node1 -->
<g id="node1" class="node"><title>Node1</title>
<polygon fill="#bfbfbf" stroke="black" points="0.5,-29.5 0.5,-70.5 181.5,-70.5 181.5,-29.5 0.5,-29.5"/>
<text text-anchor="start" x="8.5" y="-58.5" font-family="Helvetica,sans-Serif" font-size="10.00">gameAuthoring.scenes.path</text>
<text text-anchor="start" x="8.5" y="-47.5" font-family="Helvetica,sans-Serif" font-size="10.00">Building.PathBuildingScene.handle</text>
<text text-anchor="middle" x="91" y="-36.5" font-family="Helvetica,sans-Serif" font-size="10.00">KeyPress</text>
</g>
<!-- Node2 -->
<g id="node2" class="node"><title>Node2</title>
<g id="a_node2"><a xlink:href="../../d1/d65/classgame_authoring_1_1scenes_1_1path_building_1_1path_components_1_1_path.html#af0c21cc6a96881d892f30eba01ae7ee1" target="_top" xlink:title="gameAuthoring.scenes.path\lBuilding.pathComponents.Path.delete\lSelectedComponent">
<polygon fill="white" stroke="black" points="218.5,-29.5 218.5,-70.5 415.5,-70.5 415.5,-29.5 218.5,-29.5"/>
<text text-anchor="start" x="226.5" y="-58.5" font-family="Helvetica,sans-Serif" font-size="10.00">gameAuthoring.scenes.path</text>
<text text-anchor="start" x="226.5" y="-47.5" font-family="Helvetica,sans-Serif" font-size="10.00">Building.pathComponents.Path.delete</text>
<text text-anchor="middle" x="317" y="-36.5" font-family="Helvetica,sans-Serif" font-size="10.00">SelectedComponent</text>
</a>
</g>
</g>
<!-- Node1&#45;&gt;Node2 -->
<g id="edge1" class="edge"><title>Node1&#45;&gt;Node2</title>
<path fill="none" stroke="midnightblue" d="M181.819,-50C190.574,-50 199.517,-50 208.423,-50"/>
<polygon fill="midnightblue" stroke="midnightblue" points="208.45,-53.5001 218.45,-50 208.45,-46.5001 208.45,-53.5001"/>
</g>
<!-- Node3 -->
<g id="node3" class="node"><title>Node3</title>
<g id="a_node3"><a xlink:href="../../d1/d65/classgame_authoring_1_1scenes_1_1path_building_1_1path_components_1_1_path.html#a628d6d2e49adf5a7f774d6fc2c1cefbe" target="_top" xlink:title="gameAuthoring.scenes.path\lBuilding.pathComponents.Path.get\lRouteContaining">
<polygon fill="white" stroke="black" points="465.5,-59.5 465.5,-100.5 648.5,-100.5 648.5,-59.5 465.5,-59.5"/>
<text text-anchor="start" x="473.5" y="-88.5" font-family="Helvetica,sans-Serif" font-size="10.00">gameAuthoring.scenes.path</text>
<text text-anchor="start" x="473.5" y="-77.5" font-family="Helvetica,sans-Serif" font-size="10.00">Building.pathComponents.Path.get</text>
<text text-anchor="middle" x="557" y="-66.5" font-family="Helvetica,sans-Serif" font-size="10.00">RouteContaining</text>
</a>
</g>
</g>
<!-- Node2&#45;&gt;Node3 -->
<g id="edge2" class="edge"><title>Node2&#45;&gt;Node3</title>
<path fill="none" stroke="midnightblue" d="M415.834,-62.332C428.911,-63.9804 442.341,-65.6733 455.464,-67.3274"/>
<polygon fill="midnightblue" stroke="midnightblue" points="455.069,-70.8052 465.428,-68.5834 455.945,-63.8602 455.069,-70.8052"/>
</g>
<!-- Node4 -->
<g id="node4" class="node"><title>Node4</title>
<g id="a_node4"><a xlink:href="../../d7/d4d/classgame_authoring_1_1scenes_1_1path_building_1_1path_components_1_1_path_route.html#aa15bdbf4ff5f98537667883999ebaf2b" target="_top" xlink:title="gameAuthoring.scenes.path\lBuilding.pathComponents.PathRoute.get\lComponents">
<polygon fill="white" stroke="black" points="452,0.5 452,-40.5 662,-40.5 662,0.5 452,0.5"/>
<text text-anchor="start" x="460" y="-28.5" font-family="Helvetica,sans-Serif" font-size="10.00">gameAuthoring.scenes.path</text>
<text text-anchor="start" x="460" y="-17.5" font-family="Helvetica,sans-Serif" font-size="10.00">Building.pathComponents.PathRoute.get</text>
<text text-anchor="middle" x="557" y="-6.5" font-family="Helvetica,sans-Serif" font-size="10.00">Components</text>
</a>
</g>
</g>
<!-- Node2&#45;&gt;Node4 -->
<g id="edge3" class="edge"><title>Node2&#45;&gt;Node4</title>
<path fill="none" stroke="midnightblue" d="M415.834,-37.668C424.404,-36.5877 433.125,-35.4884 441.813,-34.3934"/>
<polygon fill="midnightblue" stroke="midnightblue" points="442.5,-37.8345 451.984,-33.1113 441.624,-30.8895 442.5,-37.8345"/>
</g>
</g>
</svg>
