<?xml version="1.0" encoding="UTF-8" standalone="no"?>
<!DOCTYPE svg PUBLIC "-//W3C//DTD SVG 1.1//EN"
 "http://www.w3.org/Graphics/SVG/1.1/DTD/svg11.dtd">
<!-- Generated by graphviz version 2.36.0 (20140111.2315)
 -->
<!-- Title: gameAuthoring.scenes.pathBuilding.PathBuildingScene.handleFinishButtonClick Pages: 1 -->
<svg width="698pt" height="217pt"
 viewBox="0.00 0.00 698.00 217.00" xmlns="http://www.w3.org/2000/svg" xmlns:xlink="http://www.w3.org/1999/xlink">
<g id="graph0" class="graph" transform="scale(1 1) rotate(0) translate(4 213)">
<title>gameAuthoring.scenes.pathBuilding.PathBuildingScene.handleFinishButtonClick</title>
<polygon fill="white" stroke="none" points="-4,4 -4,-213 694,-213 694,4 -4,4"/>
<!-- Node1 -->
<g id="node1" class="node"><title>Node1</title>
<polygon fill="#bfbfbf" stroke="black" points="0.5,-89.5 0.5,-130.5 181.5,-130.5 181.5,-89.5 0.5,-89.5"/>
<text text-anchor="start" x="8.5" y="-118.5" font-family="Helvetica,sans-Serif" font-size="10.00">gameAuthoring.scenes.path</text>
<text text-anchor="start" x="8.5" y="-107.5" font-family="Helvetica,sans-Serif" font-size="10.00">Building.PathBuildingScene.handle</text>
<text text-anchor="middle" x="91" y="-96.5" font-family="Helvetica,sans-Serif" font-size="10.00">FinishButtonClick</text>
</g>
<!-- Node2 -->
<g id="node2" class="node"><title>Node2</title>
<g id="a_node2"><a xlink:href="../../d6/da6/interfacegame_authoring_1_1mainclasses_1_1controller_interfaces_1_1_i_path_configuring.html#ada10e97d63af15afdbae7658d93abf0f" target="_top" xlink:title="gameAuthoring.mainclasses.controller\lInterfaces.IPathConfiguring.configurePath">
<polygon fill="white" stroke="black" points="225,-179 225,-209 437,-209 437,-179 225,-179"/>
<text text-anchor="start" x="233" y="-197" font-family="Helvetica,sans-Serif" font-size="10.00">gameAuthoring.mainclasses.controller</text>
<text text-anchor="middle" x="331" y="-186" font-family="Helvetica,sans-Serif" font-size="10.00">Interfaces.IPathConfiguring.configurePath</text>
</a>
</g>
</g>
<!-- Node1&#45;&gt;Node2 -->
<g id="edge1" class="edge"><title>Node1&#45;&gt;Node2</title>
<path fill="none" stroke="midnightblue" d="M130.254,-130.589C154.774,-143.108 187.595,-158.627 218,-169 225.861,-171.682 234.131,-174.153 242.469,-176.411"/>
<polygon fill="midnightblue" stroke="midnightblue" points="241.709,-179.83 252.269,-178.964 243.474,-173.056 241.709,-179.83"/>
</g>
<!-- Node3 -->
<g id="node3" class="node"><title>Node3</title>
<g id="a_node3"><a xlink:href="../../de/d21/classgame_authoring_1_1scenes_1_1path_building_1_1building_panes_1_1tower_regions_1_1_tower_regions_pane.html#a690430365776cbbf9766367a5c554ea3" target="_top" xlink:title="gameAuthoring.scenes.path\lBuilding.buildingPanes.towerRegions.\lTowerRegionsPane.getBackendTowerRegions">
<polygon fill="white" stroke="black" points="218,-119.5 218,-160.5 444,-160.5 444,-119.5 218,-119.5"/>
<text text-anchor="start" x="226" y="-148.5" font-family="Helvetica,sans-Serif" font-size="10.00">gameAuthoring.scenes.path</text>
<text text-anchor="start" x="226" y="-137.5" font-family="Helvetica,sans-Serif" font-size="10.00">Building.buildingPanes.towerRegions.</text>
<text text-anchor="middle" x="331" y="-126.5" font-family="Helvetica,sans-Serif" font-size="10.00">TowerRegionsPane.getBackendTowerRegions</text>
</a>
</g>
</g>
<!-- Node1&#45;&gt;Node3 -->
<g id="edge2" class="edge"><title>Node1&#45;&gt;Node3</title>
<path fill="none" stroke="midnightblue" d="M181.638,-121.299C190.255,-122.385 199.09,-123.499 207.949,-124.615"/>
<polygon fill="midnightblue" stroke="midnightblue" points="207.589,-128.098 217.949,-125.876 208.465,-121.153 207.589,-128.098"/>
</g>
<!-- Node5 -->
<g id="node5" class="node"><title>Node5</title>
<g id="a_node5"><a xlink:href="../../d1/d65/classgame_authoring_1_1scenes_1_1path_building_1_1path_components_1_1_path.html#ae801f636554ef81e4e3e7faef039bc65" target="_top" xlink:title="gameAuthoring.scenes.path\lBuilding.pathComponents.Path.is\lPathCompletedAndRoutesVerified">
<polygon fill="white" stroke="black" points="243,-59.5 243,-100.5 419,-100.5 419,-59.5 243,-59.5"/>
<text text-anchor="start" x="251" y="-88.5" font-family="Helvetica,sans-Serif" font-size="10.00">gameAuthoring.scenes.path</text>
<text text-anchor="start" x="251" y="-77.5" font-family="Helvetica,sans-Serif" font-size="10.00">Building.pathComponents.Path.is</text>
<text text-anchor="middle" x="331" y="-66.5" font-family="Helvetica,sans-Serif" font-size="10.00">PathCompletedAndRoutesVerified</text>
</a>
</g>
</g>
<!-- Node1&#45;&gt;Node5 -->
<g id="edge4" class="edge"><title>Node1&#45;&gt;Node5</title>
<path fill="none" stroke="midnightblue" d="M181.638,-98.701C198.225,-96.6103 215.623,-94.4173 232.431,-92.2986"/>
<polygon fill="midnightblue" stroke="midnightblue" points="233.324,-95.7138 242.808,-90.9906 232.449,-88.7687 233.324,-95.7138"/>
</g>
<!-- Node6 -->
<g id="node6" class="node"><title>Node6</title>
<g id="a_node6"><a xlink:href="../../d6/da6/interfacegame_authoring_1_1mainclasses_1_1controller_interfaces_1_1_i_path_configuring.html#a4275eaa6ec730484f7dbfa63a0f5ce79" target="_top" xlink:title="gameAuthoring.mainclasses.controller\lInterfaces.IPathConfiguring.setTower\lRegions">
<polygon fill="white" stroke="black" points="230.5,0.5 230.5,-40.5 431.5,-40.5 431.5,0.5 230.5,0.5"/>
<text text-anchor="start" x="238.5" y="-28.5" font-family="Helvetica,sans-Serif" font-size="10.00">gameAuthoring.mainclasses.controller</text>
<text text-anchor="start" x="238.5" y="-17.5" font-family="Helvetica,sans-Serif" font-size="10.00">Interfaces.IPathConfiguring.setTower</text>
<text text-anchor="middle" x="331" y="-6.5" font-family="Helvetica,sans-Serif" font-size="10.00">Regions</text>
</a>
</g>
</g>
<!-- Node1&#45;&gt;Node6 -->
<g id="edge5" class="edge"><title>Node1&#45;&gt;Node6</title>
<path fill="none" stroke="midnightblue" d="M130.37,-89.4735C154.936,-76.9018 187.764,-61.1423 218,-50 224.012,-47.7846 230.26,-45.6564 236.593,-43.6279"/>
<polygon fill="midnightblue" stroke="midnightblue" points="238.079,-46.8312 246.592,-40.5241 236.004,-40.1459 238.079,-46.8312"/>
</g>
<!-- Node4 -->
<g id="node4" class="node"><title>Node4</title>
<g id="a_node4"><a xlink:href="../../de/d21/classgame_authoring_1_1scenes_1_1path_building_1_1building_panes_1_1tower_regions_1_1_tower_regions_pane.html#a82a4719f9f393d91d0d33ed9ef1cf2c6" target="_top" xlink:title="gameAuthoring.scenes.path\lBuilding.buildingPanes.towerRegions.\lTowerRegionsPane.generateBackendGrid">
<polygon fill="white" stroke="black" points="480,-119.5 480,-160.5 690,-160.5 690,-119.5 480,-119.5"/>
<text text-anchor="start" x="488" y="-148.5" font-family="Helvetica,sans-Serif" font-size="10.00">gameAuthoring.scenes.path</text>
<text text-anchor="start" x="488" y="-137.5" font-family="Helvetica,sans-Serif" font-size="10.00">Building.buildingPanes.towerRegions.</text>
<text text-anchor="middle" x="585" y="-126.5" font-family="Helvetica,sans-Serif" font-size="10.00">TowerRegionsPane.generateBackendGrid</text>
</a>
</g>
</g>
<!-- Node3&#45;&gt;Node4 -->
<g id="edge3" class="edge"><title>Node3&#45;&gt;Node4</title>
<path fill="none" stroke="midnightblue" d="M444.366,-140C452.764,-140 461.243,-140 469.653,-140"/>
<polygon fill="midnightblue" stroke="midnightblue" points="469.866,-143.5 479.866,-140 469.866,-136.5 469.866,-143.5"/>
</g>
</g>
</svg>
