<?xml version="1.0" encoding="UTF-8" standalone="no"?>
<!DOCTYPE svg PUBLIC "-//W3C//DTD SVG 1.1//EN"
 "http://www.w3.org/Graphics/SVG/1.1/DTD/svg11.dtd">
<!-- Generated by graphviz version 2.36.0 (20140111.2315)
 -->
<!-- Title: gameAuthoring.scenes.pathBuilding.PathBuildingScene.setCurrentDrawingPane Pages: 1 -->
<!--zoomable 268 -->
<svg id="main" version="1.1" xmlns="http://www.w3.org/2000/svg" xmlns:xlink="http://www.w3.org/1999/xlink" xml:space="preserve" onload="init(evt)">
<style type="text/css"><![CDATA[
.edge:hover path { stroke: red; }
.edge:hover polygon { stroke: red; fill: red; }
]]></style>
<script type="text/javascript"><![CDATA[
var edges = document.getElementsByTagName('g');
if (edges && edges.length) {
  for (var i=0;i<edges.length;i++) {
    if (edges[i].id.substr(0,4)=='edge') {
      edges[i].setAttribute('class','edge');
    }
  }
}
]]></script>
        <defs>
                <circle id="rim" cx="0" cy="0" r="7"/>
                <circle id="rim2" cx="0" cy="0" r="3.5"/>
                <g id="zoomPlus">
                        <use xlink:href="#rim" fill="#404040">
                                <set attributeName="fill" to="#808080" begin="zoomplus.mouseover" end="zoomplus.mouseout"/>
                        </use>
                        <path d="M-4,0h8M0,-4v8" fill="none" stroke="white" stroke-width="1.5" pointer-events="none"/>
                </g>
                <g id="zoomMin">
                        <use xlink:href="#rim" fill="#404040">
                                <set attributeName="fill" to="#808080" begin="zoomminus.mouseover" end="zoomminus.mouseout"/>
                        </use>
                        <path d="M-4,0h8" fill="none" stroke="white" stroke-width="1.5" pointer-events="none"/>
                </g>
                <g id="dirArrow">
                        <path fill="none" stroke="white" stroke-width="1.5" d="M0,-3.0v7 M-2.5,-0.5L0,-3.0L2.5,-0.5"/>
                </g>
               <g id="resetDef">
                       <use xlink:href="#rim2" fill="#404040">
                               <set attributeName="fill" to="#808080" begin="reset.mouseover" end="reset.mouseout"/>
                       </use>
               </g>
        </defs>

<script type="text/javascript">
var viewWidth = 650;
var viewHeight = 268;
var sectionId = 'dynsection-27';
</script>
<script xlink:href="../../svgpan.js"/>
<svg id="graph" class="graph">
<g id="viewport">
<title>gameAuthoring.scenes.pathBuilding.PathBuildingScene.setCurrentDrawingPane</title>
<polygon fill="white" stroke="none" points="-4,4 -4,-264 646,-264 646,4 -4,4"/>
<!-- Node1 -->
<g id="node1" class="node"><title>Node1</title>
<polygon fill="#bfbfbf" stroke="black" points="0,-144.5 0,-185.5 164,-185.5 164,-144.5 0,-144.5"/>
<text text-anchor="start" x="8" y="-173.5" font-family="Helvetica,sans-Serif" font-size="10.00">gameAuthoring.scenes.path</text>
<text text-anchor="start" x="8" y="-162.5" font-family="Helvetica,sans-Serif" font-size="10.00">Building.PathBuildingScene.set</text>
<text text-anchor="middle" x="82" y="-151.5" font-family="Helvetica,sans-Serif" font-size="10.00">CurrentDrawingPane</text>
</g>
<!-- Node2 -->
<g id="node2" class="node"><title>Node2</title>
<g id="a_node2"><a xlink:href="../../d6/d82/classgame_authoring_1_1scenes_1_1path_building_1_1_path_building_scene.html#aa76b1ea77eec6b9d9c5421d3788cb313" target="_top" xlink:title="gameAuthoring.scenes.path\lBuilding.PathBuildingScene.can\lDrawPathComponents">
<polygon fill="white" stroke="black" points="212,-218.5 212,-259.5 378,-259.5 378,-218.5 212,-218.5"/>
<text text-anchor="start" x="220" y="-247.5" font-family="Helvetica,sans-Serif" font-size="10.00">gameAuthoring.scenes.path</text>
<text text-anchor="start" x="220" y="-236.5" font-family="Helvetica,sans-Serif" font-size="10.00">Building.PathBuildingScene.can</text>
<text text-anchor="middle" x="295" y="-225.5" font-family="Helvetica,sans-Serif" font-size="10.00">DrawPathComponents</text>
</a>
</g>
</g>
<!-- Node1&#45;&gt;Node2 -->
<g id="edge1" class="edge"><title>Node1&#45;&gt;Node2</title>
<path fill="none" stroke="midnightblue" d="M141.495,-185.515C167.679,-194.698 198.718,-205.584 225.937,-215.13"/>
<polygon fill="midnightblue" stroke="midnightblue" points="224.796,-218.438 235.391,-218.445 227.113,-211.833 224.796,-218.438"/>
</g>
<!-- Node3 -->
<g id="node3" class="node"><title>Node3</title>
<g id="a_node3"><a xlink:href="../../d6/d82/classgame_authoring_1_1scenes_1_1path_building_1_1_path_building_scene.html#abdf4eb46d826f9c2a553a93c98381dbf" target="_top" xlink:title="gameAuthoring.scenes.path\lBuilding.PathBuildingScene.isCurrentPane">
<polygon fill="white" stroke="black" points="426.5,-202 426.5,-232 641.5,-232 641.5,-202 426.5,-202"/>
<text text-anchor="start" x="434.5" y="-220" font-family="Helvetica,sans-Serif" font-size="10.00">gameAuthoring.scenes.path</text>
<text text-anchor="middle" x="534" y="-209" font-family="Helvetica,sans-Serif" font-size="10.00">Building.PathBuildingScene.isCurrentPane</text>
</a>
</g>
</g>
<!-- Node1&#45;&gt;Node3 -->
<g id="edge4" class="edge"><title>Node1&#45;&gt;Node3</title>
<path fill="none" stroke="midnightblue" d="M164.231,-174.387C234.515,-182.508 337.004,-194.352 416.107,-203.492"/>
<polygon fill="midnightblue" stroke="midnightblue" points="415.789,-206.979 426.124,-204.65 416.592,-200.025 415.789,-206.979"/>
</g>
<!-- Node4 -->
<g id="node4" class="node"><title>Node4</title>
<g id="a_node4"><a xlink:href="../../d6/d82/classgame_authoring_1_1scenes_1_1path_building_1_1_path_building_scene.html#acb18e6ea26b04bb83b91f3e385612fe6" target="_top" xlink:title="gameAuthoring.scenes.path\lBuilding.PathBuildingScene.deselect\lOptionsComponents">
<polygon fill="white" stroke="black" points="200.5,-120.5 200.5,-161.5 389.5,-161.5 389.5,-120.5 200.5,-120.5"/>
<text text-anchor="start" x="208.5" y="-149.5" font-family="Helvetica,sans-Serif" font-size="10.00">gameAuthoring.scenes.path</text>
<text text-anchor="start" x="208.5" y="-138.5" font-family="Helvetica,sans-Serif" font-size="10.00">Building.PathBuildingScene.deselect</text>
<text text-anchor="middle" x="295" y="-127.5" font-family="Helvetica,sans-Serif" font-size="10.00">OptionsComponents</text>
</a>
</g>
</g>
<!-- Node1&#45;&gt;Node4 -->
<g id="edge3" class="edge"><title>Node1&#45;&gt;Node4</title>
<path fill="none" stroke="midnightblue" d="M164.276,-155.755C172.787,-154.787 181.521,-153.794 190.238,-152.802"/>
<polygon fill="midnightblue" stroke="midnightblue" points="190.91,-156.249 200.45,-151.641 190.119,-149.293 190.91,-156.249"/>
</g>
<!-- Node5 -->
<g id="node5" class="node"><title>Node5</title>
<g id="a_node5"><a xlink:href="../../d6/d82/classgame_authoring_1_1scenes_1_1path_building_1_1_path_building_scene.html#aae116242235a0efa968985d96e6e385e" target="_top" xlink:title="gameAuthoring.scenes.path\lBuilding.PathBuildingScene.set\lCurrentBuildingPane">
<polygon fill="white" stroke="black" points="213,-60.5 213,-101.5 377,-101.5 377,-60.5 213,-60.5"/>
<text text-anchor="start" x="221" y="-89.5" font-family="Helvetica,sans-Serif" font-size="10.00">gameAuthoring.scenes.path</text>
<text text-anchor="start" x="221" y="-78.5" font-family="Helvetica,sans-Serif" font-size="10.00">Building.PathBuildingScene.set</text>
<text text-anchor="middle" x="295" y="-67.5" font-family="Helvetica,sans-Serif" font-size="10.00">CurrentBuildingPane</text>
</a>
</g>
</g>
<!-- Node1&#45;&gt;Node5 -->
<g id="edge5" class="edge"><title>Node1&#45;&gt;Node5</title>
<path fill="none" stroke="midnightblue" d="M124.158,-144.49C146.34,-133.823 174.352,-120.968 200,-111 205.37,-108.913 210.952,-106.857 216.596,-104.859"/>
<polygon fill="midnightblue" stroke="midnightblue" points="217.826,-108.137 226.13,-101.557 215.535,-101.522 217.826,-108.137"/>
</g>
<!-- Node2&#45;&gt;Node3 -->
<g id="edge2" class="edge"><title>Node2&#45;&gt;Node3</title>
<path fill="none" stroke="midnightblue" d="M378.226,-231.367C390.463,-230.231 403.271,-229.042 416.056,-227.856"/>
<polygon fill="midnightblue" stroke="midnightblue" points="416.658,-231.315 426.292,-226.905 416.011,-224.345 416.658,-231.315"/>
</g>
<!-- Node6 -->
<g id="node6" class="node"><title>Node6</title>
<g id="a_node6"><a xlink:href="../../d4/d78/classgame_authoring_1_1scenes_1_1path_building_1_1building_panes_1_1_building_pane.html#aaa45fd64c5462eda2ac271126820618c" target="_top" xlink:title="gameAuthoring.scenes.path\lBuilding.buildingPanes.Building\lPane.executeEnterFunction">
<polygon fill="white" stroke="black" points="452.5,-120.5 452.5,-161.5 615.5,-161.5 615.5,-120.5 452.5,-120.5"/>
<text text-anchor="start" x="460.5" y="-149.5" font-family="Helvetica,sans-Serif" font-size="10.00">gameAuthoring.scenes.path</text>
<text text-anchor="start" x="460.5" y="-138.5" font-family="Helvetica,sans-Serif" font-size="10.00">Building.buildingPanes.Building</text>
<text text-anchor="middle" x="534" y="-127.5" font-family="Helvetica,sans-Serif" font-size="10.00">Pane.executeEnterFunction</text>
</a>
</g>
</g>
<!-- Node5&#45;&gt;Node6 -->
<g id="edge6" class="edge"><title>Node5&#45;&gt;Node6</title>
<path fill="none" stroke="midnightblue" d="M377.23,-101.565C398.263,-106.889 421.039,-112.655 442.513,-118.092"/>
<polygon fill="midnightblue" stroke="midnightblue" points="441.724,-121.503 452.277,-120.564 443.442,-114.717 441.724,-121.503"/>
</g>
<!-- Node7 -->
<g id="node7" class="node"><title>Node7</title>
<g id="a_node7"><a xlink:href="../../d4/d78/classgame_authoring_1_1scenes_1_1path_building_1_1building_panes_1_1_building_pane.html#a44b447044a666a8265e7d4cccd8e6b08" target="_top" xlink:title="gameAuthoring.scenes.path\lBuilding.buildingPanes.Building\lPane.executeExitFunction">
<polygon fill="white" stroke="black" points="452.5,-60.5 452.5,-101.5 615.5,-101.5 615.5,-60.5 452.5,-60.5"/>
<text text-anchor="start" x="460.5" y="-89.5" font-family="Helvetica,sans-Serif" font-size="10.00">gameAuthoring.scenes.path</text>
<text text-anchor="start" x="460.5" y="-78.5" font-family="Helvetica,sans-Serif" font-size="10.00">Building.buildingPanes.Building</text>
<text text-anchor="middle" x="534" y="-67.5" font-family="Helvetica,sans-Serif" font-size="10.00">Pane.executeExitFunction</text>
</a>
</g>
</g>
<!-- Node5&#45;&gt;Node7 -->
<g id="edge7" class="edge"><title>Node5&#45;&gt;Node7</title>
<path fill="none" stroke="midnightblue" d="M377.23,-81C398.168,-81 420.834,-81 442.223,-81"/>
<polygon fill="midnightblue" stroke="midnightblue" points="442.277,-84.5001 452.277,-81 442.277,-77.5001 442.277,-84.5001"/>
</g>
<!-- Node8 -->
<g id="node8" class="node"><title>Node8</title>
<g id="a_node8"><a xlink:href="../../d4/d78/classgame_authoring_1_1scenes_1_1path_building_1_1building_panes_1_1_building_pane.html#a41c56b421d936126177667cf2c94afd4" target="_top" xlink:title="gameAuthoring.scenes.path\lBuilding.buildingPanes.Building\lPane.refreshScreen">
<polygon fill="white" stroke="black" points="452.5,-0.5 452.5,-41.5 615.5,-41.5 615.5,-0.5 452.5,-0.5"/>
<text text-anchor="start" x="460.5" y="-29.5" font-family="Helvetica,sans-Serif" font-size="10.00">gameAuthoring.scenes.path</text>
<text text-anchor="start" x="460.5" y="-18.5" font-family="Helvetica,sans-Serif" font-size="10.00">Building.buildingPanes.Building</text>
<text text-anchor="middle" x="534" y="-7.5" font-family="Helvetica,sans-Serif" font-size="10.00">Pane.refreshScreen</text>
</a>
</g>
</g>
<!-- Node5&#45;&gt;Node8 -->
<g id="edge8" class="edge"><title>Node5&#45;&gt;Node8</title>
<path fill="none" stroke="midnightblue" d="M377.23,-60.4353C398.263,-55.1107 421.039,-49.3445 442.513,-43.908"/>
<polygon fill="midnightblue" stroke="midnightblue" points="443.442,-47.2833 452.277,-41.4361 441.724,-40.4974 443.442,-47.2833"/>
</g>
</g>
</svg>
        <g id="navigator" transform="translate(0 0)" fill="#404254">
                <rect fill="#f2f5e9" fill-opacity="0.5" stroke="#606060" stroke-width=".5" x="0" y="0" width="60" height="60"/>
                <use id="zoomplus" xlink:href="#zoomPlus" x="17" y="9" onmousedown="handleZoom(evt,'in')"/>
                <use id="zoomminus" xlink:href="#zoomMin" x="42" y="9" onmousedown="handleZoom(evt,'out')"/>
                <use id="reset" xlink:href="#resetDef" x="30" y="36" onmousedown="handleReset()"/>
                <g id="arrowUp" xlink:href="#dirArrow" transform="translate(30 24)" onmousedown="handlePan(0,-1)">
                  <use xlink:href="#rim" fill="#404040">
                        <set attributeName="fill" to="#808080" begin="arrowUp.mouseover" end="arrowUp.mouseout"/>
                  </use>
                  <path fill="none" stroke="white" stroke-width="1.5" d="M0,-3.0v7 M-2.5,-0.5L0,-3.0L2.5,-0.5"/>
                </g>
                <g id="arrowRight" xlink:href="#dirArrow" transform="rotate(90) translate(36 -43)" onmousedown="handlePan(1,0)">
                  <use xlink:href="#rim" fill="#404040">
                        <set attributeName="fill" to="#808080" begin="arrowRight.mouseover" end="arrowRight.mouseout"/>
                  </use>
                  <path fill="none" stroke="white" stroke-width="1.5" d="M0,-3.0v7 M-2.5,-0.5L0,-3.0L2.5,-0.5"/>
                </g>
                <g id="arrowDown" xlink:href="#dirArrow" transform="rotate(180) translate(-30 -48)" onmousedown="handlePan(0,1)">
                  <use xlink:href="#rim" fill="#404040">
                        <set attributeName="fill" to="#808080" begin="arrowDown.mouseover" end="arrowDown.mouseout"/>
                  </use>
                  <path fill="none" stroke="white" stroke-width="1.5" d="M0,-3.0v7 M-2.5,-0.5L0,-3.0L2.5,-0.5"/>
                </g>
                <g id="arrowLeft" xlink:href="#dirArrow" transform="rotate(270) translate(-36 17)" onmousedown="handlePan(-1,0)">
                  <use xlink:href="#rim" fill="#404040">
                        <set attributeName="fill" to="#808080" begin="arrowLeft.mouseover" end="arrowLeft.mouseout"/>
                  </use>
                  <path fill="none" stroke="white" stroke-width="1.5" d="M0,-3.0v7 M-2.5,-0.5L0,-3.0L2.5,-0.5"/>
                </g>
        </g>
        <svg viewBox="0 0 15 15" width="100%" height="30px" preserveAspectRatio="xMaxYMin meet">
         <g id="arrow_out" transform="scale(0.3 0.3)">
          <a xlink:href="classgame_authoring_1_1scenes_1_1path_building_1_1_path_building_scene_a8c90615104b0968e1f02d4ee5f0116ba_cgraph_org.svg" target="_base">
           <rect id="button" ry="5" rx="5" y="6" x="6" height="38" width="38"
                fill="#f2f5e9" fill-opacity="0.5" stroke="#606060" stroke-width="1.0"/>
           <path id="arrow"
             d="M 11.500037,31.436501 C 11.940474,20.09759 22.043105,11.32322 32.158766,21.979434 L 37.068811,17.246167 C 37.068811,17.246167 37.088388,32 37.088388,32 L 22.160133,31.978069 C 22.160133,31.978069 26.997745,27.140456 26.997745,27.140456 C 18.528582,18.264221 13.291696,25.230495 11.500037,31.436501 z"
             style="fill:#404040;"/>
          </a>
         </g>
        </svg>
</svg>
