<?xml version="1.0" encoding="UTF-8" standalone="no"?>
<!DOCTYPE svg PUBLIC "-//W3C//DTD SVG 1.1//EN"
 "http://www.w3.org/Graphics/SVG/1.1/DTD/svg11.dtd">
<!-- Generated by graphviz version 2.36.0 (20140111.2315)
 -->
<!-- Title: gameAuthoring.scenes.pathBuilding.PathBuildingScene.proceedToEndLocationsSelection Pages: 1 -->
<svg width="636pt" height="169pt"
 viewBox="0.00 0.00 636.00 169.00" xmlns="http://www.w3.org/2000/svg" xmlns:xlink="http://www.w3.org/1999/xlink">
<g id="graph0" class="graph" transform="scale(1 1) rotate(0) translate(4 165)">
<title>gameAuthoring.scenes.pathBuilding.PathBuildingScene.proceedToEndLocationsSelection</title>
<polygon fill="white" stroke="none" points="-4,4 -4,-165 632,-165 632,4 -4,4"/>
<!-- Node1 -->
<g id="node1" class="node"><title>Node1</title>
<polygon fill="#bfbfbf" stroke="black" points="0,-29.5 0,-70.5 188,-70.5 188,-29.5 0,-29.5"/>
<text text-anchor="start" x="8" y="-58.5" font-family="Helvetica,sans-Serif" font-size="10.00">gameAuthoring.scenes.path</text>
<text text-anchor="start" x="8" y="-47.5" font-family="Helvetica,sans-Serif" font-size="10.00">Building.PathBuildingScene.proceed</text>
<text text-anchor="middle" x="94" y="-36.5" font-family="Helvetica,sans-Serif" font-size="10.00">ToEndLocationsSelection</text>
</g>
<!-- Node2 -->
<g id="node2" class="node"><title>Node2</title>
<g id="a_node2"><a xlink:href="../../d6/d82/classgame_authoring_1_1scenes_1_1path_building_1_1_path_building_scene.html#aae116242235a0efa968985d96e6e385e" target="_top" xlink:title="gameAuthoring.scenes.path\lBuilding.PathBuildingScene.set\lCurrentBuildingPane">
<polygon fill="white" stroke="black" points="244,-59.5 244,-100.5 408,-100.5 408,-59.5 244,-59.5"/>
<text text-anchor="start" x="252" y="-88.5" font-family="Helvetica,sans-Serif" font-size="10.00">gameAuthoring.scenes.path</text>
<text text-anchor="start" x="252" y="-77.5" font-family="Helvetica,sans-Serif" font-size="10.00">Building.PathBuildingScene.set</text>
<text text-anchor="middle" x="326" y="-66.5" font-family="Helvetica,sans-Serif" font-size="10.00">CurrentBuildingPane</text>
</a>
</g>
</g>
<!-- Node1&#45;&gt;Node2 -->
<g id="edge1" class="edge"><title>Node1&#45;&gt;Node2</title>
<path fill="none" stroke="midnightblue" d="M188.218,-62.1589C203.192,-64.112 218.677,-66.1318 233.608,-68.0793"/>
<polygon fill="midnightblue" stroke="midnightblue" points="233.474,-71.5913 243.842,-69.4142 234.379,-64.6501 233.474,-71.5913"/>
</g>
<!-- Node6 -->
<g id="node6" class="node"><title>Node6</title>
<g id="a_node6"><a xlink:href="../../d1/d65/classgame_authoring_1_1scenes_1_1path_building_1_1path_components_1_1_path.html#a6ec84a215098f0443cf07cd553bb07e6" target="_top" xlink:title="gameAuthoring.scenes.path\lBuilding.pathComponents.Path.starting\lLocationsConfiguredCorrectly">
<polygon fill="white" stroke="black" points="224,0.5 224,-40.5 428,-40.5 428,0.5 224,0.5"/>
<text text-anchor="start" x="232" y="-28.5" font-family="Helvetica,sans-Serif" font-size="10.00">gameAuthoring.scenes.path</text>
<text text-anchor="start" x="232" y="-17.5" font-family="Helvetica,sans-Serif" font-size="10.00">Building.pathComponents.Path.starting</text>
<text text-anchor="middle" x="326" y="-6.5" font-family="Helvetica,sans-Serif" font-size="10.00">LocationsConfiguredCorrectly</text>
</a>
</g>
</g>
<!-- Node1&#45;&gt;Node6 -->
<g id="edge5" class="edge"><title>Node1&#45;&gt;Node6</title>
<path fill="none" stroke="midnightblue" d="M188.218,-37.8411C196.631,-36.7437 205.206,-35.6253 213.753,-34.5105"/>
<polygon fill="midnightblue" stroke="midnightblue" points="214.298,-37.9691 223.762,-33.205 213.393,-31.0279 214.298,-37.9691"/>
</g>
<!-- Node3 -->
<g id="node3" class="node"><title>Node3</title>
<g id="a_node3"><a xlink:href="../../d4/d78/classgame_authoring_1_1scenes_1_1path_building_1_1building_panes_1_1_building_pane.html#a44b447044a666a8265e7d4cccd8e6b08" target="_top" xlink:title="gameAuthoring.scenes.path\lBuilding.buildingPanes.Building\lPane.executeExitFunction">
<polygon fill="white" stroke="black" points="464.5,-119.5 464.5,-160.5 627.5,-160.5 627.5,-119.5 464.5,-119.5"/>
<text text-anchor="start" x="472.5" y="-148.5" font-family="Helvetica,sans-Serif" font-size="10.00">gameAuthoring.scenes.path</text>
<text text-anchor="start" x="472.5" y="-137.5" font-family="Helvetica,sans-Serif" font-size="10.00">Building.buildingPanes.Building</text>
<text text-anchor="middle" x="546" y="-126.5" font-family="Helvetica,sans-Serif" font-size="10.00">Pane.executeExitFunction</text>
</a>
</g>
</g>
<!-- Node2&#45;&gt;Node3 -->
<g id="edge2" class="edge"><title>Node2&#45;&gt;Node3</title>
<path fill="none" stroke="midnightblue" d="M401.718,-100.565C420.698,-105.788 441.221,-111.437 460.643,-116.782"/>
<polygon fill="midnightblue" stroke="midnightblue" points="459.809,-120.183 470.379,-119.462 461.667,-113.434 459.809,-120.183"/>
</g>
<!-- Node4 -->
<g id="node4" class="node"><title>Node4</title>
<g id="a_node4"><a xlink:href="../../d4/d78/classgame_authoring_1_1scenes_1_1path_building_1_1building_panes_1_1_building_pane.html#aaa45fd64c5462eda2ac271126820618c" target="_top" xlink:title="gameAuthoring.scenes.path\lBuilding.buildingPanes.Building\lPane.executeEnterFunction">
<polygon fill="white" stroke="black" points="464.5,-59.5 464.5,-100.5 627.5,-100.5 627.5,-59.5 464.5,-59.5"/>
<text text-anchor="start" x="472.5" y="-88.5" font-family="Helvetica,sans-Serif" font-size="10.00">gameAuthoring.scenes.path</text>
<text text-anchor="start" x="472.5" y="-77.5" font-family="Helvetica,sans-Serif" font-size="10.00">Building.buildingPanes.Building</text>
<text text-anchor="middle" x="546" y="-66.5" font-family="Helvetica,sans-Serif" font-size="10.00">Pane.executeEnterFunction</text>
</a>
</g>
</g>
<!-- Node2&#45;&gt;Node4 -->
<g id="edge3" class="edge"><title>Node2&#45;&gt;Node4</title>
<path fill="none" stroke="midnightblue" d="M408.175,-80C423.269,-80 439.126,-80 454.48,-80"/>
<polygon fill="midnightblue" stroke="midnightblue" points="454.483,-83.5001 464.483,-80 454.483,-76.5001 454.483,-83.5001"/>
</g>
<!-- Node5 -->
<g id="node5" class="node"><title>Node5</title>
<g id="a_node5"><a xlink:href="../../d4/d78/classgame_authoring_1_1scenes_1_1path_building_1_1building_panes_1_1_building_pane.html#a41c56b421d936126177667cf2c94afd4" target="_top" xlink:title="gameAuthoring.scenes.path\lBuilding.buildingPanes.Building\lPane.refreshScreen">
<polygon fill="white" stroke="black" points="464.5,0.5 464.5,-40.5 627.5,-40.5 627.5,0.5 464.5,0.5"/>
<text text-anchor="start" x="472.5" y="-28.5" font-family="Helvetica,sans-Serif" font-size="10.00">gameAuthoring.scenes.path</text>
<text text-anchor="start" x="472.5" y="-17.5" font-family="Helvetica,sans-Serif" font-size="10.00">Building.buildingPanes.Building</text>
<text text-anchor="middle" x="546" y="-6.5" font-family="Helvetica,sans-Serif" font-size="10.00">Pane.refreshScreen</text>
</a>
</g>
</g>
<!-- Node2&#45;&gt;Node5 -->
<g id="edge4" class="edge"><title>Node2&#45;&gt;Node5</title>
<path fill="none" stroke="midnightblue" d="M401.718,-59.4353C420.698,-54.2117 441.221,-48.5631 460.643,-43.2176"/>
<polygon fill="midnightblue" stroke="midnightblue" points="461.667,-46.566 470.379,-40.5378 459.809,-39.817 461.667,-46.566"/>
</g>
</g>
</svg>
