<?xml version="1.0" encoding="UTF-8" standalone="no"?>
<!DOCTYPE svg PUBLIC "-//W3C//DTD SVG 1.1//EN"
 "http://www.w3.org/Graphics/SVG/1.1/DTD/svg11.dtd">
<!-- Generated by graphviz version 2.36.0 (20140111.2315)
 -->
<!-- Title: gameAuthoring.scenes.pathBuilding.PathBuildingScene.isCurrentPane Pages: 1 -->
<!--zoomable 75 -->
<svg id="main" version="1.1" xmlns="http://www.w3.org/2000/svg" xmlns:xlink="http://www.w3.org/1999/xlink" xml:space="preserve" onload="init(evt)">
<style type="text/css"><![CDATA[
.edge:hover path { stroke: red; }
.edge:hover polygon { stroke: red; fill: red; }
]]></style>
<script type="text/javascript"><![CDATA[
var edges = document.getElementsByTagName('g');
if (edges && edges.length) {
  for (var i=0;i<edges.length;i++) {
    if (edges[i].id.substr(0,4)=='edge') {
      edges[i].setAttribute('class','edge');
    }
  }
}
]]></script>
        <defs>
                <circle id="rim" cx="0" cy="0" r="7"/>
                <circle id="rim2" cx="0" cy="0" r="3.5"/>
                <g id="zoomPlus">
                        <use xlink:href="#rim" fill="#404040">
                                <set attributeName="fill" to="#808080" begin="zoomplus.mouseover" end="zoomplus.mouseout"/>
                        </use>
                        <path d="M-4,0h8M0,-4v8" fill="none" stroke="white" stroke-width="1.5" pointer-events="none"/>
                </g>
                <g id="zoomMin">
                        <use xlink:href="#rim" fill="#404040">
                                <set attributeName="fill" to="#808080" begin="zoomminus.mouseover" end="zoomminus.mouseout"/>
                        </use>
                        <path d="M-4,0h8" fill="none" stroke="white" stroke-width="1.5" pointer-events="none"/>
                </g>
                <g id="dirArrow">
                        <path fill="none" stroke="white" stroke-width="1.5" d="M0,-3.0v7 M-2.5,-0.5L0,-3.0L2.5,-0.5"/>
                </g>
               <g id="resetDef">
                       <use xlink:href="#rim2" fill="#404040">
                               <set attributeName="fill" to="#808080" begin="reset.mouseover" end="reset.mouseout"/>
                       </use>
               </g>
        </defs>

<script type="text/javascript">
var viewWidth = 1248;
var viewHeight = 75;
var sectionId = 'dynsection-17';
</script>
<script xlink:href="../../svgpan.js"/>
<svg id="graph" class="graph">
<g id="viewport">
<title>gameAuthoring.scenes.pathBuilding.PathBuildingScene.isCurrentPane</title>
<polygon fill="white" stroke="none" points="-4,4 -4,-71 1244,-71 1244,4 -4,4"/>
<!-- Node1 -->
<g id="node1" class="node"><title>Node1</title>
<polygon fill="#bfbfbf" stroke="black" points="0.5,-6 0.5,-36 215.5,-36 215.5,-6 0.5,-6"/>
<text text-anchor="start" x="8.5" y="-24" font-family="Helvetica,sans-Serif" font-size="10.00">gameAuthoring.scenes.path</text>
<text text-anchor="middle" x="108" y="-13" font-family="Helvetica,sans-Serif" font-size="10.00">Building.PathBuildingScene.isCurrentPane</text>
</g>
<!-- Node2 -->
<g id="node2" class="node"><title>Node2</title>
<g id="a_node2"><a xlink:href="../../d6/d82/classgame_authoring_1_1scenes_1_1path_building_1_1_path_building_scene.html#aa76b1ea77eec6b9d9c5421d3788cb313" target="_top" xlink:title="gameAuthoring.scenes.path\lBuilding.PathBuildingScene.can\lDrawPathComponents">
<polygon fill="white" stroke="black" points="252,-25.5 252,-66.5 418,-66.5 418,-25.5 252,-25.5"/>
<text text-anchor="start" x="260" y="-54.5" font-family="Helvetica,sans-Serif" font-size="10.00">gameAuthoring.scenes.path</text>
<text text-anchor="start" x="260" y="-43.5" font-family="Helvetica,sans-Serif" font-size="10.00">Building.PathBuildingScene.can</text>
<text text-anchor="middle" x="335" y="-32.5" font-family="Helvetica,sans-Serif" font-size="10.00">DrawPathComponents</text>
</a>
</g>
</g>
<!-- Node1&#45;&gt;Node2 -->
<g id="edge1" class="edge"><title>Node1&#45;&gt;Node2</title>
<path fill="none" stroke="midnightblue" d="M225.549,-33.9499C234.385,-34.9317 243.188,-35.9097 251.739,-36.8599"/>
<polygon fill="midnightblue" stroke="midnightblue" points="225.895,-30.4669 215.57,-32.8411 225.122,-37.4241 225.895,-30.4669"/>
</g>
<!-- Node3 -->
<g id="node3" class="node"><title>Node3</title>
<g id="a_node3"><a xlink:href="../../d6/d82/classgame_authoring_1_1scenes_1_1path_building_1_1_path_building_scene.html#a8c90615104b0968e1f02d4ee5f0116ba" target="_top" xlink:title="gameAuthoring.scenes.path\lBuilding.PathBuildingScene.set\lCurrentDrawingPane">
<polygon fill="white" stroke="black" points="454,-0.5 454,-41.5 618,-41.5 618,-0.5 454,-0.5"/>
<text text-anchor="start" x="462" y="-29.5" font-family="Helvetica,sans-Serif" font-size="10.00">gameAuthoring.scenes.path</text>
<text text-anchor="start" x="462" y="-18.5" font-family="Helvetica,sans-Serif" font-size="10.00">Building.PathBuildingScene.set</text>
<text text-anchor="middle" x="536" y="-7.5" font-family="Helvetica,sans-Serif" font-size="10.00">CurrentDrawingPane</text>
</a>
</g>
</g>
<!-- Node1&#45;&gt;Node3 -->
<g id="edge6" class="edge"><title>Node1&#45;&gt;Node3</title>
<path fill="none" stroke="midnightblue" d="M225.654,-16.5845C234.568,-16.3501 243.428,-16.1498 252,-16 325.767,-14.7108 344.239,-14.4246 418,-16 429.586,-16.2475 441.813,-16.6326 453.821,-17.0818"/>
<polygon fill="midnightblue" stroke="midnightblue" points="225.479,-13.088 215.58,-16.8629 225.672,-20.0853 225.479,-13.088"/>
</g>
<!-- Node2&#45;&gt;Node3 -->
<g id="edge2" class="edge"><title>Node2&#45;&gt;Node3</title>
<path fill="none" stroke="midnightblue" d="M428.091,-34.4308C436.653,-33.3552 445.288,-32.2704 453.741,-31.2085"/>
<polygon fill="midnightblue" stroke="midnightblue" points="427.576,-30.9679 418.09,-35.6872 428.448,-37.9133 427.576,-30.9679"/>
</g>
<!-- Node4 -->
<g id="node4" class="node"><title>Node4</title>
<g id="a_node4"><a xlink:href="../../d6/d82/classgame_authoring_1_1scenes_1_1path_building_1_1_path_building_scene.html#adb120be479f6c84517e189aca0addc6f" target="_top" xlink:title="gameAuthoring.scenes.path\lBuilding.PathBuildingScene.get\lBuildingOptionsPane">
<polygon fill="white" stroke="black" points="654,-0.5 654,-41.5 818,-41.5 818,-0.5 654,-0.5"/>
<text text-anchor="start" x="662" y="-29.5" font-family="Helvetica,sans-Serif" font-size="10.00">gameAuthoring.scenes.path</text>
<text text-anchor="start" x="662" y="-18.5" font-family="Helvetica,sans-Serif" font-size="10.00">Building.PathBuildingScene.get</text>
<text text-anchor="middle" x="736" y="-7.5" font-family="Helvetica,sans-Serif" font-size="10.00">BuildingOptionsPane</text>
</a>
</g>
</g>
<!-- Node3&#45;&gt;Node4 -->
<g id="edge3" class="edge"><title>Node3&#45;&gt;Node4</title>
<path fill="none" stroke="midnightblue" d="M628.363,-21C636.817,-21 645.346,-21 653.7,-21"/>
<polygon fill="midnightblue" stroke="midnightblue" points="628.106,-17.5001 618.105,-21 628.105,-24.5001 628.106,-17.5001"/>
</g>
<!-- Node5 -->
<g id="node5" class="node"><title>Node5</title>
<g id="a_node5"><a xlink:href="../../d6/d82/classgame_authoring_1_1scenes_1_1path_building_1_1_path_building_scene.html#a9e29faac2f6cb3602cf3bc2b6de78f5e" target="_top" xlink:title="gameAuthoring.scenes.path\lBuilding.PathBuildingScene.create\lPathBuildingOptions">
<polygon fill="white" stroke="black" points="854.5,-0.5 854.5,-41.5 1033.5,-41.5 1033.5,-0.5 854.5,-0.5"/>
<text text-anchor="start" x="862.5" y="-29.5" font-family="Helvetica,sans-Serif" font-size="10.00">gameAuthoring.scenes.path</text>
<text text-anchor="start" x="862.5" y="-18.5" font-family="Helvetica,sans-Serif" font-size="10.00">Building.PathBuildingScene.create</text>
<text text-anchor="middle" x="944" y="-7.5" font-family="Helvetica,sans-Serif" font-size="10.00">PathBuildingOptions</text>
</a>
</g>
</g>
<!-- Node4&#45;&gt;Node5 -->
<g id="edge4" class="edge"><title>Node4&#45;&gt;Node5</title>
<path fill="none" stroke="midnightblue" d="M828.273,-21C836.979,-21 845.797,-21 854.476,-21"/>
<polygon fill="midnightblue" stroke="midnightblue" points="828.121,-17.5001 818.121,-21 828.121,-24.5001 828.121,-17.5001"/>
</g>
<!-- Node6 -->
<g id="node6" class="node"><title>Node6</title>
<g id="a_node6"><a xlink:href="../../d6/d82/classgame_authoring_1_1scenes_1_1path_building_1_1_path_building_scene.html#aa265fe743457d8feda83464c9af1f288" target="_top" xlink:title="gameAuthoring.scenes.path\lBuilding.PathBuildingScene.Path\lBuildingScene">
<polygon fill="white" stroke="black" points="1070,-0.5 1070,-41.5 1240,-41.5 1240,-0.5 1070,-0.5"/>
<text text-anchor="start" x="1078" y="-29.5" font-family="Helvetica,sans-Serif" font-size="10.00">gameAuthoring.scenes.path</text>
<text text-anchor="start" x="1078" y="-18.5" font-family="Helvetica,sans-Serif" font-size="10.00">Building.PathBuildingScene.Path</text>
<text text-anchor="middle" x="1155" y="-7.5" font-family="Helvetica,sans-Serif" font-size="10.00">BuildingScene</text>
</a>
</g>
</g>
<!-- Node5&#45;&gt;Node6 -->
<g id="edge5" class="edge"><title>Node5&#45;&gt;Node6</title>
<path fill="none" stroke="midnightblue" d="M1043.83,-21C1052.54,-21 1061.31,-21 1069.89,-21"/>
<polygon fill="midnightblue" stroke="midnightblue" points="1043.63,-17.5001 1033.63,-21 1043.63,-24.5001 1043.63,-17.5001"/>
</g>
</g>
</svg>
        <g id="navigator" transform="translate(0 0)" fill="#404254">
                <rect fill="#f2f5e9" fill-opacity="0.5" stroke="#606060" stroke-width=".5" x="0" y="0" width="60" height="60"/>
                <use id="zoomplus" xlink:href="#zoomPlus" x="17" y="9" onmousedown="handleZoom(evt,'in')"/>
                <use id="zoomminus" xlink:href="#zoomMin" x="42" y="9" onmousedown="handleZoom(evt,'out')"/>
                <use id="reset" xlink:href="#resetDef" x="30" y="36" onmousedown="handleReset()"/>
                <g id="arrowUp" xlink:href="#dirArrow" transform="translate(30 24)" onmousedown="handlePan(0,-1)">
                  <use xlink:href="#rim" fill="#404040">
                        <set attributeName="fill" to="#808080" begin="arrowUp.mouseover" end="arrowUp.mouseout"/>
                  </use>
                  <path fill="none" stroke="white" stroke-width="1.5" d="M0,-3.0v7 M-2.5,-0.5L0,-3.0L2.5,-0.5"/>
                </g>
                <g id="arrowRight" xlink:href="#dirArrow" transform="rotate(90) translate(36 -43)" onmousedown="handlePan(1,0)">
                  <use xlink:href="#rim" fill="#404040">
                        <set attributeName="fill" to="#808080" begin="arrowRight.mouseover" end="arrowRight.mouseout"/>
                  </use>
                  <path fill="none" stroke="white" stroke-width="1.5" d="M0,-3.0v7 M-2.5,-0.5L0,-3.0L2.5,-0.5"/>
                </g>
                <g id="arrowDown" xlink:href="#dirArrow" transform="rotate(180) translate(-30 -48)" onmousedown="handlePan(0,1)">
                  <use xlink:href="#rim" fill="#404040">
                        <set attributeName="fill" to="#808080" begin="arrowDown.mouseover" end="arrowDown.mouseout"/>
                  </use>
                  <path fill="none" stroke="white" stroke-width="1.5" d="M0,-3.0v7 M-2.5,-0.5L0,-3.0L2.5,-0.5"/>
                </g>
                <g id="arrowLeft" xlink:href="#dirArrow" transform="rotate(270) translate(-36 17)" onmousedown="handlePan(-1,0)">
                  <use xlink:href="#rim" fill="#404040">
                        <set attributeName="fill" to="#808080" begin="arrowLeft.mouseover" end="arrowLeft.mouseout"/>
                  </use>
                  <path fill="none" stroke="white" stroke-width="1.5" d="M0,-3.0v7 M-2.5,-0.5L0,-3.0L2.5,-0.5"/>
                </g>
        </g>
        <svg viewBox="0 0 15 15" width="100%" height="30px" preserveAspectRatio="xMaxYMin meet">
         <g id="arrow_out" transform="scale(0.3 0.3)">
          <a xlink:href="classgame_authoring_1_1scenes_1_1path_building_1_1_path_building_scene_abdf4eb46d826f9c2a553a93c98381dbf_icgraph_org.svg" target="_base">
           <rect id="button" ry="5" rx="5" y="6" x="6" height="38" width="38"
                fill="#f2f5e9" fill-opacity="0.5" stroke="#606060" stroke-width="1.0"/>
           <path id="arrow"
             d="M 11.500037,31.436501 C 11.940474,20.09759 22.043105,11.32322 32.158766,21.979434 L 37.068811,17.246167 C 37.068811,17.246167 37.088388,32 37.088388,32 L 22.160133,31.978069 C 22.160133,31.978069 26.997745,27.140456 26.997745,27.140456 C 18.528582,18.264221 13.291696,25.230495 11.500037,31.436501 z"
             style="fill:#404040;"/>
          </a>
         </g>
        </svg>
</svg>
