<?xml version="1.0" encoding="UTF-8" standalone="no"?>
<!DOCTYPE svg PUBLIC "-//W3C//DTD SVG 1.1//EN"
 "http://www.w3.org/Graphics/SVG/1.1/DTD/svg11.dtd">
<!-- Generated by graphviz version 2.36.0 (20140111.2315)
 -->
<!-- Title: gameAuthoring.scenes.pathBuilding.PathBuildingScene.createPathBuildingOptions Pages: 1 -->
<svg width="394pt" height="48pt"
 viewBox="0.00 0.00 394.00 48.00" xmlns="http://www.w3.org/2000/svg" xmlns:xlink="http://www.w3.org/1999/xlink">
<g id="graph0" class="graph" transform="scale(1 1) rotate(0) translate(4 44)">
<title>gameAuthoring.scenes.pathBuilding.PathBuildingScene.createPathBuildingOptions</title>
<polygon fill="white" stroke="none" points="-4,4 -4,-44 390,-44 390,4 -4,4"/>
<!-- Node1 -->
<g id="node1" class="node"><title>Node1</title>
<polygon fill="#bfbfbf" stroke="black" points="0.5,0.5 0.5,-40.5 179.5,-40.5 179.5,0.5 0.5,0.5"/>
<text text-anchor="start" x="8.5" y="-28.5" font-family="Helvetica,sans-Serif" font-size="10.00">gameAuthoring.scenes.path</text>
<text text-anchor="start" x="8.5" y="-17.5" font-family="Helvetica,sans-Serif" font-size="10.00">Building.PathBuildingScene.create</text>
<text text-anchor="middle" x="90" y="-6.5" font-family="Helvetica,sans-Serif" font-size="10.00">PathBuildingOptions</text>
</g>
<!-- Node2 -->
<g id="node2" class="node"><title>Node2</title>
<g id="a_node2"><a xlink:href="../../d6/d82/classgame_authoring_1_1scenes_1_1path_building_1_1_path_building_scene.html#aa265fe743457d8feda83464c9af1f288" target="_top" xlink:title="gameAuthoring.scenes.path\lBuilding.PathBuildingScene.Path\lBuildingScene">
<polygon fill="white" stroke="black" points="216,0.5 216,-40.5 386,-40.5 386,0.5 216,0.5"/>
<text text-anchor="start" x="224" y="-28.5" font-family="Helvetica,sans-Serif" font-size="10.00">gameAuthoring.scenes.path</text>
<text text-anchor="start" x="224" y="-17.5" font-family="Helvetica,sans-Serif" font-size="10.00">Building.PathBuildingScene.Path</text>
<text text-anchor="middle" x="301" y="-6.5" font-family="Helvetica,sans-Serif" font-size="10.00">BuildingScene</text>
</a>
</g>
</g>
<!-- Node1&#45;&gt;Node2 -->
<g id="edge1" class="edge"><title>Node1&#45;&gt;Node2</title>
<path fill="none" stroke="midnightblue" d="M189.826,-20C198.541,-20 207.309,-20 215.886,-20"/>
<polygon fill="midnightblue" stroke="midnightblue" points="189.635,-16.5001 179.635,-20 189.635,-23.5001 189.635,-16.5001"/>
</g>
</g>
</svg>
