<?xml version="1.0" encoding="UTF-8" standalone="no"?>
<!DOCTYPE svg PUBLIC "-//W3C//DTD SVG 1.1//EN"
 "http://www.w3.org/Graphics/SVG/1.1/DTD/svg11.dtd">
<!-- Generated by graphviz version 2.36.0 (20140111.2315)
 -->
<!-- Title: gamePlayer.guiItems.towerUpgrade.TowerUpgradePanel.initialize Pages: 1 -->
<svg width="1138pt" height="234pt"
 viewBox="0.00 0.00 1138.00 234.00" xmlns="http://www.w3.org/2000/svg" xmlns:xlink="http://www.w3.org/1999/xlink">
<g id="graph0" class="graph" transform="scale(1 1) rotate(0) translate(4 230)">
<title>gamePlayer.guiItems.towerUpgrade.TowerUpgradePanel.initialize</title>
<polygon fill="white" stroke="none" points="-4,4 -4,-230 1134,-230 1134,4 -4,4"/>
<!-- Node1 -->
<g id="node1" class="node"><title>Node1</title>
<polygon fill="#bfbfbf" stroke="black" points="0.5,-98 0.5,-128 195.5,-128 195.5,-98 0.5,-98"/>
<text text-anchor="start" x="8.5" y="-116" font-family="Helvetica,sans-Serif" font-size="10.00">gamePlayer.guiItems.tower</text>
<text text-anchor="middle" x="98" y="-105" font-family="Helvetica,sans-Serif" font-size="10.00">Upgrade.TowerUpgradePanel.initialize</text>
</g>
<!-- Node2 -->
<g id="node2" class="node"><title>Node2</title>
<g id="a_node2"><a xlink:href="../../d4/dfb/classutilities_1_1_java_f_xutilities_1_1ratio_sizing_1_1_ratios_to_dim.html#ab3d9988b529c32ef726dc3891257e00e" target="_top" xlink:title="utilities.JavaFXutilities.ratio\lSizing.RatiosToDim.convert">
<polygon fill="white" stroke="black" points="264,-196 264,-226 410,-226 410,-196 264,-196"/>
<text text-anchor="start" x="272" y="-214" font-family="Helvetica,sans-Serif" font-size="10.00">utilities.JavaFXutilities.ratio</text>
<text text-anchor="middle" x="337" y="-203" font-family="Helvetica,sans-Serif" font-size="10.00">Sizing.RatiosToDim.convert</text>
</a>
</g>
</g>
<!-- Node1&#45;&gt;Node2 -->
<g id="edge1" class="edge"><title>Node1&#45;&gt;Node2</title>
<path fill="none" stroke="midnightblue" d="M122.103,-128.173C147.93,-144.532 191.464,-170.327 232,-186 239.124,-188.755 246.644,-191.269 254.248,-193.55"/>
<polygon fill="midnightblue" stroke="midnightblue" points="253.325,-196.927 263.902,-196.315 255.252,-190.197 253.325,-196.927"/>
</g>
<!-- Node3 -->
<g id="node3" class="node"><title>Node3</title>
<g id="a_node3"><a xlink:href="../../d1/d18/classgame_player_1_1gui_items_1_1tower_upgrade_1_1_tower_upgrade_panel.html#aa9ca9c36815f56635633e9f3b58da1bd" target="_top" xlink:title="gamePlayer.guiItems.tower\lUpgrade.TowerUpgradePanel.doUpgrade">
<polygon fill="white" stroke="black" points="232,-98 232,-128 442,-128 442,-98 232,-98"/>
<text text-anchor="start" x="240" y="-116" font-family="Helvetica,sans-Serif" font-size="10.00">gamePlayer.guiItems.tower</text>
<text text-anchor="middle" x="337" y="-105" font-family="Helvetica,sans-Serif" font-size="10.00">Upgrade.TowerUpgradePanel.doUpgrade</text>
</a>
</g>
</g>
<!-- Node1&#45;&gt;Node3 -->
<g id="edge2" class="edge"><title>Node1&#45;&gt;Node3</title>
<path fill="none" stroke="midnightblue" d="M195.739,-113C204.294,-113 213.007,-113 221.689,-113"/>
<polygon fill="midnightblue" stroke="midnightblue" points="221.856,-116.5 231.856,-113 221.856,-109.5 221.856,-116.5"/>
</g>
<!-- Node6 -->
<g id="node6" class="node"><title>Node6</title>
<g id="a_node6"><a xlink:href="../../df/db4/classutilities_1_1_x_m_l_parsing_1_1_x_m_l_parser.html#aac8c276e1fe06546bb4cc6488dd15047" target="_top" xlink:title="utilities.XMLParsing.XMLParser.get\lDimension">
<polygon fill="white" stroke="black" points="248,-147 248,-177 426,-177 426,-147 248,-147"/>
<text text-anchor="start" x="256" y="-165" font-family="Helvetica,sans-Serif" font-size="10.00">utilities.XMLParsing.XMLParser.get</text>
<text text-anchor="middle" x="337" y="-154" font-family="Helvetica,sans-Serif" font-size="10.00">Dimension</text>
</a>
</g>
</g>
<!-- Node1&#45;&gt;Node6 -->
<g id="edge5" class="edge"><title>Node1&#45;&gt;Node6</title>
<path fill="none" stroke="midnightblue" d="M171.718,-128.035C197.539,-133.373 226.785,-139.42 253.372,-144.917"/>
<polygon fill="midnightblue" stroke="midnightblue" points="252.918,-148.397 263.419,-146.994 254.335,-141.542 252.918,-148.397"/>
</g>
<!-- Node10 -->
<g id="node10" class="node"><title>Node10</title>
<g id="a_node10"><a xlink:href="../../d8/dbf/interfacegame_player_1_1gui_items_listeners_1_1_upgrade_listener.html#a8637625406af942f1fad630dc92c444f" target="_top" xlink:title="gamePlayer.guiItemsListeners.\lUpgradeListener.registerUpgradePanel">
<polygon fill="white" stroke="black" points="236,-49 236,-79 438,-79 438,-49 236,-49"/>
<text text-anchor="start" x="244" y="-67" font-family="Helvetica,sans-Serif" font-size="10.00">gamePlayer.guiItemsListeners.</text>
<text text-anchor="middle" x="337" y="-56" font-family="Helvetica,sans-Serif" font-size="10.00">UpgradeListener.registerUpgradePanel</text>
</a>
</g>
</g>
<!-- Node1&#45;&gt;Node10 -->
<g id="edge9" class="edge"><title>Node1&#45;&gt;Node10</title>
<path fill="none" stroke="midnightblue" d="M171.718,-97.9654C197.539,-92.627 226.785,-86.5802 253.372,-81.0834"/>
<polygon fill="midnightblue" stroke="midnightblue" points="254.335,-84.4585 263.419,-79.0062 252.918,-77.6034 254.335,-84.4585"/>
</g>
<!-- Node11 -->
<g id="node11" class="node"><title>Node11</title>
<g id="a_node11"><a xlink:href="../../d1/d18/classgame_player_1_1gui_items_1_1tower_upgrade_1_1_tower_upgrade_panel.html#a2d1b38c9468cc9c7670e5c1c94fe8fb0" target="_top" xlink:title="gamePlayer.guiItems.tower\lUpgrade.TowerUpgradePanel.sell">
<polygon fill="white" stroke="black" points="250.5,-0 250.5,-30 423.5,-30 423.5,-0 250.5,-0"/>
<text text-anchor="start" x="258.5" y="-18" font-family="Helvetica,sans-Serif" font-size="10.00">gamePlayer.guiItems.tower</text>
<text text-anchor="middle" x="337" y="-7" font-family="Helvetica,sans-Serif" font-size="10.00">Upgrade.TowerUpgradePanel.sell</text>
</a>
</g>
</g>
<!-- Node1&#45;&gt;Node11 -->
<g id="edge10" class="edge"><title>Node1&#45;&gt;Node11</title>
<path fill="none" stroke="midnightblue" d="M122.103,-97.8267C147.93,-81.4683 191.464,-55.6732 232,-40 238.668,-37.4217 245.683,-35.0535 252.789,-32.8905"/>
<polygon fill="midnightblue" stroke="midnightblue" points="253.885,-36.217 262.513,-30.0676 251.933,-29.4946 253.885,-36.217"/>
</g>
<!-- Node4 -->
<g id="node4" class="node"><title>Node4</title>
<g id="a_node4"><a xlink:href="../../d1/d18/classgame_player_1_1gui_items_1_1tower_upgrade_1_1_tower_upgrade_panel.html#a4dd7a166c98ebf68effcd02c939bd544" target="_top" xlink:title="gamePlayer.guiItems.tower\lUpgrade.TowerUpgradePanel.deselectTower">
<polygon fill="white" stroke="black" points="478,-49 478,-79 702,-79 702,-49 478,-49"/>
<text text-anchor="start" x="486" y="-67" font-family="Helvetica,sans-Serif" font-size="10.00">gamePlayer.guiItems.tower</text>
<text text-anchor="middle" x="590" y="-56" font-family="Helvetica,sans-Serif" font-size="10.00">Upgrade.TowerUpgradePanel.deselectTower</text>
</a>
</g>
</g>
<!-- Node3&#45;&gt;Node4 -->
<g id="edge3" class="edge"><title>Node3&#45;&gt;Node4</title>
<path fill="none" stroke="midnightblue" d="M415.014,-97.9654C442.6,-92.58 473.88,-86.4736 502.235,-80.9382"/>
<polygon fill="midnightblue" stroke="midnightblue" points="502.987,-84.3574 512.132,-79.0062 501.646,-77.4871 502.987,-84.3574"/>
</g>
<!-- Node5 -->
<g id="node5" class="node"><title>Node5</title>
<g id="a_node5"><a xlink:href="../../d8/dbf/interfacegame_player_1_1gui_items_listeners_1_1_upgrade_listener.html#a482774421a9c8ce3a61a457031af137e" target="_top" xlink:title="gamePlayer.guiItemsListeners.\lUpgradeListener.upgradeTower">
<polygon fill="white" stroke="black" points="508,-98 508,-128 672,-128 672,-98 508,-98"/>
<text text-anchor="start" x="516" y="-116" font-family="Helvetica,sans-Serif" font-size="10.00">gamePlayer.guiItemsListeners.</text>
<text text-anchor="middle" x="590" y="-105" font-family="Helvetica,sans-Serif" font-size="10.00">UpgradeListener.upgradeTower</text>
</a>
</g>
</g>
<!-- Node3&#45;&gt;Node5 -->
<g id="edge4" class="edge"><title>Node3&#45;&gt;Node5</title>
<path fill="none" stroke="midnightblue" d="M442.266,-113C460.591,-113 479.539,-113 497.484,-113"/>
<polygon fill="midnightblue" stroke="midnightblue" points="497.629,-116.5 507.629,-113 497.629,-109.5 497.629,-116.5"/>
</g>
<!-- Node7 -->
<g id="node7" class="node"><title>Node7</title>
<g id="a_node7"><a xlink:href="../../df/db4/classutilities_1_1_x_m_l_parsing_1_1_x_m_l_parser.html#a159b395412a8ce61e6decfefc9ed9854" target="_top" xlink:title="utilities.XMLParsing.XMLParser.get\lDoubleValuesFromTag">
<polygon fill="white" stroke="black" points="501,-147 501,-177 679,-177 679,-147 501,-147"/>
<text text-anchor="start" x="509" y="-165" font-family="Helvetica,sans-Serif" font-size="10.00">utilities.XMLParsing.XMLParser.get</text>
<text text-anchor="middle" x="590" y="-154" font-family="Helvetica,sans-Serif" font-size="10.00">DoubleValuesFromTag</text>
</a>
</g>
</g>
<!-- Node6&#45;&gt;Node7 -->
<g id="edge6" class="edge"><title>Node6&#45;&gt;Node7</title>
<path fill="none" stroke="midnightblue" d="M426.14,-162C446.993,-162 469.359,-162 490.633,-162"/>
<polygon fill="midnightblue" stroke="midnightblue" points="490.648,-165.5 500.648,-162 490.648,-158.5 490.648,-165.5"/>
</g>
<!-- Node8 -->
<g id="node8" class="node"><title>Node8</title>
<g id="a_node8"><a xlink:href="../../df/db4/classutilities_1_1_x_m_l_parsing_1_1_x_m_l_parser.html#a70485375200a84f459aa83ffedbea646" target="_top" xlink:title="utilities.XMLParsing.XMLParser.get\lValuesFromTag">
<polygon fill="white" stroke="black" points="738,-147 738,-177 916,-177 916,-147 738,-147"/>
<text text-anchor="start" x="746" y="-165" font-family="Helvetica,sans-Serif" font-size="10.00">utilities.XMLParsing.XMLParser.get</text>
<text text-anchor="middle" x="827" y="-154" font-family="Helvetica,sans-Serif" font-size="10.00">ValuesFromTag</text>
</a>
</g>
</g>
<!-- Node7&#45;&gt;Node8 -->
<g id="edge7" class="edge"><title>Node7&#45;&gt;Node8</title>
<path fill="none" stroke="midnightblue" d="M679.174,-162C694.879,-162 711.331,-162 727.306,-162"/>
<polygon fill="midnightblue" stroke="midnightblue" points="727.723,-165.5 737.723,-162 727.723,-158.5 727.723,-165.5"/>
</g>
<!-- Node9 -->
<g id="node9" class="node"><title>Node9</title>
<g id="a_node9"><a xlink:href="../../df/db4/classutilities_1_1_x_m_l_parsing_1_1_x_m_l_parser.html#ab3a0a60481d20e93b1382f9a8a31fe9d" target="_top" xlink:title="utilities.XMLParsing.XMLParser.get\lValues">
<polygon fill="white" stroke="black" points="952,-147 952,-177 1130,-177 1130,-147 952,-147"/>
<text text-anchor="start" x="960" y="-165" font-family="Helvetica,sans-Serif" font-size="10.00">utilities.XMLParsing.XMLParser.get</text>
<text text-anchor="middle" x="1041" y="-154" font-family="Helvetica,sans-Serif" font-size="10.00">Values</text>
</a>
</g>
</g>
<!-- Node8&#45;&gt;Node9 -->
<g id="edge8" class="edge"><title>Node8&#45;&gt;Node9</title>
<path fill="none" stroke="midnightblue" d="M916.065,-162C924.569,-162 933.232,-162 941.825,-162"/>
<polygon fill="midnightblue" stroke="midnightblue" points="941.868,-165.5 951.868,-162 941.868,-158.5 941.868,-165.5"/>
</g>
<!-- Node11&#45;&gt;Node4 -->
<g id="edge12" class="edge"><title>Node11&#45;&gt;Node4</title>
<path fill="none" stroke="midnightblue" d="M415.014,-30.0346C442.6,-35.42 473.88,-41.5264 502.235,-47.0618"/>
<polygon fill="midnightblue" stroke="midnightblue" points="501.646,-50.5129 512.132,-48.9938 502.987,-43.6426 501.646,-50.5129"/>
</g>
<!-- Node12 -->
<g id="node12" class="node"><title>Node12</title>
<g id="a_node12"><a xlink:href="../../d8/dbf/interfacegame_player_1_1gui_items_listeners_1_1_upgrade_listener.html#aefa5cb4c4c2c84c231c779897246ed96" target="_top" xlink:title="gamePlayer.guiItemsListeners.\lUpgradeListener.sellTower">
<polygon fill="white" stroke="black" points="508,-0 508,-30 672,-30 672,-0 508,-0"/>
<text text-anchor="start" x="516" y="-18" font-family="Helvetica,sans-Serif" font-size="10.00">gamePlayer.guiItemsListeners.</text>
<text text-anchor="middle" x="590" y="-7" font-family="Helvetica,sans-Serif" font-size="10.00">UpgradeListener.sellTower</text>
</a>
</g>
</g>
<!-- Node11&#45;&gt;Node12 -->
<g id="edge11" class="edge"><title>Node11&#45;&gt;Node12</title>
<path fill="none" stroke="midnightblue" d="M423.678,-15C447.537,-15 473.538,-15 497.707,-15"/>
<polygon fill="midnightblue" stroke="midnightblue" points="497.941,-18.5001 507.941,-15 497.941,-11.5001 497.941,-18.5001"/>
</g>
</g>
</svg>
