<?xml version="1.0" encoding="UTF-8" standalone="no"?>
<!DOCTYPE svg PUBLIC "-//W3C//DTD SVG 1.1//EN"
 "http://www.w3.org/Graphics/SVG/1.1/DTD/svg11.dtd">
<!-- Generated by graphviz version 2.36.0 (20140111.2315)
 -->
<!-- Title: gamePlayer.guiItems.towerUpgrade.TowerUpgradePanel.doUpgrade Pages: 1 -->
<svg width="478pt" height="87pt"
 viewBox="0.00 0.00 478.00 87.00" xmlns="http://www.w3.org/2000/svg" xmlns:xlink="http://www.w3.org/1999/xlink">
<g id="graph0" class="graph" transform="scale(1 1) rotate(0) translate(4 83)">
<title>gamePlayer.guiItems.towerUpgrade.TowerUpgradePanel.doUpgrade</title>
<polygon fill="white" stroke="none" points="-4,4 -4,-83 474,-83 474,4 -4,4"/>
<!-- Node1 -->
<g id="node1" class="node"><title>Node1</title>
<polygon fill="#bfbfbf" stroke="black" points="0,-24 0,-54 210,-54 210,-24 0,-24"/>
<text text-anchor="start" x="8" y="-42" font-family="Helvetica,sans-Serif" font-size="10.00">gamePlayer.guiItems.tower</text>
<text text-anchor="middle" x="105" y="-31" font-family="Helvetica,sans-Serif" font-size="10.00">Upgrade.TowerUpgradePanel.doUpgrade</text>
</g>
<!-- Node2 -->
<g id="node2" class="node"><title>Node2</title>
<g id="a_node2"><a xlink:href="../../d1/d18/classgame_player_1_1gui_items_1_1tower_upgrade_1_1_tower_upgrade_panel.html#a4dd7a166c98ebf68effcd02c939bd544" target="_top" xlink:title="gamePlayer.guiItems.tower\lUpgrade.TowerUpgradePanel.deselectTower">
<polygon fill="white" stroke="black" points="246,-49 246,-79 470,-79 470,-49 246,-49"/>
<text text-anchor="start" x="254" y="-67" font-family="Helvetica,sans-Serif" font-size="10.00">gamePlayer.guiItems.tower</text>
<text text-anchor="middle" x="358" y="-56" font-family="Helvetica,sans-Serif" font-size="10.00">Upgrade.TowerUpgradePanel.deselectTower</text>
</a>
</g>
</g>
<!-- Node1&#45;&gt;Node2 -->
<g id="edge1" class="edge"><title>Node1&#45;&gt;Node2</title>
<path fill="none" stroke="midnightblue" d="M210.266,-49.3851C218.688,-50.2239 227.242,-51.0759 235.77,-51.9253"/>
<polygon fill="midnightblue" stroke="midnightblue" points="235.461,-55.4118 245.759,-52.9202 236.155,-48.4462 235.461,-55.4118"/>
</g>
<!-- Node3 -->
<g id="node3" class="node"><title>Node3</title>
<g id="a_node3"><a xlink:href="../../d8/dbf/interfacegame_player_1_1gui_items_listeners_1_1_upgrade_listener.html#a482774421a9c8ce3a61a457031af137e" target="_top" xlink:title="gamePlayer.guiItemsListeners.\lUpgradeListener.upgradeTower">
<polygon fill="white" stroke="black" points="276,-0 276,-30 440,-30 440,-0 276,-0"/>
<text text-anchor="start" x="284" y="-18" font-family="Helvetica,sans-Serif" font-size="10.00">gamePlayer.guiItemsListeners.</text>
<text text-anchor="middle" x="358" y="-7" font-family="Helvetica,sans-Serif" font-size="10.00">UpgradeListener.upgradeTower</text>
</a>
</g>
</g>
<!-- Node1&#45;&gt;Node3 -->
<g id="edge2" class="edge"><title>Node1&#45;&gt;Node3</title>
<path fill="none" stroke="midnightblue" d="M210.266,-29.0303C228.591,-27.2781 247.539,-25.4664 265.484,-23.7505"/>
<polygon fill="midnightblue" stroke="midnightblue" points="266.008,-27.2165 275.629,-22.7805 265.342,-20.2483 266.008,-27.2165"/>
</g>
</g>
</svg>
