<?xml version="1.0" encoding="UTF-8" standalone="no"?>
<!DOCTYPE svg PUBLIC "-//W3C//DTD SVG 1.1//EN"
 "http://www.w3.org/Graphics/SVG/1.1/DTD/svg11.dtd">
<!-- Generated by graphviz version 2.36.0 (20140111.2315)
 -->
<!-- Title: gamePlayer.guiItems.towerUpgrade.TowerUpgradePanel.sell Pages: 1 -->
<svg width="442pt" height="87pt"
 viewBox="0.00 0.00 442.00 87.00" xmlns="http://www.w3.org/2000/svg" xmlns:xlink="http://www.w3.org/1999/xlink">
<g id="graph0" class="graph" transform="scale(1 1) rotate(0) translate(4 83)">
<title>gamePlayer.guiItems.towerUpgrade.TowerUpgradePanel.sell</title>
<polygon fill="white" stroke="none" points="-4,4 -4,-83 438,-83 438,4 -4,4"/>
<!-- Node1 -->
<g id="node1" class="node"><title>Node1</title>
<polygon fill="#bfbfbf" stroke="black" points="0.5,-24 0.5,-54 173.5,-54 173.5,-24 0.5,-24"/>
<text text-anchor="start" x="8.5" y="-42" font-family="Helvetica,sans-Serif" font-size="10.00">gamePlayer.guiItems.tower</text>
<text text-anchor="middle" x="87" y="-31" font-family="Helvetica,sans-Serif" font-size="10.00">Upgrade.TowerUpgradePanel.sell</text>
</g>
<!-- Node2 -->
<g id="node2" class="node"><title>Node2</title>
<g id="a_node2"><a xlink:href="../../d1/d18/classgame_player_1_1gui_items_1_1tower_upgrade_1_1_tower_upgrade_panel.html#a4dd7a166c98ebf68effcd02c939bd544" target="_top" xlink:title="gamePlayer.guiItems.tower\lUpgrade.TowerUpgradePanel.deselectTower">
<polygon fill="white" stroke="black" points="210,-49 210,-79 434,-79 434,-49 210,-49"/>
<text text-anchor="start" x="218" y="-67" font-family="Helvetica,sans-Serif" font-size="10.00">gamePlayer.guiItems.tower</text>
<text text-anchor="middle" x="322" y="-56" font-family="Helvetica,sans-Serif" font-size="10.00">Upgrade.TowerUpgradePanel.deselectTower</text>
</a>
</g>
</g>
<!-- Node1&#45;&gt;Node2 -->
<g id="edge1" class="edge"><title>Node1&#45;&gt;Node2</title>
<path fill="none" stroke="midnightblue" d="M173.768,-48.2026C182.162,-49.1032 190.785,-50.0284 199.445,-50.9576"/>
<polygon fill="midnightblue" stroke="midnightblue" points="199.3,-54.4621 209.617,-52.049 200.047,-47.5021 199.3,-54.4621"/>
</g>
<!-- Node3 -->
<g id="node3" class="node"><title>Node3</title>
<g id="a_node3"><a xlink:href="../../d8/dbf/interfacegame_player_1_1gui_items_listeners_1_1_upgrade_listener.html#aefa5cb4c4c2c84c231c779897246ed96" target="_top" xlink:title="gamePlayer.guiItemsListeners.\lUpgradeListener.sellTower">
<polygon fill="white" stroke="black" points="240,-0 240,-30 404,-30 404,-0 240,-0"/>
<text text-anchor="start" x="248" y="-18" font-family="Helvetica,sans-Serif" font-size="10.00">gamePlayer.guiItemsListeners.</text>
<text text-anchor="middle" x="322" y="-7" font-family="Helvetica,sans-Serif" font-size="10.00">UpgradeListener.sellTower</text>
</a>
</g>
</g>
<!-- Node1&#45;&gt;Node3 -->
<g id="edge2" class="edge"><title>Node1&#45;&gt;Node3</title>
<path fill="none" stroke="midnightblue" d="M173.768,-30.1655C191.942,-28.2935 211.191,-26.3108 229.566,-24.4181"/>
<polygon fill="midnightblue" stroke="midnightblue" points="230.084,-27.8833 239.673,-23.3771 229.367,-20.9202 230.084,-27.8833"/>
</g>
</g>
</svg>
