<?xml version="1.0" encoding="UTF-8" standalone="no"?>
<!DOCTYPE svg PUBLIC "-//W3C//DTD SVG 1.1//EN"
 "http://www.w3.org/Graphics/SVG/1.1/DTD/svg11.dtd">
<!-- Generated by graphviz version 2.36.0 (20140111.2315)
 -->
<!-- Title: gamePlayer.guiItems.towerUpgrade.TowerUpgradePanel.setCurrentTower Pages: 1 -->
<!--zoomable 136 -->
<svg id="main" version="1.1" xmlns="http://www.w3.org/2000/svg" xmlns:xlink="http://www.w3.org/1999/xlink" xml:space="preserve" onload="init(evt)">
<style type="text/css"><![CDATA[
.edge:hover path { stroke: red; }
.edge:hover polygon { stroke: red; fill: red; }
]]></style>
<script type="text/javascript"><![CDATA[
var edges = document.getElementsByTagName('g');
if (edges && edges.length) {
  for (var i=0;i<edges.length;i++) {
    if (edges[i].id.substr(0,4)=='edge') {
      edges[i].setAttribute('class','edge');
    }
  }
}
]]></script>
        <defs>
                <circle id="rim" cx="0" cy="0" r="7"/>
                <circle id="rim2" cx="0" cy="0" r="3.5"/>
                <g id="zoomPlus">
                        <use xlink:href="#rim" fill="#404040">
                                <set attributeName="fill" to="#808080" begin="zoomplus.mouseover" end="zoomplus.mouseout"/>
                        </use>
                        <path d="M-4,0h8M0,-4v8" fill="none" stroke="white" stroke-width="1.5" pointer-events="none"/>
                </g>
                <g id="zoomMin">
                        <use xlink:href="#rim" fill="#404040">
                                <set attributeName="fill" to="#808080" begin="zoomminus.mouseover" end="zoomminus.mouseout"/>
                        </use>
                        <path d="M-4,0h8" fill="none" stroke="white" stroke-width="1.5" pointer-events="none"/>
                </g>
                <g id="dirArrow">
                        <path fill="none" stroke="white" stroke-width="1.5" d="M0,-3.0v7 M-2.5,-0.5L0,-3.0L2.5,-0.5"/>
                </g>
               <g id="resetDef">
                       <use xlink:href="#rim2" fill="#404040">
                               <set attributeName="fill" to="#808080" begin="reset.mouseover" end="reset.mouseout"/>
                       </use>
               </g>
        </defs>

<script type="text/javascript">
var viewWidth = 1322;
var viewHeight = 136;
var sectionId = 'dynsection-9';
</script>
<script xlink:href="../../svgpan.js"/>
<svg id="graph" class="graph">
<g id="viewport">
<title>gamePlayer.guiItems.towerUpgrade.TowerUpgradePanel.setCurrentTower</title>
<polygon fill="white" stroke="none" points="-4,4 -4,-132 1318,-132 1318,4 -4,4"/>
<!-- Node1 -->
<g id="node1" class="node"><title>Node1</title>
<polygon fill="#bfbfbf" stroke="black" points="0,-24 0,-54 234,-54 234,-24 0,-24"/>
<text text-anchor="start" x="8" y="-42" font-family="Helvetica,sans-Serif" font-size="10.00">gamePlayer.guiItems.tower</text>
<text text-anchor="middle" x="117" y="-31" font-family="Helvetica,sans-Serif" font-size="10.00">Upgrade.TowerUpgradePanel.setCurrentTower</text>
</g>
<!-- Node2 -->
<g id="node2" class="node"><title>Node2</title>
<g id="a_node2"><a xlink:href="../../da/d69/classgame_player_1_1main_classes_1_1managers_1_1_gui_manager.html#ad5da35abd0e1b0f2938b85549703118e" target="_top" xlink:title="gamePlayer.mainClasses.managers.\lGuiManager.selectTower">
<polygon fill="white" stroke="black" points="270.5,-24 270.5,-54 461.5,-54 461.5,-24 270.5,-24"/>
<text text-anchor="start" x="278.5" y="-42" font-family="Helvetica,sans-Serif" font-size="10.00">gamePlayer.mainClasses.managers.</text>
<text text-anchor="middle" x="366" y="-31" font-family="Helvetica,sans-Serif" font-size="10.00">GuiManager.selectTower</text>
</a>
</g>
</g>
<!-- Node1&#45;&gt;Node2 -->
<g id="edge1" class="edge"><title>Node1&#45;&gt;Node2</title>
<path fill="none" stroke="midnightblue" d="M244.52,-39C253.254,-39 261.969,-39 270.488,-39"/>
<polygon fill="midnightblue" stroke="midnightblue" points="244.267,-35.5001 234.267,-39 244.267,-42.5001 244.267,-35.5001"/>
</g>
<!-- Node3 -->
<g id="node3" class="node"><title>Node3</title>
<g id="a_node3"><a xlink:href="../../da/d69/classgame_player_1_1main_classes_1_1managers_1_1_gui_manager.html#a162f5822f9bff033684bd28cada2f03e" target="_top" xlink:title="gamePlayer.mainClasses.managers.\lGuiManager.upgradeTower">
<polygon fill="white" stroke="black" points="498.5,-98 498.5,-128 689.5,-128 689.5,-98 498.5,-98"/>
<text text-anchor="start" x="506.5" y="-116" font-family="Helvetica,sans-Serif" font-size="10.00">gamePlayer.mainClasses.managers.</text>
<text text-anchor="middle" x="594" y="-105" font-family="Helvetica,sans-Serif" font-size="10.00">GuiManager.upgradeTower</text>
</a>
</g>
</g>
<!-- Node2&#45;&gt;Node3 -->
<g id="edge2" class="edge"><title>Node2&#45;&gt;Node3</title>
<path fill="none" stroke="midnightblue" d="M413.731,-57.7845C438.554,-67.4299 469.704,-79.01 498,-88 508.971,-91.4858 520.762,-94.8714 532.176,-97.9674"/>
<polygon fill="midnightblue" stroke="midnightblue" points="414.79,-54.4403 404.202,-54.0563 412.239,-60.9592 414.79,-54.4403"/>
</g>
<!-- Node4 -->
<g id="node4" class="node"><title>Node4</title>
<g id="a_node4"><a xlink:href="../../da/d69/classgame_player_1_1main_classes_1_1managers_1_1_gui_manager.html#a148dc947569bdc60c98be5a853cf82ee" target="_top" xlink:title="gamePlayer.mainClasses.managers.\lGuiManager.makeTower">
<polygon fill="white" stroke="black" points="498.5,-49 498.5,-79 689.5,-79 689.5,-49 498.5,-49"/>
<text text-anchor="start" x="506.5" y="-67" font-family="Helvetica,sans-Serif" font-size="10.00">gamePlayer.mainClasses.managers.</text>
<text text-anchor="middle" x="594" y="-56" font-family="Helvetica,sans-Serif" font-size="10.00">GuiManager.makeTower</text>
</a>
</g>
</g>
<!-- Node2&#45;&gt;Node4 -->
<g id="edge3" class="edge"><title>Node2&#45;&gt;Node4</title>
<path fill="none" stroke="midnightblue" d="M471.611,-50.572C480.572,-51.5633 489.605,-52.5624 498.48,-53.5443"/>
<polygon fill="midnightblue" stroke="midnightblue" points="471.859,-47.0782 461.535,-49.4574 471.089,-54.0358 471.859,-47.0782"/>
</g>
<!-- Node8 -->
<g id="node8" class="node"><title>Node8</title>
<g id="a_node8"><a xlink:href="../../da/d69/classgame_player_1_1main_classes_1_1managers_1_1_gui_manager.html#a3c54e67481646eaa1208a9f69cc1ea78" target="_top" xlink:title="gamePlayer.mainClasses.managers.\lGuiManager.deselectTower">
<polygon fill="white" stroke="black" points="498.5,-0 498.5,-30 689.5,-30 689.5,-0 498.5,-0"/>
<text text-anchor="start" x="506.5" y="-18" font-family="Helvetica,sans-Serif" font-size="10.00">gamePlayer.mainClasses.managers.</text>
<text text-anchor="middle" x="594" y="-7" font-family="Helvetica,sans-Serif" font-size="10.00">GuiManager.deselectTower</text>
</a>
</g>
</g>
<!-- Node2&#45;&gt;Node8 -->
<g id="edge7" class="edge"><title>Node2&#45;&gt;Node8</title>
<path fill="none" stroke="midnightblue" d="M457.479,-22.7622C470.899,-21.1916 484.761,-19.7056 498.266,-18.3893"/>
<polygon fill="midnightblue" stroke="midnightblue" points="456.829,-19.315 447.315,-23.9784 457.661,-26.2654 456.829,-19.315"/>
</g>
<!-- Node5 -->
<g id="node5" class="node"><title>Node5</title>
<g id="a_node5"><a xlink:href="../../db/d6b/classgame_player_1_1gui_features_1_1_tower_placer.html#a8a56e5205e61a12602015f880e47070c" target="_top" xlink:title="gamePlayer.guiFeatures.Tower\lPlacer.drop">
<polygon fill="white" stroke="black" points="726.5,-49 726.5,-79 887.5,-79 887.5,-49 726.5,-49"/>
<text text-anchor="start" x="734.5" y="-67" font-family="Helvetica,sans-Serif" font-size="10.00">gamePlayer.guiFeatures.Tower</text>
<text text-anchor="middle" x="807" y="-56" font-family="Helvetica,sans-Serif" font-size="10.00">Placer.drop</text>
</a>
</g>
</g>
<!-- Node4&#45;&gt;Node5 -->
<g id="edge4" class="edge"><title>Node4&#45;&gt;Node5</title>
<path fill="none" stroke="midnightblue" d="M699.795,-64C708.752,-64 717.715,-64 726.427,-64"/>
<polygon fill="midnightblue" stroke="midnightblue" points="699.699,-60.5001 689.699,-64 699.699,-67.5001 699.699,-60.5001"/>
</g>
<!-- Node6 -->
<g id="node6" class="node"><title>Node6</title>
<g id="a_node6"><a xlink:href="../../db/d6b/classgame_player_1_1gui_features_1_1_tower_placer.html#a2798d82694ca4f2a02b48f9516f0cd1b" target="_top" xlink:title="gamePlayer.guiFeatures.Tower\lPlacer.placeItem">
<polygon fill="white" stroke="black" points="924.5,-49 924.5,-79 1085.5,-79 1085.5,-49 924.5,-49"/>
<text text-anchor="start" x="932.5" y="-67" font-family="Helvetica,sans-Serif" font-size="10.00">gamePlayer.guiFeatures.Tower</text>
<text text-anchor="middle" x="1005" y="-56" font-family="Helvetica,sans-Serif" font-size="10.00">Placer.placeItem</text>
</a>
</g>
</g>
<!-- Node5&#45;&gt;Node6 -->
<g id="edge5" class="edge"><title>Node5&#45;&gt;Node6</title>
<path fill="none" stroke="midnightblue" d="M897.989,-64C906.785,-64 915.667,-64 924.35,-64"/>
<polygon fill="midnightblue" stroke="midnightblue" points="897.721,-60.5001 887.721,-64 897.721,-67.5001 897.721,-60.5001"/>
</g>
<!-- Node7 -->
<g id="node7" class="node"><title>Node7</title>
<g id="a_node7"><a xlink:href="../../da/d69/classgame_player_1_1main_classes_1_1managers_1_1_gui_manager.html#ae90e338dc9959e32627518bde3fdf2ff" target="_top" xlink:title="gamePlayer.mainClasses.managers.\lGuiManager.placeTower">
<polygon fill="white" stroke="black" points="1122.5,-49 1122.5,-79 1313.5,-79 1313.5,-49 1122.5,-49"/>
<text text-anchor="start" x="1130.5" y="-67" font-family="Helvetica,sans-Serif" font-size="10.00">gamePlayer.mainClasses.managers.</text>
<text text-anchor="middle" x="1218" y="-56" font-family="Helvetica,sans-Serif" font-size="10.00">GuiManager.placeTower</text>
</a>
</g>
</g>
<!-- Node6&#45;&gt;Node7 -->
<g id="edge6" class="edge"><title>Node6&#45;&gt;Node7</title>
<path fill="none" stroke="midnightblue" d="M1095.91,-64C1104.62,-64 1113.47,-64 1122.22,-64"/>
<polygon fill="midnightblue" stroke="midnightblue" points="1095.77,-60.5001 1085.77,-64 1095.77,-67.5001 1095.77,-60.5001"/>
</g>
<!-- Node8&#45;&gt;Node2 -->
<g id="edge8" class="edge"><title>Node8&#45;&gt;Node2</title>
<path fill="none" stroke="midnightblue" d="M502.59,-31.2297C489.082,-32.811 475.125,-34.3067 461.535,-35.6301"/>
<polygon fill="midnightblue" stroke="midnightblue" points="503.306,-34.6691 512.819,-30.0051 502.474,-27.7187 503.306,-34.6691"/>
</g>
</g>
</svg>
        <g id="navigator" transform="translate(0 0)" fill="#404254">
                <rect fill="#f2f5e9" fill-opacity="0.5" stroke="#606060" stroke-width=".5" x="0" y="0" width="60" height="60"/>
                <use id="zoomplus" xlink:href="#zoomPlus" x="17" y="9" onmousedown="handleZoom(evt,'in')"/>
                <use id="zoomminus" xlink:href="#zoomMin" x="42" y="9" onmousedown="handleZoom(evt,'out')"/>
                <use id="reset" xlink:href="#resetDef" x="30" y="36" onmousedown="handleReset()"/>
                <g id="arrowUp" xlink:href="#dirArrow" transform="translate(30 24)" onmousedown="handlePan(0,-1)">
                  <use xlink:href="#rim" fill="#404040">
                        <set attributeName="fill" to="#808080" begin="arrowUp.mouseover" end="arrowUp.mouseout"/>
                  </use>
                  <path fill="none" stroke="white" stroke-width="1.5" d="M0,-3.0v7 M-2.5,-0.5L0,-3.0L2.5,-0.5"/>
                </g>
                <g id="arrowRight" xlink:href="#dirArrow" transform="rotate(90) translate(36 -43)" onmousedown="handlePan(1,0)">
                  <use xlink:href="#rim" fill="#404040">
                        <set attributeName="fill" to="#808080" begin="arrowRight.mouseover" end="arrowRight.mouseout"/>
                  </use>
                  <path fill="none" stroke="white" stroke-width="1.5" d="M0,-3.0v7 M-2.5,-0.5L0,-3.0L2.5,-0.5"/>
                </g>
                <g id="arrowDown" xlink:href="#dirArrow" transform="rotate(180) translate(-30 -48)" onmousedown="handlePan(0,1)">
                  <use xlink:href="#rim" fill="#404040">
                        <set attributeName="fill" to="#808080" begin="arrowDown.mouseover" end="arrowDown.mouseout"/>
                  </use>
                  <path fill="none" stroke="white" stroke-width="1.5" d="M0,-3.0v7 M-2.5,-0.5L0,-3.0L2.5,-0.5"/>
                </g>
                <g id="arrowLeft" xlink:href="#dirArrow" transform="rotate(270) translate(-36 17)" onmousedown="handlePan(-1,0)">
                  <use xlink:href="#rim" fill="#404040">
                        <set attributeName="fill" to="#808080" begin="arrowLeft.mouseover" end="arrowLeft.mouseout"/>
                  </use>
                  <path fill="none" stroke="white" stroke-width="1.5" d="M0,-3.0v7 M-2.5,-0.5L0,-3.0L2.5,-0.5"/>
                </g>
        </g>
        <svg viewBox="0 0 15 15" width="100%" height="30px" preserveAspectRatio="xMaxYMin meet">
         <g id="arrow_out" transform="scale(0.3 0.3)">
          <a xlink:href="classgame_player_1_1gui_items_1_1tower_upgrade_1_1_tower_upgrade_panel_ab1a665d01bbeab4d6a954df1b4f6b10f_icgraph_org.svg" target="_base">
           <rect id="button" ry="5" rx="5" y="6" x="6" height="38" width="38"
                fill="#f2f5e9" fill-opacity="0.5" stroke="#606060" stroke-width="1.0"/>
           <path id="arrow"
             d="M 11.500037,31.436501 C 11.940474,20.09759 22.043105,11.32322 32.158766,21.979434 L 37.068811,17.246167 C 37.068811,17.246167 37.088388,32 37.088388,32 L 22.160133,31.978069 C 22.160133,31.978069 26.997745,27.140456 26.997745,27.140456 C 18.528582,18.264221 13.291696,25.230495 11.500037,31.436501 z"
             style="fill:#404040;"/>
          </a>
         </g>
        </svg>
</svg>
