<?xml version="1.0" encoding="UTF-8" standalone="no"?>
<!DOCTYPE svg PUBLIC "-//W3C//DTD SVG 1.1//EN"
 "http://www.w3.org/Graphics/SVG/1.1/DTD/svg11.dtd">
<!-- Generated by graphviz version 2.36.0 (20140111.2315)
 -->
<!-- Title: gamePlayer.guiItems.towerUpgrade.TowerUpgradePanel.deselectTower Pages: 1 -->
<svg width="1562pt" height="160pt"
 viewBox="0.00 0.00 1562.00 160.00" xmlns="http://www.w3.org/2000/svg" xmlns:xlink="http://www.w3.org/1999/xlink">
<g id="graph0" class="graph" transform="scale(1 1) rotate(0) translate(4 156)">
<title>gamePlayer.guiItems.towerUpgrade.TowerUpgradePanel.deselectTower</title>
<polygon fill="white" stroke="none" points="-4,4 -4,-156 1558,-156 1558,4 -4,4"/>
<!-- Node1 -->
<g id="node1" class="node"><title>Node1</title>
<polygon fill="#bfbfbf" stroke="black" points="0,-49 0,-79 224,-79 224,-49 0,-49"/>
<text text-anchor="start" x="8" y="-67" font-family="Helvetica,sans-Serif" font-size="10.00">gamePlayer.guiItems.tower</text>
<text text-anchor="middle" x="112" y="-56" font-family="Helvetica,sans-Serif" font-size="10.00">Upgrade.TowerUpgradePanel.deselectTower</text>
</g>
<!-- Node2 -->
<g id="node2" class="node"><title>Node2</title>
<g id="a_node2"><a xlink:href="../../da/d69/classgame_player_1_1main_classes_1_1managers_1_1_gui_manager.html#a3c54e67481646eaa1208a9f69cc1ea78" target="_top" xlink:title="gamePlayer.mainClasses.managers.\lGuiManager.deselectTower">
<polygon fill="white" stroke="black" points="269.5,-98 269.5,-128 460.5,-128 460.5,-98 269.5,-98"/>
<text text-anchor="start" x="277.5" y="-116" font-family="Helvetica,sans-Serif" font-size="10.00">gamePlayer.mainClasses.managers.</text>
<text text-anchor="middle" x="365" y="-105" font-family="Helvetica,sans-Serif" font-size="10.00">GuiManager.deselectTower</text>
</a>
</g>
</g>
<!-- Node1&#45;&gt;Node2 -->
<g id="edge1" class="edge"><title>Node1&#45;&gt;Node2</title>
<path fill="none" stroke="midnightblue" d="M199.915,-80.9674C228.28,-86.5049 259.558,-92.611 287.132,-97.9938"/>
<polygon fill="midnightblue" stroke="midnightblue" points="200.499,-77.5156 190.014,-79.0346 199.158,-84.3859 200.499,-77.5156"/>
</g>
<!-- Node9 -->
<g id="node9" class="node"><title>Node9</title>
<g id="a_node9"><a xlink:href="../../d1/d18/classgame_player_1_1gui_items_1_1tower_upgrade_1_1_tower_upgrade_panel.html#aa9ca9c36815f56635633e9f3b58da1bd" target="_top" xlink:title="gamePlayer.guiItems.tower\lUpgrade.TowerUpgradePanel.doUpgrade">
<polygon fill="white" stroke="black" points="260,-49 260,-79 470,-79 470,-49 260,-49"/>
<text text-anchor="start" x="268" y="-67" font-family="Helvetica,sans-Serif" font-size="10.00">gamePlayer.guiItems.tower</text>
<text text-anchor="middle" x="365" y="-56" font-family="Helvetica,sans-Serif" font-size="10.00">Upgrade.TowerUpgradePanel.doUpgrade</text>
</a>
</g>
</g>
<!-- Node1&#45;&gt;Node9 -->
<g id="edge9" class="edge"><title>Node1&#45;&gt;Node9</title>
<path fill="none" stroke="midnightblue" d="M234.455,-64C242.89,-64 251.35,-64 259.682,-64"/>
<polygon fill="midnightblue" stroke="midnightblue" points="234.188,-60.5001 224.188,-64 234.188,-67.5001 234.188,-60.5001"/>
</g>
<!-- Node11 -->
<g id="node11" class="node"><title>Node11</title>
<g id="a_node11"><a xlink:href="../../d1/d18/classgame_player_1_1gui_items_1_1tower_upgrade_1_1_tower_upgrade_panel.html#a2d1b38c9468cc9c7670e5c1c94fe8fb0" target="_top" xlink:title="gamePlayer.guiItems.tower\lUpgrade.TowerUpgradePanel.sell">
<polygon fill="white" stroke="black" points="278.5,-0 278.5,-30 451.5,-30 451.5,-0 278.5,-0"/>
<text text-anchor="start" x="286.5" y="-18" font-family="Helvetica,sans-Serif" font-size="10.00">gamePlayer.guiItems.tower</text>
<text text-anchor="middle" x="365" y="-7" font-family="Helvetica,sans-Serif" font-size="10.00">Upgrade.TowerUpgradePanel.sell</text>
</a>
</g>
</g>
<!-- Node1&#45;&gt;Node11 -->
<g id="edge11" class="edge"><title>Node1&#45;&gt;Node11</title>
<path fill="none" stroke="midnightblue" d="M199.915,-47.0326C228.28,-41.4951 259.558,-35.389 287.132,-30.0062"/>
<polygon fill="midnightblue" stroke="midnightblue" points="199.158,-43.6141 190.014,-48.9654 200.499,-50.4844 199.158,-43.6141"/>
</g>
<!-- Node3 -->
<g id="node3" class="node"><title>Node3</title>
<g id="a_node3"><a xlink:href="../../da/d69/classgame_player_1_1main_classes_1_1managers_1_1_gui_manager.html#ad5da35abd0e1b0f2938b85549703118e" target="_top" xlink:title="gamePlayer.mainClasses.managers.\lGuiManager.selectTower">
<polygon fill="white" stroke="black" points="508.5,-98 508.5,-128 699.5,-128 699.5,-98 508.5,-98"/>
<text text-anchor="start" x="516.5" y="-116" font-family="Helvetica,sans-Serif" font-size="10.00">gamePlayer.mainClasses.managers.</text>
<text text-anchor="middle" x="604" y="-105" font-family="Helvetica,sans-Serif" font-size="10.00">GuiManager.selectTower</text>
</a>
</g>
</g>
<!-- Node2&#45;&gt;Node3 -->
<g id="edge2" class="edge"><title>Node2&#45;&gt;Node3</title>
<path fill="none" stroke="midnightblue" d="M470.711,-106.291C483.276,-106.216 496.051,-106.244 508.46,-106.374"/>
<polygon fill="midnightblue" stroke="midnightblue" points="470.661,-102.791 460.69,-106.373 470.719,-109.791 470.661,-102.791"/>
</g>
<!-- Node3&#45;&gt;Node2 -->
<g id="edge8" class="edge"><title>Node3&#45;&gt;Node2</title>
<path fill="none" stroke="midnightblue" d="M498.441,-119.708C485.878,-119.784 473.102,-119.757 460.69,-119.627"/>
<polygon fill="midnightblue" stroke="midnightblue" points="498.489,-123.208 508.46,-119.626 498.432,-116.208 498.489,-123.208"/>
</g>
<!-- Node4 -->
<g id="node4" class="node"><title>Node4</title>
<g id="a_node4"><a xlink:href="../../da/d69/classgame_player_1_1main_classes_1_1managers_1_1_gui_manager.html#a162f5822f9bff033684bd28cada2f03e" target="_top" xlink:title="gamePlayer.mainClasses.managers.\lGuiManager.upgradeTower">
<polygon fill="white" stroke="black" points="738.5,-122 738.5,-152 929.5,-152 929.5,-122 738.5,-122"/>
<text text-anchor="start" x="746.5" y="-140" font-family="Helvetica,sans-Serif" font-size="10.00">gamePlayer.mainClasses.managers.</text>
<text text-anchor="middle" x="834" y="-129" font-family="Helvetica,sans-Serif" font-size="10.00">GuiManager.upgradeTower</text>
</a>
</g>
</g>
<!-- Node3&#45;&gt;Node4 -->
<g id="edge3" class="edge"><title>Node3&#45;&gt;Node4</title>
<path fill="none" stroke="midnightblue" d="M709.909,-124.043C719.348,-125.037 728.871,-126.039 738.216,-127.023"/>
<polygon fill="midnightblue" stroke="midnightblue" points="710.023,-120.536 699.712,-122.97 709.29,-127.497 710.023,-120.536"/>
</g>
<!-- Node5 -->
<g id="node5" class="node"><title>Node5</title>
<g id="a_node5"><a xlink:href="../../da/d69/classgame_player_1_1main_classes_1_1managers_1_1_gui_manager.html#a148dc947569bdc60c98be5a853cf82ee" target="_top" xlink:title="gamePlayer.mainClasses.managers.\lGuiManager.makeTower">
<polygon fill="white" stroke="black" points="738.5,-73 738.5,-103 929.5,-103 929.5,-73 738.5,-73"/>
<text text-anchor="start" x="746.5" y="-91" font-family="Helvetica,sans-Serif" font-size="10.00">gamePlayer.mainClasses.managers.</text>
<text text-anchor="middle" x="834" y="-80" font-family="Helvetica,sans-Serif" font-size="10.00">GuiManager.makeTower</text>
</a>
</g>
</g>
<!-- Node3&#45;&gt;Node5 -->
<g id="edge4" class="edge"><title>Node3&#45;&gt;Node5</title>
<path fill="none" stroke="midnightblue" d="M709.909,-101.497C719.348,-100.462 728.871,-99.4177 738.216,-98.393"/>
<polygon fill="midnightblue" stroke="midnightblue" points="709.271,-98.0457 699.712,-102.615 710.034,-105.004 709.271,-98.0457"/>
</g>
<!-- Node6 -->
<g id="node6" class="node"><title>Node6</title>
<g id="a_node6"><a xlink:href="../../db/d6b/classgame_player_1_1gui_features_1_1_tower_placer.html#a8a56e5205e61a12602015f880e47070c" target="_top" xlink:title="gamePlayer.guiFeatures.Tower\lPlacer.drop">
<polygon fill="white" stroke="black" points="966.5,-73 966.5,-103 1127.5,-103 1127.5,-73 966.5,-73"/>
<text text-anchor="start" x="974.5" y="-91" font-family="Helvetica,sans-Serif" font-size="10.00">gamePlayer.guiFeatures.Tower</text>
<text text-anchor="middle" x="1047" y="-80" font-family="Helvetica,sans-Serif" font-size="10.00">Placer.drop</text>
</a>
</g>
</g>
<!-- Node5&#45;&gt;Node6 -->
<g id="edge5" class="edge"><title>Node5&#45;&gt;Node6</title>
<path fill="none" stroke="midnightblue" d="M939.795,-88C948.752,-88 957.715,-88 966.427,-88"/>
<polygon fill="midnightblue" stroke="midnightblue" points="939.699,-84.5001 929.699,-88 939.699,-91.5001 939.699,-84.5001"/>
</g>
<!-- Node7 -->
<g id="node7" class="node"><title>Node7</title>
<g id="a_node7"><a xlink:href="../../db/d6b/classgame_player_1_1gui_features_1_1_tower_placer.html#a2798d82694ca4f2a02b48f9516f0cd1b" target="_top" xlink:title="gamePlayer.guiFeatures.Tower\lPlacer.placeItem">
<polygon fill="white" stroke="black" points="1164.5,-73 1164.5,-103 1325.5,-103 1325.5,-73 1164.5,-73"/>
<text text-anchor="start" x="1172.5" y="-91" font-family="Helvetica,sans-Serif" font-size="10.00">gamePlayer.guiFeatures.Tower</text>
<text text-anchor="middle" x="1245" y="-80" font-family="Helvetica,sans-Serif" font-size="10.00">Placer.placeItem</text>
</a>
</g>
</g>
<!-- Node6&#45;&gt;Node7 -->
<g id="edge6" class="edge"><title>Node6&#45;&gt;Node7</title>
<path fill="none" stroke="midnightblue" d="M1137.99,-88C1146.78,-88 1155.67,-88 1164.35,-88"/>
<polygon fill="midnightblue" stroke="midnightblue" points="1137.72,-84.5001 1127.72,-88 1137.72,-91.5001 1137.72,-84.5001"/>
</g>
<!-- Node8 -->
<g id="node8" class="node"><title>Node8</title>
<g id="a_node8"><a xlink:href="../../da/d69/classgame_player_1_1main_classes_1_1managers_1_1_gui_manager.html#ae90e338dc9959e32627518bde3fdf2ff" target="_top" xlink:title="gamePlayer.mainClasses.managers.\lGuiManager.placeTower">
<polygon fill="white" stroke="black" points="1362.5,-73 1362.5,-103 1553.5,-103 1553.5,-73 1362.5,-73"/>
<text text-anchor="start" x="1370.5" y="-91" font-family="Helvetica,sans-Serif" font-size="10.00">gamePlayer.mainClasses.managers.</text>
<text text-anchor="middle" x="1458" y="-80" font-family="Helvetica,sans-Serif" font-size="10.00">GuiManager.placeTower</text>
</a>
</g>
</g>
<!-- Node7&#45;&gt;Node8 -->
<g id="edge7" class="edge"><title>Node7&#45;&gt;Node8</title>
<path fill="none" stroke="midnightblue" d="M1335.91,-88C1344.62,-88 1353.47,-88 1362.22,-88"/>
<polygon fill="midnightblue" stroke="midnightblue" points="1335.77,-84.5001 1325.77,-88 1335.77,-91.5001 1335.77,-84.5001"/>
</g>
<!-- Node10 -->
<g id="node10" class="node"><title>Node10</title>
<g id="a_node10"><a xlink:href="../../d1/d18/classgame_player_1_1gui_items_1_1tower_upgrade_1_1_tower_upgrade_panel.html#aef3a3b0222dccc4f3edb6364389d652a" target="_top" xlink:title="gamePlayer.guiItems.tower\lUpgrade.TowerUpgradePanel.initialize">
<polygon fill="white" stroke="black" points="506.5,-25 506.5,-55 701.5,-55 701.5,-25 506.5,-25"/>
<text text-anchor="start" x="514.5" y="-43" font-family="Helvetica,sans-Serif" font-size="10.00">gamePlayer.guiItems.tower</text>
<text text-anchor="middle" x="604" y="-32" font-family="Helvetica,sans-Serif" font-size="10.00">Upgrade.TowerUpgradePanel.initialize</text>
</a>
</g>
</g>
<!-- Node9&#45;&gt;Node10 -->
<g id="edge10" class="edge"><title>Node9&#45;&gt;Node10</title>
<path fill="none" stroke="midnightblue" d="M480.391,-52.4161C489.011,-51.5432 497.659,-50.6674 506.154,-49.8072"/>
<polygon fill="midnightblue" stroke="midnightblue" points="479.893,-48.9485 470.297,-53.4383 480.598,-55.9129 479.893,-48.9485"/>
</g>
<!-- Node11&#45;&gt;Node10 -->
<g id="edge12" class="edge"><title>Node11&#45;&gt;Node10</title>
<path fill="none" stroke="midnightblue" d="M461.658,-25.0905C476.37,-26.6424 491.57,-28.2457 506.304,-29.8"/>
<polygon fill="midnightblue" stroke="midnightblue" points="461.874,-21.594 451.562,-24.0256 461.14,-28.5554 461.874,-21.594"/>
</g>
</g>
</svg>
