<?xml version="1.0" encoding="UTF-8" standalone="no"?>
<!DOCTYPE svg PUBLIC "-//W3C//DTD SVG 1.1//EN"
 "http://www.w3.org/Graphics/SVG/1.1/DTD/svg11.dtd">
<!-- Generated by graphviz version 2.36.0 (20140111.2315)
 -->
<!-- Title: gameAuthoring.scenes.actorBuildingScenes.behaviorBuilders.IBehaviorKeyValuePair Pages: 1 -->
<svg width="182pt" height="130pt"
 viewBox="0.00 0.00 182.00 130.00" xmlns="http://www.w3.org/2000/svg" xmlns:xlink="http://www.w3.org/1999/xlink">
<g id="graph0" class="graph" transform="scale(1 1) rotate(0) translate(4 126)">
<title>gameAuthoring.scenes.actorBuildingScenes.behaviorBuilders.IBehaviorKeyValuePair</title>
<polygon fill="white" stroke="none" points="-4,4 -4,-126 178,-126 178,4 -4,4"/>
<!-- Node1 -->
<g id="node1" class="node"><title>Node1</title>
<polygon fill="#bfbfbf" stroke="black" points="-0.5,-0.5 -0.5,-41.5 174.5,-41.5 174.5,-0.5 -0.5,-0.5"/>
<text text-anchor="start" x="7.5" y="-29.5" font-family="Helvetica,sans-Serif" font-size="10.00">gameAuthoring.scenes.actor</text>
<text text-anchor="start" x="7.5" y="-18.5" font-family="Helvetica,sans-Serif" font-size="10.00">BuildingScenes.behaviorBuilders.</text>
<text text-anchor="middle" x="87" y="-7.5" font-family="Helvetica,sans-Serif" font-size="10.00">IBehaviorKeyValuePair</text>
</g>
<!-- Node2 -->
<g id="node2" class="node"><title>Node2</title>
<g id="a_node2"><a xlink:href="../../dd/d43/interfacegame_engine_1_1actors_1_1behaviors_1_1_i_behavior.html" target="_top" xlink:title="gameEngine.actors.behaviors.\lIBehavior">
<polygon fill="white" stroke="black" points="6,-91 6,-121 168,-121 168,-91 6,-91"/>
<text text-anchor="start" x="14" y="-109" font-family="Helvetica,sans-Serif" font-size="10.00">gameEngine.actors.behaviors.</text>
<text text-anchor="middle" x="87" y="-98" font-family="Helvetica,sans-Serif" font-size="10.00">IBehavior</text>
</a>
</g>
</g>
<!-- Node2&#45;&gt;Node1 -->
<g id="edge1" class="edge"><title>Node2&#45;&gt;Node1</title>
<path fill="none" stroke="#9a32cd" stroke-dasharray="5,2" d="M87,-80.8051C87,-68.3941 87,-53.4676 87,-41.7587"/>
<polygon fill="#9a32cd" stroke="#9a32cd" points="83.5001,-80.9201 87,-90.9202 90.5001,-80.9202 83.5001,-80.9201"/>
<text text-anchor="middle" x="118.5" y="-63.5" font-family="Helvetica,sans-Serif" font-size="10.00"> myIBehavior</text>
</g>
</g>
</svg>
