<?xml version="1.0" encoding="UTF-8" standalone="no"?>
<!DOCTYPE svg PUBLIC "-//W3C//DTD SVG 1.1//EN"
 "http://www.w3.org/Graphics/SVG/1.1/DTD/svg11.dtd">
<!-- Generated by graphviz version 2.36.0 (20140111.2315)
 -->
<!-- Title: gameEngine.actors.behaviors.RangeAttack.shootActorFromActor Pages: 1 -->
<svg width="888pt" height="462pt"
 viewBox="0.00 0.00 888.00 462.00" xmlns="http://www.w3.org/2000/svg" xmlns:xlink="http://www.w3.org/1999/xlink">
<g id="graph0" class="graph" transform="scale(1 1) rotate(0) translate(4 458)">
<title>gameEngine.actors.behaviors.RangeAttack.shootActorFromActor</title>
<polygon fill="white" stroke="none" points="-4,4 -4,-458 884,-458 884,4 -4,4"/>
<!-- Node1 -->
<g id="node1" class="node"><title>Node1</title>
<polygon fill="#bfbfbf" stroke="black" points="0,-223 0,-253 182,-253 182,-223 0,-223"/>
<text text-anchor="start" x="8" y="-241" font-family="Helvetica,sans-Serif" font-size="10.00">gameEngine.actors.behaviors.</text>
<text text-anchor="middle" x="91" y="-230" font-family="Helvetica,sans-Serif" font-size="10.00">RangeAttack.shootActorFromActor</text>
</g>
<!-- Node2 -->
<g id="node2" class="node"><title>Node2</title>
<g id="a_node2"><a xlink:href="../../d8/d65/classgame_engine_1_1actors_1_1_projectile_info.html#a6bc3b52780cbbf1aa200848b577dab33" target="_top" xlink:title="gameEngine.actors.Projectile\lInfo.copy">
<polygon fill="white" stroke="black" points="248,-424 248,-454 404,-454 404,-424 248,-424"/>
<text text-anchor="start" x="256" y="-442" font-family="Helvetica,sans-Serif" font-size="10.00">gameEngine.actors.Projectile</text>
<text text-anchor="middle" x="326" y="-431" font-family="Helvetica,sans-Serif" font-size="10.00">Info.copy</text>
</a>
</g>
</g>
<!-- Node1&#45;&gt;Node2 -->
<g id="edge1" class="edge"><title>Node1&#45;&gt;Node2</title>
<path fill="none" stroke="midnightblue" d="M98.2546,-253.066C113.347,-287.458 155.215,-372.008 218,-414 224.214,-418.156 231.033,-421.626 238.126,-424.521"/>
<polygon fill="midnightblue" stroke="midnightblue" points="237.343,-427.962 247.936,-428.125 239.756,-421.392 237.343,-427.962"/>
</g>
<!-- Node5 -->
<g id="node5" class="node"><title>Node5</title>
<g id="a_node5"><a xlink:href="../../da/d6a/classgame_engine_1_1actors_1_1_base_projectile.html#a1576fcb5d291dd025c11c0cab3f05bd4" target="_top" xlink:title="gameEngine.actors.BaseProjectile.getInfo">
<polygon fill="white" stroke="black" points="218,-385.5 218,-404.5 434,-404.5 434,-385.5 218,-385.5"/>
<text text-anchor="middle" x="326" y="-392.5" font-family="Helvetica,sans-Serif" font-size="10.00">gameEngine.actors.BaseProjectile.getInfo</text>
</a>
</g>
</g>
<!-- Node1&#45;&gt;Node5 -->
<g id="edge5" class="edge"><title>Node1&#45;&gt;Node5</title>
<path fill="none" stroke="midnightblue" d="M101.225,-253.315C119.535,-282.255 163.448,-344.772 218,-375 222.907,-377.719 228.116,-380.077 233.489,-382.12"/>
<polygon fill="midnightblue" stroke="midnightblue" points="232.715,-385.554 243.309,-385.468 234.974,-378.928 232.715,-385.554"/>
</g>
<!-- Node6 -->
<g id="node6" class="node"><title>Node6</title>
<g id="a_node6"><a xlink:href="../../d8/d65/classgame_engine_1_1actors_1_1_projectile_info.html#a554e5dd70eb8f5ac9d79ed1289fa702d" target="_top" xlink:title="gameEngine.actors.Projectile\lInfo.getMove">
<polygon fill="white" stroke="black" points="248,-336 248,-366 404,-366 404,-336 248,-336"/>
<text text-anchor="start" x="256" y="-354" font-family="Helvetica,sans-Serif" font-size="10.00">gameEngine.actors.Projectile</text>
<text text-anchor="middle" x="326" y="-343" font-family="Helvetica,sans-Serif" font-size="10.00">Info.getMove</text>
</a>
</g>
</g>
<!-- Node1&#45;&gt;Node6 -->
<g id="edge6" class="edge"><title>Node1&#45;&gt;Node6</title>
<path fill="none" stroke="midnightblue" d="M109.053,-253.142C132.135,-272.84 175.357,-306.978 218,-326 224.468,-328.885 231.31,-331.459 238.282,-333.752"/>
<polygon fill="midnightblue" stroke="midnightblue" points="237.259,-337.099 247.847,-336.707 239.325,-330.411 237.259,-337.099"/>
</g>
<!-- Node7 -->
<g id="node7" class="node"><title>Node7</title>
<g id="a_node7"><a xlink:href="../../d5/d02/classgame_engine_1_1actors_1_1_base_actor.html#ae877e5334153c4e125fb84bf993587af" target="_top" xlink:title="gameEngine.actors.BaseActor.getNode">
<polygon fill="white" stroke="black" points="223,-297.5 223,-316.5 429,-316.5 429,-297.5 223,-297.5"/>
<text text-anchor="middle" x="326" y="-304.5" font-family="Helvetica,sans-Serif" font-size="10.00">gameEngine.actors.BaseActor.getNode</text>
</a>
</g>
</g>
<!-- Node1&#45;&gt;Node7 -->
<g id="edge7" class="edge"><title>Node1&#45;&gt;Node7</title>
<path fill="none" stroke="midnightblue" d="M125.638,-253.058C150.688,-263.782 185.949,-277.859 218,-287 229.287,-290.219 241.396,-293.054 253.263,-295.501"/>
<polygon fill="midnightblue" stroke="midnightblue" points="252.661,-298.949 263.151,-297.465 254.025,-292.083 252.661,-298.949"/>
</g>
<!-- Node8 -->
<g id="node8" class="node"><title>Node8</title>
<g id="a_node8"><a xlink:href="../../d9/d41/classgame_engine_1_1actors_1_1behaviors_1_1_range_attack.html#a84b823d15888432190b89a2b5f9fda6b" target="_top" xlink:title="gameEngine.actors.behaviors.\lRangeAttack.getOrientation">
<polygon fill="white" stroke="black" points="245,-248 245,-278 407,-278 407,-248 245,-248"/>
<text text-anchor="start" x="253" y="-266" font-family="Helvetica,sans-Serif" font-size="10.00">gameEngine.actors.behaviors.</text>
<text text-anchor="middle" x="326" y="-255" font-family="Helvetica,sans-Serif" font-size="10.00">RangeAttack.getOrientation</text>
</a>
</g>
</g>
<!-- Node1&#45;&gt;Node8 -->
<g id="edge8" class="edge"><title>Node1&#45;&gt;Node8</title>
<path fill="none" stroke="midnightblue" d="M182.084,-247.666C199.319,-249.515 217.368,-251.451 234.612,-253.302"/>
<polygon fill="midnightblue" stroke="midnightblue" points="234.344,-256.793 244.66,-254.38 235.091,-249.833 234.344,-256.793"/>
</g>
<!-- Node9 -->
<g id="node9" class="node"><title>Node9</title>
<g id="a_node9"><a xlink:href="../../de/d0f/classgame_engine_1_1actors_1_1_real_actor.html#aa81460302bb974991574a10bda685723" target="_top" xlink:title="gameEngine.actors.RealActor.get\lProjectile">
<polygon fill="white" stroke="black" points="238,-199 238,-229 414,-229 414,-199 238,-199"/>
<text text-anchor="start" x="246" y="-217" font-family="Helvetica,sans-Serif" font-size="10.00">gameEngine.actors.RealActor.get</text>
<text text-anchor="middle" x="326" y="-206" font-family="Helvetica,sans-Serif" font-size="10.00">Projectile</text>
</a>
</g>
</g>
<!-- Node1&#45;&gt;Node9 -->
<g id="edge9" class="edge"><title>Node1&#45;&gt;Node9</title>
<path fill="none" stroke="midnightblue" d="M182.084,-228.721C196.963,-227.188 212.448,-225.593 227.499,-224.043"/>
<polygon fill="midnightblue" stroke="midnightblue" points="228.248,-227.484 237.837,-222.978 227.531,-220.521 228.248,-227.484"/>
</g>
<!-- Node10 -->
<g id="node10" class="node"><title>Node10</title>
<g id="a_node10"><a xlink:href="../../d5/d02/classgame_engine_1_1actors_1_1_base_actor.html#a2106e623a36a5683759aff1a392c7686" target="_top" xlink:title="gameEngine.actors.BaseActor.getX">
<polygon fill="white" stroke="black" points="233,-160.5 233,-179.5 419,-179.5 419,-160.5 233,-160.5"/>
<text text-anchor="middle" x="326" y="-167.5" font-family="Helvetica,sans-Serif" font-size="10.00">gameEngine.actors.BaseActor.getX</text>
</a>
</g>
</g>
<!-- Node1&#45;&gt;Node10 -->
<g id="edge10" class="edge"><title>Node1&#45;&gt;Node10</title>
<path fill="none" stroke="midnightblue" d="M125.35,-222.969C150.403,-212.188 185.795,-198.028 218,-189 228.05,-186.183 238.753,-183.696 249.357,-181.528"/>
<polygon fill="midnightblue" stroke="midnightblue" points="250.329,-184.904 259.47,-179.547 248.984,-178.035 250.329,-184.904"/>
</g>
<!-- Node12 -->
<g id="node12" class="node"><title>Node12</title>
<g id="a_node12"><a xlink:href="../../d5/d02/classgame_engine_1_1actors_1_1_base_actor.html#a4e1debba2b998a75964fb8c979cb15e8" target="_top" xlink:title="gameEngine.actors.BaseActor.getY">
<polygon fill="white" stroke="black" points="233.5,-122.5 233.5,-141.5 418.5,-141.5 418.5,-122.5 233.5,-122.5"/>
<text text-anchor="middle" x="326" y="-129.5" font-family="Helvetica,sans-Serif" font-size="10.00">gameEngine.actors.BaseActor.getY</text>
</a>
</g>
</g>
<!-- Node1&#45;&gt;Node12 -->
<g id="edge12" class="edge"><title>Node1&#45;&gt;Node12</title>
<path fill="none" stroke="midnightblue" d="M108.938,-222.694C131.892,-202.848 174.974,-168.687 218,-151 224.39,-148.373 231.141,-146.109 238.019,-144.158"/>
<polygon fill="midnightblue" stroke="midnightblue" points="239.365,-147.424 248.16,-141.517 237.6,-140.65 239.365,-147.424"/>
</g>
<!-- Node14 -->
<g id="node14" class="node"><title>Node14</title>
<g id="a_node14"><a xlink:href="../../de/d4a/classgame_engine_1_1actors_1_1behaviors_1_1_base_movement_behavior.html#a70e6d2becc4b988c5d35a4f5fed8b7dd" target="_top" xlink:title="gameEngine.actors.behaviors.\lBaseMovementBehavior.setRoute">
<polygon fill="white" stroke="black" points="237,-68 237,-98 415,-98 415,-68 237,-68"/>
<text text-anchor="start" x="245" y="-86" font-family="Helvetica,sans-Serif" font-size="10.00">gameEngine.actors.behaviors.</text>
<text text-anchor="middle" x="326" y="-75" font-family="Helvetica,sans-Serif" font-size="10.00">BaseMovementBehavior.setRoute</text>
</a>
</g>
</g>
<!-- Node1&#45;&gt;Node14 -->
<g id="edge14" class="edge"><title>Node1&#45;&gt;Node14</title>
<path fill="none" stroke="midnightblue" d="M103.033,-222.818C122.981,-196.474 167.676,-142.309 218,-113 225.631,-108.556 233.954,-104.741 242.478,-101.474"/>
<polygon fill="midnightblue" stroke="midnightblue" points="243.921,-104.675 252.16,-98.0134 241.565,-98.0835 243.921,-104.675"/>
</g>
<!-- Node17 -->
<g id="node17" class="node"><title>Node17</title>
<g id="a_node17"><a xlink:href="../../de/d0f/classgame_engine_1_1actors_1_1_real_actor.html#acff310cc4f2b9f0fa17e117604cc2fc6" target="_top" xlink:title="gameEngine.actors.RealActor.spawn\lProjectile">
<polygon fill="white" stroke="black" points="231,-19 231,-49 421,-49 421,-19 231,-19"/>
<text text-anchor="start" x="239" y="-37" font-family="Helvetica,sans-Serif" font-size="10.00">gameEngine.actors.RealActor.spawn</text>
<text text-anchor="middle" x="326" y="-26" font-family="Helvetica,sans-Serif" font-size="10.00">Projectile</text>
</a>
</g>
</g>
<!-- Node1&#45;&gt;Node17 -->
<g id="edge17" class="edge"><title>Node1&#45;&gt;Node17</title>
<path fill="none" stroke="midnightblue" d="M98.0184,-222.817C112.75,-187.735 154.147,-100.787 218,-58 220.409,-56.3855 222.911,-54.8782 225.485,-53.471"/>
<polygon fill="midnightblue" stroke="midnightblue" points="227.047,-56.6032 234.489,-49.0621 223.969,-50.3165 227.047,-56.6032"/>
</g>
<!-- Node3 -->
<g id="node3" class="node"><title>Node3</title>
<g id="a_node3"><a xlink:href="../../dd/d43/interfacegame_engine_1_1actors_1_1behaviors_1_1_i_behavior.html#a701a43f9c8de537acef9ed467a76ea2c" target="_top" xlink:title="gameEngine.actors.behaviors.\lIBehavior.copy">
<polygon fill="white" stroke="black" points="718,-424 718,-454 880,-454 880,-424 718,-424"/>
<text text-anchor="start" x="726" y="-442" font-family="Helvetica,sans-Serif" font-size="10.00">gameEngine.actors.behaviors.</text>
<text text-anchor="middle" x="799" y="-431" font-family="Helvetica,sans-Serif" font-size="10.00">IBehavior.copy</text>
</a>
</g>
</g>
<!-- Node2&#45;&gt;Node3 -->
<g id="edge2" class="edge"><title>Node2&#45;&gt;Node3</title>
<path fill="none" stroke="midnightblue" d="M404.181,-440.277C425.503,-440.576 448.648,-440.851 470,-441 564.22,-441.659 587.781,-441.812 682,-441 690.324,-440.928 698.984,-440.828 707.653,-440.709"/>
<polygon fill="midnightblue" stroke="midnightblue" points="707.868,-444.206 717.816,-440.563 707.767,-437.207 707.868,-444.206"/>
</g>
<!-- Node4 -->
<g id="node4" class="node"><title>Node4</title>
<g id="a_node4"><a xlink:href="../../d8/d65/classgame_engine_1_1actors_1_1_projectile_info.html#a54583f7736ac511b1aae0cacbb6ebf01" target="_top" xlink:title="gameEngine.actors.Projectile\lInfo.ProjectileInfo">
<polygon fill="white" stroke="black" points="498,-402 498,-432 654,-432 654,-402 498,-402"/>
<text text-anchor="start" x="506" y="-420" font-family="Helvetica,sans-Serif" font-size="10.00">gameEngine.actors.Projectile</text>
<text text-anchor="middle" x="576" y="-409" font-family="Helvetica,sans-Serif" font-size="10.00">Info.ProjectileInfo</text>
</a>
</g>
</g>
<!-- Node2&#45;&gt;Node4 -->
<g id="edge3" class="edge"><title>Node2&#45;&gt;Node4</title>
<path fill="none" stroke="midnightblue" d="M404.109,-432.16C430.587,-429.811 460.409,-427.165 487.641,-424.75"/>
<polygon fill="midnightblue" stroke="midnightblue" points="488.287,-428.206 497.938,-423.836 487.668,-421.234 488.287,-428.206"/>
</g>
<!-- Node4&#45;&gt;Node3 -->
<g id="edge4" class="edge"><title>Node4&#45;&gt;Node3</title>
<path fill="none" stroke="midnightblue" d="M654.295,-424.695C671.464,-426.404 689.811,-428.23 707.456,-429.987"/>
<polygon fill="midnightblue" stroke="midnightblue" points="707.452,-433.503 717.75,-431.011 708.146,-426.538 707.452,-433.503"/>
</g>
<!-- Node11 -->
<g id="node11" class="node"><title>Node11</title>
<g id="a_node11"><a xlink:href="../../dd/df0/classutilities_1_1_java_f_xutilities_1_1image_view_1_1_centered_image_view.html#a063a62060b9b686601364fdbb8b6cd86" target="_top" xlink:title="utilities.JavaFXutilities.image\lView.CenteredImageView.getXCenter">
<polygon fill="white" stroke="black" points="480,-169 480,-199 672,-199 672,-169 480,-169"/>
<text text-anchor="start" x="488" y="-187" font-family="Helvetica,sans-Serif" font-size="10.00">utilities.JavaFXutilities.image</text>
<text text-anchor="middle" x="576" y="-176" font-family="Helvetica,sans-Serif" font-size="10.00">View.CenteredImageView.getXCenter</text>
</a>
</g>
</g>
<!-- Node10&#45;&gt;Node11 -->
<g id="edge11" class="edge"><title>Node10&#45;&gt;Node11</title>
<path fill="none" stroke="midnightblue" d="M419.346,-175.213C435.654,-176.134 452.746,-177.099 469.385,-178.038"/>
<polygon fill="midnightblue" stroke="midnightblue" points="469.495,-181.55 479.676,-178.619 469.89,-174.561 469.495,-181.55"/>
</g>
<!-- Node13 -->
<g id="node13" class="node"><title>Node13</title>
<g id="a_node13"><a xlink:href="../../dd/df0/classutilities_1_1_java_f_xutilities_1_1image_view_1_1_centered_image_view.html#aa05843be4846dc0d9c23489cac21ed3d" target="_top" xlink:title="utilities.JavaFXutilities.image\lView.CenteredImageView.getYCenter">
<polygon fill="white" stroke="black" points="480.5,-120 480.5,-150 671.5,-150 671.5,-120 480.5,-120"/>
<text text-anchor="start" x="488.5" y="-138" font-family="Helvetica,sans-Serif" font-size="10.00">utilities.JavaFXutilities.image</text>
<text text-anchor="middle" x="576" y="-127" font-family="Helvetica,sans-Serif" font-size="10.00">View.CenteredImageView.getYCenter</text>
</a>
</g>
</g>
<!-- Node12&#45;&gt;Node13 -->
<g id="edge13" class="edge"><title>Node12&#45;&gt;Node13</title>
<path fill="none" stroke="midnightblue" d="M418.641,-133.109C435.482,-133.312 453.178,-133.526 470.365,-133.734"/>
<polygon fill="midnightblue" stroke="midnightblue" points="470.374,-137.235 480.415,-133.856 470.459,-130.235 470.374,-137.235"/>
</g>
<!-- Node15 -->
<g id="node15" class="node"><title>Node15</title>
<g id="a_node15"><a xlink:href="../../de/d4a/classgame_engine_1_1actors_1_1behaviors_1_1_base_movement_behavior.html#abbe13fb6a28a1168081ede01b9626d45" target="_top" xlink:title="gameEngine.actors.behaviors.\lBaseMovementBehavior.calculateTotal\lDistance">
<polygon fill="white" stroke="black" points="476,-60.5 476,-101.5 676,-101.5 676,-60.5 476,-60.5"/>
<text text-anchor="start" x="484" y="-89.5" font-family="Helvetica,sans-Serif" font-size="10.00">gameEngine.actors.behaviors.</text>
<text text-anchor="start" x="484" y="-78.5" font-family="Helvetica,sans-Serif" font-size="10.00">BaseMovementBehavior.calculateTotal</text>
<text text-anchor="middle" x="576" y="-67.5" font-family="Helvetica,sans-Serif" font-size="10.00">Distance</text>
</a>
</g>
</g>
<!-- Node14&#45;&gt;Node15 -->
<g id="edge15" class="edge"><title>Node14&#45;&gt;Node15</title>
<path fill="none" stroke="midnightblue" d="M415.134,-82.2892C431.39,-82.1581 448.547,-82.0198 465.347,-81.8843"/>
<polygon fill="midnightblue" stroke="midnightblue" points="465.779,-85.381 475.75,-81.8004 465.722,-78.3813 465.779,-85.381"/>
</g>
<!-- Node16 -->
<g id="node16" class="node"><title>Node16</title>
<g id="a_node16"><a xlink:href="../../d0/d61/classgame_authoring_1_1scenes_1_1path_building_1_1path_components_1_1route_to_point_translation_1_1_backend_route.html#a4decf5451f724697b0b0ba60cd230f6f" target="_top" xlink:title="gameAuthoring.scenes.path\lBuilding.pathComponents.routeTo\lPointTranslation.BackendRoute.getPoints">
<polygon fill="white" stroke="black" points="470.5,-0.5 470.5,-41.5 681.5,-41.5 681.5,-0.5 470.5,-0.5"/>
<text text-anchor="start" x="478.5" y="-29.5" font-family="Helvetica,sans-Serif" font-size="10.00">gameAuthoring.scenes.path</text>
<text text-anchor="start" x="478.5" y="-18.5" font-family="Helvetica,sans-Serif" font-size="10.00">Building.pathComponents.routeTo</text>
<text text-anchor="middle" x="576" y="-7.5" font-family="Helvetica,sans-Serif" font-size="10.00">PointTranslation.BackendRoute.getPoints</text>
</a>
</g>
</g>
<!-- Node14&#45;&gt;Node16 -->
<g id="edge16" class="edge"><title>Node14&#45;&gt;Node16</title>
<path fill="none" stroke="midnightblue" d="M392.708,-67.9438C406.372,-64.7298 420.669,-61.3059 434,-58 451.617,-53.6314 470.429,-48.8065 488.385,-44.124"/>
<polygon fill="midnightblue" stroke="midnightblue" points="489.47,-47.4579 498.259,-41.541 487.699,-40.6858 489.47,-47.4579"/>
</g>
</g>
</svg>
