<?xml version="1.0" encoding="UTF-8" standalone="no"?>
<!DOCTYPE svg PUBLIC "-//W3C//DTD SVG 1.1//EN"
 "http://www.w3.org/Graphics/SVG/1.1/DTD/svg11.dtd">
<!-- Generated by graphviz version 2.36.0 (20140111.2315)
 -->
<!-- Title: utilities.reflection.Reflection.typesMatch Pages: 1 -->
<svg width="580pt" height="111pt"
 viewBox="0.00 0.00 580.00 111.00" xmlns="http://www.w3.org/2000/svg" xmlns:xlink="http://www.w3.org/1999/xlink">
<g id="graph0" class="graph" transform="scale(1 1) rotate(0) translate(4 107)">
<title>utilities.reflection.Reflection.typesMatch</title>
<polygon fill="white" stroke="none" points="-4,4 -4,-107 576,-107 576,4 -4,4"/>
<!-- Node1 -->
<g id="node1" class="node"><title>Node1</title>
<polygon fill="#bfbfbf" stroke="black" points="0,-24 0,-54 176,-54 176,-24 0,-24"/>
<text text-anchor="start" x="8" y="-42" font-family="Helvetica,sans-Serif" font-size="10.00">utilities.reflection.Reflection.types</text>
<text text-anchor="middle" x="88" y="-31" font-family="Helvetica,sans-Serif" font-size="10.00">Match</text>
</g>
<!-- Node2 -->
<g id="node2" class="node"><title>Node2</title>
<g id="a_node2"><a xlink:href="../../db/d5e/classutilities_1_1reflection_1_1_reflection.html#a7df29e17f907d47edfe4971a3539749d" target="_top" xlink:title="utilities.reflection.Reflection.is\lInstance">
<polygon fill="white" stroke="black" points="212.5,-49 212.5,-79 369.5,-79 369.5,-49 212.5,-49"/>
<text text-anchor="start" x="220.5" y="-67" font-family="Helvetica,sans-Serif" font-size="10.00">utilities.reflection.Reflection.is</text>
<text text-anchor="middle" x="291" y="-56" font-family="Helvetica,sans-Serif" font-size="10.00">Instance</text>
</a>
</g>
</g>
<!-- Node1&#45;&gt;Node2 -->
<g id="edge1" class="edge"><title>Node1&#45;&gt;Node2</title>
<path fill="none" stroke="midnightblue" d="M176.285,-49.8563C184.889,-50.9265 193.626,-52.0131 202.235,-53.084"/>
<polygon fill="midnightblue" stroke="midnightblue" points="201.913,-56.5708 212.268,-54.3319 202.777,-49.6243 201.913,-56.5708"/>
</g>
<!-- Node5 -->
<g id="node5" class="node"><title>Node5</title>
<g id="a_node5"><a xlink:href="../../db/d5e/classutilities_1_1reflection_1_1_reflection.html#a497e013671ed7d93df05688d7c114b95" target="_top" xlink:title="utilities.reflection.Reflection.is\lVarArgs">
<polygon fill="white" stroke="black" points="212.5,-0 212.5,-30 369.5,-30 369.5,-0 212.5,-0"/>
<text text-anchor="start" x="220.5" y="-18" font-family="Helvetica,sans-Serif" font-size="10.00">utilities.reflection.Reflection.is</text>
<text text-anchor="middle" x="291" y="-7" font-family="Helvetica,sans-Serif" font-size="10.00">VarArgs</text>
</a>
</g>
</g>
<!-- Node1&#45;&gt;Node5 -->
<g id="edge4" class="edge"><title>Node1&#45;&gt;Node5</title>
<path fill="none" stroke="midnightblue" d="M176.285,-28.578C184.889,-27.5505 193.626,-26.5074 202.235,-25.4794"/>
<polygon fill="midnightblue" stroke="midnightblue" points="202.754,-28.9424 212.268,-24.2814 201.924,-21.9918 202.754,-28.9424"/>
</g>
<!-- Node3 -->
<g id="node3" class="node"><title>Node3</title>
<g id="a_node3"><a xlink:href="../../db/d5e/classutilities_1_1reflection_1_1_reflection.html#aaa047fa3dd4986a5c588f1dd9f971662" target="_top" xlink:title="utilities.reflection.Reflection.get\lFieldValue">
<polygon fill="white" stroke="black" points="406.5,-73 406.5,-103 571.5,-103 571.5,-73 406.5,-73"/>
<text text-anchor="start" x="414.5" y="-91" font-family="Helvetica,sans-Serif" font-size="10.00">utilities.reflection.Reflection.get</text>
<text text-anchor="middle" x="489" y="-80" font-family="Helvetica,sans-Serif" font-size="10.00">FieldValue</text>
</a>
</g>
</g>
<!-- Node2&#45;&gt;Node3 -->
<g id="edge2" class="edge"><title>Node2&#45;&gt;Node3</title>
<path fill="none" stroke="midnightblue" d="M369.746,-73.5199C378.521,-74.5944 387.522,-75.6966 396.452,-76.79"/>
<polygon fill="midnightblue" stroke="midnightblue" points="396.136,-80.2774 406.488,-78.0189 396.987,-73.3293 396.136,-80.2774"/>
</g>
<!-- Node4 -->
<g id="node4" class="node"><title>Node4</title>
<g id="a_node4"><a xlink:href="../../db/d5e/classutilities_1_1reflection_1_1_reflection.html#a8f0f67c16f6741f9ed69564d7c0c66fd" target="_top" xlink:title="utilities.reflection.Reflection.is\lAssignableFrom">
<polygon fill="white" stroke="black" points="410.5,-24 410.5,-54 567.5,-54 567.5,-24 410.5,-24"/>
<text text-anchor="start" x="418.5" y="-42" font-family="Helvetica,sans-Serif" font-size="10.00">utilities.reflection.Reflection.is</text>
<text text-anchor="middle" x="489" y="-31" font-family="Helvetica,sans-Serif" font-size="10.00">AssignableFrom</text>
</a>
</g>
</g>
<!-- Node2&#45;&gt;Node4 -->
<g id="edge3" class="edge"><title>Node2&#45;&gt;Node4</title>
<path fill="none" stroke="midnightblue" d="M369.746,-54.0834C379.766,-52.8054 390.081,-51.4897 400.248,-50.1929"/>
<polygon fill="midnightblue" stroke="midnightblue" points="400.871,-53.6418 410.348,-48.9046 399.986,-46.698 400.871,-53.6418"/>
</g>
</g>
</svg>
