<?xml version="1.0" encoding="UTF-8" standalone="no"?>
<!DOCTYPE svg PUBLIC "-//W3C//DTD SVG 1.1//EN"
 "http://www.w3.org/Graphics/SVG/1.1/DTD/svg11.dtd">
<!-- Generated by graphviz version 2.36.0 (20140111.2315)
 -->
<!-- Title: utilities.reflection.Reflection.callMethod Pages: 1 -->
<!--zoomable 111 -->
<svg id="main" version="1.1" xmlns="http://www.w3.org/2000/svg" xmlns:xlink="http://www.w3.org/1999/xlink" xml:space="preserve" onload="init(evt)">
<style type="text/css"><![CDATA[
.edge:hover path { stroke: red; }
.edge:hover polygon { stroke: red; fill: red; }
]]></style>
<script type="text/javascript"><![CDATA[
var edges = document.getElementsByTagName('g');
if (edges && edges.length) {
  for (var i=0;i<edges.length;i++) {
    if (edges[i].id.substr(0,4)=='edge') {
      edges[i].setAttribute('class','edge');
    }
  }
}
]]></script>
        <defs>
                <circle id="rim" cx="0" cy="0" r="7"/>
                <circle id="rim2" cx="0" cy="0" r="3.5"/>
                <g id="zoomPlus">
                        <use xlink:href="#rim" fill="#404040">
                                <set attributeName="fill" to="#808080" begin="zoomplus.mouseover" end="zoomplus.mouseout"/>
                        </use>
                        <path d="M-4,0h8M0,-4v8" fill="none" stroke="white" stroke-width="1.5" pointer-events="none"/>
                </g>
                <g id="zoomMin">
                        <use xlink:href="#rim" fill="#404040">
                                <set attributeName="fill" to="#808080" begin="zoomminus.mouseover" end="zoomminus.mouseout"/>
                        </use>
                        <path d="M-4,0h8" fill="none" stroke="white" stroke-width="1.5" pointer-events="none"/>
                </g>
                <g id="dirArrow">
                        <path fill="none" stroke="white" stroke-width="1.5" d="M0,-3.0v7 M-2.5,-0.5L0,-3.0L2.5,-0.5"/>
                </g>
               <g id="resetDef">
                       <use xlink:href="#rim2" fill="#404040">
                               <set attributeName="fill" to="#808080" begin="reset.mouseover" end="reset.mouseout"/>
                       </use>
               </g>
        </defs>

<script type="text/javascript">
var viewWidth = 814;
var viewHeight = 111;
var sectionId = 'dynsection-0';
</script>
<script xlink:href="../../svgpan.js"/>
<svg id="graph" class="graph">
<g id="viewport">
<title>utilities.reflection.Reflection.callMethod</title>
<polygon fill="white" stroke="none" points="-4,4 -4,-107 810,-107 810,4 -4,4"/>
<!-- Node1 -->
<g id="node1" class="node"><title>Node1</title>
<polygon fill="#bfbfbf" stroke="black" points="0.5,-51 0.5,-81 165.5,-81 165.5,-51 0.5,-51"/>
<text text-anchor="start" x="8.5" y="-69" font-family="Helvetica,sans-Serif" font-size="10.00">utilities.reflection.Reflection.call</text>
<text text-anchor="middle" x="83" y="-58" font-family="Helvetica,sans-Serif" font-size="10.00">Method</text>
</g>
<!-- Node2 -->
<g id="node2" class="node"><title>Node2</title>
<g id="a_node2"><a xlink:href="../../db/d5e/classutilities_1_1reflection_1_1_reflection.html#a0805989b3e8ba1ef74ee5f8849c86261" target="_top" xlink:title="utilities.reflection.Reflection.convertArgs">
<polygon fill="white" stroke="black" points="202.5,-78.5 202.5,-97.5 409.5,-97.5 409.5,-78.5 202.5,-78.5"/>
<text text-anchor="middle" x="306" y="-85.5" font-family="Helvetica,sans-Serif" font-size="10.00">utilities.reflection.Reflection.convertArgs</text>
</a>
</g>
</g>
<!-- Node1&#45;&gt;Node2 -->
<g id="edge1" class="edge"><title>Node1&#45;&gt;Node2</title>
<path fill="none" stroke="midnightblue" d="M165.664,-74.1295C176.696,-75.2277 188.14,-76.3669 199.513,-77.499"/>
<polygon fill="midnightblue" stroke="midnightblue" points="199.179,-80.983 209.477,-78.4909 199.873,-74.0175 199.179,-80.983"/>
</g>
<!-- Node4 -->
<g id="node4" class="node"><title>Node4</title>
<g id="a_node4"><a xlink:href="../../db/d5e/classutilities_1_1reflection_1_1_reflection.html#a747b89ab3dde1da74495ed1ebf8e15b4" target="_top" xlink:title="utilities.reflection.Reflection.types\lMatch">
<polygon fill="white" stroke="black" points="218,-29 218,-59 394,-59 394,-29 218,-29"/>
<text text-anchor="start" x="226" y="-47" font-family="Helvetica,sans-Serif" font-size="10.00">utilities.reflection.Reflection.types</text>
<text text-anchor="middle" x="306" y="-36" font-family="Helvetica,sans-Serif" font-size="10.00">Match</text>
</a>
</g>
</g>
<!-- Node1&#45;&gt;Node4 -->
<g id="edge3" class="edge"><title>Node1&#45;&gt;Node4</title>
<path fill="none" stroke="midnightblue" d="M165.664,-57.8705C179.318,-56.5113 193.604,-55.0892 207.605,-53.6954"/>
<polygon fill="midnightblue" stroke="midnightblue" points="208.133,-57.1603 217.737,-52.6868 207.439,-50.1947 208.133,-57.1603"/>
</g>
<!-- Node3 -->
<g id="node3" class="node"><title>Node3</title>
<g id="a_node3"><a xlink:href="../../db/d5e/classutilities_1_1reflection_1_1_reflection.html#a497e013671ed7d93df05688d7c114b95" target="_top" xlink:title="utilities.reflection.Reflection.is\lVarArgs">
<polygon fill="white" stroke="black" points="446.5,-73 446.5,-103 603.5,-103 603.5,-73 446.5,-73"/>
<text text-anchor="start" x="454.5" y="-91" font-family="Helvetica,sans-Serif" font-size="10.00">utilities.reflection.Reflection.is</text>
<text text-anchor="middle" x="525" y="-80" font-family="Helvetica,sans-Serif" font-size="10.00">VarArgs</text>
</a>
</g>
</g>
<!-- Node2&#45;&gt;Node3 -->
<g id="edge2" class="edge"><title>Node2&#45;&gt;Node3</title>
<path fill="none" stroke="midnightblue" d="M409.781,-88C418.599,-88 427.468,-88 436.154,-88"/>
<polygon fill="midnightblue" stroke="midnightblue" points="436.252,-91.5001 446.252,-88 436.252,-84.5001 436.252,-91.5001"/>
</g>
<!-- Node4&#45;&gt;Node3 -->
<g id="edge4" class="edge"><title>Node4&#45;&gt;Node3</title>
<path fill="none" stroke="midnightblue" d="M381.072,-59.0192C399.997,-62.8564 420.48,-67.0097 439.868,-70.9411"/>
<polygon fill="midnightblue" stroke="midnightblue" points="439.397,-74.4167 449.893,-72.9738 440.788,-67.5563 439.397,-74.4167"/>
</g>
<!-- Node5 -->
<g id="node5" class="node"><title>Node5</title>
<g id="a_node5"><a xlink:href="../../db/d5e/classutilities_1_1reflection_1_1_reflection.html#a7df29e17f907d47edfe4971a3539749d" target="_top" xlink:title="utilities.reflection.Reflection.is\lInstance">
<polygon fill="white" stroke="black" points="446.5,-24 446.5,-54 603.5,-54 603.5,-24 446.5,-24"/>
<text text-anchor="start" x="454.5" y="-42" font-family="Helvetica,sans-Serif" font-size="10.00">utilities.reflection.Reflection.is</text>
<text text-anchor="middle" x="525" y="-31" font-family="Helvetica,sans-Serif" font-size="10.00">Instance</text>
</a>
</g>
</g>
<!-- Node4&#45;&gt;Node5 -->
<g id="edge5" class="edge"><title>Node4&#45;&gt;Node5</title>
<path fill="none" stroke="midnightblue" d="M394.012,-41.9951C407.96,-41.6737 422.401,-41.341 436.363,-41.0193"/>
<polygon fill="midnightblue" stroke="midnightblue" points="436.515,-44.5168 446.431,-40.7873 436.353,-37.5187 436.515,-44.5168"/>
</g>
<!-- Node6 -->
<g id="node6" class="node"><title>Node6</title>
<g id="a_node6"><a xlink:href="../../db/d5e/classutilities_1_1reflection_1_1_reflection.html#aaa047fa3dd4986a5c588f1dd9f971662" target="_top" xlink:title="utilities.reflection.Reflection.get\lFieldValue">
<polygon fill="white" stroke="black" points="640.5,-49 640.5,-79 805.5,-79 805.5,-49 640.5,-49"/>
<text text-anchor="start" x="648.5" y="-67" font-family="Helvetica,sans-Serif" font-size="10.00">utilities.reflection.Reflection.get</text>
<text text-anchor="middle" x="723" y="-56" font-family="Helvetica,sans-Serif" font-size="10.00">FieldValue</text>
</a>
</g>
</g>
<!-- Node5&#45;&gt;Node6 -->
<g id="edge6" class="edge"><title>Node5&#45;&gt;Node6</title>
<path fill="none" stroke="midnightblue" d="M603.746,-48.9166C612.521,-50.0358 621.522,-51.184 630.452,-52.323"/>
<polygon fill="midnightblue" stroke="midnightblue" points="630.125,-55.8095 640.488,-53.603 631.011,-48.8658 630.125,-55.8095"/>
</g>
<!-- Node7 -->
<g id="node7" class="node"><title>Node7</title>
<g id="a_node7"><a xlink:href="../../db/d5e/classutilities_1_1reflection_1_1_reflection.html#a8f0f67c16f6741f9ed69564d7c0c66fd" target="_top" xlink:title="utilities.reflection.Reflection.is\lAssignableFrom">
<polygon fill="white" stroke="black" points="644.5,-0 644.5,-30 801.5,-30 801.5,-0 644.5,-0"/>
<text text-anchor="start" x="652.5" y="-18" font-family="Helvetica,sans-Serif" font-size="10.00">utilities.reflection.Reflection.is</text>
<text text-anchor="middle" x="723" y="-7" font-family="Helvetica,sans-Serif" font-size="10.00">AssignableFrom</text>
</a>
</g>
</g>
<!-- Node5&#45;&gt;Node7 -->
<g id="edge7" class="edge"><title>Node5&#45;&gt;Node7</title>
<path fill="none" stroke="midnightblue" d="M603.746,-29.4801C613.766,-28.2532 624.081,-26.9901 634.248,-25.7452"/>
<polygon fill="midnightblue" stroke="midnightblue" points="634.848,-29.1979 644.348,-24.5084 633.997,-22.2498 634.848,-29.1979"/>
</g>
</g>
</svg>
        <g id="navigator" transform="translate(0 0)" fill="#404254">
                <rect fill="#f2f5e9" fill-opacity="0.5" stroke="#606060" stroke-width=".5" x="0" y="0" width="60" height="60"/>
                <use id="zoomplus" xlink:href="#zoomPlus" x="17" y="9" onmousedown="handleZoom(evt,'in')"/>
                <use id="zoomminus" xlink:href="#zoomMin" x="42" y="9" onmousedown="handleZoom(evt,'out')"/>
                <use id="reset" xlink:href="#resetDef" x="30" y="36" onmousedown="handleReset()"/>
                <g id="arrowUp" xlink:href="#dirArrow" transform="translate(30 24)" onmousedown="handlePan(0,-1)">
                  <use xlink:href="#rim" fill="#404040">
                        <set attributeName="fill" to="#808080" begin="arrowUp.mouseover" end="arrowUp.mouseout"/>
                  </use>
                  <path fill="none" stroke="white" stroke-width="1.5" d="M0,-3.0v7 M-2.5,-0.5L0,-3.0L2.5,-0.5"/>
                </g>
                <g id="arrowRight" xlink:href="#dirArrow" transform="rotate(90) translate(36 -43)" onmousedown="handlePan(1,0)">
                  <use xlink:href="#rim" fill="#404040">
                        <set attributeName="fill" to="#808080" begin="arrowRight.mouseover" end="arrowRight.mouseout"/>
                  </use>
                  <path fill="none" stroke="white" stroke-width="1.5" d="M0,-3.0v7 M-2.5,-0.5L0,-3.0L2.5,-0.5"/>
                </g>
                <g id="arrowDown" xlink:href="#dirArrow" transform="rotate(180) translate(-30 -48)" onmousedown="handlePan(0,1)">
                  <use xlink:href="#rim" fill="#404040">
                        <set attributeName="fill" to="#808080" begin="arrowDown.mouseover" end="arrowDown.mouseout"/>
                  </use>
                  <path fill="none" stroke="white" stroke-width="1.5" d="M0,-3.0v7 M-2.5,-0.5L0,-3.0L2.5,-0.5"/>
                </g>
                <g id="arrowLeft" xlink:href="#dirArrow" transform="rotate(270) translate(-36 17)" onmousedown="handlePan(-1,0)">
                  <use xlink:href="#rim" fill="#404040">
                        <set attributeName="fill" to="#808080" begin="arrowLeft.mouseover" end="arrowLeft.mouseout"/>
                  </use>
                  <path fill="none" stroke="white" stroke-width="1.5" d="M0,-3.0v7 M-2.5,-0.5L0,-3.0L2.5,-0.5"/>
                </g>
        </g>
        <svg viewBox="0 0 15 15" width="100%" height="30px" preserveAspectRatio="xMaxYMin meet">
         <g id="arrow_out" transform="scale(0.3 0.3)">
          <a xlink:href="classutilities_1_1reflection_1_1_reflection_ae725b9901e2ac081e780f0477d96fc4e_cgraph_org.svg" target="_base">
           <rect id="button" ry="5" rx="5" y="6" x="6" height="38" width="38"
                fill="#f2f5e9" fill-opacity="0.5" stroke="#606060" stroke-width="1.0"/>
           <path id="arrow"
             d="M 11.500037,31.436501 C 11.940474,20.09759 22.043105,11.32322 32.158766,21.979434 L 37.068811,17.246167 C 37.068811,17.246167 37.088388,32 37.088388,32 L 22.160133,31.978069 C 22.160133,31.978069 26.997745,27.140456 26.997745,27.140456 C 18.528582,18.264221 13.291696,25.230495 11.500037,31.436501 z"
             style="fill:#404040;"/>
          </a>
         </g>
        </svg>
</svg>
