<?xml version="1.0" encoding="UTF-8" standalone="no"?>
<!DOCTYPE svg PUBLIC "-//W3C//DTD SVG 1.1//EN"
 "http://www.w3.org/Graphics/SVG/1.1/DTD/svg11.dtd">
<!-- Generated by graphviz version 2.36.0 (20140111.2315)
 -->
<!-- Title: utilities.reflection.Reflection.isAssignableFrom Pages: 1 -->
<svg width="788pt" height="87pt"
 viewBox="0.00 0.00 788.00 87.00" xmlns="http://www.w3.org/2000/svg" xmlns:xlink="http://www.w3.org/1999/xlink">
<g id="graph0" class="graph" transform="scale(1 1) rotate(0) translate(4 83)">
<title>utilities.reflection.Reflection.isAssignableFrom</title>
<polygon fill="white" stroke="none" points="-4,4 -4,-83 784,-83 784,4 -4,4"/>
<!-- Node1 -->
<g id="node1" class="node"><title>Node1</title>
<polygon fill="#bfbfbf" stroke="black" points="0.5,-24 0.5,-54 157.5,-54 157.5,-24 0.5,-24"/>
<text text-anchor="start" x="8.5" y="-42" font-family="Helvetica,sans-Serif" font-size="10.00">utilities.reflection.Reflection.is</text>
<text text-anchor="middle" x="79" y="-31" font-family="Helvetica,sans-Serif" font-size="10.00">AssignableFrom</text>
</g>
<!-- Node2 -->
<g id="node2" class="node"><title>Node2</title>
<g id="a_node2"><a xlink:href="../../db/d5e/classutilities_1_1reflection_1_1_reflection.html#a7df29e17f907d47edfe4971a3539749d" target="_top" xlink:title="utilities.reflection.Reflection.is\lInstance">
<polygon fill="white" stroke="black" points="194.5,-24 194.5,-54 351.5,-54 351.5,-24 194.5,-24"/>
<text text-anchor="start" x="202.5" y="-42" font-family="Helvetica,sans-Serif" font-size="10.00">utilities.reflection.Reflection.is</text>
<text text-anchor="middle" x="273" y="-31" font-family="Helvetica,sans-Serif" font-size="10.00">Instance</text>
</a>
</g>
</g>
<!-- Node1&#45;&gt;Node2 -->
<g id="edge1" class="edge"><title>Node1&#45;&gt;Node2</title>
<path fill="none" stroke="midnightblue" d="M167.605,-39C176.571,-39 185.635,-39 194.482,-39"/>
<polygon fill="midnightblue" stroke="midnightblue" points="167.54,-35.5001 157.54,-39 167.54,-42.5001 167.54,-35.5001"/>
</g>
<!-- Node3 -->
<g id="node3" class="node"><title>Node3</title>
<g id="a_node3"><a xlink:href="../../db/d5e/classutilities_1_1reflection_1_1_reflection.html#a747b89ab3dde1da74495ed1ebf8e15b4" target="_top" xlink:title="utilities.reflection.Reflection.types\lMatch">
<polygon fill="white" stroke="black" points="388,-24 388,-54 564,-54 564,-24 388,-24"/>
<text text-anchor="start" x="396" y="-42" font-family="Helvetica,sans-Serif" font-size="10.00">utilities.reflection.Reflection.types</text>
<text text-anchor="middle" x="476" y="-31" font-family="Helvetica,sans-Serif" font-size="10.00">Match</text>
</a>
</g>
</g>
<!-- Node2&#45;&gt;Node3 -->
<g id="edge2" class="edge"><title>Node2&#45;&gt;Node3</title>
<path fill="none" stroke="midnightblue" d="M361.775,-39C370.411,-39 379.174,-39 387.803,-39"/>
<polygon fill="midnightblue" stroke="midnightblue" points="361.712,-35.5001 351.712,-39 361.712,-42.5001 361.712,-35.5001"/>
</g>
<!-- Node4 -->
<g id="node4" class="node"><title>Node4</title>
<g id="a_node4"><a xlink:href="../../db/d5e/classutilities_1_1reflection_1_1_reflection.html#ad68c25f260fd339ae1439aad97b39a82" target="_top" xlink:title="utilities.reflection.Reflection.create\lInstance">
<polygon fill="white" stroke="black" points="600,-49 600,-79 780,-79 780,-49 600,-49"/>
<text text-anchor="start" x="608" y="-67" font-family="Helvetica,sans-Serif" font-size="10.00">utilities.reflection.Reflection.create</text>
<text text-anchor="middle" x="690" y="-56" font-family="Helvetica,sans-Serif" font-size="10.00">Instance</text>
</a>
</g>
</g>
<!-- Node3&#45;&gt;Node4 -->
<g id="edge3" class="edge"><title>Node3&#45;&gt;Node4</title>
<path fill="none" stroke="midnightblue" d="M574.134,-50.4545C582.684,-51.4627 591.311,-52.48 599.791,-53.48"/>
<polygon fill="midnightblue" stroke="midnightblue" points="574.487,-46.972 564.146,-49.2767 573.668,-53.9238 574.487,-46.972"/>
</g>
<!-- Node5 -->
<g id="node5" class="node"><title>Node5</title>
<g id="a_node5"><a xlink:href="../../db/d5e/classutilities_1_1reflection_1_1_reflection.html#ae725b9901e2ac081e780f0477d96fc4e" target="_top" xlink:title="utilities.reflection.Reflection.call\lMethod">
<polygon fill="white" stroke="black" points="607.5,-0 607.5,-30 772.5,-30 772.5,-0 607.5,-0"/>
<text text-anchor="start" x="615.5" y="-18" font-family="Helvetica,sans-Serif" font-size="10.00">utilities.reflection.Reflection.call</text>
<text text-anchor="middle" x="690" y="-7" font-family="Helvetica,sans-Serif" font-size="10.00">Method</text>
</a>
</g>
</g>
<!-- Node3&#45;&gt;Node5 -->
<g id="edge4" class="edge"><title>Node3&#45;&gt;Node5</title>
<path fill="none" stroke="midnightblue" d="M574.248,-27.9908C585.301,-26.7395 596.482,-25.4737 607.306,-24.2484"/>
<polygon fill="midnightblue" stroke="midnightblue" points="573.689,-24.5316 564.146,-29.1344 574.477,-31.4872 573.689,-24.5316"/>
</g>
</g>
</svg>
