<?xml version="1.0" encoding="UTF-8" standalone="no"?>
<!DOCTYPE svg PUBLIC "-//W3C//DTD SVG 1.1//EN"
 "http://www.w3.org/Graphics/SVG/1.1/DTD/svg11.dtd">
<!-- Generated by graphviz version 2.36.0 (20140111.2315)
 -->
<!-- Title: utilities.reflection.Reflection.getFieldValue Pages: 1 -->
<!--zoomable 87 -->
<svg id="main" version="1.1" xmlns="http://www.w3.org/2000/svg" xmlns:xlink="http://www.w3.org/1999/xlink" xml:space="preserve" onload="init(evt)">
<style type="text/css"><![CDATA[
.edge:hover path { stroke: red; }
.edge:hover polygon { stroke: red; fill: red; }
]]></style>
<script type="text/javascript"><![CDATA[
var edges = document.getElementsByTagName('g');
if (edges && edges.length) {
  for (var i=0;i<edges.length;i++) {
    if (edges[i].id.substr(0,4)=='edge') {
      edges[i].setAttribute('class','edge');
    }
  }
}
]]></script>
        <defs>
                <circle id="rim" cx="0" cy="0" r="7"/>
                <circle id="rim2" cx="0" cy="0" r="3.5"/>
                <g id="zoomPlus">
                        <use xlink:href="#rim" fill="#404040">
                                <set attributeName="fill" to="#808080" begin="zoomplus.mouseover" end="zoomplus.mouseout"/>
                        </use>
                        <path d="M-4,0h8M0,-4v8" fill="none" stroke="white" stroke-width="1.5" pointer-events="none"/>
                </g>
                <g id="zoomMin">
                        <use xlink:href="#rim" fill="#404040">
                                <set attributeName="fill" to="#808080" begin="zoomminus.mouseover" end="zoomminus.mouseout"/>
                        </use>
                        <path d="M-4,0h8" fill="none" stroke="white" stroke-width="1.5" pointer-events="none"/>
                </g>
                <g id="dirArrow">
                        <path fill="none" stroke="white" stroke-width="1.5" d="M0,-3.0v7 M-2.5,-0.5L0,-3.0L2.5,-0.5"/>
                </g>
               <g id="resetDef">
                       <use xlink:href="#rim2" fill="#404040">
                               <set attributeName="fill" to="#808080" begin="reset.mouseover" end="reset.mouseout"/>
                       </use>
               </g>
        </defs>

<script type="text/javascript">
var viewWidth = 796;
var viewHeight = 87;
var sectionId = 'dynsection-5';
</script>
<script xlink:href="../../svgpan.js"/>
<svg id="graph" class="graph">
<g id="viewport">
<title>utilities.reflection.Reflection.getFieldValue</title>
<polygon fill="white" stroke="none" points="-4,4 -4,-83 792,-83 792,4 -4,4"/>
<!-- Node1 -->
<g id="node1" class="node"><title>Node1</title>
<polygon fill="#bfbfbf" stroke="black" points="0.5,-24 0.5,-54 165.5,-54 165.5,-24 0.5,-24"/>
<text text-anchor="start" x="8.5" y="-42" font-family="Helvetica,sans-Serif" font-size="10.00">utilities.reflection.Reflection.get</text>
<text text-anchor="middle" x="83" y="-31" font-family="Helvetica,sans-Serif" font-size="10.00">FieldValue</text>
</g>
<!-- Node2 -->
<g id="node2" class="node"><title>Node2</title>
<g id="a_node2"><a xlink:href="../../db/d5e/classutilities_1_1reflection_1_1_reflection.html#a7df29e17f907d47edfe4971a3539749d" target="_top" xlink:title="utilities.reflection.Reflection.is\lInstance">
<polygon fill="white" stroke="black" points="202.5,-24 202.5,-54 359.5,-54 359.5,-24 202.5,-24"/>
<text text-anchor="start" x="210.5" y="-42" font-family="Helvetica,sans-Serif" font-size="10.00">utilities.reflection.Reflection.is</text>
<text text-anchor="middle" x="281" y="-31" font-family="Helvetica,sans-Serif" font-size="10.00">Instance</text>
</a>
</g>
</g>
<!-- Node1&#45;&gt;Node2 -->
<g id="edge1" class="edge"><title>Node1&#45;&gt;Node2</title>
<path fill="none" stroke="midnightblue" d="M175.958,-39C184.734,-39 193.576,-39 202.199,-39"/>
<polygon fill="midnightblue" stroke="midnightblue" points="175.702,-35.5001 165.702,-39 175.702,-42.5001 175.702,-35.5001"/>
</g>
<!-- Node3 -->
<g id="node3" class="node"><title>Node3</title>
<g id="a_node3"><a xlink:href="../../db/d5e/classutilities_1_1reflection_1_1_reflection.html#a747b89ab3dde1da74495ed1ebf8e15b4" target="_top" xlink:title="utilities.reflection.Reflection.types\lMatch">
<polygon fill="white" stroke="black" points="396,-24 396,-54 572,-54 572,-24 396,-24"/>
<text text-anchor="start" x="404" y="-42" font-family="Helvetica,sans-Serif" font-size="10.00">utilities.reflection.Reflection.types</text>
<text text-anchor="middle" x="484" y="-31" font-family="Helvetica,sans-Serif" font-size="10.00">Match</text>
</a>
</g>
</g>
<!-- Node2&#45;&gt;Node3 -->
<g id="edge2" class="edge"><title>Node2&#45;&gt;Node3</title>
<path fill="none" stroke="midnightblue" d="M369.775,-39C378.411,-39 387.174,-39 395.803,-39"/>
<polygon fill="midnightblue" stroke="midnightblue" points="369.712,-35.5001 359.712,-39 369.712,-42.5001 369.712,-35.5001"/>
</g>
<!-- Node4 -->
<g id="node4" class="node"><title>Node4</title>
<g id="a_node4"><a xlink:href="../../db/d5e/classutilities_1_1reflection_1_1_reflection.html#ad68c25f260fd339ae1439aad97b39a82" target="_top" xlink:title="utilities.reflection.Reflection.create\lInstance">
<polygon fill="white" stroke="black" points="608,-49 608,-79 788,-79 788,-49 608,-49"/>
<text text-anchor="start" x="616" y="-67" font-family="Helvetica,sans-Serif" font-size="10.00">utilities.reflection.Reflection.create</text>
<text text-anchor="middle" x="698" y="-56" font-family="Helvetica,sans-Serif" font-size="10.00">Instance</text>
</a>
</g>
</g>
<!-- Node3&#45;&gt;Node4 -->
<g id="edge3" class="edge"><title>Node3&#45;&gt;Node4</title>
<path fill="none" stroke="midnightblue" d="M582.134,-50.4545C590.684,-51.4627 599.311,-52.48 607.791,-53.48"/>
<polygon fill="midnightblue" stroke="midnightblue" points="582.487,-46.972 572.146,-49.2767 581.668,-53.9238 582.487,-46.972"/>
</g>
<!-- Node5 -->
<g id="node5" class="node"><title>Node5</title>
<g id="a_node5"><a xlink:href="../../db/d5e/classutilities_1_1reflection_1_1_reflection.html#ae725b9901e2ac081e780f0477d96fc4e" target="_top" xlink:title="utilities.reflection.Reflection.call\lMethod">
<polygon fill="white" stroke="black" points="615.5,-0 615.5,-30 780.5,-30 780.5,-0 615.5,-0"/>
<text text-anchor="start" x="623.5" y="-18" font-family="Helvetica,sans-Serif" font-size="10.00">utilities.reflection.Reflection.call</text>
<text text-anchor="middle" x="698" y="-7" font-family="Helvetica,sans-Serif" font-size="10.00">Method</text>
</a>
</g>
</g>
<!-- Node3&#45;&gt;Node5 -->
<g id="edge4" class="edge"><title>Node3&#45;&gt;Node5</title>
<path fill="none" stroke="midnightblue" d="M582.248,-27.9908C593.301,-26.7395 604.482,-25.4737 615.306,-24.2484"/>
<polygon fill="midnightblue" stroke="midnightblue" points="581.689,-24.5316 572.146,-29.1344 582.477,-31.4872 581.689,-24.5316"/>
</g>
</g>
</svg>
        <g id="navigator" transform="translate(0 0)" fill="#404254">
                <rect fill="#f2f5e9" fill-opacity="0.5" stroke="#606060" stroke-width=".5" x="0" y="0" width="60" height="60"/>
                <use id="zoomplus" xlink:href="#zoomPlus" x="17" y="9" onmousedown="handleZoom(evt,'in')"/>
                <use id="zoomminus" xlink:href="#zoomMin" x="42" y="9" onmousedown="handleZoom(evt,'out')"/>
                <use id="reset" xlink:href="#resetDef" x="30" y="36" onmousedown="handleReset()"/>
                <g id="arrowUp" xlink:href="#dirArrow" transform="translate(30 24)" onmousedown="handlePan(0,-1)">
                  <use xlink:href="#rim" fill="#404040">
                        <set attributeName="fill" to="#808080" begin="arrowUp.mouseover" end="arrowUp.mouseout"/>
                  </use>
                  <path fill="none" stroke="white" stroke-width="1.5" d="M0,-3.0v7 M-2.5,-0.5L0,-3.0L2.5,-0.5"/>
                </g>
                <g id="arrowRight" xlink:href="#dirArrow" transform="rotate(90) translate(36 -43)" onmousedown="handlePan(1,0)">
                  <use xlink:href="#rim" fill="#404040">
                        <set attributeName="fill" to="#808080" begin="arrowRight.mouseover" end="arrowRight.mouseout"/>
                  </use>
                  <path fill="none" stroke="white" stroke-width="1.5" d="M0,-3.0v7 M-2.5,-0.5L0,-3.0L2.5,-0.5"/>
                </g>
                <g id="arrowDown" xlink:href="#dirArrow" transform="rotate(180) translate(-30 -48)" onmousedown="handlePan(0,1)">
                  <use xlink:href="#rim" fill="#404040">
                        <set attributeName="fill" to="#808080" begin="arrowDown.mouseover" end="arrowDown.mouseout"/>
                  </use>
                  <path fill="none" stroke="white" stroke-width="1.5" d="M0,-3.0v7 M-2.5,-0.5L0,-3.0L2.5,-0.5"/>
                </g>
                <g id="arrowLeft" xlink:href="#dirArrow" transform="rotate(270) translate(-36 17)" onmousedown="handlePan(-1,0)">
                  <use xlink:href="#rim" fill="#404040">
                        <set attributeName="fill" to="#808080" begin="arrowLeft.mouseover" end="arrowLeft.mouseout"/>
                  </use>
                  <path fill="none" stroke="white" stroke-width="1.5" d="M0,-3.0v7 M-2.5,-0.5L0,-3.0L2.5,-0.5"/>
                </g>
        </g>
        <svg viewBox="0 0 15 15" width="100%" height="30px" preserveAspectRatio="xMaxYMin meet">
         <g id="arrow_out" transform="scale(0.3 0.3)">
          <a xlink:href="classutilities_1_1reflection_1_1_reflection_aaa047fa3dd4986a5c588f1dd9f971662_icgraph_org.svg" target="_base">
           <rect id="button" ry="5" rx="5" y="6" x="6" height="38" width="38"
                fill="#f2f5e9" fill-opacity="0.5" stroke="#606060" stroke-width="1.0"/>
           <path id="arrow"
             d="M 11.500037,31.436501 C 11.940474,20.09759 22.043105,11.32322 32.158766,21.979434 L 37.068811,17.246167 C 37.068811,17.246167 37.088388,32 37.088388,32 L 22.160133,31.978069 C 22.160133,31.978069 26.997745,27.140456 26.997745,27.140456 C 18.528582,18.264221 13.291696,25.230495 11.500037,31.436501 z"
             style="fill:#404040;"/>
          </a>
         </g>
        </svg>
</svg>
