<?xml version="1.0" encoding="UTF-8" standalone="no"?>
<!DOCTYPE svg PUBLIC "-//W3C//DTD SVG 1.1//EN"
 "http://www.w3.org/Graphics/SVG/1.1/DTD/svg11.dtd">
<!-- Generated by graphviz version 2.36.0 (20140111.2315)
 -->
<!-- Title: utilities.reflection.Reflection.isVarArgs Pages: 1 -->
<svg width="626pt" height="87pt"
 viewBox="0.00 0.00 626.00 87.00" xmlns="http://www.w3.org/2000/svg" xmlns:xlink="http://www.w3.org/1999/xlink">
<g id="graph0" class="graph" transform="scale(1 1) rotate(0) translate(4 83)">
<title>utilities.reflection.Reflection.isVarArgs</title>
<polygon fill="white" stroke="none" points="-4,4 -4,-83 622,-83 622,4 -4,4"/>
<!-- Node1 -->
<g id="node1" class="node"><title>Node1</title>
<polygon fill="#bfbfbf" stroke="black" points="0.5,-24 0.5,-54 157.5,-54 157.5,-24 0.5,-24"/>
<text text-anchor="start" x="8.5" y="-42" font-family="Helvetica,sans-Serif" font-size="10.00">utilities.reflection.Reflection.is</text>
<text text-anchor="middle" x="79" y="-31" font-family="Helvetica,sans-Serif" font-size="10.00">VarArgs</text>
</g>
<!-- Node2 -->
<g id="node2" class="node"><title>Node2</title>
<g id="a_node2"><a xlink:href="../../db/d5e/classutilities_1_1reflection_1_1_reflection.html#a0805989b3e8ba1ef74ee5f8849c86261" target="_top" xlink:title="utilities.reflection.Reflection.convertArgs">
<polygon fill="white" stroke="black" points="194.5,-51.5 194.5,-70.5 401.5,-70.5 401.5,-51.5 194.5,-51.5"/>
<text text-anchor="middle" x="298" y="-58.5" font-family="Helvetica,sans-Serif" font-size="10.00">utilities.reflection.Reflection.convertArgs</text>
</a>
</g>
</g>
<!-- Node1&#45;&gt;Node2 -->
<g id="edge1" class="edge"><title>Node1&#45;&gt;Node2</title>
<path fill="none" stroke="midnightblue" d="M167.843,-47.9058C179.465,-49.084 191.415,-50.2955 203.133,-51.4836"/>
<polygon fill="midnightblue" stroke="midnightblue" points="168.031,-44.407 157.729,-46.8804 167.325,-51.3713 168.031,-44.407"/>
</g>
<!-- Node5 -->
<g id="node5" class="node"><title>Node5</title>
<g id="a_node5"><a xlink:href="../../db/d5e/classutilities_1_1reflection_1_1_reflection.html#a747b89ab3dde1da74495ed1ebf8e15b4" target="_top" xlink:title="utilities.reflection.Reflection.types\lMatch">
<polygon fill="white" stroke="black" points="210,-2 210,-32 386,-32 386,-2 210,-2"/>
<text text-anchor="start" x="218" y="-20" font-family="Helvetica,sans-Serif" font-size="10.00">utilities.reflection.Reflection.types</text>
<text text-anchor="middle" x="298" y="-9" font-family="Helvetica,sans-Serif" font-size="10.00">Match</text>
</a>
</g>
</g>
<!-- Node1&#45;&gt;Node5 -->
<g id="edge4" class="edge"><title>Node1&#45;&gt;Node5</title>
<path fill="none" stroke="midnightblue" d="M167.745,-30.1042C181.632,-28.6963 195.991,-27.2405 209.865,-25.834"/>
<polygon fill="midnightblue" stroke="midnightblue" points="167.325,-26.6287 157.729,-31.1196 168.031,-33.593 167.325,-26.6287"/>
</g>
<!-- Node3 -->
<g id="node3" class="node"><title>Node3</title>
<g id="a_node3"><a xlink:href="../../db/d5e/classutilities_1_1reflection_1_1_reflection.html#ae725b9901e2ac081e780f0477d96fc4e" target="_top" xlink:title="utilities.reflection.Reflection.call\lMethod">
<polygon fill="white" stroke="black" points="445.5,-49 445.5,-79 610.5,-79 610.5,-49 445.5,-49"/>
<text text-anchor="start" x="453.5" y="-67" font-family="Helvetica,sans-Serif" font-size="10.00">utilities.reflection.Reflection.call</text>
<text text-anchor="middle" x="528" y="-56" font-family="Helvetica,sans-Serif" font-size="10.00">Method</text>
</a>
</g>
</g>
<!-- Node2&#45;&gt;Node3 -->
<g id="edge2" class="edge"><title>Node2&#45;&gt;Node3</title>
<path fill="none" stroke="midnightblue" d="M411.996,-62.4868C423.266,-62.6351 434.55,-62.7836 445.406,-62.9264"/>
<polygon fill="midnightblue" stroke="midnightblue" points="411.706,-58.9828 401.661,-62.3508 411.614,-65.9822 411.706,-58.9828"/>
</g>
<!-- Node4 -->
<g id="node4" class="node"><title>Node4</title>
<g id="a_node4"><a xlink:href="../../db/d5e/classutilities_1_1reflection_1_1_reflection.html#ad68c25f260fd339ae1439aad97b39a82" target="_top" xlink:title="utilities.reflection.Reflection.create\lInstance">
<polygon fill="white" stroke="black" points="438,-0 438,-30 618,-30 618,-0 438,-0"/>
<text text-anchor="start" x="446" y="-18" font-family="Helvetica,sans-Serif" font-size="10.00">utilities.reflection.Reflection.create</text>
<text text-anchor="middle" x="528" y="-7" font-family="Helvetica,sans-Serif" font-size="10.00">Instance</text>
</a>
</g>
</g>
<!-- Node2&#45;&gt;Node4 -->
<g id="edge3" class="edge"><title>Node2&#45;&gt;Node4</title>
<path fill="none" stroke="midnightblue" d="M358.908,-49.5069C373.046,-46.7559 388.061,-43.8029 402,-41 419.385,-37.5043 438.111,-33.6544 455.643,-30.013"/>
<polygon fill="midnightblue" stroke="midnightblue" points="357.946,-46.1281 348.796,-51.4693 359.28,-52.9999 357.946,-46.1281"/>
</g>
<!-- Node5&#45;&gt;Node3 -->
<g id="edge6" class="edge"><title>Node5&#45;&gt;Node3</title>
<path fill="none" stroke="midnightblue" d="M381.785,-34.0654C405.469,-38.9476 431.1,-44.2312 454.142,-48.981"/>
<polygon fill="midnightblue" stroke="midnightblue" points="382.268,-30.5914 371.767,-32.0003 380.855,-37.4473 382.268,-30.5914"/>
</g>
<!-- Node5&#45;&gt;Node4 -->
<g id="edge5" class="edge"><title>Node5&#45;&gt;Node4</title>
<path fill="none" stroke="midnightblue" d="M396.201,-16.1474C410.072,-16.0257 424.283,-15.901 437.986,-15.7808"/>
<polygon fill="midnightblue" stroke="midnightblue" points="396.142,-12.6476 386.173,-16.2353 396.203,-19.6474 396.142,-12.6476"/>
</g>
</g>
</svg>
