<?xml version="1.0" encoding="UTF-8" standalone="no"?>
<!DOCTYPE svg PUBLIC "-//W3C//DTD SVG 1.1//EN"
 "http://www.w3.org/Graphics/SVG/1.1/DTD/svg11.dtd">
<!-- Generated by graphviz version 2.36.0 (20140111.2315)
 -->
<!-- Title: gamePlayer.guiItems.GuiItem Pages: 1 -->
<svg width="818pt" height="1068pt"
 viewBox="0.00 0.00 818.00 1068.00" xmlns="http://www.w3.org/2000/svg" xmlns:xlink="http://www.w3.org/1999/xlink">
<g id="graph0" class="graph" transform="scale(1 1) rotate(0) translate(4 1064)">
<title>gamePlayer.guiItems.GuiItem</title>
<polygon fill="white" stroke="none" points="-4,4 -4,-1064 814,-1064 814,4 -4,4"/>
<!-- Node1 -->
<g id="node1" class="node"><title>Node1</title>
<polygon fill="#bfbfbf" stroke="black" points="190,-495.5 190,-514.5 348,-514.5 348,-495.5 190,-495.5"/>
<text text-anchor="middle" x="269" y="-502.5" font-family="Helvetica,sans-Serif" font-size="10.00">gamePlayer.guiItems.GuiItem</text>
</g>
<!-- Node3 -->
<g id="node3" class="node"><title>Node3</title>
<g id="a_node3"><a xlink:href="../../d5/da2/classgame_player_1_1gui_items_1_1control_dock_buttons_1_1_control_dock_button.html" target="_top" xlink:title="gamePlayer.guiItems.control\lDockButtons.ControlDockButton">
<polygon fill="white" stroke="black" points="401,-980 401,-1010 573,-1010 573,-980 401,-980"/>
<text text-anchor="start" x="409" y="-998" font-family="Helvetica,sans-Serif" font-size="10.00">gamePlayer.guiItems.control</text>
<text text-anchor="middle" x="487" y="-987" font-family="Helvetica,sans-Serif" font-size="10.00">DockButtons.ControlDockButton</text>
</a>
</g>
</g>
<!-- Node1&#45;&gt;Node3 -->
<g id="edge2" class="edge"><title>Node1&#45;&gt;Node3</title>
<path fill="none" stroke="midnightblue" d="M272.153,-524.92C281.239,-605.36 319.015,-905.019 384,-970 388.899,-974.899 394.591,-978.894 400.733,-982.147"/>
<polygon fill="midnightblue" stroke="midnightblue" points="275.6,-524.251 271.02,-514.697 268.642,-525.021 275.6,-524.251"/>
</g>
<!-- Node6 -->
<g id="node6" class="node"><title>Node6</title>
<g id="a_node6"><a xlink:href="../../d2/d0d/classgame_player_1_1gui_items_1_1control_dock_buttons_1_1_control_dock_slider.html" target="_top" xlink:title="gamePlayer.guiItems.control\lDockButtons.ControlDockSlider">
<polygon fill="white" stroke="black" points="403.5,-931 403.5,-961 570.5,-961 570.5,-931 403.5,-931"/>
<text text-anchor="start" x="411.5" y="-949" font-family="Helvetica,sans-Serif" font-size="10.00">gamePlayer.guiItems.control</text>
<text text-anchor="middle" x="487" y="-938" font-family="Helvetica,sans-Serif" font-size="10.00">DockButtons.ControlDockSlider</text>
</a>
</g>
</g>
<!-- Node1&#45;&gt;Node6 -->
<g id="edge5" class="edge"><title>Node1&#45;&gt;Node6</title>
<path fill="none" stroke="midnightblue" d="M272.737,-524.723C283.492,-599.438 325.171,-863.745 384,-921 389.618,-926.468 396.227,-930.804 403.335,-934.235"/>
<polygon fill="midnightblue" stroke="midnightblue" points="276.195,-524.179 271.327,-514.769 269.264,-525.161 276.195,-524.179"/>
</g>
<!-- Node8 -->
<g id="node8" class="node"><title>Node8</title>
<g id="a_node8"><a xlink:href="../../d0/dee/classgame_player_1_1gui_items_1_1game_world_1_1_game_world.html" target="_top" xlink:title="gamePlayer.guiItems.game\lWorld.GameWorld">
<polygon fill="white" stroke="black" points="413,-882 413,-912 561,-912 561,-882 413,-882"/>
<text text-anchor="start" x="421" y="-900" font-family="Helvetica,sans-Serif" font-size="10.00">gamePlayer.guiItems.game</text>
<text text-anchor="middle" x="487" y="-889" font-family="Helvetica,sans-Serif" font-size="10.00">World.GameWorld</text>
</a>
</g>
</g>
<!-- Node1&#45;&gt;Node8 -->
<g id="edge7" class="edge"><title>Node1&#45;&gt;Node8</title>
<path fill="none" stroke="midnightblue" d="M269.814,-524.932C270.379,-586.434 280.836,-774.927 384,-872 392.166,-879.684 402.295,-885.119 412.973,-888.942"/>
<polygon fill="midnightblue" stroke="midnightblue" points="273.314,-524.679 269.806,-514.682 266.314,-524.684 273.314,-524.679"/>
</g>
<!-- Node9 -->
<g id="node9" class="node"><title>Node9</title>
<g id="a_node9"><a xlink:href="../../d7/da7/classgame_player_1_1gui_items_1_1heads_up_display_1_1_h_u_d.html" target="_top" xlink:title="gamePlayer.guiItems.heads\lUpDisplay.HUD">
<polygon fill="white" stroke="black" points="412.5,-833 412.5,-863 561.5,-863 561.5,-833 412.5,-833"/>
<text text-anchor="start" x="420.5" y="-851" font-family="Helvetica,sans-Serif" font-size="10.00">gamePlayer.guiItems.heads</text>
<text text-anchor="middle" x="487" y="-840" font-family="Helvetica,sans-Serif" font-size="10.00">UpDisplay.HUD</text>
</a>
</g>
</g>
<!-- Node1&#45;&gt;Node9 -->
<g id="edge8" class="edge"><title>Node1&#45;&gt;Node9</title>
<path fill="none" stroke="midnightblue" d="M270.903,-524.822C274.56,-580.725 292.889,-740.893 384,-823 392.126,-830.323 402.047,-835.587 412.473,-839.355"/>
<polygon fill="midnightblue" stroke="midnightblue" points="274.38,-524.329 270.324,-514.542 267.391,-524.722 274.38,-524.329"/>
</g>
<!-- Node10 -->
<g id="node10" class="node"><title>Node10</title>
<g id="a_node10"><a xlink:href="../../dd/dee/classgame_player_1_1gui_items_1_1message_display_1_1_message_display.html" target="_top" xlink:title="gamePlayer.guiItems.message\lDisplay.MessageDisplay">
<polygon fill="white" stroke="black" points="405,-784 405,-814 569,-814 569,-784 405,-784"/>
<text text-anchor="start" x="413" y="-802" font-family="Helvetica,sans-Serif" font-size="10.00">gamePlayer.guiItems.message</text>
<text text-anchor="middle" x="487" y="-791" font-family="Helvetica,sans-Serif" font-size="10.00">Display.MessageDisplay</text>
</a>
</g>
</g>
<!-- Node1&#45;&gt;Node10 -->
<g id="edge9" class="edge"><title>Node1&#45;&gt;Node10</title>
<path fill="none" stroke="midnightblue" d="M272.34,-524.729C279.341,-574.613 304.807,-706.595 384,-774 390.178,-779.259 397.291,-783.445 404.826,-786.772"/>
<polygon fill="midnightblue" stroke="midnightblue" points="275.787,-524.099 271.023,-514.635 268.846,-525.004 275.787,-524.099"/>
</g>
<!-- Node11 -->
<g id="node11" class="node"><title>Node11</title>
<g id="a_node11"><a xlink:href="../../da/d18/classgame_player_1_1gui_items_1_1placeholders_1_1_bottom_item_placeholder.html" target="_top" xlink:title="gamePlayer.guiItems.placeholders.\lBottomItemPlaceholder">
<polygon fill="white" stroke="black" points="395,-735 395,-765 579,-765 579,-735 395,-735"/>
<text text-anchor="start" x="403" y="-753" font-family="Helvetica,sans-Serif" font-size="10.00">gamePlayer.guiItems.placeholders.</text>
<text text-anchor="middle" x="487" y="-742" font-family="Helvetica,sans-Serif" font-size="10.00">BottomItemPlaceholder</text>
</a>
</g>
</g>
<!-- Node1&#45;&gt;Node11 -->
<g id="edge10" class="edge"><title>Node1&#45;&gt;Node11</title>
<path fill="none" stroke="midnightblue" d="M274.331,-524.585C284.955,-567.844 316.506,-671.907 384,-725 388.944,-728.889 394.408,-732.184 400.162,-734.974"/>
<polygon fill="midnightblue" stroke="midnightblue" points="277.714,-523.68 272.023,-514.744 270.899,-525.279 277.714,-523.68"/>
</g>
<!-- Node12 -->
<g id="node12" class="node"><title>Node12</title>
<g id="a_node12"><a xlink:href="../../d3/db8/classgame_player_1_1gui_items_1_1placeholders_1_1_center_item_placeholder.html" target="_top" xlink:title="gamePlayer.guiItems.placeholders.\lCenterItemPlaceholder">
<polygon fill="white" stroke="black" points="395,-686 395,-716 579,-716 579,-686 395,-686"/>
<text text-anchor="start" x="403" y="-704" font-family="Helvetica,sans-Serif" font-size="10.00">gamePlayer.guiItems.placeholders.</text>
<text text-anchor="middle" x="487" y="-693" font-family="Helvetica,sans-Serif" font-size="10.00">CenterItemPlaceholder</text>
</a>
</g>
</g>
<!-- Node1&#45;&gt;Node12 -->
<g id="edge11" class="edge"><title>Node1&#45;&gt;Node12</title>
<path fill="none" stroke="midnightblue" d="M277.268,-524.274C291.784,-560.046 327.875,-636.641 384,-676 389.523,-679.873 395.581,-683.149 401.902,-685.919"/>
<polygon fill="midnightblue" stroke="midnightblue" points="280.37,-522.598 273.457,-514.569 273.854,-525.157 280.37,-522.598"/>
</g>
<!-- Node13 -->
<g id="node13" class="node"><title>Node13</title>
<g id="a_node13"><a xlink:href="../../d2/dc7/classgame_player_1_1gui_items_1_1placeholders_1_1_left_item_placeholder.html" target="_top" xlink:title="gamePlayer.guiItems.placeholders.\lLeftItemPlaceholder">
<polygon fill="white" stroke="black" points="395,-637 395,-667 579,-667 579,-637 395,-637"/>
<text text-anchor="start" x="403" y="-655" font-family="Helvetica,sans-Serif" font-size="10.00">gamePlayer.guiItems.placeholders.</text>
<text text-anchor="middle" x="487" y="-644" font-family="Helvetica,sans-Serif" font-size="10.00">LeftItemPlaceholder</text>
</a>
</g>
</g>
<!-- Node1&#45;&gt;Node13 -->
<g id="edge12" class="edge"><title>Node1&#45;&gt;Node13</title>
<path fill="none" stroke="midnightblue" d="M281.782,-523.187C300.235,-550.15 338.577,-600.397 384,-627 390.608,-630.87 397.793,-634.143 405.188,-636.911"/>
<polygon fill="midnightblue" stroke="midnightblue" points="284.574,-521.066 276.106,-514.698 278.755,-524.957 284.574,-521.066"/>
</g>
<!-- Node14 -->
<g id="node14" class="node"><title>Node14</title>
<g id="a_node14"><a xlink:href="../../dc/d8b/classgame_player_1_1gui_items_1_1placeholders_1_1_right_item_placeholder.html" target="_top" xlink:title="gamePlayer.guiItems.placeholders.\lRightItemPlaceholder">
<polygon fill="white" stroke="black" points="395,-588 395,-618 579,-618 579,-588 395,-588"/>
<text text-anchor="start" x="403" y="-606" font-family="Helvetica,sans-Serif" font-size="10.00">gamePlayer.guiItems.placeholders.</text>
<text text-anchor="middle" x="487" y="-595" font-family="Helvetica,sans-Serif" font-size="10.00">RightItemPlaceholder</text>
</a>
</g>
</g>
<!-- Node1&#45;&gt;Node14 -->
<g id="edge13" class="edge"><title>Node1&#45;&gt;Node14</title>
<path fill="none" stroke="midnightblue" d="M290.072,-520.782C311.987,-537.29 348.688,-562.863 384,-578 392.882,-581.807 402.458,-585.109 412.06,-587.953"/>
<polygon fill="midnightblue" stroke="midnightblue" points="291.966,-517.825 281.897,-514.526 287.711,-523.383 291.966,-517.825"/>
</g>
<!-- Node15 -->
<g id="node15" class="node"><title>Node15</title>
<g id="a_node15"><a xlink:href="../../d4/d93/classgame_player_1_1gui_items_1_1placeholders_1_1_top_item_placeholder.html" target="_top" xlink:title="gamePlayer.guiItems.placeholders.\lTopItemPlaceholder">
<polygon fill="white" stroke="black" points="395,-539 395,-569 579,-569 579,-539 395,-539"/>
<text text-anchor="start" x="403" y="-557" font-family="Helvetica,sans-Serif" font-size="10.00">gamePlayer.guiItems.placeholders.</text>
<text text-anchor="middle" x="487" y="-546" font-family="Helvetica,sans-Serif" font-size="10.00">TopItemPlaceholder</text>
</a>
</g>
</g>
<!-- Node1&#45;&gt;Node15 -->
<g id="edge14" class="edge"><title>Node1&#45;&gt;Node15</title>
<path fill="none" stroke="midnightblue" d="M321.93,-516.78C351.236,-523.429 388.165,-531.806 419.563,-538.929"/>
<polygon fill="midnightblue" stroke="midnightblue" points="322.43,-513.305 311.903,-514.506 320.881,-520.131 322.43,-513.305"/>
</g>
<!-- Node16 -->
<g id="node16" class="node"><title>Node16</title>
<g id="a_node16"><a xlink:href="../../d1/dd3/classgame_player_1_1gui_items_1_1store_1_1_store.html" target="_top" xlink:title="gamePlayer.guiItems.store.\lStore">
<polygon fill="white" stroke="black" points="413,-490 413,-520 561,-520 561,-490 413,-490"/>
<text text-anchor="start" x="421" y="-508" font-family="Helvetica,sans-Serif" font-size="10.00">gamePlayer.guiItems.store.</text>
<text text-anchor="middle" x="487" y="-497" font-family="Helvetica,sans-Serif" font-size="10.00">Store</text>
</a>
</g>
</g>
<!-- Node1&#45;&gt;Node16 -->
<g id="edge15" class="edge"><title>Node1&#45;&gt;Node16</title>
<path fill="none" stroke="midnightblue" d="M358.491,-505C376.495,-505 395.248,-505 412.657,-505"/>
<polygon fill="midnightblue" stroke="midnightblue" points="358.286,-501.5 348.286,-505 358.286,-508.5 358.286,-501.5"/>
</g>
<!-- Node17 -->
<g id="node17" class="node"><title>Node17</title>
<g id="a_node17"><a xlink:href="../../d1/d18/classgame_player_1_1gui_items_1_1tower_upgrade_1_1_tower_upgrade_panel.html" target="_top" xlink:title="gamePlayer.guiItems.tower\lUpgrade.TowerUpgradePanel">
<polygon fill="white" stroke="black" points="410,-441 410,-471 564,-471 564,-441 410,-441"/>
<text text-anchor="start" x="418" y="-459" font-family="Helvetica,sans-Serif" font-size="10.00">gamePlayer.guiItems.tower</text>
<text text-anchor="middle" x="487" y="-448" font-family="Helvetica,sans-Serif" font-size="10.00">Upgrade.TowerUpgradePanel</text>
</a>
</g>
</g>
<!-- Node1&#45;&gt;Node17 -->
<g id="edge16" class="edge"><title>Node1&#45;&gt;Node17</title>
<path fill="none" stroke="midnightblue" d="M321.93,-493.22C351.236,-486.571 388.165,-478.194 419.563,-471.071"/>
<polygon fill="midnightblue" stroke="midnightblue" points="320.881,-489.869 311.903,-495.494 322.43,-496.695 320.881,-489.869"/>
</g>
<!-- Node18 -->
<g id="node18" class="node"><title>Node18</title>
<g id="a_node18"><a xlink:href="../../da/dea/classgame_player_1_1gui_items_1_1vooga_menu_bar_1_1_vooga_menu_bar.html" target="_top" xlink:title="gamePlayer.guiItems.vooga\lMenuBar.VoogaMenuBar">
<polygon fill="white" stroke="black" points="412.5,-392 412.5,-422 561.5,-422 561.5,-392 412.5,-392"/>
<text text-anchor="start" x="420.5" y="-410" font-family="Helvetica,sans-Serif" font-size="10.00">gamePlayer.guiItems.vooga</text>
<text text-anchor="middle" x="487" y="-399" font-family="Helvetica,sans-Serif" font-size="10.00">MenuBar.VoogaMenuBar</text>
</a>
</g>
</g>
<!-- Node1&#45;&gt;Node18 -->
<g id="edge17" class="edge"><title>Node1&#45;&gt;Node18</title>
<path fill="none" stroke="midnightblue" d="M290.007,-488.923C311.868,-472.122 348.523,-446.143 384,-431 392.951,-427.179 402.616,-423.907 412.305,-421.122"/>
<polygon fill="midnightblue" stroke="midnightblue" points="287.58,-486.377 281.855,-495.292 291.89,-491.893 287.58,-486.377"/>
</g>
<!-- Node19 -->
<g id="node19" class="node"><title>Node19</title>
<g id="a_node19"><a xlink:href="../../d9/de4/classgame_player_1_1gui_items_1_1welcome_1_1_click_anywhere_pane.html" target="_top" xlink:title="gamePlayer.guiItems.welcome.\lClickAnywherePane">
<polygon fill="white" stroke="black" points="404.5,-343 404.5,-373 569.5,-373 569.5,-343 404.5,-343"/>
<text text-anchor="start" x="412.5" y="-361" font-family="Helvetica,sans-Serif" font-size="10.00">gamePlayer.guiItems.welcome.</text>
<text text-anchor="middle" x="487" y="-350" font-family="Helvetica,sans-Serif" font-size="10.00">ClickAnywherePane</text>
</a>
</g>
</g>
<!-- Node1&#45;&gt;Node19 -->
<g id="edge18" class="edge"><title>Node1&#45;&gt;Node19</title>
<path fill="none" stroke="midnightblue" d="M281.714,-486.608C300.078,-459.352 338.309,-408.601 384,-382 390.367,-378.293 397.273,-375.158 404.387,-372.508"/>
<polygon fill="midnightblue" stroke="midnightblue" points="278.64,-484.913 276.068,-495.191 284.488,-488.76 278.64,-484.913"/>
</g>
<!-- Node20 -->
<g id="node20" class="node"><title>Node20</title>
<g id="a_node20"><a xlink:href="../../d0/dc2/classgame_player_1_1gui_items_1_1welcome_1_1_game_chooser.html" target="_top" xlink:title="gamePlayer.guiItems.welcome.\lGameChooser">
<polygon fill="white" stroke="black" points="404.5,-294 404.5,-324 569.5,-324 569.5,-294 404.5,-294"/>
<text text-anchor="start" x="412.5" y="-312" font-family="Helvetica,sans-Serif" font-size="10.00">gamePlayer.guiItems.welcome.</text>
<text text-anchor="middle" x="487" y="-301" font-family="Helvetica,sans-Serif" font-size="10.00">GameChooser</text>
</a>
</g>
</g>
<!-- Node1&#45;&gt;Node20 -->
<g id="edge19" class="edge"><title>Node1&#45;&gt;Node20</title>
<path fill="none" stroke="midnightblue" d="M277.201,-485.565C291.606,-449.504 327.518,-372.333 384,-333 390.27,-328.634 397.228,-325.054 404.48,-322.121"/>
<polygon fill="midnightblue" stroke="midnightblue" points="273.76,-484.76 273.422,-495.35 280.29,-487.282 273.76,-484.76"/>
</g>
<!-- Node21 -->
<g id="node21" class="node"><title>Node21</title>
<g id="a_node21"><a xlink:href="../../d6/d09/classgame_player_1_1gui_items_1_1welcome_1_1_header.html" target="_top" xlink:title="gamePlayer.guiItems.welcome.\lHeader">
<polygon fill="white" stroke="black" points="404.5,-245 404.5,-275 569.5,-275 569.5,-245 404.5,-245"/>
<text text-anchor="start" x="412.5" y="-263" font-family="Helvetica,sans-Serif" font-size="10.00">gamePlayer.guiItems.welcome.</text>
<text text-anchor="middle" x="487" y="-252" font-family="Helvetica,sans-Serif" font-size="10.00">Header</text>
</a>
</g>
</g>
<!-- Node1&#45;&gt;Node21 -->
<g id="edge20" class="edge"><title>Node1&#45;&gt;Node21</title>
<path fill="none" stroke="midnightblue" d="M274.267,-485.282C284.761,-441.737 316.067,-337.031 384,-284 390.166,-279.186 397.139,-275.313 404.473,-272.199"/>
<polygon fill="midnightblue" stroke="midnightblue" points="270.819,-484.659 271.99,-495.189 277.641,-486.228 270.819,-484.659"/>
</g>
<!-- Node22 -->
<g id="node22" class="node"><title>Node22</title>
<g id="a_node22"><a xlink:href="../../dc/dbd/classgame_player_1_1gui_items_1_1welcome_1_1_welcome_navigator.html" target="_top" xlink:title="gamePlayer.guiItems.welcome.\lWelcomeNavigator">
<polygon fill="white" stroke="black" points="404.5,-196 404.5,-226 569.5,-226 569.5,-196 404.5,-196"/>
<text text-anchor="start" x="412.5" y="-214" font-family="Helvetica,sans-Serif" font-size="10.00">gamePlayer.guiItems.welcome.</text>
<text text-anchor="middle" x="487" y="-203" font-family="Helvetica,sans-Serif" font-size="10.00">WelcomeNavigator</text>
</a>
</g>
</g>
<!-- Node1&#45;&gt;Node22 -->
<g id="edge21" class="edge"><title>Node1&#45;&gt;Node22</title>
<path fill="none" stroke="midnightblue" d="M272.278,-485.156C279.135,-434.987 304.289,-302.301 384,-235 390.047,-229.895 396.983,-225.832 404.333,-222.604"/>
<polygon fill="midnightblue" stroke="midnightblue" points="268.777,-484.947 270.992,-495.307 275.721,-485.827 268.777,-484.947"/>
</g>
<!-- Node23 -->
<g id="node23" class="node"><title>Node23</title>
<g id="a_node23"><a xlink:href="../../df/dd1/classgame_player_1_1unused_code_warehouse_1_1gui_items_1_1heads_up_display_a_1_1_health.html" target="_top" xlink:title="gamePlayer.unusedCodeWarehouse.gui\lItems.headsUpDisplayA.Health">
<polygon fill="white" stroke="black" points="384,-147 384,-177 590,-177 590,-147 384,-147"/>
<text text-anchor="start" x="392" y="-165" font-family="Helvetica,sans-Serif" font-size="10.00">gamePlayer.unusedCodeWarehouse.gui</text>
<text text-anchor="middle" x="487" y="-154" font-family="Helvetica,sans-Serif" font-size="10.00">Items.headsUpDisplayA.Health</text>
</a>
</g>
</g>
<!-- Node1&#45;&gt;Node23 -->
<g id="edge22" class="edge"><title>Node1&#45;&gt;Node23</title>
<path fill="none" stroke="midnightblue" d="M270.843,-485.074C274.343,-428.888 292.296,-267.958 384,-186 387.798,-182.606 391.985,-179.667 396.432,-177.124"/>
<polygon fill="midnightblue" stroke="midnightblue" points="267.329,-485.236 270.294,-495.408 274.32,-485.608 267.329,-485.236"/>
</g>
<!-- Node24 -->
<g id="node24" class="node"><title>Node24</title>
<g id="a_node24"><a xlink:href="../../d6/dac/classgame_player_1_1unused_code_warehouse_1_1gui_items_1_1store_1_1_store.html" target="_top" xlink:title="gamePlayer.unusedCodeWarehouse.gui\lItems.store.Store">
<polygon fill="white" stroke="black" points="384,-98 384,-128 590,-128 590,-98 384,-98"/>
<text text-anchor="start" x="392" y="-116" font-family="Helvetica,sans-Serif" font-size="10.00">gamePlayer.unusedCodeWarehouse.gui</text>
<text text-anchor="middle" x="487" y="-105" font-family="Helvetica,sans-Serif" font-size="10.00">Items.store.Store</text>
</a>
</g>
</g>
<!-- Node1&#45;&gt;Node24 -->
<g id="edge23" class="edge"><title>Node1&#45;&gt;Node24</title>
<path fill="none" stroke="midnightblue" d="M269.755,-484.973C270.15,-423.186 280.167,-233.874 384,-137 387.591,-133.649 391.56,-130.738 395.786,-128.212"/>
<polygon fill="midnightblue" stroke="midnightblue" points="266.256,-485.279 269.776,-495.272 273.256,-485.264 266.256,-485.279"/>
</g>
<!-- Node25 -->
<g id="node25" class="node"><title>Node25</title>
<g id="a_node25"><a xlink:href="../../d0/d33/classgame_player_1_1unused_code_warehouse_1_1gui_items_1_1store_1_1_store_item_cell.html" target="_top" xlink:title="gamePlayer.unusedCodeWarehouse.gui\lItems.store.StoreItemCell">
<polygon fill="white" stroke="black" points="384,-49 384,-79 590,-79 590,-49 384,-49"/>
<text text-anchor="start" x="392" y="-67" font-family="Helvetica,sans-Serif" font-size="10.00">gamePlayer.unusedCodeWarehouse.gui</text>
<text text-anchor="middle" x="487" y="-56" font-family="Helvetica,sans-Serif" font-size="10.00">Items.store.StoreItemCell</text>
</a>
</g>
</g>
<!-- Node1&#45;&gt;Node25 -->
<g id="edge24" class="edge"><title>Node1&#45;&gt;Node25</title>
<path fill="none" stroke="midnightblue" d="M272.714,-485.214C283.383,-410.259 324.792,-145.127 384,-88 387.535,-84.5895 391.458,-81.6314 395.65,-79.0683"/>
<polygon fill="midnightblue" stroke="midnightblue" points="269.236,-484.811 271.315,-495.2 276.168,-485.782 269.236,-484.811"/>
</g>
<!-- Node26 -->
<g id="node26" class="node"><title>Node26</title>
<g id="a_node26"><a xlink:href="../../d9/d76/classgame_player_1_1unused_code_warehouse_1_1gui_items_1_1store_1_1_upgrade_store.html" target="_top" xlink:title="gamePlayer.unusedCodeWarehouse.gui\lItems.store.UpgradeStore">
<polygon fill="white" stroke="black" points="384,-0 384,-30 590,-30 590,-0 384,-0"/>
<text text-anchor="start" x="392" y="-18" font-family="Helvetica,sans-Serif" font-size="10.00">gamePlayer.unusedCodeWarehouse.gui</text>
<text text-anchor="middle" x="487" y="-7" font-family="Helvetica,sans-Serif" font-size="10.00">Items.store.UpgradeStore</text>
</a>
</g>
</g>
<!-- Node1&#45;&gt;Node26 -->
<g id="edge25" class="edge"><title>Node1&#45;&gt;Node26</title>
<path fill="none" stroke="midnightblue" d="M272.129,-485.021C281.126,-404.344 318.599,-103.826 384,-39 387.359,-35.6703 391.088,-32.7693 395.077,-30.2444"/>
<polygon fill="midnightblue" stroke="midnightblue" points="268.616,-484.953 271.009,-495.274 275.575,-485.714 268.616,-484.953"/>
</g>
<!-- Node2 -->
<g id="node2" class="node"><title>Node2</title>
<g id="a_node2"><a xlink:href="../../d7/d02/interfacegame_player_1_1main_classes_1_1gui_builder_1_1_gui_element.html" target="_top" xlink:title="gamePlayer.mainClasses.gui\lBuilder.GuiElement">
<polygon fill="white" stroke="black" points="0,-490 0,-520 154,-520 154,-490 0,-490"/>
<text text-anchor="start" x="8" y="-508" font-family="Helvetica,sans-Serif" font-size="10.00">gamePlayer.mainClasses.gui</text>
<text text-anchor="middle" x="77" y="-497" font-family="Helvetica,sans-Serif" font-size="10.00">Builder.GuiElement</text>
</a>
</g>
</g>
<!-- Node2&#45;&gt;Node1 -->
<g id="edge1" class="edge"><title>Node2&#45;&gt;Node1</title>
<path fill="none" stroke="midnightblue" d="M164.194,-505C172.773,-505 181.447,-505 189.936,-505"/>
<polygon fill="midnightblue" stroke="midnightblue" points="164.186,-501.5 154.185,-505 164.185,-508.5 164.186,-501.5"/>
</g>
<!-- Node4 -->
<g id="node4" class="node"><title>Node4</title>
<g id="a_node4"><a xlink:href="../../da/d25/classgame_player_1_1gui_items_1_1control_dock_buttons_1_1buttons_1_1_play_button.html" target="_top" xlink:title="gamePlayer.guiItems.control\lDockButtons.buttons.PlayButton">
<polygon fill="white" stroke="black" points="631.5,-1029 631.5,-1059 804.5,-1059 804.5,-1029 631.5,-1029"/>
<text text-anchor="start" x="639.5" y="-1047" font-family="Helvetica,sans-Serif" font-size="10.00">gamePlayer.guiItems.control</text>
<text text-anchor="middle" x="718" y="-1036" font-family="Helvetica,sans-Serif" font-size="10.00">DockButtons.buttons.PlayButton</text>
</a>
</g>
</g>
<!-- Node3&#45;&gt;Node4 -->
<g id="edge3" class="edge"><title>Node3&#45;&gt;Node4</title>
<path fill="none" stroke="midnightblue" d="M568.315,-1012.19C593.923,-1017.66 622.042,-1023.68 646.869,-1028.99"/>
<polygon fill="midnightblue" stroke="midnightblue" points="568.775,-1008.7 558.264,-1010.03 567.31,-1015.55 568.775,-1008.7"/>
</g>
<!-- Node5 -->
<g id="node5" class="node"><title>Node5</title>
<g id="a_node5"><a xlink:href="../../dd/d15/classgame_player_1_1gui_items_1_1control_dock_buttons_1_1buttons_1_1_speed_button.html" target="_top" xlink:title="gamePlayer.guiItems.control\lDockButtons.buttons.SpeedButton">
<polygon fill="white" stroke="black" points="626,-980 626,-1010 810,-1010 810,-980 626,-980"/>
<text text-anchor="start" x="634" y="-998" font-family="Helvetica,sans-Serif" font-size="10.00">gamePlayer.guiItems.control</text>
<text text-anchor="middle" x="718" y="-987" font-family="Helvetica,sans-Serif" font-size="10.00">DockButtons.buttons.SpeedButton</text>
</a>
</g>
</g>
<!-- Node3&#45;&gt;Node5 -->
<g id="edge4" class="edge"><title>Node3&#45;&gt;Node5</title>
<path fill="none" stroke="midnightblue" d="M583.425,-995C597.483,-995 611.935,-995 625.902,-995"/>
<polygon fill="midnightblue" stroke="midnightblue" points="583.271,-991.5 573.271,-995 583.271,-998.5 583.271,-991.5"/>
</g>
<!-- Node7 -->
<g id="node7" class="node"><title>Node7</title>
<g id="a_node7"><a xlink:href="../../d5/dbe/classgame_player_1_1gui_items_1_1control_dock_buttons_1_1sliders_1_1_speed_slider.html" target="_top" xlink:title="gamePlayer.guiItems.control\lDockButtons.sliders.SpeedSlider">
<polygon fill="white" stroke="black" points="631.5,-931 631.5,-961 804.5,-961 804.5,-931 631.5,-931"/>
<text text-anchor="start" x="639.5" y="-949" font-family="Helvetica,sans-Serif" font-size="10.00">gamePlayer.guiItems.control</text>
<text text-anchor="middle" x="718" y="-938" font-family="Helvetica,sans-Serif" font-size="10.00">DockButtons.sliders.SpeedSlider</text>
</a>
</g>
</g>
<!-- Node6&#45;&gt;Node7 -->
<g id="edge6" class="edge"><title>Node6&#45;&gt;Node7</title>
<path fill="none" stroke="midnightblue" d="M580.955,-946C597.62,-946 614.916,-946 631.362,-946"/>
<polygon fill="midnightblue" stroke="midnightblue" points="580.674,-942.5 570.674,-946 580.674,-949.5 580.674,-942.5"/>
</g>
</g>
</svg>
