<?xml version="1.0" encoding="UTF-8" standalone="no"?>
<!DOCTYPE svg PUBLIC "-//W3C//DTD SVG 1.1//EN"
 "http://www.w3.org/Graphics/SVG/1.1/DTD/svg11.dtd">
<!-- Generated by graphviz version 2.36.0 (20140111.2315)
 -->
<!-- Title: gameAuthoring.mainclasses.controllerInterfaces.ITowerConfiguring.configureTowers Pages: 1 -->
<svg width="486pt" height="48pt"
 viewBox="0.00 0.00 486.00 48.00" xmlns="http://www.w3.org/2000/svg" xmlns:xlink="http://www.w3.org/1999/xlink">
<g id="graph0" class="graph" transform="scale(1 1) rotate(0) translate(4 44)">
<title>gameAuthoring.mainclasses.controllerInterfaces.ITowerConfiguring.configureTowers</title>
<polygon fill="white" stroke="none" points="-4,4 -4,-44 482,-44 482,4 -4,4"/>
<!-- Node1 -->
<g id="node1" class="node"><title>Node1</title>
<polygon fill="#bfbfbf" stroke="black" points="0,-5 0,-35 228,-35 228,-5 0,-5"/>
<text text-anchor="start" x="8" y="-23" font-family="Helvetica,sans-Serif" font-size="10.00">gameAuthoring.mainclasses.controller</text>
<text text-anchor="middle" x="114" y="-12" font-family="Helvetica,sans-Serif" font-size="10.00">Interfaces.ITowerConfiguring.configureTowers</text>
</g>
<!-- Node2 -->
<g id="node2" class="node"><title>Node2</title>
<g id="a_node2"><a xlink:href="../../d4/d66/classgame_authoring_1_1scenes_1_1actor_building_scenes_1_1_tower_building_scene.html#a99fd3b6a7b9c234b91239fe0fb5cfad9" target="_top" xlink:title="gameAuthoring.scenes.actor\lBuildingScenes.TowerBuildingScene.finish\lBuildingActors">
<polygon fill="white" stroke="black" points="264,0.5 264,-40.5 478,-40.5 478,0.5 264,0.5"/>
<text text-anchor="start" x="272" y="-28.5" font-family="Helvetica,sans-Serif" font-size="10.00">gameAuthoring.scenes.actor</text>
<text text-anchor="start" x="272" y="-17.5" font-family="Helvetica,sans-Serif" font-size="10.00">BuildingScenes.TowerBuildingScene.finish</text>
<text text-anchor="middle" x="371" y="-6.5" font-family="Helvetica,sans-Serif" font-size="10.00">BuildingActors</text>
</a>
</g>
</g>
<!-- Node1&#45;&gt;Node2 -->
<g id="edge1" class="edge"><title>Node1&#45;&gt;Node2</title>
<path fill="none" stroke="midnightblue" d="M238.35,-20C246.902,-20 255.479,-20 263.927,-20"/>
<polygon fill="midnightblue" stroke="midnightblue" points="238.332,-16.5001 228.332,-20 238.332,-23.5001 238.332,-16.5001"/>
</g>
</g>
</svg>
