<?xml version="1.0" encoding="UTF-8" standalone="no"?>
<!DOCTYPE svg PUBLIC "-//W3C//DTD SVG 1.1//EN"
 "http://www.w3.org/Graphics/SVG/1.1/DTD/svg11.dtd">
<!-- Generated by graphviz version 2.36.0 (20140111.2315)
 -->
<!-- Title: utilities.JavaFXutilities.slider.SliderContainer Pages: 1 -->
<svg width="440pt" height="164pt"
 viewBox="0.00 0.00 440.00 164.00" xmlns="http://www.w3.org/2000/svg" xmlns:xlink="http://www.w3.org/1999/xlink">
<g id="graph0" class="graph" transform="scale(1 1) rotate(0) translate(4 160)">
<title>utilities.JavaFXutilities.slider.SliderContainer</title>
<polygon fill="white" stroke="none" points="-4,4 -4,-160 436,-160 436,4 -4,4"/>
<!-- Node1 -->
<g id="node1" class="node"><title>Node1</title>
<polygon fill="#bfbfbf" stroke="black" points="282.5,-57 282.5,-87 431.5,-87 431.5,-57 282.5,-57"/>
<text text-anchor="start" x="290.5" y="-75" font-family="Helvetica,sans-Serif" font-size="10.00">utilities.JavaFXutilities.slider.</text>
<text text-anchor="middle" x="357" y="-64" font-family="Helvetica,sans-Serif" font-size="10.00">SliderContainer</text>
</g>
<!-- Node2 -->
<g id="node2" class="node"><title>Node2</title>
<polygon fill="white" stroke="#bfbfbf" points="67.5,-136.5 67.5,-155.5 108.5,-155.5 108.5,-136.5 67.5,-136.5"/>
<text text-anchor="middle" x="88" y="-143.5" font-family="Helvetica,sans-Serif" font-size="10.00">VBox</text>
</g>
<!-- Node2&#45;&gt;Node1 -->
<g id="edge1" class="edge"><title>Node2&#45;&gt;Node1</title>
<path fill="none" stroke="midnightblue" d="M118.606,-139.586C135.476,-135.833 156.981,-130.884 176,-126 221.821,-114.233 273.482,-98.4715 309.668,-87.0158"/>
<polygon fill="midnightblue" stroke="midnightblue" points="117.776,-136.185 108.764,-141.757 119.283,-143.021 117.776,-136.185"/>
</g>
<!-- Node3 -->
<g id="node3" class="node"><title>Node3</title>
<g id="a_node3"><a xlink:href="../../db/d3a/classgame_authoring_1_1scenes_1_1actor_building_scenes_1_1behavior_builders_1_1_slider_info.html" target="_top" xlink:title="gameAuthoring.scenes.actor\lBuildingScenes.behaviorBuilders.\lSliderInfo">
<polygon fill="white" stroke="black" points="0.5,-76.5 0.5,-117.5 175.5,-117.5 175.5,-76.5 0.5,-76.5"/>
<text text-anchor="start" x="8.5" y="-105.5" font-family="Helvetica,sans-Serif" font-size="10.00">gameAuthoring.scenes.actor</text>
<text text-anchor="start" x="8.5" y="-94.5" font-family="Helvetica,sans-Serif" font-size="10.00">BuildingScenes.behaviorBuilders.</text>
<text text-anchor="middle" x="88" y="-83.5" font-family="Helvetica,sans-Serif" font-size="10.00">SliderInfo</text>
</a>
</g>
</g>
<!-- Node3&#45;&gt;Node1 -->
<g id="edge2" class="edge"><title>Node3&#45;&gt;Node1</title>
<path fill="none" stroke="#9a32cd" stroke-dasharray="5,2" d="M185.895,-87.9274C217.691,-84.9503 252.489,-81.692 282.282,-78.9025"/>
<polygon fill="#9a32cd" stroke="#9a32cd" points="185.317,-84.4661 175.687,-88.8832 185.97,-91.4356 185.317,-84.4661"/>
<text text-anchor="middle" x="229" y="-89" font-family="Helvetica,sans-Serif" font-size="10.00"> mySliderInfo</text>
</g>
<!-- Node4 -->
<g id="node4" class="node"><title>Node4</title>
<polygon fill="white" stroke="#bfbfbf" points="67,-38.5 67,-57.5 109,-57.5 109,-38.5 67,-38.5"/>
<text text-anchor="middle" x="88" y="-45.5" font-family="Helvetica,sans-Serif" font-size="10.00">Label</text>
</g>
<!-- Node4&#45;&gt;Node1 -->
<g id="edge3" class="edge"><title>Node4&#45;&gt;Node1</title>
<path fill="none" stroke="#9a32cd" stroke-dasharray="5,2" d="M119.072,-50.7031C158.409,-54.239 228.648,-60.5527 282.471,-65.3907"/>
<polygon fill="#9a32cd" stroke="#9a32cd" points="119.342,-47.2133 109.068,-49.8039 118.715,-54.1852 119.342,-47.2133"/>
<text text-anchor="middle" x="229" y="-66" font-family="Helvetica,sans-Serif" font-size="10.00"> myValueLabel</text>
</g>
<!-- Node5 -->
<g id="node5" class="node"><title>Node5</title>
<polygon fill="white" stroke="#bfbfbf" points="66,-0.5 66,-19.5 110,-19.5 110,-0.5 66,-0.5"/>
<text text-anchor="middle" x="88" y="-7.5" font-family="Helvetica,sans-Serif" font-size="10.00">Slider</text>
</g>
<!-- Node5&#45;&gt;Node1 -->
<g id="edge4" class="edge"><title>Node5&#45;&gt;Node1</title>
<path fill="none" stroke="#9a32cd" stroke-dasharray="5,2" d="M120.351,-14.4321C155.582,-19.713 214.346,-29.4249 264,-42 280.449,-46.1657 298.239,-51.714 313.751,-56.9056"/>
<polygon fill="#9a32cd" stroke="#9a32cd" points="120.612,-10.9329 110.209,-12.9372 119.591,-17.8581 120.612,-10.9329"/>
<text text-anchor="middle" x="229" y="-45" font-family="Helvetica,sans-Serif" font-size="10.00"> mySlider</text>
</g>
</g>
</svg>
