<?xml version="1.0" encoding="UTF-8" standalone="no"?>
<!DOCTYPE svg PUBLIC "-//W3C//DTD SVG 1.1//EN"
 "http://www.w3.org/Graphics/SVG/1.1/DTD/svg11.dtd">
<!-- Generated by graphviz version 2.36.0 (20140111.2315)
 -->
<!-- Title: utilities.chatroom.Chatroom.sendMessage Pages: 1 -->
<svg width="408pt" height="38pt"
 viewBox="0.00 0.00 408.00 38.00" xmlns="http://www.w3.org/2000/svg" xmlns:xlink="http://www.w3.org/1999/xlink">
<g id="graph0" class="graph" transform="scale(1 1) rotate(0) translate(4 34)">
<title>utilities.chatroom.Chatroom.sendMessage</title>
<polygon fill="white" stroke="none" points="-4,4 -4,-34 404,-34 404,4 -4,4"/>
<!-- Node1 -->
<g id="node1" class="node"><title>Node1</title>
<polygon fill="#bfbfbf" stroke="black" points="0.5,-0 0.5,-30 177.5,-30 177.5,-0 0.5,-0"/>
<text text-anchor="start" x="8.5" y="-18" font-family="Helvetica,sans-Serif" font-size="10.00">utilities.chatroom.Chatroom.send</text>
<text text-anchor="middle" x="89" y="-7" font-family="Helvetica,sans-Serif" font-size="10.00">Message</text>
</g>
<!-- Node2 -->
<g id="node2" class="node"><title>Node2</title>
<g id="a_node2"><a xlink:href="../../d8/d3d/classutilities_1_1chatroom_1_1_chatroom.html#a7cb5b8483cef3b37fc1efd774a7a4756" target="_top" xlink:title="utilities.chatroom.Chatroom.handle\lKeyPressed">
<polygon fill="white" stroke="black" points="214,-0 214,-30 400,-30 400,-0 214,-0"/>
<text text-anchor="start" x="222" y="-18" font-family="Helvetica,sans-Serif" font-size="10.00">utilities.chatroom.Chatroom.handle</text>
<text text-anchor="middle" x="307" y="-7" font-family="Helvetica,sans-Serif" font-size="10.00">KeyPressed</text>
</a>
</g>
</g>
<!-- Node1&#45;&gt;Node2 -->
<g id="edge1" class="edge"><title>Node1&#45;&gt;Node2</title>
<path fill="none" stroke="midnightblue" d="M187.677,-15C196.355,-15 205.123,-15 213.754,-15"/>
<polygon fill="midnightblue" stroke="midnightblue" points="187.544,-11.5001 177.544,-15 187.544,-18.5001 187.544,-11.5001"/>
</g>
</g>
</svg>
