<?xml version="1.0" encoding="UTF-8" standalone="no"?>
<!DOCTYPE svg PUBLIC "-//W3C//DTD SVG 1.1//EN"
 "http://www.w3.org/Graphics/SVG/1.1/DTD/svg11.dtd">
<!-- Generated by graphviz version 2.36.0 (20140111.2315)
 -->
<!-- Title: utilities.chatroom.Chatroom.Chatroom Pages: 1 -->
<svg width="852pt" height="87pt"
 viewBox="0.00 0.00 852.00 87.00" xmlns="http://www.w3.org/2000/svg" xmlns:xlink="http://www.w3.org/1999/xlink">
<g id="graph0" class="graph" transform="scale(1 1) rotate(0) translate(4 83)">
<title>utilities.chatroom.Chatroom.Chatroom</title>
<polygon fill="white" stroke="none" points="-4,4 -4,-83 848,-83 848,4 -4,4"/>
<!-- Node1 -->
<g id="node1" class="node"><title>Node1</title>
<polygon fill="#bfbfbf" stroke="black" points="0,-24 0,-54 154,-54 154,-24 0,-24"/>
<text text-anchor="start" x="8" y="-42" font-family="Helvetica,sans-Serif" font-size="10.00">utilities.chatroom.Chatroom.</text>
<text text-anchor="middle" x="77" y="-31" font-family="Helvetica,sans-Serif" font-size="10.00">Chatroom</text>
</g>
<!-- Node2 -->
<g id="node2" class="node"><title>Node2</title>
<g id="a_node2"><a xlink:href="../../d8/d3d/classutilities_1_1chatroom_1_1_chatroom.html#a9e80da8b6ffa22b2d10456d2ac8d7e38" target="_top" xlink:title="utilities.chatroom.Chatroom.setup\lAndBeginMessageRequests">
<polygon fill="white" stroke="black" points="190.5,-49 190.5,-79 371.5,-79 371.5,-49 190.5,-49"/>
<text text-anchor="start" x="198.5" y="-67" font-family="Helvetica,sans-Serif" font-size="10.00">utilities.chatroom.Chatroom.setup</text>
<text text-anchor="middle" x="281" y="-56" font-family="Helvetica,sans-Serif" font-size="10.00">AndBeginMessageRequests</text>
</a>
</g>
</g>
<!-- Node1&#45;&gt;Node2 -->
<g id="edge1" class="edge"><title>Node1&#45;&gt;Node2</title>
<path fill="none" stroke="midnightblue" d="M154.08,-48.4158C162.693,-49.4818 171.564,-50.5797 180.421,-51.6758"/>
<polygon fill="midnightblue" stroke="midnightblue" points="180.045,-55.156 190.399,-52.9108 180.905,-48.209 180.045,-55.156"/>
</g>
<!-- Node5 -->
<g id="node5" class="node"><title>Node5</title>
<g id="a_node5"><a xlink:href="../../d8/d3d/classutilities_1_1chatroom_1_1_chatroom.html#a1b1f459f3003bf238e4a51ce7976b063" target="_top" xlink:title="utilities.chatroom.Chatroom.setup\lChatroomGraphics">
<polygon fill="white" stroke="black" points="190.5,-0 190.5,-30 371.5,-30 371.5,-0 190.5,-0"/>
<text text-anchor="start" x="198.5" y="-18" font-family="Helvetica,sans-Serif" font-size="10.00">utilities.chatroom.Chatroom.setup</text>
<text text-anchor="middle" x="281" y="-7" font-family="Helvetica,sans-Serif" font-size="10.00">ChatroomGraphics</text>
</a>
</g>
</g>
<!-- Node1&#45;&gt;Node5 -->
<g id="edge4" class="edge"><title>Node1&#45;&gt;Node5</title>
<path fill="none" stroke="midnightblue" d="M154.08,-29.9608C162.693,-28.9375 171.564,-27.8835 180.421,-26.8312"/>
<polygon fill="midnightblue" stroke="midnightblue" points="180.882,-30.3011 190.399,-25.6456 180.056,-23.35 180.882,-30.3011"/>
</g>
<!-- Node3 -->
<g id="node3" class="node"><title>Node3</title>
<g id="a_node3"><a xlink:href="../../d8/d3d/classutilities_1_1chatroom_1_1_chatroom.html#a5c79dfde3501ea11d5eee4beff7bae0f" target="_top" xlink:title="utilities.chatroom.Chatroom.poll\lServerForMessages">
<polygon fill="white" stroke="black" points="408,-49 408,-79 578,-79 578,-49 408,-49"/>
<text text-anchor="start" x="416" y="-67" font-family="Helvetica,sans-Serif" font-size="10.00">utilities.chatroom.Chatroom.poll</text>
<text text-anchor="middle" x="493" y="-56" font-family="Helvetica,sans-Serif" font-size="10.00">ServerForMessages</text>
</a>
</g>
</g>
<!-- Node2&#45;&gt;Node3 -->
<g id="edge2" class="edge"><title>Node2&#45;&gt;Node3</title>
<path fill="none" stroke="midnightblue" d="M371.668,-64C380.322,-64 389.117,-64 397.813,-64"/>
<polygon fill="midnightblue" stroke="midnightblue" points="397.96,-67.5001 407.96,-64 397.96,-60.5001 397.96,-67.5001"/>
</g>
<!-- Node4 -->
<g id="node4" class="node"><title>Node4</title>
<g id="a_node4"><a xlink:href="../../da/dae/classutilities_1_1networking_1_1_h_t_t_p_connection.html#a83fe2ca04deb090dbffa9b9ab2e44a3e" target="_top" xlink:title="utilities.networking.HTTPConnection.sendGet">
<polygon fill="white" stroke="black" points="614,-54.5 614,-73.5 844,-73.5 844,-54.5 614,-54.5"/>
<text text-anchor="middle" x="729" y="-61.5" font-family="Helvetica,sans-Serif" font-size="10.00">utilities.networking.HTTPConnection.sendGet</text>
</a>
</g>
</g>
<!-- Node3&#45;&gt;Node4 -->
<g id="edge3" class="edge"><title>Node3&#45;&gt;Node4</title>
<path fill="none" stroke="midnightblue" d="M578.149,-64C586.436,-64 594.963,-64 603.543,-64"/>
<polygon fill="midnightblue" stroke="midnightblue" points="603.63,-67.5001 613.63,-64 603.629,-60.5001 603.63,-67.5001"/>
</g>
</g>
</svg>
