<?xml version="1.0" encoding="UTF-8" standalone="no"?>
<!DOCTYPE svg PUBLIC "-//W3C//DTD SVG 1.1//EN"
 "http://www.w3.org/Graphics/SVG/1.1/DTD/svg11.dtd">
<!-- Generated by graphviz version 2.36.0 (20140111.2315)
 -->
<!-- Title: gamePlayer.unusedCodeWarehouse.SelectTowerListener Pages: 1 -->
<svg width="214pt" height="108pt"
 viewBox="0.00 0.00 214.00 108.00" xmlns="http://www.w3.org/2000/svg" xmlns:xlink="http://www.w3.org/1999/xlink">
<g id="graph0" class="graph" transform="scale(1 1) rotate(0) translate(4 104)">
<title>gamePlayer.unusedCodeWarehouse.SelectTowerListener</title>
<polygon fill="white" stroke="none" points="-4,4 -4,-104 210,-104 210,4 -4,4"/>
<!-- Node1 -->
<g id="node1" class="node"><title>Node1</title>
<polygon fill="#bfbfbf" stroke="black" points="7.5,-69 7.5,-99 198.5,-99 198.5,-69 7.5,-69"/>
<text text-anchor="start" x="15.5" y="-87" font-family="Helvetica,sans-Serif" font-size="10.00">gamePlayer.unusedCodeWarehouse.</text>
<text text-anchor="middle" x="103" y="-76" font-family="Helvetica,sans-Serif" font-size="10.00">SelectTowerListener</text>
</g>
<!-- Node2 -->
<g id="node2" class="node"><title>Node2</title>
<g id="a_node2"><a xlink:href="../../d6/dac/classgame_player_1_1unused_code_warehouse_1_1gui_items_1_1store_1_1_store.html" target="_top" xlink:title="gamePlayer.unusedCodeWarehouse.gui\lItems.store.Store">
<polygon fill="white" stroke="black" points="0,-1 0,-31 206,-31 206,-1 0,-1"/>
<text text-anchor="start" x="8" y="-19" font-family="Helvetica,sans-Serif" font-size="10.00">gamePlayer.unusedCodeWarehouse.gui</text>
<text text-anchor="middle" x="103" y="-8" font-family="Helvetica,sans-Serif" font-size="10.00">Items.store.Store</text>
</a>
</g>
</g>
<!-- Node1&#45;&gt;Node2 -->
<g id="edge1" class="edge"><title>Node1&#45;&gt;Node2</title>
<path fill="none" stroke="midnightblue" d="M103,-58.5322C103,-49.3606 103,-39.2449 103,-31.2931"/>
<polygon fill="midnightblue" stroke="midnightblue" points="99.5001,-58.6789 103,-68.679 106.5,-58.679 99.5001,-58.6789"/>
</g>
</g>
</svg>
