<?xml version="1.0" encoding="UTF-8" standalone="no"?>
<!DOCTYPE svg PUBLIC "-//W3C//DTD SVG 1.1//EN"
 "http://www.w3.org/Graphics/SVG/1.1/DTD/svg11.dtd">
<!-- Generated by graphviz version 2.36.0 (20140111.2315)
 -->
<!-- Title: utilities.pathfinding.example.UnlinkedNode.UnlinkedNode Pages: 1 -->
<svg width="352pt" height="38pt"
 viewBox="0.00 0.00 352.00 38.00" xmlns="http://www.w3.org/2000/svg" xmlns:xlink="http://www.w3.org/1999/xlink">
<g id="graph0" class="graph" transform="scale(1 1) rotate(0) translate(4 34)">
<title>utilities.pathfinding.example.UnlinkedNode.UnlinkedNode</title>
<polygon fill="white" stroke="none" points="-4,4 -4,-34 348,-34 348,4 -4,4"/>
<!-- Node1 -->
<g id="node1" class="node"><title>Node1</title>
<polygon fill="#bfbfbf" stroke="black" points="0,-0 0,-30 154,-30 154,-0 0,-0"/>
<text text-anchor="start" x="8" y="-18" font-family="Helvetica,sans-Serif" font-size="10.00">utilities.pathfinding.example.</text>
<text text-anchor="middle" x="77" y="-7" font-family="Helvetica,sans-Serif" font-size="10.00">UnlinkedNode.UnlinkedNode</text>
</g>
<!-- Node2 -->
<g id="node2" class="node"><title>Node2</title>
<g id="a_node2"><a xlink:href="../../dd/dda/classutilities_1_1pathfinding_1_1example_1_1_unlinked_node.html#aa5bd793523300991b03417b829acffe5" target="_top" xlink:title="utilities.pathfinding.example.\lUnlinkedNode.equals">
<polygon fill="white" stroke="black" points="190,-0 190,-30 344,-30 344,-0 190,-0"/>
<text text-anchor="start" x="198" y="-18" font-family="Helvetica,sans-Serif" font-size="10.00">utilities.pathfinding.example.</text>
<text text-anchor="middle" x="267" y="-7" font-family="Helvetica,sans-Serif" font-size="10.00">UnlinkedNode.equals</text>
</a>
</g>
</g>
<!-- Node1&#45;&gt;Node2 -->
<g id="edge1" class="edge"><title>Node1&#45;&gt;Node2</title>
<path fill="none" stroke="midnightblue" d="M164.424,-15C172.857,-15 181.372,-15 189.696,-15"/>
<polygon fill="midnightblue" stroke="midnightblue" points="164.196,-11.5001 154.196,-15 164.196,-18.5001 164.196,-11.5001"/>
</g>
</g>
</svg>
