<?xml version="1.0" encoding="UTF-8" standalone="no"?>
<!DOCTYPE svg PUBLIC "-//W3C//DTD SVG 1.1//EN"
 "http://www.w3.org/Graphics/SVG/1.1/DTD/svg11.dtd">
<!-- Generated by graphviz version 2.36.0 (20140111.2315)
 -->
<!-- Title: gamePlayer.unusedCodeWarehouse.guiItems.store.StoreItemCell Pages: 1 -->
<svg width="288pt" height="178pt"
 viewBox="0.00 0.00 288.00 178.00" xmlns="http://www.w3.org/2000/svg" xmlns:xlink="http://www.w3.org/1999/xlink">
<g id="graph0" class="graph" transform="scale(1 1) rotate(0) translate(4 174)">
<title>gamePlayer.unusedCodeWarehouse.guiItems.store.StoreItemCell</title>
<polygon fill="white" stroke="none" points="-4,4 -4,-174 284,-174 284,4 -4,4"/>
<!-- Node1 -->
<g id="node1" class="node"><title>Node1</title>
<polygon fill="#bfbfbf" stroke="black" points="74,-1 74,-31 280,-31 280,-1 74,-1"/>
<text text-anchor="start" x="82" y="-19" font-family="Helvetica,sans-Serif" font-size="10.00">gamePlayer.unusedCodeWarehouse.gui</text>
<text text-anchor="middle" x="177" y="-8" font-family="Helvetica,sans-Serif" font-size="10.00">Items.store.StoreItemCell</text>
</g>
<!-- Node2 -->
<g id="node2" class="node"><title>Node2</title>
<g id="a_node2"><a xlink:href="../../de/d25/interfacegame_player_1_1gui_items_1_1_gui_item.html" target="_top" xlink:title="gamePlayer.guiItems.GuiItem">
<polygon fill="white" stroke="black" points="0,-80.5 0,-99.5 158,-99.5 158,-80.5 0,-80.5"/>
<text text-anchor="middle" x="79" y="-87.5" font-family="Helvetica,sans-Serif" font-size="10.00">gamePlayer.guiItems.GuiItem</text>
</a>
</g>
</g>
<!-- Node2&#45;&gt;Node1 -->
<g id="edge1" class="edge"><title>Node2&#45;&gt;Node1</title>
<path fill="none" stroke="midnightblue" d="M98.8304,-74.4307C115.977,-61.8329 140.618,-43.7298 157.629,-31.2316"/>
<polygon fill="midnightblue" stroke="midnightblue" points="96.6133,-71.7165 90.6267,-80.4579 100.758,-77.3577 96.6133,-71.7165"/>
</g>
<!-- Node3 -->
<g id="node3" class="node"><title>Node3</title>
<g id="a_node3"><a xlink:href="../../d7/d02/interfacegame_player_1_1main_classes_1_1gui_builder_1_1_gui_element.html" target="_top" xlink:title="gamePlayer.mainClasses.gui\lBuilder.GuiElement">
<polygon fill="white" stroke="black" points="2,-139 2,-169 156,-169 156,-139 2,-139"/>
<text text-anchor="start" x="10" y="-157" font-family="Helvetica,sans-Serif" font-size="10.00">gamePlayer.mainClasses.gui</text>
<text text-anchor="middle" x="79" y="-146" font-family="Helvetica,sans-Serif" font-size="10.00">Builder.GuiElement</text>
</a>
</g>
</g>
<!-- Node3&#45;&gt;Node2 -->
<g id="edge2" class="edge"><title>Node3&#45;&gt;Node2</title>
<path fill="none" stroke="midnightblue" d="M79,-128.871C79,-118.663 79,-107.408 79,-99.8419"/>
<polygon fill="midnightblue" stroke="midnightblue" points="75.5001,-128.931 79,-138.931 82.5001,-128.931 75.5001,-128.931"/>
</g>
<!-- Node4 -->
<g id="node4" class="node"><title>Node4</title>
<polygon fill="white" stroke="#bfbfbf" points="176,-80.5 176,-99.5 244,-99.5 244,-80.5 176,-80.5"/>
<text text-anchor="middle" x="210" y="-87.5" font-family="Helvetica,sans-Serif" font-size="10.00">ImageView</text>
</g>
<!-- Node4&#45;&gt;Node1 -->
<g id="edge3" class="edge"><title>Node4&#45;&gt;Node1</title>
<path fill="none" stroke="#9a32cd" stroke-dasharray="5,2" d="M201.843,-71.2038C196.196,-58.8816 188.778,-42.6978 183.523,-31.2316"/>
<polygon fill="#9a32cd" stroke="#9a32cd" points="198.737,-72.8256 206.085,-80.4579 205.1,-69.9089 198.737,-72.8256"/>
<text text-anchor="middle" x="221.5" y="-53.5" font-family="Helvetica,sans-Serif" font-size="10.00"> myImage</text>
</g>
</g>
</svg>
