<?xml version="1.0" encoding="UTF-8" standalone="no"?>
<!DOCTYPE svg PUBLIC "-//W3C//DTD SVG 1.1//EN"
 "http://www.w3.org/Graphics/SVG/1.1/DTD/svg11.dtd">
<!-- Generated by graphviz version 2.36.0 (20140111.2315)
 -->
<!-- Title: utilities.video.VideoPlayer.defineMediaPlayerBehavior Pages: 1 -->
<svg width="840pt" height="38pt"
 viewBox="0.00 0.00 840.00 38.00" xmlns="http://www.w3.org/2000/svg" xmlns:xlink="http://www.w3.org/1999/xlink">
<g id="graph0" class="graph" transform="scale(1 1) rotate(0) translate(4 34)">
<title>utilities.video.VideoPlayer.defineMediaPlayerBehavior</title>
<polygon fill="white" stroke="none" points="-4,4 -4,-34 836,-34 836,4 -4,4"/>
<!-- Node1 -->
<g id="node1" class="node"><title>Node1</title>
<polygon fill="#bfbfbf" stroke="black" points="0,-0 0,-30 170,-30 170,-0 0,-0"/>
<text text-anchor="start" x="8" y="-18" font-family="Helvetica,sans-Serif" font-size="10.00">utilities.video.VideoPlayer.define</text>
<text text-anchor="middle" x="85" y="-7" font-family="Helvetica,sans-Serif" font-size="10.00">MediaPlayerBehavior</text>
</g>
<!-- Node2 -->
<g id="node2" class="node"><title>Node2</title>
<g id="a_node2"><a xlink:href="../../d5/d61/classutilities_1_1video_1_1_video_player.html#ab66a43d9c5751156c47595d65b3488fe" target="_top" xlink:title="utilities.video.VideoPlayer.update\lValues">
<polygon fill="white" stroke="black" points="206,-0 206,-30 380,-30 380,-0 206,-0"/>
<text text-anchor="start" x="214" y="-18" font-family="Helvetica,sans-Serif" font-size="10.00">utilities.video.VideoPlayer.update</text>
<text text-anchor="middle" x="293" y="-7" font-family="Helvetica,sans-Serif" font-size="10.00">Values</text>
</a>
</g>
</g>
<!-- Node1&#45;&gt;Node2 -->
<g id="edge1" class="edge"><title>Node1&#45;&gt;Node2</title>
<path fill="none" stroke="midnightblue" d="M170.085,-15C178.561,-15 187.214,-15 195.804,-15"/>
<polygon fill="midnightblue" stroke="midnightblue" points="195.844,-18.5001 205.844,-15 195.844,-11.5001 195.844,-18.5001"/>
</g>
<!-- Node3 -->
<g id="node3" class="node"><title>Node3</title>
<g id="a_node3"><a xlink:href="../../d5/d61/classutilities_1_1video_1_1_video_player.html#a213728c181f9c56cb9979d9fc92b2df6" target="_top" xlink:title="utilities.video.VideoPlayer.calculate\lElapsedTime">
<polygon fill="white" stroke="black" points="416.5,-0 416.5,-30 599.5,-30 599.5,-0 416.5,-0"/>
<text text-anchor="start" x="424.5" y="-18" font-family="Helvetica,sans-Serif" font-size="10.00">utilities.video.VideoPlayer.calculate</text>
<text text-anchor="middle" x="508" y="-7" font-family="Helvetica,sans-Serif" font-size="10.00">ElapsedTime</text>
</a>
</g>
</g>
<!-- Node2&#45;&gt;Node3 -->
<g id="edge2" class="edge"><title>Node2&#45;&gt;Node3</title>
<path fill="none" stroke="midnightblue" d="M380.021,-15C388.652,-15 397.469,-15 406.234,-15"/>
<polygon fill="midnightblue" stroke="midnightblue" points="406.485,-18.5001 416.485,-15 406.485,-11.5001 406.485,-18.5001"/>
</g>
<!-- Node4 -->
<g id="node4" class="node"><title>Node4</title>
<g id="a_node4"><a xlink:href="../../d5/d61/classutilities_1_1video_1_1_video_player.html#ad2d2aeeafedc99d6344df4e126f1553e" target="_top" xlink:title="utilities.video.VideoPlayer.formatTime">
<polygon fill="white" stroke="black" points="636,-5.5 636,-24.5 832,-24.5 832,-5.5 636,-5.5"/>
<text text-anchor="middle" x="734" y="-12.5" font-family="Helvetica,sans-Serif" font-size="10.00">utilities.video.VideoPlayer.formatTime</text>
</a>
</g>
</g>
<!-- Node3&#45;&gt;Node4 -->
<g id="edge3" class="edge"><title>Node3&#45;&gt;Node4</title>
<path fill="none" stroke="midnightblue" d="M599.786,-15C608.329,-15 617.042,-15 625.717,-15"/>
<polygon fill="midnightblue" stroke="midnightblue" points="625.871,-18.5001 635.871,-15 625.871,-11.5001 625.871,-18.5001"/>
</g>
</g>
</svg>
