<?xml version="1.0" encoding="UTF-8" standalone="no"?>
<!DOCTYPE svg PUBLIC "-//W3C//DTD SVG 1.1//EN"
 "http://www.w3.org/Graphics/SVG/1.1/DTD/svg11.dtd">
<!-- Generated by graphviz version 2.36.0 (20140111.2315)
 -->
<!-- Title: utilities.video.VideoPlayer.updateValues Pages: 1 -->
<svg width="564pt" height="87pt"
 viewBox="0.00 0.00 564.00 87.00" xmlns="http://www.w3.org/2000/svg" xmlns:xlink="http://www.w3.org/1999/xlink">
<g id="graph0" class="graph" transform="scale(1 1) rotate(0) translate(4 83)">
<title>utilities.video.VideoPlayer.updateValues</title>
<polygon fill="white" stroke="none" points="-4,4 -4,-83 560,-83 560,4 -4,4"/>
<!-- Node1 -->
<g id="node1" class="node"><title>Node1</title>
<polygon fill="#bfbfbf" stroke="black" points="0,-24 0,-54 174,-54 174,-24 0,-24"/>
<text text-anchor="start" x="8" y="-42" font-family="Helvetica,sans-Serif" font-size="10.00">utilities.video.VideoPlayer.update</text>
<text text-anchor="middle" x="87" y="-31" font-family="Helvetica,sans-Serif" font-size="10.00">Values</text>
</g>
<!-- Node2 -->
<g id="node2" class="node"><title>Node2</title>
<g id="a_node2"><a xlink:href="../../d5/d61/classutilities_1_1video_1_1_video_player.html#a1cdbc16be0c66f130cf9e1ea06176602" target="_top" xlink:title="utilities.video.VideoPlayer.define\lMediaPlayerBehavior">
<polygon fill="white" stroke="black" points="210,-49 210,-79 380,-79 380,-49 210,-49"/>
<text text-anchor="start" x="218" y="-67" font-family="Helvetica,sans-Serif" font-size="10.00">utilities.video.VideoPlayer.define</text>
<text text-anchor="middle" x="295" y="-56" font-family="Helvetica,sans-Serif" font-size="10.00">MediaPlayerBehavior</text>
</a>
</g>
</g>
<!-- Node1&#45;&gt;Node2 -->
<g id="edge1" class="edge"><title>Node1&#45;&gt;Node2</title>
<path fill="none" stroke="midnightblue" d="M184.18,-50.6724C192.745,-51.7118 201.373,-52.7589 209.827,-53.7848"/>
<polygon fill="midnightblue" stroke="midnightblue" points="184.518,-47.1877 174.169,-49.4574 183.674,-54.1367 184.518,-47.1877"/>
</g>
<!-- Node4 -->
<g id="node4" class="node"><title>Node4</title>
<g id="a_node4"><a xlink:href="../../d5/d61/classutilities_1_1video_1_1_video_player.html#a48642adc909d4b5d62156f3235a698c0" target="_top" xlink:title="utilities.video.VideoPlayer.define\lPlayButtonBehavior">
<polygon fill="white" stroke="black" points="210,-0 210,-30 380,-30 380,-0 210,-0"/>
<text text-anchor="start" x="218" y="-18" font-family="Helvetica,sans-Serif" font-size="10.00">utilities.video.VideoPlayer.define</text>
<text text-anchor="middle" x="295" y="-7" font-family="Helvetica,sans-Serif" font-size="10.00">PlayButtonBehavior</text>
</a>
</g>
</g>
<!-- Node1&#45;&gt;Node4 -->
<g id="edge3" class="edge"><title>Node1&#45;&gt;Node4</title>
<path fill="none" stroke="midnightblue" d="M184.18,-27.7945C192.745,-26.7967 201.373,-25.7914 209.827,-24.8066"/>
<polygon fill="midnightblue" stroke="midnightblue" points="183.697,-24.3271 174.169,-28.9609 184.507,-31.2801 183.697,-24.3271"/>
</g>
<!-- Node3 -->
<g id="node3" class="node"><title>Node3</title>
<g id="a_node3"><a xlink:href="../../d5/d61/classutilities_1_1video_1_1_video_player.html#af2ec3388f818841be5de3e047334506f" target="_top" xlink:title="utilities.video.VideoPlayer.\lVideoPlayer">
<polygon fill="white" stroke="black" points="416,-24 416,-54 556,-54 556,-24 416,-24"/>
<text text-anchor="start" x="424" y="-42" font-family="Helvetica,sans-Serif" font-size="10.00">utilities.video.VideoPlayer.</text>
<text text-anchor="middle" x="486" y="-31" font-family="Helvetica,sans-Serif" font-size="10.00">VideoPlayer</text>
</a>
</g>
</g>
<!-- Node2&#45;&gt;Node3 -->
<g id="edge2" class="edge"><title>Node2&#45;&gt;Node3</title>
<path fill="none" stroke="midnightblue" d="M390.359,-51.5187C398.965,-50.3803 407.572,-49.2418 415.896,-48.1408"/>
<polygon fill="midnightblue" stroke="midnightblue" points="389.729,-48.0714 380.274,-52.8526 390.647,-55.011 389.729,-48.0714"/>
</g>
<!-- Node4&#45;&gt;Node3 -->
<g id="edge4" class="edge"><title>Node4&#45;&gt;Node3</title>
<path fill="none" stroke="midnightblue" d="M390.359,-26.9821C398.965,-28.0749 407.572,-29.1679 415.896,-30.2249"/>
<polygon fill="midnightblue" stroke="midnightblue" points="390.635,-23.4892 380.274,-25.7015 389.754,-30.4334 390.635,-23.4892"/>
</g>
</g>
</svg>
