<?xml version="1.0" encoding="UTF-8" standalone="no"?>
<!DOCTYPE svg PUBLIC "-//W3C//DTD SVG 1.1//EN"
 "http://www.w3.org/Graphics/SVG/1.1/DTD/svg11.dtd">
<!-- Generated by graphviz version 2.36.0 (20140111.2315)
 -->
<!-- Title: utilities.video.VideoPlayer.createMediaPlayer Pages: 1 -->
<svg width="356pt" height="38pt"
 viewBox="0.00 0.00 356.00 38.00" xmlns="http://www.w3.org/2000/svg" xmlns:xlink="http://www.w3.org/1999/xlink">
<g id="graph0" class="graph" transform="scale(1 1) rotate(0) translate(4 34)">
<title>utilities.video.VideoPlayer.createMediaPlayer</title>
<polygon fill="white" stroke="none" points="-4,4 -4,-34 352,-34 352,4 -4,4"/>
<!-- Node1 -->
<g id="node1" class="node"><title>Node1</title>
<polygon fill="#bfbfbf" stroke="black" points="0.5,-0 0.5,-30 171.5,-30 171.5,-0 0.5,-0"/>
<text text-anchor="start" x="8.5" y="-18" font-family="Helvetica,sans-Serif" font-size="10.00">utilities.video.VideoPlayer.create</text>
<text text-anchor="middle" x="86" y="-7" font-family="Helvetica,sans-Serif" font-size="10.00">MediaPlayer</text>
</g>
<!-- Node2 -->
<g id="node2" class="node"><title>Node2</title>
<g id="a_node2"><a xlink:href="../../d5/d61/classutilities_1_1video_1_1_video_player.html#af2ec3388f818841be5de3e047334506f" target="_top" xlink:title="utilities.video.VideoPlayer.\lVideoPlayer">
<polygon fill="white" stroke="black" points="208,-0 208,-30 348,-30 348,-0 208,-0"/>
<text text-anchor="start" x="216" y="-18" font-family="Helvetica,sans-Serif" font-size="10.00">utilities.video.VideoPlayer.</text>
<text text-anchor="middle" x="278" y="-7" font-family="Helvetica,sans-Serif" font-size="10.00">VideoPlayer</text>
</a>
</g>
</g>
<!-- Node1&#45;&gt;Node2 -->
<g id="edge1" class="edge"><title>Node1&#45;&gt;Node2</title>
<path fill="none" stroke="midnightblue" d="M181.942,-15C190.665,-15 199.389,-15 207.819,-15"/>
<polygon fill="midnightblue" stroke="midnightblue" points="181.72,-11.5001 171.72,-15 181.72,-18.5001 181.72,-11.5001"/>
</g>
</g>
</svg>
