<?xml version="1.0" encoding="UTF-8" standalone="no"?>
<!DOCTYPE svg PUBLIC "-//W3C//DTD SVG 1.1//EN"
 "http://www.w3.org/Graphics/SVG/1.1/DTD/svg11.dtd">
<!-- Generated by graphviz version 2.36.0 (20140111.2315)
 -->
<!-- Title: utilities.GSON.objectWrappers.GameStateWrapper Pages: 1 -->
<svg width="170pt" height="120pt"
 viewBox="0.00 0.00 170.00 120.00" xmlns="http://www.w3.org/2000/svg" xmlns:xlink="http://www.w3.org/1999/xlink">
<g id="graph0" class="graph" transform="scale(1 1) rotate(0) translate(4 116)">
<title>utilities.GSON.objectWrappers.GameStateWrapper</title>
<polygon fill="white" stroke="none" points="-4,4 -4,-116 166,-116 166,4 -4,4"/>
<!-- Node1 -->
<g id="node1" class="node"><title>Node1</title>
<polygon fill="#bfbfbf" stroke="black" points="0,-1 0,-31 162,-31 162,-1 0,-1"/>
<text text-anchor="start" x="8" y="-19" font-family="Helvetica,sans-Serif" font-size="10.00">utilities.GSON.objectWrappers.</text>
<text text-anchor="middle" x="81" y="-8" font-family="Helvetica,sans-Serif" font-size="10.00">GameStateWrapper</text>
</g>
<!-- Node2 -->
<g id="node2" class="node"><title>Node2</title>
<polygon fill="white" stroke="#bfbfbf" points="9.5,-81 9.5,-111 152.5,-111 152.5,-81 9.5,-81"/>
<text text-anchor="start" x="17.5" y="-99" font-family="Helvetica,sans-Serif" font-size="10.00">List&lt; utilities.GSON.object</text>
<text text-anchor="middle" x="81" y="-88" font-family="Helvetica,sans-Serif" font-size="10.00">Wrappers.DataWrapper &gt;</text>
</g>
<!-- Node2&#45;&gt;Node1 -->
<g id="edge1" class="edge"><title>Node2&#45;&gt;Node1</title>
<path fill="none" stroke="#9a32cd" stroke-dasharray="5,2" d="M81,-70.5644C81,-57.6243 81,-42.1862 81,-31.2157"/>
<polygon fill="#9a32cd" stroke="#9a32cd" points="77.5001,-70.6936 81,-80.6936 84.5001,-70.6936 77.5001,-70.6936"/>
<text text-anchor="middle" x="106" y="-53.5" font-family="Helvetica,sans-Serif" font-size="10.00"> myTowers</text>
</g>
</g>
</svg>
