<?xml version="1.0" encoding="UTF-8" standalone="no"?>
<!DOCTYPE svg PUBLIC "-//W3C//DTD SVG 1.1//EN"
 "http://www.w3.org/Graphics/SVG/1.1/DTD/svg11.dtd">
<!-- Generated by graphviz version 2.36.0 (20140111.2315)
 -->
<!-- Title: gamePlayer.mainClasses.ExceptionHandling.ExceptionHandler.ExceptionHandler Pages: 1 -->
<svg width="942pt" height="87pt"
 viewBox="0.00 0.00 942.00 87.00" xmlns="http://www.w3.org/2000/svg" xmlns:xlink="http://www.w3.org/1999/xlink">
<g id="graph0" class="graph" transform="scale(1 1) rotate(0) translate(4 83)">
<title>gamePlayer.mainClasses.ExceptionHandling.ExceptionHandler.ExceptionHandler</title>
<polygon fill="white" stroke="none" points="-4,4 -4,-83 938,-83 938,4 -4,4"/>
<!-- Node1 -->
<g id="node1" class="node"><title>Node1</title>
<polygon fill="#bfbfbf" stroke="black" points="0,-18.5 0,-59.5 194,-59.5 194,-18.5 0,-18.5"/>
<text text-anchor="start" x="8" y="-47.5" font-family="Helvetica,sans-Serif" font-size="10.00">gamePlayer.mainClasses.Exception</text>
<text text-anchor="start" x="8" y="-36.5" font-family="Helvetica,sans-Serif" font-size="10.00">Handling.ExceptionHandler.Exception</text>
<text text-anchor="middle" x="97" y="-25.5" font-family="Helvetica,sans-Serif" font-size="10.00">Handler</text>
</g>
<!-- Node2 -->
<g id="node2" class="node"><title>Node2</title>
<g id="a_node2"><a xlink:href="../../da/d82/classgame_player_1_1main_classes_1_1_exception_handling_1_1_exception_handler.html#ae47dd1b2b715e381962acc0614777f79" target="_top" xlink:title="gamePlayer.mainClasses.Exception\lHandling.ExceptionHandler.getInstance">
<polygon fill="white" stroke="black" points="230,-24 230,-54 434,-54 434,-24 230,-24"/>
<text text-anchor="start" x="238" y="-42" font-family="Helvetica,sans-Serif" font-size="10.00">gamePlayer.mainClasses.Exception</text>
<text text-anchor="middle" x="332" y="-31" font-family="Helvetica,sans-Serif" font-size="10.00">Handling.ExceptionHandler.getInstance</text>
</a>
</g>
</g>
<!-- Node1&#45;&gt;Node2 -->
<g id="edge1" class="edge"><title>Node1&#45;&gt;Node2</title>
<path fill="none" stroke="midnightblue" d="M204.394,-39C212.859,-39 221.396,-39 229.825,-39"/>
<polygon fill="midnightblue" stroke="midnightblue" points="204.115,-35.5001 194.115,-39 204.115,-42.5001 204.115,-35.5001"/>
</g>
<!-- Node3 -->
<g id="node3" class="node"><title>Node3</title>
<g id="a_node3"><a xlink:href="../../d5/da2/classgame_player_1_1gui_items_1_1control_dock_buttons_1_1_control_dock_button.html#ad53cf2dc4b9ae27d30d70c6764277578" target="_top" xlink:title="gamePlayer.guiItems.control\lDockButtons.ControlDockButton.setup\lImageViews">
<polygon fill="white" stroke="black" points="470,-18.5 470,-59.5 672,-59.5 672,-18.5 470,-18.5"/>
<text text-anchor="start" x="478" y="-47.5" font-family="Helvetica,sans-Serif" font-size="10.00">gamePlayer.guiItems.control</text>
<text text-anchor="start" x="478" y="-36.5" font-family="Helvetica,sans-Serif" font-size="10.00">DockButtons.ControlDockButton.setup</text>
<text text-anchor="middle" x="571" y="-25.5" font-family="Helvetica,sans-Serif" font-size="10.00">ImageViews</text>
</a>
</g>
</g>
<!-- Node2&#45;&gt;Node3 -->
<g id="edge2" class="edge"><title>Node2&#45;&gt;Node3</title>
<path fill="none" stroke="midnightblue" d="M444.22,-39C452.788,-39 461.406,-39 469.896,-39"/>
<polygon fill="midnightblue" stroke="midnightblue" points="444.197,-35.5001 434.197,-39 444.197,-42.5001 444.197,-35.5001"/>
</g>
<!-- Node4 -->
<g id="node4" class="node"><title>Node4</title>
<g id="a_node4"><a xlink:href="../../dd/d15/classgame_player_1_1gui_items_1_1control_dock_buttons_1_1buttons_1_1_speed_button.html#a2f0f314f2da9b1f6dd374976c3619734" target="_top" xlink:title="gamePlayer.guiItems.control\lDockButtons.buttons.SpeedButton.initialize">
<polygon fill="white" stroke="black" points="708.5,-49 708.5,-79 933.5,-79 933.5,-49 708.5,-49"/>
<text text-anchor="start" x="716.5" y="-67" font-family="Helvetica,sans-Serif" font-size="10.00">gamePlayer.guiItems.control</text>
<text text-anchor="middle" x="821" y="-56" font-family="Helvetica,sans-Serif" font-size="10.00">DockButtons.buttons.SpeedButton.initialize</text>
</a>
</g>
</g>
<!-- Node3&#45;&gt;Node4 -->
<g id="edge3" class="edge"><title>Node3&#45;&gt;Node4</title>
<path fill="none" stroke="midnightblue" d="M682.199,-50.1088C690.798,-50.9756 699.486,-51.8514 708.096,-52.7194"/>
<polygon fill="midnightblue" stroke="midnightblue" points="682.457,-46.6171 672.156,-49.0964 681.755,-53.5818 682.457,-46.6171"/>
</g>
<!-- Node5 -->
<g id="node5" class="node"><title>Node5</title>
<g id="a_node5"><a xlink:href="../../da/d25/classgame_player_1_1gui_items_1_1control_dock_buttons_1_1buttons_1_1_play_button.html#a6fda47484fb3443433041dadb8c2b2c1" target="_top" xlink:title="gamePlayer.guiItems.control\lDockButtons.buttons.PlayButton.initialize">
<polygon fill="white" stroke="black" points="714,-0 714,-30 928,-30 928,-0 714,-0"/>
<text text-anchor="start" x="722" y="-18" font-family="Helvetica,sans-Serif" font-size="10.00">gamePlayer.guiItems.control</text>
<text text-anchor="middle" x="821" y="-7" font-family="Helvetica,sans-Serif" font-size="10.00">DockButtons.buttons.PlayButton.initialize</text>
</a>
</g>
</g>
<!-- Node3&#45;&gt;Node5 -->
<g id="edge4" class="edge"><title>Node3&#45;&gt;Node5</title>
<path fill="none" stroke="midnightblue" d="M682.18,-28.3374C692.688,-27.3205 703.33,-26.2906 713.8,-25.2774"/>
<polygon fill="midnightblue" stroke="midnightblue" points="681.773,-24.8604 672.156,-29.3075 682.447,-31.8279 681.773,-24.8604"/>
</g>
</g>
</svg>
