<?xml version="1.0" encoding="UTF-8" standalone="no"?>
<!DOCTYPE svg PUBLIC "-//W3C//DTD SVG 1.1//EN"
 "http://www.w3.org/Graphics/SVG/1.1/DTD/svg11.dtd">
<!-- Generated by graphviz version 2.36.0 (20140111.2315)
 -->
<!-- Title: gamePlayer.mainClasses.ExceptionHandling.ExceptionHandler.handle Pages: 1 -->
<svg width="694pt" height="87pt"
 viewBox="0.00 0.00 694.00 87.00" xmlns="http://www.w3.org/2000/svg" xmlns:xlink="http://www.w3.org/1999/xlink">
<g id="graph0" class="graph" transform="scale(1 1) rotate(0) translate(4 83)">
<title>gamePlayer.mainClasses.ExceptionHandling.ExceptionHandler.handle</title>
<polygon fill="white" stroke="none" points="-4,4 -4,-83 690,-83 690,4 -4,4"/>
<!-- Node1 -->
<g id="node1" class="node"><title>Node1</title>
<polygon fill="#bfbfbf" stroke="black" points="0,-24 0,-54 186,-54 186,-24 0,-24"/>
<text text-anchor="start" x="8" y="-42" font-family="Helvetica,sans-Serif" font-size="10.00">gamePlayer.mainClasses.Exception</text>
<text text-anchor="middle" x="93" y="-31" font-family="Helvetica,sans-Serif" font-size="10.00">Handling.ExceptionHandler.handle</text>
</g>
<!-- Node2 -->
<g id="node2" class="node"><title>Node2</title>
<g id="a_node2"><a xlink:href="../../d5/da2/classgame_player_1_1gui_items_1_1control_dock_buttons_1_1_control_dock_button.html#ad53cf2dc4b9ae27d30d70c6764277578" target="_top" xlink:title="gamePlayer.guiItems.control\lDockButtons.ControlDockButton.setup\lImageViews">
<polygon fill="white" stroke="black" points="222,-18.5 222,-59.5 424,-59.5 424,-18.5 222,-18.5"/>
<text text-anchor="start" x="230" y="-47.5" font-family="Helvetica,sans-Serif" font-size="10.00">gamePlayer.guiItems.control</text>
<text text-anchor="start" x="230" y="-36.5" font-family="Helvetica,sans-Serif" font-size="10.00">DockButtons.ControlDockButton.setup</text>
<text text-anchor="middle" x="323" y="-25.5" font-family="Helvetica,sans-Serif" font-size="10.00">ImageViews</text>
</a>
</g>
</g>
<!-- Node1&#45;&gt;Node2 -->
<g id="edge1" class="edge"><title>Node1&#45;&gt;Node2</title>
<path fill="none" stroke="midnightblue" d="M196.329,-39C204.778,-39 213.313,-39 221.746,-39"/>
<polygon fill="midnightblue" stroke="midnightblue" points="196.079,-35.5001 186.079,-39 196.079,-42.5001 196.079,-35.5001"/>
</g>
<!-- Node3 -->
<g id="node3" class="node"><title>Node3</title>
<g id="a_node3"><a xlink:href="../../dd/d15/classgame_player_1_1gui_items_1_1control_dock_buttons_1_1buttons_1_1_speed_button.html#a2f0f314f2da9b1f6dd374976c3619734" target="_top" xlink:title="gamePlayer.guiItems.control\lDockButtons.buttons.SpeedButton.initialize">
<polygon fill="white" stroke="black" points="460.5,-49 460.5,-79 685.5,-79 685.5,-49 460.5,-49"/>
<text text-anchor="start" x="468.5" y="-67" font-family="Helvetica,sans-Serif" font-size="10.00">gamePlayer.guiItems.control</text>
<text text-anchor="middle" x="573" y="-56" font-family="Helvetica,sans-Serif" font-size="10.00">DockButtons.buttons.SpeedButton.initialize</text>
</a>
</g>
</g>
<!-- Node2&#45;&gt;Node3 -->
<g id="edge2" class="edge"><title>Node2&#45;&gt;Node3</title>
<path fill="none" stroke="midnightblue" d="M434.199,-50.1088C442.798,-50.9756 451.486,-51.8514 460.096,-52.7194"/>
<polygon fill="midnightblue" stroke="midnightblue" points="434.457,-46.6171 424.156,-49.0964 433.755,-53.5818 434.457,-46.6171"/>
</g>
<!-- Node4 -->
<g id="node4" class="node"><title>Node4</title>
<g id="a_node4"><a xlink:href="../../da/d25/classgame_player_1_1gui_items_1_1control_dock_buttons_1_1buttons_1_1_play_button.html#a6fda47484fb3443433041dadb8c2b2c1" target="_top" xlink:title="gamePlayer.guiItems.control\lDockButtons.buttons.PlayButton.initialize">
<polygon fill="white" stroke="black" points="466,-0 466,-30 680,-30 680,-0 466,-0"/>
<text text-anchor="start" x="474" y="-18" font-family="Helvetica,sans-Serif" font-size="10.00">gamePlayer.guiItems.control</text>
<text text-anchor="middle" x="573" y="-7" font-family="Helvetica,sans-Serif" font-size="10.00">DockButtons.buttons.PlayButton.initialize</text>
</a>
</g>
</g>
<!-- Node2&#45;&gt;Node4 -->
<g id="edge3" class="edge"><title>Node2&#45;&gt;Node4</title>
<path fill="none" stroke="midnightblue" d="M434.18,-28.3374C444.688,-27.3205 455.33,-26.2906 465.8,-25.2774"/>
<polygon fill="midnightblue" stroke="midnightblue" points="433.773,-24.8604 424.156,-29.3075 434.447,-31.8279 433.773,-24.8604"/>
</g>
</g>
</svg>
