<?xml version="1.0" encoding="UTF-8" standalone="no"?>
<!DOCTYPE svg PUBLIC "-//W3C//DTD SVG 1.1//EN"
 "http://www.w3.org/Graphics/SVG/1.1/DTD/svg11.dtd">
<!-- Generated by graphviz version 2.36.0 (20140111.2315)
 -->
<!-- Title: gamePlayer.guiItemsListeners.SpeedSliderListener.changeSpeed Pages: 1 -->
<svg width="666pt" height="48pt"
 viewBox="0.00 0.00 666.00 48.00" xmlns="http://www.w3.org/2000/svg" xmlns:xlink="http://www.w3.org/1999/xlink">
<g id="graph0" class="graph" transform="scale(1 1) rotate(0) translate(4 44)">
<title>gamePlayer.guiItemsListeners.SpeedSliderListener.changeSpeed</title>
<polygon fill="white" stroke="none" points="-4,4 -4,-44 662,-44 662,4 -4,4"/>
<!-- Node1 -->
<g id="node1" class="node"><title>Node1</title>
<polygon fill="#bfbfbf" stroke="black" points="0.5,-5 0.5,-35 181.5,-35 181.5,-5 0.5,-5"/>
<text text-anchor="start" x="8.5" y="-23" font-family="Helvetica,sans-Serif" font-size="10.00">gamePlayer.guiItemsListeners.</text>
<text text-anchor="middle" x="91" y="-12" font-family="Helvetica,sans-Serif" font-size="10.00">SpeedSliderListener.changeSpeed</text>
</g>
<!-- Node2 -->
<g id="node2" class="node"><title>Node2</title>
<g id="a_node2"><a xlink:href="../../d5/dbe/classgame_player_1_1gui_items_1_1control_dock_buttons_1_1sliders_1_1_speed_slider.html#a8ffc36d066339f382bc6c7d1565b4aee" target="_top" xlink:title="gamePlayer.guiItems.control\lDockButtons.sliders.SpeedSlider.set\lUpSlider">
<polygon fill="white" stroke="black" points="218,0.5 218,-40.5 408,-40.5 408,0.5 218,0.5"/>
<text text-anchor="start" x="226" y="-28.5" font-family="Helvetica,sans-Serif" font-size="10.00">gamePlayer.guiItems.control</text>
<text text-anchor="start" x="226" y="-17.5" font-family="Helvetica,sans-Serif" font-size="10.00">DockButtons.sliders.SpeedSlider.set</text>
<text text-anchor="middle" x="313" y="-6.5" font-family="Helvetica,sans-Serif" font-size="10.00">UpSlider</text>
</a>
</g>
</g>
<!-- Node1&#45;&gt;Node2 -->
<g id="edge1" class="edge"><title>Node1&#45;&gt;Node2</title>
<path fill="none" stroke="midnightblue" d="M191.889,-20C200.527,-20 209.25,-20 217.84,-20"/>
<polygon fill="midnightblue" stroke="midnightblue" points="191.8,-16.5001 181.8,-20 191.8,-23.5001 191.8,-16.5001"/>
</g>
<!-- Node3 -->
<g id="node3" class="node"><title>Node3</title>
<g id="a_node3"><a xlink:href="../../d5/dbe/classgame_player_1_1gui_items_1_1control_dock_buttons_1_1sliders_1_1_speed_slider.html#ab63aa1a4f1a58621abfba7db50103bac" target="_top" xlink:title="gamePlayer.guiItems.control\lDockButtons.sliders.SpeedSlider.initialize">
<polygon fill="white" stroke="black" points="444.5,-5 444.5,-35 657.5,-35 657.5,-5 444.5,-5"/>
<text text-anchor="start" x="452.5" y="-23" font-family="Helvetica,sans-Serif" font-size="10.00">gamePlayer.guiItems.control</text>
<text text-anchor="middle" x="551" y="-12" font-family="Helvetica,sans-Serif" font-size="10.00">DockButtons.sliders.SpeedSlider.initialize</text>
</a>
</g>
</g>
<!-- Node2&#45;&gt;Node3 -->
<g id="edge2" class="edge"><title>Node2&#45;&gt;Node3</title>
<path fill="none" stroke="midnightblue" d="M418.324,-20C426.919,-20 435.612,-20 444.218,-20"/>
<polygon fill="midnightblue" stroke="midnightblue" points="418.291,-16.5001 408.291,-20 418.291,-23.5001 418.291,-16.5001"/>
</g>
</g>
</svg>
