<?xml version="1.0" encoding="UTF-8" standalone="no"?>
<!DOCTYPE svg PUBLIC "-//W3C//DTD SVG 1.1//EN"
 "http://www.w3.org/Graphics/SVG/1.1/DTD/svg11.dtd">
<!-- Generated by graphviz version 2.36.0 (20140111.2315)
 -->
<!-- Title: gameEngine.actors.behaviors.ClosestRangeAttack.defineComparison Pages: 1 -->
<svg width="662pt" height="87pt"
 viewBox="0.00 0.00 662.00 87.00" xmlns="http://www.w3.org/2000/svg" xmlns:xlink="http://www.w3.org/1999/xlink">
<g id="graph0" class="graph" transform="scale(1 1) rotate(0) translate(4 83)">
<title>gameEngine.actors.behaviors.ClosestRangeAttack.defineComparison</title>
<polygon fill="white" stroke="none" points="-4,4 -4,-83 658,-83 658,4 -4,4"/>
<!-- Node1 -->
<g id="node1" class="node"><title>Node1</title>
<polygon fill="#bfbfbf" stroke="black" points="0.5,-25 0.5,-55 203.5,-55 203.5,-25 0.5,-25"/>
<text text-anchor="start" x="8.5" y="-43" font-family="Helvetica,sans-Serif" font-size="10.00">gameEngine.actors.behaviors.</text>
<text text-anchor="middle" x="102" y="-32" font-family="Helvetica,sans-Serif" font-size="10.00">ClosestRangeAttack.defineComparison</text>
</g>
<!-- Node2 -->
<g id="node2" class="node"><title>Node2</title>
<g id="a_node2"><a xlink:href="../../d5/d02/classgame_engine_1_1actors_1_1_base_actor.html#a2106e623a36a5683759aff1a392c7686" target="_top" xlink:title="gameEngine.actors.BaseActor.getX">
<polygon fill="white" stroke="black" points="240,-51.5 240,-70.5 426,-70.5 426,-51.5 240,-51.5"/>
<text text-anchor="middle" x="333" y="-58.5" font-family="Helvetica,sans-Serif" font-size="10.00">gameEngine.actors.BaseActor.getX</text>
</a>
</g>
</g>
<!-- Node1&#45;&gt;Node2 -->
<g id="edge1" class="edge"><title>Node1&#45;&gt;Node2</title>
<path fill="none" stroke="midnightblue" d="M203.776,-49.2415C212.401,-50.0324 221.131,-50.833 229.767,-51.6249"/>
<polygon fill="midnightblue" stroke="midnightblue" points="229.572,-55.1216 239.849,-52.5495 230.211,-48.1508 229.572,-55.1216"/>
</g>
<!-- Node4 -->
<g id="node4" class="node"><title>Node4</title>
<g id="a_node4"><a xlink:href="../../d5/d02/classgame_engine_1_1actors_1_1_base_actor.html#a4e1debba2b998a75964fb8c979cb15e8" target="_top" xlink:title="gameEngine.actors.BaseActor.getY">
<polygon fill="white" stroke="black" points="240.5,-10.5 240.5,-29.5 425.5,-29.5 425.5,-10.5 240.5,-10.5"/>
<text text-anchor="middle" x="333" y="-17.5" font-family="Helvetica,sans-Serif" font-size="10.00">gameEngine.actors.BaseActor.getY</text>
</a>
</g>
</g>
<!-- Node1&#45;&gt;Node4 -->
<g id="edge3" class="edge"><title>Node1&#45;&gt;Node4</title>
<path fill="none" stroke="midnightblue" d="M203.776,-31.1986C212.487,-30.4378 221.305,-29.6676 230.026,-28.906"/>
<polygon fill="midnightblue" stroke="midnightblue" points="230.548,-32.3739 240.205,-28.017 229.939,-25.4004 230.548,-32.3739"/>
</g>
<!-- Node3 -->
<g id="node3" class="node"><title>Node3</title>
<g id="a_node3"><a xlink:href="../../dd/df0/classutilities_1_1_java_f_xutilities_1_1image_view_1_1_centered_image_view.html#a063a62060b9b686601364fdbb8b6cd86" target="_top" xlink:title="utilities.JavaFXutilities.image\lView.CenteredImageView.getXCenter">
<polygon fill="white" stroke="black" points="462,-49 462,-79 654,-79 654,-49 462,-49"/>
<text text-anchor="start" x="470" y="-67" font-family="Helvetica,sans-Serif" font-size="10.00">utilities.JavaFXutilities.image</text>
<text text-anchor="middle" x="558" y="-56" font-family="Helvetica,sans-Serif" font-size="10.00">View.CenteredImageView.getXCenter</text>
</a>
</g>
</g>
<!-- Node2&#45;&gt;Node3 -->
<g id="edge2" class="edge"><title>Node2&#45;&gt;Node3</title>
<path fill="none" stroke="midnightblue" d="M426.312,-62.2419C434.661,-62.3542 443.157,-62.4685 451.606,-62.5821"/>
<polygon fill="midnightblue" stroke="midnightblue" points="451.83,-66.0854 461.876,-62.7203 451.924,-59.086 451.83,-66.0854"/>
</g>
<!-- Node5 -->
<g id="node5" class="node"><title>Node5</title>
<g id="a_node5"><a xlink:href="../../dd/df0/classutilities_1_1_java_f_xutilities_1_1image_view_1_1_centered_image_view.html#aa05843be4846dc0d9c23489cac21ed3d" target="_top" xlink:title="utilities.JavaFXutilities.image\lView.CenteredImageView.getYCenter">
<polygon fill="white" stroke="black" points="462.5,-0 462.5,-30 653.5,-30 653.5,-0 462.5,-0"/>
<text text-anchor="start" x="470.5" y="-18" font-family="Helvetica,sans-Serif" font-size="10.00">utilities.JavaFXutilities.image</text>
<text text-anchor="middle" x="558" y="-7" font-family="Helvetica,sans-Serif" font-size="10.00">View.CenteredImageView.getYCenter</text>
</a>
</g>
</g>
<!-- Node4&#45;&gt;Node5 -->
<g id="edge4" class="edge"><title>Node4&#45;&gt;Node5</title>
<path fill="none" stroke="midnightblue" d="M425.668,-17.9447C434.483,-17.747 443.47,-17.5455 452.397,-17.3454"/>
<polygon fill="midnightblue" stroke="midnightblue" points="452.52,-20.8436 462.439,-17.1202 452.363,-13.8453 452.52,-20.8436"/>
</g>
</g>
</svg>
