<?xml version="1.0" encoding="UTF-8" standalone="no"?>
<!DOCTYPE svg PUBLIC "-//W3C//DTD SVG 1.1//EN"
 "http://www.w3.org/Graphics/SVG/1.1/DTD/svg11.dtd">
<!-- Generated by graphviz version 2.36.0 (20140111.2315)
 -->
<!-- Title: gameAuthoring.scenes.pathBuilding.buildingPanes.locationPane.EnemyLocationPane Pages: 1 -->
<svg width="690pt" height="110pt"
 viewBox="0.00 0.00 690.00 110.00" xmlns="http://www.w3.org/2000/svg" xmlns:xlink="http://www.w3.org/1999/xlink">
<g id="graph0" class="graph" transform="scale(1 1) rotate(0) translate(4 106)">
<title>gameAuthoring.scenes.pathBuilding.buildingPanes.locationPane.EnemyLocationPane</title>
<polygon fill="white" stroke="none" points="-4,4 -4,-106 686,-106 686,4 -4,4"/>
<!-- Node1 -->
<g id="node1" class="node"><title>Node1</title>
<polygon fill="#bfbfbf" stroke="black" points="298.5,-30.5 298.5,-71.5 461.5,-71.5 461.5,-30.5 298.5,-30.5"/>
<text text-anchor="start" x="306.5" y="-59.5" font-family="Helvetica,sans-Serif" font-size="10.00">gameAuthoring.scenes.path</text>
<text text-anchor="start" x="306.5" y="-48.5" font-family="Helvetica,sans-Serif" font-size="10.00">Building.buildingPanes.location</text>
<text text-anchor="middle" x="380" y="-37.5" font-family="Helvetica,sans-Serif" font-size="10.00">Pane.EnemyLocationPane</text>
</g>
<!-- Node4 -->
<g id="node4" class="node"><title>Node4</title>
<g id="a_node4"><a xlink:href="../../d7/db2/classgame_authoring_1_1scenes_1_1path_building_1_1building_panes_1_1location_pane_1_1_enemy_ending_locations_pane.html" target="_top" xlink:title="gameAuthoring.scenes.path\lBuilding.buildingPanes.location\lPane.EnemyEndingLocationsPane">
<polygon fill="white" stroke="black" points="501.5,-60.5 501.5,-101.5 678.5,-101.5 678.5,-60.5 501.5,-60.5"/>
<text text-anchor="start" x="509.5" y="-89.5" font-family="Helvetica,sans-Serif" font-size="10.00">gameAuthoring.scenes.path</text>
<text text-anchor="start" x="509.5" y="-78.5" font-family="Helvetica,sans-Serif" font-size="10.00">Building.buildingPanes.location</text>
<text text-anchor="middle" x="590" y="-67.5" font-family="Helvetica,sans-Serif" font-size="10.00">Pane.EnemyEndingLocationsPane</text>
</a>
</g>
</g>
<!-- Node1&#45;&gt;Node4 -->
<g id="edge3" class="edge"><title>Node1&#45;&gt;Node4</title>
<path fill="none" stroke="midnightblue" d="M471.872,-64.1065C481.687,-65.5222 491.661,-66.9607 501.436,-68.3705"/>
<polygon fill="midnightblue" stroke="midnightblue" points="472.113,-60.6052 461.716,-62.6417 471.114,-67.5335 472.113,-60.6052"/>
</g>
<!-- Node5 -->
<g id="node5" class="node"><title>Node5</title>
<g id="a_node5"><a xlink:href="../../d5/d35/classgame_authoring_1_1scenes_1_1path_building_1_1building_panes_1_1location_pane_1_1_enemy_starting_locations_pane.html" target="_top" xlink:title="gameAuthoring.scenes.path\lBuilding.buildingPanes.location\lPane.EnemyStartingLocationsPane">
<polygon fill="white" stroke="black" points="498.5,-0.5 498.5,-41.5 681.5,-41.5 681.5,-0.5 498.5,-0.5"/>
<text text-anchor="start" x="506.5" y="-29.5" font-family="Helvetica,sans-Serif" font-size="10.00">gameAuthoring.scenes.path</text>
<text text-anchor="start" x="506.5" y="-18.5" font-family="Helvetica,sans-Serif" font-size="10.00">Building.buildingPanes.location</text>
<text text-anchor="middle" x="590" y="-7.5" font-family="Helvetica,sans-Serif" font-size="10.00">Pane.EnemyStartingLocationsPane</text>
</a>
</g>
</g>
<!-- Node1&#45;&gt;Node5 -->
<g id="edge4" class="edge"><title>Node1&#45;&gt;Node5</title>
<path fill="none" stroke="midnightblue" d="M471.635,-37.9276C480.483,-36.6515 489.462,-35.3565 498.31,-34.0803"/>
<polygon fill="midnightblue" stroke="midnightblue" points="471.114,-34.4665 461.716,-39.3583 472.113,-41.3948 471.114,-34.4665"/>
</g>
<!-- Node2 -->
<g id="node2" class="node"><title>Node2</title>
<g id="a_node2"><a xlink:href="../../d4/d78/classgame_authoring_1_1scenes_1_1path_building_1_1building_panes_1_1_building_pane.html" target="_top" xlink:title="gameAuthoring.scenes.path\lBuilding.buildingPanes.BuildingPane">
<polygon fill="white" stroke="black" points="76,-36 76,-66 262,-66 262,-36 76,-36"/>
<text text-anchor="start" x="84" y="-54" font-family="Helvetica,sans-Serif" font-size="10.00">gameAuthoring.scenes.path</text>
<text text-anchor="middle" x="169" y="-43" font-family="Helvetica,sans-Serif" font-size="10.00">Building.buildingPanes.BuildingPane</text>
</a>
</g>
</g>
<!-- Node2&#45;&gt;Node1 -->
<g id="edge1" class="edge"><title>Node2&#45;&gt;Node1</title>
<path fill="none" stroke="midnightblue" d="M272.466,-51C281.163,-51 289.879,-51 298.373,-51"/>
<polygon fill="midnightblue" stroke="midnightblue" points="272.279,-47.5001 262.279,-51 272.279,-54.5001 272.279,-47.5001"/>
</g>
<!-- Node3 -->
<g id="node3" class="node"><title>Node3</title>
<polygon fill="white" stroke="#bfbfbf" points="0,-41.5 0,-60.5 40,-60.5 40,-41.5 0,-41.5"/>
<text text-anchor="middle" x="20" y="-48.5" font-family="Helvetica,sans-Serif" font-size="10.00">Pane</text>
</g>
<!-- Node3&#45;&gt;Node2 -->
<g id="edge2" class="edge"><title>Node3&#45;&gt;Node2</title>
<path fill="none" stroke="midnightblue" d="M50.2957,-51C57.9483,-51 66.618,-51 75.6982,-51"/>
<polygon fill="midnightblue" stroke="midnightblue" points="50.2177,-47.5001 40.2177,-51 50.2176,-54.5001 50.2177,-47.5001"/>
</g>
</g>
</svg>
