<?xml version="1.0" encoding="UTF-8" standalone="no"?>
<!DOCTYPE svg PUBLIC "-//W3C//DTD SVG 1.1//EN"
 "http://www.w3.org/Graphics/SVG/1.1/DTD/svg11.dtd">
<!-- Generated by graphviz version 2.36.0 (20140111.2315)
 -->
<!-- Title: gamePlayer.guiContainers.coreContainers.CoreContainerSetup.setDimensions Pages: 1 -->
<!--zoomable 338 -->
<svg id="main" version="1.1" xmlns="http://www.w3.org/2000/svg" xmlns:xlink="http://www.w3.org/1999/xlink" xml:space="preserve" onload="init(evt)">
<style type="text/css"><![CDATA[
.edge:hover path { stroke: red; }
.edge:hover polygon { stroke: red; fill: red; }
]]></style>
<script type="text/javascript"><![CDATA[
var edges = document.getElementsByTagName('g');
if (edges && edges.length) {
  for (var i=0;i<edges.length;i++) {
    if (edges[i].id.substr(0,4)=='edge') {
      edges[i].setAttribute('class','edge');
    }
  }
}
]]></script>
        <defs>
                <circle id="rim" cx="0" cy="0" r="7"/>
                <circle id="rim2" cx="0" cy="0" r="3.5"/>
                <g id="zoomPlus">
                        <use xlink:href="#rim" fill="#404040">
                                <set attributeName="fill" to="#808080" begin="zoomplus.mouseover" end="zoomplus.mouseout"/>
                        </use>
                        <path d="M-4,0h8M0,-4v8" fill="none" stroke="white" stroke-width="1.5" pointer-events="none"/>
                </g>
                <g id="zoomMin">
                        <use xlink:href="#rim" fill="#404040">
                                <set attributeName="fill" to="#808080" begin="zoomminus.mouseover" end="zoomminus.mouseout"/>
                        </use>
                        <path d="M-4,0h8" fill="none" stroke="white" stroke-width="1.5" pointer-events="none"/>
                </g>
                <g id="dirArrow">
                        <path fill="none" stroke="white" stroke-width="1.5" d="M0,-3.0v7 M-2.5,-0.5L0,-3.0L2.5,-0.5"/>
                </g>
               <g id="resetDef">
                       <use xlink:href="#rim2" fill="#404040">
                               <set attributeName="fill" to="#808080" begin="reset.mouseover" end="reset.mouseout"/>
                       </use>
               </g>
        </defs>

<script type="text/javascript">
var viewWidth = 2292;
var viewHeight = 338;
var sectionId = 'dynsection-4';
</script>
<script xlink:href="../../svgpan.js"/>
<svg id="graph" class="graph">
<g id="viewport">
<title>gamePlayer.guiContainers.coreContainers.CoreContainerSetup.setDimensions</title>
<polygon fill="white" stroke="none" points="-4,4 -4,-334 2288,-334 2288,4 -4,4"/>
<!-- Node1 -->
<g id="node1" class="node"><title>Node1</title>
<polygon fill="#bfbfbf" stroke="black" points="0.5,-92.5 0.5,-133.5 187.5,-133.5 187.5,-92.5 0.5,-92.5"/>
<text text-anchor="start" x="8.5" y="-121.5" font-family="Helvetica,sans-Serif" font-size="10.00">gamePlayer.guiContainers.core</text>
<text text-anchor="start" x="8.5" y="-110.5" font-family="Helvetica,sans-Serif" font-size="10.00">Containers.CoreContainerSetup.set</text>
<text text-anchor="middle" x="94" y="-99.5" font-family="Helvetica,sans-Serif" font-size="10.00">Dimensions</text>
</g>
<!-- Node2 -->
<g id="node2" class="node"><title>Node2</title>
<g id="a_node2"><a xlink:href="../../d5/d26/classgame_player_1_1gui_containers_1_1core_containers_1_1_core_container_setup.html#ac6df0ac7fc30e15aabe27ac39f137b74" target="_top" xlink:title="gamePlayer.guiContainers.core\lContainers.CoreContainerSetup.initialize">
<polygon fill="white" stroke="black" points="224,-98 224,-128 434,-128 434,-98 224,-98"/>
<text text-anchor="start" x="232" y="-116" font-family="Helvetica,sans-Serif" font-size="10.00">gamePlayer.guiContainers.core</text>
<text text-anchor="middle" x="329" y="-105" font-family="Helvetica,sans-Serif" font-size="10.00">Containers.CoreContainerSetup.initialize</text>
</a>
</g>
</g>
<!-- Node1&#45;&gt;Node2 -->
<g id="edge1" class="edge"><title>Node1&#45;&gt;Node2</title>
<path fill="none" stroke="midnightblue" d="M197.785,-113C206.376,-113 215.068,-113 223.67,-113"/>
<polygon fill="midnightblue" stroke="midnightblue" points="197.757,-109.5 187.757,-113 197.757,-116.5 197.757,-109.5"/>
</g>
<!-- Node3 -->
<g id="node3" class="node"><title>Node3</title>
<g id="a_node3"><a xlink:href="../../dd/de8/classgame_player_1_1gui_containers_1_1core_containers_1_1_right_container.html#a334bf5d79096bf6348e43ac614bb3e65" target="_top" xlink:title="gamePlayer.guiContainers.core\lContainers.RightContainer.initialize">
<polygon fill="white" stroke="black" points="476,-196 476,-226 658,-226 658,-196 476,-196"/>
<text text-anchor="start" x="484" y="-214" font-family="Helvetica,sans-Serif" font-size="10.00">gamePlayer.guiContainers.core</text>
<text text-anchor="middle" x="567" y="-203" font-family="Helvetica,sans-Serif" font-size="10.00">Containers.RightContainer.initialize</text>
</a>
</g>
</g>
<!-- Node2&#45;&gt;Node3 -->
<g id="edge2" class="edge"><title>Node2&#45;&gt;Node3</title>
<path fill="none" stroke="midnightblue" d="M363.884,-133.442C391.629,-149.493 432.311,-171.481 470,-186 479.562,-189.684 489.866,-193.005 500.049,-195.935"/>
<polygon fill="midnightblue" stroke="midnightblue" points="365.394,-130.271 354.994,-128.246 361.861,-136.314 365.394,-130.271"/>
</g>
<!-- Node23 -->
<g id="node23" class="node"><title>Node23</title>
<g id="a_node23"><a xlink:href="../../dc/d6a/classgame_player_1_1gui_containers_1_1core_containers_1_1_top_container.html#a7ee024a250448af00717a87d0cc6f920" target="_top" xlink:title="gamePlayer.guiContainers.core\lContainers.TopContainer.initialize">
<polygon fill="white" stroke="black" points="480,-147 480,-177 654,-177 654,-147 480,-147"/>
<text text-anchor="start" x="488" y="-165" font-family="Helvetica,sans-Serif" font-size="10.00">gamePlayer.guiContainers.core</text>
<text text-anchor="middle" x="567" y="-154" font-family="Helvetica,sans-Serif" font-size="10.00">Containers.TopContainer.initialize</text>
</a>
</g>
</g>
<!-- Node2&#45;&gt;Node23 -->
<g id="edge25" class="edge"><title>Node2&#45;&gt;Node23</title>
<path fill="none" stroke="midnightblue" d="M412.42,-130.113C438.904,-135.611 468.026,-141.658 493.725,-146.994"/>
<polygon fill="midnightblue" stroke="midnightblue" points="412.914,-126.641 402.412,-128.035 411.491,-133.495 412.914,-126.641"/>
</g>
<!-- Node24 -->
<g id="node24" class="node"><title>Node24</title>
<g id="a_node24"><a xlink:href="../../d7/dca/classgame_player_1_1gui_containers_1_1core_containers_1_1_left_container.html#a1c5ab988bc6350ae15e03aa601f850a8" target="_top" xlink:title="gamePlayer.guiContainers.core\lContainers.LeftContainer.initialize">
<polygon fill="white" stroke="black" points="479,-98 479,-128 655,-128 655,-98 479,-98"/>
<text text-anchor="start" x="487" y="-116" font-family="Helvetica,sans-Serif" font-size="10.00">gamePlayer.guiContainers.core</text>
<text text-anchor="middle" x="567" y="-105" font-family="Helvetica,sans-Serif" font-size="10.00">Containers.LeftContainer.initialize</text>
</a>
</g>
</g>
<!-- Node2&#45;&gt;Node24 -->
<g id="edge27" class="edge"><title>Node2&#45;&gt;Node24</title>
<path fill="none" stroke="midnightblue" d="M444.39,-113C456.012,-113 467.681,-113 478.945,-113"/>
<polygon fill="midnightblue" stroke="midnightblue" points="444.2,-109.5 434.2,-113 444.2,-116.5 444.2,-109.5"/>
</g>
<!-- Node25 -->
<g id="node25" class="node"><title>Node25</title>
<g id="a_node25"><a xlink:href="../../d4/d8d/classgame_player_1_1gui_containers_1_1core_containers_1_1_bottom_container.html#aa6b6a142786ee38f05a4db76619a9265" target="_top" xlink:title="gamePlayer.guiContainers.core\lContainers.BottomContainer.initialize">
<polygon fill="white" stroke="black" points="470,-49 470,-79 664,-79 664,-49 470,-49"/>
<text text-anchor="start" x="478" y="-67" font-family="Helvetica,sans-Serif" font-size="10.00">gamePlayer.guiContainers.core</text>
<text text-anchor="middle" x="567" y="-56" font-family="Helvetica,sans-Serif" font-size="10.00">Containers.BottomContainer.initialize</text>
</a>
</g>
</g>
<!-- Node2&#45;&gt;Node25 -->
<g id="edge29" class="edge"><title>Node2&#45;&gt;Node25</title>
<path fill="none" stroke="midnightblue" d="M412.42,-95.8873C438.904,-90.3885 468.026,-84.342 493.725,-79.0062"/>
<polygon fill="midnightblue" stroke="midnightblue" points="411.491,-92.5055 402.412,-97.9654 412.914,-99.3593 411.491,-92.5055"/>
</g>
<!-- Node26 -->
<g id="node26" class="node"><title>Node26</title>
<g id="a_node26"><a xlink:href="../../d3/d87/classgame_player_1_1gui_containers_1_1core_containers_1_1_center_container.html#ae748e7137af86ab7cad38928b987b07d" target="_top" xlink:title="gamePlayer.guiContainers.core\lContainers.CenterContainer.initialize">
<polygon fill="white" stroke="black" points="471.5,-0 471.5,-30 662.5,-30 662.5,-0 471.5,-0"/>
<text text-anchor="start" x="479.5" y="-18" font-family="Helvetica,sans-Serif" font-size="10.00">gamePlayer.guiContainers.core</text>
<text text-anchor="middle" x="567" y="-7" font-family="Helvetica,sans-Serif" font-size="10.00">Containers.CenterContainer.initialize</text>
</a>
</g>
</g>
<!-- Node2&#45;&gt;Node26 -->
<g id="edge31" class="edge"><title>Node2&#45;&gt;Node26</title>
<path fill="none" stroke="midnightblue" d="M363.302,-92.4486C391.013,-76.0803 431.939,-53.5706 470,-39 478.664,-35.6833 487.944,-32.698 497.195,-30.0518"/>
<polygon fill="midnightblue" stroke="midnightblue" points="361.226,-89.6119 354.435,-97.7439 364.815,-95.6219 361.226,-89.6119"/>
</g>
<!-- Node4 -->
<g id="node4" class="node"><title>Node4</title>
<g id="a_node4"><a xlink:href="../../d6/d33/classgame_player_1_1main_classes_1_1gui_builder_1_1_gui_builder.html#a0fbd44d2d57fb100c883cdf4ad77e7f8" target="_top" xlink:title="gamePlayer.mainClasses.gui\lBuilder.GuiBuilder.initializeCore\lContainers">
<polygon fill="white" stroke="black" points="700,-92.5 700,-133.5 864,-133.5 864,-92.5 700,-92.5"/>
<text text-anchor="start" x="708" y="-121.5" font-family="Helvetica,sans-Serif" font-size="10.00">gamePlayer.mainClasses.gui</text>
<text text-anchor="start" x="708" y="-110.5" font-family="Helvetica,sans-Serif" font-size="10.00">Builder.GuiBuilder.initializeCore</text>
<text text-anchor="middle" x="782" y="-99.5" font-family="Helvetica,sans-Serif" font-size="10.00">Containers</text>
</a>
</g>
</g>
<!-- Node3&#45;&gt;Node4 -->
<g id="edge3" class="edge"><title>Node3&#45;&gt;Node4</title>
<path fill="none" stroke="midnightblue" d="M646.006,-192.846C652.172,-190.759 658.238,-188.479 664,-186 696.549,-171.996 730.568,-149.786 753.479,-133.538"/>
<polygon fill="midnightblue" stroke="midnightblue" points="644.718,-189.583 636.262,-195.967 646.853,-196.249 644.718,-189.583"/>
</g>
<!-- Node5 -->
<g id="node5" class="node"><title>Node5</title>
<g id="a_node5"><a xlink:href="../../d6/d33/classgame_player_1_1main_classes_1_1gui_builder_1_1_gui_builder.html#ab281fef7b723af3743f3cb38dd5b7660" target="_top" xlink:title="gamePlayer.mainClasses.gui\lBuilder.GuiBuilder.build">
<polygon fill="white" stroke="black" points="900,-98 900,-128 1054,-128 1054,-98 900,-98"/>
<text text-anchor="start" x="908" y="-116" font-family="Helvetica,sans-Serif" font-size="10.00">gamePlayer.mainClasses.gui</text>
<text text-anchor="middle" x="977" y="-105" font-family="Helvetica,sans-Serif" font-size="10.00">Builder.GuiBuilder.build</text>
</a>
</g>
</g>
<!-- Node4&#45;&gt;Node5 -->
<g id="edge4" class="edge"><title>Node4&#45;&gt;Node5</title>
<path fill="none" stroke="midnightblue" d="M874.08,-113C882.694,-113 891.365,-113 899.819,-113"/>
<polygon fill="midnightblue" stroke="midnightblue" points="874.011,-109.5 864.01,-113 874.01,-116.5 874.011,-109.5"/>
</g>
<!-- Node6 -->
<g id="node6" class="node"><title>Node6</title>
<g id="a_node6"><a xlink:href="../../da/d69/classgame_player_1_1main_classes_1_1managers_1_1_gui_manager.html#a6bce033ad0751d90302ee3520a36e95b" target="_top" xlink:title="gamePlayer.mainClasses.managers.\lGuiManager.init">
<polygon fill="white" stroke="black" points="1090.5,-123 1090.5,-153 1281.5,-153 1281.5,-123 1090.5,-123"/>
<text text-anchor="start" x="1098.5" y="-141" font-family="Helvetica,sans-Serif" font-size="10.00">gamePlayer.mainClasses.managers.</text>
<text text-anchor="middle" x="1186" y="-130" font-family="Helvetica,sans-Serif" font-size="10.00">GuiManager.init</text>
</a>
</g>
</g>
<!-- Node5&#45;&gt;Node6 -->
<g id="edge5" class="edge"><title>Node5&#45;&gt;Node6</title>
<path fill="none" stroke="midnightblue" d="M1064.22,-123.413C1072.84,-124.454 1081.62,-125.515 1090.32,-126.566"/>
<polygon fill="midnightblue" stroke="midnightblue" points="1064.54,-119.927 1054.2,-122.203 1063.71,-126.876 1064.54,-119.927"/>
</g>
<!-- Node22 -->
<g id="node22" class="node"><title>Node22</title>
<g id="a_node22"><a xlink:href="../../d4/d3f/classgame_player_1_1main_classes_1_1managers_1_1_welcome_manager.html#afd11b6bf91712ea221c4f69945eda2e4" target="_top" xlink:title="gamePlayer.mainClasses.managers.\lWelcomeManager.init">
<polygon fill="white" stroke="black" points="1090.5,-74 1090.5,-104 1281.5,-104 1281.5,-74 1090.5,-74"/>
<text text-anchor="start" x="1098.5" y="-92" font-family="Helvetica,sans-Serif" font-size="10.00">gamePlayer.mainClasses.managers.</text>
<text text-anchor="middle" x="1186" y="-81" font-family="Helvetica,sans-Serif" font-size="10.00">WelcomeManager.init</text>
</a>
</g>
</g>
<!-- Node5&#45;&gt;Node22 -->
<g id="edge24" class="edge"><title>Node5&#45;&gt;Node22</title>
<path fill="none" stroke="midnightblue" d="M1064.22,-103.003C1072.84,-102.004 1081.62,-100.986 1090.32,-99.977"/>
<polygon fill="midnightblue" stroke="midnightblue" points="1063.73,-99.537 1054.2,-104.166 1064.53,-106.49 1063.73,-99.537"/>
</g>
<!-- Node7 -->
<g id="node7" class="node"><title>Node7</title>
<g id="a_node7"><a xlink:href="../../da/d69/classgame_player_1_1main_classes_1_1managers_1_1_gui_manager.html#aa0b614e03bdec959e13e3d5ca2e1f614" target="_top" xlink:title="gamePlayer.mainClasses.managers.\lGuiManager.startMultiPlayerGame">
<polygon fill="white" stroke="black" points="1329.5,-194 1329.5,-224 1520.5,-224 1520.5,-194 1329.5,-194"/>
<text text-anchor="start" x="1337.5" y="-212" font-family="Helvetica,sans-Serif" font-size="10.00">gamePlayer.mainClasses.managers.</text>
<text text-anchor="middle" x="1425" y="-201" font-family="Helvetica,sans-Serif" font-size="10.00">GuiManager.startMultiPlayerGame</text>
</a>
</g>
</g>
<!-- Node6&#45;&gt;Node7 -->
<g id="edge6" class="edge"><title>Node6&#45;&gt;Node7</title>
<path fill="none" stroke="midnightblue" d="M1246.96,-155.964C1286.15,-167.704 1336.75,-182.862 1373.81,-193.964"/>
<polygon fill="midnightblue" stroke="midnightblue" points="1247.85,-152.574 1237.26,-153.057 1245.84,-159.28 1247.85,-152.574"/>
</g>
<!-- Node12 -->
<g id="node12" class="node"><title>Node12</title>
<g id="a_node12"><a xlink:href="../../da/d69/classgame_player_1_1main_classes_1_1managers_1_1_gui_manager.html#a3f657f0e3ba1e493d2dd02b5df5e03f6" target="_top" xlink:title="gamePlayer.mainClasses.managers.\lGuiManager.replayGame">
<polygon fill="white" stroke="black" points="1582.5,-297 1582.5,-327 1773.5,-327 1773.5,-297 1582.5,-297"/>
<text text-anchor="start" x="1590.5" y="-315" font-family="Helvetica,sans-Serif" font-size="10.00">gamePlayer.mainClasses.managers.</text>
<text text-anchor="middle" x="1678" y="-304" font-family="Helvetica,sans-Serif" font-size="10.00">GuiManager.replayGame</text>
</a>
</g>
</g>
<!-- Node6&#45;&gt;Node12 -->
<g id="edge18" class="edge"><title>Node6&#45;&gt;Node12</title>
<path fill="none" stroke="midnightblue" d="M1210.44,-159.673C1235.3,-181.463 1276.6,-214.413 1318,-233 1403,-271.164 1507.81,-291.493 1582.19,-301.916"/>
<polygon fill="midnightblue" stroke="midnightblue" points="1212.77,-157.058 1202.97,-153.023 1208.12,-162.287 1212.77,-157.058"/>
</g>
<!-- Node19 -->
<g id="node19" class="node"><title>Node19</title>
<g id="a_node19"><a xlink:href="../../d4/d3f/classgame_player_1_1main_classes_1_1managers_1_1_welcome_manager.html#a85bf325329fe7587bbe74526c37c11c0" target="_top" xlink:title="gamePlayer.mainClasses.managers.\lWelcomeManager.newGame">
<polygon fill="white" stroke="black" points="1329.5,-15 1329.5,-45 1520.5,-45 1520.5,-15 1329.5,-15"/>
<text text-anchor="start" x="1337.5" y="-33" font-family="Helvetica,sans-Serif" font-size="10.00">gamePlayer.mainClasses.managers.</text>
<text text-anchor="middle" x="1425" y="-22" font-family="Helvetica,sans-Serif" font-size="10.00">WelcomeManager.newGame</text>
</a>
</g>
</g>
<!-- Node6&#45;&gt;Node19 -->
<g id="edge19" class="edge"><title>Node6&#45;&gt;Node19</title>
<path fill="none" stroke="midnightblue" d="M1274.09,-118.214C1276.84,-116.61 1279.48,-114.875 1282,-113 1306.64,-94.6521 1293.05,-71.9182 1318,-54 1322.83,-50.533 1328.07,-47.5559 1333.56,-45.0005"/>
<polygon fill="midnightblue" stroke="midnightblue" points="1272.3,-115.2 1265.03,-122.91 1275.52,-121.414 1272.3,-115.2"/>
</g>
<!-- Node20 -->
<g id="node20" class="node"><title>Node20</title>
<g id="a_node20"><a xlink:href="../../d4/d3f/classgame_player_1_1main_classes_1_1managers_1_1_welcome_manager.html#a5da8d3f5b8bc1c4bd4c555140bd9384c" target="_top" xlink:title="gamePlayer.mainClasses.managers.\lWelcomeManager.startSinglePlayerGame">
<polygon fill="white" stroke="black" points="1318,-123 1318,-153 1532,-153 1532,-123 1318,-123"/>
<text text-anchor="start" x="1326" y="-141" font-family="Helvetica,sans-Serif" font-size="10.00">gamePlayer.mainClasses.managers.</text>
<text text-anchor="middle" x="1425" y="-130" font-family="Helvetica,sans-Serif" font-size="10.00">WelcomeManager.startSinglePlayerGame</text>
</a>
</g>
</g>
<!-- Node6&#45;&gt;Node20 -->
<g id="edge20" class="edge"><title>Node6&#45;&gt;Node20</title>
<path fill="none" stroke="midnightblue" d="M1291.77,-138C1300.4,-138 1309.13,-138 1317.77,-138"/>
<polygon fill="midnightblue" stroke="midnightblue" points="1291.69,-134.5 1281.69,-138 1291.69,-141.5 1291.69,-134.5"/>
</g>
<!-- Node21 -->
<g id="node21" class="node"><title>Node21</title>
<g id="a_node21"><a xlink:href="../../d3/dee/classgame_player_1_1main_classes_1_1welcome_screen_1_1_game_start_manager.html#a0c44b3f25d2a30fe2e7aeca9da7161a9" target="_top" xlink:title="gamePlayer.mainClasses.welcome\lScreen.GameStartManager.startSingle\lPlayerGame">
<polygon fill="white" stroke="black" points="1323.5,-63.5 1323.5,-104.5 1526.5,-104.5 1526.5,-63.5 1323.5,-63.5"/>
<text text-anchor="start" x="1331.5" y="-92.5" font-family="Helvetica,sans-Serif" font-size="10.00">gamePlayer.mainClasses.welcome</text>
<text text-anchor="start" x="1331.5" y="-81.5" font-family="Helvetica,sans-Serif" font-size="10.00">Screen.GameStartManager.startSingle</text>
<text text-anchor="middle" x="1425" y="-70.5" font-family="Helvetica,sans-Serif" font-size="10.00">PlayerGame</text>
</a>
</g>
</g>
<!-- Node6&#45;&gt;Node21 -->
<g id="edge22" class="edge"><title>Node6&#45;&gt;Node21</title>
<path fill="none" stroke="midnightblue" d="M1262.89,-120.708C1285.52,-115.552 1310.54,-109.851 1333.98,-104.511"/>
<polygon fill="midnightblue" stroke="midnightblue" points="1261.99,-117.324 1253.02,-122.958 1263.55,-124.149 1261.99,-117.324"/>
</g>
<!-- Node8 -->
<g id="node8" class="node"><title>Node8</title>
<g id="a_node8"><a xlink:href="../../da/d69/classgame_player_1_1main_classes_1_1managers_1_1_gui_manager.html#ad50f462f8d45a5bbfc8a17290372a1ab" target="_top" xlink:title="gamePlayer.mainClasses.managers.\lGuiManager.joinMultiPlayerGame">
<polygon fill="white" stroke="black" points="1582.5,-248 1582.5,-278 1773.5,-278 1773.5,-248 1582.5,-248"/>
<text text-anchor="start" x="1590.5" y="-266" font-family="Helvetica,sans-Serif" font-size="10.00">gamePlayer.mainClasses.managers.</text>
<text text-anchor="middle" x="1678" y="-255" font-family="Helvetica,sans-Serif" font-size="10.00">GuiManager.joinMultiPlayerGame</text>
</a>
</g>
</g>
<!-- Node7&#45;&gt;Node8 -->
<g id="edge7" class="edge"><title>Node7&#45;&gt;Node8</title>
<path fill="none" stroke="midnightblue" d="M1505.84,-226.177C1538.35,-233.172 1575.6,-241.184 1607.02,-247.945"/>
<polygon fill="midnightblue" stroke="midnightblue" points="1506.43,-222.724 1495.92,-224.042 1504.96,-229.567 1506.43,-222.724"/>
</g>
<!-- Node7&#45;&gt;Node12 -->
<g id="edge11" class="edge"><title>Node7&#45;&gt;Node12</title>
<path fill="none" stroke="midnightblue" d="M1461.65,-228.905C1501.87,-251.306 1562.43,-284.877 1568,-287 1577.98,-290.8 1588.7,-294.122 1599.39,-296.995"/>
<polygon fill="midnightblue" stroke="midnightblue" points="1463.35,-225.844 1452.91,-224.032 1459.94,-231.958 1463.35,-225.844"/>
</g>
<!-- Node13 -->
<g id="node13" class="node"><title>Node13</title>
<g id="a_node13"><a xlink:href="../../d4/d3f/classgame_player_1_1main_classes_1_1managers_1_1_welcome_manager.html#a55598dd2973b0a9b979151dd60c9e436" target="_top" xlink:title="gamePlayer.mainClasses.managers.\lWelcomeManager.pollEngineForMultiPlayer\lReadiness">
<polygon fill="white" stroke="black" points="1568.5,-188.5 1568.5,-229.5 1787.5,-229.5 1787.5,-188.5 1568.5,-188.5"/>
<text text-anchor="start" x="1576.5" y="-217.5" font-family="Helvetica,sans-Serif" font-size="10.00">gamePlayer.mainClasses.managers.</text>
<text text-anchor="start" x="1576.5" y="-206.5" font-family="Helvetica,sans-Serif" font-size="10.00">WelcomeManager.pollEngineForMultiPlayer</text>
<text text-anchor="middle" x="1678" y="-195.5" font-family="Helvetica,sans-Serif" font-size="10.00">Readiness</text>
</a>
</g>
</g>
<!-- Node7&#45;&gt;Node13 -->
<g id="edge12" class="edge"><title>Node7&#45;&gt;Node13</title>
<path fill="none" stroke="midnightblue" d="M1530.84,-209C1543.19,-209 1555.81,-209 1568.22,-209"/>
<polygon fill="midnightblue" stroke="midnightblue" points="1530.53,-205.5 1520.53,-209 1530.53,-212.5 1530.53,-205.5"/>
</g>
<!-- Node16 -->
<g id="node16" class="node"><title>Node16</title>
<g id="a_node16"><a xlink:href="../../d3/dee/classgame_player_1_1main_classes_1_1welcome_screen_1_1_game_start_manager.html#a5d5001d1ee14ae57deef01f6e3ddde31" target="_top" xlink:title="gamePlayer.mainClasses.welcome\lScreen.GameStartManager.pollEngine\lForMultiPlayerReadiness">
<polygon fill="white" stroke="black" points="1578,-128.5 1578,-169.5 1778,-169.5 1778,-128.5 1578,-128.5"/>
<text text-anchor="start" x="1586" y="-157.5" font-family="Helvetica,sans-Serif" font-size="10.00">gamePlayer.mainClasses.welcome</text>
<text text-anchor="start" x="1586" y="-146.5" font-family="Helvetica,sans-Serif" font-size="10.00">Screen.GameStartManager.pollEngine</text>
<text text-anchor="middle" x="1678" y="-135.5" font-family="Helvetica,sans-Serif" font-size="10.00">ForMultiPlayerReadiness</text>
</a>
</g>
</g>
<!-- Node7&#45;&gt;Node16 -->
<g id="edge15" class="edge"><title>Node7&#45;&gt;Node16</title>
<path fill="none" stroke="midnightblue" d="M1499.01,-191.546C1527.86,-184.652 1561.21,-176.679 1591.19,-169.511"/>
<polygon fill="midnightblue" stroke="midnightblue" points="1497.93,-188.208 1489.01,-193.937 1499.55,-195.016 1497.93,-188.208"/>
</g>
<!-- Node9 -->
<g id="node9" class="node"><title>Node9</title>
<g id="a_node9"><a xlink:href="../../d4/d3f/classgame_player_1_1main_classes_1_1managers_1_1_welcome_manager.html#a71a2a80cfe9d3a07d7becc506178acfd" target="_top" xlink:title="gamePlayer.mainClasses.managers.\lWelcomeManager.joinMultiPlayerGame">
<polygon fill="white" stroke="black" points="1827.5,-300 1827.5,-330 2028.5,-330 2028.5,-300 1827.5,-300"/>
<text text-anchor="start" x="1835.5" y="-318" font-family="Helvetica,sans-Serif" font-size="10.00">gamePlayer.mainClasses.managers.</text>
<text text-anchor="middle" x="1928" y="-307" font-family="Helvetica,sans-Serif" font-size="10.00">WelcomeManager.joinMultiPlayerGame</text>
</a>
</g>
</g>
<!-- Node8&#45;&gt;Node9 -->
<g id="edge8" class="edge"><title>Node8&#45;&gt;Node9</title>
<path fill="none" stroke="midnightblue" d="M1760.53,-280.095C1791.18,-286.521 1825.76,-293.772 1855.43,-299.993"/>
<polygon fill="midnightblue" stroke="midnightblue" points="1761.24,-276.667 1750.73,-278.041 1759.8,-283.518 1761.24,-276.667"/>
</g>
<!-- Node11 -->
<g id="node11" class="node"><title>Node11</title>
<g id="a_node11"><a xlink:href="../../d3/dee/classgame_player_1_1main_classes_1_1welcome_screen_1_1_game_start_manager.html#a7465850240e12e23aec544dbfd08f6a0" target="_top" xlink:title="gamePlayer.mainClasses.welcome\lScreen.GameStartManager.joinMulti\lPlayerGame">
<polygon fill="white" stroke="black" points="1833,-240.5 1833,-281.5 2023,-281.5 2023,-240.5 1833,-240.5"/>
<text text-anchor="start" x="1841" y="-269.5" font-family="Helvetica,sans-Serif" font-size="10.00">gamePlayer.mainClasses.welcome</text>
<text text-anchor="start" x="1841" y="-258.5" font-family="Helvetica,sans-Serif" font-size="10.00">Screen.GameStartManager.joinMulti</text>
<text text-anchor="middle" x="1928" y="-247.5" font-family="Helvetica,sans-Serif" font-size="10.00">PlayerGame</text>
</a>
</g>
</g>
<!-- Node8&#45;&gt;Node11 -->
<g id="edge10" class="edge"><title>Node8&#45;&gt;Node11</title>
<path fill="none" stroke="midnightblue" d="M1783.84,-262.155C1800.04,-262.024 1816.69,-261.89 1832.64,-261.761"/>
<polygon fill="midnightblue" stroke="midnightblue" points="1783.79,-258.655 1773.82,-262.235 1783.85,-265.654 1783.79,-258.655"/>
</g>
<!-- Node10 -->
<g id="node10" class="node"><title>Node10</title>
<g id="a_node10"><a xlink:href="../../d4/d3f/classgame_player_1_1main_classes_1_1managers_1_1_welcome_manager.html#aa605746e09c481b225463d37a82427e3" target="_top" xlink:title="gamePlayer.mainClasses.managers.\lWelcomeManager.startMultiPlayerOptions">
<polygon fill="white" stroke="black" points="2068.5,-300 2068.5,-330 2283.5,-330 2283.5,-300 2068.5,-300"/>
<text text-anchor="start" x="2076.5" y="-318" font-family="Helvetica,sans-Serif" font-size="10.00">gamePlayer.mainClasses.managers.</text>
<text text-anchor="middle" x="2176" y="-307" font-family="Helvetica,sans-Serif" font-size="10.00">WelcomeManager.startMultiPlayerOptions</text>
</a>
</g>
</g>
<!-- Node9&#45;&gt;Node10 -->
<g id="edge9" class="edge"><title>Node9&#45;&gt;Node10</title>
<path fill="none" stroke="midnightblue" d="M2038.86,-315C2048.66,-315 2058.56,-315 2068.33,-315"/>
<polygon fill="midnightblue" stroke="midnightblue" points="2038.7,-311.5 2028.7,-315 2038.7,-318.5 2038.7,-311.5"/>
</g>
<!-- Node14 -->
<g id="node14" class="node"><title>Node14</title>
<g id="a_node14"><a xlink:href="../../d4/d3f/classgame_player_1_1main_classes_1_1managers_1_1_welcome_manager.html#a0669db103a94675dce875042258da508" target="_top" xlink:title="gamePlayer.mainClasses.managers.\lWelcomeManager.startMultiPlayerGame">
<polygon fill="white" stroke="black" points="1824.5,-191 1824.5,-221 2031.5,-221 2031.5,-191 1824.5,-191"/>
<text text-anchor="start" x="1832.5" y="-209" font-family="Helvetica,sans-Serif" font-size="10.00">gamePlayer.mainClasses.managers.</text>
<text text-anchor="middle" x="1928" y="-198" font-family="Helvetica,sans-Serif" font-size="10.00">WelcomeManager.startMultiPlayerGame</text>
</a>
</g>
</g>
<!-- Node13&#45;&gt;Node14 -->
<g id="edge13" class="edge"><title>Node13&#45;&gt;Node14</title>
<path fill="none" stroke="midnightblue" d="M1798.02,-207.56C1806.78,-207.454 1815.56,-207.348 1824.21,-207.243"/>
<polygon fill="midnightblue" stroke="midnightblue" points="1797.73,-204.063 1787.78,-207.684 1797.82,-211.063 1797.73,-204.063"/>
</g>
<!-- Node15 -->
<g id="node15" class="node"><title>Node15</title>
<g id="a_node15"><a xlink:href="../../d4/d3f/classgame_player_1_1main_classes_1_1managers_1_1_welcome_manager.html#ae6495396aef63551116c0835c40574e1" target="_top" xlink:title="gamePlayer.mainClasses.managers.\lWelcomeManager.startGame">
<polygon fill="white" stroke="black" points="2080.5,-166 2080.5,-196 2271.5,-196 2271.5,-166 2080.5,-166"/>
<text text-anchor="start" x="2088.5" y="-184" font-family="Helvetica,sans-Serif" font-size="10.00">gamePlayer.mainClasses.managers.</text>
<text text-anchor="middle" x="2176" y="-173" font-family="Helvetica,sans-Serif" font-size="10.00">WelcomeManager.startGame</text>
</a>
</g>
</g>
<!-- Node14&#45;&gt;Node15 -->
<g id="edge14" class="edge"><title>Node14&#45;&gt;Node15</title>
<path fill="none" stroke="midnightblue" d="M2041.86,-194.53C2054.78,-193.218 2067.84,-191.89 2080.49,-190.605"/>
<polygon fill="midnightblue" stroke="midnightblue" points="2041.14,-191.086 2031.54,-195.579 2041.85,-198.05 2041.14,-191.086"/>
</g>
<!-- Node17 -->
<g id="node17" class="node"><title>Node17</title>
<g id="a_node17"><a xlink:href="../../d3/dee/classgame_player_1_1main_classes_1_1welcome_screen_1_1_game_start_manager.html#a994c29260d6cb90abf19dca2b3463b6a" target="_top" xlink:title="gamePlayer.mainClasses.welcome\lScreen.GameStartManager.startMulti\lPlayerGame">
<polygon fill="white" stroke="black" points="1830,-128.5 1830,-169.5 2026,-169.5 2026,-128.5 1830,-128.5"/>
<text text-anchor="start" x="1838" y="-157.5" font-family="Helvetica,sans-Serif" font-size="10.00">gamePlayer.mainClasses.welcome</text>
<text text-anchor="start" x="1838" y="-146.5" font-family="Helvetica,sans-Serif" font-size="10.00">Screen.GameStartManager.startMulti</text>
<text text-anchor="middle" x="1928" y="-135.5" font-family="Helvetica,sans-Serif" font-size="10.00">PlayerGame</text>
</a>
</g>
</g>
<!-- Node16&#45;&gt;Node17 -->
<g id="edge16" class="edge"><title>Node16&#45;&gt;Node17</title>
<path fill="none" stroke="midnightblue" d="M1788.11,-149C1801.95,-149 1816.05,-149 1829.69,-149"/>
<polygon fill="midnightblue" stroke="midnightblue" points="1788.09,-145.5 1778.09,-149 1788.09,-152.5 1788.09,-145.5"/>
</g>
<!-- Node18 -->
<g id="node18" class="node"><title>Node18</title>
<g id="a_node18"><a xlink:href="../../d3/dee/classgame_player_1_1main_classes_1_1welcome_screen_1_1_game_start_manager.html#a4ac849399bf00c6df86f0db25ea95ed8" target="_top" xlink:title="gamePlayer.mainClasses.welcome\lScreen.GameStartManager.startGame">
<polygon fill="white" stroke="black" points="2074.5,-91 2074.5,-121 2277.5,-121 2277.5,-91 2074.5,-91"/>
<text text-anchor="start" x="2082.5" y="-109" font-family="Helvetica,sans-Serif" font-size="10.00">gamePlayer.mainClasses.welcome</text>
<text text-anchor="middle" x="2176" y="-98" font-family="Helvetica,sans-Serif" font-size="10.00">Screen.GameStartManager.startGame</text>
</a>
</g>
</g>
<!-- Node17&#45;&gt;Node18 -->
<g id="edge17" class="edge"><title>Node17&#45;&gt;Node18</title>
<path fill="none" stroke="midnightblue" d="M2036.48,-130.213C2053.99,-127.152 2071.93,-124.017 2088.84,-121.06"/>
<polygon fill="midnightblue" stroke="midnightblue" points="2035.47,-126.836 2026.23,-132.005 2036.68,-133.731 2035.47,-126.836"/>
</g>
<!-- Node20&#45;&gt;Node15 -->
<g id="edge21" class="edge"><title>Node20&#45;&gt;Node15</title>
<path fill="none" stroke="midnightblue" d="M1520.81,-121.453C1641.11,-103.543 1854.31,-82.1379 2032,-119 2054.39,-123.645 2109.54,-149.177 2144.44,-165.994"/>
<polygon fill="midnightblue" stroke="midnightblue" points="1520.26,-117.997 1510.89,-122.954 1521.3,-124.919 1520.26,-117.997"/>
</g>
<!-- Node21&#45;&gt;Node18 -->
<g id="edge23" class="edge"><title>Node21&#45;&gt;Node18</title>
<path fill="none" stroke="midnightblue" d="M1536.75,-79.8699C1658.37,-76.3817 1859.37,-73.7 2032,-86 2047.75,-87.1224 2064.41,-88.9036 2080.58,-90.9514"/>
<polygon fill="midnightblue" stroke="midnightblue" points="1536.57,-76.3734 1526.68,-80.1657 1536.78,-83.3704 1536.57,-76.3734"/>
</g>
<!-- Node23&#45;&gt;Node4 -->
<g id="edge26" class="edge"><title>Node23&#45;&gt;Node4</title>
<path fill="none" stroke="midnightblue" d="M643.129,-144.717C661.532,-140.483 681.307,-135.934 699.973,-131.64"/>
<polygon fill="midnightblue" stroke="midnightblue" points="642.315,-141.312 633.355,-146.965 643.885,-148.134 642.315,-141.312"/>
</g>
<!-- Node24&#45;&gt;Node4 -->
<g id="edge28" class="edge"><title>Node24&#45;&gt;Node4</title>
<path fill="none" stroke="midnightblue" d="M665.309,-113C676.814,-113 688.463,-113 699.714,-113"/>
<polygon fill="midnightblue" stroke="midnightblue" points="665.25,-109.5 655.25,-113 665.25,-116.5 665.25,-109.5"/>
</g>
<!-- Node25&#45;&gt;Node4 -->
<g id="edge30" class="edge"><title>Node25&#45;&gt;Node4</title>
<path fill="none" stroke="midnightblue" d="M643.129,-81.2833C661.532,-85.5168 681.307,-90.066 699.973,-94.36"/>
<polygon fill="midnightblue" stroke="midnightblue" points="643.885,-77.8657 633.355,-79.0346 642.315,-84.6875 643.885,-77.8657"/>
</g>
<!-- Node26&#45;&gt;Node4 -->
<g id="edge32" class="edge"><title>Node26&#45;&gt;Node4</title>
<path fill="none" stroke="midnightblue" d="M648.646,-33.1292C653.904,-34.9327 659.065,-36.8873 664,-39 696.922,-53.0928 731.155,-75.849 754.021,-92.4097"/>
<polygon fill="midnightblue" stroke="midnightblue" points="649.696,-29.7905 639.104,-30.0445 647.543,-36.4511 649.696,-29.7905"/>
</g>
</g>
</svg>
        <g id="navigator" transform="translate(0 0)" fill="#404254">
                <rect fill="#f2f5e9" fill-opacity="0.5" stroke="#606060" stroke-width=".5" x="0" y="0" width="60" height="60"/>
                <use id="zoomplus" xlink:href="#zoomPlus" x="17" y="9" onmousedown="handleZoom(evt,'in')"/>
                <use id="zoomminus" xlink:href="#zoomMin" x="42" y="9" onmousedown="handleZoom(evt,'out')"/>
                <use id="reset" xlink:href="#resetDef" x="30" y="36" onmousedown="handleReset()"/>
                <g id="arrowUp" xlink:href="#dirArrow" transform="translate(30 24)" onmousedown="handlePan(0,-1)">
                  <use xlink:href="#rim" fill="#404040">
                        <set attributeName="fill" to="#808080" begin="arrowUp.mouseover" end="arrowUp.mouseout"/>
                  </use>
                  <path fill="none" stroke="white" stroke-width="1.5" d="M0,-3.0v7 M-2.5,-0.5L0,-3.0L2.5,-0.5"/>
                </g>
                <g id="arrowRight" xlink:href="#dirArrow" transform="rotate(90) translate(36 -43)" onmousedown="handlePan(1,0)">
                  <use xlink:href="#rim" fill="#404040">
                        <set attributeName="fill" to="#808080" begin="arrowRight.mouseover" end="arrowRight.mouseout"/>
                  </use>
                  <path fill="none" stroke="white" stroke-width="1.5" d="M0,-3.0v7 M-2.5,-0.5L0,-3.0L2.5,-0.5"/>
                </g>
                <g id="arrowDown" xlink:href="#dirArrow" transform="rotate(180) translate(-30 -48)" onmousedown="handlePan(0,1)">
                  <use xlink:href="#rim" fill="#404040">
                        <set attributeName="fill" to="#808080" begin="arrowDown.mouseover" end="arrowDown.mouseout"/>
                  </use>
                  <path fill="none" stroke="white" stroke-width="1.5" d="M0,-3.0v7 M-2.5,-0.5L0,-3.0L2.5,-0.5"/>
                </g>
                <g id="arrowLeft" xlink:href="#dirArrow" transform="rotate(270) translate(-36 17)" onmousedown="handlePan(-1,0)">
                  <use xlink:href="#rim" fill="#404040">
                        <set attributeName="fill" to="#808080" begin="arrowLeft.mouseover" end="arrowLeft.mouseout"/>
                  </use>
                  <path fill="none" stroke="white" stroke-width="1.5" d="M0,-3.0v7 M-2.5,-0.5L0,-3.0L2.5,-0.5"/>
                </g>
        </g>
        <svg viewBox="0 0 15 15" width="100%" height="30px" preserveAspectRatio="xMaxYMin meet">
         <g id="arrow_out" transform="scale(0.3 0.3)">
          <a xlink:href="classgame_player_1_1gui_containers_1_1core_containers_1_1_core_container_setup_a7c2dbb68f48270227de03e789675da1f_icgraph_org.svg" target="_base">
           <rect id="button" ry="5" rx="5" y="6" x="6" height="38" width="38"
                fill="#f2f5e9" fill-opacity="0.5" stroke="#606060" stroke-width="1.0"/>
           <path id="arrow"
             d="M 11.500037,31.436501 C 11.940474,20.09759 22.043105,11.32322 32.158766,21.979434 L 37.068811,17.246167 C 37.068811,17.246167 37.088388,32 37.088388,32 L 22.160133,31.978069 C 22.160133,31.978069 26.997745,27.140456 26.997745,27.140456 C 18.528582,18.264221 13.291696,25.230495 11.500037,31.436501 z"
             style="fill:#404040;"/>
          </a>
         </g>
        </svg>
</svg>
