<?xml version="1.0" encoding="UTF-8" standalone="no"?>
<!DOCTYPE svg PUBLIC "-//W3C//DTD SVG 1.1//EN"
 "http://www.w3.org/Graphics/SVG/1.1/DTD/svg11.dtd">
<!-- Generated by graphviz version 2.36.0 (20140111.2315)
 -->
<!-- Title: gamePlayer.guiContainers.coreContainers.CoreContainerSetup.initialize Pages: 1 -->
<!--zoomable 338 -->
<svg id="main" version="1.1" xmlns="http://www.w3.org/2000/svg" xmlns:xlink="http://www.w3.org/1999/xlink" xml:space="preserve" onload="init(evt)">
<style type="text/css"><![CDATA[
.edge:hover path { stroke: red; }
.edge:hover polygon { stroke: red; fill: red; }
]]></style>
<script type="text/javascript"><![CDATA[
var edges = document.getElementsByTagName('g');
if (edges && edges.length) {
  for (var i=0;i<edges.length;i++) {
    if (edges[i].id.substr(0,4)=='edge') {
      edges[i].setAttribute('class','edge');
    }
  }
}
]]></script>
        <defs>
                <circle id="rim" cx="0" cy="0" r="7"/>
                <circle id="rim2" cx="0" cy="0" r="3.5"/>
                <g id="zoomPlus">
                        <use xlink:href="#rim" fill="#404040">
                                <set attributeName="fill" to="#808080" begin="zoomplus.mouseover" end="zoomplus.mouseout"/>
                        </use>
                        <path d="M-4,0h8M0,-4v8" fill="none" stroke="white" stroke-width="1.5" pointer-events="none"/>
                </g>
                <g id="zoomMin">
                        <use xlink:href="#rim" fill="#404040">
                                <set attributeName="fill" to="#808080" begin="zoomminus.mouseover" end="zoomminus.mouseout"/>
                        </use>
                        <path d="M-4,0h8" fill="none" stroke="white" stroke-width="1.5" pointer-events="none"/>
                </g>
                <g id="dirArrow">
                        <path fill="none" stroke="white" stroke-width="1.5" d="M0,-3.0v7 M-2.5,-0.5L0,-3.0L2.5,-0.5"/>
                </g>
               <g id="resetDef">
                       <use xlink:href="#rim2" fill="#404040">
                               <set attributeName="fill" to="#808080" begin="reset.mouseover" end="reset.mouseout"/>
                       </use>
               </g>
        </defs>

<script type="text/javascript">
var viewWidth = 2068;
var viewHeight = 338;
var sectionId = 'dynsection-3';
</script>
<script xlink:href="../../svgpan.js"/>
<svg id="graph" class="graph">
<g id="viewport">
<title>gamePlayer.guiContainers.coreContainers.CoreContainerSetup.initialize</title>
<polygon fill="white" stroke="none" points="-4,4 -4,-334 2064,-334 2064,4 -4,4"/>
<!-- Node1 -->
<g id="node1" class="node"><title>Node1</title>
<polygon fill="#bfbfbf" stroke="black" points="0,-98 0,-128 210,-128 210,-98 0,-98"/>
<text text-anchor="start" x="8" y="-116" font-family="Helvetica,sans-Serif" font-size="10.00">gamePlayer.guiContainers.core</text>
<text text-anchor="middle" x="105" y="-105" font-family="Helvetica,sans-Serif" font-size="10.00">Containers.CoreContainerSetup.initialize</text>
</g>
<!-- Node2 -->
<g id="node2" class="node"><title>Node2</title>
<g id="a_node2"><a xlink:href="../../dd/de8/classgame_player_1_1gui_containers_1_1core_containers_1_1_right_container.html#a334bf5d79096bf6348e43ac614bb3e65" target="_top" xlink:title="gamePlayer.guiContainers.core\lContainers.RightContainer.initialize">
<polygon fill="white" stroke="black" points="252,-196 252,-226 434,-226 434,-196 252,-196"/>
<text text-anchor="start" x="260" y="-214" font-family="Helvetica,sans-Serif" font-size="10.00">gamePlayer.guiContainers.core</text>
<text text-anchor="middle" x="343" y="-203" font-family="Helvetica,sans-Serif" font-size="10.00">Containers.RightContainer.initialize</text>
</a>
</g>
</g>
<!-- Node1&#45;&gt;Node2 -->
<g id="edge1" class="edge"><title>Node1&#45;&gt;Node2</title>
<path fill="none" stroke="midnightblue" d="M139.884,-133.442C167.629,-149.493 208.311,-171.481 246,-186 255.562,-189.684 265.866,-193.005 276.049,-195.935"/>
<polygon fill="midnightblue" stroke="midnightblue" points="141.394,-130.271 130.994,-128.246 137.861,-136.314 141.394,-130.271"/>
</g>
<!-- Node22 -->
<g id="node22" class="node"><title>Node22</title>
<g id="a_node22"><a xlink:href="../../dc/d6a/classgame_player_1_1gui_containers_1_1core_containers_1_1_top_container.html#a7ee024a250448af00717a87d0cc6f920" target="_top" xlink:title="gamePlayer.guiContainers.core\lContainers.TopContainer.initialize">
<polygon fill="white" stroke="black" points="256,-147 256,-177 430,-177 430,-147 256,-147"/>
<text text-anchor="start" x="264" y="-165" font-family="Helvetica,sans-Serif" font-size="10.00">gamePlayer.guiContainers.core</text>
<text text-anchor="middle" x="343" y="-154" font-family="Helvetica,sans-Serif" font-size="10.00">Containers.TopContainer.initialize</text>
</a>
</g>
</g>
<!-- Node1&#45;&gt;Node22 -->
<g id="edge24" class="edge"><title>Node1&#45;&gt;Node22</title>
<path fill="none" stroke="midnightblue" d="M188.42,-130.113C214.904,-135.611 244.026,-141.658 269.725,-146.994"/>
<polygon fill="midnightblue" stroke="midnightblue" points="188.914,-126.641 178.412,-128.035 187.491,-133.495 188.914,-126.641"/>
</g>
<!-- Node23 -->
<g id="node23" class="node"><title>Node23</title>
<g id="a_node23"><a xlink:href="../../d7/dca/classgame_player_1_1gui_containers_1_1core_containers_1_1_left_container.html#a1c5ab988bc6350ae15e03aa601f850a8" target="_top" xlink:title="gamePlayer.guiContainers.core\lContainers.LeftContainer.initialize">
<polygon fill="white" stroke="black" points="255,-98 255,-128 431,-128 431,-98 255,-98"/>
<text text-anchor="start" x="263" y="-116" font-family="Helvetica,sans-Serif" font-size="10.00">gamePlayer.guiContainers.core</text>
<text text-anchor="middle" x="343" y="-105" font-family="Helvetica,sans-Serif" font-size="10.00">Containers.LeftContainer.initialize</text>
</a>
</g>
</g>
<!-- Node1&#45;&gt;Node23 -->
<g id="edge26" class="edge"><title>Node1&#45;&gt;Node23</title>
<path fill="none" stroke="midnightblue" d="M220.39,-113C232.012,-113 243.681,-113 254.945,-113"/>
<polygon fill="midnightblue" stroke="midnightblue" points="220.2,-109.5 210.2,-113 220.2,-116.5 220.2,-109.5"/>
</g>
<!-- Node24 -->
<g id="node24" class="node"><title>Node24</title>
<g id="a_node24"><a xlink:href="../../d4/d8d/classgame_player_1_1gui_containers_1_1core_containers_1_1_bottom_container.html#aa6b6a142786ee38f05a4db76619a9265" target="_top" xlink:title="gamePlayer.guiContainers.core\lContainers.BottomContainer.initialize">
<polygon fill="white" stroke="black" points="246,-49 246,-79 440,-79 440,-49 246,-49"/>
<text text-anchor="start" x="254" y="-67" font-family="Helvetica,sans-Serif" font-size="10.00">gamePlayer.guiContainers.core</text>
<text text-anchor="middle" x="343" y="-56" font-family="Helvetica,sans-Serif" font-size="10.00">Containers.BottomContainer.initialize</text>
</a>
</g>
</g>
<!-- Node1&#45;&gt;Node24 -->
<g id="edge28" class="edge"><title>Node1&#45;&gt;Node24</title>
<path fill="none" stroke="midnightblue" d="M188.42,-95.8873C214.904,-90.3885 244.026,-84.342 269.725,-79.0062"/>
<polygon fill="midnightblue" stroke="midnightblue" points="187.491,-92.5055 178.412,-97.9654 188.914,-99.3593 187.491,-92.5055"/>
</g>
<!-- Node25 -->
<g id="node25" class="node"><title>Node25</title>
<g id="a_node25"><a xlink:href="../../d3/d87/classgame_player_1_1gui_containers_1_1core_containers_1_1_center_container.html#ae748e7137af86ab7cad38928b987b07d" target="_top" xlink:title="gamePlayer.guiContainers.core\lContainers.CenterContainer.initialize">
<polygon fill="white" stroke="black" points="247.5,-0 247.5,-30 438.5,-30 438.5,-0 247.5,-0"/>
<text text-anchor="start" x="255.5" y="-18" font-family="Helvetica,sans-Serif" font-size="10.00">gamePlayer.guiContainers.core</text>
<text text-anchor="middle" x="343" y="-7" font-family="Helvetica,sans-Serif" font-size="10.00">Containers.CenterContainer.initialize</text>
</a>
</g>
</g>
<!-- Node1&#45;&gt;Node25 -->
<g id="edge30" class="edge"><title>Node1&#45;&gt;Node25</title>
<path fill="none" stroke="midnightblue" d="M139.302,-92.4486C167.013,-76.0803 207.939,-53.5706 246,-39 254.664,-35.6833 263.944,-32.698 273.195,-30.0518"/>
<polygon fill="midnightblue" stroke="midnightblue" points="137.226,-89.6119 130.435,-97.7439 140.815,-95.6219 137.226,-89.6119"/>
</g>
<!-- Node3 -->
<g id="node3" class="node"><title>Node3</title>
<g id="a_node3"><a xlink:href="../../d6/d33/classgame_player_1_1main_classes_1_1gui_builder_1_1_gui_builder.html#a0fbd44d2d57fb100c883cdf4ad77e7f8" target="_top" xlink:title="gamePlayer.mainClasses.gui\lBuilder.GuiBuilder.initializeCore\lContainers">
<polygon fill="white" stroke="black" points="476,-92.5 476,-133.5 640,-133.5 640,-92.5 476,-92.5"/>
<text text-anchor="start" x="484" y="-121.5" font-family="Helvetica,sans-Serif" font-size="10.00">gamePlayer.mainClasses.gui</text>
<text text-anchor="start" x="484" y="-110.5" font-family="Helvetica,sans-Serif" font-size="10.00">Builder.GuiBuilder.initializeCore</text>
<text text-anchor="middle" x="558" y="-99.5" font-family="Helvetica,sans-Serif" font-size="10.00">Containers</text>
</a>
</g>
</g>
<!-- Node2&#45;&gt;Node3 -->
<g id="edge2" class="edge"><title>Node2&#45;&gt;Node3</title>
<path fill="none" stroke="midnightblue" d="M422.006,-192.846C428.172,-190.759 434.238,-188.479 440,-186 472.549,-171.996 506.568,-149.786 529.479,-133.538"/>
<polygon fill="midnightblue" stroke="midnightblue" points="420.718,-189.583 412.262,-195.967 422.853,-196.249 420.718,-189.583"/>
</g>
<!-- Node4 -->
<g id="node4" class="node"><title>Node4</title>
<g id="a_node4"><a xlink:href="../../d6/d33/classgame_player_1_1main_classes_1_1gui_builder_1_1_gui_builder.html#ab281fef7b723af3743f3cb38dd5b7660" target="_top" xlink:title="gamePlayer.mainClasses.gui\lBuilder.GuiBuilder.build">
<polygon fill="white" stroke="black" points="676,-98 676,-128 830,-128 830,-98 676,-98"/>
<text text-anchor="start" x="684" y="-116" font-family="Helvetica,sans-Serif" font-size="10.00">gamePlayer.mainClasses.gui</text>
<text text-anchor="middle" x="753" y="-105" font-family="Helvetica,sans-Serif" font-size="10.00">Builder.GuiBuilder.build</text>
</a>
</g>
</g>
<!-- Node3&#45;&gt;Node4 -->
<g id="edge3" class="edge"><title>Node3&#45;&gt;Node4</title>
<path fill="none" stroke="midnightblue" d="M650.08,-113C658.694,-113 667.365,-113 675.819,-113"/>
<polygon fill="midnightblue" stroke="midnightblue" points="650.011,-109.5 640.01,-113 650.01,-116.5 650.011,-109.5"/>
</g>
<!-- Node5 -->
<g id="node5" class="node"><title>Node5</title>
<g id="a_node5"><a xlink:href="../../da/d69/classgame_player_1_1main_classes_1_1managers_1_1_gui_manager.html#a6bce033ad0751d90302ee3520a36e95b" target="_top" xlink:title="gamePlayer.mainClasses.managers.\lGuiManager.init">
<polygon fill="white" stroke="black" points="866.5,-123 866.5,-153 1057.5,-153 1057.5,-123 866.5,-123"/>
<text text-anchor="start" x="874.5" y="-141" font-family="Helvetica,sans-Serif" font-size="10.00">gamePlayer.mainClasses.managers.</text>
<text text-anchor="middle" x="962" y="-130" font-family="Helvetica,sans-Serif" font-size="10.00">GuiManager.init</text>
</a>
</g>
</g>
<!-- Node4&#45;&gt;Node5 -->
<g id="edge4" class="edge"><title>Node4&#45;&gt;Node5</title>
<path fill="none" stroke="midnightblue" d="M840.224,-123.413C848.842,-124.454 857.624,-125.515 866.323,-126.566"/>
<polygon fill="midnightblue" stroke="midnightblue" points="840.545,-119.927 830.197,-122.203 839.705,-126.876 840.545,-119.927"/>
</g>
<!-- Node21 -->
<g id="node21" class="node"><title>Node21</title>
<g id="a_node21"><a xlink:href="../../d4/d3f/classgame_player_1_1main_classes_1_1managers_1_1_welcome_manager.html#afd11b6bf91712ea221c4f69945eda2e4" target="_top" xlink:title="gamePlayer.mainClasses.managers.\lWelcomeManager.init">
<polygon fill="white" stroke="black" points="866.5,-74 866.5,-104 1057.5,-104 1057.5,-74 866.5,-74"/>
<text text-anchor="start" x="874.5" y="-92" font-family="Helvetica,sans-Serif" font-size="10.00">gamePlayer.mainClasses.managers.</text>
<text text-anchor="middle" x="962" y="-81" font-family="Helvetica,sans-Serif" font-size="10.00">WelcomeManager.init</text>
</a>
</g>
</g>
<!-- Node4&#45;&gt;Node21 -->
<g id="edge23" class="edge"><title>Node4&#45;&gt;Node21</title>
<path fill="none" stroke="midnightblue" d="M840.224,-103.003C848.842,-102.004 857.624,-100.986 866.323,-99.977"/>
<polygon fill="midnightblue" stroke="midnightblue" points="839.728,-99.537 830.197,-104.166 840.534,-106.49 839.728,-99.537"/>
</g>
<!-- Node6 -->
<g id="node6" class="node"><title>Node6</title>
<g id="a_node6"><a xlink:href="../../da/d69/classgame_player_1_1main_classes_1_1managers_1_1_gui_manager.html#aa0b614e03bdec959e13e3d5ca2e1f614" target="_top" xlink:title="gamePlayer.mainClasses.managers.\lGuiManager.startMultiPlayerGame">
<polygon fill="white" stroke="black" points="1105.5,-194 1105.5,-224 1296.5,-224 1296.5,-194 1105.5,-194"/>
<text text-anchor="start" x="1113.5" y="-212" font-family="Helvetica,sans-Serif" font-size="10.00">gamePlayer.mainClasses.managers.</text>
<text text-anchor="middle" x="1201" y="-201" font-family="Helvetica,sans-Serif" font-size="10.00">GuiManager.startMultiPlayerGame</text>
</a>
</g>
</g>
<!-- Node5&#45;&gt;Node6 -->
<g id="edge5" class="edge"><title>Node5&#45;&gt;Node6</title>
<path fill="none" stroke="midnightblue" d="M1022.96,-155.964C1062.15,-167.704 1112.75,-182.862 1149.81,-193.964"/>
<polygon fill="midnightblue" stroke="midnightblue" points="1023.85,-152.574 1013.26,-153.057 1021.84,-159.28 1023.85,-152.574"/>
</g>
<!-- Node11 -->
<g id="node11" class="node"><title>Node11</title>
<g id="a_node11"><a xlink:href="../../da/d69/classgame_player_1_1main_classes_1_1managers_1_1_gui_manager.html#a3f657f0e3ba1e493d2dd02b5df5e03f6" target="_top" xlink:title="gamePlayer.mainClasses.managers.\lGuiManager.replayGame">
<polygon fill="white" stroke="black" points="1358.5,-297 1358.5,-327 1549.5,-327 1549.5,-297 1358.5,-297"/>
<text text-anchor="start" x="1366.5" y="-315" font-family="Helvetica,sans-Serif" font-size="10.00">gamePlayer.mainClasses.managers.</text>
<text text-anchor="middle" x="1454" y="-304" font-family="Helvetica,sans-Serif" font-size="10.00">GuiManager.replayGame</text>
</a>
</g>
</g>
<!-- Node5&#45;&gt;Node11 -->
<g id="edge17" class="edge"><title>Node5&#45;&gt;Node11</title>
<path fill="none" stroke="midnightblue" d="M986.444,-159.673C1011.3,-181.463 1052.6,-214.413 1094,-233 1179,-271.164 1283.81,-291.493 1358.19,-301.916"/>
<polygon fill="midnightblue" stroke="midnightblue" points="988.77,-157.058 978.974,-153.023 984.116,-162.287 988.77,-157.058"/>
</g>
<!-- Node18 -->
<g id="node18" class="node"><title>Node18</title>
<g id="a_node18"><a xlink:href="../../d4/d3f/classgame_player_1_1main_classes_1_1managers_1_1_welcome_manager.html#a85bf325329fe7587bbe74526c37c11c0" target="_top" xlink:title="gamePlayer.mainClasses.managers.\lWelcomeManager.newGame">
<polygon fill="white" stroke="black" points="1105.5,-15 1105.5,-45 1296.5,-45 1296.5,-15 1105.5,-15"/>
<text text-anchor="start" x="1113.5" y="-33" font-family="Helvetica,sans-Serif" font-size="10.00">gamePlayer.mainClasses.managers.</text>
<text text-anchor="middle" x="1201" y="-22" font-family="Helvetica,sans-Serif" font-size="10.00">WelcomeManager.newGame</text>
</a>
</g>
</g>
<!-- Node5&#45;&gt;Node18 -->
<g id="edge18" class="edge"><title>Node5&#45;&gt;Node18</title>
<path fill="none" stroke="midnightblue" d="M1050.09,-118.214C1052.84,-116.61 1055.48,-114.875 1058,-113 1082.64,-94.6521 1069.05,-71.9182 1094,-54 1098.83,-50.533 1104.07,-47.5559 1109.56,-45.0005"/>
<polygon fill="midnightblue" stroke="midnightblue" points="1048.3,-115.2 1041.03,-122.91 1051.52,-121.414 1048.3,-115.2"/>
</g>
<!-- Node19 -->
<g id="node19" class="node"><title>Node19</title>
<g id="a_node19"><a xlink:href="../../d4/d3f/classgame_player_1_1main_classes_1_1managers_1_1_welcome_manager.html#a5da8d3f5b8bc1c4bd4c555140bd9384c" target="_top" xlink:title="gamePlayer.mainClasses.managers.\lWelcomeManager.startSinglePlayerGame">
<polygon fill="white" stroke="black" points="1094,-123 1094,-153 1308,-153 1308,-123 1094,-123"/>
<text text-anchor="start" x="1102" y="-141" font-family="Helvetica,sans-Serif" font-size="10.00">gamePlayer.mainClasses.managers.</text>
<text text-anchor="middle" x="1201" y="-130" font-family="Helvetica,sans-Serif" font-size="10.00">WelcomeManager.startSinglePlayerGame</text>
</a>
</g>
</g>
<!-- Node5&#45;&gt;Node19 -->
<g id="edge19" class="edge"><title>Node5&#45;&gt;Node19</title>
<path fill="none" stroke="midnightblue" d="M1067.77,-138C1076.4,-138 1085.13,-138 1093.77,-138"/>
<polygon fill="midnightblue" stroke="midnightblue" points="1067.69,-134.5 1057.69,-138 1067.69,-141.5 1067.69,-134.5"/>
</g>
<!-- Node20 -->
<g id="node20" class="node"><title>Node20</title>
<g id="a_node20"><a xlink:href="../../d3/dee/classgame_player_1_1main_classes_1_1welcome_screen_1_1_game_start_manager.html#a0c44b3f25d2a30fe2e7aeca9da7161a9" target="_top" xlink:title="gamePlayer.mainClasses.welcome\lScreen.GameStartManager.startSingle\lPlayerGame">
<polygon fill="white" stroke="black" points="1099.5,-63.5 1099.5,-104.5 1302.5,-104.5 1302.5,-63.5 1099.5,-63.5"/>
<text text-anchor="start" x="1107.5" y="-92.5" font-family="Helvetica,sans-Serif" font-size="10.00">gamePlayer.mainClasses.welcome</text>
<text text-anchor="start" x="1107.5" y="-81.5" font-family="Helvetica,sans-Serif" font-size="10.00">Screen.GameStartManager.startSingle</text>
<text text-anchor="middle" x="1201" y="-70.5" font-family="Helvetica,sans-Serif" font-size="10.00">PlayerGame</text>
</a>
</g>
</g>
<!-- Node5&#45;&gt;Node20 -->
<g id="edge21" class="edge"><title>Node5&#45;&gt;Node20</title>
<path fill="none" stroke="midnightblue" d="M1038.89,-120.708C1061.52,-115.552 1086.54,-109.851 1109.98,-104.511"/>
<polygon fill="midnightblue" stroke="midnightblue" points="1037.99,-117.324 1029.02,-122.958 1039.55,-124.149 1037.99,-117.324"/>
</g>
<!-- Node7 -->
<g id="node7" class="node"><title>Node7</title>
<g id="a_node7"><a xlink:href="../../da/d69/classgame_player_1_1main_classes_1_1managers_1_1_gui_manager.html#ad50f462f8d45a5bbfc8a17290372a1ab" target="_top" xlink:title="gamePlayer.mainClasses.managers.\lGuiManager.joinMultiPlayerGame">
<polygon fill="white" stroke="black" points="1358.5,-248 1358.5,-278 1549.5,-278 1549.5,-248 1358.5,-248"/>
<text text-anchor="start" x="1366.5" y="-266" font-family="Helvetica,sans-Serif" font-size="10.00">gamePlayer.mainClasses.managers.</text>
<text text-anchor="middle" x="1454" y="-255" font-family="Helvetica,sans-Serif" font-size="10.00">GuiManager.joinMultiPlayerGame</text>
</a>
</g>
</g>
<!-- Node6&#45;&gt;Node7 -->
<g id="edge6" class="edge"><title>Node6&#45;&gt;Node7</title>
<path fill="none" stroke="midnightblue" d="M1281.84,-226.177C1314.35,-233.172 1351.6,-241.184 1383.02,-247.945"/>
<polygon fill="midnightblue" stroke="midnightblue" points="1282.43,-222.724 1271.92,-224.042 1280.96,-229.567 1282.43,-222.724"/>
</g>
<!-- Node6&#45;&gt;Node11 -->
<g id="edge10" class="edge"><title>Node6&#45;&gt;Node11</title>
<path fill="none" stroke="midnightblue" d="M1237.65,-228.905C1277.87,-251.306 1338.43,-284.877 1344,-287 1353.98,-290.8 1364.7,-294.122 1375.39,-296.995"/>
<polygon fill="midnightblue" stroke="midnightblue" points="1239.35,-225.844 1228.91,-224.032 1235.94,-231.958 1239.35,-225.844"/>
</g>
<!-- Node12 -->
<g id="node12" class="node"><title>Node12</title>
<g id="a_node12"><a xlink:href="../../d4/d3f/classgame_player_1_1main_classes_1_1managers_1_1_welcome_manager.html#a55598dd2973b0a9b979151dd60c9e436" target="_top" xlink:title="gamePlayer.mainClasses.managers.\lWelcomeManager.pollEngineForMultiPlayer\lReadiness">
<polygon fill="white" stroke="black" points="1344.5,-188.5 1344.5,-229.5 1563.5,-229.5 1563.5,-188.5 1344.5,-188.5"/>
<text text-anchor="start" x="1352.5" y="-217.5" font-family="Helvetica,sans-Serif" font-size="10.00">gamePlayer.mainClasses.managers.</text>
<text text-anchor="start" x="1352.5" y="-206.5" font-family="Helvetica,sans-Serif" font-size="10.00">WelcomeManager.pollEngineForMultiPlayer</text>
<text text-anchor="middle" x="1454" y="-195.5" font-family="Helvetica,sans-Serif" font-size="10.00">Readiness</text>
</a>
</g>
</g>
<!-- Node6&#45;&gt;Node12 -->
<g id="edge11" class="edge"><title>Node6&#45;&gt;Node12</title>
<path fill="none" stroke="midnightblue" d="M1306.84,-209C1319.19,-209 1331.81,-209 1344.22,-209"/>
<polygon fill="midnightblue" stroke="midnightblue" points="1306.53,-205.5 1296.53,-209 1306.53,-212.5 1306.53,-205.5"/>
</g>
<!-- Node15 -->
<g id="node15" class="node"><title>Node15</title>
<g id="a_node15"><a xlink:href="../../d3/dee/classgame_player_1_1main_classes_1_1welcome_screen_1_1_game_start_manager.html#a5d5001d1ee14ae57deef01f6e3ddde31" target="_top" xlink:title="gamePlayer.mainClasses.welcome\lScreen.GameStartManager.pollEngine\lForMultiPlayerReadiness">
<polygon fill="white" stroke="black" points="1354,-128.5 1354,-169.5 1554,-169.5 1554,-128.5 1354,-128.5"/>
<text text-anchor="start" x="1362" y="-157.5" font-family="Helvetica,sans-Serif" font-size="10.00">gamePlayer.mainClasses.welcome</text>
<text text-anchor="start" x="1362" y="-146.5" font-family="Helvetica,sans-Serif" font-size="10.00">Screen.GameStartManager.pollEngine</text>
<text text-anchor="middle" x="1454" y="-135.5" font-family="Helvetica,sans-Serif" font-size="10.00">ForMultiPlayerReadiness</text>
</a>
</g>
</g>
<!-- Node6&#45;&gt;Node15 -->
<g id="edge14" class="edge"><title>Node6&#45;&gt;Node15</title>
<path fill="none" stroke="midnightblue" d="M1275.01,-191.546C1303.86,-184.652 1337.21,-176.679 1367.19,-169.511"/>
<polygon fill="midnightblue" stroke="midnightblue" points="1273.93,-188.208 1265.01,-193.937 1275.55,-195.016 1273.93,-188.208"/>
</g>
<!-- Node8 -->
<g id="node8" class="node"><title>Node8</title>
<g id="a_node8"><a xlink:href="../../d4/d3f/classgame_player_1_1main_classes_1_1managers_1_1_welcome_manager.html#a71a2a80cfe9d3a07d7becc506178acfd" target="_top" xlink:title="gamePlayer.mainClasses.managers.\lWelcomeManager.joinMultiPlayerGame">
<polygon fill="white" stroke="black" points="1603.5,-300 1603.5,-330 1804.5,-330 1804.5,-300 1603.5,-300"/>
<text text-anchor="start" x="1611.5" y="-318" font-family="Helvetica,sans-Serif" font-size="10.00">gamePlayer.mainClasses.managers.</text>
<text text-anchor="middle" x="1704" y="-307" font-family="Helvetica,sans-Serif" font-size="10.00">WelcomeManager.joinMultiPlayerGame</text>
</a>
</g>
</g>
<!-- Node7&#45;&gt;Node8 -->
<g id="edge7" class="edge"><title>Node7&#45;&gt;Node8</title>
<path fill="none" stroke="midnightblue" d="M1536.53,-280.095C1567.18,-286.521 1601.76,-293.772 1631.43,-299.993"/>
<polygon fill="midnightblue" stroke="midnightblue" points="1537.24,-276.667 1526.73,-278.041 1535.8,-283.518 1537.24,-276.667"/>
</g>
<!-- Node10 -->
<g id="node10" class="node"><title>Node10</title>
<g id="a_node10"><a xlink:href="../../d3/dee/classgame_player_1_1main_classes_1_1welcome_screen_1_1_game_start_manager.html#a7465850240e12e23aec544dbfd08f6a0" target="_top" xlink:title="gamePlayer.mainClasses.welcome\lScreen.GameStartManager.joinMulti\lPlayerGame">
<polygon fill="white" stroke="black" points="1609,-240.5 1609,-281.5 1799,-281.5 1799,-240.5 1609,-240.5"/>
<text text-anchor="start" x="1617" y="-269.5" font-family="Helvetica,sans-Serif" font-size="10.00">gamePlayer.mainClasses.welcome</text>
<text text-anchor="start" x="1617" y="-258.5" font-family="Helvetica,sans-Serif" font-size="10.00">Screen.GameStartManager.joinMulti</text>
<text text-anchor="middle" x="1704" y="-247.5" font-family="Helvetica,sans-Serif" font-size="10.00">PlayerGame</text>
</a>
</g>
</g>
<!-- Node7&#45;&gt;Node10 -->
<g id="edge9" class="edge"><title>Node7&#45;&gt;Node10</title>
<path fill="none" stroke="midnightblue" d="M1559.84,-262.155C1576.04,-262.024 1592.69,-261.89 1608.64,-261.761"/>
<polygon fill="midnightblue" stroke="midnightblue" points="1559.79,-258.655 1549.82,-262.235 1559.85,-265.654 1559.79,-258.655"/>
</g>
<!-- Node9 -->
<g id="node9" class="node"><title>Node9</title>
<g id="a_node9"><a xlink:href="../../d4/d3f/classgame_player_1_1main_classes_1_1managers_1_1_welcome_manager.html#aa605746e09c481b225463d37a82427e3" target="_top" xlink:title="gamePlayer.mainClasses.managers.\lWelcomeManager.startMultiPlayerOptions">
<polygon fill="white" stroke="black" points="1844.5,-300 1844.5,-330 2059.5,-330 2059.5,-300 1844.5,-300"/>
<text text-anchor="start" x="1852.5" y="-318" font-family="Helvetica,sans-Serif" font-size="10.00">gamePlayer.mainClasses.managers.</text>
<text text-anchor="middle" x="1952" y="-307" font-family="Helvetica,sans-Serif" font-size="10.00">WelcomeManager.startMultiPlayerOptions</text>
</a>
</g>
</g>
<!-- Node8&#45;&gt;Node9 -->
<g id="edge8" class="edge"><title>Node8&#45;&gt;Node9</title>
<path fill="none" stroke="midnightblue" d="M1814.86,-315C1824.66,-315 1834.56,-315 1844.33,-315"/>
<polygon fill="midnightblue" stroke="midnightblue" points="1814.7,-311.5 1804.7,-315 1814.7,-318.5 1814.7,-311.5"/>
</g>
<!-- Node13 -->
<g id="node13" class="node"><title>Node13</title>
<g id="a_node13"><a xlink:href="../../d4/d3f/classgame_player_1_1main_classes_1_1managers_1_1_welcome_manager.html#a0669db103a94675dce875042258da508" target="_top" xlink:title="gamePlayer.mainClasses.managers.\lWelcomeManager.startMultiPlayerGame">
<polygon fill="white" stroke="black" points="1600.5,-191 1600.5,-221 1807.5,-221 1807.5,-191 1600.5,-191"/>
<text text-anchor="start" x="1608.5" y="-209" font-family="Helvetica,sans-Serif" font-size="10.00">gamePlayer.mainClasses.managers.</text>
<text text-anchor="middle" x="1704" y="-198" font-family="Helvetica,sans-Serif" font-size="10.00">WelcomeManager.startMultiPlayerGame</text>
</a>
</g>
</g>
<!-- Node12&#45;&gt;Node13 -->
<g id="edge12" class="edge"><title>Node12&#45;&gt;Node13</title>
<path fill="none" stroke="midnightblue" d="M1574.02,-207.56C1582.78,-207.454 1591.56,-207.348 1600.21,-207.243"/>
<polygon fill="midnightblue" stroke="midnightblue" points="1573.73,-204.063 1563.78,-207.684 1573.82,-211.063 1573.73,-204.063"/>
</g>
<!-- Node14 -->
<g id="node14" class="node"><title>Node14</title>
<g id="a_node14"><a xlink:href="../../d4/d3f/classgame_player_1_1main_classes_1_1managers_1_1_welcome_manager.html#ae6495396aef63551116c0835c40574e1" target="_top" xlink:title="gamePlayer.mainClasses.managers.\lWelcomeManager.startGame">
<polygon fill="white" stroke="black" points="1856.5,-166 1856.5,-196 2047.5,-196 2047.5,-166 1856.5,-166"/>
<text text-anchor="start" x="1864.5" y="-184" font-family="Helvetica,sans-Serif" font-size="10.00">gamePlayer.mainClasses.managers.</text>
<text text-anchor="middle" x="1952" y="-173" font-family="Helvetica,sans-Serif" font-size="10.00">WelcomeManager.startGame</text>
</a>
</g>
</g>
<!-- Node13&#45;&gt;Node14 -->
<g id="edge13" class="edge"><title>Node13&#45;&gt;Node14</title>
<path fill="none" stroke="midnightblue" d="M1817.86,-194.53C1830.78,-193.218 1843.84,-191.89 1856.49,-190.605"/>
<polygon fill="midnightblue" stroke="midnightblue" points="1817.14,-191.086 1807.54,-195.579 1817.85,-198.05 1817.14,-191.086"/>
</g>
<!-- Node16 -->
<g id="node16" class="node"><title>Node16</title>
<g id="a_node16"><a xlink:href="../../d3/dee/classgame_player_1_1main_classes_1_1welcome_screen_1_1_game_start_manager.html#a994c29260d6cb90abf19dca2b3463b6a" target="_top" xlink:title="gamePlayer.mainClasses.welcome\lScreen.GameStartManager.startMulti\lPlayerGame">
<polygon fill="white" stroke="black" points="1606,-128.5 1606,-169.5 1802,-169.5 1802,-128.5 1606,-128.5"/>
<text text-anchor="start" x="1614" y="-157.5" font-family="Helvetica,sans-Serif" font-size="10.00">gamePlayer.mainClasses.welcome</text>
<text text-anchor="start" x="1614" y="-146.5" font-family="Helvetica,sans-Serif" font-size="10.00">Screen.GameStartManager.startMulti</text>
<text text-anchor="middle" x="1704" y="-135.5" font-family="Helvetica,sans-Serif" font-size="10.00">PlayerGame</text>
</a>
</g>
</g>
<!-- Node15&#45;&gt;Node16 -->
<g id="edge15" class="edge"><title>Node15&#45;&gt;Node16</title>
<path fill="none" stroke="midnightblue" d="M1564.11,-149C1577.95,-149 1592.05,-149 1605.69,-149"/>
<polygon fill="midnightblue" stroke="midnightblue" points="1564.09,-145.5 1554.09,-149 1564.09,-152.5 1564.09,-145.5"/>
</g>
<!-- Node17 -->
<g id="node17" class="node"><title>Node17</title>
<g id="a_node17"><a xlink:href="../../d3/dee/classgame_player_1_1main_classes_1_1welcome_screen_1_1_game_start_manager.html#a4ac849399bf00c6df86f0db25ea95ed8" target="_top" xlink:title="gamePlayer.mainClasses.welcome\lScreen.GameStartManager.startGame">
<polygon fill="white" stroke="black" points="1850.5,-91 1850.5,-121 2053.5,-121 2053.5,-91 1850.5,-91"/>
<text text-anchor="start" x="1858.5" y="-109" font-family="Helvetica,sans-Serif" font-size="10.00">gamePlayer.mainClasses.welcome</text>
<text text-anchor="middle" x="1952" y="-98" font-family="Helvetica,sans-Serif" font-size="10.00">Screen.GameStartManager.startGame</text>
</a>
</g>
</g>
<!-- Node16&#45;&gt;Node17 -->
<g id="edge16" class="edge"><title>Node16&#45;&gt;Node17</title>
<path fill="none" stroke="midnightblue" d="M1812.48,-130.213C1829.99,-127.152 1847.93,-124.017 1864.84,-121.06"/>
<polygon fill="midnightblue" stroke="midnightblue" points="1811.47,-126.836 1802.23,-132.005 1812.68,-133.731 1811.47,-126.836"/>
</g>
<!-- Node19&#45;&gt;Node14 -->
<g id="edge20" class="edge"><title>Node19&#45;&gt;Node14</title>
<path fill="none" stroke="midnightblue" d="M1296.81,-121.453C1417.11,-103.543 1630.31,-82.1379 1808,-119 1830.39,-123.645 1885.54,-149.177 1920.44,-165.994"/>
<polygon fill="midnightblue" stroke="midnightblue" points="1296.26,-117.997 1286.89,-122.954 1297.3,-124.919 1296.26,-117.997"/>
</g>
<!-- Node20&#45;&gt;Node17 -->
<g id="edge22" class="edge"><title>Node20&#45;&gt;Node17</title>
<path fill="none" stroke="midnightblue" d="M1312.75,-79.8699C1434.37,-76.3817 1635.37,-73.7 1808,-86 1823.75,-87.1224 1840.41,-88.9036 1856.58,-90.9514"/>
<polygon fill="midnightblue" stroke="midnightblue" points="1312.57,-76.3734 1302.68,-80.1657 1312.78,-83.3704 1312.57,-76.3734"/>
</g>
<!-- Node22&#45;&gt;Node3 -->
<g id="edge25" class="edge"><title>Node22&#45;&gt;Node3</title>
<path fill="none" stroke="midnightblue" d="M419.129,-144.717C437.532,-140.483 457.307,-135.934 475.973,-131.64"/>
<polygon fill="midnightblue" stroke="midnightblue" points="418.315,-141.312 409.355,-146.965 419.885,-148.134 418.315,-141.312"/>
</g>
<!-- Node23&#45;&gt;Node3 -->
<g id="edge27" class="edge"><title>Node23&#45;&gt;Node3</title>
<path fill="none" stroke="midnightblue" d="M441.309,-113C452.814,-113 464.463,-113 475.714,-113"/>
<polygon fill="midnightblue" stroke="midnightblue" points="441.25,-109.5 431.25,-113 441.25,-116.5 441.25,-109.5"/>
</g>
<!-- Node24&#45;&gt;Node3 -->
<g id="edge29" class="edge"><title>Node24&#45;&gt;Node3</title>
<path fill="none" stroke="midnightblue" d="M419.129,-81.2833C437.532,-85.5168 457.307,-90.066 475.973,-94.36"/>
<polygon fill="midnightblue" stroke="midnightblue" points="419.885,-77.8657 409.355,-79.0346 418.315,-84.6875 419.885,-77.8657"/>
</g>
<!-- Node25&#45;&gt;Node3 -->
<g id="edge31" class="edge"><title>Node25&#45;&gt;Node3</title>
<path fill="none" stroke="midnightblue" d="M424.646,-33.1292C429.904,-34.9327 435.065,-36.8873 440,-39 472.922,-53.0928 507.155,-75.849 530.021,-92.4097"/>
<polygon fill="midnightblue" stroke="midnightblue" points="425.696,-29.7905 415.104,-30.0445 423.543,-36.4511 425.696,-29.7905"/>
</g>
</g>
</svg>
        <g id="navigator" transform="translate(0 0)" fill="#404254">
                <rect fill="#f2f5e9" fill-opacity="0.5" stroke="#606060" stroke-width=".5" x="0" y="0" width="60" height="60"/>
                <use id="zoomplus" xlink:href="#zoomPlus" x="17" y="9" onmousedown="handleZoom(evt,'in')"/>
                <use id="zoomminus" xlink:href="#zoomMin" x="42" y="9" onmousedown="handleZoom(evt,'out')"/>
                <use id="reset" xlink:href="#resetDef" x="30" y="36" onmousedown="handleReset()"/>
                <g id="arrowUp" xlink:href="#dirArrow" transform="translate(30 24)" onmousedown="handlePan(0,-1)">
                  <use xlink:href="#rim" fill="#404040">
                        <set attributeName="fill" to="#808080" begin="arrowUp.mouseover" end="arrowUp.mouseout"/>
                  </use>
                  <path fill="none" stroke="white" stroke-width="1.5" d="M0,-3.0v7 M-2.5,-0.5L0,-3.0L2.5,-0.5"/>
                </g>
                <g id="arrowRight" xlink:href="#dirArrow" transform="rotate(90) translate(36 -43)" onmousedown="handlePan(1,0)">
                  <use xlink:href="#rim" fill="#404040">
                        <set attributeName="fill" to="#808080" begin="arrowRight.mouseover" end="arrowRight.mouseout"/>
                  </use>
                  <path fill="none" stroke="white" stroke-width="1.5" d="M0,-3.0v7 M-2.5,-0.5L0,-3.0L2.5,-0.5"/>
                </g>
                <g id="arrowDown" xlink:href="#dirArrow" transform="rotate(180) translate(-30 -48)" onmousedown="handlePan(0,1)">
                  <use xlink:href="#rim" fill="#404040">
                        <set attributeName="fill" to="#808080" begin="arrowDown.mouseover" end="arrowDown.mouseout"/>
                  </use>
                  <path fill="none" stroke="white" stroke-width="1.5" d="M0,-3.0v7 M-2.5,-0.5L0,-3.0L2.5,-0.5"/>
                </g>
                <g id="arrowLeft" xlink:href="#dirArrow" transform="rotate(270) translate(-36 17)" onmousedown="handlePan(-1,0)">
                  <use xlink:href="#rim" fill="#404040">
                        <set attributeName="fill" to="#808080" begin="arrowLeft.mouseover" end="arrowLeft.mouseout"/>
                  </use>
                  <path fill="none" stroke="white" stroke-width="1.5" d="M0,-3.0v7 M-2.5,-0.5L0,-3.0L2.5,-0.5"/>
                </g>
        </g>
        <svg viewBox="0 0 15 15" width="100%" height="30px" preserveAspectRatio="xMaxYMin meet">
         <g id="arrow_out" transform="scale(0.3 0.3)">
          <a xlink:href="classgame_player_1_1gui_containers_1_1core_containers_1_1_core_container_setup_ac6df0ac7fc30e15aabe27ac39f137b74_icgraph_org.svg" target="_base">
           <rect id="button" ry="5" rx="5" y="6" x="6" height="38" width="38"
                fill="#f2f5e9" fill-opacity="0.5" stroke="#606060" stroke-width="1.0"/>
           <path id="arrow"
             d="M 11.500037,31.436501 C 11.940474,20.09759 22.043105,11.32322 32.158766,21.979434 L 37.068811,17.246167 C 37.068811,17.246167 37.088388,32 37.088388,32 L 22.160133,31.978069 C 22.160133,31.978069 26.997745,27.140456 26.997745,27.140456 C 18.528582,18.264221 13.291696,25.230495 11.500037,31.436501 z"
             style="fill:#404040;"/>
          </a>
         </g>
        </svg>
</svg>
