<?xml version="1.0" encoding="UTF-8" standalone="no"?>
<!DOCTYPE svg PUBLIC "-//W3C//DTD SVG 1.1//EN"
 "http://www.w3.org/Graphics/SVG/1.1/DTD/svg11.dtd">
<!-- Generated by graphviz version 2.36.0 (20140111.2315)
 -->
<!-- Title: gamePlayer.mainClasses.managers.GuiManager.refreshStore Pages: 1 -->
<svg width="672pt" height="48pt"
 viewBox="0.00 0.00 672.00 48.00" xmlns="http://www.w3.org/2000/svg" xmlns:xlink="http://www.w3.org/1999/xlink">
<g id="graph0" class="graph" transform="scale(1 1) rotate(0) translate(4 44)">
<title>gamePlayer.mainClasses.managers.GuiManager.refreshStore</title>
<polygon fill="white" stroke="none" points="-4,4 -4,-44 668,-44 668,4 -4,4"/>
<!-- Node1 -->
<g id="node1" class="node"><title>Node1</title>
<polygon fill="#bfbfbf" stroke="black" points="0.5,-5 0.5,-35 191.5,-35 191.5,-5 0.5,-5"/>
<text text-anchor="start" x="8.5" y="-23" font-family="Helvetica,sans-Serif" font-size="10.00">gamePlayer.mainClasses.managers.</text>
<text text-anchor="middle" x="96" y="-12" font-family="Helvetica,sans-Serif" font-size="10.00">GuiManager.refreshStore</text>
</g>
<!-- Node2 -->
<g id="node2" class="node"><title>Node2</title>
<g id="a_node2"><a xlink:href="../../d9/df4/classgame_player_1_1main_classes_1_1test_game_manager_1_1_test_game_manager.html#a7059f7910c6c0ecf6d76b752f2a05ea6" target="_top" xlink:title="gamePlayer.mainClasses.test\lGameManager.TestGameManager.test\lGuiStore">
<polygon fill="white" stroke="black" points="228.5,0.5 228.5,-40.5 429.5,-40.5 429.5,0.5 228.5,0.5"/>
<text text-anchor="start" x="236.5" y="-28.5" font-family="Helvetica,sans-Serif" font-size="10.00">gamePlayer.mainClasses.test</text>
<text text-anchor="start" x="236.5" y="-17.5" font-family="Helvetica,sans-Serif" font-size="10.00">GameManager.TestGameManager.test</text>
<text text-anchor="middle" x="329" y="-6.5" font-family="Helvetica,sans-Serif" font-size="10.00">GuiStore</text>
</a>
</g>
</g>
<!-- Node1&#45;&gt;Node2 -->
<g id="edge1" class="edge"><title>Node1&#45;&gt;Node2</title>
<path fill="none" stroke="midnightblue" d="M201.883,-20C210.666,-20 219.531,-20 228.274,-20"/>
<polygon fill="midnightblue" stroke="midnightblue" points="201.623,-16.5001 191.623,-20 201.623,-23.5001 201.623,-16.5001"/>
</g>
<!-- Node3 -->
<g id="node3" class="node"><title>Node3</title>
<g id="a_node3"><a xlink:href="../../d9/df4/classgame_player_1_1main_classes_1_1test_game_manager_1_1_test_game_manager.html#acd60c6a57fa3cb28e5c8b1a884d3180d" target="_top" xlink:title="gamePlayer.mainClasses.test\lGameManager.TestGameManager.run">
<polygon fill="white" stroke="black" points="466,-5 466,-35 664,-35 664,-5 466,-5"/>
<text text-anchor="start" x="474" y="-23" font-family="Helvetica,sans-Serif" font-size="10.00">gamePlayer.mainClasses.test</text>
<text text-anchor="middle" x="565" y="-12" font-family="Helvetica,sans-Serif" font-size="10.00">GameManager.TestGameManager.run</text>
</a>
</g>
</g>
<!-- Node2&#45;&gt;Node3 -->
<g id="edge2" class="edge"><title>Node2&#45;&gt;Node3</title>
<path fill="none" stroke="midnightblue" d="M439.7,-20C448.354,-20 457.061,-20 465.632,-20"/>
<polygon fill="midnightblue" stroke="midnightblue" points="439.576,-16.5001 429.576,-20 439.576,-23.5001 439.576,-16.5001"/>
</g>
</g>
</svg>
