<?xml version="1.0" encoding="UTF-8" standalone="no"?>
<!DOCTYPE svg PUBLIC "-//W3C//DTD SVG 1.1//EN"
 "http://www.w3.org/Graphics/SVG/1.1/DTD/svg11.dtd">
<!-- Generated by graphviz version 2.36.0 (20140111.2315)
 -->
<!-- Title: gamePlayer.mainClasses.managers.GuiManager.multiPlayerGameIsReady Pages: 1 -->
<svg width="664pt" height="38pt"
 viewBox="0.00 0.00 664.00 38.00" xmlns="http://www.w3.org/2000/svg" xmlns:xlink="http://www.w3.org/1999/xlink">
<g id="graph0" class="graph" transform="scale(1 1) rotate(0) translate(4 34)">
<title>gamePlayer.mainClasses.managers.GuiManager.multiPlayerGameIsReady</title>
<polygon fill="white" stroke="none" points="-4,4 -4,-34 660,-34 660,4 -4,4"/>
<!-- Node1 -->
<g id="node1" class="node"><title>Node1</title>
<polygon fill="#bfbfbf" stroke="black" points="0.5,-0 0.5,-30 195.5,-30 195.5,-0 0.5,-0"/>
<text text-anchor="start" x="8.5" y="-18" font-family="Helvetica,sans-Serif" font-size="10.00">gamePlayer.mainClasses.managers.</text>
<text text-anchor="middle" x="98" y="-7" font-family="Helvetica,sans-Serif" font-size="10.00">GuiManager.multiPlayerGameIsReady</text>
</g>
<!-- Node2 -->
<g id="node2" class="node"><title>Node2</title>
<g id="a_node2"><a xlink:href="../../d4/d66/classgame_engine_1_1_co_op_manager.html#a2372337738f4c194dd06dfbb5c412835" target="_top" xlink:title="gameEngine.CoOpManager.is\lReady">
<polygon fill="white" stroke="black" points="232,-0 232,-30 390,-30 390,-0 232,-0"/>
<text text-anchor="start" x="240" y="-18" font-family="Helvetica,sans-Serif" font-size="10.00">gameEngine.CoOpManager.is</text>
<text text-anchor="middle" x="311" y="-7" font-family="Helvetica,sans-Serif" font-size="10.00">Ready</text>
</a>
</g>
</g>
<!-- Node1&#45;&gt;Node2 -->
<g id="edge1" class="edge"><title>Node1&#45;&gt;Node2</title>
<path fill="none" stroke="midnightblue" d="M195.546,-15C204.282,-15 213.099,-15 221.758,-15"/>
<polygon fill="midnightblue" stroke="midnightblue" points="221.834,-18.5001 231.834,-15 221.834,-11.5001 221.834,-18.5001"/>
</g>
<!-- Node3 -->
<g id="node3" class="node"><title>Node3</title>
<g id="a_node3"><a xlink:href="../../da/dae/classutilities_1_1networking_1_1_h_t_t_p_connection.html#a83fe2ca04deb090dbffa9b9ab2e44a3e" target="_top" xlink:title="utilities.networking.HTTPConnection.sendGet">
<polygon fill="white" stroke="black" points="426,-5.5 426,-24.5 656,-24.5 656,-5.5 426,-5.5"/>
<text text-anchor="middle" x="541" y="-12.5" font-family="Helvetica,sans-Serif" font-size="10.00">utilities.networking.HTTPConnection.sendGet</text>
</a>
</g>
</g>
<!-- Node2&#45;&gt;Node3 -->
<g id="edge2" class="edge"><title>Node2&#45;&gt;Node3</title>
<path fill="none" stroke="midnightblue" d="M390.146,-15C398.392,-15 406.917,-15 415.522,-15"/>
<polygon fill="midnightblue" stroke="midnightblue" points="415.648,-18.5001 425.648,-15 415.648,-11.5001 415.648,-18.5001"/>
</g>
</g>
</svg>
