<?xml version="1.0" encoding="UTF-8" standalone="no"?>
<!DOCTYPE svg PUBLIC "-//W3C//DTD SVG 1.1//EN"
 "http://www.w3.org/Graphics/SVG/1.1/DTD/svg11.dtd">
<!-- Generated by graphviz version 2.36.0 (20140111.2315)
 -->
<!-- Title: gamePlayer.mainClasses.managers.GuiManager.deselectTower Pages: 1 -->
<svg width="962pt" height="353pt"
 viewBox="0.00 0.00 962.00 353.00" xmlns="http://www.w3.org/2000/svg" xmlns:xlink="http://www.w3.org/1999/xlink">
<g id="graph0" class="graph" transform="scale(1 1) rotate(0) translate(4 349)">
<title>gamePlayer.mainClasses.managers.GuiManager.deselectTower</title>
<polygon fill="white" stroke="none" points="-4,4 -4,-349 958,-349 958,4 -4,4"/>
<!-- Node1 -->
<g id="node1" class="node"><title>Node1</title>
<polygon fill="#bfbfbf" stroke="black" points="0.5,-249 0.5,-279 191.5,-279 191.5,-249 0.5,-249"/>
<text text-anchor="start" x="8.5" y="-267" font-family="Helvetica,sans-Serif" font-size="10.00">gamePlayer.mainClasses.managers.</text>
<text text-anchor="middle" x="96" y="-256" font-family="Helvetica,sans-Serif" font-size="10.00">GuiManager.deselectTower</text>
</g>
<!-- Node2 -->
<g id="node2" class="node"><title>Node2</title>
<g id="a_node2"><a xlink:href="../../d1/d18/classgame_player_1_1gui_items_1_1tower_upgrade_1_1_tower_upgrade_panel.html#a4dd7a166c98ebf68effcd02c939bd544" target="_top" xlink:title="gamePlayer.guiItems.tower\lUpgrade.TowerUpgradePanel.deselectTower">
<polygon fill="white" stroke="black" points="228,-315 228,-345 452,-345 452,-315 228,-315"/>
<text text-anchor="start" x="236" y="-333" font-family="Helvetica,sans-Serif" font-size="10.00">gamePlayer.guiItems.tower</text>
<text text-anchor="middle" x="340" y="-322" font-family="Helvetica,sans-Serif" font-size="10.00">Upgrade.TowerUpgradePanel.deselectTower</text>
</a>
</g>
</g>
<!-- Node1&#45;&gt;Node2 -->
<g id="edge1" class="edge"><title>Node1&#45;&gt;Node2</title>
<path fill="none" stroke="midnightblue" d="M151.48,-279.027C175.009,-285.503 202.854,-293.147 228,-300 242.693,-304.004 258.487,-308.286 273.42,-312.325"/>
<polygon fill="midnightblue" stroke="midnightblue" points="272.521,-315.708 283.088,-314.938 274.348,-308.95 272.521,-315.708"/>
</g>
<!-- Node3 -->
<g id="node3" class="node"><title>Node3</title>
<g id="a_node3"><a xlink:href="../../d0/dee/classgame_player_1_1gui_items_1_1game_world_1_1_game_world.html#ab07bae6d692a39832fd7ecc25f3b6cf3" target="_top" xlink:title="gamePlayer.guiItems.game\lWorld.GameWorld.getMap">
<polygon fill="white" stroke="black" points="531,-301 531,-331 679,-331 679,-301 531,-301"/>
<text text-anchor="start" x="539" y="-319" font-family="Helvetica,sans-Serif" font-size="10.00">gamePlayer.guiItems.game</text>
<text text-anchor="middle" x="605" y="-308" font-family="Helvetica,sans-Serif" font-size="10.00">World.GameWorld.getMap</text>
</a>
</g>
</g>
<!-- Node1&#45;&gt;Node3 -->
<g id="edge2" class="edge"><title>Node1&#45;&gt;Node3</title>
<path fill="none" stroke="midnightblue" d="M191.768,-273.72C286.289,-283.414 430.076,-298.162 520.446,-307.43"/>
<polygon fill="midnightblue" stroke="midnightblue" points="520.346,-310.938 530.651,-308.477 521.06,-303.975 520.346,-310.938"/>
</g>
<!-- Node4 -->
<g id="node4" class="node"><title>Node4</title>
<g id="a_node4"><a xlink:href="../../da/d69/classgame_player_1_1main_classes_1_1managers_1_1_gui_manager.html#ad5da35abd0e1b0f2938b85549703118e" target="_top" xlink:title="gamePlayer.mainClasses.managers.\lGuiManager.selectTower">
<polygon fill="white" stroke="black" points="244.5,-227 244.5,-257 435.5,-257 435.5,-227 244.5,-227"/>
<text text-anchor="start" x="252.5" y="-245" font-family="Helvetica,sans-Serif" font-size="10.00">gamePlayer.mainClasses.managers.</text>
<text text-anchor="middle" x="340" y="-234" font-family="Helvetica,sans-Serif" font-size="10.00">GuiManager.selectTower</text>
</a>
</g>
</g>
<!-- Node1&#45;&gt;Node4 -->
<g id="edge3" class="edge"><title>Node1&#45;&gt;Node4</title>
<path fill="none" stroke="midnightblue" d="M189.871,-248.972C204.384,-247.48 219.467,-246.072 234.223,-244.829"/>
<polygon fill="midnightblue" stroke="midnightblue" points="234.695,-248.303 244.375,-243.997 234.122,-241.326 234.695,-248.303"/>
</g>
<!-- Node4&#45;&gt;Node1 -->
<g id="edge4" class="edge"><title>Node4&#45;&gt;Node1</title>
<path fill="none" stroke="midnightblue" d="M246.051,-257.036C231.552,-258.526 216.484,-259.933 201.744,-261.173"/>
<polygon fill="midnightblue" stroke="midnightblue" points="201.284,-257.699 191.603,-262.005 201.856,-264.676 201.284,-257.699"/>
</g>
<!-- Node4&#45;&gt;Node3 -->
<g id="edge15" class="edge"><title>Node4&#45;&gt;Node3</title>
<path fill="none" stroke="midnightblue" d="M406.35,-257.075C421.546,-261.288 437.51,-266.3 452,-272 468.836,-278.623 470.999,-284.814 488,-291 498.481,-294.814 509.718,-298.132 520.921,-300.995"/>
<polygon fill="midnightblue" stroke="midnightblue" points="520.193,-304.42 530.738,-303.394 521.855,-297.62 520.193,-304.42"/>
</g>
<!-- Node5 -->
<g id="node5" class="node"><title>Node5</title>
<g id="a_node5"><a xlink:href="../../d0/d94/classgame_engine_1_1_main_engine_manager.html#a10eebcc873d27deccb595f18ca9072fb" target="_top" xlink:title="gameEngine.MainEngineManager.get\lTowerName">
<polygon fill="white" stroke="black" points="508,-252 508,-282 702,-282 702,-252 508,-252"/>
<text text-anchor="start" x="516" y="-270" font-family="Helvetica,sans-Serif" font-size="10.00">gameEngine.MainEngineManager.get</text>
<text text-anchor="middle" x="605" y="-259" font-family="Helvetica,sans-Serif" font-size="10.00">TowerName</text>
</a>
</g>
</g>
<!-- Node4&#45;&gt;Node5 -->
<g id="edge5" class="edge"><title>Node4&#45;&gt;Node5</title>
<path fill="none" stroke="midnightblue" d="M435.577,-250.99C455.7,-252.903 477.077,-254.935 497.607,-256.887"/>
<polygon fill="midnightblue" stroke="midnightblue" points="497.321,-260.375 507.608,-257.837 497.984,-253.407 497.321,-260.375"/>
</g>
<!-- Node7 -->
<g id="node7" class="node"><title>Node7</title>
<g id="a_node7"><a xlink:href="../../dd/df0/classutilities_1_1_java_f_xutilities_1_1image_view_1_1_centered_image_view.html#a063a62060b9b686601364fdbb8b6cd86" target="_top" xlink:title="utilities.JavaFXutilities.image\lView.CenteredImageView.getXCenter">
<polygon fill="white" stroke="black" points="509,-203 509,-233 701,-233 701,-203 509,-203"/>
<text text-anchor="start" x="517" y="-221" font-family="Helvetica,sans-Serif" font-size="10.00">utilities.JavaFXutilities.image</text>
<text text-anchor="middle" x="605" y="-210" font-family="Helvetica,sans-Serif" font-size="10.00">View.CenteredImageView.getXCenter</text>
</a>
</g>
</g>
<!-- Node4&#45;&gt;Node7 -->
<g id="edge7" class="edge"><title>Node4&#45;&gt;Node7</title>
<path fill="none" stroke="midnightblue" d="M435.577,-233.369C456.079,-231.498 477.884,-229.509 498.768,-227.603"/>
<polygon fill="midnightblue" stroke="midnightblue" points="499.296,-231.069 508.936,-226.675 498.66,-224.098 499.296,-231.069"/>
</g>
<!-- Node8 -->
<g id="node8" class="node"><title>Node8</title>
<g id="a_node8"><a xlink:href="../../dd/df0/classutilities_1_1_java_f_xutilities_1_1image_view_1_1_centered_image_view.html#aa05843be4846dc0d9c23489cac21ed3d" target="_top" xlink:title="utilities.JavaFXutilities.image\lView.CenteredImageView.getYCenter">
<polygon fill="white" stroke="black" points="509.5,-154 509.5,-184 700.5,-184 700.5,-154 509.5,-154"/>
<text text-anchor="start" x="517.5" y="-172" font-family="Helvetica,sans-Serif" font-size="10.00">utilities.JavaFXutilities.image</text>
<text text-anchor="middle" x="605" y="-161" font-family="Helvetica,sans-Serif" font-size="10.00">View.CenteredImageView.getYCenter</text>
</a>
</g>
</g>
<!-- Node4&#45;&gt;Node8 -->
<g id="edge8" class="edge"><title>Node4&#45;&gt;Node8</title>
<path fill="none" stroke="midnightblue" d="M383.108,-226.968C412.312,-216.859 452.234,-203.666 488,-194 497.947,-191.312 508.435,-188.72 518.873,-186.289"/>
<polygon fill="midnightblue" stroke="midnightblue" points="519.877,-189.65 528.846,-184.01 518.318,-182.826 519.877,-189.65"/>
</g>
<!-- Node9 -->
<g id="node9" class="node"><title>Node9</title>
<g id="a_node9"><a xlink:href="../../d1/d18/classgame_player_1_1gui_items_1_1tower_upgrade_1_1_tower_upgrade_panel.html#ab1a665d01bbeab4d6a954df1b4f6b10f" target="_top" xlink:title="gamePlayer.guiItems.tower\lUpgrade.TowerUpgradePanel.setCurrentTower">
<polygon fill="white" stroke="black" points="488,-100 488,-130 722,-130 722,-100 488,-100"/>
<text text-anchor="start" x="496" y="-118" font-family="Helvetica,sans-Serif" font-size="10.00">gamePlayer.guiItems.tower</text>
<text text-anchor="middle" x="605" y="-107" font-family="Helvetica,sans-Serif" font-size="10.00">Upgrade.TowerUpgradePanel.setCurrentTower</text>
</a>
</g>
</g>
<!-- Node4&#45;&gt;Node9 -->
<g id="edge9" class="edge"><title>Node4&#45;&gt;Node9</title>
<path fill="none" stroke="midnightblue" d="M359.269,-226.764C385.926,-205.274 437.79,-166.211 488,-144 497.495,-139.8 507.708,-136.134 517.995,-132.954"/>
<polygon fill="midnightblue" stroke="midnightblue" points="519.254,-136.231 527.86,-130.052 517.279,-129.516 519.254,-136.231"/>
</g>
<!-- Node6 -->
<g id="node6" class="node"><title>Node6</title>
<g id="a_node6"><a xlink:href="../../d5/d02/classgame_engine_1_1actors_1_1_base_actor.html#a9f4fa91555a52251f64b91fa182db92b" target="_top" xlink:title="gameEngine.actors.BaseActor.to\lString">
<polygon fill="white" stroke="black" points="769,-255 769,-285 943,-285 943,-255 769,-255"/>
<text text-anchor="start" x="777" y="-273" font-family="Helvetica,sans-Serif" font-size="10.00">gameEngine.actors.BaseActor.to</text>
<text text-anchor="middle" x="856" y="-262" font-family="Helvetica,sans-Serif" font-size="10.00">String</text>
</a>
</g>
</g>
<!-- Node5&#45;&gt;Node6 -->
<g id="edge6" class="edge"><title>Node5&#45;&gt;Node6</title>
<path fill="none" stroke="midnightblue" d="M702.27,-268.16C720.745,-268.382 740.096,-268.616 758.576,-268.838"/>
<polygon fill="midnightblue" stroke="midnightblue" points="758.7,-272.34 768.742,-268.961 758.785,-265.34 758.7,-272.34"/>
</g>
<!-- Node10 -->
<g id="node10" class="node"><title>Node10</title>
<g id="a_node10"><a xlink:href="../../d2/dae/classgame_engine_1_1_data_1_1_tower_info_object.html#af130c92f07cfb719eb25c6b46117e02f" target="_top" xlink:title="gameEngine.Data.TowerInfo\lObject.getImageLocation">
<polygon fill="white" stroke="black" points="781.5,-206 781.5,-236 930.5,-236 930.5,-206 781.5,-206"/>
<text text-anchor="start" x="789.5" y="-224" font-family="Helvetica,sans-Serif" font-size="10.00">gameEngine.Data.TowerInfo</text>
<text text-anchor="middle" x="856" y="-213" font-family="Helvetica,sans-Serif" font-size="10.00">Object.getImageLocation</text>
</a>
</g>
</g>
<!-- Node9&#45;&gt;Node10 -->
<g id="edge10" class="edge"><title>Node9&#45;&gt;Node10</title>
<path fill="none" stroke="midnightblue" d="M695.065,-130.098C704.605,-133.77 713.805,-138.332 722,-144 745.118,-159.99 734.94,-179.926 758,-196 762.26,-198.969 766.846,-201.586 771.623,-203.892"/>
<polygon fill="midnightblue" stroke="midnightblue" points="770.445,-207.196 781.013,-207.955 773.225,-200.772 770.445,-207.196"/>
</g>
<!-- Node11 -->
<g id="node11" class="node"><title>Node11</title>
<g id="a_node11"><a xlink:href="../../dc/d37/classutilities_1_1_java_f_xutilities_1_1image_view_1_1_string_to_image_view_converter.html#a5beb76f3bbfa4aae7d9b897a285b007b" target="_top" xlink:title="utilities.JavaFXutilities.image\lView.StringToImageViewConverter.get\lImageView">
<polygon fill="white" stroke="black" points="758,-146.5 758,-187.5 954,-187.5 954,-146.5 758,-146.5"/>
<text text-anchor="start" x="766" y="-175.5" font-family="Helvetica,sans-Serif" font-size="10.00">utilities.JavaFXutilities.image</text>
<text text-anchor="start" x="766" y="-164.5" font-family="Helvetica,sans-Serif" font-size="10.00">View.StringToImageViewConverter.get</text>
<text text-anchor="middle" x="856" y="-153.5" font-family="Helvetica,sans-Serif" font-size="10.00">ImageView</text>
</a>
</g>
</g>
<!-- Node9&#45;&gt;Node11 -->
<g id="edge11" class="edge"><title>Node9&#45;&gt;Node11</title>
<path fill="none" stroke="midnightblue" d="M678.021,-130.041C699.763,-134.581 724.119,-139.667 747.643,-144.58"/>
<polygon fill="midnightblue" stroke="midnightblue" points="747.159,-148.054 757.663,-146.673 748.59,-141.202 747.159,-148.054"/>
</g>
<!-- Node12 -->
<g id="node12" class="node"><title>Node12</title>
<g id="a_node12"><a xlink:href="../../d2/dae/classgame_engine_1_1_data_1_1_tower_info_object.html#aae3256ac67a3504c1e55820260c542a2" target="_top" xlink:title="gameEngine.Data.TowerInfo\lObject.getMyUpgrade">
<polygon fill="white" stroke="black" points="781.5,-98 781.5,-128 930.5,-128 930.5,-98 781.5,-98"/>
<text text-anchor="start" x="789.5" y="-116" font-family="Helvetica,sans-Serif" font-size="10.00">gameEngine.Data.TowerInfo</text>
<text text-anchor="middle" x="856" y="-105" font-family="Helvetica,sans-Serif" font-size="10.00">Object.getMyUpgrade</text>
</a>
</g>
</g>
<!-- Node9&#45;&gt;Node12 -->
<g id="edge12" class="edge"><title>Node9&#45;&gt;Node12</title>
<path fill="none" stroke="midnightblue" d="M722.116,-114.067C738.653,-113.935 755.388,-113.8 771.147,-113.674"/>
<polygon fill="midnightblue" stroke="midnightblue" points="771.379,-117.172 781.35,-113.592 771.323,-110.172 771.379,-117.172"/>
</g>
<!-- Node13 -->
<g id="node13" class="node"><title>Node13</title>
<g id="a_node13"><a xlink:href="../../d2/dae/classgame_engine_1_1_data_1_1_tower_info_object.html#a52473d08f24e1e664999ec11f8f72632" target="_top" xlink:title="gameEngine.Data.TowerInfo\lObject.getName">
<polygon fill="white" stroke="black" points="781.5,-49 781.5,-79 930.5,-79 930.5,-49 781.5,-49"/>
<text text-anchor="start" x="789.5" y="-67" font-family="Helvetica,sans-Serif" font-size="10.00">gameEngine.Data.TowerInfo</text>
<text text-anchor="middle" x="856" y="-56" font-family="Helvetica,sans-Serif" font-size="10.00">Object.getName</text>
</a>
</g>
</g>
<!-- Node9&#45;&gt;Node13 -->
<g id="edge13" class="edge"><title>Node9&#45;&gt;Node13</title>
<path fill="none" stroke="midnightblue" d="M679.361,-99.9742C708.361,-94.0346 741.84,-87.1773 771.741,-81.053"/>
<polygon fill="midnightblue" stroke="midnightblue" points="772.639,-84.4419 781.733,-79.0065 771.234,-77.5843 772.639,-84.4419"/>
</g>
<!-- Node14 -->
<g id="node14" class="node"><title>Node14</title>
<g id="a_node14"><a xlink:href="../../d2/dae/classgame_engine_1_1_data_1_1_tower_info_object.html#ad81afa853b7dac417c3a781d810e0217" target="_top" xlink:title="gameEngine.Data.TowerInfo\lObject.getSellCost">
<polygon fill="white" stroke="black" points="781.5,-0 781.5,-30 930.5,-30 930.5,-0 781.5,-0"/>
<text text-anchor="start" x="789.5" y="-18" font-family="Helvetica,sans-Serif" font-size="10.00">gameEngine.Data.TowerInfo</text>
<text text-anchor="middle" x="856" y="-7" font-family="Helvetica,sans-Serif" font-size="10.00">Object.getSellCost</text>
</a>
</g>
</g>
<!-- Node9&#45;&gt;Node14 -->
<g id="edge14" class="edge"><title>Node9&#45;&gt;Node14</title>
<path fill="none" stroke="midnightblue" d="M631.844,-99.8564C661.474,-83.0265 711.907,-55.9873 758,-39 763.875,-36.8347 770.022,-34.8029 776.247,-32.91"/>
<polygon fill="midnightblue" stroke="midnightblue" points="777.443,-36.2071 786.065,-30.0505 775.486,-29.4863 777.443,-36.2071"/>
</g>
</g>
</svg>
