<?xml version="1.0" encoding="UTF-8" standalone="no"?>
<!DOCTYPE svg PUBLIC "-//W3C//DTD SVG 1.1//EN"
 "http://www.w3.org/Graphics/SVG/1.1/DTD/svg11.dtd">
<!-- Generated by graphviz version 2.36.0 (20140111.2315)
 -->
<!-- Title: gamePlayer.mainClasses.managers.GuiManager.selectTower Pages: 1 -->
<svg width="730pt" height="391pt"
 viewBox="0.00 0.00 730.00 391.00" xmlns="http://www.w3.org/2000/svg" xmlns:xlink="http://www.w3.org/1999/xlink">
<g id="graph0" class="graph" transform="scale(1 1) rotate(0) translate(4 387)">
<title>gamePlayer.mainClasses.managers.GuiManager.selectTower</title>
<polygon fill="white" stroke="none" points="-4,4 -4,-387 726,-387 726,4 -4,4"/>
<!-- Node1 -->
<g id="node1" class="node"><title>Node1</title>
<polygon fill="#bfbfbf" stroke="black" points="0.5,-255 0.5,-285 191.5,-285 191.5,-255 0.5,-255"/>
<text text-anchor="start" x="8.5" y="-273" font-family="Helvetica,sans-Serif" font-size="10.00">gamePlayer.mainClasses.managers.</text>
<text text-anchor="middle" x="96" y="-262" font-family="Helvetica,sans-Serif" font-size="10.00">GuiManager.selectTower</text>
</g>
<!-- Node2 -->
<g id="node2" class="node"><title>Node2</title>
<g id="a_node2"><a xlink:href="../../da/d69/classgame_player_1_1main_classes_1_1managers_1_1_gui_manager.html#a3c54e67481646eaa1208a9f69cc1ea78" target="_top" xlink:title="gamePlayer.mainClasses.managers.\lGuiManager.deselectTower">
<polygon fill="white" stroke="black" points="249.5,-343 249.5,-373 440.5,-373 440.5,-343 249.5,-343"/>
<text text-anchor="start" x="257.5" y="-361" font-family="Helvetica,sans-Serif" font-size="10.00">gamePlayer.mainClasses.managers.</text>
<text text-anchor="middle" x="345" y="-350" font-family="Helvetica,sans-Serif" font-size="10.00">GuiManager.deselectTower</text>
</a>
</g>
</g>
<!-- Node1&#45;&gt;Node2 -->
<g id="edge1" class="edge"><title>Node1&#45;&gt;Node2</title>
<path fill="none" stroke="midnightblue" d="M144.155,-285.074C168.756,-295.609 199.577,-309.107 228,-319 251.255,-327.094 277.805,-334.117 299.631,-340.218"/>
<polygon fill="midnightblue" stroke="midnightblue" points="298.723,-343.599 309.299,-342.958 300.631,-336.864 298.723,-343.599"/>
</g>
<!-- Node4 -->
<g id="node4" class="node"><title>Node4</title>
<g id="a_node4"><a xlink:href="../../d0/dee/classgame_player_1_1gui_items_1_1game_world_1_1_game_world.html#ab07bae6d692a39832fd7ecc25f3b6cf3" target="_top" xlink:title="gamePlayer.guiItems.game\lWorld.GameWorld.getMap">
<polygon fill="white" stroke="black" points="536,-304 536,-334 684,-334 684,-304 536,-304"/>
<text text-anchor="start" x="544" y="-322" font-family="Helvetica,sans-Serif" font-size="10.00">gamePlayer.guiItems.game</text>
<text text-anchor="middle" x="610" y="-311" font-family="Helvetica,sans-Serif" font-size="10.00">World.GameWorld.getMap</text>
</a>
</g>
</g>
<!-- Node1&#45;&gt;Node4 -->
<g id="edge5" class="edge"><title>Node1&#45;&gt;Node4</title>
<path fill="none" stroke="midnightblue" d="M170.555,-285.019C189.228,-288.406 209.299,-291.681 228,-294 329.991,-306.646 448.189,-313.144 525.554,-316.302"/>
<polygon fill="midnightblue" stroke="midnightblue" points="525.591,-319.807 535.723,-316.708 525.87,-312.812 525.591,-319.807"/>
</g>
<!-- Node5 -->
<g id="node5" class="node"><title>Node5</title>
<g id="a_node5"><a xlink:href="../../d0/d94/classgame_engine_1_1_main_engine_manager.html#a10eebcc873d27deccb595f18ca9072fb" target="_top" xlink:title="gameEngine.MainEngineManager.get\lTowerName">
<polygon fill="white" stroke="black" points="248,-255 248,-285 442,-285 442,-255 248,-255"/>
<text text-anchor="start" x="256" y="-273" font-family="Helvetica,sans-Serif" font-size="10.00">gameEngine.MainEngineManager.get</text>
<text text-anchor="middle" x="345" y="-262" font-family="Helvetica,sans-Serif" font-size="10.00">TowerName</text>
</a>
</g>
</g>
<!-- Node1&#45;&gt;Node5 -->
<g id="edge6" class="edge"><title>Node1&#45;&gt;Node5</title>
<path fill="none" stroke="midnightblue" d="M191.79,-270C206.713,-270 222.227,-270 237.395,-270"/>
<polygon fill="midnightblue" stroke="midnightblue" points="237.829,-273.5 247.829,-270 237.829,-266.5 237.829,-273.5"/>
</g>
<!-- Node7 -->
<g id="node7" class="node"><title>Node7</title>
<g id="a_node7"><a xlink:href="../../dd/df0/classutilities_1_1_java_f_xutilities_1_1image_view_1_1_centered_image_view.html#a063a62060b9b686601364fdbb8b6cd86" target="_top" xlink:title="utilities.JavaFXutilities.image\lView.CenteredImageView.getXCenter">
<polygon fill="white" stroke="black" points="249,-206 249,-236 441,-236 441,-206 249,-206"/>
<text text-anchor="start" x="257" y="-224" font-family="Helvetica,sans-Serif" font-size="10.00">utilities.JavaFXutilities.image</text>
<text text-anchor="middle" x="345" y="-213" font-family="Helvetica,sans-Serif" font-size="10.00">View.CenteredImageView.getXCenter</text>
</a>
</g>
</g>
<!-- Node1&#45;&gt;Node7 -->
<g id="edge8" class="edge"><title>Node1&#45;&gt;Node7</title>
<path fill="none" stroke="midnightblue" d="M172.787,-254.965C199.815,-249.604 230.446,-243.527 258.252,-238.011"/>
<polygon fill="midnightblue" stroke="midnightblue" points="259.229,-241.385 268.357,-236.006 257.867,-234.519 259.229,-241.385"/>
</g>
<!-- Node8 -->
<g id="node8" class="node"><title>Node8</title>
<g id="a_node8"><a xlink:href="../../dd/df0/classutilities_1_1_java_f_xutilities_1_1image_view_1_1_centered_image_view.html#aa05843be4846dc0d9c23489cac21ed3d" target="_top" xlink:title="utilities.JavaFXutilities.image\lView.CenteredImageView.getYCenter">
<polygon fill="white" stroke="black" points="249.5,-157 249.5,-187 440.5,-187 440.5,-157 249.5,-157"/>
<text text-anchor="start" x="257.5" y="-175" font-family="Helvetica,sans-Serif" font-size="10.00">utilities.JavaFXutilities.image</text>
<text text-anchor="middle" x="345" y="-164" font-family="Helvetica,sans-Serif" font-size="10.00">View.CenteredImageView.getYCenter</text>
</a>
</g>
</g>
<!-- Node1&#45;&gt;Node8 -->
<g id="edge9" class="edge"><title>Node1&#45;&gt;Node8</title>
<path fill="none" stroke="midnightblue" d="M118.683,-254.946C143.857,-238.15 187.161,-211.33 228,-196 233.939,-193.771 240.13,-191.73 246.427,-189.866"/>
<polygon fill="midnightblue" stroke="midnightblue" points="247.702,-193.143 256.389,-187.078 245.815,-186.402 247.702,-193.143"/>
</g>
<!-- Node9 -->
<g id="node9" class="node"><title>Node9</title>
<g id="a_node9"><a xlink:href="../../d1/d18/classgame_player_1_1gui_items_1_1tower_upgrade_1_1_tower_upgrade_panel.html#ab1a665d01bbeab4d6a954df1b4f6b10f" target="_top" xlink:title="gamePlayer.guiItems.tower\lUpgrade.TowerUpgradePanel.setCurrentTower">
<polygon fill="white" stroke="black" points="228,-103 228,-133 462,-133 462,-103 228,-103"/>
<text text-anchor="start" x="236" y="-121" font-family="Helvetica,sans-Serif" font-size="10.00">gamePlayer.guiItems.tower</text>
<text text-anchor="middle" x="345" y="-110" font-family="Helvetica,sans-Serif" font-size="10.00">Upgrade.TowerUpgradePanel.setCurrentTower</text>
</a>
</g>
</g>
<!-- Node1&#45;&gt;Node9 -->
<g id="edge10" class="edge"><title>Node1&#45;&gt;Node9</title>
<path fill="none" stroke="midnightblue" d="M108.586,-254.938C129.504,-228.824 176.24,-175.239 228,-147 235.547,-142.883 243.688,-139.338 252.033,-136.29"/>
<polygon fill="midnightblue" stroke="midnightblue" points="253.186,-139.594 261.521,-133.054 250.927,-132.969 253.186,-139.594"/>
</g>
<!-- Node2&#45;&gt;Node1 -->
<g id="edge4" class="edge"><title>Node2&#45;&gt;Node1</title>
<path fill="none" stroke="midnightblue" d="M249.285,-343.857C242.04,-341.693 234.876,-339.393 228,-337 190.97,-324.111 149.871,-305.103 123.756,-290.297"/>
<polygon fill="midnightblue" stroke="midnightblue" points="125.241,-287.11 114.848,-285.052 121.689,-293.142 125.241,-287.11"/>
</g>
<!-- Node3 -->
<g id="node3" class="node"><title>Node3</title>
<g id="a_node3"><a xlink:href="../../d1/d18/classgame_player_1_1gui_items_1_1tower_upgrade_1_1_tower_upgrade_panel.html#a4dd7a166c98ebf68effcd02c939bd544" target="_top" xlink:title="gamePlayer.guiItems.tower\lUpgrade.TowerUpgradePanel.deselectTower">
<polygon fill="white" stroke="black" points="498,-353 498,-383 722,-383 722,-353 498,-353"/>
<text text-anchor="start" x="506" y="-371" font-family="Helvetica,sans-Serif" font-size="10.00">gamePlayer.guiItems.tower</text>
<text text-anchor="middle" x="610" y="-360" font-family="Helvetica,sans-Serif" font-size="10.00">Upgrade.TowerUpgradePanel.deselectTower</text>
</a>
</g>
</g>
<!-- Node2&#45;&gt;Node3 -->
<g id="edge2" class="edge"><title>Node2&#45;&gt;Node3</title>
<path fill="none" stroke="midnightblue" d="M440.577,-361.596C455.799,-362.175 471.738,-362.781 487.485,-363.38"/>
<polygon fill="midnightblue" stroke="midnightblue" points="487.671,-366.889 497.796,-363.772 487.937,-359.894 487.671,-366.889"/>
</g>
<!-- Node2&#45;&gt;Node4 -->
<g id="edge3" class="edge"><title>Node2&#45;&gt;Node4</title>
<path fill="none" stroke="midnightblue" d="M440.577,-343.975C468.392,-339.851 498.604,-335.371 525.66,-331.358"/>
<polygon fill="midnightblue" stroke="midnightblue" points="526.485,-334.774 535.863,-329.845 525.458,-327.85 526.485,-334.774"/>
</g>
<!-- Node6 -->
<g id="node6" class="node"><title>Node6</title>
<g id="a_node6"><a xlink:href="../../d5/d02/classgame_engine_1_1actors_1_1_base_actor.html#a9f4fa91555a52251f64b91fa182db92b" target="_top" xlink:title="gameEngine.actors.BaseActor.to\lString">
<polygon fill="white" stroke="black" points="523,-255 523,-285 697,-285 697,-255 523,-255"/>
<text text-anchor="start" x="531" y="-273" font-family="Helvetica,sans-Serif" font-size="10.00">gameEngine.actors.BaseActor.to</text>
<text text-anchor="middle" x="610" y="-262" font-family="Helvetica,sans-Serif" font-size="10.00">String</text>
</a>
</g>
</g>
<!-- Node5&#45;&gt;Node6 -->
<g id="edge7" class="edge"><title>Node5&#45;&gt;Node6</title>
<path fill="none" stroke="midnightblue" d="M442.065,-270C465.073,-270 489.645,-270 512.665,-270"/>
<polygon fill="midnightblue" stroke="midnightblue" points="512.773,-273.5 522.773,-270 512.773,-266.5 512.773,-273.5"/>
</g>
<!-- Node10 -->
<g id="node10" class="node"><title>Node10</title>
<g id="a_node10"><a xlink:href="../../d2/dae/classgame_engine_1_1_data_1_1_tower_info_object.html#af130c92f07cfb719eb25c6b46117e02f" target="_top" xlink:title="gameEngine.Data.TowerInfo\lObject.getImageLocation">
<polygon fill="white" stroke="black" points="535.5,-206 535.5,-236 684.5,-236 684.5,-206 535.5,-206"/>
<text text-anchor="start" x="543.5" y="-224" font-family="Helvetica,sans-Serif" font-size="10.00">gameEngine.Data.TowerInfo</text>
<text text-anchor="middle" x="610" y="-213" font-family="Helvetica,sans-Serif" font-size="10.00">Object.getImageLocation</text>
</a>
</g>
</g>
<!-- Node9&#45;&gt;Node10 -->
<g id="edge11" class="edge"><title>Node9&#45;&gt;Node10</title>
<path fill="none" stroke="midnightblue" d="M434.311,-133.101C444.091,-136.771 453.554,-141.332 462,-147 484.439,-162.059 475.386,-181.205 498,-196 506.368,-201.475 515.768,-205.762 525.463,-209.117"/>
<polygon fill="midnightblue" stroke="midnightblue" points="524.641,-212.527 535.23,-212.171 526.731,-205.846 524.641,-212.527"/>
</g>
<!-- Node11 -->
<g id="node11" class="node"><title>Node11</title>
<g id="a_node11"><a xlink:href="../../dc/d37/classutilities_1_1_java_f_xutilities_1_1image_view_1_1_string_to_image_view_converter.html#a5beb76f3bbfa4aae7d9b897a285b007b" target="_top" xlink:title="utilities.JavaFXutilities.image\lView.StringToImageViewConverter.get\lImageView">
<polygon fill="white" stroke="black" points="512,-146.5 512,-187.5 708,-187.5 708,-146.5 512,-146.5"/>
<text text-anchor="start" x="520" y="-175.5" font-family="Helvetica,sans-Serif" font-size="10.00">utilities.JavaFXutilities.image</text>
<text text-anchor="start" x="520" y="-164.5" font-family="Helvetica,sans-Serif" font-size="10.00">View.StringToImageViewConverter.get</text>
<text text-anchor="middle" x="610" y="-153.5" font-family="Helvetica,sans-Serif" font-size="10.00">ImageView</text>
</a>
</g>
</g>
<!-- Node9&#45;&gt;Node11 -->
<g id="edge12" class="edge"><title>Node9&#45;&gt;Node11</title>
<path fill="none" stroke="midnightblue" d="M426.696,-133.035C450.424,-137.455 476.759,-142.362 501.866,-147.04"/>
<polygon fill="midnightblue" stroke="midnightblue" points="501.319,-150.498 511.791,-148.889 502.601,-143.616 501.319,-150.498"/>
</g>
<!-- Node12 -->
<g id="node12" class="node"><title>Node12</title>
<g id="a_node12"><a xlink:href="../../d2/dae/classgame_engine_1_1_data_1_1_tower_info_object.html#aae3256ac67a3504c1e55820260c542a2" target="_top" xlink:title="gameEngine.Data.TowerInfo\lObject.getMyUpgrade">
<polygon fill="white" stroke="black" points="535.5,-98 535.5,-128 684.5,-128 684.5,-98 535.5,-98"/>
<text text-anchor="start" x="543.5" y="-116" font-family="Helvetica,sans-Serif" font-size="10.00">gameEngine.Data.TowerInfo</text>
<text text-anchor="middle" x="610" y="-105" font-family="Helvetica,sans-Serif" font-size="10.00">Object.getMyUpgrade</text>
</a>
</g>
</g>
<!-- Node9&#45;&gt;Node12 -->
<g id="edge13" class="edge"><title>Node9&#45;&gt;Node12</title>
<path fill="none" stroke="midnightblue" d="M462.121,-115.792C483.428,-115.387 505.281,-114.972 525.401,-114.589"/>
<polygon fill="midnightblue" stroke="midnightblue" points="525.508,-118.088 535.439,-114.398 525.375,-111.089 525.508,-118.088"/>
</g>
<!-- Node13 -->
<g id="node13" class="node"><title>Node13</title>
<g id="a_node13"><a xlink:href="../../d2/dae/classgame_engine_1_1_data_1_1_tower_info_object.html#a52473d08f24e1e664999ec11f8f72632" target="_top" xlink:title="gameEngine.Data.TowerInfo\lObject.getName">
<polygon fill="white" stroke="black" points="535.5,-49 535.5,-79 684.5,-79 684.5,-49 535.5,-49"/>
<text text-anchor="start" x="543.5" y="-67" font-family="Helvetica,sans-Serif" font-size="10.00">gameEngine.Data.TowerInfo</text>
<text text-anchor="middle" x="610" y="-56" font-family="Helvetica,sans-Serif" font-size="10.00">Object.getName</text>
</a>
</g>
</g>
<!-- Node9&#45;&gt;Node13 -->
<g id="edge14" class="edge"><title>Node9&#45;&gt;Node13</title>
<path fill="none" stroke="midnightblue" d="M419.26,-102.958C452.322,-96.1695 491.54,-88.1173 525.715,-81.1004"/>
<polygon fill="midnightblue" stroke="midnightblue" points="526.585,-84.4947 535.677,-79.0549 525.177,-77.6378 526.585,-84.4947"/>
</g>
<!-- Node14 -->
<g id="node14" class="node"><title>Node14</title>
<g id="a_node14"><a xlink:href="../../d2/dae/classgame_engine_1_1_data_1_1_tower_info_object.html#ad81afa853b7dac417c3a781d810e0217" target="_top" xlink:title="gameEngine.Data.TowerInfo\lObject.getSellCost">
<polygon fill="white" stroke="black" points="535.5,-0 535.5,-30 684.5,-30 684.5,-0 535.5,-0"/>
<text text-anchor="start" x="543.5" y="-18" font-family="Helvetica,sans-Serif" font-size="10.00">gameEngine.Data.TowerInfo</text>
<text text-anchor="middle" x="610" y="-7" font-family="Helvetica,sans-Serif" font-size="10.00">Object.getSellCost</text>
</a>
</g>
</g>
<!-- Node9&#45;&gt;Node14 -->
<g id="edge15" class="edge"><title>Node9&#45;&gt;Node14</title>
<path fill="none" stroke="midnightblue" d="M370.092,-102.894C399.319,-85.1898 450.58,-56.1018 498,-39 506.81,-35.8228 516.172,-32.9984 525.578,-30.5052"/>
<polygon fill="midnightblue" stroke="midnightblue" points="526.539,-33.8725 535.374,-28.0261 524.821,-27.0864 526.539,-33.8725"/>
</g>
</g>
</svg>
