<?xml version="1.0" encoding="UTF-8" standalone="no"?>
<!DOCTYPE svg PUBLIC "-//W3C//DTD SVG 1.1//EN"
 "http://www.w3.org/Graphics/SVG/1.1/DTD/svg11.dtd">
<!-- Generated by graphviz version 2.36.0 (20140111.2315)
 -->
<!-- Title: gamePlayer.mainClasses.managers.GuiManager.fillStore Pages: 1 -->
<!--zoomable 283 -->
<svg id="main" version="1.1" xmlns="http://www.w3.org/2000/svg" xmlns:xlink="http://www.w3.org/1999/xlink" xml:space="preserve" onload="init(evt)">
<style type="text/css"><![CDATA[
.edge:hover path { stroke: red; }
.edge:hover polygon { stroke: red; fill: red; }
]]></style>
<script type="text/javascript"><![CDATA[
var edges = document.getElementsByTagName('g');
if (edges && edges.length) {
  for (var i=0;i<edges.length;i++) {
    if (edges[i].id.substr(0,4)=='edge') {
      edges[i].setAttribute('class','edge');
    }
  }
}
]]></script>
        <defs>
                <circle id="rim" cx="0" cy="0" r="7"/>
                <circle id="rim2" cx="0" cy="0" r="3.5"/>
                <g id="zoomPlus">
                        <use xlink:href="#rim" fill="#404040">
                                <set attributeName="fill" to="#808080" begin="zoomplus.mouseover" end="zoomplus.mouseout"/>
                        </use>
                        <path d="M-4,0h8M0,-4v8" fill="none" stroke="white" stroke-width="1.5" pointer-events="none"/>
                </g>
                <g id="zoomMin">
                        <use xlink:href="#rim" fill="#404040">
                                <set attributeName="fill" to="#808080" begin="zoomminus.mouseover" end="zoomminus.mouseout"/>
                        </use>
                        <path d="M-4,0h8" fill="none" stroke="white" stroke-width="1.5" pointer-events="none"/>
                </g>
                <g id="dirArrow">
                        <path fill="none" stroke="white" stroke-width="1.5" d="M0,-3.0v7 M-2.5,-0.5L0,-3.0L2.5,-0.5"/>
                </g>
               <g id="resetDef">
                       <use xlink:href="#rim2" fill="#404040">
                               <set attributeName="fill" to="#808080" begin="reset.mouseover" end="reset.mouseout"/>
                       </use>
               </g>
        </defs>

<script type="text/javascript">
var viewWidth = 1152;
var viewHeight = 283;
var sectionId = 'dynsection-18';
</script>
<script xlink:href="../../svgpan.js"/>
<svg id="graph" class="graph">
<g id="viewport">
<title>gamePlayer.mainClasses.managers.GuiManager.fillStore</title>
<polygon fill="white" stroke="none" points="-4,4 -4,-279 1148,-279 1148,4 -4,4"/>
<!-- Node1 -->
<g id="node1" class="node"><title>Node1</title>
<polygon fill="#bfbfbf" stroke="black" points="0.5,-97 0.5,-127 191.5,-127 191.5,-97 0.5,-97"/>
<text text-anchor="start" x="8.5" y="-115" font-family="Helvetica,sans-Serif" font-size="10.00">gamePlayer.mainClasses.managers.</text>
<text text-anchor="middle" x="96" y="-104" font-family="Helvetica,sans-Serif" font-size="10.00">GuiManager.fillStore</text>
</g>
<!-- Node2 -->
<g id="node2" class="node"><title>Node2</title>
<g id="a_node2"><a xlink:href="../../d1/dd3/classgame_player_1_1gui_items_1_1store_1_1_store.html#ad13bae4293f420c408c63393a7e2d0b7" target="_top" xlink:title="gamePlayer.guiItems.store.\lStore.fillStore">
<polygon fill="white" stroke="black" points="228,-97 228,-127 376,-127 376,-97 228,-97"/>
<text text-anchor="start" x="236" y="-115" font-family="Helvetica,sans-Serif" font-size="10.00">gamePlayer.guiItems.store.</text>
<text text-anchor="middle" x="302" y="-104" font-family="Helvetica,sans-Serif" font-size="10.00">Store.fillStore</text>
</a>
</g>
</g>
<!-- Node1&#45;&gt;Node2 -->
<g id="edge1" class="edge"><title>Node1&#45;&gt;Node2</title>
<path fill="none" stroke="midnightblue" d="M191.535,-112C200.3,-112 209.138,-112 217.79,-112"/>
<polygon fill="midnightblue" stroke="midnightblue" points="217.845,-115.5 227.845,-112 217.845,-108.5 217.845,-115.5"/>
</g>
<!-- Node3 -->
<g id="node3" class="node"><title>Node3</title>
<g id="a_node3"><a xlink:href="../../d1/dd3/classgame_player_1_1gui_items_1_1store_1_1_store.html#a3a475d789937d88d409aeac21ac44b73" target="_top" xlink:title="gamePlayer.guiItems.store.\lStore.addStoreItem">
<polygon fill="white" stroke="black" points="412,-122 412,-152 560,-152 560,-122 412,-122"/>
<text text-anchor="start" x="420" y="-140" font-family="Helvetica,sans-Serif" font-size="10.00">gamePlayer.guiItems.store.</text>
<text text-anchor="middle" x="486" y="-129" font-family="Helvetica,sans-Serif" font-size="10.00">Store.addStoreItem</text>
</a>
</g>
</g>
<!-- Node2&#45;&gt;Node3 -->
<g id="edge2" class="edge"><title>Node2&#45;&gt;Node3</title>
<path fill="none" stroke="midnightblue" d="M376.24,-122.06C384.688,-123.221 393.349,-124.411 401.916,-125.587"/>
<polygon fill="midnightblue" stroke="midnightblue" points="401.527,-129.067 411.91,-126.96 402.48,-122.132 401.527,-129.067"/>
</g>
<!-- Node13 -->
<g id="node13" class="node"><title>Node13</title>
<g id="a_node13"><a xlink:href="../../d1/dd3/classgame_player_1_1gui_items_1_1store_1_1_store.html#ab1377093321780f308cc6b8a0b3251a1" target="_top" xlink:title="gamePlayer.guiItems.store.\lStore.refreshStore">
<polygon fill="white" stroke="black" points="412,-73 412,-103 560,-103 560,-73 412,-73"/>
<text text-anchor="start" x="420" y="-91" font-family="Helvetica,sans-Serif" font-size="10.00">gamePlayer.guiItems.store.</text>
<text text-anchor="middle" x="486" y="-80" font-family="Helvetica,sans-Serif" font-size="10.00">Store.refreshStore</text>
</a>
</g>
</g>
<!-- Node2&#45;&gt;Node13 -->
<g id="edge12" class="edge"><title>Node2&#45;&gt;Node13</title>
<path fill="none" stroke="midnightblue" d="M376.24,-102.342C384.688,-101.228 393.349,-100.086 401.916,-98.9562"/>
<polygon fill="midnightblue" stroke="midnightblue" points="402.454,-102.416 411.91,-97.6382 401.538,-95.4757 402.454,-102.416"/>
</g>
<!-- Node4 -->
<g id="node4" class="node"><title>Node4</title>
<g id="a_node4"><a xlink:href="../../dc/dae/classgame_player_1_1gui_items_1_1store_1_1_store_item.html#a142486d1bd08d5715be57ebdbdb89216" target="_top" xlink:title="gamePlayer.guiItems.store.\lStoreItem.getCost">
<polygon fill="white" stroke="black" points="596,-245 596,-275 744,-275 744,-245 596,-245"/>
<text text-anchor="start" x="604" y="-263" font-family="Helvetica,sans-Serif" font-size="10.00">gamePlayer.guiItems.store.</text>
<text text-anchor="middle" x="670" y="-252" font-family="Helvetica,sans-Serif" font-size="10.00">StoreItem.getCost</text>
</a>
</g>
</g>
<!-- Node3&#45;&gt;Node4 -->
<g id="edge3" class="edge"><title>Node3&#45;&gt;Node4</title>
<path fill="none" stroke="midnightblue" d="M499.992,-152.003C519.082,-173.208 556.724,-211.928 596,-235 599.573,-237.099 603.349,-239.056 607.227,-240.875"/>
<polygon fill="midnightblue" stroke="midnightblue" points="605.844,-244.09 616.41,-244.868 608.635,-237.67 605.844,-244.09"/>
</g>
<!-- Node5 -->
<g id="node5" class="node"><title>Node5</title>
<g id="a_node5"><a xlink:href="../../dc/dae/classgame_player_1_1gui_items_1_1store_1_1_store_item.html#ace321a88ffc3435a3a29608d07734c88" target="_top" xlink:title="gamePlayer.guiItems.store.\lStoreItem.getImageView">
<polygon fill="white" stroke="black" points="596,-196 596,-226 744,-226 744,-196 596,-196"/>
<text text-anchor="start" x="604" y="-214" font-family="Helvetica,sans-Serif" font-size="10.00">gamePlayer.guiItems.store.</text>
<text text-anchor="middle" x="670" y="-203" font-family="Helvetica,sans-Serif" font-size="10.00">StoreItem.getImageView</text>
</a>
</g>
</g>
<!-- Node3&#45;&gt;Node5 -->
<g id="edge4" class="edge"><title>Node3&#45;&gt;Node5</title>
<path fill="none" stroke="midnightblue" d="M518.624,-152.151C540.205,-162.258 569.563,-175.557 596,-186 601.507,-188.176 607.289,-190.345 613.087,-192.446"/>
<polygon fill="midnightblue" stroke="midnightblue" points="612.218,-195.852 622.813,-195.906 614.564,-189.257 612.218,-195.852"/>
</g>
<!-- Node6 -->
<g id="node6" class="node"><title>Node6</title>
<g id="a_node6"><a xlink:href="../../dc/dae/classgame_player_1_1gui_items_1_1store_1_1_store_item.html#a8ae812518987daf8a4a382321dd5def5" target="_top" xlink:title="gamePlayer.guiItems.store.\lStoreItem.getName">
<polygon fill="white" stroke="black" points="596,-147 596,-177 744,-177 744,-147 596,-147"/>
<text text-anchor="start" x="604" y="-165" font-family="Helvetica,sans-Serif" font-size="10.00">gamePlayer.guiItems.store.</text>
<text text-anchor="middle" x="670" y="-154" font-family="Helvetica,sans-Serif" font-size="10.00">StoreItem.getName</text>
</a>
</g>
</g>
<!-- Node3&#45;&gt;Node6 -->
<g id="edge5" class="edge"><title>Node3&#45;&gt;Node6</title>
<path fill="none" stroke="midnightblue" d="M560.24,-147.06C568.688,-148.221 577.349,-149.411 585.916,-150.587"/>
<polygon fill="midnightblue" stroke="midnightblue" points="585.527,-154.067 595.91,-151.96 586.48,-147.132 585.527,-154.067"/>
</g>
<!-- Node7 -->
<g id="node7" class="node"><title>Node7</title>
<g id="a_node7"><a xlink:href="../../d1/dd3/classgame_player_1_1gui_items_1_1store_1_1_store.html#ac652ff32d9b01696f457c4684d22a5f2" target="_top" xlink:title="gamePlayer.guiItems.store.\lStore.placeTower">
<polygon fill="white" stroke="black" points="596,-98 596,-128 744,-128 744,-98 596,-98"/>
<text text-anchor="start" x="604" y="-116" font-family="Helvetica,sans-Serif" font-size="10.00">gamePlayer.guiItems.store.</text>
<text text-anchor="middle" x="670" y="-105" font-family="Helvetica,sans-Serif" font-size="10.00">Store.placeTower</text>
</a>
</g>
</g>
<!-- Node3&#45;&gt;Node7 -->
<g id="edge6" class="edge"><title>Node3&#45;&gt;Node7</title>
<path fill="none" stroke="midnightblue" d="M560.24,-127.342C568.688,-126.228 577.349,-125.086 585.916,-123.956"/>
<polygon fill="midnightblue" stroke="midnightblue" points="586.454,-127.416 595.91,-122.638 585.538,-120.476 586.454,-127.416"/>
</g>
<!-- Node11 -->
<g id="node11" class="node"><title>Node11</title>
<g id="a_node11"><a xlink:href="../../d1/dd3/classgame_player_1_1gui_items_1_1store_1_1_store.html#a1600c932a01da118ec135b26e55c6b36" target="_top" xlink:title="gamePlayer.guiItems.store.\lStore.showCost">
<polygon fill="white" stroke="black" points="596,-49 596,-79 744,-79 744,-49 596,-49"/>
<text text-anchor="start" x="604" y="-67" font-family="Helvetica,sans-Serif" font-size="10.00">gamePlayer.guiItems.store.</text>
<text text-anchor="middle" x="670" y="-56" font-family="Helvetica,sans-Serif" font-size="10.00">Store.showCost</text>
</a>
</g>
</g>
<!-- Node3&#45;&gt;Node11 -->
<g id="edge10" class="edge"><title>Node3&#45;&gt;Node11</title>
<path fill="none" stroke="midnightblue" d="M536.339,-121.903C544.379,-118.933 552.518,-115.607 560,-112 577.103,-103.755 578.897,-97.2455 596,-89 600.559,-86.802 605.362,-84.7083 610.239,-82.7359"/>
<polygon fill="midnightblue" stroke="midnightblue" points="611.593,-85.9647 619.661,-79.097 609.071,-79.4348 611.593,-85.9647"/>
</g>
<!-- Node12 -->
<g id="node12" class="node"><title>Node12</title>
<g id="a_node12"><a xlink:href="../../d1/dd3/classgame_player_1_1gui_items_1_1store_1_1_store.html#ab6e81515c1cfc8fadbd7daa5647722e6" target="_top" xlink:title="gamePlayer.guiItems.store.\lStore.showGraphic">
<polygon fill="white" stroke="black" points="596,-0 596,-30 744,-30 744,-0 596,-0"/>
<text text-anchor="start" x="604" y="-18" font-family="Helvetica,sans-Serif" font-size="10.00">gamePlayer.guiItems.store.</text>
<text text-anchor="middle" x="670" y="-7" font-family="Helvetica,sans-Serif" font-size="10.00">Store.showGraphic</text>
</a>
</g>
</g>
<!-- Node3&#45;&gt;Node12 -->
<g id="edge11" class="edge"><title>Node3&#45;&gt;Node12</title>
<path fill="none" stroke="midnightblue" d="M545.143,-121.945C550.495,-119.165 555.563,-115.88 560,-112 586.932,-88.4482 569.068,-63.5518 596,-40 597.941,-38.3024 600.003,-36.7188 602.157,-35.2415"/>
<polygon fill="midnightblue" stroke="midnightblue" points="604.059,-38.1822 610.857,-30.0553 600.475,-32.1695 604.059,-38.1822"/>
</g>
<!-- Node8 -->
<g id="node8" class="node"><title>Node8</title>
<g id="a_node8"><a xlink:href="../../d1/dd3/classgame_player_1_1gui_items_1_1store_1_1_store.html#a9a8c7f92a7b3744d435a62b73a7277cd" target="_top" xlink:title="gamePlayer.guiItems.store.\lStore.checkEscape">
<polygon fill="white" stroke="black" points="788,-122 788,-152 936,-152 936,-122 788,-122"/>
<text text-anchor="start" x="796" y="-140" font-family="Helvetica,sans-Serif" font-size="10.00">gamePlayer.guiItems.store.</text>
<text text-anchor="middle" x="862" y="-129" font-family="Helvetica,sans-Serif" font-size="10.00">Store.checkEscape</text>
</a>
</g>
</g>
<!-- Node7&#45;&gt;Node8 -->
<g id="edge7" class="edge"><title>Node7&#45;&gt;Node8</title>
<path fill="none" stroke="midnightblue" d="M744.187,-122.245C755.152,-123.63 766.527,-125.067 777.684,-126.476"/>
<polygon fill="midnightblue" stroke="midnightblue" points="777.491,-129.979 787.85,-127.76 778.368,-123.034 777.491,-129.979"/>
</g>
<!-- Node10 -->
<g id="node10" class="node"><title>Node10</title>
<g id="a_node10"><a xlink:href="../../d4/db7/interfacegame_player_1_1gui_items_listeners_1_1_store_listener.html#af2099fff195e2d68cdf7dbe5e383269e" target="_top" xlink:title="gamePlayer.guiItemsListeners.\lStoreListener.placeTower">
<polygon fill="white" stroke="black" points="780,-73 780,-103 944,-103 944,-73 780,-73"/>
<text text-anchor="start" x="788" y="-91" font-family="Helvetica,sans-Serif" font-size="10.00">gamePlayer.guiItemsListeners.</text>
<text text-anchor="middle" x="862" y="-80" font-family="Helvetica,sans-Serif" font-size="10.00">StoreListener.placeTower</text>
</a>
</g>
</g>
<!-- Node7&#45;&gt;Node10 -->
<g id="edge9" class="edge"><title>Node7&#45;&gt;Node10</title>
<path fill="none" stroke="midnightblue" d="M744.187,-103.37C752.603,-102.263 761.259,-101.124 769.874,-99.9903"/>
<polygon fill="midnightblue" stroke="midnightblue" points="770.491,-103.439 779.949,-98.6646 769.578,-96.4991 770.491,-103.439"/>
</g>
<!-- Node9 -->
<g id="node9" class="node"><title>Node9</title>
<g id="a_node9"><a xlink:href="../../d4/db7/interfacegame_player_1_1gui_items_listeners_1_1_store_listener.html#a09ba9b5e100d86c9165ce8355a49028d" target="_top" xlink:title="gamePlayer.guiItemsListeners.\lStoreListener.escapePlace">
<polygon fill="white" stroke="black" points="980,-122 980,-152 1144,-152 1144,-122 980,-122"/>
<text text-anchor="start" x="988" y="-140" font-family="Helvetica,sans-Serif" font-size="10.00">gamePlayer.guiItemsListeners.</text>
<text text-anchor="middle" x="1062" y="-129" font-family="Helvetica,sans-Serif" font-size="10.00">StoreListener.escapePlace</text>
</a>
</g>
</g>
<!-- Node8&#45;&gt;Node9 -->
<g id="edge8" class="edge"><title>Node8&#45;&gt;Node9</title>
<path fill="none" stroke="midnightblue" d="M936.165,-137C947.046,-137 958.373,-137 969.571,-137"/>
<polygon fill="midnightblue" stroke="midnightblue" points="969.802,-140.5 979.802,-137 969.802,-133.5 969.802,-140.5"/>
</g>
</g>
</svg>
        <g id="navigator" transform="translate(0 0)" fill="#404254">
                <rect fill="#f2f5e9" fill-opacity="0.5" stroke="#606060" stroke-width=".5" x="0" y="0" width="60" height="60"/>
                <use id="zoomplus" xlink:href="#zoomPlus" x="17" y="9" onmousedown="handleZoom(evt,'in')"/>
                <use id="zoomminus" xlink:href="#zoomMin" x="42" y="9" onmousedown="handleZoom(evt,'out')"/>
                <use id="reset" xlink:href="#resetDef" x="30" y="36" onmousedown="handleReset()"/>
                <g id="arrowUp" xlink:href="#dirArrow" transform="translate(30 24)" onmousedown="handlePan(0,-1)">
                  <use xlink:href="#rim" fill="#404040">
                        <set attributeName="fill" to="#808080" begin="arrowUp.mouseover" end="arrowUp.mouseout"/>
                  </use>
                  <path fill="none" stroke="white" stroke-width="1.5" d="M0,-3.0v7 M-2.5,-0.5L0,-3.0L2.5,-0.5"/>
                </g>
                <g id="arrowRight" xlink:href="#dirArrow" transform="rotate(90) translate(36 -43)" onmousedown="handlePan(1,0)">
                  <use xlink:href="#rim" fill="#404040">
                        <set attributeName="fill" to="#808080" begin="arrowRight.mouseover" end="arrowRight.mouseout"/>
                  </use>
                  <path fill="none" stroke="white" stroke-width="1.5" d="M0,-3.0v7 M-2.5,-0.5L0,-3.0L2.5,-0.5"/>
                </g>
                <g id="arrowDown" xlink:href="#dirArrow" transform="rotate(180) translate(-30 -48)" onmousedown="handlePan(0,1)">
                  <use xlink:href="#rim" fill="#404040">
                        <set attributeName="fill" to="#808080" begin="arrowDown.mouseover" end="arrowDown.mouseout"/>
                  </use>
                  <path fill="none" stroke="white" stroke-width="1.5" d="M0,-3.0v7 M-2.5,-0.5L0,-3.0L2.5,-0.5"/>
                </g>
                <g id="arrowLeft" xlink:href="#dirArrow" transform="rotate(270) translate(-36 17)" onmousedown="handlePan(-1,0)">
                  <use xlink:href="#rim" fill="#404040">
                        <set attributeName="fill" to="#808080" begin="arrowLeft.mouseover" end="arrowLeft.mouseout"/>
                  </use>
                  <path fill="none" stroke="white" stroke-width="1.5" d="M0,-3.0v7 M-2.5,-0.5L0,-3.0L2.5,-0.5"/>
                </g>
        </g>
        <svg viewBox="0 0 15 15" width="100%" height="30px" preserveAspectRatio="xMaxYMin meet">
         <g id="arrow_out" transform="scale(0.3 0.3)">
          <a xlink:href="classgame_player_1_1main_classes_1_1managers_1_1_gui_manager_ae2f2b1e5fe0b1dce495f5d8fabc99dd3_cgraph_org.svg" target="_base">
           <rect id="button" ry="5" rx="5" y="6" x="6" height="38" width="38"
                fill="#f2f5e9" fill-opacity="0.5" stroke="#606060" stroke-width="1.0"/>
           <path id="arrow"
             d="M 11.500037,31.436501 C 11.940474,20.09759 22.043105,11.32322 32.158766,21.979434 L 37.068811,17.246167 C 37.068811,17.246167 37.088388,32 37.088388,32 L 22.160133,31.978069 C 22.160133,31.978069 26.997745,27.140456 26.997745,27.140456 C 18.528582,18.264221 13.291696,25.230495 11.500037,31.436501 z"
             style="fill:#404040;"/>
          </a>
         </g>
        </svg>
</svg>
