<?xml version="1.0" encoding="UTF-8" standalone="no"?>
<!DOCTYPE svg PUBLIC "-//W3C//DTD SVG 1.1//EN"
 "http://www.w3.org/Graphics/SVG/1.1/DTD/svg11.dtd">
<!-- Generated by graphviz version 2.36.0 (20140111.2315)
 -->
<!-- Title: gamePlayer.mainClasses.managers.GuiManager.upgradeTower Pages: 1 -->
<svg width="1420pt" height="852pt"
 viewBox="0.00 0.00 1420.00 852.00" xmlns="http://www.w3.org/2000/svg" xmlns:xlink="http://www.w3.org/1999/xlink">
<g id="graph0" class="graph" transform="scale(1 1) rotate(0) translate(4 848)">
<title>gamePlayer.mainClasses.managers.GuiManager.upgradeTower</title>
<polygon fill="white" stroke="none" points="-4,4 -4,-848 1416,-848 1416,4 -4,4"/>
<!-- Node1 -->
<g id="node1" class="node"><title>Node1</title>
<polygon fill="#bfbfbf" stroke="black" points="0.5,-658 0.5,-688 191.5,-688 191.5,-658 0.5,-658"/>
<text text-anchor="start" x="8.5" y="-676" font-family="Helvetica,sans-Serif" font-size="10.00">gamePlayer.mainClasses.managers.</text>
<text text-anchor="middle" x="96" y="-665" font-family="Helvetica,sans-Serif" font-size="10.00">GuiManager.upgradeTower</text>
</g>
<!-- Node2 -->
<g id="node2" class="node"><title>Node2</title>
<g id="a_node2"><a xlink:href="../../d0/d94/classgame_engine_1_1_main_engine_manager.html#a1edf9d92fa4f94e77f9ed269f0b01d3f" target="_top" xlink:title="gameEngine.MainEngineManager.checkGold">
<polygon fill="white" stroke="black" points="228,-812.5 228,-831.5 456,-831.5 456,-812.5 228,-812.5"/>
<text text-anchor="middle" x="342" y="-819.5" font-family="Helvetica,sans-Serif" font-size="10.00">gameEngine.MainEngineManager.checkGold</text>
</a>
</g>
</g>
<!-- Node1&#45;&gt;Node2 -->
<g id="edge1" class="edge"><title>Node1&#45;&gt;Node2</title>
<path fill="none" stroke="midnightblue" d="M109.878,-688.333C131.663,-713.298 178.293,-762.685 228,-790 243.684,-798.619 261.897,-805.09 279.061,-809.872"/>
<polygon fill="midnightblue" stroke="midnightblue" points="278.457,-813.332 289.019,-812.496 280.241,-806.563 278.457,-813.332"/>
</g>
<!-- Node4 -->
<g id="node4" class="node"><title>Node4</title>
<g id="a_node4"><a xlink:href="../../da/d69/classgame_player_1_1main_classes_1_1managers_1_1_gui_manager.html#aa36cd779c78f6d551e001fbe2ccbf2c8" target="_top" xlink:title="gamePlayer.mainClasses.managers.\lGuiManager.displayMessage">
<polygon fill="white" stroke="black" points="246.5,-751 246.5,-781 437.5,-781 437.5,-751 246.5,-751"/>
<text text-anchor="start" x="254.5" y="-769" font-family="Helvetica,sans-Serif" font-size="10.00">gamePlayer.mainClasses.managers.</text>
<text text-anchor="middle" x="342" y="-758" font-family="Helvetica,sans-Serif" font-size="10.00">GuiManager.displayMessage</text>
</a>
</g>
</g>
<!-- Node1&#45;&gt;Node4 -->
<g id="edge3" class="edge"><title>Node1&#45;&gt;Node4</title>
<path fill="none" stroke="midnightblue" d="M136.474,-688.045C178.909,-704.22 246.422,-729.952 292.168,-747.388"/>
<polygon fill="midnightblue" stroke="midnightblue" points="290.992,-750.685 301.583,-750.976 293.485,-744.144 290.992,-750.685"/>
</g>
<!-- Node6 -->
<g id="node6" class="node"><title>Node6</title>
<g id="a_node6"><a xlink:href="../../d0/d94/classgame_engine_1_1_main_engine_manager.html#a1e89018fb479a8c91b27e38952922637" target="_top" xlink:title="gameEngine.MainEngineManager.get\lGoldProperty">
<polygon fill="white" stroke="black" points="245,-683 245,-713 439,-713 439,-683 245,-683"/>
<text text-anchor="start" x="253" y="-701" font-family="Helvetica,sans-Serif" font-size="10.00">gameEngine.MainEngineManager.get</text>
<text text-anchor="middle" x="342" y="-690" font-family="Helvetica,sans-Serif" font-size="10.00">GoldProperty</text>
</a>
</g>
</g>
<!-- Node1&#45;&gt;Node6 -->
<g id="edge5" class="edge"><title>Node1&#45;&gt;Node6</title>
<path fill="none" stroke="midnightblue" d="M191.686,-682.701C205.699,-684.137 220.219,-685.625 234.454,-687.083"/>
<polygon fill="midnightblue" stroke="midnightblue" points="234.453,-690.602 244.758,-688.139 235.167,-683.638 234.453,-690.602"/>
</g>
<!-- Node7 -->
<g id="node7" class="node"><title>Node7</title>
<g id="a_node7"><a xlink:href="../../da/d69/classgame_player_1_1main_classes_1_1managers_1_1_gui_manager.html#ad5da35abd0e1b0f2938b85549703118e" target="_top" xlink:title="gamePlayer.mainClasses.managers.\lGuiManager.selectTower">
<polygon fill="white" stroke="black" points="246.5,-634 246.5,-664 437.5,-664 437.5,-634 246.5,-634"/>
<text text-anchor="start" x="254.5" y="-652" font-family="Helvetica,sans-Serif" font-size="10.00">gamePlayer.mainClasses.managers.</text>
<text text-anchor="middle" x="342" y="-641" font-family="Helvetica,sans-Serif" font-size="10.00">GuiManager.selectTower</text>
</a>
</g>
</g>
<!-- Node1&#45;&gt;Node7 -->
<g id="edge6" class="edge"><title>Node1&#45;&gt;Node7</title>
<path fill="none" stroke="midnightblue" d="M191.686,-663.687C206.271,-662.252 221.404,-660.763 236.194,-659.309"/>
<polygon fill="midnightblue" stroke="midnightblue" points="236.758,-662.77 246.367,-658.308 236.073,-655.804 236.758,-662.77"/>
</g>
<!-- Node21 -->
<g id="node21" class="node"><title>Node21</title>
<g id="a_node21"><a xlink:href="../../d0/d94/classgame_engine_1_1_main_engine_manager.html#a6729e2d14134ef08bf882e485399e93e" target="_top" xlink:title="gameEngine.MainEngineManager.set\lMyGold">
<polygon fill="white" stroke="black" points="245,-585 245,-615 439,-615 439,-585 245,-585"/>
<text text-anchor="start" x="253" y="-603" font-family="Helvetica,sans-Serif" font-size="10.00">gameEngine.MainEngineManager.set</text>
<text text-anchor="middle" x="342" y="-592" font-family="Helvetica,sans-Serif" font-size="10.00">MyGold</text>
</a>
</g>
</g>
<!-- Node1&#45;&gt;Node21 -->
<g id="edge22" class="edge"><title>Node1&#45;&gt;Node21</title>
<path fill="none" stroke="midnightblue" d="M134.109,-657.897C160.099,-647.692 195.801,-634.415 228,-625 237.16,-622.321 246.812,-619.776 256.456,-617.407"/>
<polygon fill="midnightblue" stroke="midnightblue" points="257.575,-620.738 266.484,-615.004 255.944,-613.931 257.575,-620.738"/>
</g>
<!-- Node22 -->
<g id="node22" class="node"><title>Node22</title>
<g id="a_node22"><a xlink:href="../../d0/d94/classgame_engine_1_1_main_engine_manager.html#ab5dbebb52c5edcf41787d314326cc1aa" target="_top" xlink:title="gameEngine.MainEngineManager.upgrade">
<polygon fill="white" stroke="black" points="233,-228.5 233,-247.5 451,-247.5 451,-228.5 233,-228.5"/>
<text text-anchor="middle" x="342" y="-235.5" font-family="Helvetica,sans-Serif" font-size="10.00">gameEngine.MainEngineManager.upgrade</text>
</a>
</g>
</g>
<!-- Node1&#45;&gt;Node22 -->
<g id="edge23" class="edge"><title>Node1&#45;&gt;Node22</title>
<path fill="none" stroke="midnightblue" d="M105.541,-657.773C142.679,-591.565 290.066,-328.804 330.623,-256.5"/>
<polygon fill="midnightblue" stroke="midnightblue" points="333.775,-258.036 335.614,-247.602 327.669,-254.611 333.775,-258.036"/>
</g>
<!-- Node3 -->
<g id="node3" class="node"><title>Node3</title>
<g id="a_node3"><a xlink:href="../../d2/dae/classgame_engine_1_1_data_1_1_tower_info_object.html#ad278fbdec131b3af691125cd08a82891" target="_top" xlink:title="gameEngine.Data.TowerInfo\lObject.getBuyCost">
<polygon fill="white" stroke="black" points="534.5,-814 534.5,-844 683.5,-844 683.5,-814 534.5,-814"/>
<text text-anchor="start" x="542.5" y="-832" font-family="Helvetica,sans-Serif" font-size="10.00">gameEngine.Data.TowerInfo</text>
<text text-anchor="middle" x="609" y="-821" font-family="Helvetica,sans-Serif" font-size="10.00">Object.getBuyCost</text>
</a>
</g>
</g>
<!-- Node2&#45;&gt;Node3 -->
<g id="edge2" class="edge"><title>Node2&#45;&gt;Node3</title>
<path fill="none" stroke="midnightblue" d="M456.153,-824.989C478.984,-825.592 502.598,-826.216 524.206,-826.787"/>
<polygon fill="midnightblue" stroke="midnightblue" points="524.22,-830.288 534.309,-827.053 524.405,-823.291 524.22,-830.288"/>
</g>
<!-- Node5 -->
<g id="node5" class="node"><title>Node5</title>
<g id="a_node5"><a xlink:href="../../dd/dee/classgame_player_1_1gui_items_1_1message_display_1_1_message_display.html#aab83737510993a53476288fcb995af19" target="_top" xlink:title="gamePlayer.guiItems.message\lDisplay.MessageDisplay.showMessage">
<polygon fill="white" stroke="black" points="510,-765 510,-795 708,-795 708,-765 510,-765"/>
<text text-anchor="start" x="518" y="-783" font-family="Helvetica,sans-Serif" font-size="10.00">gamePlayer.guiItems.message</text>
<text text-anchor="middle" x="609" y="-772" font-family="Helvetica,sans-Serif" font-size="10.00">Display.MessageDisplay.showMessage</text>
</a>
</g>
</g>
<!-- Node4&#45;&gt;Node5 -->
<g id="edge4" class="edge"><title>Node4&#45;&gt;Node5</title>
<path fill="none" stroke="midnightblue" d="M437.549,-770.995C457.731,-772.061 479.197,-773.195 499.846,-774.286"/>
<polygon fill="midnightblue" stroke="midnightblue" points="499.737,-777.785 509.908,-774.818 500.106,-770.795 499.737,-777.785"/>
</g>
<!-- Node8 -->
<g id="node8" class="node"><title>Node8</title>
<g id="a_node8"><a xlink:href="../../da/d69/classgame_player_1_1main_classes_1_1managers_1_1_gui_manager.html#a3c54e67481646eaa1208a9f69cc1ea78" target="_top" xlink:title="gamePlayer.mainClasses.managers.\lGuiManager.deselectTower">
<polygon fill="white" stroke="black" points="513.5,-716 513.5,-746 704.5,-746 704.5,-716 513.5,-716"/>
<text text-anchor="start" x="521.5" y="-734" font-family="Helvetica,sans-Serif" font-size="10.00">gamePlayer.mainClasses.managers.</text>
<text text-anchor="middle" x="609" y="-723" font-family="Helvetica,sans-Serif" font-size="10.00">GuiManager.deselectTower</text>
</a>
</g>
</g>
<!-- Node7&#45;&gt;Node8 -->
<g id="edge7" class="edge"><title>Node7&#45;&gt;Node8</title>
<path fill="none" stroke="midnightblue" d="M437.725,-657.779C444.01,-659.913 450.157,-662.316 456,-665 474.174,-673.349 473.976,-683.332 492,-692 511.654,-701.453 534.666,-708.194 554.989,-713.479"/>
<polygon fill="midnightblue" stroke="midnightblue" points="554.168,-716.881 564.723,-715.961 555.898,-710.098 554.168,-716.881"/>
</g>
<!-- Node10 -->
<g id="node10" class="node"><title>Node10</title>
<g id="a_node10"><a xlink:href="../../d0/dee/classgame_player_1_1gui_items_1_1game_world_1_1_game_world.html#ab07bae6d692a39832fd7ecc25f3b6cf3" target="_top" xlink:title="gamePlayer.guiItems.game\lWorld.GameWorld.getMap">
<polygon fill="white" stroke="black" points="800,-680 800,-710 948,-710 948,-680 800,-680"/>
<text text-anchor="start" x="808" y="-698" font-family="Helvetica,sans-Serif" font-size="10.00">gamePlayer.guiItems.game</text>
<text text-anchor="middle" x="874" y="-687" font-family="Helvetica,sans-Serif" font-size="10.00">World.GameWorld.getMap</text>
</a>
</g>
</g>
<!-- Node7&#45;&gt;Node10 -->
<g id="edge11" class="edge"><title>Node7&#45;&gt;Node10</title>
<path fill="none" stroke="midnightblue" d="M437.514,-661.094C455.585,-663.215 474.365,-665.288 492,-667 594.347,-676.937 712.469,-685.108 789.72,-690.007"/>
<polygon fill="midnightblue" stroke="midnightblue" points="789.673,-693.511 799.873,-690.647 790.113,-686.525 789.673,-693.511"/>
</g>
<!-- Node11 -->
<g id="node11" class="node"><title>Node11</title>
<g id="a_node11"><a xlink:href="../../d0/d94/classgame_engine_1_1_main_engine_manager.html#a10eebcc873d27deccb595f18ca9072fb" target="_top" xlink:title="gameEngine.MainEngineManager.get\lTowerName">
<polygon fill="white" stroke="black" points="512,-628 512,-658 706,-658 706,-628 512,-628"/>
<text text-anchor="start" x="520" y="-646" font-family="Helvetica,sans-Serif" font-size="10.00">gameEngine.MainEngineManager.get</text>
<text text-anchor="middle" x="609" y="-635" font-family="Helvetica,sans-Serif" font-size="10.00">TowerName</text>
</a>
</g>
</g>
<!-- Node7&#45;&gt;Node11 -->
<g id="edge12" class="edge"><title>Node7&#45;&gt;Node11</title>
<path fill="none" stroke="midnightblue" d="M437.549,-646.859C458.336,-646.389 480.485,-645.887 501.701,-645.407"/>
<polygon fill="midnightblue" stroke="midnightblue" points="501.783,-648.906 511.701,-645.18 501.624,-641.908 501.783,-648.906"/>
</g>
<!-- Node13 -->
<g id="node13" class="node"><title>Node13</title>
<g id="a_node13"><a xlink:href="../../dd/df0/classutilities_1_1_java_f_xutilities_1_1image_view_1_1_centered_image_view.html#a063a62060b9b686601364fdbb8b6cd86" target="_top" xlink:title="utilities.JavaFXutilities.image\lView.CenteredImageView.getXCenter">
<polygon fill="white" stroke="black" points="513,-579 513,-609 705,-609 705,-579 513,-579"/>
<text text-anchor="start" x="521" y="-597" font-family="Helvetica,sans-Serif" font-size="10.00">utilities.JavaFXutilities.image</text>
<text text-anchor="middle" x="609" y="-586" font-family="Helvetica,sans-Serif" font-size="10.00">View.CenteredImageView.getXCenter</text>
</a>
</g>
</g>
<!-- Node7&#45;&gt;Node13 -->
<g id="edge14" class="edge"><title>Node7&#45;&gt;Node13</title>
<path fill="none" stroke="midnightblue" d="M415.412,-633.971C449.591,-626.877 490.537,-618.379 525.869,-611.046"/>
<polygon fill="midnightblue" stroke="midnightblue" points="526.595,-614.47 535.675,-609.011 525.173,-607.616 526.595,-614.47"/>
</g>
<!-- Node14 -->
<g id="node14" class="node"><title>Node14</title>
<g id="a_node14"><a xlink:href="../../dd/df0/classutilities_1_1_java_f_xutilities_1_1image_view_1_1_centered_image_view.html#aa05843be4846dc0d9c23489cac21ed3d" target="_top" xlink:title="utilities.JavaFXutilities.image\lView.CenteredImageView.getYCenter">
<polygon fill="white" stroke="black" points="513.5,-530 513.5,-560 704.5,-560 704.5,-530 513.5,-530"/>
<text text-anchor="start" x="521.5" y="-548" font-family="Helvetica,sans-Serif" font-size="10.00">utilities.JavaFXutilities.image</text>
<text text-anchor="middle" x="609" y="-537" font-family="Helvetica,sans-Serif" font-size="10.00">View.CenteredImageView.getYCenter</text>
</a>
</g>
</g>
<!-- Node7&#45;&gt;Node14 -->
<g id="edge15" class="edge"><title>Node7&#45;&gt;Node14</title>
<path fill="none" stroke="midnightblue" d="M437.55,-634.034C444.049,-631.23 450.28,-627.916 456,-624 479.802,-607.707 468.154,-586.228 492,-570 495.791,-567.42 499.799,-565.1 503.959,-563.014"/>
<polygon fill="midnightblue" stroke="midnightblue" points="505.604,-566.112 513.281,-558.811 502.726,-559.73 505.604,-566.112"/>
</g>
<!-- Node15 -->
<g id="node15" class="node"><title>Node15</title>
<g id="a_node15"><a xlink:href="../../d1/d18/classgame_player_1_1gui_items_1_1tower_upgrade_1_1_tower_upgrade_panel.html#ab1a665d01bbeab4d6a954df1b4f6b10f" target="_top" xlink:title="gamePlayer.guiItems.tower\lUpgrade.TowerUpgradePanel.setCurrentTower">
<polygon fill="white" stroke="black" points="492,-476 492,-506 726,-506 726,-476 492,-476"/>
<text text-anchor="start" x="500" y="-494" font-family="Helvetica,sans-Serif" font-size="10.00">gamePlayer.guiItems.tower</text>
<text text-anchor="middle" x="609" y="-483" font-family="Helvetica,sans-Serif" font-size="10.00">Upgrade.TowerUpgradePanel.setCurrentTower</text>
</a>
</g>
</g>
<!-- Node7&#45;&gt;Node15 -->
<g id="edge16" class="edge"><title>Node7&#45;&gt;Node15</title>
<path fill="none" stroke="midnightblue" d="M437.669,-636.12C444.299,-632.859 450.516,-628.87 456,-624 492.26,-591.801 456.314,-553.835 492,-521 496.162,-517.171 500.748,-513.816 505.621,-510.879"/>
<polygon fill="midnightblue" stroke="midnightblue" points="507.511,-513.838 514.674,-506.031 504.206,-507.667 507.511,-513.838"/>
</g>
<!-- Node8&#45;&gt;Node7 -->
<g id="edge10" class="edge"><title>Node8&#45;&gt;Node7</title>
<path fill="none" stroke="midnightblue" d="M513.493,-718.887C506.092,-716.253 498.842,-713.291 492,-710 473.976,-701.332 474.174,-691.349 456,-683 439.974,-675.638 421.654,-670.386 404.496,-666.299"/>
<polygon fill="midnightblue" stroke="midnightblue" points="405.084,-662.843 394.555,-664.02 403.52,-669.666 405.084,-662.843"/>
</g>
<!-- Node9 -->
<g id="node9" class="node"><title>Node9</title>
<g id="a_node9"><a xlink:href="../../d1/d18/classgame_player_1_1gui_items_1_1tower_upgrade_1_1_tower_upgrade_panel.html#a4dd7a166c98ebf68effcd02c939bd544" target="_top" xlink:title="gamePlayer.guiItems.tower\lUpgrade.TowerUpgradePanel.deselectTower">
<polygon fill="white" stroke="black" points="762,-729 762,-759 986,-759 986,-729 762,-729"/>
<text text-anchor="start" x="770" y="-747" font-family="Helvetica,sans-Serif" font-size="10.00">gamePlayer.guiItems.tower</text>
<text text-anchor="middle" x="874" y="-736" font-family="Helvetica,sans-Serif" font-size="10.00">Upgrade.TowerUpgradePanel.deselectTower</text>
</a>
</g>
</g>
<!-- Node8&#45;&gt;Node9 -->
<g id="edge8" class="edge"><title>Node8&#45;&gt;Node9</title>
<path fill="none" stroke="midnightblue" d="M704.577,-735.675C719.799,-736.427 735.738,-737.215 751.485,-737.994"/>
<polygon fill="midnightblue" stroke="midnightblue" points="751.636,-741.505 761.796,-738.503 751.981,-734.514 751.636,-741.505"/>
</g>
<!-- Node8&#45;&gt;Node10 -->
<g id="edge9" class="edge"><title>Node8&#45;&gt;Node10</title>
<path fill="none" stroke="midnightblue" d="M704.577,-718.054C732.392,-714.247 762.604,-710.111 789.66,-706.408"/>
<polygon fill="midnightblue" stroke="midnightblue" points="790.43,-709.835 799.863,-705.011 789.481,-702.9 790.43,-709.835"/>
</g>
<!-- Node12 -->
<g id="node12" class="node"><title>Node12</title>
<g id="a_node12"><a xlink:href="../../d5/d02/classgame_engine_1_1actors_1_1_base_actor.html#a9f4fa91555a52251f64b91fa182db92b" target="_top" xlink:title="gameEngine.actors.BaseActor.to\lString">
<polygon fill="white" stroke="black" points="787,-631 787,-661 961,-661 961,-631 787,-631"/>
<text text-anchor="start" x="795" y="-649" font-family="Helvetica,sans-Serif" font-size="10.00">gameEngine.actors.BaseActor.to</text>
<text text-anchor="middle" x="874" y="-638" font-family="Helvetica,sans-Serif" font-size="10.00">String</text>
</a>
</g>
</g>
<!-- Node11&#45;&gt;Node12 -->
<g id="edge13" class="edge"><title>Node11&#45;&gt;Node12</title>
<path fill="none" stroke="midnightblue" d="M706.065,-644.096C729.073,-644.358 753.645,-644.639 776.665,-644.901"/>
<polygon fill="midnightblue" stroke="midnightblue" points="776.734,-648.402 786.773,-645.016 776.814,-641.402 776.734,-648.402"/>
</g>
<!-- Node16 -->
<g id="node16" class="node"><title>Node16</title>
<g id="a_node16"><a xlink:href="../../d2/dae/classgame_engine_1_1_data_1_1_tower_info_object.html#af130c92f07cfb719eb25c6b46117e02f" target="_top" xlink:title="gameEngine.Data.TowerInfo\lObject.getImageLocation">
<polygon fill="white" stroke="black" points="799.5,-582 799.5,-612 948.5,-612 948.5,-582 799.5,-582"/>
<text text-anchor="start" x="807.5" y="-600" font-family="Helvetica,sans-Serif" font-size="10.00">gameEngine.Data.TowerInfo</text>
<text text-anchor="middle" x="874" y="-589" font-family="Helvetica,sans-Serif" font-size="10.00">Object.getImageLocation</text>
</a>
</g>
</g>
<!-- Node15&#45;&gt;Node16 -->
<g id="edge17" class="edge"><title>Node15&#45;&gt;Node16</title>
<path fill="none" stroke="midnightblue" d="M696.633,-506.076C707.031,-509.963 717.101,-514.851 726,-521 748.826,-536.771 738.928,-556.591 762,-572 770.378,-577.595 779.823,-581.953 789.577,-585.345"/>
<polygon fill="midnightblue" stroke="midnightblue" points="788.818,-588.775 799.407,-588.425 790.911,-582.095 788.818,-588.775"/>
</g>
<!-- Node17 -->
<g id="node17" class="node"><title>Node17</title>
<g id="a_node17"><a xlink:href="../../dc/d37/classutilities_1_1_java_f_xutilities_1_1image_view_1_1_string_to_image_view_converter.html#a5beb76f3bbfa4aae7d9b897a285b007b" target="_top" xlink:title="utilities.JavaFXutilities.image\lView.StringToImageViewConverter.get\lImageView">
<polygon fill="white" stroke="black" points="776,-522.5 776,-563.5 972,-563.5 972,-522.5 776,-522.5"/>
<text text-anchor="start" x="784" y="-551.5" font-family="Helvetica,sans-Serif" font-size="10.00">utilities.JavaFXutilities.image</text>
<text text-anchor="start" x="784" y="-540.5" font-family="Helvetica,sans-Serif" font-size="10.00">View.StringToImageViewConverter.get</text>
<text text-anchor="middle" x="874" y="-529.5" font-family="Helvetica,sans-Serif" font-size="10.00">ImageView</text>
</a>
</g>
</g>
<!-- Node15&#45;&gt;Node17 -->
<g id="edge18" class="edge"><title>Node15&#45;&gt;Node17</title>
<path fill="none" stroke="midnightblue" d="M686.07,-506.041C711.067,-510.983 739.333,-516.572 766.177,-521.879"/>
<polygon fill="midnightblue" stroke="midnightblue" points="765.505,-525.314 775.994,-523.82 766.862,-518.447 765.505,-525.314"/>
</g>
<!-- Node18 -->
<g id="node18" class="node"><title>Node18</title>
<g id="a_node18"><a xlink:href="../../d2/dae/classgame_engine_1_1_data_1_1_tower_info_object.html#aae3256ac67a3504c1e55820260c542a2" target="_top" xlink:title="gameEngine.Data.TowerInfo\lObject.getMyUpgrade">
<polygon fill="white" stroke="black" points="799.5,-474 799.5,-504 948.5,-504 948.5,-474 799.5,-474"/>
<text text-anchor="start" x="807.5" y="-492" font-family="Helvetica,sans-Serif" font-size="10.00">gameEngine.Data.TowerInfo</text>
<text text-anchor="middle" x="874" y="-481" font-family="Helvetica,sans-Serif" font-size="10.00">Object.getMyUpgrade</text>
</a>
</g>
</g>
<!-- Node15&#45;&gt;Node18 -->
<g id="edge19" class="edge"><title>Node15&#45;&gt;Node18</title>
<path fill="none" stroke="midnightblue" d="M726.121,-490.117C747.428,-489.955 769.281,-489.789 789.401,-489.636"/>
<polygon fill="midnightblue" stroke="midnightblue" points="789.466,-493.135 799.439,-489.559 789.413,-486.136 789.466,-493.135"/>
</g>
<!-- Node19 -->
<g id="node19" class="node"><title>Node19</title>
<g id="a_node19"><a xlink:href="../../d2/dae/classgame_engine_1_1_data_1_1_tower_info_object.html#a52473d08f24e1e664999ec11f8f72632" target="_top" xlink:title="gameEngine.Data.TowerInfo\lObject.getName">
<polygon fill="white" stroke="black" points="799.5,-425 799.5,-455 948.5,-455 948.5,-425 799.5,-425"/>
<text text-anchor="start" x="807.5" y="-443" font-family="Helvetica,sans-Serif" font-size="10.00">gameEngine.Data.TowerInfo</text>
<text text-anchor="middle" x="874" y="-432" font-family="Helvetica,sans-Serif" font-size="10.00">Object.getName</text>
</a>
</g>
</g>
<!-- Node15&#45;&gt;Node19 -->
<g id="edge20" class="edge"><title>Node15&#45;&gt;Node19</title>
<path fill="none" stroke="midnightblue" d="M687.486,-475.974C719.481,-469.77 756.638,-462.564 789.259,-456.239"/>
<polygon fill="midnightblue" stroke="midnightblue" points="790.075,-459.646 799.226,-454.306 788.743,-452.774 790.075,-459.646"/>
</g>
<!-- Node20 -->
<g id="node20" class="node"><title>Node20</title>
<g id="a_node20"><a xlink:href="../../d2/dae/classgame_engine_1_1_data_1_1_tower_info_object.html#ad81afa853b7dac417c3a781d810e0217" target="_top" xlink:title="gameEngine.Data.TowerInfo\lObject.getSellCost">
<polygon fill="white" stroke="black" points="799.5,-376 799.5,-406 948.5,-406 948.5,-376 799.5,-376"/>
<text text-anchor="start" x="807.5" y="-394" font-family="Helvetica,sans-Serif" font-size="10.00">gameEngine.Data.TowerInfo</text>
<text text-anchor="middle" x="874" y="-383" font-family="Helvetica,sans-Serif" font-size="10.00">Object.getSellCost</text>
</a>
</g>
</g>
<!-- Node15&#45;&gt;Node20 -->
<g id="edge21" class="edge"><title>Node15&#45;&gt;Node20</title>
<path fill="none" stroke="midnightblue" d="M635.808,-475.899C665.405,-459.149 715.809,-432.337 762,-416 770.846,-412.871 780.231,-410.043 789.65,-407.511"/>
<polygon fill="midnightblue" stroke="midnightblue" points="790.649,-410.868 799.457,-404.98 788.899,-404.09 790.649,-410.868"/>
</g>
<!-- Node23 -->
<g id="node23" class="node"><title>Node23</title>
<g id="a_node23"><a xlink:href="../../d0/d94/classgame_engine_1_1_main_engine_manager.html#a42a2b5309be3a2d21f572d3d9f353a28" target="_top" xlink:title="gameEngine.MainEngineManager.add\lTower">
<polygon fill="white" stroke="black" points="510.5,-223 510.5,-253 707.5,-253 707.5,-223 510.5,-223"/>
<text text-anchor="start" x="518.5" y="-241" font-family="Helvetica,sans-Serif" font-size="10.00">gameEngine.MainEngineManager.add</text>
<text text-anchor="middle" x="609" y="-230" font-family="Helvetica,sans-Serif" font-size="10.00">Tower</text>
</a>
</g>
</g>
<!-- Node22&#45;&gt;Node23 -->
<g id="edge24" class="edge"><title>Node22&#45;&gt;Node23</title>
<path fill="none" stroke="midnightblue" d="M451.168,-238C467.405,-238 484.147,-238 500.372,-238"/>
<polygon fill="midnightblue" stroke="midnightblue" points="500.399,-241.5 510.399,-238 500.399,-234.5 500.399,-241.5"/>
</g>
<!-- Node37 -->
<g id="node37" class="node"><title>Node37</title>
<g id="a_node37"><a xlink:href="../../d0/d94/classgame_engine_1_1_main_engine_manager.html#ab2ef6260dd1521fb9762334c37a19667" target="_top" xlink:title="gameEngine.MainEngineManager.remove\lTower">
<polygon fill="white" stroke="black" points="501.5,-103 501.5,-133 716.5,-133 716.5,-103 501.5,-103"/>
<text text-anchor="start" x="509.5" y="-121" font-family="Helvetica,sans-Serif" font-size="10.00">gameEngine.MainEngineManager.remove</text>
<text text-anchor="middle" x="609" y="-110" font-family="Helvetica,sans-Serif" font-size="10.00">Tower</text>
</a>
</g>
</g>
<!-- Node22&#45;&gt;Node37 -->
<g id="edge39" class="edge"><title>Node22&#45;&gt;Node37</title>
<path fill="none" stroke="midnightblue" d="M364.238,-228.383C407.867,-208.626 508.293,-163.151 565.703,-137.153"/>
<polygon fill="midnightblue" stroke="midnightblue" points="567.208,-140.314 574.874,-133 564.321,-133.937 567.208,-140.314"/>
</g>
<!-- Node24 -->
<g id="node24" class="node"><title>Node24</title>
<g id="a_node24"><a xlink:href="../../db/d6c/classgame_engine_1_1_data_1_1_range_restricted_collection.html#a42ea7db9dded67061a467a111fdc49f4" target="_top" xlink:title="gameEngine.Data.RangeRestricted\lCollection.add">
<polygon fill="white" stroke="black" points="782.5,-327 782.5,-357 965.5,-357 965.5,-327 782.5,-327"/>
<text text-anchor="start" x="790.5" y="-345" font-family="Helvetica,sans-Serif" font-size="10.00">gameEngine.Data.RangeRestricted</text>
<text text-anchor="middle" x="874" y="-334" font-family="Helvetica,sans-Serif" font-size="10.00">Collection.add</text>
</a>
</g>
</g>
<!-- Node23&#45;&gt;Node24 -->
<g id="edge25" class="edge"><title>Node23&#45;&gt;Node24</title>
<path fill="none" stroke="midnightblue" d="M634.118,-253.036C663.369,-270.673 714.654,-299.695 762,-317 769.24,-319.646 776.852,-322.067 784.554,-324.269"/>
<polygon fill="midnightblue" stroke="midnightblue" points="783.769,-327.682 794.338,-326.941 785.614,-320.93 783.769,-327.682"/>
</g>
<!-- Node25 -->
<g id="node25" class="node"><title>Node25</title>
<g id="a_node25"><a xlink:href="../../df/db9/classgame_engine_1_1actors_1_1_base_tower.html#a5196fadecf06ee9ecebc59a678f8f272" target="_top" xlink:title="gameEngine.actors.BaseTower.copy">
<polygon fill="white" stroke="black" points="780,-288.5 780,-307.5 968,-307.5 968,-288.5 780,-288.5"/>
<text text-anchor="middle" x="874" y="-295.5" font-family="Helvetica,sans-Serif" font-size="10.00">gameEngine.actors.BaseTower.copy</text>
</a>
</g>
</g>
<!-- Node23&#45;&gt;Node25 -->
<g id="edge26" class="edge"><title>Node23&#45;&gt;Node25</title>
<path fill="none" stroke="midnightblue" d="M672.426,-253.076C699.873,-259.63 732.509,-267.32 762,-274 780.084,-278.096 799.86,-282.421 817.646,-286.255"/>
<polygon fill="midnightblue" stroke="midnightblue" points="817.348,-289.771 827.86,-288.45 818.819,-282.927 817.348,-289.771"/>
</g>
<!-- Node28 -->
<g id="node28" class="node"><title>Node28</title>
<g id="a_node28"><a xlink:href="../../d5/d02/classgame_engine_1_1actors_1_1_base_actor.html#ae877e5334153c4e125fb84bf993587af" target="_top" xlink:title="gameEngine.actors.BaseActor.getNode">
<polygon fill="white" stroke="black" points="1022,-224.5 1022,-243.5 1228,-243.5 1228,-224.5 1022,-224.5"/>
<text text-anchor="middle" x="1125" y="-231.5" font-family="Helvetica,sans-Serif" font-size="10.00">gameEngine.actors.BaseActor.getNode</text>
</a>
</g>
</g>
<!-- Node23&#45;&gt;Node28 -->
<g id="edge29" class="edge"><title>Node23&#45;&gt;Node28</title>
<path fill="none" stroke="midnightblue" d="M707.787,-239.968C783.682,-241.145 891.531,-242.053 986,-240 994.358,-239.818 1003,-239.575 1011.69,-239.29"/>
<polygon fill="midnightblue" stroke="midnightblue" points="1012.03,-242.78 1021.9,-238.938 1011.79,-235.785 1012.03,-242.78"/>
</g>
<!-- Node29 -->
<g id="node29" class="node"><title>Node29</title>
<g id="a_node29"><a xlink:href="../../d0/d94/classgame_engine_1_1_main_engine_manager.html#a80b291e3df09fa199760f6c7b1482638" target="_top" xlink:title="gameEngine.MainEngineManager.set\lTowerTileStatus">
<polygon fill="white" stroke="black" points="777,-103 777,-133 971,-133 971,-103 777,-103"/>
<text text-anchor="start" x="785" y="-121" font-family="Helvetica,sans-Serif" font-size="10.00">gameEngine.MainEngineManager.set</text>
<text text-anchor="middle" x="874" y="-110" font-family="Helvetica,sans-Serif" font-size="10.00">TowerTileStatus</text>
</a>
</g>
</g>
<!-- Node23&#45;&gt;Node29 -->
<g id="edge30" class="edge"><title>Node23&#45;&gt;Node29</title>
<path fill="none" stroke="midnightblue" d="M628.946,-222.908C656.578,-201.654 710.287,-163.144 762,-142 767.378,-139.801 772.989,-137.79 778.707,-135.954"/>
<polygon fill="midnightblue" stroke="midnightblue" points="779.849,-139.265 788.411,-133.025 777.826,-132.564 779.849,-139.265"/>
</g>
<!-- Node35 -->
<g id="node35" class="node"><title>Node35</title>
<g id="a_node35"><a xlink:href="../../dd/df0/classutilities_1_1_java_f_xutilities_1_1image_view_1_1_centered_image_view.html#a4df6d41d08c4c4a5c530290c736926f2" target="_top" xlink:title="utilities.JavaFXutilities.image\lView.CenteredImageView.setXCenter">
<polygon fill="white" stroke="black" points="778.5,-201 778.5,-231 969.5,-231 969.5,-201 778.5,-201"/>
<text text-anchor="start" x="786.5" y="-219" font-family="Helvetica,sans-Serif" font-size="10.00">utilities.JavaFXutilities.image</text>
<text text-anchor="middle" x="874" y="-208" font-family="Helvetica,sans-Serif" font-size="10.00">View.CenteredImageView.setXCenter</text>
</a>
</g>
</g>
<!-- Node23&#45;&gt;Node35 -->
<g id="edge37" class="edge"><title>Node23&#45;&gt;Node35</title>
<path fill="none" stroke="midnightblue" d="M707.558,-229.839C727.317,-228.186 748.173,-226.442 768.171,-224.769"/>
<polygon fill="midnightblue" stroke="midnightblue" points="768.55,-228.25 778.224,-223.928 767.967,-221.274 768.55,-228.25"/>
</g>
<!-- Node36 -->
<g id="node36" class="node"><title>Node36</title>
<g id="a_node36"><a xlink:href="../../dd/df0/classutilities_1_1_java_f_xutilities_1_1image_view_1_1_centered_image_view.html#a2bcbaa8cc681ef2663182084f742d29d" target="_top" xlink:title="utilities.JavaFXutilities.image\lView.CenteredImageView.setYCenter">
<polygon fill="white" stroke="black" points="778.5,-152 778.5,-182 969.5,-182 969.5,-152 778.5,-152"/>
<text text-anchor="start" x="786.5" y="-170" font-family="Helvetica,sans-Serif" font-size="10.00">utilities.JavaFXutilities.image</text>
<text text-anchor="middle" x="874" y="-159" font-family="Helvetica,sans-Serif" font-size="10.00">View.CenteredImageView.setYCenter</text>
</a>
</g>
</g>
<!-- Node23&#45;&gt;Node36 -->
<g id="edge38" class="edge"><title>Node23&#45;&gt;Node36</title>
<path fill="none" stroke="midnightblue" d="M654.931,-222.98C685.035,-213.196 725.663,-200.527 762,-191 770.754,-188.705 779.936,-186.461 789.113,-184.325"/>
<polygon fill="midnightblue" stroke="midnightblue" points="790.081,-187.694 799.048,-182.051 788.519,-180.87 790.081,-187.694"/>
</g>
<!-- Node26 -->
<g id="node26" class="node"><title>Node26</title>
<g id="a_node26"><a xlink:href="../../df/db9/classgame_engine_1_1actors_1_1_base_tower.html#a579a596add08873663ac736c7800f687" target="_top" xlink:title="gameEngine.actors.BaseTower.\lBaseTower">
<polygon fill="white" stroke="black" points="1042.5,-316 1042.5,-346 1207.5,-346 1207.5,-316 1042.5,-316"/>
<text text-anchor="start" x="1050.5" y="-334" font-family="Helvetica,sans-Serif" font-size="10.00">gameEngine.actors.BaseTower.</text>
<text text-anchor="middle" x="1125" y="-323" font-family="Helvetica,sans-Serif" font-size="10.00">BaseTower</text>
</a>
</g>
</g>
<!-- Node25&#45;&gt;Node26 -->
<g id="edge27" class="edge"><title>Node25&#45;&gt;Node26</title>
<path fill="none" stroke="midnightblue" d="M946.687,-307.501C973.302,-311.028 1003.87,-315.079 1032.05,-318.813"/>
<polygon fill="midnightblue" stroke="midnightblue" points="1031.93,-322.329 1042.31,-320.173 1032.85,-315.39 1031.93,-322.329"/>
</g>
<!-- Node27 -->
<g id="node27" class="node"><title>Node27</title>
<g id="a_node27"><a xlink:href="../../d5/d02/classgame_engine_1_1actors_1_1_base_actor.html#a7feb699c5d4dc6ca8588beacc5567eff" target="_top" xlink:title="gameEngine.actors.BaseActor.copy\lBehaviors">
<polygon fill="white" stroke="black" points="1031.5,-267 1031.5,-297 1218.5,-297 1218.5,-267 1031.5,-267"/>
<text text-anchor="start" x="1039.5" y="-285" font-family="Helvetica,sans-Serif" font-size="10.00">gameEngine.actors.BaseActor.copy</text>
<text text-anchor="middle" x="1125" y="-274" font-family="Helvetica,sans-Serif" font-size="10.00">Behaviors</text>
</a>
</g>
</g>
<!-- Node25&#45;&gt;Node27 -->
<g id="edge28" class="edge"><title>Node25&#45;&gt;Node27</title>
<path fill="none" stroke="midnightblue" d="M968.073,-292.019C985.393,-290.906 1003.58,-289.738 1021.18,-288.607"/>
<polygon fill="midnightblue" stroke="midnightblue" points="1021.7,-292.081 1031.45,-287.947 1021.25,-285.095 1021.7,-292.081"/>
</g>
<!-- Node29&#45;&gt;Node28 -->
<g id="edge33" class="edge"><title>Node29&#45;&gt;Node28</title>
<path fill="none" stroke="midnightblue" d="M970.927,-133.008C976.244,-135.571 981.32,-138.547 986,-142 1012.26,-161.376 996.281,-185.909 1022,-206 1030.17,-212.382 1039.7,-217.311 1049.59,-221.118"/>
<polygon fill="midnightblue" stroke="midnightblue" points="1048.55,-224.463 1059.15,-224.434 1050.84,-217.85 1048.55,-224.463"/>
</g>
<!-- Node30 -->
<g id="node30" class="node"><title>Node30</title>
<g id="a_node30"><a xlink:href="../../d5/db4/classgame_authoring_1_1scenes_1_1path_building_1_1building_panes_1_1tower_regions_1_1_tile.html#a71f5d493f80cf25cea9276247991294a" target="_top" xlink:title="gameAuthoring.scenes.path\lBuilding.buildingPanes.towerRegions.\lTile.getColumn">
<polygon fill="white" stroke="black" points="1029.5,-156.5 1029.5,-197.5 1220.5,-197.5 1220.5,-156.5 1029.5,-156.5"/>
<text text-anchor="start" x="1037.5" y="-185.5" font-family="Helvetica,sans-Serif" font-size="10.00">gameAuthoring.scenes.path</text>
<text text-anchor="start" x="1037.5" y="-174.5" font-family="Helvetica,sans-Serif" font-size="10.00">Building.buildingPanes.towerRegions.</text>
<text text-anchor="middle" x="1125" y="-163.5" font-family="Helvetica,sans-Serif" font-size="10.00">Tile.getColumn</text>
</a>
</g>
</g>
<!-- Node29&#45;&gt;Node30 -->
<g id="edge31" class="edge"><title>Node29&#45;&gt;Node30</title>
<path fill="none" stroke="midnightblue" d="M946.439,-133.055C959.613,-135.943 973.236,-139.002 986,-142 1001.84,-145.72 1018.66,-149.842 1034.91,-153.912"/>
<polygon fill="midnightblue" stroke="midnightblue" points="1034.39,-157.39 1044.94,-156.436 1036.1,-150.601 1034.39,-157.39"/>
</g>
<!-- Node31 -->
<g id="node31" class="node"><title>Node31</title>
<g id="a_node31"><a xlink:href="../../d0/d94/classgame_engine_1_1_main_engine_manager.html#ac3e9c579c0ea0259bf4dd5a0dc7d29b1" target="_top" xlink:title="gameEngine.MainEngineManager.get\lIntersectingTowerTileNode">
<polygon fill="white" stroke="black" points="1028,-108 1028,-138 1222,-138 1222,-108 1028,-108"/>
<text text-anchor="start" x="1036" y="-126" font-family="Helvetica,sans-Serif" font-size="10.00">gameEngine.MainEngineManager.get</text>
<text text-anchor="middle" x="1125" y="-115" font-family="Helvetica,sans-Serif" font-size="10.00">IntersectingTowerTileNode</text>
</a>
</g>
</g>
<!-- Node29&#45;&gt;Node31 -->
<g id="edge32" class="edge"><title>Node29&#45;&gt;Node31</title>
<path fill="none" stroke="midnightblue" d="M971.27,-119.933C986.538,-120.24 1002.4,-120.558 1017.88,-120.869"/>
<polygon fill="midnightblue" stroke="midnightblue" points="1017.92,-124.37 1027.99,-121.072 1018.06,-117.372 1017.92,-124.37"/>
</g>
<!-- Node32 -->
<g id="node32" class="node"><title>Node32</title>
<g id="a_node32"><a xlink:href="../../d5/db4/classgame_authoring_1_1scenes_1_1path_building_1_1building_panes_1_1tower_regions_1_1_tile.html#afe5b972b91b5f857bfbabd1894a48592" target="_top" xlink:title="gameAuthoring.scenes.path\lBuilding.buildingPanes.towerRegions.\lTile.getRow">
<polygon fill="white" stroke="black" points="1029.5,-48.5 1029.5,-89.5 1220.5,-89.5 1220.5,-48.5 1029.5,-48.5"/>
<text text-anchor="start" x="1037.5" y="-77.5" font-family="Helvetica,sans-Serif" font-size="10.00">gameAuthoring.scenes.path</text>
<text text-anchor="start" x="1037.5" y="-66.5" font-family="Helvetica,sans-Serif" font-size="10.00">Building.buildingPanes.towerRegions.</text>
<text text-anchor="middle" x="1125" y="-55.5" font-family="Helvetica,sans-Serif" font-size="10.00">Tile.getRow</text>
</a>
</g>
</g>
<!-- Node29&#45;&gt;Node32 -->
<g id="edge34" class="edge"><title>Node29&#45;&gt;Node32</title>
<path fill="none" stroke="midnightblue" d="M951.4,-102.965C972.82,-98.7504 996.483,-94.0937 1019.24,-89.6147"/>
<polygon fill="midnightblue" stroke="midnightblue" points="1020.14,-93.0051 1029.28,-87.64 1018.79,-86.1368 1020.14,-93.0051"/>
</g>
<!-- Node33 -->
<g id="node33" class="node"><title>Node33</title>
<g id="a_node33"><a xlink:href="../../da/df9/classgame_engine_1_1_data_1_1_tower_tile_grid.html#a367cfa2903c44048ec959bcc546486fe" target="_top" xlink:title="gameEngine.Data.TowerTile\lGrid.setTowerTile">
<polygon fill="white" stroke="black" points="1051,-0 1051,-30 1199,-30 1199,-0 1051,-0"/>
<text text-anchor="start" x="1059" y="-18" font-family="Helvetica,sans-Serif" font-size="10.00">gameEngine.Data.TowerTile</text>
<text text-anchor="middle" x="1125" y="-7" font-family="Helvetica,sans-Serif" font-size="10.00">Grid.setTowerTile</text>
</a>
</g>
</g>
<!-- Node29&#45;&gt;Node33 -->
<g id="edge35" class="edge"><title>Node29&#45;&gt;Node33</title>
<path fill="none" stroke="midnightblue" d="M967.882,-102.909C974.265,-100.134 980.384,-96.8602 986,-93 1009.77,-76.6618 998.307,-55.4517 1022,-39 1027.96,-34.8626 1034.54,-31.4318 1041.39,-28.5879"/>
<polygon fill="midnightblue" stroke="midnightblue" points="1042.73,-31.8245 1050.89,-25.0624 1040.3,-25.2622 1042.73,-31.8245"/>
</g>
<!-- Node34 -->
<g id="node34" class="node"><title>Node34</title>
<g id="a_node34"><a xlink:href="../../da/df9/classgame_engine_1_1_data_1_1_tower_tile_grid.html#a2bcbce6f5009d9adf2d13bc540c36a52" target="_top" xlink:title="gameEngine.Data.TowerTile\lGrid.setChangedStatus">
<polygon fill="white" stroke="black" points="1264,-0 1264,-30 1412,-30 1412,-0 1264,-0"/>
<text text-anchor="start" x="1272" y="-18" font-family="Helvetica,sans-Serif" font-size="10.00">gameEngine.Data.TowerTile</text>
<text text-anchor="middle" x="1338" y="-7" font-family="Helvetica,sans-Serif" font-size="10.00">Grid.setChangedStatus</text>
</a>
</g>
</g>
<!-- Node33&#45;&gt;Node34 -->
<g id="edge36" class="edge"><title>Node33&#45;&gt;Node34</title>
<path fill="none" stroke="midnightblue" d="M1199.21,-15C1216.8,-15 1235.72,-15 1253.73,-15"/>
<polygon fill="midnightblue" stroke="midnightblue" points="1253.92,-18.5001 1263.92,-15 1253.92,-11.5001 1253.92,-18.5001"/>
</g>
<!-- Node37&#45;&gt;Node29 -->
<g id="edge41" class="edge"><title>Node37&#45;&gt;Node29</title>
<path fill="none" stroke="midnightblue" d="M716.593,-118C733.101,-118 750.153,-118 766.656,-118"/>
<polygon fill="midnightblue" stroke="midnightblue" points="766.85,-121.5 776.85,-118 766.85,-114.5 766.85,-121.5"/>
</g>
<!-- Node38 -->
<g id="node38" class="node"><title>Node38</title>
<g id="a_node38"><a xlink:href="../../db/d6c/classgame_engine_1_1_data_1_1_range_restricted_collection.html#a740018a0377ca1fdc643aefb3bf712a0" target="_top" xlink:title="gameEngine.Data.RangeRestricted\lCollection.remove">
<polygon fill="white" stroke="black" points="782.5,-54 782.5,-84 965.5,-84 965.5,-54 782.5,-54"/>
<text text-anchor="start" x="790.5" y="-72" font-family="Helvetica,sans-Serif" font-size="10.00">gameEngine.Data.RangeRestricted</text>
<text text-anchor="middle" x="874" y="-61" font-family="Helvetica,sans-Serif" font-size="10.00">Collection.remove</text>
</a>
</g>
</g>
<!-- Node37&#45;&gt;Node38 -->
<g id="edge40" class="edge"><title>Node37&#45;&gt;Node38</title>
<path fill="none" stroke="midnightblue" d="M690.696,-102.965C719.727,-97.5565 752.663,-91.4203 782.476,-85.8657"/>
<polygon fill="midnightblue" stroke="midnightblue" points="783.267,-89.2787 792.457,-84.0062 781.985,-82.3971 783.267,-89.2787"/>
</g>
</g>
</svg>
