<?xml version="1.0" encoding="UTF-8" standalone="no"?>
<!DOCTYPE svg PUBLIC "-//W3C//DTD SVG 1.1//EN"
 "http://www.w3.org/Graphics/SVG/1.1/DTD/svg11.dtd">
<!-- Generated by graphviz version 2.36.0 (20140111.2315)
 -->
<!-- Title: gamePlayer.mainClasses.managers.GuiManager.init Pages: 1 -->
<svg width="1202pt" height="286pt"
 viewBox="0.00 0.00 1202.00 286.00" xmlns="http://www.w3.org/2000/svg" xmlns:xlink="http://www.w3.org/1999/xlink">
<g id="graph0" class="graph" transform="scale(1 1) rotate(0) translate(4 282)">
<title>gamePlayer.mainClasses.managers.GuiManager.init</title>
<polygon fill="white" stroke="none" points="-4,4 -4,-282 1198,-282 1198,4 -4,4"/>
<!-- Node1 -->
<g id="node1" class="node"><title>Node1</title>
<polygon fill="#bfbfbf" stroke="black" points="0.5,-142 0.5,-172 191.5,-172 191.5,-142 0.5,-142"/>
<text text-anchor="start" x="8.5" y="-160" font-family="Helvetica,sans-Serif" font-size="10.00">gamePlayer.mainClasses.managers.</text>
<text text-anchor="middle" x="96" y="-149" font-family="Helvetica,sans-Serif" font-size="10.00">GuiManager.init</text>
</g>
<!-- Node2 -->
<g id="node2" class="node"><title>Node2</title>
<g id="a_node2"><a xlink:href="../../d4/d3f/classgame_player_1_1main_classes_1_1managers_1_1_welcome_manager.html#a85bf325329fe7587bbe74526c37c11c0" target="_top" xlink:title="gamePlayer.mainClasses.managers.\lWelcomeManager.newGame">
<polygon fill="white" stroke="black" points="239.5,-230 239.5,-260 430.5,-260 430.5,-230 239.5,-230"/>
<text text-anchor="start" x="247.5" y="-248" font-family="Helvetica,sans-Serif" font-size="10.00">gamePlayer.mainClasses.managers.</text>
<text text-anchor="middle" x="335" y="-237" font-family="Helvetica,sans-Serif" font-size="10.00">WelcomeManager.newGame</text>
</a>
</g>
</g>
<!-- Node1&#45;&gt;Node2 -->
<g id="edge1" class="edge"><title>Node1&#45;&gt;Node2</title>
<path fill="none" stroke="midnightblue" d="M136.772,-176.365C162.436,-188.419 196.745,-203.722 228,-215 243.112,-220.453 259.719,-225.558 275.213,-229.955"/>
<polygon fill="midnightblue" stroke="midnightblue" points="138.265,-173.199 127.729,-172.084 135.27,-179.526 138.265,-173.199"/>
</g>
<!-- Node3 -->
<g id="node3" class="node"><title>Node3</title>
<g id="a_node3"><a xlink:href="../../da/d69/classgame_player_1_1main_classes_1_1managers_1_1_gui_manager.html#a3f657f0e3ba1e493d2dd02b5df5e03f6" target="_top" xlink:title="gamePlayer.mainClasses.managers.\lGuiManager.replayGame">
<polygon fill="white" stroke="black" points="492.5,-245 492.5,-275 683.5,-275 683.5,-245 492.5,-245"/>
<text text-anchor="start" x="500.5" y="-263" font-family="Helvetica,sans-Serif" font-size="10.00">gamePlayer.mainClasses.managers.</text>
<text text-anchor="middle" x="588" y="-252" font-family="Helvetica,sans-Serif" font-size="10.00">GuiManager.replayGame</text>
</a>
</g>
</g>
<!-- Node1&#45;&gt;Node3 -->
<g id="edge2" class="edge"><title>Node1&#45;&gt;Node3</title>
<path fill="none" stroke="midnightblue" d="M188.823,-173.818C288.928,-192.186 435.842,-219.248 442,-221 458.512,-225.697 461.59,-229.957 478,-235 489.785,-238.622 502.429,-241.985 514.782,-244.995"/>
<polygon fill="midnightblue" stroke="midnightblue" points="189.452,-170.376 178.985,-172.014 188.189,-177.261 189.452,-170.376"/>
</g>
<!-- Node4 -->
<g id="node4" class="node"><title>Node4</title>
<g id="a_node4"><a xlink:href="../../da/d69/classgame_player_1_1main_classes_1_1managers_1_1_gui_manager.html#aa0b614e03bdec959e13e3d5ca2e1f614" target="_top" xlink:title="gamePlayer.mainClasses.managers.\lGuiManager.startMultiPlayerGame">
<polygon fill="white" stroke="black" points="239.5,-142 239.5,-172 430.5,-172 430.5,-142 239.5,-142"/>
<text text-anchor="start" x="247.5" y="-160" font-family="Helvetica,sans-Serif" font-size="10.00">gamePlayer.mainClasses.managers.</text>
<text text-anchor="middle" x="335" y="-149" font-family="Helvetica,sans-Serif" font-size="10.00">GuiManager.startMultiPlayerGame</text>
</a>
</g>
</g>
<!-- Node1&#45;&gt;Node4 -->
<g id="edge3" class="edge"><title>Node1&#45;&gt;Node4</title>
<path fill="none" stroke="midnightblue" d="M201.711,-157C214.276,-157 227.051,-157 239.46,-157"/>
<polygon fill="midnightblue" stroke="midnightblue" points="201.69,-153.5 191.69,-157 201.69,-160.5 201.69,-153.5"/>
</g>
<!-- Node15 -->
<g id="node15" class="node"><title>Node15</title>
<g id="a_node15"><a xlink:href="../../d4/d3f/classgame_player_1_1main_classes_1_1managers_1_1_welcome_manager.html#a5da8d3f5b8bc1c4bd4c555140bd9384c" target="_top" xlink:title="gamePlayer.mainClasses.managers.\lWelcomeManager.startSinglePlayerGame">
<polygon fill="white" stroke="black" points="228,-82 228,-112 442,-112 442,-82 228,-82"/>
<text text-anchor="start" x="236" y="-100" font-family="Helvetica,sans-Serif" font-size="10.00">gamePlayer.mainClasses.managers.</text>
<text text-anchor="middle" x="335" y="-89" font-family="Helvetica,sans-Serif" font-size="10.00">WelcomeManager.startSinglePlayerGame</text>
</a>
</g>
</g>
<!-- Node1&#45;&gt;Node15 -->
<g id="edge15" class="edge"><title>Node1&#45;&gt;Node15</title>
<path fill="none" stroke="midnightblue" d="M166.442,-139.42C200.721,-130.742 241.65,-120.38 274.476,-112.069"/>
<polygon fill="midnightblue" stroke="midnightblue" points="165.334,-136.09 156.499,-141.937 167.052,-142.876 165.334,-136.09"/>
</g>
<!-- Node16 -->
<g id="node16" class="node"><title>Node16</title>
<g id="a_node16"><a xlink:href="../../d3/dee/classgame_player_1_1main_classes_1_1welcome_screen_1_1_game_start_manager.html#a0c44b3f25d2a30fe2e7aeca9da7161a9" target="_top" xlink:title="gamePlayer.mainClasses.welcome\lScreen.GameStartManager.startSingle\lPlayerGame">
<polygon fill="white" stroke="black" points="233.5,-0.5 233.5,-41.5 436.5,-41.5 436.5,-0.5 233.5,-0.5"/>
<text text-anchor="start" x="241.5" y="-29.5" font-family="Helvetica,sans-Serif" font-size="10.00">gamePlayer.mainClasses.welcome</text>
<text text-anchor="start" x="241.5" y="-18.5" font-family="Helvetica,sans-Serif" font-size="10.00">Screen.GameStartManager.startSingle</text>
<text text-anchor="middle" x="335" y="-7.5" font-family="Helvetica,sans-Serif" font-size="10.00">PlayerGame</text>
</a>
</g>
</g>
<!-- Node1&#45;&gt;Node16 -->
<g id="edge17" class="edge"><title>Node1&#45;&gt;Node16</title>
<path fill="none" stroke="midnightblue" d="M126.592,-136.251C152.714,-118.313 192.114,-92.1675 228,-72 247.227,-61.1943 269.097,-50.429 287.958,-41.5932"/>
<polygon fill="midnightblue" stroke="midnightblue" points="124.507,-133.437 118.266,-141.999 128.484,-139.198 124.507,-133.437"/>
</g>
<!-- Node4&#45;&gt;Node3 -->
<g id="edge8" class="edge"><title>Node4&#45;&gt;Node3</title>
<path fill="none" stroke="midnightblue" d="M422.012,-175.979C429.05,-179.113 435.821,-182.759 442,-187 463.986,-202.091 455.642,-220.467 478,-235 483.942,-238.862 490.405,-242.131 497.12,-244.898"/>
<polygon fill="midnightblue" stroke="midnightblue" points="422.863,-172.547 412.282,-172.017 420.223,-179.03 422.863,-172.547"/>
</g>
<!-- Node5 -->
<g id="node5" class="node"><title>Node5</title>
<g id="a_node5"><a xlink:href="../../da/d69/classgame_player_1_1main_classes_1_1managers_1_1_gui_manager.html#ad50f462f8d45a5bbfc8a17290372a1ab" target="_top" xlink:title="gamePlayer.mainClasses.managers.\lGuiManager.joinMultiPlayerGame">
<polygon fill="white" stroke="black" points="492.5,-196 492.5,-226 683.5,-226 683.5,-196 492.5,-196"/>
<text text-anchor="start" x="500.5" y="-214" font-family="Helvetica,sans-Serif" font-size="10.00">gamePlayer.mainClasses.managers.</text>
<text text-anchor="middle" x="588" y="-203" font-family="Helvetica,sans-Serif" font-size="10.00">GuiManager.joinMultiPlayerGame</text>
</a>
</g>
</g>
<!-- Node4&#45;&gt;Node5 -->
<g id="edge4" class="edge"><title>Node4&#45;&gt;Node5</title>
<path fill="none" stroke="midnightblue" d="M415.843,-174.177C448.354,-181.172 485.597,-189.184 517.023,-195.945"/>
<polygon fill="midnightblue" stroke="midnightblue" points="416.43,-170.724 405.917,-172.042 414.958,-177.567 416.43,-170.724"/>
</g>
<!-- Node9 -->
<g id="node9" class="node"><title>Node9</title>
<g id="a_node9"><a xlink:href="../../d4/d3f/classgame_player_1_1main_classes_1_1managers_1_1_welcome_manager.html#a55598dd2973b0a9b979151dd60c9e436" target="_top" xlink:title="gamePlayer.mainClasses.managers.\lWelcomeManager.pollEngineForMultiPlayer\lReadiness">
<polygon fill="white" stroke="black" points="478.5,-136.5 478.5,-177.5 697.5,-177.5 697.5,-136.5 478.5,-136.5"/>
<text text-anchor="start" x="486.5" y="-165.5" font-family="Helvetica,sans-Serif" font-size="10.00">gamePlayer.mainClasses.managers.</text>
<text text-anchor="start" x="486.5" y="-154.5" font-family="Helvetica,sans-Serif" font-size="10.00">WelcomeManager.pollEngineForMultiPlayer</text>
<text text-anchor="middle" x="588" y="-143.5" font-family="Helvetica,sans-Serif" font-size="10.00">Readiness</text>
</a>
</g>
</g>
<!-- Node4&#45;&gt;Node9 -->
<g id="edge9" class="edge"><title>Node4&#45;&gt;Node9</title>
<path fill="none" stroke="midnightblue" d="M440.835,-157C453.187,-157 465.814,-157 478.219,-157"/>
<polygon fill="midnightblue" stroke="midnightblue" points="440.535,-153.5 430.535,-157 440.535,-160.5 440.535,-153.5"/>
</g>
<!-- Node12 -->
<g id="node12" class="node"><title>Node12</title>
<g id="a_node12"><a xlink:href="../../d3/dee/classgame_player_1_1main_classes_1_1welcome_screen_1_1_game_start_manager.html#a5d5001d1ee14ae57deef01f6e3ddde31" target="_top" xlink:title="gamePlayer.mainClasses.welcome\lScreen.GameStartManager.pollEngine\lForMultiPlayerReadiness">
<polygon fill="white" stroke="black" points="488,-76.5 488,-117.5 688,-117.5 688,-76.5 488,-76.5"/>
<text text-anchor="start" x="496" y="-105.5" font-family="Helvetica,sans-Serif" font-size="10.00">gamePlayer.mainClasses.welcome</text>
<text text-anchor="start" x="496" y="-94.5" font-family="Helvetica,sans-Serif" font-size="10.00">Screen.GameStartManager.pollEngine</text>
<text text-anchor="middle" x="588" y="-83.5" font-family="Helvetica,sans-Serif" font-size="10.00">ForMultiPlayerReadiness</text>
</a>
</g>
</g>
<!-- Node4&#45;&gt;Node12 -->
<g id="edge12" class="edge"><title>Node4&#45;&gt;Node12</title>
<path fill="none" stroke="midnightblue" d="M409.015,-139.546C437.857,-132.652 471.21,-124.679 501.194,-117.511"/>
<polygon fill="midnightblue" stroke="midnightblue" points="407.926,-136.208 399.014,-141.937 409.554,-143.016 407.926,-136.208"/>
</g>
<!-- Node6 -->
<g id="node6" class="node"><title>Node6</title>
<g id="a_node6"><a xlink:href="../../d4/d3f/classgame_player_1_1main_classes_1_1managers_1_1_welcome_manager.html#a71a2a80cfe9d3a07d7becc506178acfd" target="_top" xlink:title="gamePlayer.mainClasses.managers.\lWelcomeManager.joinMultiPlayerGame">
<polygon fill="white" stroke="black" points="737.5,-248 737.5,-278 938.5,-278 938.5,-248 737.5,-248"/>
<text text-anchor="start" x="745.5" y="-266" font-family="Helvetica,sans-Serif" font-size="10.00">gamePlayer.mainClasses.managers.</text>
<text text-anchor="middle" x="838" y="-255" font-family="Helvetica,sans-Serif" font-size="10.00">WelcomeManager.joinMultiPlayerGame</text>
</a>
</g>
</g>
<!-- Node5&#45;&gt;Node6 -->
<g id="edge5" class="edge"><title>Node5&#45;&gt;Node6</title>
<path fill="none" stroke="midnightblue" d="M670.532,-228.095C701.177,-234.521 735.758,-241.772 765.429,-247.993"/>
<polygon fill="midnightblue" stroke="midnightblue" points="671.237,-224.667 660.732,-226.041 669.801,-231.518 671.237,-224.667"/>
</g>
<!-- Node8 -->
<g id="node8" class="node"><title>Node8</title>
<g id="a_node8"><a xlink:href="../../d3/dee/classgame_player_1_1main_classes_1_1welcome_screen_1_1_game_start_manager.html#a7465850240e12e23aec544dbfd08f6a0" target="_top" xlink:title="gamePlayer.mainClasses.welcome\lScreen.GameStartManager.joinMulti\lPlayerGame">
<polygon fill="white" stroke="black" points="743,-188.5 743,-229.5 933,-229.5 933,-188.5 743,-188.5"/>
<text text-anchor="start" x="751" y="-217.5" font-family="Helvetica,sans-Serif" font-size="10.00">gamePlayer.mainClasses.welcome</text>
<text text-anchor="start" x="751" y="-206.5" font-family="Helvetica,sans-Serif" font-size="10.00">Screen.GameStartManager.joinMulti</text>
<text text-anchor="middle" x="838" y="-195.5" font-family="Helvetica,sans-Serif" font-size="10.00">PlayerGame</text>
</a>
</g>
</g>
<!-- Node5&#45;&gt;Node8 -->
<g id="edge7" class="edge"><title>Node5&#45;&gt;Node8</title>
<path fill="none" stroke="midnightblue" d="M693.839,-210.155C710.041,-210.024 726.69,-209.89 742.643,-209.761"/>
<polygon fill="midnightblue" stroke="midnightblue" points="693.791,-206.655 683.82,-210.235 693.848,-213.654 693.791,-206.655"/>
</g>
<!-- Node7 -->
<g id="node7" class="node"><title>Node7</title>
<g id="a_node7"><a xlink:href="../../d4/d3f/classgame_player_1_1main_classes_1_1managers_1_1_welcome_manager.html#aa605746e09c481b225463d37a82427e3" target="_top" xlink:title="gamePlayer.mainClasses.managers.\lWelcomeManager.startMultiPlayerOptions">
<polygon fill="white" stroke="black" points="978.5,-248 978.5,-278 1193.5,-278 1193.5,-248 978.5,-248"/>
<text text-anchor="start" x="986.5" y="-266" font-family="Helvetica,sans-Serif" font-size="10.00">gamePlayer.mainClasses.managers.</text>
<text text-anchor="middle" x="1086" y="-255" font-family="Helvetica,sans-Serif" font-size="10.00">WelcomeManager.startMultiPlayerOptions</text>
</a>
</g>
</g>
<!-- Node6&#45;&gt;Node7 -->
<g id="edge6" class="edge"><title>Node6&#45;&gt;Node7</title>
<path fill="none" stroke="midnightblue" d="M948.86,-263C958.656,-263 968.564,-263 978.332,-263"/>
<polygon fill="midnightblue" stroke="midnightblue" points="948.703,-259.5 938.703,-263 948.703,-266.5 948.703,-259.5"/>
</g>
<!-- Node10 -->
<g id="node10" class="node"><title>Node10</title>
<g id="a_node10"><a xlink:href="../../d4/d3f/classgame_player_1_1main_classes_1_1managers_1_1_welcome_manager.html#a0669db103a94675dce875042258da508" target="_top" xlink:title="gamePlayer.mainClasses.managers.\lWelcomeManager.startMultiPlayerGame">
<polygon fill="white" stroke="black" points="734.5,-139 734.5,-169 941.5,-169 941.5,-139 734.5,-139"/>
<text text-anchor="start" x="742.5" y="-157" font-family="Helvetica,sans-Serif" font-size="10.00">gamePlayer.mainClasses.managers.</text>
<text text-anchor="middle" x="838" y="-146" font-family="Helvetica,sans-Serif" font-size="10.00">WelcomeManager.startMultiPlayerGame</text>
</a>
</g>
</g>
<!-- Node9&#45;&gt;Node10 -->
<g id="edge10" class="edge"><title>Node9&#45;&gt;Node10</title>
<path fill="none" stroke="midnightblue" d="M708.025,-155.56C716.777,-155.454 725.562,-155.348 734.206,-155.243"/>
<polygon fill="midnightblue" stroke="midnightblue" points="707.733,-152.063 697.776,-155.684 707.818,-159.063 707.733,-152.063"/>
</g>
<!-- Node11 -->
<g id="node11" class="node"><title>Node11</title>
<g id="a_node11"><a xlink:href="../../d4/d3f/classgame_player_1_1main_classes_1_1managers_1_1_welcome_manager.html#ae6495396aef63551116c0835c40574e1" target="_top" xlink:title="gamePlayer.mainClasses.managers.\lWelcomeManager.startGame">
<polygon fill="white" stroke="black" points="990.5,-114 990.5,-144 1181.5,-144 1181.5,-114 990.5,-114"/>
<text text-anchor="start" x="998.5" y="-132" font-family="Helvetica,sans-Serif" font-size="10.00">gamePlayer.mainClasses.managers.</text>
<text text-anchor="middle" x="1086" y="-121" font-family="Helvetica,sans-Serif" font-size="10.00">WelcomeManager.startGame</text>
</a>
</g>
</g>
<!-- Node10&#45;&gt;Node11 -->
<g id="edge11" class="edge"><title>Node10&#45;&gt;Node11</title>
<path fill="none" stroke="midnightblue" d="M951.86,-142.53C964.777,-141.218 977.844,-139.89 990.486,-138.605"/>
<polygon fill="midnightblue" stroke="midnightblue" points="951.14,-139.086 941.545,-143.579 951.847,-146.05 951.14,-139.086"/>
</g>
<!-- Node13 -->
<g id="node13" class="node"><title>Node13</title>
<g id="a_node13"><a xlink:href="../../d3/dee/classgame_player_1_1main_classes_1_1welcome_screen_1_1_game_start_manager.html#a994c29260d6cb90abf19dca2b3463b6a" target="_top" xlink:title="gamePlayer.mainClasses.welcome\lScreen.GameStartManager.startMulti\lPlayerGame">
<polygon fill="white" stroke="black" points="740,-76.5 740,-117.5 936,-117.5 936,-76.5 740,-76.5"/>
<text text-anchor="start" x="748" y="-105.5" font-family="Helvetica,sans-Serif" font-size="10.00">gamePlayer.mainClasses.welcome</text>
<text text-anchor="start" x="748" y="-94.5" font-family="Helvetica,sans-Serif" font-size="10.00">Screen.GameStartManager.startMulti</text>
<text text-anchor="middle" x="838" y="-83.5" font-family="Helvetica,sans-Serif" font-size="10.00">PlayerGame</text>
</a>
</g>
</g>
<!-- Node12&#45;&gt;Node13 -->
<g id="edge13" class="edge"><title>Node12&#45;&gt;Node13</title>
<path fill="none" stroke="midnightblue" d="M698.111,-97C711.953,-97 726.047,-97 739.689,-97"/>
<polygon fill="midnightblue" stroke="midnightblue" points="698.085,-93.5001 688.085,-97 698.085,-100.5 698.085,-93.5001"/>
</g>
<!-- Node14 -->
<g id="node14" class="node"><title>Node14</title>
<g id="a_node14"><a xlink:href="../../d3/dee/classgame_player_1_1main_classes_1_1welcome_screen_1_1_game_start_manager.html#a4ac849399bf00c6df86f0db25ea95ed8" target="_top" xlink:title="gamePlayer.mainClasses.welcome\lScreen.GameStartManager.startGame">
<polygon fill="white" stroke="black" points="984.5,-39 984.5,-69 1187.5,-69 1187.5,-39 984.5,-39"/>
<text text-anchor="start" x="992.5" y="-57" font-family="Helvetica,sans-Serif" font-size="10.00">gamePlayer.mainClasses.welcome</text>
<text text-anchor="middle" x="1086" y="-46" font-family="Helvetica,sans-Serif" font-size="10.00">Screen.GameStartManager.startGame</text>
</a>
</g>
</g>
<!-- Node13&#45;&gt;Node14 -->
<g id="edge14" class="edge"><title>Node13&#45;&gt;Node14</title>
<path fill="none" stroke="midnightblue" d="M946.476,-78.2135C963.989,-75.1524 981.928,-72.0167 998.842,-69.0601"/>
<polygon fill="midnightblue" stroke="midnightblue" points="945.474,-74.8356 936.226,-80.0053 946.679,-81.731 945.474,-74.8356"/>
</g>
<!-- Node15&#45;&gt;Node11 -->
<g id="edge16" class="edge"><title>Node15&#45;&gt;Node11</title>
<path fill="none" stroke="midnightblue" d="M403.438,-79.7554C426.875,-74.5637 453.441,-69.566 478,-67 683.106,-45.5704 740.077,-25.1104 942,-67 964.388,-71.6446 1019.54,-97.1768 1054.44,-113.994"/>
<polygon fill="midnightblue" stroke="midnightblue" points="402.579,-76.3613 393.601,-81.9858 404.127,-83.188 402.579,-76.3613"/>
</g>
<!-- Node16&#45;&gt;Node14 -->
<g id="edge18" class="edge"><title>Node16&#45;&gt;Node14</title>
<path fill="none" stroke="midnightblue" d="M446.7,-21.8052C568.285,-23.2684 769.245,-27.3901 942,-39 955.699,-39.9206 970.112,-41.138 984.3,-42.4822"/>
<polygon fill="midnightblue" stroke="midnightblue" points="446.676,-18.3048 436.636,-21.688 446.595,-25.3043 446.676,-18.3048"/>
</g>
</g>
</svg>
