<?xml version="1.0" encoding="UTF-8" standalone="no"?>
<!DOCTYPE svg PUBLIC "-//W3C//DTD SVG 1.1//EN"
 "http://www.w3.org/Graphics/SVG/1.1/DTD/svg11.dtd">
<!-- Generated by graphviz version 2.36.0 (20140111.2315)
 -->
<!-- Title: gamePlayer.mainClasses.managers.GuiManager.initializeNewGameElements Pages: 1 -->
<svg width="1574pt" height="587pt"
 viewBox="0.00 0.00 1574.00 587.00" xmlns="http://www.w3.org/2000/svg" xmlns:xlink="http://www.w3.org/1999/xlink">
<g id="graph0" class="graph" transform="scale(1 1) rotate(0) translate(4 583)">
<title>gamePlayer.mainClasses.managers.GuiManager.initializeNewGameElements</title>
<polygon fill="white" stroke="none" points="-4,4 -4,-583 1570,-583 1570,4 -4,4"/>
<!-- Node1 -->
<g id="node1" class="node"><title>Node1</title>
<polygon fill="#bfbfbf" stroke="black" points="0.5,-392 0.5,-422 209.5,-422 209.5,-392 0.5,-392"/>
<text text-anchor="start" x="8.5" y="-410" font-family="Helvetica,sans-Serif" font-size="10.00">gamePlayer.mainClasses.managers.</text>
<text text-anchor="middle" x="105" y="-399" font-family="Helvetica,sans-Serif" font-size="10.00">GuiManager.initializeNewGameElements</text>
</g>
<!-- Node2 -->
<g id="node2" class="node"><title>Node2</title>
<g id="a_node2"><a xlink:href="../../da/d69/classgame_player_1_1main_classes_1_1managers_1_1_gui_manager.html#aaaecc4585a203eff3a5dc3c49f81a2bc" target="_top" xlink:title="gamePlayer.mainClasses.managers.\lGuiManager.addBackground">
<polygon fill="white" stroke="black" points="247.5,-540 247.5,-570 438.5,-570 438.5,-540 247.5,-540"/>
<text text-anchor="start" x="255.5" y="-558" font-family="Helvetica,sans-Serif" font-size="10.00">gamePlayer.mainClasses.managers.</text>
<text text-anchor="middle" x="343" y="-547" font-family="Helvetica,sans-Serif" font-size="10.00">GuiManager.addBackground</text>
</a>
</g>
</g>
<!-- Node1&#45;&gt;Node2 -->
<g id="edge1" class="edge"><title>Node1&#45;&gt;Node2</title>
<path fill="none" stroke="midnightblue" d="M119.07,-422.206C142.097,-448.033 192.54,-500.441 246,-529 251.122,-531.736 256.556,-534.203 262.13,-536.422"/>
<polygon fill="midnightblue" stroke="midnightblue" points="261.021,-539.744 271.614,-539.929 263.449,-533.178 261.021,-539.744"/>
</g>
<!-- Node5 -->
<g id="node5" class="node"><title>Node5</title>
<g id="a_node5"><a xlink:href="../../da/d69/classgame_player_1_1main_classes_1_1managers_1_1_gui_manager.html#a568a35b44fce8599b5ecdc25d973ab74" target="_top" xlink:title="gamePlayer.mainClasses.managers.\lGuiManager.endGame">
<polygon fill="white" stroke="black" points="247.5,-490 247.5,-520 438.5,-520 438.5,-490 247.5,-490"/>
<text text-anchor="start" x="255.5" y="-508" font-family="Helvetica,sans-Serif" font-size="10.00">gamePlayer.mainClasses.managers.</text>
<text text-anchor="middle" x="343" y="-497" font-family="Helvetica,sans-Serif" font-size="10.00">GuiManager.endGame</text>
</a>
</g>
</g>
<!-- Node1&#45;&gt;Node5 -->
<g id="edge4" class="edge"><title>Node1&#45;&gt;Node5</title>
<path fill="none" stroke="midnightblue" d="M130.994,-422.246C158.393,-438.426 204.05,-463.84 246,-480 252.425,-482.475 259.184,-484.787 266.016,-486.926"/>
<polygon fill="midnightblue" stroke="midnightblue" points="265.465,-490.414 276.049,-489.935 267.476,-483.709 265.465,-490.414"/>
</g>
<!-- Node9 -->
<g id="node9" class="node"><title>Node9</title>
<g id="a_node9"><a xlink:href="../../da/d69/classgame_player_1_1main_classes_1_1managers_1_1_gui_manager.html#ae2f2b1e5fe0b1dce495f5d8fabc99dd3" target="_top" xlink:title="gamePlayer.mainClasses.managers.\lGuiManager.fillStore">
<polygon fill="white" stroke="black" points="247.5,-441 247.5,-471 438.5,-471 438.5,-441 247.5,-441"/>
<text text-anchor="start" x="255.5" y="-459" font-family="Helvetica,sans-Serif" font-size="10.00">gamePlayer.mainClasses.managers.</text>
<text text-anchor="middle" x="343" y="-448" font-family="Helvetica,sans-Serif" font-size="10.00">GuiManager.fillStore</text>
</a>
</g>
</g>
<!-- Node1&#45;&gt;Node9 -->
<g id="edge8" class="edge"><title>Node1&#45;&gt;Node9</title>
<path fill="none" stroke="midnightblue" d="M178.412,-422.035C204.123,-427.373 233.246,-433.42 259.721,-438.917"/>
<polygon fill="midnightblue" stroke="midnightblue" points="259.223,-442.388 269.725,-440.994 260.646,-435.534 259.223,-442.388"/>
</g>
<!-- Node22 -->
<g id="node22" class="node"><title>Node22</title>
<g id="a_node22"><a xlink:href="../../d0/d94/classgame_engine_1_1_main_engine_manager.html#a5e6519686b33d092440e56d30583b9ce" target="_top" xlink:title="gameEngine.MainEngineManager.get\lAllTowerTypeInformation">
<polygon fill="white" stroke="black" points="246,-392 246,-422 440,-422 440,-392 246,-392"/>
<text text-anchor="start" x="254" y="-410" font-family="Helvetica,sans-Serif" font-size="10.00">gameEngine.MainEngineManager.get</text>
<text text-anchor="middle" x="343" y="-399" font-family="Helvetica,sans-Serif" font-size="10.00">AllTowerTypeInformation</text>
</a>
</g>
</g>
<!-- Node1&#45;&gt;Node22 -->
<g id="edge21" class="edge"><title>Node1&#45;&gt;Node22</title>
<path fill="none" stroke="midnightblue" d="M209.513,-407C218.148,-407 226.887,-407 235.543,-407"/>
<polygon fill="midnightblue" stroke="midnightblue" points="235.655,-410.5 245.655,-407 235.655,-403.5 235.655,-410.5"/>
</g>
<!-- Node23 -->
<g id="node23" class="node"><title>Node23</title>
<g id="a_node23"><a xlink:href="../../d0/d94/classgame_engine_1_1_main_engine_manager.html#a966fd8c96580c19e8b04063782ef775f" target="_top" xlink:title="gameEngine.MainEngineManager.get\lWinStatus">
<polygon fill="white" stroke="black" points="246,-343 246,-373 440,-373 440,-343 246,-343"/>
<text text-anchor="start" x="254" y="-361" font-family="Helvetica,sans-Serif" font-size="10.00">gameEngine.MainEngineManager.get</text>
<text text-anchor="middle" x="343" y="-350" font-family="Helvetica,sans-Serif" font-size="10.00">WinStatus</text>
</a>
</g>
</g>
<!-- Node1&#45;&gt;Node23 -->
<g id="edge22" class="edge"><title>Node1&#45;&gt;Node23</title>
<path fill="none" stroke="midnightblue" d="M178.412,-391.965C204.123,-386.627 233.246,-380.58 259.721,-375.083"/>
<polygon fill="midnightblue" stroke="midnightblue" points="260.646,-378.466 269.725,-373.006 259.223,-371.612 260.646,-378.466"/>
</g>
<!-- Node24 -->
<g id="node24" class="node"><title>Node24</title>
<g id="a_node24"><a xlink:href="../../da/d69/classgame_player_1_1main_classes_1_1managers_1_1_gui_manager.html#a6055e678686afb552c0ea4946d6b97a2" target="_top" xlink:title="gamePlayer.mainClasses.managers.\lGuiManager.makeTowerMap">
<polygon fill="white" stroke="black" points="247.5,-294 247.5,-324 438.5,-324 438.5,-294 247.5,-294"/>
<text text-anchor="start" x="255.5" y="-312" font-family="Helvetica,sans-Serif" font-size="10.00">gamePlayer.mainClasses.managers.</text>
<text text-anchor="middle" x="343" y="-301" font-family="Helvetica,sans-Serif" font-size="10.00">GuiManager.makeTowerMap</text>
</a>
</g>
</g>
<!-- Node1&#45;&gt;Node24 -->
<g id="edge23" class="edge"><title>Node1&#45;&gt;Node24</title>
<path fill="none" stroke="midnightblue" d="M130.994,-391.754C158.393,-375.574 204.05,-350.16 246,-334 252.425,-331.525 259.184,-329.213 266.016,-327.074"/>
<polygon fill="midnightblue" stroke="midnightblue" points="267.476,-330.291 276.049,-324.065 265.465,-323.586 267.476,-330.291"/>
</g>
<!-- Node27 -->
<g id="node27" class="node"><title>Node27</title>
<g id="a_node27"><a xlink:href="../../da/d69/classgame_player_1_1main_classes_1_1managers_1_1_gui_manager.html#a65aad1ef2aaead2977ee21f0a78696a7" target="_top" xlink:title="gamePlayer.mainClasses.managers.\lGuiManager.setUpHUD">
<polygon fill="white" stroke="black" points="247.5,-147 247.5,-177 438.5,-177 438.5,-147 247.5,-147"/>
<text text-anchor="start" x="255.5" y="-165" font-family="Helvetica,sans-Serif" font-size="10.00">gamePlayer.mainClasses.managers.</text>
<text text-anchor="middle" x="343" y="-154" font-family="Helvetica,sans-Serif" font-size="10.00">GuiManager.setUpHUD</text>
</a>
</g>
</g>
<!-- Node1&#45;&gt;Node27 -->
<g id="edge26" class="edge"><title>Node1&#45;&gt;Node27</title>
<path fill="none" stroke="midnightblue" d="M120.763,-391.674C161.089,-349.81 273.242,-233.38 320.532,-184.287"/>
<polygon fill="midnightblue" stroke="midnightblue" points="323.127,-186.638 327.544,-177.007 318.086,-181.781 323.127,-186.638"/>
</g>
<!-- Node3 -->
<g id="node3" class="node"><title>Node3</title>
<g id="a_node3"><a xlink:href="../../d0/dee/classgame_player_1_1gui_items_1_1game_world_1_1_game_world.html#a8a8ae6368ca74ad695e397f1e754853f" target="_top" xlink:title="gamePlayer.guiItems.game\lWorld.GameWorld.setBackground">
<polygon fill="white" stroke="black" points="490.5,-541 490.5,-571 665.5,-571 665.5,-541 490.5,-541"/>
<text text-anchor="start" x="498.5" y="-559" font-family="Helvetica,sans-Serif" font-size="10.00">gamePlayer.guiItems.game</text>
<text text-anchor="middle" x="578" y="-548" font-family="Helvetica,sans-Serif" font-size="10.00">World.GameWorld.setBackground</text>
</a>
</g>
</g>
<!-- Node2&#45;&gt;Node3 -->
<g id="edge2" class="edge"><title>Node2&#45;&gt;Node3</title>
<path fill="none" stroke="midnightblue" d="M438.77,-555.407C452.324,-555.465 466.285,-555.525 479.883,-555.583"/>
<polygon fill="midnightblue" stroke="midnightblue" points="480.183,-559.084 490.198,-555.627 480.213,-552.084 480.183,-559.084"/>
</g>
<!-- Node4 -->
<g id="node4" class="node"><title>Node4</title>
<g id="a_node4"><a xlink:href="../../dc/d37/classutilities_1_1_java_f_xutilities_1_1image_view_1_1_string_to_image_view_converter.html#a5beb76f3bbfa4aae7d9b897a285b007b" target="_top" xlink:title="utilities.JavaFXutilities.image\lView.StringToImageViewConverter.get\lImageView">
<polygon fill="white" stroke="black" points="722,-537.5 722,-578.5 918,-578.5 918,-537.5 722,-537.5"/>
<text text-anchor="start" x="730" y="-566.5" font-family="Helvetica,sans-Serif" font-size="10.00">utilities.JavaFXutilities.image</text>
<text text-anchor="start" x="730" y="-555.5" font-family="Helvetica,sans-Serif" font-size="10.00">View.StringToImageViewConverter.get</text>
<text text-anchor="middle" x="820" y="-544.5" font-family="Helvetica,sans-Serif" font-size="10.00">ImageView</text>
</a>
</g>
</g>
<!-- Node3&#45;&gt;Node4 -->
<g id="edge3" class="edge"><title>Node3&#45;&gt;Node4</title>
<path fill="none" stroke="midnightblue" d="M665.646,-556.722C680.625,-556.847 696.357,-556.978 711.803,-557.107"/>
<polygon fill="midnightblue" stroke="midnightblue" points="711.873,-560.607 721.902,-557.191 711.931,-553.608 711.873,-560.607"/>
</g>
<!-- Node6 -->
<g id="node6" class="node"><title>Node6</title>
<g id="a_node6"><a xlink:href="../../da/d69/classgame_player_1_1main_classes_1_1managers_1_1_gui_manager.html#aa36cd779c78f6d551e001fbe2ccbf2c8" target="_top" xlink:title="gamePlayer.mainClasses.managers.\lGuiManager.displayMessage">
<polygon fill="white" stroke="black" points="482.5,-490 482.5,-520 673.5,-520 673.5,-490 482.5,-490"/>
<text text-anchor="start" x="490.5" y="-508" font-family="Helvetica,sans-Serif" font-size="10.00">gamePlayer.mainClasses.managers.</text>
<text text-anchor="middle" x="578" y="-497" font-family="Helvetica,sans-Serif" font-size="10.00">GuiManager.displayMessage</text>
</a>
</g>
</g>
<!-- Node5&#45;&gt;Node6 -->
<g id="edge5" class="edge"><title>Node5&#45;&gt;Node6</title>
<path fill="none" stroke="midnightblue" d="M438.77,-505C449.767,-505 461.031,-505 472.152,-505"/>
<polygon fill="midnightblue" stroke="midnightblue" points="472.314,-508.5 482.314,-505 472.314,-501.5 472.314,-508.5"/>
</g>
<!-- Node8 -->
<g id="node8" class="node"><title>Node8</title>
<g id="a_node8"><a xlink:href="../../d0/dee/classgame_player_1_1gui_items_1_1game_world_1_1_game_world.html#ab07bae6d692a39832fd7ecc25f3b6cf3" target="_top" xlink:title="gamePlayer.guiItems.game\lWorld.GameWorld.getMap">
<polygon fill="white" stroke="black" points="504,-441 504,-471 652,-471 652,-441 504,-441"/>
<text text-anchor="start" x="512" y="-459" font-family="Helvetica,sans-Serif" font-size="10.00">gamePlayer.guiItems.game</text>
<text text-anchor="middle" x="578" y="-448" font-family="Helvetica,sans-Serif" font-size="10.00">World.GameWorld.getMap</text>
</a>
</g>
</g>
<!-- Node5&#45;&gt;Node8 -->
<g id="edge7" class="edge"><title>Node5&#45;&gt;Node8</title>
<path fill="none" stroke="midnightblue" d="M415.491,-489.965C440.875,-484.627 469.629,-478.58 495.767,-473.083"/>
<polygon fill="midnightblue" stroke="midnightblue" points="496.578,-476.489 505.644,-471.006 495.138,-469.639 496.578,-476.489"/>
</g>
<!-- Node7 -->
<g id="node7" class="node"><title>Node7</title>
<g id="a_node7"><a xlink:href="../../dd/dee/classgame_player_1_1gui_items_1_1message_display_1_1_message_display.html#aab83737510993a53476288fcb995af19" target="_top" xlink:title="gamePlayer.guiItems.message\lDisplay.MessageDisplay.showMessage">
<polygon fill="white" stroke="black" points="721,-489 721,-519 919,-519 919,-489 721,-489"/>
<text text-anchor="start" x="729" y="-507" font-family="Helvetica,sans-Serif" font-size="10.00">gamePlayer.guiItems.message</text>
<text text-anchor="middle" x="820" y="-496" font-family="Helvetica,sans-Serif" font-size="10.00">Display.MessageDisplay.showMessage</text>
</a>
</g>
</g>
<!-- Node6&#45;&gt;Node7 -->
<g id="edge6" class="edge"><title>Node6&#45;&gt;Node7</title>
<path fill="none" stroke="midnightblue" d="M673.51,-504.606C685.602,-504.556 698.057,-504.504 710.351,-504.453"/>
<polygon fill="midnightblue" stroke="midnightblue" points="710.644,-507.952 720.629,-504.41 710.615,-500.952 710.644,-507.952"/>
</g>
<!-- Node10 -->
<g id="node10" class="node"><title>Node10</title>
<g id="a_node10"><a xlink:href="../../d1/dd3/classgame_player_1_1gui_items_1_1store_1_1_store.html#ad13bae4293f420c408c63393a7e2d0b7" target="_top" xlink:title="gamePlayer.guiItems.store.\lStore.fillStore">
<polygon fill="white" stroke="black" points="504,-392 504,-422 652,-422 652,-392 504,-392"/>
<text text-anchor="start" x="512" y="-410" font-family="Helvetica,sans-Serif" font-size="10.00">gamePlayer.guiItems.store.</text>
<text text-anchor="middle" x="578" y="-399" font-family="Helvetica,sans-Serif" font-size="10.00">Store.fillStore</text>
</a>
</g>
</g>
<!-- Node9&#45;&gt;Node10 -->
<g id="edge9" class="edge"><title>Node9&#45;&gt;Node10</title>
<path fill="none" stroke="midnightblue" d="M415.491,-440.965C440.875,-435.627 469.629,-429.58 495.767,-424.083"/>
<polygon fill="midnightblue" stroke="midnightblue" points="496.578,-427.489 505.644,-422.006 495.138,-420.639 496.578,-427.489"/>
</g>
<!-- Node11 -->
<g id="node11" class="node"><title>Node11</title>
<g id="a_node11"><a xlink:href="../../d1/dd3/classgame_player_1_1gui_items_1_1store_1_1_store.html#a3a475d789937d88d409aeac21ac44b73" target="_top" xlink:title="gamePlayer.guiItems.store.\lStore.addStoreItem">
<polygon fill="white" stroke="black" points="746,-416 746,-446 894,-446 894,-416 746,-416"/>
<text text-anchor="start" x="754" y="-434" font-family="Helvetica,sans-Serif" font-size="10.00">gamePlayer.guiItems.store.</text>
<text text-anchor="middle" x="820" y="-423" font-family="Helvetica,sans-Serif" font-size="10.00">Store.addStoreItem</text>
</a>
</g>
</g>
<!-- Node10&#45;&gt;Node11 -->
<g id="edge10" class="edge"><title>Node10&#45;&gt;Node11</title>
<path fill="none" stroke="midnightblue" d="M652.312,-414.331C678.592,-416.959 708.412,-419.941 735.492,-422.649"/>
<polygon fill="midnightblue" stroke="midnightblue" points="735.425,-426.16 745.724,-423.672 736.122,-419.195 735.425,-426.16"/>
</g>
<!-- Node21 -->
<g id="node21" class="node"><title>Node21</title>
<g id="a_node21"><a xlink:href="../../d1/dd3/classgame_player_1_1gui_items_1_1store_1_1_store.html#ab1377093321780f308cc6b8a0b3251a1" target="_top" xlink:title="gamePlayer.guiItems.store.\lStore.refreshStore">
<polygon fill="white" stroke="black" points="746,-367 746,-397 894,-397 894,-367 746,-367"/>
<text text-anchor="start" x="754" y="-385" font-family="Helvetica,sans-Serif" font-size="10.00">gamePlayer.guiItems.store.</text>
<text text-anchor="middle" x="820" y="-374" font-family="Helvetica,sans-Serif" font-size="10.00">Store.refreshStore</text>
</a>
</g>
</g>
<!-- Node10&#45;&gt;Node21 -->
<g id="edge20" class="edge"><title>Node10&#45;&gt;Node21</title>
<path fill="none" stroke="midnightblue" d="M652.312,-399.363C678.592,-396.626 708.412,-393.52 735.492,-390.699"/>
<polygon fill="midnightblue" stroke="midnightblue" points="736.14,-394.15 745.724,-389.633 735.415,-387.188 736.14,-394.15"/>
</g>
<!-- Node12 -->
<g id="node12" class="node"><title>Node12</title>
<g id="a_node12"><a xlink:href="../../dc/dae/classgame_player_1_1gui_items_1_1store_1_1_store_item.html#a142486d1bd08d5715be57ebdbdb89216" target="_top" xlink:title="gamePlayer.guiItems.store.\lStoreItem.getCost">
<polygon fill="white" stroke="black" points="975,-538 975,-568 1123,-568 1123,-538 975,-538"/>
<text text-anchor="start" x="983" y="-556" font-family="Helvetica,sans-Serif" font-size="10.00">gamePlayer.guiItems.store.</text>
<text text-anchor="middle" x="1049" y="-545" font-family="Helvetica,sans-Serif" font-size="10.00">StoreItem.getCost</text>
</a>
</g>
</g>
<!-- Node11&#45;&gt;Node12 -->
<g id="edge11" class="edge"><title>Node11&#45;&gt;Node12</title>
<path fill="none" stroke="midnightblue" d="M864.278,-446.097C883.799,-454.228 906.374,-465.581 924,-480 944.64,-496.885 938.022,-512.898 960,-528 962.902,-529.994 965.962,-531.831 969.13,-533.521"/>
<polygon fill="midnightblue" stroke="midnightblue" points="967.773,-536.752 978.304,-537.912 970.794,-530.438 967.773,-536.752"/>
</g>
<!-- Node13 -->
<g id="node13" class="node"><title>Node13</title>
<g id="a_node13"><a xlink:href="../../dc/dae/classgame_player_1_1gui_items_1_1store_1_1_store_item.html#ace321a88ffc3435a3a29608d07734c88" target="_top" xlink:title="gamePlayer.guiItems.store.\lStoreItem.getImageView">
<polygon fill="white" stroke="black" points="975,-489 975,-519 1123,-519 1123,-489 975,-489"/>
<text text-anchor="start" x="983" y="-507" font-family="Helvetica,sans-Serif" font-size="10.00">gamePlayer.guiItems.store.</text>
<text text-anchor="middle" x="1049" y="-496" font-family="Helvetica,sans-Serif" font-size="10.00">StoreItem.getImageView</text>
</a>
</g>
</g>
<!-- Node11&#45;&gt;Node13 -->
<g id="edge12" class="edge"><title>Node11&#45;&gt;Node13</title>
<path fill="none" stroke="midnightblue" d="M862.769,-446.104C890.265,-455.879 927.121,-468.662 960,-479 967.457,-481.345 975.3,-483.712 983.104,-486.007"/>
<polygon fill="midnightblue" stroke="midnightblue" points="982.357,-489.434 992.937,-488.867 984.312,-482.713 982.357,-489.434"/>
</g>
<!-- Node14 -->
<g id="node14" class="node"><title>Node14</title>
<g id="a_node14"><a xlink:href="../../dc/dae/classgame_player_1_1gui_items_1_1store_1_1_store_item.html#a8ae812518987daf8a4a382321dd5def5" target="_top" xlink:title="gamePlayer.guiItems.store.\lStoreItem.getName">
<polygon fill="white" stroke="black" points="975,-440 975,-470 1123,-470 1123,-440 975,-440"/>
<text text-anchor="start" x="983" y="-458" font-family="Helvetica,sans-Serif" font-size="10.00">gamePlayer.guiItems.store.</text>
<text text-anchor="middle" x="1049" y="-447" font-family="Helvetica,sans-Serif" font-size="10.00">StoreItem.getName</text>
</a>
</g>
</g>
<!-- Node11&#45;&gt;Node14 -->
<g id="edge13" class="edge"><title>Node11&#45;&gt;Node14</title>
<path fill="none" stroke="midnightblue" d="M894.074,-438.726C916.541,-441.101 941.439,-443.734 964.547,-446.177"/>
<polygon fill="midnightblue" stroke="midnightblue" points="964.362,-449.677 974.674,-447.248 965.098,-442.715 964.362,-449.677"/>
</g>
<!-- Node15 -->
<g id="node15" class="node"><title>Node15</title>
<g id="a_node15"><a xlink:href="../../d1/dd3/classgame_player_1_1gui_items_1_1store_1_1_store.html#ac652ff32d9b01696f457c4684d22a5f2" target="_top" xlink:title="gamePlayer.guiItems.store.\lStore.placeTower">
<polygon fill="white" stroke="black" points="975,-391 975,-421 1123,-421 1123,-391 975,-391"/>
<text text-anchor="start" x="983" y="-409" font-family="Helvetica,sans-Serif" font-size="10.00">gamePlayer.guiItems.store.</text>
<text text-anchor="middle" x="1049" y="-398" font-family="Helvetica,sans-Serif" font-size="10.00">Store.placeTower</text>
</a>
</g>
</g>
<!-- Node11&#45;&gt;Node15 -->
<g id="edge14" class="edge"><title>Node11&#45;&gt;Node15</title>
<path fill="none" stroke="midnightblue" d="M894.074,-422.952C916.541,-420.478 941.439,-417.736 964.547,-415.191"/>
<polygon fill="midnightblue" stroke="midnightblue" points="965.118,-418.649 974.674,-414.076 964.351,-411.691 965.118,-418.649"/>
</g>
<!-- Node19 -->
<g id="node19" class="node"><title>Node19</title>
<g id="a_node19"><a xlink:href="../../d1/dd3/classgame_player_1_1gui_items_1_1store_1_1_store.html#a1600c932a01da118ec135b26e55c6b36" target="_top" xlink:title="gamePlayer.guiItems.store.\lStore.showCost">
<polygon fill="white" stroke="black" points="975,-342 975,-372 1123,-372 1123,-342 975,-342"/>
<text text-anchor="start" x="983" y="-360" font-family="Helvetica,sans-Serif" font-size="10.00">gamePlayer.guiItems.store.</text>
<text text-anchor="middle" x="1049" y="-349" font-family="Helvetica,sans-Serif" font-size="10.00">Store.showCost</text>
</a>
</g>
</g>
<!-- Node11&#45;&gt;Node19 -->
<g id="edge18" class="edge"><title>Node11&#45;&gt;Node19</title>
<path fill="none" stroke="midnightblue" d="M894.089,-416.639C904.324,-413.659 914.562,-410.136 924,-406 941.612,-398.281 942.54,-390.058 960,-382 965.047,-379.671 970.359,-377.511 975.769,-375.518"/>
<polygon fill="midnightblue" stroke="midnightblue" points="977.28,-378.698 985.577,-372.11 974.982,-372.086 977.28,-378.698"/>
</g>
<!-- Node20 -->
<g id="node20" class="node"><title>Node20</title>
<g id="a_node20"><a xlink:href="../../d1/dd3/classgame_player_1_1gui_items_1_1store_1_1_store.html#ab6e81515c1cfc8fadbd7daa5647722e6" target="_top" xlink:title="gamePlayer.guiItems.store.\lStore.showGraphic">
<polygon fill="white" stroke="black" points="975,-293 975,-323 1123,-323 1123,-293 975,-293"/>
<text text-anchor="start" x="983" y="-311" font-family="Helvetica,sans-Serif" font-size="10.00">gamePlayer.guiItems.store.</text>
<text text-anchor="middle" x="1049" y="-300" font-family="Helvetica,sans-Serif" font-size="10.00">Store.showGraphic</text>
</a>
</g>
</g>
<!-- Node11&#45;&gt;Node20 -->
<g id="edge19" class="edge"><title>Node11&#45;&gt;Node20</title>
<path fill="none" stroke="midnightblue" d="M894.259,-421.706C904.977,-418.027 915.311,-412.96 924,-406 952.234,-383.384 932.209,-356.158 960,-333 962.028,-331.31 964.165,-329.733 966.386,-328.264"/>
<polygon fill="midnightblue" stroke="midnightblue" points="968.414,-331.134 975.328,-323.106 964.917,-325.071 968.414,-331.134"/>
</g>
<!-- Node16 -->
<g id="node16" class="node"><title>Node16</title>
<g id="a_node16"><a xlink:href="../../d1/dd3/classgame_player_1_1gui_items_1_1store_1_1_store.html#a9a8c7f92a7b3744d435a62b73a7277cd" target="_top" xlink:title="gamePlayer.guiItems.store.\lStore.checkEscape">
<polygon fill="white" stroke="black" points="1189,-415 1189,-445 1337,-445 1337,-415 1189,-415"/>
<text text-anchor="start" x="1197" y="-433" font-family="Helvetica,sans-Serif" font-size="10.00">gamePlayer.guiItems.store.</text>
<text text-anchor="middle" x="1263" y="-422" font-family="Helvetica,sans-Serif" font-size="10.00">Store.checkEscape</text>
</a>
</g>
</g>
<!-- Node15&#45;&gt;Node16 -->
<g id="edge15" class="edge"><title>Node15&#45;&gt;Node16</title>
<path fill="none" stroke="midnightblue" d="M1123.26,-414.293C1141.13,-416.317 1160.38,-418.496 1178.68,-420.568"/>
<polygon fill="midnightblue" stroke="midnightblue" points="1178.41,-424.059 1188.74,-421.707 1179.2,-417.104 1178.41,-424.059"/>
</g>
<!-- Node18 -->
<g id="node18" class="node"><title>Node18</title>
<g id="a_node18"><a xlink:href="../../d4/db7/interfacegame_player_1_1gui_items_listeners_1_1_store_listener.html#af2099fff195e2d68cdf7dbe5e383269e" target="_top" xlink:title="gamePlayer.guiItemsListeners.\lStoreListener.placeTower">
<polygon fill="white" stroke="black" points="1181,-366 1181,-396 1345,-396 1345,-366 1181,-366"/>
<text text-anchor="start" x="1189" y="-384" font-family="Helvetica,sans-Serif" font-size="10.00">gamePlayer.guiItemsListeners.</text>
<text text-anchor="middle" x="1263" y="-373" font-family="Helvetica,sans-Serif" font-size="10.00">StoreListener.placeTower</text>
</a>
</g>
</g>
<!-- Node15&#45;&gt;Node18 -->
<g id="edge17" class="edge"><title>Node15&#45;&gt;Node18</title>
<path fill="none" stroke="midnightblue" d="M1123.26,-397.361C1138.47,-395.567 1154.69,-393.655 1170.47,-391.794"/>
<polygon fill="midnightblue" stroke="midnightblue" points="1171.24,-395.227 1180.76,-390.58 1170.42,-388.275 1171.24,-395.227"/>
</g>
<!-- Node17 -->
<g id="node17" class="node"><title>Node17</title>
<g id="a_node17"><a xlink:href="../../d4/db7/interfacegame_player_1_1gui_items_listeners_1_1_store_listener.html#a09ba9b5e100d86c9165ce8355a49028d" target="_top" xlink:title="gamePlayer.guiItemsListeners.\lStoreListener.escapePlace">
<polygon fill="white" stroke="black" points="1395,-415 1395,-445 1559,-445 1559,-415 1395,-415"/>
<text text-anchor="start" x="1403" y="-433" font-family="Helvetica,sans-Serif" font-size="10.00">gamePlayer.guiItemsListeners.</text>
<text text-anchor="middle" x="1477" y="-422" font-family="Helvetica,sans-Serif" font-size="10.00">StoreListener.escapePlace</text>
</a>
</g>
</g>
<!-- Node16&#45;&gt;Node17 -->
<g id="edge16" class="edge"><title>Node16&#45;&gt;Node17</title>
<path fill="none" stroke="midnightblue" d="M1337.26,-430C1352.47,-430 1368.69,-430 1384.47,-430"/>
<polygon fill="midnightblue" stroke="midnightblue" points="1384.76,-433.5 1394.76,-430 1384.76,-426.5 1384.76,-433.5"/>
</g>
<!-- Node25 -->
<g id="node25" class="node"><title>Node25</title>
<g id="a_node25"><a xlink:href="../../d2/dae/classgame_engine_1_1_data_1_1_tower_info_object.html#aae3256ac67a3504c1e55820260c542a2" target="_top" xlink:title="gameEngine.Data.TowerInfo\lObject.getMyUpgrade">
<polygon fill="white" stroke="black" points="503.5,-343 503.5,-373 652.5,-373 652.5,-343 503.5,-343"/>
<text text-anchor="start" x="511.5" y="-361" font-family="Helvetica,sans-Serif" font-size="10.00">gameEngine.Data.TowerInfo</text>
<text text-anchor="middle" x="578" y="-350" font-family="Helvetica,sans-Serif" font-size="10.00">Object.getMyUpgrade</text>
</a>
</g>
</g>
<!-- Node24&#45;&gt;Node25 -->
<g id="edge24" class="edge"><title>Node24&#45;&gt;Node25</title>
<path fill="none" stroke="midnightblue" d="M415.491,-324.035C440.875,-329.373 469.629,-335.42 495.767,-340.917"/>
<polygon fill="midnightblue" stroke="midnightblue" points="495.138,-344.361 505.644,-342.994 496.578,-337.511 495.138,-344.361"/>
</g>
<!-- Node26 -->
<g id="node26" class="node"><title>Node26</title>
<g id="a_node26"><a xlink:href="../../d2/dae/classgame_engine_1_1_data_1_1_tower_info_object.html#a52473d08f24e1e664999ec11f8f72632" target="_top" xlink:title="gameEngine.Data.TowerInfo\lObject.getName">
<polygon fill="white" stroke="black" points="503.5,-294 503.5,-324 652.5,-324 652.5,-294 503.5,-294"/>
<text text-anchor="start" x="511.5" y="-312" font-family="Helvetica,sans-Serif" font-size="10.00">gameEngine.Data.TowerInfo</text>
<text text-anchor="middle" x="578" y="-301" font-family="Helvetica,sans-Serif" font-size="10.00">Object.getName</text>
</a>
</g>
</g>
<!-- Node24&#45;&gt;Node26 -->
<g id="edge25" class="edge"><title>Node24&#45;&gt;Node26</title>
<path fill="none" stroke="midnightblue" d="M438.77,-309C456.78,-309 475.508,-309 493.149,-309"/>
<polygon fill="midnightblue" stroke="midnightblue" points="493.397,-312.5 503.397,-309 493.397,-305.5 493.397,-312.5"/>
</g>
<!-- Node28 -->
<g id="node28" class="node"><title>Node28</title>
<g id="a_node28"><a xlink:href="../../d0/d94/classgame_engine_1_1_main_engine_manager.html#a7528dda0c3d19dab4650cd7ceeb4a5ff" target="_top" xlink:title="gameEngine.MainEngineManager.get\lCurrentLevelProperty">
<polygon fill="white" stroke="black" points="481,-245 481,-275 675,-275 675,-245 481,-245"/>
<text text-anchor="start" x="489" y="-263" font-family="Helvetica,sans-Serif" font-size="10.00">gameEngine.MainEngineManager.get</text>
<text text-anchor="middle" x="578" y="-252" font-family="Helvetica,sans-Serif" font-size="10.00">CurrentLevelProperty</text>
</a>
</g>
</g>
<!-- Node27&#45;&gt;Node28 -->
<g id="edge27" class="edge"><title>Node27&#45;&gt;Node28</title>
<path fill="none" stroke="midnightblue" d="M366.932,-177.132C392.568,-193.454 435.776,-219.217 476,-235 482.59,-237.586 489.529,-239.965 496.555,-242.142"/>
<polygon fill="midnightblue" stroke="midnightblue" points="495.585,-245.505 506.167,-244.984 497.57,-238.792 495.585,-245.505"/>
</g>
<!-- Node29 -->
<g id="node29" class="node"><title>Node29</title>
<g id="a_node29"><a xlink:href="../../de/d1a/classgame_player_1_1gui_items_1_1heads_up_display_1_1_game_stat.html#a6a0e0959c86d6be192dab0aca0dc6aa2" target="_top" xlink:title="gamePlayer.guiItems.heads\lUpDisplay.GameStat.setGameStat">
<polygon fill="white" stroke="black" points="486.5,-196 486.5,-226 669.5,-226 669.5,-196 486.5,-196"/>
<text text-anchor="start" x="494.5" y="-214" font-family="Helvetica,sans-Serif" font-size="10.00">gamePlayer.guiItems.heads</text>
<text text-anchor="middle" x="578" y="-203" font-family="Helvetica,sans-Serif" font-size="10.00">UpDisplay.GameStat.setGameStat</text>
</a>
</g>
</g>
<!-- Node27&#45;&gt;Node29 -->
<g id="edge28" class="edge"><title>Node27&#45;&gt;Node29</title>
<path fill="none" stroke="midnightblue" d="M415.491,-177.035C440.875,-182.373 469.629,-188.42 495.767,-193.917"/>
<polygon fill="midnightblue" stroke="midnightblue" points="495.138,-197.361 505.644,-195.994 496.578,-190.511 495.138,-197.361"/>
</g>
<!-- Node31 -->
<g id="node31" class="node"><title>Node31</title>
<g id="a_node31"><a xlink:href="../../de/d1a/classgame_player_1_1gui_items_1_1heads_up_display_1_1_game_stat.html#a8b7a10b5d7454339159230a830272c69" target="_top" xlink:title="gamePlayer.guiItems.heads\lUpDisplay.GameStat.statValueProperty">
<polygon fill="white" stroke="black" points="476,-147 476,-177 680,-177 680,-147 476,-147"/>
<text text-anchor="start" x="484" y="-165" font-family="Helvetica,sans-Serif" font-size="10.00">gamePlayer.guiItems.heads</text>
<text text-anchor="middle" x="578" y="-154" font-family="Helvetica,sans-Serif" font-size="10.00">UpDisplay.GameStat.statValueProperty</text>
</a>
</g>
</g>
<!-- Node27&#45;&gt;Node31 -->
<g id="edge30" class="edge"><title>Node27&#45;&gt;Node31</title>
<path fill="none" stroke="midnightblue" d="M438.77,-162C447.649,-162 456.703,-162 465.716,-162"/>
<polygon fill="midnightblue" stroke="midnightblue" points="465.862,-165.5 475.862,-162 465.862,-158.5 465.862,-165.5"/>
</g>
<!-- Node32 -->
<g id="node32" class="node"><title>Node32</title>
<g id="a_node32"><a xlink:href="../../d0/d94/classgame_engine_1_1_main_engine_manager.html#a1e89018fb479a8c91b27e38952922637" target="_top" xlink:title="gameEngine.MainEngineManager.get\lGoldProperty">
<polygon fill="white" stroke="black" points="481,-98 481,-128 675,-128 675,-98 481,-98"/>
<text text-anchor="start" x="489" y="-116" font-family="Helvetica,sans-Serif" font-size="10.00">gameEngine.MainEngineManager.get</text>
<text text-anchor="middle" x="578" y="-105" font-family="Helvetica,sans-Serif" font-size="10.00">GoldProperty</text>
</a>
</g>
</g>
<!-- Node27&#45;&gt;Node32 -->
<g id="edge31" class="edge"><title>Node27&#45;&gt;Node32</title>
<path fill="none" stroke="midnightblue" d="M415.491,-146.965C440.875,-141.627 469.629,-135.58 495.767,-130.083"/>
<polygon fill="midnightblue" stroke="midnightblue" points="496.578,-133.489 505.644,-128.006 495.138,-126.639 496.578,-133.489"/>
</g>
<!-- Node33 -->
<g id="node33" class="node"><title>Node33</title>
<g id="a_node33"><a xlink:href="../../d0/d94/classgame_engine_1_1_main_engine_manager.html#a173b927005ec5320ad716bd0c1aa490e" target="_top" xlink:title="gameEngine.MainEngineManager.get\lHealthProperty">
<polygon fill="white" stroke="black" points="481,-49 481,-79 675,-79 675,-49 481,-49"/>
<text text-anchor="start" x="489" y="-67" font-family="Helvetica,sans-Serif" font-size="10.00">gameEngine.MainEngineManager.get</text>
<text text-anchor="middle" x="578" y="-56" font-family="Helvetica,sans-Serif" font-size="10.00">HealthProperty</text>
</a>
</g>
</g>
<!-- Node27&#45;&gt;Node33 -->
<g id="edge32" class="edge"><title>Node27&#45;&gt;Node33</title>
<path fill="none" stroke="midnightblue" d="M366.932,-146.868C392.568,-130.546 435.776,-104.783 476,-89 482.59,-86.4144 489.529,-84.0346 496.555,-81.8582"/>
<polygon fill="midnightblue" stroke="midnightblue" points="497.57,-85.208 506.167,-79.0161 495.585,-78.4953 497.57,-85.208"/>
</g>
<!-- Node34 -->
<g id="node34" class="node"><title>Node34</title>
<g id="a_node34"><a xlink:href="../../da/d69/classgame_player_1_1main_classes_1_1managers_1_1_gui_manager.html#a0f8f5877cb33bb58fc827c2ad673da0f" target="_top" xlink:title="gamePlayer.mainClasses.managers.\lGuiManager.setGameStats">
<polygon fill="white" stroke="black" points="482.5,-0 482.5,-30 673.5,-30 673.5,-0 482.5,-0"/>
<text text-anchor="start" x="490.5" y="-18" font-family="Helvetica,sans-Serif" font-size="10.00">gamePlayer.mainClasses.managers.</text>
<text text-anchor="middle" x="578" y="-7" font-family="Helvetica,sans-Serif" font-size="10.00">GuiManager.setGameStats</text>
</a>
</g>
</g>
<!-- Node27&#45;&gt;Node34 -->
<g id="edge33" class="edge"><title>Node27&#45;&gt;Node34</title>
<path fill="none" stroke="midnightblue" d="M356.061,-146.641C377.376,-120.583 424.357,-67.8348 476,-40 480.296,-37.6846 484.81,-35.5795 489.448,-33.6661"/>
<polygon fill="midnightblue" stroke="midnightblue" points="491.003,-36.8196 499.113,-30.0017 488.521,-30.2742 491.003,-36.8196"/>
</g>
<!-- Node30 -->
<g id="node30" class="node"><title>Node30</title>
<g id="a_node30"><a xlink:href="../../de/d1a/classgame_player_1_1gui_items_1_1heads_up_display_1_1_game_stat.html#abfd86660751e85445800ec598f35c654" target="_top" xlink:title="gamePlayer.guiItems.heads\lUpDisplay.GameStat.gameStatProperty">
<polygon fill="white" stroke="black" points="716.5,-196 716.5,-226 923.5,-226 923.5,-196 716.5,-196"/>
<text text-anchor="start" x="724.5" y="-214" font-family="Helvetica,sans-Serif" font-size="10.00">gamePlayer.guiItems.heads</text>
<text text-anchor="middle" x="820" y="-203" font-family="Helvetica,sans-Serif" font-size="10.00">UpDisplay.GameStat.gameStatProperty</text>
</a>
</g>
</g>
<!-- Node29&#45;&gt;Node30 -->
<g id="edge29" class="edge"><title>Node29&#45;&gt;Node30</title>
<path fill="none" stroke="midnightblue" d="M669.734,-211C681.66,-211 693.996,-211 706.233,-211"/>
<polygon fill="midnightblue" stroke="midnightblue" points="706.476,-214.5 716.476,-211 706.476,-207.5 706.476,-214.5"/>
</g>
<!-- Node35 -->
<g id="node35" class="node"><title>Node35</title>
<g id="a_node35"><a xlink:href="../../d7/da7/classgame_player_1_1gui_items_1_1heads_up_display_1_1_h_u_d.html#a12c92f05f29dd70399bab705dbde1f2f" target="_top" xlink:title="gamePlayer.guiItems.heads\lUpDisplay.HUD.setGameStats">
<polygon fill="white" stroke="black" points="739.5,-0 739.5,-30 900.5,-30 900.5,-0 739.5,-0"/>
<text text-anchor="start" x="747.5" y="-18" font-family="Helvetica,sans-Serif" font-size="10.00">gamePlayer.guiItems.heads</text>
<text text-anchor="middle" x="820" y="-7" font-family="Helvetica,sans-Serif" font-size="10.00">UpDisplay.HUD.setGameStats</text>
</a>
</g>
</g>
<!-- Node34&#45;&gt;Node35 -->
<g id="edge34" class="edge"><title>Node34&#45;&gt;Node35</title>
<path fill="none" stroke="midnightblue" d="M673.51,-15C691.882,-15 711.091,-15 729.303,-15"/>
<polygon fill="midnightblue" stroke="midnightblue" points="729.306,-18.5001 739.306,-15 729.306,-11.5001 729.306,-18.5001"/>
</g>
<!-- Node36 -->
<g id="node36" class="node"><title>Node36</title>
<g id="a_node36"><a xlink:href="../../df/db4/classutilities_1_1_x_m_l_parsing_1_1_x_m_l_parser.html#a159b395412a8ce61e6decfefc9ed9854" target="_top" xlink:title="utilities.XMLParsing.XMLParser.get\lDoubleValuesFromTag">
<polygon fill="white" stroke="black" points="960,-0 960,-30 1138,-30 1138,-0 960,-0"/>
<text text-anchor="start" x="968" y="-18" font-family="Helvetica,sans-Serif" font-size="10.00">utilities.XMLParsing.XMLParser.get</text>
<text text-anchor="middle" x="1049" y="-7" font-family="Helvetica,sans-Serif" font-size="10.00">DoubleValuesFromTag</text>
</a>
</g>
</g>
<!-- Node35&#45;&gt;Node36 -->
<g id="edge35" class="edge"><title>Node35&#45;&gt;Node36</title>
<path fill="none" stroke="midnightblue" d="M900.713,-15C916.581,-15 933.42,-15 949.823,-15"/>
<polygon fill="midnightblue" stroke="midnightblue" points="949.968,-18.5001 959.968,-15 949.968,-11.5001 949.968,-18.5001"/>
</g>
<!-- Node37 -->
<g id="node37" class="node"><title>Node37</title>
<g id="a_node37"><a xlink:href="../../df/db4/classutilities_1_1_x_m_l_parsing_1_1_x_m_l_parser.html#a70485375200a84f459aa83ffedbea646" target="_top" xlink:title="utilities.XMLParsing.XMLParser.get\lValuesFromTag">
<polygon fill="white" stroke="black" points="1174,-0 1174,-30 1352,-30 1352,-0 1174,-0"/>
<text text-anchor="start" x="1182" y="-18" font-family="Helvetica,sans-Serif" font-size="10.00">utilities.XMLParsing.XMLParser.get</text>
<text text-anchor="middle" x="1263" y="-7" font-family="Helvetica,sans-Serif" font-size="10.00">ValuesFromTag</text>
</a>
</g>
</g>
<!-- Node36&#45;&gt;Node37 -->
<g id="edge36" class="edge"><title>Node36&#45;&gt;Node37</title>
<path fill="none" stroke="midnightblue" d="M1138.07,-15C1146.57,-15 1155.23,-15 1163.82,-15"/>
<polygon fill="midnightblue" stroke="midnightblue" points="1163.87,-18.5001 1173.87,-15 1163.87,-11.5001 1163.87,-18.5001"/>
</g>
<!-- Node38 -->
<g id="node38" class="node"><title>Node38</title>
<g id="a_node38"><a xlink:href="../../df/db4/classutilities_1_1_x_m_l_parsing_1_1_x_m_l_parser.html#ab3a0a60481d20e93b1382f9a8a31fe9d" target="_top" xlink:title="utilities.XMLParsing.XMLParser.get\lValues">
<polygon fill="white" stroke="black" points="1388,-0 1388,-30 1566,-30 1566,-0 1388,-0"/>
<text text-anchor="start" x="1396" y="-18" font-family="Helvetica,sans-Serif" font-size="10.00">utilities.XMLParsing.XMLParser.get</text>
<text text-anchor="middle" x="1477" y="-7" font-family="Helvetica,sans-Serif" font-size="10.00">Values</text>
</a>
</g>
</g>
<!-- Node37&#45;&gt;Node38 -->
<g id="edge37" class="edge"><title>Node37&#45;&gt;Node38</title>
<path fill="none" stroke="midnightblue" d="M1352.07,-15C1360.57,-15 1369.23,-15 1377.82,-15"/>
<polygon fill="midnightblue" stroke="midnightblue" points="1377.87,-18.5001 1387.87,-15 1377.87,-11.5001 1377.87,-18.5001"/>
</g>
</g>
</svg>
