<?xml version="1.0" encoding="UTF-8" standalone="no"?>
<!DOCTYPE svg PUBLIC "-//W3C//DTD SVG 1.1//EN"
 "http://www.w3.org/Graphics/SVG/1.1/DTD/svg11.dtd">
<!-- Generated by graphviz version 2.36.0 (20140111.2315)
 -->
<!-- Title: gamePlayer.mainClasses.managers.GuiManager.loadState Pages: 1 -->
<!--zoomable 580 -->
<svg id="main" version="1.1" xmlns="http://www.w3.org/2000/svg" xmlns:xlink="http://www.w3.org/1999/xlink" xml:space="preserve" onload="init(evt)">
<style type="text/css"><![CDATA[
.edge:hover path { stroke: red; }
.edge:hover polygon { stroke: red; fill: red; }
]]></style>
<script type="text/javascript"><![CDATA[
var edges = document.getElementsByTagName('g');
if (edges && edges.length) {
  for (var i=0;i<edges.length;i++) {
    if (edges[i].id.substr(0,4)=='edge') {
      edges[i].setAttribute('class','edge');
    }
  }
}
]]></script>
        <defs>
                <circle id="rim" cx="0" cy="0" r="7"/>
                <circle id="rim2" cx="0" cy="0" r="3.5"/>
                <g id="zoomPlus">
                        <use xlink:href="#rim" fill="#404040">
                                <set attributeName="fill" to="#808080" begin="zoomplus.mouseover" end="zoomplus.mouseout"/>
                        </use>
                        <path d="M-4,0h8M0,-4v8" fill="none" stroke="white" stroke-width="1.5" pointer-events="none"/>
                </g>
                <g id="zoomMin">
                        <use xlink:href="#rim" fill="#404040">
                                <set attributeName="fill" to="#808080" begin="zoomminus.mouseover" end="zoomminus.mouseout"/>
                        </use>
                        <path d="M-4,0h8" fill="none" stroke="white" stroke-width="1.5" pointer-events="none"/>
                </g>
                <g id="dirArrow">
                        <path fill="none" stroke="white" stroke-width="1.5" d="M0,-3.0v7 M-2.5,-0.5L0,-3.0L2.5,-0.5"/>
                </g>
               <g id="resetDef">
                       <use xlink:href="#rim2" fill="#404040">
                               <set attributeName="fill" to="#808080" begin="reset.mouseover" end="reset.mouseout"/>
                       </use>
               </g>
        </defs>

<script type="text/javascript">
var viewWidth = 1640;
var viewHeight = 580;
var sectionId = 'dynsection-27';
</script>
<script xlink:href="../../svgpan.js"/>
<svg id="graph" class="graph">
<g id="viewport">
<title>gamePlayer.mainClasses.managers.GuiManager.loadState</title>
<polygon fill="white" stroke="none" points="-4,4 -4,-576 1636,-576 1636,4 -4,4"/>
<!-- Node1 -->
<g id="node1" class="node"><title>Node1</title>
<polygon fill="#bfbfbf" stroke="black" points="0.5,-326 0.5,-356 191.5,-356 191.5,-326 0.5,-326"/>
<text text-anchor="start" x="8.5" y="-344" font-family="Helvetica,sans-Serif" font-size="10.00">gamePlayer.mainClasses.managers.</text>
<text text-anchor="middle" x="96" y="-333" font-family="Helvetica,sans-Serif" font-size="10.00">GuiManager.loadState</text>
</g>
<!-- Node2 -->
<g id="node2" class="node"><title>Node2</title>
<g id="a_node2"><a xlink:href="../../d0/d47/classgame_player_1_1gui_features_1_1_file_loader.html#af9bf84f005d9d6734a650f1d38237dda" target="_top" xlink:title="gamePlayer.guiFeatures.File\lLoader.getInstance">
<polygon fill="white" stroke="black" points="253.5,-412 253.5,-442 402.5,-442 402.5,-412 253.5,-412"/>
<text text-anchor="start" x="261.5" y="-430" font-family="Helvetica,sans-Serif" font-size="10.00">gamePlayer.guiFeatures.File</text>
<text text-anchor="middle" x="328" y="-419" font-family="Helvetica,sans-Serif" font-size="10.00">Loader.getInstance</text>
</a>
</g>
</g>
<!-- Node1&#45;&gt;Node2 -->
<g id="edge1" class="edge"><title>Node1&#45;&gt;Node2</title>
<path fill="none" stroke="midnightblue" d="M137.326,-356.078C176.291,-370.648 235.406,-392.752 277.269,-408.405"/>
<polygon fill="midnightblue" stroke="midnightblue" points="276.128,-411.715 286.72,-411.939 278.579,-405.158 276.128,-411.715"/>
</g>
<!-- Node4 -->
<g id="node4" class="node"><title>Node4</title>
<g id="a_node4"><a xlink:href="../../d0/d47/classgame_player_1_1gui_features_1_1_file_loader.html#ad9f337695d787ac03907ebd6164671db" target="_top" xlink:title="gamePlayer.guiFeatures.File\lLoader.load">
<polygon fill="white" stroke="black" points="253.5,-326 253.5,-356 402.5,-356 402.5,-326 253.5,-326"/>
<text text-anchor="start" x="261.5" y="-344" font-family="Helvetica,sans-Serif" font-size="10.00">gamePlayer.guiFeatures.File</text>
<text text-anchor="middle" x="328" y="-333" font-family="Helvetica,sans-Serif" font-size="10.00">Loader.load</text>
</a>
</g>
</g>
<!-- Node1&#45;&gt;Node4 -->
<g id="edge3" class="edge"><title>Node1&#45;&gt;Node4</title>
<path fill="none" stroke="midnightblue" d="M191.545,-341C208.578,-341 226.229,-341 242.939,-341"/>
<polygon fill="midnightblue" stroke="midnightblue" points="243.207,-344.5 253.207,-341 243.207,-337.5 243.207,-344.5"/>
</g>
<!-- Node5 -->
<g id="node5" class="node"><title>Node5</title>
<g id="a_node5"><a xlink:href="../../d0/d94/classgame_engine_1_1_main_engine_manager.html#a877d3b0d8eeb5a117fe7043df349d101" target="_top" xlink:title="gameEngine.MainEngineManager.load\lState">
<polygon fill="white" stroke="black" points="228.5,-204 228.5,-234 427.5,-234 427.5,-204 228.5,-204"/>
<text text-anchor="start" x="236.5" y="-222" font-family="Helvetica,sans-Serif" font-size="10.00">gameEngine.MainEngineManager.load</text>
<text text-anchor="middle" x="328" y="-211" font-family="Helvetica,sans-Serif" font-size="10.00">State</text>
</a>
</g>
</g>
<!-- Node1&#45;&gt;Node5 -->
<g id="edge4" class="edge"><title>Node1&#45;&gt;Node5</title>
<path fill="none" stroke="midnightblue" d="M125.665,-325.795C167.123,-303.804 243.861,-263.1 289.687,-238.792"/>
<polygon fill="midnightblue" stroke="midnightblue" points="291.503,-241.791 298.697,-234.013 288.222,-235.607 291.503,-241.791"/>
</g>
<!-- Node3 -->
<g id="node3" class="node"><title>Node3</title>
<g id="a_node3"><a xlink:href="../../d0/d47/classgame_player_1_1gui_features_1_1_file_loader.html#a023c6ba6bb44e7eeff28ead6f40a6587" target="_top" xlink:title="gamePlayer.guiFeatures.File\lLoader.FileLoader">
<polygon fill="white" stroke="black" points="490.5,-431 490.5,-461 639.5,-461 639.5,-431 490.5,-431"/>
<text text-anchor="start" x="498.5" y="-449" font-family="Helvetica,sans-Serif" font-size="10.00">gamePlayer.guiFeatures.File</text>
<text text-anchor="middle" x="565" y="-438" font-family="Helvetica,sans-Serif" font-size="10.00">Loader.FileLoader</text>
</a>
</g>
</g>
<!-- Node2&#45;&gt;Node3 -->
<g id="edge2" class="edge"><title>Node2&#45;&gt;Node3</title>
<path fill="none" stroke="midnightblue" d="M402.711,-432.96C427.2,-434.94 454.65,-437.159 479.866,-439.198"/>
<polygon fill="midnightblue" stroke="midnightblue" points="479.898,-442.712 490.147,-440.029 480.462,-435.734 479.898,-442.712"/>
</g>
<!-- Node6 -->
<g id="node6" class="node"><title>Node6</title>
<g id="a_node6"><a xlink:href="../../d0/d94/classgame_engine_1_1_main_engine_manager.html#a42a2b5309be3a2d21f572d3d9f353a28" target="_top" xlink:title="gameEngine.MainEngineManager.add\lTower">
<polygon fill="white" stroke="black" points="466.5,-235 466.5,-265 663.5,-265 663.5,-235 466.5,-235"/>
<text text-anchor="start" x="474.5" y="-253" font-family="Helvetica,sans-Serif" font-size="10.00">gameEngine.MainEngineManager.add</text>
<text text-anchor="middle" x="565" y="-242" font-family="Helvetica,sans-Serif" font-size="10.00">Tower</text>
</a>
</g>
</g>
<!-- Node5&#45;&gt;Node6 -->
<g id="edge5" class="edge"><title>Node5&#45;&gt;Node6</title>
<path fill="none" stroke="midnightblue" d="M427.64,-232.012C437.148,-233.266 446.826,-234.543 456.416,-235.808"/>
<polygon fill="midnightblue" stroke="midnightblue" points="455.994,-239.283 466.366,-237.121 456.909,-232.343 455.994,-239.283"/>
</g>
<!-- Node20 -->
<g id="node20" class="node"><title>Node20</title>
<g id="a_node20"><a xlink:href="../../d0/d94/classgame_engine_1_1_main_engine_manager.html#abce40b23d5178f6390ffcbffd6c930e3" target="_top" xlink:title="gameEngine.MainEngineManager.clear">
<polygon fill="white" stroke="black" points="464,-147.5 464,-166.5 666,-166.5 666,-147.5 464,-147.5"/>
<text text-anchor="middle" x="565" y="-154.5" font-family="Helvetica,sans-Serif" font-size="10.00">gameEngine.MainEngineManager.clear</text>
</a>
</g>
</g>
<!-- Node5&#45;&gt;Node20 -->
<g id="edge20" class="edge"><title>Node5&#45;&gt;Node20</title>
<path fill="none" stroke="midnightblue" d="M371.785,-203.914C398.145,-194.986 432.763,-183.912 464,-176 474.689,-173.293 486.109,-170.776 497.268,-168.519"/>
<polygon fill="midnightblue" stroke="midnightblue" points="498.279,-171.887 507.414,-166.52 496.926,-165.019 498.279,-171.887"/>
</g>
<!-- Node22 -->
<g id="node22" class="node"><title>Node22</title>
<g id="a_node22"><a xlink:href="../../d8/d32/classutilities_1_1_g_s_o_n_1_1object_wrappers_1_1_game_state_wrapper.html#aaf5a7e2bb64ffcceb3b3a0bece408c8f" target="_top" xlink:title="utilities.GSON.objectWrappers.\lGameStateWrapper.getHealth">
<polygon fill="white" stroke="black" points="484,-98 484,-128 646,-128 646,-98 484,-98"/>
<text text-anchor="start" x="492" y="-116" font-family="Helvetica,sans-Serif" font-size="10.00">utilities.GSON.objectWrappers.</text>
<text text-anchor="middle" x="565" y="-105" font-family="Helvetica,sans-Serif" font-size="10.00">GameStateWrapper.getHealth</text>
</a>
</g>
</g>
<!-- Node5&#45;&gt;Node22 -->
<g id="edge22" class="edge"><title>Node5&#45;&gt;Node22</title>
<path fill="none" stroke="midnightblue" d="M349.936,-203.738C375.625,-185.666 421.072,-155.782 464,-138 470.11,-135.469 476.539,-133.148 483.068,-131.029"/>
<polygon fill="midnightblue" stroke="midnightblue" points="484.155,-134.357 492.681,-128.068 482.094,-127.667 484.155,-134.357"/>
</g>
<!-- Node23 -->
<g id="node23" class="node"><title>Node23</title>
<g id="a_node23"><a xlink:href="../../d8/d32/classutilities_1_1_g_s_o_n_1_1object_wrappers_1_1_game_state_wrapper.html#a306cf0b386a005285e513488bbd0c3ee" target="_top" xlink:title="utilities.GSON.objectWrappers.\lGameStateWrapper.getLevel">
<polygon fill="white" stroke="black" points="484,-49 484,-79 646,-79 646,-49 484,-49"/>
<text text-anchor="start" x="492" y="-67" font-family="Helvetica,sans-Serif" font-size="10.00">utilities.GSON.objectWrappers.</text>
<text text-anchor="middle" x="565" y="-56" font-family="Helvetica,sans-Serif" font-size="10.00">GameStateWrapper.getLevel</text>
</a>
</g>
</g>
<!-- Node5&#45;&gt;Node23 -->
<g id="edge23" class="edge"><title>Node5&#45;&gt;Node23</title>
<path fill="none" stroke="midnightblue" d="M340.12,-203.768C361.098,-176.19 409.347,-118.067 464,-88 467.324,-86.1712 470.785,-84.4807 474.338,-82.9181"/>
<polygon fill="midnightblue" stroke="midnightblue" points="475.947,-86.0441 483.925,-79.0733 473.341,-79.5471 475.947,-86.0441"/>
</g>
<!-- Node24 -->
<g id="node24" class="node"><title>Node24</title>
<g id="a_node24"><a xlink:href="../../d8/d32/classutilities_1_1_g_s_o_n_1_1object_wrappers_1_1_game_state_wrapper.html#a7200667d12b5125d38dccf4f058ba1ed" target="_top" xlink:title="utilities.GSON.objectWrappers.\lGameStateWrapper.getMoney">
<polygon fill="white" stroke="black" points="484,-0 484,-30 646,-30 646,-0 484,-0"/>
<text text-anchor="start" x="492" y="-18" font-family="Helvetica,sans-Serif" font-size="10.00">utilities.GSON.objectWrappers.</text>
<text text-anchor="middle" x="565" y="-7" font-family="Helvetica,sans-Serif" font-size="10.00">GameStateWrapper.getMoney</text>
</a>
</g>
</g>
<!-- Node5&#45;&gt;Node24 -->
<g id="edge24" class="edge"><title>Node5&#45;&gt;Node24</title>
<path fill="none" stroke="midnightblue" d="M335.807,-203.877C352.355,-168.923 398.223,-82.2289 464,-39 467.345,-36.8014 470.872,-34.8038 474.522,-32.9889"/>
<polygon fill="midnightblue" stroke="midnightblue" points="476.11,-36.1129 483.818,-28.8433 473.259,-29.7199 476.11,-36.1129"/>
</g>
<!-- Node25 -->
<g id="node25" class="node"><title>Node25</title>
<g id="a_node25"><a xlink:href="../../d8/d32/classutilities_1_1_g_s_o_n_1_1object_wrappers_1_1_game_state_wrapper.html#a02fa9fa0dbd5e8aecde036165b2da128" target="_top" xlink:title="utilities.GSON.objectWrappers.\lGameStateWrapper.getName">
<polygon fill="white" stroke="black" points="484,-382 484,-412 646,-412 646,-382 484,-382"/>
<text text-anchor="start" x="492" y="-400" font-family="Helvetica,sans-Serif" font-size="10.00">utilities.GSON.objectWrappers.</text>
<text text-anchor="middle" x="565" y="-389" font-family="Helvetica,sans-Serif" font-size="10.00">GameStateWrapper.getName</text>
</a>
</g>
</g>
<!-- Node5&#45;&gt;Node25 -->
<g id="edge25" class="edge"><title>Node5&#45;&gt;Node25</title>
<path fill="none" stroke="midnightblue" d="M346.571,-234.296C367.279,-252.778 402.141,-285.349 428,-317 446.484,-339.624 440.19,-355.07 464,-372 467.31,-374.354 470.819,-376.486 474.466,-378.419"/>
<polygon fill="midnightblue" stroke="midnightblue" points="473.243,-381.712 483.78,-382.822 476.235,-375.384 473.243,-381.712"/>
</g>
<!-- Node26 -->
<g id="node26" class="node"><title>Node26</title>
<g id="a_node26"><a xlink:href="../../d8/d32/classutilities_1_1_g_s_o_n_1_1object_wrappers_1_1_game_state_wrapper.html#a9c1d3cac483eef50d46e8bdd863bdae9" target="_top" xlink:title="utilities.GSON.objectWrappers.\lGameStateWrapper.getTowerWrappers">
<polygon fill="white" stroke="black" points="465,-333 465,-363 665,-363 665,-333 465,-333"/>
<text text-anchor="start" x="473" y="-351" font-family="Helvetica,sans-Serif" font-size="10.00">utilities.GSON.objectWrappers.</text>
<text text-anchor="middle" x="565" y="-340" font-family="Helvetica,sans-Serif" font-size="10.00">GameStateWrapper.getTowerWrappers</text>
</a>
</g>
</g>
<!-- Node5&#45;&gt;Node26 -->
<g id="edge26" class="edge"><title>Node5&#45;&gt;Node26</title>
<path fill="none" stroke="midnightblue" d="M344.169,-234.166C367.745,-256.875 415.531,-299.545 464,-323 468.984,-325.412 474.223,-327.605 479.584,-329.599"/>
<polygon fill="midnightblue" stroke="midnightblue" points="478.74,-333.011 489.335,-332.975 481.03,-326.396 478.74,-333.011"/>
</g>
<!-- Node27 -->
<g id="node27" class="node"><title>Node27</title>
<g id="a_node27"><a xlink:href="../../d0/d94/classgame_engine_1_1_main_engine_manager.html#a9730cb1b41966ae46599b3c5ee2b670d" target="_top" xlink:title="gameEngine.MainEngineManager.load\lLevel">
<polygon fill="white" stroke="black" points="465.5,-186 465.5,-216 664.5,-216 664.5,-186 465.5,-186"/>
<text text-anchor="start" x="473.5" y="-204" font-family="Helvetica,sans-Serif" font-size="10.00">gameEngine.MainEngineManager.load</text>
<text text-anchor="middle" x="565" y="-193" font-family="Helvetica,sans-Serif" font-size="10.00">Level</text>
</a>
</g>
</g>
<!-- Node5&#45;&gt;Node27 -->
<g id="edge27" class="edge"><title>Node5&#45;&gt;Node27</title>
<path fill="none" stroke="midnightblue" d="M427.64,-211.445C436.675,-210.753 445.862,-210.049 454.981,-209.35"/>
<polygon fill="midnightblue" stroke="midnightblue" points="455.533,-212.818 465.236,-208.565 454.998,-205.839 455.533,-212.818"/>
</g>
<!-- Node34 -->
<g id="node34" class="node"><title>Node34</title>
<g id="a_node34"><a xlink:href="../../d5/db4/classutilities_1_1_g_s_o_n_1_1_g_s_o_n_file_reader.html#ae4fc2b1f3a49f353f8d4c3b72afa5ef0" target="_top" xlink:title="utilities.GSON.GSONFileReader.read\lGameStateFromJSon">
<polygon fill="white" stroke="black" points="471.5,-284 471.5,-314 658.5,-314 658.5,-284 471.5,-284"/>
<text text-anchor="start" x="479.5" y="-302" font-family="Helvetica,sans-Serif" font-size="10.00">utilities.GSON.GSONFileReader.read</text>
<text text-anchor="middle" x="565" y="-291" font-family="Helvetica,sans-Serif" font-size="10.00">GameStateFromJSon</text>
</a>
</g>
</g>
<!-- Node5&#45;&gt;Node34 -->
<g id="edge36" class="edge"><title>Node5&#45;&gt;Node34</title>
<path fill="none" stroke="midnightblue" d="M362.074,-234.014C389.107,-245.91 428.518,-262.402 464,-274 471.886,-276.578 480.195,-279.042 488.515,-281.348"/>
<polygon fill="midnightblue" stroke="midnightblue" points="487.696,-284.753 498.263,-283.982 489.522,-277.995 487.696,-284.753"/>
</g>
<!-- Node7 -->
<g id="node7" class="node"><title>Node7</title>
<g id="a_node7"><a xlink:href="../../db/d6c/classgame_engine_1_1_data_1_1_range_restricted_collection.html#a42ea7db9dded67061a467a111fdc49f4" target="_top" xlink:title="gameEngine.Data.RangeRestricted\lCollection.add">
<polygon fill="white" stroke="black" points="707.5,-432 707.5,-462 890.5,-462 890.5,-432 707.5,-432"/>
<text text-anchor="start" x="715.5" y="-450" font-family="Helvetica,sans-Serif" font-size="10.00">gameEngine.Data.RangeRestricted</text>
<text text-anchor="middle" x="799" y="-439" font-family="Helvetica,sans-Serif" font-size="10.00">Collection.add</text>
</a>
</g>
</g>
<!-- Node6&#45;&gt;Node7 -->
<g id="edge6" class="edge"><title>Node6&#45;&gt;Node7</title>
<path fill="none" stroke="midnightblue" d="M654.702,-265.085C658.78,-267.644 662.586,-270.597 666,-274 713.941,-321.795 654.52,-373.747 702,-422 703.287,-423.308 704.634,-424.551 706.032,-425.731"/>
<polygon fill="midnightblue" stroke="midnightblue" points="704.39,-428.86 714.56,-431.83 708.462,-423.166 704.39,-428.86"/>
</g>
<!-- Node8 -->
<g id="node8" class="node"><title>Node8</title>
<g id="a_node8"><a xlink:href="../../df/db9/classgame_engine_1_1actors_1_1_base_tower.html#a5196fadecf06ee9ecebc59a678f8f272" target="_top" xlink:title="gameEngine.actors.BaseTower.copy">
<polygon fill="white" stroke="black" points="705,-306.5 705,-325.5 893,-325.5 893,-306.5 705,-306.5"/>
<text text-anchor="middle" x="799" y="-313.5" font-family="Helvetica,sans-Serif" font-size="10.00">gameEngine.actors.BaseTower.copy</text>
</a>
</g>
</g>
<!-- Node6&#45;&gt;Node8 -->
<g id="edge7" class="edge"><title>Node6&#45;&gt;Node8</title>
<path fill="none" stroke="midnightblue" d="M640.287,-265.064C649.085,-267.655 657.833,-270.623 666,-274 683.328,-281.164 684.566,-289.098 702,-296 709.85,-299.108 718.262,-301.762 726.722,-304.022"/>
<polygon fill="midnightblue" stroke="midnightblue" points="726.097,-307.473 736.646,-306.497 727.791,-300.681 726.097,-307.473"/>
</g>
<!-- Node11 -->
<g id="node11" class="node"><title>Node11</title>
<g id="a_node11"><a xlink:href="../../d5/d02/classgame_engine_1_1actors_1_1_base_actor.html#ae877e5334153c4e125fb84bf993587af" target="_top" xlink:title="gameEngine.actors.BaseActor.getNode">
<polygon fill="white" stroke="black" points="932,-335.5 932,-354.5 1138,-354.5 1138,-335.5 932,-335.5"/>
<text text-anchor="middle" x="1035" y="-342.5" font-family="Helvetica,sans-Serif" font-size="10.00">gameEngine.actors.BaseActor.getNode</text>
</a>
</g>
</g>
<!-- Node6&#45;&gt;Node11 -->
<g id="edge10" class="edge"><title>Node6&#45;&gt;Node11</title>
<path fill="none" stroke="midnightblue" d="M651.151,-265.168C656.398,-267.681 661.406,-270.604 666,-274 691.314,-292.714 674.9,-318.98 702,-335 738.06,-356.317 840.122,-356.659 921.656,-352.968"/>
<polygon fill="midnightblue" stroke="midnightblue" points="922.177,-356.447 931.998,-352.473 921.843,-349.455 922.177,-356.447"/>
</g>
<!-- Node12 -->
<g id="node12" class="node"><title>Node12</title>
<g id="a_node12"><a xlink:href="../../d0/d94/classgame_engine_1_1_main_engine_manager.html#a80b291e3df09fa199760f6c7b1482638" target="_top" xlink:title="gameEngine.MainEngineManager.set\lTowerTileStatus">
<polygon fill="white" stroke="black" points="702,-383 702,-413 896,-413 896,-383 702,-383"/>
<text text-anchor="start" x="710" y="-401" font-family="Helvetica,sans-Serif" font-size="10.00">gameEngine.MainEngineManager.set</text>
<text text-anchor="middle" x="799" y="-390" font-family="Helvetica,sans-Serif" font-size="10.00">TowerTileStatus</text>
</a>
</g>
</g>
<!-- Node6&#45;&gt;Node12 -->
<g id="edge11" class="edge"><title>Node6&#45;&gt;Node12</title>
<path fill="none" stroke="midnightblue" d="M653.261,-265.09C657.815,-267.635 662.108,-270.585 666,-274 699.625,-303.509 669.388,-337.376 702,-368 706.057,-371.81 710.593,-375.136 715.424,-378.04"/>
<polygon fill="midnightblue" stroke="midnightblue" points="713.93,-381.21 724.401,-382.825 717.222,-375.033 713.93,-381.21"/>
</g>
<!-- Node18 -->
<g id="node18" class="node"><title>Node18</title>
<g id="a_node18"><a xlink:href="../../dd/df0/classutilities_1_1_java_f_xutilities_1_1image_view_1_1_centered_image_view.html#a4df6d41d08c4c4a5c530290c736926f2" target="_top" xlink:title="utilities.JavaFXutilities.image\lView.CenteredImageView.setXCenter">
<polygon fill="white" stroke="black" points="703.5,-257 703.5,-287 894.5,-287 894.5,-257 703.5,-257"/>
<text text-anchor="start" x="711.5" y="-275" font-family="Helvetica,sans-Serif" font-size="10.00">utilities.JavaFXutilities.image</text>
<text text-anchor="middle" x="799" y="-264" font-family="Helvetica,sans-Serif" font-size="10.00">View.CenteredImageView.setXCenter</text>
</a>
</g>
</g>
<!-- Node6&#45;&gt;Node18 -->
<g id="edge18" class="edge"><title>Node6&#45;&gt;Node18</title>
<path fill="none" stroke="midnightblue" d="M663.716,-259.266C673.459,-260.19 683.378,-261.131 693.189,-262.061"/>
<polygon fill="midnightblue" stroke="midnightblue" points="693.076,-265.566 703.362,-263.026 693.737,-258.597 693.076,-265.566"/>
</g>
<!-- Node19 -->
<g id="node19" class="node"><title>Node19</title>
<g id="a_node19"><a xlink:href="../../dd/df0/classutilities_1_1_java_f_xutilities_1_1image_view_1_1_centered_image_view.html#a2bcbaa8cc681ef2663182084f742d29d" target="_top" xlink:title="utilities.JavaFXutilities.image\lView.CenteredImageView.setYCenter">
<polygon fill="white" stroke="black" points="703.5,-208 703.5,-238 894.5,-238 894.5,-208 703.5,-208"/>
<text text-anchor="start" x="711.5" y="-226" font-family="Helvetica,sans-Serif" font-size="10.00">utilities.JavaFXutilities.image</text>
<text text-anchor="middle" x="799" y="-215" font-family="Helvetica,sans-Serif" font-size="10.00">View.CenteredImageView.setYCenter</text>
</a>
</g>
</g>
<!-- Node6&#45;&gt;Node19 -->
<g id="edge19" class="edge"><title>Node6&#45;&gt;Node19</title>
<path fill="none" stroke="midnightblue" d="M663.716,-238.628C673.459,-237.494 683.378,-236.34 693.189,-235.198"/>
<polygon fill="midnightblue" stroke="midnightblue" points="693.834,-238.646 703.362,-234.014 693.025,-231.693 693.834,-238.646"/>
</g>
<!-- Node9 -->
<g id="node9" class="node"><title>Node9</title>
<g id="a_node9"><a xlink:href="../../df/db9/classgame_engine_1_1actors_1_1_base_tower.html#a579a596add08873663ac736c7800f687" target="_top" xlink:title="gameEngine.actors.BaseTower.\lBaseTower">
<polygon fill="white" stroke="black" points="952.5,-286 952.5,-316 1117.5,-316 1117.5,-286 952.5,-286"/>
<text text-anchor="start" x="960.5" y="-304" font-family="Helvetica,sans-Serif" font-size="10.00">gameEngine.actors.BaseTower.</text>
<text text-anchor="middle" x="1035" y="-293" font-family="Helvetica,sans-Serif" font-size="10.00">BaseTower</text>
</a>
</g>
</g>
<!-- Node8&#45;&gt;Node9 -->
<g id="edge8" class="edge"><title>Node8&#45;&gt;Node9</title>
<path fill="none" stroke="midnightblue" d="M893.155,-310.029C909.151,-309.003 925.769,-307.938 941.741,-306.914"/>
<polygon fill="midnightblue" stroke="midnightblue" points="942.376,-310.381 952.131,-306.248 941.928,-303.395 942.376,-310.381"/>
</g>
<!-- Node10 -->
<g id="node10" class="node"><title>Node10</title>
<g id="a_node10"><a xlink:href="../../d5/d02/classgame_engine_1_1actors_1_1_base_actor.html#a7feb699c5d4dc6ca8588beacc5567eff" target="_top" xlink:title="gameEngine.actors.BaseActor.copy\lBehaviors">
<polygon fill="white" stroke="black" points="941.5,-229 941.5,-259 1128.5,-259 1128.5,-229 941.5,-229"/>
<text text-anchor="start" x="949.5" y="-247" font-family="Helvetica,sans-Serif" font-size="10.00">gameEngine.actors.BaseActor.copy</text>
<text text-anchor="middle" x="1035" y="-236" font-family="Helvetica,sans-Serif" font-size="10.00">Behaviors</text>
</a>
</g>
</g>
<!-- Node8&#45;&gt;Node10 -->
<g id="edge9" class="edge"><title>Node8&#45;&gt;Node10</title>
<path fill="none" stroke="midnightblue" d="M859.686,-306.482C871.892,-303.727 884.512,-300.275 896,-296 913.154,-289.617 915.181,-283.221 932,-276 943.891,-270.895 956.872,-266.196 969.466,-262.062"/>
<polygon fill="midnightblue" stroke="midnightblue" points="970.539,-265.394 978.997,-259.013 968.406,-258.727 970.539,-265.394"/>
</g>
<!-- Node12&#45;&gt;Node11 -->
<g id="edge14" class="edge"><title>Node12&#45;&gt;Node11</title>
<path fill="none" stroke="midnightblue" d="M857.35,-382.981C880.476,-377.103 907.445,-370.473 932,-365 945.123,-362.075 959.248,-359.158 972.679,-356.493"/>
<polygon fill="midnightblue" stroke="midnightblue" points="973.649,-359.87 982.787,-354.508 972.3,-353.001 973.649,-359.87"/>
</g>
<!-- Node13 -->
<g id="node13" class="node"><title>Node13</title>
<g id="a_node13"><a xlink:href="../../d5/db4/classgame_authoring_1_1scenes_1_1path_building_1_1building_panes_1_1tower_regions_1_1_tile.html#a71f5d493f80cf25cea9276247991294a" target="_top" xlink:title="gameAuthoring.scenes.path\lBuilding.buildingPanes.towerRegions.\lTile.getColumn">
<polygon fill="white" stroke="black" points="939.5,-422.5 939.5,-463.5 1130.5,-463.5 1130.5,-422.5 939.5,-422.5"/>
<text text-anchor="start" x="947.5" y="-451.5" font-family="Helvetica,sans-Serif" font-size="10.00">gameAuthoring.scenes.path</text>
<text text-anchor="start" x="947.5" y="-440.5" font-family="Helvetica,sans-Serif" font-size="10.00">Building.buildingPanes.towerRegions.</text>
<text text-anchor="middle" x="1035" y="-429.5" font-family="Helvetica,sans-Serif" font-size="10.00">Tile.getColumn</text>
</a>
</g>
</g>
<!-- Node12&#45;&gt;Node13 -->
<g id="edge12" class="edge"><title>Node12&#45;&gt;Node13</title>
<path fill="none" stroke="midnightblue" d="M878.244,-413.047C894.57,-416.187 912.032,-419.545 929.143,-422.835"/>
<polygon fill="midnightblue" stroke="midnightblue" points="928.685,-426.311 939.167,-424.763 930.007,-419.437 928.685,-426.311"/>
</g>
<!-- Node14 -->
<g id="node14" class="node"><title>Node14</title>
<g id="a_node14"><a xlink:href="../../d0/d94/classgame_engine_1_1_main_engine_manager.html#ac3e9c579c0ea0259bf4dd5a0dc7d29b1" target="_top" xlink:title="gameEngine.MainEngineManager.get\lIntersectingTowerTileNode">
<polygon fill="white" stroke="black" points="938,-374 938,-404 1132,-404 1132,-374 938,-374"/>
<text text-anchor="start" x="946" y="-392" font-family="Helvetica,sans-Serif" font-size="10.00">gameEngine.MainEngineManager.get</text>
<text text-anchor="middle" x="1035" y="-381" font-family="Helvetica,sans-Serif" font-size="10.00">IntersectingTowerTileNode</text>
</a>
</g>
</g>
<!-- Node12&#45;&gt;Node14 -->
<g id="edge13" class="edge"><title>Node12&#45;&gt;Node14</title>
<path fill="none" stroke="midnightblue" d="M896.19,-394.3C906.602,-393.9 917.242,-393.491 927.764,-393.086"/>
<polygon fill="midnightblue" stroke="midnightblue" points="927.948,-396.582 937.806,-392.7 927.678,-389.587 927.948,-396.582"/>
</g>
<!-- Node15 -->
<g id="node15" class="node"><title>Node15</title>
<g id="a_node15"><a xlink:href="../../d5/db4/classgame_authoring_1_1scenes_1_1path_building_1_1building_panes_1_1tower_regions_1_1_tile.html#afe5b972b91b5f857bfbabd1894a48592" target="_top" xlink:title="gameAuthoring.scenes.path\lBuilding.buildingPanes.towerRegions.\lTile.getRow">
<polygon fill="white" stroke="black" points="939.5,-530.5 939.5,-571.5 1130.5,-571.5 1130.5,-530.5 939.5,-530.5"/>
<text text-anchor="start" x="947.5" y="-559.5" font-family="Helvetica,sans-Serif" font-size="10.00">gameAuthoring.scenes.path</text>
<text text-anchor="start" x="947.5" y="-548.5" font-family="Helvetica,sans-Serif" font-size="10.00">Building.buildingPanes.towerRegions.</text>
<text text-anchor="middle" x="1035" y="-537.5" font-family="Helvetica,sans-Serif" font-size="10.00">Tile.getRow</text>
</a>
</g>
</g>
<!-- Node12&#45;&gt;Node15 -->
<g id="edge15" class="edge"><title>Node12&#45;&gt;Node15</title>
<path fill="none" stroke="midnightblue" d="M882.043,-413.168C887.071,-415.932 891.791,-419.181 896,-423 930.367,-454.177 898.125,-489.29 932,-521 933.297,-522.214 934.641,-523.379 936.026,-524.498"/>
<polygon fill="midnightblue" stroke="midnightblue" points="934.188,-527.485 944.372,-530.403 938.231,-521.77 934.188,-527.485"/>
</g>
<!-- Node16 -->
<g id="node16" class="node"><title>Node16</title>
<g id="a_node16"><a xlink:href="../../da/df9/classgame_engine_1_1_data_1_1_tower_tile_grid.html#a367cfa2903c44048ec959bcc546486fe" target="_top" xlink:title="gameEngine.Data.TowerTile\lGrid.setTowerTile">
<polygon fill="white" stroke="black" points="961,-482 961,-512 1109,-512 1109,-482 961,-482"/>
<text text-anchor="start" x="969" y="-500" font-family="Helvetica,sans-Serif" font-size="10.00">gameEngine.Data.TowerTile</text>
<text text-anchor="middle" x="1035" y="-489" font-family="Helvetica,sans-Serif" font-size="10.00">Grid.setTowerTile</text>
</a>
</g>
</g>
<!-- Node12&#45;&gt;Node16 -->
<g id="edge16" class="edge"><title>Node12&#45;&gt;Node16</title>
<path fill="none" stroke="midnightblue" d="M877.524,-413.101C884.035,-415.864 890.299,-419.133 896,-423 918.365,-438.168 909.526,-456.993 932,-472 937.994,-476.003 944.569,-479.365 951.403,-482.19"/>
<polygon fill="midnightblue" stroke="midnightblue" points="950.259,-485.499 960.851,-485.718 952.708,-478.941 950.259,-485.499"/>
</g>
<!-- Node17 -->
<g id="node17" class="node"><title>Node17</title>
<g id="a_node17"><a xlink:href="../../da/df9/classgame_engine_1_1_data_1_1_tower_tile_grid.html#a2bcbce6f5009d9adf2d13bc540c36a52" target="_top" xlink:title="gameEngine.Data.TowerTile\lGrid.setChangedStatus">
<polygon fill="white" stroke="black" points="1205,-482 1205,-512 1353,-512 1353,-482 1205,-482"/>
<text text-anchor="start" x="1213" y="-500" font-family="Helvetica,sans-Serif" font-size="10.00">gameEngine.Data.TowerTile</text>
<text text-anchor="middle" x="1279" y="-489" font-family="Helvetica,sans-Serif" font-size="10.00">Grid.setChangedStatus</text>
</a>
</g>
</g>
<!-- Node16&#45;&gt;Node17 -->
<g id="edge17" class="edge"><title>Node16&#45;&gt;Node17</title>
<path fill="none" stroke="midnightblue" d="M1109.26,-497C1136.27,-497 1167.06,-497 1194.88,-497"/>
<polygon fill="midnightblue" stroke="midnightblue" points="1194.98,-500.5 1204.98,-497 1194.98,-493.5 1194.98,-500.5"/>
</g>
<!-- Node21 -->
<g id="node21" class="node"><title>Node21</title>
<g id="a_node21"><a xlink:href="../../db/d6c/classgame_engine_1_1_data_1_1_range_restricted_collection.html#a63366f841f48e7cf54b8408d81bc9fff" target="_top" xlink:title="gameEngine.Data.RangeRestricted\lCollection.clear">
<polygon fill="white" stroke="black" points="707.5,-22 707.5,-52 890.5,-52 890.5,-22 707.5,-22"/>
<text text-anchor="start" x="715.5" y="-40" font-family="Helvetica,sans-Serif" font-size="10.00">gameEngine.Data.RangeRestricted</text>
<text text-anchor="middle" x="799" y="-29" font-family="Helvetica,sans-Serif" font-size="10.00">Collection.clear</text>
</a>
</g>
</g>
<!-- Node20&#45;&gt;Node21 -->
<g id="edge21" class="edge"><title>Node20&#45;&gt;Node21</title>
<path fill="none" stroke="midnightblue" d="M648.013,-147.411C654.452,-144.668 660.558,-141.249 666,-137 695.46,-113.999 673.096,-84.6957 702,-61 703.544,-59.7338 705.147,-58.5332 706.798,-57.3947"/>
<polygon fill="midnightblue" stroke="midnightblue" points="708.661,-60.3584 715.427,-52.2048 705.053,-54.3598 708.661,-60.3584"/>
</g>
<!-- Node28 -->
<g id="node28" class="node"><title>Node28</title>
<g id="a_node28"><a xlink:href="../../d4/d81/classgame_engine_1_1actors_1_1_base_enemy.html#adb93973e4e8e4da347747801642fcaf2" target="_top" xlink:title="gameEngine.actors.BaseEnemy.copy">
<polygon fill="white" stroke="black" points="702,-169.5 702,-188.5 896,-188.5 896,-169.5 702,-169.5"/>
<text text-anchor="middle" x="799" y="-176.5" font-family="Helvetica,sans-Serif" font-size="10.00">gameEngine.actors.BaseEnemy.copy</text>
</a>
</g>
</g>
<!-- Node27&#45;&gt;Node28 -->
<g id="edge28" class="edge"><title>Node27&#45;&gt;Node28</title>
<path fill="none" stroke="midnightblue" d="M664.725,-191.638C673.686,-190.788 682.787,-189.925 691.809,-189.07"/>
<polygon fill="midnightblue" stroke="midnightblue" points="692.324,-192.537 701.949,-188.108 691.663,-185.568 692.324,-192.537"/>
</g>
<!-- Node32 -->
<g id="node32" class="node"><title>Node32</title>
<g id="a_node32"><a xlink:href="../../da/dc8/classgame_engine_1_1levels_1_1_base_level.html#a10e08749157dcd85085d053a952503db" target="_top" xlink:title="gameEngine.levels.BaseLevel.get\lDuration">
<polygon fill="white" stroke="black" points="710.5,-71 710.5,-101 887.5,-101 887.5,-71 710.5,-71"/>
<text text-anchor="start" x="718.5" y="-89" font-family="Helvetica,sans-Serif" font-size="10.00">gameEngine.levels.BaseLevel.get</text>
<text text-anchor="middle" x="799" y="-78" font-family="Helvetica,sans-Serif" font-size="10.00">Duration</text>
</a>
</g>
</g>
<!-- Node27&#45;&gt;Node32 -->
<g id="edge34" class="edge"><title>Node27&#45;&gt;Node32</title>
<path fill="none" stroke="midnightblue" d="M649.826,-185.84C655.576,-183.082 661.045,-179.831 666,-176 692.433,-155.561 675.567,-130.439 702,-110 703.822,-108.591 705.716,-107.264 707.671,-106.014"/>
<polygon fill="midnightblue" stroke="midnightblue" points="709.576,-108.958 716.584,-101.012 706.15,-102.854 709.576,-108.958"/>
</g>
<!-- Node33 -->
<g id="node33" class="node"><title>Node33</title>
<g id="a_node33"><a xlink:href="../../da/dc8/classgame_engine_1_1levels_1_1_base_level.html#afc3aa5d464c27391506590a989fc0c02" target="_top" xlink:title="gameEngine.levels.BaseLevel.get\lEnemyCountPairs">
<polygon fill="white" stroke="black" points="710.5,-120 710.5,-150 887.5,-150 887.5,-120 710.5,-120"/>
<text text-anchor="start" x="718.5" y="-138" font-family="Helvetica,sans-Serif" font-size="10.00">gameEngine.levels.BaseLevel.get</text>
<text text-anchor="middle" x="799" y="-127" font-family="Helvetica,sans-Serif" font-size="10.00">EnemyCountPairs</text>
</a>
</g>
</g>
<!-- Node27&#45;&gt;Node33 -->
<g id="edge35" class="edge"><title>Node27&#45;&gt;Node33</title>
<path fill="none" stroke="midnightblue" d="M632.903,-185.984C644.053,-182.995 655.425,-179.641 666,-176 682.555,-170.3 685.473,-165.781 702,-160 709.258,-157.461 716.905,-155.047 724.584,-152.792"/>
<polygon fill="midnightblue" stroke="midnightblue" points="725.643,-156.13 734.301,-150.023 723.724,-149.398 725.643,-156.13"/>
</g>
<!-- Node28&#45;&gt;Node10 -->
<g id="edge32" class="edge"><title>Node28&#45;&gt;Node10</title>
<path fill="none" stroke="midnightblue" d="M854.346,-188.514C868.021,-191.247 882.614,-194.459 896,-198 925.443,-205.787 957.769,-216.446 983.729,-225.542"/>
<polygon fill="midnightblue" stroke="midnightblue" points="982.753,-228.909 993.348,-228.942 985.086,-222.309 982.753,-228.909"/>
</g>
<!-- Node28&#45;&gt;Node11 -->
<g id="edge33" class="edge"><title>Node28&#45;&gt;Node11</title>
<path fill="none" stroke="midnightblue" d="M882.695,-188.717C887.506,-191.253 892.003,-194.314 896,-198 939.127,-237.775 888.838,-285.263 932,-325 933.975,-326.818 936.065,-328.492 938.249,-330.034"/>
<polygon fill="midnightblue" stroke="midnightblue" points="936.726,-333.201 947.103,-335.34 940.325,-327.197 936.726,-333.201"/>
</g>
<!-- Node29 -->
<g id="node29" class="node"><title>Node29</title>
<g id="a_node29"><a xlink:href="../../d4/d81/classgame_engine_1_1actors_1_1_base_enemy.html#a67818ce6171fda1624ab7e1d27dc3efe" target="_top" xlink:title="gameEngine.actors.BaseEnemy.\lBaseEnemy">
<polygon fill="white" stroke="black" points="949.5,-164 949.5,-194 1120.5,-194 1120.5,-164 949.5,-164"/>
<text text-anchor="start" x="957.5" y="-182" font-family="Helvetica,sans-Serif" font-size="10.00">gameEngine.actors.BaseEnemy.</text>
<text text-anchor="middle" x="1035" y="-171" font-family="Helvetica,sans-Serif" font-size="10.00">BaseEnemy</text>
</a>
</g>
</g>
<!-- Node28&#45;&gt;Node29 -->
<g id="edge29" class="edge"><title>Node28&#45;&gt;Node29</title>
<path fill="none" stroke="midnightblue" d="M896.19,-179C910.391,-179 925.014,-179 939.187,-179"/>
<polygon fill="midnightblue" stroke="midnightblue" points="939.415,-182.5 949.415,-179 939.415,-175.5 939.415,-182.5"/>
</g>
<!-- Node30 -->
<g id="node30" class="node"><title>Node30</title>
<g id="a_node30"><a xlink:href="../../d4/d81/classgame_engine_1_1actors_1_1_base_enemy.html#a41db5e3bf03c06bd5b17abbe8b82e5e2" target="_top" xlink:title="gameEngine.actors.BaseEnemy.initialize\lEnemy">
<polygon fill="white" stroke="black" points="1174.5,-164 1174.5,-194 1383.5,-194 1383.5,-164 1174.5,-164"/>
<text text-anchor="start" x="1182.5" y="-182" font-family="Helvetica,sans-Serif" font-size="10.00">gameEngine.actors.BaseEnemy.initialize</text>
<text text-anchor="middle" x="1279" y="-171" font-family="Helvetica,sans-Serif" font-size="10.00">Enemy</text>
</a>
</g>
</g>
<!-- Node29&#45;&gt;Node30 -->
<g id="edge30" class="edge"><title>Node29&#45;&gt;Node30</title>
<path fill="none" stroke="midnightblue" d="M1120.64,-179C1134.7,-179 1149.49,-179 1164.14,-179"/>
<polygon fill="midnightblue" stroke="midnightblue" points="1164.25,-182.5 1174.25,-179 1164.25,-175.5 1164.25,-182.5"/>
</g>
<!-- Node31 -->
<g id="node31" class="node"><title>Node31</title>
<g id="a_node31"><a xlink:href="../../d0/d61/classgame_authoring_1_1scenes_1_1path_building_1_1path_components_1_1route_to_point_translation_1_1_backend_route.html#a4decf5451f724697b0b0ba60cd230f6f" target="_top" xlink:title="gameAuthoring.scenes.path\lBuilding.pathComponents.routeTo\lPointTranslation.BackendRoute.getPoints">
<polygon fill="white" stroke="black" points="1420.5,-158.5 1420.5,-199.5 1631.5,-199.5 1631.5,-158.5 1420.5,-158.5"/>
<text text-anchor="start" x="1428.5" y="-187.5" font-family="Helvetica,sans-Serif" font-size="10.00">gameAuthoring.scenes.path</text>
<text text-anchor="start" x="1428.5" y="-176.5" font-family="Helvetica,sans-Serif" font-size="10.00">Building.pathComponents.routeTo</text>
<text text-anchor="middle" x="1526" y="-165.5" font-family="Helvetica,sans-Serif" font-size="10.00">PointTranslation.BackendRoute.getPoints</text>
</a>
</g>
</g>
<!-- Node30&#45;&gt;Node31 -->
<g id="edge31" class="edge"><title>Node30&#45;&gt;Node31</title>
<path fill="none" stroke="midnightblue" d="M1383.55,-179C1392.37,-179 1401.33,-179 1410.23,-179"/>
<polygon fill="midnightblue" stroke="midnightblue" points="1410.25,-182.5 1420.25,-179 1410.25,-175.5 1410.25,-182.5"/>
</g>
</g>
</svg>
        <g id="navigator" transform="translate(0 0)" fill="#404254">
                <rect fill="#f2f5e9" fill-opacity="0.5" stroke="#606060" stroke-width=".5" x="0" y="0" width="60" height="60"/>
                <use id="zoomplus" xlink:href="#zoomPlus" x="17" y="9" onmousedown="handleZoom(evt,'in')"/>
                <use id="zoomminus" xlink:href="#zoomMin" x="42" y="9" onmousedown="handleZoom(evt,'out')"/>
                <use id="reset" xlink:href="#resetDef" x="30" y="36" onmousedown="handleReset()"/>
                <g id="arrowUp" xlink:href="#dirArrow" transform="translate(30 24)" onmousedown="handlePan(0,-1)">
                  <use xlink:href="#rim" fill="#404040">
                        <set attributeName="fill" to="#808080" begin="arrowUp.mouseover" end="arrowUp.mouseout"/>
                  </use>
                  <path fill="none" stroke="white" stroke-width="1.5" d="M0,-3.0v7 M-2.5,-0.5L0,-3.0L2.5,-0.5"/>
                </g>
                <g id="arrowRight" xlink:href="#dirArrow" transform="rotate(90) translate(36 -43)" onmousedown="handlePan(1,0)">
                  <use xlink:href="#rim" fill="#404040">
                        <set attributeName="fill" to="#808080" begin="arrowRight.mouseover" end="arrowRight.mouseout"/>
                  </use>
                  <path fill="none" stroke="white" stroke-width="1.5" d="M0,-3.0v7 M-2.5,-0.5L0,-3.0L2.5,-0.5"/>
                </g>
                <g id="arrowDown" xlink:href="#dirArrow" transform="rotate(180) translate(-30 -48)" onmousedown="handlePan(0,1)">
                  <use xlink:href="#rim" fill="#404040">
                        <set attributeName="fill" to="#808080" begin="arrowDown.mouseover" end="arrowDown.mouseout"/>
                  </use>
                  <path fill="none" stroke="white" stroke-width="1.5" d="M0,-3.0v7 M-2.5,-0.5L0,-3.0L2.5,-0.5"/>
                </g>
                <g id="arrowLeft" xlink:href="#dirArrow" transform="rotate(270) translate(-36 17)" onmousedown="handlePan(-1,0)">
                  <use xlink:href="#rim" fill="#404040">
                        <set attributeName="fill" to="#808080" begin="arrowLeft.mouseover" end="arrowLeft.mouseout"/>
                  </use>
                  <path fill="none" stroke="white" stroke-width="1.5" d="M0,-3.0v7 M-2.5,-0.5L0,-3.0L2.5,-0.5"/>
                </g>
        </g>
        <svg viewBox="0 0 15 15" width="100%" height="30px" preserveAspectRatio="xMaxYMin meet">
         <g id="arrow_out" transform="scale(0.3 0.3)">
          <a xlink:href="classgame_player_1_1main_classes_1_1managers_1_1_gui_manager_a3c6a6b6581cd16f2c9e702ce936c217b_cgraph_org.svg" target="_base">
           <rect id="button" ry="5" rx="5" y="6" x="6" height="38" width="38"
                fill="#f2f5e9" fill-opacity="0.5" stroke="#606060" stroke-width="1.0"/>
           <path id="arrow"
             d="M 11.500037,31.436501 C 11.940474,20.09759 22.043105,11.32322 32.158766,21.979434 L 37.068811,17.246167 C 37.068811,17.246167 37.088388,32 37.088388,32 L 22.160133,31.978069 C 22.160133,31.978069 26.997745,27.140456 26.997745,27.140456 C 18.528582,18.264221 13.291696,25.230495 11.500037,31.436501 z"
             style="fill:#404040;"/>
          </a>
         </g>
        </svg>
</svg>
