<?xml version="1.0" encoding="UTF-8" standalone="no"?>
<!DOCTYPE svg PUBLIC "-//W3C//DTD SVG 1.1//EN"
 "http://www.w3.org/Graphics/SVG/1.1/DTD/svg11.dtd">
<!-- Generated by graphviz version 2.36.0 (20140111.2315)
 -->
<!-- Title: gamePlayer.mainClasses.managers.GuiManager.changeTheme Pages: 1 -->
<svg width="452pt" height="48pt"
 viewBox="0.00 0.00 452.00 48.00" xmlns="http://www.w3.org/2000/svg" xmlns:xlink="http://www.w3.org/1999/xlink">
<g id="graph0" class="graph" transform="scale(1 1) rotate(0) translate(4 44)">
<title>gamePlayer.mainClasses.managers.GuiManager.changeTheme</title>
<polygon fill="white" stroke="none" points="-4,4 -4,-44 448,-44 448,4 -4,4"/>
<!-- Node1 -->
<g id="node1" class="node"><title>Node1</title>
<polygon fill="#bfbfbf" stroke="black" points="0.5,-5 0.5,-35 191.5,-35 191.5,-5 0.5,-5"/>
<text text-anchor="start" x="8.5" y="-23" font-family="Helvetica,sans-Serif" font-size="10.00">gamePlayer.mainClasses.managers.</text>
<text text-anchor="middle" x="96" y="-12" font-family="Helvetica,sans-Serif" font-size="10.00">GuiManager.changeTheme</text>
</g>
<!-- Node2 -->
<g id="node2" class="node"><title>Node2</title>
<g id="a_node2"><a xlink:href="../../d0/de6/classgame_player_1_1gui_items_1_1vooga_menu_bar_1_1menu_items_1_1_change_theme_menu_item.html#ad492dccdaadf2dc3ed098d28b959eb91" target="_top" xlink:title="gamePlayer.guiItems.vooga\lMenuBar.menuItems.ChangeThemeMenu\lItem.initialize">
<polygon fill="white" stroke="black" points="228.5,0.5 228.5,-40.5 443.5,-40.5 443.5,0.5 228.5,0.5"/>
<text text-anchor="start" x="236.5" y="-28.5" font-family="Helvetica,sans-Serif" font-size="10.00">gamePlayer.guiItems.vooga</text>
<text text-anchor="start" x="236.5" y="-17.5" font-family="Helvetica,sans-Serif" font-size="10.00">MenuBar.menuItems.ChangeThemeMenu</text>
<text text-anchor="middle" x="336" y="-6.5" font-family="Helvetica,sans-Serif" font-size="10.00">Item.initialize</text>
</a>
</g>
</g>
<!-- Node1&#45;&gt;Node2 -->
<g id="edge1" class="edge"><title>Node1&#45;&gt;Node2</title>
<path fill="none" stroke="midnightblue" d="M201.99,-20C210.766,-20 219.644,-20 228.431,-20"/>
<polygon fill="midnightblue" stroke="midnightblue" points="201.748,-16.5001 191.748,-20 201.748,-23.5001 201.748,-16.5001"/>
</g>
</g>
</svg>
