<?xml version="1.0" encoding="UTF-8" standalone="no"?>
<!DOCTYPE svg PUBLIC "-//W3C//DTD SVG 1.1//EN"
 "http://www.w3.org/Graphics/SVG/1.1/DTD/svg11.dtd">
<!-- Generated by graphviz version 2.36.0 (20140111.2315)
 -->
<!-- Title: gamePlayer.mainClasses.managers.GuiManager.prepareMultiPlayerGame Pages: 1 -->
<svg width="684pt" height="38pt"
 viewBox="0.00 0.00 684.00 38.00" xmlns="http://www.w3.org/2000/svg" xmlns:xlink="http://www.w3.org/1999/xlink">
<g id="graph0" class="graph" transform="scale(1 1) rotate(0) translate(4 34)">
<title>gamePlayer.mainClasses.managers.GuiManager.prepareMultiPlayerGame</title>
<polygon fill="white" stroke="none" points="-4,4 -4,-34 680,-34 680,4 -4,4"/>
<!-- Node1 -->
<g id="node1" class="node"><title>Node1</title>
<polygon fill="#bfbfbf" stroke="black" points="0.5,-0 0.5,-30 195.5,-30 195.5,-0 0.5,-0"/>
<text text-anchor="start" x="8.5" y="-18" font-family="Helvetica,sans-Serif" font-size="10.00">gamePlayer.mainClasses.managers.</text>
<text text-anchor="middle" x="98" y="-7" font-family="Helvetica,sans-Serif" font-size="10.00">GuiManager.prepareMultiPlayerGame</text>
</g>
<!-- Node2 -->
<g id="node2" class="node"><title>Node2</title>
<g id="a_node2"><a xlink:href="../../d4/d66/classgame_engine_1_1_co_op_manager.html#a708caace2b23a97f7d921602e638bc86" target="_top" xlink:title="gameEngine.CoOpManager.start\lNewGame">
<polygon fill="white" stroke="black" points="232.5,-0 232.5,-30 405.5,-30 405.5,-0 232.5,-0"/>
<text text-anchor="start" x="240.5" y="-18" font-family="Helvetica,sans-Serif" font-size="10.00">gameEngine.CoOpManager.start</text>
<text text-anchor="middle" x="319" y="-7" font-family="Helvetica,sans-Serif" font-size="10.00">NewGame</text>
</a>
</g>
</g>
<!-- Node1&#45;&gt;Node2 -->
<g id="edge1" class="edge"><title>Node1&#45;&gt;Node2</title>
<path fill="none" stroke="midnightblue" d="M195.694,-15C204.424,-15 213.264,-15 221.988,-15"/>
<polygon fill="midnightblue" stroke="midnightblue" points="222.162,-18.5001 232.162,-15 222.162,-11.5001 222.162,-18.5001"/>
</g>
<!-- Node3 -->
<g id="node3" class="node"><title>Node3</title>
<g id="a_node3"><a xlink:href="../../da/dae/classutilities_1_1networking_1_1_h_t_t_p_connection.html#a0206f93b4a11b7a226efb2c9cdf8f251" target="_top" xlink:title="utilities.networking.HTTPConnection.sendPost">
<polygon fill="white" stroke="black" points="442.5,-5.5 442.5,-24.5 675.5,-24.5 675.5,-5.5 442.5,-5.5"/>
<text text-anchor="middle" x="559" y="-12.5" font-family="Helvetica,sans-Serif" font-size="10.00">utilities.networking.HTTPConnection.sendPost</text>
</a>
</g>
</g>
<!-- Node2&#45;&gt;Node3 -->
<g id="edge2" class="edge"><title>Node2&#45;&gt;Node3</title>
<path fill="none" stroke="midnightblue" d="M405.587,-15C414.205,-15 423.077,-15 432.001,-15"/>
<polygon fill="midnightblue" stroke="midnightblue" points="432.089,-18.5001 442.089,-15 432.089,-11.5001 432.089,-18.5001"/>
</g>
</g>
</svg>
