<?xml version="1.0" encoding="UTF-8" standalone="no"?>
<!DOCTYPE svg PUBLIC "-//W3C//DTD SVG 1.1//EN"
 "http://www.w3.org/Graphics/SVG/1.1/DTD/svg11.dtd">
<!-- Generated by graphviz version 2.36.0 (20140111.2315)
 -->
<!-- Title: gamePlayer.mainClasses.managers.GuiManager.fastForward Pages: 1 -->
<svg width="680pt" height="38pt"
 viewBox="0.00 0.00 680.00 38.00" xmlns="http://www.w3.org/2000/svg" xmlns:xlink="http://www.w3.org/1999/xlink">
<g id="graph0" class="graph" transform="scale(1 1) rotate(0) translate(4 34)">
<title>gamePlayer.mainClasses.managers.GuiManager.fastForward</title>
<polygon fill="white" stroke="none" points="-4,4 -4,-34 676,-34 676,4 -4,4"/>
<!-- Node1 -->
<g id="node1" class="node"><title>Node1</title>
<polygon fill="#bfbfbf" stroke="black" points="0.5,-0 0.5,-30 191.5,-30 191.5,-0 0.5,-0"/>
<text text-anchor="start" x="8.5" y="-18" font-family="Helvetica,sans-Serif" font-size="10.00">gamePlayer.mainClasses.managers.</text>
<text text-anchor="middle" x="96" y="-7" font-family="Helvetica,sans-Serif" font-size="10.00">GuiManager.fastForward</text>
</g>
<!-- Node2 -->
<g id="node2" class="node"><title>Node2</title>
<g id="a_node2"><a xlink:href="../../da/d69/classgame_player_1_1main_classes_1_1managers_1_1_gui_manager.html#a9e5b0b6fdfd81b90ed43d120216de9ca" target="_top" xlink:title="gamePlayer.mainClasses.managers.\lGuiManager.play">
<polygon fill="white" stroke="black" points="228.5,-0 228.5,-30 419.5,-30 419.5,-0 228.5,-0"/>
<text text-anchor="start" x="236.5" y="-18" font-family="Helvetica,sans-Serif" font-size="10.00">gamePlayer.mainClasses.managers.</text>
<text text-anchor="middle" x="324" y="-7" font-family="Helvetica,sans-Serif" font-size="10.00">GuiManager.play</text>
</a>
</g>
</g>
<!-- Node1&#45;&gt;Node2 -->
<g id="edge1" class="edge"><title>Node1&#45;&gt;Node2</title>
<path fill="none" stroke="midnightblue" d="M191.535,-15C200.411,-15 209.443,-15 218.405,-15"/>
<polygon fill="midnightblue" stroke="midnightblue" points="218.481,-18.5001 228.48,-15 218.48,-11.5001 218.481,-18.5001"/>
</g>
<!-- Node3 -->
<g id="node3" class="node"><title>Node3</title>
<g id="a_node3"><a xlink:href="../../d0/d94/classgame_engine_1_1_main_engine_manager.html#ae1574a2dd377a08ee5dcbb1b299ece5f" target="_top" xlink:title="gameEngine.MainEngineManager.resume">
<polygon fill="white" stroke="black" points="456.5,-5.5 456.5,-24.5 671.5,-24.5 671.5,-5.5 456.5,-5.5"/>
<text text-anchor="middle" x="564" y="-12.5" font-family="Helvetica,sans-Serif" font-size="10.00">gameEngine.MainEngineManager.resume</text>
</a>
</g>
</g>
<!-- Node2&#45;&gt;Node3 -->
<g id="edge2" class="edge"><title>Node2&#45;&gt;Node3</title>
<path fill="none" stroke="midnightblue" d="M419.748,-15C428.507,-15 437.449,-15 446.374,-15"/>
<polygon fill="midnightblue" stroke="midnightblue" points="446.431,-18.5001 456.431,-15 446.431,-11.5001 446.431,-18.5001"/>
</g>
</g>
</svg>
