<?xml version="1.0" encoding="UTF-8" standalone="no"?>
<!DOCTYPE svg PUBLIC "-//W3C//DTD SVG 1.1//EN"
 "http://www.w3.org/Graphics/SVG/1.1/DTD/svg11.dtd">
<!-- Generated by graphviz version 2.36.0 (20140111.2315)
 -->
<!-- Title: gamePlayer.mainClasses.managers.GuiManager.endGame Pages: 1 -->
<svg width="662pt" height="87pt"
 viewBox="0.00 0.00 662.00 87.00" xmlns="http://www.w3.org/2000/svg" xmlns:xlink="http://www.w3.org/1999/xlink">
<g id="graph0" class="graph" transform="scale(1 1) rotate(0) translate(4 83)">
<title>gamePlayer.mainClasses.managers.GuiManager.endGame</title>
<polygon fill="white" stroke="none" points="-4,4 -4,-83 658,-83 658,4 -4,4"/>
<!-- Node1 -->
<g id="node1" class="node"><title>Node1</title>
<polygon fill="#bfbfbf" stroke="black" points="0.5,-24 0.5,-54 191.5,-54 191.5,-24 0.5,-24"/>
<text text-anchor="start" x="8.5" y="-42" font-family="Helvetica,sans-Serif" font-size="10.00">gamePlayer.mainClasses.managers.</text>
<text text-anchor="middle" x="96" y="-31" font-family="Helvetica,sans-Serif" font-size="10.00">GuiManager.endGame</text>
</g>
<!-- Node2 -->
<g id="node2" class="node"><title>Node2</title>
<g id="a_node2"><a xlink:href="../../da/d69/classgame_player_1_1main_classes_1_1managers_1_1_gui_manager.html#aa36cd779c78f6d551e001fbe2ccbf2c8" target="_top" xlink:title="gamePlayer.mainClasses.managers.\lGuiManager.displayMessage">
<polygon fill="white" stroke="black" points="228.5,-49 228.5,-79 419.5,-79 419.5,-49 228.5,-49"/>
<text text-anchor="start" x="236.5" y="-67" font-family="Helvetica,sans-Serif" font-size="10.00">gamePlayer.mainClasses.managers.</text>
<text text-anchor="middle" x="324" y="-56" font-family="Helvetica,sans-Serif" font-size="10.00">GuiManager.displayMessage</text>
</a>
</g>
</g>
<!-- Node1&#45;&gt;Node2 -->
<g id="edge1" class="edge"><title>Node1&#45;&gt;Node2</title>
<path fill="none" stroke="midnightblue" d="M191.535,-49.4574C200.411,-50.4393 209.443,-51.4384 218.405,-52.4297"/>
<polygon fill="midnightblue" stroke="midnightblue" points="218.156,-55.9235 228.48,-53.5443 218.926,-48.9659 218.156,-55.9235"/>
</g>
<!-- Node4 -->
<g id="node4" class="node"><title>Node4</title>
<g id="a_node4"><a xlink:href="../../d0/dee/classgame_player_1_1gui_items_1_1game_world_1_1_game_world.html#ab07bae6d692a39832fd7ecc25f3b6cf3" target="_top" xlink:title="gamePlayer.guiItems.game\lWorld.GameWorld.getMap">
<polygon fill="white" stroke="black" points="250,-0 250,-30 398,-30 398,-0 250,-0"/>
<text text-anchor="start" x="258" y="-18" font-family="Helvetica,sans-Serif" font-size="10.00">gamePlayer.guiItems.game</text>
<text text-anchor="middle" x="324" y="-7" font-family="Helvetica,sans-Serif" font-size="10.00">World.GameWorld.getMap</text>
</a>
</g>
</g>
<!-- Node1&#45;&gt;Node4 -->
<g id="edge3" class="edge"><title>Node1&#45;&gt;Node4</title>
<path fill="none" stroke="midnightblue" d="M191.535,-28.9609C207.51,-27.2645 223.991,-25.5143 239.653,-23.851"/>
<polygon fill="midnightblue" stroke="midnightblue" points="240.24,-27.3084 249.815,-22.7719 239.501,-20.3476 240.24,-27.3084"/>
</g>
<!-- Node3 -->
<g id="node3" class="node"><title>Node3</title>
<g id="a_node3"><a xlink:href="../../dd/dee/classgame_player_1_1gui_items_1_1message_display_1_1_message_display.html#aab83737510993a53476288fcb995af19" target="_top" xlink:title="gamePlayer.guiItems.message\lDisplay.MessageDisplay.showMessage">
<polygon fill="white" stroke="black" points="456,-49 456,-79 654,-79 654,-49 456,-49"/>
<text text-anchor="start" x="464" y="-67" font-family="Helvetica,sans-Serif" font-size="10.00">gamePlayer.guiItems.message</text>
<text text-anchor="middle" x="555" y="-56" font-family="Helvetica,sans-Serif" font-size="10.00">Display.MessageDisplay.showMessage</text>
</a>
</g>
</g>
<!-- Node2&#45;&gt;Node3 -->
<g id="edge2" class="edge"><title>Node2&#45;&gt;Node3</title>
<path fill="none" stroke="midnightblue" d="M419.796,-64C428.375,-64 437.105,-64 445.788,-64"/>
<polygon fill="midnightblue" stroke="midnightblue" points="445.946,-67.5001 455.946,-64 445.946,-60.5001 445.946,-67.5001"/>
</g>
</g>
</svg>
