<?xml version="1.0" encoding="UTF-8" standalone="no"?>
<!DOCTYPE svg PUBLIC "-//W3C//DTD SVG 1.1//EN"
 "http://www.w3.org/Graphics/SVG/1.1/DTD/svg11.dtd">
<!-- Generated by graphviz version 2.36.0 (20140111.2315)
 -->
<!-- Title: gamePlayer.guiItems.store.Store.placeTower Pages: 1 -->
<svg width="556pt" height="87pt"
 viewBox="0.00 0.00 556.00 87.00" xmlns="http://www.w3.org/2000/svg" xmlns:xlink="http://www.w3.org/1999/xlink">
<g id="graph0" class="graph" transform="scale(1 1) rotate(0) translate(4 83)">
<title>gamePlayer.guiItems.store.Store.placeTower</title>
<polygon fill="white" stroke="none" points="-4,4 -4,-83 552,-83 552,4 -4,4"/>
<!-- Node1 -->
<g id="node1" class="node"><title>Node1</title>
<polygon fill="#bfbfbf" stroke="black" points="0,-24 0,-54 148,-54 148,-24 0,-24"/>
<text text-anchor="start" x="8" y="-42" font-family="Helvetica,sans-Serif" font-size="10.00">gamePlayer.guiItems.store.</text>
<text text-anchor="middle" x="74" y="-31" font-family="Helvetica,sans-Serif" font-size="10.00">Store.placeTower</text>
</g>
<!-- Node2 -->
<g id="node2" class="node"><title>Node2</title>
<g id="a_node2"><a xlink:href="../../d1/dd3/classgame_player_1_1gui_items_1_1store_1_1_store.html#a9a8c7f92a7b3744d435a62b73a7277cd" target="_top" xlink:title="gamePlayer.guiItems.store.\lStore.checkEscape">
<polygon fill="white" stroke="black" points="192,-49 192,-79 340,-79 340,-49 192,-49"/>
<text text-anchor="start" x="200" y="-67" font-family="Helvetica,sans-Serif" font-size="10.00">gamePlayer.guiItems.store.</text>
<text text-anchor="middle" x="266" y="-56" font-family="Helvetica,sans-Serif" font-size="10.00">Store.checkEscape</text>
</a>
</g>
</g>
<!-- Node1&#45;&gt;Node2 -->
<g id="edge1" class="edge"><title>Node1&#45;&gt;Node2</title>
<path fill="none" stroke="midnightblue" d="M148.187,-48.6299C159.152,-50.0727 170.527,-51.5694 181.684,-53.0374"/>
<polygon fill="midnightblue" stroke="midnightblue" points="181.479,-56.5405 191.85,-54.3751 182.393,-49.6003 181.479,-56.5405"/>
</g>
<!-- Node4 -->
<g id="node4" class="node"><title>Node4</title>
<g id="a_node4"><a xlink:href="../../d4/db7/interfacegame_player_1_1gui_items_listeners_1_1_store_listener.html#af2099fff195e2d68cdf7dbe5e383269e" target="_top" xlink:title="gamePlayer.guiItemsListeners.\lStoreListener.placeTower">
<polygon fill="white" stroke="black" points="184,-0 184,-30 348,-30 348,-0 184,-0"/>
<text text-anchor="start" x="192" y="-18" font-family="Helvetica,sans-Serif" font-size="10.00">gamePlayer.guiItemsListeners.</text>
<text text-anchor="middle" x="266" y="-7" font-family="Helvetica,sans-Serif" font-size="10.00">StoreListener.placeTower</text>
</a>
</g>
</g>
<!-- Node1&#45;&gt;Node4 -->
<g id="edge3" class="edge"><title>Node1&#45;&gt;Node4</title>
<path fill="none" stroke="midnightblue" d="M148.187,-29.7553C156.603,-28.6923 165.259,-27.5988 173.874,-26.5107"/>
<polygon fill="midnightblue" stroke="midnightblue" points="174.467,-29.9637 183.949,-25.238 173.589,-23.0189 174.467,-29.9637"/>
</g>
<!-- Node3 -->
<g id="node3" class="node"><title>Node3</title>
<g id="a_node3"><a xlink:href="../../d4/db7/interfacegame_player_1_1gui_items_listeners_1_1_store_listener.html#a09ba9b5e100d86c9165ce8355a49028d" target="_top" xlink:title="gamePlayer.guiItemsListeners.\lStoreListener.escapePlace">
<polygon fill="white" stroke="black" points="384,-49 384,-79 548,-79 548,-49 384,-49"/>
<text text-anchor="start" x="392" y="-67" font-family="Helvetica,sans-Serif" font-size="10.00">gamePlayer.guiItemsListeners.</text>
<text text-anchor="middle" x="466" y="-56" font-family="Helvetica,sans-Serif" font-size="10.00">StoreListener.escapePlace</text>
</a>
</g>
</g>
<!-- Node2&#45;&gt;Node3 -->
<g id="edge2" class="edge"><title>Node2&#45;&gt;Node3</title>
<path fill="none" stroke="midnightblue" d="M340.165,-64C351.046,-64 362.373,-64 373.571,-64"/>
<polygon fill="midnightblue" stroke="midnightblue" points="373.802,-67.5001 383.802,-64 373.802,-60.5001 373.802,-67.5001"/>
</g>
</g>
</svg>
