<?xml version="1.0" encoding="UTF-8" standalone="no"?>
<!DOCTYPE svg PUBLIC "-//W3C//DTD SVG 1.1//EN"
 "http://www.w3.org/Graphics/SVG/1.1/DTD/svg11.dtd">
<!-- Generated by graphviz version 2.36.0 (20140111.2315)
 -->
<!-- Title: gamePlayer.guiItems.store.Store.refreshStore Pages: 1 -->
<svg width="1854pt" height="332pt"
 viewBox="0.00 0.00 1854.00 332.00" xmlns="http://www.w3.org/2000/svg" xmlns:xlink="http://www.w3.org/1999/xlink">
<g id="graph0" class="graph" transform="scale(1 1) rotate(0) translate(4 328)">
<title>gamePlayer.guiItems.store.Store.refreshStore</title>
<polygon fill="white" stroke="none" points="-4,4 -4,-328 1850,-328 1850,4 -4,4"/>
<!-- Node1 -->
<g id="node1" class="node"><title>Node1</title>
<polygon fill="#bfbfbf" stroke="black" points="0,-68 0,-98 148,-98 148,-68 0,-68"/>
<text text-anchor="start" x="8" y="-86" font-family="Helvetica,sans-Serif" font-size="10.00">gamePlayer.guiItems.store.</text>
<text text-anchor="middle" x="74" y="-75" font-family="Helvetica,sans-Serif" font-size="10.00">Store.refreshStore</text>
</g>
<!-- Node2 -->
<g id="node2" class="node"><title>Node2</title>
<g id="a_node2"><a xlink:href="../../d1/dd3/classgame_player_1_1gui_items_1_1store_1_1_store.html#ad13bae4293f420c408c63393a7e2d0b7" target="_top" xlink:title="gamePlayer.guiItems.store.\lStore.fillStore">
<polygon fill="white" stroke="black" points="206,-93 206,-123 354,-123 354,-93 206,-93"/>
<text text-anchor="start" x="214" y="-111" font-family="Helvetica,sans-Serif" font-size="10.00">gamePlayer.guiItems.store.</text>
<text text-anchor="middle" x="280" y="-100" font-family="Helvetica,sans-Serif" font-size="10.00">Store.fillStore</text>
</a>
</g>
</g>
<!-- Node1&#45;&gt;Node2 -->
<g id="edge1" class="edge"><title>Node1&#45;&gt;Node2</title>
<path fill="none" stroke="midnightblue" d="M158.301,-93.2085C174.026,-95.1355 190.364,-97.1378 205.752,-99.0235"/>
<polygon fill="midnightblue" stroke="midnightblue" points="158.424,-89.6974 148.072,-91.955 157.572,-96.6454 158.424,-89.6974"/>
</g>
<!-- Node22 -->
<g id="node22" class="node"><title>Node22</title>
<g id="a_node22"><a xlink:href="../../da/d69/classgame_player_1_1main_classes_1_1managers_1_1_gui_manager.html#a804ad80c0c79023e2226102f0c4cdaaa" target="_top" xlink:title="gamePlayer.mainClasses.managers.\lGuiManager.refreshStore">
<polygon fill="white" stroke="black" points="184.5,-43 184.5,-73 375.5,-73 375.5,-43 184.5,-43"/>
<text text-anchor="start" x="192.5" y="-61" font-family="Helvetica,sans-Serif" font-size="10.00">gamePlayer.mainClasses.managers.</text>
<text text-anchor="middle" x="280" y="-50" font-family="Helvetica,sans-Serif" font-size="10.00">GuiManager.refreshStore</text>
</a>
</g>
</g>
<!-- Node1&#45;&gt;Node22 -->
<g id="edge24" class="edge"><title>Node1&#45;&gt;Node22</title>
<path fill="none" stroke="midnightblue" d="M158.126,-72.813C166.776,-71.7529 175.615,-70.6698 184.38,-69.5956"/>
<polygon fill="midnightblue" stroke="midnightblue" points="157.572,-69.3546 148.072,-74.045 158.424,-76.3026 157.572,-69.3546"/>
</g>
<!-- Node3 -->
<g id="node3" class="node"><title>Node3</title>
<g id="a_node3"><a xlink:href="../../da/d69/classgame_player_1_1main_classes_1_1managers_1_1_gui_manager.html#ae2f2b1e5fe0b1dce495f5d8fabc99dd3" target="_top" xlink:title="gamePlayer.mainClasses.managers.\lGuiManager.fillStore">
<polygon fill="white" stroke="black" points="417.5,-95 417.5,-125 608.5,-125 608.5,-95 417.5,-95"/>
<text text-anchor="start" x="425.5" y="-113" font-family="Helvetica,sans-Serif" font-size="10.00">gamePlayer.mainClasses.managers.</text>
<text text-anchor="middle" x="513" y="-102" font-family="Helvetica,sans-Serif" font-size="10.00">GuiManager.fillStore</text>
</a>
</g>
</g>
<!-- Node2&#45;&gt;Node3 -->
<g id="edge2" class="edge"><title>Node2&#45;&gt;Node3</title>
<path fill="none" stroke="midnightblue" d="M364.126,-108.72C381.4,-108.869 399.725,-109.028 417.377,-109.181"/>
<polygon fill="midnightblue" stroke="midnightblue" points="364.12,-105.22 354.09,-108.633 364.059,-112.219 364.12,-105.22"/>
</g>
<!-- Node4 -->
<g id="node4" class="node"><title>Node4</title>
<g id="a_node4"><a xlink:href="../../da/d69/classgame_player_1_1main_classes_1_1managers_1_1_gui_manager.html#a02a63a3d495b31cce0c4976f95758a49" target="_top" xlink:title="gamePlayer.mainClasses.managers.\lGuiManager.startGame">
<polygon fill="white" stroke="black" points="659.5,-92 659.5,-122 850.5,-122 850.5,-92 659.5,-92"/>
<text text-anchor="start" x="667.5" y="-110" font-family="Helvetica,sans-Serif" font-size="10.00">gamePlayer.mainClasses.managers.</text>
<text text-anchor="middle" x="755" y="-99" font-family="Helvetica,sans-Serif" font-size="10.00">GuiManager.startGame</text>
</a>
</g>
</g>
<!-- Node3&#45;&gt;Node4 -->
<g id="edge3" class="edge"><title>Node3&#45;&gt;Node4</title>
<path fill="none" stroke="midnightblue" d="M618.735,-108.691C632.188,-108.523 645.901,-108.351 659.183,-108.185"/>
<polygon fill="midnightblue" stroke="midnightblue" points="618.465,-105.194 608.51,-108.819 618.553,-112.193 618.465,-105.194"/>
</g>
<!-- Node6 -->
<g id="node6" class="node"><title>Node6</title>
<g id="a_node6"><a xlink:href="../../da/d69/classgame_player_1_1main_classes_1_1managers_1_1_gui_manager.html#a6f0d5fa9c335707fd051fa83bd82f9bf" target="_top" xlink:title="gamePlayer.mainClasses.managers.\lGuiManager.initializeNewGameElements">
<polygon fill="white" stroke="black" points="650.5,-141 650.5,-171 859.5,-171 859.5,-141 650.5,-141"/>
<text text-anchor="start" x="658.5" y="-159" font-family="Helvetica,sans-Serif" font-size="10.00">gamePlayer.mainClasses.managers.</text>
<text text-anchor="middle" x="755" y="-148" font-family="Helvetica,sans-Serif" font-size="10.00">GuiManager.initializeNewGameElements</text>
</a>
</g>
</g>
<!-- Node3&#45;&gt;Node6 -->
<g id="edge5" class="edge"><title>Node3&#45;&gt;Node6</title>
<path fill="none" stroke="midnightblue" d="M602.715,-127.004C626.636,-131.588 652.339,-136.515 675.649,-140.983"/>
<polygon fill="midnightblue" stroke="midnightblue" points="603.065,-123.507 592.585,-125.062 601.747,-130.382 603.065,-123.507"/>
</g>
<!-- Node5 -->
<g id="node5" class="node"><title>Node5</title>
<g id="a_node5"><a xlink:href="../../da/d69/classgame_player_1_1main_classes_1_1managers_1_1_gui_manager.html#a287842e1d39b7ecf2e13befeeafa1a7b" target="_top" xlink:title="gamePlayer.mainClasses.managers.\lGuiManager.loadGame">
<polygon fill="white" stroke="black" points="896.5,-92 896.5,-122 1087.5,-122 1087.5,-92 896.5,-92"/>
<text text-anchor="start" x="904.5" y="-110" font-family="Helvetica,sans-Serif" font-size="10.00">gamePlayer.mainClasses.managers.</text>
<text text-anchor="middle" x="992" y="-99" font-family="Helvetica,sans-Serif" font-size="10.00">GuiManager.loadGame</text>
</a>
</g>
</g>
<!-- Node4&#45;&gt;Node5 -->
<g id="edge4" class="edge"><title>Node4&#45;&gt;Node5</title>
<path fill="none" stroke="midnightblue" d="M860.865,-107C872.647,-107 884.6,-107 896.243,-107"/>
<polygon fill="midnightblue" stroke="midnightblue" points="860.568,-103.5 850.568,-107 860.568,-110.5 860.568,-103.5"/>
</g>
<!-- Node7 -->
<g id="node7" class="node"><title>Node7</title>
<g id="a_node7"><a xlink:href="../../da/d69/classgame_player_1_1main_classes_1_1managers_1_1_gui_manager.html#aa9b035d2a17b73719ca8a26d8ebde9ce" target="_top" xlink:title="gamePlayer.mainClasses.managers.\lGuiManager.startSinglePlayerGame">
<polygon fill="white" stroke="black" points="896.5,-222 896.5,-252 1087.5,-252 1087.5,-222 896.5,-222"/>
<text text-anchor="start" x="904.5" y="-240" font-family="Helvetica,sans-Serif" font-size="10.00">gamePlayer.mainClasses.managers.</text>
<text text-anchor="middle" x="992" y="-229" font-family="Helvetica,sans-Serif" font-size="10.00">GuiManager.startSinglePlayerGame</text>
</a>
</g>
</g>
<!-- Node6&#45;&gt;Node7 -->
<g id="edge6" class="edge"><title>Node6&#45;&gt;Node7</title>
<path fill="none" stroke="midnightblue" d="M809.353,-174.39C851.011,-188.748 908.18,-208.453 947.185,-221.898"/>
<polygon fill="midnightblue" stroke="midnightblue" points="810.246,-170.995 799.651,-171.046 807.965,-177.613 810.246,-170.995"/>
</g>
<!-- Node13 -->
<g id="node13" class="node"><title>Node13</title>
<g id="a_node13"><a xlink:href="../../da/d69/classgame_player_1_1main_classes_1_1managers_1_1_gui_manager.html#aa0b614e03bdec959e13e3d5ca2e1f614" target="_top" xlink:title="gamePlayer.mainClasses.managers.\lGuiManager.startMultiPlayerGame">
<polygon fill="white" stroke="black" points="896.5,-141 896.5,-171 1087.5,-171 1087.5,-141 896.5,-141"/>
<text text-anchor="start" x="904.5" y="-159" font-family="Helvetica,sans-Serif" font-size="10.00">gamePlayer.mainClasses.managers.</text>
<text text-anchor="middle" x="992" y="-148" font-family="Helvetica,sans-Serif" font-size="10.00">GuiManager.startMultiPlayerGame</text>
</a>
</g>
</g>
<!-- Node6&#45;&gt;Node13 -->
<g id="edge12" class="edge"><title>Node6&#45;&gt;Node13</title>
<path fill="none" stroke="midnightblue" d="M869.778,-156C878.672,-156 887.595,-156 896.342,-156"/>
<polygon fill="midnightblue" stroke="midnightblue" points="869.759,-152.5 859.758,-156 869.758,-159.5 869.759,-152.5"/>
</g>
<!-- Node8 -->
<g id="node8" class="node"><title>Node8</title>
<g id="a_node8"><a xlink:href="../../da/d69/classgame_player_1_1main_classes_1_1managers_1_1_gui_manager.html#a3f657f0e3ba1e493d2dd02b5df5e03f6" target="_top" xlink:title="gamePlayer.mainClasses.managers.\lGuiManager.replayGame">
<polygon fill="white" stroke="black" points="1138.5,-195 1138.5,-225 1329.5,-225 1329.5,-195 1138.5,-195"/>
<text text-anchor="start" x="1146.5" y="-213" font-family="Helvetica,sans-Serif" font-size="10.00">gamePlayer.mainClasses.managers.</text>
<text text-anchor="middle" x="1234" y="-202" font-family="Helvetica,sans-Serif" font-size="10.00">GuiManager.replayGame</text>
</a>
</g>
</g>
<!-- Node7&#45;&gt;Node8 -->
<g id="edge7" class="edge"><title>Node7&#45;&gt;Node8</title>
<path fill="none" stroke="midnightblue" d="M1097.74,-225.217C1111.19,-223.704 1124.9,-222.161 1138.18,-220.667"/>
<polygon fill="midnightblue" stroke="midnightblue" points="1097.06,-221.772 1087.51,-226.368 1097.84,-228.728 1097.06,-221.772"/>
</g>
<!-- Node9 -->
<g id="node9" class="node"><title>Node9</title>
<g id="a_node9"><a xlink:href="../../d4/d3f/classgame_player_1_1main_classes_1_1managers_1_1_welcome_manager.html#a5da8d3f5b8bc1c4bd4c555140bd9384c" target="_top" xlink:title="gamePlayer.mainClasses.managers.\lWelcomeManager.startSinglePlayerGame">
<polygon fill="white" stroke="black" points="1380,-293 1380,-323 1594,-323 1594,-293 1380,-293"/>
<text text-anchor="start" x="1388" y="-311" font-family="Helvetica,sans-Serif" font-size="10.00">gamePlayer.mainClasses.managers.</text>
<text text-anchor="middle" x="1487" y="-300" font-family="Helvetica,sans-Serif" font-size="10.00">WelcomeManager.startSinglePlayerGame</text>
</a>
</g>
</g>
<!-- Node7&#45;&gt;Node9 -->
<g id="edge8" class="edge"><title>Node7&#45;&gt;Node9</title>
<path fill="none" stroke="midnightblue" d="M1029.1,-256.659C1054.76,-269.564 1090.48,-285.41 1124,-293 1208.51,-312.136 1306.88,-315.022 1379.73,-313.604"/>
<polygon fill="midnightblue" stroke="midnightblue" points="1030.62,-253.505 1020.12,-252.058 1027.43,-259.734 1030.62,-253.505"/>
</g>
<!-- Node11 -->
<g id="node11" class="node"><title>Node11</title>
<g id="a_node11"><a xlink:href="../../d3/dee/classgame_player_1_1main_classes_1_1welcome_screen_1_1_game_start_manager.html#a0c44b3f25d2a30fe2e7aeca9da7161a9" target="_top" xlink:title="gamePlayer.mainClasses.welcome\lScreen.GameStartManager.startSingle\lPlayerGame">
<polygon fill="white" stroke="black" points="1132.5,-243.5 1132.5,-284.5 1335.5,-284.5 1335.5,-243.5 1132.5,-243.5"/>
<text text-anchor="start" x="1140.5" y="-272.5" font-family="Helvetica,sans-Serif" font-size="10.00">gamePlayer.mainClasses.welcome</text>
<text text-anchor="start" x="1140.5" y="-261.5" font-family="Helvetica,sans-Serif" font-size="10.00">Screen.GameStartManager.startSingle</text>
<text text-anchor="middle" x="1234" y="-250.5" font-family="Helvetica,sans-Serif" font-size="10.00">PlayerGame</text>
</a>
</g>
</g>
<!-- Node7&#45;&gt;Node11 -->
<g id="edge10" class="edge"><title>Node7&#45;&gt;Node11</title>
<path fill="none" stroke="midnightblue" d="M1097.57,-248.764C1109.08,-250.059 1120.79,-251.376 1132.25,-252.666"/>
<polygon fill="midnightblue" stroke="midnightblue" points="1097.84,-245.272 1087.51,-247.632 1097.06,-252.228 1097.84,-245.272"/>
</g>
<!-- Node10 -->
<g id="node10" class="node"><title>Node10</title>
<g id="a_node10"><a xlink:href="../../d4/d3f/classgame_player_1_1main_classes_1_1managers_1_1_welcome_manager.html#ae6495396aef63551116c0835c40574e1" target="_top" xlink:title="gamePlayer.mainClasses.managers.\lWelcomeManager.startGame">
<polygon fill="white" stroke="black" points="1642.5,-244 1642.5,-274 1833.5,-274 1833.5,-244 1642.5,-244"/>
<text text-anchor="start" x="1650.5" y="-262" font-family="Helvetica,sans-Serif" font-size="10.00">gamePlayer.mainClasses.managers.</text>
<text text-anchor="middle" x="1738" y="-251" font-family="Helvetica,sans-Serif" font-size="10.00">WelcomeManager.startGame</text>
</a>
</g>
</g>
<!-- Node9&#45;&gt;Node10 -->
<g id="edge9" class="edge"><title>Node9&#45;&gt;Node10</title>
<path fill="none" stroke="midnightblue" d="M1574.22,-291.033C1602.36,-285.495 1633.39,-279.389 1660.74,-274.006"/>
<polygon fill="midnightblue" stroke="midnightblue" points="1573.54,-287.6 1564.4,-292.965 1574.89,-294.469 1573.54,-287.6"/>
</g>
<!-- Node12 -->
<g id="node12" class="node"><title>Node12</title>
<g id="a_node12"><a xlink:href="../../d3/dee/classgame_player_1_1main_classes_1_1welcome_screen_1_1_game_start_manager.html#a4ac849399bf00c6df86f0db25ea95ed8" target="_top" xlink:title="gamePlayer.mainClasses.welcome\lScreen.GameStartManager.startGame">
<polygon fill="white" stroke="black" points="1636.5,-163 1636.5,-193 1839.5,-193 1839.5,-163 1636.5,-163"/>
<text text-anchor="start" x="1644.5" y="-181" font-family="Helvetica,sans-Serif" font-size="10.00">gamePlayer.mainClasses.welcome</text>
<text text-anchor="middle" x="1738" y="-170" font-family="Helvetica,sans-Serif" font-size="10.00">Screen.GameStartManager.startGame</text>
</a>
</g>
</g>
<!-- Node11&#45;&gt;Node12 -->
<g id="edge11" class="edge"><title>Node11&#45;&gt;Node12</title>
<path fill="none" stroke="midnightblue" d="M1346.02,-262.987C1417.62,-260.316 1512.27,-252.99 1594,-234 1634.12,-224.677 1677.9,-206.21 1706.31,-193.032"/>
<polygon fill="midnightblue" stroke="midnightblue" points="1345.51,-259.503 1335.63,-263.348 1345.75,-266.499 1345.51,-259.503"/>
</g>
<!-- Node13&#45;&gt;Node8 -->
<g id="edge17" class="edge"><title>Node13&#45;&gt;Node8</title>
<path fill="none" stroke="midnightblue" d="M1069.75,-173.268C1100.74,-180.241 1136.17,-188.213 1166.09,-194.945"/>
<polygon fill="midnightblue" stroke="midnightblue" points="1070.38,-169.823 1059.85,-171.042 1068.84,-176.652 1070.38,-169.823"/>
</g>
<!-- Node14 -->
<g id="node14" class="node"><title>Node14</title>
<g id="a_node14"><a xlink:href="../../da/d69/classgame_player_1_1main_classes_1_1managers_1_1_gui_manager.html#ad50f462f8d45a5bbfc8a17290372a1ab" target="_top" xlink:title="gamePlayer.mainClasses.managers.\lGuiManager.joinMultiPlayerGame">
<polygon fill="white" stroke="black" points="1138.5,-27 1138.5,-57 1329.5,-57 1329.5,-27 1138.5,-27"/>
<text text-anchor="start" x="1146.5" y="-45" font-family="Helvetica,sans-Serif" font-size="10.00">gamePlayer.mainClasses.managers.</text>
<text text-anchor="middle" x="1234" y="-34" font-family="Helvetica,sans-Serif" font-size="10.00">GuiManager.joinMultiPlayerGame</text>
</a>
</g>
</g>
<!-- Node13&#45;&gt;Node14 -->
<g id="edge13" class="edge"><title>Node13&#45;&gt;Node14</title>
<path fill="none" stroke="midnightblue" d="M1080.66,-136.064C1083.21,-134.501 1085.67,-132.816 1088,-131 1114.06,-110.722 1097.53,-85.7445 1124,-66 1128.58,-62.5824 1133.56,-59.6337 1138.77,-57.0913"/>
<polygon fill="midnightblue" stroke="midnightblue" points="1078.81,-133.085 1071.69,-140.923 1082.15,-139.242 1078.81,-133.085"/>
</g>
<!-- Node18 -->
<g id="node18" class="node"><title>Node18</title>
<g id="a_node18"><a xlink:href="../../d4/d3f/classgame_player_1_1main_classes_1_1managers_1_1_welcome_manager.html#a55598dd2973b0a9b979151dd60c9e436" target="_top" xlink:title="gamePlayer.mainClasses.managers.\lWelcomeManager.pollEngineForMultiPlayer\lReadiness">
<polygon fill="white" stroke="black" points="1124.5,-135.5 1124.5,-176.5 1343.5,-176.5 1343.5,-135.5 1124.5,-135.5"/>
<text text-anchor="start" x="1132.5" y="-164.5" font-family="Helvetica,sans-Serif" font-size="10.00">gamePlayer.mainClasses.managers.</text>
<text text-anchor="start" x="1132.5" y="-153.5" font-family="Helvetica,sans-Serif" font-size="10.00">WelcomeManager.pollEngineForMultiPlayer</text>
<text text-anchor="middle" x="1234" y="-142.5" font-family="Helvetica,sans-Serif" font-size="10.00">Readiness</text>
</a>
</g>
</g>
<!-- Node13&#45;&gt;Node18 -->
<g id="edge18" class="edge"><title>Node13&#45;&gt;Node18</title>
<path fill="none" stroke="midnightblue" d="M1097.77,-156C1106.56,-156 1115.46,-156 1124.28,-156"/>
<polygon fill="midnightblue" stroke="midnightblue" points="1097.51,-152.5 1087.51,-156 1097.51,-159.5 1097.51,-152.5"/>
</g>
<!-- Node20 -->
<g id="node20" class="node"><title>Node20</title>
<g id="a_node20"><a xlink:href="../../d3/dee/classgame_player_1_1main_classes_1_1welcome_screen_1_1_game_start_manager.html#a5d5001d1ee14ae57deef01f6e3ddde31" target="_top" xlink:title="gamePlayer.mainClasses.welcome\lScreen.GameStartManager.pollEngine\lForMultiPlayerReadiness">
<polygon fill="white" stroke="black" points="1134,-75.5 1134,-116.5 1334,-116.5 1334,-75.5 1134,-75.5"/>
<text text-anchor="start" x="1142" y="-104.5" font-family="Helvetica,sans-Serif" font-size="10.00">gamePlayer.mainClasses.welcome</text>
<text text-anchor="start" x="1142" y="-93.5" font-family="Helvetica,sans-Serif" font-size="10.00">Screen.GameStartManager.pollEngine</text>
<text text-anchor="middle" x="1234" y="-82.5" font-family="Helvetica,sans-Serif" font-size="10.00">ForMultiPlayerReadiness</text>
</a>
</g>
</g>
<!-- Node13&#45;&gt;Node20 -->
<g id="edge21" class="edge"><title>Node13&#45;&gt;Node20</title>
<path fill="none" stroke="midnightblue" d="M1063.18,-138.456C1090.67,-131.582 1122.41,-123.648 1150.95,-116.511"/>
<polygon fill="midnightblue" stroke="midnightblue" points="1062.1,-135.116 1053.25,-140.937 1063.8,-141.907 1062.1,-135.116"/>
</g>
<!-- Node15 -->
<g id="node15" class="node"><title>Node15</title>
<g id="a_node15"><a xlink:href="../../d4/d3f/classgame_player_1_1main_classes_1_1managers_1_1_welcome_manager.html#a71a2a80cfe9d3a07d7becc506178acfd" target="_top" xlink:title="gamePlayer.mainClasses.managers.\lWelcomeManager.joinMultiPlayerGame">
<polygon fill="white" stroke="black" points="1386.5,-0 1386.5,-30 1587.5,-30 1587.5,-0 1386.5,-0"/>
<text text-anchor="start" x="1394.5" y="-18" font-family="Helvetica,sans-Serif" font-size="10.00">gamePlayer.mainClasses.managers.</text>
<text text-anchor="middle" x="1487" y="-7" font-family="Helvetica,sans-Serif" font-size="10.00">WelcomeManager.joinMultiPlayerGame</text>
</a>
</g>
</g>
<!-- Node14&#45;&gt;Node15 -->
<g id="edge14" class="edge"><title>Node14&#45;&gt;Node15</title>
<path fill="none" stroke="midnightblue" d="M1339.58,-30.7503C1354.98,-29.0941 1370.81,-27.3913 1386.11,-25.7456"/>
<polygon fill="midnightblue" stroke="midnightblue" points="1339.1,-27.2814 1329.53,-31.8309 1339.85,-34.2412 1339.1,-27.2814"/>
</g>
<!-- Node17 -->
<g id="node17" class="node"><title>Node17</title>
<g id="a_node17"><a xlink:href="../../d3/dee/classgame_player_1_1main_classes_1_1welcome_screen_1_1_game_start_manager.html#a7465850240e12e23aec544dbfd08f6a0" target="_top" xlink:title="gamePlayer.mainClasses.welcome\lScreen.GameStartManager.joinMulti\lPlayerGame">
<polygon fill="white" stroke="black" points="1392,-48.5 1392,-89.5 1582,-89.5 1582,-48.5 1392,-48.5"/>
<text text-anchor="start" x="1400" y="-77.5" font-family="Helvetica,sans-Serif" font-size="10.00">gamePlayer.mainClasses.welcome</text>
<text text-anchor="start" x="1400" y="-66.5" font-family="Helvetica,sans-Serif" font-size="10.00">Screen.GameStartManager.joinMulti</text>
<text text-anchor="middle" x="1487" y="-55.5" font-family="Helvetica,sans-Serif" font-size="10.00">PlayerGame</text>
</a>
</g>
</g>
<!-- Node14&#45;&gt;Node17 -->
<g id="edge16" class="edge"><title>Node14&#45;&gt;Node17</title>
<path fill="none" stroke="midnightblue" d="M1339.67,-53.2596C1357.02,-55.1253 1374.91,-57.0497 1391.97,-58.8849"/>
<polygon fill="midnightblue" stroke="midnightblue" points="1339.85,-49.7588 1329.53,-52.1691 1339.1,-56.7186 1339.85,-49.7588"/>
</g>
<!-- Node16 -->
<g id="node16" class="node"><title>Node16</title>
<g id="a_node16"><a xlink:href="../../d4/d3f/classgame_player_1_1main_classes_1_1managers_1_1_welcome_manager.html#aa605746e09c481b225463d37a82427e3" target="_top" xlink:title="gamePlayer.mainClasses.managers.\lWelcomeManager.startMultiPlayerOptions">
<polygon fill="white" stroke="black" points="1630.5,-0 1630.5,-30 1845.5,-30 1845.5,-0 1630.5,-0"/>
<text text-anchor="start" x="1638.5" y="-18" font-family="Helvetica,sans-Serif" font-size="10.00">gamePlayer.mainClasses.managers.</text>
<text text-anchor="middle" x="1738" y="-7" font-family="Helvetica,sans-Serif" font-size="10.00">WelcomeManager.startMultiPlayerOptions</text>
</a>
</g>
</g>
<!-- Node15&#45;&gt;Node16 -->
<g id="edge15" class="edge"><title>Node15&#45;&gt;Node16</title>
<path fill="none" stroke="midnightblue" d="M1598.03,-15C1608.72,-15 1619.55,-15 1630.2,-15"/>
<polygon fill="midnightblue" stroke="midnightblue" points="1597.84,-11.5001 1587.84,-15 1597.84,-18.5001 1597.84,-11.5001"/>
</g>
<!-- Node19 -->
<g id="node19" class="node"><title>Node19</title>
<g id="a_node19"><a xlink:href="../../d4/d3f/classgame_player_1_1main_classes_1_1managers_1_1_welcome_manager.html#a0669db103a94675dce875042258da508" target="_top" xlink:title="gamePlayer.mainClasses.managers.\lWelcomeManager.startMultiPlayerGame">
<polygon fill="white" stroke="black" points="1383.5,-195 1383.5,-225 1590.5,-225 1590.5,-195 1383.5,-195"/>
<text text-anchor="start" x="1391.5" y="-213" font-family="Helvetica,sans-Serif" font-size="10.00">gamePlayer.mainClasses.managers.</text>
<text text-anchor="middle" x="1487" y="-202" font-family="Helvetica,sans-Serif" font-size="10.00">WelcomeManager.startMultiPlayerGame</text>
</a>
</g>
</g>
<!-- Node18&#45;&gt;Node19 -->
<g id="edge19" class="edge"><title>Node18&#45;&gt;Node19</title>
<path fill="none" stroke="midnightblue" d="M1340.67,-178.734C1366.12,-184.208 1392.68,-189.923 1416.03,-194.946"/>
<polygon fill="midnightblue" stroke="midnightblue" points="1341.12,-175.251 1330.61,-176.569 1339.65,-182.094 1341.12,-175.251"/>
</g>
<!-- Node19&#45;&gt;Node10 -->
<g id="edge20" class="edge"><title>Node19&#45;&gt;Node10</title>
<path fill="none" stroke="midnightblue" d="M1574.22,-226.967C1602.36,-232.505 1633.39,-238.611 1660.74,-243.994"/>
<polygon fill="midnightblue" stroke="midnightblue" points="1574.89,-223.531 1564.4,-225.035 1573.54,-230.4 1574.89,-223.531"/>
</g>
<!-- Node21 -->
<g id="node21" class="node"><title>Node21</title>
<g id="a_node21"><a xlink:href="../../d3/dee/classgame_player_1_1main_classes_1_1welcome_screen_1_1_game_start_manager.html#a994c29260d6cb90abf19dca2b3463b6a" target="_top" xlink:title="gamePlayer.mainClasses.welcome\lScreen.GameStartManager.startMulti\lPlayerGame">
<polygon fill="white" stroke="black" points="1389,-126.5 1389,-167.5 1585,-167.5 1585,-126.5 1389,-126.5"/>
<text text-anchor="start" x="1397" y="-155.5" font-family="Helvetica,sans-Serif" font-size="10.00">gamePlayer.mainClasses.welcome</text>
<text text-anchor="start" x="1397" y="-144.5" font-family="Helvetica,sans-Serif" font-size="10.00">Screen.GameStartManager.startMulti</text>
<text text-anchor="middle" x="1487" y="-133.5" font-family="Helvetica,sans-Serif" font-size="10.00">PlayerGame</text>
</a>
</g>
</g>
<!-- Node20&#45;&gt;Node21 -->
<g id="edge22" class="edge"><title>Node20&#45;&gt;Node21</title>
<path fill="none" stroke="midnightblue" d="M1344.37,-118.222C1359.14,-121.223 1374.21,-124.286 1388.75,-127.24"/>
<polygon fill="midnightblue" stroke="midnightblue" points="1344.7,-114.718 1334.2,-116.157 1343.3,-121.578 1344.7,-114.718"/>
</g>
<!-- Node21&#45;&gt;Node12 -->
<g id="edge23" class="edge"><title>Node21&#45;&gt;Node12</title>
<path fill="none" stroke="midnightblue" d="M1595.64,-160.401C1609.19,-162.088 1623.01,-163.809 1636.45,-165.481"/>
<polygon fill="midnightblue" stroke="midnightblue" points="1595.7,-156.881 1585.34,-159.119 1594.83,-163.827 1595.7,-156.881"/>
</g>
<!-- Node23 -->
<g id="node23" class="node"><title>Node23</title>
<g id="a_node23"><a xlink:href="../../d9/df4/classgame_player_1_1main_classes_1_1test_game_manager_1_1_test_game_manager.html#a7059f7910c6c0ecf6d76b752f2a05ea6" target="_top" xlink:title="gamePlayer.mainClasses.test\lGameManager.TestGameManager.test\lGuiStore">
<polygon fill="white" stroke="black" points="412.5,-35.5 412.5,-76.5 613.5,-76.5 613.5,-35.5 412.5,-35.5"/>
<text text-anchor="start" x="420.5" y="-64.5" font-family="Helvetica,sans-Serif" font-size="10.00">gamePlayer.mainClasses.test</text>
<text text-anchor="start" x="420.5" y="-53.5" font-family="Helvetica,sans-Serif" font-size="10.00">GameManager.TestGameManager.test</text>
<text text-anchor="middle" x="513" y="-42.5" font-family="Helvetica,sans-Serif" font-size="10.00">GuiStore</text>
</a>
</g>
</g>
<!-- Node22&#45;&gt;Node23 -->
<g id="edge25" class="edge"><title>Node22&#45;&gt;Node23</title>
<path fill="none" stroke="midnightblue" d="M385.883,-57.0919C394.666,-57.0159 403.531,-56.9391 412.274,-56.8634"/>
<polygon fill="midnightblue" stroke="midnightblue" points="385.592,-53.5942 375.623,-57.1808 385.653,-60.5939 385.592,-53.5942"/>
</g>
<!-- Node24 -->
<g id="node24" class="node"><title>Node24</title>
<g id="a_node24"><a xlink:href="../../d9/df4/classgame_player_1_1main_classes_1_1test_game_manager_1_1_test_game_manager.html#acd60c6a57fa3cb28e5c8b1a884d3180d" target="_top" xlink:title="gamePlayer.mainClasses.test\lGameManager.TestGameManager.run">
<polygon fill="white" stroke="black" points="656,-41 656,-71 854,-71 854,-41 656,-41"/>
<text text-anchor="start" x="664" y="-59" font-family="Helvetica,sans-Serif" font-size="10.00">gamePlayer.mainClasses.test</text>
<text text-anchor="middle" x="755" y="-48" font-family="Helvetica,sans-Serif" font-size="10.00">GameManager.TestGameManager.run</text>
</a>
</g>
</g>
<!-- Node23&#45;&gt;Node24 -->
<g id="edge26" class="edge"><title>Node23&#45;&gt;Node24</title>
<path fill="none" stroke="midnightblue" d="M623.857,-56C634.501,-56 645.252,-56 655.772,-56"/>
<polygon fill="midnightblue" stroke="midnightblue" points="623.697,-52.5001 613.697,-56 623.697,-59.5001 623.697,-52.5001"/>
</g>
</g>
</svg>
