<?xml version="1.0" encoding="UTF-8" standalone="no"?>
<!DOCTYPE svg PUBLIC "-//W3C//DTD SVG 1.1//EN"
 "http://www.w3.org/Graphics/SVG/1.1/DTD/svg11.dtd">
<!-- Generated by graphviz version 2.36.0 (20140111.2315)
 -->
<!-- Title: gamePlayer.guiItems.store.Store.initialize Pages: 1 -->
<svg width="1012pt" height="136pt"
 viewBox="0.00 0.00 1012.00 136.00" xmlns="http://www.w3.org/2000/svg" xmlns:xlink="http://www.w3.org/1999/xlink">
<g id="graph0" class="graph" transform="scale(1 1) rotate(0) translate(4 132)">
<title>gamePlayer.guiItems.store.Store.initialize</title>
<polygon fill="white" stroke="none" points="-4,4 -4,-132 1008,-132 1008,4 -4,4"/>
<!-- Node1 -->
<g id="node1" class="node"><title>Node1</title>
<polygon fill="#bfbfbf" stroke="black" points="0,-49 0,-79 148,-79 148,-49 0,-49"/>
<text text-anchor="start" x="8" y="-67" font-family="Helvetica,sans-Serif" font-size="10.00">gamePlayer.guiItems.store.</text>
<text text-anchor="middle" x="74" y="-56" font-family="Helvetica,sans-Serif" font-size="10.00">Store.initialize</text>
</g>
<!-- Node2 -->
<g id="node2" class="node"><title>Node2</title>
<g id="a_node2"><a xlink:href="../../d4/dfb/classutilities_1_1_java_f_xutilities_1_1ratio_sizing_1_1_ratios_to_dim.html#ab3d9988b529c32ef726dc3891257e00e" target="_top" xlink:title="utilities.JavaFXutilities.ratio\lSizing.RatiosToDim.convert">
<polygon fill="white" stroke="black" points="200,-98 200,-128 346,-128 346,-98 200,-98"/>
<text text-anchor="start" x="208" y="-116" font-family="Helvetica,sans-Serif" font-size="10.00">utilities.JavaFXutilities.ratio</text>
<text text-anchor="middle" x="273" y="-105" font-family="Helvetica,sans-Serif" font-size="10.00">Sizing.RatiosToDim.convert</text>
</a>
</g>
</g>
<!-- Node1&#45;&gt;Node2 -->
<g id="edge1" class="edge"><title>Node1&#45;&gt;Node2</title>
<path fill="none" stroke="midnightblue" d="M135.445,-79.0346C156.435,-84.2554 180.149,-90.1537 201.854,-95.5526"/>
<polygon fill="midnightblue" stroke="midnightblue" points="201.12,-98.9765 211.669,-97.9938 202.81,-92.1835 201.12,-98.9765"/>
</g>
<!-- Node3 -->
<g id="node3" class="node"><title>Node3</title>
<g id="a_node3"><a xlink:href="../../df/db4/classutilities_1_1_x_m_l_parsing_1_1_x_m_l_parser.html#aac8c276e1fe06546bb4cc6488dd15047" target="_top" xlink:title="utilities.XMLParsing.XMLParser.get\lDimension">
<polygon fill="white" stroke="black" points="184,-49 184,-79 362,-79 362,-49 184,-49"/>
<text text-anchor="start" x="192" y="-67" font-family="Helvetica,sans-Serif" font-size="10.00">utilities.XMLParsing.XMLParser.get</text>
<text text-anchor="middle" x="273" y="-56" font-family="Helvetica,sans-Serif" font-size="10.00">Dimension</text>
</a>
</g>
</g>
<!-- Node1&#45;&gt;Node3 -->
<g id="edge2" class="edge"><title>Node1&#45;&gt;Node3</title>
<path fill="none" stroke="midnightblue" d="M148.076,-64C156.418,-64 165.022,-64 173.624,-64"/>
<polygon fill="midnightblue" stroke="midnightblue" points="173.707,-67.5001 183.707,-64 173.707,-60.5001 173.707,-67.5001"/>
</g>
<!-- Node7 -->
<g id="node7" class="node"><title>Node7</title>
<g id="a_node7"><a xlink:href="../../d4/db7/interfacegame_player_1_1gui_items_listeners_1_1_store_listener.html#a9c7807e43ce4dd97b2bdd7783ab6aeaa" target="_top" xlink:title="gamePlayer.guiItemsListeners.\lStoreListener.registerStore">
<polygon fill="white" stroke="black" points="191,-0 191,-30 355,-30 355,-0 191,-0"/>
<text text-anchor="start" x="199" y="-18" font-family="Helvetica,sans-Serif" font-size="10.00">gamePlayer.guiItemsListeners.</text>
<text text-anchor="middle" x="273" y="-7" font-family="Helvetica,sans-Serif" font-size="10.00">StoreListener.registerStore</text>
</a>
</g>
</g>
<!-- Node1&#45;&gt;Node7 -->
<g id="edge6" class="edge"><title>Node1&#45;&gt;Node7</title>
<path fill="none" stroke="midnightblue" d="M135.445,-48.9654C156.435,-43.7446 180.149,-37.8463 201.854,-32.4474"/>
<polygon fill="midnightblue" stroke="midnightblue" points="202.81,-35.8165 211.669,-30.0062 201.12,-29.0235 202.81,-35.8165"/>
</g>
<!-- Node4 -->
<g id="node4" class="node"><title>Node4</title>
<g id="a_node4"><a xlink:href="../../df/db4/classutilities_1_1_x_m_l_parsing_1_1_x_m_l_parser.html#a159b395412a8ce61e6decfefc9ed9854" target="_top" xlink:title="utilities.XMLParsing.XMLParser.get\lDoubleValuesFromTag">
<polygon fill="white" stroke="black" points="398,-49 398,-79 576,-79 576,-49 398,-49"/>
<text text-anchor="start" x="406" y="-67" font-family="Helvetica,sans-Serif" font-size="10.00">utilities.XMLParsing.XMLParser.get</text>
<text text-anchor="middle" x="487" y="-56" font-family="Helvetica,sans-Serif" font-size="10.00">DoubleValuesFromTag</text>
</a>
</g>
</g>
<!-- Node3&#45;&gt;Node4 -->
<g id="edge3" class="edge"><title>Node3&#45;&gt;Node4</title>
<path fill="none" stroke="midnightblue" d="M362.065,-64C370.569,-64 379.232,-64 387.825,-64"/>
<polygon fill="midnightblue" stroke="midnightblue" points="387.868,-67.5001 397.868,-64 387.868,-60.5001 387.868,-67.5001"/>
</g>
<!-- Node5 -->
<g id="node5" class="node"><title>Node5</title>
<g id="a_node5"><a xlink:href="../../df/db4/classutilities_1_1_x_m_l_parsing_1_1_x_m_l_parser.html#a70485375200a84f459aa83ffedbea646" target="_top" xlink:title="utilities.XMLParsing.XMLParser.get\lValuesFromTag">
<polygon fill="white" stroke="black" points="612,-49 612,-79 790,-79 790,-49 612,-49"/>
<text text-anchor="start" x="620" y="-67" font-family="Helvetica,sans-Serif" font-size="10.00">utilities.XMLParsing.XMLParser.get</text>
<text text-anchor="middle" x="701" y="-56" font-family="Helvetica,sans-Serif" font-size="10.00">ValuesFromTag</text>
</a>
</g>
</g>
<!-- Node4&#45;&gt;Node5 -->
<g id="edge4" class="edge"><title>Node4&#45;&gt;Node5</title>
<path fill="none" stroke="midnightblue" d="M576.065,-64C584.569,-64 593.232,-64 601.825,-64"/>
<polygon fill="midnightblue" stroke="midnightblue" points="601.868,-67.5001 611.868,-64 601.868,-60.5001 601.868,-67.5001"/>
</g>
<!-- Node6 -->
<g id="node6" class="node"><title>Node6</title>
<g id="a_node6"><a xlink:href="../../df/db4/classutilities_1_1_x_m_l_parsing_1_1_x_m_l_parser.html#ab3a0a60481d20e93b1382f9a8a31fe9d" target="_top" xlink:title="utilities.XMLParsing.XMLParser.get\lValues">
<polygon fill="white" stroke="black" points="826,-49 826,-79 1004,-79 1004,-49 826,-49"/>
<text text-anchor="start" x="834" y="-67" font-family="Helvetica,sans-Serif" font-size="10.00">utilities.XMLParsing.XMLParser.get</text>
<text text-anchor="middle" x="915" y="-56" font-family="Helvetica,sans-Serif" font-size="10.00">Values</text>
</a>
</g>
</g>
<!-- Node5&#45;&gt;Node6 -->
<g id="edge5" class="edge"><title>Node5&#45;&gt;Node6</title>
<path fill="none" stroke="midnightblue" d="M790.065,-64C798.569,-64 807.232,-64 815.825,-64"/>
<polygon fill="midnightblue" stroke="midnightblue" points="815.868,-67.5001 825.868,-64 815.868,-60.5001 815.868,-67.5001"/>
</g>
</g>
</svg>
