<?xml version="1.0" encoding="UTF-8" standalone="no"?>
<!DOCTYPE svg PUBLIC "-//W3C//DTD SVG 1.1//EN"
 "http://www.w3.org/Graphics/SVG/1.1/DTD/svg11.dtd">
<!-- Generated by graphviz version 2.36.0 (20140111.2315)
 -->
<!-- Title: gamePlayer.guiItems.store.Store.addStoreItem Pages: 1 -->
<svg width="1800pt" height="324pt"
 viewBox="0.00 0.00 1800.00 324.11" xmlns="http://www.w3.org/2000/svg" xmlns:xlink="http://www.w3.org/1999/xlink">
<g id="graph0" class="graph" transform="scale(1 1) rotate(0) translate(4 320.111)">
<title>gamePlayer.guiItems.store.Store.addStoreItem</title>
<polygon fill="white" stroke="none" points="-4,4 -4,-320.111 1796,-320.111 1796,4 -4,4"/>
<!-- Node1 -->
<g id="node1" class="node"><title>Node1</title>
<polygon fill="#bfbfbf" stroke="black" points="0,-246 0,-276 148,-276 148,-246 0,-246"/>
<text text-anchor="start" x="8" y="-264" font-family="Helvetica,sans-Serif" font-size="10.00">gamePlayer.guiItems.store.</text>
<text text-anchor="middle" x="74" y="-253" font-family="Helvetica,sans-Serif" font-size="10.00">Store.addStoreItem</text>
</g>
<!-- Node2 -->
<g id="node2" class="node"><title>Node2</title>
<g id="a_node2"><a xlink:href="../../d1/dd3/classgame_player_1_1gui_items_1_1store_1_1_store.html#ad13bae4293f420c408c63393a7e2d0b7" target="_top" xlink:title="gamePlayer.guiItems.store.\lStore.fillStore">
<polygon fill="white" stroke="black" points="184,-246 184,-276 332,-276 332,-246 184,-246"/>
<text text-anchor="start" x="192" y="-264" font-family="Helvetica,sans-Serif" font-size="10.00">gamePlayer.guiItems.store.</text>
<text text-anchor="middle" x="258" y="-253" font-family="Helvetica,sans-Serif" font-size="10.00">Store.fillStore</text>
</a>
</g>
</g>
<!-- Node1&#45;&gt;Node2 -->
<g id="edge1" class="edge"><title>Node1&#45;&gt;Node2</title>
<path fill="none" stroke="midnightblue" d="M158.516,-261C166.992,-261 175.556,-261 183.91,-261"/>
<polygon fill="midnightblue" stroke="midnightblue" points="158.24,-257.5 148.24,-261 158.24,-264.5 158.24,-257.5"/>
</g>
<!-- Node3 -->
<g id="node3" class="node"><title>Node3</title>
<g id="a_node3"><a xlink:href="../../da/d69/classgame_player_1_1main_classes_1_1managers_1_1_gui_manager.html#ae2f2b1e5fe0b1dce495f5d8fabc99dd3" target="_top" xlink:title="gamePlayer.mainClasses.managers.\lGuiManager.fillStore">
<polygon fill="white" stroke="black" points="368.5,-246 368.5,-276 559.5,-276 559.5,-246 368.5,-246"/>
<text text-anchor="start" x="376.5" y="-264" font-family="Helvetica,sans-Serif" font-size="10.00">gamePlayer.mainClasses.managers.</text>
<text text-anchor="middle" x="464" y="-253" font-family="Helvetica,sans-Serif" font-size="10.00">GuiManager.fillStore</text>
</a>
</g>
</g>
<!-- Node2&#45;&gt;Node3 -->
<g id="edge2" class="edge"><title>Node2&#45;&gt;Node3</title>
<path fill="none" stroke="midnightblue" d="M342.126,-261C350.776,-261 359.615,-261 368.38,-261"/>
<polygon fill="midnightblue" stroke="midnightblue" points="342.073,-257.5 332.072,-261 342.072,-264.5 342.073,-257.5"/>
</g>
<!-- Node4 -->
<g id="node4" class="node"><title>Node4</title>
<g id="a_node4"><a xlink:href="../../da/d69/classgame_player_1_1main_classes_1_1managers_1_1_gui_manager.html#a02a63a3d495b31cce0c4976f95758a49" target="_top" xlink:title="gamePlayer.mainClasses.managers.\lGuiManager.startGame">
<polygon fill="white" stroke="black" points="605.5,-271 605.5,-301 796.5,-301 796.5,-271 605.5,-271"/>
<text text-anchor="start" x="613.5" y="-289" font-family="Helvetica,sans-Serif" font-size="10.00">gamePlayer.mainClasses.managers.</text>
<text text-anchor="middle" x="701" y="-278" font-family="Helvetica,sans-Serif" font-size="10.00">GuiManager.startGame</text>
</a>
</g>
</g>
<!-- Node3&#45;&gt;Node4 -->
<g id="edge3" class="edge"><title>Node3&#45;&gt;Node4</title>
<path fill="none" stroke="midnightblue" d="M569.865,-272.156C581.647,-273.409 593.6,-274.681 605.243,-275.919"/>
<polygon fill="midnightblue" stroke="midnightblue" points="569.882,-268.638 559.568,-271.06 569.141,-275.599 569.882,-268.638"/>
</g>
<!-- Node6 -->
<g id="node6" class="node"><title>Node6</title>
<g id="a_node6"><a xlink:href="../../da/d69/classgame_player_1_1main_classes_1_1managers_1_1_gui_manager.html#a6f0d5fa9c335707fd051fa83bd82f9bf" target="_top" xlink:title="gamePlayer.mainClasses.managers.\lGuiManager.initializeNewGameElements">
<polygon fill="white" stroke="black" points="596.5,-222 596.5,-252 805.5,-252 805.5,-222 596.5,-222"/>
<text text-anchor="start" x="604.5" y="-240" font-family="Helvetica,sans-Serif" font-size="10.00">gamePlayer.mainClasses.managers.</text>
<text text-anchor="middle" x="701" y="-229" font-family="Helvetica,sans-Serif" font-size="10.00">GuiManager.initializeNewGameElements</text>
</a>
</g>
</g>
<!-- Node3&#45;&gt;Node6 -->
<g id="edge5" class="edge"><title>Node3&#45;&gt;Node6</title>
<path fill="none" stroke="midnightblue" d="M569.572,-250.32C578.48,-249.411 587.488,-248.491 596.389,-247.582"/>
<polygon fill="midnightblue" stroke="midnightblue" points="569.16,-246.844 559.568,-251.342 569.872,-253.808 569.16,-246.844"/>
</g>
<!-- Node5 -->
<g id="node5" class="node"><title>Node5</title>
<g id="a_node5"><a xlink:href="../../da/d69/classgame_player_1_1main_classes_1_1managers_1_1_gui_manager.html#a287842e1d39b7ecf2e13befeeafa1a7b" target="_top" xlink:title="gamePlayer.mainClasses.managers.\lGuiManager.loadGame">
<polygon fill="white" stroke="black" points="842.5,-271 842.5,-301 1033.5,-301 1033.5,-271 842.5,-271"/>
<text text-anchor="start" x="850.5" y="-289" font-family="Helvetica,sans-Serif" font-size="10.00">gamePlayer.mainClasses.managers.</text>
<text text-anchor="middle" x="938" y="-278" font-family="Helvetica,sans-Serif" font-size="10.00">GuiManager.loadGame</text>
</a>
</g>
</g>
<!-- Node4&#45;&gt;Node5 -->
<g id="edge4" class="edge"><title>Node4&#45;&gt;Node5</title>
<path fill="none" stroke="midnightblue" d="M806.865,-286C818.647,-286 830.6,-286 842.243,-286"/>
<polygon fill="midnightblue" stroke="midnightblue" points="806.568,-282.5 796.568,-286 806.568,-289.5 806.568,-282.5"/>
</g>
<!-- Node7 -->
<g id="node7" class="node"><title>Node7</title>
<g id="a_node7"><a xlink:href="../../da/d69/classgame_player_1_1main_classes_1_1managers_1_1_gui_manager.html#aa9b035d2a17b73719ca8a26d8ebde9ce" target="_top" xlink:title="gamePlayer.mainClasses.managers.\lGuiManager.startSinglePlayerGame">
<polygon fill="white" stroke="black" points="842.5,-222 842.5,-252 1033.5,-252 1033.5,-222 842.5,-222"/>
<text text-anchor="start" x="850.5" y="-240" font-family="Helvetica,sans-Serif" font-size="10.00">gamePlayer.mainClasses.managers.</text>
<text text-anchor="middle" x="938" y="-229" font-family="Helvetica,sans-Serif" font-size="10.00">GuiManager.startSinglePlayerGame</text>
</a>
</g>
</g>
<!-- Node6&#45;&gt;Node7 -->
<g id="edge6" class="edge"><title>Node6&#45;&gt;Node7</title>
<path fill="none" stroke="midnightblue" d="M815.778,-237C824.672,-237 833.595,-237 842.342,-237"/>
<polygon fill="midnightblue" stroke="midnightblue" points="815.759,-233.5 805.758,-237 815.758,-240.5 815.759,-233.5"/>
</g>
<!-- Node13 -->
<g id="node13" class="node"><title>Node13</title>
<g id="a_node13"><a xlink:href="../../da/d69/classgame_player_1_1main_classes_1_1managers_1_1_gui_manager.html#aa0b614e03bdec959e13e3d5ca2e1f614" target="_top" xlink:title="gamePlayer.mainClasses.managers.\lGuiManager.startMultiPlayerGame">
<polygon fill="white" stroke="black" points="842.5,-141 842.5,-171 1033.5,-171 1033.5,-141 842.5,-141"/>
<text text-anchor="start" x="850.5" y="-159" font-family="Helvetica,sans-Serif" font-size="10.00">gamePlayer.mainClasses.managers.</text>
<text text-anchor="middle" x="938" y="-148" font-family="Helvetica,sans-Serif" font-size="10.00">GuiManager.startMultiPlayerGame</text>
</a>
</g>
</g>
<!-- Node6&#45;&gt;Node13 -->
<g id="edge12" class="edge"><title>Node6&#45;&gt;Node13</title>
<path fill="none" stroke="midnightblue" d="M755.353,-218.61C797.011,-204.252 854.18,-184.547 893.185,-171.102"/>
<polygon fill="midnightblue" stroke="midnightblue" points="753.965,-215.387 745.651,-221.954 756.246,-222.005 753.965,-215.387"/>
</g>
<!-- Node8 -->
<g id="node8" class="node"><title>Node8</title>
<g id="a_node8"><a xlink:href="../../da/d69/classgame_player_1_1main_classes_1_1managers_1_1_gui_manager.html#a3f657f0e3ba1e493d2dd02b5df5e03f6" target="_top" xlink:title="gamePlayer.mainClasses.managers.\lGuiManager.replayGame">
<polygon fill="white" stroke="black" points="1084.5,-195 1084.5,-225 1275.5,-225 1275.5,-195 1084.5,-195"/>
<text text-anchor="start" x="1092.5" y="-213" font-family="Helvetica,sans-Serif" font-size="10.00">gamePlayer.mainClasses.managers.</text>
<text text-anchor="middle" x="1180" y="-202" font-family="Helvetica,sans-Serif" font-size="10.00">GuiManager.replayGame</text>
</a>
</g>
</g>
<!-- Node7&#45;&gt;Node8 -->
<g id="edge7" class="edge"><title>Node7&#45;&gt;Node8</title>
<path fill="none" stroke="midnightblue" d="M1043.74,-225.217C1057.19,-223.704 1070.9,-222.161 1084.18,-220.667"/>
<polygon fill="midnightblue" stroke="midnightblue" points="1043.06,-221.772 1033.51,-226.368 1043.84,-228.728 1043.06,-221.772"/>
</g>
<!-- Node9 -->
<g id="node9" class="node"><title>Node9</title>
<g id="a_node9"><a xlink:href="../../d4/d3f/classgame_player_1_1main_classes_1_1managers_1_1_welcome_manager.html#a5da8d3f5b8bc1c4bd4c555140bd9384c" target="_top" xlink:title="gamePlayer.mainClasses.managers.\lWelcomeManager.startSinglePlayerGame">
<polygon fill="white" stroke="black" points="1326,-270 1326,-300 1540,-300 1540,-270 1326,-270"/>
<text text-anchor="start" x="1334" y="-288" font-family="Helvetica,sans-Serif" font-size="10.00">gamePlayer.mainClasses.managers.</text>
<text text-anchor="middle" x="1433" y="-277" font-family="Helvetica,sans-Serif" font-size="10.00">WelcomeManager.startSinglePlayerGame</text>
</a>
</g>
</g>
<!-- Node7&#45;&gt;Node9 -->
<g id="edge8" class="edge"><title>Node7&#45;&gt;Node9</title>
<path fill="none" stroke="midnightblue" d="M1020.02,-255.571C1024.84,-257.517 1029.54,-259.654 1034,-262 1052.69,-271.827 1050.21,-285.652 1070,-293 1169.45,-329.918 1295.08,-314.689 1369.17,-300.019"/>
<polygon fill="midnightblue" stroke="midnightblue" points="1021.23,-252.284 1010.63,-252.06 1018.77,-258.841 1021.23,-252.284"/>
</g>
<!-- Node11 -->
<g id="node11" class="node"><title>Node11</title>
<g id="a_node11"><a xlink:href="../../d3/dee/classgame_player_1_1main_classes_1_1welcome_screen_1_1_game_start_manager.html#a0c44b3f25d2a30fe2e7aeca9da7161a9" target="_top" xlink:title="gamePlayer.mainClasses.welcome\lScreen.GameStartManager.startSingle\lPlayerGame">
<polygon fill="white" stroke="black" points="1078.5,-243.5 1078.5,-284.5 1281.5,-284.5 1281.5,-243.5 1078.5,-243.5"/>
<text text-anchor="start" x="1086.5" y="-272.5" font-family="Helvetica,sans-Serif" font-size="10.00">gamePlayer.mainClasses.welcome</text>
<text text-anchor="start" x="1086.5" y="-261.5" font-family="Helvetica,sans-Serif" font-size="10.00">Screen.GameStartManager.startSingle</text>
<text text-anchor="middle" x="1180" y="-250.5" font-family="Helvetica,sans-Serif" font-size="10.00">PlayerGame</text>
</a>
</g>
</g>
<!-- Node7&#45;&gt;Node11 -->
<g id="edge10" class="edge"><title>Node7&#45;&gt;Node11</title>
<path fill="none" stroke="midnightblue" d="M1043.57,-248.764C1055.08,-250.059 1066.79,-251.376 1078.25,-252.666"/>
<polygon fill="midnightblue" stroke="midnightblue" points="1043.84,-245.272 1033.51,-247.632 1043.06,-252.228 1043.84,-245.272"/>
</g>
<!-- Node10 -->
<g id="node10" class="node"><title>Node10</title>
<g id="a_node10"><a xlink:href="../../d4/d3f/classgame_player_1_1main_classes_1_1managers_1_1_welcome_manager.html#ae6495396aef63551116c0835c40574e1" target="_top" xlink:title="gamePlayer.mainClasses.managers.\lWelcomeManager.startGame">
<polygon fill="white" stroke="black" points="1588.5,-220 1588.5,-250 1779.5,-250 1779.5,-220 1588.5,-220"/>
<text text-anchor="start" x="1596.5" y="-238" font-family="Helvetica,sans-Serif" font-size="10.00">gamePlayer.mainClasses.managers.</text>
<text text-anchor="middle" x="1684" y="-227" font-family="Helvetica,sans-Serif" font-size="10.00">WelcomeManager.startGame</text>
</a>
</g>
</g>
<!-- Node9&#45;&gt;Node10 -->
<g id="edge9" class="edge"><title>Node9&#45;&gt;Node10</title>
<path fill="none" stroke="midnightblue" d="M1518.79,-267.974C1547.71,-262.167 1579.82,-255.72 1607.91,-250.077"/>
<polygon fill="midnightblue" stroke="midnightblue" points="1517.82,-264.598 1508.71,-269.998 1519.2,-271.461 1517.82,-264.598"/>
</g>
<!-- Node12 -->
<g id="node12" class="node"><title>Node12</title>
<g id="a_node12"><a xlink:href="../../d3/dee/classgame_player_1_1main_classes_1_1welcome_screen_1_1_game_start_manager.html#a4ac849399bf00c6df86f0db25ea95ed8" target="_top" xlink:title="gamePlayer.mainClasses.welcome\lScreen.GameStartManager.startGame">
<polygon fill="white" stroke="black" points="1582.5,-143 1582.5,-173 1785.5,-173 1785.5,-143 1582.5,-143"/>
<text text-anchor="start" x="1590.5" y="-161" font-family="Helvetica,sans-Serif" font-size="10.00">gamePlayer.mainClasses.welcome</text>
<text text-anchor="middle" x="1684" y="-150" font-family="Helvetica,sans-Serif" font-size="10.00">Screen.GameStartManager.startGame</text>
</a>
</g>
</g>
<!-- Node11&#45;&gt;Node12 -->
<g id="edge11" class="edge"><title>Node11&#45;&gt;Node12</title>
<path fill="none" stroke="midnightblue" d="M1291.82,-253.115C1363.36,-244.674 1458.03,-230.845 1540,-210 1577.63,-200.429 1619.2,-184.704 1647.77,-173.048"/>
<polygon fill="midnightblue" stroke="midnightblue" points="1291.41,-249.639 1281.88,-254.271 1292.22,-256.592 1291.41,-249.639"/>
</g>
<!-- Node13&#45;&gt;Node8 -->
<g id="edge17" class="edge"><title>Node13&#45;&gt;Node8</title>
<path fill="none" stroke="midnightblue" d="M1015.75,-173.268C1046.74,-180.241 1082.17,-188.213 1112.09,-194.945"/>
<polygon fill="midnightblue" stroke="midnightblue" points="1016.38,-169.823 1005.85,-171.042 1014.84,-176.652 1016.38,-169.823"/>
</g>
<!-- Node14 -->
<g id="node14" class="node"><title>Node14</title>
<g id="a_node14"><a xlink:href="../../da/d69/classgame_player_1_1main_classes_1_1managers_1_1_gui_manager.html#ad50f462f8d45a5bbfc8a17290372a1ab" target="_top" xlink:title="gamePlayer.mainClasses.managers.\lGuiManager.joinMultiPlayerGame">
<polygon fill="white" stroke="black" points="1084.5,-27 1084.5,-57 1275.5,-57 1275.5,-27 1084.5,-27"/>
<text text-anchor="start" x="1092.5" y="-45" font-family="Helvetica,sans-Serif" font-size="10.00">gamePlayer.mainClasses.managers.</text>
<text text-anchor="middle" x="1180" y="-34" font-family="Helvetica,sans-Serif" font-size="10.00">GuiManager.joinMultiPlayerGame</text>
</a>
</g>
</g>
<!-- Node13&#45;&gt;Node14 -->
<g id="edge13" class="edge"><title>Node13&#45;&gt;Node14</title>
<path fill="none" stroke="midnightblue" d="M964.251,-134.208C989.414,-113.616 1029.97,-83.3658 1070,-66 1077.91,-62.5681 1086.36,-59.6041 1094.93,-57.0491"/>
<polygon fill="midnightblue" stroke="midnightblue" points="961.786,-131.706 956.331,-140.789 966.259,-137.09 961.786,-131.706"/>
</g>
<!-- Node18 -->
<g id="node18" class="node"><title>Node18</title>
<g id="a_node18"><a xlink:href="../../d4/d3f/classgame_player_1_1main_classes_1_1managers_1_1_welcome_manager.html#a55598dd2973b0a9b979151dd60c9e436" target="_top" xlink:title="gamePlayer.mainClasses.managers.\lWelcomeManager.pollEngineForMultiPlayer\lReadiness">
<polygon fill="white" stroke="black" points="1070.5,-135.5 1070.5,-176.5 1289.5,-176.5 1289.5,-135.5 1070.5,-135.5"/>
<text text-anchor="start" x="1078.5" y="-164.5" font-family="Helvetica,sans-Serif" font-size="10.00">gamePlayer.mainClasses.managers.</text>
<text text-anchor="start" x="1078.5" y="-153.5" font-family="Helvetica,sans-Serif" font-size="10.00">WelcomeManager.pollEngineForMultiPlayer</text>
<text text-anchor="middle" x="1180" y="-142.5" font-family="Helvetica,sans-Serif" font-size="10.00">Readiness</text>
</a>
</g>
</g>
<!-- Node13&#45;&gt;Node18 -->
<g id="edge18" class="edge"><title>Node13&#45;&gt;Node18</title>
<path fill="none" stroke="midnightblue" d="M1043.77,-156C1052.56,-156 1061.46,-156 1070.28,-156"/>
<polygon fill="midnightblue" stroke="midnightblue" points="1043.51,-152.5 1033.51,-156 1043.51,-159.5 1043.51,-152.5"/>
</g>
<!-- Node20 -->
<g id="node20" class="node"><title>Node20</title>
<g id="a_node20"><a xlink:href="../../d3/dee/classgame_player_1_1main_classes_1_1welcome_screen_1_1_game_start_manager.html#a5d5001d1ee14ae57deef01f6e3ddde31" target="_top" xlink:title="gamePlayer.mainClasses.welcome\lScreen.GameStartManager.pollEngine\lForMultiPlayerReadiness">
<polygon fill="white" stroke="black" points="1080,-75.5 1080,-116.5 1280,-116.5 1280,-75.5 1080,-75.5"/>
<text text-anchor="start" x="1088" y="-104.5" font-family="Helvetica,sans-Serif" font-size="10.00">gamePlayer.mainClasses.welcome</text>
<text text-anchor="start" x="1088" y="-93.5" font-family="Helvetica,sans-Serif" font-size="10.00">Screen.GameStartManager.pollEngine</text>
<text text-anchor="middle" x="1180" y="-82.5" font-family="Helvetica,sans-Serif" font-size="10.00">ForMultiPlayerReadiness</text>
</a>
</g>
</g>
<!-- Node13&#45;&gt;Node20 -->
<g id="edge21" class="edge"><title>Node13&#45;&gt;Node20</title>
<path fill="none" stroke="midnightblue" d="M1009.18,-138.456C1036.67,-131.582 1068.41,-123.648 1096.95,-116.511"/>
<polygon fill="midnightblue" stroke="midnightblue" points="1008.1,-135.116 999.252,-140.937 1009.8,-141.907 1008.1,-135.116"/>
</g>
<!-- Node15 -->
<g id="node15" class="node"><title>Node15</title>
<g id="a_node15"><a xlink:href="../../d4/d3f/classgame_player_1_1main_classes_1_1managers_1_1_welcome_manager.html#a71a2a80cfe9d3a07d7becc506178acfd" target="_top" xlink:title="gamePlayer.mainClasses.managers.\lWelcomeManager.joinMultiPlayerGame">
<polygon fill="white" stroke="black" points="1332.5,-0 1332.5,-30 1533.5,-30 1533.5,-0 1332.5,-0"/>
<text text-anchor="start" x="1340.5" y="-18" font-family="Helvetica,sans-Serif" font-size="10.00">gamePlayer.mainClasses.managers.</text>
<text text-anchor="middle" x="1433" y="-7" font-family="Helvetica,sans-Serif" font-size="10.00">WelcomeManager.joinMultiPlayerGame</text>
</a>
</g>
</g>
<!-- Node14&#45;&gt;Node15 -->
<g id="edge14" class="edge"><title>Node14&#45;&gt;Node15</title>
<path fill="none" stroke="midnightblue" d="M1285.58,-30.7503C1300.98,-29.0941 1316.81,-27.3913 1332.11,-25.7456"/>
<polygon fill="midnightblue" stroke="midnightblue" points="1285.1,-27.2814 1275.53,-31.8309 1285.85,-34.2412 1285.1,-27.2814"/>
</g>
<!-- Node17 -->
<g id="node17" class="node"><title>Node17</title>
<g id="a_node17"><a xlink:href="../../d3/dee/classgame_player_1_1main_classes_1_1welcome_screen_1_1_game_start_manager.html#a7465850240e12e23aec544dbfd08f6a0" target="_top" xlink:title="gamePlayer.mainClasses.welcome\lScreen.GameStartManager.joinMulti\lPlayerGame">
<polygon fill="white" stroke="black" points="1338,-48.5 1338,-89.5 1528,-89.5 1528,-48.5 1338,-48.5"/>
<text text-anchor="start" x="1346" y="-77.5" font-family="Helvetica,sans-Serif" font-size="10.00">gamePlayer.mainClasses.welcome</text>
<text text-anchor="start" x="1346" y="-66.5" font-family="Helvetica,sans-Serif" font-size="10.00">Screen.GameStartManager.joinMulti</text>
<text text-anchor="middle" x="1433" y="-55.5" font-family="Helvetica,sans-Serif" font-size="10.00">PlayerGame</text>
</a>
</g>
</g>
<!-- Node14&#45;&gt;Node17 -->
<g id="edge16" class="edge"><title>Node14&#45;&gt;Node17</title>
<path fill="none" stroke="midnightblue" d="M1285.67,-53.2596C1303.02,-55.1253 1320.91,-57.0497 1337.97,-58.8849"/>
<polygon fill="midnightblue" stroke="midnightblue" points="1285.85,-49.7588 1275.53,-52.1691 1285.1,-56.7186 1285.85,-49.7588"/>
</g>
<!-- Node16 -->
<g id="node16" class="node"><title>Node16</title>
<g id="a_node16"><a xlink:href="../../d4/d3f/classgame_player_1_1main_classes_1_1managers_1_1_welcome_manager.html#aa605746e09c481b225463d37a82427e3" target="_top" xlink:title="gamePlayer.mainClasses.managers.\lWelcomeManager.startMultiPlayerOptions">
<polygon fill="white" stroke="black" points="1576.5,-0 1576.5,-30 1791.5,-30 1791.5,-0 1576.5,-0"/>
<text text-anchor="start" x="1584.5" y="-18" font-family="Helvetica,sans-Serif" font-size="10.00">gamePlayer.mainClasses.managers.</text>
<text text-anchor="middle" x="1684" y="-7" font-family="Helvetica,sans-Serif" font-size="10.00">WelcomeManager.startMultiPlayerOptions</text>
</a>
</g>
</g>
<!-- Node15&#45;&gt;Node16 -->
<g id="edge15" class="edge"><title>Node15&#45;&gt;Node16</title>
<path fill="none" stroke="midnightblue" d="M1544.03,-15C1554.72,-15 1565.55,-15 1576.2,-15"/>
<polygon fill="midnightblue" stroke="midnightblue" points="1543.84,-11.5001 1533.84,-15 1543.84,-18.5001 1543.84,-11.5001"/>
</g>
<!-- Node19 -->
<g id="node19" class="node"><title>Node19</title>
<g id="a_node19"><a xlink:href="../../d4/d3f/classgame_player_1_1main_classes_1_1managers_1_1_welcome_manager.html#a0669db103a94675dce875042258da508" target="_top" xlink:title="gamePlayer.mainClasses.managers.\lWelcomeManager.startMultiPlayerGame">
<polygon fill="white" stroke="black" points="1329.5,-171 1329.5,-201 1536.5,-201 1536.5,-171 1329.5,-171"/>
<text text-anchor="start" x="1337.5" y="-189" font-family="Helvetica,sans-Serif" font-size="10.00">gamePlayer.mainClasses.managers.</text>
<text text-anchor="middle" x="1433" y="-178" font-family="Helvetica,sans-Serif" font-size="10.00">WelcomeManager.startMultiPlayerGame</text>
</a>
</g>
</g>
<!-- Node18&#45;&gt;Node19 -->
<g id="edge19" class="edge"><title>Node18&#45;&gt;Node19</title>
<path fill="none" stroke="midnightblue" d="M1299.82,-170.201C1309.62,-171.373 1319.48,-172.551 1329.15,-173.707"/>
<polygon fill="midnightblue" stroke="midnightblue" points="1299.98,-166.696 1289.63,-168.984 1299.15,-173.646 1299.98,-166.696"/>
</g>
<!-- Node19&#45;&gt;Node10 -->
<g id="edge20" class="edge"><title>Node19&#45;&gt;Node10</title>
<path fill="none" stroke="midnightblue" d="M1520.22,-202.967C1548.36,-208.505 1579.39,-214.611 1606.74,-219.994"/>
<polygon fill="midnightblue" stroke="midnightblue" points="1520.89,-199.531 1510.4,-201.035 1519.54,-206.4 1520.89,-199.531"/>
</g>
<!-- Node21 -->
<g id="node21" class="node"><title>Node21</title>
<g id="a_node21"><a xlink:href="../../d3/dee/classgame_player_1_1main_classes_1_1welcome_screen_1_1_game_start_manager.html#a994c29260d6cb90abf19dca2b3463b6a" target="_top" xlink:title="gamePlayer.mainClasses.welcome\lScreen.GameStartManager.startMulti\lPlayerGame">
<polygon fill="white" stroke="black" points="1335,-109.5 1335,-150.5 1531,-150.5 1531,-109.5 1335,-109.5"/>
<text text-anchor="start" x="1343" y="-138.5" font-family="Helvetica,sans-Serif" font-size="10.00">gamePlayer.mainClasses.welcome</text>
<text text-anchor="start" x="1343" y="-127.5" font-family="Helvetica,sans-Serif" font-size="10.00">Screen.GameStartManager.startMulti</text>
<text text-anchor="middle" x="1433" y="-116.5" font-family="Helvetica,sans-Serif" font-size="10.00">PlayerGame</text>
</a>
</g>
</g>
<!-- Node20&#45;&gt;Node21 -->
<g id="edge22" class="edge"><title>Node20&#45;&gt;Node21</title>
<path fill="none" stroke="midnightblue" d="M1290.37,-110.815C1305.14,-112.815 1320.21,-114.857 1334.75,-116.827"/>
<polygon fill="midnightblue" stroke="midnightblue" points="1290.58,-107.312 1280.2,-109.438 1289.64,-114.248 1290.58,-107.312"/>
</g>
<!-- Node21&#45;&gt;Node12 -->
<g id="edge23" class="edge"><title>Node21&#45;&gt;Node12</title>
<path fill="none" stroke="midnightblue" d="M1541.64,-142.104C1555.19,-143.628 1569.01,-145.182 1582.45,-146.693"/>
<polygon fill="midnightblue" stroke="midnightblue" points="1541.67,-138.585 1531.34,-140.946 1540.89,-145.541 1541.67,-138.585"/>
</g>
</g>
</svg>
