<?xml version="1.0" encoding="UTF-8" standalone="no"?>
<!DOCTYPE svg PUBLIC "-//W3C//DTD SVG 1.1//EN"
 "http://www.w3.org/Graphics/SVG/1.1/DTD/svg11.dtd">
<!-- Generated by graphviz version 2.36.0 (20140111.2315)
 -->
<!-- Title: gamePlayer.guiItems.voogaMenuBar.menuItems.SaveMenuItem.initialize Pages: 1 -->
<svg width="646pt" height="48pt"
 viewBox="0.00 0.00 646.00 48.00" xmlns="http://www.w3.org/2000/svg" xmlns:xlink="http://www.w3.org/1999/xlink">
<g id="graph0" class="graph" transform="scale(1 1) rotate(0) translate(4 44)">
<title>gamePlayer.guiItems.voogaMenuBar.menuItems.SaveMenuItem.initialize</title>
<polygon fill="white" stroke="none" points="-4,4 -4,-44 642,-44 642,4 -4,4"/>
<!-- Node1 -->
<g id="node1" class="node"><title>Node1</title>
<polygon fill="#bfbfbf" stroke="black" points="0.5,-5 0.5,-35 233.5,-35 233.5,-5 0.5,-5"/>
<text text-anchor="start" x="8.5" y="-23" font-family="Helvetica,sans-Serif" font-size="10.00">gamePlayer.guiItems.vooga</text>
<text text-anchor="middle" x="117" y="-12" font-family="Helvetica,sans-Serif" font-size="10.00">MenuBar.menuItems.SaveMenuItem.initialize</text>
</g>
<!-- Node2 -->
<g id="node2" class="node"><title>Node2</title>
<g id="a_node2"><a xlink:href="../../dc/d2e/classutilities_1_1multilanguage_1_1_multi_language_utility.html#a6bc704aa624d0bc11d5f18717ef5842a" target="_top" xlink:title="utilities.multilanguage.\lMultiLanguageUtility.getString\lProperty">
<polygon fill="white" stroke="black" points="270.5,0.5 270.5,-40.5 429.5,-40.5 429.5,0.5 270.5,0.5"/>
<text text-anchor="start" x="278.5" y="-28.5" font-family="Helvetica,sans-Serif" font-size="10.00">utilities.multilanguage.</text>
<text text-anchor="start" x="278.5" y="-17.5" font-family="Helvetica,sans-Serif" font-size="10.00">MultiLanguageUtility.getString</text>
<text text-anchor="middle" x="350" y="-6.5" font-family="Helvetica,sans-Serif" font-size="10.00">Property</text>
</a>
</g>
</g>
<!-- Node1&#45;&gt;Node2 -->
<g id="edge1" class="edge"><title>Node1&#45;&gt;Node2</title>
<path fill="none" stroke="midnightblue" d="M233.838,-20C242.739,-20 251.636,-20 260.32,-20"/>
<polygon fill="midnightblue" stroke="midnightblue" points="260.402,-23.5001 270.402,-20 260.402,-16.5001 260.402,-23.5001"/>
</g>
<!-- Node3 -->
<g id="node3" class="node"><title>Node3</title>
<g id="a_node3"><a xlink:href="../../dc/d2e/classutilities_1_1multilanguage_1_1_multi_language_utility.html#a124b4a760f410841ecc50dd4b16e40bb" target="_top" xlink:title="utilities.multilanguage.\lMultiLanguageUtility.getProperty">
<polygon fill="white" stroke="black" points="466.5,-5 466.5,-35 637.5,-35 637.5,-5 466.5,-5"/>
<text text-anchor="start" x="474.5" y="-23" font-family="Helvetica,sans-Serif" font-size="10.00">utilities.multilanguage.</text>
<text text-anchor="middle" x="552" y="-12" font-family="Helvetica,sans-Serif" font-size="10.00">MultiLanguageUtility.getProperty</text>
</a>
</g>
</g>
<!-- Node2&#45;&gt;Node3 -->
<g id="edge2" class="edge"><title>Node2&#45;&gt;Node3</title>
<path fill="none" stroke="midnightblue" d="M429.758,-20C438.495,-20 447.458,-20 456.364,-20"/>
<polygon fill="midnightblue" stroke="midnightblue" points="456.38,-23.5001 466.38,-20 456.38,-16.5001 456.38,-23.5001"/>
</g>
</g>
</svg>
