<?xml version="1.0" encoding="UTF-8" standalone="no"?>
<!DOCTYPE svg PUBLIC "-//W3C//DTD SVG 1.1//EN"
 "http://www.w3.org/Graphics/SVG/1.1/DTD/svg11.dtd">
<!-- Generated by graphviz version 2.36.0 (20140111.2315)
 -->
<!-- Title: gamePlayer.guiItems.controlDockButtons.buttons.PlayButton Pages: 1 -->
<svg width="180pt" height="232pt"
 viewBox="0.00 0.00 180.00 232.00" xmlns="http://www.w3.org/2000/svg" xmlns:xlink="http://www.w3.org/1999/xlink">
<g id="graph0" class="graph" transform="scale(1 1) rotate(0) translate(4 228)">
<title>gamePlayer.guiItems.controlDockButtons.buttons.PlayButton</title>
<polygon fill="white" stroke="none" points="-4,4 -4,-228 176,-228 176,4 -4,4"/>
<!-- Node1 -->
<g id="node1" class="node"><title>Node1</title>
<polygon fill="#bfbfbf" stroke="black" points="-0.5,-1 -0.5,-31 172.5,-31 172.5,-1 -0.5,-1"/>
<text text-anchor="start" x="7.5" y="-19" font-family="Helvetica,sans-Serif" font-size="10.00">gamePlayer.guiItems.control</text>
<text text-anchor="middle" x="86" y="-8" font-family="Helvetica,sans-Serif" font-size="10.00">DockButtons.buttons.PlayButton</text>
</g>
<!-- Node2 -->
<g id="node2" class="node"><title>Node2</title>
<g id="a_node2"><a xlink:href="../../d5/da2/classgame_player_1_1gui_items_1_1control_dock_buttons_1_1_control_dock_button.html" target="_top" xlink:title="gamePlayer.guiItems.control\lDockButtons.ControlDockButton">
<polygon fill="white" stroke="black" points="0,-69 0,-99 172,-99 172,-69 0,-69"/>
<text text-anchor="start" x="8" y="-87" font-family="Helvetica,sans-Serif" font-size="10.00">gamePlayer.guiItems.control</text>
<text text-anchor="middle" x="86" y="-76" font-family="Helvetica,sans-Serif" font-size="10.00">DockButtons.ControlDockButton</text>
</a>
</g>
</g>
<!-- Node2&#45;&gt;Node1 -->
<g id="edge1" class="edge"><title>Node2&#45;&gt;Node1</title>
<path fill="none" stroke="midnightblue" d="M86,-58.5322C86,-49.3606 86,-39.2449 86,-31.2931"/>
<polygon fill="midnightblue" stroke="midnightblue" points="82.5001,-58.6789 86,-68.679 89.5001,-58.679 82.5001,-58.6789"/>
</g>
<!-- Node3 -->
<g id="node3" class="node"><title>Node3</title>
<g id="a_node3"><a xlink:href="../../de/d25/interfacegame_player_1_1gui_items_1_1_gui_item.html" target="_top" xlink:title="gamePlayer.guiItems.GuiItem">
<polygon fill="white" stroke="black" points="7,-136.5 7,-155.5 165,-155.5 165,-136.5 7,-136.5"/>
<text text-anchor="middle" x="86" y="-143.5" font-family="Helvetica,sans-Serif" font-size="10.00">gamePlayer.guiItems.GuiItem</text>
</a>
</g>
</g>
<!-- Node3&#45;&gt;Node2 -->
<g id="edge2" class="edge"><title>Node3&#45;&gt;Node2</title>
<path fill="none" stroke="midnightblue" d="M86,-126.371C86,-117.585 86,-107.272 86,-99.1408"/>
<polygon fill="midnightblue" stroke="midnightblue" points="82.5001,-126.403 86,-136.403 89.5001,-126.403 82.5001,-126.403"/>
</g>
<!-- Node4 -->
<g id="node4" class="node"><title>Node4</title>
<g id="a_node4"><a xlink:href="../../d7/d02/interfacegame_player_1_1main_classes_1_1gui_builder_1_1_gui_element.html" target="_top" xlink:title="gamePlayer.mainClasses.gui\lBuilder.GuiElement">
<polygon fill="white" stroke="black" points="9,-193 9,-223 163,-223 163,-193 9,-193"/>
<text text-anchor="start" x="17" y="-211" font-family="Helvetica,sans-Serif" font-size="10.00">gamePlayer.mainClasses.gui</text>
<text text-anchor="middle" x="86" y="-200" font-family="Helvetica,sans-Serif" font-size="10.00">Builder.GuiElement</text>
</a>
</g>
</g>
<!-- Node4&#45;&gt;Node3 -->
<g id="edge3" class="edge"><title>Node4&#45;&gt;Node3</title>
<path fill="none" stroke="midnightblue" d="M86,-182.586C86,-173.074 86,-162.786 86,-155.731"/>
<polygon fill="midnightblue" stroke="midnightblue" points="82.5001,-182.781 86,-192.781 89.5001,-182.781 82.5001,-182.781"/>
</g>
</g>
</svg>
