<?xml version="1.0" encoding="UTF-8" standalone="no"?>
<!DOCTYPE svg PUBLIC "-//W3C//DTD SVG 1.1//EN"
 "http://www.w3.org/Graphics/SVG/1.1/DTD/svg11.dtd">
<!-- Generated by graphviz version 2.36.0 (20140111.2315)
 -->
<!-- Title: gameAuthoring.scenes.actorBuildingScenes.BuildingSceneMenu Pages: 1 -->
<svg width="249pt" height="108pt"
 viewBox="0.00 0.00 249.00 108.00" xmlns="http://www.w3.org/2000/svg" xmlns:xlink="http://www.w3.org/1999/xlink">
<g id="graph0" class="graph" transform="scale(1 1) rotate(0) translate(4 104)">
<title>gameAuthoring.scenes.actorBuildingScenes.BuildingSceneMenu</title>
<polygon fill="white" stroke="none" points="-4,4 -4,-104 245,-104 245,4 -4,4"/>
<!-- Node1 -->
<g id="node1" class="node"><title>Node1</title>
<polygon fill="#bfbfbf" stroke="black" points="17,-1 17,-31 203,-31 203,-1 17,-1"/>
<text text-anchor="start" x="25" y="-19" font-family="Helvetica,sans-Serif" font-size="10.00">gameAuthoring.scenes.actor</text>
<text text-anchor="middle" x="110" y="-8" font-family="Helvetica,sans-Serif" font-size="10.00">BuildingScenes.BuildingSceneMenu</text>
</g>
<!-- Node2 -->
<g id="node2" class="node"><title>Node2</title>
<polygon fill="white" stroke="#bfbfbf" points="-0.5,-80.5 -0.5,-99.5 70.5,-99.5 70.5,-80.5 -0.5,-80.5"/>
<text text-anchor="middle" x="35" y="-87.5" font-family="Helvetica,sans-Serif" font-size="10.00">Observable</text>
</g>
<!-- Node2&#45;&gt;Node1 -->
<g id="edge1" class="edge"><title>Node2&#45;&gt;Node1</title>
<path fill="none" stroke="midnightblue" d="M51.2726,-73.3783C64.3327,-60.8406 82.5148,-43.3858 95.1754,-31.2316"/>
<polygon fill="midnightblue" stroke="midnightblue" points="48.688,-71.0077 43.898,-80.4579 53.5358,-76.0574 48.688,-71.0077"/>
</g>
<!-- Node3 -->
<g id="node3" class="node"><title>Node3</title>
<polygon fill="white" stroke="#bfbfbf" points="88.5,-80.5 88.5,-99.5 131.5,-99.5 131.5,-80.5 88.5,-80.5"/>
<text text-anchor="middle" x="110" y="-87.5" font-family="Helvetica,sans-Serif" font-size="10.00">Menu</text>
</g>
<!-- Node3&#45;&gt;Node1 -->
<g id="edge2" class="edge"><title>Node3&#45;&gt;Node1</title>
<path fill="none" stroke="#9a32cd" stroke-dasharray="5,2" d="M110,-70.0846C110,-57.9148 110,-42.3538 110,-31.2316"/>
<polygon fill="#9a32cd" stroke="#9a32cd" points="106.5,-70.4579 110,-80.4579 113.5,-70.4579 106.5,-70.4579"/>
<text text-anchor="middle" x="140" y="-53.5" font-family="Helvetica,sans-Serif" font-size="10.00"> myFileMenu</text>
</g>
<!-- Node4 -->
<g id="node4" class="node"><title>Node4</title>
<polygon fill="white" stroke="#bfbfbf" points="163.5,-80.5 163.5,-99.5 222.5,-99.5 222.5,-80.5 163.5,-80.5"/>
<text text-anchor="middle" x="193" y="-87.5" font-family="Helvetica,sans-Serif" font-size="10.00">MenuBar</text>
</g>
<!-- Node4&#45;&gt;Node1 -->
<g id="edge3" class="edge"><title>Node4&#45;&gt;Node1</title>
<path fill="none" stroke="#9a32cd" stroke-dasharray="5,2" d="M185.398,-70.7676C181.795,-63.6716 176.961,-55.8566 171,-50 163.27,-42.4055 153.436,-36.0723 143.932,-31.052"/>
<polygon fill="#9a32cd" stroke="#9a32cd" points="182.435,-72.7041 189.782,-80.3376 188.799,-69.7885 182.435,-72.7041"/>
<text text-anchor="middle" x="210.5" y="-53.5" font-family="Helvetica,sans-Serif" font-size="10.00"> myMenuBar</text>
</g>
</g>
</svg>
