<?xml version="1.0" encoding="UTF-8" standalone="no"?>
<!DOCTYPE svg PUBLIC "-//W3C//DTD SVG 1.1//EN"
 "http://www.w3.org/Graphics/SVG/1.1/DTD/svg11.dtd">
<!-- Generated by graphviz version 2.36.0 (20140111.2315)
 -->
<!-- Title: utilities.XMLParsing.XMLParser.getIntegerValuesFromTag Pages: 1 -->
<!--zoomable 136 -->
<svg id="main" version="1.1" xmlns="http://www.w3.org/2000/svg" xmlns:xlink="http://www.w3.org/1999/xlink" xml:space="preserve" onload="init(evt)">
<style type="text/css"><![CDATA[
.edge:hover path { stroke: red; }
.edge:hover polygon { stroke: red; fill: red; }
]]></style>
<script type="text/javascript"><![CDATA[
var edges = document.getElementsByTagName('g');
if (edges && edges.length) {
  for (var i=0;i<edges.length;i++) {
    if (edges[i].id.substr(0,4)=='edge') {
      edges[i].setAttribute('class','edge');
    }
  }
}
]]></script>
        <defs>
                <circle id="rim" cx="0" cy="0" r="7"/>
                <circle id="rim2" cx="0" cy="0" r="3.5"/>
                <g id="zoomPlus">
                        <use xlink:href="#rim" fill="#404040">
                                <set attributeName="fill" to="#808080" begin="zoomplus.mouseover" end="zoomplus.mouseout"/>
                        </use>
                        <path d="M-4,0h8M0,-4v8" fill="none" stroke="white" stroke-width="1.5" pointer-events="none"/>
                </g>
                <g id="zoomMin">
                        <use xlink:href="#rim" fill="#404040">
                                <set attributeName="fill" to="#808080" begin="zoomminus.mouseover" end="zoomminus.mouseout"/>
                        </use>
                        <path d="M-4,0h8" fill="none" stroke="white" stroke-width="1.5" pointer-events="none"/>
                </g>
                <g id="dirArrow">
                        <path fill="none" stroke="white" stroke-width="1.5" d="M0,-3.0v7 M-2.5,-0.5L0,-3.0L2.5,-0.5"/>
                </g>
               <g id="resetDef">
                       <use xlink:href="#rim2" fill="#404040">
                               <set attributeName="fill" to="#808080" begin="reset.mouseover" end="reset.mouseout"/>
                       </use>
               </g>
        </defs>

<script type="text/javascript">
var viewWidth = 682;
var viewHeight = 136;
var sectionId = 'dynsection-9';
</script>
<script xlink:href="../../svgpan.js"/>
<svg id="graph" class="graph">
<g id="viewport">
<title>utilities.XMLParsing.XMLParser.getIntegerValuesFromTag</title>
<polygon fill="white" stroke="none" points="-4,4 -4,-132 678,-132 678,4 -4,4"/>
<!-- Node1 -->
<g id="node1" class="node"><title>Node1</title>
<polygon fill="#bfbfbf" stroke="black" points="0,-49 0,-79 178,-79 178,-49 0,-49"/>
<text text-anchor="start" x="8" y="-67" font-family="Helvetica,sans-Serif" font-size="10.00">utilities.XMLParsing.XMLParser.get</text>
<text text-anchor="middle" x="89" y="-56" font-family="Helvetica,sans-Serif" font-size="10.00">IntegerValuesFromTag</text>
</g>
<!-- Node2 -->
<g id="node2" class="node"><title>Node2</title>
<g id="a_node2"><a xlink:href="../../d6/dac/classgame_player_1_1unused_code_warehouse_1_1gui_items_1_1store_1_1_store.html#a3e828c04b91101f45ad872ddd3ee035c" target="_top" xlink:title="gamePlayer.unusedCodeWarehouse.gui\lItems.store.Store.buildInventoryContainer">
<polygon fill="white" stroke="black" points="214.5,-98 214.5,-128 431.5,-128 431.5,-98 214.5,-98"/>
<text text-anchor="start" x="222.5" y="-116" font-family="Helvetica,sans-Serif" font-size="10.00">gamePlayer.unusedCodeWarehouse.gui</text>
<text text-anchor="middle" x="323" y="-105" font-family="Helvetica,sans-Serif" font-size="10.00">Items.store.Store.buildInventoryContainer</text>
</a>
</g>
</g>
<!-- Node1&#45;&gt;Node2 -->
<g id="edge1" class="edge"><title>Node1&#45;&gt;Node2</title>
<path fill="none" stroke="midnightblue" d="M171.023,-81.1127C197.058,-86.6115 225.687,-92.658 250.95,-97.9938"/>
<polygon fill="midnightblue" stroke="midnightblue" points="171.692,-77.6767 161.184,-79.0346 170.245,-84.5256 171.692,-77.6767"/>
</g>
<!-- Node4 -->
<g id="node4" class="node"><title>Node4</title>
<g id="a_node4"><a xlink:href="../../dc/dbd/classgame_player_1_1gui_items_1_1welcome_1_1_welcome_navigator.html#a102f9b5f228f7986a29facf52bd892c3" target="_top" xlink:title="gamePlayer.guiItems.welcome.\lWelcomeNavigator.setupNavPane">
<polygon fill="white" stroke="black" points="234.5,-49 234.5,-79 411.5,-79 411.5,-49 234.5,-49"/>
<text text-anchor="start" x="242.5" y="-67" font-family="Helvetica,sans-Serif" font-size="10.00">gamePlayer.guiItems.welcome.</text>
<text text-anchor="middle" x="323" y="-56" font-family="Helvetica,sans-Serif" font-size="10.00">WelcomeNavigator.setupNavPane</text>
</a>
</g>
</g>
<!-- Node1&#45;&gt;Node4 -->
<g id="edge3" class="edge"><title>Node1&#45;&gt;Node4</title>
<path fill="none" stroke="midnightblue" d="M188.076,-64C203.46,-64 219.276,-64 234.404,-64"/>
<polygon fill="midnightblue" stroke="midnightblue" points="188.04,-60.5001 178.04,-64 188.04,-67.5001 188.04,-60.5001"/>
</g>
<!-- Node6 -->
<g id="node6" class="node"><title>Node6</title>
<g id="a_node6"><a xlink:href="../../d5/d69/classutilities_1_1_x_m_l_parsing_1_1_x_m_l_parser_test.html#a15b76d6955d3db0462df9e48e6498add" target="_top" xlink:title="utilities.XMLParsing.XMLParser\lTest.XMLParsingIntegerExtractionTest">
<polygon fill="white" stroke="black" points="226.5,-0 226.5,-30 419.5,-30 419.5,-0 226.5,-0"/>
<text text-anchor="start" x="234.5" y="-18" font-family="Helvetica,sans-Serif" font-size="10.00">utilities.XMLParsing.XMLParser</text>
<text text-anchor="middle" x="323" y="-7" font-family="Helvetica,sans-Serif" font-size="10.00">Test.XMLParsingIntegerExtractionTest</text>
</a>
</g>
</g>
<!-- Node1&#45;&gt;Node6 -->
<g id="edge5" class="edge"><title>Node1&#45;&gt;Node6</title>
<path fill="none" stroke="midnightblue" d="M171.023,-46.8873C197.058,-41.3885 225.687,-35.342 250.95,-30.0062"/>
<polygon fill="midnightblue" stroke="midnightblue" points="170.245,-43.4744 161.184,-48.9654 171.692,-50.3233 170.245,-43.4744"/>
</g>
<!-- Node3 -->
<g id="node3" class="node"><title>Node3</title>
<g id="a_node3"><a xlink:href="../../d6/dac/classgame_player_1_1unused_code_warehouse_1_1gui_items_1_1store_1_1_store.html#a6ddf415c9de5eb36452c064a0782accf" target="_top" xlink:title="gamePlayer.unusedCodeWarehouse.gui\lItems.store.Store.initialize">
<polygon fill="white" stroke="black" points="468,-98 468,-128 674,-128 674,-98 468,-98"/>
<text text-anchor="start" x="476" y="-116" font-family="Helvetica,sans-Serif" font-size="10.00">gamePlayer.unusedCodeWarehouse.gui</text>
<text text-anchor="middle" x="571" y="-105" font-family="Helvetica,sans-Serif" font-size="10.00">Items.store.Store.initialize</text>
</a>
</g>
</g>
<!-- Node2&#45;&gt;Node3 -->
<g id="edge2" class="edge"><title>Node2&#45;&gt;Node3</title>
<path fill="none" stroke="midnightblue" d="M441.723,-113C450.42,-113 459.151,-113 467.744,-113"/>
<polygon fill="midnightblue" stroke="midnightblue" points="441.541,-109.5 431.541,-113 441.541,-116.5 441.541,-109.5"/>
</g>
<!-- Node5 -->
<g id="node5" class="node"><title>Node5</title>
<g id="a_node5"><a xlink:href="../../dc/dbd/classgame_player_1_1gui_items_1_1welcome_1_1_welcome_navigator.html#a60b11ae18c01ae92903dee853bc4bf41" target="_top" xlink:title="gamePlayer.guiItems.welcome.\lWelcomeNavigator.initialize">
<polygon fill="white" stroke="black" points="488.5,-49 488.5,-79 653.5,-79 653.5,-49 488.5,-49"/>
<text text-anchor="start" x="496.5" y="-67" font-family="Helvetica,sans-Serif" font-size="10.00">gamePlayer.guiItems.welcome.</text>
<text text-anchor="middle" x="571" y="-56" font-family="Helvetica,sans-Serif" font-size="10.00">WelcomeNavigator.initialize</text>
</a>
</g>
</g>
<!-- Node4&#45;&gt;Node5 -->
<g id="edge4" class="edge"><title>Node4&#45;&gt;Node5</title>
<path fill="none" stroke="midnightblue" d="M421.822,-64C443.897,-64 467.102,-64 488.427,-64"/>
<polygon fill="midnightblue" stroke="midnightblue" points="421.77,-60.5001 411.77,-64 421.77,-67.5001 421.77,-60.5001"/>
</g>
</g>
</svg>
        <g id="navigator" transform="translate(0 0)" fill="#404254">
                <rect fill="#f2f5e9" fill-opacity="0.5" stroke="#606060" stroke-width=".5" x="0" y="0" width="60" height="60"/>
                <use id="zoomplus" xlink:href="#zoomPlus" x="17" y="9" onmousedown="handleZoom(evt,'in')"/>
                <use id="zoomminus" xlink:href="#zoomMin" x="42" y="9" onmousedown="handleZoom(evt,'out')"/>
                <use id="reset" xlink:href="#resetDef" x="30" y="36" onmousedown="handleReset()"/>
                <g id="arrowUp" xlink:href="#dirArrow" transform="translate(30 24)" onmousedown="handlePan(0,-1)">
                  <use xlink:href="#rim" fill="#404040">
                        <set attributeName="fill" to="#808080" begin="arrowUp.mouseover" end="arrowUp.mouseout"/>
                  </use>
                  <path fill="none" stroke="white" stroke-width="1.5" d="M0,-3.0v7 M-2.5,-0.5L0,-3.0L2.5,-0.5"/>
                </g>
                <g id="arrowRight" xlink:href="#dirArrow" transform="rotate(90) translate(36 -43)" onmousedown="handlePan(1,0)">
                  <use xlink:href="#rim" fill="#404040">
                        <set attributeName="fill" to="#808080" begin="arrowRight.mouseover" end="arrowRight.mouseout"/>
                  </use>
                  <path fill="none" stroke="white" stroke-width="1.5" d="M0,-3.0v7 M-2.5,-0.5L0,-3.0L2.5,-0.5"/>
                </g>
                <g id="arrowDown" xlink:href="#dirArrow" transform="rotate(180) translate(-30 -48)" onmousedown="handlePan(0,1)">
                  <use xlink:href="#rim" fill="#404040">
                        <set attributeName="fill" to="#808080" begin="arrowDown.mouseover" end="arrowDown.mouseout"/>
                  </use>
                  <path fill="none" stroke="white" stroke-width="1.5" d="M0,-3.0v7 M-2.5,-0.5L0,-3.0L2.5,-0.5"/>
                </g>
                <g id="arrowLeft" xlink:href="#dirArrow" transform="rotate(270) translate(-36 17)" onmousedown="handlePan(-1,0)">
                  <use xlink:href="#rim" fill="#404040">
                        <set attributeName="fill" to="#808080" begin="arrowLeft.mouseover" end="arrowLeft.mouseout"/>
                  </use>
                  <path fill="none" stroke="white" stroke-width="1.5" d="M0,-3.0v7 M-2.5,-0.5L0,-3.0L2.5,-0.5"/>
                </g>
        </g>
        <svg viewBox="0 0 15 15" width="100%" height="30px" preserveAspectRatio="xMaxYMin meet">
         <g id="arrow_out" transform="scale(0.3 0.3)">
          <a xlink:href="classutilities_1_1_x_m_l_parsing_1_1_x_m_l_parser_abefb8ebeb4519c1d094168dda6a502c6_icgraph_org.svg" target="_base">
           <rect id="button" ry="5" rx="5" y="6" x="6" height="38" width="38"
                fill="#f2f5e9" fill-opacity="0.5" stroke="#606060" stroke-width="1.0"/>
           <path id="arrow"
             d="M 11.500037,31.436501 C 11.940474,20.09759 22.043105,11.32322 32.158766,21.979434 L 37.068811,17.246167 C 37.068811,17.246167 37.088388,32 37.088388,32 L 22.160133,31.978069 C 22.160133,31.978069 26.997745,27.140456 26.997745,27.140456 C 18.528582,18.264221 13.291696,25.230495 11.500037,31.436501 z"
             style="fill:#404040;"/>
          </a>
         </g>
        </svg>
</svg>
