<?xml version="1.0" encoding="UTF-8" standalone="no"?>
<!DOCTYPE svg PUBLIC "-//W3C//DTD SVG 1.1//EN"
 "http://www.w3.org/Graphics/SVG/1.1/DTD/svg11.dtd">
<!-- Generated by graphviz version 2.36.0 (20140111.2315)
 -->
<!-- Title: utilities.pathfinding.example.LinkedNode Pages: 1 -->
<svg width="334pt" height="108pt"
 viewBox="0.00 0.00 334.00 108.00" xmlns="http://www.w3.org/2000/svg" xmlns:xlink="http://www.w3.org/1999/xlink">
<g id="graph0" class="graph" transform="scale(1 1) rotate(0) translate(4 104)">
<title>utilities.pathfinding.example.LinkedNode</title>
<polygon fill="white" stroke="none" points="-4,4 -4,-104 330,-104 330,4 -4,4"/>
<!-- Node1 -->
<g id="node1" class="node"><title>Node1</title>
<polygon fill="#bfbfbf" stroke="black" points="86,-1 86,-31 240,-31 240,-1 86,-1"/>
<text text-anchor="start" x="94" y="-19" font-family="Helvetica,sans-Serif" font-size="10.00">utilities.pathfinding.example.</text>
<text text-anchor="middle" x="163" y="-8" font-family="Helvetica,sans-Serif" font-size="10.00">LinkedNode</text>
</g>
<!-- Node2 -->
<g id="node2" class="node"><title>Node2</title>
<g id="a_node2"><a xlink:href="../../dd/dda/classutilities_1_1pathfinding_1_1example_1_1_unlinked_node.html" target="_top" xlink:title="utilities.pathfinding.example.\lUnlinkedNode">
<polygon fill="white" stroke="black" points="0,-69 0,-99 154,-99 154,-69 0,-69"/>
<text text-anchor="start" x="8" y="-87" font-family="Helvetica,sans-Serif" font-size="10.00">utilities.pathfinding.example.</text>
<text text-anchor="middle" x="77" y="-76" font-family="Helvetica,sans-Serif" font-size="10.00">UnlinkedNode</text>
</a>
</g>
</g>
<!-- Node2&#45;&gt;Node1 -->
<g id="edge1" class="edge"><title>Node2&#45;&gt;Node1</title>
<path fill="none" stroke="midnightblue" d="M103.96,-62.3094C117.208,-52.1426 132.827,-40.1562 144.671,-31.0663"/>
<polygon fill="midnightblue" stroke="midnightblue" points="101.463,-59.8142 95.6607,-68.679 105.725,-65.3673 101.463,-59.8142"/>
</g>
<!-- Node3 -->
<g id="node3" class="node"><title>Node3</title>
<polygon fill="white" stroke="#bfbfbf" points="172,-74.5 172,-93.5 326,-93.5 326,-74.5 172,-74.5"/>
<text text-anchor="middle" x="249" y="-81.5" font-family="Helvetica,sans-Serif" font-size="10.00">Comparable&lt; LinkedNode &gt;</text>
</g>
<!-- Node3&#45;&gt;Node1 -->
<g id="edge2" class="edge"><title>Node3&#45;&gt;Node1</title>
<path fill="none" stroke="midnightblue" d="M229.541,-68.0662C215.138,-57.0132 195.643,-42.0515 181.479,-31.1815"/>
<polygon fill="midnightblue" stroke="midnightblue" points="227.693,-71.06 237.757,-74.3717 231.955,-65.5068 227.693,-71.06"/>
</g>
</g>
</svg>
