<?xml version="1.0" encoding="UTF-8" standalone="no"?>
<!DOCTYPE svg PUBLIC "-//W3C//DTD SVG 1.1//EN"
 "http://www.w3.org/Graphics/SVG/1.1/DTD/svg11.dtd">
<!-- Generated by graphviz version 2.36.0 (20140111.2315)
 -->
<!-- Title: utilities.multilanguage.MultiLanguageUtility.MultiLanguageUtility Pages: 1 -->
<!--zoomable 1401 -->
<svg id="main" version="1.1" xmlns="http://www.w3.org/2000/svg" xmlns:xlink="http://www.w3.org/1999/xlink" xml:space="preserve" onload="init(evt)">
<style type="text/css"><![CDATA[
.edge:hover path { stroke: red; }
.edge:hover polygon { stroke: red; fill: red; }
]]></style>
<script type="text/javascript"><![CDATA[
var edges = document.getElementsByTagName('g');
if (edges && edges.length) {
  for (var i=0;i<edges.length;i++) {
    if (edges[i].id.substr(0,4)=='edge') {
      edges[i].setAttribute('class','edge');
    }
  }
}
]]></script>
        <defs>
                <circle id="rim" cx="0" cy="0" r="7"/>
                <circle id="rim2" cx="0" cy="0" r="3.5"/>
                <g id="zoomPlus">
                        <use xlink:href="#rim" fill="#404040">
                                <set attributeName="fill" to="#808080" begin="zoomplus.mouseover" end="zoomplus.mouseout"/>
                        </use>
                        <path d="M-4,0h8M0,-4v8" fill="none" stroke="white" stroke-width="1.5" pointer-events="none"/>
                </g>
                <g id="zoomMin">
                        <use xlink:href="#rim" fill="#404040">
                                <set attributeName="fill" to="#808080" begin="zoomminus.mouseover" end="zoomminus.mouseout"/>
                        </use>
                        <path d="M-4,0h8" fill="none" stroke="white" stroke-width="1.5" pointer-events="none"/>
                </g>
                <g id="dirArrow">
                        <path fill="none" stroke="white" stroke-width="1.5" d="M0,-3.0v7 M-2.5,-0.5L0,-3.0L2.5,-0.5"/>
                </g>
               <g id="resetDef">
                       <use xlink:href="#rim2" fill="#404040">
                               <set attributeName="fill" to="#808080" begin="reset.mouseover" end="reset.mouseout"/>
                       </use>
               </g>
        </defs>

<script type="text/javascript">
var viewWidth = 1136;
var viewHeight = 1401;
var sectionId = 'dynsection-1';
</script>
<script xlink:href="../../svgpan.js"/>
<svg id="graph" class="graph">
<g id="viewport">
<title>utilities.multilanguage.MultiLanguageUtility.MultiLanguageUtility</title>
<polygon fill="white" stroke="none" points="-4,4 -4,-1397 1132,-1397 1132,4 -4,4"/>
<!-- Node1 -->
<g id="node1" class="node"><title>Node1</title>
<polygon fill="#bfbfbf" stroke="black" points="0.5,-698.5 0.5,-739.5 185.5,-739.5 185.5,-698.5 0.5,-698.5"/>
<text text-anchor="start" x="8.5" y="-727.5" font-family="Helvetica,sans-Serif" font-size="10.00">utilities.multilanguage.</text>
<text text-anchor="start" x="8.5" y="-716.5" font-family="Helvetica,sans-Serif" font-size="10.00">MultiLanguageUtility.MultiLanguage</text>
<text text-anchor="middle" x="93" y="-705.5" font-family="Helvetica,sans-Serif" font-size="10.00">Utility</text>
</g>
<!-- Node2 -->
<g id="node2" class="node"><title>Node2</title>
<g id="a_node2"><a xlink:href="../../dc/d2e/classutilities_1_1multilanguage_1_1_multi_language_utility.html#aaa34262e5a69e5d96d435c4f9872e544" target="_top" xlink:title="utilities.multilanguage.\lMultiLanguageUtility.getInstance">
<polygon fill="white" stroke="black" points="222.5,-704 222.5,-734 393.5,-734 393.5,-704 222.5,-704"/>
<text text-anchor="start" x="230.5" y="-722" font-family="Helvetica,sans-Serif" font-size="10.00">utilities.multilanguage.</text>
<text text-anchor="middle" x="308" y="-711" font-family="Helvetica,sans-Serif" font-size="10.00">MultiLanguageUtility.getInstance</text>
</a>
</g>
</g>
<!-- Node1&#45;&gt;Node2 -->
<g id="edge1" class="edge"><title>Node1&#45;&gt;Node2</title>
<path fill="none" stroke="midnightblue" d="M195.603,-719C204.521,-719 213.484,-719 222.243,-719"/>
<polygon fill="midnightblue" stroke="midnightblue" points="195.567,-715.5 185.567,-719 195.567,-722.5 195.567,-715.5"/>
</g>
<!-- Node3 -->
<g id="node3" class="node"><title>Node3</title>
<g id="a_node3"><a xlink:href="../../d6/d87/classgame_authoring_1_1mainclasses_1_1_author_controller.html#ae542dc4fa7cdb6ede23dee41b5070676" target="_top" xlink:title="gameAuthoring.mainclasses.\lAuthorController.start">
<polygon fill="white" stroke="black" points="478,-1363 478,-1393 634,-1393 634,-1363 478,-1363"/>
<text text-anchor="start" x="486" y="-1381" font-family="Helvetica,sans-Serif" font-size="10.00">gameAuthoring.mainclasses.</text>
<text text-anchor="middle" x="556" y="-1370" font-family="Helvetica,sans-Serif" font-size="10.00">AuthorController.start</text>
</a>
</g>
</g>
<!-- Node2&#45;&gt;Node3 -->
<g id="edge2" class="edge"><title>Node2&#45;&gt;Node3</title>
<path fill="none" stroke="midnightblue" d="M310.174,-744.353C315.656,-851.347 342.287,-1264.51 430,-1353 442.776,-1365.89 460.192,-1373.09 477.965,-1376.91"/>
<polygon fill="midnightblue" stroke="midnightblue" points="313.66,-743.987 309.67,-734.172 306.669,-744.333 313.66,-743.987"/>
</g>
<!-- Node4 -->
<g id="node4" class="node"><title>Node4</title>
<g id="a_node4"><a xlink:href="../../d5/de6/classgame_authoring_1_1scenes_1_1actor_building_scenes_1_1_actor_building_scene.html#a4b14803e395701d52cf61ed9a1ef0229" target="_top" xlink:title="gameAuthoring.scenes.actor\lBuildingScenes.ActorBuildingScene.setup\lFileMenu">
<polygon fill="white" stroke="black" points="448.5,-1303.5 448.5,-1344.5 663.5,-1344.5 663.5,-1303.5 448.5,-1303.5"/>
<text text-anchor="start" x="456.5" y="-1332.5" font-family="Helvetica,sans-Serif" font-size="10.00">gameAuthoring.scenes.actor</text>
<text text-anchor="start" x="456.5" y="-1321.5" font-family="Helvetica,sans-Serif" font-size="10.00">BuildingScenes.ActorBuildingScene.setup</text>
<text text-anchor="middle" x="556" y="-1310.5" font-family="Helvetica,sans-Serif" font-size="10.00">FileMenu</text>
</a>
</g>
</g>
<!-- Node2&#45;&gt;Node4 -->
<g id="edge3" class="edge"><title>Node2&#45;&gt;Node4</title>
<path fill="none" stroke="midnightblue" d="M310.813,-744.085C318.536,-844 351.94,-1212.13 430,-1293 435.357,-1298.55 441.541,-1303.17 448.231,-1307"/>
<polygon fill="midnightblue" stroke="midnightblue" points="314.295,-743.716 310.051,-734.008 307.315,-744.244 314.295,-743.716"/>
</g>
<!-- Node6 -->
<g id="node6" class="node"><title>Node6</title>
<g id="a_node6"><a xlink:href="../../d5/de6/classgame_authoring_1_1scenes_1_1actor_building_scenes_1_1_actor_building_scene.html#a202b5536ad1f0cc370567fb4224940a9" target="_top" xlink:title="gameAuthoring.scenes.actor\lBuildingScenes.ActorBuildingScene.create\lCenterDisplay">
<polygon fill="white" stroke="black" points="446.5,-1243.5 446.5,-1284.5 665.5,-1284.5 665.5,-1243.5 446.5,-1243.5"/>
<text text-anchor="start" x="454.5" y="-1272.5" font-family="Helvetica,sans-Serif" font-size="10.00">gameAuthoring.scenes.actor</text>
<text text-anchor="start" x="454.5" y="-1261.5" font-family="Helvetica,sans-Serif" font-size="10.00">BuildingScenes.ActorBuildingScene.create</text>
<text text-anchor="middle" x="556" y="-1250.5" font-family="Helvetica,sans-Serif" font-size="10.00">CenterDisplay</text>
</a>
</g>
</g>
<!-- Node2&#45;&gt;Node6 -->
<g id="edge5" class="edge"><title>Node2&#45;&gt;Node6</title>
<path fill="none" stroke="midnightblue" d="M311.484,-744.149C321.195,-837.404 359.571,-1161.73 430,-1233 434.872,-1237.93 440.397,-1242.12 446.345,-1245.68"/>
<polygon fill="midnightblue" stroke="midnightblue" points="314.965,-743.781 310.465,-734.189 308.001,-744.493 314.965,-743.781"/>
</g>
<!-- Node7 -->
<g id="node7" class="node"><title>Node7</title>
<g id="a_node7"><a xlink:href="../../d1/d13/classgame_authoring_1_1scenes_1_1actor_building_scenes_1_1actor_list_view_1_1_created_enemies_display.html#ae01639d37a9f069037c9054a4c856e39" target="_top" xlink:title="gameAuthoring.scenes.actor\lBuildingScenes.actorListView.Created\lEnemiesDisplay.CreatedEnemiesDisplay">
<polygon fill="white" stroke="black" points="452,-1183.5 452,-1224.5 660,-1224.5 660,-1183.5 452,-1183.5"/>
<text text-anchor="start" x="460" y="-1212.5" font-family="Helvetica,sans-Serif" font-size="10.00">gameAuthoring.scenes.actor</text>
<text text-anchor="start" x="460" y="-1201.5" font-family="Helvetica,sans-Serif" font-size="10.00">BuildingScenes.actorListView.Created</text>
<text text-anchor="middle" x="556" y="-1190.5" font-family="Helvetica,sans-Serif" font-size="10.00">EnemiesDisplay.CreatedEnemiesDisplay</text>
</a>
</g>
</g>
<!-- Node2&#45;&gt;Node7 -->
<g id="edge7" class="edge"><title>Node2&#45;&gt;Node7</title>
<path fill="none" stroke="midnightblue" d="M312.296,-743.966C324.124,-829.841 367.095,-1111.18 430,-1173 436.379,-1179.27 443.816,-1184.34 451.825,-1188.42"/>
<polygon fill="midnightblue" stroke="midnightblue" points="315.764,-743.49 310.95,-734.052 308.827,-744.432 315.764,-743.49"/>
</g>
<!-- Node8 -->
<g id="node8" class="node"><title>Node8</title>
<g id="a_node8"><a xlink:href="../../d4/d18/classgame_authoring_1_1scenes_1_1actor_building_scenes_1_1behavior_builders_1_1_behavior_builder.html#ae31d7ecff5286c98dc1e15e850ad5dc2" target="_top" xlink:title="gameAuthoring.scenes.actor\lBuildingScenes.behaviorBuilders.\lBehaviorBuilder.createCenterDisplay">
<polygon fill="white" stroke="black" points="460.5,-1123.5 460.5,-1164.5 651.5,-1164.5 651.5,-1123.5 460.5,-1123.5"/>
<text text-anchor="start" x="468.5" y="-1152.5" font-family="Helvetica,sans-Serif" font-size="10.00">gameAuthoring.scenes.actor</text>
<text text-anchor="start" x="468.5" y="-1141.5" font-family="Helvetica,sans-Serif" font-size="10.00">BuildingScenes.behaviorBuilders.</text>
<text text-anchor="middle" x="556" y="-1130.5" font-family="Helvetica,sans-Serif" font-size="10.00">BehaviorBuilder.createCenterDisplay</text>
</a>
</g>
</g>
<!-- Node2&#45;&gt;Node8 -->
<g id="edge8" class="edge"><title>Node2&#45;&gt;Node8</title>
<path fill="none" stroke="midnightblue" d="M308.762,-744.214C309.546,-813.863 321.726,-1010.51 430,-1113 438.687,-1121.22 449.203,-1127.36 460.403,-1131.93"/>
<polygon fill="midnightblue" stroke="midnightblue" points="312.262,-744.145 308.721,-734.16 305.262,-744.174 312.262,-744.145"/>
</g>
<!-- Node10 -->
<g id="node10" class="node"><title>Node10</title>
<g id="a_node10"><a xlink:href="../../d9/d27/classgame_authoring_1_1scenes_1_1actor_building_scenes_1_1_building_scene_menu.html#aef13ed61991c11df13a4de25b4b4dd9e" target="_top" xlink:title="gameAuthoring.scenes.actor\lBuildingScenes.BuildingSceneMenu.\lBuildingSceneMenu">
<polygon fill="white" stroke="black" points="461.5,-1063.5 461.5,-1104.5 650.5,-1104.5 650.5,-1063.5 461.5,-1063.5"/>
<text text-anchor="start" x="469.5" y="-1092.5" font-family="Helvetica,sans-Serif" font-size="10.00">gameAuthoring.scenes.actor</text>
<text text-anchor="start" x="469.5" y="-1081.5" font-family="Helvetica,sans-Serif" font-size="10.00">BuildingScenes.BuildingSceneMenu.</text>
<text text-anchor="middle" x="556" y="-1070.5" font-family="Helvetica,sans-Serif" font-size="10.00">BuildingSceneMenu</text>
</a>
</g>
</g>
<!-- Node2&#45;&gt;Node10 -->
<g id="edge10" class="edge"><title>Node2&#45;&gt;Node10</title>
<path fill="none" stroke="midnightblue" d="M310.36,-744.105C315.135,-806.324 336.403,-968.704 430,-1053 439.055,-1061.15 449.919,-1067.24 461.413,-1071.77"/>
<polygon fill="midnightblue" stroke="midnightblue" points="313.845,-743.755 309.667,-734.019 306.861,-744.236 313.845,-743.755"/>
</g>
<!-- Node11 -->
<g id="node11" class="node"><title>Node11</title>
<g id="a_node11"><a xlink:href="../../de/d35/classgame_authoring_1_1scenes_1_1actor_building_scenes_1_1_projectile_pane.html#a078b1fa5e6bf1ecfc14a5775ed98981c" target="_top" xlink:title="gameAuthoring.scenes.actor\lBuildingScenes.ProjectilePane.\lProjectilePane">
<polygon fill="white" stroke="black" points="475,-1003.5 475,-1044.5 637,-1044.5 637,-1003.5 475,-1003.5"/>
<text text-anchor="start" x="483" y="-1032.5" font-family="Helvetica,sans-Serif" font-size="10.00">gameAuthoring.scenes.actor</text>
<text text-anchor="start" x="483" y="-1021.5" font-family="Helvetica,sans-Serif" font-size="10.00">BuildingScenes.ProjectilePane.</text>
<text text-anchor="middle" x="556" y="-1010.5" font-family="Helvetica,sans-Serif" font-size="10.00">ProjectilePane</text>
</a>
</g>
</g>
<!-- Node2&#45;&gt;Node11 -->
<g id="edge11" class="edge"><title>Node2&#45;&gt;Node11</title>
<path fill="none" stroke="midnightblue" d="M312.973,-744.181C322.745,-797.567 353.004,-922.652 430,-989 442.719,-999.96 458.621,-1007.5 474.777,-1012.69"/>
<polygon fill="midnightblue" stroke="midnightblue" points="316.401,-743.461 311.237,-734.21 309.505,-744.662 316.401,-743.461"/>
</g>
<!-- Node12 -->
<g id="node12" class="node"><title>Node12</title>
<g id="a_node12"><a xlink:href="../../d4/d4e/classgame_authoring_1_1scenes_1_1_general_setting_scene.html#a8d31d7a9457faf57b3436c221acd9a89" target="_top" xlink:title="gameAuthoring.scenes.General\lSettingScene.createHeadingLabel">
<polygon fill="white" stroke="black" points="722,-960 722,-990 902,-990 902,-960 722,-960"/>
<text text-anchor="start" x="730" y="-978" font-family="Helvetica,sans-Serif" font-size="10.00">gameAuthoring.scenes.General</text>
<text text-anchor="middle" x="812" y="-967" font-family="Helvetica,sans-Serif" font-size="10.00">SettingScene.createHeadingLabel</text>
</a>
</g>
</g>
<!-- Node2&#45;&gt;Node12 -->
<g id="edge12" class="edge"><title>Node2&#45;&gt;Node12</title>
<path fill="none" stroke="midnightblue" d="M313.398,-744.002C323.677,-794.072 354.391,-906.03 430,-955 476.422,-985.066 624.413,-984.416 721.703,-980.331"/>
<polygon fill="midnightblue" stroke="midnightblue" points="316.803,-743.176 311.455,-734.03 309.932,-744.515 316.803,-743.176"/>
</g>
<!-- Node14 -->
<g id="node14" class="node"><title>Node14</title>
<g id="a_node14"><a xlink:href="../../d4/d4e/classgame_authoring_1_1scenes_1_1_general_setting_scene.html#a4f44696aea3309d395971fedf4525b95" target="_top" xlink:title="gameAuthoring.scenes.General\lSettingScene.createFieldWithLabel">
<polygon fill="white" stroke="black" points="465,-916 465,-946 647,-946 647,-916 465,-916"/>
<text text-anchor="start" x="473" y="-934" font-family="Helvetica,sans-Serif" font-size="10.00">gameAuthoring.scenes.General</text>
<text text-anchor="middle" x="556" y="-923" font-family="Helvetica,sans-Serif" font-size="10.00">SettingScene.createFieldWithLabel</text>
</a>
</g>
</g>
<!-- Node2&#45;&gt;Node14 -->
<g id="edge14" class="edge"><title>Node2&#45;&gt;Node14</title>
<path fill="none" stroke="midnightblue" d="M317.563,-743.481C333.142,-784.186 370.15,-865.322 430,-906 440.433,-913.091 452.417,-918.264 464.744,-922.021"/>
<polygon fill="midnightblue" stroke="midnightblue" points="320.825,-742.21 314.063,-734.053 314.262,-744.646 320.825,-742.21"/>
</g>
<!-- Node16 -->
<g id="node16" class="node"><title>Node16</title>
<g id="a_node16"><a xlink:href="../../d4/d4e/classgame_authoring_1_1scenes_1_1_general_setting_scene.html#a9282c877dfdbca9fc95ae068ddcc45c4" target="_top" xlink:title="gameAuthoring.scenes.General\lSettingScene.createNextButton">
<polygon fill="white" stroke="black" points="471,-867 471,-897 641,-897 641,-867 471,-867"/>
<text text-anchor="start" x="479" y="-885" font-family="Helvetica,sans-Serif" font-size="10.00">gameAuthoring.scenes.General</text>
<text text-anchor="middle" x="556" y="-874" font-family="Helvetica,sans-Serif" font-size="10.00">SettingScene.createNextButton</text>
</a>
</g>
</g>
<!-- Node2&#45;&gt;Node16 -->
<g id="edge17" class="edge"><title>Node2&#45;&gt;Node16</title>
<path fill="none" stroke="midnightblue" d="M322.954,-742.966C342.615,-774.442 381.543,-828.987 430,-857 442.454,-864.2 456.642,-869.355 470.881,-873.04"/>
<polygon fill="midnightblue" stroke="midnightblue" points="325.902,-741.079 317.704,-734.367 319.928,-744.726 325.902,-741.079"/>
</g>
<!-- Node17 -->
<g id="node17" class="node"><title>Node17</title>
<g id="a_node17"><a xlink:href="../../d0/de5/classgame_authoring_1_1scenes_1_1_g_s_o_n_writing_scene.html#a0773319e35d1c6ef190417215b39f5f4" target="_top" xlink:title="gameAuthoring.scenes.GSONWriting\lScene.GSONWritingScene">
<polygon fill="white" stroke="black" points="460.5,-818 460.5,-848 651.5,-848 651.5,-818 460.5,-818"/>
<text text-anchor="start" x="468.5" y="-836" font-family="Helvetica,sans-Serif" font-size="10.00">gameAuthoring.scenes.GSONWriting</text>
<text text-anchor="middle" x="556" y="-825" font-family="Helvetica,sans-Serif" font-size="10.00">Scene.GSONWritingScene</text>
</a>
</g>
</g>
<!-- Node2&#45;&gt;Node17 -->
<g id="edge20" class="edge"><title>Node2&#45;&gt;Node17</title>
<path fill="none" stroke="midnightblue" d="M332.295,-741.045C355.316,-761.57 392.442,-791.417 430,-808 439.617,-812.246 449.968,-815.777 460.451,-818.712"/>
<polygon fill="midnightblue" stroke="midnightblue" points="334.521,-738.339 324.763,-734.211 329.817,-743.523 334.521,-738.339"/>
</g>
<!-- Node18 -->
<g id="node18" class="node"><title>Node18</title>
<g id="a_node18"><a xlink:href="../../d4/d5e/classgame_authoring_1_1scenes_1_1level_building_1_1_level_building_scene.html#a1378893d8197db294380765fbf2d72db" target="_top" xlink:title="gameAuthoring.scenes.level\lBuilding.LevelBuildingScene.create\lMenuAndAddNewLevelOption">
<polygon fill="white" stroke="black" points="464.5,-758.5 464.5,-799.5 647.5,-799.5 647.5,-758.5 464.5,-758.5"/>
<text text-anchor="start" x="472.5" y="-787.5" font-family="Helvetica,sans-Serif" font-size="10.00">gameAuthoring.scenes.level</text>
<text text-anchor="start" x="472.5" y="-776.5" font-family="Helvetica,sans-Serif" font-size="10.00">Building.LevelBuildingScene.create</text>
<text text-anchor="middle" x="556" y="-765.5" font-family="Helvetica,sans-Serif" font-size="10.00">MenuAndAddNewLevelOption</text>
</a>
</g>
</g>
<!-- Node2&#45;&gt;Node18 -->
<g id="edge21" class="edge"><title>Node2&#45;&gt;Node18</title>
<path fill="none" stroke="midnightblue" d="M380.56,-736.454C408.828,-743.348 441.517,-751.321 470.903,-758.489"/>
<polygon fill="midnightblue" stroke="midnightblue" points="381.303,-733.032 370.759,-734.063 379.644,-739.833 381.303,-733.032"/>
</g>
<!-- Node20 -->
<g id="node20" class="node"><title>Node20</title>
<g id="a_node20"><a xlink:href="../../da/d10/classgame_authoring_1_1scenes_1_1level_building_1_1_level_display_cell.html#a93ed835bb4a955bda9d8ddafee12a537" target="_top" xlink:title="gameAuthoring.scenes.level\lBuilding.LevelDisplayCell.create\lLevelInfoBox">
<polygon fill="white" stroke="black" points="472.5,-698.5 472.5,-739.5 639.5,-739.5 639.5,-698.5 472.5,-698.5"/>
<text text-anchor="start" x="480.5" y="-727.5" font-family="Helvetica,sans-Serif" font-size="10.00">gameAuthoring.scenes.level</text>
<text text-anchor="start" x="480.5" y="-716.5" font-family="Helvetica,sans-Serif" font-size="10.00">Building.LevelDisplayCell.create</text>
<text text-anchor="middle" x="556" y="-705.5" font-family="Helvetica,sans-Serif" font-size="10.00">LevelInfoBox</text>
</a>
</g>
</g>
<!-- Node2&#45;&gt;Node20 -->
<g id="edge23" class="edge"><title>Node2&#45;&gt;Node20</title>
<path fill="none" stroke="midnightblue" d="M403.91,-719C426.449,-719 450.318,-719 472.265,-719"/>
<polygon fill="midnightblue" stroke="midnightblue" points="403.659,-715.5 393.659,-719 403.659,-722.5 403.659,-715.5"/>
</g>
<!-- Node22 -->
<g id="node22" class="node"><title>Node22</title>
<g id="a_node22"><a xlink:href="../../d3/d46/classgame_authoring_1_1scenes_1_1path_building_1_1building_panes_1_1_building_option_pane.html#a3e09bb25aa5b4f387e37a8f80e3b59e6" target="_top" xlink:title="gameAuthoring.scenes.path\lBuilding.buildingPanes.Building\lOptionPane.setupOptionsBoxGraphically\lAndDisplayLabel">
<polygon fill="white" stroke="black" points="451.5,-627 451.5,-679 660.5,-679 660.5,-627 451.5,-627"/>
<text text-anchor="start" x="459.5" y="-667" font-family="Helvetica,sans-Serif" font-size="10.00">gameAuthoring.scenes.path</text>
<text text-anchor="start" x="459.5" y="-656" font-family="Helvetica,sans-Serif" font-size="10.00">Building.buildingPanes.Building</text>
<text text-anchor="start" x="459.5" y="-645" font-family="Helvetica,sans-Serif" font-size="10.00">OptionPane.setupOptionsBoxGraphically</text>
<text text-anchor="middle" x="556" y="-634" font-family="Helvetica,sans-Serif" font-size="10.00">AndDisplayLabel</text>
</a>
</g>
</g>
<!-- Node2&#45;&gt;Node22 -->
<g id="edge25" class="edge"><title>Node2&#45;&gt;Node22</title>
<path fill="none" stroke="midnightblue" d="M375.051,-701.279C400.557,-694.436 430.256,-686.468 458.087,-679.001"/>
<polygon fill="midnightblue" stroke="midnightblue" points="373.88,-697.969 365.129,-703.941 375.694,-704.73 373.88,-697.969"/>
</g>
<!-- Node24 -->
<g id="node24" class="node"><title>Node24</title>
<g id="a_node24"><a xlink:href="../../d7/db2/classgame_authoring_1_1scenes_1_1path_building_1_1building_panes_1_1location_pane_1_1_enemy_ending_locations_pane.html#a0258666bc94d8721be382d35a7f512a9" target="_top" xlink:title="gameAuthoring.scenes.path\lBuilding.buildingPanes.location\lPane.EnemyEndingLocationsPane.EnemyEnding\lLocationsPane">
<polygon fill="white" stroke="black" points="433.5,-556 433.5,-608 678.5,-608 678.5,-556 433.5,-556"/>
<text text-anchor="start" x="441.5" y="-596" font-family="Helvetica,sans-Serif" font-size="10.00">gameAuthoring.scenes.path</text>
<text text-anchor="start" x="441.5" y="-585" font-family="Helvetica,sans-Serif" font-size="10.00">Building.buildingPanes.location</text>
<text text-anchor="start" x="441.5" y="-574" font-family="Helvetica,sans-Serif" font-size="10.00">Pane.EnemyEndingLocationsPane.EnemyEnding</text>
<text text-anchor="middle" x="556" y="-563" font-family="Helvetica,sans-Serif" font-size="10.00">LocationsPane</text>
</a>
</g>
</g>
<!-- Node2&#45;&gt;Node24 -->
<g id="edge27" class="edge"><title>Node2&#45;&gt;Node24</title>
<path fill="none" stroke="midnightblue" d="M330.242,-696.435C352.923,-673.587 390.913,-638.747 430,-618 436.882,-614.347 444.179,-611.025 451.655,-608.011"/>
<polygon fill="midnightblue" stroke="midnightblue" points="327.643,-694.087 323.158,-703.686 332.65,-698.979 327.643,-694.087"/>
</g>
<!-- Node25 -->
<g id="node25" class="node"><title>Node25</title>
<g id="a_node25"><a xlink:href="../../da/d08/classgame_authoring_1_1scenes_1_1path_building_1_1building_panes_1_1location_pane_1_1_enemy_location_pane.html#a200d026e7679a4e8849625f8b4202b92" target="_top" xlink:title="gameAuthoring.scenes.path\lBuilding.buildingPanes.location\lPane.EnemyLocationPane.EnemyLocationPane">
<polygon fill="white" stroke="black" points="436.5,-495.5 436.5,-536.5 675.5,-536.5 675.5,-495.5 436.5,-495.5"/>
<text text-anchor="start" x="444.5" y="-524.5" font-family="Helvetica,sans-Serif" font-size="10.00">gameAuthoring.scenes.path</text>
<text text-anchor="start" x="444.5" y="-513.5" font-family="Helvetica,sans-Serif" font-size="10.00">Building.buildingPanes.location</text>
<text text-anchor="middle" x="556" y="-502.5" font-family="Helvetica,sans-Serif" font-size="10.00">Pane.EnemyLocationPane.EnemyLocationPane</text>
</a>
</g>
</g>
<!-- Node2&#45;&gt;Node25 -->
<g id="edge28" class="edge"><title>Node2&#45;&gt;Node25</title>
<path fill="none" stroke="midnightblue" d="M319.29,-694.594C336.481,-656.886 374.693,-584.871 430,-547 435.811,-543.021 442.085,-539.552 448.619,-536.527"/>
<polygon fill="midnightblue" stroke="midnightblue" points="316.048,-693.272 315.188,-703.832 322.445,-696.113 316.048,-693.272"/>
</g>
<!-- Node26 -->
<g id="node26" class="node"><title>Node26</title>
<g id="a_node26"><a xlink:href="../../da/d08/classgame_authoring_1_1scenes_1_1path_building_1_1building_panes_1_1location_pane_1_1_enemy_location_pane.html#a810180887fe760c237a987e98e48b13d" target="_top" xlink:title="gameAuthoring.scenes.path\lBuilding.buildingPanes.location\lPane.EnemyLocationPane.createEnemyLocations\lSetupComponents">
<polygon fill="white" stroke="black" points="430,-424 430,-476 682,-476 682,-424 430,-424"/>
<text text-anchor="start" x="438" y="-464" font-family="Helvetica,sans-Serif" font-size="10.00">gameAuthoring.scenes.path</text>
<text text-anchor="start" x="438" y="-453" font-family="Helvetica,sans-Serif" font-size="10.00">Building.buildingPanes.location</text>
<text text-anchor="start" x="438" y="-442" font-family="Helvetica,sans-Serif" font-size="10.00">Pane.EnemyLocationPane.createEnemyLocations</text>
<text text-anchor="middle" x="556" y="-431" font-family="Helvetica,sans-Serif" font-size="10.00">SetupComponents</text>
</a>
</g>
</g>
<!-- Node2&#45;&gt;Node26 -->
<g id="edge29" class="edge"><title>Node2&#45;&gt;Node26</title>
<path fill="none" stroke="midnightblue" d="M314.937,-694.017C327.593,-646.267 361.804,-541.841 430,-486 434.456,-482.352 439.264,-479.073 444.31,-476.126"/>
<polygon fill="midnightblue" stroke="midnightblue" points="311.514,-693.277 312.43,-703.832 318.296,-695.01 311.514,-693.277"/>
</g>
<!-- Node27 -->
<g id="node27" class="node"><title>Node27</title>
<g id="a_node27"><a xlink:href="../../d5/d35/classgame_authoring_1_1scenes_1_1path_building_1_1building_panes_1_1location_pane_1_1_enemy_starting_locations_pane.html#a10c40052b7617364122bc439c83468cc" target="_top" xlink:title="gameAuthoring.scenes.path\lBuilding.buildingPanes.location\lPane.EnemyStartingLocationsPane.Enemy\lStartingLocationsPane">
<polygon fill="white" stroke="black" points="446.5,-353 446.5,-405 665.5,-405 665.5,-353 446.5,-353"/>
<text text-anchor="start" x="454.5" y="-393" font-family="Helvetica,sans-Serif" font-size="10.00">gameAuthoring.scenes.path</text>
<text text-anchor="start" x="454.5" y="-382" font-family="Helvetica,sans-Serif" font-size="10.00">Building.buildingPanes.location</text>
<text text-anchor="start" x="454.5" y="-371" font-family="Helvetica,sans-Serif" font-size="10.00">Pane.EnemyStartingLocationsPane.Enemy</text>
<text text-anchor="middle" x="556" y="-360" font-family="Helvetica,sans-Serif" font-size="10.00">StartingLocationsPane</text>
</a>
</g>
</g>
<!-- Node2&#45;&gt;Node27 -->
<g id="edge30" class="edge"><title>Node2&#45;&gt;Node27</title>
<path fill="none" stroke="midnightblue" d="M311.518,-693.87C318.713,-635.682 344.693,-490.814 430,-414 435.024,-409.476 440.587,-405.532 446.494,-402.093"/>
<polygon fill="midnightblue" stroke="midnightblue" points="308.018,-693.664 310.35,-703.999 314.972,-694.466 308.018,-693.664"/>
</g>
<!-- Node28 -->
<g id="node28" class="node"><title>Node28</title>
<g id="a_node28"><a xlink:href="../../de/d8c/classgame_authoring_1_1scenes_1_1_welcome_scene.html#a866dc21e004064b967b5687ceab763db" target="_top" xlink:title="gameAuthoring.scenes.Welcome\lScene.createLanguageComboBox">
<polygon fill="white" stroke="black" points="466,-304 466,-334 646,-334 646,-304 466,-304"/>
<text text-anchor="start" x="474" y="-322" font-family="Helvetica,sans-Serif" font-size="10.00">gameAuthoring.scenes.Welcome</text>
<text text-anchor="middle" x="556" y="-311" font-family="Helvetica,sans-Serif" font-size="10.00">Scene.createLanguageComboBox</text>
</a>
</g>
</g>
<!-- Node2&#45;&gt;Node28 -->
<g id="edge31" class="edge"><title>Node2&#45;&gt;Node28</title>
<path fill="none" stroke="midnightblue" d="M308.912,-693.734C310.14,-625.674 323.479,-437.291 430,-343 440.176,-333.992 452.677,-327.927 465.798,-323.911"/>
<polygon fill="midnightblue" stroke="midnightblue" points="305.41,-693.909 308.805,-703.945 312.409,-693.982 305.41,-693.909"/>
</g>
<!-- Node29 -->
<g id="node29" class="node"><title>Node29</title>
<g id="a_node29"><a xlink:href="../../de/d8c/classgame_authoring_1_1scenes_1_1_welcome_scene.html#a69ab0fa818d20fde67677728b0ef2dd6" target="_top" xlink:title="gameAuthoring.scenes.Welcome\lScene.createWelcomeLabel">
<polygon fill="white" stroke="black" points="725.5,-282 725.5,-312 898.5,-312 898.5,-282 725.5,-282"/>
<text text-anchor="start" x="733.5" y="-300" font-family="Helvetica,sans-Serif" font-size="10.00">gameAuthoring.scenes.Welcome</text>
<text text-anchor="middle" x="812" y="-289" font-family="Helvetica,sans-Serif" font-size="10.00">Scene.createWelcomeLabel</text>
</a>
</g>
</g>
<!-- Node2&#45;&gt;Node29 -->
<g id="edge34" class="edge"><title>Node2&#45;&gt;Node29</title>
<path fill="none" stroke="midnightblue" d="M312.241,-693.697C323.545,-609.866 364.161,-343.711 430,-294 474.74,-260.22 627.261,-272.487 725.223,-284.634"/>
<polygon fill="midnightblue" stroke="midnightblue" points="308.768,-693.263 310.924,-703.636 315.707,-694.183 308.768,-693.263"/>
</g>
<!-- Node31 -->
<g id="node31" class="node"><title>Node31</title>
<g id="a_node31"><a xlink:href="../../d3/dee/classgame_player_1_1main_classes_1_1welcome_screen_1_1_game_start_manager.html#a306af611e85c84fc7d2d297403407df9" target="_top" xlink:title="gamePlayer.mainClasses.welcome\lScreen.GameStartManager.GameStart\lManager">
<polygon fill="white" stroke="black" points="454,-205.5 454,-246.5 658,-246.5 658,-205.5 454,-205.5"/>
<text text-anchor="start" x="462" y="-234.5" font-family="Helvetica,sans-Serif" font-size="10.00">gamePlayer.mainClasses.welcome</text>
<text text-anchor="start" x="462" y="-223.5" font-family="Helvetica,sans-Serif" font-size="10.00">Screen.GameStartManager.GameStart</text>
<text text-anchor="middle" x="556" y="-212.5" font-family="Helvetica,sans-Serif" font-size="10.00">Manager</text>
</a>
</g>
</g>
<!-- Node2&#45;&gt;Node31 -->
<g id="edge35" class="edge"><title>Node2&#45;&gt;Node31</title>
<path fill="none" stroke="midnightblue" d="M312.331,-693.885C324.276,-607.484 367.585,-324.34 430,-261 436.881,-254.017 445.032,-248.397 453.824,-243.878"/>
<polygon fill="midnightblue" stroke="midnightblue" points="308.855,-693.477 310.972,-703.858 315.79,-694.423 308.855,-693.477"/>
</g>
<!-- Node32 -->
<g id="node32" class="node"><title>Node32</title>
<g id="a_node32"><a xlink:href="../../d8/d38/classutilities_1_1error_popup_1_1_error_popup.html#aa2bf9c6eced2d46cec95ca1ce6cd226d" target="_top" xlink:title="utilities.errorPopup.Error\lPopup.ErrorPopup">
<polygon fill="white" stroke="black" points="489.5,-157 489.5,-187 622.5,-187 622.5,-157 489.5,-157"/>
<text text-anchor="start" x="497.5" y="-175" font-family="Helvetica,sans-Serif" font-size="10.00">utilities.errorPopup.Error</text>
<text text-anchor="middle" x="556" y="-164" font-family="Helvetica,sans-Serif" font-size="10.00">Popup.ErrorPopup</text>
</a>
</g>
</g>
<!-- Node2&#45;&gt;Node32 -->
<g id="edge36" class="edge"><title>Node2&#45;&gt;Node32</title>
<path fill="none" stroke="midnightblue" d="M311.236,-693.917C320.176,-599.438 356.468,-266.814 430,-196 445.758,-180.825 468.022,-173.797 489.403,-170.886"/>
<polygon fill="midnightblue" stroke="midnightblue" points="307.741,-693.708 310.303,-703.989 314.711,-694.354 307.741,-693.708"/>
</g>
<!-- Node33 -->
<g id="node33" class="node"><title>Node33</title>
<g id="a_node33"><a xlink:href="../../d8/dbd/classutilities_1_1_java_f_xutilities_1_1numerical_text_fields_1_1_labeled_numerical_text_field.html#affbc684dac45ee438e089cb0b8d12f6a" target="_top" xlink:title="utilities.JavaFXutilities.numerical\lTextFields.LabeledNumericalTextField.\lLabeledNumericalTextField">
<polygon fill="white" stroke="black" points="459,-97.5 459,-138.5 653,-138.5 653,-97.5 459,-97.5"/>
<text text-anchor="start" x="467" y="-126.5" font-family="Helvetica,sans-Serif" font-size="10.00">utilities.JavaFXutilities.numerical</text>
<text text-anchor="start" x="467" y="-115.5" font-family="Helvetica,sans-Serif" font-size="10.00">TextFields.LabeledNumericalTextField.</text>
<text text-anchor="middle" x="556" y="-104.5" font-family="Helvetica,sans-Serif" font-size="10.00">LabeledNumericalTextField</text>
</a>
</g>
</g>
<!-- Node2&#45;&gt;Node33 -->
<g id="edge37" class="edge"><title>Node2&#45;&gt;Node33</title>
<path fill="none" stroke="midnightblue" d="M310.816,-693.64C318.505,-593.467 351.65,-226.893 430,-147 438.111,-138.729 448.085,-132.622 458.829,-128.14"/>
<polygon fill="midnightblue" stroke="midnightblue" points="307.316,-693.52 310.058,-703.754 314.296,-694.044 307.316,-693.52"/>
</g>
<!-- Node34 -->
<g id="node34" class="node"><title>Node34</title>
<g id="a_node34"><a xlink:href="../../d7/d46/classutilities_1_1_java_f_xutilities_1_1slider_1_1_slider_container.html#aba4fdac1f850502f43d40f59e64045ce" target="_top" xlink:title="utilities.JavaFXutilities.slider.\lSliderContainer.getNameLabel">
<polygon fill="white" stroke="black" points="474.5,-49 474.5,-79 637.5,-79 637.5,-49 474.5,-49"/>
<text text-anchor="start" x="482.5" y="-67" font-family="Helvetica,sans-Serif" font-size="10.00">utilities.JavaFXutilities.slider.</text>
<text text-anchor="middle" x="556" y="-56" font-family="Helvetica,sans-Serif" font-size="10.00">SliderContainer.getNameLabel</text>
</a>
</g>
</g>
<!-- Node2&#45;&gt;Node34 -->
<g id="edge38" class="edge"><title>Node2&#45;&gt;Node34</title>
<path fill="none" stroke="midnightblue" d="M310.175,-693.748C315.662,-587.185 342.31,-175.71 430,-88 441.952,-76.0451 457.923,-69.092 474.444,-65.2188"/>
<polygon fill="midnightblue" stroke="midnightblue" points="306.672,-693.727 309.671,-703.888 313.664,-694.075 306.672,-693.727"/>
</g>
<!-- Node36 -->
<g id="node36" class="node"><title>Node36</title>
<g id="a_node36"><a xlink:href="../../d2/d00/classutilities_1_1multilanguage_1_1_example_main.html#a1f3bdebfd815129b4077dff7d1402bb9" target="_top" xlink:title="utilities.multilanguage.\lExampleMain.start">
<polygon fill="white" stroke="black" points="493.5,-0 493.5,-30 618.5,-30 618.5,-0 493.5,-0"/>
<text text-anchor="start" x="501.5" y="-18" font-family="Helvetica,sans-Serif" font-size="10.00">utilities.multilanguage.</text>
<text text-anchor="middle" x="556" y="-7" font-family="Helvetica,sans-Serif" font-size="10.00">ExampleMain.start</text>
</a>
</g>
</g>
<!-- Node2&#45;&gt;Node36 -->
<g id="edge40" class="edge"><title>Node2&#45;&gt;Node36</title>
<path fill="none" stroke="midnightblue" d="M309.801,-693.624C313.864,-581.812 335.864,-134.424 430,-39 446.45,-22.3248 470.708,-15.344 493.488,-12.8884"/>
<polygon fill="midnightblue" stroke="midnightblue" points="306.293,-693.814 309.444,-703.929 313.289,-694.056 306.293,-693.814"/>
</g>
<!-- Node5 -->
<g id="node5" class="node"><title>Node5</title>
<g id="a_node5"><a xlink:href="../../d5/de6/classgame_authoring_1_1scenes_1_1actor_building_scenes_1_1_actor_building_scene.html#af797c48013cb5e0b128c5e184056a90d" target="_top" xlink:title="gameAuthoring.scenes.actor\lBuildingScenes.ActorBuildingScene.\lActorBuildingScene">
<polygon fill="white" stroke="black" points="718,-1273.5 718,-1314.5 906,-1314.5 906,-1273.5 718,-1273.5"/>
<text text-anchor="start" x="726" y="-1302.5" font-family="Helvetica,sans-Serif" font-size="10.00">gameAuthoring.scenes.actor</text>
<text text-anchor="start" x="726" y="-1291.5" font-family="Helvetica,sans-Serif" font-size="10.00">BuildingScenes.ActorBuildingScene.</text>
<text text-anchor="middle" x="812" y="-1280.5" font-family="Helvetica,sans-Serif" font-size="10.00">ActorBuildingScene</text>
</a>
</g>
</g>
<!-- Node4&#45;&gt;Node5 -->
<g id="edge4" class="edge"><title>Node4&#45;&gt;Node5</title>
<path fill="none" stroke="midnightblue" d="M673.821,-1310.2C688.621,-1308.45 703.606,-1306.68 717.965,-1304.99"/>
<polygon fill="midnightblue" stroke="midnightblue" points="673.135,-1306.76 663.615,-1311.41 673.956,-1313.71 673.135,-1306.76"/>
</g>
<!-- Node6&#45;&gt;Node5 -->
<g id="edge6" class="edge"><title>Node6&#45;&gt;Node5</title>
<path fill="none" stroke="midnightblue" d="M676.045,-1278.06C690.126,-1279.72 704.339,-1281.4 717.987,-1283.01"/>
<polygon fill="midnightblue" stroke="midnightblue" points="676.166,-1274.55 665.824,-1276.85 675.345,-1281.5 676.166,-1274.55"/>
</g>
<!-- Node9 -->
<g id="node9" class="node"><title>Node9</title>
<g id="a_node9"><a xlink:href="../../d4/d18/classgame_authoring_1_1scenes_1_1actor_building_scenes_1_1behavior_builders_1_1_behavior_builder.html#ae1a23d1b64117ab91179f898b504b66d" target="_top" xlink:title="gameAuthoring.scenes.actor\lBuildingScenes.behaviorBuilders.\lBehaviorBuilder.BehaviorBuilder">
<polygon fill="white" stroke="black" points="724.5,-1123.5 724.5,-1164.5 899.5,-1164.5 899.5,-1123.5 724.5,-1123.5"/>
<text text-anchor="start" x="732.5" y="-1152.5" font-family="Helvetica,sans-Serif" font-size="10.00">gameAuthoring.scenes.actor</text>
<text text-anchor="start" x="732.5" y="-1141.5" font-family="Helvetica,sans-Serif" font-size="10.00">BuildingScenes.behaviorBuilders.</text>
<text text-anchor="middle" x="812" y="-1130.5" font-family="Helvetica,sans-Serif" font-size="10.00">BehaviorBuilder.BehaviorBuilder</text>
</a>
</g>
</g>
<!-- Node8&#45;&gt;Node9 -->
<g id="edge9" class="edge"><title>Node8&#45;&gt;Node9</title>
<path fill="none" stroke="midnightblue" d="M661.723,-1144C682.54,-1144 704.181,-1144 724.315,-1144"/>
<polygon fill="midnightblue" stroke="midnightblue" points="661.58,-1140.5 651.58,-1144 661.58,-1147.5 661.58,-1140.5"/>
</g>
<!-- Node13 -->
<g id="node13" class="node"><title>Node13</title>
<g id="a_node13"><a xlink:href="../../d4/d4e/classgame_authoring_1_1scenes_1_1_general_setting_scene.html#ab5d7d1efd2c3cecbebf9db0a99d05ab8" target="_top" xlink:title="gameAuthoring.scenes.General\lSettingScene.GeneralSettingScene">
<polygon fill="white" stroke="black" points="942,-911 942,-941 1128,-941 1128,-911 942,-911"/>
<text text-anchor="start" x="950" y="-929" font-family="Helvetica,sans-Serif" font-size="10.00">gameAuthoring.scenes.General</text>
<text text-anchor="middle" x="1035" y="-918" font-family="Helvetica,sans-Serif" font-size="10.00">SettingScene.GeneralSettingScene</text>
</a>
</g>
</g>
<!-- Node12&#45;&gt;Node13 -->
<g id="edge13" class="edge"><title>Node12&#45;&gt;Node13</title>
<path fill="none" stroke="midnightblue" d="M890.838,-957.742C915.463,-952.282 942.465,-946.295 966.319,-941.006"/>
<polygon fill="midnightblue" stroke="midnightblue" points="889.814,-954.384 880.809,-959.965 891.33,-961.218 889.814,-954.384"/>
</g>
<!-- Node15 -->
<g id="node15" class="node"><title>Node15</title>
<g id="a_node15"><a xlink:href="../../d4/d4e/classgame_authoring_1_1scenes_1_1_general_setting_scene.html#af02688df88ba8091f244385b1344ccad" target="_top" xlink:title="gameAuthoring.scenes.General\lSettingScene.createOptions">
<polygon fill="white" stroke="black" points="728,-911 728,-941 896,-941 896,-911 728,-911"/>
<text text-anchor="start" x="736" y="-929" font-family="Helvetica,sans-Serif" font-size="10.00">gameAuthoring.scenes.General</text>
<text text-anchor="middle" x="812" y="-918" font-family="Helvetica,sans-Serif" font-size="10.00">SettingScene.createOptions</text>
</a>
</g>
</g>
<!-- Node14&#45;&gt;Node15 -->
<g id="edge15" class="edge"><title>Node14&#45;&gt;Node15</title>
<path fill="none" stroke="midnightblue" d="M657.516,-929.021C680.812,-928.563 705.352,-928.08 727.809,-927.638"/>
<polygon fill="midnightblue" stroke="midnightblue" points="657.195,-925.527 647.266,-929.223 657.333,-932.526 657.195,-925.527"/>
</g>
<!-- Node15&#45;&gt;Node13 -->
<g id="edge16" class="edge"><title>Node15&#45;&gt;Node13</title>
<path fill="none" stroke="midnightblue" d="M906.477,-926C918.224,-926 930.233,-926 941.958,-926"/>
<polygon fill="midnightblue" stroke="midnightblue" points="906.236,-922.5 896.236,-926 906.236,-929.5 906.236,-922.5"/>
</g>
<!-- Node16&#45;&gt;Node13 -->
<g id="edge19" class="edge"><title>Node16&#45;&gt;Node13</title>
<path fill="none" stroke="midnightblue" d="M651.363,-884.138C721.751,-886.525 820.157,-891.536 906,-902 924.516,-904.257 944.391,-907.552 962.827,-910.981"/>
<polygon fill="midnightblue" stroke="midnightblue" points="651.295,-880.634 641.186,-883.804 651.066,-887.63 651.295,-880.634"/>
</g>
<!-- Node16&#45;&gt;Node15 -->
<g id="edge18" class="edge"><title>Node16&#45;&gt;Node15</title>
<path fill="none" stroke="midnightblue" d="M651.142,-898.308C676.314,-902.669 703.335,-907.349 727.867,-911.599"/>
<polygon fill="midnightblue" stroke="midnightblue" points="651.676,-894.849 641.226,-896.59 650.481,-901.746 651.676,-894.849"/>
</g>
<!-- Node19 -->
<g id="node19" class="node"><title>Node19</title>
<g id="a_node19"><a xlink:href="../../d4/d5e/classgame_authoring_1_1scenes_1_1level_building_1_1_level_building_scene.html#a8b556e86b4aef6b87a1be44f901cec69" target="_top" xlink:title="gameAuthoring.scenes.level\lBuilding.LevelBuildingScene.Level\lBuildingScene">
<polygon fill="white" stroke="black" points="723.5,-758.5 723.5,-799.5 900.5,-799.5 900.5,-758.5 723.5,-758.5"/>
<text text-anchor="start" x="731.5" y="-787.5" font-family="Helvetica,sans-Serif" font-size="10.00">gameAuthoring.scenes.level</text>
<text text-anchor="start" x="731.5" y="-776.5" font-family="Helvetica,sans-Serif" font-size="10.00">Building.LevelBuildingScene.Level</text>
<text text-anchor="middle" x="812" y="-765.5" font-family="Helvetica,sans-Serif" font-size="10.00">BuildingScene</text>
</a>
</g>
</g>
<!-- Node18&#45;&gt;Node19 -->
<g id="edge22" class="edge"><title>Node18&#45;&gt;Node19</title>
<path fill="none" stroke="midnightblue" d="M657.835,-779C679.516,-779 702.262,-779 723.392,-779"/>
<polygon fill="midnightblue" stroke="midnightblue" points="657.624,-775.5 647.624,-779 657.624,-782.5 657.624,-775.5"/>
</g>
<!-- Node21 -->
<g id="node21" class="node"><title>Node21</title>
<g id="a_node21"><a xlink:href="../../da/d10/classgame_authoring_1_1scenes_1_1level_building_1_1_level_display_cell.html#a7c364973b2428267a31e0a8e7be0238f" target="_top" xlink:title="gameAuthoring.scenes.level\lBuilding.LevelDisplayCell.Level\lDisplayCell">
<polygon fill="white" stroke="black" points="731.5,-698.5 731.5,-739.5 892.5,-739.5 892.5,-698.5 731.5,-698.5"/>
<text text-anchor="start" x="739.5" y="-727.5" font-family="Helvetica,sans-Serif" font-size="10.00">gameAuthoring.scenes.level</text>
<text text-anchor="start" x="739.5" y="-716.5" font-family="Helvetica,sans-Serif" font-size="10.00">Building.LevelDisplayCell.Level</text>
<text text-anchor="middle" x="812" y="-705.5" font-family="Helvetica,sans-Serif" font-size="10.00">DisplayCell</text>
</a>
</g>
</g>
<!-- Node20&#45;&gt;Node21 -->
<g id="edge24" class="edge"><title>Node20&#45;&gt;Node21</title>
<path fill="none" stroke="midnightblue" d="M649.933,-719C676.631,-719 705.499,-719 731.321,-719"/>
<polygon fill="midnightblue" stroke="midnightblue" points="649.818,-715.5 639.818,-719 649.818,-722.5 649.818,-715.5"/>
</g>
<!-- Node23 -->
<g id="node23" class="node"><title>Node23</title>
<g id="a_node23"><a xlink:href="../../d3/d46/classgame_authoring_1_1scenes_1_1path_building_1_1building_panes_1_1_building_option_pane.html#a7e59cacc33067d6ae78f9531f8f2730e" target="_top" xlink:title="gameAuthoring.scenes.path\lBuilding.buildingPanes.Building\lOptionPane.BuildingOptionPane">
<polygon fill="white" stroke="black" points="728.5,-632.5 728.5,-673.5 895.5,-673.5 895.5,-632.5 728.5,-632.5"/>
<text text-anchor="start" x="736.5" y="-661.5" font-family="Helvetica,sans-Serif" font-size="10.00">gameAuthoring.scenes.path</text>
<text text-anchor="start" x="736.5" y="-650.5" font-family="Helvetica,sans-Serif" font-size="10.00">Building.buildingPanes.Building</text>
<text text-anchor="middle" x="812" y="-639.5" font-family="Helvetica,sans-Serif" font-size="10.00">OptionPane.BuildingOptionPane</text>
</a>
</g>
</g>
<!-- Node22&#45;&gt;Node23 -->
<g id="edge26" class="edge"><title>Node22&#45;&gt;Node23</title>
<path fill="none" stroke="midnightblue" d="M670.753,-653C690.111,-653 709.883,-653 728.245,-653"/>
<polygon fill="midnightblue" stroke="midnightblue" points="670.678,-649.5 660.678,-653 670.678,-656.5 670.678,-649.5"/>
</g>
<!-- Node28&#45;&gt;Node29 -->
<g id="edge32" class="edge"><title>Node28&#45;&gt;Node29</title>
<path fill="none" stroke="midnightblue" d="M656.247,-310.404C679.103,-308.424 703.219,-306.335 725.436,-304.411"/>
<polygon fill="midnightblue" stroke="midnightblue" points="655.854,-306.925 646.194,-311.275 656.458,-313.899 655.854,-306.925"/>
</g>
<!-- Node30 -->
<g id="node30" class="node"><title>Node30</title>
<g id="a_node30"><a xlink:href="../../de/d8c/classgame_authoring_1_1scenes_1_1_welcome_scene.html#aee73cc3efe994102cc85662efaebdcc6" target="_top" xlink:title="gameAuthoring.scenes.Welcome\lScene.WelcomeScene">
<polygon fill="white" stroke="black" points="948.5,-282 948.5,-312 1121.5,-312 1121.5,-282 948.5,-282"/>
<text text-anchor="start" x="956.5" y="-300" font-family="Helvetica,sans-Serif" font-size="10.00">gameAuthoring.scenes.Welcome</text>
<text text-anchor="middle" x="1035" y="-289" font-family="Helvetica,sans-Serif" font-size="10.00">Scene.WelcomeScene</text>
</a>
</g>
</g>
<!-- Node29&#45;&gt;Node30 -->
<g id="edge33" class="edge"><title>Node29&#45;&gt;Node30</title>
<path fill="none" stroke="midnightblue" d="M909.136,-297C922.162,-297 935.46,-297 948.288,-297"/>
<polygon fill="midnightblue" stroke="midnightblue" points="908.761,-293.5 898.761,-297 908.761,-300.5 908.761,-293.5"/>
</g>
<!-- Node35 -->
<g id="node35" class="node"><title>Node35</title>
<g id="a_node35"><a xlink:href="../../d7/d46/classutilities_1_1_java_f_xutilities_1_1slider_1_1_slider_container.html#a51d886a1acacfe4addd70bdb4975f883" target="_top" xlink:title="utilities.JavaFXutilities.slider.\lSliderContainer.SliderContainer">
<polygon fill="white" stroke="black" points="729,-49 729,-79 895,-79 895,-49 729,-49"/>
<text text-anchor="start" x="737" y="-67" font-family="Helvetica,sans-Serif" font-size="10.00">utilities.JavaFXutilities.slider.</text>
<text text-anchor="middle" x="812" y="-56" font-family="Helvetica,sans-Serif" font-size="10.00">SliderContainer.SliderContainer</text>
</a>
</g>
</g>
<!-- Node34&#45;&gt;Node35 -->
<g id="edge39" class="edge"><title>Node34&#45;&gt;Node35</title>
<path fill="none" stroke="midnightblue" d="M647.723,-64C674.153,-64 702.871,-64 728.747,-64"/>
<polygon fill="midnightblue" stroke="midnightblue" points="647.716,-60.5001 637.716,-64 647.716,-67.5001 647.716,-60.5001"/>
</g>
</g>
</svg>
        <g id="navigator" transform="translate(0 0)" fill="#404254">
                <rect fill="#f2f5e9" fill-opacity="0.5" stroke="#606060" stroke-width=".5" x="0" y="0" width="60" height="60"/>
                <use id="zoomplus" xlink:href="#zoomPlus" x="17" y="9" onmousedown="handleZoom(evt,'in')"/>
                <use id="zoomminus" xlink:href="#zoomMin" x="42" y="9" onmousedown="handleZoom(evt,'out')"/>
                <use id="reset" xlink:href="#resetDef" x="30" y="36" onmousedown="handleReset()"/>
                <g id="arrowUp" xlink:href="#dirArrow" transform="translate(30 24)" onmousedown="handlePan(0,-1)">
                  <use xlink:href="#rim" fill="#404040">
                        <set attributeName="fill" to="#808080" begin="arrowUp.mouseover" end="arrowUp.mouseout"/>
                  </use>
                  <path fill="none" stroke="white" stroke-width="1.5" d="M0,-3.0v7 M-2.5,-0.5L0,-3.0L2.5,-0.5"/>
                </g>
                <g id="arrowRight" xlink:href="#dirArrow" transform="rotate(90) translate(36 -43)" onmousedown="handlePan(1,0)">
                  <use xlink:href="#rim" fill="#404040">
                        <set attributeName="fill" to="#808080" begin="arrowRight.mouseover" end="arrowRight.mouseout"/>
                  </use>
                  <path fill="none" stroke="white" stroke-width="1.5" d="M0,-3.0v7 M-2.5,-0.5L0,-3.0L2.5,-0.5"/>
                </g>
                <g id="arrowDown" xlink:href="#dirArrow" transform="rotate(180) translate(-30 -48)" onmousedown="handlePan(0,1)">
                  <use xlink:href="#rim" fill="#404040">
                        <set attributeName="fill" to="#808080" begin="arrowDown.mouseover" end="arrowDown.mouseout"/>
                  </use>
                  <path fill="none" stroke="white" stroke-width="1.5" d="M0,-3.0v7 M-2.5,-0.5L0,-3.0L2.5,-0.5"/>
                </g>
                <g id="arrowLeft" xlink:href="#dirArrow" transform="rotate(270) translate(-36 17)" onmousedown="handlePan(-1,0)">
                  <use xlink:href="#rim" fill="#404040">
                        <set attributeName="fill" to="#808080" begin="arrowLeft.mouseover" end="arrowLeft.mouseout"/>
                  </use>
                  <path fill="none" stroke="white" stroke-width="1.5" d="M0,-3.0v7 M-2.5,-0.5L0,-3.0L2.5,-0.5"/>
                </g>
        </g>
        <svg viewBox="0 0 15 15" width="100%" height="30px" preserveAspectRatio="xMaxYMin meet">
         <g id="arrow_out" transform="scale(0.3 0.3)">
          <a xlink:href="classutilities_1_1multilanguage_1_1_multi_language_utility_a18c8cee78f923458998009428cd84970_icgraph_org.svg" target="_base">
           <rect id="button" ry="5" rx="5" y="6" x="6" height="38" width="38"
                fill="#f2f5e9" fill-opacity="0.5" stroke="#606060" stroke-width="1.0"/>
           <path id="arrow"
             d="M 11.500037,31.436501 C 11.940474,20.09759 22.043105,11.32322 32.158766,21.979434 L 37.068811,17.246167 C 37.068811,17.246167 37.088388,32 37.088388,32 L 22.160133,31.978069 C 22.160133,31.978069 26.997745,27.140456 26.997745,27.140456 C 18.528582,18.264221 13.291696,25.230495 11.500037,31.436501 z"
             style="fill:#404040;"/>
          </a>
         </g>
        </svg>
</svg>
