<?xml version="1.0" encoding="UTF-8" standalone="no"?>
<!DOCTYPE svg PUBLIC "-//W3C//DTD SVG 1.1//EN"
 "http://www.w3.org/Graphics/SVG/1.1/DTD/svg11.dtd">
<!-- Generated by graphviz version 2.36.0 (20140111.2315)
 -->
<!-- Title: utilities.multilanguage.MultiLanguageUtility.initLanguages Pages: 1 -->
<svg width="638pt" height="229pt"
 viewBox="0.00 0.00 638.00 229.00" xmlns="http://www.w3.org/2000/svg" xmlns:xlink="http://www.w3.org/1999/xlink">
<g id="graph0" class="graph" transform="scale(1 1) rotate(0) translate(4 225)">
<title>utilities.multilanguage.MultiLanguageUtility.initLanguages</title>
<polygon fill="white" stroke="none" points="-4,4 -4,-225 634,-225 634,4 -4,4"/>
<!-- Node1 -->
<g id="node1" class="node"><title>Node1</title>
<polygon fill="#bfbfbf" stroke="black" points="0,-95 0,-125 182,-125 182,-95 0,-95"/>
<text text-anchor="start" x="8" y="-113" font-family="Helvetica,sans-Serif" font-size="10.00">utilities.multilanguage.</text>
<text text-anchor="middle" x="91" y="-102" font-family="Helvetica,sans-Serif" font-size="10.00">MultiLanguageUtility.initLanguages</text>
</g>
<!-- Node2 -->
<g id="node2" class="node"><title>Node2</title>
<g id="a_node2"><a xlink:href="../../dc/d2e/classutilities_1_1multilanguage_1_1_multi_language_utility.html#a600c19aa976a0541b9b7b896dd822a8a" target="_top" xlink:title="utilities.multilanguage.\lMultiLanguageUtility.updateProperties">
<polygon fill="white" stroke="black" points="218.5,-95 218.5,-125 415.5,-125 415.5,-95 218.5,-95"/>
<text text-anchor="start" x="226.5" y="-113" font-family="Helvetica,sans-Serif" font-size="10.00">utilities.multilanguage.</text>
<text text-anchor="middle" x="317" y="-102" font-family="Helvetica,sans-Serif" font-size="10.00">MultiLanguageUtility.updateProperties</text>
</a>
</g>
</g>
<!-- Node1&#45;&gt;Node2 -->
<g id="edge1" class="edge"><title>Node1&#45;&gt;Node2</title>
<path fill="none" stroke="midnightblue" d="M182.141,-110C190.704,-110 199.445,-110 208.152,-110"/>
<polygon fill="midnightblue" stroke="midnightblue" points="208.345,-113.5 218.345,-110 208.345,-106.5 208.345,-113.5"/>
</g>
<!-- Node3 -->
<g id="node3" class="node"><title>Node3</title>
<g id="a_node3"><a xlink:href="../../dc/d2e/classutilities_1_1multilanguage_1_1_multi_language_utility.html#afd0f2ac6d018d23509016b80f8d50ce7" target="_top" xlink:title="utilities.multilanguage.\lMultiLanguageUtility.createString\lProperties">
<polygon fill="white" stroke="black" points="454,-179.5 454,-220.5 628,-220.5 628,-179.5 454,-179.5"/>
<text text-anchor="start" x="462" y="-208.5" font-family="Helvetica,sans-Serif" font-size="10.00">utilities.multilanguage.</text>
<text text-anchor="start" x="462" y="-197.5" font-family="Helvetica,sans-Serif" font-size="10.00">MultiLanguageUtility.createString</text>
<text text-anchor="middle" x="541" y="-186.5" font-family="Helvetica,sans-Serif" font-size="10.00">Properties</text>
</a>
</g>
</g>
<!-- Node2&#45;&gt;Node3 -->
<g id="edge2" class="edge"><title>Node2&#45;&gt;Node3</title>
<path fill="none" stroke="midnightblue" d="M350.202,-125.003C377.166,-137.366 416.782,-155.067 452,-169 457.832,-171.307 463.913,-173.626 470.034,-175.899"/>
<polygon fill="midnightblue" stroke="midnightblue" points="469.062,-179.271 479.656,-179.427 471.471,-172.698 469.062,-179.271"/>
</g>
<!-- Node4 -->
<g id="node4" class="node"><title>Node4</title>
<g id="a_node4"><a xlink:href="../../dc/d2e/classutilities_1_1multilanguage_1_1_multi_language_utility.html#afa95168fee718834254841c3d4c70f77" target="_top" xlink:title="utilities.multilanguage.\lMultiLanguageUtility.updateString\lProperties">
<polygon fill="white" stroke="black" points="452.5,-119.5 452.5,-160.5 629.5,-160.5 629.5,-119.5 452.5,-119.5"/>
<text text-anchor="start" x="460.5" y="-148.5" font-family="Helvetica,sans-Serif" font-size="10.00">utilities.multilanguage.</text>
<text text-anchor="start" x="460.5" y="-137.5" font-family="Helvetica,sans-Serif" font-size="10.00">MultiLanguageUtility.updateString</text>
<text text-anchor="middle" x="541" y="-126.5" font-family="Helvetica,sans-Serif" font-size="10.00">Properties</text>
</a>
</g>
</g>
<!-- Node2&#45;&gt;Node4 -->
<g id="edge3" class="edge"><title>Node2&#45;&gt;Node4</title>
<path fill="none" stroke="midnightblue" d="M415.695,-123.202C424.57,-124.401 433.56,-125.616 442.433,-126.815"/>
<polygon fill="midnightblue" stroke="midnightblue" points="442.011,-130.29 452.39,-128.161 442.949,-123.353 442.011,-130.29"/>
</g>
<!-- Node5 -->
<g id="node5" class="node"><title>Node5</title>
<g id="a_node5"><a xlink:href="../../dc/d2e/classutilities_1_1multilanguage_1_1_multi_language_utility.html#a4dac2710dd1f749cd1c5f3750a715dd6" target="_top" xlink:title="utilities.multilanguage.\lMultiLanguageUtility.createString\lListProperties">
<polygon fill="white" stroke="black" points="454,-59.5 454,-100.5 628,-100.5 628,-59.5 454,-59.5"/>
<text text-anchor="start" x="462" y="-88.5" font-family="Helvetica,sans-Serif" font-size="10.00">utilities.multilanguage.</text>
<text text-anchor="start" x="462" y="-77.5" font-family="Helvetica,sans-Serif" font-size="10.00">MultiLanguageUtility.createString</text>
<text text-anchor="middle" x="541" y="-66.5" font-family="Helvetica,sans-Serif" font-size="10.00">ListProperties</text>
</a>
</g>
</g>
<!-- Node2&#45;&gt;Node5 -->
<g id="edge4" class="edge"><title>Node2&#45;&gt;Node5</title>
<path fill="none" stroke="midnightblue" d="M415.695,-96.7979C425.007,-95.5396 434.446,-94.2641 443.744,-93.0076"/>
<polygon fill="midnightblue" stroke="midnightblue" points="444.324,-96.4611 453.765,-91.6534 443.386,-89.5242 444.324,-96.4611"/>
</g>
<!-- Node6 -->
<g id="node6" class="node"><title>Node6</title>
<g id="a_node6"><a xlink:href="../../dc/d2e/classutilities_1_1multilanguage_1_1_multi_language_utility.html#a6ec1064747fb29f38bc77ed9c665c974" target="_top" xlink:title="utilities.multilanguage.\lMultiLanguageUtility.updateString\lListProperties">
<polygon fill="white" stroke="black" points="452.5,0.5 452.5,-40.5 629.5,-40.5 629.5,0.5 452.5,0.5"/>
<text text-anchor="start" x="460.5" y="-28.5" font-family="Helvetica,sans-Serif" font-size="10.00">utilities.multilanguage.</text>
<text text-anchor="start" x="460.5" y="-17.5" font-family="Helvetica,sans-Serif" font-size="10.00">MultiLanguageUtility.updateString</text>
<text text-anchor="middle" x="541" y="-6.5" font-family="Helvetica,sans-Serif" font-size="10.00">ListProperties</text>
</a>
</g>
</g>
<!-- Node2&#45;&gt;Node6 -->
<g id="edge5" class="edge"><title>Node2&#45;&gt;Node6</title>
<path fill="none" stroke="midnightblue" d="M349.327,-94.9835C376.264,-82.3112 416.301,-64.0427 452,-50 457.07,-48.0058 462.332,-46.0161 467.648,-44.0642"/>
<polygon fill="midnightblue" stroke="midnightblue" points="469.028,-47.287 477.245,-40.5989 466.651,-40.703 469.028,-47.287"/>
</g>
</g>
</svg>
