<?xml version="1.0" encoding="UTF-8" standalone="no"?>
<!DOCTYPE svg PUBLIC "-//W3C//DTD SVG 1.1//EN"
 "http://www.w3.org/Graphics/SVG/1.1/DTD/svg11.dtd">
<!-- Generated by graphviz version 2.36.0 (20140111.2315)
 -->
<!-- Title: utilities.multilanguage.MultiLanguageUtility.getInstance Pages: 1 -->
<!--zoomable 1401 -->
<svg id="main" version="1.1" xmlns="http://www.w3.org/2000/svg" xmlns:xlink="http://www.w3.org/1999/xlink" xml:space="preserve" onload="init(evt)">
<style type="text/css"><![CDATA[
.edge:hover path { stroke: red; }
.edge:hover polygon { stroke: red; fill: red; }
]]></style>
<script type="text/javascript"><![CDATA[
var edges = document.getElementsByTagName('g');
if (edges && edges.length) {
  for (var i=0;i<edges.length;i++) {
    if (edges[i].id.substr(0,4)=='edge') {
      edges[i].setAttribute('class','edge');
    }
  }
}
]]></script>
        <defs>
                <circle id="rim" cx="0" cy="0" r="7"/>
                <circle id="rim2" cx="0" cy="0" r="3.5"/>
                <g id="zoomPlus">
                        <use xlink:href="#rim" fill="#404040">
                                <set attributeName="fill" to="#808080" begin="zoomplus.mouseover" end="zoomplus.mouseout"/>
                        </use>
                        <path d="M-4,0h8M0,-4v8" fill="none" stroke="white" stroke-width="1.5" pointer-events="none"/>
                </g>
                <g id="zoomMin">
                        <use xlink:href="#rim" fill="#404040">
                                <set attributeName="fill" to="#808080" begin="zoomminus.mouseover" end="zoomminus.mouseout"/>
                        </use>
                        <path d="M-4,0h8" fill="none" stroke="white" stroke-width="1.5" pointer-events="none"/>
                </g>
                <g id="dirArrow">
                        <path fill="none" stroke="white" stroke-width="1.5" d="M0,-3.0v7 M-2.5,-0.5L0,-3.0L2.5,-0.5"/>
                </g>
               <g id="resetDef">
                       <use xlink:href="#rim2" fill="#404040">
                               <set attributeName="fill" to="#808080" begin="reset.mouseover" end="reset.mouseout"/>
                       </use>
               </g>
        </defs>

<script type="text/javascript">
var viewWidth = 914;
var viewHeight = 1401;
var sectionId = 'dynsection-10';
</script>
<script xlink:href="../../svgpan.js"/>
<svg id="graph" class="graph">
<g id="viewport">
<title>utilities.multilanguage.MultiLanguageUtility.getInstance</title>
<polygon fill="white" stroke="none" points="-4,4 -4,-1397 910,-1397 910,4 -4,4"/>
<!-- Node1 -->
<g id="node1" class="node"><title>Node1</title>
<polygon fill="#bfbfbf" stroke="black" points="0.5,-697 0.5,-727 171.5,-727 171.5,-697 0.5,-697"/>
<text text-anchor="start" x="8.5" y="-715" font-family="Helvetica,sans-Serif" font-size="10.00">utilities.multilanguage.</text>
<text text-anchor="middle" x="86" y="-704" font-family="Helvetica,sans-Serif" font-size="10.00">MultiLanguageUtility.getInstance</text>
</g>
<!-- Node2 -->
<g id="node2" class="node"><title>Node2</title>
<g id="a_node2"><a xlink:href="../../d9/d27/classgame_authoring_1_1scenes_1_1actor_building_scenes_1_1_building_scene_menu.html#aef13ed61991c11df13a4de25b4b4dd9e" target="_top" xlink:title="gameAuthoring.scenes.actor\lBuildingScenes.BuildingSceneMenu.\lBuildingSceneMenu">
<polygon fill="white" stroke="black" points="239.5,-1351.5 239.5,-1392.5 428.5,-1392.5 428.5,-1351.5 239.5,-1351.5"/>
<text text-anchor="start" x="247.5" y="-1380.5" font-family="Helvetica,sans-Serif" font-size="10.00">gameAuthoring.scenes.actor</text>
<text text-anchor="start" x="247.5" y="-1369.5" font-family="Helvetica,sans-Serif" font-size="10.00">BuildingScenes.BuildingSceneMenu.</text>
<text text-anchor="middle" x="334" y="-1358.5" font-family="Helvetica,sans-Serif" font-size="10.00">BuildingSceneMenu</text>
</a>
</g>
</g>
<!-- Node1&#45;&gt;Node2 -->
<g id="edge1" class="edge"><title>Node1&#45;&gt;Node2</title>
<path fill="none" stroke="midnightblue" d="M88.33,-737.399C94.4092,-843.683 123.01,-1251.38 208,-1341 216.693,-1350.17 227.637,-1356.8 239.416,-1361.56"/>
<polygon fill="midnightblue" stroke="midnightblue" points="91.817,-737.065 87.7677,-727.275 84.8278,-737.454 91.817,-737.065"/>
</g>
<!-- Node3 -->
<g id="node3" class="node"><title>Node3</title>
<g id="a_node3"><a xlink:href="../../d4/d18/classgame_authoring_1_1scenes_1_1actor_building_scenes_1_1behavior_builders_1_1_behavior_builder.html#ae31d7ecff5286c98dc1e15e850ad5dc2" target="_top" xlink:title="gameAuthoring.scenes.actor\lBuildingScenes.behaviorBuilders.\lBehaviorBuilder.createCenterDisplay">
<polygon fill="white" stroke="black" points="238.5,-1291.5 238.5,-1332.5 429.5,-1332.5 429.5,-1291.5 238.5,-1291.5"/>
<text text-anchor="start" x="246.5" y="-1320.5" font-family="Helvetica,sans-Serif" font-size="10.00">gameAuthoring.scenes.actor</text>
<text text-anchor="start" x="246.5" y="-1309.5" font-family="Helvetica,sans-Serif" font-size="10.00">BuildingScenes.behaviorBuilders.</text>
<text text-anchor="middle" x="334" y="-1298.5" font-family="Helvetica,sans-Serif" font-size="10.00">BehaviorBuilder.createCenterDisplay</text>
</a>
</g>
</g>
<!-- Node1&#45;&gt;Node3 -->
<g id="edge2" class="edge"><title>Node1&#45;&gt;Node3</title>
<path fill="none" stroke="midnightblue" d="M88.9926,-737.253C97.3015,-836.264 132.341,-1196.5 208,-1277 216.411,-1285.95 226.906,-1292.68 238.217,-1297.72"/>
<polygon fill="midnightblue" stroke="midnightblue" points="92.4574,-736.68 88.1502,-727.001 85.4809,-737.254 92.4574,-736.68"/>
</g>
<!-- Node5 -->
<g id="node5" class="node"><title>Node5</title>
<g id="a_node5"><a xlink:href="../../d5/de6/classgame_authoring_1_1scenes_1_1actor_building_scenes_1_1_actor_building_scene.html#a202b5536ad1f0cc370567fb4224940a9" target="_top" xlink:title="gameAuthoring.scenes.actor\lBuildingScenes.ActorBuildingScene.create\lCenterDisplay">
<polygon fill="white" stroke="black" points="224.5,-757.5 224.5,-798.5 443.5,-798.5 443.5,-757.5 224.5,-757.5"/>
<text text-anchor="start" x="232.5" y="-786.5" font-family="Helvetica,sans-Serif" font-size="10.00">gameAuthoring.scenes.actor</text>
<text text-anchor="start" x="232.5" y="-775.5" font-family="Helvetica,sans-Serif" font-size="10.00">BuildingScenes.ActorBuildingScene.create</text>
<text text-anchor="middle" x="334" y="-764.5" font-family="Helvetica,sans-Serif" font-size="10.00">CenterDisplay</text>
</a>
</g>
</g>
<!-- Node1&#45;&gt;Node5 -->
<g id="edge4" class="edge"><title>Node1&#45;&gt;Node5</title>
<path fill="none" stroke="midnightblue" d="M147.126,-729.886C166.513,-735.521 188.126,-741.663 208,-747 220.956,-750.479 234.706,-754.03 248.165,-757.428"/>
<polygon fill="midnightblue" stroke="midnightblue" points="148.089,-726.521 137.509,-727.08 146.128,-733.241 148.089,-726.521"/>
</g>
<!-- Node7 -->
<g id="node7" class="node"><title>Node7</title>
<g id="a_node7"><a xlink:href="../../d1/d13/classgame_authoring_1_1scenes_1_1actor_building_scenes_1_1actor_list_view_1_1_created_enemies_display.html#ae01639d37a9f069037c9054a4c856e39" target="_top" xlink:title="gameAuthoring.scenes.actor\lBuildingScenes.actorListView.Created\lEnemiesDisplay.CreatedEnemiesDisplay">
<polygon fill="white" stroke="black" points="230,-1193.5 230,-1234.5 438,-1234.5 438,-1193.5 230,-1193.5"/>
<text text-anchor="start" x="238" y="-1222.5" font-family="Helvetica,sans-Serif" font-size="10.00">gameAuthoring.scenes.actor</text>
<text text-anchor="start" x="238" y="-1211.5" font-family="Helvetica,sans-Serif" font-size="10.00">BuildingScenes.actorListView.Created</text>
<text text-anchor="middle" x="334" y="-1200.5" font-family="Helvetica,sans-Serif" font-size="10.00">EnemiesDisplay.CreatedEnemiesDisplay</text>
</a>
</g>
</g>
<!-- Node1&#45;&gt;Node7 -->
<g id="edge6" class="edge"><title>Node1&#45;&gt;Node7</title>
<path fill="none" stroke="midnightblue" d="M90.0823,-737.301C101.345,-825.653 143.038,-1118.58 208,-1183 214.35,-1189.3 221.768,-1194.38 229.764,-1198.48"/>
<polygon fill="midnightblue" stroke="midnightblue" points="93.5228,-736.607 88.8048,-727.121 86.5773,-737.479 93.5228,-736.607"/>
</g>
<!-- Node8 -->
<g id="node8" class="node"><title>Node8</title>
<g id="a_node8"><a xlink:href="../../da/d08/classgame_authoring_1_1scenes_1_1path_building_1_1building_panes_1_1location_pane_1_1_enemy_location_pane.html#a810180887fe760c237a987e98e48b13d" target="_top" xlink:title="gameAuthoring.scenes.path\lBuilding.buildingPanes.location\lPane.EnemyLocationPane.createEnemyLocations\lSetupComponents">
<polygon fill="white" stroke="black" points="208,-1122 208,-1174 460,-1174 460,-1122 208,-1122"/>
<text text-anchor="start" x="216" y="-1162" font-family="Helvetica,sans-Serif" font-size="10.00">gameAuthoring.scenes.path</text>
<text text-anchor="start" x="216" y="-1151" font-family="Helvetica,sans-Serif" font-size="10.00">Building.buildingPanes.location</text>
<text text-anchor="start" x="216" y="-1140" font-family="Helvetica,sans-Serif" font-size="10.00">Pane.EnemyLocationPane.createEnemyLocations</text>
<text text-anchor="middle" x="334" y="-1129" font-family="Helvetica,sans-Serif" font-size="10.00">SetupComponents</text>
</a>
</g>
</g>
<!-- Node1&#45;&gt;Node8 -->
<g id="edge7" class="edge"><title>Node1&#45;&gt;Node8</title>
<path fill="none" stroke="midnightblue" d="M86.8323,-737.377C87.7964,-807.517 100.4,-1005.83 208,-1112 211.697,-1115.65 215.739,-1118.93 220.034,-1121.89"/>
<polygon fill="midnightblue" stroke="midnightblue" points="90.3315,-737.23 86.7647,-727.254 83.3316,-737.277 90.3315,-737.23"/>
</g>
<!-- Node9 -->
<g id="node9" class="node"><title>Node9</title>
<g id="a_node9"><a xlink:href="../../d4/d4e/classgame_authoring_1_1scenes_1_1_general_setting_scene.html#a4f44696aea3309d395971fedf4525b95" target="_top" xlink:title="gameAuthoring.scenes.General\lSettingScene.createFieldWithLabel">
<polygon fill="white" stroke="black" points="243,-817 243,-847 425,-847 425,-817 243,-817"/>
<text text-anchor="start" x="251" y="-835" font-family="Helvetica,sans-Serif" font-size="10.00">gameAuthoring.scenes.General</text>
<text text-anchor="middle" x="334" y="-824" font-family="Helvetica,sans-Serif" font-size="10.00">SettingScene.createFieldWithLabel</text>
</a>
</g>
</g>
<!-- Node1&#45;&gt;Node9 -->
<g id="edge8" class="edge"><title>Node1&#45;&gt;Node9</title>
<path fill="none" stroke="midnightblue" d="M108.858,-734.469C131.566,-756.437 169.155,-789.114 208,-807 218.956,-812.045 230.912,-816.074 242.947,-819.293"/>
<polygon fill="midnightblue" stroke="midnightblue" points="111.048,-731.713 101.469,-727.187 106.135,-736.699 111.048,-731.713"/>
</g>
<!-- Node12 -->
<g id="node12" class="node"><title>Node12</title>
<g id="a_node12"><a xlink:href="../../d4/d4e/classgame_authoring_1_1scenes_1_1_general_setting_scene.html#a8d31d7a9457faf57b3436c221acd9a89" target="_top" xlink:title="gameAuthoring.scenes.General\lSettingScene.createHeadingLabel">
<polygon fill="white" stroke="black" points="500,-1032 500,-1062 680,-1062 680,-1032 500,-1032"/>
<text text-anchor="start" x="508" y="-1050" font-family="Helvetica,sans-Serif" font-size="10.00">gameAuthoring.scenes.General</text>
<text text-anchor="middle" x="590" y="-1039" font-family="Helvetica,sans-Serif" font-size="10.00">SettingScene.createHeadingLabel</text>
</a>
</g>
</g>
<!-- Node1&#45;&gt;Node12 -->
<g id="edge11" class="edge"><title>Node1&#45;&gt;Node12</title>
<path fill="none" stroke="midnightblue" d="M88.1409,-737.329C92.4041,-798.496 112.581,-954.346 208,-1024 252.825,-1056.72 402.1,-1056.47 499.953,-1052.39"/>
<polygon fill="midnightblue" stroke="midnightblue" points="91.6165,-736.821 87.5155,-727.052 84.6294,-737.246 91.6165,-736.821"/>
</g>
<!-- Node13 -->
<g id="node13" class="node"><title>Node13</title>
<g id="a_node13"><a xlink:href="../../de/d8c/classgame_authoring_1_1scenes_1_1_welcome_scene.html#a866dc21e004064b967b5687ceab763db" target="_top" xlink:title="gameAuthoring.scenes.Welcome\lScene.createLanguageComboBox">
<polygon fill="white" stroke="black" points="244,-1073 244,-1103 424,-1103 424,-1073 244,-1073"/>
<text text-anchor="start" x="252" y="-1091" font-family="Helvetica,sans-Serif" font-size="10.00">gameAuthoring.scenes.Welcome</text>
<text text-anchor="middle" x="334" y="-1080" font-family="Helvetica,sans-Serif" font-size="10.00">Scene.createLanguageComboBox</text>
</a>
</g>
</g>
<!-- Node1&#45;&gt;Node13 -->
<g id="edge13" class="edge"><title>Node1&#45;&gt;Node13</title>
<path fill="none" stroke="midnightblue" d="M87.9629,-737.185C91.8232,-801.053 111.158,-970.465 208,-1058 218.182,-1067.2 230.686,-1073.72 243.809,-1078.3"/>
<polygon fill="midnightblue" stroke="midnightblue" points="91.458,-736.998 87.4363,-727.197 84.4678,-737.367 91.458,-736.998"/>
</g>
<!-- Node14 -->
<g id="node14" class="node"><title>Node14</title>
<g id="a_node14"><a xlink:href="../../de/d8c/classgame_authoring_1_1scenes_1_1_welcome_scene.html#a69ab0fa818d20fde67677728b0ef2dd6" target="_top" xlink:title="gameAuthoring.scenes.Welcome\lScene.createWelcomeLabel">
<polygon fill="white" stroke="black" points="503.5,-1162 503.5,-1192 676.5,-1192 676.5,-1162 503.5,-1162"/>
<text text-anchor="start" x="511.5" y="-1180" font-family="Helvetica,sans-Serif" font-size="10.00">gameAuthoring.scenes.Welcome</text>
<text text-anchor="middle" x="590" y="-1169" font-family="Helvetica,sans-Serif" font-size="10.00">Scene.createWelcomeLabel</text>
</a>
</g>
</g>
<!-- Node1&#45;&gt;Node14 -->
<g id="edge23" class="edge"><title>Node1&#45;&gt;Node14</title>
<path fill="none" stroke="midnightblue" d="M88.7269,-737.307C95.9016,-834.048 126.867,-1178.28 208,-1243 317.154,-1330.08 500.452,-1232.08 565.352,-1192.27"/>
<polygon fill="midnightblue" stroke="midnightblue" points="92.2123,-736.977 88.0019,-727.255 85.2305,-737.481 92.2123,-736.977"/>
</g>
<!-- Node16 -->
<g id="node16" class="node"><title>Node16</title>
<g id="a_node16"><a xlink:href="../../da/d10/classgame_authoring_1_1scenes_1_1level_building_1_1_level_display_cell.html#a93ed835bb4a955bda9d8ddafee12a537" target="_top" xlink:title="gameAuthoring.scenes.level\lBuilding.LevelDisplayCell.create\lLevelInfoBox">
<polygon fill="white" stroke="black" points="250.5,-974.5 250.5,-1015.5 417.5,-1015.5 417.5,-974.5 250.5,-974.5"/>
<text text-anchor="start" x="258.5" y="-1003.5" font-family="Helvetica,sans-Serif" font-size="10.00">gameAuthoring.scenes.level</text>
<text text-anchor="start" x="258.5" y="-992.5" font-family="Helvetica,sans-Serif" font-size="10.00">Building.LevelDisplayCell.create</text>
<text text-anchor="middle" x="334" y="-981.5" font-family="Helvetica,sans-Serif" font-size="10.00">LevelInfoBox</text>
</a>
</g>
</g>
<!-- Node1&#45;&gt;Node16 -->
<g id="edge16" class="edge"><title>Node1&#45;&gt;Node16</title>
<path fill="none" stroke="midnightblue" d="M91.6573,-737.102C102.471,-788.072 134.202,-903.94 208,-964 220.226,-973.95 235.198,-980.771 250.476,-985.431"/>
<polygon fill="midnightblue" stroke="midnightblue" points="95.0778,-736.359 89.6596,-727.254 88.2176,-737.75 95.0778,-736.359"/>
</g>
<!-- Node18 -->
<g id="node18" class="node"><title>Node18</title>
<g id="a_node18"><a xlink:href="../../d4/d5e/classgame_authoring_1_1scenes_1_1level_building_1_1_level_building_scene.html#a1378893d8197db294380765fbf2d72db" target="_top" xlink:title="gameAuthoring.scenes.level\lBuilding.LevelBuildingScene.create\lMenuAndAddNewLevelOption">
<polygon fill="white" stroke="black" points="242.5,-914.5 242.5,-955.5 425.5,-955.5 425.5,-914.5 242.5,-914.5"/>
<text text-anchor="start" x="250.5" y="-943.5" font-family="Helvetica,sans-Serif" font-size="10.00">gameAuthoring.scenes.level</text>
<text text-anchor="start" x="250.5" y="-932.5" font-family="Helvetica,sans-Serif" font-size="10.00">Building.LevelBuildingScene.create</text>
<text text-anchor="middle" x="334" y="-921.5" font-family="Helvetica,sans-Serif" font-size="10.00">MenuAndAddNewLevelOption</text>
</a>
</g>
</g>
<!-- Node1&#45;&gt;Node18 -->
<g id="edge18" class="edge"><title>Node1&#45;&gt;Node18</title>
<path fill="none" stroke="midnightblue" d="M95.3953,-736.697C110.827,-778.217 147.754,-861.701 208,-905 218.239,-912.359 230.048,-917.931 242.234,-922.146"/>
<polygon fill="midnightblue" stroke="midnightblue" points="98.6179,-735.316 91.934,-727.096 92.0327,-737.69 98.6179,-735.316"/>
</g>
<!-- Node20 -->
<g id="node20" class="node"><title>Node20</title>
<g id="a_node20"><a xlink:href="../../d4/d4e/classgame_authoring_1_1scenes_1_1_general_setting_scene.html#a9282c877dfdbca9fc95ae068ddcc45c4" target="_top" xlink:title="gameAuthoring.scenes.General\lSettingScene.createNextButton">
<polygon fill="white" stroke="black" points="249,-866 249,-896 419,-896 419,-866 249,-866"/>
<text text-anchor="start" x="257" y="-884" font-family="Helvetica,sans-Serif" font-size="10.00">gameAuthoring.scenes.General</text>
<text text-anchor="middle" x="334" y="-873" font-family="Helvetica,sans-Serif" font-size="10.00">SettingScene.createNextButton</text>
</a>
</g>
</g>
<!-- Node1&#45;&gt;Node20 -->
<g id="edge20" class="edge"><title>Node1&#45;&gt;Node20</title>
<path fill="none" stroke="midnightblue" d="M100.093,-735.996C119.253,-768.672 158.134,-826.468 208,-856 220.377,-863.33 234.528,-868.55 248.753,-872.258"/>
<polygon fill="midnightblue" stroke="midnightblue" points="103.009,-734.045 95.004,-727.105 96.9342,-737.522 103.009,-734.045"/>
</g>
<!-- Node21 -->
<g id="node21" class="node"><title>Node21</title>
<g id="a_node21"><a xlink:href="../../d7/db2/classgame_authoring_1_1scenes_1_1path_building_1_1building_panes_1_1location_pane_1_1_enemy_ending_locations_pane.html#a0258666bc94d8721be382d35a7f512a9" target="_top" xlink:title="gameAuthoring.scenes.path\lBuilding.buildingPanes.location\lPane.EnemyEndingLocationsPane.EnemyEnding\lLocationsPane">
<polygon fill="white" stroke="black" points="211.5,-686 211.5,-738 456.5,-738 456.5,-686 211.5,-686"/>
<text text-anchor="start" x="219.5" y="-726" font-family="Helvetica,sans-Serif" font-size="10.00">gameAuthoring.scenes.path</text>
<text text-anchor="start" x="219.5" y="-715" font-family="Helvetica,sans-Serif" font-size="10.00">Building.buildingPanes.location</text>
<text text-anchor="start" x="219.5" y="-704" font-family="Helvetica,sans-Serif" font-size="10.00">Pane.EnemyEndingLocationsPane.EnemyEnding</text>
<text text-anchor="middle" x="334" y="-693" font-family="Helvetica,sans-Serif" font-size="10.00">LocationsPane</text>
</a>
</g>
</g>
<!-- Node1&#45;&gt;Node21 -->
<g id="edge24" class="edge"><title>Node1&#45;&gt;Node21</title>
<path fill="none" stroke="midnightblue" d="M181.66,-712C191.354,-712 201.296,-712 211.227,-712"/>
<polygon fill="midnightblue" stroke="midnightblue" points="181.659,-708.5 171.659,-712 181.659,-715.5 181.659,-708.5"/>
</g>
<!-- Node22 -->
<g id="node22" class="node"><title>Node22</title>
<g id="a_node22"><a xlink:href="../../da/d08/classgame_authoring_1_1scenes_1_1path_building_1_1building_panes_1_1location_pane_1_1_enemy_location_pane.html#a200d026e7679a4e8849625f8b4202b92" target="_top" xlink:title="gameAuthoring.scenes.path\lBuilding.buildingPanes.location\lPane.EnemyLocationPane.EnemyLocationPane">
<polygon fill="white" stroke="black" points="214.5,-625.5 214.5,-666.5 453.5,-666.5 453.5,-625.5 214.5,-625.5"/>
<text text-anchor="start" x="222.5" y="-654.5" font-family="Helvetica,sans-Serif" font-size="10.00">gameAuthoring.scenes.path</text>
<text text-anchor="start" x="222.5" y="-643.5" font-family="Helvetica,sans-Serif" font-size="10.00">Building.buildingPanes.location</text>
<text text-anchor="middle" x="334" y="-632.5" font-family="Helvetica,sans-Serif" font-size="10.00">Pane.EnemyLocationPane.EnemyLocationPane</text>
</a>
</g>
</g>
<!-- Node1&#45;&gt;Node22 -->
<g id="edge25" class="edge"><title>Node1&#45;&gt;Node22</title>
<path fill="none" stroke="midnightblue" d="M147.126,-694.114C166.513,-688.479 188.126,-682.337 208,-677 220.956,-673.521 234.706,-669.97 248.165,-666.572"/>
<polygon fill="midnightblue" stroke="midnightblue" points="146.128,-690.759 137.509,-696.92 148.089,-697.479 146.128,-690.759"/>
</g>
<!-- Node23 -->
<g id="node23" class="node"><title>Node23</title>
<g id="a_node23"><a xlink:href="../../d5/d35/classgame_authoring_1_1scenes_1_1path_building_1_1building_panes_1_1location_pane_1_1_enemy_starting_locations_pane.html#a10c40052b7617364122bc439c83468cc" target="_top" xlink:title="gameAuthoring.scenes.path\lBuilding.buildingPanes.location\lPane.EnemyStartingLocationsPane.Enemy\lStartingLocationsPane">
<polygon fill="white" stroke="black" points="224.5,-554 224.5,-606 443.5,-606 443.5,-554 224.5,-554"/>
<text text-anchor="start" x="232.5" y="-594" font-family="Helvetica,sans-Serif" font-size="10.00">gameAuthoring.scenes.path</text>
<text text-anchor="start" x="232.5" y="-583" font-family="Helvetica,sans-Serif" font-size="10.00">Building.buildingPanes.location</text>
<text text-anchor="start" x="232.5" y="-572" font-family="Helvetica,sans-Serif" font-size="10.00">Pane.EnemyStartingLocationsPane.Enemy</text>
<text text-anchor="middle" x="334" y="-561" font-family="Helvetica,sans-Serif" font-size="10.00">StartingLocationsPane</text>
</a>
</g>
</g>
<!-- Node1&#45;&gt;Node23 -->
<g id="edge26" class="edge"><title>Node1&#45;&gt;Node23</title>
<path fill="none" stroke="midnightblue" d="M109.527,-689.597C132.491,-667.918 170.04,-635.548 208,-616 215.027,-612.381 222.469,-609.079 230.082,-606.074"/>
<polygon fill="midnightblue" stroke="midnightblue" points="106.831,-687.333 102.035,-696.781 111.676,-692.385 106.831,-687.333"/>
</g>
<!-- Node24 -->
<g id="node24" class="node"><title>Node24</title>
<g id="a_node24"><a xlink:href="../../d8/d38/classutilities_1_1error_popup_1_1_error_popup.html#aa2bf9c6eced2d46cec95ca1ce6cd226d" target="_top" xlink:title="utilities.errorPopup.Error\lPopup.ErrorPopup">
<polygon fill="white" stroke="black" points="267.5,-505 267.5,-535 400.5,-535 400.5,-505 267.5,-505"/>
<text text-anchor="start" x="275.5" y="-523" font-family="Helvetica,sans-Serif" font-size="10.00">utilities.errorPopup.Error</text>
<text text-anchor="middle" x="334" y="-512" font-family="Helvetica,sans-Serif" font-size="10.00">Popup.ErrorPopup</text>
</a>
</g>
</g>
<!-- Node1&#45;&gt;Node24 -->
<g id="edge27" class="edge"><title>Node1&#45;&gt;Node24</title>
<path fill="none" stroke="midnightblue" d="M97.6377,-687.246C114.99,-650.027 153.053,-580.265 208,-545 225.508,-533.764 247.012,-527.408 267.216,-523.864"/>
<polygon fill="midnightblue" stroke="midnightblue" points="94.2365,-686.272 93.2959,-696.825 100.612,-689.162 94.2365,-686.272"/>
</g>
<!-- Node25 -->
<g id="node25" class="node"><title>Node25</title>
<g id="a_node25"><a xlink:href="../../d3/dee/classgame_player_1_1main_classes_1_1welcome_screen_1_1_game_start_manager.html#a306af611e85c84fc7d2d297403407df9" target="_top" xlink:title="gamePlayer.mainClasses.welcome\lScreen.GameStartManager.GameStart\lManager">
<polygon fill="white" stroke="black" points="232,-445.5 232,-486.5 436,-486.5 436,-445.5 232,-445.5"/>
<text text-anchor="start" x="240" y="-474.5" font-family="Helvetica,sans-Serif" font-size="10.00">gamePlayer.mainClasses.welcome</text>
<text text-anchor="start" x="240" y="-463.5" font-family="Helvetica,sans-Serif" font-size="10.00">Screen.GameStartManager.GameStart</text>
<text text-anchor="middle" x="334" y="-452.5" font-family="Helvetica,sans-Serif" font-size="10.00">Manager</text>
</a>
</g>
</g>
<!-- Node1&#45;&gt;Node25 -->
<g id="edge28" class="edge"><title>Node1&#45;&gt;Node25</title>
<path fill="none" stroke="midnightblue" d="M93.657,-687.289C107.19,-641.976 142.339,-545.694 208,-496 215.207,-490.545 223.263,-486.066 231.717,-482.389"/>
<polygon fill="midnightblue" stroke="midnightblue" points="90.2922,-686.325 90.8839,-696.904 97.0181,-688.265 90.2922,-686.325"/>
</g>
<!-- Node26 -->
<g id="node26" class="node"><title>Node26</title>
<g id="a_node26"><a xlink:href="../../d7/d46/classutilities_1_1_java_f_xutilities_1_1slider_1_1_slider_container.html#aba4fdac1f850502f43d40f59e64045ce" target="_top" xlink:title="utilities.JavaFXutilities.slider.\lSliderContainer.getNameLabel">
<polygon fill="white" stroke="black" points="252.5,-169 252.5,-199 415.5,-199 415.5,-169 252.5,-169"/>
<text text-anchor="start" x="260.5" y="-187" font-family="Helvetica,sans-Serif" font-size="10.00">utilities.JavaFXutilities.slider.</text>
<text text-anchor="middle" x="334" y="-176" font-family="Helvetica,sans-Serif" font-size="10.00">SliderContainer.getNameLabel</text>
</a>
</g>
</g>
<!-- Node1&#45;&gt;Node26 -->
<g id="edge29" class="edge"><title>Node1&#45;&gt;Node26</title>
<path fill="none" stroke="midnightblue" d="M89.5005,-686.629C99.152,-593.979 137.026,-275.787 208,-208 220.065,-196.477 235.886,-189.663 252.198,-185.783"/>
<polygon fill="midnightblue" stroke="midnightblue" points="85.9982,-686.474 88.463,-696.778 92.9619,-687.186 85.9982,-686.474"/>
</g>
<!-- Node28 -->
<g id="node28" class="node"><title>Node28</title>
<g id="a_node28"><a xlink:href="../../d0/de5/classgame_authoring_1_1scenes_1_1_g_s_o_n_writing_scene.html#a0773319e35d1c6ef190417215b39f5f4" target="_top" xlink:title="gameAuthoring.scenes.GSONWriting\lScene.GSONWritingScene">
<polygon fill="white" stroke="black" points="238.5,-337 238.5,-367 429.5,-367 429.5,-337 238.5,-337"/>
<text text-anchor="start" x="246.5" y="-355" font-family="Helvetica,sans-Serif" font-size="10.00">gameAuthoring.scenes.GSONWriting</text>
<text text-anchor="middle" x="334" y="-344" font-family="Helvetica,sans-Serif" font-size="10.00">Scene.GSONWritingScene</text>
</a>
</g>
</g>
<!-- Node1&#45;&gt;Node28 -->
<g id="edge31" class="edge"><title>Node1&#45;&gt;Node28</title>
<path fill="none" stroke="midnightblue" d="M88.0359,-686.437C92.0646,-623.138 111.757,-458.292 208,-376 216.818,-368.461 227.276,-363.004 238.331,-359.094"/>
<polygon fill="midnightblue" stroke="midnightblue" points="84.5259,-686.522 87.4665,-696.701 91.5152,-686.91 84.5259,-686.522"/>
</g>
<!-- Node29 -->
<g id="node29" class="node"><title>Node29</title>
<g id="a_node29"><a xlink:href="../../d8/dbd/classutilities_1_1_java_f_xutilities_1_1numerical_text_fields_1_1_labeled_numerical_text_field.html#affbc684dac45ee438e089cb0b8d12f6a" target="_top" xlink:title="utilities.JavaFXutilities.numerical\lTextFields.LabeledNumericalTextField.\lLabeledNumericalTextField">
<polygon fill="white" stroke="black" points="237,-277.5 237,-318.5 431,-318.5 431,-277.5 237,-277.5"/>
<text text-anchor="start" x="245" y="-306.5" font-family="Helvetica,sans-Serif" font-size="10.00">utilities.JavaFXutilities.numerical</text>
<text text-anchor="start" x="245" y="-295.5" font-family="Helvetica,sans-Serif" font-size="10.00">TextFields.LabeledNumericalTextField.</text>
<text text-anchor="middle" x="334" y="-284.5" font-family="Helvetica,sans-Serif" font-size="10.00">LabeledNumericalTextField</text>
</a>
</g>
</g>
<!-- Node1&#45;&gt;Node29 -->
<g id="edge32" class="edge"><title>Node1&#45;&gt;Node29</title>
<path fill="none" stroke="midnightblue" d="M86.9631,-686.477C88.3207,-617.675 101.956,-426.898 208,-328 216.324,-320.237 226.292,-314.377 236.919,-309.969"/>
<polygon fill="midnightblue" stroke="midnightblue" points="83.4595,-686.755 86.8366,-696.797 90.459,-686.841 83.4595,-686.755"/>
</g>
<!-- Node30 -->
<g id="node30" class="node"><title>Node30</title>
<g id="a_node30"><a xlink:href="../../de/d35/classgame_authoring_1_1scenes_1_1actor_building_scenes_1_1_projectile_pane.html#a078b1fa5e6bf1ecfc14a5775ed98981c" target="_top" xlink:title="gameAuthoring.scenes.actor\lBuildingScenes.ProjectilePane.\lProjectilePane">
<polygon fill="white" stroke="black" points="253,-217.5 253,-258.5 415,-258.5 415,-217.5 253,-217.5"/>
<text text-anchor="start" x="261" y="-246.5" font-family="Helvetica,sans-Serif" font-size="10.00">gameAuthoring.scenes.actor</text>
<text text-anchor="start" x="261" y="-235.5" font-family="Helvetica,sans-Serif" font-size="10.00">BuildingScenes.ProjectilePane.</text>
<text text-anchor="middle" x="334" y="-224.5" font-family="Helvetica,sans-Serif" font-size="10.00">ProjectilePane</text>
</a>
</g>
</g>
<!-- Node1&#45;&gt;Node30 -->
<g id="edge33" class="edge"><title>Node1&#45;&gt;Node30</title>
<path fill="none" stroke="midnightblue" d="M90.4785,-686.74C102.684,-601.724 146.191,-327.951 208,-268 220.255,-256.113 236.348,-248.652 252.891,-244.032"/>
<polygon fill="midnightblue" stroke="midnightblue" points="86.991,-686.406 89.055,-696.798 93.9219,-687.387 86.991,-686.406"/>
</g>
<!-- Node31 -->
<g id="node31" class="node"><title>Node31</title>
<g id="a_node31"><a xlink:href="../../d5/de6/classgame_authoring_1_1scenes_1_1actor_building_scenes_1_1_actor_building_scene.html#a4b14803e395701d52cf61ed9a1ef0229" target="_top" xlink:title="gameAuthoring.scenes.actor\lBuildingScenes.ActorBuildingScene.setup\lFileMenu">
<polygon fill="white" stroke="black" points="226.5,-385.5 226.5,-426.5 441.5,-426.5 441.5,-385.5 226.5,-385.5"/>
<text text-anchor="start" x="234.5" y="-414.5" font-family="Helvetica,sans-Serif" font-size="10.00">gameAuthoring.scenes.actor</text>
<text text-anchor="start" x="234.5" y="-403.5" font-family="Helvetica,sans-Serif" font-size="10.00">BuildingScenes.ActorBuildingScene.setup</text>
<text text-anchor="middle" x="334" y="-392.5" font-family="Helvetica,sans-Serif" font-size="10.00">FileMenu</text>
</a>
</g>
</g>
<!-- Node1&#45;&gt;Node31 -->
<g id="edge34" class="edge"><title>Node1&#45;&gt;Node31</title>
<path fill="none" stroke="midnightblue" d="M90.4736,-686.818C99.3783,-632.268 128.219,-502.735 208,-436 213.564,-431.346 219.729,-427.391 226.254,-424.031"/>
<polygon fill="midnightblue" stroke="midnightblue" points="86.9717,-686.563 88.907,-696.98 93.8899,-687.63 86.9717,-686.563"/>
</g>
<!-- Node32 -->
<g id="node32" class="node"><title>Node32</title>
<g id="a_node32"><a xlink:href="../../d3/d46/classgame_authoring_1_1scenes_1_1path_building_1_1building_panes_1_1_building_option_pane.html#a3e09bb25aa5b4f387e37a8f80e3b59e6" target="_top" xlink:title="gameAuthoring.scenes.path\lBuilding.buildingPanes.Building\lOptionPane.setupOptionsBoxGraphically\lAndDisplayLabel">
<polygon fill="white" stroke="black" points="229.5,-98 229.5,-150 438.5,-150 438.5,-98 229.5,-98"/>
<text text-anchor="start" x="237.5" y="-138" font-family="Helvetica,sans-Serif" font-size="10.00">gameAuthoring.scenes.path</text>
<text text-anchor="start" x="237.5" y="-127" font-family="Helvetica,sans-Serif" font-size="10.00">Building.buildingPanes.Building</text>
<text text-anchor="start" x="237.5" y="-116" font-family="Helvetica,sans-Serif" font-size="10.00">OptionPane.setupOptionsBoxGraphically</text>
<text text-anchor="middle" x="334" y="-105" font-family="Helvetica,sans-Serif" font-size="10.00">AndDisplayLabel</text>
</a>
</g>
</g>
<!-- Node1&#45;&gt;Node32 -->
<g id="edge36" class="edge"><title>Node1&#45;&gt;Node32</title>
<path fill="none" stroke="midnightblue" d="M89.1533,-686.701C97.9533,-589.108 134.268,-238.657 208,-160 214.178,-153.409 221.477,-147.999 229.396,-143.562"/>
<polygon fill="midnightblue" stroke="midnightblue" points="85.6523,-686.558 88.2578,-696.827 92.6251,-687.175 85.6523,-686.558"/>
</g>
<!-- Node34 -->
<g id="node34" class="node"><title>Node34</title>
<g id="a_node34"><a xlink:href="../../d2/d00/classutilities_1_1multilanguage_1_1_example_main.html#a1f3bdebfd815129b4077dff7d1402bb9" target="_top" xlink:title="utilities.multilanguage.\lExampleMain.start">
<polygon fill="white" stroke="black" points="271.5,-49 271.5,-79 396.5,-79 396.5,-49 271.5,-49"/>
<text text-anchor="start" x="279.5" y="-67" font-family="Helvetica,sans-Serif" font-size="10.00">utilities.multilanguage.</text>
<text text-anchor="middle" x="334" y="-56" font-family="Helvetica,sans-Serif" font-size="10.00">ExampleMain.start</text>
</a>
</g>
</g>
<!-- Node1&#45;&gt;Node34 -->
<g id="edge38" class="edge"><title>Node1&#45;&gt;Node34</title>
<path fill="none" stroke="midnightblue" d="M88.2616,-686.739C94.0646,-581.046 121.707,-175.774 208,-89 224.464,-72.4444 248.587,-65.2883 271.261,-62.5963"/>
<polygon fill="midnightblue" stroke="midnightblue" points="84.7623,-686.635 87.726,-696.807 91.7524,-687.007 84.7623,-686.635"/>
</g>
<!-- Node35 -->
<g id="node35" class="node"><title>Node35</title>
<g id="a_node35"><a xlink:href="../../d6/d87/classgame_authoring_1_1mainclasses_1_1_author_controller.html#ae542dc4fa7cdb6ede23dee41b5070676" target="_top" xlink:title="gameAuthoring.mainclasses.\lAuthorController.start">
<polygon fill="white" stroke="black" points="256,-0 256,-30 412,-30 412,-0 256,-0"/>
<text text-anchor="start" x="264" y="-18" font-family="Helvetica,sans-Serif" font-size="10.00">gameAuthoring.mainclasses.</text>
<text text-anchor="middle" x="334" y="-7" font-family="Helvetica,sans-Serif" font-size="10.00">AuthorController.start</text>
</a>
</g>
</g>
<!-- Node1&#45;&gt;Node35 -->
<g id="edge39" class="edge"><title>Node1&#45;&gt;Node35</title>
<path fill="none" stroke="midnightblue" d="M87.8799,-686.578C92.2537,-575.546 115.305,-134.497 208,-40 220.708,-27.0449 238.1,-19.8241 255.872,-15.9933"/>
<polygon fill="midnightblue" stroke="midnightblue" points="84.373,-686.697 87.4933,-696.822 91.3681,-686.961 84.373,-686.697"/>
</g>
<!-- Node4 -->
<g id="node4" class="node"><title>Node4</title>
<g id="a_node4"><a xlink:href="../../d4/d18/classgame_authoring_1_1scenes_1_1actor_building_scenes_1_1behavior_builders_1_1_behavior_builder.html#ae1a23d1b64117ab91179f898b504b66d" target="_top" xlink:title="gameAuthoring.scenes.actor\lBuildingScenes.behaviorBuilders.\lBehaviorBuilder.BehaviorBuilder">
<polygon fill="white" stroke="black" points="502.5,-1291.5 502.5,-1332.5 677.5,-1332.5 677.5,-1291.5 502.5,-1291.5"/>
<text text-anchor="start" x="510.5" y="-1320.5" font-family="Helvetica,sans-Serif" font-size="10.00">gameAuthoring.scenes.actor</text>
<text text-anchor="start" x="510.5" y="-1309.5" font-family="Helvetica,sans-Serif" font-size="10.00">BuildingScenes.behaviorBuilders.</text>
<text text-anchor="middle" x="590" y="-1298.5" font-family="Helvetica,sans-Serif" font-size="10.00">BehaviorBuilder.BehaviorBuilder</text>
</a>
</g>
</g>
<!-- Node3&#45;&gt;Node4 -->
<g id="edge3" class="edge"><title>Node3&#45;&gt;Node4</title>
<path fill="none" stroke="midnightblue" d="M439.723,-1312C460.54,-1312 482.181,-1312 502.315,-1312"/>
<polygon fill="midnightblue" stroke="midnightblue" points="439.58,-1308.5 429.58,-1312 439.58,-1315.5 439.58,-1308.5"/>
</g>
<!-- Node6 -->
<g id="node6" class="node"><title>Node6</title>
<g id="a_node6"><a xlink:href="../../d5/de6/classgame_authoring_1_1scenes_1_1actor_building_scenes_1_1_actor_building_scene.html#af797c48013cb5e0b128c5e184056a90d" target="_top" xlink:title="gameAuthoring.scenes.actor\lBuildingScenes.ActorBuildingScene.\lActorBuildingScene">
<polygon fill="white" stroke="black" points="496,-571.5 496,-612.5 684,-612.5 684,-571.5 496,-571.5"/>
<text text-anchor="start" x="504" y="-600.5" font-family="Helvetica,sans-Serif" font-size="10.00">gameAuthoring.scenes.actor</text>
<text text-anchor="start" x="504" y="-589.5" font-family="Helvetica,sans-Serif" font-size="10.00">BuildingScenes.ActorBuildingScene.</text>
<text text-anchor="middle" x="590" y="-578.5" font-family="Helvetica,sans-Serif" font-size="10.00">ActorBuildingScene</text>
</a>
</g>
</g>
<!-- Node5&#45;&gt;Node6 -->
<g id="edge5" class="edge"><title>Node5&#45;&gt;Node6</title>
<path fill="none" stroke="midnightblue" d="M448.877,-753.24C452.708,-751.314 456.43,-749.238 460,-747 515.176,-712.416 558.273,-646.263 577.716,-612.672"/>
<polygon fill="midnightblue" stroke="midnightblue" points="447.356,-750.087 439.756,-757.469 450.301,-756.438 447.356,-750.087"/>
</g>
<!-- Node10 -->
<g id="node10" class="node"><title>Node10</title>
<g id="a_node10"><a xlink:href="../../d4/d4e/classgame_authoring_1_1scenes_1_1_general_setting_scene.html#af02688df88ba8091f244385b1344ccad" target="_top" xlink:title="gameAuthoring.scenes.General\lSettingScene.createOptions">
<polygon fill="white" stroke="black" points="506,-823 506,-853 674,-853 674,-823 506,-823"/>
<text text-anchor="start" x="514" y="-841" font-family="Helvetica,sans-Serif" font-size="10.00">gameAuthoring.scenes.General</text>
<text text-anchor="middle" x="590" y="-830" font-family="Helvetica,sans-Serif" font-size="10.00">SettingScene.createOptions</text>
</a>
</g>
</g>
<!-- Node9&#45;&gt;Node10 -->
<g id="edge9" class="edge"><title>Node9&#45;&gt;Node10</title>
<path fill="none" stroke="midnightblue" d="M435.516,-834.374C458.812,-834.925 483.352,-835.504 505.809,-836.035"/>
<polygon fill="midnightblue" stroke="midnightblue" points="435.346,-830.869 425.266,-834.132 435.181,-837.868 435.346,-830.869"/>
</g>
<!-- Node11 -->
<g id="node11" class="node"><title>Node11</title>
<g id="a_node11"><a xlink:href="../../d4/d4e/classgame_authoring_1_1scenes_1_1_general_setting_scene.html#ab5d7d1efd2c3cecbebf9db0a99d05ab8" target="_top" xlink:title="gameAuthoring.scenes.General\lSettingScene.GeneralSettingScene">
<polygon fill="white" stroke="black" points="720,-867 720,-897 906,-897 906,-867 720,-867"/>
<text text-anchor="start" x="728" y="-885" font-family="Helvetica,sans-Serif" font-size="10.00">gameAuthoring.scenes.General</text>
<text text-anchor="middle" x="813" y="-874" font-family="Helvetica,sans-Serif" font-size="10.00">SettingScene.GeneralSettingScene</text>
</a>
</g>
</g>
<!-- Node10&#45;&gt;Node11 -->
<g id="edge10" class="edge"><title>Node10&#45;&gt;Node11</title>
<path fill="none" stroke="midnightblue" d="M676.375,-854.998C696.2,-858.945 717.164,-863.119 736.527,-866.974"/>
<polygon fill="midnightblue" stroke="midnightblue" points="676.929,-851.539 666.438,-853.019 675.562,-858.405 676.929,-851.539"/>
</g>
<!-- Node12&#45;&gt;Node11 -->
<g id="edge12" class="edge"><title>Node12&#45;&gt;Node11</title>
<path fill="none" stroke="midnightblue" d="M673.225,-1027.77C676.95,-1026.01 680.563,-1024.09 684,-1022 738.307,-988.974 783.481,-926.173 802.426,-897.263"/>
<polygon fill="midnightblue" stroke="midnightblue" points="671.58,-1024.67 663.771,-1031.83 674.341,-1031.1 671.58,-1024.67"/>
</g>
<!-- Node13&#45;&gt;Node14 -->
<g id="edge14" class="edge"><title>Node13&#45;&gt;Node14</title>
<path fill="none" stroke="midnightblue" d="M434.174,-1105.32C442.988,-1107.62 451.707,-1110.17 460,-1113 497.619,-1125.84 538.271,-1147.42 563.677,-1161.93"/>
<polygon fill="midnightblue" stroke="midnightblue" points="434.75,-1101.86 424.201,-1102.84 433.06,-1108.65 434.75,-1101.86"/>
</g>
<!-- Node15 -->
<g id="node15" class="node"><title>Node15</title>
<g id="a_node15"><a xlink:href="../../de/d8c/classgame_authoring_1_1scenes_1_1_welcome_scene.html#aee73cc3efe994102cc85662efaebdcc6" target="_top" xlink:title="gameAuthoring.scenes.Welcome\lScene.WelcomeScene">
<polygon fill="white" stroke="black" points="726.5,-1162 726.5,-1192 899.5,-1192 899.5,-1162 726.5,-1162"/>
<text text-anchor="start" x="734.5" y="-1180" font-family="Helvetica,sans-Serif" font-size="10.00">gameAuthoring.scenes.Welcome</text>
<text text-anchor="middle" x="813" y="-1169" font-family="Helvetica,sans-Serif" font-size="10.00">Scene.WelcomeScene</text>
</a>
</g>
</g>
<!-- Node14&#45;&gt;Node15 -->
<g id="edge15" class="edge"><title>Node14&#45;&gt;Node15</title>
<path fill="none" stroke="midnightblue" d="M687.136,-1177C700.162,-1177 713.46,-1177 726.288,-1177"/>
<polygon fill="midnightblue" stroke="midnightblue" points="686.761,-1173.5 676.761,-1177 686.761,-1180.5 686.761,-1173.5"/>
</g>
<!-- Node17 -->
<g id="node17" class="node"><title>Node17</title>
<g id="a_node17"><a xlink:href="../../da/d10/classgame_authoring_1_1scenes_1_1level_building_1_1_level_display_cell.html#a7c364973b2428267a31e0a8e7be0238f" target="_top" xlink:title="gameAuthoring.scenes.level\lBuilding.LevelDisplayCell.Level\lDisplayCell">
<polygon fill="white" stroke="black" points="509.5,-972.5 509.5,-1013.5 670.5,-1013.5 670.5,-972.5 509.5,-972.5"/>
<text text-anchor="start" x="517.5" y="-1001.5" font-family="Helvetica,sans-Serif" font-size="10.00">gameAuthoring.scenes.level</text>
<text text-anchor="start" x="517.5" y="-990.5" font-family="Helvetica,sans-Serif" font-size="10.00">Building.LevelDisplayCell.Level</text>
<text text-anchor="middle" x="590" y="-979.5" font-family="Helvetica,sans-Serif" font-size="10.00">DisplayCell</text>
</a>
</g>
</g>
<!-- Node16&#45;&gt;Node17 -->
<g id="edge17" class="edge"><title>Node16&#45;&gt;Node17</title>
<path fill="none" stroke="midnightblue" d="M427.933,-994.268C454.631,-994.058 483.499,-993.831 509.321,-993.627"/>
<polygon fill="midnightblue" stroke="midnightblue" points="427.79,-990.769 417.818,-994.348 427.845,-997.769 427.79,-990.769"/>
</g>
<!-- Node19 -->
<g id="node19" class="node"><title>Node19</title>
<g id="a_node19"><a xlink:href="../../d4/d5e/classgame_authoring_1_1scenes_1_1level_building_1_1_level_building_scene.html#a8b556e86b4aef6b87a1be44f901cec69" target="_top" xlink:title="gameAuthoring.scenes.level\lBuilding.LevelBuildingScene.Level\lBuildingScene">
<polygon fill="white" stroke="black" points="501.5,-912.5 501.5,-953.5 678.5,-953.5 678.5,-912.5 501.5,-912.5"/>
<text text-anchor="start" x="509.5" y="-941.5" font-family="Helvetica,sans-Serif" font-size="10.00">gameAuthoring.scenes.level</text>
<text text-anchor="start" x="509.5" y="-930.5" font-family="Helvetica,sans-Serif" font-size="10.00">Building.LevelBuildingScene.Level</text>
<text text-anchor="middle" x="590" y="-919.5" font-family="Helvetica,sans-Serif" font-size="10.00">BuildingScene</text>
</a>
</g>
</g>
<!-- Node18&#45;&gt;Node19 -->
<g id="edge19" class="edge"><title>Node18&#45;&gt;Node19</title>
<path fill="none" stroke="midnightblue" d="M435.835,-934.206C457.516,-934.035 480.262,-933.856 501.392,-933.69"/>
<polygon fill="midnightblue" stroke="midnightblue" points="435.596,-930.708 425.624,-934.286 435.651,-937.707 435.596,-930.708"/>
</g>
<!-- Node20&#45;&gt;Node10 -->
<g id="edge21" class="edge"><title>Node20&#45;&gt;Node10</title>
<path fill="none" stroke="midnightblue" d="M429.142,-865.063C454.314,-860.801 481.335,-856.227 505.867,-852.074"/>
<polygon fill="midnightblue" stroke="midnightblue" points="428.501,-861.621 419.226,-866.741 429.669,-868.523 428.501,-861.621"/>
</g>
<!-- Node20&#45;&gt;Node11 -->
<g id="edge22" class="edge"><title>Node20&#45;&gt;Node11</title>
<path fill="none" stroke="midnightblue" d="M429.254,-881.198C513.463,-881.374 636.098,-881.631 719.705,-881.807"/>
<polygon fill="midnightblue" stroke="midnightblue" points="429.187,-877.698 419.18,-881.176 429.173,-884.698 429.187,-877.698"/>
</g>
<!-- Node27 -->
<g id="node27" class="node"><title>Node27</title>
<g id="a_node27"><a xlink:href="../../d7/d46/classutilities_1_1_java_f_xutilities_1_1slider_1_1_slider_container.html#a51d886a1acacfe4addd70bdb4975f883" target="_top" xlink:title="utilities.JavaFXutilities.slider.\lSliderContainer.SliderContainer">
<polygon fill="white" stroke="black" points="507,-169 507,-199 673,-199 673,-169 507,-169"/>
<text text-anchor="start" x="515" y="-187" font-family="Helvetica,sans-Serif" font-size="10.00">utilities.JavaFXutilities.slider.</text>
<text text-anchor="middle" x="590" y="-176" font-family="Helvetica,sans-Serif" font-size="10.00">SliderContainer.SliderContainer</text>
</a>
</g>
</g>
<!-- Node26&#45;&gt;Node27 -->
<g id="edge30" class="edge"><title>Node26&#45;&gt;Node27</title>
<path fill="none" stroke="midnightblue" d="M425.723,-184C452.153,-184 480.871,-184 506.747,-184"/>
<polygon fill="midnightblue" stroke="midnightblue" points="425.716,-180.5 415.716,-184 425.716,-187.5 425.716,-180.5"/>
</g>
<!-- Node31&#45;&gt;Node6 -->
<g id="edge35" class="edge"><title>Node31&#45;&gt;Node6</title>
<path fill="none" stroke="midnightblue" d="M450.773,-430.765C453.938,-432.4 457.022,-434.142 460,-436 515.612,-470.688 558.66,-537.629 577.935,-571.419"/>
<polygon fill="midnightblue" stroke="midnightblue" points="452.191,-427.564 441.656,-426.438 449.189,-433.888 452.191,-427.564"/>
</g>
<!-- Node33 -->
<g id="node33" class="node"><title>Node33</title>
<g id="a_node33"><a xlink:href="../../d3/d46/classgame_authoring_1_1scenes_1_1path_building_1_1building_panes_1_1_building_option_pane.html#a7e59cacc33067d6ae78f9531f8f2730e" target="_top" xlink:title="gameAuthoring.scenes.path\lBuilding.buildingPanes.Building\lOptionPane.BuildingOptionPane">
<polygon fill="white" stroke="black" points="506.5,-103.5 506.5,-144.5 673.5,-144.5 673.5,-103.5 506.5,-103.5"/>
<text text-anchor="start" x="514.5" y="-132.5" font-family="Helvetica,sans-Serif" font-size="10.00">gameAuthoring.scenes.path</text>
<text text-anchor="start" x="514.5" y="-121.5" font-family="Helvetica,sans-Serif" font-size="10.00">Building.buildingPanes.Building</text>
<text text-anchor="middle" x="590" y="-110.5" font-family="Helvetica,sans-Serif" font-size="10.00">OptionPane.BuildingOptionPane</text>
</a>
</g>
</g>
<!-- Node32&#45;&gt;Node33 -->
<g id="edge37" class="edge"><title>Node32&#45;&gt;Node33</title>
<path fill="none" stroke="midnightblue" d="M448.753,-124C468.111,-124 487.883,-124 506.245,-124"/>
<polygon fill="midnightblue" stroke="midnightblue" points="448.678,-120.5 438.678,-124 448.678,-127.5 448.678,-120.5"/>
</g>
</g>
</svg>
        <g id="navigator" transform="translate(0 0)" fill="#404254">
                <rect fill="#f2f5e9" fill-opacity="0.5" stroke="#606060" stroke-width=".5" x="0" y="0" width="60" height="60"/>
                <use id="zoomplus" xlink:href="#zoomPlus" x="17" y="9" onmousedown="handleZoom(evt,'in')"/>
                <use id="zoomminus" xlink:href="#zoomMin" x="42" y="9" onmousedown="handleZoom(evt,'out')"/>
                <use id="reset" xlink:href="#resetDef" x="30" y="36" onmousedown="handleReset()"/>
                <g id="arrowUp" xlink:href="#dirArrow" transform="translate(30 24)" onmousedown="handlePan(0,-1)">
                  <use xlink:href="#rim" fill="#404040">
                        <set attributeName="fill" to="#808080" begin="arrowUp.mouseover" end="arrowUp.mouseout"/>
                  </use>
                  <path fill="none" stroke="white" stroke-width="1.5" d="M0,-3.0v7 M-2.5,-0.5L0,-3.0L2.5,-0.5"/>
                </g>
                <g id="arrowRight" xlink:href="#dirArrow" transform="rotate(90) translate(36 -43)" onmousedown="handlePan(1,0)">
                  <use xlink:href="#rim" fill="#404040">
                        <set attributeName="fill" to="#808080" begin="arrowRight.mouseover" end="arrowRight.mouseout"/>
                  </use>
                  <path fill="none" stroke="white" stroke-width="1.5" d="M0,-3.0v7 M-2.5,-0.5L0,-3.0L2.5,-0.5"/>
                </g>
                <g id="arrowDown" xlink:href="#dirArrow" transform="rotate(180) translate(-30 -48)" onmousedown="handlePan(0,1)">
                  <use xlink:href="#rim" fill="#404040">
                        <set attributeName="fill" to="#808080" begin="arrowDown.mouseover" end="arrowDown.mouseout"/>
                  </use>
                  <path fill="none" stroke="white" stroke-width="1.5" d="M0,-3.0v7 M-2.5,-0.5L0,-3.0L2.5,-0.5"/>
                </g>
                <g id="arrowLeft" xlink:href="#dirArrow" transform="rotate(270) translate(-36 17)" onmousedown="handlePan(-1,0)">
                  <use xlink:href="#rim" fill="#404040">
                        <set attributeName="fill" to="#808080" begin="arrowLeft.mouseover" end="arrowLeft.mouseout"/>
                  </use>
                  <path fill="none" stroke="white" stroke-width="1.5" d="M0,-3.0v7 M-2.5,-0.5L0,-3.0L2.5,-0.5"/>
                </g>
        </g>
        <svg viewBox="0 0 15 15" width="100%" height="30px" preserveAspectRatio="xMaxYMin meet">
         <g id="arrow_out" transform="scale(0.3 0.3)">
          <a xlink:href="classutilities_1_1multilanguage_1_1_multi_language_utility_aaa34262e5a69e5d96d435c4f9872e544_icgraph_org.svg" target="_base">
           <rect id="button" ry="5" rx="5" y="6" x="6" height="38" width="38"
                fill="#f2f5e9" fill-opacity="0.5" stroke="#606060" stroke-width="1.0"/>
           <path id="arrow"
             d="M 11.500037,31.436501 C 11.940474,20.09759 22.043105,11.32322 32.158766,21.979434 L 37.068811,17.246167 C 37.068811,17.246167 37.088388,32 37.088388,32 L 22.160133,31.978069 C 22.160133,31.978069 26.997745,27.140456 26.997745,27.140456 C 18.528582,18.264221 13.291696,25.230495 11.500037,31.436501 z"
             style="fill:#404040;"/>
          </a>
         </g>
        </svg>
</svg>
