<?xml version="1.0" encoding="UTF-8" standalone="no"?>
<!DOCTYPE svg PUBLIC "-//W3C//DTD SVG 1.1//EN"
 "http://www.w3.org/Graphics/SVG/1.1/DTD/svg11.dtd">
<!-- Generated by graphviz version 2.36.0 (20140111.2315)
 -->
<!-- Title: utilities.multilanguage.MultiLanguageUtility.setLanguage Pages: 1 -->
<svg width="634pt" height="229pt"
 viewBox="0.00 0.00 634.00 229.00" xmlns="http://www.w3.org/2000/svg" xmlns:xlink="http://www.w3.org/1999/xlink">
<g id="graph0" class="graph" transform="scale(1 1) rotate(0) translate(4 225)">
<title>utilities.multilanguage.MultiLanguageUtility.setLanguage</title>
<polygon fill="white" stroke="none" points="-4,4 -4,-225 630,-225 630,4 -4,4"/>
<!-- Node1 -->
<g id="node1" class="node"><title>Node1</title>
<polygon fill="#bfbfbf" stroke="black" points="0.5,-95 0.5,-125 177.5,-125 177.5,-95 0.5,-95"/>
<text text-anchor="start" x="8.5" y="-113" font-family="Helvetica,sans-Serif" font-size="10.00">utilities.multilanguage.</text>
<text text-anchor="middle" x="89" y="-102" font-family="Helvetica,sans-Serif" font-size="10.00">MultiLanguageUtility.setLanguage</text>
</g>
<!-- Node2 -->
<g id="node2" class="node"><title>Node2</title>
<g id="a_node2"><a xlink:href="../../dc/d2e/classutilities_1_1multilanguage_1_1_multi_language_utility.html#a600c19aa976a0541b9b7b896dd822a8a" target="_top" xlink:title="utilities.multilanguage.\lMultiLanguageUtility.updateProperties">
<polygon fill="white" stroke="black" points="214.5,-95 214.5,-125 411.5,-125 411.5,-95 214.5,-95"/>
<text text-anchor="start" x="222.5" y="-113" font-family="Helvetica,sans-Serif" font-size="10.00">utilities.multilanguage.</text>
<text text-anchor="middle" x="313" y="-102" font-family="Helvetica,sans-Serif" font-size="10.00">MultiLanguageUtility.updateProperties</text>
</a>
</g>
</g>
<!-- Node1&#45;&gt;Node2 -->
<g id="edge1" class="edge"><title>Node1&#45;&gt;Node2</title>
<path fill="none" stroke="midnightblue" d="M177.74,-110C186.458,-110 195.376,-110 204.266,-110"/>
<polygon fill="midnightblue" stroke="midnightblue" points="204.279,-113.5 214.279,-110 204.279,-106.5 204.279,-113.5"/>
</g>
<!-- Node3 -->
<g id="node3" class="node"><title>Node3</title>
<g id="a_node3"><a xlink:href="../../dc/d2e/classutilities_1_1multilanguage_1_1_multi_language_utility.html#afd0f2ac6d018d23509016b80f8d50ce7" target="_top" xlink:title="utilities.multilanguage.\lMultiLanguageUtility.createString\lProperties">
<polygon fill="white" stroke="black" points="450,-179.5 450,-220.5 624,-220.5 624,-179.5 450,-179.5"/>
<text text-anchor="start" x="458" y="-208.5" font-family="Helvetica,sans-Serif" font-size="10.00">utilities.multilanguage.</text>
<text text-anchor="start" x="458" y="-197.5" font-family="Helvetica,sans-Serif" font-size="10.00">MultiLanguageUtility.createString</text>
<text text-anchor="middle" x="537" y="-186.5" font-family="Helvetica,sans-Serif" font-size="10.00">Properties</text>
</a>
</g>
</g>
<!-- Node2&#45;&gt;Node3 -->
<g id="edge2" class="edge"><title>Node2&#45;&gt;Node3</title>
<path fill="none" stroke="midnightblue" d="M346.202,-125.003C373.166,-137.366 412.782,-155.067 448,-169 453.832,-171.307 459.913,-173.626 466.034,-175.899"/>
<polygon fill="midnightblue" stroke="midnightblue" points="465.062,-179.271 475.656,-179.427 467.471,-172.698 465.062,-179.271"/>
</g>
<!-- Node4 -->
<g id="node4" class="node"><title>Node4</title>
<g id="a_node4"><a xlink:href="../../dc/d2e/classutilities_1_1multilanguage_1_1_multi_language_utility.html#afa95168fee718834254841c3d4c70f77" target="_top" xlink:title="utilities.multilanguage.\lMultiLanguageUtility.updateString\lProperties">
<polygon fill="white" stroke="black" points="448.5,-119.5 448.5,-160.5 625.5,-160.5 625.5,-119.5 448.5,-119.5"/>
<text text-anchor="start" x="456.5" y="-148.5" font-family="Helvetica,sans-Serif" font-size="10.00">utilities.multilanguage.</text>
<text text-anchor="start" x="456.5" y="-137.5" font-family="Helvetica,sans-Serif" font-size="10.00">MultiLanguageUtility.updateString</text>
<text text-anchor="middle" x="537" y="-126.5" font-family="Helvetica,sans-Serif" font-size="10.00">Properties</text>
</a>
</g>
</g>
<!-- Node2&#45;&gt;Node4 -->
<g id="edge3" class="edge"><title>Node2&#45;&gt;Node4</title>
<path fill="none" stroke="midnightblue" d="M411.695,-123.202C420.57,-124.401 429.56,-125.616 438.433,-126.815"/>
<polygon fill="midnightblue" stroke="midnightblue" points="438.011,-130.29 448.39,-128.161 438.949,-123.353 438.011,-130.29"/>
</g>
<!-- Node5 -->
<g id="node5" class="node"><title>Node5</title>
<g id="a_node5"><a xlink:href="../../dc/d2e/classutilities_1_1multilanguage_1_1_multi_language_utility.html#a4dac2710dd1f749cd1c5f3750a715dd6" target="_top" xlink:title="utilities.multilanguage.\lMultiLanguageUtility.createString\lListProperties">
<polygon fill="white" stroke="black" points="450,-59.5 450,-100.5 624,-100.5 624,-59.5 450,-59.5"/>
<text text-anchor="start" x="458" y="-88.5" font-family="Helvetica,sans-Serif" font-size="10.00">utilities.multilanguage.</text>
<text text-anchor="start" x="458" y="-77.5" font-family="Helvetica,sans-Serif" font-size="10.00">MultiLanguageUtility.createString</text>
<text text-anchor="middle" x="537" y="-66.5" font-family="Helvetica,sans-Serif" font-size="10.00">ListProperties</text>
</a>
</g>
</g>
<!-- Node2&#45;&gt;Node5 -->
<g id="edge4" class="edge"><title>Node2&#45;&gt;Node5</title>
<path fill="none" stroke="midnightblue" d="M411.695,-96.7979C421.007,-95.5396 430.446,-94.2641 439.744,-93.0076"/>
<polygon fill="midnightblue" stroke="midnightblue" points="440.324,-96.4611 449.765,-91.6534 439.386,-89.5242 440.324,-96.4611"/>
</g>
<!-- Node6 -->
<g id="node6" class="node"><title>Node6</title>
<g id="a_node6"><a xlink:href="../../dc/d2e/classutilities_1_1multilanguage_1_1_multi_language_utility.html#a6ec1064747fb29f38bc77ed9c665c974" target="_top" xlink:title="utilities.multilanguage.\lMultiLanguageUtility.updateString\lListProperties">
<polygon fill="white" stroke="black" points="448.5,0.5 448.5,-40.5 625.5,-40.5 625.5,0.5 448.5,0.5"/>
<text text-anchor="start" x="456.5" y="-28.5" font-family="Helvetica,sans-Serif" font-size="10.00">utilities.multilanguage.</text>
<text text-anchor="start" x="456.5" y="-17.5" font-family="Helvetica,sans-Serif" font-size="10.00">MultiLanguageUtility.updateString</text>
<text text-anchor="middle" x="537" y="-6.5" font-family="Helvetica,sans-Serif" font-size="10.00">ListProperties</text>
</a>
</g>
</g>
<!-- Node2&#45;&gt;Node6 -->
<g id="edge5" class="edge"><title>Node2&#45;&gt;Node6</title>
<path fill="none" stroke="midnightblue" d="M345.327,-94.9835C372.264,-82.3112 412.301,-64.0427 448,-50 453.07,-48.0058 458.332,-46.0161 463.648,-44.0642"/>
<polygon fill="midnightblue" stroke="midnightblue" points="465.028,-47.287 473.245,-40.5989 462.651,-40.703 465.028,-47.287"/>
</g>
</g>
</svg>
