<?xml version="1.0" encoding="UTF-8" standalone="no"?>
<!DOCTYPE svg PUBLIC "-//W3C//DTD SVG 1.1//EN"
 "http://www.w3.org/Graphics/SVG/1.1/DTD/svg11.dtd">
<!-- Generated by graphviz version 2.36.0 (20140111.2315)
 -->
<!-- Title: utilities.multilanguage.MultiLanguageUtility.setLanguage Pages: 1 -->
<svg width="1136pt" height="185pt"
 viewBox="0.00 0.00 1136.00 185.00" xmlns="http://www.w3.org/2000/svg" xmlns:xlink="http://www.w3.org/1999/xlink">
<g id="graph0" class="graph" transform="scale(1 1) rotate(0) translate(4 181)">
<title>utilities.multilanguage.MultiLanguageUtility.setLanguage</title>
<polygon fill="white" stroke="none" points="-4,4 -4,-181 1132,-181 1132,4 -4,4"/>
<!-- Node1 -->
<g id="node1" class="node"><title>Node1</title>
<polygon fill="#bfbfbf" stroke="black" points="0.5,-68 0.5,-98 177.5,-98 177.5,-68 0.5,-68"/>
<text text-anchor="start" x="8.5" y="-86" font-family="Helvetica,sans-Serif" font-size="10.00">utilities.multilanguage.</text>
<text text-anchor="middle" x="89" y="-75" font-family="Helvetica,sans-Serif" font-size="10.00">MultiLanguageUtility.setLanguage</text>
</g>
<!-- Node2 -->
<g id="node2" class="node"><title>Node2</title>
<g id="a_node2"><a xlink:href="../../de/d8c/classgame_authoring_1_1scenes_1_1_welcome_scene.html#a866dc21e004064b967b5687ceab763db" target="_top" xlink:title="gameAuthoring.scenes.Welcome\lScene.createLanguageComboBox">
<polygon fill="white" stroke="black" points="239,-147 239,-177 419,-177 419,-147 239,-147"/>
<text text-anchor="start" x="247" y="-165" font-family="Helvetica,sans-Serif" font-size="10.00">gameAuthoring.scenes.Welcome</text>
<text text-anchor="middle" x="329" y="-154" font-family="Helvetica,sans-Serif" font-size="10.00">Scene.createLanguageComboBox</text>
</a>
</g>
</g>
<!-- Node1&#45;&gt;Node2 -->
<g id="edge1" class="edge"><title>Node1&#45;&gt;Node2</title>
<path fill="none" stroke="midnightblue" d="M129.08,-102.36C153.12,-113.675 184.815,-127.545 214,-137 225.469,-140.716 237.765,-144.055 249.884,-146.991"/>
<polygon fill="midnightblue" stroke="midnightblue" points="130.469,-99.1442 119.935,-98.0048 127.459,-105.464 130.469,-99.1442"/>
</g>
<!-- Node5 -->
<g id="node5" class="node"><title>Node5</title>
<g id="a_node5"><a xlink:href="../../d3/dee/classgame_player_1_1main_classes_1_1welcome_screen_1_1_game_start_manager.html#ad9b9f7f8def0c2a1eda87e8c0e671357" target="_top" xlink:title="gamePlayer.mainClasses.welcome\lScreen.GameStartManager.createLanguage\lSelector">
<polygon fill="white" stroke="black" points="214.5,-87.5 214.5,-128.5 443.5,-128.5 443.5,-87.5 214.5,-87.5"/>
<text text-anchor="start" x="222.5" y="-116.5" font-family="Helvetica,sans-Serif" font-size="10.00">gamePlayer.mainClasses.welcome</text>
<text text-anchor="start" x="222.5" y="-105.5" font-family="Helvetica,sans-Serif" font-size="10.00">Screen.GameStartManager.createLanguage</text>
<text text-anchor="middle" x="329" y="-94.5" font-family="Helvetica,sans-Serif" font-size="10.00">Selector</text>
</a>
</g>
</g>
<!-- Node1&#45;&gt;Node5 -->
<g id="edge4" class="edge"><title>Node1&#45;&gt;Node5</title>
<path fill="none" stroke="midnightblue" d="M187.769,-93.2699C196.496,-94.1866 205.381,-95.1198 214.227,-96.049"/>
<polygon fill="midnightblue" stroke="midnightblue" points="187.919,-89.7665 177.608,-92.2026 187.188,-96.7282 187.919,-89.7665"/>
</g>
<!-- Node8 -->
<g id="node8" class="node"><title>Node8</title>
<g id="a_node8"><a xlink:href="../../d3/dee/classgame_player_1_1main_classes_1_1welcome_screen_1_1_game_start_manager.html#a306af611e85c84fc7d2d297403407df9" target="_top" xlink:title="gamePlayer.mainClasses.welcome\lScreen.GameStartManager.GameStart\lManager">
<polygon fill="white" stroke="black" points="924,-61.5 924,-102.5 1128,-102.5 1128,-61.5 924,-61.5"/>
<text text-anchor="start" x="932" y="-90.5" font-family="Helvetica,sans-Serif" font-size="10.00">gamePlayer.mainClasses.welcome</text>
<text text-anchor="start" x="932" y="-79.5" font-family="Helvetica,sans-Serif" font-size="10.00">Screen.GameStartManager.GameStart</text>
<text text-anchor="middle" x="1026" y="-68.5" font-family="Helvetica,sans-Serif" font-size="10.00">Manager</text>
</a>
</g>
</g>
<!-- Node1&#45;&gt;Node8 -->
<g id="edge8" class="edge"><title>Node1&#45;&gt;Node8</title>
<path fill="none" stroke="midnightblue" d="M187.732,-78.6904C196.613,-78.4102 205.47,-78.1719 214,-78 469.501,-72.8509 770.366,-77.0137 923.84,-79.8726"/>
<polygon fill="midnightblue" stroke="midnightblue" points="187.591,-75.193 177.713,-79.0231 187.824,-82.1892 187.591,-75.193"/>
</g>
<!-- Node9 -->
<g id="node9" class="node"><title>Node9</title>
<g id="a_node9"><a xlink:href="../../d2/d00/classutilities_1_1multilanguage_1_1_example_main.html#a1f3bdebfd815129b4077dff7d1402bb9" target="_top" xlink:title="utilities.multilanguage.\lExampleMain.start">
<polygon fill="white" stroke="black" points="266.5,-0 266.5,-30 391.5,-30 391.5,-0 266.5,-0"/>
<text text-anchor="start" x="274.5" y="-18" font-family="Helvetica,sans-Serif" font-size="10.00">utilities.multilanguage.</text>
<text text-anchor="middle" x="329" y="-7" font-family="Helvetica,sans-Serif" font-size="10.00">ExampleMain.start</text>
</a>
</g>
</g>
<!-- Node1&#45;&gt;Node9 -->
<g id="edge9" class="edge"><title>Node1&#45;&gt;Node9</title>
<path fill="none" stroke="midnightblue" d="M147.269,-64.926C168.211,-58.4554 192.127,-51.2268 214,-45 231.814,-39.9288 251.279,-34.6939 269.003,-30.0448"/>
<polygon fill="midnightblue" stroke="midnightblue" points="146.078,-61.6311 137.563,-67.9363 148.151,-68.3169 146.078,-61.6311"/>
</g>
<!-- Node3 -->
<g id="node3" class="node"><title>Node3</title>
<g id="a_node3"><a xlink:href="../../de/d8c/classgame_authoring_1_1scenes_1_1_welcome_scene.html#a69ab0fa818d20fde67677728b0ef2dd6" target="_top" xlink:title="gameAuthoring.scenes.Welcome\lScene.createWelcomeLabel">
<polygon fill="white" stroke="black" points="488.5,-147 488.5,-177 661.5,-177 661.5,-147 488.5,-147"/>
<text text-anchor="start" x="496.5" y="-165" font-family="Helvetica,sans-Serif" font-size="10.00">gameAuthoring.scenes.Welcome</text>
<text text-anchor="middle" x="575" y="-154" font-family="Helvetica,sans-Serif" font-size="10.00">Scene.createWelcomeLabel</text>
</a>
</g>
</g>
<!-- Node2&#45;&gt;Node3 -->
<g id="edge2" class="edge"><title>Node2&#45;&gt;Node3</title>
<path fill="none" stroke="midnightblue" d="M429.285,-162C448.876,-162 469.277,-162 488.37,-162"/>
<polygon fill="midnightblue" stroke="midnightblue" points="429.125,-158.5 419.125,-162 429.125,-165.5 429.125,-158.5"/>
</g>
<!-- Node4 -->
<g id="node4" class="node"><title>Node4</title>
<g id="a_node4"><a xlink:href="../../de/d8c/classgame_authoring_1_1scenes_1_1_welcome_scene.html#aee73cc3efe994102cc85662efaebdcc6" target="_top" xlink:title="gameAuthoring.scenes.Welcome\lScene.WelcomeScene">
<polygon fill="white" stroke="black" points="710.5,-147 710.5,-177 883.5,-177 883.5,-147 710.5,-147"/>
<text text-anchor="start" x="718.5" y="-165" font-family="Helvetica,sans-Serif" font-size="10.00">gameAuthoring.scenes.Welcome</text>
<text text-anchor="middle" x="797" y="-154" font-family="Helvetica,sans-Serif" font-size="10.00">Scene.WelcomeScene</text>
</a>
</g>
</g>
<!-- Node3&#45;&gt;Node4 -->
<g id="edge3" class="edge"><title>Node3&#45;&gt;Node4</title>
<path fill="none" stroke="midnightblue" d="M671.848,-162C684.602,-162 697.615,-162 710.184,-162"/>
<polygon fill="midnightblue" stroke="midnightblue" points="671.688,-158.5 661.688,-162 671.688,-165.5 671.688,-158.5"/>
</g>
<!-- Node6 -->
<g id="node6" class="node"><title>Node6</title>
<g id="a_node6"><a xlink:href="../../d3/dee/classgame_player_1_1main_classes_1_1welcome_screen_1_1_game_start_manager.html#aaeadf75f81a631bdd0fde079470bc44e" target="_top" xlink:title="gamePlayer.mainClasses.welcome\lScreen.GameStartManager.initialize\lWelcomeScreen">
<polygon fill="white" stroke="black" points="480.5,-87.5 480.5,-128.5 669.5,-128.5 669.5,-87.5 480.5,-87.5"/>
<text text-anchor="start" x="488.5" y="-116.5" font-family="Helvetica,sans-Serif" font-size="10.00">gamePlayer.mainClasses.welcome</text>
<text text-anchor="start" x="488.5" y="-105.5" font-family="Helvetica,sans-Serif" font-size="10.00">Screen.GameStartManager.initialize</text>
<text text-anchor="middle" x="575" y="-94.5" font-family="Helvetica,sans-Serif" font-size="10.00">WelcomeScreen</text>
</a>
</g>
</g>
<!-- Node5&#45;&gt;Node6 -->
<g id="edge5" class="edge"><title>Node5&#45;&gt;Node6</title>
<path fill="none" stroke="midnightblue" d="M453.787,-108C462.651,-108 471.502,-108 480.153,-108"/>
<polygon fill="midnightblue" stroke="midnightblue" points="453.785,-104.5 443.785,-108 453.785,-111.5 453.785,-104.5"/>
</g>
<!-- Node7 -->
<g id="node7" class="node"><title>Node7</title>
<g id="a_node7"><a xlink:href="../../d3/dee/classgame_player_1_1main_classes_1_1welcome_screen_1_1_game_start_manager.html#ad8f1528149e361b0dfb590208d2b9532" target="_top" xlink:title="gamePlayer.mainClasses.welcome\lScreen.GameStartManager.init">
<polygon fill="white" stroke="black" points="706,-91 706,-121 888,-121 888,-91 706,-91"/>
<text text-anchor="start" x="714" y="-109" font-family="Helvetica,sans-Serif" font-size="10.00">gamePlayer.mainClasses.welcome</text>
<text text-anchor="middle" x="797" y="-98" font-family="Helvetica,sans-Serif" font-size="10.00">Screen.GameStartManager.init</text>
</a>
</g>
</g>
<!-- Node6&#45;&gt;Node7 -->
<g id="edge6" class="edge"><title>Node6&#45;&gt;Node7</title>
<path fill="none" stroke="midnightblue" d="M679.833,-107.056C688.565,-106.977 697.35,-106.897 705.965,-106.818"/>
<polygon fill="midnightblue" stroke="midnightblue" points="679.587,-103.558 669.619,-107.149 679.65,-110.558 679.587,-103.558"/>
</g>
<!-- Node7&#45;&gt;Node8 -->
<g id="edge7" class="edge"><title>Node7&#45;&gt;Node8</title>
<path fill="none" stroke="midnightblue" d="M898.036,-95.4235C906.6,-94.5181 915.267,-93.6017 923.839,-92.6954"/>
<polygon fill="midnightblue" stroke="midnightblue" points="897.619,-91.948 888.042,-96.4801 898.355,-98.9092 897.619,-91.948"/>
</g>
</g>
</svg>
