<?xml version="1.0" encoding="UTF-8" standalone="no"?>
<!DOCTYPE svg PUBLIC "-//W3C//DTD SVG 1.1//EN"
 "http://www.w3.org/Graphics/SVG/1.1/DTD/svg11.dtd">
<!-- Generated by graphviz version 2.36.0 (20140111.2315)
 -->
<!-- Title: utilities.multilanguage.MultiLanguageUtility.setLanguage Pages: 1 -->
<!--zoomable 229 -->
<svg id="main" version="1.1" xmlns="http://www.w3.org/2000/svg" xmlns:xlink="http://www.w3.org/1999/xlink" xml:space="preserve" onload="init(evt)">
<style type="text/css"><![CDATA[
.edge:hover path { stroke: red; }
.edge:hover polygon { stroke: red; fill: red; }
]]></style>
<script type="text/javascript"><![CDATA[
var edges = document.getElementsByTagName('g');
if (edges && edges.length) {
  for (var i=0;i<edges.length;i++) {
    if (edges[i].id.substr(0,4)=='edge') {
      edges[i].setAttribute('class','edge');
    }
  }
}
]]></script>
        <defs>
                <circle id="rim" cx="0" cy="0" r="7"/>
                <circle id="rim2" cx="0" cy="0" r="3.5"/>
                <g id="zoomPlus">
                        <use xlink:href="#rim" fill="#404040">
                                <set attributeName="fill" to="#808080" begin="zoomplus.mouseover" end="zoomplus.mouseout"/>
                        </use>
                        <path d="M-4,0h8M0,-4v8" fill="none" stroke="white" stroke-width="1.5" pointer-events="none"/>
                </g>
                <g id="zoomMin">
                        <use xlink:href="#rim" fill="#404040">
                                <set attributeName="fill" to="#808080" begin="zoomminus.mouseover" end="zoomminus.mouseout"/>
                        </use>
                        <path d="M-4,0h8" fill="none" stroke="white" stroke-width="1.5" pointer-events="none"/>
                </g>
                <g id="dirArrow">
                        <path fill="none" stroke="white" stroke-width="1.5" d="M0,-3.0v7 M-2.5,-0.5L0,-3.0L2.5,-0.5"/>
                </g>
               <g id="resetDef">
                       <use xlink:href="#rim2" fill="#404040">
                               <set attributeName="fill" to="#808080" begin="reset.mouseover" end="reset.mouseout"/>
                       </use>
               </g>
        </defs>

<script type="text/javascript">
var viewWidth = 634;
var viewHeight = 229;
var sectionId = 'dynsection-20';
</script>
<script xlink:href="../../svgpan.js"/>
<svg id="graph" class="graph">
<g id="viewport">
<title>utilities.multilanguage.MultiLanguageUtility.setLanguage</title>
<polygon fill="white" stroke="none" points="-4,4 -4,-225 630,-225 630,4 -4,4"/>
<!-- Node1 -->
<g id="node1" class="node"><title>Node1</title>
<polygon fill="#bfbfbf" stroke="black" points="0.5,-95 0.5,-125 177.5,-125 177.5,-95 0.5,-95"/>
<text text-anchor="start" x="8.5" y="-113" font-family="Helvetica,sans-Serif" font-size="10.00">utilities.multilanguage.</text>
<text text-anchor="middle" x="89" y="-102" font-family="Helvetica,sans-Serif" font-size="10.00">MultiLanguageUtility.setLanguage</text>
</g>
<!-- Node2 -->
<g id="node2" class="node"><title>Node2</title>
<g id="a_node2"><a xlink:href="../../dc/d2e/classutilities_1_1multilanguage_1_1_multi_language_utility.html#a600c19aa976a0541b9b7b896dd822a8a" target="_top" xlink:title="utilities.multilanguage.\lMultiLanguageUtility.updateProperties">
<polygon fill="white" stroke="black" points="214.5,-95 214.5,-125 411.5,-125 411.5,-95 214.5,-95"/>
<text text-anchor="start" x="222.5" y="-113" font-family="Helvetica,sans-Serif" font-size="10.00">utilities.multilanguage.</text>
<text text-anchor="middle" x="313" y="-102" font-family="Helvetica,sans-Serif" font-size="10.00">MultiLanguageUtility.updateProperties</text>
</a>
</g>
</g>
<!-- Node1&#45;&gt;Node2 -->
<g id="edge1" class="edge"><title>Node1&#45;&gt;Node2</title>
<path fill="none" stroke="midnightblue" d="M177.74,-110C186.458,-110 195.376,-110 204.266,-110"/>
<polygon fill="midnightblue" stroke="midnightblue" points="204.279,-113.5 214.279,-110 204.279,-106.5 204.279,-113.5"/>
</g>
<!-- Node3 -->
<g id="node3" class="node"><title>Node3</title>
<g id="a_node3"><a xlink:href="../../dc/d2e/classutilities_1_1multilanguage_1_1_multi_language_utility.html#afd0f2ac6d018d23509016b80f8d50ce7" target="_top" xlink:title="utilities.multilanguage.\lMultiLanguageUtility.createString\lProperties">
<polygon fill="white" stroke="black" points="450,-179.5 450,-220.5 624,-220.5 624,-179.5 450,-179.5"/>
<text text-anchor="start" x="458" y="-208.5" font-family="Helvetica,sans-Serif" font-size="10.00">utilities.multilanguage.</text>
<text text-anchor="start" x="458" y="-197.5" font-family="Helvetica,sans-Serif" font-size="10.00">MultiLanguageUtility.createString</text>
<text text-anchor="middle" x="537" y="-186.5" font-family="Helvetica,sans-Serif" font-size="10.00">Properties</text>
</a>
</g>
</g>
<!-- Node2&#45;&gt;Node3 -->
<g id="edge2" class="edge"><title>Node2&#45;&gt;Node3</title>
<path fill="none" stroke="midnightblue" d="M346.202,-125.003C373.166,-137.366 412.782,-155.067 448,-169 453.832,-171.307 459.913,-173.626 466.034,-175.899"/>
<polygon fill="midnightblue" stroke="midnightblue" points="465.062,-179.271 475.656,-179.427 467.471,-172.698 465.062,-179.271"/>
</g>
<!-- Node4 -->
<g id="node4" class="node"><title>Node4</title>
<g id="a_node4"><a xlink:href="../../dc/d2e/classutilities_1_1multilanguage_1_1_multi_language_utility.html#afa95168fee718834254841c3d4c70f77" target="_top" xlink:title="utilities.multilanguage.\lMultiLanguageUtility.updateString\lProperties">
<polygon fill="white" stroke="black" points="448.5,-119.5 448.5,-160.5 625.5,-160.5 625.5,-119.5 448.5,-119.5"/>
<text text-anchor="start" x="456.5" y="-148.5" font-family="Helvetica,sans-Serif" font-size="10.00">utilities.multilanguage.</text>
<text text-anchor="start" x="456.5" y="-137.5" font-family="Helvetica,sans-Serif" font-size="10.00">MultiLanguageUtility.updateString</text>
<text text-anchor="middle" x="537" y="-126.5" font-family="Helvetica,sans-Serif" font-size="10.00">Properties</text>
</a>
</g>
</g>
<!-- Node2&#45;&gt;Node4 -->
<g id="edge3" class="edge"><title>Node2&#45;&gt;Node4</title>
<path fill="none" stroke="midnightblue" d="M411.695,-123.202C420.57,-124.401 429.56,-125.616 438.433,-126.815"/>
<polygon fill="midnightblue" stroke="midnightblue" points="438.011,-130.29 448.39,-128.161 438.949,-123.353 438.011,-130.29"/>
</g>
<!-- Node5 -->
<g id="node5" class="node"><title>Node5</title>
<g id="a_node5"><a xlink:href="../../dc/d2e/classutilities_1_1multilanguage_1_1_multi_language_utility.html#a4dac2710dd1f749cd1c5f3750a715dd6" target="_top" xlink:title="utilities.multilanguage.\lMultiLanguageUtility.createString\lListProperties">
<polygon fill="white" stroke="black" points="450,-59.5 450,-100.5 624,-100.5 624,-59.5 450,-59.5"/>
<text text-anchor="start" x="458" y="-88.5" font-family="Helvetica,sans-Serif" font-size="10.00">utilities.multilanguage.</text>
<text text-anchor="start" x="458" y="-77.5" font-family="Helvetica,sans-Serif" font-size="10.00">MultiLanguageUtility.createString</text>
<text text-anchor="middle" x="537" y="-66.5" font-family="Helvetica,sans-Serif" font-size="10.00">ListProperties</text>
</a>
</g>
</g>
<!-- Node2&#45;&gt;Node5 -->
<g id="edge4" class="edge"><title>Node2&#45;&gt;Node5</title>
<path fill="none" stroke="midnightblue" d="M411.695,-96.7979C421.007,-95.5396 430.446,-94.2641 439.744,-93.0076"/>
<polygon fill="midnightblue" stroke="midnightblue" points="440.324,-96.4611 449.765,-91.6534 439.386,-89.5242 440.324,-96.4611"/>
</g>
<!-- Node6 -->
<g id="node6" class="node"><title>Node6</title>
<g id="a_node6"><a xlink:href="../../dc/d2e/classutilities_1_1multilanguage_1_1_multi_language_utility.html#a6ec1064747fb29f38bc77ed9c665c974" target="_top" xlink:title="utilities.multilanguage.\lMultiLanguageUtility.updateString\lListProperties">
<polygon fill="white" stroke="black" points="448.5,0.5 448.5,-40.5 625.5,-40.5 625.5,0.5 448.5,0.5"/>
<text text-anchor="start" x="456.5" y="-28.5" font-family="Helvetica,sans-Serif" font-size="10.00">utilities.multilanguage.</text>
<text text-anchor="start" x="456.5" y="-17.5" font-family="Helvetica,sans-Serif" font-size="10.00">MultiLanguageUtility.updateString</text>
<text text-anchor="middle" x="537" y="-6.5" font-family="Helvetica,sans-Serif" font-size="10.00">ListProperties</text>
</a>
</g>
</g>
<!-- Node2&#45;&gt;Node6 -->
<g id="edge5" class="edge"><title>Node2&#45;&gt;Node6</title>
<path fill="none" stroke="midnightblue" d="M345.327,-94.9835C372.264,-82.3112 412.301,-64.0427 448,-50 453.07,-48.0058 458.332,-46.0161 463.648,-44.0642"/>
<polygon fill="midnightblue" stroke="midnightblue" points="465.028,-47.287 473.245,-40.5989 462.651,-40.703 465.028,-47.287"/>
</g>
</g>
</svg>
        <g id="navigator" transform="translate(0 0)" fill="#404254">
                <rect fill="#f2f5e9" fill-opacity="0.5" stroke="#606060" stroke-width=".5" x="0" y="0" width="60" height="60"/>
                <use id="zoomplus" xlink:href="#zoomPlus" x="17" y="9" onmousedown="handleZoom(evt,'in')"/>
                <use id="zoomminus" xlink:href="#zoomMin" x="42" y="9" onmousedown="handleZoom(evt,'out')"/>
                <use id="reset" xlink:href="#resetDef" x="30" y="36" onmousedown="handleReset()"/>
                <g id="arrowUp" xlink:href="#dirArrow" transform="translate(30 24)" onmousedown="handlePan(0,-1)">
                  <use xlink:href="#rim" fill="#404040">
                        <set attributeName="fill" to="#808080" begin="arrowUp.mouseover" end="arrowUp.mouseout"/>
                  </use>
                  <path fill="none" stroke="white" stroke-width="1.5" d="M0,-3.0v7 M-2.5,-0.5L0,-3.0L2.5,-0.5"/>
                </g>
                <g id="arrowRight" xlink:href="#dirArrow" transform="rotate(90) translate(36 -43)" onmousedown="handlePan(1,0)">
                  <use xlink:href="#rim" fill="#404040">
                        <set attributeName="fill" to="#808080" begin="arrowRight.mouseover" end="arrowRight.mouseout"/>
                  </use>
                  <path fill="none" stroke="white" stroke-width="1.5" d="M0,-3.0v7 M-2.5,-0.5L0,-3.0L2.5,-0.5"/>
                </g>
                <g id="arrowDown" xlink:href="#dirArrow" transform="rotate(180) translate(-30 -48)" onmousedown="handlePan(0,1)">
                  <use xlink:href="#rim" fill="#404040">
                        <set attributeName="fill" to="#808080" begin="arrowDown.mouseover" end="arrowDown.mouseout"/>
                  </use>
                  <path fill="none" stroke="white" stroke-width="1.5" d="M0,-3.0v7 M-2.5,-0.5L0,-3.0L2.5,-0.5"/>
                </g>
                <g id="arrowLeft" xlink:href="#dirArrow" transform="rotate(270) translate(-36 17)" onmousedown="handlePan(-1,0)">
                  <use xlink:href="#rim" fill="#404040">
                        <set attributeName="fill" to="#808080" begin="arrowLeft.mouseover" end="arrowLeft.mouseout"/>
                  </use>
                  <path fill="none" stroke="white" stroke-width="1.5" d="M0,-3.0v7 M-2.5,-0.5L0,-3.0L2.5,-0.5"/>
                </g>
        </g>
        <svg viewBox="0 0 15 15" width="100%" height="30px" preserveAspectRatio="xMaxYMin meet">
         <g id="arrow_out" transform="scale(0.3 0.3)">
          <a xlink:href="classutilities_1_1multilanguage_1_1_multi_language_utility_a9f7f62c6c1f93e2f9d815f7335b6cef3_cgraph_org.svg" target="_base">
           <rect id="button" ry="5" rx="5" y="6" x="6" height="38" width="38"
                fill="#f2f5e9" fill-opacity="0.5" stroke="#606060" stroke-width="1.0"/>
           <path id="arrow"
             d="M 11.500037,31.436501 C 11.940474,20.09759 22.043105,11.32322 32.158766,21.979434 L 37.068811,17.246167 C 37.068811,17.246167 37.088388,32 37.088388,32 L 22.160133,31.978069 C 22.160133,31.978069 26.997745,27.140456 26.997745,27.140456 C 18.528582,18.264221 13.291696,25.230495 11.500037,31.436501 z"
             style="fill:#404040;"/>
          </a>
         </g>
        </svg>
</svg>
