<?xml version="1.0" encoding="UTF-8" standalone="no"?>
<!DOCTYPE svg PUBLIC "-//W3C//DTD SVG 1.1//EN"
 "http://www.w3.org/Graphics/SVG/1.1/DTD/svg11.dtd">
<!-- Generated by graphviz version 2.36.0 (20140111.2315)
 -->
<!-- Title: utilities.pathfinding.AStarPathFinder.PQTuple.equals Pages: 1 -->
<svg width="334pt" height="87pt"
 viewBox="0.00 0.00 334.00 87.00" xmlns="http://www.w3.org/2000/svg" xmlns:xlink="http://www.w3.org/1999/xlink">
<g id="graph0" class="graph" transform="scale(1 1) rotate(0) translate(4 83)">
<title>utilities.pathfinding.AStarPathFinder.PQTuple.equals</title>
<polygon fill="white" stroke="none" points="-4,4 -4,-83 330,-83 330,4 -4,4"/>
<!-- Node1 -->
<g id="node1" class="node"><title>Node1</title>
<polygon fill="#bfbfbf" stroke="black" points="0,-24 0,-54 140,-54 140,-24 0,-24"/>
<text text-anchor="start" x="8" y="-42" font-family="Helvetica,sans-Serif" font-size="10.00">utilities.pathfinding.AStar</text>
<text text-anchor="middle" x="70" y="-31" font-family="Helvetica,sans-Serif" font-size="10.00">PathFinder.PQTuple.equals</text>
</g>
<!-- Node1&#45;&gt;Node1 -->
<g id="edge1" class="edge"><title>Node1&#45;&gt;Node1</title>
<path fill="none" stroke="midnightblue" d="M38.3594,-54.2754C31.3281,-63.4062 41.875,-72 70,-72 86.6992,-72 97.2015,-68.9704 101.507,-64.5975"/>
<polygon fill="midnightblue" stroke="midnightblue" points="105.011,-64.32 101.641,-54.2754 98.0111,-64.2291 105.011,-64.32"/>
</g>
<!-- Node2 -->
<g id="node2" class="node"><title>Node2</title>
<g id="a_node2"><a xlink:href="../../d0/dc9/classutilities_1_1pathfinding_1_1_a_star_path_finder_1_1_p_q_tuple.html#ad2316b9f5db46b5899fbbfa86e214ef7" target="_top" xlink:title="utilities.pathfinding.AStar\lPathFinder.PQTuple.getNode">
<polygon fill="white" stroke="black" points="176,-49 176,-79 326,-79 326,-49 176,-49"/>
<text text-anchor="start" x="184" y="-67" font-family="Helvetica,sans-Serif" font-size="10.00">utilities.pathfinding.AStar</text>
<text text-anchor="middle" x="251" y="-56" font-family="Helvetica,sans-Serif" font-size="10.00">PathFinder.PQTuple.getNode</text>
</a>
</g>
</g>
<!-- Node1&#45;&gt;Node2 -->
<g id="edge2" class="edge"><title>Node1&#45;&gt;Node2</title>
<path fill="none" stroke="midnightblue" d="M140.206,-48.6657C148.621,-49.8409 157.288,-51.0514 165.888,-52.2526"/>
<polygon fill="midnightblue" stroke="midnightblue" points="165.547,-55.7388 175.935,-53.6557 166.515,-48.8061 165.547,-55.7388"/>
</g>
<!-- Node3 -->
<g id="node3" class="node"><title>Node3</title>
<g id="a_node3"><a xlink:href="../../d0/dc9/classutilities_1_1pathfinding_1_1_a_star_path_finder_1_1_p_q_tuple.html#a88dcddb76c76f536e359d172a3045bf1" target="_top" xlink:title="utilities.pathfinding.AStar\lPathFinder.PQTuple.PQTuple">
<polygon fill="white" stroke="black" points="178,-0 178,-30 324,-30 324,-0 178,-0"/>
<text text-anchor="start" x="186" y="-18" font-family="Helvetica,sans-Serif" font-size="10.00">utilities.pathfinding.AStar</text>
<text text-anchor="middle" x="251" y="-7" font-family="Helvetica,sans-Serif" font-size="10.00">PathFinder.PQTuple.PQTuple</text>
</a>
</g>
</g>
<!-- Node1&#45;&gt;Node3 -->
<g id="edge3" class="edge"><title>Node1&#45;&gt;Node3</title>
<path fill="none" stroke="midnightblue" d="M140.206,-29.721C149.237,-28.5101 158.559,-27.2602 167.777,-26.0243"/>
<polygon fill="midnightblue" stroke="midnightblue" points="168.275,-29.489 177.721,-24.6911 167.344,-22.5511 168.275,-29.489"/>
</g>
</g>
</svg>
