<?xml version="1.0" encoding="UTF-8" standalone="no"?>
<!DOCTYPE svg PUBLIC "-//W3C//DTD SVG 1.1//EN"
 "http://www.w3.org/Graphics/SVG/1.1/DTD/svg11.dtd">
<!-- Generated by graphviz version 2.36.0 (20140111.2315)
 -->
<!-- Title: gamePlayer.guiContainers.coreContainers.TopContainer.initialize Pages: 1 -->
<!--zoomable 323 -->
<svg id="main" version="1.1" xmlns="http://www.w3.org/2000/svg" xmlns:xlink="http://www.w3.org/1999/xlink" xml:space="preserve" onload="init(evt)">
<style type="text/css"><![CDATA[
.edge:hover path { stroke: red; }
.edge:hover polygon { stroke: red; fill: red; }
]]></style>
<script type="text/javascript"><![CDATA[
var edges = document.getElementsByTagName('g');
if (edges && edges.length) {
  for (var i=0;i<edges.length;i++) {
    if (edges[i].id.substr(0,4)=='edge') {
      edges[i].setAttribute('class','edge');
    }
  }
}
]]></script>
        <defs>
                <circle id="rim" cx="0" cy="0" r="7"/>
                <circle id="rim2" cx="0" cy="0" r="3.5"/>
                <g id="zoomPlus">
                        <use xlink:href="#rim" fill="#404040">
                                <set attributeName="fill" to="#808080" begin="zoomplus.mouseover" end="zoomplus.mouseout"/>
                        </use>
                        <path d="M-4,0h8M0,-4v8" fill="none" stroke="white" stroke-width="1.5" pointer-events="none"/>
                </g>
                <g id="zoomMin">
                        <use xlink:href="#rim" fill="#404040">
                                <set attributeName="fill" to="#808080" begin="zoomminus.mouseover" end="zoomminus.mouseout"/>
                        </use>
                        <path d="M-4,0h8" fill="none" stroke="white" stroke-width="1.5" pointer-events="none"/>
                </g>
                <g id="dirArrow">
                        <path fill="none" stroke="white" stroke-width="1.5" d="M0,-3.0v7 M-2.5,-0.5L0,-3.0L2.5,-0.5"/>
                </g>
               <g id="resetDef">
                       <use xlink:href="#rim2" fill="#404040">
                               <set attributeName="fill" to="#808080" begin="reset.mouseover" end="reset.mouseout"/>
                       </use>
               </g>
        </defs>

<script type="text/javascript">
var viewWidth = 1802;
var viewHeight = 323;
var sectionId = 'dynsection-3';
</script>
<script xlink:href="../../svgpan.js"/>
<svg id="graph" class="graph">
<g id="viewport">
<title>gamePlayer.guiContainers.coreContainers.TopContainer.initialize</title>
<polygon fill="white" stroke="none" points="-4,4 -4,-319 1798,-319 1798,4 -4,4"/>
<!-- Node1 -->
<g id="node1" class="node"><title>Node1</title>
<polygon fill="#bfbfbf" stroke="black" points="0,-83 0,-113 174,-113 174,-83 0,-83"/>
<text text-anchor="start" x="8" y="-101" font-family="Helvetica,sans-Serif" font-size="10.00">gamePlayer.guiContainers.core</text>
<text text-anchor="middle" x="87" y="-90" font-family="Helvetica,sans-Serif" font-size="10.00">Containers.TopContainer.initialize</text>
</g>
<!-- Node2 -->
<g id="node2" class="node"><title>Node2</title>
<g id="a_node2"><a xlink:href="../../d6/d33/classgame_player_1_1main_classes_1_1gui_builder_1_1_gui_builder.html#a0fbd44d2d57fb100c883cdf4ad77e7f8" target="_top" xlink:title="gamePlayer.mainClasses.gui\lBuilder.GuiBuilder.initializeCore\lContainers">
<polygon fill="white" stroke="black" points="210,-77.5 210,-118.5 374,-118.5 374,-77.5 210,-77.5"/>
<text text-anchor="start" x="218" y="-106.5" font-family="Helvetica,sans-Serif" font-size="10.00">gamePlayer.mainClasses.gui</text>
<text text-anchor="start" x="218" y="-95.5" font-family="Helvetica,sans-Serif" font-size="10.00">Builder.GuiBuilder.initializeCore</text>
<text text-anchor="middle" x="292" y="-84.5" font-family="Helvetica,sans-Serif" font-size="10.00">Containers</text>
</a>
</g>
</g>
<!-- Node1&#45;&gt;Node2 -->
<g id="edge1" class="edge"><title>Node1&#45;&gt;Node2</title>
<path fill="none" stroke="midnightblue" d="M184.173,-98C192.795,-98 201.469,-98 209.944,-98"/>
<polygon fill="midnightblue" stroke="midnightblue" points="184.09,-94.5001 174.09,-98 184.09,-101.5 184.09,-94.5001"/>
</g>
<!-- Node3 -->
<g id="node3" class="node"><title>Node3</title>
<g id="a_node3"><a xlink:href="../../d6/d33/classgame_player_1_1main_classes_1_1gui_builder_1_1_gui_builder.html#ab281fef7b723af3743f3cb38dd5b7660" target="_top" xlink:title="gamePlayer.mainClasses.gui\lBuilder.GuiBuilder.build">
<polygon fill="white" stroke="black" points="410,-83 410,-113 564,-113 564,-83 410,-83"/>
<text text-anchor="start" x="418" y="-101" font-family="Helvetica,sans-Serif" font-size="10.00">gamePlayer.mainClasses.gui</text>
<text text-anchor="middle" x="487" y="-90" font-family="Helvetica,sans-Serif" font-size="10.00">Builder.GuiBuilder.build</text>
</a>
</g>
</g>
<!-- Node2&#45;&gt;Node3 -->
<g id="edge2" class="edge"><title>Node2&#45;&gt;Node3</title>
<path fill="none" stroke="midnightblue" d="M384.08,-98C392.694,-98 401.365,-98 409.819,-98"/>
<polygon fill="midnightblue" stroke="midnightblue" points="384.011,-94.5001 374.01,-98 384.01,-101.5 384.011,-94.5001"/>
</g>
<!-- Node4 -->
<g id="node4" class="node"><title>Node4</title>
<g id="a_node4"><a xlink:href="../../da/d69/classgame_player_1_1main_classes_1_1managers_1_1_gui_manager.html#a6bce033ad0751d90302ee3520a36e95b" target="_top" xlink:title="gamePlayer.mainClasses.managers.\lGuiManager.init">
<polygon fill="white" stroke="black" points="600.5,-108 600.5,-138 791.5,-138 791.5,-108 600.5,-108"/>
<text text-anchor="start" x="608.5" y="-126" font-family="Helvetica,sans-Serif" font-size="10.00">gamePlayer.mainClasses.managers.</text>
<text text-anchor="middle" x="696" y="-115" font-family="Helvetica,sans-Serif" font-size="10.00">GuiManager.init</text>
</a>
</g>
</g>
<!-- Node3&#45;&gt;Node4 -->
<g id="edge3" class="edge"><title>Node3&#45;&gt;Node4</title>
<path fill="none" stroke="midnightblue" d="M574.224,-108.413C582.842,-109.454 591.624,-110.515 600.323,-111.566"/>
<polygon fill="midnightblue" stroke="midnightblue" points="574.545,-104.927 564.197,-107.203 573.705,-111.876 574.545,-104.927"/>
</g>
<!-- Node20 -->
<g id="node20" class="node"><title>Node20</title>
<g id="a_node20"><a xlink:href="../../d4/d3f/classgame_player_1_1main_classes_1_1managers_1_1_welcome_manager.html#afd11b6bf91712ea221c4f69945eda2e4" target="_top" xlink:title="gamePlayer.mainClasses.managers.\lWelcomeManager.init">
<polygon fill="white" stroke="black" points="600.5,-59 600.5,-89 791.5,-89 791.5,-59 600.5,-59"/>
<text text-anchor="start" x="608.5" y="-77" font-family="Helvetica,sans-Serif" font-size="10.00">gamePlayer.mainClasses.managers.</text>
<text text-anchor="middle" x="696" y="-66" font-family="Helvetica,sans-Serif" font-size="10.00">WelcomeManager.init</text>
</a>
</g>
</g>
<!-- Node3&#45;&gt;Node20 -->
<g id="edge22" class="edge"><title>Node3&#45;&gt;Node20</title>
<path fill="none" stroke="midnightblue" d="M574.224,-88.003C582.842,-87.0039 591.624,-85.9856 600.323,-84.977"/>
<polygon fill="midnightblue" stroke="midnightblue" points="573.728,-84.537 564.197,-89.1655 574.534,-91.4904 573.728,-84.537"/>
</g>
<!-- Node5 -->
<g id="node5" class="node"><title>Node5</title>
<g id="a_node5"><a xlink:href="../../da/d69/classgame_player_1_1main_classes_1_1managers_1_1_gui_manager.html#aa0b614e03bdec959e13e3d5ca2e1f614" target="_top" xlink:title="gamePlayer.mainClasses.managers.\lGuiManager.startMultiPlayerGame">
<polygon fill="white" stroke="black" points="839.5,-179 839.5,-209 1030.5,-209 1030.5,-179 839.5,-179"/>
<text text-anchor="start" x="847.5" y="-197" font-family="Helvetica,sans-Serif" font-size="10.00">gamePlayer.mainClasses.managers.</text>
<text text-anchor="middle" x="935" y="-186" font-family="Helvetica,sans-Serif" font-size="10.00">GuiManager.startMultiPlayerGame</text>
</a>
</g>
</g>
<!-- Node4&#45;&gt;Node5 -->
<g id="edge4" class="edge"><title>Node4&#45;&gt;Node5</title>
<path fill="none" stroke="midnightblue" d="M756.964,-140.964C796.154,-152.704 846.751,-167.862 883.811,-178.964"/>
<polygon fill="midnightblue" stroke="midnightblue" points="757.845,-137.574 747.262,-138.057 755.837,-144.28 757.845,-137.574"/>
</g>
<!-- Node10 -->
<g id="node10" class="node"><title>Node10</title>
<g id="a_node10"><a xlink:href="../../da/d69/classgame_player_1_1main_classes_1_1managers_1_1_gui_manager.html#a3f657f0e3ba1e493d2dd02b5df5e03f6" target="_top" xlink:title="gamePlayer.mainClasses.managers.\lGuiManager.replayGame">
<polygon fill="white" stroke="black" points="1092.5,-282 1092.5,-312 1283.5,-312 1283.5,-282 1092.5,-282"/>
<text text-anchor="start" x="1100.5" y="-300" font-family="Helvetica,sans-Serif" font-size="10.00">gamePlayer.mainClasses.managers.</text>
<text text-anchor="middle" x="1188" y="-289" font-family="Helvetica,sans-Serif" font-size="10.00">GuiManager.replayGame</text>
</a>
</g>
</g>
<!-- Node4&#45;&gt;Node10 -->
<g id="edge16" class="edge"><title>Node4&#45;&gt;Node10</title>
<path fill="none" stroke="midnightblue" d="M720.444,-144.673C745.296,-166.463 786.604,-199.413 828,-218 912.999,-256.164 1017.81,-276.493 1092.19,-286.916"/>
<polygon fill="midnightblue" stroke="midnightblue" points="722.77,-142.058 712.974,-138.023 718.116,-147.287 722.77,-142.058"/>
</g>
<!-- Node17 -->
<g id="node17" class="node"><title>Node17</title>
<g id="a_node17"><a xlink:href="../../d4/d3f/classgame_player_1_1main_classes_1_1managers_1_1_welcome_manager.html#a85bf325329fe7587bbe74526c37c11c0" target="_top" xlink:title="gamePlayer.mainClasses.managers.\lWelcomeManager.newGame">
<polygon fill="white" stroke="black" points="839.5,-0 839.5,-30 1030.5,-30 1030.5,-0 839.5,-0"/>
<text text-anchor="start" x="847.5" y="-18" font-family="Helvetica,sans-Serif" font-size="10.00">gamePlayer.mainClasses.managers.</text>
<text text-anchor="middle" x="935" y="-7" font-family="Helvetica,sans-Serif" font-size="10.00">WelcomeManager.newGame</text>
</a>
</g>
</g>
<!-- Node4&#45;&gt;Node17 -->
<g id="edge17" class="edge"><title>Node4&#45;&gt;Node17</title>
<path fill="none" stroke="midnightblue" d="M784.091,-103.214C786.836,-101.61 789.482,-99.875 792,-98 816.637,-79.6521 803.049,-56.9182 828,-39 832.828,-35.533 838.072,-32.5559 843.558,-30.0005"/>
<polygon fill="midnightblue" stroke="midnightblue" points="782.301,-100.2 775.034,-107.91 785.523,-106.414 782.301,-100.2"/>
</g>
<!-- Node18 -->
<g id="node18" class="node"><title>Node18</title>
<g id="a_node18"><a xlink:href="../../d4/d3f/classgame_player_1_1main_classes_1_1managers_1_1_welcome_manager.html#a5da8d3f5b8bc1c4bd4c555140bd9384c" target="_top" xlink:title="gamePlayer.mainClasses.managers.\lWelcomeManager.startSinglePlayerGame">
<polygon fill="white" stroke="black" points="828,-108 828,-138 1042,-138 1042,-108 828,-108"/>
<text text-anchor="start" x="836" y="-126" font-family="Helvetica,sans-Serif" font-size="10.00">gamePlayer.mainClasses.managers.</text>
<text text-anchor="middle" x="935" y="-115" font-family="Helvetica,sans-Serif" font-size="10.00">WelcomeManager.startSinglePlayerGame</text>
</a>
</g>
</g>
<!-- Node4&#45;&gt;Node18 -->
<g id="edge18" class="edge"><title>Node4&#45;&gt;Node18</title>
<path fill="none" stroke="midnightblue" d="M801.766,-123C810.398,-123 819.128,-123 827.77,-123"/>
<polygon fill="midnightblue" stroke="midnightblue" points="801.69,-119.5 791.69,-123 801.69,-126.5 801.69,-119.5"/>
</g>
<!-- Node19 -->
<g id="node19" class="node"><title>Node19</title>
<g id="a_node19"><a xlink:href="../../d3/dee/classgame_player_1_1main_classes_1_1welcome_screen_1_1_game_start_manager.html#a0c44b3f25d2a30fe2e7aeca9da7161a9" target="_top" xlink:title="gamePlayer.mainClasses.welcome\lScreen.GameStartManager.startSingle\lPlayerGame">
<polygon fill="white" stroke="black" points="833.5,-48.5 833.5,-89.5 1036.5,-89.5 1036.5,-48.5 833.5,-48.5"/>
<text text-anchor="start" x="841.5" y="-77.5" font-family="Helvetica,sans-Serif" font-size="10.00">gamePlayer.mainClasses.welcome</text>
<text text-anchor="start" x="841.5" y="-66.5" font-family="Helvetica,sans-Serif" font-size="10.00">Screen.GameStartManager.startSingle</text>
<text text-anchor="middle" x="935" y="-55.5" font-family="Helvetica,sans-Serif" font-size="10.00">PlayerGame</text>
</a>
</g>
</g>
<!-- Node4&#45;&gt;Node19 -->
<g id="edge20" class="edge"><title>Node4&#45;&gt;Node19</title>
<path fill="none" stroke="midnightblue" d="M772.894,-105.708C795.522,-100.552 820.541,-94.8513 843.981,-89.5107"/>
<polygon fill="midnightblue" stroke="midnightblue" points="771.99,-102.324 763.018,-107.958 773.545,-109.149 771.99,-102.324"/>
</g>
<!-- Node6 -->
<g id="node6" class="node"><title>Node6</title>
<g id="a_node6"><a xlink:href="../../da/d69/classgame_player_1_1main_classes_1_1managers_1_1_gui_manager.html#ad50f462f8d45a5bbfc8a17290372a1ab" target="_top" xlink:title="gamePlayer.mainClasses.managers.\lGuiManager.joinMultiPlayerGame">
<polygon fill="white" stroke="black" points="1092.5,-233 1092.5,-263 1283.5,-263 1283.5,-233 1092.5,-233"/>
<text text-anchor="start" x="1100.5" y="-251" font-family="Helvetica,sans-Serif" font-size="10.00">gamePlayer.mainClasses.managers.</text>
<text text-anchor="middle" x="1188" y="-240" font-family="Helvetica,sans-Serif" font-size="10.00">GuiManager.joinMultiPlayerGame</text>
</a>
</g>
</g>
<!-- Node5&#45;&gt;Node6 -->
<g id="edge5" class="edge"><title>Node5&#45;&gt;Node6</title>
<path fill="none" stroke="midnightblue" d="M1015.84,-211.177C1048.35,-218.172 1085.6,-226.184 1117.02,-232.945"/>
<polygon fill="midnightblue" stroke="midnightblue" points="1016.43,-207.724 1005.92,-209.042 1014.96,-214.567 1016.43,-207.724"/>
</g>
<!-- Node5&#45;&gt;Node10 -->
<g id="edge9" class="edge"><title>Node5&#45;&gt;Node10</title>
<path fill="none" stroke="midnightblue" d="M971.504,-214.172C1009.87,-235.861 1067.02,-267.818 1078,-272 1087.98,-275.8 1098.7,-279.122 1109.39,-281.995"/>
<polygon fill="midnightblue" stroke="midnightblue" points="973.1,-211.053 962.673,-209.173 969.651,-217.145 973.1,-211.053"/>
</g>
<!-- Node11 -->
<g id="node11" class="node"><title>Node11</title>
<g id="a_node11"><a xlink:href="../../d4/d3f/classgame_player_1_1main_classes_1_1managers_1_1_welcome_manager.html#a55598dd2973b0a9b979151dd60c9e436" target="_top" xlink:title="gamePlayer.mainClasses.managers.\lWelcomeManager.pollEngineForMultiPlayer\lReadiness">
<polygon fill="white" stroke="black" points="1078.5,-173.5 1078.5,-214.5 1297.5,-214.5 1297.5,-173.5 1078.5,-173.5"/>
<text text-anchor="start" x="1086.5" y="-202.5" font-family="Helvetica,sans-Serif" font-size="10.00">gamePlayer.mainClasses.managers.</text>
<text text-anchor="start" x="1086.5" y="-191.5" font-family="Helvetica,sans-Serif" font-size="10.00">WelcomeManager.pollEngineForMultiPlayer</text>
<text text-anchor="middle" x="1188" y="-180.5" font-family="Helvetica,sans-Serif" font-size="10.00">Readiness</text>
</a>
</g>
</g>
<!-- Node5&#45;&gt;Node11 -->
<g id="edge10" class="edge"><title>Node5&#45;&gt;Node11</title>
<path fill="none" stroke="midnightblue" d="M1040.84,-194C1053.19,-194 1065.81,-194 1078.22,-194"/>
<polygon fill="midnightblue" stroke="midnightblue" points="1040.53,-190.5 1030.53,-194 1040.53,-197.5 1040.53,-190.5"/>
</g>
<!-- Node14 -->
<g id="node14" class="node"><title>Node14</title>
<g id="a_node14"><a xlink:href="../../d3/dee/classgame_player_1_1main_classes_1_1welcome_screen_1_1_game_start_manager.html#a5d5001d1ee14ae57deef01f6e3ddde31" target="_top" xlink:title="gamePlayer.mainClasses.welcome\lScreen.GameStartManager.pollEngine\lForMultiPlayerReadiness">
<polygon fill="white" stroke="black" points="1088,-113.5 1088,-154.5 1288,-154.5 1288,-113.5 1088,-113.5"/>
<text text-anchor="start" x="1096" y="-142.5" font-family="Helvetica,sans-Serif" font-size="10.00">gamePlayer.mainClasses.welcome</text>
<text text-anchor="start" x="1096" y="-131.5" font-family="Helvetica,sans-Serif" font-size="10.00">Screen.GameStartManager.pollEngine</text>
<text text-anchor="middle" x="1188" y="-120.5" font-family="Helvetica,sans-Serif" font-size="10.00">ForMultiPlayerReadiness</text>
</a>
</g>
</g>
<!-- Node5&#45;&gt;Node14 -->
<g id="edge13" class="edge"><title>Node5&#45;&gt;Node14</title>
<path fill="none" stroke="midnightblue" d="M1009.01,-176.546C1037.86,-169.652 1071.21,-161.679 1101.19,-154.511"/>
<polygon fill="midnightblue" stroke="midnightblue" points="1007.93,-173.208 999.014,-178.937 1009.55,-180.016 1007.93,-173.208"/>
</g>
<!-- Node7 -->
<g id="node7" class="node"><title>Node7</title>
<g id="a_node7"><a xlink:href="../../d4/d3f/classgame_player_1_1main_classes_1_1managers_1_1_welcome_manager.html#a71a2a80cfe9d3a07d7becc506178acfd" target="_top" xlink:title="gamePlayer.mainClasses.managers.\lWelcomeManager.joinMultiPlayerGame">
<polygon fill="white" stroke="black" points="1337.5,-285 1337.5,-315 1538.5,-315 1538.5,-285 1337.5,-285"/>
<text text-anchor="start" x="1345.5" y="-303" font-family="Helvetica,sans-Serif" font-size="10.00">gamePlayer.mainClasses.managers.</text>
<text text-anchor="middle" x="1438" y="-292" font-family="Helvetica,sans-Serif" font-size="10.00">WelcomeManager.joinMultiPlayerGame</text>
</a>
</g>
</g>
<!-- Node6&#45;&gt;Node7 -->
<g id="edge6" class="edge"><title>Node6&#45;&gt;Node7</title>
<path fill="none" stroke="midnightblue" d="M1270.53,-265.095C1301.18,-271.521 1335.76,-278.772 1365.43,-284.993"/>
<polygon fill="midnightblue" stroke="midnightblue" points="1271.24,-261.667 1260.73,-263.041 1269.8,-268.518 1271.24,-261.667"/>
</g>
<!-- Node9 -->
<g id="node9" class="node"><title>Node9</title>
<g id="a_node9"><a xlink:href="../../d3/dee/classgame_player_1_1main_classes_1_1welcome_screen_1_1_game_start_manager.html#a7465850240e12e23aec544dbfd08f6a0" target="_top" xlink:title="gamePlayer.mainClasses.welcome\lScreen.GameStartManager.joinMulti\lPlayerGame">
<polygon fill="white" stroke="black" points="1343,-225.5 1343,-266.5 1533,-266.5 1533,-225.5 1343,-225.5"/>
<text text-anchor="start" x="1351" y="-254.5" font-family="Helvetica,sans-Serif" font-size="10.00">gamePlayer.mainClasses.welcome</text>
<text text-anchor="start" x="1351" y="-243.5" font-family="Helvetica,sans-Serif" font-size="10.00">Screen.GameStartManager.joinMulti</text>
<text text-anchor="middle" x="1438" y="-232.5" font-family="Helvetica,sans-Serif" font-size="10.00">PlayerGame</text>
</a>
</g>
</g>
<!-- Node6&#45;&gt;Node9 -->
<g id="edge8" class="edge"><title>Node6&#45;&gt;Node9</title>
<path fill="none" stroke="midnightblue" d="M1293.84,-247.155C1310.04,-247.024 1326.69,-246.89 1342.64,-246.761"/>
<polygon fill="midnightblue" stroke="midnightblue" points="1293.79,-243.655 1283.82,-247.235 1293.85,-250.654 1293.79,-243.655"/>
</g>
<!-- Node8 -->
<g id="node8" class="node"><title>Node8</title>
<g id="a_node8"><a xlink:href="../../d4/d3f/classgame_player_1_1main_classes_1_1managers_1_1_welcome_manager.html#aa605746e09c481b225463d37a82427e3" target="_top" xlink:title="gamePlayer.mainClasses.managers.\lWelcomeManager.startMultiPlayerOptions">
<polygon fill="white" stroke="black" points="1578.5,-285 1578.5,-315 1793.5,-315 1793.5,-285 1578.5,-285"/>
<text text-anchor="start" x="1586.5" y="-303" font-family="Helvetica,sans-Serif" font-size="10.00">gamePlayer.mainClasses.managers.</text>
<text text-anchor="middle" x="1686" y="-292" font-family="Helvetica,sans-Serif" font-size="10.00">WelcomeManager.startMultiPlayerOptions</text>
</a>
</g>
</g>
<!-- Node7&#45;&gt;Node8 -->
<g id="edge7" class="edge"><title>Node7&#45;&gt;Node8</title>
<path fill="none" stroke="midnightblue" d="M1548.86,-300C1558.66,-300 1568.56,-300 1578.33,-300"/>
<polygon fill="midnightblue" stroke="midnightblue" points="1548.7,-296.5 1538.7,-300 1548.7,-303.5 1548.7,-296.5"/>
</g>
<!-- Node12 -->
<g id="node12" class="node"><title>Node12</title>
<g id="a_node12"><a xlink:href="../../d4/d3f/classgame_player_1_1main_classes_1_1managers_1_1_welcome_manager.html#a0669db103a94675dce875042258da508" target="_top" xlink:title="gamePlayer.mainClasses.managers.\lWelcomeManager.startMultiPlayerGame">
<polygon fill="white" stroke="black" points="1334.5,-176 1334.5,-206 1541.5,-206 1541.5,-176 1334.5,-176"/>
<text text-anchor="start" x="1342.5" y="-194" font-family="Helvetica,sans-Serif" font-size="10.00">gamePlayer.mainClasses.managers.</text>
<text text-anchor="middle" x="1438" y="-183" font-family="Helvetica,sans-Serif" font-size="10.00">WelcomeManager.startMultiPlayerGame</text>
</a>
</g>
</g>
<!-- Node11&#45;&gt;Node12 -->
<g id="edge11" class="edge"><title>Node11&#45;&gt;Node12</title>
<path fill="none" stroke="midnightblue" d="M1308.02,-192.56C1316.78,-192.454 1325.56,-192.348 1334.21,-192.243"/>
<polygon fill="midnightblue" stroke="midnightblue" points="1307.73,-189.063 1297.78,-192.684 1307.82,-196.063 1307.73,-189.063"/>
</g>
<!-- Node13 -->
<g id="node13" class="node"><title>Node13</title>
<g id="a_node13"><a xlink:href="../../d4/d3f/classgame_player_1_1main_classes_1_1managers_1_1_welcome_manager.html#ae6495396aef63551116c0835c40574e1" target="_top" xlink:title="gamePlayer.mainClasses.managers.\lWelcomeManager.startGame">
<polygon fill="white" stroke="black" points="1590.5,-151 1590.5,-181 1781.5,-181 1781.5,-151 1590.5,-151"/>
<text text-anchor="start" x="1598.5" y="-169" font-family="Helvetica,sans-Serif" font-size="10.00">gamePlayer.mainClasses.managers.</text>
<text text-anchor="middle" x="1686" y="-158" font-family="Helvetica,sans-Serif" font-size="10.00">WelcomeManager.startGame</text>
</a>
</g>
</g>
<!-- Node12&#45;&gt;Node13 -->
<g id="edge12" class="edge"><title>Node12&#45;&gt;Node13</title>
<path fill="none" stroke="midnightblue" d="M1551.86,-179.53C1564.78,-178.218 1577.84,-176.89 1590.49,-175.605"/>
<polygon fill="midnightblue" stroke="midnightblue" points="1551.14,-176.086 1541.54,-180.579 1551.85,-183.05 1551.14,-176.086"/>
</g>
<!-- Node15 -->
<g id="node15" class="node"><title>Node15</title>
<g id="a_node15"><a xlink:href="../../d3/dee/classgame_player_1_1main_classes_1_1welcome_screen_1_1_game_start_manager.html#a994c29260d6cb90abf19dca2b3463b6a" target="_top" xlink:title="gamePlayer.mainClasses.welcome\lScreen.GameStartManager.startMulti\lPlayerGame">
<polygon fill="white" stroke="black" points="1340,-113.5 1340,-154.5 1536,-154.5 1536,-113.5 1340,-113.5"/>
<text text-anchor="start" x="1348" y="-142.5" font-family="Helvetica,sans-Serif" font-size="10.00">gamePlayer.mainClasses.welcome</text>
<text text-anchor="start" x="1348" y="-131.5" font-family="Helvetica,sans-Serif" font-size="10.00">Screen.GameStartManager.startMulti</text>
<text text-anchor="middle" x="1438" y="-120.5" font-family="Helvetica,sans-Serif" font-size="10.00">PlayerGame</text>
</a>
</g>
</g>
<!-- Node14&#45;&gt;Node15 -->
<g id="edge14" class="edge"><title>Node14&#45;&gt;Node15</title>
<path fill="none" stroke="midnightblue" d="M1298.11,-134C1311.95,-134 1326.05,-134 1339.69,-134"/>
<polygon fill="midnightblue" stroke="midnightblue" points="1298.09,-130.5 1288.09,-134 1298.09,-137.5 1298.09,-130.5"/>
</g>
<!-- Node16 -->
<g id="node16" class="node"><title>Node16</title>
<g id="a_node16"><a xlink:href="../../d3/dee/classgame_player_1_1main_classes_1_1welcome_screen_1_1_game_start_manager.html#a4ac849399bf00c6df86f0db25ea95ed8" target="_top" xlink:title="gamePlayer.mainClasses.welcome\lScreen.GameStartManager.startGame">
<polygon fill="white" stroke="black" points="1584.5,-76 1584.5,-106 1787.5,-106 1787.5,-76 1584.5,-76"/>
<text text-anchor="start" x="1592.5" y="-94" font-family="Helvetica,sans-Serif" font-size="10.00">gamePlayer.mainClasses.welcome</text>
<text text-anchor="middle" x="1686" y="-83" font-family="Helvetica,sans-Serif" font-size="10.00">Screen.GameStartManager.startGame</text>
</a>
</g>
</g>
<!-- Node15&#45;&gt;Node16 -->
<g id="edge15" class="edge"><title>Node15&#45;&gt;Node16</title>
<path fill="none" stroke="midnightblue" d="M1546.48,-115.213C1563.99,-112.152 1581.93,-109.017 1598.84,-106.06"/>
<polygon fill="midnightblue" stroke="midnightblue" points="1545.47,-111.836 1536.23,-117.005 1546.68,-118.731 1545.47,-111.836"/>
</g>
<!-- Node18&#45;&gt;Node13 -->
<g id="edge19" class="edge"><title>Node18&#45;&gt;Node13</title>
<path fill="none" stroke="midnightblue" d="M1030.81,-106.453C1151.11,-88.5426 1364.31,-67.1379 1542,-104 1564.39,-108.645 1619.54,-134.177 1654.44,-150.994"/>
<polygon fill="midnightblue" stroke="midnightblue" points="1030.26,-102.997 1020.89,-107.954 1031.3,-109.919 1030.26,-102.997"/>
</g>
<!-- Node19&#45;&gt;Node16 -->
<g id="edge21" class="edge"><title>Node19&#45;&gt;Node16</title>
<path fill="none" stroke="midnightblue" d="M1046.75,-64.8699C1168.37,-61.3817 1369.37,-58.7 1542,-71 1557.75,-72.1224 1574.41,-73.9036 1590.58,-75.9514"/>
<polygon fill="midnightblue" stroke="midnightblue" points="1046.57,-61.3734 1036.68,-65.1657 1046.78,-68.3704 1046.57,-61.3734"/>
</g>
</g>
</svg>
        <g id="navigator" transform="translate(0 0)" fill="#404254">
                <rect fill="#f2f5e9" fill-opacity="0.5" stroke="#606060" stroke-width=".5" x="0" y="0" width="60" height="60"/>
                <use id="zoomplus" xlink:href="#zoomPlus" x="17" y="9" onmousedown="handleZoom(evt,'in')"/>
                <use id="zoomminus" xlink:href="#zoomMin" x="42" y="9" onmousedown="handleZoom(evt,'out')"/>
                <use id="reset" xlink:href="#resetDef" x="30" y="36" onmousedown="handleReset()"/>
                <g id="arrowUp" xlink:href="#dirArrow" transform="translate(30 24)" onmousedown="handlePan(0,-1)">
                  <use xlink:href="#rim" fill="#404040">
                        <set attributeName="fill" to="#808080" begin="arrowUp.mouseover" end="arrowUp.mouseout"/>
                  </use>
                  <path fill="none" stroke="white" stroke-width="1.5" d="M0,-3.0v7 M-2.5,-0.5L0,-3.0L2.5,-0.5"/>
                </g>
                <g id="arrowRight" xlink:href="#dirArrow" transform="rotate(90) translate(36 -43)" onmousedown="handlePan(1,0)">
                  <use xlink:href="#rim" fill="#404040">
                        <set attributeName="fill" to="#808080" begin="arrowRight.mouseover" end="arrowRight.mouseout"/>
                  </use>
                  <path fill="none" stroke="white" stroke-width="1.5" d="M0,-3.0v7 M-2.5,-0.5L0,-3.0L2.5,-0.5"/>
                </g>
                <g id="arrowDown" xlink:href="#dirArrow" transform="rotate(180) translate(-30 -48)" onmousedown="handlePan(0,1)">
                  <use xlink:href="#rim" fill="#404040">
                        <set attributeName="fill" to="#808080" begin="arrowDown.mouseover" end="arrowDown.mouseout"/>
                  </use>
                  <path fill="none" stroke="white" stroke-width="1.5" d="M0,-3.0v7 M-2.5,-0.5L0,-3.0L2.5,-0.5"/>
                </g>
                <g id="arrowLeft" xlink:href="#dirArrow" transform="rotate(270) translate(-36 17)" onmousedown="handlePan(-1,0)">
                  <use xlink:href="#rim" fill="#404040">
                        <set attributeName="fill" to="#808080" begin="arrowLeft.mouseover" end="arrowLeft.mouseout"/>
                  </use>
                  <path fill="none" stroke="white" stroke-width="1.5" d="M0,-3.0v7 M-2.5,-0.5L0,-3.0L2.5,-0.5"/>
                </g>
        </g>
        <svg viewBox="0 0 15 15" width="100%" height="30px" preserveAspectRatio="xMaxYMin meet">
         <g id="arrow_out" transform="scale(0.3 0.3)">
          <a xlink:href="classgame_player_1_1gui_containers_1_1core_containers_1_1_top_container_a7ee024a250448af00717a87d0cc6f920_icgraph_org.svg" target="_base">
           <rect id="button" ry="5" rx="5" y="6" x="6" height="38" width="38"
                fill="#f2f5e9" fill-opacity="0.5" stroke="#606060" stroke-width="1.0"/>
           <path id="arrow"
             d="M 11.500037,31.436501 C 11.940474,20.09759 22.043105,11.32322 32.158766,21.979434 L 37.068811,17.246167 C 37.068811,17.246167 37.088388,32 37.088388,32 L 22.160133,31.978069 C 22.160133,31.978069 26.997745,27.140456 26.997745,27.140456 C 18.528582,18.264221 13.291696,25.230495 11.500037,31.436501 z"
             style="fill:#404040;"/>
          </a>
         </g>
        </svg>
</svg>
