<?xml version="1.0" encoding="UTF-8" standalone="no"?>
<!DOCTYPE svg PUBLIC "-//W3C//DTD SVG 1.1//EN"
 "http://www.w3.org/Graphics/SVG/1.1/DTD/svg11.dtd">
<!-- Generated by graphviz version 2.36.0 (20140111.2315)
 -->
<!-- Title: gamePlayer.guiItems.headsUpDisplay.GameStat Pages: 1 -->
<svg width="203pt" height="108pt"
 viewBox="0.00 0.00 203.00 108.00" xmlns="http://www.w3.org/2000/svg" xmlns:xlink="http://www.w3.org/1999/xlink">
<g id="graph0" class="graph" transform="scale(1 1) rotate(0) translate(4 104)">
<title>gamePlayer.guiItems.headsUpDisplay.GameStat</title>
<polygon fill="white" stroke="none" points="-4,4 -4,-104 199,-104 199,4 -4,4"/>
<!-- Node1 -->
<g id="node1" class="node"><title>Node1</title>
<polygon fill="#bfbfbf" stroke="black" points="21.5,-1 21.5,-31 170.5,-31 170.5,-1 21.5,-1"/>
<text text-anchor="start" x="29.5" y="-19" font-family="Helvetica,sans-Serif" font-size="10.00">gamePlayer.guiItems.heads</text>
<text text-anchor="middle" x="96" y="-8" font-family="Helvetica,sans-Serif" font-size="10.00">UpDisplay.GameStat</text>
</g>
<!-- Node2 -->
<g id="node2" class="node"><title>Node2</title>
<polygon fill="white" stroke="#bfbfbf" points="0,-80.5 0,-99.5 86,-99.5 86,-80.5 0,-80.5"/>
<text text-anchor="middle" x="43" y="-87.5" font-family="Helvetica,sans-Serif" font-size="10.00">StringProperty</text>
</g>
<!-- Node2&#45;&gt;Node1 -->
<g id="edge1" class="edge"><title>Node2&#45;&gt;Node1</title>
<path fill="none" stroke="#9a32cd" stroke-dasharray="5,2" d="M55.2915,-72.3022C64.4526,-59.8569 76.8303,-43.0418 85.524,-31.2316"/>
<polygon fill="#9a32cd" stroke="#9a32cd" points="52.3975,-70.3297 49.2879,-80.4579 58.0348,-74.4794 52.3975,-70.3297"/>
<text text-anchor="middle" x="98" y="-53.5" font-family="Helvetica,sans-Serif" font-size="10.00"> gameStat</text>
</g>
<!-- Node3 -->
<g id="node3" class="node"><title>Node3</title>
<polygon fill="white" stroke="#bfbfbf" points="104.5,-80.5 104.5,-99.5 195.5,-99.5 195.5,-80.5 104.5,-80.5"/>
<text text-anchor="middle" x="150" y="-87.5" font-family="Helvetica,sans-Serif" font-size="10.00">DoubleProperty</text>
</g>
<!-- Node3&#45;&gt;Node1 -->
<g id="edge2" class="edge"><title>Node3&#45;&gt;Node1</title>
<path fill="none" stroke="#9a32cd" stroke-dasharray="5,2" d="M141.147,-71.0883C137.449,-64.2464 132.878,-56.5266 128,-50 123.031,-43.3519 116.819,-36.659 111.192,-31.0551"/>
<polygon fill="#9a32cd" stroke="#9a32cd" points="138.177,-72.9639 145.875,-80.2431 144.396,-69.752 138.177,-72.9639"/>
<text text-anchor="middle" x="160.5" y="-53.5" font-family="Helvetica,sans-Serif" font-size="10.00"> statValue</text>
</g>
</g>
</svg>
