<?xml version="1.0" encoding="UTF-8" standalone="no"?>
<!DOCTYPE svg PUBLIC "-//W3C//DTD SVG 1.1//EN"
 "http://www.w3.org/Graphics/SVG/1.1/DTD/svg11.dtd">
<!-- Generated by graphviz version 2.36.0 (20140111.2315)
 -->
<!-- Title: gamePlayer.guiItems.controlDockButtons.buttons.PlayButton.play Pages: 1 -->
<svg width="646pt" height="87pt"
 viewBox="0.00 0.00 646.00 87.00" xmlns="http://www.w3.org/2000/svg" xmlns:xlink="http://www.w3.org/1999/xlink">
<g id="graph0" class="graph" transform="scale(1 1) rotate(0) translate(4 83)">
<title>gamePlayer.guiItems.controlDockButtons.buttons.PlayButton.play</title>
<polygon fill="white" stroke="none" points="-4,4 -4,-83 642,-83 642,4 -4,4"/>
<!-- Node1 -->
<g id="node1" class="node"><title>Node1</title>
<polygon fill="#bfbfbf" stroke="black" points="0.5,-49 0.5,-79 195.5,-79 195.5,-49 0.5,-49"/>
<text text-anchor="start" x="8.5" y="-67" font-family="Helvetica,sans-Serif" font-size="10.00">gamePlayer.guiItems.control</text>
<text text-anchor="middle" x="98" y="-56" font-family="Helvetica,sans-Serif" font-size="10.00">DockButtons.buttons.PlayButton.play</text>
</g>
<!-- Node2 -->
<g id="node2" class="node"><title>Node2</title>
<g id="a_node2"><a xlink:href="../../da/d25/classgame_player_1_1gui_items_1_1control_dock_buttons_1_1buttons_1_1_play_button.html#a37e42469d1960d9d90eb8cdc4c63a5a3" target="_top" xlink:title="gamePlayer.guiItems.control\lDockButtons.buttons.PlayButton.pause">
<polygon fill="white" stroke="black" points="232.5,-49 232.5,-79 437.5,-79 437.5,-49 232.5,-49"/>
<text text-anchor="start" x="240.5" y="-67" font-family="Helvetica,sans-Serif" font-size="10.00">gamePlayer.guiItems.control</text>
<text text-anchor="middle" x="335" y="-56" font-family="Helvetica,sans-Serif" font-size="10.00">DockButtons.buttons.PlayButton.pause</text>
</a>
</g>
</g>
<!-- Node1&#45;&gt;Node2 -->
<g id="edge1" class="edge"><title>Node1&#45;&gt;Node2</title>
<path fill="none" stroke="midnightblue" d="M195.601,-57.3458C204.431,-57.2641 213.423,-57.2346 222.371,-57.2575"/>
<polygon fill="midnightblue" stroke="midnightblue" points="222.425,-60.7577 232.442,-57.3055 222.459,-53.7578 222.425,-60.7577"/>
</g>
<!-- Node4 -->
<g id="node4" class="node"><title>Node4</title>
<g id="a_node4"><a xlink:href="../../d5/de0/interfacegame_player_1_1gui_items_listeners_1_1_play_button_listener.html#ad910bc1b4f62351e1feb8c3b6777e886" target="_top" xlink:title="gamePlayer.guiItemsListeners.\lPlayButtonListener.play">
<polygon fill="white" stroke="black" points="253,-0 253,-30 417,-30 417,-0 253,-0"/>
<text text-anchor="start" x="261" y="-18" font-family="Helvetica,sans-Serif" font-size="10.00">gamePlayer.guiItemsListeners.</text>
<text text-anchor="middle" x="335" y="-7" font-family="Helvetica,sans-Serif" font-size="10.00">PlayButtonListener.play</text>
</a>
</g>
</g>
<!-- Node1&#45;&gt;Node4 -->
<g id="edge4" class="edge"><title>Node1&#45;&gt;Node4</title>
<path fill="none" stroke="midnightblue" d="M171.105,-48.9654C196.707,-43.627 225.707,-37.5802 252.07,-32.0834"/>
<polygon fill="midnightblue" stroke="midnightblue" points="252.957,-35.4738 262.032,-30.0062 251.528,-28.6212 252.957,-35.4738"/>
</g>
<!-- Node2&#45;&gt;Node1 -->
<g id="edge3" class="edge"><title>Node2&#45;&gt;Node1</title>
<path fill="none" stroke="midnightblue" d="M232.442,-70.6945C223.558,-70.7567 214.551,-70.7666 205.628,-70.7243"/>
<polygon fill="midnightblue" stroke="midnightblue" points="205.625,-67.2242 195.601,-70.6542 205.576,-74.2241 205.625,-67.2242"/>
</g>
<!-- Node3 -->
<g id="node3" class="node"><title>Node3</title>
<g id="a_node3"><a xlink:href="../../d5/de0/interfacegame_player_1_1gui_items_listeners_1_1_play_button_listener.html#a9bc839c40b356cb3c7f710431b6b195d" target="_top" xlink:title="gamePlayer.guiItemsListeners.\lPlayButtonListener.pause">
<polygon fill="white" stroke="black" points="474,-49 474,-79 638,-79 638,-49 474,-49"/>
<text text-anchor="start" x="482" y="-67" font-family="Helvetica,sans-Serif" font-size="10.00">gamePlayer.guiItemsListeners.</text>
<text text-anchor="middle" x="556" y="-56" font-family="Helvetica,sans-Serif" font-size="10.00">PlayButtonListener.pause</text>
</a>
</g>
</g>
<!-- Node2&#45;&gt;Node3 -->
<g id="edge2" class="edge"><title>Node2&#45;&gt;Node3</title>
<path fill="none" stroke="midnightblue" d="M437.806,-64C446.383,-64 455.023,-64 463.514,-64"/>
<polygon fill="midnightblue" stroke="midnightblue" points="463.783,-67.5001 473.783,-64 463.783,-60.5001 463.783,-67.5001"/>
</g>
</g>
</svg>
