<?xml version="1.0" encoding="UTF-8" standalone="no"?>
<!DOCTYPE svg PUBLIC "-//W3C//DTD SVG 1.1//EN"
 "http://www.w3.org/Graphics/SVG/1.1/DTD/svg11.dtd">
<!-- Generated by graphviz version 2.36.0 (20140111.2315)
 -->
<!-- Title: gamePlayer.guiItems.controlDockButtons.buttons.PlayButton.pause Pages: 1 -->
<svg width="646pt" height="87pt"
 viewBox="0.00 0.00 646.00 87.00" xmlns="http://www.w3.org/2000/svg" xmlns:xlink="http://www.w3.org/1999/xlink">
<g id="graph0" class="graph" transform="scale(1 1) rotate(0) translate(4 83)">
<title>gamePlayer.guiItems.controlDockButtons.buttons.PlayButton.pause</title>
<polygon fill="white" stroke="none" points="-4,4 -4,-83 642,-83 642,4 -4,4"/>
<!-- Node1 -->
<g id="node1" class="node"><title>Node1</title>
<polygon fill="#bfbfbf" stroke="black" points="0.5,-0 0.5,-30 205.5,-30 205.5,-0 0.5,-0"/>
<text text-anchor="start" x="8.5" y="-18" font-family="Helvetica,sans-Serif" font-size="10.00">gamePlayer.guiItems.control</text>
<text text-anchor="middle" x="103" y="-7" font-family="Helvetica,sans-Serif" font-size="10.00">DockButtons.buttons.PlayButton.pause</text>
</g>
<!-- Node2 -->
<g id="node2" class="node"><title>Node2</title>
<g id="a_node2"><a xlink:href="../../d5/de0/interfacegame_player_1_1gui_items_listeners_1_1_play_button_listener.html#a9bc839c40b356cb3c7f710431b6b195d" target="_top" xlink:title="gamePlayer.guiItemsListeners.\lPlayButtonListener.pause">
<polygon fill="white" stroke="black" points="258,-49 258,-79 422,-79 422,-49 258,-49"/>
<text text-anchor="start" x="266" y="-67" font-family="Helvetica,sans-Serif" font-size="10.00">gamePlayer.guiItemsListeners.</text>
<text text-anchor="middle" x="340" y="-56" font-family="Helvetica,sans-Serif" font-size="10.00">PlayButtonListener.pause</text>
</a>
</g>
</g>
<!-- Node1&#45;&gt;Node2 -->
<g id="edge1" class="edge"><title>Node1&#45;&gt;Node2</title>
<path fill="none" stroke="midnightblue" d="M176.105,-30.0346C201.707,-35.373 230.707,-41.4198 257.07,-46.9166"/>
<polygon fill="midnightblue" stroke="midnightblue" points="256.528,-50.3788 267.032,-48.9938 257.957,-43.5262 256.528,-50.3788"/>
</g>
<!-- Node3 -->
<g id="node3" class="node"><title>Node3</title>
<g id="a_node3"><a xlink:href="../../da/d25/classgame_player_1_1gui_items_1_1control_dock_buttons_1_1buttons_1_1_play_button.html#a92ea5a2f61c987df9ab3b651dfd55fb5" target="_top" xlink:title="gamePlayer.guiItems.control\lDockButtons.buttons.PlayButton.play">
<polygon fill="white" stroke="black" points="242.5,-0 242.5,-30 437.5,-30 437.5,-0 242.5,-0"/>
<text text-anchor="start" x="250.5" y="-18" font-family="Helvetica,sans-Serif" font-size="10.00">gamePlayer.guiItems.control</text>
<text text-anchor="middle" x="340" y="-7" font-family="Helvetica,sans-Serif" font-size="10.00">DockButtons.buttons.PlayButton.play</text>
</a>
</g>
</g>
<!-- Node1&#45;&gt;Node3 -->
<g id="edge2" class="edge"><title>Node1&#45;&gt;Node3</title>
<path fill="none" stroke="midnightblue" d="M205.708,-8.30449C214.445,-8.24387 223.301,-8.23383 232.078,-8.27437"/>
<polygon fill="midnightblue" stroke="midnightblue" points="232.309,-11.776 242.333,-8.3452 232.357,-4.77612 232.309,-11.776"/>
</g>
<!-- Node3&#45;&gt;Node1 -->
<g id="edge3" class="edge"><title>Node3&#45;&gt;Node1</title>
<path fill="none" stroke="midnightblue" d="M242.333,-21.6548C233.554,-21.7358 224.615,-21.7651 215.72,-21.7427"/>
<polygon fill="midnightblue" stroke="midnightblue" points="215.724,-18.2428 205.708,-21.6955 215.691,-25.2427 215.724,-18.2428"/>
</g>
<!-- Node4 -->
<g id="node4" class="node"><title>Node4</title>
<g id="a_node4"><a xlink:href="../../d5/de0/interfacegame_player_1_1gui_items_listeners_1_1_play_button_listener.html#ad910bc1b4f62351e1feb8c3b6777e886" target="_top" xlink:title="gamePlayer.guiItemsListeners.\lPlayButtonListener.play">
<polygon fill="white" stroke="black" points="474,-0 474,-30 638,-30 638,-0 474,-0"/>
<text text-anchor="start" x="482" y="-18" font-family="Helvetica,sans-Serif" font-size="10.00">gamePlayer.guiItemsListeners.</text>
<text text-anchor="middle" x="556" y="-7" font-family="Helvetica,sans-Serif" font-size="10.00">PlayButtonListener.play</text>
</a>
</g>
</g>
<!-- Node3&#45;&gt;Node4 -->
<g id="edge4" class="edge"><title>Node3&#45;&gt;Node4</title>
<path fill="none" stroke="midnightblue" d="M437.67,-15C446.347,-15 455.117,-15 463.746,-15"/>
<polygon fill="midnightblue" stroke="midnightblue" points="463.798,-18.5001 473.798,-15 463.798,-11.5001 463.798,-18.5001"/>
</g>
</g>
</svg>
