<?xml version="1.0" encoding="UTF-8" standalone="no"?>
<!DOCTYPE svg PUBLIC "-//W3C//DTD SVG 1.1//EN"
 "http://www.w3.org/Graphics/SVG/1.1/DTD/svg11.dtd">
<!-- Generated by graphviz version 2.36.0 (20140111.2315)
 -->
<!-- Title: gameAuthoring.scenes.pathBuilding.buildingPanes.locationPane.EnemyLocationPane.createEnemyLocationsSetupComponents Pages: 1 -->
<svg width="690pt" height="103pt"
 viewBox="0.00 0.00 690.00 103.00" xmlns="http://www.w3.org/2000/svg" xmlns:xlink="http://www.w3.org/1999/xlink">
<g id="graph0" class="graph" transform="scale(1 1) rotate(0) translate(4 99)">
<title>gameAuthoring.scenes.pathBuilding.buildingPanes.locationPane.EnemyLocationPane.createEnemyLocationsSetupComponents</title>
<polygon fill="white" stroke="none" points="-4,4 -4,-99 686,-99 686,4 -4,4"/>
<!-- Node1 -->
<g id="node1" class="node"><title>Node1</title>
<polygon fill="#bfbfbf" stroke="black" points="0,-21 0,-73 252,-73 252,-21 0,-21"/>
<text text-anchor="start" x="8" y="-61" font-family="Helvetica,sans-Serif" font-size="10.00">gameAuthoring.scenes.path</text>
<text text-anchor="start" x="8" y="-50" font-family="Helvetica,sans-Serif" font-size="10.00">Building.buildingPanes.location</text>
<text text-anchor="start" x="8" y="-39" font-family="Helvetica,sans-Serif" font-size="10.00">Pane.EnemyLocationPane.createEnemyLocations</text>
<text text-anchor="middle" x="126" y="-28" font-family="Helvetica,sans-Serif" font-size="10.00">SetupComponents</text>
</g>
<!-- Node2 -->
<g id="node2" class="node"><title>Node2</title>
<g id="a_node2"><a xlink:href="../../dc/d2e/classutilities_1_1multilanguage_1_1_multi_language_utility.html#aaa34262e5a69e5d96d435c4f9872e544" target="_top" xlink:title="utilities.multilanguage.\lMultiLanguageUtility.getInstance">
<polygon fill="white" stroke="black" points="288.5,-59 288.5,-89 459.5,-89 459.5,-59 288.5,-59"/>
<text text-anchor="start" x="296.5" y="-77" font-family="Helvetica,sans-Serif" font-size="10.00">utilities.multilanguage.</text>
<text text-anchor="middle" x="374" y="-66" font-family="Helvetica,sans-Serif" font-size="10.00">MultiLanguageUtility.getInstance</text>
</a>
</g>
</g>
<!-- Node1&#45;&gt;Node2 -->
<g id="edge1" class="edge"><title>Node1&#45;&gt;Node2</title>
<path fill="none" stroke="midnightblue" d="M252.162,-60.7373C260.949,-61.7017 269.721,-62.6645 278.299,-63.606"/>
<polygon fill="midnightblue" stroke="midnightblue" points="277.947,-67.0883 288.269,-64.7003 278.711,-60.1301 277.947,-67.0883"/>
</g>
<!-- Node4 -->
<g id="node4" class="node"><title>Node4</title>
<g id="a_node4"><a xlink:href="../../dc/d2e/classutilities_1_1multilanguage_1_1_multi_language_utility.html#a6bc704aa624d0bc11d5f18717ef5842a" target="_top" xlink:title="utilities.multilanguage.\lMultiLanguageUtility.getString\lProperty">
<polygon fill="white" stroke="black" points="294.5,0.5 294.5,-40.5 453.5,-40.5 453.5,0.5 294.5,0.5"/>
<text text-anchor="start" x="302.5" y="-28.5" font-family="Helvetica,sans-Serif" font-size="10.00">utilities.multilanguage.</text>
<text text-anchor="start" x="302.5" y="-17.5" font-family="Helvetica,sans-Serif" font-size="10.00">MultiLanguageUtility.getString</text>
<text text-anchor="middle" x="374" y="-6.5" font-family="Helvetica,sans-Serif" font-size="10.00">Property</text>
</a>
</g>
</g>
<!-- Node1&#45;&gt;Node4 -->
<g id="edge3" class="edge"><title>Node1&#45;&gt;Node4</title>
<path fill="none" stroke="midnightblue" d="M252.162,-33.2627C263.046,-32.0682 273.907,-30.8761 284.404,-29.7239"/>
<polygon fill="midnightblue" stroke="midnightblue" points="284.788,-33.2029 294.346,-28.6327 284.024,-26.2447 284.788,-33.2029"/>
</g>
<!-- Node3 -->
<g id="node3" class="node"><title>Node3</title>
<g id="a_node3"><a xlink:href="../../dc/d2e/classutilities_1_1multilanguage_1_1_multi_language_utility.html#a18c8cee78f923458998009428cd84970" target="_top" xlink:title="utilities.multilanguage.\lMultiLanguageUtility.MultiLanguage\lUtility">
<polygon fill="white" stroke="black" points="496.5,-53.5 496.5,-94.5 681.5,-94.5 681.5,-53.5 496.5,-53.5"/>
<text text-anchor="start" x="504.5" y="-82.5" font-family="Helvetica,sans-Serif" font-size="10.00">utilities.multilanguage.</text>
<text text-anchor="start" x="504.5" y="-71.5" font-family="Helvetica,sans-Serif" font-size="10.00">MultiLanguageUtility.MultiLanguage</text>
<text text-anchor="middle" x="589" y="-60.5" font-family="Helvetica,sans-Serif" font-size="10.00">Utility</text>
</a>
</g>
</g>
<!-- Node2&#45;&gt;Node3 -->
<g id="edge2" class="edge"><title>Node2&#45;&gt;Node3</title>
<path fill="none" stroke="midnightblue" d="M459.795,-74C468.384,-74 477.169,-74 485.915,-74"/>
<polygon fill="midnightblue" stroke="midnightblue" points="486.149,-77.5001 496.149,-74 486.149,-70.5001 486.149,-77.5001"/>
</g>
<!-- Node5 -->
<g id="node5" class="node"><title>Node5</title>
<g id="a_node5"><a xlink:href="../../dc/d2e/classutilities_1_1multilanguage_1_1_multi_language_utility.html#a124b4a760f410841ecc50dd4b16e40bb" target="_top" xlink:title="utilities.multilanguage.\lMultiLanguageUtility.getProperty">
<polygon fill="white" stroke="black" points="503.5,-5 503.5,-35 674.5,-35 674.5,-5 503.5,-5"/>
<text text-anchor="start" x="511.5" y="-23" font-family="Helvetica,sans-Serif" font-size="10.00">utilities.multilanguage.</text>
<text text-anchor="middle" x="589" y="-12" font-family="Helvetica,sans-Serif" font-size="10.00">MultiLanguageUtility.getProperty</text>
</a>
</g>
</g>
<!-- Node4&#45;&gt;Node5 -->
<g id="edge4" class="edge"><title>Node4&#45;&gt;Node5</title>
<path fill="none" stroke="midnightblue" d="M453.708,-20C466.551,-20 479.974,-20 493.156,-20"/>
<polygon fill="midnightblue" stroke="midnightblue" points="493.176,-23.5001 503.176,-20 493.176,-16.5001 493.176,-23.5001"/>
</g>
</g>
</svg>
