<?xml version="1.0" encoding="UTF-8" standalone="no"?>
<!DOCTYPE svg PUBLIC "-//W3C//DTD SVG 1.1//EN"
 "http://www.w3.org/Graphics/SVG/1.1/DTD/svg11.dtd">
<!-- Generated by graphviz version 2.36.0 (20140111.2315)
 -->
<!-- Title: gameAuthoring.scenes.pathBuilding.buildingPanes.LineDrawingPane.stretchLineToEndAtCurrentMousePosition Pages: 1 -->
<svg width="688pt" height="109pt"
 viewBox="0.00 0.00 688.00 109.00" xmlns="http://www.w3.org/2000/svg" xmlns:xlink="http://www.w3.org/1999/xlink">
<g id="graph0" class="graph" transform="scale(1 1) rotate(0) translate(4 105)">
<title>gameAuthoring.scenes.pathBuilding.buildingPanes.LineDrawingPane.stretchLineToEndAtCurrentMousePosition</title>
<polygon fill="white" stroke="none" points="-4,4 -4,-105 684,-105 684,4 -4,4"/>
<!-- Node1 -->
<g id="node1" class="node"><title>Node1</title>
<polygon fill="#bfbfbf" stroke="black" points="0.5,-29.5 0.5,-70.5 239.5,-70.5 239.5,-29.5 0.5,-29.5"/>
<text text-anchor="start" x="8.5" y="-58.5" font-family="Helvetica,sans-Serif" font-size="10.00">gameAuthoring.scenes.path</text>
<text text-anchor="start" x="8.5" y="-47.5" font-family="Helvetica,sans-Serif" font-size="10.00">Building.buildingPanes.LineDrawing</text>
<text text-anchor="middle" x="120" y="-36.5" font-family="Helvetica,sans-Serif" font-size="10.00">Pane.stretchLineToEndAtCurrentMousePosition</text>
</g>
<!-- Node2 -->
<g id="node2" class="node"><title>Node2</title>
<g id="a_node2"><a xlink:href="../../db/d5b/classgame_authoring_1_1scenes_1_1path_building_1_1building_panes_1_1_line_drawing_pane.html#ad1ec46030abe0036c10ccb1241d9dd14" target="_top" xlink:title="gameAuthoring.scenes.path\lBuilding.buildingPanes.LineDrawing\lPane.addListeners">
<polygon fill="white" stroke="black" points="276.5,-29.5 276.5,-70.5 459.5,-70.5 459.5,-29.5 276.5,-29.5"/>
<text text-anchor="start" x="284.5" y="-58.5" font-family="Helvetica,sans-Serif" font-size="10.00">gameAuthoring.scenes.path</text>
<text text-anchor="start" x="284.5" y="-47.5" font-family="Helvetica,sans-Serif" font-size="10.00">Building.buildingPanes.LineDrawing</text>
<text text-anchor="middle" x="368" y="-36.5" font-family="Helvetica,sans-Serif" font-size="10.00">Pane.addListeners</text>
</a>
</g>
</g>
<!-- Node1&#45;&gt;Node2 -->
<g id="edge1" class="edge"><title>Node1&#45;&gt;Node2</title>
<path fill="none" stroke="midnightblue" d="M249.758,-50C258.681,-50 267.564,-50 276.218,-50"/>
<polygon fill="midnightblue" stroke="midnightblue" points="249.677,-46.5001 239.677,-50 249.677,-53.5001 249.677,-46.5001"/>
</g>
<!-- Node3 -->
<g id="node3" class="node"><title>Node3</title>
<g id="a_node3"><a xlink:href="../../db/d5b/classgame_authoring_1_1scenes_1_1path_building_1_1building_panes_1_1_line_drawing_pane.html#a835959c181199b439b9e91835574d460" target="_top" xlink:title="gameAuthoring.scenes.path\lBuilding.buildingPanes.LineDrawing\lPane.executeEnterFunction">
<polygon fill="white" stroke="black" points="496.5,-59.5 496.5,-100.5 679.5,-100.5 679.5,-59.5 496.5,-59.5"/>
<text text-anchor="start" x="504.5" y="-88.5" font-family="Helvetica,sans-Serif" font-size="10.00">gameAuthoring.scenes.path</text>
<text text-anchor="start" x="504.5" y="-77.5" font-family="Helvetica,sans-Serif" font-size="10.00">Building.buildingPanes.LineDrawing</text>
<text text-anchor="middle" x="588" y="-66.5" font-family="Helvetica,sans-Serif" font-size="10.00">Pane.executeEnterFunction</text>
</a>
</g>
</g>
<!-- Node2&#45;&gt;Node3 -->
<g id="edge2" class="edge"><title>Node2&#45;&gt;Node3</title>
<path fill="none" stroke="midnightblue" d="M469.596,-63.8435C478.526,-65.0725 487.533,-66.3119 496.373,-67.5284"/>
<polygon fill="midnightblue" stroke="midnightblue" points="469.942,-60.3581 459.558,-62.4621 468.987,-67.2928 469.942,-60.3581"/>
</g>
<!-- Node4 -->
<g id="node4" class="node"><title>Node4</title>
<g id="a_node4"><a xlink:href="../../db/d5b/classgame_authoring_1_1scenes_1_1path_building_1_1building_panes_1_1_line_drawing_pane.html#a32c2b8d15bdcd525687d719c0adbc271" target="_top" xlink:title="gameAuthoring.scenes.path\lBuilding.buildingPanes.LineDrawing\lPane.LineDrawingPane">
<polygon fill="white" stroke="black" points="496.5,0.5 496.5,-40.5 679.5,-40.5 679.5,0.5 496.5,0.5"/>
<text text-anchor="start" x="504.5" y="-28.5" font-family="Helvetica,sans-Serif" font-size="10.00">gameAuthoring.scenes.path</text>
<text text-anchor="start" x="504.5" y="-17.5" font-family="Helvetica,sans-Serif" font-size="10.00">Building.buildingPanes.LineDrawing</text>
<text text-anchor="middle" x="588" y="-6.5" font-family="Helvetica,sans-Serif" font-size="10.00">Pane.LineDrawingPane</text>
</a>
</g>
</g>
<!-- Node2&#45;&gt;Node4 -->
<g id="edge3" class="edge"><title>Node2&#45;&gt;Node4</title>
<path fill="none" stroke="midnightblue" d="M469.596,-36.1565C478.526,-34.9275 487.533,-33.6881 496.373,-32.4716"/>
<polygon fill="midnightblue" stroke="midnightblue" points="468.987,-32.7072 459.558,-37.5379 469.942,-39.6419 468.987,-32.7072"/>
</g>
</g>
</svg>
