<?xml version="1.0" encoding="UTF-8" standalone="no"?>
<!DOCTYPE svg PUBLIC "-//W3C//DTD SVG 1.1//EN"
 "http://www.w3.org/Graphics/SVG/1.1/DTD/svg11.dtd">
<!-- Generated by graphviz version 2.36.0 (20140111.2315)
 -->
<!-- Title: gameEngine.actors.behaviors.PiercableDefense Pages: 1 -->
<svg width="277pt" height="190pt"
 viewBox="0.00 0.00 277.00 190.00" xmlns="http://www.w3.org/2000/svg" xmlns:xlink="http://www.w3.org/1999/xlink">
<g id="graph0" class="graph" transform="scale(1 1) rotate(0) translate(4 186)">
<title>gameEngine.actors.behaviors.PiercableDefense</title>
<polygon fill="white" stroke="none" points="-4,4 -4,-186 273,-186 273,4 -4,4"/>
<!-- Node1 -->
<g id="node1" class="node"><title>Node1</title>
<polygon fill="#bfbfbf" stroke="black" points="72,-1 72,-31 234,-31 234,-1 72,-1"/>
<text text-anchor="start" x="80" y="-19" font-family="Helvetica,sans-Serif" font-size="10.00">gameEngine.actors.behaviors.</text>
<text text-anchor="middle" x="153" y="-8" font-family="Helvetica,sans-Serif" font-size="10.00">PiercableDefense</text>
</g>
<!-- Node2 -->
<g id="node2" class="node"><title>Node2</title>
<g id="a_node2"><a xlink:href="../../de/dcd/classgame_engine_1_1actors_1_1behaviors_1_1_base_defend_behavior.html" target="_top" xlink:title="gameEngine.actors.behaviors.\lBaseDefendBehavior">
<polygon fill="white" stroke="black" points="72,-71 72,-101 234,-101 234,-71 72,-71"/>
<text text-anchor="start" x="80" y="-89" font-family="Helvetica,sans-Serif" font-size="10.00">gameEngine.actors.behaviors.</text>
<text text-anchor="middle" x="153" y="-78" font-family="Helvetica,sans-Serif" font-size="10.00">BaseDefendBehavior</text>
</a>
</g>
</g>
<!-- Node2&#45;&gt;Node1 -->
<g id="edge1" class="edge"><title>Node2&#45;&gt;Node1</title>
<path fill="none" stroke="midnightblue" d="M153,-60.7688C153,-50.8141 153,-39.6384 153,-31.0716"/>
<polygon fill="midnightblue" stroke="midnightblue" points="149.5,-60.9103 153,-70.9104 156.5,-60.9104 149.5,-60.9103"/>
</g>
<!-- Node3 -->
<g id="node3" class="node"><title>Node3</title>
<g id="a_node3"><a xlink:href="../../dd/d43/interfacegame_engine_1_1actors_1_1behaviors_1_1_i_behavior.html" target="_top" xlink:title="gameEngine.actors.behaviors.\lIBehavior">
<polygon fill="white" stroke="black" points="0,-151 0,-181 162,-181 162,-151 0,-151"/>
<text text-anchor="start" x="8" y="-169" font-family="Helvetica,sans-Serif" font-size="10.00">gameEngine.actors.behaviors.</text>
<text text-anchor="middle" x="81" y="-158" font-family="Helvetica,sans-Serif" font-size="10.00">IBehavior</text>
</a>
</g>
</g>
<!-- Node3&#45;&gt;Node2 -->
<g id="edge2" class="edge"><title>Node3&#45;&gt;Node2</title>
<path fill="none" stroke="midnightblue" d="M101.084,-143.243C113.485,-129.808 129.042,-112.954 139.878,-101.216"/>
<polygon fill="midnightblue" stroke="midnightblue" points="98.4169,-140.972 94.2059,-150.694 103.561,-145.72 98.4169,-140.972"/>
</g>
<!-- Node4 -->
<g id="node4" class="node"><title>Node4</title>
<polygon fill="white" stroke="#bfbfbf" points="180.5,-156.5 180.5,-175.5 269.5,-175.5 269.5,-156.5 180.5,-156.5"/>
<text text-anchor="middle" x="225" y="-163.5" font-family="Helvetica,sans-Serif" font-size="10.00">List&lt; Double &gt;</text>
</g>
<!-- Node4&#45;&gt;Node2 -->
<g id="edge3" class="edge"><title>Node4&#45;&gt;Node2</title>
<path fill="none" stroke="#9a32cd" stroke-dasharray="5,2" d="M210.132,-148.893C197.171,-134.852 178.553,-114.683 166.133,-101.227"/>
<polygon fill="#9a32cd" stroke="#9a32cd" points="207.665,-151.381 217.02,-156.355 212.809,-146.633 207.665,-151.381"/>
<text text-anchor="middle" x="211.5" y="-123.5" font-family="Helvetica,sans-Serif" font-size="10.00"> myList</text>
</g>
</g>
</svg>
