<?xml version="1.0" encoding="UTF-8" standalone="no"?>
<!DOCTYPE svg PUBLIC "-//W3C//DTD SVG 1.1//EN"
 "http://www.w3.org/Graphics/SVG/1.1/DTD/svg11.dtd">
<!-- Generated by graphviz version 2.36.0 (20140111.2315)
 -->
<!-- Title: utilities.JavaFXutilities.slider.SliderContainer.getNameLabel Pages: 1 -->
<svg width="374pt" height="38pt"
 viewBox="0.00 0.00 374.00 38.00" xmlns="http://www.w3.org/2000/svg" xmlns:xlink="http://www.w3.org/1999/xlink">
<g id="graph0" class="graph" transform="scale(1 1) rotate(0) translate(4 34)">
<title>utilities.JavaFXutilities.slider.SliderContainer.getNameLabel</title>
<polygon fill="white" stroke="none" points="-4,4 -4,-34 370,-34 370,4 -4,4"/>
<!-- Node1 -->
<g id="node1" class="node"><title>Node1</title>
<polygon fill="#bfbfbf" stroke="black" points="0.5,-0 0.5,-30 163.5,-30 163.5,-0 0.5,-0"/>
<text text-anchor="start" x="8.5" y="-18" font-family="Helvetica,sans-Serif" font-size="10.00">utilities.JavaFXutilities.slider.</text>
<text text-anchor="middle" x="82" y="-7" font-family="Helvetica,sans-Serif" font-size="10.00">SliderContainer.getNameLabel</text>
</g>
<!-- Node2 -->
<g id="node2" class="node"><title>Node2</title>
<g id="a_node2"><a xlink:href="../../d7/d46/classutilities_1_1_java_f_xutilities_1_1slider_1_1_slider_container.html#a51d886a1acacfe4addd70bdb4975f883" target="_top" xlink:title="utilities.JavaFXutilities.slider.\lSliderContainer.SliderContainer">
<polygon fill="white" stroke="black" points="200,-0 200,-30 366,-30 366,-0 200,-0"/>
<text text-anchor="start" x="208" y="-18" font-family="Helvetica,sans-Serif" font-size="10.00">utilities.JavaFXutilities.slider.</text>
<text text-anchor="middle" x="283" y="-7" font-family="Helvetica,sans-Serif" font-size="10.00">SliderContainer.SliderContainer</text>
</a>
</g>
</g>
<!-- Node1&#45;&gt;Node2 -->
<g id="edge1" class="edge"><title>Node1&#45;&gt;Node2</title>
<path fill="none" stroke="midnightblue" d="M173.818,-15C182.524,-15 191.321,-15 199.937,-15"/>
<polygon fill="midnightblue" stroke="midnightblue" points="173.654,-11.5001 163.654,-15 173.654,-18.5001 173.654,-11.5001"/>
</g>
</g>
</svg>
