<?xml version="1.0" encoding="UTF-8" standalone="no"?>
<!DOCTYPE svg PUBLIC "-//W3C//DTD SVG 1.1//EN"
 "http://www.w3.org/Graphics/SVG/1.1/DTD/svg11.dtd">
<!-- Generated by graphviz version 2.36.0 (20140111.2315)
 -->
<!-- Title: utilities.JavaFXutilities.slider.SliderContainer.setupSlider Pages: 1 -->
<svg width="370pt" height="109pt"
 viewBox="0.00 0.00 370.00 109.00" xmlns="http://www.w3.org/2000/svg" xmlns:xlink="http://www.w3.org/1999/xlink">
<g id="graph0" class="graph" transform="scale(1 1) rotate(0) translate(4 105)">
<title>utilities.JavaFXutilities.slider.SliderContainer.setupSlider</title>
<polygon fill="white" stroke="none" points="-4,4 -4,-105 366,-105 366,4 -4,4"/>
<!-- Node1 -->
<g id="node1" class="node"><title>Node1</title>
<polygon fill="#bfbfbf" stroke="black" points="0.5,-35 0.5,-65 149.5,-65 149.5,-35 0.5,-35"/>
<text text-anchor="start" x="8.5" y="-53" font-family="Helvetica,sans-Serif" font-size="10.00">utilities.JavaFXutilities.slider.</text>
<text text-anchor="middle" x="75" y="-42" font-family="Helvetica,sans-Serif" font-size="10.00">SliderContainer.setupSlider</text>
</g>
<!-- Node2 -->
<g id="node2" class="node"><title>Node2</title>
<g id="a_node2"><a xlink:href="../../db/d3a/classgame_authoring_1_1scenes_1_1actor_building_scenes_1_1behavior_builders_1_1_slider_info.html#a93b8affe8dded5139ec75c4ba7a4ee86" target="_top" xlink:title="gameAuthoring.scenes.actor\lBuildingScenes.behaviorBuilders.\lSliderInfo.getMyMax">
<polygon fill="white" stroke="black" points="186.5,-59.5 186.5,-100.5 361.5,-100.5 361.5,-59.5 186.5,-59.5"/>
<text text-anchor="start" x="194.5" y="-88.5" font-family="Helvetica,sans-Serif" font-size="10.00">gameAuthoring.scenes.actor</text>
<text text-anchor="start" x="194.5" y="-77.5" font-family="Helvetica,sans-Serif" font-size="10.00">BuildingScenes.behaviorBuilders.</text>
<text text-anchor="middle" x="274" y="-66.5" font-family="Helvetica,sans-Serif" font-size="10.00">SliderInfo.getMyMax</text>
</a>
</g>
</g>
<!-- Node1&#45;&gt;Node2 -->
<g id="edge1" class="edge"><title>Node1&#45;&gt;Node2</title>
<path fill="none" stroke="midnightblue" d="M149.636,-61.2136C158.291,-62.5316 167.22,-63.8913 176.131,-65.2484"/>
<polygon fill="midnightblue" stroke="midnightblue" points="175.756,-68.7316 186.169,-66.777 176.81,-61.8113 175.756,-68.7316"/>
</g>
<!-- Node3 -->
<g id="node3" class="node"><title>Node3</title>
<g id="a_node3"><a xlink:href="../../db/d3a/classgame_authoring_1_1scenes_1_1actor_building_scenes_1_1behavior_builders_1_1_slider_info.html#a70e2b6cb39ab74c62aada0c7e8042325" target="_top" xlink:title="gameAuthoring.scenes.actor\lBuildingScenes.behaviorBuilders.\lSliderInfo.getMyMin">
<polygon fill="white" stroke="black" points="186.5,0.5 186.5,-40.5 361.5,-40.5 361.5,0.5 186.5,0.5"/>
<text text-anchor="start" x="194.5" y="-28.5" font-family="Helvetica,sans-Serif" font-size="10.00">gameAuthoring.scenes.actor</text>
<text text-anchor="start" x="194.5" y="-17.5" font-family="Helvetica,sans-Serif" font-size="10.00">BuildingScenes.behaviorBuilders.</text>
<text text-anchor="middle" x="274" y="-6.5" font-family="Helvetica,sans-Serif" font-size="10.00">SliderInfo.getMyMin</text>
</a>
</g>
</g>
<!-- Node1&#45;&gt;Node3 -->
<g id="edge2" class="edge"><title>Node1&#45;&gt;Node3</title>
<path fill="none" stroke="midnightblue" d="M149.636,-38.7864C158.291,-37.4684 167.22,-36.1087 176.131,-34.7516"/>
<polygon fill="midnightblue" stroke="midnightblue" points="176.81,-38.1887 186.169,-33.223 175.756,-31.2684 176.81,-38.1887"/>
</g>
</g>
</svg>
