<?xml version="1.0" encoding="UTF-8" standalone="no"?>
<!DOCTYPE svg PUBLIC "-//W3C//DTD SVG 1.1//EN"
 "http://www.w3.org/Graphics/SVG/1.1/DTD/svg11.dtd">
<!-- Generated by graphviz version 2.36.0 (20140111.2315)
 -->
<!-- Title: gameEngine.actors.behaviors.BaseDefendBehavior Pages: 1 -->
<svg width="566pt" height="87pt"
 viewBox="0.00 0.00 566.00 87.00" xmlns="http://www.w3.org/2000/svg" xmlns:xlink="http://www.w3.org/1999/xlink">
<g id="graph0" class="graph" transform="scale(1 1) rotate(0) translate(4 83)">
<title>gameEngine.actors.behaviors.BaseDefendBehavior</title>
<polygon fill="white" stroke="none" points="-4,4 -4,-83 562,-83 562,4 -4,4"/>
<!-- Node1 -->
<g id="node1" class="node"><title>Node1</title>
<polygon fill="#bfbfbf" stroke="black" points="198,-24 198,-54 360,-54 360,-24 198,-24"/>
<text text-anchor="start" x="206" y="-42" font-family="Helvetica,sans-Serif" font-size="10.00">gameEngine.actors.behaviors.</text>
<text text-anchor="middle" x="279" y="-31" font-family="Helvetica,sans-Serif" font-size="10.00">BaseDefendBehavior</text>
</g>
<!-- Node3 -->
<g id="node3" class="node"><title>Node3</title>
<g id="a_node3"><a xlink:href="../../d2/d9a/classgame_engine_1_1actors_1_1behaviors_1_1_piercable_defense.html" target="_top" xlink:title="gameEngine.actors.behaviors.\lPiercableDefense">
<polygon fill="white" stroke="black" points="396,-49 396,-79 558,-79 558,-49 396,-49"/>
<text text-anchor="start" x="404" y="-67" font-family="Helvetica,sans-Serif" font-size="10.00">gameEngine.actors.behaviors.</text>
<text text-anchor="middle" x="477" y="-56" font-family="Helvetica,sans-Serif" font-size="10.00">PiercableDefense</text>
</a>
</g>
</g>
<!-- Node1&#45;&gt;Node3 -->
<g id="edge2" class="edge"><title>Node1&#45;&gt;Node3</title>
<path fill="none" stroke="midnightblue" d="M370.077,-50.4894C378.703,-51.5897 387.413,-52.7006 395.935,-53.7876"/>
<polygon fill="midnightblue" stroke="midnightblue" points="370.366,-46.998 360.003,-49.2045 369.48,-53.9417 370.366,-46.998"/>
</g>
<!-- Node4 -->
<g id="node4" class="node"><title>Node4</title>
<g id="a_node4"><a xlink:href="../../df/d0a/classgame_engine_1_1actors_1_1behaviors_1_1_simple_defense.html" target="_top" xlink:title="gameEngine.actors.behaviors.\lSimpleDefense">
<polygon fill="white" stroke="black" points="396,-0 396,-30 558,-30 558,-0 396,-0"/>
<text text-anchor="start" x="404" y="-18" font-family="Helvetica,sans-Serif" font-size="10.00">gameEngine.actors.behaviors.</text>
<text text-anchor="middle" x="477" y="-7" font-family="Helvetica,sans-Serif" font-size="10.00">SimpleDefense</text>
</a>
</g>
</g>
<!-- Node1&#45;&gt;Node4 -->
<g id="edge3" class="edge"><title>Node1&#45;&gt;Node4</title>
<path fill="none" stroke="midnightblue" d="M370.077,-27.9702C378.703,-26.9139 387.413,-25.8474 395.935,-24.8039"/>
<polygon fill="midnightblue" stroke="midnightblue" points="369.504,-24.5141 360.003,-29.2037 370.355,-31.4622 369.504,-24.5141"/>
</g>
<!-- Node2 -->
<g id="node2" class="node"><title>Node2</title>
<g id="a_node2"><a xlink:href="../../dd/d43/interfacegame_engine_1_1actors_1_1behaviors_1_1_i_behavior.html" target="_top" xlink:title="gameEngine.actors.behaviors.\lIBehavior">
<polygon fill="white" stroke="black" points="0,-24 0,-54 162,-54 162,-24 0,-24"/>
<text text-anchor="start" x="8" y="-42" font-family="Helvetica,sans-Serif" font-size="10.00">gameEngine.actors.behaviors.</text>
<text text-anchor="middle" x="81" y="-31" font-family="Helvetica,sans-Serif" font-size="10.00">IBehavior</text>
</a>
</g>
</g>
<!-- Node2&#45;&gt;Node1 -->
<g id="edge1" class="edge"><title>Node2&#45;&gt;Node1</title>
<path fill="none" stroke="midnightblue" d="M172.077,-39C180.703,-39 189.413,-39 197.935,-39"/>
<polygon fill="midnightblue" stroke="midnightblue" points="172.003,-35.5001 162.003,-39 172.003,-42.5001 172.003,-35.5001"/>
</g>
</g>
</svg>
