<?xml version="1.0" encoding="UTF-8" standalone="no"?>
<!DOCTYPE svg PUBLIC "-//W3C//DTD SVG 1.1//EN"
 "http://www.w3.org/Graphics/SVG/1.1/DTD/svg11.dtd">
<!-- Generated by graphviz version 2.36.0 (20140111.2315)
 -->
<!-- Title: gamePlayer.mainClasses.guiBuilder.GuiBuilder.getInstance Pages: 1 -->
<svg width="1398pt" height="323pt"
 viewBox="0.00 0.00 1398.00 323.00" xmlns="http://www.w3.org/2000/svg" xmlns:xlink="http://www.w3.org/1999/xlink">
<g id="graph0" class="graph" transform="scale(1 1) rotate(0) translate(4 319)">
<title>gamePlayer.mainClasses.guiBuilder.GuiBuilder.getInstance</title>
<polygon fill="white" stroke="none" points="-4,4 -4,-319 1394,-319 1394,4 -4,4"/>
<!-- Node1 -->
<g id="node1" class="node"><title>Node1</title>
<polygon fill="#bfbfbf" stroke="black" points="0.5,-132 0.5,-162 159.5,-162 159.5,-132 0.5,-132"/>
<text text-anchor="start" x="8.5" y="-150" font-family="Helvetica,sans-Serif" font-size="10.00">gamePlayer.mainClasses.gui</text>
<text text-anchor="middle" x="80" y="-139" font-family="Helvetica,sans-Serif" font-size="10.00">Builder.GuiBuilder.getInstance</text>
</g>
<!-- Node2 -->
<g id="node2" class="node"><title>Node2</title>
<g id="a_node2"><a xlink:href="../../d4/d3f/classgame_player_1_1main_classes_1_1managers_1_1_welcome_manager.html#afd11b6bf91712ea221c4f69945eda2e4" target="_top" xlink:title="gamePlayer.mainClasses.managers.\lWelcomeManager.init">
<polygon fill="white" stroke="black" points="196.5,-157 196.5,-187 387.5,-187 387.5,-157 196.5,-157"/>
<text text-anchor="start" x="204.5" y="-175" font-family="Helvetica,sans-Serif" font-size="10.00">gamePlayer.mainClasses.managers.</text>
<text text-anchor="middle" x="292" y="-164" font-family="Helvetica,sans-Serif" font-size="10.00">WelcomeManager.init</text>
</a>
</g>
</g>
<!-- Node1&#45;&gt;Node2 -->
<g id="edge1" class="edge"><title>Node1&#45;&gt;Node2</title>
<path fill="none" stroke="midnightblue" d="M169.909,-157.584C178.596,-158.619 187.435,-159.671 196.178,-160.712"/>
<polygon fill="midnightblue" stroke="midnightblue" points="170.137,-154.087 159.794,-156.38 169.31,-161.038 170.137,-154.087"/>
</g>
<!-- Node3 -->
<g id="node3" class="node"><title>Node3</title>
<g id="a_node3"><a xlink:href="../../da/d69/classgame_player_1_1main_classes_1_1managers_1_1_gui_manager.html#a6bce033ad0751d90302ee3520a36e95b" target="_top" xlink:title="gamePlayer.mainClasses.managers.\lGuiManager.init">
<polygon fill="white" stroke="black" points="196.5,-108 196.5,-138 387.5,-138 387.5,-108 196.5,-108"/>
<text text-anchor="start" x="204.5" y="-126" font-family="Helvetica,sans-Serif" font-size="10.00">gamePlayer.mainClasses.managers.</text>
<text text-anchor="middle" x="292" y="-115" font-family="Helvetica,sans-Serif" font-size="10.00">GuiManager.init</text>
</a>
</g>
</g>
<!-- Node1&#45;&gt;Node3 -->
<g id="edge2" class="edge"><title>Node1&#45;&gt;Node3</title>
<path fill="none" stroke="midnightblue" d="M169.909,-136.839C178.596,-135.846 187.435,-134.836 196.178,-133.837"/>
<polygon fill="midnightblue" stroke="midnightblue" points="169.332,-133.382 159.794,-137.995 170.126,-140.337 169.332,-133.382"/>
</g>
<!-- Node4 -->
<g id="node4" class="node"><title>Node4</title>
<g id="a_node4"><a xlink:href="../../da/d69/classgame_player_1_1main_classes_1_1managers_1_1_gui_manager.html#aa0b614e03bdec959e13e3d5ca2e1f614" target="_top" xlink:title="gamePlayer.mainClasses.managers.\lGuiManager.startMultiPlayerGame">
<polygon fill="white" stroke="black" points="435.5,-179 435.5,-209 626.5,-209 626.5,-179 435.5,-179"/>
<text text-anchor="start" x="443.5" y="-197" font-family="Helvetica,sans-Serif" font-size="10.00">gamePlayer.mainClasses.managers.</text>
<text text-anchor="middle" x="531" y="-186" font-family="Helvetica,sans-Serif" font-size="10.00">GuiManager.startMultiPlayerGame</text>
</a>
</g>
</g>
<!-- Node3&#45;&gt;Node4 -->
<g id="edge3" class="edge"><title>Node3&#45;&gt;Node4</title>
<path fill="none" stroke="midnightblue" d="M362.021,-140.678C370.786,-143.066 379.617,-145.541 388,-148 420.948,-157.664 457.83,-169.647 485.747,-178.96"/>
<polygon fill="midnightblue" stroke="midnightblue" points="362.747,-137.249 352.18,-138.026 360.925,-144.008 362.747,-137.249"/>
</g>
<!-- Node9 -->
<g id="node9" class="node"><title>Node9</title>
<g id="a_node9"><a xlink:href="../../da/d69/classgame_player_1_1main_classes_1_1managers_1_1_gui_manager.html#a3f657f0e3ba1e493d2dd02b5df5e03f6" target="_top" xlink:title="gamePlayer.mainClasses.managers.\lGuiManager.replayGame">
<polygon fill="white" stroke="black" points="688.5,-282 688.5,-312 879.5,-312 879.5,-282 688.5,-282"/>
<text text-anchor="start" x="696.5" y="-300" font-family="Helvetica,sans-Serif" font-size="10.00">gamePlayer.mainClasses.managers.</text>
<text text-anchor="middle" x="784" y="-289" font-family="Helvetica,sans-Serif" font-size="10.00">GuiManager.replayGame</text>
</a>
</g>
</g>
<!-- Node3&#45;&gt;Node9 -->
<g id="edge15" class="edge"><title>Node3&#45;&gt;Node9</title>
<path fill="none" stroke="midnightblue" d="M381.432,-143.284C383.709,-144.749 385.906,-146.318 388,-148 415.278,-169.904 396.281,-196.656 424,-218 499.846,-276.403 610.063,-293.488 688.332,-297.623"/>
<polygon fill="midnightblue" stroke="midnightblue" points="382.717,-139.992 372.286,-138.139 379.285,-146.093 382.717,-139.992"/>
</g>
<!-- Node16 -->
<g id="node16" class="node"><title>Node16</title>
<g id="a_node16"><a xlink:href="../../d4/d3f/classgame_player_1_1main_classes_1_1managers_1_1_welcome_manager.html#a85bf325329fe7587bbe74526c37c11c0" target="_top" xlink:title="gamePlayer.mainClasses.managers.\lWelcomeManager.newGame">
<polygon fill="white" stroke="black" points="435.5,-0 435.5,-30 626.5,-30 626.5,-0 435.5,-0"/>
<text text-anchor="start" x="443.5" y="-18" font-family="Helvetica,sans-Serif" font-size="10.00">gamePlayer.mainClasses.managers.</text>
<text text-anchor="middle" x="531" y="-7" font-family="Helvetica,sans-Serif" font-size="10.00">WelcomeManager.newGame</text>
</a>
</g>
</g>
<!-- Node3&#45;&gt;Node16 -->
<g id="edge16" class="edge"><title>Node3&#45;&gt;Node16</title>
<path fill="none" stroke="midnightblue" d="M319.833,-101.801C345.275,-82.7042 385.264,-55.2141 424,-39 432.18,-35.5758 440.93,-32.6 449.764,-30.0233"/>
<polygon fill="midnightblue" stroke="midnightblue" points="317.622,-99.0851 311.786,-107.927 321.863,-104.655 317.622,-99.0851"/>
</g>
<!-- Node17 -->
<g id="node17" class="node"><title>Node17</title>
<g id="a_node17"><a xlink:href="../../d4/d3f/classgame_player_1_1main_classes_1_1managers_1_1_welcome_manager.html#a5da8d3f5b8bc1c4bd4c555140bd9384c" target="_top" xlink:title="gamePlayer.mainClasses.managers.\lWelcomeManager.startSinglePlayerGame">
<polygon fill="white" stroke="black" points="424,-108 424,-138 638,-138 638,-108 424,-108"/>
<text text-anchor="start" x="432" y="-126" font-family="Helvetica,sans-Serif" font-size="10.00">gamePlayer.mainClasses.managers.</text>
<text text-anchor="middle" x="531" y="-115" font-family="Helvetica,sans-Serif" font-size="10.00">WelcomeManager.startSinglePlayerGame</text>
</a>
</g>
</g>
<!-- Node3&#45;&gt;Node17 -->
<g id="edge17" class="edge"><title>Node3&#45;&gt;Node17</title>
<path fill="none" stroke="midnightblue" d="M397.766,-123C406.398,-123 415.128,-123 423.77,-123"/>
<polygon fill="midnightblue" stroke="midnightblue" points="397.69,-119.5 387.69,-123 397.69,-126.5 397.69,-119.5"/>
</g>
<!-- Node18 -->
<g id="node18" class="node"><title>Node18</title>
<g id="a_node18"><a xlink:href="../../d3/dee/classgame_player_1_1main_classes_1_1welcome_screen_1_1_game_start_manager.html#a0c44b3f25d2a30fe2e7aeca9da7161a9" target="_top" xlink:title="gamePlayer.mainClasses.welcome\lScreen.GameStartManager.startSingle\lPlayerGame">
<polygon fill="white" stroke="black" points="429.5,-48.5 429.5,-89.5 632.5,-89.5 632.5,-48.5 429.5,-48.5"/>
<text text-anchor="start" x="437.5" y="-77.5" font-family="Helvetica,sans-Serif" font-size="10.00">gamePlayer.mainClasses.welcome</text>
<text text-anchor="start" x="437.5" y="-66.5" font-family="Helvetica,sans-Serif" font-size="10.00">Screen.GameStartManager.startSingle</text>
<text text-anchor="middle" x="531" y="-55.5" font-family="Helvetica,sans-Serif" font-size="10.00">PlayerGame</text>
</a>
</g>
</g>
<!-- Node3&#45;&gt;Node18 -->
<g id="edge19" class="edge"><title>Node3&#45;&gt;Node18</title>
<path fill="none" stroke="midnightblue" d="M368.894,-105.708C391.522,-100.552 416.541,-94.8513 439.981,-89.5107"/>
<polygon fill="midnightblue" stroke="midnightblue" points="367.99,-102.324 359.018,-107.958 369.545,-109.149 367.99,-102.324"/>
</g>
<!-- Node5 -->
<g id="node5" class="node"><title>Node5</title>
<g id="a_node5"><a xlink:href="../../da/d69/classgame_player_1_1main_classes_1_1managers_1_1_gui_manager.html#ad50f462f8d45a5bbfc8a17290372a1ab" target="_top" xlink:title="gamePlayer.mainClasses.managers.\lGuiManager.joinMultiPlayerGame">
<polygon fill="white" stroke="black" points="688.5,-233 688.5,-263 879.5,-263 879.5,-233 688.5,-233"/>
<text text-anchor="start" x="696.5" y="-251" font-family="Helvetica,sans-Serif" font-size="10.00">gamePlayer.mainClasses.managers.</text>
<text text-anchor="middle" x="784" y="-240" font-family="Helvetica,sans-Serif" font-size="10.00">GuiManager.joinMultiPlayerGame</text>
</a>
</g>
</g>
<!-- Node4&#45;&gt;Node5 -->
<g id="edge4" class="edge"><title>Node4&#45;&gt;Node5</title>
<path fill="none" stroke="midnightblue" d="M611.843,-211.177C644.354,-218.172 681.597,-226.184 713.023,-232.945"/>
<polygon fill="midnightblue" stroke="midnightblue" points="612.43,-207.724 601.917,-209.042 610.958,-214.567 612.43,-207.724"/>
</g>
<!-- Node4&#45;&gt;Node9 -->
<g id="edge8" class="edge"><title>Node4&#45;&gt;Node9</title>
<path fill="none" stroke="midnightblue" d="M567.504,-214.172C605.87,-235.861 663.019,-267.818 674,-272 683.979,-275.8 694.701,-279.122 705.387,-281.995"/>
<polygon fill="midnightblue" stroke="midnightblue" points="569.1,-211.053 558.673,-209.173 565.651,-217.145 569.1,-211.053"/>
</g>
<!-- Node10 -->
<g id="node10" class="node"><title>Node10</title>
<g id="a_node10"><a xlink:href="../../d4/d3f/classgame_player_1_1main_classes_1_1managers_1_1_welcome_manager.html#a55598dd2973b0a9b979151dd60c9e436" target="_top" xlink:title="gamePlayer.mainClasses.managers.\lWelcomeManager.pollEngineForMultiPlayer\lReadiness">
<polygon fill="white" stroke="black" points="674.5,-173.5 674.5,-214.5 893.5,-214.5 893.5,-173.5 674.5,-173.5"/>
<text text-anchor="start" x="682.5" y="-202.5" font-family="Helvetica,sans-Serif" font-size="10.00">gamePlayer.mainClasses.managers.</text>
<text text-anchor="start" x="682.5" y="-191.5" font-family="Helvetica,sans-Serif" font-size="10.00">WelcomeManager.pollEngineForMultiPlayer</text>
<text text-anchor="middle" x="784" y="-180.5" font-family="Helvetica,sans-Serif" font-size="10.00">Readiness</text>
</a>
</g>
</g>
<!-- Node4&#45;&gt;Node10 -->
<g id="edge9" class="edge"><title>Node4&#45;&gt;Node10</title>
<path fill="none" stroke="midnightblue" d="M636.835,-194C649.187,-194 661.814,-194 674.219,-194"/>
<polygon fill="midnightblue" stroke="midnightblue" points="636.535,-190.5 626.535,-194 636.535,-197.5 636.535,-190.5"/>
</g>
<!-- Node13 -->
<g id="node13" class="node"><title>Node13</title>
<g id="a_node13"><a xlink:href="../../d3/dee/classgame_player_1_1main_classes_1_1welcome_screen_1_1_game_start_manager.html#a5d5001d1ee14ae57deef01f6e3ddde31" target="_top" xlink:title="gamePlayer.mainClasses.welcome\lScreen.GameStartManager.pollEngine\lForMultiPlayerReadiness">
<polygon fill="white" stroke="black" points="684,-113.5 684,-154.5 884,-154.5 884,-113.5 684,-113.5"/>
<text text-anchor="start" x="692" y="-142.5" font-family="Helvetica,sans-Serif" font-size="10.00">gamePlayer.mainClasses.welcome</text>
<text text-anchor="start" x="692" y="-131.5" font-family="Helvetica,sans-Serif" font-size="10.00">Screen.GameStartManager.pollEngine</text>
<text text-anchor="middle" x="784" y="-120.5" font-family="Helvetica,sans-Serif" font-size="10.00">ForMultiPlayerReadiness</text>
</a>
</g>
</g>
<!-- Node4&#45;&gt;Node13 -->
<g id="edge12" class="edge"><title>Node4&#45;&gt;Node13</title>
<path fill="none" stroke="midnightblue" d="M605.015,-176.546C633.857,-169.652 667.21,-161.679 697.194,-154.511"/>
<polygon fill="midnightblue" stroke="midnightblue" points="603.926,-173.208 595.014,-178.937 605.554,-180.016 603.926,-173.208"/>
</g>
<!-- Node6 -->
<g id="node6" class="node"><title>Node6</title>
<g id="a_node6"><a xlink:href="../../d4/d3f/classgame_player_1_1main_classes_1_1managers_1_1_welcome_manager.html#a71a2a80cfe9d3a07d7becc506178acfd" target="_top" xlink:title="gamePlayer.mainClasses.managers.\lWelcomeManager.joinMultiPlayerGame">
<polygon fill="white" stroke="black" points="933.5,-285 933.5,-315 1134.5,-315 1134.5,-285 933.5,-285"/>
<text text-anchor="start" x="941.5" y="-303" font-family="Helvetica,sans-Serif" font-size="10.00">gamePlayer.mainClasses.managers.</text>
<text text-anchor="middle" x="1034" y="-292" font-family="Helvetica,sans-Serif" font-size="10.00">WelcomeManager.joinMultiPlayerGame</text>
</a>
</g>
</g>
<!-- Node5&#45;&gt;Node6 -->
<g id="edge5" class="edge"><title>Node5&#45;&gt;Node6</title>
<path fill="none" stroke="midnightblue" d="M866.532,-265.095C897.177,-271.521 931.758,-278.772 961.429,-284.993"/>
<polygon fill="midnightblue" stroke="midnightblue" points="867.237,-261.667 856.732,-263.041 865.801,-268.518 867.237,-261.667"/>
</g>
<!-- Node8 -->
<g id="node8" class="node"><title>Node8</title>
<g id="a_node8"><a xlink:href="../../d3/dee/classgame_player_1_1main_classes_1_1welcome_screen_1_1_game_start_manager.html#a7465850240e12e23aec544dbfd08f6a0" target="_top" xlink:title="gamePlayer.mainClasses.welcome\lScreen.GameStartManager.joinMulti\lPlayerGame">
<polygon fill="white" stroke="black" points="939,-225.5 939,-266.5 1129,-266.5 1129,-225.5 939,-225.5"/>
<text text-anchor="start" x="947" y="-254.5" font-family="Helvetica,sans-Serif" font-size="10.00">gamePlayer.mainClasses.welcome</text>
<text text-anchor="start" x="947" y="-243.5" font-family="Helvetica,sans-Serif" font-size="10.00">Screen.GameStartManager.joinMulti</text>
<text text-anchor="middle" x="1034" y="-232.5" font-family="Helvetica,sans-Serif" font-size="10.00">PlayerGame</text>
</a>
</g>
</g>
<!-- Node5&#45;&gt;Node8 -->
<g id="edge7" class="edge"><title>Node5&#45;&gt;Node8</title>
<path fill="none" stroke="midnightblue" d="M889.839,-247.155C906.041,-247.024 922.69,-246.89 938.643,-246.761"/>
<polygon fill="midnightblue" stroke="midnightblue" points="889.791,-243.655 879.82,-247.235 889.848,-250.654 889.791,-243.655"/>
</g>
<!-- Node7 -->
<g id="node7" class="node"><title>Node7</title>
<g id="a_node7"><a xlink:href="../../d4/d3f/classgame_player_1_1main_classes_1_1managers_1_1_welcome_manager.html#aa605746e09c481b225463d37a82427e3" target="_top" xlink:title="gamePlayer.mainClasses.managers.\lWelcomeManager.startMultiPlayerOptions">
<polygon fill="white" stroke="black" points="1174.5,-285 1174.5,-315 1389.5,-315 1389.5,-285 1174.5,-285"/>
<text text-anchor="start" x="1182.5" y="-303" font-family="Helvetica,sans-Serif" font-size="10.00">gamePlayer.mainClasses.managers.</text>
<text text-anchor="middle" x="1282" y="-292" font-family="Helvetica,sans-Serif" font-size="10.00">WelcomeManager.startMultiPlayerOptions</text>
</a>
</g>
</g>
<!-- Node6&#45;&gt;Node7 -->
<g id="edge6" class="edge"><title>Node6&#45;&gt;Node7</title>
<path fill="none" stroke="midnightblue" d="M1144.86,-300C1154.66,-300 1164.56,-300 1174.33,-300"/>
<polygon fill="midnightblue" stroke="midnightblue" points="1144.7,-296.5 1134.7,-300 1144.7,-303.5 1144.7,-296.5"/>
</g>
<!-- Node11 -->
<g id="node11" class="node"><title>Node11</title>
<g id="a_node11"><a xlink:href="../../d4/d3f/classgame_player_1_1main_classes_1_1managers_1_1_welcome_manager.html#a0669db103a94675dce875042258da508" target="_top" xlink:title="gamePlayer.mainClasses.managers.\lWelcomeManager.startMultiPlayerGame">
<polygon fill="white" stroke="black" points="930.5,-176 930.5,-206 1137.5,-206 1137.5,-176 930.5,-176"/>
<text text-anchor="start" x="938.5" y="-194" font-family="Helvetica,sans-Serif" font-size="10.00">gamePlayer.mainClasses.managers.</text>
<text text-anchor="middle" x="1034" y="-183" font-family="Helvetica,sans-Serif" font-size="10.00">WelcomeManager.startMultiPlayerGame</text>
</a>
</g>
</g>
<!-- Node10&#45;&gt;Node11 -->
<g id="edge10" class="edge"><title>Node10&#45;&gt;Node11</title>
<path fill="none" stroke="midnightblue" d="M904.025,-192.56C912.777,-192.454 921.562,-192.348 930.206,-192.243"/>
<polygon fill="midnightblue" stroke="midnightblue" points="903.733,-189.063 893.776,-192.684 903.818,-196.063 903.733,-189.063"/>
</g>
<!-- Node12 -->
<g id="node12" class="node"><title>Node12</title>
<g id="a_node12"><a xlink:href="../../d4/d3f/classgame_player_1_1main_classes_1_1managers_1_1_welcome_manager.html#ae6495396aef63551116c0835c40574e1" target="_top" xlink:title="gamePlayer.mainClasses.managers.\lWelcomeManager.startGame">
<polygon fill="white" stroke="black" points="1186.5,-151 1186.5,-181 1377.5,-181 1377.5,-151 1186.5,-151"/>
<text text-anchor="start" x="1194.5" y="-169" font-family="Helvetica,sans-Serif" font-size="10.00">gamePlayer.mainClasses.managers.</text>
<text text-anchor="middle" x="1282" y="-158" font-family="Helvetica,sans-Serif" font-size="10.00">WelcomeManager.startGame</text>
</a>
</g>
</g>
<!-- Node11&#45;&gt;Node12 -->
<g id="edge11" class="edge"><title>Node11&#45;&gt;Node12</title>
<path fill="none" stroke="midnightblue" d="M1147.86,-179.53C1160.78,-178.218 1173.84,-176.89 1186.49,-175.605"/>
<polygon fill="midnightblue" stroke="midnightblue" points="1147.14,-176.086 1137.54,-180.579 1147.85,-183.05 1147.14,-176.086"/>
</g>
<!-- Node14 -->
<g id="node14" class="node"><title>Node14</title>
<g id="a_node14"><a xlink:href="../../d3/dee/classgame_player_1_1main_classes_1_1welcome_screen_1_1_game_start_manager.html#a994c29260d6cb90abf19dca2b3463b6a" target="_top" xlink:title="gamePlayer.mainClasses.welcome\lScreen.GameStartManager.startMulti\lPlayerGame">
<polygon fill="white" stroke="black" points="936,-113.5 936,-154.5 1132,-154.5 1132,-113.5 936,-113.5"/>
<text text-anchor="start" x="944" y="-142.5" font-family="Helvetica,sans-Serif" font-size="10.00">gamePlayer.mainClasses.welcome</text>
<text text-anchor="start" x="944" y="-131.5" font-family="Helvetica,sans-Serif" font-size="10.00">Screen.GameStartManager.startMulti</text>
<text text-anchor="middle" x="1034" y="-120.5" font-family="Helvetica,sans-Serif" font-size="10.00">PlayerGame</text>
</a>
</g>
</g>
<!-- Node13&#45;&gt;Node14 -->
<g id="edge13" class="edge"><title>Node13&#45;&gt;Node14</title>
<path fill="none" stroke="midnightblue" d="M894.111,-134C907.953,-134 922.047,-134 935.689,-134"/>
<polygon fill="midnightblue" stroke="midnightblue" points="894.085,-130.5 884.085,-134 894.085,-137.5 894.085,-130.5"/>
</g>
<!-- Node15 -->
<g id="node15" class="node"><title>Node15</title>
<g id="a_node15"><a xlink:href="../../d3/dee/classgame_player_1_1main_classes_1_1welcome_screen_1_1_game_start_manager.html#a4ac849399bf00c6df86f0db25ea95ed8" target="_top" xlink:title="gamePlayer.mainClasses.welcome\lScreen.GameStartManager.startGame">
<polygon fill="white" stroke="black" points="1180.5,-76 1180.5,-106 1383.5,-106 1383.5,-76 1180.5,-76"/>
<text text-anchor="start" x="1188.5" y="-94" font-family="Helvetica,sans-Serif" font-size="10.00">gamePlayer.mainClasses.welcome</text>
<text text-anchor="middle" x="1282" y="-83" font-family="Helvetica,sans-Serif" font-size="10.00">Screen.GameStartManager.startGame</text>
</a>
</g>
</g>
<!-- Node14&#45;&gt;Node15 -->
<g id="edge14" class="edge"><title>Node14&#45;&gt;Node15</title>
<path fill="none" stroke="midnightblue" d="M1142.48,-115.213C1159.99,-112.152 1177.93,-109.017 1194.84,-106.06"/>
<polygon fill="midnightblue" stroke="midnightblue" points="1141.47,-111.836 1132.23,-117.005 1142.68,-118.731 1141.47,-111.836"/>
</g>
<!-- Node17&#45;&gt;Node12 -->
<g id="edge18" class="edge"><title>Node17&#45;&gt;Node12</title>
<path fill="none" stroke="midnightblue" d="M626.815,-106.453C747.109,-88.5426 960.312,-67.1379 1138,-104 1160.39,-108.645 1215.54,-134.177 1250.44,-150.994"/>
<polygon fill="midnightblue" stroke="midnightblue" points="626.257,-102.997 616.893,-107.954 627.304,-109.919 626.257,-102.997"/>
</g>
<!-- Node18&#45;&gt;Node15 -->
<g id="edge20" class="edge"><title>Node18&#45;&gt;Node15</title>
<path fill="none" stroke="midnightblue" d="M642.747,-64.8699C764.373,-61.3817 965.368,-58.7 1138,-71 1153.75,-72.1224 1170.41,-73.9036 1186.58,-75.9514"/>
<polygon fill="midnightblue" stroke="midnightblue" points="642.573,-61.3734 632.68,-65.1657 642.779,-68.3704 642.573,-61.3734"/>
</g>
</g>
</svg>
