<?xml version="1.0" encoding="UTF-8" standalone="no"?>
<!DOCTYPE svg PUBLIC "-//W3C//DTD SVG 1.1//EN"
 "http://www.w3.org/Graphics/SVG/1.1/DTD/svg11.dtd">
<!-- Generated by graphviz version 2.36.0 (20140111.2315)
 -->
<!-- Title: gamePlayer.mainClasses.guiBuilder.GuiBuilder.initializeCoreContainers Pages: 1 -->
<svg width="1086pt" height="305pt"
 viewBox="0.00 0.00 1086.00 305.00" xmlns="http://www.w3.org/2000/svg" xmlns:xlink="http://www.w3.org/1999/xlink">
<g id="graph0" class="graph" transform="scale(1 1) rotate(0) translate(4 301)">
<title>gamePlayer.mainClasses.guiBuilder.GuiBuilder.initializeCoreContainers</title>
<polygon fill="white" stroke="none" points="-4,4 -4,-301 1082,-301 1082,4 -4,4"/>
<!-- Node1 -->
<g id="node1" class="node"><title>Node1</title>
<polygon fill="#bfbfbf" stroke="black" points="0,-142.5 0,-183.5 164,-183.5 164,-142.5 0,-142.5"/>
<text text-anchor="start" x="8" y="-171.5" font-family="Helvetica,sans-Serif" font-size="10.00">gamePlayer.mainClasses.gui</text>
<text text-anchor="start" x="8" y="-160.5" font-family="Helvetica,sans-Serif" font-size="10.00">Builder.GuiBuilder.initializeCore</text>
<text text-anchor="middle" x="82" y="-149.5" font-family="Helvetica,sans-Serif" font-size="10.00">Containers</text>
</g>
<!-- Node2 -->
<g id="node2" class="node"><title>Node2</title>
<g id="a_node2"><a xlink:href="../../df/db4/classutilities_1_1_x_m_l_parsing_1_1_x_m_l_parser.html#a159b395412a8ce61e6decfefc9ed9854" target="_top" xlink:title="utilities.XMLParsing.XMLParser.get\lDoubleValuesFromTag">
<polygon fill="white" stroke="black" points="446,-266 446,-296 624,-296 624,-266 446,-266"/>
<text text-anchor="start" x="454" y="-284" font-family="Helvetica,sans-Serif" font-size="10.00">utilities.XMLParsing.XMLParser.get</text>
<text text-anchor="middle" x="535" y="-273" font-family="Helvetica,sans-Serif" font-size="10.00">DoubleValuesFromTag</text>
</a>
</g>
</g>
<!-- Node1&#45;&gt;Node2 -->
<g id="edge1" class="edge"><title>Node1&#45;&gt;Node2</title>
<path fill="none" stroke="midnightblue" d="M99.937,-183.528C120.729,-207.043 158.391,-244.452 200,-261 274.959,-290.812 366.879,-294.166 435.299,-290.993"/>
<polygon fill="midnightblue" stroke="midnightblue" points="435.84,-294.47 445.645,-290.456 435.477,-287.48 435.84,-294.47"/>
</g>
<!-- Node5 -->
<g id="node5" class="node"><title>Node5</title>
<g id="a_node5"><a xlink:href="../../dd/de8/classgame_player_1_1gui_containers_1_1core_containers_1_1_right_container.html#a334bf5d79096bf6348e43ac614bb3e65" target="_top" xlink:title="gamePlayer.guiContainers.core\lContainers.RightContainer.initialize">
<polygon fill="white" stroke="black" points="206,-26 206,-56 388,-56 388,-26 206,-26"/>
<text text-anchor="start" x="214" y="-44" font-family="Helvetica,sans-Serif" font-size="10.00">gamePlayer.guiContainers.core</text>
<text text-anchor="middle" x="297" y="-33" font-family="Helvetica,sans-Serif" font-size="10.00">Containers.RightContainer.initialize</text>
</a>
</g>
</g>
<!-- Node1&#45;&gt;Node5 -->
<g id="edge4" class="edge"><title>Node1&#45;&gt;Node5</title>
<path fill="none" stroke="midnightblue" d="M102.074,-142.176C123.7,-119.819 161.043,-84.8434 200,-65 203.789,-63.0701 207.742,-61.2891 211.793,-59.6461"/>
<polygon fill="midnightblue" stroke="midnightblue" points="213.249,-62.8384 221.391,-56.0581 210.798,-56.2816 213.249,-62.8384"/>
</g>
<!-- Node13 -->
<g id="node13" class="node"><title>Node13</title>
<g id="a_node13"><a xlink:href="../../dc/d6a/classgame_player_1_1gui_containers_1_1core_containers_1_1_top_container.html#a7ee024a250448af00717a87d0cc6f920" target="_top" xlink:title="gamePlayer.guiContainers.core\lContainers.TopContainer.initialize">
<polygon fill="white" stroke="black" points="210,-222 210,-252 384,-252 384,-222 210,-222"/>
<text text-anchor="start" x="218" y="-240" font-family="Helvetica,sans-Serif" font-size="10.00">gamePlayer.guiContainers.core</text>
<text text-anchor="middle" x="297" y="-229" font-family="Helvetica,sans-Serif" font-size="10.00">Containers.TopContainer.initialize</text>
</a>
</g>
</g>
<!-- Node1&#45;&gt;Node13 -->
<g id="edge13" class="edge"><title>Node1&#45;&gt;Node13</title>
<path fill="none" stroke="midnightblue" d="M127.988,-183.602C149.506,-192.999 175.797,-203.827 200,-212 207.54,-214.546 215.487,-216.988 223.446,-219.28"/>
<polygon fill="midnightblue" stroke="midnightblue" points="222.562,-222.667 233.136,-221.998 224.453,-215.927 222.562,-222.667"/>
</g>
<!-- Node14 -->
<g id="node14" class="node"><title>Node14</title>
<g id="a_node14"><a xlink:href="../../d7/dca/classgame_player_1_1gui_containers_1_1core_containers_1_1_left_container.html#a1c5ab988bc6350ae15e03aa601f850a8" target="_top" xlink:title="gamePlayer.guiContainers.core\lContainers.LeftContainer.initialize">
<polygon fill="white" stroke="black" points="209,-173 209,-203 385,-203 385,-173 209,-173"/>
<text text-anchor="start" x="217" y="-191" font-family="Helvetica,sans-Serif" font-size="10.00">gamePlayer.guiContainers.core</text>
<text text-anchor="middle" x="297" y="-180" font-family="Helvetica,sans-Serif" font-size="10.00">Containers.LeftContainer.initialize</text>
</a>
</g>
</g>
<!-- Node1&#45;&gt;Node14 -->
<g id="edge16" class="edge"><title>Node1&#45;&gt;Node14</title>
<path fill="none" stroke="midnightblue" d="M164.134,-172.523C175.409,-173.846 187.087,-175.217 198.621,-176.571"/>
<polygon fill="midnightblue" stroke="midnightblue" points="198.367,-180.065 208.707,-177.754 199.183,-173.112 198.367,-180.065"/>
</g>
<!-- Node15 -->
<g id="node15" class="node"><title>Node15</title>
<g id="a_node15"><a xlink:href="../../d4/d8d/classgame_player_1_1gui_containers_1_1core_containers_1_1_bottom_container.html#aa6b6a142786ee38f05a4db76619a9265" target="_top" xlink:title="gamePlayer.guiContainers.core\lContainers.BottomContainer.initialize">
<polygon fill="white" stroke="black" points="200,-124 200,-154 394,-154 394,-124 200,-124"/>
<text text-anchor="start" x="208" y="-142" font-family="Helvetica,sans-Serif" font-size="10.00">gamePlayer.guiContainers.core</text>
<text text-anchor="middle" x="297" y="-131" font-family="Helvetica,sans-Serif" font-size="10.00">Containers.BottomContainer.initialize</text>
</a>
</g>
</g>
<!-- Node1&#45;&gt;Node15 -->
<g id="edge19" class="edge"><title>Node1&#45;&gt;Node15</title>
<path fill="none" stroke="midnightblue" d="M164.134,-153.858C172.499,-152.916 181.087,-151.948 189.672,-150.981"/>
<polygon fill="midnightblue" stroke="midnightblue" points="190.192,-154.444 199.737,-149.847 189.408,-147.488 190.192,-154.444"/>
</g>
<!-- Node16 -->
<g id="node16" class="node"><title>Node16</title>
<g id="a_node16"><a xlink:href="../../d3/d87/classgame_player_1_1gui_containers_1_1core_containers_1_1_center_container.html#ae748e7137af86ab7cad38928b987b07d" target="_top" xlink:title="gamePlayer.guiContainers.core\lContainers.CenterContainer.initialize">
<polygon fill="white" stroke="black" points="201.5,-75 201.5,-105 392.5,-105 392.5,-75 201.5,-75"/>
<text text-anchor="start" x="209.5" y="-93" font-family="Helvetica,sans-Serif" font-size="10.00">gamePlayer.guiContainers.core</text>
<text text-anchor="middle" x="297" y="-82" font-family="Helvetica,sans-Serif" font-size="10.00">Containers.CenterContainer.initialize</text>
</a>
</g>
</g>
<!-- Node1&#45;&gt;Node16 -->
<g id="edge22" class="edge"><title>Node1&#45;&gt;Node16</title>
<path fill="none" stroke="midnightblue" d="M127.674,-142.414C149.236,-132.964 175.653,-122.09 200,-114 206.517,-111.834 213.34,-109.76 220.215,-107.801"/>
<polygon fill="midnightblue" stroke="midnightblue" points="221.586,-111.053 230.293,-105.016 219.722,-104.306 221.586,-111.053"/>
</g>
<!-- Node3 -->
<g id="node3" class="node"><title>Node3</title>
<g id="a_node3"><a xlink:href="../../df/db4/classutilities_1_1_x_m_l_parsing_1_1_x_m_l_parser.html#a70485375200a84f459aa83ffedbea646" target="_top" xlink:title="utilities.XMLParsing.XMLParser.get\lValuesFromTag">
<polygon fill="white" stroke="black" points="681,-266 681,-296 859,-296 859,-266 681,-266"/>
<text text-anchor="start" x="689" y="-284" font-family="Helvetica,sans-Serif" font-size="10.00">utilities.XMLParsing.XMLParser.get</text>
<text text-anchor="middle" x="770" y="-273" font-family="Helvetica,sans-Serif" font-size="10.00">ValuesFromTag</text>
</a>
</g>
</g>
<!-- Node2&#45;&gt;Node3 -->
<g id="edge2" class="edge"><title>Node2&#45;&gt;Node3</title>
<path fill="none" stroke="midnightblue" d="M624.087,-281C639.31,-281 655.222,-281 670.695,-281"/>
<polygon fill="midnightblue" stroke="midnightblue" points="670.788,-284.5 680.788,-281 670.788,-277.5 670.788,-284.5"/>
</g>
<!-- Node4 -->
<g id="node4" class="node"><title>Node4</title>
<g id="a_node4"><a xlink:href="../../df/db4/classutilities_1_1_x_m_l_parsing_1_1_x_m_l_parser.html#ab3a0a60481d20e93b1382f9a8a31fe9d" target="_top" xlink:title="utilities.XMLParsing.XMLParser.get\lValues">
<polygon fill="white" stroke="black" points="900,-266 900,-296 1078,-296 1078,-266 900,-266"/>
<text text-anchor="start" x="908" y="-284" font-family="Helvetica,sans-Serif" font-size="10.00">utilities.XMLParsing.XMLParser.get</text>
<text text-anchor="middle" x="989" y="-273" font-family="Helvetica,sans-Serif" font-size="10.00">Values</text>
</a>
</g>
</g>
<!-- Node3&#45;&gt;Node4 -->
<g id="edge3" class="edge"><title>Node3&#45;&gt;Node4</title>
<path fill="none" stroke="midnightblue" d="M859.262,-281C869.295,-281 879.567,-281 889.718,-281"/>
<polygon fill="midnightblue" stroke="midnightblue" points="889.816,-284.5 899.816,-281 889.816,-277.5 889.816,-284.5"/>
</g>
<!-- Node6 -->
<g id="node6" class="node"><title>Node6</title>
<g id="a_node6"><a xlink:href="../../d5/d26/classgame_player_1_1gui_containers_1_1core_containers_1_1_core_container_setup.html#a55a6911411bd3e2aeb13ef411d610d9d" target="_top" xlink:title="gamePlayer.guiContainers.core\lContainers.CoreContainerSetup.get\lChildList">
<polygon fill="white" stroke="black" points="441,-159.5 441,-200.5 629,-200.5 629,-159.5 441,-159.5"/>
<text text-anchor="start" x="449" y="-188.5" font-family="Helvetica,sans-Serif" font-size="10.00">gamePlayer.guiContainers.core</text>
<text text-anchor="start" x="449" y="-177.5" font-family="Helvetica,sans-Serif" font-size="10.00">Containers.CoreContainerSetup.get</text>
<text text-anchor="middle" x="535" y="-166.5" font-family="Helvetica,sans-Serif" font-size="10.00">ChildList</text>
</a>
</g>
</g>
<!-- Node5&#45;&gt;Node6 -->
<g id="edge5" class="edge"><title>Node5&#45;&gt;Node6</title>
<path fill="none" stroke="midnightblue" d="M380.739,-56.0073C385.478,-58.5631 389.953,-61.5383 394,-65 425.178,-91.6668 399.306,-122.778 430,-150 431.353,-151.2 432.752,-152.352 434.19,-153.459"/>
<polygon fill="midnightblue" stroke="midnightblue" points="432.585,-156.599 442.828,-159.306 436.509,-150.802 432.585,-156.599"/>
</g>
<!-- Node7 -->
<g id="node7" class="node"><title>Node7</title>
<g id="a_node7"><a xlink:href="../../d5/d26/classgame_player_1_1gui_containers_1_1core_containers_1_1_core_container_setup.html#ac6df0ac7fc30e15aabe27ac39f137b74" target="_top" xlink:title="gamePlayer.guiContainers.core\lContainers.CoreContainerSetup.initialize">
<polygon fill="white" stroke="black" points="430,-111 430,-141 640,-141 640,-111 430,-111"/>
<text text-anchor="start" x="438" y="-129" font-family="Helvetica,sans-Serif" font-size="10.00">gamePlayer.guiContainers.core</text>
<text text-anchor="middle" x="535" y="-118" font-family="Helvetica,sans-Serif" font-size="10.00">Containers.CoreContainerSetup.initialize</text>
</a>
</g>
</g>
<!-- Node5&#45;&gt;Node7 -->
<g id="edge6" class="edge"><title>Node5&#45;&gt;Node7</title>
<path fill="none" stroke="midnightblue" d="M364.263,-56.0329C374.306,-58.752 384.486,-61.7629 394,-65 428.577,-76.764 466.48,-93.5309 494.118,-106.51"/>
<polygon fill="midnightblue" stroke="midnightblue" points="492.908,-109.81 503.444,-110.928 495.905,-103.484 492.908,-109.81"/>
</g>
<!-- Node7&#45;&gt;Node3 -->
<g id="edge9" class="edge"><title>Node7&#45;&gt;Node3</title>
<path fill="none" stroke="midnightblue" d="M627.865,-141.201C632.204,-143.73 636.289,-146.645 640,-150 676.906,-183.368 639.698,-221.977 676,-256 677.685,-257.579 679.459,-259.061 681.307,-260.451"/>
<polygon fill="midnightblue" stroke="midnightblue" points="679.546,-263.48 689.843,-265.976 683.35,-257.603 679.546,-263.48"/>
</g>
<!-- Node8 -->
<g id="node8" class="node"><title>Node8</title>
<g id="a_node8"><a xlink:href="../../db/d5e/classutilities_1_1reflection_1_1_reflection.html#a8bc52887d77966c001a83c2f585e6100" target="_top" xlink:title="utilities.reflection.Reflection.create\lInstance">
<polygon fill="white" stroke="black" points="680,-49 680,-79 860,-79 860,-49 680,-49"/>
<text text-anchor="start" x="688" y="-67" font-family="Helvetica,sans-Serif" font-size="10.00">utilities.reflection.Reflection.create</text>
<text text-anchor="middle" x="770" y="-56" font-family="Helvetica,sans-Serif" font-size="10.00">Instance</text>
</a>
</g>
</g>
<!-- Node7&#45;&gt;Node8 -->
<g id="edge7" class="edge"><title>Node7&#45;&gt;Node8</title>
<path fill="none" stroke="midnightblue" d="M590.811,-110.953C616.636,-103.906 647.88,-95.4443 676,-88 683.793,-85.937 691.959,-83.7972 700.079,-81.6834"/>
<polygon fill="midnightblue" stroke="midnightblue" points="701.134,-85.0255 709.934,-79.1246 699.375,-78.2502 701.134,-85.0255"/>
</g>
<!-- Node9 -->
<g id="node9" class="node"><title>Node9</title>
<g id="a_node9"><a xlink:href="../../d7/d02/interfacegame_player_1_1main_classes_1_1gui_builder_1_1_gui_element.html#a0cfbb03fce35c4102f5ee95dc523d789" target="_top" xlink:title="gamePlayer.mainClasses.gui\lBuilder.GuiElement.getNode">
<polygon fill="white" stroke="black" points="693,-0 693,-30 847,-30 847,-0 693,-0"/>
<text text-anchor="start" x="701" y="-18" font-family="Helvetica,sans-Serif" font-size="10.00">gamePlayer.mainClasses.gui</text>
<text text-anchor="middle" x="770" y="-7" font-family="Helvetica,sans-Serif" font-size="10.00">Builder.GuiElement.getNode</text>
</a>
</g>
</g>
<!-- Node7&#45;&gt;Node9 -->
<g id="edge8" class="edge"><title>Node7&#45;&gt;Node9</title>
<path fill="none" stroke="midnightblue" d="M555.8,-110.969C581.997,-91.7396 630.222,-58.5867 676,-39 680.764,-36.9615 685.743,-35.0642 690.813,-33.3039"/>
<polygon fill="midnightblue" stroke="midnightblue" points="692.228,-36.5234 700.643,-30.0865 690.051,-29.8707 692.228,-36.5234"/>
</g>
<!-- Node10 -->
<g id="node10" class="node"><title>Node10</title>
<g id="a_node10"><a xlink:href="../../d7/d02/interfacegame_player_1_1main_classes_1_1gui_builder_1_1_gui_element.html#a11c38d8cb75271486784dd02171fd867" target="_top" xlink:title="gamePlayer.mainClasses.gui\lBuilder.GuiElement.initialize">
<polygon fill="white" stroke="black" points="693,-217 693,-247 847,-247 847,-217 693,-217"/>
<text text-anchor="start" x="701" y="-235" font-family="Helvetica,sans-Serif" font-size="10.00">gamePlayer.mainClasses.gui</text>
<text text-anchor="middle" x="770" y="-224" font-family="Helvetica,sans-Serif" font-size="10.00">Builder.GuiElement.initialize</text>
</a>
</g>
</g>
<!-- Node7&#45;&gt;Node10 -->
<g id="edge10" class="edge"><title>Node7&#45;&gt;Node10</title>
<path fill="none" stroke="midnightblue" d="M624.424,-141.087C629.912,-143.62 635.164,-146.568 640,-150 664.436,-167.34 651.878,-189.226 676,-207 678.543,-208.874 681.216,-210.607 683.988,-212.21"/>
<polygon fill="midnightblue" stroke="midnightblue" points="682.638,-215.451 693.133,-216.902 685.833,-209.223 682.638,-215.451"/>
</g>
<!-- Node11 -->
<g id="node11" class="node"><title>Node11</title>
<g id="a_node11"><a xlink:href="../../d5/d26/classgame_player_1_1gui_containers_1_1core_containers_1_1_core_container_setup.html#a7c2dbb68f48270227de03e789675da1f" target="_top" xlink:title="gamePlayer.guiContainers.core\lContainers.CoreContainerSetup.set\lDimensions">
<polygon fill="white" stroke="black" points="676.5,-157.5 676.5,-198.5 863.5,-198.5 863.5,-157.5 676.5,-157.5"/>
<text text-anchor="start" x="684.5" y="-186.5" font-family="Helvetica,sans-Serif" font-size="10.00">gamePlayer.guiContainers.core</text>
<text text-anchor="start" x="684.5" y="-175.5" font-family="Helvetica,sans-Serif" font-size="10.00">Containers.CoreContainerSetup.set</text>
<text text-anchor="middle" x="770" y="-164.5" font-family="Helvetica,sans-Serif" font-size="10.00">Dimensions</text>
</a>
</g>
</g>
<!-- Node7&#45;&gt;Node11 -->
<g id="edge11" class="edge"><title>Node7&#45;&gt;Node11</title>
<path fill="none" stroke="midnightblue" d="M603.393,-141.041C623.324,-145.489 645.601,-150.46 667.194,-155.279"/>
<polygon fill="midnightblue" stroke="midnightblue" points="666.534,-158.718 677.056,-157.48 668.058,-151.886 666.534,-158.718"/>
</g>
<!-- Node12 -->
<g id="node12" class="node"><title>Node12</title>
<g id="a_node12"><a xlink:href="../../d5/d26/classgame_player_1_1gui_containers_1_1core_containers_1_1_core_container_setup.html#a41141499099dc8da6acb6aa5d45ba65c" target="_top" xlink:title="gamePlayer.guiContainers.core\lContainers.CoreContainerSetup.set\lRegion">
<polygon fill="white" stroke="black" points="676.5,-97.5 676.5,-138.5 863.5,-138.5 863.5,-97.5 676.5,-97.5"/>
<text text-anchor="start" x="684.5" y="-126.5" font-family="Helvetica,sans-Serif" font-size="10.00">gamePlayer.guiContainers.core</text>
<text text-anchor="start" x="684.5" y="-115.5" font-family="Helvetica,sans-Serif" font-size="10.00">Containers.CoreContainerSetup.set</text>
<text text-anchor="middle" x="770" y="-104.5" font-family="Helvetica,sans-Serif" font-size="10.00">Region</text>
</a>
</g>
</g>
<!-- Node7&#45;&gt;Node12 -->
<g id="edge12" class="edge"><title>Node7&#45;&gt;Node12</title>
<path fill="none" stroke="midnightblue" d="M640.233,-122.421C648.855,-122.125 657.567,-121.826 666.179,-121.53"/>
<polygon fill="midnightblue" stroke="midnightblue" points="666.356,-125.026 676.23,-121.185 666.115,-118.031 666.356,-125.026"/>
</g>
<!-- Node13&#45;&gt;Node6 -->
<g id="edge14" class="edge"><title>Node13&#45;&gt;Node6</title>
<path fill="none" stroke="midnightblue" d="M360.315,-221.949C384.412,-216.129 412.53,-209.338 439.034,-202.937"/>
<polygon fill="midnightblue" stroke="midnightblue" points="440.203,-206.255 449.101,-200.505 438.559,-199.451 440.203,-206.255"/>
</g>
<!-- Node13&#45;&gt;Node7 -->
<g id="edge15" class="edge"><title>Node13&#45;&gt;Node7</title>
<path fill="none" stroke="midnightblue" d="M377.424,-221.88C383.313,-219.118 388.926,-215.855 394,-212 419.371,-192.723 404.362,-168.921 430,-150 431.908,-148.592 433.885,-147.265 435.92,-146.014"/>
<polygon fill="midnightblue" stroke="midnightblue" points="438.045,-148.843 445.172,-141.003 434.712,-142.687 438.045,-148.843"/>
</g>
<!-- Node14&#45;&gt;Node6 -->
<g id="edge17" class="edge"><title>Node14&#45;&gt;Node6</title>
<path fill="none" stroke="midnightblue" d="M385.207,-185.044C399.93,-184.545 415.34,-184.022 430.43,-183.511"/>
<polygon fill="midnightblue" stroke="midnightblue" points="430.938,-186.996 440.814,-183.159 430.701,-180 430.938,-186.996"/>
</g>
<!-- Node14&#45;&gt;Node7 -->
<g id="edge18" class="edge"><title>Node14&#45;&gt;Node7</title>
<path fill="none" stroke="midnightblue" d="M359.18,-172.966C370.797,-169.858 382.814,-166.468 394,-163 410.248,-157.962 413.683,-154.81 430,-150 437.645,-147.746 445.657,-145.573 453.696,-143.515"/>
<polygon fill="midnightblue" stroke="midnightblue" points="454.641,-146.887 463.494,-141.066 452.943,-140.096 454.641,-146.887"/>
</g>
<!-- Node15&#45;&gt;Node6 -->
<g id="edge20" class="edge"><title>Node15&#45;&gt;Node6</title>
<path fill="none" stroke="midnightblue" d="M384.538,-154.034C399.538,-156.64 415.269,-159.373 430.663,-162.047"/>
<polygon fill="midnightblue" stroke="midnightblue" points="430.267,-165.531 440.719,-163.794 431.465,-158.634 430.267,-165.531"/>
</g>
<!-- Node15&#45;&gt;Node7 -->
<g id="edge21" class="edge"><title>Node15&#45;&gt;Node7</title>
<path fill="none" stroke="midnightblue" d="M394.331,-133.694C402.759,-133.229 411.339,-132.757 419.892,-132.286"/>
<polygon fill="midnightblue" stroke="midnightblue" points="420.118,-135.779 429.91,-131.734 419.733,-128.789 420.118,-135.779"/>
</g>
<!-- Node16&#45;&gt;Node6 -->
<g id="edge23" class="edge"><title>Node16&#45;&gt;Node6</title>
<path fill="none" stroke="midnightblue" d="M374.432,-105.007C381.242,-107.555 387.871,-110.53 394,-114 413.69,-125.149 410.513,-138.5 430,-150 433.181,-151.877 436.487,-153.643 439.879,-155.304"/>
<polygon fill="midnightblue" stroke="midnightblue" points="438.483,-158.513 449.036,-159.457 441.375,-152.139 438.483,-158.513"/>
</g>
<!-- Node16&#45;&gt;Node7 -->
<g id="edge24" class="edge"><title>Node16&#45;&gt;Node7</title>
<path fill="none" stroke="midnightblue" d="M392.63,-104.435C403.43,-106.083 414.502,-107.772 425.465,-109.444"/>
<polygon fill="midnightblue" stroke="midnightblue" points="425.077,-112.925 435.49,-110.973 426.132,-106.005 425.077,-112.925"/>
</g>
</g>
</svg>
