<?xml version="1.0" encoding="UTF-8" standalone="no"?>
<!DOCTYPE svg PUBLIC "-//W3C//DTD SVG 1.1//EN"
 "http://www.w3.org/Graphics/SVG/1.1/DTD/svg11.dtd">
<!-- Generated by graphviz version 2.36.0 (20140111.2315)
 -->
<!-- Title: gameEngine.Data.NullTowerInfoObject.NullTowerInfoObject Pages: 1 -->
<svg width="354pt" height="38pt"
 viewBox="0.00 0.00 354.00 38.00" xmlns="http://www.w3.org/2000/svg" xmlns:xlink="http://www.w3.org/1999/xlink">
<g id="graph0" class="graph" transform="scale(1 1) rotate(0) translate(4 34)">
<title>gameEngine.Data.NullTowerInfoObject.NullTowerInfoObject</title>
<polygon fill="white" stroke="none" points="-4,4 -4,-34 350,-34 350,4 -4,4"/>
<!-- Node1 -->
<g id="node1" class="node"><title>Node1</title>
<polygon fill="#bfbfbf" stroke="black" points="0,-0 0,-30 160,-30 160,-0 0,-0"/>
<text text-anchor="start" x="8" y="-18" font-family="Helvetica,sans-Serif" font-size="10.00">gameEngine.Data.NullTower</text>
<text text-anchor="middle" x="80" y="-7" font-family="Helvetica,sans-Serif" font-size="10.00">InfoObject.NullTowerInfoObject</text>
</g>
<!-- Node2 -->
<g id="node2" class="node"><title>Node2</title>
<g id="a_node2"><a xlink:href="../../d0/d8d/classgame_engine_1_1_data_1_1_null_tower_info_object.html#a8fe8001b8beb9598b93a3fdfc98ac898" target="_top" xlink:title="gameEngine.Data.NullTower\lInfoObject.getMyUpgrade">
<polygon fill="white" stroke="black" points="196,-0 196,-30 346,-30 346,-0 196,-0"/>
<text text-anchor="start" x="204" y="-18" font-family="Helvetica,sans-Serif" font-size="10.00">gameEngine.Data.NullTower</text>
<text text-anchor="middle" x="271" y="-7" font-family="Helvetica,sans-Serif" font-size="10.00">InfoObject.getMyUpgrade</text>
</a>
</g>
</g>
<!-- Node1&#45;&gt;Node2 -->
<g id="edge1" class="edge"><title>Node1&#45;&gt;Node2</title>
<path fill="none" stroke="midnightblue" d="M170.105,-15C178.702,-15 187.359,-15 195.79,-15"/>
<polygon fill="midnightblue" stroke="midnightblue" points="170.058,-11.5001 160.058,-15 170.058,-18.5001 170.058,-11.5001"/>
</g>
</g>
</svg>
