<?xml version="1.0" encoding="UTF-8" standalone="no"?>
<!DOCTYPE svg PUBLIC "-//W3C//DTD SVG 1.1//EN"
 "http://www.w3.org/Graphics/SVG/1.1/DTD/svg11.dtd">
<!-- Generated by graphviz version 2.36.0 (20140111.2315)
 -->
<!-- Title: gamePlayer.guiItems.welcome.WelcomeNavigator.deviceConnected Pages: 1 -->
<svg width="1060pt" height="309pt"
 viewBox="0.00 0.00 1060.00 309.31" xmlns="http://www.w3.org/2000/svg" xmlns:xlink="http://www.w3.org/1999/xlink">
<g id="graph0" class="graph" transform="scale(1 1) rotate(0) translate(4 305.314)">
<title>gamePlayer.guiItems.welcome.WelcomeNavigator.deviceConnected</title>
<polygon fill="white" stroke="none" points="-4,4 -4,-305.314 1056,-305.314 1056,4 -4,4"/>
<!-- Node1 -->
<g id="node1" class="node"><title>Node1</title>
<polygon fill="#bfbfbf" stroke="black" points="0.5,-186 0.5,-216 191.5,-216 191.5,-186 0.5,-186"/>
<text text-anchor="start" x="8.5" y="-204" font-family="Helvetica,sans-Serif" font-size="10.00">gamePlayer.guiItems.welcome.</text>
<text text-anchor="middle" x="96" y="-193" font-family="Helvetica,sans-Serif" font-size="10.00">WelcomeNavigator.deviceConnected</text>
</g>
<!-- Node2 -->
<g id="node2" class="node"><title>Node2</title>
<g id="a_node2"><a xlink:href="../../db/d5e/classutilities_1_1reflection_1_1_reflection.html#a8bc52887d77966c001a83c2f585e6100" target="_top" xlink:title="utilities.reflection.Reflection.create\lInstance">
<polygon fill="white" stroke="black" points="444,-235 444,-265 624,-265 624,-235 444,-235"/>
<text text-anchor="start" x="452" y="-253" font-family="Helvetica,sans-Serif" font-size="10.00">utilities.reflection.Reflection.create</text>
<text text-anchor="middle" x="534" y="-242" font-family="Helvetica,sans-Serif" font-size="10.00">Instance</text>
</a>
</g>
</g>
<!-- Node1&#45;&gt;Node2 -->
<g id="edge1" class="edge"><title>Node1&#45;&gt;Node2</title>
<path fill="none" stroke="midnightblue" d="M191.606,-211.632C263.126,-219.67 361.069,-230.677 433.71,-238.841"/>
<polygon fill="midnightblue" stroke="midnightblue" points="433.458,-242.335 443.787,-239.974 434.24,-235.379 433.458,-242.335"/>
</g>
<!-- Node3 -->
<g id="node3" class="node"><title>Node3</title>
<g id="a_node3"><a xlink:href="../../d7/d02/interfacegame_player_1_1main_classes_1_1gui_builder_1_1_gui_element.html#a0cfbb03fce35c4102f5ee95dc523d789" target="_top" xlink:title="gamePlayer.mainClasses.gui\lBuilder.GuiElement.getNode">
<polygon fill="white" stroke="black" points="457,-186 457,-216 611,-216 611,-186 457,-186"/>
<text text-anchor="start" x="465" y="-204" font-family="Helvetica,sans-Serif" font-size="10.00">gamePlayer.mainClasses.gui</text>
<text text-anchor="middle" x="534" y="-193" font-family="Helvetica,sans-Serif" font-size="10.00">Builder.GuiElement.getNode</text>
</a>
</g>
</g>
<!-- Node1&#45;&gt;Node3 -->
<g id="edge2" class="edge"><title>Node1&#45;&gt;Node3</title>
<path fill="none" stroke="midnightblue" d="M191.606,-201C267.432,-201 372.957,-201 446.543,-201"/>
<polygon fill="midnightblue" stroke="midnightblue" points="446.708,-204.5 456.708,-201 446.708,-197.5 446.708,-204.5"/>
</g>
<!-- Node4 -->
<g id="node4" class="node"><title>Node4</title>
<g id="a_node4"><a xlink:href="../../df/db4/classutilities_1_1_x_m_l_parsing_1_1_x_m_l_parser.html#a70485375200a84f459aa83ffedbea646" target="_top" xlink:title="utilities.XMLParsing.XMLParser.get\lValuesFromTag">
<polygon fill="white" stroke="black" points="660,-137 660,-167 838,-167 838,-137 660,-137"/>
<text text-anchor="start" x="668" y="-155" font-family="Helvetica,sans-Serif" font-size="10.00">utilities.XMLParsing.XMLParser.get</text>
<text text-anchor="middle" x="749" y="-144" font-family="Helvetica,sans-Serif" font-size="10.00">ValuesFromTag</text>
</a>
</g>
</g>
<!-- Node1&#45;&gt;Node4 -->
<g id="edge3" class="edge"><title>Node1&#45;&gt;Node4</title>
<path fill="none" stroke="midnightblue" d="M128.387,-216.101C212.268,-254.229 447.273,-346.363 624,-274 672.377,-254.192 712.024,-205.395 732.629,-175.866"/>
<polygon fill="midnightblue" stroke="midnightblue" points="735.675,-177.612 738.401,-167.374 729.885,-173.677 735.675,-177.612"/>
</g>
<!-- Node6 -->
<g id="node6" class="node"><title>Node6</title>
<g id="a_node6"><a xlink:href="../../d7/d02/interfacegame_player_1_1main_classes_1_1gui_builder_1_1_gui_element.html#a11c38d8cb75271486784dd02171fd867" target="_top" xlink:title="gamePlayer.mainClasses.gui\lBuilder.GuiElement.initialize">
<polygon fill="white" stroke="black" points="457,-0 457,-30 611,-30 611,-0 457,-0"/>
<text text-anchor="start" x="465" y="-18" font-family="Helvetica,sans-Serif" font-size="10.00">gamePlayer.mainClasses.gui</text>
<text text-anchor="middle" x="534" y="-7" font-family="Helvetica,sans-Serif" font-size="10.00">Builder.GuiElement.initialize</text>
</a>
</g>
</g>
<!-- Node1&#45;&gt;Node6 -->
<g id="edge5" class="edge"><title>Node1&#45;&gt;Node6</title>
<path fill="none" stroke="midnightblue" d="M121.003,-185.872C146.812,-169.982 189.354,-144.868 228,-127 311.716,-88.2955 412.91,-53.3442 475.108,-33.1401"/>
<polygon fill="midnightblue" stroke="midnightblue" points="476.307,-36.4308 484.747,-30.0258 474.155,-29.7699 476.307,-36.4308"/>
</g>
<!-- Node7 -->
<g id="node7" class="node"><title>Node7</title>
<g id="a_node7"><a xlink:href="../../dc/dbd/classgame_player_1_1gui_items_1_1welcome_1_1_welcome_navigator.html#ac90b7ee172b70f339e02f5edfe26bb1a" target="_top" xlink:title="gamePlayer.guiItems.welcome.\lWelcomeNavigator.setupContents">
<polygon fill="white" stroke="black" points="228.5,-137 228.5,-167 407.5,-167 407.5,-137 228.5,-137"/>
<text text-anchor="start" x="236.5" y="-155" font-family="Helvetica,sans-Serif" font-size="10.00">gamePlayer.guiItems.welcome.</text>
<text text-anchor="middle" x="318" y="-144" font-family="Helvetica,sans-Serif" font-size="10.00">WelcomeNavigator.setupContents</text>
</a>
</g>
</g>
<!-- Node1&#45;&gt;Node7 -->
<g id="edge6" class="edge"><title>Node1&#45;&gt;Node7</title>
<path fill="none" stroke="midnightblue" d="M164.502,-185.965C188.259,-180.674 215.141,-174.687 239.646,-169.229"/>
<polygon fill="midnightblue" stroke="midnightblue" points="240.625,-172.597 249.625,-167.006 239.104,-165.764 240.625,-172.597"/>
</g>
<!-- Node5 -->
<g id="node5" class="node"><title>Node5</title>
<g id="a_node5"><a xlink:href="../../df/db4/classutilities_1_1_x_m_l_parsing_1_1_x_m_l_parser.html#ab3a0a60481d20e93b1382f9a8a31fe9d" target="_top" xlink:title="utilities.XMLParsing.XMLParser.get\lValues">
<polygon fill="white" stroke="black" points="874,-137 874,-167 1052,-167 1052,-137 874,-137"/>
<text text-anchor="start" x="882" y="-155" font-family="Helvetica,sans-Serif" font-size="10.00">utilities.XMLParsing.XMLParser.get</text>
<text text-anchor="middle" x="963" y="-144" font-family="Helvetica,sans-Serif" font-size="10.00">Values</text>
</a>
</g>
</g>
<!-- Node4&#45;&gt;Node5 -->
<g id="edge4" class="edge"><title>Node4&#45;&gt;Node5</title>
<path fill="none" stroke="midnightblue" d="M838.065,-152C846.569,-152 855.232,-152 863.825,-152"/>
<polygon fill="midnightblue" stroke="midnightblue" points="863.868,-155.5 873.868,-152 863.868,-148.5 863.868,-155.5"/>
</g>
<!-- Node7&#45;&gt;Node2 -->
<g id="edge10" class="edge"><title>Node7&#45;&gt;Node2</title>
<path fill="none" stroke="midnightblue" d="M341.127,-167.271C365.429,-183.472 406.058,-208.904 444,-225 449.721,-227.427 455.747,-229.691 461.855,-231.787"/>
<polygon fill="midnightblue" stroke="midnightblue" points="460.897,-235.156 471.489,-234.941 463.075,-228.504 460.897,-235.156"/>
</g>
<!-- Node7&#45;&gt;Node3 -->
<g id="edge13" class="edge"><title>Node7&#45;&gt;Node3</title>
<path fill="none" stroke="midnightblue" d="M384.661,-167.035C407.668,-172.302 433.687,-178.26 457.438,-183.698"/>
<polygon fill="midnightblue" stroke="midnightblue" points="456.934,-187.173 467.463,-185.994 458.496,-180.35 456.934,-187.173"/>
</g>
<!-- Node7&#45;&gt;Node4 -->
<g id="edge7" class="edge"><title>Node7&#45;&gt;Node4</title>
<path fill="none" stroke="midnightblue" d="M337.434,-136.71C360.606,-118.58 402.406,-89.3887 444,-78 521.16,-56.873 546.877,-56.7369 624,-78 660.807,-88.148 697.706,-112.412 721.561,-130.404"/>
<polygon fill="midnightblue" stroke="midnightblue" points="719.68,-133.374 729.735,-136.712 723.956,-127.832 719.68,-133.374"/>
</g>
<!-- Node7&#45;&gt;Node6 -->
<g id="edge11" class="edge"><title>Node7&#45;&gt;Node6</title>
<path fill="none" stroke="midnightblue" d="M336.749,-136.881C354.725,-121.559 383.321,-97.1622 408,-76 424.028,-62.2553 425.656,-55.455 444,-45 451.514,-40.7177 459.734,-36.9221 468.046,-33.5954"/>
<polygon fill="midnightblue" stroke="midnightblue" points="469.326,-36.8536 477.437,-30.0376 466.846,-30.3076 469.326,-36.8536"/>
</g>
<!-- Node8 -->
<g id="node8" class="node"><title>Node8</title>
<g id="a_node8"><a xlink:href="../../df/db4/classutilities_1_1_x_m_l_parsing_1_1_x_m_l_parser.html#a159b395412a8ce61e6decfefc9ed9854" target="_top" xlink:title="utilities.XMLParsing.XMLParser.get\lDoubleValuesFromTag">
<polygon fill="white" stroke="black" points="445,-137 445,-167 623,-167 623,-137 445,-137"/>
<text text-anchor="start" x="453" y="-155" font-family="Helvetica,sans-Serif" font-size="10.00">utilities.XMLParsing.XMLParser.get</text>
<text text-anchor="middle" x="534" y="-144" font-family="Helvetica,sans-Serif" font-size="10.00">DoubleValuesFromTag</text>
</a>
</g>
</g>
<!-- Node7&#45;&gt;Node8 -->
<g id="edge8" class="edge"><title>Node7&#45;&gt;Node8</title>
<path fill="none" stroke="midnightblue" d="M407.587,-152C416.526,-152 425.642,-152 434.675,-152"/>
<polygon fill="midnightblue" stroke="midnightblue" points="434.825,-155.5 444.825,-152 434.825,-148.5 434.825,-155.5"/>
</g>
<!-- Node9 -->
<g id="node9" class="node"><title>Node9</title>
<g id="a_node9"><a xlink:href="../../dc/dbd/classgame_player_1_1gui_items_1_1welcome_1_1_welcome_navigator.html#ac6a1ec3689ec28a4ccf21163ceb8d30a" target="_top" xlink:title="gamePlayer.guiItems.welcome.\lWelcomeNavigator.shift">
<polygon fill="white" stroke="black" points="451.5,-88 451.5,-118 616.5,-118 616.5,-88 451.5,-88"/>
<text text-anchor="start" x="459.5" y="-106" font-family="Helvetica,sans-Serif" font-size="10.00">gamePlayer.guiItems.welcome.</text>
<text text-anchor="middle" x="534" y="-95" font-family="Helvetica,sans-Serif" font-size="10.00">WelcomeNavigator.shift</text>
</a>
</g>
</g>
<!-- Node7&#45;&gt;Node9 -->
<g id="edge12" class="edge"><title>Node7&#45;&gt;Node9</title>
<path fill="none" stroke="midnightblue" d="M384.661,-136.965C407.668,-131.698 433.687,-125.74 457.438,-120.302"/>
<polygon fill="midnightblue" stroke="midnightblue" points="458.496,-123.65 467.463,-118.006 456.934,-116.827 458.496,-123.65"/>
</g>
<!-- Node8&#45;&gt;Node4 -->
<g id="edge9" class="edge"><title>Node8&#45;&gt;Node4</title>
<path fill="none" stroke="midnightblue" d="M623.173,-152C631.987,-152 640.974,-152 649.882,-152"/>
<polygon fill="midnightblue" stroke="midnightblue" points="649.893,-155.5 659.893,-152 649.893,-148.5 649.893,-155.5"/>
</g>
</g>
</svg>
