<?xml version="1.0" encoding="UTF-8" standalone="no"?>
<!DOCTYPE svg PUBLIC "-//W3C//DTD SVG 1.1//EN"
 "http://www.w3.org/Graphics/SVG/1.1/DTD/svg11.dtd">
<!-- Generated by graphviz version 2.36.0 (20140111.2315)
 -->
<!-- Title: gameAuthoring.scenes.pathBuilding.buildingPanes.ComponentVisibilityPane Pages: 1 -->
<svg width="192pt" height="174pt"
 viewBox="0.00 0.00 192.00 174.00" xmlns="http://www.w3.org/2000/svg" xmlns:xlink="http://www.w3.org/1999/xlink">
<g id="graph0" class="graph" transform="scale(1 1) rotate(0) translate(4 170)">
<title>gameAuthoring.scenes.pathBuilding.buildingPanes.ComponentVisibilityPane</title>
<polygon fill="white" stroke="none" points="-4,4 -4,-170 188,-170 188,4 -4,4"/>
<!-- Node1 -->
<g id="node1" class="node"><title>Node1</title>
<polygon fill="#bfbfbf" stroke="black" points="1,-0.5 1,-41.5 183,-41.5 183,-0.5 1,-0.5"/>
<text text-anchor="start" x="9" y="-29.5" font-family="Helvetica,sans-Serif" font-size="10.00">gameAuthoring.scenes.path</text>
<text text-anchor="start" x="9" y="-18.5" font-family="Helvetica,sans-Serif" font-size="10.00">Building.buildingPanes.Component</text>
<text text-anchor="middle" x="92" y="-7.5" font-family="Helvetica,sans-Serif" font-size="10.00">VisibilityPane</text>
</g>
<!-- Node2 -->
<g id="node2" class="node"><title>Node2</title>
<g id="a_node2"><a xlink:href="../../d4/d78/classgame_authoring_1_1scenes_1_1path_building_1_1building_panes_1_1_building_pane.html" target="_top" xlink:title="gameAuthoring.scenes.path\lBuilding.buildingPanes.BuildingPane">
<polygon fill="white" stroke="black" points="-1,-79 -1,-109 185,-109 185,-79 -1,-79"/>
<text text-anchor="start" x="7" y="-97" font-family="Helvetica,sans-Serif" font-size="10.00">gameAuthoring.scenes.path</text>
<text text-anchor="middle" x="92" y="-86" font-family="Helvetica,sans-Serif" font-size="10.00">Building.buildingPanes.BuildingPane</text>
</a>
</g>
</g>
<!-- Node2&#45;&gt;Node1 -->
<g id="edge1" class="edge"><title>Node2&#45;&gt;Node1</title>
<path fill="none" stroke="midnightblue" d="M92,-68.8534C92,-59.9872 92,-50.065 92,-41.642"/>
<polygon fill="midnightblue" stroke="midnightblue" points="88.5001,-68.9727 92,-78.9727 95.5001,-68.9727 88.5001,-68.9727"/>
</g>
<!-- Node3 -->
<g id="node3" class="node"><title>Node3</title>
<polygon fill="white" stroke="#bfbfbf" points="72,-146.5 72,-165.5 112,-165.5 112,-146.5 72,-146.5"/>
<text text-anchor="middle" x="92" y="-153.5" font-family="Helvetica,sans-Serif" font-size="10.00">Pane</text>
</g>
<!-- Node3&#45;&gt;Node2 -->
<g id="edge2" class="edge"><title>Node3&#45;&gt;Node2</title>
<path fill="none" stroke="midnightblue" d="M92,-136.371C92,-127.585 92,-117.272 92,-109.141"/>
<polygon fill="midnightblue" stroke="midnightblue" points="88.5001,-136.403 92,-146.403 95.5001,-136.403 88.5001,-136.403"/>
</g>
</g>
</svg>
