<?xml version="1.0" encoding="UTF-8" standalone="no"?>
<!DOCTYPE svg PUBLIC "-//W3C//DTD SVG 1.1//EN"
 "http://www.w3.org/Graphics/SVG/1.1/DTD/svg11.dtd">
<!-- Generated by graphviz version 2.36.0 (20140111.2315)
 -->
<!-- Title: gameAuthoring.scenes.GeneralSettingScene.getScene Pages: 1 -->
<svg width="628pt" height="38pt"
 viewBox="0.00 0.00 628.00 38.00" xmlns="http://www.w3.org/2000/svg" xmlns:xlink="http://www.w3.org/1999/xlink">
<g id="graph0" class="graph" transform="scale(1 1) rotate(0) translate(4 34)">
<title>gameAuthoring.scenes.GeneralSettingScene.getScene</title>
<polygon fill="white" stroke="none" points="-4,4 -4,-34 624,-34 624,4 -4,4"/>
<!-- Node1 -->
<g id="node1" class="node"><title>Node1</title>
<polygon fill="#bfbfbf" stroke="black" points="0,-0 0,-30 168,-30 168,-0 0,-0"/>
<text text-anchor="start" x="8" y="-18" font-family="Helvetica,sans-Serif" font-size="10.00">gameAuthoring.scenes.General</text>
<text text-anchor="middle" x="84" y="-7" font-family="Helvetica,sans-Serif" font-size="10.00">SettingScene.getScene</text>
</g>
<!-- Node2 -->
<g id="node2" class="node"><title>Node2</title>
<g id="a_node2"><a xlink:href="../../d6/d87/classgame_authoring_1_1mainclasses_1_1_author_controller.html#a26ee886cc6f507ee9c36e97c61726f2c" target="_top" xlink:title="gameAuthoring.mainclasses.\lAuthorController.showGeneralSettingScene">
<polygon fill="white" stroke="black" points="204,-0 204,-30 428,-30 428,-0 204,-0"/>
<text text-anchor="start" x="212" y="-18" font-family="Helvetica,sans-Serif" font-size="10.00">gameAuthoring.mainclasses.</text>
<text text-anchor="middle" x="316" y="-7" font-family="Helvetica,sans-Serif" font-size="10.00">AuthorController.showGeneralSettingScene</text>
</a>
</g>
</g>
<!-- Node1&#45;&gt;Node2 -->
<g id="edge1" class="edge"><title>Node1&#45;&gt;Node2</title>
<path fill="none" stroke="midnightblue" d="M178.183,-15C186.578,-15 195.134,-15 203.663,-15"/>
<polygon fill="midnightblue" stroke="midnightblue" points="178.035,-11.5001 168.035,-15 178.035,-18.5001 178.035,-11.5001"/>
</g>
<!-- Node3 -->
<g id="node3" class="node"><title>Node3</title>
<g id="a_node3"><a xlink:href="../../d6/d87/classgame_authoring_1_1mainclasses_1_1_author_controller.html#aaa4b57d811457b44bf30d221b215dbc5" target="_top" xlink:title="gameAuthoring.mainclasses.\lAuthorController.update">
<polygon fill="white" stroke="black" points="464,-0 464,-30 620,-30 620,-0 464,-0"/>
<text text-anchor="start" x="472" y="-18" font-family="Helvetica,sans-Serif" font-size="10.00">gameAuthoring.mainclasses.</text>
<text text-anchor="middle" x="542" y="-7" font-family="Helvetica,sans-Serif" font-size="10.00">AuthorController.update</text>
</a>
</g>
</g>
<!-- Node2&#45;&gt;Node3 -->
<g id="edge2" class="edge"><title>Node2&#45;&gt;Node3</title>
<path fill="none" stroke="midnightblue" d="M438.217,-15C446.889,-15 455.487,-15 463.8,-15"/>
<polygon fill="midnightblue" stroke="midnightblue" points="438.016,-11.5001 428.016,-15 438.016,-18.5001 438.016,-11.5001"/>
</g>
</g>
</svg>
