<?xml version="1.0" encoding="UTF-8" standalone="no"?>
<!DOCTYPE svg PUBLIC "-//W3C//DTD SVG 1.1//EN"
 "http://www.w3.org/Graphics/SVG/1.1/DTD/svg11.dtd">
<!-- Generated by graphviz version 2.36.0 (20140111.2315)
 -->
<!-- Title: gameAuthoring.scenes.GeneralSettingScene.createFieldWithLabel Pages: 1 -->
<svg width="616pt" height="38pt"
 viewBox="0.00 0.00 616.00 38.00" xmlns="http://www.w3.org/2000/svg" xmlns:xlink="http://www.w3.org/1999/xlink">
<g id="graph0" class="graph" transform="scale(1 1) rotate(0) translate(4 34)">
<title>gameAuthoring.scenes.GeneralSettingScene.createFieldWithLabel</title>
<polygon fill="white" stroke="none" points="-4,4 -4,-34 612,-34 612,4 -4,4"/>
<!-- Node1 -->
<g id="node1" class="node"><title>Node1</title>
<polygon fill="#bfbfbf" stroke="black" points="0,-0 0,-30 182,-30 182,-0 0,-0"/>
<text text-anchor="start" x="8" y="-18" font-family="Helvetica,sans-Serif" font-size="10.00">gameAuthoring.scenes.General</text>
<text text-anchor="middle" x="91" y="-7" font-family="Helvetica,sans-Serif" font-size="10.00">SettingScene.createFieldWithLabel</text>
</g>
<!-- Node2 -->
<g id="node2" class="node"><title>Node2</title>
<g id="a_node2"><a xlink:href="../../d4/d4e/classgame_authoring_1_1scenes_1_1_general_setting_scene.html#af02688df88ba8091f244385b1344ccad" target="_top" xlink:title="gameAuthoring.scenes.General\lSettingScene.createOptions">
<polygon fill="white" stroke="black" points="218,-0 218,-30 386,-30 386,-0 218,-0"/>
<text text-anchor="start" x="226" y="-18" font-family="Helvetica,sans-Serif" font-size="10.00">gameAuthoring.scenes.General</text>
<text text-anchor="middle" x="302" y="-7" font-family="Helvetica,sans-Serif" font-size="10.00">SettingScene.createOptions</text>
</a>
</g>
</g>
<!-- Node1&#45;&gt;Node2 -->
<g id="edge1" class="edge"><title>Node1&#45;&gt;Node2</title>
<path fill="none" stroke="midnightblue" d="M192.171,-15C200.733,-15 209.334,-15 217.744,-15"/>
<polygon fill="midnightblue" stroke="midnightblue" points="192.151,-11.5001 182.151,-15 192.151,-18.5001 192.151,-11.5001"/>
</g>
<!-- Node3 -->
<g id="node3" class="node"><title>Node3</title>
<g id="a_node3"><a xlink:href="../../d4/d4e/classgame_authoring_1_1scenes_1_1_general_setting_scene.html#ab5d7d1efd2c3cecbebf9db0a99d05ab8" target="_top" xlink:title="gameAuthoring.scenes.General\lSettingScene.GeneralSettingScene">
<polygon fill="white" stroke="black" points="422,-0 422,-30 608,-30 608,-0 422,-0"/>
<text text-anchor="start" x="430" y="-18" font-family="Helvetica,sans-Serif" font-size="10.00">gameAuthoring.scenes.General</text>
<text text-anchor="middle" x="515" y="-7" font-family="Helvetica,sans-Serif" font-size="10.00">SettingScene.GeneralSettingScene</text>
</a>
</g>
</g>
<!-- Node2&#45;&gt;Node3 -->
<g id="edge2" class="edge"><title>Node2&#45;&gt;Node3</title>
<path fill="none" stroke="midnightblue" d="M396.094,-15C404.67,-15 413.358,-15 421.926,-15"/>
<polygon fill="midnightblue" stroke="midnightblue" points="396.09,-11.5001 386.09,-15 396.09,-18.5001 396.09,-11.5001"/>
</g>
</g>
</svg>
