<?xml version="1.0" encoding="UTF-8" standalone="no"?>
<!DOCTYPE svg PUBLIC "-//W3C//DTD SVG 1.1//EN"
 "http://www.w3.org/Graphics/SVG/1.1/DTD/svg11.dtd">
<!-- Generated by graphviz version 2.36.0 (20140111.2315)
 -->
<!-- Title: gameAuthoring.scenes.GeneralSettingScene.createRightImage Pages: 1 -->
<svg width="400pt" height="38pt"
 viewBox="0.00 0.00 400.00 38.00" xmlns="http://www.w3.org/2000/svg" xmlns:xlink="http://www.w3.org/1999/xlink">
<g id="graph0" class="graph" transform="scale(1 1) rotate(0) translate(4 34)">
<title>gameAuthoring.scenes.GeneralSettingScene.createRightImage</title>
<polygon fill="white" stroke="none" points="-4,4 -4,-34 396,-34 396,4 -4,4"/>
<!-- Node1 -->
<g id="node1" class="node"><title>Node1</title>
<polygon fill="#bfbfbf" stroke="black" points="0.5,-0 0.5,-30 169.5,-30 169.5,-0 0.5,-0"/>
<text text-anchor="start" x="8.5" y="-18" font-family="Helvetica,sans-Serif" font-size="10.00">gameAuthoring.scenes.General</text>
<text text-anchor="middle" x="85" y="-7" font-family="Helvetica,sans-Serif" font-size="10.00">SettingScene.createRightImage</text>
</g>
<!-- Node2 -->
<g id="node2" class="node"><title>Node2</title>
<g id="a_node2"><a xlink:href="../../d4/d4e/classgame_authoring_1_1scenes_1_1_general_setting_scene.html#ab5d7d1efd2c3cecbebf9db0a99d05ab8" target="_top" xlink:title="gameAuthoring.scenes.General\lSettingScene.GeneralSettingScene">
<polygon fill="white" stroke="black" points="206,-0 206,-30 392,-30 392,-0 206,-0"/>
<text text-anchor="start" x="214" y="-18" font-family="Helvetica,sans-Serif" font-size="10.00">gameAuthoring.scenes.General</text>
<text text-anchor="middle" x="299" y="-7" font-family="Helvetica,sans-Serif" font-size="10.00">SettingScene.GeneralSettingScene</text>
</a>
</g>
</g>
<!-- Node1&#45;&gt;Node2 -->
<g id="edge1" class="edge"><title>Node1&#45;&gt;Node2</title>
<path fill="none" stroke="midnightblue" d="M179.826,-15C188.431,-15 197.145,-15 205.736,-15"/>
<polygon fill="midnightblue" stroke="midnightblue" points="179.788,-11.5001 169.788,-15 179.788,-18.5001 179.788,-11.5001"/>
</g>
</g>
</svg>
