<?xml version="1.0" encoding="UTF-8" standalone="no"?>
<!DOCTYPE svg PUBLIC "-//W3C//DTD SVG 1.1//EN"
 "http://www.w3.org/Graphics/SVG/1.1/DTD/svg11.dtd">
<!-- Generated by graphviz version 2.36.0 (20140111.2315)
 -->
<!-- Title: gameAuthoring.scenes.GeneralSettingScene.handleButtonClick Pages: 1 -->
<svg width="810pt" height="61pt"
 viewBox="0.00 0.00 810.00 61.00" xmlns="http://www.w3.org/2000/svg" xmlns:xlink="http://www.w3.org/1999/xlink">
<g id="graph0" class="graph" transform="scale(1 1) rotate(0) translate(4 57)">
<title>gameAuthoring.scenes.GeneralSettingScene.handleButtonClick</title>
<polygon fill="white" stroke="none" points="-4,4 -4,-57 806,-57 806,4 -4,4"/>
<!-- Node1 -->
<g id="node1" class="node"><title>Node1</title>
<polygon fill="#bfbfbf" stroke="black" points="0,-1 0,-31 170,-31 170,-1 0,-1"/>
<text text-anchor="start" x="8" y="-19" font-family="Helvetica,sans-Serif" font-size="10.00">gameAuthoring.scenes.General</text>
<text text-anchor="middle" x="85" y="-8" font-family="Helvetica,sans-Serif" font-size="10.00">SettingScene.handleButtonClick</text>
</g>
<!-- Node2 -->
<g id="node2" class="node"><title>Node2</title>
<g id="a_node2"><a xlink:href="../../d4/d4e/classgame_authoring_1_1scenes_1_1_general_setting_scene.html#a9282c877dfdbca9fc95ae068ddcc45c4" target="_top" xlink:title="gameAuthoring.scenes.General\lSettingScene.createNextButton">
<polygon fill="white" stroke="black" points="206,-1 206,-31 376,-31 376,-1 206,-1"/>
<text text-anchor="start" x="214" y="-19" font-family="Helvetica,sans-Serif" font-size="10.00">gameAuthoring.scenes.General</text>
<text text-anchor="middle" x="291" y="-8" font-family="Helvetica,sans-Serif" font-size="10.00">SettingScene.createNextButton</text>
</a>
</g>
</g>
<!-- Node1&#45;&gt;Node2 -->
<g id="edge1" class="edge"><title>Node1&#45;&gt;Node2</title>
<path fill="none" stroke="midnightblue" d="M180.402,-16C188.847,-16 197.361,-16 205.712,-16"/>
<polygon fill="midnightblue" stroke="midnightblue" points="180.152,-12.5001 170.152,-16 180.152,-19.5001 180.152,-12.5001"/>
</g>
<!-- Node3 -->
<g id="node3" class="node"><title>Node3</title>
<g id="a_node3"><a xlink:href="../../d4/d4e/classgame_authoring_1_1scenes_1_1_general_setting_scene.html#af02688df88ba8091f244385b1344ccad" target="_top" xlink:title="gameAuthoring.scenes.General\lSettingScene.createOptions">
<polygon fill="white" stroke="black" points="412,-23 412,-53 580,-53 580,-23 412,-23"/>
<text text-anchor="start" x="420" y="-41" font-family="Helvetica,sans-Serif" font-size="10.00">gameAuthoring.scenes.General</text>
<text text-anchor="middle" x="496" y="-30" font-family="Helvetica,sans-Serif" font-size="10.00">SettingScene.createOptions</text>
</a>
</g>
</g>
<!-- Node2&#45;&gt;Node3 -->
<g id="edge2" class="edge"><title>Node2&#45;&gt;Node3</title>
<path fill="none" stroke="midnightblue" d="M386.035,-26.191C394.595,-27.1187 403.227,-28.0541 411.684,-28.9707"/>
<polygon fill="midnightblue" stroke="midnightblue" points="386.352,-22.7049 376.033,-25.107 385.598,-29.6642 386.352,-22.7049"/>
</g>
<!-- Node4 -->
<g id="node4" class="node"><title>Node4</title>
<g id="a_node4"><a xlink:href="../../d4/d4e/classgame_authoring_1_1scenes_1_1_general_setting_scene.html#ab5d7d1efd2c3cecbebf9db0a99d05ab8" target="_top" xlink:title="gameAuthoring.scenes.General\lSettingScene.GeneralSettingScene">
<polygon fill="white" stroke="black" points="616,-1 616,-31 802,-31 802,-1 616,-1"/>
<text text-anchor="start" x="624" y="-19" font-family="Helvetica,sans-Serif" font-size="10.00">gameAuthoring.scenes.General</text>
<text text-anchor="middle" x="709" y="-8" font-family="Helvetica,sans-Serif" font-size="10.00">SettingScene.GeneralSettingScene</text>
</a>
</g>
</g>
<!-- Node2&#45;&gt;Node4 -->
<g id="edge4" class="edge"><title>Node2&#45;&gt;Node4</title>
<path fill="none" stroke="midnightblue" d="M386.398,-14.2786C395.054,-14.1655 403.689,-14.0693 412,-14 486.664,-13.3778 505.336,-13.4167 580,-14 591.557,-14.0903 603.7,-14.2264 615.714,-14.386"/>
<polygon fill="midnightblue" stroke="midnightblue" points="386.196,-10.781 376.245,-14.4186 386.293,-17.7803 386.196,-10.781"/>
</g>
<!-- Node3&#45;&gt;Node4 -->
<g id="edge3" class="edge"><title>Node3&#45;&gt;Node4</title>
<path fill="none" stroke="midnightblue" d="M590.094,-28.2936C598.67,-27.3993 607.358,-26.4935 615.926,-25.6001"/>
<polygon fill="midnightblue" stroke="midnightblue" points="589.673,-24.8183 580.09,-29.3366 590.399,-31.7806 589.673,-24.8183"/>
</g>
</g>
</svg>
