<?xml version="1.0" encoding="UTF-8" standalone="no"?>
<!DOCTYPE svg PUBLIC "-//W3C//DTD SVG 1.1//EN"
 "http://www.w3.org/Graphics/SVG/1.1/DTD/svg11.dtd">
<!-- Generated by graphviz version 2.36.0 (20140111.2315)
 -->
<!-- Title: gameEngine.actors.behaviors.AIMovement Pages: 1 -->
<!--zoomable 262 -->
<svg id="main" version="1.1" xmlns="http://www.w3.org/2000/svg" xmlns:xlink="http://www.w3.org/1999/xlink" xml:space="preserve" onload="init(evt)">
<style type="text/css"><![CDATA[
.edge:hover path { stroke: red; }
.edge:hover polygon { stroke: red; fill: red; }
]]></style>
<script type="text/javascript"><![CDATA[
var edges = document.getElementsByTagName('g');
if (edges && edges.length) {
  for (var i=0;i<edges.length;i++) {
    if (edges[i].id.substr(0,4)=='edge') {
      edges[i].setAttribute('class','edge');
    }
  }
}
]]></script>
        <defs>
                <circle id="rim" cx="0" cy="0" r="7"/>
                <circle id="rim2" cx="0" cy="0" r="3.5"/>
                <g id="zoomPlus">
                        <use xlink:href="#rim" fill="#404040">
                                <set attributeName="fill" to="#808080" begin="zoomplus.mouseover" end="zoomplus.mouseout"/>
                        </use>
                        <path d="M-4,0h8M0,-4v8" fill="none" stroke="white" stroke-width="1.5" pointer-events="none"/>
                </g>
                <g id="zoomMin">
                        <use xlink:href="#rim" fill="#404040">
                                <set attributeName="fill" to="#808080" begin="zoomminus.mouseover" end="zoomminus.mouseout"/>
                        </use>
                        <path d="M-4,0h8" fill="none" stroke="white" stroke-width="1.5" pointer-events="none"/>
                </g>
                <g id="dirArrow">
                        <path fill="none" stroke="white" stroke-width="1.5" d="M0,-3.0v7 M-2.5,-0.5L0,-3.0L2.5,-0.5"/>
                </g>
               <g id="resetDef">
                       <use xlink:href="#rim2" fill="#404040">
                               <set attributeName="fill" to="#808080" begin="reset.mouseover" end="reset.mouseout"/>
                       </use>
               </g>
        </defs>

<script type="text/javascript">
var viewWidth = 940;
var viewHeight = 262;
var sectionId = 'dynsection-1';
</script>
<script xlink:href="../../svgpan.js"/>
<svg id="graph" class="graph">
<g id="viewport">
<title>gameEngine.actors.behaviors.AIMovement</title>
<polygon fill="white" stroke="none" points="-4,4 -4,-258 936,-258 936,4 -4,4"/>
<!-- Node1 -->
<g id="node1" class="node"><title>Node1</title>
<polygon fill="#bfbfbf" stroke="black" points="770,-55 770,-85 932,-85 932,-55 770,-55"/>
<text text-anchor="start" x="778" y="-73" font-family="Helvetica,sans-Serif" font-size="10.00">gameEngine.actors.behaviors.</text>
<text text-anchor="middle" x="851" y="-62" font-family="Helvetica,sans-Serif" font-size="10.00">AIMovement</text>
</g>
<!-- Node2 -->
<g id="node2" class="node"><title>Node2</title>
<g id="a_node2"><a xlink:href="../../de/d4a/classgame_engine_1_1actors_1_1behaviors_1_1_base_movement_behavior.html" target="_top" xlink:title="gameEngine.actors.behaviors.\lBaseMovementBehavior">
<polygon fill="white" stroke="black" points="504,-155 504,-185 666,-185 666,-155 504,-155"/>
<text text-anchor="start" x="512" y="-173" font-family="Helvetica,sans-Serif" font-size="10.00">gameEngine.actors.behaviors.</text>
<text text-anchor="middle" x="585" y="-162" font-family="Helvetica,sans-Serif" font-size="10.00">BaseMovementBehavior</text>
</a>
</g>
</g>
<!-- Node2&#45;&gt;Node1 -->
<g id="edge1" class="edge"><title>Node2&#45;&gt;Node1</title>
<path fill="none" stroke="midnightblue" d="M635.232,-151.352C685.796,-132.198 763.525,-102.756 810.299,-85.0382"/>
<polygon fill="midnightblue" stroke="midnightblue" points="633.921,-148.105 625.809,-154.921 636.401,-154.651 633.921,-148.105"/>
</g>
<!-- Node3 -->
<g id="node3" class="node"><title>Node3</title>
<g id="a_node3"><a xlink:href="../../dd/d43/interfacegame_engine_1_1actors_1_1behaviors_1_1_i_behavior.html" target="_top" xlink:title="gameEngine.actors.behaviors.\lIBehavior">
<polygon fill="white" stroke="black" points="169,-224 169,-254 331,-254 331,-224 169,-224"/>
<text text-anchor="start" x="177" y="-242" font-family="Helvetica,sans-Serif" font-size="10.00">gameEngine.actors.behaviors.</text>
<text text-anchor="middle" x="250" y="-231" font-family="Helvetica,sans-Serif" font-size="10.00">IBehavior</text>
</a>
</g>
</g>
<!-- Node3&#45;&gt;Node2 -->
<g id="edge2" class="edge"><title>Node3&#45;&gt;Node2</title>
<path fill="none" stroke="midnightblue" d="M341.339,-227.542C385.291,-221.169 438.719,-212.237 486,-201 504.229,-196.667 523.991,-190.674 540.962,-185.111"/>
<polygon fill="midnightblue" stroke="midnightblue" points="340.652,-224.104 331.248,-228.985 341.642,-231.034 340.652,-224.104"/>
</g>
<!-- Node4 -->
<g id="node4" class="node"><title>Node4</title>
<polygon fill="white" stroke="#bfbfbf" points="205.5,-185.5 205.5,-204.5 294.5,-204.5 294.5,-185.5 205.5,-185.5"/>
<text text-anchor="middle" x="250" y="-192.5" font-family="Helvetica,sans-Serif" font-size="10.00">List&lt; Double &gt;</text>
</g>
<!-- Node4&#45;&gt;Node2 -->
<g id="edge3" class="edge"><title>Node4&#45;&gt;Node2</title>
<path fill="none" stroke="#9a32cd" stroke-dasharray="5,2" d="M304.556,-190.979C358.379,-186.938 441.994,-180.661 503.745,-176.025"/>
<polygon fill="#9a32cd" stroke="#9a32cd" points="304.244,-187.493 294.534,-191.732 304.768,-194.473 304.244,-187.493"/>
<text text-anchor="middle" x="428" y="-189" font-family="Helvetica,sans-Serif" font-size="10.00"> myList</text>
</g>
<!-- Node5 -->
<g id="node5" class="node"><title>Node5</title>
<polygon fill="white" stroke="#bfbfbf" points="148.5,-125.5 148.5,-166.5 351.5,-166.5 351.5,-125.5 148.5,-125.5"/>
<text text-anchor="start" x="156.5" y="-154.5" font-family="Helvetica,sans-Serif" font-size="10.00">List&lt; gameAuthoring.scenes.path</text>
<text text-anchor="start" x="156.5" y="-143.5" font-family="Helvetica,sans-Serif" font-size="10.00">Building.pathComponents.routeToPoint</text>
<text text-anchor="middle" x="250" y="-132.5" font-family="Helvetica,sans-Serif" font-size="10.00">Translation.VisibilityPoint &gt;</text>
</g>
<!-- Node5&#45;&gt;Node2 -->
<g id="edge4" class="edge"><title>Node5&#45;&gt;Node2</title>
<path fill="none" stroke="#9a32cd" stroke-dasharray="5,2" d="M361.779,-153.234C401.023,-155.879 445.485,-158.967 486,-162 491.788,-162.433 497.767,-162.893 503.784,-163.363"/>
<polygon fill="#9a32cd" stroke="#9a32cd" points="361.868,-149.732 351.655,-152.554 361.398,-156.717 361.868,-149.732"/>
<text text-anchor="middle" x="428" y="-165" font-family="Helvetica,sans-Serif" font-size="10.00"> myRoute</text>
</g>
<!-- Node6 -->
<g id="node6" class="node"><title>Node6</title>
<g id="a_node6"><a xlink:href="../../d1/d5b/classgame_engine_1_1_a_i_1_1_grid_path_finder.html" target="_top" xlink:title="gameEngine.AI.GridPathFinder">
<polygon fill="white" stroke="black" points="504.5,-60.5 504.5,-79.5 665.5,-79.5 665.5,-60.5 504.5,-60.5"/>
<text text-anchor="middle" x="585" y="-67.5" font-family="Helvetica,sans-Serif" font-size="10.00">gameEngine.AI.GridPathFinder</text>
</a>
</g>
</g>
<!-- Node6&#45;&gt;Node1 -->
<g id="edge5" class="edge"><title>Node6&#45;&gt;Node1</title>
<path fill="none" stroke="#9a32cd" stroke-dasharray="5,2" d="M675.755,-70C706.208,-70 740.015,-70 769.684,-70"/>
<polygon fill="#9a32cd" stroke="#9a32cd" points="675.567,-66.5001 665.567,-70 675.567,-73.5001 675.567,-66.5001"/>
<text text-anchor="middle" x="718" y="-73" font-family="Helvetica,sans-Serif" font-size="10.00"> myPathFinder</text>
</g>
<!-- Node7 -->
<g id="node7" class="node"><title>Node7</title>
<g id="a_node7"><a xlink:href="../../d5/de4/classutilities_1_1pathfinding_1_1_a_star_path_finder.html" target="_top" xlink:title="utilities::pathfinding\l::AStarPathFinder\&lt; Point2D \&gt;">
<polygon fill="white" stroke="black" points="170.5,-77 170.5,-107 329.5,-107 329.5,-77 170.5,-77"/>
<text text-anchor="start" x="178.5" y="-95" font-family="Helvetica,sans-Serif" font-size="10.00">utilities::pathfinding</text>
<text text-anchor="middle" x="250" y="-84" font-family="Helvetica,sans-Serif" font-size="10.00">::AStarPathFinder&lt; Point2D &gt;</text>
</a>
</g>
</g>
<!-- Node7&#45;&gt;Node6 -->
<g id="edge6" class="edge"><title>Node7&#45;&gt;Node6</title>
<path fill="none" stroke="midnightblue" d="M339.981,-86.1214C391.184,-82.7386 454.978,-78.524 504.496,-75.2525"/>
<polygon fill="midnightblue" stroke="midnightblue" points="339.664,-82.6346 329.916,-86.7863 340.125,-89.6194 339.664,-82.6346"/>
</g>
<!-- Node8 -->
<g id="node8" class="node"><title>Node8</title>
<g id="a_node8"><a xlink:href="../../d3/d9c/interfaceutilities_1_1pathfinding_1_1_i_path_finder.html" target="_top" xlink:title="utilities::pathfinding\l::IPathFinder\&lt; T \&gt;">
<polygon fill="white" stroke="black" points="0,-77 0,-107 110,-107 110,-77 0,-77"/>
<text text-anchor="start" x="8" y="-95" font-family="Helvetica,sans-Serif" font-size="10.00">utilities::pathfinding</text>
<text text-anchor="middle" x="55" y="-84" font-family="Helvetica,sans-Serif" font-size="10.00">::IPathFinder&lt; T &gt;</text>
</a>
</g>
</g>
<!-- Node8&#45;&gt;Node7 -->
<g id="edge7" class="edge"><title>Node8&#45;&gt;Node7</title>
<path fill="none" stroke="midnightblue" d="M120.354,-92C136.409,-92 153.805,-92 170.46,-92"/>
<polygon fill="midnightblue" stroke="midnightblue" points="120.018,-88.5001 110.018,-92 120.018,-95.5001 120.018,-88.5001"/>
</g>
<!-- Node9 -->
<g id="node9" class="node"><title>Node9</title>
<polygon fill="white" stroke="#bfbfbf" points="199,-38.5 199,-57.5 301,-57.5 301,-38.5 199,-38.5"/>
<text text-anchor="middle" x="250" y="-45.5" font-family="Helvetica,sans-Serif" font-size="10.00">Collection&lt; int[]&gt;</text>
</g>
<!-- Node9&#45;&gt;Node6 -->
<g id="edge8" class="edge"><title>Node9&#45;&gt;Node6</title>
<path fill="none" stroke="#9a32cd" stroke-dasharray="5,2" d="M311.558,-51.2416C359.031,-53.8713 426.747,-57.8171 486,-62 491.96,-62.4207 498.122,-62.876 504.319,-63.3484"/>
<polygon fill="#9a32cd" stroke="#9a32cd" points="311.624,-47.74 301.446,-50.6845 311.239,-54.7294 311.624,-47.74"/>
<text text-anchor="middle" x="428" y="-65" font-family="Helvetica,sans-Serif" font-size="10.00"> myEnemyTileDirections</text>
</g>
<!-- Node10 -->
<g id="node10" class="node"><title>Node10</title>
<g id="a_node10"><a xlink:href="../../da/df9/classgame_engine_1_1_data_1_1_tower_tile_grid.html" target="_top" xlink:title="gameEngine.Data.TowerTileGrid">
<polygon fill="white" stroke="black" points="166.5,-0.5 166.5,-19.5 333.5,-19.5 333.5,-0.5 166.5,-0.5"/>
<text text-anchor="middle" x="250" y="-7.5" font-family="Helvetica,sans-Serif" font-size="10.00">gameEngine.Data.TowerTileGrid</text>
</a>
</g>
</g>
<!-- Node10&#45;&gt;Node6 -->
<g id="edge9" class="edge"><title>Node10&#45;&gt;Node6</title>
<path fill="none" stroke="#9a32cd" stroke-dasharray="5,2" d="M343.835,-12.8563C387.915,-16.461 440.728,-24.0996 486,-40 494.846,-43.1068 495.332,-47.428 504,-51 513.107,-54.7527 523.117,-57.8627 532.881,-60.404"/>
<polygon fill="#9a32cd" stroke="#9a32cd" points="343.938,-9.3541 333.701,-12.0854 343.407,-16.3339 343.938,-9.3541"/>
<text text-anchor="middle" x="428" y="-43" font-family="Helvetica,sans-Serif" font-size="10.00"> myTowerLocations</text>
</g>
<!-- Node11 -->
<g id="node11" class="node"><title>Node11</title>
<polygon fill="white" stroke="#bfbfbf" points="538.5,-22.5 538.5,-41.5 631.5,-41.5 631.5,-22.5 538.5,-22.5"/>
<text text-anchor="middle" x="585" y="-29.5" font-family="Helvetica,sans-Serif" font-size="10.00">List&lt; Point2D &gt;</text>
</g>
<!-- Node11&#45;&gt;Node1 -->
<g id="edge10" class="edge"><title>Node11&#45;&gt;Node1</title>
<path fill="none" stroke="#9a32cd" stroke-dasharray="5,2" d="M641.945,-39.5499C674.147,-43.9461 715.37,-49.6593 752,-55 757.791,-55.8443 763.772,-56.7289 769.791,-57.6283"/>
<polygon fill="#9a32cd" stroke="#9a32cd" points="642.204,-36.053 631.823,-38.171 641.259,-42.989 642.204,-36.053"/>
<text text-anchor="middle" x="718" y="-58" font-family="Helvetica,sans-Serif" font-size="10.00"> myAIRoute</text>
</g>
</g>
</svg>
        <g id="navigator" transform="translate(0 0)" fill="#404254">
                <rect fill="#f2f5e9" fill-opacity="0.5" stroke="#606060" stroke-width=".5" x="0" y="0" width="60" height="60"/>
                <use id="zoomplus" xlink:href="#zoomPlus" x="17" y="9" onmousedown="handleZoom(evt,'in')"/>
                <use id="zoomminus" xlink:href="#zoomMin" x="42" y="9" onmousedown="handleZoom(evt,'out')"/>
                <use id="reset" xlink:href="#resetDef" x="30" y="36" onmousedown="handleReset()"/>
                <g id="arrowUp" xlink:href="#dirArrow" transform="translate(30 24)" onmousedown="handlePan(0,-1)">
                  <use xlink:href="#rim" fill="#404040">
                        <set attributeName="fill" to="#808080" begin="arrowUp.mouseover" end="arrowUp.mouseout"/>
                  </use>
                  <path fill="none" stroke="white" stroke-width="1.5" d="M0,-3.0v7 M-2.5,-0.5L0,-3.0L2.5,-0.5"/>
                </g>
                <g id="arrowRight" xlink:href="#dirArrow" transform="rotate(90) translate(36 -43)" onmousedown="handlePan(1,0)">
                  <use xlink:href="#rim" fill="#404040">
                        <set attributeName="fill" to="#808080" begin="arrowRight.mouseover" end="arrowRight.mouseout"/>
                  </use>
                  <path fill="none" stroke="white" stroke-width="1.5" d="M0,-3.0v7 M-2.5,-0.5L0,-3.0L2.5,-0.5"/>
                </g>
                <g id="arrowDown" xlink:href="#dirArrow" transform="rotate(180) translate(-30 -48)" onmousedown="handlePan(0,1)">
                  <use xlink:href="#rim" fill="#404040">
                        <set attributeName="fill" to="#808080" begin="arrowDown.mouseover" end="arrowDown.mouseout"/>
                  </use>
                  <path fill="none" stroke="white" stroke-width="1.5" d="M0,-3.0v7 M-2.5,-0.5L0,-3.0L2.5,-0.5"/>
                </g>
                <g id="arrowLeft" xlink:href="#dirArrow" transform="rotate(270) translate(-36 17)" onmousedown="handlePan(-1,0)">
                  <use xlink:href="#rim" fill="#404040">
                        <set attributeName="fill" to="#808080" begin="arrowLeft.mouseover" end="arrowLeft.mouseout"/>
                  </use>
                  <path fill="none" stroke="white" stroke-width="1.5" d="M0,-3.0v7 M-2.5,-0.5L0,-3.0L2.5,-0.5"/>
                </g>
        </g>
        <svg viewBox="0 0 15 15" width="100%" height="30px" preserveAspectRatio="xMaxYMin meet">
         <g id="arrow_out" transform="scale(0.3 0.3)">
          <a xlink:href="classgame_engine_1_1actors_1_1behaviors_1_1_a_i_movement__coll__graph_org.svg" target="_base">
           <rect id="button" ry="5" rx="5" y="6" x="6" height="38" width="38"
                fill="#f2f5e9" fill-opacity="0.5" stroke="#606060" stroke-width="1.0"/>
           <path id="arrow"
             d="M 11.500037,31.436501 C 11.940474,20.09759 22.043105,11.32322 32.158766,21.979434 L 37.068811,17.246167 C 37.068811,17.246167 37.088388,32 37.088388,32 L 22.160133,31.978069 C 22.160133,31.978069 26.997745,27.140456 26.997745,27.140456 C 18.528582,18.264221 13.291696,25.230495 11.500037,31.436501 z"
             style="fill:#404040;"/>
          </a>
         </g>
        </svg>
</svg>
