<?xml version="1.0" encoding="UTF-8" standalone="no"?>
<!DOCTYPE svg PUBLIC "-//W3C//DTD SVG 1.1//EN"
 "http://www.w3.org/Graphics/SVG/1.1/DTD/svg11.dtd">
<!-- Generated by graphviz version 2.36.0 (20140111.2315)
 -->
<!-- Title: gameAuthoring.scenes.pathBuilding.pathComponents.PathCurve.getControlPoint2 Pages: 1 -->
<svg width="468pt" height="48pt"
 viewBox="0.00 0.00 468.00 48.00" xmlns="http://www.w3.org/2000/svg" xmlns:xlink="http://www.w3.org/1999/xlink">
<g id="graph0" class="graph" transform="scale(1 1) rotate(0) translate(4 44)">
<title>gameAuthoring.scenes.pathBuilding.pathComponents.PathCurve.getControlPoint2</title>
<polygon fill="white" stroke="none" points="-4,4 -4,-44 464,-44 464,4 -4,4"/>
<!-- Node1 -->
<g id="node1" class="node"><title>Node1</title>
<polygon fill="#bfbfbf" stroke="black" points="0.5,0.5 0.5,-40.5 211.5,-40.5 211.5,0.5 0.5,0.5"/>
<text text-anchor="start" x="8.5" y="-28.5" font-family="Helvetica,sans-Serif" font-size="10.00">gameAuthoring.scenes.path</text>
<text text-anchor="start" x="8.5" y="-17.5" font-family="Helvetica,sans-Serif" font-size="10.00">Building.pathComponents.PathCurve.get</text>
<text text-anchor="middle" x="106" y="-6.5" font-family="Helvetica,sans-Serif" font-size="10.00">ControlPoint2</text>
</g>
<!-- Node2 -->
<g id="node2" class="node"><title>Node2</title>
<g id="a_node2"><a xlink:href="../../d1/dc2/classgame_authoring_1_1scenes_1_1path_building_1_1path_components_1_1_path_curve.html#aa3da2583058057647391dc83a6f70134" target="_top" xlink:title="gameAuthoring.scenes.path\lBuilding.pathComponents.PathCurve.get\lInnerPointsRepresentingComponent">
<polygon fill="white" stroke="black" points="248.5,0.5 248.5,-40.5 459.5,-40.5 459.5,0.5 248.5,0.5"/>
<text text-anchor="start" x="256.5" y="-28.5" font-family="Helvetica,sans-Serif" font-size="10.00">gameAuthoring.scenes.path</text>
<text text-anchor="start" x="256.5" y="-17.5" font-family="Helvetica,sans-Serif" font-size="10.00">Building.pathComponents.PathCurve.get</text>
<text text-anchor="middle" x="354" y="-6.5" font-family="Helvetica,sans-Serif" font-size="10.00">InnerPointsRepresentingComponent</text>
</a>
</g>
</g>
<!-- Node1&#45;&gt;Node2 -->
<g id="edge1" class="edge"><title>Node1&#45;&gt;Node2</title>
<path fill="none" stroke="midnightblue" d="M221.704,-20C230.611,-20 239.576,-20 248.411,-20"/>
<polygon fill="midnightblue" stroke="midnightblue" points="221.683,-16.5001 211.683,-20 221.683,-23.5001 221.683,-16.5001"/>
</g>
</g>
</svg>
