<?xml version="1.0" encoding="UTF-8" standalone="no"?>
<!DOCTYPE svg PUBLIC "-//W3C//DTD SVG 1.1//EN"
 "http://www.w3.org/Graphics/SVG/1.1/DTD/svg11.dtd">
<!-- Generated by graphviz version 2.36.0 (20140111.2315)
 -->
<!-- Title: gameAuthoring.scenes.pathBuilding.pathComponents.PathCurve.setEndingPoint Pages: 1 -->
<svg width="498pt" height="469pt"
 viewBox="0.00 0.00 498.00 469.00" xmlns="http://www.w3.org/2000/svg" xmlns:xlink="http://www.w3.org/1999/xlink">
<g id="graph0" class="graph" transform="scale(1 1) rotate(0) translate(4 465)">
<title>gameAuthoring.scenes.pathBuilding.pathComponents.PathCurve.setEndingPoint</title>
<polygon fill="white" stroke="none" points="-4,4 -4,-465 494,-465 494,4 -4,4"/>
<!-- Node1 -->
<g id="node1" class="node"><title>Node1</title>
<polygon fill="#bfbfbf" stroke="black" points="0,-209.5 0,-250.5 210,-250.5 210,-209.5 0,-209.5"/>
<text text-anchor="start" x="8" y="-238.5" font-family="Helvetica,sans-Serif" font-size="10.00">gameAuthoring.scenes.path</text>
<text text-anchor="start" x="8" y="-227.5" font-family="Helvetica,sans-Serif" font-size="10.00">Building.pathComponents.PathCurve.set</text>
<text text-anchor="middle" x="105" y="-216.5" font-family="Helvetica,sans-Serif" font-size="10.00">EndingPoint</text>
</g>
<!-- Node2 -->
<g id="node2" class="node"><title>Node2</title>
<g id="a_node2"><a xlink:href="../../d2/d34/classgame_authoring_1_1scenes_1_1path_building_1_1path_components_1_1_path_creation_tests.html#ac9531a7f491a2dd23e3f1f4fefeae341" target="_top" xlink:title="gameAuthoring.scenes.path\lBuilding.pathComponents.PathCreation\lTests.AttemptToConnectRoutesFORKTest">
<polygon fill="white" stroke="black" points="264,-419.5 264,-460.5 472,-460.5 472,-419.5 264,-419.5"/>
<text text-anchor="start" x="272" y="-448.5" font-family="Helvetica,sans-Serif" font-size="10.00">gameAuthoring.scenes.path</text>
<text text-anchor="start" x="272" y="-437.5" font-family="Helvetica,sans-Serif" font-size="10.00">Building.pathComponents.PathCreation</text>
<text text-anchor="middle" x="368" y="-426.5" font-family="Helvetica,sans-Serif" font-size="10.00">Tests.AttemptToConnectRoutesFORKTest</text>
</a>
</g>
</g>
<!-- Node1&#45;&gt;Node2 -->
<g id="edge1" class="edge"><title>Node1&#45;&gt;Node2</title>
<path fill="none" stroke="midnightblue" d="M121.134,-259.822C143.087,-299.991 187.606,-370.832 246,-409 252.081,-412.975 258.642,-416.44 265.454,-419.461"/>
<polygon fill="midnightblue" stroke="midnightblue" points="124.101,-257.948 116.294,-250.786 117.93,-261.253 124.101,-257.948"/>
</g>
<!-- Node3 -->
<g id="node3" class="node"><title>Node3</title>
<g id="a_node3"><a xlink:href="../../d2/d34/classgame_authoring_1_1scenes_1_1path_building_1_1path_components_1_1_path_creation_tests.html#a6981d0f68e924cf3aca2ebb00a781c66" target="_top" xlink:title="gameAuthoring.scenes.path\lBuilding.pathComponents.PathCreation\lTests.AttemptToConnectRoutesNoForkTest">
<polygon fill="white" stroke="black" points="259,-359.5 259,-400.5 477,-400.5 477,-359.5 259,-359.5"/>
<text text-anchor="start" x="267" y="-388.5" font-family="Helvetica,sans-Serif" font-size="10.00">gameAuthoring.scenes.path</text>
<text text-anchor="start" x="267" y="-377.5" font-family="Helvetica,sans-Serif" font-size="10.00">Building.pathComponents.PathCreation</text>
<text text-anchor="middle" x="368" y="-366.5" font-family="Helvetica,sans-Serif" font-size="10.00">Tests.AttemptToConnectRoutesNoForkTest</text>
</a>
</g>
</g>
<!-- Node1&#45;&gt;Node3 -->
<g id="edge2" class="edge"><title>Node1&#45;&gt;Node3</title>
<path fill="none" stroke="midnightblue" d="M131.644,-258.241C157.834,-285.402 200.943,-325.677 246,-349 253.607,-352.938 261.747,-356.398 270.075,-359.435"/>
<polygon fill="midnightblue" stroke="midnightblue" points="134.143,-255.791 124.718,-250.953 129.069,-260.613 134.143,-255.791"/>
</g>
<!-- Node4 -->
<g id="node4" class="node"><title>Node4</title>
<g id="a_node4"><a xlink:href="../../d2/d34/classgame_authoring_1_1scenes_1_1path_building_1_1path_components_1_1_path_creation_tests.html#abc7f89653e322c800da5fc26c4719b5a" target="_top" xlink:title="gameAuthoring.scenes.path\lBuilding.pathComponents.PathCreation\lTests.ConnectLineToCurveTest">
<polygon fill="white" stroke="black" points="265.5,-299.5 265.5,-340.5 470.5,-340.5 470.5,-299.5 265.5,-299.5"/>
<text text-anchor="start" x="273.5" y="-328.5" font-family="Helvetica,sans-Serif" font-size="10.00">gameAuthoring.scenes.path</text>
<text text-anchor="start" x="273.5" y="-317.5" font-family="Helvetica,sans-Serif" font-size="10.00">Building.pathComponents.PathCreation</text>
<text text-anchor="middle" x="368" y="-306.5" font-family="Helvetica,sans-Serif" font-size="10.00">Tests.ConnectLineToCurveTest</text>
</a>
</g>
</g>
<!-- Node1&#45;&gt;Node4 -->
<g id="edge3" class="edge"><title>Node1&#45;&gt;Node4</title>
<path fill="none" stroke="midnightblue" d="M159.353,-254.679C185.176,-266.055 216.836,-279.179 246,-289 256.995,-292.703 268.679,-296.211 280.284,-299.446"/>
<polygon fill="midnightblue" stroke="midnightblue" points="160.678,-251.438 150.118,-250.576 157.836,-257.835 160.678,-251.438"/>
</g>
<!-- Node5 -->
<g id="node5" class="node"><title>Node5</title>
<g id="a_node5"><a xlink:href="../../d2/d34/classgame_authoring_1_1scenes_1_1path_building_1_1path_components_1_1_path_creation_tests.html#a890f9b36b921569b05338a8b8658e03b" target="_top" xlink:title="gameAuthoring.scenes.path\lBuilding.pathComponents.PathCreation\lTests.ConnectTwoCurvesTest">
<polygon fill="white" stroke="black" points="265.5,-239.5 265.5,-280.5 470.5,-280.5 470.5,-239.5 265.5,-239.5"/>
<text text-anchor="start" x="273.5" y="-268.5" font-family="Helvetica,sans-Serif" font-size="10.00">gameAuthoring.scenes.path</text>
<text text-anchor="start" x="273.5" y="-257.5" font-family="Helvetica,sans-Serif" font-size="10.00">Building.pathComponents.PathCreation</text>
<text text-anchor="middle" x="368" y="-246.5" font-family="Helvetica,sans-Serif" font-size="10.00">Tests.ConnectTwoCurvesTest</text>
</a>
</g>
</g>
<!-- Node1&#45;&gt;Node5 -->
<g id="edge4" class="edge"><title>Node1&#45;&gt;Node5</title>
<path fill="none" stroke="midnightblue" d="M220.567,-243.169C235.507,-244.886 250.73,-246.636 265.437,-248.326"/>
<polygon fill="midnightblue" stroke="midnightblue" points="220.614,-239.651 210.279,-241.986 219.814,-246.605 220.614,-239.651"/>
</g>
<!-- Node6 -->
<g id="node6" class="node"><title>Node6</title>
<g id="a_node6"><a xlink:href="../../d2/d34/classgame_authoring_1_1scenes_1_1path_building_1_1path_components_1_1_path_creation_tests.html#a1f6df71a1808af781e53fb0ebe9eb1fa" target="_top" xlink:title="gameAuthoring.scenes.path\lBuilding.pathComponents.PathCreation\lTests.CreateTwoRoutesTest">
<polygon fill="white" stroke="black" points="265.5,-179.5 265.5,-220.5 470.5,-220.5 470.5,-179.5 265.5,-179.5"/>
<text text-anchor="start" x="273.5" y="-208.5" font-family="Helvetica,sans-Serif" font-size="10.00">gameAuthoring.scenes.path</text>
<text text-anchor="start" x="273.5" y="-197.5" font-family="Helvetica,sans-Serif" font-size="10.00">Building.pathComponents.PathCreation</text>
<text text-anchor="middle" x="368" y="-186.5" font-family="Helvetica,sans-Serif" font-size="10.00">Tests.CreateTwoRoutesTest</text>
</a>
</g>
</g>
<!-- Node1&#45;&gt;Node6 -->
<g id="edge5" class="edge"><title>Node1&#45;&gt;Node6</title>
<path fill="none" stroke="midnightblue" d="M220.567,-216.831C235.507,-215.114 250.73,-213.364 265.437,-211.674"/>
<polygon fill="midnightblue" stroke="midnightblue" points="219.814,-213.395 210.279,-218.014 220.614,-220.349 219.814,-213.395"/>
</g>
<!-- Node7 -->
<g id="node7" class="node"><title>Node7</title>
<g id="a_node7"><a xlink:href="../../d1/dc2/classgame_authoring_1_1scenes_1_1path_building_1_1path_components_1_1_path_curve.html#a8d7312e71687f719ba04d3c9a5eb9560" target="_top" xlink:title="gameAuthoring.scenes.path\lBuilding.pathComponents.PathCurve.deepCopy">
<polygon fill="white" stroke="black" points="246.5,-131 246.5,-161 489.5,-161 489.5,-131 246.5,-131"/>
<text text-anchor="start" x="254.5" y="-149" font-family="Helvetica,sans-Serif" font-size="10.00">gameAuthoring.scenes.path</text>
<text text-anchor="middle" x="368" y="-138" font-family="Helvetica,sans-Serif" font-size="10.00">Building.pathComponents.PathCurve.deepCopy</text>
</a>
</g>
</g>
<!-- Node1&#45;&gt;Node7 -->
<g id="edge6" class="edge"><title>Node1&#45;&gt;Node7</title>
<path fill="none" stroke="midnightblue" d="M157.027,-205.077C183.147,-193.11 215.741,-179.372 246,-170 256.842,-166.642 268.382,-163.646 279.865,-161.005"/>
<polygon fill="midnightblue" stroke="midnightblue" points="155.315,-202.013 147.714,-209.394 158.259,-208.364 155.315,-202.013"/>
</g>
<!-- Node8 -->
<g id="node8" class="node"><title>Node8</title>
<g id="a_node8"><a xlink:href="../../d1/dc2/classgame_authoring_1_1scenes_1_1path_building_1_1path_components_1_1_path_curve.html#a23183848c83f604f3b4ec3ab83c04478" target="_top" xlink:title="gameAuthoring.scenes.path\lBuilding.pathComponents.PathCurve.\lPathCurve">
<polygon fill="white" stroke="black" points="270.5,-71.5 270.5,-112.5 465.5,-112.5 465.5,-71.5 270.5,-71.5"/>
<text text-anchor="start" x="278.5" y="-100.5" font-family="Helvetica,sans-Serif" font-size="10.00">gameAuthoring.scenes.path</text>
<text text-anchor="start" x="278.5" y="-89.5" font-family="Helvetica,sans-Serif" font-size="10.00">Building.pathComponents.PathCurve.</text>
<text text-anchor="middle" x="368" y="-78.5" font-family="Helvetica,sans-Serif" font-size="10.00">PathCurve</text>
</a>
</g>
</g>
<!-- Node1&#45;&gt;Node8 -->
<g id="edge7" class="edge"><title>Node1&#45;&gt;Node8</title>
<path fill="none" stroke="midnightblue" d="M134.315,-202.368C161.021,-177.8 203.233,-142.662 246,-122 253.698,-118.281 261.901,-114.996 270.27,-112.098"/>
<polygon fill="midnightblue" stroke="midnightblue" points="131.799,-199.929 126.875,-209.31 136.574,-205.047 131.799,-199.929"/>
</g>
<!-- Node9 -->
<g id="node9" class="node"><title>Node9</title>
<g id="a_node9"><a xlink:href="../../d0/d17/classgame_authoring_1_1scenes_1_1path_building_1_1path_components_1_1route_to_point_translation_02993d587809a0174c9c81c680c3a1c8.html#a112d08c7563a9a6d9b371ea3c5fb0015" target="_top" xlink:title="gameAuthoring.scenes.path\lBuilding.pathComponents.routeTo\lPointTranslation.BackendRouteTranslation\lTests.testRoutesTranslation">
<polygon fill="white" stroke="black" points="261,-0 261,-52 475,-52 475,-0 261,-0"/>
<text text-anchor="start" x="269" y="-40" font-family="Helvetica,sans-Serif" font-size="10.00">gameAuthoring.scenes.path</text>
<text text-anchor="start" x="269" y="-29" font-family="Helvetica,sans-Serif" font-size="10.00">Building.pathComponents.routeTo</text>
<text text-anchor="start" x="269" y="-18" font-family="Helvetica,sans-Serif" font-size="10.00">PointTranslation.BackendRouteTranslation</text>
<text text-anchor="middle" x="368" y="-7" font-family="Helvetica,sans-Serif" font-size="10.00">Tests.testRoutesTranslation</text>
</a>
</g>
</g>
<!-- Node1&#45;&gt;Node9 -->
<g id="edge8" class="edge"><title>Node1&#45;&gt;Node9</title>
<path fill="none" stroke="midnightblue" d="M123.001,-200.373C146.101,-162.729 190.909,-98.3007 246,-62 251.582,-58.322 257.551,-55.0094 263.736,-52.0273"/>
<polygon fill="midnightblue" stroke="midnightblue" points="119.766,-198.961 117.603,-209.333 125.761,-202.573 119.766,-198.961"/>
</g>
</g>
</svg>
