<?xml version="1.0" encoding="UTF-8" standalone="no"?>
<!DOCTYPE svg PUBLIC "-//W3C//DTD SVG 1.1//EN"
 "http://www.w3.org/Graphics/SVG/1.1/DTD/svg11.dtd">
<!-- Generated by graphviz version 2.36.0 (20140111.2315)
 -->
<!-- Title: gameAuthoring.scenes.pathBuilding.pathComponents.PathCurve.calculateAndSetControlPoints Pages: 1 -->
<svg width="978pt" height="109pt"
 viewBox="0.00 0.00 978.00 109.00" xmlns="http://www.w3.org/2000/svg" xmlns:xlink="http://www.w3.org/1999/xlink">
<g id="graph0" class="graph" transform="scale(1 1) rotate(0) translate(4 105)">
<title>gameAuthoring.scenes.pathBuilding.pathComponents.PathCurve.calculateAndSetControlPoints</title>
<polygon fill="white" stroke="none" points="-4,4 -4,-105 974,-105 974,4 -4,4"/>
<!-- Node1 -->
<g id="node1" class="node"><title>Node1</title>
<polygon fill="#bfbfbf" stroke="black" points="0,-29.5 0,-70.5 238,-70.5 238,-29.5 0,-29.5"/>
<text text-anchor="start" x="8" y="-58.5" font-family="Helvetica,sans-Serif" font-size="10.00">gameAuthoring.scenes.path</text>
<text text-anchor="start" x="8" y="-47.5" font-family="Helvetica,sans-Serif" font-size="10.00">Building.pathComponents.PathCurve.calculate</text>
<text text-anchor="middle" x="119" y="-36.5" font-family="Helvetica,sans-Serif" font-size="10.00">AndSetControlPoints</text>
</g>
<!-- Node2 -->
<g id="node2" class="node"><title>Node2</title>
<g id="a_node2"><a xlink:href="../../d1/dc2/classgame_authoring_1_1scenes_1_1path_building_1_1path_components_1_1_path_curve.html#a23183848c83f604f3b4ec3ab83c04478" target="_top" xlink:title="gameAuthoring.scenes.path\lBuilding.pathComponents.PathCurve.\lPathCurve">
<polygon fill="white" stroke="black" points="296.5,-59.5 296.5,-100.5 491.5,-100.5 491.5,-59.5 296.5,-59.5"/>
<text text-anchor="start" x="304.5" y="-88.5" font-family="Helvetica,sans-Serif" font-size="10.00">gameAuthoring.scenes.path</text>
<text text-anchor="start" x="304.5" y="-77.5" font-family="Helvetica,sans-Serif" font-size="10.00">Building.pathComponents.PathCurve.</text>
<text text-anchor="middle" x="394" y="-66.5" font-family="Helvetica,sans-Serif" font-size="10.00">PathCurve</text>
</a>
</g>
</g>
<!-- Node1&#45;&gt;Node2 -->
<g id="edge1" class="edge"><title>Node1&#45;&gt;Node2</title>
<path fill="none" stroke="midnightblue" d="M248.222,-64.0903C264.437,-65.8722 280.808,-67.6712 296.416,-69.3863"/>
<polygon fill="midnightblue" stroke="midnightblue" points="248.476,-60.5973 238.154,-62.984 247.712,-67.5554 248.476,-60.5973"/>
</g>
<!-- Node3 -->
<g id="node3" class="node"><title>Node3</title>
<g id="a_node3"><a xlink:href="../../d1/dad/classgame_authoring_1_1scenes_1_1path_building_1_1building_panes_1_1_curve_drawing_pane.html#adf16624167d22a4bd5263e15c61332ff" target="_top" xlink:title="gameAuthoring.scenes.path\lBuilding.buildingPanes.CurveDrawing\lPane.stretchLineToEndAtCurrentMousePosition">
<polygon fill="white" stroke="black" points="274.5,0.5 274.5,-40.5 513.5,-40.5 513.5,0.5 274.5,0.5"/>
<text text-anchor="start" x="282.5" y="-28.5" font-family="Helvetica,sans-Serif" font-size="10.00">gameAuthoring.scenes.path</text>
<text text-anchor="start" x="282.5" y="-17.5" font-family="Helvetica,sans-Serif" font-size="10.00">Building.buildingPanes.CurveDrawing</text>
<text text-anchor="middle" x="394" y="-6.5" font-family="Helvetica,sans-Serif" font-size="10.00">Pane.stretchLineToEndAtCurrentMousePosition</text>
</a>
</g>
</g>
<!-- Node1&#45;&gt;Node3 -->
<g id="edge2" class="edge"><title>Node1&#45;&gt;Node3</title>
<path fill="none" stroke="midnightblue" d="M248.283,-35.903C256.936,-34.9521 265.632,-33.9964 274.234,-33.0512"/>
<polygon fill="midnightblue" stroke="midnightblue" points="247.712,-32.4446 238.154,-37.016 248.476,-39.4027 247.712,-32.4446"/>
</g>
<!-- Node4 -->
<g id="node4" class="node"><title>Node4</title>
<g id="a_node4"><a xlink:href="../../d1/dad/classgame_authoring_1_1scenes_1_1path_building_1_1building_panes_1_1_curve_drawing_pane.html#a4157681e1cbd0859e25b7ece8ff99a56" target="_top" xlink:title="gameAuthoring.scenes.path\lBuilding.buildingPanes.CurveDrawing\lPane.addListeners">
<polygon fill="white" stroke="black" points="550.5,0.5 550.5,-40.5 741.5,-40.5 741.5,0.5 550.5,0.5"/>
<text text-anchor="start" x="558.5" y="-28.5" font-family="Helvetica,sans-Serif" font-size="10.00">gameAuthoring.scenes.path</text>
<text text-anchor="start" x="558.5" y="-17.5" font-family="Helvetica,sans-Serif" font-size="10.00">Building.buildingPanes.CurveDrawing</text>
<text text-anchor="middle" x="646" y="-6.5" font-family="Helvetica,sans-Serif" font-size="10.00">Pane.addListeners</text>
</a>
</g>
</g>
<!-- Node3&#45;&gt;Node4 -->
<g id="edge3" class="edge"><title>Node3&#45;&gt;Node4</title>
<path fill="none" stroke="midnightblue" d="M523.81,-20C532.695,-20 541.554,-20 550.208,-20"/>
<polygon fill="midnightblue" stroke="midnightblue" points="523.777,-16.5001 513.777,-20 523.777,-23.5001 523.777,-16.5001"/>
</g>
<!-- Node5 -->
<g id="node5" class="node"><title>Node5</title>
<g id="a_node5"><a xlink:href="../../d1/dad/classgame_authoring_1_1scenes_1_1path_building_1_1building_panes_1_1_curve_drawing_pane.html#a5e42a8d5bc78ce626583ea766277b804" target="_top" xlink:title="gameAuthoring.scenes.path\lBuilding.buildingPanes.CurveDrawing\lPane.executeEnterFunction">
<polygon fill="white" stroke="black" points="778.5,-59.5 778.5,-100.5 969.5,-100.5 969.5,-59.5 778.5,-59.5"/>
<text text-anchor="start" x="786.5" y="-88.5" font-family="Helvetica,sans-Serif" font-size="10.00">gameAuthoring.scenes.path</text>
<text text-anchor="start" x="786.5" y="-77.5" font-family="Helvetica,sans-Serif" font-size="10.00">Building.buildingPanes.CurveDrawing</text>
<text text-anchor="middle" x="874" y="-66.5" font-family="Helvetica,sans-Serif" font-size="10.00">Pane.executeEnterFunction</text>
</a>
</g>
</g>
<!-- Node4&#45;&gt;Node5 -->
<g id="edge4" class="edge"><title>Node4&#45;&gt;Node5</title>
<path fill="none" stroke="midnightblue" d="M734.281,-43.1719C754.501,-48.54 775.881,-54.2162 795.641,-59.4622"/>
<polygon fill="midnightblue" stroke="midnightblue" points="735.023,-39.7479 724.46,-40.5647 733.227,-46.5135 735.023,-39.7479"/>
</g>
<!-- Node6 -->
<g id="node6" class="node"><title>Node6</title>
<g id="a_node6"><a xlink:href="../../d1/dad/classgame_authoring_1_1scenes_1_1path_building_1_1building_panes_1_1_curve_drawing_pane.html#a9b35c65041978c3a4628a16e26033a42" target="_top" xlink:title="gameAuthoring.scenes.path\lBuilding.buildingPanes.CurveDrawing\lPane.handleBuildScreenClick">
<polygon fill="white" stroke="black" points="778.5,0.5 778.5,-40.5 969.5,-40.5 969.5,0.5 778.5,0.5"/>
<text text-anchor="start" x="786.5" y="-28.5" font-family="Helvetica,sans-Serif" font-size="10.00">gameAuthoring.scenes.path</text>
<text text-anchor="start" x="786.5" y="-17.5" font-family="Helvetica,sans-Serif" font-size="10.00">Building.buildingPanes.CurveDrawing</text>
<text text-anchor="middle" x="874" y="-6.5" font-family="Helvetica,sans-Serif" font-size="10.00">Pane.handleBuildScreenClick</text>
</a>
</g>
</g>
<!-- Node4&#45;&gt;Node6 -->
<g id="edge5" class="edge"><title>Node4&#45;&gt;Node6</title>
<path fill="none" stroke="midnightblue" d="M751.611,-13.2666C760.572,-13.2311 769.605,-13.2526 778.48,-13.3309"/>
<polygon fill="midnightblue" stroke="midnightblue" points="751.512,-9.76702 741.535,-13.3307 751.557,-16.7669 751.512,-9.76702"/>
</g>
<!-- Node6&#45;&gt;Node4 -->
<g id="edge6" class="edge"><title>Node6&#45;&gt;Node4</title>
<path fill="none" stroke="midnightblue" d="M768.405,-26.7334C759.443,-26.7689 750.411,-26.7475 741.535,-26.6693"/>
<polygon fill="midnightblue" stroke="midnightblue" points="768.503,-30.2329 778.48,-26.6691 768.458,-23.2331 768.503,-30.2329"/>
</g>
</g>
</svg>
