<?xml version="1.0" encoding="UTF-8" standalone="no"?>
<!DOCTYPE svg PUBLIC "-//W3C//DTD SVG 1.1//EN"
 "http://www.w3.org/Graphics/SVG/1.1/DTD/svg11.dtd">
<!-- Generated by graphviz version 2.36.0 (20140111.2315)
 -->
<!-- Title: gamePlayer.guiContainers.coreContainers.RightContainer Pages: 1 -->
<svg width="390pt" height="200pt"
 viewBox="0.00 0.00 390.00 200.00" xmlns="http://www.w3.org/2000/svg" xmlns:xlink="http://www.w3.org/1999/xlink">
<g id="graph0" class="graph" transform="scale(1 1) rotate(0) translate(4 196)">
<title>gamePlayer.guiContainers.coreContainers.RightContainer</title>
<polygon fill="white" stroke="none" points="-4,4 -4,-196 386,-196 386,4 -4,4"/>
<!-- Node1 -->
<g id="node1" class="node"><title>Node1</title>
<polygon fill="#bfbfbf" stroke="black" points="48,-1 48,-31 214,-31 214,-1 48,-1"/>
<text text-anchor="start" x="56" y="-19" font-family="Helvetica,sans-Serif" font-size="10.00">gamePlayer.guiContainers.core</text>
<text text-anchor="middle" x="131" y="-8" font-family="Helvetica,sans-Serif" font-size="10.00">Containers.RightContainer</text>
</g>
<!-- Node2 -->
<g id="node2" class="node"><title>Node2</title>
<polygon fill="white" stroke="#bfbfbf" points="-0.5,-86.5 -0.5,-105.5 40.5,-105.5 40.5,-86.5 -0.5,-86.5"/>
<text text-anchor="middle" x="20" y="-93.5" font-family="Helvetica,sans-Serif" font-size="10.00">VBox</text>
</g>
<!-- Node2&#45;&gt;Node1 -->
<g id="edge1" class="edge"><title>Node2&#45;&gt;Node1</title>
<path fill="none" stroke="midnightblue" d="M40.7184,-80.4411C60.7438,-66.3692 90.8895,-45.1857 110.754,-31.227"/>
<polygon fill="midnightblue" stroke="midnightblue" points="38.4727,-77.7414 32.3031,-86.3546 42.4973,-83.4688 38.4727,-77.7414"/>
</g>
<!-- Node3 -->
<g id="node3" class="node"><title>Node3</title>
<g id="a_node3"><a xlink:href="../../dd/da3/interfacegame_player_1_1gui_containers_1_1_gui_container.html" target="_top" xlink:title="gamePlayer.guiContainers.\lGuiContainer">
<polygon fill="white" stroke="black" points="58.5,-81 58.5,-111 203.5,-111 203.5,-81 58.5,-81"/>
<text text-anchor="start" x="66.5" y="-99" font-family="Helvetica,sans-Serif" font-size="10.00">gamePlayer.guiContainers.</text>
<text text-anchor="middle" x="131" y="-88" font-family="Helvetica,sans-Serif" font-size="10.00">GuiContainer</text>
</a>
</g>
</g>
<!-- Node3&#45;&gt;Node1 -->
<g id="edge2" class="edge"><title>Node3&#45;&gt;Node1</title>
<path fill="none" stroke="midnightblue" d="M131,-70.5644C131,-57.6243 131,-42.1862 131,-31.2157"/>
<polygon fill="midnightblue" stroke="midnightblue" points="127.5,-70.6936 131,-80.6936 134.5,-70.6936 127.5,-70.6936"/>
</g>
<!-- Node4 -->
<g id="node4" class="node"><title>Node4</title>
<g id="a_node4"><a xlink:href="../../d7/d02/interfacegame_player_1_1main_classes_1_1gui_builder_1_1_gui_element.html" target="_top" xlink:title="gamePlayer.mainClasses.gui\lBuilder.GuiElement">
<polygon fill="white" stroke="black" points="54,-161 54,-191 208,-191 208,-161 54,-161"/>
<text text-anchor="start" x="62" y="-179" font-family="Helvetica,sans-Serif" font-size="10.00">gamePlayer.mainClasses.gui</text>
<text text-anchor="middle" x="131" y="-168" font-family="Helvetica,sans-Serif" font-size="10.00">Builder.GuiElement</text>
</a>
</g>
</g>
<!-- Node4&#45;&gt;Node3 -->
<g id="edge3" class="edge"><title>Node4&#45;&gt;Node3</title>
<path fill="none" stroke="midnightblue" d="M131,-150.564C131,-137.624 131,-122.186 131,-111.216"/>
<polygon fill="midnightblue" stroke="midnightblue" points="127.5,-150.694 131,-160.694 134.5,-150.694 127.5,-150.694"/>
</g>
<!-- Node5 -->
<g id="node5" class="node"><title>Node5</title>
<g id="a_node5"><a xlink:href="../../df/db4/classutilities_1_1_x_m_l_parsing_1_1_x_m_l_parser.html" target="_top" xlink:title="utilities.XMLParsing.XMLParser">
<polygon fill="white" stroke="black" points="222,-86.5 222,-105.5 382,-105.5 382,-86.5 222,-86.5"/>
<text text-anchor="middle" x="302" y="-93.5" font-family="Helvetica,sans-Serif" font-size="10.00">utilities.XMLParsing.XMLParser</text>
</a>
</g>
</g>
<!-- Node5&#45;&gt;Node1 -->
<g id="edge4" class="edge"><title>Node5&#45;&gt;Node1</title>
<path fill="none" stroke="#9a32cd" stroke-dasharray="5,2" d="M273.726,-82.103C242.891,-68.038 193.699,-45.5995 161.876,-31.0836"/>
<polygon fill="#9a32cd" stroke="#9a32cd" points="272.496,-85.3889 283.047,-86.3546 275.401,-79.0201 272.496,-85.3889"/>
<text text-anchor="middle" x="251.5" y="-53.5" font-family="Helvetica,sans-Serif" font-size="10.00"> myParser</text>
</g>
<!-- Node6 -->
<g id="node6" class="node"><title>Node6</title>
<polygon fill="white" stroke="#bfbfbf" points="268.5,-166.5 268.5,-185.5 335.5,-185.5 335.5,-166.5 268.5,-166.5"/>
<text text-anchor="middle" x="302" y="-173.5" font-family="Helvetica,sans-Serif" font-size="10.00">Document</text>
</g>
<!-- Node6&#45;&gt;Node5 -->
<g id="edge5" class="edge"><title>Node6&#45;&gt;Node5</title>
<path fill="none" stroke="#9a32cd" stroke-dasharray="5,2" d="M302,-156.072C302,-140.145 302,-118.078 302,-105.924"/>
<polygon fill="#9a32cd" stroke="#9a32cd" points="298.5,-156.355 302,-166.355 305.5,-156.355 298.5,-156.355"/>
<text text-anchor="middle" x="336.5" y="-133.5" font-family="Helvetica,sans-Serif" font-size="10.00"> myDocument</text>
</g>
</g>
</svg>
