<?xml version="1.0" encoding="UTF-8" standalone="no"?>
<!DOCTYPE svg PUBLIC "-//W3C//DTD SVG 1.1//EN"
 "http://www.w3.org/Graphics/SVG/1.1/DTD/svg11.dtd">
<!-- Generated by graphviz version 2.36.0 (20140111.2315)
 -->
<!-- Title: gamePlayer.mainClasses.welcomeScreen.WelcomeScreen.setCenterContent Pages: 1 -->
<svg width="472pt" height="38pt"
 viewBox="0.00 0.00 472.00 38.00" xmlns="http://www.w3.org/2000/svg" xmlns:xlink="http://www.w3.org/1999/xlink">
<g id="graph0" class="graph" transform="scale(1 1) rotate(0) translate(4 34)">
<title>gamePlayer.mainClasses.welcomeScreen.WelcomeScreen.setCenterContent</title>
<polygon fill="white" stroke="none" points="-4,4 -4,-34 468,-34 468,4 -4,4"/>
<!-- Node1 -->
<g id="node1" class="node"><title>Node1</title>
<polygon fill="#bfbfbf" stroke="black" points="0,-0 0,-30 218,-30 218,-0 0,-0"/>
<text text-anchor="start" x="8" y="-18" font-family="Helvetica,sans-Serif" font-size="10.00">gamePlayer.mainClasses.welcome</text>
<text text-anchor="middle" x="109" y="-7" font-family="Helvetica,sans-Serif" font-size="10.00">Screen.WelcomeScreen.setCenterContent</text>
</g>
<!-- Node2 -->
<g id="node2" class="node"><title>Node2</title>
<g id="a_node2"><a xlink:href="../../d1/dc1/classgame_player_1_1main_classes_1_1welcome_screen_1_1_welcome_screen.html#a44ec77f689221b5a53243d8ff5b0728e" target="_top" xlink:title="gamePlayer.mainClasses.welcome\lScreen.WelcomeScreen.setPaneContent">
<polygon fill="white" stroke="black" points="254.5,-0 254.5,-30 463.5,-30 463.5,-0 254.5,-0"/>
<text text-anchor="start" x="262.5" y="-18" font-family="Helvetica,sans-Serif" font-size="10.00">gamePlayer.mainClasses.welcome</text>
<text text-anchor="middle" x="359" y="-7" font-family="Helvetica,sans-Serif" font-size="10.00">Screen.WelcomeScreen.setPaneContent</text>
</a>
</g>
</g>
<!-- Node1&#45;&gt;Node2 -->
<g id="edge1" class="edge"><title>Node1&#45;&gt;Node2</title>
<path fill="none" stroke="midnightblue" d="M218.055,-15C226.686,-15 235.422,-15 244.092,-15"/>
<polygon fill="midnightblue" stroke="midnightblue" points="244.229,-18.5001 254.229,-15 244.229,-11.5001 244.229,-18.5001"/>
</g>
</g>
</svg>
