<?xml version="1.0" encoding="UTF-8" standalone="no"?>
<!DOCTYPE svg PUBLIC "-//W3C//DTD SVG 1.1//EN"
 "http://www.w3.org/Graphics/SVG/1.1/DTD/svg11.dtd">
<!-- Generated by graphviz version 2.36.0 (20140111.2315)
 -->
<!-- Title: gamePlayer.mainClasses.welcomeScreen.WelcomeScreen.WelcomeScreen Pages: 1 -->
<svg width="458pt" height="97pt"
 viewBox="0.00 0.00 458.00 97.00" xmlns="http://www.w3.org/2000/svg" xmlns:xlink="http://www.w3.org/1999/xlink">
<g id="graph0" class="graph" transform="scale(1 1) rotate(0) translate(4 93)">
<title>gamePlayer.mainClasses.welcomeScreen.WelcomeScreen.WelcomeScreen</title>
<polygon fill="white" stroke="none" points="-4,4 -4,-93 454,-93 454,4 -4,4"/>
<!-- Node1 -->
<g id="node1" class="node"><title>Node1</title>
<polygon fill="#bfbfbf" stroke="black" points="0.5,-32 0.5,-62 209.5,-62 209.5,-32 0.5,-32"/>
<text text-anchor="start" x="8.5" y="-50" font-family="Helvetica,sans-Serif" font-size="10.00">gamePlayer.mainClasses.welcome</text>
<text text-anchor="middle" x="105" y="-39" font-family="Helvetica,sans-Serif" font-size="10.00">Screen.WelcomeScreen.WelcomeScreen</text>
</g>
<!-- Node2 -->
<g id="node2" class="node"><title>Node2</title>
<g id="a_node2"><a xlink:href="../../d1/dc1/classgame_player_1_1main_classes_1_1welcome_screen_1_1_welcome_screen.html#a34cd2143672606eaaf3073a0841f5357" target="_top" xlink:title="gamePlayer.mainClasses.welcome\lScreen.WelcomeScreen.createPane">
<polygon fill="white" stroke="black" points="254.5,-59 254.5,-89 441.5,-89 441.5,-59 254.5,-59"/>
<text text-anchor="start" x="262.5" y="-77" font-family="Helvetica,sans-Serif" font-size="10.00">gamePlayer.mainClasses.welcome</text>
<text text-anchor="middle" x="348" y="-66" font-family="Helvetica,sans-Serif" font-size="10.00">Screen.WelcomeScreen.createPane</text>
</a>
</g>
</g>
<!-- Node1&#45;&gt;Node2 -->
<g id="edge1" class="edge"><title>Node1&#45;&gt;Node2</title>
<path fill="none" stroke="midnightblue" d="M209.604,-58.6071C221.05,-59.8895 232.704,-61.195 244.141,-62.4763"/>
<polygon fill="midnightblue" stroke="midnightblue" points="243.797,-65.9597 254.125,-63.5949 244.577,-59.0032 243.797,-65.9597"/>
</g>
<!-- Node3 -->
<g id="node3" class="node"><title>Node3</title>
<g id="a_node3"><a xlink:href="../../d1/dc1/classgame_player_1_1main_classes_1_1welcome_screen_1_1_welcome_screen.html#af7bfa75759535942069aceece432a8e1" target="_top" xlink:title="gamePlayer.mainClasses.welcome\lScreen.WelcomeScreen.initializeCenter\lLargePane">
<polygon fill="white" stroke="black" points="246.5,0.5 246.5,-40.5 449.5,-40.5 449.5,0.5 246.5,0.5"/>
<text text-anchor="start" x="254.5" y="-28.5" font-family="Helvetica,sans-Serif" font-size="10.00">gamePlayer.mainClasses.welcome</text>
<text text-anchor="start" x="254.5" y="-17.5" font-family="Helvetica,sans-Serif" font-size="10.00">Screen.WelcomeScreen.initializeCenter</text>
<text text-anchor="middle" x="348" y="-6.5" font-family="Helvetica,sans-Serif" font-size="10.00">LargePane</text>
</a>
</g>
</g>
<!-- Node1&#45;&gt;Node3 -->
<g id="edge2" class="edge"><title>Node1&#45;&gt;Node3</title>
<path fill="none" stroke="midnightblue" d="M209.604,-35.3929C218.41,-34.4063 227.339,-33.406 236.197,-32.4136"/>
<polygon fill="midnightblue" stroke="midnightblue" points="236.61,-35.8893 246.158,-31.2977 235.83,-28.9329 236.61,-35.8893"/>
</g>
</g>
</svg>
