<?xml version="1.0" encoding="UTF-8" standalone="no"?>
<!DOCTYPE svg PUBLIC "-//W3C//DTD SVG 1.1//EN"
 "http://www.w3.org/Graphics/SVG/1.1/DTD/svg11.dtd">
<!-- Generated by graphviz version 2.36.0 (20140111.2315)
 -->
<!-- Title: gamePlayer.mainClasses.welcomeScreen.WelcomeScreen.setPaneContent Pages: 1 -->
<svg width="1188pt" height="202pt"
 viewBox="0.00 0.00 1188.00 202.00" xmlns="http://www.w3.org/2000/svg" xmlns:xlink="http://www.w3.org/1999/xlink">
<g id="graph0" class="graph" transform="scale(1 1) rotate(0) translate(4 198)">
<title>gamePlayer.mainClasses.welcomeScreen.WelcomeScreen.setPaneContent</title>
<polygon fill="white" stroke="none" points="-4,4 -4,-198 1184,-198 1184,4 -4,4"/>
<!-- Node1 -->
<g id="node1" class="node"><title>Node1</title>
<polygon fill="#bfbfbf" stroke="black" points="0.5,-115 0.5,-145 209.5,-145 209.5,-115 0.5,-115"/>
<text text-anchor="start" x="8.5" y="-133" font-family="Helvetica,sans-Serif" font-size="10.00">gamePlayer.mainClasses.welcome</text>
<text text-anchor="middle" x="105" y="-122" font-family="Helvetica,sans-Serif" font-size="10.00">Screen.WelcomeScreen.setPaneContent</text>
</g>
<!-- Node2 -->
<g id="node2" class="node"><title>Node2</title>
<g id="a_node2"><a xlink:href="../../d1/dc1/classgame_player_1_1main_classes_1_1welcome_screen_1_1_welcome_screen.html#ae748ffd35b1707ce66f9465c51715abc" target="_top" xlink:title="gamePlayer.mainClasses.welcome\lScreen.WelcomeScreen.setBottomContent">
<polygon fill="white" stroke="black" points="246,-164 246,-194 468,-194 468,-164 246,-164"/>
<text text-anchor="start" x="254" y="-182" font-family="Helvetica,sans-Serif" font-size="10.00">gamePlayer.mainClasses.welcome</text>
<text text-anchor="middle" x="357" y="-171" font-family="Helvetica,sans-Serif" font-size="10.00">Screen.WelcomeScreen.setBottomContent</text>
</a>
</g>
</g>
<!-- Node1&#45;&gt;Node2 -->
<g id="edge1" class="edge"><title>Node1&#45;&gt;Node2</title>
<path fill="none" stroke="midnightblue" d="M192.569,-146.967C220.821,-152.505 251.974,-158.611 279.438,-163.994"/>
<polygon fill="midnightblue" stroke="midnightblue" points="193.194,-143.523 182.707,-145.035 191.847,-150.393 193.194,-143.523"/>
</g>
<!-- Node6 -->
<g id="node6" class="node"><title>Node6</title>
<g id="a_node6"><a xlink:href="../../d1/dc1/classgame_player_1_1main_classes_1_1welcome_screen_1_1_welcome_screen.html#a41cc2d3462730d4baae53d5839eafde7" target="_top" xlink:title="gamePlayer.mainClasses.welcome\lScreen.WelcomeScreen.setCenterContent">
<polygon fill="white" stroke="black" points="248,-66 248,-96 466,-96 466,-66 248,-66"/>
<text text-anchor="start" x="256" y="-84" font-family="Helvetica,sans-Serif" font-size="10.00">gamePlayer.mainClasses.welcome</text>
<text text-anchor="middle" x="357" y="-73" font-family="Helvetica,sans-Serif" font-size="10.00">Screen.WelcomeScreen.setCenterContent</text>
</a>
</g>
</g>
<!-- Node1&#45;&gt;Node6 -->
<g id="edge5" class="edge"><title>Node1&#45;&gt;Node6</title>
<path fill="none" stroke="midnightblue" d="M192.569,-113.033C220.821,-107.495 251.974,-101.389 279.438,-96.0062"/>
<polygon fill="midnightblue" stroke="midnightblue" points="191.847,-109.607 182.707,-114.965 193.194,-116.477 191.847,-109.607"/>
</g>
<!-- Node10 -->
<g id="node10" class="node"><title>Node10</title>
<g id="a_node10"><a xlink:href="../../d1/dc1/classgame_player_1_1main_classes_1_1welcome_screen_1_1_welcome_screen.html#a5483a6c7bd7d393055d2554147174ab2" target="_top" xlink:title="gamePlayer.mainClasses.welcome\lScreen.WelcomeScreen.setTopContent">
<polygon fill="white" stroke="black" points="256,-115 256,-145 458,-145 458,-115 256,-115"/>
<text text-anchor="start" x="264" y="-133" font-family="Helvetica,sans-Serif" font-size="10.00">gamePlayer.mainClasses.welcome</text>
<text text-anchor="middle" x="357" y="-122" font-family="Helvetica,sans-Serif" font-size="10.00">Screen.WelcomeScreen.setTopContent</text>
</a>
</g>
</g>
<!-- Node1&#45;&gt;Node10 -->
<g id="edge10" class="edge"><title>Node1&#45;&gt;Node10</title>
<path fill="none" stroke="midnightblue" d="M219.851,-130C231.805,-130 243.897,-130 255.684,-130"/>
<polygon fill="midnightblue" stroke="midnightblue" points="219.851,-126.5 209.851,-130 219.851,-133.5 219.851,-126.5"/>
</g>
<!-- Node3 -->
<g id="node3" class="node"><title>Node3</title>
<g id="a_node3"><a xlink:href="../../d3/dee/classgame_player_1_1main_classes_1_1welcome_screen_1_1_game_start_manager.html#aaeadf75f81a631bdd0fde079470bc44e" target="_top" xlink:title="gamePlayer.mainClasses.welcome\lScreen.GameStartManager.initialize\lWelcomeScreen">
<polygon fill="white" stroke="black" points="507.5,-120.5 507.5,-161.5 696.5,-161.5 696.5,-120.5 507.5,-120.5"/>
<text text-anchor="start" x="515.5" y="-149.5" font-family="Helvetica,sans-Serif" font-size="10.00">gamePlayer.mainClasses.welcome</text>
<text text-anchor="start" x="515.5" y="-138.5" font-family="Helvetica,sans-Serif" font-size="10.00">Screen.GameStartManager.initialize</text>
<text text-anchor="middle" x="602" y="-127.5" font-family="Helvetica,sans-Serif" font-size="10.00">WelcomeScreen</text>
</a>
</g>
</g>
<!-- Node2&#45;&gt;Node3 -->
<g id="edge2" class="edge"><title>Node2&#45;&gt;Node3</title>
<path fill="none" stroke="midnightblue" d="M463.958,-162.43C478.367,-160.177 493.072,-157.878 507.245,-155.661"/>
<polygon fill="midnightblue" stroke="midnightblue" points="463.379,-158.978 454.04,-163.981 464.461,-165.894 463.379,-158.978"/>
</g>
<!-- Node4 -->
<g id="node4" class="node"><title>Node4</title>
<g id="a_node4"><a xlink:href="../../d3/dee/classgame_player_1_1main_classes_1_1welcome_screen_1_1_game_start_manager.html#ad8f1528149e361b0dfb590208d2b9532" target="_top" xlink:title="gamePlayer.mainClasses.welcome\lScreen.GameStartManager.init">
<polygon fill="white" stroke="black" points="747,-126 747,-156 929,-156 929,-126 747,-126"/>
<text text-anchor="start" x="755" y="-144" font-family="Helvetica,sans-Serif" font-size="10.00">gamePlayer.mainClasses.welcome</text>
<text text-anchor="middle" x="838" y="-133" font-family="Helvetica,sans-Serif" font-size="10.00">Screen.GameStartManager.init</text>
</a>
</g>
</g>
<!-- Node3&#45;&gt;Node4 -->
<g id="edge3" class="edge"><title>Node3&#45;&gt;Node4</title>
<path fill="none" stroke="midnightblue" d="M706.969,-141C720.303,-141 733.866,-141 746.953,-141"/>
<polygon fill="midnightblue" stroke="midnightblue" points="706.828,-137.5 696.828,-141 706.828,-144.5 706.828,-137.5"/>
</g>
<!-- Node5 -->
<g id="node5" class="node"><title>Node5</title>
<g id="a_node5"><a xlink:href="../../d3/dee/classgame_player_1_1main_classes_1_1welcome_screen_1_1_game_start_manager.html#a306af611e85c84fc7d2d297403407df9" target="_top" xlink:title="gamePlayer.mainClasses.welcome\lScreen.GameStartManager.GameStart\lManager">
<polygon fill="white" stroke="black" points="976,-120.5 976,-161.5 1180,-161.5 1180,-120.5 976,-120.5"/>
<text text-anchor="start" x="984" y="-149.5" font-family="Helvetica,sans-Serif" font-size="10.00">gamePlayer.mainClasses.welcome</text>
<text text-anchor="start" x="984" y="-138.5" font-family="Helvetica,sans-Serif" font-size="10.00">Screen.GameStartManager.GameStart</text>
<text text-anchor="middle" x="1078" y="-127.5" font-family="Helvetica,sans-Serif" font-size="10.00">Manager</text>
</a>
</g>
</g>
<!-- Node4&#45;&gt;Node5 -->
<g id="edge4" class="edge"><title>Node4&#45;&gt;Node5</title>
<path fill="none" stroke="midnightblue" d="M939.412,-141C951.517,-141 963.886,-141 975.999,-141"/>
<polygon fill="midnightblue" stroke="midnightblue" points="939.317,-137.5 929.317,-141 939.317,-144.5 939.317,-137.5"/>
</g>
<!-- Node6&#45;&gt;Node3 -->
<g id="edge6" class="edge"><title>Node6&#45;&gt;Node3</title>
<path fill="none" stroke="midnightblue" d="M439.433,-98.2931C449.078,-100.481 458.769,-102.745 468,-105 487.404,-109.74 508.299,-115.218 527.649,-120.448"/>
<polygon fill="midnightblue" stroke="midnightblue" points="439.945,-94.8208 429.421,-96.0436 438.41,-101.651 439.945,-94.8208"/>
</g>
<!-- Node7 -->
<g id="node7" class="node"><title>Node7</title>
<g id="a_node7"><a xlink:href="../../d3/dee/classgame_player_1_1main_classes_1_1welcome_screen_1_1_game_start_manager.html#a994c29260d6cb90abf19dca2b3463b6a" target="_top" xlink:title="gamePlayer.mainClasses.welcome\lScreen.GameStartManager.startMulti\lPlayerGame">
<polygon fill="white" stroke="black" points="504,-60.5 504,-101.5 700,-101.5 700,-60.5 504,-60.5"/>
<text text-anchor="start" x="512" y="-89.5" font-family="Helvetica,sans-Serif" font-size="10.00">gamePlayer.mainClasses.welcome</text>
<text text-anchor="start" x="512" y="-78.5" font-family="Helvetica,sans-Serif" font-size="10.00">Screen.GameStartManager.startMulti</text>
<text text-anchor="middle" x="602" y="-67.5" font-family="Helvetica,sans-Serif" font-size="10.00">PlayerGame</text>
</a>
</g>
</g>
<!-- Node6&#45;&gt;Node7 -->
<g id="edge7" class="edge"><title>Node6&#45;&gt;Node7</title>
<path fill="none" stroke="midnightblue" d="M476.367,-81C485.614,-81 494.885,-81 503.966,-81"/>
<polygon fill="midnightblue" stroke="midnightblue" points="476.353,-77.5001 466.353,-81 476.352,-84.5001 476.353,-77.5001"/>
</g>
<!-- Node9 -->
<g id="node9" class="node"><title>Node9</title>
<g id="a_node9"><a xlink:href="../../d3/dee/classgame_player_1_1main_classes_1_1welcome_screen_1_1_game_start_manager.html#aaf7cd21f848e3eecc9adedb6244faa58" target="_top" xlink:title="gamePlayer.mainClasses.welcome\lScreen.GameStartManager.startMulti\lPlayerOptions">
<polygon fill="white" stroke="black" points="504,-0.5 504,-41.5 700,-41.5 700,-0.5 504,-0.5"/>
<text text-anchor="start" x="512" y="-29.5" font-family="Helvetica,sans-Serif" font-size="10.00">gamePlayer.mainClasses.welcome</text>
<text text-anchor="start" x="512" y="-18.5" font-family="Helvetica,sans-Serif" font-size="10.00">Screen.GameStartManager.startMulti</text>
<text text-anchor="middle" x="602" y="-7.5" font-family="Helvetica,sans-Serif" font-size="10.00">PlayerOptions</text>
</a>
</g>
</g>
<!-- Node6&#45;&gt;Node9 -->
<g id="edge9" class="edge"><title>Node6&#45;&gt;Node9</title>
<path fill="none" stroke="midnightblue" d="M429.054,-63.4559C456.892,-56.5821 489.028,-48.6475 517.929,-41.5114"/>
<polygon fill="midnightblue" stroke="midnightblue" points="427.875,-60.1417 419.006,-65.9369 429.553,-66.9376 427.875,-60.1417"/>
</g>
<!-- Node8 -->
<g id="node8" class="node"><title>Node8</title>
<g id="a_node8"><a xlink:href="../../d3/dee/classgame_player_1_1main_classes_1_1welcome_screen_1_1_game_start_manager.html#a4ac849399bf00c6df86f0db25ea95ed8" target="_top" xlink:title="gamePlayer.mainClasses.welcome\lScreen.GameStartManager.startGame">
<polygon fill="white" stroke="black" points="736.5,-66 736.5,-96 939.5,-96 939.5,-66 736.5,-66"/>
<text text-anchor="start" x="744.5" y="-84" font-family="Helvetica,sans-Serif" font-size="10.00">gamePlayer.mainClasses.welcome</text>
<text text-anchor="middle" x="838" y="-73" font-family="Helvetica,sans-Serif" font-size="10.00">Screen.GameStartManager.startGame</text>
</a>
</g>
</g>
<!-- Node7&#45;&gt;Node8 -->
<g id="edge8" class="edge"><title>Node7&#45;&gt;Node8</title>
<path fill="none" stroke="midnightblue" d="M710.325,-81C718.984,-81 727.714,-81 736.324,-81"/>
<polygon fill="midnightblue" stroke="midnightblue" points="710.204,-77.5001 700.204,-81 710.204,-84.5001 710.204,-77.5001"/>
</g>
<!-- Node10&#45;&gt;Node3 -->
<g id="edge11" class="edge"><title>Node10&#45;&gt;Node3</title>
<path fill="none" stroke="midnightblue" d="M468.557,-135.005C481.48,-135.59 494.57,-136.182 507.235,-136.755"/>
<polygon fill="midnightblue" stroke="midnightblue" points="468.388,-131.494 458.24,-134.538 468.072,-138.486 468.388,-131.494"/>
</g>
</g>
</svg>
