<?xml version="1.0" encoding="UTF-8" standalone="no"?>
<!DOCTYPE svg PUBLIC "-//W3C//DTD SVG 1.1//EN"
 "http://www.w3.org/Graphics/SVG/1.1/DTD/svg11.dtd">
<!-- Generated by graphviz version 2.36.0 (20140111.2315)
 -->
<!-- Title: gamePlayer.mainClasses.welcomeScreen.WelcomeScreen.setTopContent Pages: 1 -->
<svg width="456pt" height="38pt"
 viewBox="0.00 0.00 456.00 38.00" xmlns="http://www.w3.org/2000/svg" xmlns:xlink="http://www.w3.org/1999/xlink">
<g id="graph0" class="graph" transform="scale(1 1) rotate(0) translate(4 34)">
<title>gamePlayer.mainClasses.welcomeScreen.WelcomeScreen.setTopContent</title>
<polygon fill="white" stroke="none" points="-4,4 -4,-34 452,-34 452,4 -4,4"/>
<!-- Node1 -->
<g id="node1" class="node"><title>Node1</title>
<polygon fill="#bfbfbf" stroke="black" points="0,-0 0,-30 202,-30 202,-0 0,-0"/>
<text text-anchor="start" x="8" y="-18" font-family="Helvetica,sans-Serif" font-size="10.00">gamePlayer.mainClasses.welcome</text>
<text text-anchor="middle" x="101" y="-7" font-family="Helvetica,sans-Serif" font-size="10.00">Screen.WelcomeScreen.setTopContent</text>
</g>
<!-- Node2 -->
<g id="node2" class="node"><title>Node2</title>
<g id="a_node2"><a xlink:href="../../d1/dc1/classgame_player_1_1main_classes_1_1welcome_screen_1_1_welcome_screen.html#a44ec77f689221b5a53243d8ff5b0728e" target="_top" xlink:title="gamePlayer.mainClasses.welcome\lScreen.WelcomeScreen.setPaneContent">
<polygon fill="white" stroke="black" points="238.5,-0 238.5,-30 447.5,-30 447.5,-0 238.5,-0"/>
<text text-anchor="start" x="246.5" y="-18" font-family="Helvetica,sans-Serif" font-size="10.00">gamePlayer.mainClasses.welcome</text>
<text text-anchor="middle" x="343" y="-7" font-family="Helvetica,sans-Serif" font-size="10.00">Screen.WelcomeScreen.setPaneContent</text>
</a>
</g>
</g>
<!-- Node1&#45;&gt;Node2 -->
<g id="edge1" class="edge"><title>Node1&#45;&gt;Node2</title>
<path fill="none" stroke="midnightblue" d="M202.044,-15C210.641,-15 219.379,-15 228.075,-15"/>
<polygon fill="midnightblue" stroke="midnightblue" points="228.252,-18.5001 238.252,-15 228.252,-11.5001 228.252,-18.5001"/>
</g>
</g>
</svg>
