<?xml version="1.0" encoding="UTF-8" standalone="no"?>
<!DOCTYPE svg PUBLIC "-//W3C//DTD SVG 1.1//EN"
 "http://www.w3.org/Graphics/SVG/1.1/DTD/svg11.dtd">
<!-- Generated by graphviz version 2.36.0 (20140111.2315)
 -->
<!-- Title: utilities.pathfinding.example.LinkedNodeAStarFinder.getNeighbors Pages: 1 -->
<svg width="394pt" height="38pt"
 viewBox="0.00 0.00 394.00 38.00" xmlns="http://www.w3.org/2000/svg" xmlns:xlink="http://www.w3.org/1999/xlink">
<g id="graph0" class="graph" transform="scale(1 1) rotate(0) translate(4 34)">
<title>utilities.pathfinding.example.LinkedNodeAStarFinder.getNeighbors</title>
<polygon fill="white" stroke="none" points="-4,4 -4,-34 390,-34 390,4 -4,4"/>
<!-- Node1 -->
<g id="node1" class="node"><title>Node1</title>
<polygon fill="#bfbfbf" stroke="black" points="0.5,-0 0.5,-30 195.5,-30 195.5,-0 0.5,-0"/>
<text text-anchor="start" x="8.5" y="-18" font-family="Helvetica,sans-Serif" font-size="10.00">utilities.pathfinding.example.</text>
<text text-anchor="middle" x="98" y="-7" font-family="Helvetica,sans-Serif" font-size="10.00">LinkedNodeAStarFinder.getNeighbors</text>
</g>
<!-- Node2 -->
<g id="node2" class="node"><title>Node2</title>
<g id="a_node2"><a xlink:href="../../da/dc8/classutilities_1_1pathfinding_1_1example_1_1_linked_node.html#a2c03ba6acc61af545e1c1283f6e7a1d6" target="_top" xlink:title="utilities.pathfinding.example.\lLinkedNode.getNeighbors">
<polygon fill="white" stroke="black" points="232,-0 232,-30 386,-30 386,-0 232,-0"/>
<text text-anchor="start" x="240" y="-18" font-family="Helvetica,sans-Serif" font-size="10.00">utilities.pathfinding.example.</text>
<text text-anchor="middle" x="309" y="-7" font-family="Helvetica,sans-Serif" font-size="10.00">LinkedNode.getNeighbors</text>
</a>
</g>
</g>
<!-- Node1&#45;&gt;Node2 -->
<g id="edge1" class="edge"><title>Node1&#45;&gt;Node2</title>
<path fill="none" stroke="midnightblue" d="M195.547,-15C204.311,-15 213.149,-15 221.815,-15"/>
<polygon fill="midnightblue" stroke="midnightblue" points="221.893,-18.5001 231.893,-15 221.893,-11.5001 221.893,-18.5001"/>
</g>
</g>
</svg>
