<?xml version="1.0" encoding="UTF-8" standalone="no"?>
<!DOCTYPE svg PUBLIC "-//W3C//DTD SVG 1.1//EN"
 "http://www.w3.org/Graphics/SVG/1.1/DTD/svg11.dtd">
<!-- Generated by graphviz version 2.36.0 (20140111.2315)
 -->
<!-- Title: utilities.pathfinding.example.LinkedNodeAStarFinder.breakTie Pages: 1 -->
<svg width="560pt" height="87pt"
 viewBox="0.00 0.00 560.00 87.00" xmlns="http://www.w3.org/2000/svg" xmlns:xlink="http://www.w3.org/1999/xlink">
<g id="graph0" class="graph" transform="scale(1 1) rotate(0) translate(4 83)">
<title>utilities.pathfinding.example.LinkedNodeAStarFinder.breakTie</title>
<polygon fill="white" stroke="none" points="-4,4 -4,-83 556,-83 556,4 -4,4"/>
<!-- Node1 -->
<g id="node1" class="node"><title>Node1</title>
<polygon fill="#bfbfbf" stroke="black" points="0.5,-24 0.5,-54 171.5,-54 171.5,-24 0.5,-24"/>
<text text-anchor="start" x="8.5" y="-42" font-family="Helvetica,sans-Serif" font-size="10.00">utilities.pathfinding.example.</text>
<text text-anchor="middle" x="86" y="-31" font-family="Helvetica,sans-Serif" font-size="10.00">LinkedNodeAStarFinder.breakTie</text>
</g>
<!-- Node2 -->
<g id="node2" class="node"><title>Node2</title>
<g id="a_node2"><a xlink:href="../../da/dc8/classutilities_1_1pathfinding_1_1example_1_1_linked_node.html#ad8bcbb8393d9800e96f7c3b261179fba" target="_top" xlink:title="utilities.pathfinding.example.\lLinkedNode.compareTo">
<polygon fill="white" stroke="black" points="208,-24 208,-54 362,-54 362,-24 208,-24"/>
<text text-anchor="start" x="216" y="-42" font-family="Helvetica,sans-Serif" font-size="10.00">utilities.pathfinding.example.</text>
<text text-anchor="middle" x="285" y="-31" font-family="Helvetica,sans-Serif" font-size="10.00">LinkedNode.compareTo</text>
</a>
</g>
</g>
<!-- Node1&#45;&gt;Node2 -->
<g id="edge1" class="edge"><title>Node1&#45;&gt;Node2</title>
<path fill="none" stroke="midnightblue" d="M171.689,-39C180.309,-39 189.073,-39 197.709,-39"/>
<polygon fill="midnightblue" stroke="midnightblue" points="197.773,-42.5001 207.773,-39 197.773,-35.5001 197.773,-42.5001"/>
</g>
<!-- Node3 -->
<g id="node3" class="node"><title>Node3</title>
<g id="a_node3"><a xlink:href="../../dd/dda/classutilities_1_1pathfinding_1_1example_1_1_unlinked_node.html#a53081d84e0c3086a52dab9713de86942" target="_top" xlink:title="utilities.pathfinding.example.\lUnlinkedNode.getX">
<polygon fill="white" stroke="black" points="398,-49 398,-79 552,-79 552,-49 398,-49"/>
<text text-anchor="start" x="406" y="-67" font-family="Helvetica,sans-Serif" font-size="10.00">utilities.pathfinding.example.</text>
<text text-anchor="middle" x="475" y="-56" font-family="Helvetica,sans-Serif" font-size="10.00">UnlinkedNode.getX</text>
</a>
</g>
</g>
<!-- Node2&#45;&gt;Node3 -->
<g id="edge2" class="edge"><title>Node2&#45;&gt;Node3</title>
<path fill="none" stroke="midnightblue" d="M362.196,-49.1324C370.609,-50.2512 379.219,-51.3962 387.744,-52.5298"/>
<polygon fill="midnightblue" stroke="midnightblue" points="387.322,-56.0043 397.696,-53.8532 388.244,-49.0654 387.322,-56.0043"/>
</g>
<!-- Node4 -->
<g id="node4" class="node"><title>Node4</title>
<g id="a_node4"><a xlink:href="../../dd/dda/classutilities_1_1pathfinding_1_1example_1_1_unlinked_node.html#a92432c42bac95c8bcf8b438d08c07126" target="_top" xlink:title="utilities.pathfinding.example.\lUnlinkedNode.getY">
<polygon fill="white" stroke="black" points="398,-0 398,-30 552,-30 552,-0 398,-0"/>
<text text-anchor="start" x="406" y="-18" font-family="Helvetica,sans-Serif" font-size="10.00">utilities.pathfinding.example.</text>
<text text-anchor="middle" x="475" y="-7" font-family="Helvetica,sans-Serif" font-size="10.00">UnlinkedNode.getY</text>
</a>
</g>
</g>
<!-- Node2&#45;&gt;Node4 -->
<g id="edge3" class="edge"><title>Node2&#45;&gt;Node4</title>
<path fill="none" stroke="midnightblue" d="M362.196,-29.2729C370.609,-28.1989 379.219,-27.0997 387.744,-26.0114"/>
<polygon fill="midnightblue" stroke="midnightblue" points="388.219,-29.4792 397.696,-24.741 387.333,-22.5356 388.219,-29.4792"/>
</g>
</g>
</svg>
