<?xml version="1.0" encoding="UTF-8" standalone="no"?>
<!DOCTYPE svg PUBLIC "-//W3C//DTD SVG 1.1//EN"
 "http://www.w3.org/Graphics/SVG/1.1/DTD/svg11.dtd">
<!-- Generated by graphviz version 2.36.0 (20140111.2315)
 -->
<!-- Title: gameAuthoring.scenes.pathBuilding.pathComponents.PathLine.setStartingPoint Pages: 1 -->
<svg width="482pt" height="158pt"
 viewBox="0.00 0.00 482.00 158.00" xmlns="http://www.w3.org/2000/svg" xmlns:xlink="http://www.w3.org/1999/xlink">
<g id="graph0" class="graph" transform="scale(1 1) rotate(0) translate(4 154)">
<title>gameAuthoring.scenes.pathBuilding.pathComponents.PathLine.setStartingPoint</title>
<polygon fill="white" stroke="none" points="-4,4 -4,-154 478,-154 478,4 -4,4"/>
<!-- Node1 -->
<g id="node1" class="node"><title>Node1</title>
<polygon fill="#bfbfbf" stroke="black" points="0,-48.5 0,-89.5 202,-89.5 202,-48.5 0,-48.5"/>
<text text-anchor="start" x="8" y="-77.5" font-family="Helvetica,sans-Serif" font-size="10.00">gameAuthoring.scenes.path</text>
<text text-anchor="start" x="8" y="-66.5" font-family="Helvetica,sans-Serif" font-size="10.00">Building.pathComponents.PathLine.set</text>
<text text-anchor="middle" x="101" y="-55.5" font-family="Helvetica,sans-Serif" font-size="10.00">StartingPoint</text>
</g>
<!-- Node2 -->
<g id="node2" class="node"><title>Node2</title>
<g id="a_node2"><a xlink:href="../../d2/d34/classgame_authoring_1_1scenes_1_1path_building_1_1path_components_1_1_path_creation_tests.html#ac9531a7f491a2dd23e3f1f4fefeae341" target="_top" xlink:title="gameAuthoring.scenes.path\lBuilding.pathComponents.PathCreation\lTests.AttemptToConnectRoutesFORKTest">
<polygon fill="white" stroke="black" points="252,-108.5 252,-149.5 460,-149.5 460,-108.5 252,-108.5"/>
<text text-anchor="start" x="260" y="-137.5" font-family="Helvetica,sans-Serif" font-size="10.00">gameAuthoring.scenes.path</text>
<text text-anchor="start" x="260" y="-126.5" font-family="Helvetica,sans-Serif" font-size="10.00">Building.pathComponents.PathCreation</text>
<text text-anchor="middle" x="356" y="-115.5" font-family="Helvetica,sans-Serif" font-size="10.00">Tests.AttemptToConnectRoutesFORKTest</text>
</a>
</g>
</g>
<!-- Node1&#45;&gt;Node2 -->
<g id="edge1" class="edge"><title>Node1&#45;&gt;Node2</title>
<path fill="none" stroke="midnightblue" d="M198.475,-91.8794C221.473,-97.3335 245.876,-103.121 268.399,-108.462"/>
<polygon fill="midnightblue" stroke="midnightblue" points="199.252,-88.4667 188.714,-89.5647 197.637,-95.2778 199.252,-88.4667"/>
</g>
<!-- Node3 -->
<g id="node3" class="node"><title>Node3</title>
<g id="a_node3"><a xlink:href="../../d2/d34/classgame_authoring_1_1scenes_1_1path_building_1_1path_components_1_1_path_creation_tests.html#a6981d0f68e924cf3aca2ebb00a781c66" target="_top" xlink:title="gameAuthoring.scenes.path\lBuilding.pathComponents.PathCreation\lTests.AttemptToConnectRoutesNoForkTest">
<polygon fill="white" stroke="black" points="247,-48.5 247,-89.5 465,-89.5 465,-48.5 247,-48.5"/>
<text text-anchor="start" x="255" y="-77.5" font-family="Helvetica,sans-Serif" font-size="10.00">gameAuthoring.scenes.path</text>
<text text-anchor="start" x="255" y="-66.5" font-family="Helvetica,sans-Serif" font-size="10.00">Building.pathComponents.PathCreation</text>
<text text-anchor="middle" x="356" y="-55.5" font-family="Helvetica,sans-Serif" font-size="10.00">Tests.AttemptToConnectRoutesNoForkTest</text>
</a>
</g>
</g>
<!-- Node1&#45;&gt;Node3 -->
<g id="edge2" class="edge"><title>Node1&#45;&gt;Node3</title>
<path fill="none" stroke="midnightblue" d="M212.361,-69C223.809,-69 235.437,-69 246.861,-69"/>
<polygon fill="midnightblue" stroke="midnightblue" points="212.356,-65.5001 202.356,-69 212.356,-72.5001 212.356,-65.5001"/>
</g>
<!-- Node4 -->
<g id="node4" class="node"><title>Node4</title>
<g id="a_node4"><a xlink:href="../../d3/de9/classgame_authoring_1_1scenes_1_1path_building_1_1path_components_1_1_path_line.html#abbce2a64c961f9fab00747b850318576" target="_top" xlink:title="gameAuthoring.scenes.path\lBuilding.pathComponents.PathLine.deepCopy">
<polygon fill="white" stroke="black" points="238.5,-0 238.5,-30 473.5,-30 473.5,-0 238.5,-0"/>
<text text-anchor="start" x="246.5" y="-18" font-family="Helvetica,sans-Serif" font-size="10.00">gameAuthoring.scenes.path</text>
<text text-anchor="middle" x="356" y="-7" font-family="Helvetica,sans-Serif" font-size="10.00">Building.pathComponents.PathLine.deepCopy</text>
</a>
</g>
</g>
<!-- Node1&#45;&gt;Node4 -->
<g id="edge3" class="edge"><title>Node1&#45;&gt;Node4</title>
<path fill="none" stroke="midnightblue" d="M204.144,-46.2974C215.561,-43.8107 227.025,-41.3359 238,-39 251.893,-36.043 266.727,-32.9501 281.006,-30.0058"/>
<polygon fill="midnightblue" stroke="midnightblue" points="203.16,-42.9296 194.137,-48.4825 204.654,-49.7685 203.16,-42.9296"/>
</g>
</g>
</svg>
