<?xml version="1.0" encoding="UTF-8" standalone="no"?>
<!DOCTYPE svg PUBLIC "-//W3C//DTD SVG 1.1//EN"
 "http://www.w3.org/Graphics/SVG/1.1/DTD/svg11.dtd">
<!-- Generated by graphviz version 2.36.0 (20140111.2315)
 -->
<!-- Title: gameAuthoring.scenes.pathBuilding.pathComponents.PathLine.deepCopy Pages: 1 -->
<svg width="484pt" height="289pt"
 viewBox="0.00 0.00 484.00 289.00" xmlns="http://www.w3.org/2000/svg" xmlns:xlink="http://www.w3.org/1999/xlink">
<g id="graph0" class="graph" transform="scale(1 1) rotate(0) translate(4 285)">
<title>gameAuthoring.scenes.pathBuilding.pathComponents.PathLine.deepCopy</title>
<polygon fill="white" stroke="none" points="-4,4 -4,-285 480,-285 480,4 -4,4"/>
<!-- Node1 -->
<g id="node1" class="node"><title>Node1</title>
<polygon fill="#bfbfbf" stroke="black" points="0.5,-125 0.5,-155 235.5,-155 235.5,-125 0.5,-125"/>
<text text-anchor="start" x="8.5" y="-143" font-family="Helvetica,sans-Serif" font-size="10.00">gameAuthoring.scenes.path</text>
<text text-anchor="middle" x="118" y="-132" font-family="Helvetica,sans-Serif" font-size="10.00">Building.pathComponents.PathLine.deepCopy</text>
</g>
<!-- Node2 -->
<g id="node2" class="node"><title>Node2</title>
<g id="a_node2"><a xlink:href="../../d3/de9/classgame_authoring_1_1scenes_1_1path_building_1_1path_components_1_1_path_line.html#a3460e80c03faff7fb370f595d3243ca5" target="_top" xlink:title="gameAuthoring.scenes.path\lBuilding.pathComponents.PathLine.get\lEndingPoint">
<polygon fill="white" stroke="black" points="272.5,-239.5 272.5,-280.5 475.5,-280.5 475.5,-239.5 272.5,-239.5"/>
<text text-anchor="start" x="280.5" y="-268.5" font-family="Helvetica,sans-Serif" font-size="10.00">gameAuthoring.scenes.path</text>
<text text-anchor="start" x="280.5" y="-257.5" font-family="Helvetica,sans-Serif" font-size="10.00">Building.pathComponents.PathLine.get</text>
<text text-anchor="middle" x="374" y="-246.5" font-family="Helvetica,sans-Serif" font-size="10.00">EndingPoint</text>
</a>
</g>
</g>
<!-- Node1&#45;&gt;Node2 -->
<g id="edge1" class="edge"><title>Node1&#45;&gt;Node2</title>
<path fill="none" stroke="midnightblue" d="M141.209,-155.115C170.24,-174.349 223.152,-207.634 272,-229 277.624,-231.46 283.504,-233.807 289.477,-236.028"/>
<polygon fill="midnightblue" stroke="midnightblue" points="288.321,-239.331 298.916,-239.412 290.684,-232.742 288.321,-239.331"/>
</g>
<!-- Node3 -->
<g id="node3" class="node"><title>Node3</title>
<g id="a_node3"><a xlink:href="../../d3/de9/classgame_authoring_1_1scenes_1_1path_building_1_1path_components_1_1_path_line.html#a1fc49ac4338ac115038bf124a2472f30" target="_top" xlink:title="gameAuthoring.scenes.path\lBuilding.pathComponents.PathLine.get\lStartingPoint">
<polygon fill="white" stroke="black" points="272.5,-179.5 272.5,-220.5 475.5,-220.5 475.5,-179.5 272.5,-179.5"/>
<text text-anchor="start" x="280.5" y="-208.5" font-family="Helvetica,sans-Serif" font-size="10.00">gameAuthoring.scenes.path</text>
<text text-anchor="start" x="280.5" y="-197.5" font-family="Helvetica,sans-Serif" font-size="10.00">Building.pathComponents.PathLine.get</text>
<text text-anchor="middle" x="374" y="-186.5" font-family="Helvetica,sans-Serif" font-size="10.00">StartingPoint</text>
</a>
</g>
</g>
<!-- Node1&#45;&gt;Node3 -->
<g id="edge2" class="edge"><title>Node1&#45;&gt;Node3</title>
<path fill="none" stroke="midnightblue" d="M182.767,-155.063C211.011,-161.735 244.857,-169.73 276.12,-177.115"/>
<polygon fill="midnightblue" stroke="midnightblue" points="275.632,-180.596 286.168,-179.489 277.241,-173.783 275.632,-180.596"/>
</g>
<!-- Node4 -->
<g id="node4" class="node"><title>Node4</title>
<g id="a_node4"><a xlink:href="../../d3/de9/classgame_authoring_1_1scenes_1_1path_building_1_1path_components_1_1_path_line.html#acd193f7315e019b2b29cbc3db1a4d846" target="_top" xlink:title="gameAuthoring.scenes.path\lBuilding.pathComponents.PathLine.\lPathLine">
<polygon fill="white" stroke="black" points="280.5,-119.5 280.5,-160.5 467.5,-160.5 467.5,-119.5 280.5,-119.5"/>
<text text-anchor="start" x="288.5" y="-148.5" font-family="Helvetica,sans-Serif" font-size="10.00">gameAuthoring.scenes.path</text>
<text text-anchor="start" x="288.5" y="-137.5" font-family="Helvetica,sans-Serif" font-size="10.00">Building.pathComponents.PathLine.</text>
<text text-anchor="middle" x="374" y="-126.5" font-family="Helvetica,sans-Serif" font-size="10.00">PathLine</text>
</a>
</g>
</g>
<!-- Node1&#45;&gt;Node4 -->
<g id="edge3" class="edge"><title>Node1&#45;&gt;Node4</title>
<path fill="none" stroke="midnightblue" d="M235.592,-140C247.075,-140 258.672,-140 270.004,-140"/>
<polygon fill="midnightblue" stroke="midnightblue" points="270.326,-143.5 280.326,-140 270.326,-136.5 270.326,-143.5"/>
</g>
<!-- Node5 -->
<g id="node5" class="node"><title>Node5</title>
<g id="a_node5"><a xlink:href="../../d3/de9/classgame_authoring_1_1scenes_1_1path_building_1_1path_components_1_1_path_line.html#aeda4694a698c53dc870c6eed4420fe78" target="_top" xlink:title="gameAuthoring.scenes.path\lBuilding.pathComponents.PathLine.set\lEndingPoint">
<polygon fill="white" stroke="black" points="273,-59.5 273,-100.5 475,-100.5 475,-59.5 273,-59.5"/>
<text text-anchor="start" x="281" y="-88.5" font-family="Helvetica,sans-Serif" font-size="10.00">gameAuthoring.scenes.path</text>
<text text-anchor="start" x="281" y="-77.5" font-family="Helvetica,sans-Serif" font-size="10.00">Building.pathComponents.PathLine.set</text>
<text text-anchor="middle" x="374" y="-66.5" font-family="Helvetica,sans-Serif" font-size="10.00">EndingPoint</text>
</a>
</g>
</g>
<!-- Node1&#45;&gt;Node5 -->
<g id="edge4" class="edge"><title>Node1&#45;&gt;Node5</title>
<path fill="none" stroke="midnightblue" d="M182.767,-124.937C211.011,-118.265 244.857,-110.27 276.12,-102.885"/>
<polygon fill="midnightblue" stroke="midnightblue" points="277.241,-106.217 286.168,-100.511 275.632,-99.4042 277.241,-106.217"/>
</g>
<!-- Node6 -->
<g id="node6" class="node"><title>Node6</title>
<g id="a_node6"><a xlink:href="../../d3/de9/classgame_authoring_1_1scenes_1_1path_building_1_1path_components_1_1_path_line.html#af93ca3e5f9a784ed62cf60a9b409cf37" target="_top" xlink:title="gameAuthoring.scenes.path\lBuilding.pathComponents.PathLine.set\lStartingPoint">
<polygon fill="white" stroke="black" points="273,0.5 273,-40.5 475,-40.5 475,0.5 273,0.5"/>
<text text-anchor="start" x="281" y="-28.5" font-family="Helvetica,sans-Serif" font-size="10.00">gameAuthoring.scenes.path</text>
<text text-anchor="start" x="281" y="-17.5" font-family="Helvetica,sans-Serif" font-size="10.00">Building.pathComponents.PathLine.set</text>
<text text-anchor="middle" x="374" y="-6.5" font-family="Helvetica,sans-Serif" font-size="10.00">StartingPoint</text>
</a>
</g>
</g>
<!-- Node1&#45;&gt;Node6 -->
<g id="edge5" class="edge"><title>Node1&#45;&gt;Node6</title>
<path fill="none" stroke="midnightblue" d="M140.902,-124.796C169.816,-105.278 222.827,-71.3854 272,-50 276.753,-47.9329 281.691,-45.9558 286.716,-44.0742"/>
<polygon fill="midnightblue" stroke="midnightblue" points="288.23,-47.2494 296.458,-40.5747 285.863,-40.6615 288.23,-47.2494"/>
</g>
</g>
</svg>
