<?xml version="1.0" encoding="UTF-8" standalone="no"?>
<!DOCTYPE svg PUBLIC "-//W3C//DTD SVG 1.1//EN"
 "http://www.w3.org/Graphics/SVG/1.1/DTD/svg11.dtd">
<!-- Generated by graphviz version 2.36.0 (20140111.2315)
 -->
<!-- Title: gameAuthoring.scenes.pathBuilding.pathComponents.PathLine.getStartingPoint Pages: 1 -->
<svg width="704pt" height="240pt"
 viewBox="0.00 0.00 704.00 240.00" xmlns="http://www.w3.org/2000/svg" xmlns:xlink="http://www.w3.org/1999/xlink">
<g id="graph0" class="graph" transform="scale(1 1) rotate(0) translate(4 236)">
<title>gameAuthoring.scenes.pathBuilding.pathComponents.PathLine.getStartingPoint</title>
<polygon fill="white" stroke="none" points="-4,4 -4,-236 700,-236 700,4 -4,4"/>
<!-- Node1 -->
<g id="node1" class="node"><title>Node1</title>
<polygon fill="#bfbfbf" stroke="black" points="0.5,-109.5 0.5,-150.5 203.5,-150.5 203.5,-109.5 0.5,-109.5"/>
<text text-anchor="start" x="8.5" y="-138.5" font-family="Helvetica,sans-Serif" font-size="10.00">gameAuthoring.scenes.path</text>
<text text-anchor="start" x="8.5" y="-127.5" font-family="Helvetica,sans-Serif" font-size="10.00">Building.pathComponents.PathLine.get</text>
<text text-anchor="middle" x="102" y="-116.5" font-family="Helvetica,sans-Serif" font-size="10.00">StartingPoint</text>
</g>
<!-- Node2 -->
<g id="node2" class="node"><title>Node2</title>
<g id="a_node2"><a xlink:href="../../d3/de9/classgame_authoring_1_1scenes_1_1path_building_1_1path_components_1_1_path_line.html#abbce2a64c961f9fab00747b850318576" target="_top" xlink:title="gameAuthoring.scenes.path\lBuilding.pathComponents.PathLine.deepCopy">
<polygon fill="white" stroke="black" points="240.5,-202 240.5,-232 475.5,-232 475.5,-202 240.5,-202"/>
<text text-anchor="start" x="248.5" y="-220" font-family="Helvetica,sans-Serif" font-size="10.00">gameAuthoring.scenes.path</text>
<text text-anchor="middle" x="358" y="-209" font-family="Helvetica,sans-Serif" font-size="10.00">Building.pathComponents.PathLine.deepCopy</text>
</a>
</g>
</g>
<!-- Node1&#45;&gt;Node2 -->
<g id="edge1" class="edge"><title>Node1&#45;&gt;Node2</title>
<path fill="none" stroke="midnightblue" d="M151.716,-155.131C177.44,-167.604 209.85,-182.084 240,-192 251.345,-195.731 263.497,-199.048 275.52,-201.947"/>
<polygon fill="midnightblue" stroke="midnightblue" points="153.077,-151.9 142.558,-150.639 149.994,-158.185 153.077,-151.9"/>
</g>
<!-- Node3 -->
<g id="node3" class="node"><title>Node3</title>
<g id="a_node3"><a xlink:href="../../d3/de9/classgame_authoring_1_1scenes_1_1path_building_1_1path_components_1_1_path_line.html#adf7265d96fe255a49c28e7c264895766" target="_top" xlink:title="gameAuthoring.scenes.path\lBuilding.pathComponents.PathLine.get\lLength">
<polygon fill="white" stroke="black" points="256.5,-142.5 256.5,-183.5 459.5,-183.5 459.5,-142.5 256.5,-142.5"/>
<text text-anchor="start" x="264.5" y="-171.5" font-family="Helvetica,sans-Serif" font-size="10.00">gameAuthoring.scenes.path</text>
<text text-anchor="start" x="264.5" y="-160.5" font-family="Helvetica,sans-Serif" font-size="10.00">Building.pathComponents.PathLine.get</text>
<text text-anchor="middle" x="358" y="-149.5" font-family="Helvetica,sans-Serif" font-size="10.00">Length</text>
</a>
</g>
</g>
<!-- Node1&#45;&gt;Node3 -->
<g id="edge2" class="edge"><title>Node1&#45;&gt;Node3</title>
<path fill="none" stroke="midnightblue" d="M213.965,-144.417C228.068,-146.249 242.44,-148.116 256.37,-149.926"/>
<polygon fill="midnightblue" stroke="midnightblue" points="214.12,-140.908 203.752,-143.09 213.218,-147.849 214.12,-140.908"/>
</g>
<!-- Node5 -->
<g id="node5" class="node"><title>Node5</title>
<g id="a_node5"><a xlink:href="../../d0/d17/classgame_authoring_1_1scenes_1_1path_building_1_1path_components_1_1route_to_point_translation_02993d587809a0174c9c81c680c3a1c8.html#a76ad3b58ee74c371da9ed3e77471238f" target="_top" xlink:title="gameAuthoring.scenes.path\lBuilding.pathComponents.routeTo\lPointTranslation.BackendRouteTranslation\lTests.testBackendRouteCreation">
<polygon fill="white" stroke="black" points="251,-71 251,-123 465,-123 465,-71 251,-71"/>
<text text-anchor="start" x="259" y="-111" font-family="Helvetica,sans-Serif" font-size="10.00">gameAuthoring.scenes.path</text>
<text text-anchor="start" x="259" y="-100" font-family="Helvetica,sans-Serif" font-size="10.00">Building.pathComponents.routeTo</text>
<text text-anchor="start" x="259" y="-89" font-family="Helvetica,sans-Serif" font-size="10.00">PointTranslation.BackendRouteTranslation</text>
<text text-anchor="middle" x="358" y="-78" font-family="Helvetica,sans-Serif" font-size="10.00">Tests.testBackendRouteCreation</text>
</a>
</g>
</g>
<!-- Node1&#45;&gt;Node5 -->
<g id="edge4" class="edge"><title>Node1&#45;&gt;Node5</title>
<path fill="none" stroke="midnightblue" d="M214.001,-115.579C226.27,-113.985 238.742,-112.364 250.948,-110.778"/>
<polygon fill="midnightblue" stroke="midnightblue" points="213.218,-112.151 203.752,-116.91 214.12,-119.092 213.218,-112.151"/>
</g>
<!-- Node6 -->
<g id="node6" class="node"><title>Node6</title>
<g id="a_node6"><a xlink:href="../../d0/d17/classgame_authoring_1_1scenes_1_1path_building_1_1path_components_1_1route_to_point_translation_02993d587809a0174c9c81c680c3a1c8.html#a112d08c7563a9a6d9b371ea3c5fb0015" target="_top" xlink:title="gameAuthoring.scenes.path\lBuilding.pathComponents.routeTo\lPointTranslation.BackendRouteTranslation\lTests.testRoutesTranslation">
<polygon fill="white" stroke="black" points="251,-0 251,-52 465,-52 465,-0 251,-0"/>
<text text-anchor="start" x="259" y="-40" font-family="Helvetica,sans-Serif" font-size="10.00">gameAuthoring.scenes.path</text>
<text text-anchor="start" x="259" y="-29" font-family="Helvetica,sans-Serif" font-size="10.00">Building.pathComponents.routeTo</text>
<text text-anchor="start" x="259" y="-18" font-family="Helvetica,sans-Serif" font-size="10.00">PointTranslation.BackendRouteTranslation</text>
<text text-anchor="middle" x="358" y="-7" font-family="Helvetica,sans-Serif" font-size="10.00">Tests.testRoutesTranslation</text>
</a>
</g>
</g>
<!-- Node1&#45;&gt;Node6 -->
<g id="edge5" class="edge"><title>Node1&#45;&gt;Node6</title>
<path fill="none" stroke="midnightblue" d="M149.263,-104.69C175.421,-90.9803 209.003,-74.3666 240,-62 248.685,-58.5349 257.841,-55.1974 267.05,-52.0461"/>
<polygon fill="midnightblue" stroke="midnightblue" points="147.544,-101.64 140.337,-109.407 150.814,-107.83 147.544,-101.64"/>
</g>
<!-- Node4 -->
<g id="node4" class="node"><title>Node4</title>
<g id="a_node4"><a xlink:href="../../db/d5b/classgame_authoring_1_1scenes_1_1path_building_1_1building_panes_1_1_line_drawing_pane.html#a1592c5e4b43e931037cfcf357896ff4e" target="_top" xlink:title="gameAuthoring.scenes.path\lBuilding.buildingPanes.LineDrawing\lPane.handleBuildScreenClick">
<polygon fill="white" stroke="black" points="512.5,-142.5 512.5,-183.5 695.5,-183.5 695.5,-142.5 512.5,-142.5"/>
<text text-anchor="start" x="520.5" y="-171.5" font-family="Helvetica,sans-Serif" font-size="10.00">gameAuthoring.scenes.path</text>
<text text-anchor="start" x="520.5" y="-160.5" font-family="Helvetica,sans-Serif" font-size="10.00">Building.buildingPanes.LineDrawing</text>
<text text-anchor="middle" x="604" y="-149.5" font-family="Helvetica,sans-Serif" font-size="10.00">Pane.handleBuildScreenClick</text>
</a>
</g>
</g>
<!-- Node3&#45;&gt;Node4 -->
<g id="edge3" class="edge"><title>Node3&#45;&gt;Node4</title>
<path fill="none" stroke="midnightblue" d="M469.941,-163C484.134,-163 498.528,-163 512.347,-163"/>
<polygon fill="midnightblue" stroke="midnightblue" points="469.653,-159.5 459.653,-163 469.653,-166.5 469.653,-159.5"/>
</g>
</g>
</svg>
