<?xml version="1.0" encoding="UTF-8" standalone="no"?>
<!DOCTYPE svg PUBLIC "-//W3C//DTD SVG 1.1//EN"
 "http://www.w3.org/Graphics/SVG/1.1/DTD/svg11.dtd">
<!-- Generated by graphviz version 2.36.0 (20140111.2315)
 -->
<!-- Title: gameAuthoring.scenes.pathBuilding.pathComponents.PathLine.PathLine Pages: 1 -->
<svg width="468pt" height="48pt"
 viewBox="0.00 0.00 468.00 48.00" xmlns="http://www.w3.org/2000/svg" xmlns:xlink="http://www.w3.org/1999/xlink">
<g id="graph0" class="graph" transform="scale(1 1) rotate(0) translate(4 44)">
<title>gameAuthoring.scenes.pathBuilding.pathComponents.PathLine.PathLine</title>
<polygon fill="white" stroke="none" points="-4,4 -4,-44 464,-44 464,4 -4,4"/>
<!-- Node1 -->
<g id="node1" class="node"><title>Node1</title>
<polygon fill="#bfbfbf" stroke="black" points="0.5,0.5 0.5,-40.5 187.5,-40.5 187.5,0.5 0.5,0.5"/>
<text text-anchor="start" x="8.5" y="-28.5" font-family="Helvetica,sans-Serif" font-size="10.00">gameAuthoring.scenes.path</text>
<text text-anchor="start" x="8.5" y="-17.5" font-family="Helvetica,sans-Serif" font-size="10.00">Building.pathComponents.PathLine.</text>
<text text-anchor="middle" x="94" y="-6.5" font-family="Helvetica,sans-Serif" font-size="10.00">PathLine</text>
</g>
<!-- Node2 -->
<g id="node2" class="node"><title>Node2</title>
<g id="a_node2"><a xlink:href="../../d3/de9/classgame_authoring_1_1scenes_1_1path_building_1_1path_components_1_1_path_line.html#abbce2a64c961f9fab00747b850318576" target="_top" xlink:title="gameAuthoring.scenes.path\lBuilding.pathComponents.PathLine.deepCopy">
<polygon fill="white" stroke="black" points="224.5,-5 224.5,-35 459.5,-35 459.5,-5 224.5,-5"/>
<text text-anchor="start" x="232.5" y="-23" font-family="Helvetica,sans-Serif" font-size="10.00">gameAuthoring.scenes.path</text>
<text text-anchor="middle" x="342" y="-12" font-family="Helvetica,sans-Serif" font-size="10.00">Building.pathComponents.PathLine.deepCopy</text>
</a>
</g>
</g>
<!-- Node1&#45;&gt;Node2 -->
<g id="edge1" class="edge"><title>Node1&#45;&gt;Node2</title>
<path fill="none" stroke="midnightblue" d="M197.851,-20C206.603,-20 215.495,-20 224.343,-20"/>
<polygon fill="midnightblue" stroke="midnightblue" points="197.652,-16.5001 187.652,-20 197.651,-23.5001 197.652,-16.5001"/>
</g>
</g>
</svg>
