<?xml version="1.0" encoding="UTF-8" standalone="no"?>
<!DOCTYPE svg PUBLIC "-//W3C//DTD SVG 1.1//EN"
 "http://www.w3.org/Graphics/SVG/1.1/DTD/svg11.dtd">
<!-- Generated by graphviz version 2.36.0 (20140111.2315)
 -->
<!-- Title: gameAuthoring.scenes.pathBuilding.pathComponents.PathLine.getLength Pages: 1 -->
<svg width="452pt" height="109pt"
 viewBox="0.00 0.00 452.00 109.00" xmlns="http://www.w3.org/2000/svg" xmlns:xlink="http://www.w3.org/1999/xlink">
<g id="graph0" class="graph" transform="scale(1 1) rotate(0) translate(4 105)">
<title>gameAuthoring.scenes.pathBuilding.pathComponents.PathLine.getLength</title>
<polygon fill="white" stroke="none" points="-4,4 -4,-105 448,-105 448,4 -4,4"/>
<!-- Node1 -->
<g id="node1" class="node"><title>Node1</title>
<polygon fill="#bfbfbf" stroke="black" points="0.5,-29.5 0.5,-70.5 203.5,-70.5 203.5,-29.5 0.5,-29.5"/>
<text text-anchor="start" x="8.5" y="-58.5" font-family="Helvetica,sans-Serif" font-size="10.00">gameAuthoring.scenes.path</text>
<text text-anchor="start" x="8.5" y="-47.5" font-family="Helvetica,sans-Serif" font-size="10.00">Building.pathComponents.PathLine.get</text>
<text text-anchor="middle" x="102" y="-36.5" font-family="Helvetica,sans-Serif" font-size="10.00">Length</text>
</g>
<!-- Node2 -->
<g id="node2" class="node"><title>Node2</title>
<g id="a_node2"><a xlink:href="../../d3/de9/classgame_authoring_1_1scenes_1_1path_building_1_1path_components_1_1_path_line.html#a3460e80c03faff7fb370f595d3243ca5" target="_top" xlink:title="gameAuthoring.scenes.path\lBuilding.pathComponents.PathLine.get\lEndingPoint">
<polygon fill="white" stroke="black" points="240.5,-59.5 240.5,-100.5 443.5,-100.5 443.5,-59.5 240.5,-59.5"/>
<text text-anchor="start" x="248.5" y="-88.5" font-family="Helvetica,sans-Serif" font-size="10.00">gameAuthoring.scenes.path</text>
<text text-anchor="start" x="248.5" y="-77.5" font-family="Helvetica,sans-Serif" font-size="10.00">Building.pathComponents.PathLine.get</text>
<text text-anchor="middle" x="342" y="-66.5" font-family="Helvetica,sans-Serif" font-size="10.00">EndingPoint</text>
</a>
</g>
</g>
<!-- Node1&#45;&gt;Node2 -->
<g id="edge1" class="edge"><title>Node1&#45;&gt;Node2</title>
<path fill="none" stroke="midnightblue" d="M203.588,-62.6792C212.437,-63.7946 221.426,-64.9276 230.351,-66.0526"/>
<polygon fill="midnightblue" stroke="midnightblue" points="230.031,-69.5399 240.39,-67.3181 230.906,-62.5948 230.031,-69.5399"/>
</g>
<!-- Node3 -->
<g id="node3" class="node"><title>Node3</title>
<g id="a_node3"><a xlink:href="../../d3/de9/classgame_authoring_1_1scenes_1_1path_building_1_1path_components_1_1_path_line.html#a1fc49ac4338ac115038bf124a2472f30" target="_top" xlink:title="gameAuthoring.scenes.path\lBuilding.pathComponents.PathLine.get\lStartingPoint">
<polygon fill="white" stroke="black" points="240.5,0.5 240.5,-40.5 443.5,-40.5 443.5,0.5 240.5,0.5"/>
<text text-anchor="start" x="248.5" y="-28.5" font-family="Helvetica,sans-Serif" font-size="10.00">gameAuthoring.scenes.path</text>
<text text-anchor="start" x="248.5" y="-17.5" font-family="Helvetica,sans-Serif" font-size="10.00">Building.pathComponents.PathLine.get</text>
<text text-anchor="middle" x="342" y="-6.5" font-family="Helvetica,sans-Serif" font-size="10.00">StartingPoint</text>
</a>
</g>
</g>
<!-- Node1&#45;&gt;Node3 -->
<g id="edge2" class="edge"><title>Node1&#45;&gt;Node3</title>
<path fill="none" stroke="midnightblue" d="M203.588,-37.3208C212.437,-36.2054 221.426,-35.0724 230.351,-33.9474"/>
<polygon fill="midnightblue" stroke="midnightblue" points="230.906,-37.4052 240.39,-32.6819 230.031,-30.4601 230.906,-37.4052"/>
</g>
</g>
</svg>
