<?xml version="1.0" encoding="UTF-8" standalone="no"?>
<!DOCTYPE svg PUBLIC "-//W3C//DTD SVG 1.1//EN"
 "http://www.w3.org/Graphics/SVG/1.1/DTD/svg11.dtd">
<!-- Generated by graphviz version 2.36.0 (20140111.2315)
 -->
<!-- Title: gamePlayer.guiItems.store.Store Pages: 1 -->
<svg width="696pt" height="255pt"
 viewBox="0.00 0.00 696.00 255.00" xmlns="http://www.w3.org/2000/svg" xmlns:xlink="http://www.w3.org/1999/xlink">
<g id="graph0" class="graph" transform="scale(1 1) rotate(0) translate(4 251)">
<title>gamePlayer.guiItems.store.Store</title>
<polygon fill="white" stroke="none" points="-4,4 -4,-251 692,-251 692,4 -4,4"/>
<!-- Node1 -->
<g id="node1" class="node"><title>Node1</title>
<polygon fill="#bfbfbf" stroke="black" points="540,-100 540,-130 688,-130 688,-100 540,-100"/>
<text text-anchor="start" x="548" y="-118" font-family="Helvetica,sans-Serif" font-size="10.00">gamePlayer.guiItems.store.</text>
<text text-anchor="middle" x="614" y="-107" font-family="Helvetica,sans-Serif" font-size="10.00">Store</text>
</g>
<!-- Node2 -->
<g id="node2" class="node"><title>Node2</title>
<g id="a_node2"><a xlink:href="../../de/d25/interfacegame_player_1_1gui_items_1_1_gui_item.html" target="_top" xlink:title="gamePlayer.guiItems.GuiItem">
<polygon fill="white" stroke="black" points="269,-222.5 269,-241.5 427,-241.5 427,-222.5 269,-222.5"/>
<text text-anchor="middle" x="348" y="-229.5" font-family="Helvetica,sans-Serif" font-size="10.00">gamePlayer.guiItems.GuiItem</text>
</a>
</g>
</g>
<!-- Node2&#45;&gt;Node1 -->
<g id="edge1" class="edge"><title>Node2&#45;&gt;Node1</title>
<path fill="none" stroke="midnightblue" d="M437.041,-222.104C465.215,-216.631 495.859,-208.145 522,-195 554.137,-178.84 583.943,-148.574 600.194,-130.257"/>
<polygon fill="midnightblue" stroke="midnightblue" points="436.391,-218.665 427.19,-223.918 437.658,-225.55 436.391,-218.665"/>
</g>
<!-- Node3 -->
<g id="node3" class="node"><title>Node3</title>
<g id="a_node3"><a xlink:href="../../d7/d02/interfacegame_player_1_1main_classes_1_1gui_builder_1_1_gui_element.html" target="_top" xlink:title="gamePlayer.mainClasses.gui\lBuilder.GuiElement">
<polygon fill="white" stroke="black" points="0,-217 0,-247 154,-247 154,-217 0,-217"/>
<text text-anchor="start" x="8" y="-235" font-family="Helvetica,sans-Serif" font-size="10.00">gamePlayer.mainClasses.gui</text>
<text text-anchor="middle" x="77" y="-224" font-family="Helvetica,sans-Serif" font-size="10.00">Builder.GuiElement</text>
</a>
</g>
</g>
<!-- Node3&#45;&gt;Node2 -->
<g id="edge2" class="edge"><title>Node3&#45;&gt;Node2</title>
<path fill="none" stroke="midnightblue" d="M164.271,-232C197.86,-232 236.075,-232 268.843,-232"/>
<polygon fill="midnightblue" stroke="midnightblue" points="164.006,-228.5 154.006,-232 164.006,-235.5 164.006,-228.5"/>
</g>
<!-- Node4 -->
<g id="node4" class="node"><title>Node4</title>
<g id="a_node4"><a xlink:href="../../d4/db7/interfacegame_player_1_1gui_items_listeners_1_1_store_listener.html" target="_top" xlink:title="gamePlayer.guiItemsListeners.\lStoreListener">
<polygon fill="white" stroke="black" points="266,-173 266,-203 430,-203 430,-173 266,-173"/>
<text text-anchor="start" x="274" y="-191" font-family="Helvetica,sans-Serif" font-size="10.00">gamePlayer.guiItemsListeners.</text>
<text text-anchor="middle" x="348" y="-180" font-family="Helvetica,sans-Serif" font-size="10.00">StoreListener</text>
</a>
</g>
</g>
<!-- Node4&#45;&gt;Node1 -->
<g id="edge3" class="edge"><title>Node4&#45;&gt;Node1</title>
<path fill="none" stroke="#9a32cd" stroke-dasharray="5,2" d="M440.206,-182.262C467.017,-178.877 496.092,-173.508 522,-165 547.005,-156.789 573.087,-141.681 590.884,-130.213"/>
<polygon fill="#9a32cd" stroke="#9a32cd" points="439.571,-178.812 430.052,-183.464 440.394,-185.764 439.571,-178.812"/>
<text text-anchor="middle" x="488" y="-183" font-family="Helvetica,sans-Serif" font-size="10.00"> myListener</text>
</g>
<!-- Node5 -->
<g id="node5" class="node"><title>Node5</title>
<polygon fill="white" stroke="#bfbfbf" points="307.5,-126.5 307.5,-145.5 388.5,-145.5 388.5,-126.5 307.5,-126.5"/>
<text text-anchor="middle" x="348" y="-133.5" font-family="Helvetica,sans-Serif" font-size="10.00">Dimension2D</text>
</g>
<!-- Node5&#45;&gt;Node1 -->
<g id="edge4" class="edge"><title>Node5&#45;&gt;Node1</title>
<path fill="none" stroke="#9a32cd" stroke-dasharray="5,2" d="M398.53,-132.06C438.376,-128.891 494.949,-124.39 539.988,-120.808"/>
<polygon fill="#9a32cd" stroke="#9a32cd" points="398.214,-128.574 388.523,-132.856 398.77,-135.552 398.214,-128.574"/>
<text text-anchor="middle" x="488" y="-153" font-family="Helvetica,sans-Serif" font-size="10.00"> myPaneSize</text>
<text text-anchor="middle" x="488" y="-142" font-family="Helvetica,sans-Serif" font-size="10.00">imageSize</text>
<text text-anchor="middle" x="488" y="-131" font-family="Helvetica,sans-Serif" font-size="10.00">buttonSize</text>
</g>
<!-- Node6 -->
<g id="node6" class="node"><title>Node6</title>
<g id="a_node6"><a xlink:href="../../df/db4/classutilities_1_1_x_m_l_parsing_1_1_x_m_l_parser.html" target="_top" xlink:title="utilities.XMLParsing.XMLParser">
<polygon fill="white" stroke="black" points="268,-88.5 268,-107.5 428,-107.5 428,-88.5 268,-88.5"/>
<text text-anchor="middle" x="348" y="-95.5" font-family="Helvetica,sans-Serif" font-size="10.00">utilities.XMLParsing.XMLParser</text>
</a>
</g>
</g>
<!-- Node6&#45;&gt;Node1 -->
<g id="edge5" class="edge"><title>Node6&#45;&gt;Node1</title>
<path fill="none" stroke="#9a32cd" stroke-dasharray="5,2" d="M438.53,-95.6533C465.412,-95.7203 494.944,-96.5608 522,-99 527.751,-99.5185 533.685,-100.208 539.635,-101.009"/>
<polygon fill="#9a32cd" stroke="#9a32cd" points="438.364,-92.1534 428.368,-95.6638 438.372,-99.1534 438.364,-92.1534"/>
<text text-anchor="middle" x="488" y="-102" font-family="Helvetica,sans-Serif" font-size="10.00"> myParser</text>
</g>
<!-- Node7 -->
<g id="node7" class="node"><title>Node7</title>
<polygon fill="white" stroke="#bfbfbf" points="43.5,-88.5 43.5,-107.5 110.5,-107.5 110.5,-88.5 43.5,-88.5"/>
<text text-anchor="middle" x="77" y="-95.5" font-family="Helvetica,sans-Serif" font-size="10.00">Document</text>
</g>
<!-- Node7&#45;&gt;Node6 -->
<g id="edge6" class="edge"><title>Node7&#45;&gt;Node6</title>
<path fill="none" stroke="#9a32cd" stroke-dasharray="5,2" d="M120.787,-98C160.234,-98 219.777,-98 267.874,-98"/>
<polygon fill="#9a32cd" stroke="#9a32cd" points="120.716,-94.5001 110.716,-98 120.716,-101.5 120.716,-94.5001"/>
<text text-anchor="middle" x="207" y="-101" font-family="Helvetica,sans-Serif" font-size="10.00"> myDocument</text>
</g>
<!-- Node8 -->
<g id="node8" class="node"><title>Node8</title>
<polygon fill="white" stroke="#bfbfbf" points="260,-39 260,-69 436,-69 436,-39 260,-39"/>
<text text-anchor="start" x="268" y="-57" font-family="Helvetica,sans-Serif" font-size="10.00">List&lt; gamePlayer.guiItems.store.</text>
<text text-anchor="middle" x="348" y="-46" font-family="Helvetica,sans-Serif" font-size="10.00">StoreItem &gt;</text>
</g>
<!-- Node8&#45;&gt;Node1 -->
<g id="edge7" class="edge"><title>Node8&#45;&gt;Node1</title>
<path fill="none" stroke="#9a32cd" stroke-dasharray="5,2" d="M446.542,-65.6844C471.357,-69.6216 497.835,-74.6699 522,-81 540.762,-85.9147 561.031,-93.275 577.667,-99.8918"/>
<polygon fill="#9a32cd" stroke="#9a32cd" points="446.806,-62.184 436.39,-64.1199 445.74,-69.1023 446.806,-62.184"/>
<text text-anchor="middle" x="488" y="-84" font-family="Helvetica,sans-Serif" font-size="10.00"> storeItemList</text>
</g>
<!-- Node9 -->
<g id="node9" class="node"><title>Node9</title>
<polygon fill="white" stroke="#bfbfbf" points="320,-0.5 320,-19.5 376,-19.5 376,-0.5 320,-0.5"/>
<text text-anchor="middle" x="348" y="-7.5" font-family="Helvetica,sans-Serif" font-size="10.00">TilePane</text>
</g>
<!-- Node9&#45;&gt;Node1 -->
<g id="edge8" class="edge"><title>Node9&#45;&gt;Node1</title>
<path fill="none" stroke="#9a32cd" stroke-dasharray="5,2" d="M386.212,-15.028C422.213,-20.8527 477.682,-32.4001 522,-53 549.044,-65.5705 576.92,-85.8437 594.571,-99.7639"/>
<polygon fill="#9a32cd" stroke="#9a32cd" points="386.568,-11.5414 376.15,-13.4672 385.495,-18.4587 386.568,-11.5414"/>
<text text-anchor="middle" x="488" y="-56" font-family="Helvetica,sans-Serif" font-size="10.00"> myTilePane</text>
</g>
</g>
</svg>
