<?xml version="1.0" encoding="UTF-8" standalone="no"?>
<!DOCTYPE svg PUBLIC "-//W3C//DTD SVG 1.1//EN"
 "http://www.w3.org/Graphics/SVG/1.1/DTD/svg11.dtd">
<!-- Generated by graphviz version 2.36.0 (20140111.2315)
 -->
<!-- Title: gameEngine.actors.BaseEnemy.BaseEnemy Pages: 1 -->
<svg width="1896pt" height="244pt"
 viewBox="0.00 0.00 1896.00 244.00" xmlns="http://www.w3.org/2000/svg" xmlns:xlink="http://www.w3.org/1999/xlink">
<g id="graph0" class="graph" transform="scale(1 1) rotate(0) translate(4 240)">
<title>gameEngine.actors.BaseEnemy.BaseEnemy</title>
<polygon fill="white" stroke="none" points="-4,4 -4,-240 1892,-240 1892,4 -4,4"/>
<!-- Node1 -->
<g id="node1" class="node"><title>Node1</title>
<polygon fill="#bfbfbf" stroke="black" points="0.5,-97 0.5,-127 171.5,-127 171.5,-97 0.5,-97"/>
<text text-anchor="start" x="8.5" y="-115" font-family="Helvetica,sans-Serif" font-size="10.00">gameEngine.actors.BaseEnemy.</text>
<text text-anchor="middle" x="86" y="-104" font-family="Helvetica,sans-Serif" font-size="10.00">BaseEnemy</text>
</g>
<!-- Node2 -->
<g id="node2" class="node"><title>Node2</title>
<g id="a_node2"><a xlink:href="../../d4/d81/classgame_engine_1_1actors_1_1_base_enemy.html#adb93973e4e8e4da347747801642fcaf2" target="_top" xlink:title="gameEngine.actors.BaseEnemy.copy">
<polygon fill="white" stroke="black" points="208,-102.5 208,-121.5 402,-121.5 402,-102.5 208,-102.5"/>
<text text-anchor="middle" x="305" y="-109.5" font-family="Helvetica,sans-Serif" font-size="10.00">gameEngine.actors.BaseEnemy.copy</text>
</a>
</g>
</g>
<!-- Node1&#45;&gt;Node2 -->
<g id="edge1" class="edge"><title>Node1&#45;&gt;Node2</title>
<path fill="none" stroke="midnightblue" d="M181.643,-112C190.325,-112 199.128,-112 207.824,-112"/>
<polygon fill="midnightblue" stroke="midnightblue" points="181.519,-108.5 171.519,-112 181.519,-115.5 181.519,-108.5"/>
</g>
<!-- Node3 -->
<g id="node3" class="node"><title>Node3</title>
<g id="a_node3"><a xlink:href="../../d0/d94/classgame_engine_1_1_main_engine_manager.html#a9730cb1b41966ae46599b3c5ee2b670d" target="_top" xlink:title="gameEngine.MainEngineManager.load\lLevel">
<polygon fill="white" stroke="black" points="438.5,-97 438.5,-127 637.5,-127 637.5,-97 438.5,-97"/>
<text text-anchor="start" x="446.5" y="-115" font-family="Helvetica,sans-Serif" font-size="10.00">gameEngine.MainEngineManager.load</text>
<text text-anchor="middle" x="538" y="-104" font-family="Helvetica,sans-Serif" font-size="10.00">Level</text>
</a>
</g>
</g>
<!-- Node2&#45;&gt;Node3 -->
<g id="edge2" class="edge"><title>Node2&#45;&gt;Node3</title>
<path fill="none" stroke="midnightblue" d="M412.374,-112C420.999,-112 429.693,-112 438.26,-112"/>
<polygon fill="midnightblue" stroke="midnightblue" points="412.292,-108.5 402.292,-112 412.292,-115.5 412.292,-108.5"/>
</g>
<!-- Node4 -->
<g id="node4" class="node"><title>Node4</title>
<g id="a_node4"><a xlink:href="../../d0/d94/classgame_engine_1_1_main_engine_manager.html#aabfa2b7038b0fe0d1a5d0f1761740fbe" target="_top" xlink:title="gameEngine.MainEngineManager.load\lAuthoringLevel">
<polygon fill="white" stroke="black" points="674.5,-151 674.5,-181 873.5,-181 873.5,-151 674.5,-151"/>
<text text-anchor="start" x="682.5" y="-169" font-family="Helvetica,sans-Serif" font-size="10.00">gameEngine.MainEngineManager.load</text>
<text text-anchor="middle" x="774" y="-158" font-family="Helvetica,sans-Serif" font-size="10.00">AuthoringLevel</text>
</a>
</g>
</g>
<!-- Node3&#45;&gt;Node4 -->
<g id="edge3" class="edge"><title>Node3&#45;&gt;Node4</title>
<path fill="none" stroke="midnightblue" d="M614.22,-129.359C644.342,-136.31 678.717,-144.242 707.762,-150.945"/>
<polygon fill="midnightblue" stroke="midnightblue" points="614.713,-125.88 604.182,-127.042 613.139,-132.701 614.713,-125.88"/>
</g>
<!-- Node6 -->
<g id="node6" class="node"><title>Node6</title>
<g id="a_node6"><a xlink:href="../../d0/d94/classgame_engine_1_1_main_engine_manager.html#ac87a53b1ff4fa7c2f32846ad7d2f140b" target="_top" xlink:title="gameEngine.MainEngineManager.load\lNextLevel">
<polygon fill="white" stroke="black" points="674.5,-97 674.5,-127 873.5,-127 873.5,-97 674.5,-97"/>
<text text-anchor="start" x="682.5" y="-115" font-family="Helvetica,sans-Serif" font-size="10.00">gameEngine.MainEngineManager.load</text>
<text text-anchor="middle" x="774" y="-104" font-family="Helvetica,sans-Serif" font-size="10.00">NextLevel</text>
</a>
</g>
</g>
<!-- Node3&#45;&gt;Node6 -->
<g id="edge5" class="edge"><title>Node3&#45;&gt;Node6</title>
<path fill="none" stroke="midnightblue" d="M647.834,-112C656.621,-112 665.469,-112 674.18,-112"/>
<polygon fill="midnightblue" stroke="midnightblue" points="647.559,-108.5 637.559,-112 647.559,-115.5 647.559,-108.5"/>
</g>
<!-- Node20 -->
<g id="node20" class="node"><title>Node20</title>
<g id="a_node20"><a xlink:href="../../d0/d94/classgame_engine_1_1_main_engine_manager.html#a877d3b0d8eeb5a117fe7043df349d101" target="_top" xlink:title="gameEngine.MainEngineManager.load\lState">
<polygon fill="white" stroke="black" points="674.5,-37 674.5,-67 873.5,-67 873.5,-37 674.5,-37"/>
<text text-anchor="start" x="682.5" y="-55" font-family="Helvetica,sans-Serif" font-size="10.00">gameEngine.MainEngineManager.load</text>
<text text-anchor="middle" x="774" y="-44" font-family="Helvetica,sans-Serif" font-size="10.00">State</text>
</a>
</g>
</g>
<!-- Node3&#45;&gt;Node20 -->
<g id="edge19" class="edge"><title>Node3&#45;&gt;Node20</title>
<path fill="none" stroke="midnightblue" d="M607.563,-94.4198C641.408,-85.7416 681.819,-75.3796 714.23,-67.0693"/>
<polygon fill="midnightblue" stroke="midnightblue" points="606.563,-91.0628 597.746,-96.9369 608.302,-97.8434 606.563,-91.0628"/>
</g>
<!-- Node5 -->
<g id="node5" class="node"><title>Node5</title>
<g id="a_node5"><a xlink:href="../../da/d10/classgame_authoring_1_1scenes_1_1level_building_1_1_level_display_cell.html#a7c364973b2428267a31e0a8e7be0238f" target="_top" xlink:title="gameAuthoring.scenes.level\lBuilding.LevelDisplayCell.Level\lDisplayCell">
<polygon fill="white" stroke="black" points="952.5,-151.5 952.5,-192.5 1113.5,-192.5 1113.5,-151.5 952.5,-151.5"/>
<text text-anchor="start" x="960.5" y="-180.5" font-family="Helvetica,sans-Serif" font-size="10.00">gameAuthoring.scenes.level</text>
<text text-anchor="start" x="960.5" y="-169.5" font-family="Helvetica,sans-Serif" font-size="10.00">Building.LevelDisplayCell.Level</text>
<text text-anchor="middle" x="1033" y="-158.5" font-family="Helvetica,sans-Serif" font-size="10.00">DisplayCell</text>
</a>
</g>
</g>
<!-- Node4&#45;&gt;Node5 -->
<g id="edge4" class="edge"><title>Node4&#45;&gt;Node5</title>
<path fill="none" stroke="midnightblue" d="M883.777,-168.54C906.788,-169.077 930.663,-169.634 952.356,-170.141"/>
<polygon fill="midnightblue" stroke="midnightblue" points="883.707,-165.037 873.628,-168.303 883.543,-172.035 883.707,-165.037"/>
</g>
<!-- Node7 -->
<g id="node7" class="node"><title>Node7</title>
<g id="a_node7"><a xlink:href="../../d0/d94/classgame_engine_1_1_main_engine_manager.html#a3677f4b740d81288c36309962d323265" target="_top" xlink:title="gameEngine.MainEngineManager.initializeGame">
<polygon fill="white" stroke="black" points="910,-113.5 910,-132.5 1156,-132.5 1156,-113.5 910,-113.5"/>
<text text-anchor="middle" x="1033" y="-120.5" font-family="Helvetica,sans-Serif" font-size="10.00">gameEngine.MainEngineManager.initializeGame</text>
</a>
</g>
</g>
<!-- Node6&#45;&gt;Node7 -->
<g id="edge6" class="edge"><title>Node6&#45;&gt;Node7</title>
<path fill="none" stroke="midnightblue" d="M883.736,-116.654C892.404,-117.025 901.194,-117.401 909.945,-117.776"/>
<polygon fill="midnightblue" stroke="midnightblue" points="883.768,-113.152 873.628,-116.221 883.469,-120.146 883.768,-113.152"/>
</g>
<!-- Node16 -->
<g id="node16" class="node"><title>Node16</title>
<g id="a_node16"><a xlink:href="../../d0/d94/classgame_engine_1_1_main_engine_manager.html#afd86188ac12b9cc28f5d05d7a7350af0" target="_top" xlink:title="gameEngine.MainEngineManager.on\lLevelEnd">
<polygon fill="white" stroke="black" points="937.5,-64 937.5,-94 1128.5,-94 1128.5,-64 937.5,-64"/>
<text text-anchor="start" x="945.5" y="-82" font-family="Helvetica,sans-Serif" font-size="10.00">gameEngine.MainEngineManager.on</text>
<text text-anchor="middle" x="1033" y="-71" font-family="Helvetica,sans-Serif" font-size="10.00">LevelEnd</text>
</a>
</g>
</g>
<!-- Node6&#45;&gt;Node16 -->
<g id="edge15" class="edge"><title>Node6&#45;&gt;Node16</title>
<path fill="none" stroke="midnightblue" d="M884.019,-98.0014C901.786,-95.7201 920.061,-93.3735 937.443,-91.1415"/>
<polygon fill="midnightblue" stroke="midnightblue" points="883.101,-94.5905 873.628,-99.3357 883.992,-101.534 883.101,-94.5905"/>
</g>
<!-- Node8 -->
<g id="node8" class="node"><title>Node8</title>
<g id="a_node8"><a xlink:href="../../da/d69/classgame_player_1_1main_classes_1_1managers_1_1_gui_manager.html#a02a63a3d495b31cce0c4976f95758a49" target="_top" xlink:title="gamePlayer.mainClasses.managers.\lGuiManager.startGame">
<polygon fill="white" stroke="black" points="1199.5,-181 1199.5,-211 1390.5,-211 1390.5,-181 1199.5,-181"/>
<text text-anchor="start" x="1207.5" y="-199" font-family="Helvetica,sans-Serif" font-size="10.00">gamePlayer.mainClasses.managers.</text>
<text text-anchor="middle" x="1295" y="-188" font-family="Helvetica,sans-Serif" font-size="10.00">GuiManager.startGame</text>
</a>
</g>
</g>
<!-- Node7&#45;&gt;Node8 -->
<g id="edge7" class="edge"><title>Node7&#45;&gt;Node8</title>
<path fill="none" stroke="midnightblue" d="M1122.05,-134.357C1133.55,-136.528 1145.12,-139.061 1156,-142 1193.13,-152.027 1233.96,-168.759 1261.5,-180.945"/>
<polygon fill="midnightblue" stroke="midnightblue" points="1122.44,-130.871 1111.98,-132.542 1121.2,-137.76 1122.44,-130.871"/>
</g>
<!-- Node10 -->
<g id="node10" class="node"><title>Node10</title>
<g id="a_node10"><a xlink:href="../../da/d69/classgame_player_1_1main_classes_1_1managers_1_1_gui_manager.html#aa9b035d2a17b73719ca8a26d8ebde9ce" target="_top" xlink:title="gamePlayer.mainClasses.managers.\lGuiManager.startSinglePlayerGame">
<polygon fill="white" stroke="black" points="1199.5,-108 1199.5,-138 1390.5,-138 1390.5,-108 1199.5,-108"/>
<text text-anchor="start" x="1207.5" y="-126" font-family="Helvetica,sans-Serif" font-size="10.00">gamePlayer.mainClasses.managers.</text>
<text text-anchor="middle" x="1295" y="-115" font-family="Helvetica,sans-Serif" font-size="10.00">GuiManager.startSinglePlayerGame</text>
</a>
</g>
</g>
<!-- Node7&#45;&gt;Node10 -->
<g id="edge9" class="edge"><title>Node7&#45;&gt;Node10</title>
<path fill="none" stroke="midnightblue" d="M1166.22,-123C1177.35,-123 1188.46,-123 1199.22,-123"/>
<polygon fill="midnightblue" stroke="midnightblue" points="1166.01,-119.5 1156.01,-123 1166.01,-126.5 1166.01,-119.5"/>
</g>
<!-- Node9 -->
<g id="node9" class="node"><title>Node9</title>
<g id="a_node9"><a xlink:href="../../da/d69/classgame_player_1_1main_classes_1_1managers_1_1_gui_manager.html#a287842e1d39b7ecf2e13befeeafa1a7b" target="_top" xlink:title="gamePlayer.mainClasses.managers.\lGuiManager.loadGame">
<polygon fill="white" stroke="black" points="1445.5,-206 1445.5,-236 1636.5,-236 1636.5,-206 1445.5,-206"/>
<text text-anchor="start" x="1453.5" y="-224" font-family="Helvetica,sans-Serif" font-size="10.00">gamePlayer.mainClasses.managers.</text>
<text text-anchor="middle" x="1541" y="-213" font-family="Helvetica,sans-Serif" font-size="10.00">GuiManager.loadGame</text>
</a>
</g>
</g>
<!-- Node8&#45;&gt;Node9 -->
<g id="edge8" class="edge"><title>Node8&#45;&gt;Node9</title>
<path fill="none" stroke="midnightblue" d="M1400.86,-206.744C1415.65,-208.259 1430.78,-209.81 1445.37,-211.304"/>
<polygon fill="midnightblue" stroke="midnightblue" points="1400.99,-203.239 1390.69,-205.701 1400.28,-210.203 1400.99,-203.239"/>
</g>
<!-- Node11 -->
<g id="node11" class="node"><title>Node11</title>
<g id="a_node11"><a xlink:href="../../da/d69/classgame_player_1_1main_classes_1_1managers_1_1_gui_manager.html#a3f657f0e3ba1e493d2dd02b5df5e03f6" target="_top" xlink:title="gamePlayer.mainClasses.managers.\lGuiManager.replayGame">
<polygon fill="white" stroke="black" points="1445.5,-157 1445.5,-187 1636.5,-187 1636.5,-157 1445.5,-157"/>
<text text-anchor="start" x="1453.5" y="-175" font-family="Helvetica,sans-Serif" font-size="10.00">gamePlayer.mainClasses.managers.</text>
<text text-anchor="middle" x="1541" y="-164" font-family="Helvetica,sans-Serif" font-size="10.00">GuiManager.replayGame</text>
</a>
</g>
</g>
<!-- Node10&#45;&gt;Node11 -->
<g id="edge10" class="edge"><title>Node10&#45;&gt;Node11</title>
<path fill="none" stroke="midnightblue" d="M1380.85,-140.04C1408.33,-145.558 1438.59,-151.634 1465.28,-156.994"/>
<polygon fill="midnightblue" stroke="midnightblue" points="1381.36,-136.572 1370.87,-138.035 1379.98,-143.435 1381.36,-136.572"/>
</g>
<!-- Node12 -->
<g id="node12" class="node"><title>Node12</title>
<g id="a_node12"><a xlink:href="../../d4/d3f/classgame_player_1_1main_classes_1_1managers_1_1_welcome_manager.html#a5da8d3f5b8bc1c4bd4c555140bd9384c" target="_top" xlink:title="gamePlayer.mainClasses.managers.\lWelcomeManager.startSinglePlayerGame">
<polygon fill="white" stroke="black" points="1434,-108 1434,-138 1648,-138 1648,-108 1434,-108"/>
<text text-anchor="start" x="1442" y="-126" font-family="Helvetica,sans-Serif" font-size="10.00">gamePlayer.mainClasses.managers.</text>
<text text-anchor="middle" x="1541" y="-115" font-family="Helvetica,sans-Serif" font-size="10.00">WelcomeManager.startSinglePlayerGame</text>
</a>
</g>
</g>
<!-- Node10&#45;&gt;Node12 -->
<g id="edge11" class="edge"><title>Node10&#45;&gt;Node12</title>
<path fill="none" stroke="midnightblue" d="M1400.98,-123C1411.79,-123 1422.79,-123 1433.61,-123"/>
<polygon fill="midnightblue" stroke="midnightblue" points="1400.69,-119.5 1390.69,-123 1400.69,-126.5 1400.69,-119.5"/>
</g>
<!-- Node14 -->
<g id="node14" class="node"><title>Node14</title>
<g id="a_node14"><a xlink:href="../../d3/dee/classgame_player_1_1main_classes_1_1welcome_screen_1_1_game_start_manager.html#a0c44b3f25d2a30fe2e7aeca9da7161a9" target="_top" xlink:title="gamePlayer.mainClasses.welcome\lScreen.GameStartManager.startSingle\lPlayerGame">
<polygon fill="white" stroke="black" points="1439.5,-48.5 1439.5,-89.5 1642.5,-89.5 1642.5,-48.5 1439.5,-48.5"/>
<text text-anchor="start" x="1447.5" y="-77.5" font-family="Helvetica,sans-Serif" font-size="10.00">gamePlayer.mainClasses.welcome</text>
<text text-anchor="start" x="1447.5" y="-66.5" font-family="Helvetica,sans-Serif" font-size="10.00">Screen.GameStartManager.startSingle</text>
<text text-anchor="middle" x="1541" y="-55.5" font-family="Helvetica,sans-Serif" font-size="10.00">PlayerGame</text>
</a>
</g>
</g>
<!-- Node10&#45;&gt;Node14 -->
<g id="edge13" class="edge"><title>Node10&#45;&gt;Node14</title>
<path fill="none" stroke="midnightblue" d="M1373.82,-105.777C1397.2,-100.603 1423.08,-94.8753 1447.32,-89.5107"/>
<polygon fill="midnightblue" stroke="midnightblue" points="1372.98,-102.38 1363.97,-107.958 1374.49,-109.214 1372.98,-102.38"/>
</g>
<!-- Node13 -->
<g id="node13" class="node"><title>Node13</title>
<g id="a_node13"><a xlink:href="../../d4/d3f/classgame_player_1_1main_classes_1_1managers_1_1_welcome_manager.html#ae6495396aef63551116c0835c40574e1" target="_top" xlink:title="gamePlayer.mainClasses.managers.\lWelcomeManager.startGame">
<polygon fill="white" stroke="black" points="1690.5,-108 1690.5,-138 1881.5,-138 1881.5,-108 1690.5,-108"/>
<text text-anchor="start" x="1698.5" y="-126" font-family="Helvetica,sans-Serif" font-size="10.00">gamePlayer.mainClasses.managers.</text>
<text text-anchor="middle" x="1786" y="-115" font-family="Helvetica,sans-Serif" font-size="10.00">WelcomeManager.startGame</text>
</a>
</g>
</g>
<!-- Node12&#45;&gt;Node13 -->
<g id="edge12" class="edge"><title>Node12&#45;&gt;Node13</title>
<path fill="none" stroke="midnightblue" d="M1658.47,-123C1669.19,-123 1679.95,-123 1690.44,-123"/>
<polygon fill="midnightblue" stroke="midnightblue" points="1658.23,-119.5 1648.23,-123 1658.23,-126.5 1658.23,-119.5"/>
</g>
<!-- Node15 -->
<g id="node15" class="node"><title>Node15</title>
<g id="a_node15"><a xlink:href="../../d3/dee/classgame_player_1_1main_classes_1_1welcome_screen_1_1_game_start_manager.html#a4ac849399bf00c6df86f0db25ea95ed8" target="_top" xlink:title="gamePlayer.mainClasses.welcome\lScreen.GameStartManager.startGame">
<polygon fill="white" stroke="black" points="1684.5,-54 1684.5,-84 1887.5,-84 1887.5,-54 1684.5,-54"/>
<text text-anchor="start" x="1692.5" y="-72" font-family="Helvetica,sans-Serif" font-size="10.00">gamePlayer.mainClasses.welcome</text>
<text text-anchor="middle" x="1786" y="-61" font-family="Helvetica,sans-Serif" font-size="10.00">Screen.GameStartManager.startGame</text>
</a>
</g>
</g>
<!-- Node14&#45;&gt;Node15 -->
<g id="edge14" class="edge"><title>Node14&#45;&gt;Node15</title>
<path fill="none" stroke="midnightblue" d="M1652.7,-69C1663.29,-69 1674,-69 1684.48,-69"/>
<polygon fill="midnightblue" stroke="midnightblue" points="1652.59,-65.5001 1642.59,-69 1652.59,-72.5001 1652.59,-65.5001"/>
</g>
<!-- Node17 -->
<g id="node17" class="node"><title>Node17</title>
<g id="a_node17"><a xlink:href="../../d0/d94/classgame_engine_1_1_main_engine_manager.html#aa167e2a5e062c22e361f11a25db3c3ef" target="_top" xlink:title="gameEngine.MainEngineManager.game\lUpdate">
<polygon fill="white" stroke="black" points="1192,-30 1192,-60 1398,-60 1398,-30 1192,-30"/>
<text text-anchor="start" x="1200" y="-48" font-family="Helvetica,sans-Serif" font-size="10.00">gameEngine.MainEngineManager.game</text>
<text text-anchor="middle" x="1295" y="-37" font-family="Helvetica,sans-Serif" font-size="10.00">Update</text>
</a>
</g>
</g>
<!-- Node16&#45;&gt;Node17 -->
<g id="edge16" class="edge"><title>Node16&#45;&gt;Node17</title>
<path fill="none" stroke="midnightblue" d="M1138.77,-65.2993C1156.18,-63.0225 1174.22,-60.6635 1191.57,-58.3944"/>
<polygon fill="midnightblue" stroke="midnightblue" points="1138.06,-61.8618 1128.6,-66.629 1138.97,-68.8028 1138.06,-61.8618"/>
</g>
<!-- Node18 -->
<g id="node18" class="node"><title>Node18</title>
<g id="a_node18"><a xlink:href="../../d0/d94/classgame_engine_1_1_main_engine_manager.html#a0d381e03af0128b42e169322c2d1ca00" target="_top" xlink:title="gameEngine.MainEngineManager.create\lTimeline">
<polygon fill="white" stroke="black" points="1436.5,-0 1436.5,-30 1645.5,-30 1645.5,-0 1436.5,-0"/>
<text text-anchor="start" x="1444.5" y="-18" font-family="Helvetica,sans-Serif" font-size="10.00">gameEngine.MainEngineManager.create</text>
<text text-anchor="middle" x="1541" y="-7" font-family="Helvetica,sans-Serif" font-size="10.00">Timeline</text>
</a>
</g>
</g>
<!-- Node17&#45;&gt;Node18 -->
<g id="edge17" class="edge"><title>Node17&#45;&gt;Node18</title>
<path fill="none" stroke="midnightblue" d="M1408.21,-31.2037C1417.6,-30.0494 1427.06,-28.8855 1436.38,-27.7397"/>
<polygon fill="midnightblue" stroke="midnightblue" points="1407.56,-27.7569 1398.06,-32.4511 1408.42,-34.7046 1407.56,-27.7569"/>
</g>
<!-- Node19 -->
<g id="node19" class="node"><title>Node19</title>
<g id="a_node19"><a xlink:href="../../d0/d94/classgame_engine_1_1_main_engine_manager.html#aec2cd142182da8ef024078d42fb5bc23" target="_top" xlink:title="gameEngine.MainEngineManager.\lMainEngineManager">
<polygon fill="white" stroke="black" points="1696.5,-0 1696.5,-30 1875.5,-30 1875.5,-0 1696.5,-0"/>
<text text-anchor="start" x="1704.5" y="-18" font-family="Helvetica,sans-Serif" font-size="10.00">gameEngine.MainEngineManager.</text>
<text text-anchor="middle" x="1786" y="-7" font-family="Helvetica,sans-Serif" font-size="10.00">MainEngineManager</text>
</a>
</g>
</g>
<!-- Node18&#45;&gt;Node19 -->
<g id="edge18" class="edge"><title>Node18&#45;&gt;Node19</title>
<path fill="none" stroke="midnightblue" d="M1656.02,-15C1669.49,-15 1683.09,-15 1696.14,-15"/>
<polygon fill="midnightblue" stroke="midnightblue" points="1655.76,-11.5001 1645.76,-15 1655.76,-18.5001 1655.76,-11.5001"/>
</g>
<!-- Node21 -->
<g id="node21" class="node"><title>Node21</title>
<g id="a_node21"><a xlink:href="../../da/d69/classgame_player_1_1main_classes_1_1managers_1_1_gui_manager.html#a3c6a6b6581cd16f2c9e702ce936c217b" target="_top" xlink:title="gamePlayer.mainClasses.managers.\lGuiManager.loadState">
<polygon fill="white" stroke="black" points="937.5,-15 937.5,-45 1128.5,-45 1128.5,-15 937.5,-15"/>
<text text-anchor="start" x="945.5" y="-33" font-family="Helvetica,sans-Serif" font-size="10.00">gamePlayer.mainClasses.managers.</text>
<text text-anchor="middle" x="1033" y="-22" font-family="Helvetica,sans-Serif" font-size="10.00">GuiManager.loadState</text>
</a>
</g>
</g>
<!-- Node20&#45;&gt;Node21 -->
<g id="edge20" class="edge"><title>Node20&#45;&gt;Node21</title>
<path fill="none" stroke="midnightblue" d="M884.019,-42.6676C901.786,-41.1468 920.061,-39.5824 937.443,-38.0944"/>
<polygon fill="midnightblue" stroke="midnightblue" points="883.293,-39.2169 873.628,-43.5571 883.89,-46.1914 883.293,-39.2169"/>
</g>
</g>
</svg>
