<?xml version="1.0" encoding="UTF-8" standalone="no"?>
<!DOCTYPE svg PUBLIC "-//W3C//DTD SVG 1.1//EN"
 "http://www.w3.org/Graphics/SVG/1.1/DTD/svg11.dtd">
<!-- Generated by graphviz version 2.36.0 (20140111.2315)
 -->
<!-- Title: gameEngine.actors.BaseEnemy.BaseEnemy Pages: 1 -->
<svg width="674pt" height="48pt"
 viewBox="0.00 0.00 674.00 48.00" xmlns="http://www.w3.org/2000/svg" xmlns:xlink="http://www.w3.org/1999/xlink">
<g id="graph0" class="graph" transform="scale(1 1) rotate(0) translate(4 44)">
<title>gameEngine.actors.BaseEnemy.BaseEnemy</title>
<polygon fill="white" stroke="none" points="-4,4 -4,-44 670,-44 670,4 -4,4"/>
<!-- Node1 -->
<g id="node1" class="node"><title>Node1</title>
<polygon fill="#bfbfbf" stroke="black" points="0.5,-5 0.5,-35 171.5,-35 171.5,-5 0.5,-5"/>
<text text-anchor="start" x="8.5" y="-23" font-family="Helvetica,sans-Serif" font-size="10.00">gameEngine.actors.BaseEnemy.</text>
<text text-anchor="middle" x="86" y="-12" font-family="Helvetica,sans-Serif" font-size="10.00">BaseEnemy</text>
</g>
<!-- Node2 -->
<g id="node2" class="node"><title>Node2</title>
<g id="a_node2"><a xlink:href="../../d4/d81/classgame_engine_1_1actors_1_1_base_enemy.html#a41db5e3bf03c06bd5b17abbe8b82e5e2" target="_top" xlink:title="gameEngine.actors.BaseEnemy.initialize\lEnemy">
<polygon fill="white" stroke="black" points="208.5,-5 208.5,-35 417.5,-35 417.5,-5 208.5,-5"/>
<text text-anchor="start" x="216.5" y="-23" font-family="Helvetica,sans-Serif" font-size="10.00">gameEngine.actors.BaseEnemy.initialize</text>
<text text-anchor="middle" x="313" y="-12" font-family="Helvetica,sans-Serif" font-size="10.00">Enemy</text>
</a>
</g>
</g>
<!-- Node1&#45;&gt;Node2 -->
<g id="edge1" class="edge"><title>Node1&#45;&gt;Node2</title>
<path fill="none" stroke="midnightblue" d="M171.742,-20C180.431,-20 189.356,-20 198.29,-20"/>
<polygon fill="midnightblue" stroke="midnightblue" points="198.37,-23.5001 208.37,-20 198.37,-16.5001 198.37,-23.5001"/>
</g>
<!-- Node3 -->
<g id="node3" class="node"><title>Node3</title>
<g id="a_node3"><a xlink:href="../../d0/d61/classgame_authoring_1_1scenes_1_1path_building_1_1path_components_1_1route_to_point_translation_1_1_backend_route.html#a4decf5451f724697b0b0ba60cd230f6f" target="_top" xlink:title="gameAuthoring.scenes.path\lBuilding.pathComponents.routeTo\lPointTranslation.BackendRoute.getPoints">
<polygon fill="white" stroke="black" points="454.5,0.5 454.5,-40.5 665.5,-40.5 665.5,0.5 454.5,0.5"/>
<text text-anchor="start" x="462.5" y="-28.5" font-family="Helvetica,sans-Serif" font-size="10.00">gameAuthoring.scenes.path</text>
<text text-anchor="start" x="462.5" y="-17.5" font-family="Helvetica,sans-Serif" font-size="10.00">Building.pathComponents.routeTo</text>
<text text-anchor="middle" x="560" y="-6.5" font-family="Helvetica,sans-Serif" font-size="10.00">PointTranslation.BackendRoute.getPoints</text>
</a>
</g>
</g>
<!-- Node2&#45;&gt;Node3 -->
<g id="edge2" class="edge"><title>Node2&#45;&gt;Node3</title>
<path fill="none" stroke="midnightblue" d="M417.547,-20C426.371,-20 435.33,-20 444.235,-20"/>
<polygon fill="midnightblue" stroke="midnightblue" points="444.255,-23.5001 454.255,-20 444.255,-16.5001 444.255,-23.5001"/>
</g>
</g>
</svg>
