<?xml version="1.0" encoding="UTF-8" standalone="no"?>
<!DOCTYPE svg PUBLIC "-//W3C//DTD SVG 1.1//EN"
 "http://www.w3.org/Graphics/SVG/1.1/DTD/svg11.dtd">
<!-- Generated by graphviz version 2.36.0 (20140111.2315)
 -->
<!-- Title: utilities.JavaFXutilities.numericalTextFields.LabeledNumericalTextField.isValueEntered Pages: 1 -->
<svg width="684pt" height="48pt"
 viewBox="0.00 0.00 684.00 48.00" xmlns="http://www.w3.org/2000/svg" xmlns:xlink="http://www.w3.org/1999/xlink">
<g id="graph0" class="graph" transform="scale(1 1) rotate(0) translate(4 44)">
<title>utilities.JavaFXutilities.numericalTextFields.LabeledNumericalTextField.isValueEntered</title>
<polygon fill="white" stroke="none" points="-4,4 -4,-44 680,-44 680,4 -4,4"/>
<!-- Node1 -->
<g id="node1" class="node"><title>Node1</title>
<polygon fill="#bfbfbf" stroke="black" points="0.5,0.5 0.5,-40.5 201.5,-40.5 201.5,0.5 0.5,0.5"/>
<text text-anchor="start" x="8.5" y="-28.5" font-family="Helvetica,sans-Serif" font-size="10.00">utilities.JavaFXutilities.numerical</text>
<text text-anchor="start" x="8.5" y="-17.5" font-family="Helvetica,sans-Serif" font-size="10.00">TextFields.LabeledNumericalTextField.is</text>
<text text-anchor="middle" x="101" y="-6.5" font-family="Helvetica,sans-Serif" font-size="10.00">ValueEntered</text>
</g>
<!-- Node2 -->
<g id="node2" class="node"><title>Node2</title>
<g id="a_node2"><a xlink:href="../../dc/dc4/classutilities_1_1_java_f_xutilities_1_1numerical_text_fields_1_1_numerical_text_field.html#a93ab2c03308370bacb4cf17917e23d5f" target="_top" xlink:title="utilities.JavaFXutilities.numerical\lTextFields.NumericalTextField.isValue\lEntered">
<polygon fill="white" stroke="black" points="238,0.5 238,-40.5 428,-40.5 428,0.5 238,0.5"/>
<text text-anchor="start" x="246" y="-28.5" font-family="Helvetica,sans-Serif" font-size="10.00">utilities.JavaFXutilities.numerical</text>
<text text-anchor="start" x="246" y="-17.5" font-family="Helvetica,sans-Serif" font-size="10.00">TextFields.NumericalTextField.isValue</text>
<text text-anchor="middle" x="333" y="-6.5" font-family="Helvetica,sans-Serif" font-size="10.00">Entered</text>
</a>
</g>
</g>
<!-- Node1&#45;&gt;Node2 -->
<g id="edge1" class="edge"><title>Node1&#45;&gt;Node2</title>
<path fill="none" stroke="midnightblue" d="M201.544,-20C210.182,-20 218.94,-20 227.616,-20"/>
<polygon fill="midnightblue" stroke="midnightblue" points="227.752,-23.5001 237.752,-20 227.752,-16.5001 227.752,-23.5001"/>
</g>
<!-- Node3 -->
<g id="node3" class="node"><title>Node3</title>
<g id="a_node3"><a xlink:href="../../dc/dc4/classutilities_1_1_java_f_xutilities_1_1numerical_text_fields_1_1_numerical_text_field.html#a9845b092d6d88a4a2322ee2394eab870" target="_top" xlink:title="utilities.JavaFXutilities.numerical\lTextFields.NumericalTextField.getNumber">
<polygon fill="white" stroke="black" points="464.5,-5 464.5,-35 675.5,-35 675.5,-5 464.5,-5"/>
<text text-anchor="start" x="472.5" y="-23" font-family="Helvetica,sans-Serif" font-size="10.00">utilities.JavaFXutilities.numerical</text>
<text text-anchor="middle" x="570" y="-12" font-family="Helvetica,sans-Serif" font-size="10.00">TextFields.NumericalTextField.getNumber</text>
</a>
</g>
</g>
<!-- Node2&#45;&gt;Node3 -->
<g id="edge2" class="edge"><title>Node2&#45;&gt;Node3</title>
<path fill="none" stroke="midnightblue" d="M428.229,-20C436.765,-20 445.471,-20 454.158,-20"/>
<polygon fill="midnightblue" stroke="midnightblue" points="454.335,-23.5001 464.335,-20 454.335,-16.5001 454.335,-23.5001"/>
</g>
</g>
</svg>
