<?xml version="1.0" encoding="UTF-8" standalone="no"?>
<!DOCTYPE svg PUBLIC "-//W3C//DTD SVG 1.1//EN"
 "http://www.w3.org/Graphics/SVG/1.1/DTD/svg11.dtd">
<!-- Generated by graphviz version 2.36.0 (20140111.2315)
 -->
<!-- Title: gameEngine.AI.GridPathFinder.getNeighbors Pages: 1 -->
<svg width="372pt" height="87pt"
 viewBox="0.00 0.00 372.00 87.00" xmlns="http://www.w3.org/2000/svg" xmlns:xlink="http://www.w3.org/1999/xlink">
<g id="graph0" class="graph" transform="scale(1 1) rotate(0) translate(4 83)">
<title>gameEngine.AI.GridPathFinder.getNeighbors</title>
<polygon fill="white" stroke="none" points="-4,4 -4,-83 368,-83 368,4 -4,4"/>
<!-- Node1 -->
<g id="node1" class="node"><title>Node1</title>
<polygon fill="#bfbfbf" stroke="black" points="0.5,-24 0.5,-54 179.5,-54 179.5,-24 0.5,-24"/>
<text text-anchor="start" x="8.5" y="-42" font-family="Helvetica,sans-Serif" font-size="10.00">gameEngine.AI.GridPathFinder.get</text>
<text text-anchor="middle" x="90" y="-31" font-family="Helvetica,sans-Serif" font-size="10.00">Neighbors</text>
</g>
<!-- Node2 -->
<g id="node2" class="node"><title>Node2</title>
<g id="a_node2"><a xlink:href="../../da/df9/classgame_engine_1_1_data_1_1_tower_tile_grid.html#a036d8fa35ebde6f1b6394ffc10fafdba" target="_top" xlink:title="gameEngine.Data.TowerTile\lGrid.checkTowerTile">
<polygon fill="white" stroke="black" points="216,-49 216,-79 364,-79 364,-49 216,-49"/>
<text text-anchor="start" x="224" y="-67" font-family="Helvetica,sans-Serif" font-size="10.00">gameEngine.Data.TowerTile</text>
<text text-anchor="middle" x="290" y="-56" font-family="Helvetica,sans-Serif" font-size="10.00">Grid.checkTowerTile</text>
</a>
</g>
</g>
<!-- Node1&#45;&gt;Node2 -->
<g id="edge1" class="edge"><title>Node1&#45;&gt;Node2</title>
<path fill="none" stroke="midnightblue" d="M179.576,-50.1838C188.309,-51.2864 197.151,-52.4029 205.827,-53.4983"/>
<polygon fill="midnightblue" stroke="midnightblue" points="205.558,-56.9922 215.918,-54.7725 206.435,-50.0473 205.558,-56.9922"/>
</g>
<!-- Node3 -->
<g id="node3" class="node"><title>Node3</title>
<g id="a_node3"><a xlink:href="../../da/df9/classgame_engine_1_1_data_1_1_tower_tile_grid.html#a7ad8741fe494c85de0dcc01e7c5bafa3" target="_top" xlink:title="gameEngine.Data.TowerTile\lGrid.isInRange">
<polygon fill="white" stroke="black" points="216,-0 216,-30 364,-30 364,-0 216,-0"/>
<text text-anchor="start" x="224" y="-18" font-family="Helvetica,sans-Serif" font-size="10.00">gameEngine.Data.TowerTile</text>
<text text-anchor="middle" x="290" y="-7" font-family="Helvetica,sans-Serif" font-size="10.00">Grid.isInRange</text>
</a>
</g>
</g>
<!-- Node1&#45;&gt;Node3 -->
<g id="edge2" class="edge"><title>Node1&#45;&gt;Node3</title>
<path fill="none" stroke="midnightblue" d="M179.576,-28.2635C188.309,-27.205 197.151,-26.1332 205.827,-25.0816"/>
<polygon fill="midnightblue" stroke="midnightblue" points="206.412,-28.5364 215.918,-23.8584 205.57,-21.5872 206.412,-28.5364"/>
</g>
</g>
</svg>
