<?xml version="1.0" encoding="UTF-8" standalone="no"?>
<!DOCTYPE svg PUBLIC "-//W3C//DTD SVG 1.1//EN"
 "http://www.w3.org/Graphics/SVG/1.1/DTD/svg11.dtd">
<!-- Generated by graphviz version 2.36.0 (20140111.2315)
 -->
<!-- Title: gamePlayer.guiFeatures.FileLoader.load Pages: 1 -->
<svg width="638pt" height="93pt"
 viewBox="0.00 0.00 638.00 93.00" xmlns="http://www.w3.org/2000/svg" xmlns:xlink="http://www.w3.org/1999/xlink">
<g id="graph0" class="graph" transform="scale(1 1) rotate(0) translate(4 89)">
<title>gamePlayer.guiFeatures.FileLoader.load</title>
<polygon fill="white" stroke="none" points="-4,4 -4,-89 634,-89 634,4 -4,4"/>
<!-- Node1 -->
<g id="node1" class="node"><title>Node1</title>
<polygon fill="#bfbfbf" stroke="black" points="0.5,-24 0.5,-54 149.5,-54 149.5,-24 0.5,-24"/>
<text text-anchor="start" x="8.5" y="-42" font-family="Helvetica,sans-Serif" font-size="10.00">gamePlayer.guiFeatures.File</text>
<text text-anchor="middle" x="75" y="-31" font-family="Helvetica,sans-Serif" font-size="10.00">Loader.load</text>
</g>
<!-- Node2 -->
<g id="node2" class="node"><title>Node2</title>
<g id="a_node2"><a xlink:href="../../da/d69/classgame_player_1_1main_classes_1_1managers_1_1_gui_manager.html#a88fc9dbbb49ae2c8c56612297174961c" target="_top" xlink:title="gamePlayer.mainClasses.managers.\lGuiManager.changeTheme">
<polygon fill="white" stroke="black" points="186.5,-49 186.5,-79 377.5,-79 377.5,-49 186.5,-49"/>
<text text-anchor="start" x="194.5" y="-67" font-family="Helvetica,sans-Serif" font-size="10.00">gamePlayer.mainClasses.managers.</text>
<text text-anchor="middle" x="282" y="-56" font-family="Helvetica,sans-Serif" font-size="10.00">GuiManager.changeTheme</text>
</a>
</g>
</g>
<!-- Node1&#45;&gt;Node2 -->
<g id="edge1" class="edge"><title>Node1&#45;&gt;Node2</title>
<path fill="none" stroke="midnightblue" d="M159.812,-49.221C168.495,-50.2799 177.363,-51.3613 186.155,-52.4336"/>
<polygon fill="midnightblue" stroke="midnightblue" points="160.07,-45.7266 149.72,-47.9903 159.223,-52.6751 160.07,-45.7266"/>
</g>
<!-- Node4 -->
<g id="node4" class="node"><title>Node4</title>
<g id="a_node4"><a xlink:href="../../da/d69/classgame_player_1_1main_classes_1_1managers_1_1_gui_manager.html#a3c6a6b6581cd16f2c9e702ce936c217b" target="_top" xlink:title="gamePlayer.mainClasses.managers.\lGuiManager.loadState">
<polygon fill="white" stroke="black" points="186.5,-0 186.5,-30 377.5,-30 377.5,-0 186.5,-0"/>
<text text-anchor="start" x="194.5" y="-18" font-family="Helvetica,sans-Serif" font-size="10.00">gamePlayer.mainClasses.managers.</text>
<text text-anchor="middle" x="282" y="-7" font-family="Helvetica,sans-Serif" font-size="10.00">GuiManager.loadState</text>
</a>
</g>
</g>
<!-- Node1&#45;&gt;Node4 -->
<g id="edge3" class="edge"><title>Node1&#45;&gt;Node4</title>
<path fill="none" stroke="midnightblue" d="M159.812,-29.1878C168.495,-28.1713 177.363,-27.1331 186.155,-26.1038"/>
<polygon fill="midnightblue" stroke="midnightblue" points="159.245,-25.7302 149.72,-30.3694 160.059,-32.6827 159.245,-25.7302"/>
</g>
<!-- Node3 -->
<g id="node3" class="node"><title>Node3</title>
<g id="a_node3"><a xlink:href="../../d0/de6/classgame_player_1_1gui_items_1_1vooga_menu_bar_1_1menu_items_1_1_change_theme_menu_item.html#ad492dccdaadf2dc3ed098d28b959eb91" target="_top" xlink:title="gamePlayer.guiItems.vooga\lMenuBar.menuItems.ChangeThemeMenu\lItem.initialize">
<polygon fill="white" stroke="black" points="414.5,-43.5 414.5,-84.5 629.5,-84.5 629.5,-43.5 414.5,-43.5"/>
<text text-anchor="start" x="422.5" y="-72.5" font-family="Helvetica,sans-Serif" font-size="10.00">gamePlayer.guiItems.vooga</text>
<text text-anchor="start" x="422.5" y="-61.5" font-family="Helvetica,sans-Serif" font-size="10.00">MenuBar.menuItems.ChangeThemeMenu</text>
<text text-anchor="middle" x="522" y="-50.5" font-family="Helvetica,sans-Serif" font-size="10.00">Item.initialize</text>
</a>
</g>
</g>
<!-- Node2&#45;&gt;Node3 -->
<g id="edge2" class="edge"><title>Node2&#45;&gt;Node3</title>
<path fill="none" stroke="midnightblue" d="M387.99,-64C396.766,-64 405.644,-64 414.431,-64"/>
<polygon fill="midnightblue" stroke="midnightblue" points="387.748,-60.5001 377.748,-64 387.748,-67.5001 387.748,-60.5001"/>
</g>
</g>
</svg>
