<?xml version="1.0" encoding="UTF-8" standalone="no"?>
<!DOCTYPE svg PUBLIC "-//W3C//DTD SVG 1.1//EN"
 "http://www.w3.org/Graphics/SVG/1.1/DTD/svg11.dtd">
<!-- Generated by graphviz version 2.36.0 (20140111.2315)
 -->
<!-- Title: gamePlayer.unusedCodeWarehouse.guiItems.store.Store Pages: 1 -->
<!--zoomable 312 -->
<svg id="main" version="1.1" xmlns="http://www.w3.org/2000/svg" xmlns:xlink="http://www.w3.org/1999/xlink" xml:space="preserve" onload="init(evt)">
<style type="text/css"><![CDATA[
.edge:hover path { stroke: red; }
.edge:hover polygon { stroke: red; fill: red; }
]]></style>
<script type="text/javascript"><![CDATA[
var edges = document.getElementsByTagName('g');
if (edges && edges.length) {
  for (var i=0;i<edges.length;i++) {
    if (edges[i].id.substr(0,4)=='edge') {
      edges[i].setAttribute('class','edge');
    }
  }
}
]]></script>
        <defs>
                <circle id="rim" cx="0" cy="0" r="7"/>
                <circle id="rim2" cx="0" cy="0" r="3.5"/>
                <g id="zoomPlus">
                        <use xlink:href="#rim" fill="#404040">
                                <set attributeName="fill" to="#808080" begin="zoomplus.mouseover" end="zoomplus.mouseout"/>
                        </use>
                        <path d="M-4,0h8M0,-4v8" fill="none" stroke="white" stroke-width="1.5" pointer-events="none"/>
                </g>
                <g id="zoomMin">
                        <use xlink:href="#rim" fill="#404040">
                                <set attributeName="fill" to="#808080" begin="zoomminus.mouseover" end="zoomminus.mouseout"/>
                        </use>
                        <path d="M-4,0h8" fill="none" stroke="white" stroke-width="1.5" pointer-events="none"/>
                </g>
                <g id="dirArrow">
                        <path fill="none" stroke="white" stroke-width="1.5" d="M0,-3.0v7 M-2.5,-0.5L0,-3.0L2.5,-0.5"/>
                </g>
               <g id="resetDef">
                       <use xlink:href="#rim2" fill="#404040">
                               <set attributeName="fill" to="#808080" begin="reset.mouseover" end="reset.mouseout"/>
                       </use>
               </g>
        </defs>

<script type="text/javascript">
var viewWidth = 780;
var viewHeight = 312;
var sectionId = 'dynsection-1';
</script>
<script xlink:href="../../svgpan.js"/>
<svg id="graph" class="graph">
<g id="viewport">
<title>gamePlayer.unusedCodeWarehouse.guiItems.store.Store</title>
<polygon fill="white" stroke="none" points="-4,4 -4,-308 776,-308 776,4 -4,4"/>
<!-- Node1 -->
<g id="node1" class="node"><title>Node1</title>
<polygon fill="#bfbfbf" stroke="black" points="566,-131 566,-161 772,-161 772,-131 566,-131"/>
<text text-anchor="start" x="574" y="-149" font-family="Helvetica,sans-Serif" font-size="10.00">gamePlayer.unusedCodeWarehouse.gui</text>
<text text-anchor="middle" x="669" y="-138" font-family="Helvetica,sans-Serif" font-size="10.00">Items.store.Store</text>
</g>
<!-- Node1&#45;&gt;Node1 -->
<g id="edge11" class="edge"><title>Node1&#45;&gt;Node1</title>
<path fill="none" stroke="#9a32cd" stroke-dasharray="5,2" d="M640.994,-171.598C644.821,-175.97 654.156,-179 669,-179 694,-179 703.375,-170.406 697.125,-161.275"/>
<polygon fill="#9a32cd" stroke="#9a32cd" points="644.49,-171.234 640.875,-161.275 637.491,-171.315 644.49,-171.234"/>
<text text-anchor="middle" x="669" y="-182" font-family="Helvetica,sans-Serif" font-size="10.00"> myReference</text>
</g>
<!-- Node2 -->
<g id="node2" class="node"><title>Node2</title>
<g id="a_node2"><a xlink:href="../../de/d25/interfacegame_player_1_1gui_items_1_1_gui_item.html" target="_top" xlink:title="gamePlayer.guiItems.GuiItem">
<polygon fill="white" stroke="black" points="277,-279.5 277,-298.5 435,-298.5 435,-279.5 277,-279.5"/>
<text text-anchor="middle" x="356" y="-286.5" font-family="Helvetica,sans-Serif" font-size="10.00">gamePlayer.guiItems.GuiItem</text>
</a>
</g>
</g>
<!-- Node2&#45;&gt;Node1 -->
<g id="edge1" class="edge"><title>Node2&#45;&gt;Node1</title>
<path fill="none" stroke="midnightblue" d="M422.069,-277.234C432.184,-274.851 442.443,-272.107 452,-269 496.461,-254.546 507.075,-248.601 548,-226 584.385,-205.907 624.039,-178.234 647.425,-161.261"/>
<polygon fill="midnightblue" stroke="midnightblue" points="421.019,-273.883 412.033,-279.496 422.558,-280.712 421.019,-273.883"/>
</g>
<!-- Node3 -->
<g id="node3" class="node"><title>Node3</title>
<g id="a_node3"><a xlink:href="../../d7/d02/interfacegame_player_1_1main_classes_1_1gui_builder_1_1_gui_element.html" target="_top" xlink:title="gamePlayer.mainClasses.gui\lBuilder.GuiElement">
<polygon fill="white" stroke="black" points="0,-274 0,-304 154,-304 154,-274 0,-274"/>
<text text-anchor="start" x="8" y="-292" font-family="Helvetica,sans-Serif" font-size="10.00">gamePlayer.mainClasses.gui</text>
<text text-anchor="middle" x="77" y="-281" font-family="Helvetica,sans-Serif" font-size="10.00">Builder.GuiElement</text>
</a>
</g>
</g>
<!-- Node3&#45;&gt;Node2 -->
<g id="edge2" class="edge"><title>Node3&#45;&gt;Node2</title>
<path fill="none" stroke="midnightblue" d="M164.514,-289C200.398,-289 241.728,-289 276.7,-289"/>
<polygon fill="midnightblue" stroke="midnightblue" points="164.058,-285.5 154.058,-289 164.058,-292.5 164.058,-285.5"/>
</g>
<!-- Node4 -->
<g id="node4" class="node"><title>Node4</title>
<g id="a_node4"><a xlink:href="../../d2/d0c/interfacegame_player_1_1unused_code_warehouse_1_1_select_tower_listener.html" target="_top" xlink:title="gamePlayer.unusedCodeWarehouse.\lSelectTowerListener">
<polygon fill="white" stroke="black" points="260.5,-230 260.5,-260 451.5,-260 451.5,-230 260.5,-230"/>
<text text-anchor="start" x="268.5" y="-248" font-family="Helvetica,sans-Serif" font-size="10.00">gamePlayer.unusedCodeWarehouse.</text>
<text text-anchor="middle" x="356" y="-237" font-family="Helvetica,sans-Serif" font-size="10.00">SelectTowerListener</text>
</a>
</g>
</g>
<!-- Node4&#45;&gt;Node1 -->
<g id="edge3" class="edge"><title>Node4&#45;&gt;Node1</title>
<path fill="none" stroke="midnightblue" d="M445.953,-227.753C478.451,-220.485 515.255,-211.111 548,-200 579.802,-189.209 614.649,-173.006 638.557,-161.164"/>
<polygon fill="midnightblue" stroke="midnightblue" points="445.029,-224.373 436.015,-229.941 446.534,-231.209 445.029,-224.373"/>
</g>
<!-- Node5 -->
<g id="node5" class="node"><title>Node5</title>
<polygon fill="white" stroke="#bfbfbf" points="335.5,-191.5 335.5,-210.5 376.5,-210.5 376.5,-191.5 335.5,-191.5"/>
<text text-anchor="middle" x="356" y="-198.5" font-family="Helvetica,sans-Serif" font-size="10.00">VBox</text>
</g>
<!-- Node5&#45;&gt;Node1 -->
<g id="edge4" class="edge"><title>Node5&#45;&gt;Node1</title>
<path fill="none" stroke="#9a32cd" stroke-dasharray="5,2" d="M386.859,-197.057C424.532,-191.946 491.258,-182.444 548,-172 565.61,-168.759 584.584,-164.845 602.13,-161.049"/>
<polygon fill="#9a32cd" stroke="#9a32cd" points="386.034,-193.636 376.59,-198.439 386.967,-200.574 386.034,-193.636"/>
<text text-anchor="middle" x="509" y="-188" font-family="Helvetica,sans-Serif" font-size="10.00"> myContainer</text>
</g>
<!-- Node6 -->
<g id="node6" class="node"><title>Node6</title>
<polygon fill="white" stroke="#bfbfbf" points="323,-153.5 323,-172.5 389,-172.5 389,-153.5 323,-153.5"/>
<text text-anchor="middle" x="356" y="-160.5" font-family="Helvetica,sans-Serif" font-size="10.00">ScrollPane</text>
</g>
<!-- Node6&#45;&gt;Node1 -->
<g id="edge5" class="edge"><title>Node6&#45;&gt;Node1</title>
<path fill="none" stroke="#9a32cd" stroke-dasharray="5,2" d="M399.108,-160.698C441.65,-158.373 509.004,-154.691 565.657,-151.594"/>
<polygon fill="#9a32cd" stroke="#9a32cd" points="398.905,-157.204 389.111,-161.245 399.287,-164.194 398.905,-157.204"/>
<text text-anchor="middle" x="509" y="-160" font-family="Helvetica,sans-Serif" font-size="10.00"> myScrollPane</text>
</g>
<!-- Node7 -->
<g id="node7" class="node"><title>Node7</title>
<polygon fill="white" stroke="#bfbfbf" points="335,-115.5 335,-134.5 377,-134.5 377,-115.5 335,-115.5"/>
<text text-anchor="middle" x="356" y="-122.5" font-family="Helvetica,sans-Serif" font-size="10.00">Node</text>
</g>
<!-- Node7&#45;&gt;Node1 -->
<g id="edge6" class="edge"><title>Node7&#45;&gt;Node1</title>
<path fill="none" stroke="#9a32cd" stroke-dasharray="5,2" d="M387.563,-127.064C428.607,-129.835 503.559,-134.896 565.655,-139.089"/>
<polygon fill="#9a32cd" stroke="#9a32cd" points="387.619,-123.56 377.406,-126.378 387.147,-130.544 387.619,-123.56"/>
<text text-anchor="middle" x="509" y="-141" font-family="Helvetica,sans-Serif" font-size="10.00"> myHeader</text>
</g>
<!-- Node8 -->
<g id="node8" class="node"><title>Node8</title>
<polygon fill="white" stroke="#bfbfbf" points="315.5,-76.5 315.5,-95.5 396.5,-95.5 396.5,-76.5 315.5,-76.5"/>
<text text-anchor="middle" x="356" y="-83.5" font-family="Helvetica,sans-Serif" font-size="10.00">Dimension2D</text>
</g>
<!-- Node8&#45;&gt;Node1 -->
<g id="edge7" class="edge"><title>Node8&#45;&gt;Node1</title>
<path fill="none" stroke="#9a32cd" stroke-dasharray="5,2" d="M406.861,-89.1104C445.651,-92.1618 500.658,-97.8759 548,-108 574.819,-113.735 604.182,-122.98 627.15,-130.915"/>
<polygon fill="#9a32cd" stroke="#9a32cd" points="407.103,-85.6188 396.867,-88.3549 406.575,-92.5989 407.103,-85.6188"/>
<text text-anchor="middle" x="509" y="-122" font-family="Helvetica,sans-Serif" font-size="10.00"> myContentSize</text>
<text text-anchor="middle" x="509" y="-111" font-family="Helvetica,sans-Serif" font-size="10.00">myCellSize</text>
</g>
<!-- Node9 -->
<g id="node9" class="node"><title>Node9</title>
<polygon fill="white" stroke="#bfbfbf" points="326.5,-38.5 326.5,-57.5 385.5,-57.5 385.5,-38.5 326.5,-38.5"/>
<text text-anchor="middle" x="356" y="-45.5" font-family="Helvetica,sans-Serif" font-size="10.00">GridPane</text>
</g>
<!-- Node9&#45;&gt;Node1 -->
<g id="edge8" class="edge"><title>Node9&#45;&gt;Node1</title>
<path fill="none" stroke="#9a32cd" stroke-dasharray="5,2" d="M395.726,-51.3013C434.96,-55.4713 496.975,-64.3481 548,-82 583.702,-94.351 621.651,-116.263 645.093,-130.961"/>
<polygon fill="#9a32cd" stroke="#9a32cd" points="395.836,-47.7947 385.535,-50.2699 395.131,-54.7591 395.836,-47.7947"/>
<text text-anchor="middle" x="509" y="-85" font-family="Helvetica,sans-Serif" font-size="10.00"> myGridPane</text>
</g>
<!-- Node10 -->
<g id="node10" class="node"><title>Node10</title>
<g id="a_node10"><a xlink:href="../../df/db4/classutilities_1_1_x_m_l_parsing_1_1_x_m_l_parser.html" target="_top" xlink:title="utilities.XMLParsing.XMLParser">
<polygon fill="white" stroke="black" points="276,-0.5 276,-19.5 436,-19.5 436,-0.5 276,-0.5"/>
<text text-anchor="middle" x="356" y="-7.5" font-family="Helvetica,sans-Serif" font-size="10.00">utilities.XMLParsing.XMLParser</text>
</a>
</g>
</g>
<!-- Node10&#45;&gt;Node1 -->
<g id="edge9" class="edge"><title>Node10&#45;&gt;Node1</title>
<path fill="none" stroke="#9a32cd" stroke-dasharray="5,2" d="M446.506,-18.6032C479.532,-24.1206 516.545,-33.1683 548,-48 591.792,-68.6489 633.328,-108.71 654.13,-130.676"/>
<polygon fill="#9a32cd" stroke="#9a32cd" points="446.819,-15.1093 436.395,-17.0018 445.724,-22.0231 446.819,-15.1093"/>
<text text-anchor="middle" x="509" y="-51" font-family="Helvetica,sans-Serif" font-size="10.00"> myParser</text>
</g>
<!-- Node11 -->
<g id="node11" class="node"><title>Node11</title>
<polygon fill="white" stroke="#bfbfbf" points="43.5,-0.5 43.5,-19.5 110.5,-19.5 110.5,-0.5 43.5,-0.5"/>
<text text-anchor="middle" x="77" y="-7.5" font-family="Helvetica,sans-Serif" font-size="10.00">Document</text>
</g>
<!-- Node11&#45;&gt;Node10 -->
<g id="edge10" class="edge"><title>Node11&#45;&gt;Node10</title>
<path fill="none" stroke="#9a32cd" stroke-dasharray="5,2" d="M120.827,-10C162.041,-10 225.356,-10 275.763,-10"/>
<polygon fill="#9a32cd" stroke="#9a32cd" points="120.59,-6.5001 110.59,-10 120.59,-13.5001 120.59,-6.5001"/>
<text text-anchor="middle" x="207" y="-13" font-family="Helvetica,sans-Serif" font-size="10.00"> myDocument</text>
</g>
</g>
</svg>
        <g id="navigator" transform="translate(0 0)" fill="#404254">
                <rect fill="#f2f5e9" fill-opacity="0.5" stroke="#606060" stroke-width=".5" x="0" y="0" width="60" height="60"/>
                <use id="zoomplus" xlink:href="#zoomPlus" x="17" y="9" onmousedown="handleZoom(evt,'in')"/>
                <use id="zoomminus" xlink:href="#zoomMin" x="42" y="9" onmousedown="handleZoom(evt,'out')"/>
                <use id="reset" xlink:href="#resetDef" x="30" y="36" onmousedown="handleReset()"/>
                <g id="arrowUp" xlink:href="#dirArrow" transform="translate(30 24)" onmousedown="handlePan(0,-1)">
                  <use xlink:href="#rim" fill="#404040">
                        <set attributeName="fill" to="#808080" begin="arrowUp.mouseover" end="arrowUp.mouseout"/>
                  </use>
                  <path fill="none" stroke="white" stroke-width="1.5" d="M0,-3.0v7 M-2.5,-0.5L0,-3.0L2.5,-0.5"/>
                </g>
                <g id="arrowRight" xlink:href="#dirArrow" transform="rotate(90) translate(36 -43)" onmousedown="handlePan(1,0)">
                  <use xlink:href="#rim" fill="#404040">
                        <set attributeName="fill" to="#808080" begin="arrowRight.mouseover" end="arrowRight.mouseout"/>
                  </use>
                  <path fill="none" stroke="white" stroke-width="1.5" d="M0,-3.0v7 M-2.5,-0.5L0,-3.0L2.5,-0.5"/>
                </g>
                <g id="arrowDown" xlink:href="#dirArrow" transform="rotate(180) translate(-30 -48)" onmousedown="handlePan(0,1)">
                  <use xlink:href="#rim" fill="#404040">
                        <set attributeName="fill" to="#808080" begin="arrowDown.mouseover" end="arrowDown.mouseout"/>
                  </use>
                  <path fill="none" stroke="white" stroke-width="1.5" d="M0,-3.0v7 M-2.5,-0.5L0,-3.0L2.5,-0.5"/>
                </g>
                <g id="arrowLeft" xlink:href="#dirArrow" transform="rotate(270) translate(-36 17)" onmousedown="handlePan(-1,0)">
                  <use xlink:href="#rim" fill="#404040">
                        <set attributeName="fill" to="#808080" begin="arrowLeft.mouseover" end="arrowLeft.mouseout"/>
                  </use>
                  <path fill="none" stroke="white" stroke-width="1.5" d="M0,-3.0v7 M-2.5,-0.5L0,-3.0L2.5,-0.5"/>
                </g>
        </g>
        <svg viewBox="0 0 15 15" width="100%" height="30px" preserveAspectRatio="xMaxYMin meet">
         <g id="arrow_out" transform="scale(0.3 0.3)">
          <a xlink:href="classgame_player_1_1unused_code_warehouse_1_1gui_items_1_1store_1_1_store__coll__graph_org.svg" target="_base">
           <rect id="button" ry="5" rx="5" y="6" x="6" height="38" width="38"
                fill="#f2f5e9" fill-opacity="0.5" stroke="#606060" stroke-width="1.0"/>
           <path id="arrow"
             d="M 11.500037,31.436501 C 11.940474,20.09759 22.043105,11.32322 32.158766,21.979434 L 37.068811,17.246167 C 37.068811,17.246167 37.088388,32 37.088388,32 L 22.160133,31.978069 C 22.160133,31.978069 26.997745,27.140456 26.997745,27.140456 C 18.528582,18.264221 13.291696,25.230495 11.500037,31.436501 z"
             style="fill:#404040;"/>
          </a>
         </g>
        </svg>
</svg>
