<?xml version="1.0" encoding="UTF-8" standalone="no"?>
<!DOCTYPE svg PUBLIC "-//W3C//DTD SVG 1.1//EN"
 "http://www.w3.org/Graphics/SVG/1.1/DTD/svg11.dtd">
<!-- Generated by graphviz version 2.36.0 (20140111.2315)
 -->
<!-- Title: gamePlayer.mainClasses.guiBuilder.GuiElement.getNode Pages: 1 -->
<!--zoomable 415 -->
<svg id="main" version="1.1" xmlns="http://www.w3.org/2000/svg" xmlns:xlink="http://www.w3.org/1999/xlink" xml:space="preserve" onload="init(evt)">
<style type="text/css"><![CDATA[
.edge:hover path { stroke: red; }
.edge:hover polygon { stroke: red; fill: red; }
]]></style>
<script type="text/javascript"><![CDATA[
var edges = document.getElementsByTagName('g');
if (edges && edges.length) {
  for (var i=0;i<edges.length;i++) {
    if (edges[i].id.substr(0,4)=='edge') {
      edges[i].setAttribute('class','edge');
    }
  }
}
]]></script>
        <defs>
                <circle id="rim" cx="0" cy="0" r="7"/>
                <circle id="rim2" cx="0" cy="0" r="3.5"/>
                <g id="zoomPlus">
                        <use xlink:href="#rim" fill="#404040">
                                <set attributeName="fill" to="#808080" begin="zoomplus.mouseover" end="zoomplus.mouseout"/>
                        </use>
                        <path d="M-4,0h8M0,-4v8" fill="none" stroke="white" stroke-width="1.5" pointer-events="none"/>
                </g>
                <g id="zoomMin">
                        <use xlink:href="#rim" fill="#404040">
                                <set attributeName="fill" to="#808080" begin="zoomminus.mouseover" end="zoomminus.mouseout"/>
                        </use>
                        <path d="M-4,0h8" fill="none" stroke="white" stroke-width="1.5" pointer-events="none"/>
                </g>
                <g id="dirArrow">
                        <path fill="none" stroke="white" stroke-width="1.5" d="M0,-3.0v7 M-2.5,-0.5L0,-3.0L2.5,-0.5"/>
                </g>
               <g id="resetDef">
                       <use xlink:href="#rim2" fill="#404040">
                               <set attributeName="fill" to="#808080" begin="reset.mouseover" end="reset.mouseout"/>
                       </use>
               </g>
        </defs>

<script type="text/javascript">
var viewWidth = 2270;
var viewHeight = 415;
var sectionId = 'dynsection-1';
</script>
<script xlink:href="../../svgpan.js"/>
<svg id="graph" class="graph">
<g id="viewport">
<title>gamePlayer.mainClasses.guiBuilder.GuiElement.getNode</title>
<polygon fill="white" stroke="none" points="-4,4 -4,-411 2266,-411 2266,4 -4,4"/>
<!-- Node1 -->
<g id="node1" class="node"><title>Node1</title>
<polygon fill="#bfbfbf" stroke="black" points="0,-259 0,-289 154,-289 154,-259 0,-259"/>
<text text-anchor="start" x="8" y="-277" font-family="Helvetica,sans-Serif" font-size="10.00">gamePlayer.mainClasses.gui</text>
<text text-anchor="middle" x="77" y="-266" font-family="Helvetica,sans-Serif" font-size="10.00">Builder.GuiElement.getNode</text>
</g>
<!-- Node2 -->
<g id="node2" class="node"><title>Node2</title>
<g id="a_node2"><a xlink:href="../../d6/dac/classgame_player_1_1unused_code_warehouse_1_1gui_items_1_1store_1_1_store.html#ac1c5ca053c5b6acd17d1048953177085" target="_top" xlink:title="gamePlayer.unusedCodeWarehouse.gui\lItems.store.Store.buildInventoryItems">
<polygon fill="white" stroke="black" points="192,-374 192,-404 398,-404 398,-374 192,-374"/>
<text text-anchor="start" x="200" y="-392" font-family="Helvetica,sans-Serif" font-size="10.00">gamePlayer.unusedCodeWarehouse.gui</text>
<text text-anchor="middle" x="295" y="-381" font-family="Helvetica,sans-Serif" font-size="10.00">Items.store.Store.buildInventoryItems</text>
</a>
</g>
</g>
<!-- Node1&#45;&gt;Node2 -->
<g id="edge1" class="edge"><title>Node1&#45;&gt;Node2</title>
<path fill="none" stroke="midnightblue" d="M102.339,-295.882C124.005,-314.38 157.251,-340.442 190,-357 203.318,-363.734 218.321,-369.359 232.699,-373.919"/>
<polygon fill="midnightblue" stroke="midnightblue" points="104.477,-293.103 94.6279,-289.199 99.8922,-298.393 104.477,-293.103"/>
</g>
<!-- Node4 -->
<g id="node4" class="node"><title>Node4</title>
<g id="a_node4"><a xlink:href="../../dc/dbd/classgame_player_1_1gui_items_1_1welcome_1_1_welcome_navigator.html#ab0a1029d622f272fa15e5d8b0affa54c" target="_top" xlink:title="gamePlayer.guiItems.welcome.\lWelcomeNavigator.deviceConnected">
<polygon fill="white" stroke="black" points="443.5,-328 443.5,-358 634.5,-358 634.5,-328 443.5,-328"/>
<text text-anchor="start" x="451.5" y="-346" font-family="Helvetica,sans-Serif" font-size="10.00">gamePlayer.guiItems.welcome.</text>
<text text-anchor="middle" x="539" y="-335" font-family="Helvetica,sans-Serif" font-size="10.00">WelcomeNavigator.deviceConnected</text>
</a>
</g>
</g>
<!-- Node1&#45;&gt;Node4 -->
<g id="edge3" class="edge"><title>Node1&#45;&gt;Node4</title>
<path fill="none" stroke="midnightblue" d="M114.159,-293.745C135.557,-304.417 163.569,-316.674 190,-323 274.015,-343.107 372.539,-347.009 443.269,-346.526"/>
<polygon fill="midnightblue" stroke="midnightblue" points="115.619,-290.561 105.121,-289.136 112.439,-296.797 115.619,-290.561"/>
</g>
<!-- Node5 -->
<g id="node5" class="node"><title>Node5</title>
<g id="a_node5"><a xlink:href="../../d1/d62/classgame_player_1_1gui_containers_1_1secondary_containers_1_1_control_dock.html#a52c217efcf8b693b056f40897111bb9e" target="_top" xlink:title="gamePlayer.guiContainers.secondary\lContainers.ControlDock.initialize">
<polygon fill="white" stroke="black" points="198,-235 198,-265 392,-265 392,-235 198,-235"/>
<text text-anchor="start" x="206" y="-253" font-family="Helvetica,sans-Serif" font-size="10.00">gamePlayer.guiContainers.secondary</text>
<text text-anchor="middle" x="295" y="-242" font-family="Helvetica,sans-Serif" font-size="10.00">Containers.ControlDock.initialize</text>
</a>
</g>
</g>
<!-- Node1&#45;&gt;Node5 -->
<g id="edge4" class="edge"><title>Node1&#45;&gt;Node5</title>
<path fill="none" stroke="midnightblue" d="M164.177,-264.425C175.204,-263.2 186.547,-261.939 197.721,-260.698"/>
<polygon fill="midnightblue" stroke="midnightblue" points="163.706,-260.956 154.154,-265.538 164.479,-267.913 163.706,-260.956"/>
</g>
<!-- Node6 -->
<g id="node6" class="node"><title>Node6</title>
<g id="a_node6"><a xlink:href="../../d5/d97/classgame_player_1_1unused_code_warehouse_1_1_h_u_d_container.html#a0f74c4ca59161fed277e8e39fe487575" target="_top" xlink:title="gamePlayer.unusedCodeWarehouse.\lHUDContainer.initialize">
<polygon fill="white" stroke="black" points="199.5,-186 199.5,-216 390.5,-216 390.5,-186 199.5,-186"/>
<text text-anchor="start" x="207.5" y="-204" font-family="Helvetica,sans-Serif" font-size="10.00">gamePlayer.unusedCodeWarehouse.</text>
<text text-anchor="middle" x="295" y="-193" font-family="Helvetica,sans-Serif" font-size="10.00">HUDContainer.initialize</text>
</a>
</g>
</g>
<!-- Node1&#45;&gt;Node6 -->
<g id="edge5" class="edge"><title>Node1&#45;&gt;Node6</title>
<path fill="none" stroke="midnightblue" d="M117.587,-254.532C138.71,-244.697 165.363,-233.154 190,-225 199.939,-221.711 210.557,-218.704 221.07,-216.016"/>
<polygon fill="midnightblue" stroke="midnightblue" points="115.851,-251.481 108.299,-258.912 118.836,-257.812 115.851,-251.481"/>
</g>
<!-- Node7 -->
<g id="node7" class="node"><title>Node7</title>
<g id="a_node7"><a xlink:href="../../d5/d26/classgame_player_1_1gui_containers_1_1core_containers_1_1_core_container_setup.html#ac6df0ac7fc30e15aabe27ac39f137b74" target="_top" xlink:title="gamePlayer.guiContainers.core\lContainers.CoreContainerSetup.initialize">
<polygon fill="white" stroke="black" points="190,-134 190,-164 400,-164 400,-134 190,-134"/>
<text text-anchor="start" x="198" y="-152" font-family="Helvetica,sans-Serif" font-size="10.00">gamePlayer.guiContainers.core</text>
<text text-anchor="middle" x="295" y="-141" font-family="Helvetica,sans-Serif" font-size="10.00">Containers.CoreContainerSetup.initialize</text>
</a>
</g>
</g>
<!-- Node1&#45;&gt;Node7 -->
<g id="edge6" class="edge"><title>Node1&#45;&gt;Node7</title>
<path fill="none" stroke="midnightblue" d="M97.6254,-251.569C118.402,-229.2 153.223,-195.447 190,-176 198.987,-171.248 208.862,-167.295 218.838,-164.017"/>
<polygon fill="midnightblue" stroke="midnightblue" points="95.0335,-249.217 90.882,-258.965 100.206,-253.934 95.0335,-249.217"/>
</g>
<!-- Node32 -->
<g id="node32" class="node"><title>Node32</title>
<g id="a_node32"><a xlink:href="../../dc/dbd/classgame_player_1_1gui_items_1_1welcome_1_1_welcome_navigator.html#ac90b7ee172b70f339e02f5edfe26bb1a" target="_top" xlink:title="gamePlayer.guiItems.welcome.\lWelcomeNavigator.setupContents">
<polygon fill="white" stroke="black" points="205.5,-284 205.5,-314 384.5,-314 384.5,-284 205.5,-284"/>
<text text-anchor="start" x="213.5" y="-302" font-family="Helvetica,sans-Serif" font-size="10.00">gamePlayer.guiItems.welcome.</text>
<text text-anchor="middle" x="295" y="-291" font-family="Helvetica,sans-Serif" font-size="10.00">WelcomeNavigator.setupContents</text>
</a>
</g>
</g>
<!-- Node1&#45;&gt;Node32 -->
<g id="edge38" class="edge"><title>Node1&#45;&gt;Node32</title>
<path fill="none" stroke="midnightblue" d="M164.34,-283.993C177.799,-285.551 191.727,-287.163 205.239,-288.727"/>
<polygon fill="midnightblue" stroke="midnightblue" points="164.49,-280.487 154.154,-282.814 163.685,-287.441 164.49,-280.487"/>
</g>
<!-- Node3 -->
<g id="node3" class="node"><title>Node3</title>
<g id="a_node3"><a xlink:href="../../d6/dac/classgame_player_1_1unused_code_warehouse_1_1gui_items_1_1store_1_1_store.html#a6ddf415c9de5eb36452c064a0782accf" target="_top" xlink:title="gamePlayer.unusedCodeWarehouse.gui\lItems.store.Store.initialize">
<polygon fill="white" stroke="black" points="436,-377 436,-407 642,-407 642,-377 436,-377"/>
<text text-anchor="start" x="444" y="-395" font-family="Helvetica,sans-Serif" font-size="10.00">gamePlayer.unusedCodeWarehouse.gui</text>
<text text-anchor="middle" x="539" y="-384" font-family="Helvetica,sans-Serif" font-size="10.00">Items.store.Store.initialize</text>
</a>
</g>
</g>
<!-- Node2&#45;&gt;Node3 -->
<g id="edge2" class="edge"><title>Node2&#45;&gt;Node3</title>
<path fill="none" stroke="midnightblue" d="M408.487,-390.394C417.562,-390.507 426.701,-390.62 435.699,-390.732"/>
<polygon fill="midnightblue" stroke="midnightblue" points="408.322,-386.892 398.279,-390.268 408.235,-393.892 408.322,-386.892"/>
</g>
<!-- Node8 -->
<g id="node8" class="node"><title>Node8</title>
<g id="a_node8"><a xlink:href="../../dd/de8/classgame_player_1_1gui_containers_1_1core_containers_1_1_right_container.html#a334bf5d79096bf6348e43ac614bb3e65" target="_top" xlink:title="gamePlayer.guiContainers.core\lContainers.RightContainer.initialize">
<polygon fill="white" stroke="black" points="448,-83 448,-113 630,-113 630,-83 448,-83"/>
<text text-anchor="start" x="456" y="-101" font-family="Helvetica,sans-Serif" font-size="10.00">gamePlayer.guiContainers.core</text>
<text text-anchor="middle" x="539" y="-90" font-family="Helvetica,sans-Serif" font-size="10.00">Containers.RightContainer.initialize</text>
</a>
</g>
</g>
<!-- Node7&#45;&gt;Node8 -->
<g id="edge7" class="edge"><title>Node7&#45;&gt;Node8</title>
<path fill="none" stroke="midnightblue" d="M377.392,-131.847C406.364,-125.741 438.741,-118.918 466.793,-113.006"/>
<polygon fill="midnightblue" stroke="midnightblue" points="376.362,-128.487 367.299,-133.974 377.806,-135.337 376.362,-128.487"/>
</g>
<!-- Node28 -->
<g id="node28" class="node"><title>Node28</title>
<g id="a_node28"><a xlink:href="../../dc/d6a/classgame_player_1_1gui_containers_1_1core_containers_1_1_top_container.html#a7ee024a250448af00717a87d0cc6f920" target="_top" xlink:title="gamePlayer.guiContainers.core\lContainers.TopContainer.initialize">
<polygon fill="white" stroke="black" points="452,-34 452,-64 626,-64 626,-34 452,-34"/>
<text text-anchor="start" x="460" y="-52" font-family="Helvetica,sans-Serif" font-size="10.00">gamePlayer.guiContainers.core</text>
<text text-anchor="middle" x="539" y="-41" font-family="Helvetica,sans-Serif" font-size="10.00">Containers.TopContainer.initialize</text>
</a>
</g>
</g>
<!-- Node7&#45;&gt;Node28 -->
<g id="edge30" class="edge"><title>Node7&#45;&gt;Node28</title>
<path fill="none" stroke="midnightblue" d="M328.172,-128.314C355.813,-111.342 397.227,-87.7812 436,-73 444.839,-69.6303 454.296,-66.6392 463.755,-64.0121"/>
<polygon fill="midnightblue" stroke="midnightblue" points="325.997,-125.545 319.35,-133.795 329.691,-131.491 325.997,-125.545"/>
</g>
<!-- Node29 -->
<g id="node29" class="node"><title>Node29</title>
<g id="a_node29"><a xlink:href="../../d7/dca/classgame_player_1_1gui_containers_1_1core_containers_1_1_left_container.html#a1c5ab988bc6350ae15e03aa601f850a8" target="_top" xlink:title="gamePlayer.guiContainers.core\lContainers.LeftContainer.initialize">
<polygon fill="white" stroke="black" points="451,-230 451,-260 627,-260 627,-230 451,-230"/>
<text text-anchor="start" x="459" y="-248" font-family="Helvetica,sans-Serif" font-size="10.00">gamePlayer.guiContainers.core</text>
<text text-anchor="middle" x="539" y="-237" font-family="Helvetica,sans-Serif" font-size="10.00">Containers.LeftContainer.initialize</text>
</a>
</g>
</g>
<!-- Node7&#45;&gt;Node29 -->
<g id="edge32" class="edge"><title>Node7&#45;&gt;Node29</title>
<path fill="none" stroke="midnightblue" d="M385.194,-167.993C390.356,-170.357 395.336,-173.014 400,-176 421.279,-189.625 414.629,-206.52 436,-220 442.168,-223.891 448.9,-227.176 455.867,-229.95"/>
<polygon fill="midnightblue" stroke="midnightblue" points="386.314,-164.668 375.738,-164.048 383.619,-171.129 386.314,-164.668"/>
</g>
<!-- Node30 -->
<g id="node30" class="node"><title>Node30</title>
<g id="a_node30"><a xlink:href="../../d4/d8d/classgame_player_1_1gui_containers_1_1core_containers_1_1_bottom_container.html#aa6b6a142786ee38f05a4db76619a9265" target="_top" xlink:title="gamePlayer.guiContainers.core\lContainers.BottomContainer.initialize">
<polygon fill="white" stroke="black" points="442,-181 442,-211 636,-211 636,-181 442,-181"/>
<text text-anchor="start" x="450" y="-199" font-family="Helvetica,sans-Serif" font-size="10.00">gamePlayer.guiContainers.core</text>
<text text-anchor="middle" x="539" y="-188" font-family="Helvetica,sans-Serif" font-size="10.00">Containers.BottomContainer.initialize</text>
</a>
</g>
</g>
<!-- Node7&#45;&gt;Node30 -->
<g id="edge34" class="edge"><title>Node7&#45;&gt;Node30</title>
<path fill="none" stroke="midnightblue" d="M383.196,-165.935C408.521,-170.853 435.993,-176.189 460.668,-180.981"/>
<polygon fill="midnightblue" stroke="midnightblue" points="383.72,-162.471 373.236,-164 382.385,-169.343 383.72,-162.471"/>
</g>
<!-- Node31 -->
<g id="node31" class="node"><title>Node31</title>
<g id="a_node31"><a xlink:href="../../d3/d87/classgame_player_1_1gui_containers_1_1core_containers_1_1_center_container.html#ae748e7137af86ab7cad38928b987b07d" target="_top" xlink:title="gamePlayer.guiContainers.core\lContainers.CenterContainer.initialize">
<polygon fill="white" stroke="black" points="443.5,-132 443.5,-162 634.5,-162 634.5,-132 443.5,-132"/>
<text text-anchor="start" x="451.5" y="-150" font-family="Helvetica,sans-Serif" font-size="10.00">gamePlayer.guiContainers.core</text>
<text text-anchor="middle" x="539" y="-139" font-family="Helvetica,sans-Serif" font-size="10.00">Containers.CenterContainer.initialize</text>
</a>
</g>
</g>
<!-- Node7&#45;&gt;Node31 -->
<g id="edge36" class="edge"><title>Node7&#45;&gt;Node31</title>
<path fill="none" stroke="midnightblue" d="M410.165,-148.056C421.232,-147.965 432.375,-147.873 443.223,-147.783"/>
<polygon fill="midnightblue" stroke="midnightblue" points="410.005,-144.558 400.034,-148.14 410.063,-151.557 410.005,-144.558"/>
</g>
<!-- Node9 -->
<g id="node9" class="node"><title>Node9</title>
<g id="a_node9"><a xlink:href="../../d6/d33/classgame_player_1_1main_classes_1_1gui_builder_1_1_gui_builder.html#a0fbd44d2d57fb100c883cdf4ad77e7f8" target="_top" xlink:title="gamePlayer.mainClasses.gui\lBuilder.GuiBuilder.initializeCore\lContainers">
<polygon fill="white" stroke="black" points="678,-126.5 678,-167.5 842,-167.5 842,-126.5 678,-126.5"/>
<text text-anchor="start" x="686" y="-155.5" font-family="Helvetica,sans-Serif" font-size="10.00">gamePlayer.mainClasses.gui</text>
<text text-anchor="start" x="686" y="-144.5" font-family="Helvetica,sans-Serif" font-size="10.00">Builder.GuiBuilder.initializeCore</text>
<text text-anchor="middle" x="760" y="-133.5" font-family="Helvetica,sans-Serif" font-size="10.00">Containers</text>
</a>
</g>
</g>
<!-- Node8&#45;&gt;Node9 -->
<g id="edge8" class="edge"><title>Node8&#45;&gt;Node9</title>
<path fill="none" stroke="midnightblue" d="M617.004,-115.229C636.642,-119.623 657.814,-124.36 677.661,-128.801"/>
<polygon fill="midnightblue" stroke="midnightblue" points="617.718,-111.803 607.196,-113.035 616.19,-118.634 617.718,-111.803"/>
</g>
<!-- Node10 -->
<g id="node10" class="node"><title>Node10</title>
<g id="a_node10"><a xlink:href="../../d6/d33/classgame_player_1_1main_classes_1_1gui_builder_1_1_gui_builder.html#ab281fef7b723af3743f3cb38dd5b7660" target="_top" xlink:title="gamePlayer.mainClasses.gui\lBuilder.GuiBuilder.build">
<polygon fill="white" stroke="black" points="878,-132 878,-162 1032,-162 1032,-132 878,-132"/>
<text text-anchor="start" x="886" y="-150" font-family="Helvetica,sans-Serif" font-size="10.00">gamePlayer.mainClasses.gui</text>
<text text-anchor="middle" x="955" y="-139" font-family="Helvetica,sans-Serif" font-size="10.00">Builder.GuiBuilder.build</text>
</a>
</g>
</g>
<!-- Node9&#45;&gt;Node10 -->
<g id="edge9" class="edge"><title>Node9&#45;&gt;Node10</title>
<path fill="none" stroke="midnightblue" d="M852.08,-147C860.694,-147 869.365,-147 877.819,-147"/>
<polygon fill="midnightblue" stroke="midnightblue" points="852.011,-143.5 842.01,-147 852.01,-150.5 852.011,-143.5"/>
</g>
<!-- Node11 -->
<g id="node11" class="node"><title>Node11</title>
<g id="a_node11"><a xlink:href="../../d4/d3f/classgame_player_1_1main_classes_1_1managers_1_1_welcome_manager.html#afd11b6bf91712ea221c4f69945eda2e4" target="_top" xlink:title="gamePlayer.mainClasses.managers.\lWelcomeManager.init">
<polygon fill="white" stroke="black" points="1068.5,-157 1068.5,-187 1259.5,-187 1259.5,-157 1068.5,-157"/>
<text text-anchor="start" x="1076.5" y="-175" font-family="Helvetica,sans-Serif" font-size="10.00">gamePlayer.mainClasses.managers.</text>
<text text-anchor="middle" x="1164" y="-164" font-family="Helvetica,sans-Serif" font-size="10.00">WelcomeManager.init</text>
</a>
</g>
</g>
<!-- Node10&#45;&gt;Node11 -->
<g id="edge10" class="edge"><title>Node10&#45;&gt;Node11</title>
<path fill="none" stroke="midnightblue" d="M1042.22,-157.413C1050.84,-158.454 1059.62,-159.515 1068.32,-160.566"/>
<polygon fill="midnightblue" stroke="midnightblue" points="1042.54,-153.927 1032.2,-156.203 1041.71,-160.876 1042.54,-153.927"/>
</g>
<!-- Node12 -->
<g id="node12" class="node"><title>Node12</title>
<g id="a_node12"><a xlink:href="../../da/d69/classgame_player_1_1main_classes_1_1managers_1_1_gui_manager.html#a6bce033ad0751d90302ee3520a36e95b" target="_top" xlink:title="gamePlayer.mainClasses.managers.\lGuiManager.init">
<polygon fill="white" stroke="black" points="1068.5,-108 1068.5,-138 1259.5,-138 1259.5,-108 1068.5,-108"/>
<text text-anchor="start" x="1076.5" y="-126" font-family="Helvetica,sans-Serif" font-size="10.00">gamePlayer.mainClasses.managers.</text>
<text text-anchor="middle" x="1164" y="-115" font-family="Helvetica,sans-Serif" font-size="10.00">GuiManager.init</text>
</a>
</g>
</g>
<!-- Node10&#45;&gt;Node12 -->
<g id="edge11" class="edge"><title>Node10&#45;&gt;Node12</title>
<path fill="none" stroke="midnightblue" d="M1042.22,-137.003C1050.84,-136.004 1059.62,-134.986 1068.32,-133.977"/>
<polygon fill="midnightblue" stroke="midnightblue" points="1041.73,-133.537 1032.2,-138.166 1042.53,-140.49 1041.73,-133.537"/>
</g>
<!-- Node13 -->
<g id="node13" class="node"><title>Node13</title>
<g id="a_node13"><a xlink:href="../../da/d69/classgame_player_1_1main_classes_1_1managers_1_1_gui_manager.html#aa0b614e03bdec959e13e3d5ca2e1f614" target="_top" xlink:title="gamePlayer.mainClasses.managers.\lGuiManager.startMultiPlayerGame">
<polygon fill="white" stroke="black" points="1307.5,-179 1307.5,-209 1498.5,-209 1498.5,-179 1307.5,-179"/>
<text text-anchor="start" x="1315.5" y="-197" font-family="Helvetica,sans-Serif" font-size="10.00">gamePlayer.mainClasses.managers.</text>
<text text-anchor="middle" x="1403" y="-186" font-family="Helvetica,sans-Serif" font-size="10.00">GuiManager.startMultiPlayerGame</text>
</a>
</g>
</g>
<!-- Node12&#45;&gt;Node13 -->
<g id="edge12" class="edge"><title>Node12&#45;&gt;Node13</title>
<path fill="none" stroke="midnightblue" d="M1237.07,-140.623C1244.83,-142.695 1252.59,-144.842 1260,-147 1293.66,-156.808 1331.31,-169.341 1359.38,-178.999"/>
<polygon fill="midnightblue" stroke="midnightblue" points="1237.82,-137.203 1227.26,-138.044 1236.04,-143.973 1237.82,-137.203"/>
</g>
<!-- Node18 -->
<g id="node18" class="node"><title>Node18</title>
<g id="a_node18"><a xlink:href="../../da/d69/classgame_player_1_1main_classes_1_1managers_1_1_gui_manager.html#a3f657f0e3ba1e493d2dd02b5df5e03f6" target="_top" xlink:title="gamePlayer.mainClasses.managers.\lGuiManager.replayGame">
<polygon fill="white" stroke="black" points="1560.5,-282 1560.5,-312 1751.5,-312 1751.5,-282 1560.5,-282"/>
<text text-anchor="start" x="1568.5" y="-300" font-family="Helvetica,sans-Serif" font-size="10.00">gamePlayer.mainClasses.managers.</text>
<text text-anchor="middle" x="1656" y="-289" font-family="Helvetica,sans-Serif" font-size="10.00">GuiManager.replayGame</text>
</a>
</g>
</g>
<!-- Node12&#45;&gt;Node18 -->
<g id="edge24" class="edge"><title>Node12&#45;&gt;Node18</title>
<path fill="none" stroke="midnightblue" d="M1255.05,-143.372C1256.75,-144.517 1258.41,-145.725 1260,-147 1287.63,-169.095 1268.03,-196.334 1296,-218 1371.68,-276.621 1481.92,-293.668 1560.25,-297.735"/>
<polygon fill="midnightblue" stroke="midnightblue" points="1256.55,-140.196 1246.15,-138.16 1253.01,-146.236 1256.55,-140.196"/>
</g>
<!-- Node25 -->
<g id="node25" class="node"><title>Node25</title>
<g id="a_node25"><a xlink:href="../../d4/d3f/classgame_player_1_1main_classes_1_1managers_1_1_welcome_manager.html#a85bf325329fe7587bbe74526c37c11c0" target="_top" xlink:title="gamePlayer.mainClasses.managers.\lWelcomeManager.newGame">
<polygon fill="white" stroke="black" points="1307.5,-0 1307.5,-30 1498.5,-30 1498.5,-0 1307.5,-0"/>
<text text-anchor="start" x="1315.5" y="-18" font-family="Helvetica,sans-Serif" font-size="10.00">gamePlayer.mainClasses.managers.</text>
<text text-anchor="middle" x="1403" y="-7" font-family="Helvetica,sans-Serif" font-size="10.00">WelcomeManager.newGame</text>
</a>
</g>
</g>
<!-- Node12&#45;&gt;Node25 -->
<g id="edge25" class="edge"><title>Node12&#45;&gt;Node25</title>
<path fill="none" stroke="midnightblue" d="M1191.83,-101.801C1217.27,-82.7042 1257.26,-55.2141 1296,-39 1304.18,-35.5758 1312.93,-32.6 1321.76,-30.0233"/>
<polygon fill="midnightblue" stroke="midnightblue" points="1189.62,-99.0851 1183.79,-107.927 1193.86,-104.655 1189.62,-99.0851"/>
</g>
<!-- Node26 -->
<g id="node26" class="node"><title>Node26</title>
<g id="a_node26"><a xlink:href="../../d4/d3f/classgame_player_1_1main_classes_1_1managers_1_1_welcome_manager.html#a5da8d3f5b8bc1c4bd4c555140bd9384c" target="_top" xlink:title="gamePlayer.mainClasses.managers.\lWelcomeManager.startSinglePlayerGame">
<polygon fill="white" stroke="black" points="1296,-108 1296,-138 1510,-138 1510,-108 1296,-108"/>
<text text-anchor="start" x="1304" y="-126" font-family="Helvetica,sans-Serif" font-size="10.00">gamePlayer.mainClasses.managers.</text>
<text text-anchor="middle" x="1403" y="-115" font-family="Helvetica,sans-Serif" font-size="10.00">WelcomeManager.startSinglePlayerGame</text>
</a>
</g>
</g>
<!-- Node12&#45;&gt;Node26 -->
<g id="edge26" class="edge"><title>Node12&#45;&gt;Node26</title>
<path fill="none" stroke="midnightblue" d="M1269.77,-123C1278.4,-123 1287.13,-123 1295.77,-123"/>
<polygon fill="midnightblue" stroke="midnightblue" points="1269.69,-119.5 1259.69,-123 1269.69,-126.5 1269.69,-119.5"/>
</g>
<!-- Node27 -->
<g id="node27" class="node"><title>Node27</title>
<g id="a_node27"><a xlink:href="../../d3/dee/classgame_player_1_1main_classes_1_1welcome_screen_1_1_game_start_manager.html#a0c44b3f25d2a30fe2e7aeca9da7161a9" target="_top" xlink:title="gamePlayer.mainClasses.welcome\lScreen.GameStartManager.startSingle\lPlayerGame">
<polygon fill="white" stroke="black" points="1301.5,-48.5 1301.5,-89.5 1504.5,-89.5 1504.5,-48.5 1301.5,-48.5"/>
<text text-anchor="start" x="1309.5" y="-77.5" font-family="Helvetica,sans-Serif" font-size="10.00">gamePlayer.mainClasses.welcome</text>
<text text-anchor="start" x="1309.5" y="-66.5" font-family="Helvetica,sans-Serif" font-size="10.00">Screen.GameStartManager.startSingle</text>
<text text-anchor="middle" x="1403" y="-55.5" font-family="Helvetica,sans-Serif" font-size="10.00">PlayerGame</text>
</a>
</g>
</g>
<!-- Node12&#45;&gt;Node27 -->
<g id="edge28" class="edge"><title>Node12&#45;&gt;Node27</title>
<path fill="none" stroke="midnightblue" d="M1240.89,-105.708C1263.52,-100.552 1288.54,-94.8513 1311.98,-89.5107"/>
<polygon fill="midnightblue" stroke="midnightblue" points="1239.99,-102.324 1231.02,-107.958 1241.55,-109.149 1239.99,-102.324"/>
</g>
<!-- Node14 -->
<g id="node14" class="node"><title>Node14</title>
<g id="a_node14"><a xlink:href="../../da/d69/classgame_player_1_1main_classes_1_1managers_1_1_gui_manager.html#ad50f462f8d45a5bbfc8a17290372a1ab" target="_top" xlink:title="gamePlayer.mainClasses.managers.\lGuiManager.joinMultiPlayerGame">
<polygon fill="white" stroke="black" points="1560.5,-233 1560.5,-263 1751.5,-263 1751.5,-233 1560.5,-233"/>
<text text-anchor="start" x="1568.5" y="-251" font-family="Helvetica,sans-Serif" font-size="10.00">gamePlayer.mainClasses.managers.</text>
<text text-anchor="middle" x="1656" y="-240" font-family="Helvetica,sans-Serif" font-size="10.00">GuiManager.joinMultiPlayerGame</text>
</a>
</g>
</g>
<!-- Node13&#45;&gt;Node14 -->
<g id="edge13" class="edge"><title>Node13&#45;&gt;Node14</title>
<path fill="none" stroke="midnightblue" d="M1483.84,-211.177C1516.35,-218.172 1553.6,-226.184 1585.02,-232.945"/>
<polygon fill="midnightblue" stroke="midnightblue" points="1484.43,-207.724 1473.92,-209.042 1482.96,-214.567 1484.43,-207.724"/>
</g>
<!-- Node13&#45;&gt;Node18 -->
<g id="edge17" class="edge"><title>Node13&#45;&gt;Node18</title>
<path fill="none" stroke="midnightblue" d="M1439.65,-213.905C1479.87,-236.306 1540.43,-269.877 1546,-272 1555.98,-275.8 1566.7,-279.122 1577.39,-281.995"/>
<polygon fill="midnightblue" stroke="midnightblue" points="1441.35,-210.844 1430.91,-209.032 1437.94,-216.958 1441.35,-210.844"/>
</g>
<!-- Node19 -->
<g id="node19" class="node"><title>Node19</title>
<g id="a_node19"><a xlink:href="../../d4/d3f/classgame_player_1_1main_classes_1_1managers_1_1_welcome_manager.html#a55598dd2973b0a9b979151dd60c9e436" target="_top" xlink:title="gamePlayer.mainClasses.managers.\lWelcomeManager.pollEngineForMultiPlayer\lReadiness">
<polygon fill="white" stroke="black" points="1546.5,-173.5 1546.5,-214.5 1765.5,-214.5 1765.5,-173.5 1546.5,-173.5"/>
<text text-anchor="start" x="1554.5" y="-202.5" font-family="Helvetica,sans-Serif" font-size="10.00">gamePlayer.mainClasses.managers.</text>
<text text-anchor="start" x="1554.5" y="-191.5" font-family="Helvetica,sans-Serif" font-size="10.00">WelcomeManager.pollEngineForMultiPlayer</text>
<text text-anchor="middle" x="1656" y="-180.5" font-family="Helvetica,sans-Serif" font-size="10.00">Readiness</text>
</a>
</g>
</g>
<!-- Node13&#45;&gt;Node19 -->
<g id="edge18" class="edge"><title>Node13&#45;&gt;Node19</title>
<path fill="none" stroke="midnightblue" d="M1508.84,-194C1521.19,-194 1533.81,-194 1546.22,-194"/>
<polygon fill="midnightblue" stroke="midnightblue" points="1508.53,-190.5 1498.53,-194 1508.53,-197.5 1508.53,-190.5"/>
</g>
<!-- Node22 -->
<g id="node22" class="node"><title>Node22</title>
<g id="a_node22"><a xlink:href="../../d3/dee/classgame_player_1_1main_classes_1_1welcome_screen_1_1_game_start_manager.html#a5d5001d1ee14ae57deef01f6e3ddde31" target="_top" xlink:title="gamePlayer.mainClasses.welcome\lScreen.GameStartManager.pollEngine\lForMultiPlayerReadiness">
<polygon fill="white" stroke="black" points="1556,-113.5 1556,-154.5 1756,-154.5 1756,-113.5 1556,-113.5"/>
<text text-anchor="start" x="1564" y="-142.5" font-family="Helvetica,sans-Serif" font-size="10.00">gamePlayer.mainClasses.welcome</text>
<text text-anchor="start" x="1564" y="-131.5" font-family="Helvetica,sans-Serif" font-size="10.00">Screen.GameStartManager.pollEngine</text>
<text text-anchor="middle" x="1656" y="-120.5" font-family="Helvetica,sans-Serif" font-size="10.00">ForMultiPlayerReadiness</text>
</a>
</g>
</g>
<!-- Node13&#45;&gt;Node22 -->
<g id="edge21" class="edge"><title>Node13&#45;&gt;Node22</title>
<path fill="none" stroke="midnightblue" d="M1477.01,-176.546C1505.86,-169.652 1539.21,-161.679 1569.19,-154.511"/>
<polygon fill="midnightblue" stroke="midnightblue" points="1475.93,-173.208 1467.01,-178.937 1477.55,-180.016 1475.93,-173.208"/>
</g>
<!-- Node15 -->
<g id="node15" class="node"><title>Node15</title>
<g id="a_node15"><a xlink:href="../../d4/d3f/classgame_player_1_1main_classes_1_1managers_1_1_welcome_manager.html#a71a2a80cfe9d3a07d7becc506178acfd" target="_top" xlink:title="gamePlayer.mainClasses.managers.\lWelcomeManager.joinMultiPlayerGame">
<polygon fill="white" stroke="black" points="1805.5,-285 1805.5,-315 2006.5,-315 2006.5,-285 1805.5,-285"/>
<text text-anchor="start" x="1813.5" y="-303" font-family="Helvetica,sans-Serif" font-size="10.00">gamePlayer.mainClasses.managers.</text>
<text text-anchor="middle" x="1906" y="-292" font-family="Helvetica,sans-Serif" font-size="10.00">WelcomeManager.joinMultiPlayerGame</text>
</a>
</g>
</g>
<!-- Node14&#45;&gt;Node15 -->
<g id="edge14" class="edge"><title>Node14&#45;&gt;Node15</title>
<path fill="none" stroke="midnightblue" d="M1738.53,-265.095C1769.18,-271.521 1803.76,-278.772 1833.43,-284.993"/>
<polygon fill="midnightblue" stroke="midnightblue" points="1739.24,-261.667 1728.73,-263.041 1737.8,-268.518 1739.24,-261.667"/>
</g>
<!-- Node17 -->
<g id="node17" class="node"><title>Node17</title>
<g id="a_node17"><a xlink:href="../../d3/dee/classgame_player_1_1main_classes_1_1welcome_screen_1_1_game_start_manager.html#a7465850240e12e23aec544dbfd08f6a0" target="_top" xlink:title="gamePlayer.mainClasses.welcome\lScreen.GameStartManager.joinMulti\lPlayerGame">
<polygon fill="white" stroke="black" points="1811,-225.5 1811,-266.5 2001,-266.5 2001,-225.5 1811,-225.5"/>
<text text-anchor="start" x="1819" y="-254.5" font-family="Helvetica,sans-Serif" font-size="10.00">gamePlayer.mainClasses.welcome</text>
<text text-anchor="start" x="1819" y="-243.5" font-family="Helvetica,sans-Serif" font-size="10.00">Screen.GameStartManager.joinMulti</text>
<text text-anchor="middle" x="1906" y="-232.5" font-family="Helvetica,sans-Serif" font-size="10.00">PlayerGame</text>
</a>
</g>
</g>
<!-- Node14&#45;&gt;Node17 -->
<g id="edge16" class="edge"><title>Node14&#45;&gt;Node17</title>
<path fill="none" stroke="midnightblue" d="M1761.84,-247.155C1778.04,-247.024 1794.69,-246.89 1810.64,-246.761"/>
<polygon fill="midnightblue" stroke="midnightblue" points="1761.79,-243.655 1751.82,-247.235 1761.85,-250.654 1761.79,-243.655"/>
</g>
<!-- Node16 -->
<g id="node16" class="node"><title>Node16</title>
<g id="a_node16"><a xlink:href="../../d4/d3f/classgame_player_1_1main_classes_1_1managers_1_1_welcome_manager.html#aa605746e09c481b225463d37a82427e3" target="_top" xlink:title="gamePlayer.mainClasses.managers.\lWelcomeManager.startMultiPlayerOptions">
<polygon fill="white" stroke="black" points="2046.5,-285 2046.5,-315 2261.5,-315 2261.5,-285 2046.5,-285"/>
<text text-anchor="start" x="2054.5" y="-303" font-family="Helvetica,sans-Serif" font-size="10.00">gamePlayer.mainClasses.managers.</text>
<text text-anchor="middle" x="2154" y="-292" font-family="Helvetica,sans-Serif" font-size="10.00">WelcomeManager.startMultiPlayerOptions</text>
</a>
</g>
</g>
<!-- Node15&#45;&gt;Node16 -->
<g id="edge15" class="edge"><title>Node15&#45;&gt;Node16</title>
<path fill="none" stroke="midnightblue" d="M2016.86,-300C2026.66,-300 2036.56,-300 2046.33,-300"/>
<polygon fill="midnightblue" stroke="midnightblue" points="2016.7,-296.5 2006.7,-300 2016.7,-303.5 2016.7,-296.5"/>
</g>
<!-- Node20 -->
<g id="node20" class="node"><title>Node20</title>
<g id="a_node20"><a xlink:href="../../d4/d3f/classgame_player_1_1main_classes_1_1managers_1_1_welcome_manager.html#a0669db103a94675dce875042258da508" target="_top" xlink:title="gamePlayer.mainClasses.managers.\lWelcomeManager.startMultiPlayerGame">
<polygon fill="white" stroke="black" points="1802.5,-176 1802.5,-206 2009.5,-206 2009.5,-176 1802.5,-176"/>
<text text-anchor="start" x="1810.5" y="-194" font-family="Helvetica,sans-Serif" font-size="10.00">gamePlayer.mainClasses.managers.</text>
<text text-anchor="middle" x="1906" y="-183" font-family="Helvetica,sans-Serif" font-size="10.00">WelcomeManager.startMultiPlayerGame</text>
</a>
</g>
</g>
<!-- Node19&#45;&gt;Node20 -->
<g id="edge19" class="edge"><title>Node19&#45;&gt;Node20</title>
<path fill="none" stroke="midnightblue" d="M1776.02,-192.56C1784.78,-192.454 1793.56,-192.348 1802.21,-192.243"/>
<polygon fill="midnightblue" stroke="midnightblue" points="1775.73,-189.063 1765.78,-192.684 1775.82,-196.063 1775.73,-189.063"/>
</g>
<!-- Node21 -->
<g id="node21" class="node"><title>Node21</title>
<g id="a_node21"><a xlink:href="../../d4/d3f/classgame_player_1_1main_classes_1_1managers_1_1_welcome_manager.html#ae6495396aef63551116c0835c40574e1" target="_top" xlink:title="gamePlayer.mainClasses.managers.\lWelcomeManager.startGame">
<polygon fill="white" stroke="black" points="2058.5,-151 2058.5,-181 2249.5,-181 2249.5,-151 2058.5,-151"/>
<text text-anchor="start" x="2066.5" y="-169" font-family="Helvetica,sans-Serif" font-size="10.00">gamePlayer.mainClasses.managers.</text>
<text text-anchor="middle" x="2154" y="-158" font-family="Helvetica,sans-Serif" font-size="10.00">WelcomeManager.startGame</text>
</a>
</g>
</g>
<!-- Node20&#45;&gt;Node21 -->
<g id="edge20" class="edge"><title>Node20&#45;&gt;Node21</title>
<path fill="none" stroke="midnightblue" d="M2019.86,-179.53C2032.78,-178.218 2045.84,-176.89 2058.49,-175.605"/>
<polygon fill="midnightblue" stroke="midnightblue" points="2019.14,-176.086 2009.54,-180.579 2019.85,-183.05 2019.14,-176.086"/>
</g>
<!-- Node23 -->
<g id="node23" class="node"><title>Node23</title>
<g id="a_node23"><a xlink:href="../../d3/dee/classgame_player_1_1main_classes_1_1welcome_screen_1_1_game_start_manager.html#a994c29260d6cb90abf19dca2b3463b6a" target="_top" xlink:title="gamePlayer.mainClasses.welcome\lScreen.GameStartManager.startMulti\lPlayerGame">
<polygon fill="white" stroke="black" points="1808,-113.5 1808,-154.5 2004,-154.5 2004,-113.5 1808,-113.5"/>
<text text-anchor="start" x="1816" y="-142.5" font-family="Helvetica,sans-Serif" font-size="10.00">gamePlayer.mainClasses.welcome</text>
<text text-anchor="start" x="1816" y="-131.5" font-family="Helvetica,sans-Serif" font-size="10.00">Screen.GameStartManager.startMulti</text>
<text text-anchor="middle" x="1906" y="-120.5" font-family="Helvetica,sans-Serif" font-size="10.00">PlayerGame</text>
</a>
</g>
</g>
<!-- Node22&#45;&gt;Node23 -->
<g id="edge22" class="edge"><title>Node22&#45;&gt;Node23</title>
<path fill="none" stroke="midnightblue" d="M1766.11,-134C1779.95,-134 1794.05,-134 1807.69,-134"/>
<polygon fill="midnightblue" stroke="midnightblue" points="1766.09,-130.5 1756.09,-134 1766.09,-137.5 1766.09,-130.5"/>
</g>
<!-- Node24 -->
<g id="node24" class="node"><title>Node24</title>
<g id="a_node24"><a xlink:href="../../d3/dee/classgame_player_1_1main_classes_1_1welcome_screen_1_1_game_start_manager.html#a4ac849399bf00c6df86f0db25ea95ed8" target="_top" xlink:title="gamePlayer.mainClasses.welcome\lScreen.GameStartManager.startGame">
<polygon fill="white" stroke="black" points="2052.5,-76 2052.5,-106 2255.5,-106 2255.5,-76 2052.5,-76"/>
<text text-anchor="start" x="2060.5" y="-94" font-family="Helvetica,sans-Serif" font-size="10.00">gamePlayer.mainClasses.welcome</text>
<text text-anchor="middle" x="2154" y="-83" font-family="Helvetica,sans-Serif" font-size="10.00">Screen.GameStartManager.startGame</text>
</a>
</g>
</g>
<!-- Node23&#45;&gt;Node24 -->
<g id="edge23" class="edge"><title>Node23&#45;&gt;Node24</title>
<path fill="none" stroke="midnightblue" d="M2014.48,-115.213C2031.99,-112.152 2049.93,-109.017 2066.84,-106.06"/>
<polygon fill="midnightblue" stroke="midnightblue" points="2013.47,-111.836 2004.23,-117.005 2014.68,-118.731 2013.47,-111.836"/>
</g>
<!-- Node26&#45;&gt;Node21 -->
<g id="edge27" class="edge"><title>Node26&#45;&gt;Node21</title>
<path fill="none" stroke="midnightblue" d="M1498.81,-106.453C1619.11,-88.5426 1832.31,-67.1379 2010,-104 2032.39,-108.645 2087.54,-134.177 2122.44,-150.994"/>
<polygon fill="midnightblue" stroke="midnightblue" points="1498.26,-102.997 1488.89,-107.954 1499.3,-109.919 1498.26,-102.997"/>
</g>
<!-- Node27&#45;&gt;Node24 -->
<g id="edge29" class="edge"><title>Node27&#45;&gt;Node24</title>
<path fill="none" stroke="midnightblue" d="M1514.75,-64.8699C1636.37,-61.3817 1837.37,-58.7 2010,-71 2025.75,-72.1224 2042.41,-73.9036 2058.58,-75.9514"/>
<polygon fill="midnightblue" stroke="midnightblue" points="1514.57,-61.3734 1504.68,-65.1657 1514.78,-68.3704 1514.57,-61.3734"/>
</g>
<!-- Node28&#45;&gt;Node9 -->
<g id="edge31" class="edge"><title>Node28&#45;&gt;Node9</title>
<path fill="none" stroke="midnightblue" d="M626.193,-67.0926C631.605,-68.8994 636.916,-70.8652 642,-73 675.019,-86.8638 709.237,-109.658 732.072,-126.29"/>
<polygon fill="midnightblue" stroke="midnightblue" points="626.959,-63.6647 616.37,-64.0098 624.863,-70.3436 626.959,-63.6647"/>
</g>
<!-- Node29&#45;&gt;Node9 -->
<g id="edge33" class="edge"><title>Node29&#45;&gt;Node9</title>
<path fill="none" stroke="midnightblue" d="M623.597,-226.838C629.903,-224.763 636.102,-222.487 642,-220 674.649,-206.231 708.653,-183.984 731.532,-167.663"/>
<polygon fill="midnightblue" stroke="midnightblue" points="622.138,-223.626 613.626,-229.934 624.215,-230.31 622.138,-223.626"/>
</g>
<!-- Node30&#45;&gt;Node9 -->
<g id="edge35" class="edge"><title>Node30&#45;&gt;Node9</title>
<path fill="none" stroke="midnightblue" d="M617.004,-178.771C636.642,-174.377 657.814,-169.64 677.661,-165.199"/>
<polygon fill="midnightblue" stroke="midnightblue" points="616.19,-175.366 607.196,-180.965 617.718,-182.197 616.19,-175.366"/>
</g>
<!-- Node31&#45;&gt;Node9 -->
<g id="edge37" class="edge"><title>Node31&#45;&gt;Node9</title>
<path fill="none" stroke="midnightblue" d="M644.905,-147C655.961,-147 667.079,-147 677.807,-147"/>
<polygon fill="midnightblue" stroke="midnightblue" points="644.783,-143.5 634.783,-147 644.783,-150.5 644.783,-143.5"/>
</g>
<!-- Node32&#45;&gt;Node4 -->
<g id="edge39" class="edge"><title>Node32&#45;&gt;Node4</title>
<path fill="none" stroke="midnightblue" d="M388.596,-315.836C410.567,-319.83 433.862,-324.066 455.356,-327.974"/>
<polygon fill="midnightblue" stroke="midnightblue" points="389.071,-312.365 378.606,-314.019 387.818,-319.252 389.071,-312.365"/>
</g>
<!-- Node33 -->
<g id="node33" class="node"><title>Node33</title>
<g id="a_node33"><a xlink:href="../../dc/dbd/classgame_player_1_1gui_items_1_1welcome_1_1_welcome_navigator.html#a60b11ae18c01ae92903dee853bc4bf41" target="_top" xlink:title="gamePlayer.guiItems.welcome.\lWelcomeNavigator.initialize">
<polygon fill="white" stroke="black" points="456.5,-279 456.5,-309 621.5,-309 621.5,-279 456.5,-279"/>
<text text-anchor="start" x="464.5" y="-297" font-family="Helvetica,sans-Serif" font-size="10.00">gamePlayer.guiItems.welcome.</text>
<text text-anchor="middle" x="539" y="-286" font-family="Helvetica,sans-Serif" font-size="10.00">WelcomeNavigator.initialize</text>
</a>
</g>
</g>
<!-- Node32&#45;&gt;Node33 -->
<g id="edge40" class="edge"><title>Node32&#45;&gt;Node33</title>
<path fill="none" stroke="midnightblue" d="M395.013,-296.954C415.455,-296.532 436.763,-296.092 456.497,-295.684"/>
<polygon fill="midnightblue" stroke="midnightblue" points="394.663,-293.461 384.738,-297.167 394.808,-300.459 394.663,-293.461"/>
</g>
</g>
</svg>
        <g id="navigator" transform="translate(0 0)" fill="#404254">
                <rect fill="#f2f5e9" fill-opacity="0.5" stroke="#606060" stroke-width=".5" x="0" y="0" width="60" height="60"/>
                <use id="zoomplus" xlink:href="#zoomPlus" x="17" y="9" onmousedown="handleZoom(evt,'in')"/>
                <use id="zoomminus" xlink:href="#zoomMin" x="42" y="9" onmousedown="handleZoom(evt,'out')"/>
                <use id="reset" xlink:href="#resetDef" x="30" y="36" onmousedown="handleReset()"/>
                <g id="arrowUp" xlink:href="#dirArrow" transform="translate(30 24)" onmousedown="handlePan(0,-1)">
                  <use xlink:href="#rim" fill="#404040">
                        <set attributeName="fill" to="#808080" begin="arrowUp.mouseover" end="arrowUp.mouseout"/>
                  </use>
                  <path fill="none" stroke="white" stroke-width="1.5" d="M0,-3.0v7 M-2.5,-0.5L0,-3.0L2.5,-0.5"/>
                </g>
                <g id="arrowRight" xlink:href="#dirArrow" transform="rotate(90) translate(36 -43)" onmousedown="handlePan(1,0)">
                  <use xlink:href="#rim" fill="#404040">
                        <set attributeName="fill" to="#808080" begin="arrowRight.mouseover" end="arrowRight.mouseout"/>
                  </use>
                  <path fill="none" stroke="white" stroke-width="1.5" d="M0,-3.0v7 M-2.5,-0.5L0,-3.0L2.5,-0.5"/>
                </g>
                <g id="arrowDown" xlink:href="#dirArrow" transform="rotate(180) translate(-30 -48)" onmousedown="handlePan(0,1)">
                  <use xlink:href="#rim" fill="#404040">
                        <set attributeName="fill" to="#808080" begin="arrowDown.mouseover" end="arrowDown.mouseout"/>
                  </use>
                  <path fill="none" stroke="white" stroke-width="1.5" d="M0,-3.0v7 M-2.5,-0.5L0,-3.0L2.5,-0.5"/>
                </g>
                <g id="arrowLeft" xlink:href="#dirArrow" transform="rotate(270) translate(-36 17)" onmousedown="handlePan(-1,0)">
                  <use xlink:href="#rim" fill="#404040">
                        <set attributeName="fill" to="#808080" begin="arrowLeft.mouseover" end="arrowLeft.mouseout"/>
                  </use>
                  <path fill="none" stroke="white" stroke-width="1.5" d="M0,-3.0v7 M-2.5,-0.5L0,-3.0L2.5,-0.5"/>
                </g>
        </g>
        <svg viewBox="0 0 15 15" width="100%" height="30px" preserveAspectRatio="xMaxYMin meet">
         <g id="arrow_out" transform="scale(0.3 0.3)">
          <a xlink:href="interfacegame_player_1_1main_classes_1_1gui_builder_1_1_gui_element_a0cfbb03fce35c4102f5ee95dc523d789_icgraph_org.svg" target="_base">
           <rect id="button" ry="5" rx="5" y="6" x="6" height="38" width="38"
                fill="#f2f5e9" fill-opacity="0.5" stroke="#606060" stroke-width="1.0"/>
           <path id="arrow"
             d="M 11.500037,31.436501 C 11.940474,20.09759 22.043105,11.32322 32.158766,21.979434 L 37.068811,17.246167 C 37.068811,17.246167 37.088388,32 37.088388,32 L 22.160133,31.978069 C 22.160133,31.978069 26.997745,27.140456 26.997745,27.140456 C 18.528582,18.264221 13.291696,25.230495 11.500037,31.436501 z"
             style="fill:#404040;"/>
          </a>
         </g>
        </svg>
</svg>
