<?xml version="1.0" encoding="UTF-8" standalone="no"?>
<!DOCTYPE svg PUBLIC "-//W3C//DTD SVG 1.1//EN"
 "http://www.w3.org/Graphics/SVG/1.1/DTD/svg11.dtd">
<!-- Generated by graphviz version 2.36.0 (20140111.2315)
 -->
<!-- Title: gameAuthoring.scenes.actorBuildingScenes.behaviorBuilders.BehaviorBuilder.BehaviorBuilder Pages: 1 -->
<svg width="848pt" height="163pt"
 viewBox="0.00 0.00 848.00 163.00" xmlns="http://www.w3.org/2000/svg" xmlns:xlink="http://www.w3.org/1999/xlink">
<g id="graph0" class="graph" transform="scale(1 1) rotate(0) translate(4 159)">
<title>gameAuthoring.scenes.actorBuildingScenes.behaviorBuilders.BehaviorBuilder.BehaviorBuilder</title>
<polygon fill="white" stroke="none" points="-4,4 -4,-159 844,-159 844,4 -4,4"/>
<!-- Node1 -->
<g id="node1" class="node"><title>Node1</title>
<polygon fill="#bfbfbf" stroke="black" points="0.5,-59.5 0.5,-100.5 175.5,-100.5 175.5,-59.5 0.5,-59.5"/>
<text text-anchor="start" x="8.5" y="-88.5" font-family="Helvetica,sans-Serif" font-size="10.00">gameAuthoring.scenes.actor</text>
<text text-anchor="start" x="8.5" y="-77.5" font-family="Helvetica,sans-Serif" font-size="10.00">BuildingScenes.behaviorBuilders.</text>
<text text-anchor="middle" x="88" y="-66.5" font-family="Helvetica,sans-Serif" font-size="10.00">BehaviorBuilder.BehaviorBuilder</text>
</g>
<!-- Node2 -->
<g id="node2" class="node"><title>Node2</title>
<g id="a_node2"><a xlink:href="../../d4/d18/classgame_authoring_1_1scenes_1_1actor_building_scenes_1_1behavior_builders_1_1_behavior_builder.html#ae31d7ecff5286c98dc1e15e850ad5dc2" target="_top" xlink:title="gameAuthoring.scenes.actor\lBuildingScenes.behaviorBuilders.\lBehaviorBuilder.createCenterDisplay">
<polygon fill="white" stroke="black" points="212.5,-59.5 212.5,-100.5 403.5,-100.5 403.5,-59.5 212.5,-59.5"/>
<text text-anchor="start" x="220.5" y="-88.5" font-family="Helvetica,sans-Serif" font-size="10.00">gameAuthoring.scenes.actor</text>
<text text-anchor="start" x="220.5" y="-77.5" font-family="Helvetica,sans-Serif" font-size="10.00">BuildingScenes.behaviorBuilders.</text>
<text text-anchor="middle" x="308" y="-66.5" font-family="Helvetica,sans-Serif" font-size="10.00">BehaviorBuilder.createCenterDisplay</text>
</a>
</g>
</g>
<!-- Node1&#45;&gt;Node2 -->
<g id="edge1" class="edge"><title>Node1&#45;&gt;Node2</title>
<path fill="none" stroke="midnightblue" d="M175.786,-80C184.405,-80 193.218,-80 201.997,-80"/>
<polygon fill="midnightblue" stroke="midnightblue" points="202.272,-83.5001 212.272,-80 202.272,-76.5001 202.272,-83.5001"/>
</g>
<!-- Node3 -->
<g id="node3" class="node"><title>Node3</title>
<g id="a_node3"><a xlink:href="../../dc/d2e/classutilities_1_1multilanguage_1_1_multi_language_utility.html#aaa34262e5a69e5d96d435c4f9872e544" target="_top" xlink:title="utilities.multilanguage.\lMultiLanguageUtility.getInstance">
<polygon fill="white" stroke="black" points="443.5,-119 443.5,-149 614.5,-149 614.5,-119 443.5,-119"/>
<text text-anchor="start" x="451.5" y="-137" font-family="Helvetica,sans-Serif" font-size="10.00">utilities.multilanguage.</text>
<text text-anchor="middle" x="529" y="-126" font-family="Helvetica,sans-Serif" font-size="10.00">MultiLanguageUtility.getInstance</text>
</a>
</g>
</g>
<!-- Node2&#45;&gt;Node3 -->
<g id="edge2" class="edge"><title>Node2&#45;&gt;Node3</title>
<path fill="none" stroke="midnightblue" d="M392.419,-100.569C413.714,-105.82 436.407,-111.415 457.014,-116.497"/>
<polygon fill="midnightblue" stroke="midnightblue" points="456.4,-119.95 466.947,-118.946 458.076,-113.154 456.4,-119.95"/>
</g>
<!-- Node5 -->
<g id="node5" class="node"><title>Node5</title>
<g id="a_node5"><a xlink:href="../../dc/d2e/classutilities_1_1multilanguage_1_1_multi_language_utility.html#a6bc704aa624d0bc11d5f18717ef5842a" target="_top" xlink:title="utilities.multilanguage.\lMultiLanguageUtility.getString\lProperty">
<polygon fill="white" stroke="black" points="449.5,-59.5 449.5,-100.5 608.5,-100.5 608.5,-59.5 449.5,-59.5"/>
<text text-anchor="start" x="457.5" y="-88.5" font-family="Helvetica,sans-Serif" font-size="10.00">utilities.multilanguage.</text>
<text text-anchor="start" x="457.5" y="-77.5" font-family="Helvetica,sans-Serif" font-size="10.00">MultiLanguageUtility.getString</text>
<text text-anchor="middle" x="529" y="-66.5" font-family="Helvetica,sans-Serif" font-size="10.00">Property</text>
</a>
</g>
</g>
<!-- Node2&#45;&gt;Node5 -->
<g id="edge4" class="edge"><title>Node2&#45;&gt;Node5</title>
<path fill="none" stroke="midnightblue" d="M403.783,-80C415.496,-80 427.437,-80 439.058,-80"/>
<polygon fill="midnightblue" stroke="midnightblue" points="439.174,-83.5001 449.174,-80 439.174,-76.5001 439.174,-83.5001"/>
</g>
<!-- Node7 -->
<g id="node7" class="node"><title>Node7</title>
<g id="a_node7"><a xlink:href="../../d4/d18/classgame_authoring_1_1scenes_1_1actor_building_scenes_1_1behavior_builders_1_1_behavior_builder.html#ad7bb71fc06e4f460df8e0bc3146fd76a" target="_top" xlink:title="gameAuthoring.scenes.actor\lBuildingScenes.behaviorBuilders.\lBehaviorBuilder.createComboBox">
<polygon fill="white" stroke="black" points="440.5,0.5 440.5,-40.5 617.5,-40.5 617.5,0.5 440.5,0.5"/>
<text text-anchor="start" x="448.5" y="-28.5" font-family="Helvetica,sans-Serif" font-size="10.00">gameAuthoring.scenes.actor</text>
<text text-anchor="start" x="448.5" y="-17.5" font-family="Helvetica,sans-Serif" font-size="10.00">BuildingScenes.behaviorBuilders.</text>
<text text-anchor="middle" x="529" y="-6.5" font-family="Helvetica,sans-Serif" font-size="10.00">BehaviorBuilder.createComboBox</text>
</a>
</g>
</g>
<!-- Node2&#45;&gt;Node7 -->
<g id="edge6" class="edge"><title>Node2&#45;&gt;Node7</title>
<path fill="none" stroke="midnightblue" d="M384.061,-59.4353C403.127,-54.2117 423.745,-48.5631 443.256,-43.2176"/>
<polygon fill="midnightblue" stroke="midnightblue" points="444.317,-46.5558 453.037,-40.5378 442.468,-39.8046 444.317,-46.5558"/>
</g>
<!-- Node4 -->
<g id="node4" class="node"><title>Node4</title>
<g id="a_node4"><a xlink:href="../../dc/d2e/classutilities_1_1multilanguage_1_1_multi_language_utility.html#a18c8cee78f923458998009428cd84970" target="_top" xlink:title="utilities.multilanguage.\lMultiLanguageUtility.MultiLanguage\lUtility">
<polygon fill="white" stroke="black" points="654.5,-113.5 654.5,-154.5 839.5,-154.5 839.5,-113.5 654.5,-113.5"/>
<text text-anchor="start" x="662.5" y="-142.5" font-family="Helvetica,sans-Serif" font-size="10.00">utilities.multilanguage.</text>
<text text-anchor="start" x="662.5" y="-131.5" font-family="Helvetica,sans-Serif" font-size="10.00">MultiLanguageUtility.MultiLanguage</text>
<text text-anchor="middle" x="747" y="-120.5" font-family="Helvetica,sans-Serif" font-size="10.00">Utility</text>
</a>
</g>
</g>
<!-- Node3&#45;&gt;Node4 -->
<g id="edge3" class="edge"><title>Node3&#45;&gt;Node4</title>
<path fill="none" stroke="midnightblue" d="M614.749,-134C624.398,-134 634.307,-134 644.148,-134"/>
<polygon fill="midnightblue" stroke="midnightblue" points="644.365,-137.5 654.365,-134 644.365,-130.5 644.365,-137.5"/>
</g>
<!-- Node6 -->
<g id="node6" class="node"><title>Node6</title>
<g id="a_node6"><a xlink:href="../../dc/d2e/classutilities_1_1multilanguage_1_1_multi_language_utility.html#a124b4a760f410841ecc50dd4b16e40bb" target="_top" xlink:title="utilities.multilanguage.\lMultiLanguageUtility.getProperty">
<polygon fill="white" stroke="black" points="661.5,-65 661.5,-95 832.5,-95 832.5,-65 661.5,-65"/>
<text text-anchor="start" x="669.5" y="-83" font-family="Helvetica,sans-Serif" font-size="10.00">utilities.multilanguage.</text>
<text text-anchor="middle" x="747" y="-72" font-family="Helvetica,sans-Serif" font-size="10.00">MultiLanguageUtility.getProperty</text>
</a>
</g>
</g>
<!-- Node5&#45;&gt;Node6 -->
<g id="edge5" class="edge"><title>Node5&#45;&gt;Node6</title>
<path fill="none" stroke="midnightblue" d="M608.592,-80C622.375,-80 636.85,-80 651.022,-80"/>
<polygon fill="midnightblue" stroke="midnightblue" points="651.273,-83.5001 661.273,-80 651.273,-76.5001 651.273,-83.5001"/>
</g>
</g>
</svg>
