<?xml version="1.0" encoding="UTF-8" standalone="no"?>
<!DOCTYPE svg PUBLIC "-//W3C//DTD SVG 1.1//EN"
 "http://www.w3.org/Graphics/SVG/1.1/DTD/svg11.dtd">
<!-- Generated by graphviz version 2.36.0 (20140111.2315)
 -->
<!-- Title: gameAuthoring.scenes.actorBuildingScenes.behaviorBuilders.BehaviorBuilder.createCenterDisplay Pages: 1 -->
<svg width="412pt" height="48pt"
 viewBox="0.00 0.00 412.00 48.00" xmlns="http://www.w3.org/2000/svg" xmlns:xlink="http://www.w3.org/1999/xlink">
<g id="graph0" class="graph" transform="scale(1 1) rotate(0) translate(4 44)">
<title>gameAuthoring.scenes.actorBuildingScenes.behaviorBuilders.BehaviorBuilder.createCenterDisplay</title>
<polygon fill="white" stroke="none" points="-4,4 -4,-44 408,-44 408,4 -4,4"/>
<!-- Node1 -->
<g id="node1" class="node"><title>Node1</title>
<polygon fill="#bfbfbf" stroke="black" points="0.5,0.5 0.5,-40.5 191.5,-40.5 191.5,0.5 0.5,0.5"/>
<text text-anchor="start" x="8.5" y="-28.5" font-family="Helvetica,sans-Serif" font-size="10.00">gameAuthoring.scenes.actor</text>
<text text-anchor="start" x="8.5" y="-17.5" font-family="Helvetica,sans-Serif" font-size="10.00">BuildingScenes.behaviorBuilders.</text>
<text text-anchor="middle" x="96" y="-6.5" font-family="Helvetica,sans-Serif" font-size="10.00">BehaviorBuilder.createCenterDisplay</text>
</g>
<!-- Node2 -->
<g id="node2" class="node"><title>Node2</title>
<g id="a_node2"><a xlink:href="../../d4/d18/classgame_authoring_1_1scenes_1_1actor_building_scenes_1_1behavior_builders_1_1_behavior_builder.html#ae1a23d1b64117ab91179f898b504b66d" target="_top" xlink:title="gameAuthoring.scenes.actor\lBuildingScenes.behaviorBuilders.\lBehaviorBuilder.BehaviorBuilder">
<polygon fill="white" stroke="black" points="228.5,0.5 228.5,-40.5 403.5,-40.5 403.5,0.5 228.5,0.5"/>
<text text-anchor="start" x="236.5" y="-28.5" font-family="Helvetica,sans-Serif" font-size="10.00">gameAuthoring.scenes.actor</text>
<text text-anchor="start" x="236.5" y="-17.5" font-family="Helvetica,sans-Serif" font-size="10.00">BuildingScenes.behaviorBuilders.</text>
<text text-anchor="middle" x="316" y="-6.5" font-family="Helvetica,sans-Serif" font-size="10.00">BehaviorBuilder.BehaviorBuilder</text>
</a>
</g>
</g>
<!-- Node1&#45;&gt;Node2 -->
<g id="edge1" class="edge"><title>Node1&#45;&gt;Node2</title>
<path fill="none" stroke="midnightblue" d="M201.7,-20C210.612,-20 219.563,-20 228.313,-20"/>
<polygon fill="midnightblue" stroke="midnightblue" points="201.667,-16.5001 191.667,-20 201.667,-23.5001 201.667,-16.5001"/>
</g>
</g>
</svg>
