<?xml version="1.0" encoding="UTF-8" standalone="no"?>
<!DOCTYPE svg PUBLIC "-//W3C//DTD SVG 1.1//EN"
 "http://www.w3.org/Graphics/SVG/1.1/DTD/svg11.dtd">
<!-- Generated by graphviz version 2.36.0 (20140111.2315)
 -->
<!-- Title: gameAuthoring.scenes.actorBuildingScenes.TowerUpgradeGroup.addTower Pages: 1 -->
<svg width="496pt" height="48pt"
 viewBox="0.00 0.00 496.00 48.00" xmlns="http://www.w3.org/2000/svg" xmlns:xlink="http://www.w3.org/1999/xlink">
<g id="graph0" class="graph" transform="scale(1 1) rotate(0) translate(4 44)">
<title>gameAuthoring.scenes.actorBuildingScenes.TowerUpgradeGroup.addTower</title>
<polygon fill="white" stroke="none" points="-4,4 -4,-44 492,-44 492,4 -4,4"/>
<!-- Node1 -->
<g id="node1" class="node"><title>Node1</title>
<polygon fill="#bfbfbf" stroke="black" points="0,-5 0,-35 236,-35 236,-5 0,-5"/>
<text text-anchor="start" x="8" y="-23" font-family="Helvetica,sans-Serif" font-size="10.00">gameAuthoring.scenes.actor</text>
<text text-anchor="middle" x="118" y="-12" font-family="Helvetica,sans-Serif" font-size="10.00">BuildingScenes.TowerUpgradeGroup.addTower</text>
</g>
<!-- Node2 -->
<g id="node2" class="node"><title>Node2</title>
<g id="a_node2"><a xlink:href="../../d4/d66/classgame_authoring_1_1scenes_1_1actor_building_scenes_1_1_tower_building_scene.html#a0eb2856ee189de1452b66ae4fe2d81ae" target="_top" xlink:title="gameAuthoring.scenes.actor\lBuildingScenes.TowerBuildingScene.make\lNewActor">
<polygon fill="white" stroke="black" points="272,0.5 272,-40.5 488,-40.5 488,0.5 272,0.5"/>
<text text-anchor="start" x="280" y="-28.5" font-family="Helvetica,sans-Serif" font-size="10.00">gameAuthoring.scenes.actor</text>
<text text-anchor="start" x="280" y="-17.5" font-family="Helvetica,sans-Serif" font-size="10.00">BuildingScenes.TowerBuildingScene.make</text>
<text text-anchor="middle" x="380" y="-6.5" font-family="Helvetica,sans-Serif" font-size="10.00">NewActor</text>
</a>
</g>
</g>
<!-- Node1&#45;&gt;Node2 -->
<g id="edge1" class="edge"><title>Node1&#45;&gt;Node2</title>
<path fill="none" stroke="midnightblue" d="M246.103,-20C254.664,-20 263.242,-20 271.688,-20"/>
<polygon fill="midnightblue" stroke="midnightblue" points="246.07,-16.5001 236.07,-20 246.07,-23.5001 246.07,-16.5001"/>
</g>
</g>
</svg>
