<?xml version="1.0" encoding="UTF-8" standalone="no"?>
<!DOCTYPE svg PUBLIC "-//W3C//DTD SVG 1.1//EN"
 "http://www.w3.org/Graphics/SVG/1.1/DTD/svg11.dtd">
<!-- Generated by graphviz version 2.36.0 (20140111.2315)
 -->
<!-- Title: gameEngine.MainEngineManager.loadState Pages: 1 -->
<svg width="1412pt" height="790pt"
 viewBox="0.00 0.00 1412.00 790.00" xmlns="http://www.w3.org/2000/svg" xmlns:xlink="http://www.w3.org/1999/xlink">
<g id="graph0" class="graph" transform="scale(1 1) rotate(0) translate(4 786)">
<title>gameEngine.MainEngineManager.loadState</title>
<polygon fill="white" stroke="none" points="-4,4 -4,-786 1408,-786 1408,4 -4,4"/>
<!-- Node1 -->
<g id="node1" class="node"><title>Node1</title>
<polygon fill="#bfbfbf" stroke="black" points="0.5,-196 0.5,-226 199.5,-226 199.5,-196 0.5,-196"/>
<text text-anchor="start" x="8.5" y="-214" font-family="Helvetica,sans-Serif" font-size="10.00">gameEngine.MainEngineManager.load</text>
<text text-anchor="middle" x="100" y="-203" font-family="Helvetica,sans-Serif" font-size="10.00">State</text>
</g>
<!-- Node2 -->
<g id="node2" class="node"><title>Node2</title>
<g id="a_node2"><a xlink:href="../../d0/d94/classgame_engine_1_1_main_engine_manager.html#a42a2b5309be3a2d21f572d3d9f353a28" target="_top" xlink:title="gameEngine.MainEngineManager.add\lTower">
<polygon fill="white" stroke="black" points="238.5,-514 238.5,-544 435.5,-544 435.5,-514 238.5,-514"/>
<text text-anchor="start" x="246.5" y="-532" font-family="Helvetica,sans-Serif" font-size="10.00">gameEngine.MainEngineManager.add</text>
<text text-anchor="middle" x="337" y="-521" font-family="Helvetica,sans-Serif" font-size="10.00">Tower</text>
</a>
</g>
</g>
<!-- Node1&#45;&gt;Node2 -->
<g id="edge1" class="edge"><title>Node1&#45;&gt;Node2</title>
<path fill="none" stroke="midnightblue" d="M112.335,-226.338C150.26,-277.658 272.899,-443.612 318.612,-505.471"/>
<polygon fill="midnightblue" stroke="midnightblue" points="316.021,-507.854 324.779,-513.816 321.651,-503.694 316.021,-507.854"/>
</g>
<!-- Node16 -->
<g id="node16" class="node"><title>Node16</title>
<g id="a_node16"><a xlink:href="../../d0/d94/classgame_engine_1_1_main_engine_manager.html#abce40b23d5178f6390ffcbffd6c930e3" target="_top" xlink:title="gameEngine.MainEngineManager.clear">
<polygon fill="white" stroke="black" points="236,-294.5 236,-313.5 438,-313.5 438,-294.5 236,-294.5"/>
<text text-anchor="middle" x="337" y="-301.5" font-family="Helvetica,sans-Serif" font-size="10.00">gameEngine.MainEngineManager.clear</text>
</a>
</g>
</g>
<!-- Node1&#45;&gt;Node16 -->
<g id="edge16" class="edge"><title>Node1&#45;&gt;Node16</title>
<path fill="none" stroke="midnightblue" d="M123.899,-226.153C149.986,-242.743 194.399,-268.977 236,-284 244.775,-287.169 254.175,-289.881 263.57,-292.189"/>
<polygon fill="midnightblue" stroke="midnightblue" points="262.801,-295.604 273.333,-294.451 264.381,-288.784 262.801,-295.604"/>
</g>
<!-- Node18 -->
<g id="node18" class="node"><title>Node18</title>
<g id="a_node18"><a xlink:href="../../d8/d32/classutilities_1_1_g_s_o_n_1_1object_wrappers_1_1_game_state_wrapper.html#aaf5a7e2bb64ffcceb3b3a0bece408c8f" target="_top" xlink:title="utilities.GSON.objectWrappers.\lGameStateWrapper.getHealth">
<polygon fill="white" stroke="black" points="256,-245 256,-275 418,-275 418,-245 256,-245"/>
<text text-anchor="start" x="264" y="-263" font-family="Helvetica,sans-Serif" font-size="10.00">utilities.GSON.objectWrappers.</text>
<text text-anchor="middle" x="337" y="-252" font-family="Helvetica,sans-Serif" font-size="10.00">GameStateWrapper.getHealth</text>
</a>
</g>
</g>
<!-- Node1&#45;&gt;Node18 -->
<g id="edge18" class="edge"><title>Node1&#45;&gt;Node18</title>
<path fill="none" stroke="midnightblue" d="M173.105,-226.035C198.707,-231.373 227.707,-237.42 254.07,-242.917"/>
<polygon fill="midnightblue" stroke="midnightblue" points="253.528,-246.379 264.032,-244.994 254.957,-239.526 253.528,-246.379"/>
</g>
<!-- Node19 -->
<g id="node19" class="node"><title>Node19</title>
<g id="a_node19"><a xlink:href="../../d8/d32/classutilities_1_1_g_s_o_n_1_1object_wrappers_1_1_game_state_wrapper.html#a306cf0b386a005285e513488bbd0c3ee" target="_top" xlink:title="utilities.GSON.objectWrappers.\lGameStateWrapper.getLevel">
<polygon fill="white" stroke="black" points="256,-196 256,-226 418,-226 418,-196 256,-196"/>
<text text-anchor="start" x="264" y="-214" font-family="Helvetica,sans-Serif" font-size="10.00">utilities.GSON.objectWrappers.</text>
<text text-anchor="middle" x="337" y="-203" font-family="Helvetica,sans-Serif" font-size="10.00">GameStateWrapper.getLevel</text>
</a>
</g>
</g>
<!-- Node1&#45;&gt;Node19 -->
<g id="edge19" class="edge"><title>Node1&#45;&gt;Node19</title>
<path fill="none" stroke="midnightblue" d="M199.64,-211C214.846,-211 230.485,-211 245.502,-211"/>
<polygon fill="midnightblue" stroke="midnightblue" points="245.786,-214.5 255.786,-211 245.785,-207.5 245.786,-214.5"/>
</g>
<!-- Node20 -->
<g id="node20" class="node"><title>Node20</title>
<g id="a_node20"><a xlink:href="../../d8/d32/classutilities_1_1_g_s_o_n_1_1object_wrappers_1_1_game_state_wrapper.html#a7200667d12b5125d38dccf4f058ba1ed" target="_top" xlink:title="utilities.GSON.objectWrappers.\lGameStateWrapper.getMoney">
<polygon fill="white" stroke="black" points="256,-147 256,-177 418,-177 418,-147 256,-147"/>
<text text-anchor="start" x="264" y="-165" font-family="Helvetica,sans-Serif" font-size="10.00">utilities.GSON.objectWrappers.</text>
<text text-anchor="middle" x="337" y="-154" font-family="Helvetica,sans-Serif" font-size="10.00">GameStateWrapper.getMoney</text>
</a>
</g>
</g>
<!-- Node1&#45;&gt;Node20 -->
<g id="edge20" class="edge"><title>Node1&#45;&gt;Node20</title>
<path fill="none" stroke="midnightblue" d="M173.105,-195.965C198.707,-190.627 227.707,-184.58 254.07,-179.083"/>
<polygon fill="midnightblue" stroke="midnightblue" points="254.957,-182.474 264.032,-177.006 253.528,-175.621 254.957,-182.474"/>
</g>
<!-- Node21 -->
<g id="node21" class="node"><title>Node21</title>
<g id="a_node21"><a xlink:href="../../d8/d32/classutilities_1_1_g_s_o_n_1_1object_wrappers_1_1_game_state_wrapper.html#a02fa9fa0dbd5e8aecde036165b2da128" target="_top" xlink:title="utilities.GSON.objectWrappers.\lGameStateWrapper.getName">
<polygon fill="white" stroke="black" points="256,-98 256,-128 418,-128 418,-98 256,-98"/>
<text text-anchor="start" x="264" y="-116" font-family="Helvetica,sans-Serif" font-size="10.00">utilities.GSON.objectWrappers.</text>
<text text-anchor="middle" x="337" y="-105" font-family="Helvetica,sans-Serif" font-size="10.00">GameStateWrapper.getName</text>
</a>
</g>
</g>
<!-- Node1&#45;&gt;Node21 -->
<g id="edge21" class="edge"><title>Node1&#45;&gt;Node21</title>
<path fill="none" stroke="midnightblue" d="M123.978,-195.918C150.134,-179.352 194.61,-152.981 236,-137 241.548,-134.858 247.346,-132.866 253.234,-131.023"/>
<polygon fill="midnightblue" stroke="midnightblue" points="254.613,-134.265 263.201,-128.061 252.618,-127.555 254.613,-134.265"/>
</g>
<!-- Node22 -->
<g id="node22" class="node"><title>Node22</title>
<g id="a_node22"><a xlink:href="../../d8/d32/classutilities_1_1_g_s_o_n_1_1object_wrappers_1_1_game_state_wrapper.html#a9c1d3cac483eef50d46e8bdd863bdae9" target="_top" xlink:title="utilities.GSON.objectWrappers.\lGameStateWrapper.getTowerWrappers">
<polygon fill="white" stroke="black" points="237,-49 237,-79 437,-79 437,-49 237,-49"/>
<text text-anchor="start" x="245" y="-67" font-family="Helvetica,sans-Serif" font-size="10.00">utilities.GSON.objectWrappers.</text>
<text text-anchor="middle" x="337" y="-56" font-family="Helvetica,sans-Serif" font-size="10.00">GameStateWrapper.getTowerWrappers</text>
</a>
</g>
</g>
<!-- Node1&#45;&gt;Node22 -->
<g id="edge22" class="edge"><title>Node1&#45;&gt;Node22</title>
<path fill="none" stroke="midnightblue" d="M113.02,-195.9C134.7,-169.728 183.048,-116.056 236,-88 239.683,-86.0487 243.525,-84.2537 247.468,-82.6027"/>
<polygon fill="midnightblue" stroke="midnightblue" points="248.744,-85.8621 256.821,-79.0061 246.232,-79.3285 248.744,-85.8621"/>
</g>
<!-- Node23 -->
<g id="node23" class="node"><title>Node23</title>
<g id="a_node23"><a xlink:href="../../d0/d94/classgame_engine_1_1_main_engine_manager.html#a9730cb1b41966ae46599b3c5ee2b670d" target="_top" xlink:title="gameEngine.MainEngineManager.load\lLevel">
<polygon fill="white" stroke="black" points="237.5,-333 237.5,-363 436.5,-363 436.5,-333 237.5,-333"/>
<text text-anchor="start" x="245.5" y="-351" font-family="Helvetica,sans-Serif" font-size="10.00">gameEngine.MainEngineManager.load</text>
<text text-anchor="middle" x="337" y="-340" font-family="Helvetica,sans-Serif" font-size="10.00">Level</text>
</a>
</g>
</g>
<!-- Node1&#45;&gt;Node23 -->
<g id="edge23" class="edge"><title>Node1&#45;&gt;Node23</title>
<path fill="none" stroke="midnightblue" d="M114.794,-226.193C137.619,-250.392 185.739,-297.547 236,-323 240.67,-325.365 245.578,-327.516 250.609,-329.47"/>
<polygon fill="midnightblue" stroke="midnightblue" points="249.811,-332.903 260.405,-332.993 252.179,-326.316 249.811,-332.903"/>
</g>
<!-- Node30 -->
<g id="node30" class="node"><title>Node30</title>
<g id="a_node30"><a xlink:href="../../d5/db4/classutilities_1_1_g_s_o_n_1_1_g_s_o_n_file_reader.html#ae4fc2b1f3a49f353f8d4c3b72afa5ef0" target="_top" xlink:title="utilities.GSON.GSONFileReader.read\lGameStateFromJSon">
<polygon fill="white" stroke="black" points="243.5,-0 243.5,-30 430.5,-30 430.5,-0 243.5,-0"/>
<text text-anchor="start" x="251.5" y="-18" font-family="Helvetica,sans-Serif" font-size="10.00">utilities.GSON.GSONFileReader.read</text>
<text text-anchor="middle" x="337" y="-7" font-family="Helvetica,sans-Serif" font-size="10.00">GameStateFromJSon</text>
</a>
</g>
</g>
<!-- Node1&#45;&gt;Node30 -->
<g id="edge32" class="edge"><title>Node1&#45;&gt;Node30</title>
<path fill="none" stroke="midnightblue" d="M108.381,-195.795C125.646,-161.917 172.1,-79.9978 236,-39 238.62,-37.3188 241.348,-35.7553 244.155,-34.3012"/>
<polygon fill="midnightblue" stroke="midnightblue" points="245.771,-37.4101 253.362,-30.0197 242.819,-31.0628 245.771,-37.4101"/>
</g>
<!-- Node3 -->
<g id="node3" class="node"><title>Node3</title>
<g id="a_node3"><a xlink:href="../../db/d6c/classgame_engine_1_1_data_1_1_range_restricted_collection.html#a42ea7db9dded67061a467a111fdc49f4" target="_top" xlink:title="gameEngine.Data.RangeRestricted\lCollection.add">
<polygon fill="white" stroke="black" points="479.5,-645 479.5,-675 662.5,-675 662.5,-645 479.5,-645"/>
<text text-anchor="start" x="487.5" y="-663" font-family="Helvetica,sans-Serif" font-size="10.00">gameEngine.Data.RangeRestricted</text>
<text text-anchor="middle" x="571" y="-652" font-family="Helvetica,sans-Serif" font-size="10.00">Collection.add</text>
</a>
</g>
</g>
<!-- Node2&#45;&gt;Node3 -->
<g id="edge2" class="edge"><title>Node2&#45;&gt;Node3</title>
<path fill="none" stroke="midnightblue" d="M352.885,-544.028C376.486,-567.008 424.874,-610.758 474,-635 478.875,-637.405 484.007,-639.598 489.258,-641.593"/>
<polygon fill="midnightblue" stroke="midnightblue" points="488.216,-644.937 498.811,-644.975 490.552,-638.338 488.216,-644.937"/>
</g>
<!-- Node4 -->
<g id="node4" class="node"><title>Node4</title>
<g id="a_node4"><a xlink:href="../../df/db9/classgame_engine_1_1actors_1_1_base_tower.html#a5196fadecf06ee9ecebc59a678f8f272" target="_top" xlink:title="gameEngine.actors.BaseTower.copy">
<polygon fill="white" stroke="black" points="477,-519.5 477,-538.5 665,-538.5 665,-519.5 477,-519.5"/>
<text text-anchor="middle" x="571" y="-526.5" font-family="Helvetica,sans-Serif" font-size="10.00">gameEngine.actors.BaseTower.copy</text>
</a>
</g>
</g>
<!-- Node2&#45;&gt;Node4 -->
<g id="edge3" class="edge"><title>Node2&#45;&gt;Node4</title>
<path fill="none" stroke="midnightblue" d="M435.716,-529C445.933,-529 456.343,-529 466.62,-529"/>
<polygon fill="midnightblue" stroke="midnightblue" points="466.841,-532.5 476.84,-529 466.84,-525.5 466.841,-532.5"/>
</g>
<!-- Node7 -->
<g id="node7" class="node"><title>Node7</title>
<g id="a_node7"><a xlink:href="../../d5/d02/classgame_engine_1_1actors_1_1_base_actor.html#ae877e5334153c4e125fb84bf993587af" target="_top" xlink:title="gameEngine.actors.BaseActor.getNode">
<polygon fill="white" stroke="black" points="704,-545.5 704,-564.5 910,-564.5 910,-545.5 704,-545.5"/>
<text text-anchor="middle" x="807" y="-552.5" font-family="Helvetica,sans-Serif" font-size="10.00">gameEngine.actors.BaseActor.getNode</text>
</a>
</g>
</g>
<!-- Node2&#45;&gt;Node7 -->
<g id="edge6" class="edge"><title>Node2&#45;&gt;Node7</title>
<path fill="none" stroke="midnightblue" d="M435.535,-544.036C448.445,-545.612 461.524,-547 474,-548 546.96,-553.845 629.208,-555.614 693.587,-555.913"/>
<polygon fill="midnightblue" stroke="midnightblue" points="693.75,-559.413 703.762,-555.948 693.775,-552.413 693.75,-559.413"/>
</g>
<!-- Node8 -->
<g id="node8" class="node"><title>Node8</title>
<g id="a_node8"><a xlink:href="../../d0/d94/classgame_engine_1_1_main_engine_manager.html#a80b291e3df09fa199760f6c7b1482638" target="_top" xlink:title="gameEngine.MainEngineManager.set\lTowerTileStatus">
<polygon fill="white" stroke="black" points="474,-596 474,-626 668,-626 668,-596 474,-596"/>
<text text-anchor="start" x="482" y="-614" font-family="Helvetica,sans-Serif" font-size="10.00">gameEngine.MainEngineManager.set</text>
<text text-anchor="middle" x="571" y="-603" font-family="Helvetica,sans-Serif" font-size="10.00">TowerTileStatus</text>
</a>
</g>
</g>
<!-- Node2&#45;&gt;Node8 -->
<g id="edge7" class="edge"><title>Node2&#45;&gt;Node8</title>
<path fill="none" stroke="midnightblue" d="M375.581,-544.093C402.759,-554.83 440.447,-569.356 474,-581 485.47,-584.981 497.791,-589.012 509.655,-592.773"/>
<polygon fill="midnightblue" stroke="midnightblue" points="508.896,-596.203 519.485,-595.862 510.994,-589.525 508.896,-596.203"/>
</g>
<!-- Node14 -->
<g id="node14" class="node"><title>Node14</title>
<g id="a_node14"><a xlink:href="../../dd/df0/classutilities_1_1_java_f_xutilities_1_1image_view_1_1_centered_image_view.html#a4df6d41d08c4c4a5c530290c736926f2" target="_top" xlink:title="utilities.JavaFXutilities.image\lView.CenteredImageView.setXCenter">
<polygon fill="white" stroke="black" points="475.5,-470 475.5,-500 666.5,-500 666.5,-470 475.5,-470"/>
<text text-anchor="start" x="483.5" y="-488" font-family="Helvetica,sans-Serif" font-size="10.00">utilities.JavaFXutilities.image</text>
<text text-anchor="middle" x="571" y="-477" font-family="Helvetica,sans-Serif" font-size="10.00">View.CenteredImageView.setXCenter</text>
</a>
</g>
</g>
<!-- Node2&#45;&gt;Node14 -->
<g id="edge14" class="edge"><title>Node2&#45;&gt;Node14</title>
<path fill="none" stroke="midnightblue" d="M417.192,-513.981C437.703,-510.091 459.927,-505.876 480.908,-501.897"/>
<polygon fill="midnightblue" stroke="midnightblue" points="481.598,-505.328 490.771,-500.026 480.294,-498.451 481.598,-505.328"/>
</g>
<!-- Node15 -->
<g id="node15" class="node"><title>Node15</title>
<g id="a_node15"><a xlink:href="../../dd/df0/classutilities_1_1_java_f_xutilities_1_1image_view_1_1_centered_image_view.html#a2bcbaa8cc681ef2663182084f742d29d" target="_top" xlink:title="utilities.JavaFXutilities.image\lView.CenteredImageView.setYCenter">
<polygon fill="white" stroke="black" points="475.5,-421 475.5,-451 666.5,-451 666.5,-421 475.5,-421"/>
<text text-anchor="start" x="483.5" y="-439" font-family="Helvetica,sans-Serif" font-size="10.00">utilities.JavaFXutilities.image</text>
<text text-anchor="middle" x="571" y="-428" font-family="Helvetica,sans-Serif" font-size="10.00">View.CenteredImageView.setYCenter</text>
</a>
</g>
</g>
<!-- Node2&#45;&gt;Node15 -->
<g id="edge15" class="edge"><title>Node2&#45;&gt;Node15</title>
<path fill="none" stroke="midnightblue" d="M364.35,-513.748C391.219,-498.698 434.459,-475.847 474,-461 480.706,-458.482 487.768,-456.122 494.892,-453.935"/>
<polygon fill="midnightblue" stroke="midnightblue" points="496.018,-457.252 504.617,-451.063 494.036,-450.539 496.018,-457.252"/>
</g>
<!-- Node5 -->
<g id="node5" class="node"><title>Node5</title>
<g id="a_node5"><a xlink:href="../../d5/d02/classgame_engine_1_1actors_1_1_base_actor.html#a7feb699c5d4dc6ca8588beacc5567eff" target="_top" xlink:title="gameEngine.actors.BaseActor.copy\lBehaviors">
<polygon fill="white" stroke="black" points="713.5,-440 713.5,-470 900.5,-470 900.5,-440 713.5,-440"/>
<text text-anchor="start" x="721.5" y="-458" font-family="Helvetica,sans-Serif" font-size="10.00">gameEngine.actors.BaseActor.copy</text>
<text text-anchor="middle" x="807" y="-447" font-family="Helvetica,sans-Serif" font-size="10.00">Behaviors</text>
</a>
</g>
</g>
<!-- Node4&#45;&gt;Node5 -->
<g id="edge4" class="edge"><title>Node4&#45;&gt;Node5</title>
<path fill="none" stroke="midnightblue" d="M633.354,-519.497C645.069,-516.77 657.078,-513.324 668,-509 685.434,-502.098 686.927,-494.753 704,-487 715.334,-481.853 727.73,-477.207 739.855,-473.152"/>
<polygon fill="midnightblue" stroke="midnightblue" points="741.06,-476.44 749.494,-470.028 738.902,-469.781 741.06,-476.44"/>
</g>
<!-- Node6 -->
<g id="node6" class="node"><title>Node6</title>
<g id="a_node6"><a xlink:href="../../df/db9/classgame_engine_1_1actors_1_1_base_tower.html#a579a596add08873663ac736c7800f687" target="_top" xlink:title="gameEngine.actors.BaseTower.\lBaseTower">
<polygon fill="white" stroke="black" points="724.5,-496 724.5,-526 889.5,-526 889.5,-496 724.5,-496"/>
<text text-anchor="start" x="732.5" y="-514" font-family="Helvetica,sans-Serif" font-size="10.00">gameEngine.actors.BaseTower.</text>
<text text-anchor="middle" x="807" y="-503" font-family="Helvetica,sans-Serif" font-size="10.00">BaseTower</text>
</a>
</g>
</g>
<!-- Node4&#45;&gt;Node6 -->
<g id="edge5" class="edge"><title>Node4&#45;&gt;Node6</title>
<path fill="none" stroke="midnightblue" d="M665.155,-521.834C681.151,-520.604 697.769,-519.325 713.741,-518.097"/>
<polygon fill="midnightblue" stroke="midnightblue" points="714.429,-521.554 724.131,-517.298 713.892,-514.575 714.429,-521.554"/>
</g>
<!-- Node8&#45;&gt;Node7 -->
<g id="edge8" class="edge"><title>Node8&#45;&gt;Node7</title>
<path fill="none" stroke="midnightblue" d="M621.561,-595.979C646.21,-588.797 676.532,-580.395 704,-574 715.582,-571.304 727.973,-568.735 739.986,-566.406"/>
<polygon fill="midnightblue" stroke="midnightblue" points="740.792,-569.816 749.962,-564.51 739.485,-562.939 740.792,-569.816"/>
</g>
<!-- Node9 -->
<g id="node9" class="node"><title>Node9</title>
<g id="a_node9"><a xlink:href="../../d0/d94/classgame_engine_1_1_main_engine_manager.html#ac3e9c579c0ea0259bf4dd5a0dc7d29b1" target="_top" xlink:title="gameEngine.MainEngineManager.get\lIntersectingTowerTileNode">
<polygon fill="white" stroke="black" points="710,-643 710,-673 904,-673 904,-643 710,-643"/>
<text text-anchor="start" x="718" y="-661" font-family="Helvetica,sans-Serif" font-size="10.00">gameEngine.MainEngineManager.get</text>
<text text-anchor="middle" x="807" y="-650" font-family="Helvetica,sans-Serif" font-size="10.00">IntersectingTowerTileNode</text>
</a>
</g>
</g>
<!-- Node8&#45;&gt;Node9 -->
<g id="edge9" class="edge"><title>Node8&#45;&gt;Node9</title>
<path fill="none" stroke="midnightblue" d="M646.682,-626C670.429,-630.77 696.863,-636.079 721.266,-640.981"/>
<polygon fill="midnightblue" stroke="midnightblue" points="720.731,-644.443 731.224,-642.981 722.11,-637.58 720.731,-644.443"/>
</g>
<!-- Node10 -->
<g id="node10" class="node"><title>Node10</title>
<g id="a_node10"><a xlink:href="../../d5/db4/classgame_authoring_1_1scenes_1_1path_building_1_1building_panes_1_1tower_regions_1_1_tile.html#afe5b972b91b5f857bfbabd1894a48592" target="_top" xlink:title="gameAuthoring.scenes.path\lBuilding.buildingPanes.towerRegions.\lTile.getRow">
<polygon fill="white" stroke="black" points="711.5,-583.5 711.5,-624.5 902.5,-624.5 902.5,-583.5 711.5,-583.5"/>
<text text-anchor="start" x="719.5" y="-612.5" font-family="Helvetica,sans-Serif" font-size="10.00">gameAuthoring.scenes.path</text>
<text text-anchor="start" x="719.5" y="-601.5" font-family="Helvetica,sans-Serif" font-size="10.00">Building.buildingPanes.towerRegions.</text>
<text text-anchor="middle" x="807" y="-590.5" font-family="Helvetica,sans-Serif" font-size="10.00">Tile.getRow</text>
</a>
</g>
</g>
<!-- Node8&#45;&gt;Node10 -->
<g id="edge10" class="edge"><title>Node8&#45;&gt;Node10</title>
<path fill="none" stroke="midnightblue" d="M668.19,-608.123C679.096,-607.796 690.251,-607.463 701.259,-607.133"/>
<polygon fill="midnightblue" stroke="midnightblue" points="701.426,-610.63 711.317,-606.832 701.216,-603.633 701.426,-610.63"/>
</g>
<!-- Node11 -->
<g id="node11" class="node"><title>Node11</title>
<g id="a_node11"><a xlink:href="../../d5/db4/classgame_authoring_1_1scenes_1_1path_building_1_1building_panes_1_1tower_regions_1_1_tile.html#a71f5d493f80cf25cea9276247991294a" target="_top" xlink:title="gameAuthoring.scenes.path\lBuilding.buildingPanes.towerRegions.\lTile.getColumn">
<polygon fill="white" stroke="black" points="711.5,-740.5 711.5,-781.5 902.5,-781.5 902.5,-740.5 711.5,-740.5"/>
<text text-anchor="start" x="719.5" y="-769.5" font-family="Helvetica,sans-Serif" font-size="10.00">gameAuthoring.scenes.path</text>
<text text-anchor="start" x="719.5" y="-758.5" font-family="Helvetica,sans-Serif" font-size="10.00">Building.buildingPanes.towerRegions.</text>
<text text-anchor="middle" x="807" y="-747.5" font-family="Helvetica,sans-Serif" font-size="10.00">Tile.getColumn</text>
</a>
</g>
</g>
<!-- Node8&#45;&gt;Node11 -->
<g id="edge11" class="edge"><title>Node8&#45;&gt;Node11</title>
<path fill="none" stroke="midnightblue" d="M653.999,-626.217C659.037,-628.969 663.771,-632.203 668,-636 701.596,-666.167 670.88,-700.312 704,-731 705.303,-732.208 706.653,-733.367 708.043,-734.479"/>
<polygon fill="midnightblue" stroke="midnightblue" points="706.22,-737.476 716.415,-740.357 710.242,-731.747 706.22,-737.476"/>
</g>
<!-- Node12 -->
<g id="node12" class="node"><title>Node12</title>
<g id="a_node12"><a xlink:href="../../da/df9/classgame_engine_1_1_data_1_1_tower_tile_grid.html#a367cfa2903c44048ec959bcc546486fe" target="_top" xlink:title="gameEngine.Data.TowerTile\lGrid.setTowerTile">
<polygon fill="white" stroke="black" points="733,-692 733,-722 881,-722 881,-692 733,-692"/>
<text text-anchor="start" x="741" y="-710" font-family="Helvetica,sans-Serif" font-size="10.00">gameEngine.Data.TowerTile</text>
<text text-anchor="middle" x="807" y="-699" font-family="Helvetica,sans-Serif" font-size="10.00">Grid.setTowerTile</text>
</a>
</g>
</g>
<!-- Node8&#45;&gt;Node12 -->
<g id="edge12" class="edge"><title>Node8&#45;&gt;Node12</title>
<path fill="none" stroke="midnightblue" d="M648.91,-626.084C655.621,-628.851 662.096,-632.126 668,-636 689.705,-650.244 682.193,-667.913 704,-682 710.002,-685.877 716.556,-689.153 723.353,-691.921"/>
<polygon fill="midnightblue" stroke="midnightblue" points="722.15,-695.207 732.743,-695.389 724.575,-688.641 722.15,-695.207"/>
</g>
<!-- Node13 -->
<g id="node13" class="node"><title>Node13</title>
<g id="a_node13"><a xlink:href="../../da/df9/classgame_engine_1_1_data_1_1_tower_tile_grid.html#a2bcbce6f5009d9adf2d13bc540c36a52" target="_top" xlink:title="gameEngine.Data.TowerTile\lGrid.setChangedStatus">
<polygon fill="white" stroke="black" points="977,-692 977,-722 1125,-722 1125,-692 977,-692"/>
<text text-anchor="start" x="985" y="-710" font-family="Helvetica,sans-Serif" font-size="10.00">gameEngine.Data.TowerTile</text>
<text text-anchor="middle" x="1051" y="-699" font-family="Helvetica,sans-Serif" font-size="10.00">Grid.setChangedStatus</text>
</a>
</g>
</g>
<!-- Node12&#45;&gt;Node13 -->
<g id="edge13" class="edge"><title>Node12&#45;&gt;Node13</title>
<path fill="none" stroke="midnightblue" d="M881.265,-707C908.275,-707 939.064,-707 966.882,-707"/>
<polygon fill="midnightblue" stroke="midnightblue" points="966.984,-710.5 976.984,-707 966.984,-703.5 966.984,-710.5"/>
</g>
<!-- Node17 -->
<g id="node17" class="node"><title>Node17</title>
<g id="a_node17"><a xlink:href="../../db/d6c/classgame_engine_1_1_data_1_1_range_restricted_collection.html#a63366f841f48e7cf54b8408d81bc9fff" target="_top" xlink:title="gameEngine.Data.RangeRestricted\lCollection.clear">
<polygon fill="white" stroke="black" points="479.5,-235 479.5,-265 662.5,-265 662.5,-235 479.5,-235"/>
<text text-anchor="start" x="487.5" y="-253" font-family="Helvetica,sans-Serif" font-size="10.00">gameEngine.Data.RangeRestricted</text>
<text text-anchor="middle" x="571" y="-242" font-family="Helvetica,sans-Serif" font-size="10.00">Collection.clear</text>
</a>
</g>
</g>
<!-- Node16&#45;&gt;Node17 -->
<g id="edge17" class="edge"><title>Node16&#45;&gt;Node17</title>
<path fill="none" stroke="midnightblue" d="M388.474,-294.464C404.362,-291.312 421.949,-287.669 438,-284 444.814,-282.442 473.452,-275.081 502.32,-267.604"/>
<polygon fill="midnightblue" stroke="midnightblue" points="503.286,-270.97 512.088,-265.073 501.529,-264.194 503.286,-270.97"/>
</g>
<!-- Node24 -->
<g id="node24" class="node"><title>Node24</title>
<g id="a_node24"><a xlink:href="../../d4/d81/classgame_engine_1_1actors_1_1_base_enemy.html#adb93973e4e8e4da347747801642fcaf2" target="_top" xlink:title="gameEngine.actors.BaseEnemy.copy">
<polygon fill="white" stroke="black" points="474,-382.5 474,-401.5 668,-401.5 668,-382.5 474,-382.5"/>
<text text-anchor="middle" x="571" y="-389.5" font-family="Helvetica,sans-Serif" font-size="10.00">gameEngine.actors.BaseEnemy.copy</text>
</a>
</g>
</g>
<!-- Node23&#45;&gt;Node24 -->
<g id="edge24" class="edge"><title>Node23&#45;&gt;Node24</title>
<path fill="none" stroke="midnightblue" d="M417.192,-363.019C447.472,-368.762 481.484,-375.213 509.72,-380.568"/>
<polygon fill="midnightblue" stroke="midnightblue" points="509.367,-384.063 519.844,-382.488 510.671,-377.185 509.367,-384.063"/>
</g>
<!-- Node28 -->
<g id="node28" class="node"><title>Node28</title>
<g id="a_node28"><a xlink:href="../../da/dc8/classgame_engine_1_1levels_1_1_base_level.html#a10e08749157dcd85085d053a952503db" target="_top" xlink:title="gameEngine.levels.BaseLevel.get\lDuration">
<polygon fill="white" stroke="black" points="482.5,-284 482.5,-314 659.5,-314 659.5,-284 482.5,-284"/>
<text text-anchor="start" x="490.5" y="-302" font-family="Helvetica,sans-Serif" font-size="10.00">gameEngine.levels.BaseLevel.get</text>
<text text-anchor="middle" x="571" y="-291" font-family="Helvetica,sans-Serif" font-size="10.00">Duration</text>
</a>
</g>
</g>
<!-- Node23&#45;&gt;Node28 -->
<g id="edge30" class="edge"><title>Node23&#45;&gt;Node28</title>
<path fill="none" stroke="midnightblue" d="M409.184,-332.965C434.46,-327.627 463.09,-321.58 489.115,-316.083"/>
<polygon fill="midnightblue" stroke="midnightblue" points="489.889,-319.497 498.95,-314.006 488.443,-312.648 489.889,-319.497"/>
</g>
<!-- Node29 -->
<g id="node29" class="node"><title>Node29</title>
<g id="a_node29"><a xlink:href="../../da/dc8/classgame_engine_1_1levels_1_1_base_level.html#afc3aa5d464c27391506590a989fc0c02" target="_top" xlink:title="gameEngine.levels.BaseLevel.get\lEnemyCountPairs">
<polygon fill="white" stroke="black" points="482.5,-333 482.5,-363 659.5,-363 659.5,-333 482.5,-333"/>
<text text-anchor="start" x="490.5" y="-351" font-family="Helvetica,sans-Serif" font-size="10.00">gameEngine.levels.BaseLevel.get</text>
<text text-anchor="middle" x="571" y="-340" font-family="Helvetica,sans-Serif" font-size="10.00">EnemyCountPairs</text>
</a>
</g>
</g>
<!-- Node23&#45;&gt;Node29 -->
<g id="edge31" class="edge"><title>Node23&#45;&gt;Node29</title>
<path fill="none" stroke="midnightblue" d="M436.725,-348C448.458,-348 460.432,-348 472.152,-348"/>
<polygon fill="midnightblue" stroke="midnightblue" points="472.374,-351.5 482.374,-348 472.374,-344.5 472.374,-351.5"/>
</g>
<!-- Node24&#45;&gt;Node5 -->
<g id="edge25" class="edge"><title>Node24&#45;&gt;Node5</title>
<path fill="none" stroke="midnightblue" d="M622.534,-401.573C637.261,-404.621 653.333,-408.197 668,-412 695.878,-419.229 726.495,-428.619 751.792,-436.778"/>
<polygon fill="midnightblue" stroke="midnightblue" points="750.974,-440.193 761.566,-439.955 753.138,-433.535 750.974,-440.193"/>
</g>
<!-- Node24&#45;&gt;Node7 -->
<g id="edge29" class="edge"><title>Node24&#45;&gt;Node7</title>
<path fill="none" stroke="midnightblue" d="M652.864,-401.711C658.363,-404.457 663.498,-407.842 668,-412 709.842,-450.648 661.931,-496.599 704,-535 705.983,-536.81 708.079,-538.477 710.27,-540.011"/>
<polygon fill="midnightblue" stroke="midnightblue" points="708.76,-543.186 719.143,-545.296 712.343,-537.172 708.76,-543.186"/>
</g>
<!-- Node25 -->
<g id="node25" class="node"><title>Node25</title>
<g id="a_node25"><a xlink:href="../../d4/d81/classgame_engine_1_1actors_1_1_base_enemy.html#a67818ce6171fda1624ab7e1d27dc3efe" target="_top" xlink:title="gameEngine.actors.BaseEnemy.\lBaseEnemy">
<polygon fill="white" stroke="black" points="721.5,-377 721.5,-407 892.5,-407 892.5,-377 721.5,-377"/>
<text text-anchor="start" x="729.5" y="-395" font-family="Helvetica,sans-Serif" font-size="10.00">gameEngine.actors.BaseEnemy.</text>
<text text-anchor="middle" x="807" y="-384" font-family="Helvetica,sans-Serif" font-size="10.00">BaseEnemy</text>
</a>
</g>
</g>
<!-- Node24&#45;&gt;Node25 -->
<g id="edge26" class="edge"><title>Node24&#45;&gt;Node25</title>
<path fill="none" stroke="midnightblue" d="M668.19,-392C682.391,-392 697.014,-392 711.187,-392"/>
<polygon fill="midnightblue" stroke="midnightblue" points="711.415,-395.5 721.415,-392 711.415,-388.5 711.415,-395.5"/>
</g>
<!-- Node26 -->
<g id="node26" class="node"><title>Node26</title>
<g id="a_node26"><a xlink:href="../../d4/d81/classgame_engine_1_1actors_1_1_base_enemy.html#a41db5e3bf03c06bd5b17abbe8b82e5e2" target="_top" xlink:title="gameEngine.actors.BaseEnemy.initialize\lEnemy">
<polygon fill="white" stroke="black" points="946.5,-377 946.5,-407 1155.5,-407 1155.5,-377 946.5,-377"/>
<text text-anchor="start" x="954.5" y="-395" font-family="Helvetica,sans-Serif" font-size="10.00">gameEngine.actors.BaseEnemy.initialize</text>
<text text-anchor="middle" x="1051" y="-384" font-family="Helvetica,sans-Serif" font-size="10.00">Enemy</text>
</a>
</g>
</g>
<!-- Node25&#45;&gt;Node26 -->
<g id="edge27" class="edge"><title>Node25&#45;&gt;Node26</title>
<path fill="none" stroke="midnightblue" d="M892.64,-392C906.704,-392 921.491,-392 936.138,-392"/>
<polygon fill="midnightblue" stroke="midnightblue" points="936.246,-395.5 946.246,-392 936.246,-388.5 936.246,-395.5"/>
</g>
<!-- Node27 -->
<g id="node27" class="node"><title>Node27</title>
<g id="a_node27"><a xlink:href="../../d0/d61/classgame_authoring_1_1scenes_1_1path_building_1_1path_components_1_1route_to_point_translation_1_1_backend_route.html#a4decf5451f724697b0b0ba60cd230f6f" target="_top" xlink:title="gameAuthoring.scenes.path\lBuilding.pathComponents.routeTo\lPointTranslation.BackendRoute.getPoints">
<polygon fill="white" stroke="black" points="1192.5,-371.5 1192.5,-412.5 1403.5,-412.5 1403.5,-371.5 1192.5,-371.5"/>
<text text-anchor="start" x="1200.5" y="-400.5" font-family="Helvetica,sans-Serif" font-size="10.00">gameAuthoring.scenes.path</text>
<text text-anchor="start" x="1200.5" y="-389.5" font-family="Helvetica,sans-Serif" font-size="10.00">Building.pathComponents.routeTo</text>
<text text-anchor="middle" x="1298" y="-378.5" font-family="Helvetica,sans-Serif" font-size="10.00">PointTranslation.BackendRoute.getPoints</text>
</a>
</g>
</g>
<!-- Node26&#45;&gt;Node27 -->
<g id="edge28" class="edge"><title>Node26&#45;&gt;Node27</title>
<path fill="none" stroke="midnightblue" d="M1155.55,-392C1164.37,-392 1173.33,-392 1182.23,-392"/>
<polygon fill="midnightblue" stroke="midnightblue" points="1182.25,-395.5 1192.25,-392 1182.25,-388.5 1182.25,-395.5"/>
</g>
</g>
</svg>
