<?xml version="1.0" encoding="UTF-8" standalone="no"?>
<!DOCTYPE svg PUBLIC "-//W3C//DTD SVG 1.1//EN"
 "http://www.w3.org/Graphics/SVG/1.1/DTD/svg11.dtd">
<!-- Generated by graphviz version 2.36.0 (20140111.2315)
 -->
<!-- Title: gameEngine.MainEngineManager.wrapTowers Pages: 1 -->
<svg width="676pt" height="38pt"
 viewBox="0.00 0.00 676.00 38.00" xmlns="http://www.w3.org/2000/svg" xmlns:xlink="http://www.w3.org/1999/xlink">
<g id="graph0" class="graph" transform="scale(1 1) rotate(0) translate(4 34)">
<title>gameEngine.MainEngineManager.wrapTowers</title>
<polygon fill="white" stroke="none" points="-4,4 -4,-34 672,-34 672,4 -4,4"/>
<!-- Node1 -->
<g id="node1" class="node"><title>Node1</title>
<polygon fill="#bfbfbf" stroke="black" points="0.5,-0 0.5,-30 201.5,-30 201.5,-0 0.5,-0"/>
<text text-anchor="start" x="8.5" y="-18" font-family="Helvetica,sans-Serif" font-size="10.00">gameEngine.MainEngineManager.wrap</text>
<text text-anchor="middle" x="101" y="-7" font-family="Helvetica,sans-Serif" font-size="10.00">Towers</text>
</g>
<!-- Node2 -->
<g id="node2" class="node"><title>Node2</title>
<g id="a_node2"><a xlink:href="../../d0/d94/classgame_engine_1_1_main_engine_manager.html#a44adf39004b328c2a54900ee42da155a" target="_top" xlink:title="gameEngine.MainEngineManager.save\lState">
<polygon fill="white" stroke="black" points="238.5,-0 238.5,-30 439.5,-30 439.5,-0 238.5,-0"/>
<text text-anchor="start" x="246.5" y="-18" font-family="Helvetica,sans-Serif" font-size="10.00">gameEngine.MainEngineManager.save</text>
<text text-anchor="middle" x="339" y="-7" font-family="Helvetica,sans-Serif" font-size="10.00">State</text>
</a>
</g>
</g>
<!-- Node1&#45;&gt;Node2 -->
<g id="edge1" class="edge"><title>Node1&#45;&gt;Node2</title>
<path fill="none" stroke="midnightblue" d="M211.983,-15C220.74,-15 229.555,-15 238.235,-15"/>
<polygon fill="midnightblue" stroke="midnightblue" points="211.743,-11.5001 201.743,-15 211.743,-18.5001 211.743,-11.5001"/>
</g>
<!-- Node3 -->
<g id="node3" class="node"><title>Node3</title>
<g id="a_node3"><a xlink:href="../../da/d69/classgame_player_1_1main_classes_1_1managers_1_1_gui_manager.html#abc8fba7da6bc48fc13a656d9b0658b11" target="_top" xlink:title="gamePlayer.mainClasses.managers.\lGuiManager.saveGame">
<polygon fill="white" stroke="black" points="476.5,-0 476.5,-30 667.5,-30 667.5,-0 476.5,-0"/>
<text text-anchor="start" x="484.5" y="-18" font-family="Helvetica,sans-Serif" font-size="10.00">gamePlayer.mainClasses.managers.</text>
<text text-anchor="middle" x="572" y="-7" font-family="Helvetica,sans-Serif" font-size="10.00">GuiManager.saveGame</text>
</a>
</g>
</g>
<!-- Node2&#45;&gt;Node3 -->
<g id="edge2" class="edge"><title>Node2&#45;&gt;Node3</title>
<path fill="none" stroke="midnightblue" d="M449.7,-15C458.638,-15 467.621,-15 476.437,-15"/>
<polygon fill="midnightblue" stroke="midnightblue" points="449.641,-11.5001 439.641,-15 449.641,-18.5001 449.641,-11.5001"/>
</g>
</g>
</svg>
