<?xml version="1.0" encoding="UTF-8" standalone="no"?>
<!DOCTYPE svg PUBLIC "-//W3C//DTD SVG 1.1//EN"
 "http://www.w3.org/Graphics/SVG/1.1/DTD/svg11.dtd">
<!-- Generated by graphviz version 2.36.0 (20140111.2315)
 -->
<!-- Title: gameEngine.MainEngineManager.resume Pages: 1 -->
<!--zoomable 122 -->
<svg id="main" version="1.1" xmlns="http://www.w3.org/2000/svg" xmlns:xlink="http://www.w3.org/1999/xlink" xml:space="preserve" onload="init(evt)">
<style type="text/css"><![CDATA[
.edge:hover path { stroke: red; }
.edge:hover polygon { stroke: red; fill: red; }
]]></style>
<script type="text/javascript"><![CDATA[
var edges = document.getElementsByTagName('g');
if (edges && edges.length) {
  for (var i=0;i<edges.length;i++) {
    if (edges[i].id.substr(0,4)=='edge') {
      edges[i].setAttribute('class','edge');
    }
  }
}
]]></script>
        <defs>
                <circle id="rim" cx="0" cy="0" r="7"/>
                <circle id="rim2" cx="0" cy="0" r="3.5"/>
                <g id="zoomPlus">
                        <use xlink:href="#rim" fill="#404040">
                                <set attributeName="fill" to="#808080" begin="zoomplus.mouseover" end="zoomplus.mouseout"/>
                        </use>
                        <path d="M-4,0h8M0,-4v8" fill="none" stroke="white" stroke-width="1.5" pointer-events="none"/>
                </g>
                <g id="zoomMin">
                        <use xlink:href="#rim" fill="#404040">
                                <set attributeName="fill" to="#808080" begin="zoomminus.mouseover" end="zoomminus.mouseout"/>
                        </use>
                        <path d="M-4,0h8" fill="none" stroke="white" stroke-width="1.5" pointer-events="none"/>
                </g>
                <g id="dirArrow">
                        <path fill="none" stroke="white" stroke-width="1.5" d="M0,-3.0v7 M-2.5,-0.5L0,-3.0L2.5,-0.5"/>
                </g>
               <g id="resetDef">
                       <use xlink:href="#rim2" fill="#404040">
                               <set attributeName="fill" to="#808080" begin="reset.mouseover" end="reset.mouseout"/>
                       </use>
               </g>
        </defs>

<script type="text/javascript">
var viewWidth = 680;
var viewHeight = 122;
var sectionId = 'dynsection-58';
</script>
<script xlink:href="../../svgpan.js"/>
<svg id="graph" class="graph">
<g id="viewport">
<title>gameEngine.MainEngineManager.resume</title>
<polygon fill="white" stroke="none" points="-4,4 -4,-118 676,-118 676,4 -4,4"/>
<!-- Node1 -->
<g id="node1" class="node"><title>Node1</title>
<polygon fill="#bfbfbf" stroke="black" points="0.5,-56.5 0.5,-75.5 215.5,-75.5 215.5,-56.5 0.5,-56.5"/>
<text text-anchor="middle" x="108" y="-63.5" font-family="Helvetica,sans-Serif" font-size="10.00">gameEngine.MainEngineManager.resume</text>
</g>
<!-- Node2 -->
<g id="node2" class="node"><title>Node2</title>
<g id="a_node2"><a xlink:href="../../da/d10/classgame_authoring_1_1scenes_1_1level_building_1_1_level_display_cell.html#a7c364973b2428267a31e0a8e7be0238f" target="_top" xlink:title="gameAuthoring.scenes.level\lBuilding.LevelDisplayCell.Level\lDisplayCell">
<polygon fill="white" stroke="black" points="267.5,-72.5 267.5,-113.5 428.5,-113.5 428.5,-72.5 267.5,-72.5"/>
<text text-anchor="start" x="275.5" y="-101.5" font-family="Helvetica,sans-Serif" font-size="10.00">gameAuthoring.scenes.level</text>
<text text-anchor="start" x="275.5" y="-90.5" font-family="Helvetica,sans-Serif" font-size="10.00">Building.LevelDisplayCell.Level</text>
<text text-anchor="middle" x="348" y="-79.5" font-family="Helvetica,sans-Serif" font-size="10.00">DisplayCell</text>
</a>
</g>
</g>
<!-- Node1&#45;&gt;Node2 -->
<g id="edge1" class="edge"><title>Node1&#45;&gt;Node2</title>
<path fill="none" stroke="midnightblue" d="M202.953,-76.6586C224.295,-79.0796 246.762,-81.6284 267.438,-83.9741"/>
<polygon fill="midnightblue" stroke="midnightblue" points="203.241,-73.1688 192.91,-75.5192 202.452,-80.1242 203.241,-73.1688"/>
</g>
<!-- Node3 -->
<g id="node3" class="node"><title>Node3</title>
<g id="a_node3"><a xlink:href="../../da/d69/classgame_player_1_1main_classes_1_1managers_1_1_gui_manager.html#a9e5b0b6fdfd81b90ed43d120216de9ca" target="_top" xlink:title="gamePlayer.mainClasses.managers.\lGuiManager.play">
<polygon fill="white" stroke="black" points="252.5,-24 252.5,-54 443.5,-54 443.5,-24 252.5,-24"/>
<text text-anchor="start" x="260.5" y="-42" font-family="Helvetica,sans-Serif" font-size="10.00">gamePlayer.mainClasses.managers.</text>
<text text-anchor="middle" x="348" y="-31" font-family="Helvetica,sans-Serif" font-size="10.00">GuiManager.play</text>
</a>
</g>
</g>
<!-- Node1&#45;&gt;Node3 -->
<g id="edge2" class="edge"><title>Node1&#45;&gt;Node3</title>
<path fill="none" stroke="midnightblue" d="M202.955,-55.3413C219.242,-53.4935 236.185,-51.5714 252.487,-49.722"/>
<polygon fill="midnightblue" stroke="midnightblue" points="202.452,-51.8758 192.91,-56.4808 203.241,-58.8312 202.452,-51.8758"/>
</g>
<!-- Node4 -->
<g id="node4" class="node"><title>Node4</title>
<g id="a_node4"><a xlink:href="../../da/d69/classgame_player_1_1main_classes_1_1managers_1_1_gui_manager.html#a40dd9ef71bf16640c446758773e3ce88" target="_top" xlink:title="gamePlayer.mainClasses.managers.\lGuiManager.normalSpeed">
<polygon fill="white" stroke="black" points="480.5,-49 480.5,-79 671.5,-79 671.5,-49 480.5,-49"/>
<text text-anchor="start" x="488.5" y="-67" font-family="Helvetica,sans-Serif" font-size="10.00">gamePlayer.mainClasses.managers.</text>
<text text-anchor="middle" x="576" y="-56" font-family="Helvetica,sans-Serif" font-size="10.00">GuiManager.normalSpeed</text>
</a>
</g>
</g>
<!-- Node3&#45;&gt;Node4 -->
<g id="edge3" class="edge"><title>Node3&#45;&gt;Node4</title>
<path fill="none" stroke="midnightblue" d="M453.611,-50.572C462.572,-51.5633 471.605,-52.5624 480.48,-53.5443"/>
<polygon fill="midnightblue" stroke="midnightblue" points="453.859,-47.0782 443.535,-49.4574 453.089,-54.0358 453.859,-47.0782"/>
</g>
<!-- Node5 -->
<g id="node5" class="node"><title>Node5</title>
<g id="a_node5"><a xlink:href="../../da/d69/classgame_player_1_1main_classes_1_1managers_1_1_gui_manager.html#a7feb4f1c4510a3b21fc707b746f58e20" target="_top" xlink:title="gamePlayer.mainClasses.managers.\lGuiManager.fastForward">
<polygon fill="white" stroke="black" points="480.5,-0 480.5,-30 671.5,-30 671.5,-0 480.5,-0"/>
<text text-anchor="start" x="488.5" y="-18" font-family="Helvetica,sans-Serif" font-size="10.00">gamePlayer.mainClasses.managers.</text>
<text text-anchor="middle" x="576" y="-7" font-family="Helvetica,sans-Serif" font-size="10.00">GuiManager.fastForward</text>
</a>
</g>
</g>
<!-- Node3&#45;&gt;Node5 -->
<g id="edge4" class="edge"><title>Node3&#45;&gt;Node5</title>
<path fill="none" stroke="midnightblue" d="M453.611,-27.8909C462.572,-26.9392 471.605,-25.9801 480.48,-25.0375"/>
<polygon fill="midnightblue" stroke="midnightblue" points="453.109,-24.4244 443.535,-28.9609 453.849,-31.3852 453.109,-24.4244"/>
</g>
</g>
</svg>
        <g id="navigator" transform="translate(0 0)" fill="#404254">
                <rect fill="#f2f5e9" fill-opacity="0.5" stroke="#606060" stroke-width=".5" x="0" y="0" width="60" height="60"/>
                <use id="zoomplus" xlink:href="#zoomPlus" x="17" y="9" onmousedown="handleZoom(evt,'in')"/>
                <use id="zoomminus" xlink:href="#zoomMin" x="42" y="9" onmousedown="handleZoom(evt,'out')"/>
                <use id="reset" xlink:href="#resetDef" x="30" y="36" onmousedown="handleReset()"/>
                <g id="arrowUp" xlink:href="#dirArrow" transform="translate(30 24)" onmousedown="handlePan(0,-1)">
                  <use xlink:href="#rim" fill="#404040">
                        <set attributeName="fill" to="#808080" begin="arrowUp.mouseover" end="arrowUp.mouseout"/>
                  </use>
                  <path fill="none" stroke="white" stroke-width="1.5" d="M0,-3.0v7 M-2.5,-0.5L0,-3.0L2.5,-0.5"/>
                </g>
                <g id="arrowRight" xlink:href="#dirArrow" transform="rotate(90) translate(36 -43)" onmousedown="handlePan(1,0)">
                  <use xlink:href="#rim" fill="#404040">
                        <set attributeName="fill" to="#808080" begin="arrowRight.mouseover" end="arrowRight.mouseout"/>
                  </use>
                  <path fill="none" stroke="white" stroke-width="1.5" d="M0,-3.0v7 M-2.5,-0.5L0,-3.0L2.5,-0.5"/>
                </g>
                <g id="arrowDown" xlink:href="#dirArrow" transform="rotate(180) translate(-30 -48)" onmousedown="handlePan(0,1)">
                  <use xlink:href="#rim" fill="#404040">
                        <set attributeName="fill" to="#808080" begin="arrowDown.mouseover" end="arrowDown.mouseout"/>
                  </use>
                  <path fill="none" stroke="white" stroke-width="1.5" d="M0,-3.0v7 M-2.5,-0.5L0,-3.0L2.5,-0.5"/>
                </g>
                <g id="arrowLeft" xlink:href="#dirArrow" transform="rotate(270) translate(-36 17)" onmousedown="handlePan(-1,0)">
                  <use xlink:href="#rim" fill="#404040">
                        <set attributeName="fill" to="#808080" begin="arrowLeft.mouseover" end="arrowLeft.mouseout"/>
                  </use>
                  <path fill="none" stroke="white" stroke-width="1.5" d="M0,-3.0v7 M-2.5,-0.5L0,-3.0L2.5,-0.5"/>
                </g>
        </g>
        <svg viewBox="0 0 15 15" width="100%" height="30px" preserveAspectRatio="xMaxYMin meet">
         <g id="arrow_out" transform="scale(0.3 0.3)">
          <a xlink:href="classgame_engine_1_1_main_engine_manager_ae1574a2dd377a08ee5dcbb1b299ece5f_icgraph_org.svg" target="_base">
           <rect id="button" ry="5" rx="5" y="6" x="6" height="38" width="38"
                fill="#f2f5e9" fill-opacity="0.5" stroke="#606060" stroke-width="1.0"/>
           <path id="arrow"
             d="M 11.500037,31.436501 C 11.940474,20.09759 22.043105,11.32322 32.158766,21.979434 L 37.068811,17.246167 C 37.068811,17.246167 37.088388,32 37.088388,32 L 22.160133,31.978069 C 22.160133,31.978069 26.997745,27.140456 26.997745,27.140456 C 18.528582,18.264221 13.291696,25.230495 11.500037,31.436501 z"
             style="fill:#404040;"/>
          </a>
         </g>
        </svg>
</svg>
