<?xml version="1.0" encoding="UTF-8" standalone="no"?>
<!DOCTYPE svg PUBLIC "-//W3C//DTD SVG 1.1//EN"
 "http://www.w3.org/Graphics/SVG/1.1/DTD/svg11.dtd">
<!-- Generated by graphviz version 2.36.0 (20140111.2315)
 -->
<!-- Title: gameEngine.MainEngineManager.loadTowers Pages: 1 -->
<svg width="1208pt" height="195pt"
 viewBox="0.00 0.00 1208.00 195.00" xmlns="http://www.w3.org/2000/svg" xmlns:xlink="http://www.w3.org/1999/xlink">
<g id="graph0" class="graph" transform="scale(1 1) rotate(0) translate(4 191)">
<title>gameEngine.MainEngineManager.loadTowers</title>
<polygon fill="white" stroke="none" points="-4,4 -4,-191 1204,-191 1204,4 -4,4"/>
<!-- Node1 -->
<g id="node1" class="node"><title>Node1</title>
<polygon fill="#bfbfbf" stroke="black" points="0.5,-107 0.5,-137 199.5,-137 199.5,-107 0.5,-107"/>
<text text-anchor="start" x="8.5" y="-125" font-family="Helvetica,sans-Serif" font-size="10.00">gameEngine.MainEngineManager.load</text>
<text text-anchor="middle" x="100" y="-114" font-family="Helvetica,sans-Serif" font-size="10.00">Towers</text>
</g>
<!-- Node2 -->
<g id="node2" class="node"><title>Node2</title>
<g id="a_node2"><a xlink:href="../../d0/d94/classgame_engine_1_1_main_engine_manager.html#a3677f4b740d81288c36309962d323265" target="_top" xlink:title="gameEngine.MainEngineManager.initializeGame">
<polygon fill="white" stroke="black" points="236,-112.5 236,-131.5 482,-131.5 482,-112.5 236,-112.5"/>
<text text-anchor="middle" x="359" y="-119.5" font-family="Helvetica,sans-Serif" font-size="10.00">gameEngine.MainEngineManager.initializeGame</text>
</a>
</g>
</g>
<!-- Node1&#45;&gt;Node2 -->
<g id="edge1" class="edge"><title>Node1&#45;&gt;Node2</title>
<path fill="none" stroke="midnightblue" d="M209.736,-122C218.404,-122 227.194,-122 235.945,-122"/>
<polygon fill="midnightblue" stroke="midnightblue" points="209.628,-118.5 199.628,-122 209.628,-125.5 209.628,-118.5"/>
</g>
<!-- Node3 -->
<g id="node3" class="node"><title>Node3</title>
<g id="a_node3"><a xlink:href="../../da/d69/classgame_player_1_1main_classes_1_1managers_1_1_gui_manager.html#a02a63a3d495b31cce0c4976f95758a49" target="_top" xlink:title="gamePlayer.mainClasses.managers.\lGuiManager.startGame">
<polygon fill="white" stroke="black" points="518.5,-144 518.5,-174 709.5,-174 709.5,-144 518.5,-144"/>
<text text-anchor="start" x="526.5" y="-162" font-family="Helvetica,sans-Serif" font-size="10.00">gamePlayer.mainClasses.managers.</text>
<text text-anchor="middle" x="614" y="-151" font-family="Helvetica,sans-Serif" font-size="10.00">GuiManager.startGame</text>
</a>
</g>
</g>
<!-- Node2&#45;&gt;Node3 -->
<g id="edge2" class="edge"><title>Node2&#45;&gt;Node3</title>
<path fill="none" stroke="midnightblue" d="M435.351,-133.02C461.453,-136.837 491.049,-141.165 518.494,-145.179"/>
<polygon fill="midnightblue" stroke="midnightblue" points="435.555,-129.512 425.154,-131.528 434.542,-136.439 435.555,-129.512"/>
</g>
<!-- Node5 -->
<g id="node5" class="node"><title>Node5</title>
<g id="a_node5"><a xlink:href="../../da/d69/classgame_player_1_1main_classes_1_1managers_1_1_gui_manager.html#aa9b035d2a17b73719ca8a26d8ebde9ce" target="_top" xlink:title="gamePlayer.mainClasses.managers.\lGuiManager.startSinglePlayerGame">
<polygon fill="white" stroke="black" points="518.5,-71 518.5,-101 709.5,-101 709.5,-71 518.5,-71"/>
<text text-anchor="start" x="526.5" y="-89" font-family="Helvetica,sans-Serif" font-size="10.00">gamePlayer.mainClasses.managers.</text>
<text text-anchor="middle" x="614" y="-78" font-family="Helvetica,sans-Serif" font-size="10.00">GuiManager.startSinglePlayerGame</text>
</a>
</g>
</g>
<!-- Node2&#45;&gt;Node5 -->
<g id="edge4" class="edge"><title>Node2&#45;&gt;Node5</title>
<path fill="none" stroke="midnightblue" d="M436.83,-111.068C462.467,-107.42 491.34,-103.311 518.18,-99.4922"/>
<polygon fill="midnightblue" stroke="midnightblue" points="436.211,-107.62 426.804,-112.494 437.197,-114.551 436.211,-107.62"/>
</g>
<!-- Node4 -->
<g id="node4" class="node"><title>Node4</title>
<g id="a_node4"><a xlink:href="../../da/d69/classgame_player_1_1main_classes_1_1managers_1_1_gui_manager.html#a287842e1d39b7ecf2e13befeeafa1a7b" target="_top" xlink:title="gamePlayer.mainClasses.managers.\lGuiManager.loadGame">
<polygon fill="white" stroke="black" points="757.5,-157 757.5,-187 948.5,-187 948.5,-157 757.5,-157"/>
<text text-anchor="start" x="765.5" y="-175" font-family="Helvetica,sans-Serif" font-size="10.00">gamePlayer.mainClasses.managers.</text>
<text text-anchor="middle" x="853" y="-164" font-family="Helvetica,sans-Serif" font-size="10.00">GuiManager.loadGame</text>
</a>
</g>
</g>
<!-- Node3&#45;&gt;Node4 -->
<g id="edge3" class="edge"><title>Node3&#45;&gt;Node4</title>
<path fill="none" stroke="midnightblue" d="M719.711,-164.744C732.276,-165.433 745.051,-166.134 757.46,-166.814"/>
<polygon fill="midnightblue" stroke="midnightblue" points="719.867,-161.247 709.69,-164.194 719.484,-168.237 719.867,-161.247"/>
</g>
<!-- Node6 -->
<g id="node6" class="node"><title>Node6</title>
<g id="a_node6"><a xlink:href="../../da/d69/classgame_player_1_1main_classes_1_1managers_1_1_gui_manager.html#a3f657f0e3ba1e493d2dd02b5df5e03f6" target="_top" xlink:title="gamePlayer.mainClasses.managers.\lGuiManager.replayGame">
<polygon fill="white" stroke="black" points="757.5,-108 757.5,-138 948.5,-138 948.5,-108 757.5,-108"/>
<text text-anchor="start" x="765.5" y="-126" font-family="Helvetica,sans-Serif" font-size="10.00">gamePlayer.mainClasses.managers.</text>
<text text-anchor="middle" x="853" y="-115" font-family="Helvetica,sans-Serif" font-size="10.00">GuiManager.replayGame</text>
</a>
</g>
</g>
<!-- Node5&#45;&gt;Node6 -->
<g id="edge5" class="edge"><title>Node5&#45;&gt;Node6</title>
<path fill="none" stroke="midnightblue" d="M719.711,-102.347C732.276,-104.309 745.051,-106.303 757.46,-108.241"/>
<polygon fill="midnightblue" stroke="midnightblue" points="720.111,-98.8674 709.69,-100.783 719.031,-105.784 720.111,-98.8674"/>
</g>
<!-- Node7 -->
<g id="node7" class="node"><title>Node7</title>
<g id="a_node7"><a xlink:href="../../d4/d3f/classgame_player_1_1main_classes_1_1managers_1_1_welcome_manager.html#a5da8d3f5b8bc1c4bd4c555140bd9384c" target="_top" xlink:title="gamePlayer.mainClasses.managers.\lWelcomeManager.startSinglePlayerGame">
<polygon fill="white" stroke="black" points="746,-59 746,-89 960,-89 960,-59 746,-59"/>
<text text-anchor="start" x="754" y="-77" font-family="Helvetica,sans-Serif" font-size="10.00">gamePlayer.mainClasses.managers.</text>
<text text-anchor="middle" x="853" y="-66" font-family="Helvetica,sans-Serif" font-size="10.00">WelcomeManager.startSinglePlayerGame</text>
</a>
</g>
</g>
<!-- Node5&#45;&gt;Node7 -->
<g id="edge6" class="edge"><title>Node5&#45;&gt;Node7</title>
<path fill="none" stroke="midnightblue" d="M719.766,-80.6954C728.398,-80.2583 737.128,-79.8163 745.77,-79.3788"/>
<polygon fill="midnightblue" stroke="midnightblue" points="719.501,-77.2043 709.69,-81.2055 719.855,-84.1953 719.501,-77.2043"/>
</g>
<!-- Node9 -->
<g id="node9" class="node"><title>Node9</title>
<g id="a_node9"><a xlink:href="../../d3/dee/classgame_player_1_1main_classes_1_1welcome_screen_1_1_game_start_manager.html#a0c44b3f25d2a30fe2e7aeca9da7161a9" target="_top" xlink:title="gamePlayer.mainClasses.welcome\lScreen.GameStartManager.startSingle\lPlayerGame">
<polygon fill="white" stroke="black" points="751.5,0.5 751.5,-40.5 954.5,-40.5 954.5,0.5 751.5,0.5"/>
<text text-anchor="start" x="759.5" y="-28.5" font-family="Helvetica,sans-Serif" font-size="10.00">gamePlayer.mainClasses.welcome</text>
<text text-anchor="start" x="759.5" y="-17.5" font-family="Helvetica,sans-Serif" font-size="10.00">Screen.GameStartManager.startSingle</text>
<text text-anchor="middle" x="853" y="-6.5" font-family="Helvetica,sans-Serif" font-size="10.00">PlayerGame</text>
</a>
</g>
</g>
<!-- Node5&#45;&gt;Node9 -->
<g id="edge8" class="edge"><title>Node5&#45;&gt;Node9</title>
<path fill="none" stroke="midnightblue" d="M678.769,-68.2416C709.341,-59.7277 746.143,-49.4791 777.949,-40.6219"/>
<polygon fill="midnightblue" stroke="midnightblue" points="677.77,-64.8865 669.076,-70.941 679.648,-71.6299 677.77,-64.8865"/>
</g>
<!-- Node8 -->
<g id="node8" class="node"><title>Node8</title>
<g id="a_node8"><a xlink:href="../../d4/d3f/classgame_player_1_1main_classes_1_1managers_1_1_welcome_manager.html#ae6495396aef63551116c0835c40574e1" target="_top" xlink:title="gamePlayer.mainClasses.managers.\lWelcomeManager.startGame">
<polygon fill="white" stroke="black" points="1002.5,-59 1002.5,-89 1193.5,-89 1193.5,-59 1002.5,-59"/>
<text text-anchor="start" x="1010.5" y="-77" font-family="Helvetica,sans-Serif" font-size="10.00">gamePlayer.mainClasses.managers.</text>
<text text-anchor="middle" x="1098" y="-66" font-family="Helvetica,sans-Serif" font-size="10.00">WelcomeManager.startGame</text>
</a>
</g>
</g>
<!-- Node7&#45;&gt;Node8 -->
<g id="edge7" class="edge"><title>Node7&#45;&gt;Node8</title>
<path fill="none" stroke="midnightblue" d="M970.474,-74C981.188,-74 991.953,-74 1002.44,-74"/>
<polygon fill="midnightblue" stroke="midnightblue" points="970.23,-70.5001 960.23,-74 970.23,-77.5001 970.23,-70.5001"/>
</g>
<!-- Node10 -->
<g id="node10" class="node"><title>Node10</title>
<g id="a_node10"><a xlink:href="../../d3/dee/classgame_player_1_1main_classes_1_1welcome_screen_1_1_game_start_manager.html#a4ac849399bf00c6df86f0db25ea95ed8" target="_top" xlink:title="gamePlayer.mainClasses.welcome\lScreen.GameStartManager.startGame">
<polygon fill="white" stroke="black" points="996.5,-5 996.5,-35 1199.5,-35 1199.5,-5 996.5,-5"/>
<text text-anchor="start" x="1004.5" y="-23" font-family="Helvetica,sans-Serif" font-size="10.00">gamePlayer.mainClasses.welcome</text>
<text text-anchor="middle" x="1098" y="-12" font-family="Helvetica,sans-Serif" font-size="10.00">Screen.GameStartManager.startGame</text>
</a>
</g>
</g>
<!-- Node9&#45;&gt;Node10 -->
<g id="edge9" class="edge"><title>Node9&#45;&gt;Node10</title>
<path fill="none" stroke="midnightblue" d="M964.702,-20C975.294,-20 985.997,-20 996.484,-20"/>
<polygon fill="midnightblue" stroke="midnightblue" points="964.592,-16.5001 954.591,-20 964.591,-23.5001 964.592,-16.5001"/>
</g>
</g>
</svg>
