<?xml version="1.0" encoding="UTF-8" standalone="no"?>
<!DOCTYPE svg PUBLIC "-//W3C//DTD SVG 1.1//EN"
 "http://www.w3.org/Graphics/SVG/1.1/DTD/svg11.dtd">
<!-- Generated by graphviz version 2.36.0 (20140111.2315)
 -->
<!-- Title: gameEngine.MainEngineManager.addEnemies Pages: 1 -->
<svg width="910pt" height="38pt"
 viewBox="0.00 0.00 910.00 38.00" xmlns="http://www.w3.org/2000/svg" xmlns:xlink="http://www.w3.org/1999/xlink">
<g id="graph0" class="graph" transform="scale(1 1) rotate(0) translate(4 34)">
<title>gameEngine.MainEngineManager.addEnemies</title>
<polygon fill="white" stroke="none" points="-4,4 -4,-34 906,-34 906,4 -4,4"/>
<!-- Node1 -->
<g id="node1" class="node"><title>Node1</title>
<polygon fill="#bfbfbf" stroke="black" points="0.5,-0 0.5,-30 197.5,-30 197.5,-0 0.5,-0"/>
<text text-anchor="start" x="8.5" y="-18" font-family="Helvetica,sans-Serif" font-size="10.00">gameEngine.MainEngineManager.add</text>
<text text-anchor="middle" x="99" y="-7" font-family="Helvetica,sans-Serif" font-size="10.00">Enemies</text>
</g>
<!-- Node2 -->
<g id="node2" class="node"><title>Node2</title>
<g id="a_node2"><a xlink:href="../../d0/d94/classgame_engine_1_1_main_engine_manager.html#aa167e2a5e062c22e361f11a25db3c3ef" target="_top" xlink:title="gameEngine.MainEngineManager.game\lUpdate">
<polygon fill="white" stroke="black" points="234,-0 234,-30 440,-30 440,-0 234,-0"/>
<text text-anchor="start" x="242" y="-18" font-family="Helvetica,sans-Serif" font-size="10.00">gameEngine.MainEngineManager.game</text>
<text text-anchor="middle" x="337" y="-7" font-family="Helvetica,sans-Serif" font-size="10.00">Update</text>
</a>
</g>
</g>
<!-- Node1&#45;&gt;Node2 -->
<g id="edge1" class="edge"><title>Node1&#45;&gt;Node2</title>
<path fill="none" stroke="midnightblue" d="M207.808,-15C216.461,-15 225.189,-15 233.802,-15"/>
<polygon fill="midnightblue" stroke="midnightblue" points="207.694,-11.5001 197.694,-15 207.694,-18.5001 207.694,-11.5001"/>
</g>
<!-- Node3 -->
<g id="node3" class="node"><title>Node3</title>
<g id="a_node3"><a xlink:href="../../d0/d94/classgame_engine_1_1_main_engine_manager.html#a0d381e03af0128b42e169322c2d1ca00" target="_top" xlink:title="gameEngine.MainEngineManager.create\lTimeline">
<polygon fill="white" stroke="black" points="476.5,-0 476.5,-30 685.5,-30 685.5,-0 476.5,-0"/>
<text text-anchor="start" x="484.5" y="-18" font-family="Helvetica,sans-Serif" font-size="10.00">gameEngine.MainEngineManager.create</text>
<text text-anchor="middle" x="581" y="-7" font-family="Helvetica,sans-Serif" font-size="10.00">Timeline</text>
</a>
</g>
</g>
<!-- Node2&#45;&gt;Node3 -->
<g id="edge2" class="edge"><title>Node2&#45;&gt;Node3</title>
<path fill="none" stroke="midnightblue" d="M450.34,-15C458.943,-15 467.605,-15 476.15,-15"/>
<polygon fill="midnightblue" stroke="midnightblue" points="450.279,-11.5001 440.279,-15 450.279,-18.5001 450.279,-11.5001"/>
</g>
<!-- Node4 -->
<g id="node4" class="node"><title>Node4</title>
<g id="a_node4"><a xlink:href="../../d0/d94/classgame_engine_1_1_main_engine_manager.html#aec2cd142182da8ef024078d42fb5bc23" target="_top" xlink:title="gameEngine.MainEngineManager.\lMainEngineManager">
<polygon fill="white" stroke="black" points="722.5,-0 722.5,-30 901.5,-30 901.5,-0 722.5,-0"/>
<text text-anchor="start" x="730.5" y="-18" font-family="Helvetica,sans-Serif" font-size="10.00">gameEngine.MainEngineManager.</text>
<text text-anchor="middle" x="812" y="-7" font-family="Helvetica,sans-Serif" font-size="10.00">MainEngineManager</text>
</a>
</g>
</g>
<!-- Node3&#45;&gt;Node4 -->
<g id="edge3" class="edge"><title>Node3&#45;&gt;Node4</title>
<path fill="none" stroke="midnightblue" d="M695.804,-15C704.694,-15 713.591,-15 722.278,-15"/>
<polygon fill="midnightblue" stroke="midnightblue" points="695.78,-11.5001 685.78,-15 695.78,-18.5001 695.78,-11.5001"/>
</g>
</g>
</svg>
