<?xml version="1.0" encoding="UTF-8" standalone="no"?>
<!DOCTYPE svg PUBLIC "-//W3C//DTD SVG 1.1//EN"
 "http://www.w3.org/Graphics/SVG/1.1/DTD/svg11.dtd">
<!-- Generated by graphviz version 2.36.0 (20140111.2315)
 -->
<!-- Title: gameEngine.MainEngineManager.loadAuthoringLevel Pages: 1 -->
<svg width="1418pt" height="170pt"
 viewBox="0.00 0.00 1418.00 170.00" xmlns="http://www.w3.org/2000/svg" xmlns:xlink="http://www.w3.org/1999/xlink">
<g id="graph0" class="graph" transform="scale(1 1) rotate(0) translate(4 166)">
<title>gameEngine.MainEngineManager.loadAuthoringLevel</title>
<polygon fill="white" stroke="none" points="-4,4 -4,-166 1414,-166 1414,4 -4,4"/>
<!-- Node1 -->
<g id="node1" class="node"><title>Node1</title>
<polygon fill="#bfbfbf" stroke="black" points="0.5,-83 0.5,-113 199.5,-113 199.5,-83 0.5,-83"/>
<text text-anchor="start" x="8.5" y="-101" font-family="Helvetica,sans-Serif" font-size="10.00">gameEngine.MainEngineManager.load</text>
<text text-anchor="middle" x="100" y="-90" font-family="Helvetica,sans-Serif" font-size="10.00">AuthoringLevel</text>
</g>
<!-- Node2 -->
<g id="node2" class="node"><title>Node2</title>
<g id="a_node2"><a xlink:href="../../db/d6c/classgame_engine_1_1_data_1_1_range_restricted_collection.html#a63366f841f48e7cf54b8408d81bc9fff" target="_top" xlink:title="gameEngine.Data.RangeRestricted\lCollection.clear">
<polygon fill="white" stroke="black" points="248.5,-132 248.5,-162 431.5,-162 431.5,-132 248.5,-132"/>
<text text-anchor="start" x="256.5" y="-150" font-family="Helvetica,sans-Serif" font-size="10.00">gameEngine.Data.RangeRestricted</text>
<text text-anchor="middle" x="340" y="-139" font-family="Helvetica,sans-Serif" font-size="10.00">Collection.clear</text>
</a>
</g>
</g>
<!-- Node1&#45;&gt;Node2 -->
<g id="edge1" class="edge"><title>Node1&#45;&gt;Node2</title>
<path fill="none" stroke="midnightblue" d="M174.025,-113.035C199.954,-118.373 229.325,-124.42 256.024,-129.917"/>
<polygon fill="midnightblue" stroke="midnightblue" points="255.612,-133.405 266.113,-131.994 257.024,-126.549 255.612,-133.405"/>
</g>
<!-- Node3 -->
<g id="node3" class="node"><title>Node3</title>
<g id="a_node3"><a xlink:href="../../d0/d94/classgame_engine_1_1_main_engine_manager.html#a9730cb1b41966ae46599b3c5ee2b670d" target="_top" xlink:title="gameEngine.MainEngineManager.load\lLevel">
<polygon fill="white" stroke="black" points="240.5,-83 240.5,-113 439.5,-113 439.5,-83 240.5,-83"/>
<text text-anchor="start" x="248.5" y="-101" font-family="Helvetica,sans-Serif" font-size="10.00">gameEngine.MainEngineManager.load</text>
<text text-anchor="middle" x="340" y="-90" font-family="Helvetica,sans-Serif" font-size="10.00">Level</text>
</a>
</g>
</g>
<!-- Node1&#45;&gt;Node3 -->
<g id="edge2" class="edge"><title>Node1&#45;&gt;Node3</title>
<path fill="none" stroke="midnightblue" d="M199.522,-98C209.592,-98 219.865,-98 230.039,-98"/>
<polygon fill="midnightblue" stroke="midnightblue" points="230.169,-101.5 240.168,-98 230.168,-94.5001 230.169,-101.5"/>
</g>
<!-- Node12 -->
<g id="node12" class="node"><title>Node12</title>
<g id="a_node12"><a xlink:href="../../d0/d94/classgame_engine_1_1_main_engine_manager.html#aa097b03bdaa3bfb8795b3575e42b3953" target="_top" xlink:title="gameEngine.MainEngineManager.pause">
<polygon fill="white" stroke="black" points="236,-44.5 236,-63.5 444,-63.5 444,-44.5 236,-44.5"/>
<text text-anchor="middle" x="340" y="-51.5" font-family="Helvetica,sans-Serif" font-size="10.00">gameEngine.MainEngineManager.pause</text>
</a>
</g>
</g>
<!-- Node1&#45;&gt;Node12 -->
<g id="edge11" class="edge"><title>Node1&#45;&gt;Node12</title>
<path fill="none" stroke="midnightblue" d="M182.24,-82.9808C213.439,-77.2129 248.501,-70.7309 277.542,-65.362"/>
<polygon fill="midnightblue" stroke="midnightblue" points="278.349,-68.7721 287.546,-63.5124 277.077,-61.8888 278.349,-68.7721"/>
</g>
<!-- Node4 -->
<g id="node4" class="node"><title>Node4</title>
<g id="a_node4"><a xlink:href="../../da/dc8/classgame_engine_1_1levels_1_1_base_level.html#a10e08749157dcd85085d053a952503db" target="_top" xlink:title="gameEngine.levels.BaseLevel.get\lDuration">
<polygon fill="white" stroke="black" points="488.5,-132 488.5,-162 665.5,-162 665.5,-132 488.5,-132"/>
<text text-anchor="start" x="496.5" y="-150" font-family="Helvetica,sans-Serif" font-size="10.00">gameEngine.levels.BaseLevel.get</text>
<text text-anchor="middle" x="577" y="-139" font-family="Helvetica,sans-Serif" font-size="10.00">Duration</text>
</a>
</g>
</g>
<!-- Node3&#45;&gt;Node4 -->
<g id="edge3" class="edge"><title>Node3&#45;&gt;Node4</title>
<path fill="none" stroke="midnightblue" d="M413.105,-113.035C438.707,-118.373 467.707,-124.42 494.07,-129.917"/>
<polygon fill="midnightblue" stroke="midnightblue" points="493.528,-133.379 504.032,-131.994 494.957,-126.526 493.528,-133.379"/>
</g>
<!-- Node5 -->
<g id="node5" class="node"><title>Node5</title>
<g id="a_node5"><a xlink:href="../../da/dc8/classgame_engine_1_1levels_1_1_base_level.html#afc3aa5d464c27391506590a989fc0c02" target="_top" xlink:title="gameEngine.levels.BaseLevel.get\lEnemyCountPairs">
<polygon fill="white" stroke="black" points="488.5,-83 488.5,-113 665.5,-113 665.5,-83 488.5,-83"/>
<text text-anchor="start" x="496.5" y="-101" font-family="Helvetica,sans-Serif" font-size="10.00">gameEngine.levels.BaseLevel.get</text>
<text text-anchor="middle" x="577" y="-90" font-family="Helvetica,sans-Serif" font-size="10.00">EnemyCountPairs</text>
</a>
</g>
</g>
<!-- Node3&#45;&gt;Node5 -->
<g id="edge4" class="edge"><title>Node3&#45;&gt;Node5</title>
<path fill="none" stroke="midnightblue" d="M439.64,-98C452.425,-98 465.516,-98 478.286,-98"/>
<polygon fill="midnightblue" stroke="midnightblue" points="478.447,-101.5 488.447,-98 478.447,-94.5001 478.447,-101.5"/>
</g>
<!-- Node6 -->
<g id="node6" class="node"><title>Node6</title>
<g id="a_node6"><a xlink:href="../../d4/d81/classgame_engine_1_1actors_1_1_base_enemy.html#adb93973e4e8e4da347747801642fcaf2" target="_top" xlink:title="gameEngine.actors.BaseEnemy.copy">
<polygon fill="white" stroke="black" points="480,-44.5 480,-63.5 674,-63.5 674,-44.5 480,-44.5"/>
<text text-anchor="middle" x="577" y="-51.5" font-family="Helvetica,sans-Serif" font-size="10.00">gameEngine.actors.BaseEnemy.copy</text>
</a>
</g>
</g>
<!-- Node3&#45;&gt;Node6 -->
<g id="edge5" class="edge"><title>Node3&#45;&gt;Node6</title>
<path fill="none" stroke="midnightblue" d="M421.216,-82.9808C452.022,-77.2129 486.642,-70.7309 515.316,-65.362"/>
<polygon fill="midnightblue" stroke="midnightblue" points="516.01,-68.7931 525.195,-63.5124 514.722,-61.9126 516.01,-68.7931"/>
</g>
<!-- Node7 -->
<g id="node7" class="node"><title>Node7</title>
<g id="a_node7"><a xlink:href="../../d5/d02/classgame_engine_1_1actors_1_1_base_actor.html#a7feb699c5d4dc6ca8588beacc5567eff" target="_top" xlink:title="gameEngine.actors.BaseActor.copy\lBehaviors">
<polygon fill="white" stroke="black" points="719.5,-88 719.5,-118 906.5,-118 906.5,-88 719.5,-88"/>
<text text-anchor="start" x="727.5" y="-106" font-family="Helvetica,sans-Serif" font-size="10.00">gameEngine.actors.BaseActor.copy</text>
<text text-anchor="middle" x="813" y="-95" font-family="Helvetica,sans-Serif" font-size="10.00">Behaviors</text>
</a>
</g>
</g>
<!-- Node6&#45;&gt;Node7 -->
<g id="edge6" class="edge"><title>Node6&#45;&gt;Node7</title>
<path fill="none" stroke="midnightblue" d="M623.904,-63.5465C639.774,-66.8513 657.67,-70.583 674,-74 692.382,-77.8463 712.14,-81.9916 730.797,-85.9112"/>
<polygon fill="midnightblue" stroke="midnightblue" points="730.23,-89.3683 740.736,-87.9996 731.67,-82.5179 730.23,-89.3683"/>
</g>
<!-- Node8 -->
<g id="node8" class="node"><title>Node8</title>
<g id="a_node8"><a xlink:href="../../d4/d81/classgame_engine_1_1actors_1_1_base_enemy.html#a67818ce6171fda1624ab7e1d27dc3efe" target="_top" xlink:title="gameEngine.actors.BaseEnemy.\lBaseEnemy">
<polygon fill="white" stroke="black" points="727.5,-39 727.5,-69 898.5,-69 898.5,-39 727.5,-39"/>
<text text-anchor="start" x="735.5" y="-57" font-family="Helvetica,sans-Serif" font-size="10.00">gameEngine.actors.BaseEnemy.</text>
<text text-anchor="middle" x="813" y="-46" font-family="Helvetica,sans-Serif" font-size="10.00">BaseEnemy</text>
</a>
</g>
</g>
<!-- Node6&#45;&gt;Node8 -->
<g id="edge7" class="edge"><title>Node6&#45;&gt;Node8</title>
<path fill="none" stroke="midnightblue" d="M674.19,-54C688.391,-54 703.014,-54 717.187,-54"/>
<polygon fill="midnightblue" stroke="midnightblue" points="717.415,-57.5001 727.415,-54 717.415,-50.5001 717.415,-57.5001"/>
</g>
<!-- Node11 -->
<g id="node11" class="node"><title>Node11</title>
<g id="a_node11"><a xlink:href="../../d5/d02/classgame_engine_1_1actors_1_1_base_actor.html#ae877e5334153c4e125fb84bf993587af" target="_top" xlink:title="gameEngine.actors.BaseActor.getNode">
<polygon fill="white" stroke="black" points="710,-0.5 710,-19.5 916,-19.5 916,-0.5 710,-0.5"/>
<text text-anchor="middle" x="813" y="-7.5" font-family="Helvetica,sans-Serif" font-size="10.00">gameEngine.actors.BaseActor.getNode</text>
</a>
</g>
</g>
<!-- Node6&#45;&gt;Node11 -->
<g id="edge10" class="edge"><title>Node6&#45;&gt;Node11</title>
<path fill="none" stroke="midnightblue" d="M628.775,-44.4527C664.804,-37.6778 713.328,-28.5537 751.388,-21.3971"/>
<polygon fill="midnightblue" stroke="midnightblue" points="752.144,-24.8165 761.325,-19.5287 750.85,-17.937 752.144,-24.8165"/>
</g>
<!-- Node9 -->
<g id="node9" class="node"><title>Node9</title>
<g id="a_node9"><a xlink:href="../../d4/d81/classgame_engine_1_1actors_1_1_base_enemy.html#a41db5e3bf03c06bd5b17abbe8b82e5e2" target="_top" xlink:title="gameEngine.actors.BaseEnemy.initialize\lEnemy">
<polygon fill="white" stroke="black" points="952.5,-39 952.5,-69 1161.5,-69 1161.5,-39 952.5,-39"/>
<text text-anchor="start" x="960.5" y="-57" font-family="Helvetica,sans-Serif" font-size="10.00">gameEngine.actors.BaseEnemy.initialize</text>
<text text-anchor="middle" x="1057" y="-46" font-family="Helvetica,sans-Serif" font-size="10.00">Enemy</text>
</a>
</g>
</g>
<!-- Node8&#45;&gt;Node9 -->
<g id="edge8" class="edge"><title>Node8&#45;&gt;Node9</title>
<path fill="none" stroke="midnightblue" d="M898.64,-54C912.704,-54 927.491,-54 942.138,-54"/>
<polygon fill="midnightblue" stroke="midnightblue" points="942.246,-57.5001 952.246,-54 942.246,-50.5001 942.246,-57.5001"/>
</g>
<!-- Node10 -->
<g id="node10" class="node"><title>Node10</title>
<g id="a_node10"><a xlink:href="../../d0/d61/classgame_authoring_1_1scenes_1_1path_building_1_1path_components_1_1route_to_point_translation_1_1_backend_route.html#a4decf5451f724697b0b0ba60cd230f6f" target="_top" xlink:title="gameAuthoring.scenes.path\lBuilding.pathComponents.routeTo\lPointTranslation.BackendRoute.getPoints">
<polygon fill="white" stroke="black" points="1198.5,-33.5 1198.5,-74.5 1409.5,-74.5 1409.5,-33.5 1198.5,-33.5"/>
<text text-anchor="start" x="1206.5" y="-62.5" font-family="Helvetica,sans-Serif" font-size="10.00">gameAuthoring.scenes.path</text>
<text text-anchor="start" x="1206.5" y="-51.5" font-family="Helvetica,sans-Serif" font-size="10.00">Building.pathComponents.routeTo</text>
<text text-anchor="middle" x="1304" y="-40.5" font-family="Helvetica,sans-Serif" font-size="10.00">PointTranslation.BackendRoute.getPoints</text>
</a>
</g>
</g>
<!-- Node9&#45;&gt;Node10 -->
<g id="edge9" class="edge"><title>Node9&#45;&gt;Node10</title>
<path fill="none" stroke="midnightblue" d="M1161.55,-54C1170.37,-54 1179.33,-54 1188.23,-54"/>
<polygon fill="midnightblue" stroke="midnightblue" points="1188.25,-57.5001 1198.25,-54 1188.25,-50.5001 1188.25,-57.5001"/>
</g>
</g>
</svg>
