<?xml version="1.0" encoding="UTF-8" standalone="no"?>
<!DOCTYPE svg PUBLIC "-//W3C//DTD SVG 1.1//EN"
 "http://www.w3.org/Graphics/SVG/1.1/DTD/svg11.dtd">
<!-- Generated by graphviz version 2.36.0 (20140111.2315)
 -->
<!-- Title: gameEngine.MainEngineManager.addEnemies Pages: 1 -->
<svg width="426pt" height="38pt"
 viewBox="0.00 0.00 426.00 38.00" xmlns="http://www.w3.org/2000/svg" xmlns:xlink="http://www.w3.org/1999/xlink">
<g id="graph0" class="graph" transform="scale(1 1) rotate(0) translate(4 34)">
<title>gameEngine.MainEngineManager.addEnemies</title>
<polygon fill="white" stroke="none" points="-4,4 -4,-34 422,-34 422,4 -4,4"/>
<!-- Node1 -->
<g id="node1" class="node"><title>Node1</title>
<polygon fill="#bfbfbf" stroke="black" points="0.5,-0 0.5,-30 197.5,-30 197.5,-0 0.5,-0"/>
<text text-anchor="start" x="8.5" y="-18" font-family="Helvetica,sans-Serif" font-size="10.00">gameEngine.MainEngineManager.add</text>
<text text-anchor="middle" x="99" y="-7" font-family="Helvetica,sans-Serif" font-size="10.00">Enemies</text>
</g>
<!-- Node2 -->
<g id="node2" class="node"><title>Node2</title>
<g id="a_node2"><a xlink:href="../../db/d6c/classgame_engine_1_1_data_1_1_range_restricted_collection.html#a42ea7db9dded67061a467a111fdc49f4" target="_top" xlink:title="gameEngine.Data.RangeRestricted\lCollection.add">
<polygon fill="white" stroke="black" points="234.5,-0 234.5,-30 417.5,-30 417.5,-0 234.5,-0"/>
<text text-anchor="start" x="242.5" y="-18" font-family="Helvetica,sans-Serif" font-size="10.00">gameEngine.Data.RangeRestricted</text>
<text text-anchor="middle" x="326" y="-7" font-family="Helvetica,sans-Serif" font-size="10.00">Collection.add</text>
</a>
</g>
</g>
<!-- Node1&#45;&gt;Node2 -->
<g id="edge1" class="edge"><title>Node1&#45;&gt;Node2</title>
<path fill="none" stroke="midnightblue" d="M197.707,-15C206.486,-15 215.389,-15 224.194,-15"/>
<polygon fill="midnightblue" stroke="midnightblue" points="224.474,-18.5001 234.474,-15 224.474,-11.5001 224.474,-18.5001"/>
</g>
</g>
</svg>
