<?xml version="1.0" encoding="UTF-8" standalone="no"?>
<!DOCTYPE svg PUBLIC "-//W3C//DTD SVG 1.1//EN"
 "http://www.w3.org/Graphics/SVG/1.1/DTD/svg11.dtd">
<!-- Generated by graphviz version 2.36.0 (20140111.2315)
 -->
<!-- Title: gameEngine.MainEngineManager.removeTower Pages: 1 -->
<svg width="706pt" height="87pt"
 viewBox="0.00 0.00 706.00 87.00" xmlns="http://www.w3.org/2000/svg" xmlns:xlink="http://www.w3.org/1999/xlink">
<g id="graph0" class="graph" transform="scale(1 1) rotate(0) translate(4 83)">
<title>gameEngine.MainEngineManager.removeTower</title>
<polygon fill="white" stroke="none" points="-4,4 -4,-83 702,-83 702,4 -4,4"/>
<!-- Node1 -->
<g id="node1" class="node"><title>Node1</title>
<polygon fill="#bfbfbf" stroke="black" points="0.5,-24 0.5,-54 215.5,-54 215.5,-24 0.5,-24"/>
<text text-anchor="start" x="8.5" y="-42" font-family="Helvetica,sans-Serif" font-size="10.00">gameEngine.MainEngineManager.remove</text>
<text text-anchor="middle" x="108" y="-31" font-family="Helvetica,sans-Serif" font-size="10.00">Tower</text>
</g>
<!-- Node2 -->
<g id="node2" class="node"><title>Node2</title>
<g id="a_node2"><a xlink:href="../../d0/d94/classgame_engine_1_1_main_engine_manager.html#a15acfa576230f027d46141878a2da50e" target="_top" xlink:title="gameEngine.MainEngineManager.sell\lTower">
<polygon fill="white" stroke="black" points="264,-47 264,-77 458,-77 458,-47 264,-47"/>
<text text-anchor="start" x="272" y="-65" font-family="Helvetica,sans-Serif" font-size="10.00">gameEngine.MainEngineManager.sell</text>
<text text-anchor="middle" x="361" y="-54" font-family="Helvetica,sans-Serif" font-size="10.00">Tower</text>
</a>
</g>
</g>
<!-- Node1&#45;&gt;Node2 -->
<g id="edge1" class="edge"><title>Node1&#45;&gt;Node2</title>
<path fill="none" stroke="midnightblue" d="M225.903,-49.7122C238.531,-50.8694 251.276,-52.0372 263.622,-53.1686"/>
<polygon fill="midnightblue" stroke="midnightblue" points="226.088,-46.2146 215.811,-48.7874 225.449,-53.1854 226.088,-46.2146"/>
</g>
<!-- Node4 -->
<g id="node4" class="node"><title>Node4</title>
<g id="a_node4"><a xlink:href="../../d0/d94/classgame_engine_1_1_main_engine_manager.html#ab5dbebb52c5edcf41787d314326cc1aa" target="_top" xlink:title="gameEngine.MainEngineManager.upgrade">
<polygon fill="white" stroke="black" points="252,-7.5 252,-26.5 470,-26.5 470,-7.5 252,-7.5"/>
<text text-anchor="middle" x="361" y="-14.5" font-family="Helvetica,sans-Serif" font-size="10.00">gameEngine.MainEngineManager.upgrade</text>
</a>
</g>
</g>
<!-- Node1&#45;&gt;Node4 -->
<g id="edge3" class="edge"><title>Node1&#45;&gt;Node4</title>
<path fill="none" stroke="midnightblue" d="M225.875,-28.756C234.477,-28.002 243.134,-27.2432 251.683,-26.4939"/>
<polygon fill="midnightblue" stroke="midnightblue" points="225.467,-25.2782 215.811,-29.6381 226.078,-32.2515 225.467,-25.2782"/>
</g>
<!-- Node3 -->
<g id="node3" class="node"><title>Node3</title>
<g id="a_node3"><a xlink:href="../../da/d69/classgame_player_1_1main_classes_1_1managers_1_1_gui_manager.html#a7749aaba2ab03cd1cb8dc3ad2ebfbd6f" target="_top" xlink:title="gamePlayer.mainClasses.managers.\lGuiManager.sellTower">
<polygon fill="white" stroke="black" points="506.5,-49 506.5,-79 697.5,-79 697.5,-49 506.5,-49"/>
<text text-anchor="start" x="514.5" y="-67" font-family="Helvetica,sans-Serif" font-size="10.00">gamePlayer.mainClasses.managers.</text>
<text text-anchor="middle" x="602" y="-56" font-family="Helvetica,sans-Serif" font-size="10.00">GuiManager.sellTower</text>
</a>
</g>
</g>
<!-- Node2&#45;&gt;Node3 -->
<g id="edge2" class="edge"><title>Node2&#45;&gt;Node3</title>
<path fill="none" stroke="midnightblue" d="M468.256,-62.8892C480.891,-62.9949 493.725,-63.1023 506.186,-63.2066"/>
<polygon fill="midnightblue" stroke="midnightblue" points="468.206,-59.3887 458.177,-62.8048 468.148,-66.3885 468.206,-59.3887"/>
</g>
<!-- Node5 -->
<g id="node5" class="node"><title>Node5</title>
<g id="a_node5"><a xlink:href="../../da/d69/classgame_player_1_1main_classes_1_1managers_1_1_gui_manager.html#a162f5822f9bff033684bd28cada2f03e" target="_top" xlink:title="gamePlayer.mainClasses.managers.\lGuiManager.upgradeTower">
<polygon fill="white" stroke="black" points="506.5,-0 506.5,-30 697.5,-30 697.5,-0 506.5,-0"/>
<text text-anchor="start" x="514.5" y="-18" font-family="Helvetica,sans-Serif" font-size="10.00">gamePlayer.mainClasses.managers.</text>
<text text-anchor="middle" x="602" y="-7" font-family="Helvetica,sans-Serif" font-size="10.00">GuiManager.upgradeTower</text>
</a>
</g>
</g>
<!-- Node4&#45;&gt;Node5 -->
<g id="edge4" class="edge"><title>Node4&#45;&gt;Node5</title>
<path fill="none" stroke="midnightblue" d="M480.445,-16.0088C489.089,-15.9365 497.741,-15.8641 506.219,-15.7931"/>
<polygon fill="midnightblue" stroke="midnightblue" points="480.282,-12.51 470.311,-16.0936 480.34,-19.5097 480.282,-12.51"/>
</g>
</g>
</svg>
