<?xml version="1.0" encoding="UTF-8" standalone="no"?>
<!DOCTYPE svg PUBLIC "-//W3C//DTD SVG 1.1//EN"
 "http://www.w3.org/Graphics/SVG/1.1/DTD/svg11.dtd">
<!-- Generated by graphviz version 2.36.0 (20140111.2315)
 -->
<!-- Title: gameEngine.MainEngineManager.createGameSizedGridPane Pages: 1 -->
<svg width="1454pt" height="196pt"
 viewBox="0.00 0.00 1454.00 196.00" xmlns="http://www.w3.org/2000/svg" xmlns:xlink="http://www.w3.org/1999/xlink">
<g id="graph0" class="graph" transform="scale(1 1) rotate(0) translate(4 192)">
<title>gameEngine.MainEngineManager.createGameSizedGridPane</title>
<polygon fill="white" stroke="none" points="-4,4 -4,-192 1450,-192 1450,4 -4,4"/>
<!-- Node1 -->
<g id="node1" class="node"><title>Node1</title>
<polygon fill="#bfbfbf" stroke="black" points="0.5,-83 0.5,-113 209.5,-113 209.5,-83 0.5,-83"/>
<text text-anchor="start" x="8.5" y="-101" font-family="Helvetica,sans-Serif" font-size="10.00">gameEngine.MainEngineManager.create</text>
<text text-anchor="middle" x="105" y="-90" font-family="Helvetica,sans-Serif" font-size="10.00">GameSizedGridPane</text>
</g>
<!-- Node2 -->
<g id="node2" class="node"><title>Node2</title>
<g id="a_node2"><a xlink:href="../../d0/d94/classgame_engine_1_1_main_engine_manager.html#a3dcb9be9714b9356f072fcf152faf788" target="_top" xlink:title="gameEngine.MainEngineManager.load\lLocations">
<polygon fill="white" stroke="black" points="246.5,-108 246.5,-138 445.5,-138 445.5,-108 246.5,-108"/>
<text text-anchor="start" x="254.5" y="-126" font-family="Helvetica,sans-Serif" font-size="10.00">gameEngine.MainEngineManager.load</text>
<text text-anchor="middle" x="346" y="-115" font-family="Helvetica,sans-Serif" font-size="10.00">Locations</text>
</a>
</g>
</g>
<!-- Node1&#45;&gt;Node2 -->
<g id="edge1" class="edge"><title>Node1&#45;&gt;Node2</title>
<path fill="none" stroke="midnightblue" d="M219.745,-109.898C228.591,-110.823 237.48,-111.753 246.215,-112.667"/>
<polygon fill="midnightblue" stroke="midnightblue" points="220.096,-106.416 209.786,-108.856 219.368,-113.378 220.096,-106.416"/>
</g>
<!-- Node12 -->
<g id="node12" class="node"><title>Node12</title>
<g id="a_node12"><a xlink:href="../../d0/d94/classgame_engine_1_1_main_engine_manager.html#aec2cd142182da8ef024078d42fb5bc23" target="_top" xlink:title="gameEngine.MainEngineManager.\lMainEngineManager">
<polygon fill="white" stroke="black" points="256.5,-59 256.5,-89 435.5,-89 435.5,-59 256.5,-59"/>
<text text-anchor="start" x="264.5" y="-77" font-family="Helvetica,sans-Serif" font-size="10.00">gameEngine.MainEngineManager.</text>
<text text-anchor="middle" x="346" y="-66" font-family="Helvetica,sans-Serif" font-size="10.00">MainEngineManager</text>
</a>
</g>
</g>
<!-- Node1&#45;&gt;Node12 -->
<g id="edge11" class="edge"><title>Node1&#45;&gt;Node12</title>
<path fill="none" stroke="midnightblue" d="M219.995,-86.5528C232.183,-85.3289 244.448,-84.0973 256.281,-82.9091"/>
<polygon fill="midnightblue" stroke="midnightblue" points="219.386,-83.0962 209.786,-87.578 220.086,-90.0612 219.386,-83.0962"/>
</g>
<!-- Node3 -->
<g id="node3" class="node"><title>Node3</title>
<g id="a_node3"><a xlink:href="../../d0/d94/classgame_engine_1_1_main_engine_manager.html#a3677f4b740d81288c36309962d323265" target="_top" xlink:title="gameEngine.MainEngineManager.initializeGame">
<polygon fill="white" stroke="black" points="482,-113.5 482,-132.5 728,-132.5 728,-113.5 482,-113.5"/>
<text text-anchor="middle" x="605" y="-120.5" font-family="Helvetica,sans-Serif" font-size="10.00">gameEngine.MainEngineManager.initializeGame</text>
</a>
</g>
</g>
<!-- Node2&#45;&gt;Node3 -->
<g id="edge2" class="edge"><title>Node2&#45;&gt;Node3</title>
<path fill="none" stroke="midnightblue" d="M455.736,-123C464.404,-123 473.194,-123 481.945,-123"/>
<polygon fill="midnightblue" stroke="midnightblue" points="455.628,-119.5 445.628,-123 455.628,-126.5 455.628,-119.5"/>
</g>
<!-- Node4 -->
<g id="node4" class="node"><title>Node4</title>
<g id="a_node4"><a xlink:href="../../da/d69/classgame_player_1_1main_classes_1_1managers_1_1_gui_manager.html#a02a63a3d495b31cce0c4976f95758a49" target="_top" xlink:title="gamePlayer.mainClasses.managers.\lGuiManager.startGame">
<polygon fill="white" stroke="black" points="764.5,-145 764.5,-175 955.5,-175 955.5,-145 764.5,-145"/>
<text text-anchor="start" x="772.5" y="-163" font-family="Helvetica,sans-Serif" font-size="10.00">gamePlayer.mainClasses.managers.</text>
<text text-anchor="middle" x="860" y="-152" font-family="Helvetica,sans-Serif" font-size="10.00">GuiManager.startGame</text>
</a>
</g>
</g>
<!-- Node3&#45;&gt;Node4 -->
<g id="edge3" class="edge"><title>Node3&#45;&gt;Node4</title>
<path fill="none" stroke="midnightblue" d="M681.351,-134.02C707.453,-137.837 737.049,-142.165 764.494,-146.179"/>
<polygon fill="midnightblue" stroke="midnightblue" points="681.555,-130.512 671.154,-132.528 680.542,-137.439 681.555,-130.512"/>
</g>
<!-- Node6 -->
<g id="node6" class="node"><title>Node6</title>
<g id="a_node6"><a xlink:href="../../da/d69/classgame_player_1_1main_classes_1_1managers_1_1_gui_manager.html#aa9b035d2a17b73719ca8a26d8ebde9ce" target="_top" xlink:title="gamePlayer.mainClasses.managers.\lGuiManager.startSinglePlayerGame">
<polygon fill="white" stroke="black" points="764.5,-72 764.5,-102 955.5,-102 955.5,-72 764.5,-72"/>
<text text-anchor="start" x="772.5" y="-90" font-family="Helvetica,sans-Serif" font-size="10.00">gamePlayer.mainClasses.managers.</text>
<text text-anchor="middle" x="860" y="-79" font-family="Helvetica,sans-Serif" font-size="10.00">GuiManager.startSinglePlayerGame</text>
</a>
</g>
</g>
<!-- Node3&#45;&gt;Node6 -->
<g id="edge5" class="edge"><title>Node3&#45;&gt;Node6</title>
<path fill="none" stroke="midnightblue" d="M682.83,-112.068C708.467,-108.42 737.34,-104.311 764.18,-100.492"/>
<polygon fill="midnightblue" stroke="midnightblue" points="682.211,-108.62 672.804,-113.494 683.197,-115.551 682.211,-108.62"/>
</g>
<!-- Node5 -->
<g id="node5" class="node"><title>Node5</title>
<g id="a_node5"><a xlink:href="../../da/d69/classgame_player_1_1main_classes_1_1managers_1_1_gui_manager.html#a287842e1d39b7ecf2e13befeeafa1a7b" target="_top" xlink:title="gamePlayer.mainClasses.managers.\lGuiManager.loadGame">
<polygon fill="white" stroke="black" points="1003.5,-158 1003.5,-188 1194.5,-188 1194.5,-158 1003.5,-158"/>
<text text-anchor="start" x="1011.5" y="-176" font-family="Helvetica,sans-Serif" font-size="10.00">gamePlayer.mainClasses.managers.</text>
<text text-anchor="middle" x="1099" y="-165" font-family="Helvetica,sans-Serif" font-size="10.00">GuiManager.loadGame</text>
</a>
</g>
</g>
<!-- Node4&#45;&gt;Node5 -->
<g id="edge4" class="edge"><title>Node4&#45;&gt;Node5</title>
<path fill="none" stroke="midnightblue" d="M965.711,-165.744C978.276,-166.433 991.051,-167.134 1003.46,-167.814"/>
<polygon fill="midnightblue" stroke="midnightblue" points="965.867,-162.247 955.69,-165.194 965.484,-169.237 965.867,-162.247"/>
</g>
<!-- Node7 -->
<g id="node7" class="node"><title>Node7</title>
<g id="a_node7"><a xlink:href="../../da/d69/classgame_player_1_1main_classes_1_1managers_1_1_gui_manager.html#a3f657f0e3ba1e493d2dd02b5df5e03f6" target="_top" xlink:title="gamePlayer.mainClasses.managers.\lGuiManager.replayGame">
<polygon fill="white" stroke="black" points="1003.5,-109 1003.5,-139 1194.5,-139 1194.5,-109 1003.5,-109"/>
<text text-anchor="start" x="1011.5" y="-127" font-family="Helvetica,sans-Serif" font-size="10.00">gamePlayer.mainClasses.managers.</text>
<text text-anchor="middle" x="1099" y="-116" font-family="Helvetica,sans-Serif" font-size="10.00">GuiManager.replayGame</text>
</a>
</g>
</g>
<!-- Node6&#45;&gt;Node7 -->
<g id="edge6" class="edge"><title>Node6&#45;&gt;Node7</title>
<path fill="none" stroke="midnightblue" d="M965.711,-103.347C978.276,-105.309 991.051,-107.303 1003.46,-109.241"/>
<polygon fill="midnightblue" stroke="midnightblue" points="966.111,-99.8674 955.69,-101.783 965.031,-106.784 966.111,-99.8674"/>
</g>
<!-- Node8 -->
<g id="node8" class="node"><title>Node8</title>
<g id="a_node8"><a xlink:href="../../d4/d3f/classgame_player_1_1main_classes_1_1managers_1_1_welcome_manager.html#a5da8d3f5b8bc1c4bd4c555140bd9384c" target="_top" xlink:title="gamePlayer.mainClasses.managers.\lWelcomeManager.startSinglePlayerGame">
<polygon fill="white" stroke="black" points="992,-60 992,-90 1206,-90 1206,-60 992,-60"/>
<text text-anchor="start" x="1000" y="-78" font-family="Helvetica,sans-Serif" font-size="10.00">gamePlayer.mainClasses.managers.</text>
<text text-anchor="middle" x="1099" y="-67" font-family="Helvetica,sans-Serif" font-size="10.00">WelcomeManager.startSinglePlayerGame</text>
</a>
</g>
</g>
<!-- Node6&#45;&gt;Node8 -->
<g id="edge7" class="edge"><title>Node6&#45;&gt;Node8</title>
<path fill="none" stroke="midnightblue" d="M965.766,-81.6954C974.398,-81.2583 983.128,-80.8163 991.77,-80.3788"/>
<polygon fill="midnightblue" stroke="midnightblue" points="965.501,-78.2043 955.69,-82.2055 965.855,-85.1953 965.501,-78.2043"/>
</g>
<!-- Node10 -->
<g id="node10" class="node"><title>Node10</title>
<g id="a_node10"><a xlink:href="../../d3/dee/classgame_player_1_1main_classes_1_1welcome_screen_1_1_game_start_manager.html#a0c44b3f25d2a30fe2e7aeca9da7161a9" target="_top" xlink:title="gamePlayer.mainClasses.welcome\lScreen.GameStartManager.startSingle\lPlayerGame">
<polygon fill="white" stroke="black" points="997.5,-0.5 997.5,-41.5 1200.5,-41.5 1200.5,-0.5 997.5,-0.5"/>
<text text-anchor="start" x="1005.5" y="-29.5" font-family="Helvetica,sans-Serif" font-size="10.00">gamePlayer.mainClasses.welcome</text>
<text text-anchor="start" x="1005.5" y="-18.5" font-family="Helvetica,sans-Serif" font-size="10.00">Screen.GameStartManager.startSingle</text>
<text text-anchor="middle" x="1099" y="-7.5" font-family="Helvetica,sans-Serif" font-size="10.00">PlayerGame</text>
</a>
</g>
</g>
<!-- Node6&#45;&gt;Node10 -->
<g id="edge9" class="edge"><title>Node6&#45;&gt;Node10</title>
<path fill="none" stroke="midnightblue" d="M924.769,-69.2416C955.341,-60.7277 992.143,-50.4791 1023.95,-41.6219"/>
<polygon fill="midnightblue" stroke="midnightblue" points="923.77,-65.8865 915.076,-71.941 925.648,-72.6299 923.77,-65.8865"/>
</g>
<!-- Node9 -->
<g id="node9" class="node"><title>Node9</title>
<g id="a_node9"><a xlink:href="../../d4/d3f/classgame_player_1_1main_classes_1_1managers_1_1_welcome_manager.html#ae6495396aef63551116c0835c40574e1" target="_top" xlink:title="gamePlayer.mainClasses.managers.\lWelcomeManager.startGame">
<polygon fill="white" stroke="black" points="1248.5,-60 1248.5,-90 1439.5,-90 1439.5,-60 1248.5,-60"/>
<text text-anchor="start" x="1256.5" y="-78" font-family="Helvetica,sans-Serif" font-size="10.00">gamePlayer.mainClasses.managers.</text>
<text text-anchor="middle" x="1344" y="-67" font-family="Helvetica,sans-Serif" font-size="10.00">WelcomeManager.startGame</text>
</a>
</g>
</g>
<!-- Node8&#45;&gt;Node9 -->
<g id="edge8" class="edge"><title>Node8&#45;&gt;Node9</title>
<path fill="none" stroke="midnightblue" d="M1216.47,-75C1227.19,-75 1237.95,-75 1248.44,-75"/>
<polygon fill="midnightblue" stroke="midnightblue" points="1216.23,-71.5001 1206.23,-75 1216.23,-78.5001 1216.23,-71.5001"/>
</g>
<!-- Node11 -->
<g id="node11" class="node"><title>Node11</title>
<g id="a_node11"><a xlink:href="../../d3/dee/classgame_player_1_1main_classes_1_1welcome_screen_1_1_game_start_manager.html#a4ac849399bf00c6df86f0db25ea95ed8" target="_top" xlink:title="gamePlayer.mainClasses.welcome\lScreen.GameStartManager.startGame">
<polygon fill="white" stroke="black" points="1242.5,-6 1242.5,-36 1445.5,-36 1445.5,-6 1242.5,-6"/>
<text text-anchor="start" x="1250.5" y="-24" font-family="Helvetica,sans-Serif" font-size="10.00">gamePlayer.mainClasses.welcome</text>
<text text-anchor="middle" x="1344" y="-13" font-family="Helvetica,sans-Serif" font-size="10.00">Screen.GameStartManager.startGame</text>
</a>
</g>
</g>
<!-- Node10&#45;&gt;Node11 -->
<g id="edge10" class="edge"><title>Node10&#45;&gt;Node11</title>
<path fill="none" stroke="midnightblue" d="M1210.7,-21C1221.29,-21 1232,-21 1242.48,-21"/>
<polygon fill="midnightblue" stroke="midnightblue" points="1210.59,-17.5001 1200.59,-21 1210.59,-24.5001 1210.59,-17.5001"/>
</g>
</g>
</svg>
