<?xml version="1.0" encoding="UTF-8" standalone="no"?>
<!DOCTYPE svg PUBLIC "-//W3C//DTD SVG 1.1//EN"
 "http://www.w3.org/Graphics/SVG/1.1/DTD/svg11.dtd">
<!-- Generated by graphviz version 2.36.0 (20140111.2315)
 -->
<!-- Title: gameEngine.MainEngineManager.loadLocations Pages: 1 -->
<svg width="454pt" height="87pt"
 viewBox="0.00 0.00 454.00 87.00" xmlns="http://www.w3.org/2000/svg" xmlns:xlink="http://www.w3.org/1999/xlink">
<g id="graph0" class="graph" transform="scale(1 1) rotate(0) translate(4 83)">
<title>gameEngine.MainEngineManager.loadLocations</title>
<polygon fill="white" stroke="none" points="-4,4 -4,-83 450,-83 450,4 -4,4"/>
<!-- Node1 -->
<g id="node1" class="node"><title>Node1</title>
<polygon fill="#bfbfbf" stroke="black" points="0.5,-24 0.5,-54 199.5,-54 199.5,-24 0.5,-24"/>
<text text-anchor="start" x="8.5" y="-42" font-family="Helvetica,sans-Serif" font-size="10.00">gameEngine.MainEngineManager.load</text>
<text text-anchor="middle" x="100" y="-31" font-family="Helvetica,sans-Serif" font-size="10.00">Locations</text>
</g>
<!-- Node2 -->
<g id="node2" class="node"><title>Node2</title>
<g id="a_node2"><a xlink:href="../../d0/d94/classgame_engine_1_1_main_engine_manager.html#a2304011654929eeb2527815849a58ccb" target="_top" xlink:title="gameEngine.MainEngineManager.create\lGameSizedGridPane">
<polygon fill="white" stroke="black" points="236.5,-49 236.5,-79 445.5,-79 445.5,-49 236.5,-49"/>
<text text-anchor="start" x="244.5" y="-67" font-family="Helvetica,sans-Serif" font-size="10.00">gameEngine.MainEngineManager.create</text>
<text text-anchor="middle" x="341" y="-56" font-family="Helvetica,sans-Serif" font-size="10.00">GameSizedGridPane</text>
</a>
</g>
</g>
<!-- Node1&#45;&gt;Node2 -->
<g id="edge1" class="edge"><title>Node1&#45;&gt;Node2</title>
<path fill="none" stroke="midnightblue" d="M199.59,-49.3128C208.372,-50.2314 217.31,-51.1663 226.205,-52.0967"/>
<polygon fill="midnightblue" stroke="midnightblue" points="225.909,-55.5848 236.219,-53.1443 226.638,-48.6228 225.909,-55.5848"/>
</g>
<!-- Node3 -->
<g id="node3" class="node"><title>Node3</title>
<g id="a_node3"><a xlink:href="../../d5/db4/classutilities_1_1_g_s_o_n_1_1_g_s_o_n_file_reader.html#abfe21735aa28feabf9ee4032fa6ee696" target="_top" xlink:title="utilities.GSON.GSONFileReader.read\lTowerRegionsFromGameDirectory">
<polygon fill="white" stroke="black" points="247.5,-0 247.5,-30 434.5,-30 434.5,-0 247.5,-0"/>
<text text-anchor="start" x="255.5" y="-18" font-family="Helvetica,sans-Serif" font-size="10.00">utilities.GSON.GSONFileReader.read</text>
<text text-anchor="middle" x="341" y="-7" font-family="Helvetica,sans-Serif" font-size="10.00">TowerRegionsFromGameDirectory</text>
</a>
</g>
</g>
<!-- Node1&#45;&gt;Node3 -->
<g id="edge2" class="edge"><title>Node1&#45;&gt;Node3</title>
<path fill="none" stroke="midnightblue" d="M199.59,-29.0997C212.07,-27.8465 224.864,-26.5618 237.404,-25.3025"/>
<polygon fill="midnightblue" stroke="midnightblue" points="237.796,-28.7809 247.396,-24.2992 237.096,-21.8159 237.796,-28.7809"/>
</g>
</g>
</svg>
