<?xml version="1.0" encoding="UTF-8" standalone="no"?>
<!DOCTYPE svg PUBLIC "-//W3C//DTD SVG 1.1//EN"
 "http://www.w3.org/Graphics/SVG/1.1/DTD/svg11.dtd">
<!-- Generated by graphviz version 2.36.0 (20140111.2315)
 -->
<!-- Title: gameEngine.MainEngineManager.checkNewPath Pages: 1 -->
<svg width="398pt" height="38pt"
 viewBox="0.00 0.00 398.00 38.00" xmlns="http://www.w3.org/2000/svg" xmlns:xlink="http://www.w3.org/1999/xlink">
<g id="graph0" class="graph" transform="scale(1 1) rotate(0) translate(4 34)">
<title>gameEngine.MainEngineManager.checkNewPath</title>
<polygon fill="white" stroke="none" points="-4,4 -4,-34 394,-34 394,4 -4,4"/>
<!-- Node1 -->
<g id="node1" class="node"><title>Node1</title>
<polygon fill="#bfbfbf" stroke="black" points="0,-0 0,-30 206,-30 206,-0 0,-0"/>
<text text-anchor="start" x="8" y="-18" font-family="Helvetica,sans-Serif" font-size="10.00">gameEngine.MainEngineManager.check</text>
<text text-anchor="middle" x="103" y="-7" font-family="Helvetica,sans-Serif" font-size="10.00">NewPath</text>
</g>
<!-- Node2 -->
<g id="node2" class="node"><title>Node2</title>
<g id="a_node2"><a xlink:href="../../da/df9/classgame_engine_1_1_data_1_1_tower_tile_grid.html#a9afe9fcda42de02e4ded45167d50229f" target="_top" xlink:title="gameEngine.Data.TowerTile\lGrid.hasBeenChanged">
<polygon fill="white" stroke="black" points="242,-0 242,-30 390,-30 390,-0 242,-0"/>
<text text-anchor="start" x="250" y="-18" font-family="Helvetica,sans-Serif" font-size="10.00">gameEngine.Data.TowerTile</text>
<text text-anchor="middle" x="316" y="-7" font-family="Helvetica,sans-Serif" font-size="10.00">Grid.hasBeenChanged</text>
</a>
</g>
</g>
<!-- Node1&#45;&gt;Node2 -->
<g id="edge1" class="edge"><title>Node1&#45;&gt;Node2</title>
<path fill="none" stroke="midnightblue" d="M206.101,-15C214.701,-15 223.331,-15 231.763,-15"/>
<polygon fill="midnightblue" stroke="midnightblue" points="231.934,-18.5001 241.934,-15 231.934,-11.5001 231.934,-18.5001"/>
</g>
</g>
</svg>
