<?xml version="1.0" encoding="UTF-8" standalone="no"?>
<!DOCTYPE svg PUBLIC "-//W3C//DTD SVG 1.1//EN"
 "http://www.w3.org/Graphics/SVG/1.1/DTD/svg11.dtd">
<!-- Generated by graphviz version 2.36.0 (20140111.2315)
 -->
<!-- Title: gameEngine.MainEngineManager.listCollidesWith Pages: 1 -->
<svg width="1502pt" height="87pt"
 viewBox="0.00 0.00 1502.00 87.00" xmlns="http://www.w3.org/2000/svg" xmlns:xlink="http://www.w3.org/1999/xlink">
<g id="graph0" class="graph" transform="scale(1 1) rotate(0) translate(4 83)">
<title>gameEngine.MainEngineManager.listCollidesWith</title>
<polygon fill="white" stroke="none" points="-4,4 -4,-83 1498,-83 1498,4 -4,4"/>
<!-- Node1 -->
<g id="node1" class="node"><title>Node1</title>
<polygon fill="#bfbfbf" stroke="black" points="0,-24 0,-54 192,-54 192,-24 0,-24"/>
<text text-anchor="start" x="8" y="-42" font-family="Helvetica,sans-Serif" font-size="10.00">gameEngine.MainEngineManager.list</text>
<text text-anchor="middle" x="96" y="-31" font-family="Helvetica,sans-Serif" font-size="10.00">CollidesWith</text>
</g>
<!-- Node2 -->
<g id="node2" class="node"><title>Node2</title>
<g id="a_node2"><a xlink:href="../../d0/d94/classgame_engine_1_1_main_engine_manager.html#a0df1000af70082b96b286adf21e84a8e" target="_top" xlink:title="gameEngine.MainEngineManager.validate\lTower">
<polygon fill="white" stroke="black" points="228,-24 228,-54 444,-54 444,-24 228,-24"/>
<text text-anchor="start" x="236" y="-42" font-family="Helvetica,sans-Serif" font-size="10.00">gameEngine.MainEngineManager.validate</text>
<text text-anchor="middle" x="336" y="-31" font-family="Helvetica,sans-Serif" font-size="10.00">Tower</text>
</a>
</g>
</g>
<!-- Node1&#45;&gt;Node2 -->
<g id="edge1" class="edge"><title>Node1&#45;&gt;Node2</title>
<path fill="none" stroke="midnightblue" d="M202.098,-39C210.671,-39 219.341,-39 227.928,-39"/>
<polygon fill="midnightblue" stroke="midnightblue" points="202.09,-35.5001 192.09,-39 202.09,-42.5001 202.09,-35.5001"/>
</g>
<!-- Node3 -->
<g id="node3" class="node"><title>Node3</title>
<g id="a_node3"><a xlink:href="../../da/d69/classgame_player_1_1main_classes_1_1managers_1_1_gui_manager.html#ab9444687dde4ba3763273b1029bae12b" target="_top" xlink:title="gamePlayer.mainClasses.managers.\lGuiManager.validPlacement">
<polygon fill="white" stroke="black" points="480.5,-24 480.5,-54 671.5,-54 671.5,-24 480.5,-24"/>
<text text-anchor="start" x="488.5" y="-42" font-family="Helvetica,sans-Serif" font-size="10.00">gamePlayer.mainClasses.managers.</text>
<text text-anchor="middle" x="576" y="-31" font-family="Helvetica,sans-Serif" font-size="10.00">GuiManager.validPlacement</text>
</a>
</g>
</g>
<!-- Node2&#45;&gt;Node3 -->
<g id="edge2" class="edge"><title>Node2&#45;&gt;Node3</title>
<path fill="none" stroke="midnightblue" d="M454.394,-39C463.122,-39 471.862,-39 480.426,-39"/>
<polygon fill="midnightblue" stroke="midnightblue" points="454.164,-35.5001 444.164,-39 454.164,-42.5001 454.164,-35.5001"/>
</g>
<!-- Node4 -->
<g id="node4" class="node"><title>Node4</title>
<g id="a_node4"><a xlink:href="../../db/d6b/classgame_player_1_1gui_features_1_1_tower_placer.html#a10670d3648daa0238e78318ee4fe5951" target="_top" xlink:title="gamePlayer.guiFeatures.Tower\lPlacer.validPlacement">
<polygon fill="white" stroke="black" points="708.5,-24 708.5,-54 869.5,-54 869.5,-24 708.5,-24"/>
<text text-anchor="start" x="716.5" y="-42" font-family="Helvetica,sans-Serif" font-size="10.00">gamePlayer.guiFeatures.Tower</text>
<text text-anchor="middle" x="789" y="-31" font-family="Helvetica,sans-Serif" font-size="10.00">Placer.validPlacement</text>
</a>
</g>
</g>
<!-- Node3&#45;&gt;Node4 -->
<g id="edge3" class="edge"><title>Node3&#45;&gt;Node4</title>
<path fill="none" stroke="midnightblue" d="M681.795,-39C690.752,-39 699.715,-39 708.427,-39"/>
<polygon fill="midnightblue" stroke="midnightblue" points="681.699,-35.5001 671.699,-39 681.699,-42.5001 681.699,-35.5001"/>
</g>
<!-- Node5 -->
<g id="node5" class="node"><title>Node5</title>
<g id="a_node5"><a xlink:href="../../db/d6b/classgame_player_1_1gui_features_1_1_tower_placer.html#ac768c9b3c4bb29f9555739e8e821b061" target="_top" xlink:title="gamePlayer.guiFeatures.Tower\lPlacer.drag">
<polygon fill="white" stroke="black" points="906.5,-49 906.5,-79 1067.5,-79 1067.5,-49 906.5,-49"/>
<text text-anchor="start" x="914.5" y="-67" font-family="Helvetica,sans-Serif" font-size="10.00">gamePlayer.guiFeatures.Tower</text>
<text text-anchor="middle" x="987" y="-56" font-family="Helvetica,sans-Serif" font-size="10.00">Placer.drag</text>
</a>
</g>
</g>
<!-- Node4&#45;&gt;Node5 -->
<g id="edge4" class="edge"><title>Node4&#45;&gt;Node5</title>
<path fill="none" stroke="midnightblue" d="M879.702,-50.4416C888.592,-51.5755 897.573,-52.721 906.35,-53.8406"/>
<polygon fill="midnightblue" stroke="midnightblue" points="880.083,-46.9619 869.721,-49.1685 879.197,-53.9057 880.083,-46.9619"/>
</g>
<!-- Node8 -->
<g id="node8" class="node"><title>Node8</title>
<g id="a_node8"><a xlink:href="../../db/d6b/classgame_player_1_1gui_features_1_1_tower_placer.html#a8a56e5205e61a12602015f880e47070c" target="_top" xlink:title="gamePlayer.guiFeatures.Tower\lPlacer.drop">
<polygon fill="white" stroke="black" points="906.5,-0 906.5,-30 1067.5,-30 1067.5,-0 906.5,-0"/>
<text text-anchor="start" x="914.5" y="-18" font-family="Helvetica,sans-Serif" font-size="10.00">gamePlayer.guiFeatures.Tower</text>
<text text-anchor="middle" x="987" y="-7" font-family="Helvetica,sans-Serif" font-size="10.00">Placer.drop</text>
</a>
</g>
</g>
<!-- Node4&#45;&gt;Node8 -->
<g id="edge7" class="edge"><title>Node4&#45;&gt;Node8</title>
<path fill="none" stroke="midnightblue" d="M879.702,-28.016C888.592,-26.9276 897.573,-25.8278 906.35,-24.7531"/>
<polygon fill="midnightblue" stroke="midnightblue" points="879.221,-24.5487 869.721,-29.2383 880.072,-31.4968 879.221,-24.5487"/>
</g>
<!-- Node6 -->
<g id="node6" class="node"><title>Node6</title>
<g id="a_node6"><a xlink:href="../../db/d6b/classgame_player_1_1gui_features_1_1_tower_placer.html#a2798d82694ca4f2a02b48f9516f0cd1b" target="_top" xlink:title="gamePlayer.guiFeatures.Tower\lPlacer.placeItem">
<polygon fill="white" stroke="black" points="1104.5,-24 1104.5,-54 1265.5,-54 1265.5,-24 1104.5,-24"/>
<text text-anchor="start" x="1112.5" y="-42" font-family="Helvetica,sans-Serif" font-size="10.00">gamePlayer.guiFeatures.Tower</text>
<text text-anchor="middle" x="1185" y="-31" font-family="Helvetica,sans-Serif" font-size="10.00">Placer.placeItem</text>
</a>
</g>
</g>
<!-- Node5&#45;&gt;Node6 -->
<g id="edge5" class="edge"><title>Node5&#45;&gt;Node6</title>
<path fill="none" stroke="midnightblue" d="M1077.7,-52.5584C1086.59,-51.4245 1095.57,-50.279 1104.35,-49.1594"/>
<polygon fill="midnightblue" stroke="midnightblue" points="1077.2,-49.0943 1067.72,-53.8315 1078.08,-56.0381 1077.2,-49.0943"/>
</g>
<!-- Node7 -->
<g id="node7" class="node"><title>Node7</title>
<g id="a_node7"><a xlink:href="../../da/d69/classgame_player_1_1main_classes_1_1managers_1_1_gui_manager.html#ae90e338dc9959e32627518bde3fdf2ff" target="_top" xlink:title="gamePlayer.mainClasses.managers.\lGuiManager.placeTower">
<polygon fill="white" stroke="black" points="1302.5,-24 1302.5,-54 1493.5,-54 1493.5,-24 1302.5,-24"/>
<text text-anchor="start" x="1310.5" y="-42" font-family="Helvetica,sans-Serif" font-size="10.00">gamePlayer.mainClasses.managers.</text>
<text text-anchor="middle" x="1398" y="-31" font-family="Helvetica,sans-Serif" font-size="10.00">GuiManager.placeTower</text>
</a>
</g>
</g>
<!-- Node6&#45;&gt;Node7 -->
<g id="edge6" class="edge"><title>Node6&#45;&gt;Node7</title>
<path fill="none" stroke="midnightblue" d="M1275.91,-39C1284.62,-39 1293.47,-39 1302.22,-39"/>
<polygon fill="midnightblue" stroke="midnightblue" points="1275.77,-35.5001 1265.77,-39 1275.77,-42.5001 1275.77,-35.5001"/>
</g>
<!-- Node8&#45;&gt;Node6 -->
<g id="edge8" class="edge"><title>Node8&#45;&gt;Node6</title>
<path fill="none" stroke="midnightblue" d="M1077.7,-25.984C1086.59,-27.0724 1095.57,-28.1722 1104.35,-29.2469"/>
<polygon fill="midnightblue" stroke="midnightblue" points="1078.07,-22.5032 1067.72,-24.7617 1077.22,-29.4513 1078.07,-22.5032"/>
</g>
</g>
</svg>
