<?xml version="1.0" encoding="UTF-8" standalone="no"?>
<!DOCTYPE svg PUBLIC "-//W3C//DTD SVG 1.1//EN"
 "http://www.w3.org/Graphics/SVG/1.1/DTD/svg11.dtd">
<!-- Generated by graphviz version 2.36.0 (20140111.2315)
 -->
<!-- Title: gameEngine.MainEngineManager.onGameLose Pages: 1 -->
<svg width="444pt" height="77pt"
 viewBox="0.00 0.00 444.00 77.00" xmlns="http://www.w3.org/2000/svg" xmlns:xlink="http://www.w3.org/1999/xlink">
<g id="graph0" class="graph" transform="scale(1 1) rotate(0) translate(4 73)">
<title>gameEngine.MainEngineManager.onGameLose</title>
<polygon fill="white" stroke="none" points="-4,4 -4,-73 440,-73 440,4 -4,4"/>
<!-- Node1 -->
<g id="node1" class="node"><title>Node1</title>
<polygon fill="#bfbfbf" stroke="black" points="0.5,-17 0.5,-47 191.5,-47 191.5,-17 0.5,-17"/>
<text text-anchor="start" x="8.5" y="-35" font-family="Helvetica,sans-Serif" font-size="10.00">gameEngine.MainEngineManager.on</text>
<text text-anchor="middle" x="96" y="-24" font-family="Helvetica,sans-Serif" font-size="10.00">GameLose</text>
</g>
<!-- Node2 -->
<g id="node2" class="node"><title>Node2</title>
<g id="a_node2"><a xlink:href="../../db/d6c/classgame_engine_1_1_data_1_1_range_restricted_collection.html#a63366f841f48e7cf54b8408d81bc9fff" target="_top" xlink:title="gameEngine.Data.RangeRestricted\lCollection.clear">
<polygon fill="white" stroke="black" points="240.5,-39 240.5,-69 423.5,-69 423.5,-39 240.5,-39"/>
<text text-anchor="start" x="248.5" y="-57" font-family="Helvetica,sans-Serif" font-size="10.00">gameEngine.Data.RangeRestricted</text>
<text text-anchor="middle" x="332" y="-46" font-family="Helvetica,sans-Serif" font-size="10.00">Collection.clear</text>
</a>
</g>
</g>
<!-- Node1&#45;&gt;Node2 -->
<g id="edge1" class="edge"><title>Node1&#45;&gt;Node2</title>
<path fill="none" stroke="midnightblue" d="M191.502,-40.8848C204.213,-42.0799 217.293,-43.3096 230.109,-44.5145"/>
<polygon fill="midnightblue" stroke="midnightblue" points="230.035,-48.0229 240.319,-45.4744 230.69,-41.0537 230.035,-48.0229"/>
</g>
<!-- Node3 -->
<g id="node3" class="node"><title>Node3</title>
<g id="a_node3"><a xlink:href="../../d0/d94/classgame_engine_1_1_main_engine_manager.html#aa097b03bdaa3bfb8795b3575e42b3953" target="_top" xlink:title="gameEngine.MainEngineManager.pause">
<polygon fill="white" stroke="black" points="228,-0.5 228,-19.5 436,-19.5 436,-0.5 228,-0.5"/>
<text text-anchor="middle" x="332" y="-7.5" font-family="Helvetica,sans-Serif" font-size="10.00">gameEngine.MainEngineManager.pause</text>
</a>
</g>
</g>
<!-- Node1&#45;&gt;Node3 -->
<g id="edge2" class="edge"><title>Node1&#45;&gt;Node3</title>
<path fill="none" stroke="midnightblue" d="M191.502,-23.1152C200.724,-22.2482 210.14,-21.3629 219.508,-20.4821"/>
<polygon fill="midnightblue" stroke="midnightblue" points="220.016,-23.9499 229.644,-19.5292 219.36,-16.9807 220.016,-23.9499"/>
</g>
</g>
</svg>
