<?xml version="1.0" encoding="UTF-8" standalone="no"?>
<!DOCTYPE svg PUBLIC "-//W3C//DTD SVG 1.1//EN"
 "http://www.w3.org/Graphics/SVG/1.1/DTD/svg11.dtd">
<!-- Generated by graphviz version 2.36.0 (20140111.2315)
 -->
<!-- Title: gameEngine.MainEngineManager.setTowerTileStatus Pages: 1 -->
<!--zoomable 245 -->
<svg id="main" version="1.1" xmlns="http://www.w3.org/2000/svg" xmlns:xlink="http://www.w3.org/1999/xlink" xml:space="preserve" onload="init(evt)">
<style type="text/css"><![CDATA[
.edge:hover path { stroke: red; }
.edge:hover polygon { stroke: red; fill: red; }
]]></style>
<script type="text/javascript"><![CDATA[
var edges = document.getElementsByTagName('g');
if (edges && edges.length) {
  for (var i=0;i<edges.length;i++) {
    if (edges[i].id.substr(0,4)=='edge') {
      edges[i].setAttribute('class','edge');
    }
  }
}
]]></script>
        <defs>
                <circle id="rim" cx="0" cy="0" r="7"/>
                <circle id="rim2" cx="0" cy="0" r="3.5"/>
                <g id="zoomPlus">
                        <use xlink:href="#rim" fill="#404040">
                                <set attributeName="fill" to="#808080" begin="zoomplus.mouseover" end="zoomplus.mouseout"/>
                        </use>
                        <path d="M-4,0h8M0,-4v8" fill="none" stroke="white" stroke-width="1.5" pointer-events="none"/>
                </g>
                <g id="zoomMin">
                        <use xlink:href="#rim" fill="#404040">
                                <set attributeName="fill" to="#808080" begin="zoomminus.mouseover" end="zoomminus.mouseout"/>
                        </use>
                        <path d="M-4,0h8" fill="none" stroke="white" stroke-width="1.5" pointer-events="none"/>
                </g>
                <g id="dirArrow">
                        <path fill="none" stroke="white" stroke-width="1.5" d="M0,-3.0v7 M-2.5,-0.5L0,-3.0L2.5,-0.5"/>
                </g>
               <g id="resetDef">
                       <use xlink:href="#rim2" fill="#404040">
                               <set attributeName="fill" to="#808080" begin="reset.mouseover" end="reset.mouseout"/>
                       </use>
               </g>
        </defs>

<script type="text/javascript">
var viewWidth = 628;
var viewHeight = 245;
var sectionId = 'dynsection-65';
</script>
<script xlink:href="../../svgpan.js"/>
<svg id="graph" class="graph">
<g id="viewport">
<title>gameEngine.MainEngineManager.setTowerTileStatus</title>
<polygon fill="white" stroke="none" points="-4,4 -4,-241 624,-241 624,4 -4,4"/>
<!-- Node1 -->
<g id="node1" class="node"><title>Node1</title>
<polygon fill="#bfbfbf" stroke="black" points="0,-103 0,-133 194,-133 194,-103 0,-103"/>
<text text-anchor="start" x="8" y="-121" font-family="Helvetica,sans-Serif" font-size="10.00">gameEngine.MainEngineManager.set</text>
<text text-anchor="middle" x="97" y="-110" font-family="Helvetica,sans-Serif" font-size="10.00">TowerTileStatus</text>
</g>
<!-- Node2 -->
<g id="node2" class="node"><title>Node2</title>
<g id="a_node2"><a xlink:href="../../d5/db4/classgame_authoring_1_1scenes_1_1path_building_1_1building_panes_1_1tower_regions_1_1_tile.html#a71f5d493f80cf25cea9276247991294a" target="_top" xlink:title="gameAuthoring.scenes.path\lBuilding.buildingPanes.towerRegions.\lTile.getColumn">
<polygon fill="white" stroke="black" points="237.5,-195.5 237.5,-236.5 428.5,-236.5 428.5,-195.5 237.5,-195.5"/>
<text text-anchor="start" x="245.5" y="-224.5" font-family="Helvetica,sans-Serif" font-size="10.00">gameAuthoring.scenes.path</text>
<text text-anchor="start" x="245.5" y="-213.5" font-family="Helvetica,sans-Serif" font-size="10.00">Building.buildingPanes.towerRegions.</text>
<text text-anchor="middle" x="333" y="-202.5" font-family="Helvetica,sans-Serif" font-size="10.00">Tile.getColumn</text>
</a>
</g>
</g>
<!-- Node1&#45;&gt;Node2 -->
<g id="edge1" class="edge"><title>Node1&#45;&gt;Node2</title>
<path fill="none" stroke="midnightblue" d="M123.612,-133.047C149.72,-147.938 191.71,-170.668 230,-186 235.379,-188.154 240.972,-190.231 246.647,-192.217"/>
<polygon fill="midnightblue" stroke="midnightblue" points="245.655,-195.576 256.25,-195.471 247.902,-188.947 245.655,-195.576"/>
</g>
<!-- Node3 -->
<g id="node3" class="node"><title>Node3</title>
<g id="a_node3"><a xlink:href="../../d0/d94/classgame_engine_1_1_main_engine_manager.html#ac3e9c579c0ea0259bf4dd5a0dc7d29b1" target="_top" xlink:title="gameEngine.MainEngineManager.get\lIntersectingTowerTileNode">
<polygon fill="white" stroke="black" points="236,-147 236,-177 430,-177 430,-147 236,-147"/>
<text text-anchor="start" x="244" y="-165" font-family="Helvetica,sans-Serif" font-size="10.00">gameEngine.MainEngineManager.get</text>
<text text-anchor="middle" x="333" y="-154" font-family="Helvetica,sans-Serif" font-size="10.00">IntersectingTowerTileNode</text>
</a>
</g>
</g>
<!-- Node1&#45;&gt;Node3 -->
<g id="edge2" class="edge"><title>Node1&#45;&gt;Node3</title>
<path fill="none" stroke="midnightblue" d="M177.875,-133.019C198.563,-136.909 220.978,-141.124 242.14,-145.103"/>
<polygon fill="midnightblue" stroke="midnightblue" points="241.613,-148.565 252.088,-146.974 242.907,-141.686 241.613,-148.565"/>
</g>
<!-- Node4 -->
<g id="node4" class="node"><title>Node4</title>
<g id="a_node4"><a xlink:href="../../d5/d02/classgame_engine_1_1actors_1_1_base_actor.html#ae877e5334153c4e125fb84bf993587af" target="_top" xlink:title="gameEngine.actors.BaseActor.getNode">
<polygon fill="white" stroke="black" points="230,-108.5 230,-127.5 436,-127.5 436,-108.5 230,-108.5"/>
<text text-anchor="middle" x="333" y="-115.5" font-family="Helvetica,sans-Serif" font-size="10.00">gameEngine.actors.BaseActor.getNode</text>
</a>
</g>
</g>
<!-- Node1&#45;&gt;Node4 -->
<g id="edge3" class="edge"><title>Node1&#45;&gt;Node4</title>
<path fill="none" stroke="midnightblue" d="M194.19,-118C202.616,-118 211.191,-118 219.732,-118"/>
<polygon fill="midnightblue" stroke="midnightblue" points="219.732,-121.5 229.732,-118 219.732,-114.5 219.732,-121.5"/>
</g>
<!-- Node5 -->
<g id="node5" class="node"><title>Node5</title>
<g id="a_node5"><a xlink:href="../../d5/db4/classgame_authoring_1_1scenes_1_1path_building_1_1building_panes_1_1tower_regions_1_1_tile.html#afe5b972b91b5f857bfbabd1894a48592" target="_top" xlink:title="gameAuthoring.scenes.path\lBuilding.buildingPanes.towerRegions.\lTile.getRow">
<polygon fill="white" stroke="black" points="237.5,-48.5 237.5,-89.5 428.5,-89.5 428.5,-48.5 237.5,-48.5"/>
<text text-anchor="start" x="245.5" y="-77.5" font-family="Helvetica,sans-Serif" font-size="10.00">gameAuthoring.scenes.path</text>
<text text-anchor="start" x="245.5" y="-66.5" font-family="Helvetica,sans-Serif" font-size="10.00">Building.buildingPanes.towerRegions.</text>
<text text-anchor="middle" x="333" y="-55.5" font-family="Helvetica,sans-Serif" font-size="10.00">Tile.getRow</text>
</a>
</g>
</g>
<!-- Node1&#45;&gt;Node5 -->
<g id="edge4" class="edge"><title>Node1&#45;&gt;Node5</title>
<path fill="none" stroke="midnightblue" d="M169.798,-102.965C188.072,-99.1388 208.084,-94.9483 227.621,-90.8571"/>
<polygon fill="midnightblue" stroke="midnightblue" points="228.402,-94.2697 237.472,-88.7943 226.967,-87.4183 228.402,-94.2697"/>
</g>
<!-- Node6 -->
<g id="node6" class="node"><title>Node6</title>
<g id="a_node6"><a xlink:href="../../da/df9/classgame_engine_1_1_data_1_1_tower_tile_grid.html#a367cfa2903c44048ec959bcc546486fe" target="_top" xlink:title="gameEngine.Data.TowerTile\lGrid.setTowerTile">
<polygon fill="white" stroke="black" points="259,-0 259,-30 407,-30 407,-0 259,-0"/>
<text text-anchor="start" x="267" y="-18" font-family="Helvetica,sans-Serif" font-size="10.00">gameEngine.Data.TowerTile</text>
<text text-anchor="middle" x="333" y="-7" font-family="Helvetica,sans-Serif" font-size="10.00">Grid.setTowerTile</text>
</a>
</g>
</g>
<!-- Node1&#45;&gt;Node6 -->
<g id="edge5" class="edge"><title>Node1&#45;&gt;Node6</title>
<path fill="none" stroke="midnightblue" d="M118.881,-102.706C144.044,-84.9557 188.172,-55.9593 230,-39 236.173,-36.497 242.667,-34.2191 249.264,-32.153"/>
<polygon fill="midnightblue" stroke="midnightblue" points="250.383,-35.4719 258.978,-29.2759 248.395,-28.7601 250.383,-35.4719"/>
</g>
<!-- Node7 -->
<g id="node7" class="node"><title>Node7</title>
<g id="a_node7"><a xlink:href="../../da/df9/classgame_engine_1_1_data_1_1_tower_tile_grid.html#a2bcbce6f5009d9adf2d13bc540c36a52" target="_top" xlink:title="gameEngine.Data.TowerTile\lGrid.setChangedStatus">
<polygon fill="white" stroke="black" points="472,-0 472,-30 620,-30 620,-0 472,-0"/>
<text text-anchor="start" x="480" y="-18" font-family="Helvetica,sans-Serif" font-size="10.00">gameEngine.Data.TowerTile</text>
<text text-anchor="middle" x="546" y="-7" font-family="Helvetica,sans-Serif" font-size="10.00">Grid.setChangedStatus</text>
</a>
</g>
</g>
<!-- Node6&#45;&gt;Node7 -->
<g id="edge6" class="edge"><title>Node6&#45;&gt;Node7</title>
<path fill="none" stroke="midnightblue" d="M407.205,-15C424.799,-15 443.719,-15 461.733,-15"/>
<polygon fill="midnightblue" stroke="midnightblue" points="461.924,-18.5001 471.924,-15 461.924,-11.5001 461.924,-18.5001"/>
</g>
</g>
</svg>
        <g id="navigator" transform="translate(0 0)" fill="#404254">
                <rect fill="#f2f5e9" fill-opacity="0.5" stroke="#606060" stroke-width=".5" x="0" y="0" width="60" height="60"/>
                <use id="zoomplus" xlink:href="#zoomPlus" x="17" y="9" onmousedown="handleZoom(evt,'in')"/>
                <use id="zoomminus" xlink:href="#zoomMin" x="42" y="9" onmousedown="handleZoom(evt,'out')"/>
                <use id="reset" xlink:href="#resetDef" x="30" y="36" onmousedown="handleReset()"/>
                <g id="arrowUp" xlink:href="#dirArrow" transform="translate(30 24)" onmousedown="handlePan(0,-1)">
                  <use xlink:href="#rim" fill="#404040">
                        <set attributeName="fill" to="#808080" begin="arrowUp.mouseover" end="arrowUp.mouseout"/>
                  </use>
                  <path fill="none" stroke="white" stroke-width="1.5" d="M0,-3.0v7 M-2.5,-0.5L0,-3.0L2.5,-0.5"/>
                </g>
                <g id="arrowRight" xlink:href="#dirArrow" transform="rotate(90) translate(36 -43)" onmousedown="handlePan(1,0)">
                  <use xlink:href="#rim" fill="#404040">
                        <set attributeName="fill" to="#808080" begin="arrowRight.mouseover" end="arrowRight.mouseout"/>
                  </use>
                  <path fill="none" stroke="white" stroke-width="1.5" d="M0,-3.0v7 M-2.5,-0.5L0,-3.0L2.5,-0.5"/>
                </g>
                <g id="arrowDown" xlink:href="#dirArrow" transform="rotate(180) translate(-30 -48)" onmousedown="handlePan(0,1)">
                  <use xlink:href="#rim" fill="#404040">
                        <set attributeName="fill" to="#808080" begin="arrowDown.mouseover" end="arrowDown.mouseout"/>
                  </use>
                  <path fill="none" stroke="white" stroke-width="1.5" d="M0,-3.0v7 M-2.5,-0.5L0,-3.0L2.5,-0.5"/>
                </g>
                <g id="arrowLeft" xlink:href="#dirArrow" transform="rotate(270) translate(-36 17)" onmousedown="handlePan(-1,0)">
                  <use xlink:href="#rim" fill="#404040">
                        <set attributeName="fill" to="#808080" begin="arrowLeft.mouseover" end="arrowLeft.mouseout"/>
                  </use>
                  <path fill="none" stroke="white" stroke-width="1.5" d="M0,-3.0v7 M-2.5,-0.5L0,-3.0L2.5,-0.5"/>
                </g>
        </g>
        <svg viewBox="0 0 15 15" width="100%" height="30px" preserveAspectRatio="xMaxYMin meet">
         <g id="arrow_out" transform="scale(0.3 0.3)">
          <a xlink:href="classgame_engine_1_1_main_engine_manager_a80b291e3df09fa199760f6c7b1482638_cgraph_org.svg" target="_base">
           <rect id="button" ry="5" rx="5" y="6" x="6" height="38" width="38"
                fill="#f2f5e9" fill-opacity="0.5" stroke="#606060" stroke-width="1.0"/>
           <path id="arrow"
             d="M 11.500037,31.436501 C 11.940474,20.09759 22.043105,11.32322 32.158766,21.979434 L 37.068811,17.246167 C 37.068811,17.246167 37.088388,32 37.088388,32 L 22.160133,31.978069 C 22.160133,31.978069 26.997745,27.140456 26.997745,27.140456 C 18.528582,18.264221 13.291696,25.230495 11.500037,31.436501 z"
             style="fill:#404040;"/>
          </a>
         </g>
        </svg>
</svg>
