<?xml version="1.0" encoding="UTF-8" standalone="no"?>
<!DOCTYPE svg PUBLIC "-//W3C//DTD SVG 1.1//EN"
 "http://www.w3.org/Graphics/SVG/1.1/DTD/svg11.dtd">
<!-- Generated by graphviz version 2.36.0 (20140111.2315)
 -->
<!-- Title: gameEngine.MainEngineManager.getIntersectingTowerTileNode Pages: 1 -->
<!--zoomable 185 -->
<svg id="main" version="1.1" xmlns="http://www.w3.org/2000/svg" xmlns:xlink="http://www.w3.org/1999/xlink" xml:space="preserve" onload="init(evt)">
<style type="text/css"><![CDATA[
.edge:hover path { stroke: red; }
.edge:hover polygon { stroke: red; fill: red; }
]]></style>
<script type="text/javascript"><![CDATA[
var edges = document.getElementsByTagName('g');
if (edges && edges.length) {
  for (var i=0;i<edges.length;i++) {
    if (edges[i].id.substr(0,4)=='edge') {
      edges[i].setAttribute('class','edge');
    }
  }
}
]]></script>
        <defs>
                <circle id="rim" cx="0" cy="0" r="7"/>
                <circle id="rim2" cx="0" cy="0" r="3.5"/>
                <g id="zoomPlus">
                        <use xlink:href="#rim" fill="#404040">
                                <set attributeName="fill" to="#808080" begin="zoomplus.mouseover" end="zoomplus.mouseout"/>
                        </use>
                        <path d="M-4,0h8M0,-4v8" fill="none" stroke="white" stroke-width="1.5" pointer-events="none"/>
                </g>
                <g id="zoomMin">
                        <use xlink:href="#rim" fill="#404040">
                                <set attributeName="fill" to="#808080" begin="zoomminus.mouseover" end="zoomminus.mouseout"/>
                        </use>
                        <path d="M-4,0h8" fill="none" stroke="white" stroke-width="1.5" pointer-events="none"/>
                </g>
                <g id="dirArrow">
                        <path fill="none" stroke="white" stroke-width="1.5" d="M0,-3.0v7 M-2.5,-0.5L0,-3.0L2.5,-0.5"/>
                </g>
               <g id="resetDef">
                       <use xlink:href="#rim2" fill="#404040">
                               <set attributeName="fill" to="#808080" begin="reset.mouseover" end="reset.mouseout"/>
                       </use>
               </g>
        </defs>

<script type="text/javascript">
var viewWidth = 1592;
var viewHeight = 185;
var sectionId = 'dynsection-24';
</script>
<script xlink:href="../../svgpan.js"/>
<svg id="graph" class="graph">
<g id="viewport">
<title>gameEngine.MainEngineManager.getIntersectingTowerTileNode</title>
<polygon fill="white" stroke="none" points="-4,4 -4,-181 1588,-181 1588,4 -4,4"/>
<!-- Node1 -->
<g id="node1" class="node"><title>Node1</title>
<polygon fill="#bfbfbf" stroke="black" points="0,-73 0,-103 194,-103 194,-73 0,-73"/>
<text text-anchor="start" x="8" y="-91" font-family="Helvetica,sans-Serif" font-size="10.00">gameEngine.MainEngineManager.get</text>
<text text-anchor="middle" x="97" y="-80" font-family="Helvetica,sans-Serif" font-size="10.00">IntersectingTowerTileNode</text>
</g>
<!-- Node2 -->
<g id="node2" class="node"><title>Node2</title>
<g id="a_node2"><a xlink:href="../../d0/d94/classgame_engine_1_1_main_engine_manager.html#a80b291e3df09fa199760f6c7b1482638" target="_top" xlink:title="gameEngine.MainEngineManager.set\lTowerTileStatus">
<polygon fill="white" stroke="black" points="230,-73 230,-103 424,-103 424,-73 230,-73"/>
<text text-anchor="start" x="238" y="-91" font-family="Helvetica,sans-Serif" font-size="10.00">gameEngine.MainEngineManager.set</text>
<text text-anchor="middle" x="327" y="-80" font-family="Helvetica,sans-Serif" font-size="10.00">TowerTileStatus</text>
</a>
</g>
</g>
<!-- Node1&#45;&gt;Node2 -->
<g id="edge1" class="edge"><title>Node1&#45;&gt;Node2</title>
<path fill="none" stroke="midnightblue" d="M204.043,-88C212.605,-88 221.227,-88 229.714,-88"/>
<polygon fill="midnightblue" stroke="midnightblue" points="204.032,-84.5001 194.032,-88 204.032,-91.5001 204.032,-84.5001"/>
</g>
<!-- Node3 -->
<g id="node3" class="node"><title>Node3</title>
<g id="a_node3"><a xlink:href="../../d0/d94/classgame_engine_1_1_main_engine_manager.html#ab2ef6260dd1521fb9762334c37a19667" target="_top" xlink:title="gameEngine.MainEngineManager.remove\lTower">
<polygon fill="white" stroke="black" points="460.5,-98 460.5,-128 675.5,-128 675.5,-98 460.5,-98"/>
<text text-anchor="start" x="468.5" y="-116" font-family="Helvetica,sans-Serif" font-size="10.00">gameEngine.MainEngineManager.remove</text>
<text text-anchor="middle" x="568" y="-105" font-family="Helvetica,sans-Serif" font-size="10.00">Tower</text>
</a>
</g>
</g>
<!-- Node2&#45;&gt;Node3 -->
<g id="edge2" class="edge"><title>Node2&#45;&gt;Node3</title>
<path fill="none" stroke="midnightblue" d="M434.312,-99.1205C442.991,-100.028 451.764,-100.946 460.445,-101.854"/>
<polygon fill="midnightblue" stroke="midnightblue" points="434.487,-95.6198 424.177,-98.0604 433.759,-102.582 434.487,-95.6198"/>
</g>
<!-- Node8 -->
<g id="node8" class="node"><title>Node8</title>
<g id="a_node8"><a xlink:href="../../d0/d94/classgame_engine_1_1_main_engine_manager.html#a42a2b5309be3a2d21f572d3d9f353a28" target="_top" xlink:title="gameEngine.MainEngineManager.add\lTower">
<polygon fill="white" stroke="black" points="469.5,-49 469.5,-79 666.5,-79 666.5,-49 469.5,-49"/>
<text text-anchor="start" x="477.5" y="-67" font-family="Helvetica,sans-Serif" font-size="10.00">gameEngine.MainEngineManager.add</text>
<text text-anchor="middle" x="568" y="-56" font-family="Helvetica,sans-Serif" font-size="10.00">Tower</text>
</a>
</g>
</g>
<!-- Node2&#45;&gt;Node8 -->
<g id="edge7" class="edge"><title>Node2&#45;&gt;Node8</title>
<path fill="none" stroke="midnightblue" d="M434.382,-77.3173C446.057,-76.1449 457.902,-74.9555 469.462,-73.7946"/>
<polygon fill="midnightblue" stroke="midnightblue" points="433.778,-73.8603 424.177,-78.342 434.477,-80.8253 433.778,-73.8603"/>
</g>
<!-- Node4 -->
<g id="node4" class="node"><title>Node4</title>
<g id="a_node4"><a xlink:href="../../d0/d94/classgame_engine_1_1_main_engine_manager.html#ab5dbebb52c5edcf41787d314326cc1aa" target="_top" xlink:title="gameEngine.MainEngineManager.upgrade">
<polygon fill="white" stroke="black" points="712,-103.5 712,-122.5 930,-122.5 930,-103.5 712,-103.5"/>
<text text-anchor="middle" x="821" y="-110.5" font-family="Helvetica,sans-Serif" font-size="10.00">gameEngine.MainEngineManager.upgrade</text>
</a>
</g>
</g>
<!-- Node3&#45;&gt;Node4 -->
<g id="edge3" class="edge"><title>Node3&#45;&gt;Node4</title>
<path fill="none" stroke="midnightblue" d="M685.875,-113C694.477,-113 703.134,-113 711.683,-113"/>
<polygon fill="midnightblue" stroke="midnightblue" points="685.811,-109.5 675.811,-113 685.811,-116.5 685.811,-109.5"/>
</g>
<!-- Node6 -->
<g id="node6" class="node"><title>Node6</title>
<g id="a_node6"><a xlink:href="../../d0/d94/classgame_engine_1_1_main_engine_manager.html#a15acfa576230f027d46141878a2da50e" target="_top" xlink:title="gameEngine.MainEngineManager.sell\lTower">
<polygon fill="white" stroke="black" points="724,-144 724,-174 918,-174 918,-144 724,-144"/>
<text text-anchor="start" x="732" y="-162" font-family="Helvetica,sans-Serif" font-size="10.00">gameEngine.MainEngineManager.sell</text>
<text text-anchor="middle" x="821" y="-151" font-family="Helvetica,sans-Serif" font-size="10.00">Tower</text>
</a>
</g>
</g>
<!-- Node3&#45;&gt;Node6 -->
<g id="edge5" class="edge"><title>Node3&#45;&gt;Node6</title>
<path fill="none" stroke="midnightblue" d="M661.112,-129.881C686.318,-134.5 713.462,-139.475 738.057,-143.983"/>
<polygon fill="midnightblue" stroke="midnightblue" points="661.654,-126.422 651.187,-128.062 660.392,-133.308 661.654,-126.422"/>
</g>
<!-- Node5 -->
<g id="node5" class="node"><title>Node5</title>
<g id="a_node5"><a xlink:href="../../da/d69/classgame_player_1_1main_classes_1_1managers_1_1_gui_manager.html#a162f5822f9bff033684bd28cada2f03e" target="_top" xlink:title="gamePlayer.mainClasses.managers.\lGuiManager.upgradeTower">
<polygon fill="white" stroke="black" points="966.5,-98 966.5,-128 1157.5,-128 1157.5,-98 966.5,-98"/>
<text text-anchor="start" x="974.5" y="-116" font-family="Helvetica,sans-Serif" font-size="10.00">gamePlayer.mainClasses.managers.</text>
<text text-anchor="middle" x="1062" y="-105" font-family="Helvetica,sans-Serif" font-size="10.00">GuiManager.upgradeTower</text>
</a>
</g>
</g>
<!-- Node4&#45;&gt;Node5 -->
<g id="edge4" class="edge"><title>Node4&#45;&gt;Node5</title>
<path fill="none" stroke="midnightblue" d="M940.445,-113C949.089,-113 957.741,-113 966.219,-113"/>
<polygon fill="midnightblue" stroke="midnightblue" points="940.311,-109.5 930.311,-113 940.311,-116.5 940.311,-109.5"/>
</g>
<!-- Node7 -->
<g id="node7" class="node"><title>Node7</title>
<g id="a_node7"><a xlink:href="../../da/d69/classgame_player_1_1main_classes_1_1managers_1_1_gui_manager.html#a7749aaba2ab03cd1cb8dc3ad2ebfbd6f" target="_top" xlink:title="gamePlayer.mainClasses.managers.\lGuiManager.sellTower">
<polygon fill="white" stroke="black" points="966.5,-147 966.5,-177 1157.5,-177 1157.5,-147 966.5,-147"/>
<text text-anchor="start" x="974.5" y="-165" font-family="Helvetica,sans-Serif" font-size="10.00">gamePlayer.mainClasses.managers.</text>
<text text-anchor="middle" x="1062" y="-154" font-family="Helvetica,sans-Serif" font-size="10.00">GuiManager.sellTower</text>
</a>
</g>
</g>
<!-- Node6&#45;&gt;Node7 -->
<g id="edge6" class="edge"><title>Node6&#45;&gt;Node7</title>
<path fill="none" stroke="midnightblue" d="M928.256,-160.334C940.891,-160.492 953.725,-160.653 966.186,-160.81"/>
<polygon fill="midnightblue" stroke="midnightblue" points="928.221,-156.833 918.177,-160.207 928.133,-163.833 928.221,-156.833"/>
</g>
<!-- Node8&#45;&gt;Node4 -->
<g id="edge14" class="edge"><title>Node8&#45;&gt;Node4</title>
<path fill="none" stroke="midnightblue" d="M656.201,-81.0234C694.722,-88.5433 738.566,-97.1025 771.194,-103.472"/>
<polygon fill="midnightblue" stroke="midnightblue" points="656.499,-77.5156 646.014,-79.0346 655.158,-84.3859 656.499,-77.5156"/>
</g>
<!-- Node9 -->
<g id="node9" class="node"><title>Node9</title>
<g id="a_node9"><a xlink:href="../../d0/d94/classgame_engine_1_1_main_engine_manager.html#a877d3b0d8eeb5a117fe7043df349d101" target="_top" xlink:title="gameEngine.MainEngineManager.load\lState">
<polygon fill="white" stroke="black" points="721.5,-49 721.5,-79 920.5,-79 920.5,-49 721.5,-49"/>
<text text-anchor="start" x="729.5" y="-67" font-family="Helvetica,sans-Serif" font-size="10.00">gameEngine.MainEngineManager.load</text>
<text text-anchor="middle" x="821" y="-56" font-family="Helvetica,sans-Serif" font-size="10.00">State</text>
</a>
</g>
</g>
<!-- Node8&#45;&gt;Node9 -->
<g id="edge8" class="edge"><title>Node8&#45;&gt;Node9</title>
<path fill="none" stroke="midnightblue" d="M676.901,-64C691.637,-64 706.703,-64 721.265,-64"/>
<polygon fill="midnightblue" stroke="midnightblue" points="676.762,-60.5001 666.762,-64 676.762,-67.5001 676.762,-60.5001"/>
</g>
<!-- Node11 -->
<g id="node11" class="node"><title>Node11</title>
<g id="a_node11"><a xlink:href="../../da/d69/classgame_player_1_1main_classes_1_1managers_1_1_gui_manager.html#a148dc947569bdc60c98be5a853cf82ee" target="_top" xlink:title="gamePlayer.mainClasses.managers.\lGuiManager.makeTower">
<polygon fill="white" stroke="black" points="725.5,-0 725.5,-30 916.5,-30 916.5,-0 725.5,-0"/>
<text text-anchor="start" x="733.5" y="-18" font-family="Helvetica,sans-Serif" font-size="10.00">gamePlayer.mainClasses.managers.</text>
<text text-anchor="middle" x="821" y="-7" font-family="Helvetica,sans-Serif" font-size="10.00">GuiManager.makeTower</text>
</a>
</g>
</g>
<!-- Node8&#45;&gt;Node11 -->
<g id="edge10" class="edge"><title>Node8&#45;&gt;Node11</title>
<path fill="none" stroke="midnightblue" d="M655.915,-47.0326C684.28,-41.4951 715.558,-35.389 743.132,-30.0062"/>
<polygon fill="midnightblue" stroke="midnightblue" points="655.158,-43.6141 646.014,-48.9654 656.499,-50.4844 655.158,-43.6141"/>
</g>
<!-- Node10 -->
<g id="node10" class="node"><title>Node10</title>
<g id="a_node10"><a xlink:href="../../da/d69/classgame_player_1_1main_classes_1_1managers_1_1_gui_manager.html#a3c6a6b6581cd16f2c9e702ce936c217b" target="_top" xlink:title="gamePlayer.mainClasses.managers.\lGuiManager.loadState">
<polygon fill="white" stroke="black" points="966.5,-49 966.5,-79 1157.5,-79 1157.5,-49 966.5,-49"/>
<text text-anchor="start" x="974.5" y="-67" font-family="Helvetica,sans-Serif" font-size="10.00">gamePlayer.mainClasses.managers.</text>
<text text-anchor="middle" x="1062" y="-56" font-family="Helvetica,sans-Serif" font-size="10.00">GuiManager.loadState</text>
</a>
</g>
</g>
<!-- Node9&#45;&gt;Node10 -->
<g id="edge9" class="edge"><title>Node9&#45;&gt;Node10</title>
<path fill="none" stroke="midnightblue" d="M930.604,-64C942.578,-64 954.699,-64 966.482,-64"/>
<polygon fill="midnightblue" stroke="midnightblue" points="930.59,-60.5001 920.59,-64 930.59,-67.5001 930.59,-60.5001"/>
</g>
<!-- Node12 -->
<g id="node12" class="node"><title>Node12</title>
<g id="a_node12"><a xlink:href="../../db/d6b/classgame_player_1_1gui_features_1_1_tower_placer.html#a8a56e5205e61a12602015f880e47070c" target="_top" xlink:title="gamePlayer.guiFeatures.Tower\lPlacer.drop">
<polygon fill="white" stroke="black" points="981.5,-0 981.5,-30 1142.5,-30 1142.5,-0 981.5,-0"/>
<text text-anchor="start" x="989.5" y="-18" font-family="Helvetica,sans-Serif" font-size="10.00">gamePlayer.guiFeatures.Tower</text>
<text text-anchor="middle" x="1062" y="-7" font-family="Helvetica,sans-Serif" font-size="10.00">Placer.drop</text>
</a>
</g>
</g>
<!-- Node11&#45;&gt;Node12 -->
<g id="edge11" class="edge"><title>Node11&#45;&gt;Node12</title>
<path fill="none" stroke="midnightblue" d="M926.891,-15C945.156,-15 963.883,-15 981.331,-15"/>
<polygon fill="midnightblue" stroke="midnightblue" points="926.802,-11.5001 916.802,-15 926.802,-18.5001 926.802,-11.5001"/>
</g>
<!-- Node13 -->
<g id="node13" class="node"><title>Node13</title>
<g id="a_node13"><a xlink:href="../../db/d6b/classgame_player_1_1gui_features_1_1_tower_placer.html#a2798d82694ca4f2a02b48f9516f0cd1b" target="_top" xlink:title="gamePlayer.guiFeatures.Tower\lPlacer.placeItem">
<polygon fill="white" stroke="black" points="1194.5,-0 1194.5,-30 1355.5,-30 1355.5,-0 1194.5,-0"/>
<text text-anchor="start" x="1202.5" y="-18" font-family="Helvetica,sans-Serif" font-size="10.00">gamePlayer.guiFeatures.Tower</text>
<text text-anchor="middle" x="1275" y="-7" font-family="Helvetica,sans-Serif" font-size="10.00">Placer.placeItem</text>
</a>
</g>
</g>
<!-- Node12&#45;&gt;Node13 -->
<g id="edge12" class="edge"><title>Node12&#45;&gt;Node13</title>
<path fill="none" stroke="midnightblue" d="M1152.78,-15C1166.63,-15 1180.86,-15 1194.47,-15"/>
<polygon fill="midnightblue" stroke="midnightblue" points="1152.77,-11.5001 1142.77,-15 1152.77,-18.5001 1152.77,-11.5001"/>
</g>
<!-- Node14 -->
<g id="node14" class="node"><title>Node14</title>
<g id="a_node14"><a xlink:href="../../da/d69/classgame_player_1_1main_classes_1_1managers_1_1_gui_manager.html#ae90e338dc9959e32627518bde3fdf2ff" target="_top" xlink:title="gamePlayer.mainClasses.managers.\lGuiManager.placeTower">
<polygon fill="white" stroke="black" points="1392.5,-0 1392.5,-30 1583.5,-30 1583.5,-0 1392.5,-0"/>
<text text-anchor="start" x="1400.5" y="-18" font-family="Helvetica,sans-Serif" font-size="10.00">gamePlayer.mainClasses.managers.</text>
<text text-anchor="middle" x="1488" y="-7" font-family="Helvetica,sans-Serif" font-size="10.00">GuiManager.placeTower</text>
</a>
</g>
</g>
<!-- Node13&#45;&gt;Node14 -->
<g id="edge13" class="edge"><title>Node13&#45;&gt;Node14</title>
<path fill="none" stroke="midnightblue" d="M1365.91,-15C1374.62,-15 1383.47,-15 1392.22,-15"/>
<polygon fill="midnightblue" stroke="midnightblue" points="1365.77,-11.5001 1355.77,-15 1365.77,-18.5001 1365.77,-11.5001"/>
</g>
</g>
</svg>
        <g id="navigator" transform="translate(0 0)" fill="#404254">
                <rect fill="#f2f5e9" fill-opacity="0.5" stroke="#606060" stroke-width=".5" x="0" y="0" width="60" height="60"/>
                <use id="zoomplus" xlink:href="#zoomPlus" x="17" y="9" onmousedown="handleZoom(evt,'in')"/>
                <use id="zoomminus" xlink:href="#zoomMin" x="42" y="9" onmousedown="handleZoom(evt,'out')"/>
                <use id="reset" xlink:href="#resetDef" x="30" y="36" onmousedown="handleReset()"/>
                <g id="arrowUp" xlink:href="#dirArrow" transform="translate(30 24)" onmousedown="handlePan(0,-1)">
                  <use xlink:href="#rim" fill="#404040">
                        <set attributeName="fill" to="#808080" begin="arrowUp.mouseover" end="arrowUp.mouseout"/>
                  </use>
                  <path fill="none" stroke="white" stroke-width="1.5" d="M0,-3.0v7 M-2.5,-0.5L0,-3.0L2.5,-0.5"/>
                </g>
                <g id="arrowRight" xlink:href="#dirArrow" transform="rotate(90) translate(36 -43)" onmousedown="handlePan(1,0)">
                  <use xlink:href="#rim" fill="#404040">
                        <set attributeName="fill" to="#808080" begin="arrowRight.mouseover" end="arrowRight.mouseout"/>
                  </use>
                  <path fill="none" stroke="white" stroke-width="1.5" d="M0,-3.0v7 M-2.5,-0.5L0,-3.0L2.5,-0.5"/>
                </g>
                <g id="arrowDown" xlink:href="#dirArrow" transform="rotate(180) translate(-30 -48)" onmousedown="handlePan(0,1)">
                  <use xlink:href="#rim" fill="#404040">
                        <set attributeName="fill" to="#808080" begin="arrowDown.mouseover" end="arrowDown.mouseout"/>
                  </use>
                  <path fill="none" stroke="white" stroke-width="1.5" d="M0,-3.0v7 M-2.5,-0.5L0,-3.0L2.5,-0.5"/>
                </g>
                <g id="arrowLeft" xlink:href="#dirArrow" transform="rotate(270) translate(-36 17)" onmousedown="handlePan(-1,0)">
                  <use xlink:href="#rim" fill="#404040">
                        <set attributeName="fill" to="#808080" begin="arrowLeft.mouseover" end="arrowLeft.mouseout"/>
                  </use>
                  <path fill="none" stroke="white" stroke-width="1.5" d="M0,-3.0v7 M-2.5,-0.5L0,-3.0L2.5,-0.5"/>
                </g>
        </g>
        <svg viewBox="0 0 15 15" width="100%" height="30px" preserveAspectRatio="xMaxYMin meet">
         <g id="arrow_out" transform="scale(0.3 0.3)">
          <a xlink:href="classgame_engine_1_1_main_engine_manager_ac3e9c579c0ea0259bf4dd5a0dc7d29b1_icgraph_org.svg" target="_base">
           <rect id="button" ry="5" rx="5" y="6" x="6" height="38" width="38"
                fill="#f2f5e9" fill-opacity="0.5" stroke="#606060" stroke-width="1.0"/>
           <path id="arrow"
             d="M 11.500037,31.436501 C 11.940474,20.09759 22.043105,11.32322 32.158766,21.979434 L 37.068811,17.246167 C 37.068811,17.246167 37.088388,32 37.088388,32 L 22.160133,31.978069 C 22.160133,31.978069 26.997745,27.140456 26.997745,27.140456 C 18.528582,18.264221 13.291696,25.230495 11.500037,31.436501 z"
             style="fill:#404040;"/>
          </a>
         </g>
        </svg>
</svg>
