<?xml version="1.0" encoding="UTF-8" standalone="no"?>
<!DOCTYPE svg PUBLIC "-//W3C//DTD SVG 1.1//EN"
 "http://www.w3.org/Graphics/SVG/1.1/DTD/svg11.dtd">
<!-- Generated by graphviz version 2.36.0 (20140111.2315)
 -->
<!-- Title: gameEngine.MainEngineManager.createTimeline Pages: 1 -->
<svg width="2156pt" height="356pt"
 viewBox="0.00 0.00 2156.00 356.00" xmlns="http://www.w3.org/2000/svg" xmlns:xlink="http://www.w3.org/1999/xlink">
<g id="graph0" class="graph" transform="scale(1 1) rotate(0) translate(4 352)">
<title>gameEngine.MainEngineManager.createTimeline</title>
<polygon fill="white" stroke="none" points="-4,4 -4,-352 2152,-352 2152,4 -4,4"/>
<!-- Node1 -->
<g id="node1" class="node"><title>Node1</title>
<polygon fill="#bfbfbf" stroke="black" points="0.5,-85 0.5,-115 209.5,-115 209.5,-85 0.5,-85"/>
<text text-anchor="start" x="8.5" y="-103" font-family="Helvetica,sans-Serif" font-size="10.00">gameEngine.MainEngineManager.create</text>
<text text-anchor="middle" x="105" y="-92" font-family="Helvetica,sans-Serif" font-size="10.00">Timeline</text>
</g>
<!-- Node2 -->
<g id="node2" class="node"><title>Node2</title>
<g id="a_node2"><a xlink:href="../../d0/d94/classgame_engine_1_1_main_engine_manager.html#aa167e2a5e062c22e361f11a25db3c3ef" target="_top" xlink:title="gameEngine.MainEngineManager.game\lUpdate">
<polygon fill="white" stroke="black" points="246,-122 246,-152 452,-152 452,-122 246,-122"/>
<text text-anchor="start" x="254" y="-140" font-family="Helvetica,sans-Serif" font-size="10.00">gameEngine.MainEngineManager.game</text>
<text text-anchor="middle" x="349" y="-129" font-family="Helvetica,sans-Serif" font-size="10.00">Update</text>
</a>
</g>
</g>
<!-- Node1&#45;&gt;Node2 -->
<g id="edge1" class="edge"><title>Node1&#45;&gt;Node2</title>
<path fill="none" stroke="midnightblue" d="M204.431,-115.049C215.969,-116.813 227.79,-118.621 239.456,-120.404"/>
<polygon fill="midnightblue" stroke="midnightblue" points="239.242,-123.912 249.657,-121.964 240.3,-116.993 239.242,-123.912"/>
</g>
<!-- Node26 -->
<g id="node26" class="node"><title>Node26</title>
<g id="a_node26"><a xlink:href="../../da/df9/classgame_engine_1_1_data_1_1_tower_tile_grid.html#a051a583aa94272b1662db958491665c9" target="_top" xlink:title="gameEngine.Data.TowerTile\lGrid.setAsNotChanged">
<polygon fill="white" stroke="black" points="275,-49 275,-79 423,-79 423,-49 275,-49"/>
<text text-anchor="start" x="283" y="-67" font-family="Helvetica,sans-Serif" font-size="10.00">gameEngine.Data.TowerTile</text>
<text text-anchor="middle" x="349" y="-56" font-family="Helvetica,sans-Serif" font-size="10.00">Grid.setAsNotChanged</text>
</a>
</g>
</g>
<!-- Node1&#45;&gt;Node26 -->
<g id="edge27" class="edge"><title>Node1&#45;&gt;Node26</title>
<path fill="none" stroke="midnightblue" d="M206.877,-84.9934C226.226,-82.1152 246.28,-79.1318 264.987,-76.349"/>
<polygon fill="midnightblue" stroke="midnightblue" points="265.554,-79.8033 274.93,-74.8699 264.524,-72.8794 265.554,-79.8033"/>
</g>
<!-- Node3 -->
<g id="node3" class="node"><title>Node3</title>
<g id="a_node3"><a xlink:href="../../d0/d94/classgame_engine_1_1_main_engine_manager.html#ad1fb0032312cf87f849cffded28a4d54" target="_top" xlink:title="gameEngine.MainEngineManager.add\lEnemies">
<polygon fill="white" stroke="black" points="496.5,-49 496.5,-79 693.5,-79 693.5,-49 496.5,-49"/>
<text text-anchor="start" x="504.5" y="-67" font-family="Helvetica,sans-Serif" font-size="10.00">gameEngine.MainEngineManager.add</text>
<text text-anchor="middle" x="595" y="-56" font-family="Helvetica,sans-Serif" font-size="10.00">Enemies</text>
</a>
</g>
</g>
<!-- Node2&#45;&gt;Node3 -->
<g id="edge2" class="edge"><title>Node2&#45;&gt;Node3</title>
<path fill="none" stroke="midnightblue" d="M388.561,-121.923C416.017,-111.53 453.934,-97.8668 488,-88 495.881,-85.7174 504.143,-83.5177 512.429,-81.4388"/>
<polygon fill="midnightblue" stroke="midnightblue" points="513.268,-84.8369 522.146,-79.0559 511.6,-78.0384 513.268,-84.8369"/>
</g>
<!-- Node5 -->
<g id="node5" class="node"><title>Node5</title>
<g id="a_node5"><a xlink:href="../../d0/d94/classgame_engine_1_1_main_engine_manager.html#a07313072a6056b1e5bf9cbc595bd809c" target="_top" xlink:title="gameEngine.MainEngineManager.update\lActors">
<polygon fill="white" stroke="black" points="489,-251 489,-281 701,-281 701,-251 489,-251"/>
<text text-anchor="start" x="497" y="-269" font-family="Helvetica,sans-Serif" font-size="10.00">gameEngine.MainEngineManager.update</text>
<text text-anchor="middle" x="595" y="-258" font-family="Helvetica,sans-Serif" font-size="10.00">Actors</text>
</a>
</g>
</g>
<!-- Node2&#45;&gt;Node5 -->
<g id="edge4" class="edge"><title>Node2&#45;&gt;Node5</title>
<path fill="none" stroke="midnightblue" d="M367.096,-152.042C392.053,-173.295 440.66,-212.073 488,-235 498.144,-239.913 509.217,-244.203 520.26,-247.899"/>
<polygon fill="midnightblue" stroke="midnightblue" points="519.34,-251.28 529.931,-250.995 521.474,-244.613 519.34,-251.28"/>
</g>
<!-- Node11 -->
<g id="node11" class="node"><title>Node11</title>
<g id="a_node11"><a xlink:href="../../d0/d94/classgame_engine_1_1_main_engine_manager.html#afd86188ac12b9cc28f5d05d7a7350af0" target="_top" xlink:title="gameEngine.MainEngineManager.on\lLevelEnd">
<polygon fill="white" stroke="black" points="499.5,-196 499.5,-226 690.5,-226 690.5,-196 499.5,-196"/>
<text text-anchor="start" x="507.5" y="-214" font-family="Helvetica,sans-Serif" font-size="10.00">gameEngine.MainEngineManager.on</text>
<text text-anchor="middle" x="595" y="-203" font-family="Helvetica,sans-Serif" font-size="10.00">LevelEnd</text>
</a>
</g>
</g>
<!-- Node2&#45;&gt;Node11 -->
<g id="edge10" class="edge"><title>Node2&#45;&gt;Node11</title>
<path fill="none" stroke="midnightblue" d="M388.885,-152.094C416.329,-162.429 454.1,-176.017 488,-186 496.791,-188.589 506.053,-191.094 515.292,-193.453"/>
<polygon fill="midnightblue" stroke="midnightblue" points="514.735,-196.922 525.286,-195.954 516.434,-190.131 514.735,-196.922"/>
</g>
<!-- Node24 -->
<g id="node24" class="node"><title>Node24</title>
<g id="a_node24"><a xlink:href="../../db/d6c/classgame_engine_1_1_data_1_1_range_restricted_collection.html#a91616f6d337e2aa90319656a67e6c4ff" target="_top" xlink:title="gameEngine.Data.RangeRestricted\lCollection.clearAndExecuteRemoveBuffer">
<polygon fill="white" stroke="black" points="488.5,-147 488.5,-177 701.5,-177 701.5,-147 488.5,-147"/>
<text text-anchor="start" x="496.5" y="-165" font-family="Helvetica,sans-Serif" font-size="10.00">gameEngine.Data.RangeRestricted</text>
<text text-anchor="middle" x="595" y="-154" font-family="Helvetica,sans-Serif" font-size="10.00">Collection.clearAndExecuteRemoveBuffer</text>
</a>
</g>
</g>
<!-- Node2&#45;&gt;Node24 -->
<g id="edge23" class="edge"><title>Node2&#45;&gt;Node24</title>
<path fill="none" stroke="midnightblue" d="M452.064,-147.457C460.699,-148.342 469.472,-149.241 478.202,-150.135"/>
<polygon fill="midnightblue" stroke="midnightblue" points="478.115,-153.645 488.419,-151.182 478.828,-146.681 478.115,-153.645"/>
</g>
<!-- Node25 -->
<g id="node25" class="node"><title>Node25</title>
<g id="a_node25"><a xlink:href="../../d0/d94/classgame_engine_1_1_main_engine_manager.html#aea019bc58433d910ea3fadc2139db4ac" target="_top" xlink:title="gameEngine.MainEngineManager.on\lGameLose">
<polygon fill="white" stroke="black" points="499.5,-98 499.5,-128 690.5,-128 690.5,-98 499.5,-98"/>
<text text-anchor="start" x="507.5" y="-116" font-family="Helvetica,sans-Serif" font-size="10.00">gameEngine.MainEngineManager.on</text>
<text text-anchor="middle" x="595" y="-105" font-family="Helvetica,sans-Serif" font-size="10.00">GameLose</text>
</a>
</g>
</g>
<!-- Node2&#45;&gt;Node25 -->
<g id="edge24" class="edge"><title>Node2&#45;&gt;Node25</title>
<path fill="none" stroke="midnightblue" d="M452.064,-126.961C464.307,-125.757 476.825,-124.525 489.107,-123.317"/>
<polygon fill="midnightblue" stroke="midnightblue" points="489.748,-126.771 499.358,-122.309 489.063,-119.805 489.748,-126.771"/>
</g>
<!-- Node4 -->
<g id="node4" class="node"><title>Node4</title>
<g id="a_node4"><a xlink:href="../../db/d6c/classgame_engine_1_1_data_1_1_range_restricted_collection.html#a42ea7db9dded67061a467a111fdc49f4" target="_top" xlink:title="gameEngine.Data.RangeRestricted\lCollection.add">
<polygon fill="white" stroke="black" points="750.5,-49 750.5,-79 933.5,-79 933.5,-49 750.5,-49"/>
<text text-anchor="start" x="758.5" y="-67" font-family="Helvetica,sans-Serif" font-size="10.00">gameEngine.Data.RangeRestricted</text>
<text text-anchor="middle" x="842" y="-56" font-family="Helvetica,sans-Serif" font-size="10.00">Collection.add</text>
</a>
</g>
</g>
<!-- Node3&#45;&gt;Node4 -->
<g id="edge3" class="edge"><title>Node3&#45;&gt;Node4</title>
<path fill="none" stroke="midnightblue" d="M693.534,-64C708.86,-64 724.729,-64 740.128,-64"/>
<polygon fill="midnightblue" stroke="midnightblue" points="740.168,-67.5001 750.168,-64 740.168,-60.5001 740.168,-67.5001"/>
</g>
<!-- Node6 -->
<g id="node6" class="node"><title>Node6</title>
<g id="a_node6"><a xlink:href="../../d0/d94/classgame_engine_1_1_main_engine_manager.html#aabe49b899d0903500a511aaebb40b6ce" target="_top" xlink:title="gameEngine.MainEngineManager.is\lInRangeOfField">
<polygon fill="white" stroke="black" points="749,-269 749,-299 935,-299 935,-269 749,-269"/>
<text text-anchor="start" x="757" y="-287" font-family="Helvetica,sans-Serif" font-size="10.00">gameEngine.MainEngineManager.is</text>
<text text-anchor="middle" x="842" y="-276" font-family="Helvetica,sans-Serif" font-size="10.00">InRangeOfField</text>
</a>
</g>
</g>
<!-- Node5&#45;&gt;Node6 -->
<g id="edge5" class="edge"><title>Node5&#45;&gt;Node6</title>
<path fill="none" stroke="midnightblue" d="M701.324,-273.738C713.685,-274.646 726.285,-275.572 738.605,-276.477"/>
<polygon fill="midnightblue" stroke="midnightblue" points="738.648,-279.99 748.878,-277.232 739.161,-273.008 738.648,-279.99"/>
</g>
<!-- Node7 -->
<g id="node7" class="node"><title>Node7</title>
<g id="a_node7"><a xlink:href="../../d5/d02/classgame_engine_1_1actors_1_1_base_actor.html#a2106e623a36a5683759aff1a392c7686" target="_top" xlink:title="gameEngine.actors.BaseActor.getX">
<polygon fill="white" stroke="black" points="989,-317.5 989,-336.5 1175,-336.5 1175,-317.5 989,-317.5"/>
<text text-anchor="middle" x="1082" y="-324.5" font-family="Helvetica,sans-Serif" font-size="10.00">gameEngine.actors.BaseActor.getX</text>
</a>
</g>
</g>
<!-- Node6&#45;&gt;Node7 -->
<g id="edge6" class="edge"><title>Node6&#45;&gt;Node7</title>
<path fill="none" stroke="midnightblue" d="M926.241,-299.039C956.446,-304.496 990.039,-310.566 1018.19,-315.652"/>
<polygon fill="midnightblue" stroke="midnightblue" points="1017.83,-319.144 1028.3,-317.478 1019.08,-312.255 1017.83,-319.144"/>
</g>
<!-- Node9 -->
<g id="node9" class="node"><title>Node9</title>
<g id="a_node9"><a xlink:href="../../d5/d02/classgame_engine_1_1actors_1_1_base_actor.html#a4e1debba2b998a75964fb8c979cb15e8" target="_top" xlink:title="gameEngine.actors.BaseActor.getY">
<polygon fill="white" stroke="black" points="989.5,-274.5 989.5,-293.5 1174.5,-293.5 1174.5,-274.5 989.5,-274.5"/>
<text text-anchor="middle" x="1082" y="-281.5" font-family="Helvetica,sans-Serif" font-size="10.00">gameEngine.actors.BaseActor.getY</text>
</a>
</g>
</g>
<!-- Node6&#45;&gt;Node9 -->
<g id="edge8" class="edge"><title>Node6&#45;&gt;Node9</title>
<path fill="none" stroke="midnightblue" d="M935.017,-284C949.471,-284 964.486,-284 979.146,-284"/>
<polygon fill="midnightblue" stroke="midnightblue" points="979.228,-287.5 989.228,-284 979.228,-280.5 979.228,-287.5"/>
</g>
<!-- Node8 -->
<g id="node8" class="node"><title>Node8</title>
<g id="a_node8"><a xlink:href="../../dd/df0/classutilities_1_1_java_f_xutilities_1_1image_view_1_1_centered_image_view.html#a063a62060b9b686601364fdbb8b6cd86" target="_top" xlink:title="utilities.JavaFXutilities.image\lView.CenteredImageView.getXCenter">
<polygon fill="white" stroke="black" points="1219,-318 1219,-348 1411,-348 1411,-318 1219,-318"/>
<text text-anchor="start" x="1227" y="-336" font-family="Helvetica,sans-Serif" font-size="10.00">utilities.JavaFXutilities.image</text>
<text text-anchor="middle" x="1315" y="-325" font-family="Helvetica,sans-Serif" font-size="10.00">View.CenteredImageView.getXCenter</text>
</a>
</g>
</g>
<!-- Node7&#45;&gt;Node8 -->
<g id="edge7" class="edge"><title>Node7&#45;&gt;Node8</title>
<path fill="none" stroke="midnightblue" d="M1175.29,-329.397C1186.26,-329.682 1197.52,-329.975 1208.65,-330.264"/>
<polygon fill="midnightblue" stroke="midnightblue" points="1208.74,-333.767 1218.83,-330.528 1208.93,-326.77 1208.74,-333.767"/>
</g>
<!-- Node10 -->
<g id="node10" class="node"><title>Node10</title>
<g id="a_node10"><a xlink:href="../../dd/df0/classutilities_1_1_java_f_xutilities_1_1image_view_1_1_centered_image_view.html#aa05843be4846dc0d9c23489cac21ed3d" target="_top" xlink:title="utilities.JavaFXutilities.image\lView.CenteredImageView.getYCenter">
<polygon fill="white" stroke="black" points="1219.5,-269 1219.5,-299 1410.5,-299 1410.5,-269 1219.5,-269"/>
<text text-anchor="start" x="1227.5" y="-287" font-family="Helvetica,sans-Serif" font-size="10.00">utilities.JavaFXutilities.image</text>
<text text-anchor="middle" x="1315" y="-276" font-family="Helvetica,sans-Serif" font-size="10.00">View.CenteredImageView.getYCenter</text>
</a>
</g>
</g>
<!-- Node9&#45;&gt;Node10 -->
<g id="edge9" class="edge"><title>Node9&#45;&gt;Node10</title>
<path fill="none" stroke="midnightblue" d="M1174.63,-284C1186.03,-284 1197.75,-284 1209.33,-284"/>
<polygon fill="midnightblue" stroke="midnightblue" points="1209.45,-287.5 1219.45,-284 1209.45,-280.5 1209.45,-287.5"/>
</g>
<!-- Node12 -->
<g id="node12" class="node"><title>Node12</title>
<g id="a_node12"><a xlink:href="../../d0/d94/classgame_engine_1_1_main_engine_manager.html#aa097b03bdaa3bfb8795b3575e42b3953" target="_top" xlink:title="gameEngine.MainEngineManager.pause">
<polygon fill="white" stroke="black" points="738,-104.5 738,-123.5 946,-123.5 946,-104.5 738,-104.5"/>
<text text-anchor="middle" x="842" y="-111.5" font-family="Helvetica,sans-Serif" font-size="10.00">gameEngine.MainEngineManager.pause</text>
</a>
</g>
</g>
<!-- Node11&#45;&gt;Node12 -->
<g id="edge11" class="edge"><title>Node11&#45;&gt;Node12</title>
<path fill="none" stroke="midnightblue" d="M683.574,-195.954C690.067,-193.175 696.298,-189.888 702,-186 725.224,-170.165 714.465,-149.37 738,-134 741.836,-131.495 745.912,-129.289 750.144,-127.348"/>
<polygon fill="midnightblue" stroke="midnightblue" points="751.671,-130.506 759.625,-123.508 749.043,-124.018 751.671,-130.506"/>
</g>
<!-- Node13 -->
<g id="node13" class="node"><title>Node13</title>
<g id="a_node13"><a xlink:href="../../db/d6c/classgame_engine_1_1_data_1_1_range_restricted_collection.html#a63366f841f48e7cf54b8408d81bc9fff" target="_top" xlink:title="gameEngine.Data.RangeRestricted\lCollection.clear">
<polygon fill="white" stroke="black" points="750.5,-144 750.5,-174 933.5,-174 933.5,-144 750.5,-144"/>
<text text-anchor="start" x="758.5" y="-162" font-family="Helvetica,sans-Serif" font-size="10.00">gameEngine.Data.RangeRestricted</text>
<text text-anchor="middle" x="842" y="-151" font-family="Helvetica,sans-Serif" font-size="10.00">Collection.clear</text>
</a>
</g>
</g>
<!-- Node11&#45;&gt;Node13 -->
<g id="edge12" class="edge"><title>Node11&#45;&gt;Node13</title>
<path fill="none" stroke="midnightblue" d="M666.864,-195.959C696.067,-189.761 730.063,-182.546 760.225,-176.144"/>
<polygon fill="midnightblue" stroke="midnightblue" points="761.24,-179.507 770.295,-174.007 759.786,-172.659 761.24,-179.507"/>
</g>
<!-- Node14 -->
<g id="node14" class="node"><title>Node14</title>
<g id="a_node14"><a xlink:href="../../d0/d94/classgame_engine_1_1_main_engine_manager.html#ac87a53b1ff4fa7c2f32846ad7d2f140b" target="_top" xlink:title="gameEngine.MainEngineManager.load\lNextLevel">
<polygon fill="white" stroke="black" points="742.5,-195 742.5,-225 941.5,-225 941.5,-195 742.5,-195"/>
<text text-anchor="start" x="750.5" y="-213" font-family="Helvetica,sans-Serif" font-size="10.00">gameEngine.MainEngineManager.load</text>
<text text-anchor="middle" x="842" y="-202" font-family="Helvetica,sans-Serif" font-size="10.00">NextLevel</text>
</a>
</g>
</g>
<!-- Node11&#45;&gt;Node14 -->
<g id="edge13" class="edge"><title>Node11&#45;&gt;Node14</title>
<path fill="none" stroke="midnightblue" d="M690.723,-210.613C704.376,-210.558 718.515,-210.5 732.411,-210.443"/>
<polygon fill="midnightblue" stroke="midnightblue" points="732.491,-213.943 742.477,-210.402 732.463,-206.943 732.491,-213.943"/>
</g>
<!-- Node15 -->
<g id="node15" class="node"><title>Node15</title>
<g id="a_node15"><a xlink:href="../../d0/d94/classgame_engine_1_1_main_engine_manager.html#a9730cb1b41966ae46599b3c5ee2b670d" target="_top" xlink:title="gameEngine.MainEngineManager.load\lLevel">
<polygon fill="white" stroke="black" points="982.5,-186 982.5,-216 1181.5,-216 1181.5,-186 982.5,-186"/>
<text text-anchor="start" x="990.5" y="-204" font-family="Helvetica,sans-Serif" font-size="10.00">gameEngine.MainEngineManager.load</text>
<text text-anchor="middle" x="1082" y="-193" font-family="Helvetica,sans-Serif" font-size="10.00">Level</text>
</a>
</g>
</g>
<!-- Node14&#45;&gt;Node15 -->
<g id="edge14" class="edge"><title>Node14&#45;&gt;Node15</title>
<path fill="none" stroke="midnightblue" d="M941.522,-206.274C951.592,-205.894 961.865,-205.505 972.039,-205.12"/>
<polygon fill="midnightblue" stroke="midnightblue" points="972.308,-208.613 982.168,-204.737 972.043,-201.618 972.308,-208.613"/>
</g>
<!-- Node16 -->
<g id="node16" class="node"><title>Node16</title>
<g id="a_node16"><a xlink:href="../../da/dc8/classgame_engine_1_1levels_1_1_base_level.html#a10e08749157dcd85085d053a952503db" target="_top" xlink:title="gameEngine.levels.BaseLevel.get\lDuration">
<polygon fill="white" stroke="black" points="1226.5,-181 1226.5,-211 1403.5,-211 1403.5,-181 1226.5,-181"/>
<text text-anchor="start" x="1234.5" y="-199" font-family="Helvetica,sans-Serif" font-size="10.00">gameEngine.levels.BaseLevel.get</text>
<text text-anchor="middle" x="1315" y="-188" font-family="Helvetica,sans-Serif" font-size="10.00">Duration</text>
</a>
</g>
</g>
<!-- Node15&#45;&gt;Node16 -->
<g id="edge15" class="edge"><title>Node15&#45;&gt;Node16</title>
<path fill="none" stroke="midnightblue" d="M1181.63,-198.865C1193.11,-198.617 1204.81,-198.363 1216.28,-198.115"/>
<polygon fill="midnightblue" stroke="midnightblue" points="1216.36,-201.614 1226.28,-197.899 1216.21,-194.616 1216.36,-201.614"/>
</g>
<!-- Node17 -->
<g id="node17" class="node"><title>Node17</title>
<g id="a_node17"><a xlink:href="../../da/dc8/classgame_engine_1_1levels_1_1_base_level.html#afc3aa5d464c27391506590a989fc0c02" target="_top" xlink:title="gameEngine.levels.BaseLevel.get\lEnemyCountPairs">
<polygon fill="white" stroke="black" points="1226.5,-132 1226.5,-162 1403.5,-162 1403.5,-132 1226.5,-132"/>
<text text-anchor="start" x="1234.5" y="-150" font-family="Helvetica,sans-Serif" font-size="10.00">gameEngine.levels.BaseLevel.get</text>
<text text-anchor="middle" x="1315" y="-139" font-family="Helvetica,sans-Serif" font-size="10.00">EnemyCountPairs</text>
</a>
</g>
</g>
<!-- Node15&#45;&gt;Node17 -->
<g id="edge16" class="edge"><title>Node15&#45;&gt;Node17</title>
<path fill="none" stroke="midnightblue" d="M1147.35,-185.958C1176.01,-179.257 1209.95,-171.324 1239.69,-164.372"/>
<polygon fill="midnightblue" stroke="midnightblue" points="1240.66,-167.739 1249.6,-162.055 1239.06,-160.923 1240.66,-167.739"/>
</g>
<!-- Node18 -->
<g id="node18" class="node"><title>Node18</title>
<g id="a_node18"><a xlink:href="../../d4/d81/classgame_engine_1_1actors_1_1_base_enemy.html#adb93973e4e8e4da347747801642fcaf2" target="_top" xlink:title="gameEngine.actors.BaseEnemy.copy">
<polygon fill="white" stroke="black" points="1218,-230.5 1218,-249.5 1412,-249.5 1412,-230.5 1218,-230.5"/>
<text text-anchor="middle" x="1315" y="-237.5" font-family="Helvetica,sans-Serif" font-size="10.00">gameEngine.actors.BaseEnemy.copy</text>
</a>
</g>
</g>
<!-- Node15&#45;&gt;Node18 -->
<g id="edge17" class="edge"><title>Node15&#45;&gt;Node18</title>
<path fill="none" stroke="midnightblue" d="M1171.98,-216.023C1197.11,-220.266 1224.02,-224.808 1247.58,-228.786"/>
<polygon fill="midnightblue" stroke="midnightblue" points="1247.01,-232.239 1257.45,-230.453 1248.18,-225.337 1247.01,-232.239"/>
</g>
<!-- Node19 -->
<g id="node19" class="node"><title>Node19</title>
<g id="a_node19"><a xlink:href="../../d5/d02/classgame_engine_1_1actors_1_1_base_actor.html#a7feb699c5d4dc6ca8588beacc5567eff" target="_top" xlink:title="gameEngine.actors.BaseActor.copy\lBehaviors">
<polygon fill="white" stroke="black" points="1457.5,-274 1457.5,-304 1644.5,-304 1644.5,-274 1457.5,-274"/>
<text text-anchor="start" x="1465.5" y="-292" font-family="Helvetica,sans-Serif" font-size="10.00">gameEngine.actors.BaseActor.copy</text>
<text text-anchor="middle" x="1551" y="-281" font-family="Helvetica,sans-Serif" font-size="10.00">Behaviors</text>
</a>
</g>
</g>
<!-- Node18&#45;&gt;Node19 -->
<g id="edge18" class="edge"><title>Node18&#45;&gt;Node19</title>
<path fill="none" stroke="midnightblue" d="M1365.37,-249.587C1380.36,-252.547 1396.86,-255.857 1412,-259 1431.51,-263.051 1452.54,-267.553 1472.16,-271.812"/>
<polygon fill="midnightblue" stroke="midnightblue" points="1471.45,-275.24 1481.97,-273.946 1472.94,-268.4 1471.45,-275.24"/>
</g>
<!-- Node20 -->
<g id="node20" class="node"><title>Node20</title>
<g id="a_node20"><a xlink:href="../../d4/d81/classgame_engine_1_1actors_1_1_base_enemy.html#a67818ce6171fda1624ab7e1d27dc3efe" target="_top" xlink:title="gameEngine.actors.BaseEnemy.\lBaseEnemy">
<polygon fill="white" stroke="black" points="1465.5,-225 1465.5,-255 1636.5,-255 1636.5,-225 1465.5,-225"/>
<text text-anchor="start" x="1473.5" y="-243" font-family="Helvetica,sans-Serif" font-size="10.00">gameEngine.actors.BaseEnemy.</text>
<text text-anchor="middle" x="1551" y="-232" font-family="Helvetica,sans-Serif" font-size="10.00">BaseEnemy</text>
</a>
</g>
</g>
<!-- Node18&#45;&gt;Node20 -->
<g id="edge19" class="edge"><title>Node18&#45;&gt;Node20</title>
<path fill="none" stroke="midnightblue" d="M1412.19,-240C1426.39,-240 1441.01,-240 1455.19,-240"/>
<polygon fill="midnightblue" stroke="midnightblue" points="1455.41,-243.5 1465.41,-240 1455.41,-236.5 1455.41,-243.5"/>
</g>
<!-- Node23 -->
<g id="node23" class="node"><title>Node23</title>
<g id="a_node23"><a xlink:href="../../d5/d02/classgame_engine_1_1actors_1_1_base_actor.html#ae877e5334153c4e125fb84bf993587af" target="_top" xlink:title="gameEngine.actors.BaseActor.getNode">
<polygon fill="white" stroke="black" points="1448,-186.5 1448,-205.5 1654,-205.5 1654,-186.5 1448,-186.5"/>
<text text-anchor="middle" x="1551" y="-193.5" font-family="Helvetica,sans-Serif" font-size="10.00">gameEngine.actors.BaseActor.getNode</text>
</a>
</g>
</g>
<!-- Node18&#45;&gt;Node23 -->
<g id="edge22" class="edge"><title>Node18&#45;&gt;Node23</title>
<path fill="none" stroke="midnightblue" d="M1366.14,-230.467C1390.79,-225.789 1420.95,-220.081 1448,-215 1461.12,-212.536 1475.19,-209.906 1488.56,-207.413"/>
<polygon fill="midnightblue" stroke="midnightblue" points="1489.44,-210.811 1498.63,-205.538 1488.16,-203.929 1489.44,-210.811"/>
</g>
<!-- Node21 -->
<g id="node21" class="node"><title>Node21</title>
<g id="a_node21"><a xlink:href="../../d4/d81/classgame_engine_1_1actors_1_1_base_enemy.html#a41db5e3bf03c06bd5b17abbe8b82e5e2" target="_top" xlink:title="gameEngine.actors.BaseEnemy.initialize\lEnemy">
<polygon fill="white" stroke="black" points="1690.5,-225 1690.5,-255 1899.5,-255 1899.5,-225 1690.5,-225"/>
<text text-anchor="start" x="1698.5" y="-243" font-family="Helvetica,sans-Serif" font-size="10.00">gameEngine.actors.BaseEnemy.initialize</text>
<text text-anchor="middle" x="1795" y="-232" font-family="Helvetica,sans-Serif" font-size="10.00">Enemy</text>
</a>
</g>
</g>
<!-- Node20&#45;&gt;Node21 -->
<g id="edge20" class="edge"><title>Node20&#45;&gt;Node21</title>
<path fill="none" stroke="midnightblue" d="M1636.64,-240C1650.7,-240 1665.49,-240 1680.14,-240"/>
<polygon fill="midnightblue" stroke="midnightblue" points="1680.25,-243.5 1690.25,-240 1680.25,-236.5 1680.25,-243.5"/>
</g>
<!-- Node22 -->
<g id="node22" class="node"><title>Node22</title>
<g id="a_node22"><a xlink:href="../../d0/d61/classgame_authoring_1_1scenes_1_1path_building_1_1path_components_1_1route_to_point_translation_1_1_backend_route.html#a4decf5451f724697b0b0ba60cd230f6f" target="_top" xlink:title="gameAuthoring.scenes.path\lBuilding.pathComponents.routeTo\lPointTranslation.BackendRoute.getPoints">
<polygon fill="white" stroke="black" points="1936.5,-219.5 1936.5,-260.5 2147.5,-260.5 2147.5,-219.5 1936.5,-219.5"/>
<text text-anchor="start" x="1944.5" y="-248.5" font-family="Helvetica,sans-Serif" font-size="10.00">gameAuthoring.scenes.path</text>
<text text-anchor="start" x="1944.5" y="-237.5" font-family="Helvetica,sans-Serif" font-size="10.00">Building.pathComponents.routeTo</text>
<text text-anchor="middle" x="2042" y="-226.5" font-family="Helvetica,sans-Serif" font-size="10.00">PointTranslation.BackendRoute.getPoints</text>
</a>
</g>
</g>
<!-- Node21&#45;&gt;Node22 -->
<g id="edge21" class="edge"><title>Node21&#45;&gt;Node22</title>
<path fill="none" stroke="midnightblue" d="M1899.55,-240C1908.37,-240 1917.33,-240 1926.23,-240"/>
<polygon fill="midnightblue" stroke="midnightblue" points="1926.25,-243.5 1936.25,-240 1926.25,-236.5 1926.25,-243.5"/>
</g>
<!-- Node25&#45;&gt;Node12 -->
<g id="edge26" class="edge"><title>Node25&#45;&gt;Node12</title>
<path fill="none" stroke="midnightblue" d="M690.723,-113.387C702.821,-113.436 715.301,-113.487 727.655,-113.537"/>
<polygon fill="midnightblue" stroke="midnightblue" points="727.978,-117.039 737.992,-113.58 728.007,-110.039 727.978,-117.039"/>
</g>
<!-- Node25&#45;&gt;Node13 -->
<g id="edge25" class="edge"><title>Node25&#45;&gt;Node13</title>
<path fill="none" stroke="midnightblue" d="M676.222,-128.062C700.14,-132.553 726.509,-137.504 751.008,-142.104"/>
<polygon fill="midnightblue" stroke="midnightblue" points="750.542,-145.577 761.016,-143.983 751.834,-138.697 750.542,-145.577"/>
</g>
<!-- Node27 -->
<g id="node27" class="node"><title>Node27</title>
<g id="a_node27"><a xlink:href="../../da/df9/classgame_engine_1_1_data_1_1_tower_tile_grid.html#a2bcbce6f5009d9adf2d13bc540c36a52" target="_top" xlink:title="gameEngine.Data.TowerTile\lGrid.setChangedStatus">
<polygon fill="white" stroke="black" points="521,-0 521,-30 669,-30 669,-0 521,-0"/>
<text text-anchor="start" x="529" y="-18" font-family="Helvetica,sans-Serif" font-size="10.00">gameEngine.Data.TowerTile</text>
<text text-anchor="middle" x="595" y="-7" font-family="Helvetica,sans-Serif" font-size="10.00">Grid.setChangedStatus</text>
</a>
</g>
</g>
<!-- Node26&#45;&gt;Node27 -->
<g id="edge28" class="edge"><title>Node26&#45;&gt;Node27</title>
<path fill="none" stroke="midnightblue" d="M423.208,-49.2984C450.833,-43.7507 482.455,-37.4005 510.919,-31.6843"/>
<polygon fill="midnightblue" stroke="midnightblue" points="511.728,-35.0917 520.844,-29.6912 510.35,-28.2287 511.728,-35.0917"/>
</g>
</g>
</svg>
