<?xml version="1.0" encoding="UTF-8" standalone="no"?>
<!DOCTYPE svg PUBLIC "-//W3C//DTD SVG 1.1//EN"
 "http://www.w3.org/Graphics/SVG/1.1/DTD/svg11.dtd">
<!-- Generated by graphviz version 2.36.0 (20140111.2315)
 -->
<!-- Title: gameEngine.MainEngineManager.addGroups Pages: 1 -->
<svg width="1440pt" height="236pt"
 viewBox="0.00 0.00 1440.00 236.00" xmlns="http://www.w3.org/2000/svg" xmlns:xlink="http://www.w3.org/1999/xlink">
<g id="graph0" class="graph" transform="scale(1 1) rotate(0) translate(4 232)">
<title>gameEngine.MainEngineManager.addGroups</title>
<polygon fill="white" stroke="none" points="-4,4 -4,-232 1436,-232 1436,4 -4,4"/>
<!-- Node1 -->
<g id="node1" class="node"><title>Node1</title>
<polygon fill="#bfbfbf" stroke="black" points="0.5,-71 0.5,-101 197.5,-101 197.5,-71 0.5,-71"/>
<text text-anchor="start" x="8.5" y="-89" font-family="Helvetica,sans-Serif" font-size="10.00">gameEngine.MainEngineManager.add</text>
<text text-anchor="middle" x="99" y="-78" font-family="Helvetica,sans-Serif" font-size="10.00">Groups</text>
</g>
<!-- Node2 -->
<g id="node2" class="node"><title>Node2</title>
<g id="a_node2"><a xlink:href="../../d4/d66/classgame_engine_1_1_co_op_manager.html#af6188fa0b89fef3dea97e3ce873b883e" target="_top" xlink:title="gameEngine.CoOpManager.initializeGame">
<polygon fill="white" stroke="black" points="234,-98.5 234,-117.5 452,-117.5 452,-98.5 234,-98.5"/>
<text text-anchor="middle" x="343" y="-105.5" font-family="Helvetica,sans-Serif" font-size="10.00">gameEngine.CoOpManager.initializeGame</text>
</a>
</g>
</g>
<!-- Node1&#45;&gt;Node2 -->
<g id="edge1" class="edge"><title>Node1&#45;&gt;Node2</title>
<path fill="none" stroke="midnightblue" d="M207.841,-95.8037C217.591,-96.6901 227.456,-97.5869 237.179,-98.4708"/>
<polygon fill="midnightblue" stroke="midnightblue" points="208.009,-92.3046 197.733,-94.8848 207.375,-99.2759 208.009,-92.3046"/>
</g>
<!-- Node15 -->
<g id="node15" class="node"><title>Node15</title>
<g id="a_node15"><a xlink:href="../../d0/d94/classgame_engine_1_1_main_engine_manager.html#ab7acc601d996e1a4b30bdfffecca7cc6" target="_top" xlink:title="gameEngine.MainEngineManager.\lMainEngineManager">
<polygon fill="white" stroke="black" points="253.5,-49 253.5,-79 432.5,-79 432.5,-49 253.5,-49"/>
<text text-anchor="start" x="261.5" y="-67" font-family="Helvetica,sans-Serif" font-size="10.00">gameEngine.MainEngineManager.</text>
<text text-anchor="middle" x="343" y="-56" font-family="Helvetica,sans-Serif" font-size="10.00">MainEngineManager</text>
</a>
</g>
</g>
<!-- Node1&#45;&gt;Node15 -->
<g id="edge14" class="edge"><title>Node1&#45;&gt;Node15</title>
<path fill="none" stroke="midnightblue" d="M207.695,-76.2096C222.932,-74.8244 238.454,-73.4133 253.278,-72.0656"/>
<polygon fill="midnightblue" stroke="midnightblue" points="207.375,-72.7241 197.733,-77.1152 208.009,-79.6954 207.375,-72.7241"/>
</g>
<!-- Node3 -->
<g id="node3" class="node"><title>Node3</title>
<g id="a_node3"><a xlink:href="../../da/d69/classgame_player_1_1main_classes_1_1managers_1_1_gui_manager.html#aa0b614e03bdec959e13e3d5ca2e1f614" target="_top" xlink:title="gamePlayer.mainClasses.managers.\lGuiManager.startMultiPlayerGame">
<polygon fill="white" stroke="black" points="488.5,-93 488.5,-123 679.5,-123 679.5,-93 488.5,-93"/>
<text text-anchor="start" x="496.5" y="-111" font-family="Helvetica,sans-Serif" font-size="10.00">gamePlayer.mainClasses.managers.</text>
<text text-anchor="middle" x="584" y="-100" font-family="Helvetica,sans-Serif" font-size="10.00">GuiManager.startMultiPlayerGame</text>
</a>
</g>
</g>
<!-- Node2&#45;&gt;Node3 -->
<g id="edge2" class="edge"><title>Node2&#45;&gt;Node3</title>
<path fill="none" stroke="midnightblue" d="M462.445,-108C471.089,-108 479.741,-108 488.219,-108"/>
<polygon fill="midnightblue" stroke="midnightblue" points="462.311,-104.5 452.311,-108 462.311,-111.5 462.311,-104.5"/>
</g>
<!-- Node4 -->
<g id="node4" class="node"><title>Node4</title>
<g id="a_node4"><a xlink:href="../../da/d69/classgame_player_1_1main_classes_1_1managers_1_1_gui_manager.html#ad50f462f8d45a5bbfc8a17290372a1ab" target="_top" xlink:title="gamePlayer.mainClasses.managers.\lGuiManager.joinMultiPlayerGame">
<polygon fill="white" stroke="black" points="730.5,-169 730.5,-199 921.5,-199 921.5,-169 730.5,-169"/>
<text text-anchor="start" x="738.5" y="-187" font-family="Helvetica,sans-Serif" font-size="10.00">gamePlayer.mainClasses.managers.</text>
<text text-anchor="middle" x="826" y="-176" font-family="Helvetica,sans-Serif" font-size="10.00">GuiManager.joinMultiPlayerGame</text>
</a>
</g>
</g>
<!-- Node3&#45;&gt;Node4 -->
<g id="edge3" class="edge"><title>Node3&#45;&gt;Node4</title>
<path fill="none" stroke="midnightblue" d="M628.818,-126.907C654.004,-137.306 686.42,-149.903 716,-159 727.784,-162.624 740.428,-165.988 752.781,-168.999"/>
<polygon fill="midnightblue" stroke="midnightblue" points="630.117,-123.657 619.54,-123.042 627.425,-130.119 630.117,-123.657"/>
</g>
<!-- Node8 -->
<g id="node8" class="node"><title>Node8</title>
<g id="a_node8"><a xlink:href="../../da/d69/classgame_player_1_1main_classes_1_1managers_1_1_gui_manager.html#a3f657f0e3ba1e493d2dd02b5df5e03f6" target="_top" xlink:title="gamePlayer.mainClasses.managers.\lGuiManager.replayGame">
<polygon fill="white" stroke="black" points="730.5,-120 730.5,-150 921.5,-150 921.5,-120 730.5,-120"/>
<text text-anchor="start" x="738.5" y="-138" font-family="Helvetica,sans-Serif" font-size="10.00">gamePlayer.mainClasses.managers.</text>
<text text-anchor="middle" x="826" y="-127" font-family="Helvetica,sans-Serif" font-size="10.00">GuiManager.replayGame</text>
</a>
</g>
</g>
<!-- Node3&#45;&gt;Node8 -->
<g id="edge7" class="edge"><title>Node3&#45;&gt;Node8</title>
<path fill="none" stroke="midnightblue" d="M689.735,-119.783C703.188,-121.296 716.901,-122.839 730.183,-124.333"/>
<polygon fill="midnightblue" stroke="midnightblue" points="689.838,-116.272 679.51,-118.632 689.056,-123.228 689.838,-116.272"/>
</g>
<!-- Node9 -->
<g id="node9" class="node"><title>Node9</title>
<g id="a_node9"><a xlink:href="../../d4/d3f/classgame_player_1_1main_classes_1_1managers_1_1_welcome_manager.html#a55598dd2973b0a9b979151dd60c9e436" target="_top" xlink:title="gamePlayer.mainClasses.managers.\lWelcomeManager.pollEngineForMultiPlayer\lReadiness">
<polygon fill="white" stroke="black" points="716.5,-60.5 716.5,-101.5 935.5,-101.5 935.5,-60.5 716.5,-60.5"/>
<text text-anchor="start" x="724.5" y="-89.5" font-family="Helvetica,sans-Serif" font-size="10.00">gamePlayer.mainClasses.managers.</text>
<text text-anchor="start" x="724.5" y="-78.5" font-family="Helvetica,sans-Serif" font-size="10.00">WelcomeManager.pollEngineForMultiPlayer</text>
<text text-anchor="middle" x="826" y="-67.5" font-family="Helvetica,sans-Serif" font-size="10.00">Readiness</text>
</a>
</g>
</g>
<!-- Node3&#45;&gt;Node9 -->
<g id="edge8" class="edge"><title>Node3&#45;&gt;Node9</title>
<path fill="none" stroke="midnightblue" d="M689.48,-96.246C698.363,-95.2467 707.362,-94.2343 716.276,-93.2314"/>
<polygon fill="midnightblue" stroke="midnightblue" points="689.056,-92.7715 679.51,-97.3676 689.838,-99.7277 689.056,-92.7715"/>
</g>
<!-- Node12 -->
<g id="node12" class="node"><title>Node12</title>
<g id="a_node12"><a xlink:href="../../d3/dee/classgame_player_1_1main_classes_1_1welcome_screen_1_1_game_start_manager.html#a5d5001d1ee14ae57deef01f6e3ddde31" target="_top" xlink:title="gamePlayer.mainClasses.welcome\lScreen.GameStartManager.pollEngine\lForMultiPlayerReadiness">
<polygon fill="white" stroke="black" points="726,-0.5 726,-41.5 926,-41.5 926,-0.5 726,-0.5"/>
<text text-anchor="start" x="734" y="-29.5" font-family="Helvetica,sans-Serif" font-size="10.00">gamePlayer.mainClasses.welcome</text>
<text text-anchor="start" x="734" y="-18.5" font-family="Helvetica,sans-Serif" font-size="10.00">Screen.GameStartManager.pollEngine</text>
<text text-anchor="middle" x="826" y="-7.5" font-family="Helvetica,sans-Serif" font-size="10.00">ForMultiPlayerReadiness</text>
</a>
</g>
</g>
<!-- Node3&#45;&gt;Node12 -->
<g id="edge11" class="edge"><title>Node3&#45;&gt;Node12</title>
<path fill="none" stroke="midnightblue" d="M625.632,-88.5418C651.203,-76.7436 685.101,-61.9126 716,-51 725.346,-47.6993 735.246,-44.5334 745.119,-41.5776"/>
<polygon fill="midnightblue" stroke="midnightblue" points="623.853,-85.509 616.263,-92.9006 626.806,-91.8558 623.853,-85.509"/>
</g>
<!-- Node5 -->
<g id="node5" class="node"><title>Node5</title>
<g id="a_node5"><a xlink:href="../../d4/d3f/classgame_player_1_1main_classes_1_1managers_1_1_welcome_manager.html#a71a2a80cfe9d3a07d7becc506178acfd" target="_top" xlink:title="gamePlayer.mainClasses.managers.\lWelcomeManager.joinMultiPlayerGame">
<polygon fill="white" stroke="black" points="975.5,-198 975.5,-228 1176.5,-228 1176.5,-198 975.5,-198"/>
<text text-anchor="start" x="983.5" y="-216" font-family="Helvetica,sans-Serif" font-size="10.00">gamePlayer.mainClasses.managers.</text>
<text text-anchor="middle" x="1076" y="-205" font-family="Helvetica,sans-Serif" font-size="10.00">WelcomeManager.joinMultiPlayerGame</text>
</a>
</g>
</g>
<!-- Node4&#45;&gt;Node5 -->
<g id="edge4" class="edge"><title>Node4&#45;&gt;Node5</title>
<path fill="none" stroke="midnightblue" d="M932.158,-196.297C946.455,-197.969 961.094,-199.68 975.29,-201.34"/>
<polygon fill="midnightblue" stroke="midnightblue" points="932.159,-192.773 921.82,-195.088 931.346,-199.726 932.159,-192.773"/>
</g>
<!-- Node7 -->
<g id="node7" class="node"><title>Node7</title>
<g id="a_node7"><a xlink:href="../../d3/dee/classgame_player_1_1main_classes_1_1welcome_screen_1_1_game_start_manager.html#a7465850240e12e23aec544dbfd08f6a0" target="_top" xlink:title="gamePlayer.mainClasses.welcome\lScreen.GameStartManager.joinMulti\lPlayerGame">
<polygon fill="white" stroke="black" points="981,-138.5 981,-179.5 1171,-179.5 1171,-138.5 981,-138.5"/>
<text text-anchor="start" x="989" y="-167.5" font-family="Helvetica,sans-Serif" font-size="10.00">gamePlayer.mainClasses.welcome</text>
<text text-anchor="start" x="989" y="-156.5" font-family="Helvetica,sans-Serif" font-size="10.00">Screen.GameStartManager.joinMulti</text>
<text text-anchor="middle" x="1076" y="-145.5" font-family="Helvetica,sans-Serif" font-size="10.00">PlayerGame</text>
</a>
</g>
</g>
<!-- Node4&#45;&gt;Node7 -->
<g id="edge6" class="edge"><title>Node4&#45;&gt;Node7</title>
<path fill="none" stroke="midnightblue" d="M931.839,-173.432C948.041,-171.798 964.69,-170.12 980.643,-168.512"/>
<polygon fill="midnightblue" stroke="midnightblue" points="931.418,-169.956 921.82,-174.442 932.12,-176.921 931.418,-169.956"/>
</g>
<!-- Node6 -->
<g id="node6" class="node"><title>Node6</title>
<g id="a_node6"><a xlink:href="../../d4/d3f/classgame_player_1_1main_classes_1_1managers_1_1_welcome_manager.html#aa605746e09c481b225463d37a82427e3" target="_top" xlink:title="gamePlayer.mainClasses.managers.\lWelcomeManager.startMultiPlayerOptions">
<polygon fill="white" stroke="black" points="1216.5,-198 1216.5,-228 1431.5,-228 1431.5,-198 1216.5,-198"/>
<text text-anchor="start" x="1224.5" y="-216" font-family="Helvetica,sans-Serif" font-size="10.00">gamePlayer.mainClasses.managers.</text>
<text text-anchor="middle" x="1324" y="-205" font-family="Helvetica,sans-Serif" font-size="10.00">WelcomeManager.startMultiPlayerOptions</text>
</a>
</g>
</g>
<!-- Node5&#45;&gt;Node6 -->
<g id="edge5" class="edge"><title>Node5&#45;&gt;Node6</title>
<path fill="none" stroke="midnightblue" d="M1186.86,-213C1196.66,-213 1206.56,-213 1216.33,-213"/>
<polygon fill="midnightblue" stroke="midnightblue" points="1186.7,-209.5 1176.7,-213 1186.7,-216.5 1186.7,-209.5"/>
</g>
<!-- Node10 -->
<g id="node10" class="node"><title>Node10</title>
<g id="a_node10"><a xlink:href="../../d4/d3f/classgame_player_1_1main_classes_1_1managers_1_1_welcome_manager.html#a0669db103a94675dce875042258da508" target="_top" xlink:title="gamePlayer.mainClasses.managers.\lWelcomeManager.startMultiPlayerGame">
<polygon fill="white" stroke="black" points="972.5,-66 972.5,-96 1179.5,-96 1179.5,-66 972.5,-66"/>
<text text-anchor="start" x="980.5" y="-84" font-family="Helvetica,sans-Serif" font-size="10.00">gamePlayer.mainClasses.managers.</text>
<text text-anchor="middle" x="1076" y="-73" font-family="Helvetica,sans-Serif" font-size="10.00">WelcomeManager.startMultiPlayerGame</text>
</a>
</g>
</g>
<!-- Node9&#45;&gt;Node10 -->
<g id="edge9" class="edge"><title>Node9&#45;&gt;Node10</title>
<path fill="none" stroke="midnightblue" d="M946.025,-81C954.777,-81 963.562,-81 972.206,-81"/>
<polygon fill="midnightblue" stroke="midnightblue" points="945.776,-77.5001 935.776,-81 945.776,-84.5001 945.776,-77.5001"/>
</g>
<!-- Node11 -->
<g id="node11" class="node"><title>Node11</title>
<g id="a_node11"><a xlink:href="../../d4/d3f/classgame_player_1_1main_classes_1_1managers_1_1_welcome_manager.html#ae6495396aef63551116c0835c40574e1" target="_top" xlink:title="gamePlayer.mainClasses.managers.\lWelcomeManager.startGame">
<polygon fill="white" stroke="black" points="1228.5,-66 1228.5,-96 1419.5,-96 1419.5,-66 1228.5,-66"/>
<text text-anchor="start" x="1236.5" y="-84" font-family="Helvetica,sans-Serif" font-size="10.00">gamePlayer.mainClasses.managers.</text>
<text text-anchor="middle" x="1324" y="-73" font-family="Helvetica,sans-Serif" font-size="10.00">WelcomeManager.startGame</text>
</a>
</g>
</g>
<!-- Node10&#45;&gt;Node11 -->
<g id="edge10" class="edge"><title>Node10&#45;&gt;Node11</title>
<path fill="none" stroke="midnightblue" d="M1189.86,-81C1202.78,-81 1215.84,-81 1228.49,-81"/>
<polygon fill="midnightblue" stroke="midnightblue" points="1189.54,-77.5001 1179.54,-81 1189.54,-84.5001 1189.54,-77.5001"/>
</g>
<!-- Node13 -->
<g id="node13" class="node"><title>Node13</title>
<g id="a_node13"><a xlink:href="../../d3/dee/classgame_player_1_1main_classes_1_1welcome_screen_1_1_game_start_manager.html#a994c29260d6cb90abf19dca2b3463b6a" target="_top" xlink:title="gamePlayer.mainClasses.welcome\lScreen.GameStartManager.startMulti\lPlayerGame">
<polygon fill="white" stroke="black" points="978,-0.5 978,-41.5 1174,-41.5 1174,-0.5 978,-0.5"/>
<text text-anchor="start" x="986" y="-29.5" font-family="Helvetica,sans-Serif" font-size="10.00">gamePlayer.mainClasses.welcome</text>
<text text-anchor="start" x="986" y="-18.5" font-family="Helvetica,sans-Serif" font-size="10.00">Screen.GameStartManager.startMulti</text>
<text text-anchor="middle" x="1076" y="-7.5" font-family="Helvetica,sans-Serif" font-size="10.00">PlayerGame</text>
</a>
</g>
</g>
<!-- Node12&#45;&gt;Node13 -->
<g id="edge12" class="edge"><title>Node12&#45;&gt;Node13</title>
<path fill="none" stroke="midnightblue" d="M936.111,-21C949.953,-21 964.047,-21 977.689,-21"/>
<polygon fill="midnightblue" stroke="midnightblue" points="936.085,-17.5001 926.085,-21 936.085,-24.5001 936.085,-17.5001"/>
</g>
<!-- Node14 -->
<g id="node14" class="node"><title>Node14</title>
<g id="a_node14"><a xlink:href="../../d3/dee/classgame_player_1_1main_classes_1_1welcome_screen_1_1_game_start_manager.html#a4ac849399bf00c6df86f0db25ea95ed8" target="_top" xlink:title="gamePlayer.mainClasses.welcome\lScreen.GameStartManager.startGame">
<polygon fill="white" stroke="black" points="1222.5,-6 1222.5,-36 1425.5,-36 1425.5,-6 1222.5,-6"/>
<text text-anchor="start" x="1230.5" y="-24" font-family="Helvetica,sans-Serif" font-size="10.00">gamePlayer.mainClasses.welcome</text>
<text text-anchor="middle" x="1324" y="-13" font-family="Helvetica,sans-Serif" font-size="10.00">Screen.GameStartManager.startGame</text>
</a>
</g>
</g>
<!-- Node13&#45;&gt;Node14 -->
<g id="edge13" class="edge"><title>Node13&#45;&gt;Node14</title>
<path fill="none" stroke="midnightblue" d="M1184.32,-21C1196.99,-21 1209.88,-21 1222.44,-21"/>
<polygon fill="midnightblue" stroke="midnightblue" points="1184.23,-17.5001 1174.23,-21 1184.23,-24.5001 1184.23,-17.5001"/>
</g>
</g>
</svg>
