<?xml version="1.0" encoding="UTF-8" standalone="no"?>
<!DOCTYPE svg PUBLIC "-//W3C//DTD SVG 1.1//EN"
 "http://www.w3.org/Graphics/SVG/1.1/DTD/svg11.dtd">
<!-- Generated by graphviz version 2.36.0 (20140111.2315)
 -->
<!-- Title: gameEngine.MainEngineManager.isInRangeOfField Pages: 1 -->
<svg width="644pt" height="87pt"
 viewBox="0.00 0.00 644.00 87.00" xmlns="http://www.w3.org/2000/svg" xmlns:xlink="http://www.w3.org/1999/xlink">
<g id="graph0" class="graph" transform="scale(1 1) rotate(0) translate(4 83)">
<title>gameEngine.MainEngineManager.isInRangeOfField</title>
<polygon fill="white" stroke="none" points="-4,4 -4,-83 640,-83 640,4 -4,4"/>
<!-- Node1 -->
<g id="node1" class="node"><title>Node1</title>
<polygon fill="#bfbfbf" stroke="black" points="0,-25 0,-55 186,-55 186,-25 0,-25"/>
<text text-anchor="start" x="8" y="-43" font-family="Helvetica,sans-Serif" font-size="10.00">gameEngine.MainEngineManager.is</text>
<text text-anchor="middle" x="93" y="-32" font-family="Helvetica,sans-Serif" font-size="10.00">InRangeOfField</text>
</g>
<!-- Node2 -->
<g id="node2" class="node"><title>Node2</title>
<g id="a_node2"><a xlink:href="../../d5/d02/classgame_engine_1_1actors_1_1_base_actor.html#a2106e623a36a5683759aff1a392c7686" target="_top" xlink:title="gameEngine.actors.BaseActor.getX">
<polygon fill="white" stroke="black" points="222,-51.5 222,-70.5 408,-70.5 408,-51.5 222,-51.5"/>
<text text-anchor="middle" x="315" y="-58.5" font-family="Helvetica,sans-Serif" font-size="10.00">gameEngine.actors.BaseActor.getX</text>
</a>
</g>
</g>
<!-- Node1&#45;&gt;Node2 -->
<g id="edge1" class="edge"><title>Node1&#45;&gt;Node2</title>
<path fill="none" stroke="midnightblue" d="M186.025,-48.7842C194.573,-49.6001 203.269,-50.4302 211.9,-51.2541"/>
<polygon fill="midnightblue" stroke="midnightblue" points="211.702,-54.7511 221.99,-52.2172 212.368,-47.7827 211.702,-54.7511"/>
</g>
<!-- Node4 -->
<g id="node4" class="node"><title>Node4</title>
<g id="a_node4"><a xlink:href="../../d5/d02/classgame_engine_1_1actors_1_1_base_actor.html#a4e1debba2b998a75964fb8c979cb15e8" target="_top" xlink:title="gameEngine.actors.BaseActor.getY">
<polygon fill="white" stroke="black" points="222.5,-10.5 222.5,-29.5 407.5,-29.5 407.5,-10.5 222.5,-10.5"/>
<text text-anchor="middle" x="315" y="-17.5" font-family="Helvetica,sans-Serif" font-size="10.00">gameEngine.actors.BaseActor.getY</text>
</a>
</g>
</g>
<!-- Node1&#45;&gt;Node4 -->
<g id="edge3" class="edge"><title>Node1&#45;&gt;Node4</title>
<path fill="none" stroke="midnightblue" d="M186.025,-31.6341C194.657,-30.8493 203.441,-30.0508 212.157,-29.2585"/>
<polygon fill="midnightblue" stroke="midnightblue" points="212.701,-32.7235 222.343,-28.3325 212.067,-25.7523 212.701,-32.7235"/>
</g>
<!-- Node3 -->
<g id="node3" class="node"><title>Node3</title>
<g id="a_node3"><a xlink:href="../../dd/df0/classutilities_1_1_java_f_xutilities_1_1image_view_1_1_centered_image_view.html#a063a62060b9b686601364fdbb8b6cd86" target="_top" xlink:title="utilities.JavaFXutilities.image\lView.CenteredImageView.getXCenter">
<polygon fill="white" stroke="black" points="444,-49 444,-79 636,-79 636,-49 444,-49"/>
<text text-anchor="start" x="452" y="-67" font-family="Helvetica,sans-Serif" font-size="10.00">utilities.JavaFXutilities.image</text>
<text text-anchor="middle" x="540" y="-56" font-family="Helvetica,sans-Serif" font-size="10.00">View.CenteredImageView.getXCenter</text>
</a>
</g>
</g>
<!-- Node2&#45;&gt;Node3 -->
<g id="edge2" class="edge"><title>Node2&#45;&gt;Node3</title>
<path fill="none" stroke="midnightblue" d="M408.312,-62.2419C416.661,-62.3542 425.157,-62.4685 433.606,-62.5821"/>
<polygon fill="midnightblue" stroke="midnightblue" points="433.83,-66.0854 443.876,-62.7203 433.924,-59.086 433.83,-66.0854"/>
</g>
<!-- Node5 -->
<g id="node5" class="node"><title>Node5</title>
<g id="a_node5"><a xlink:href="../../dd/df0/classutilities_1_1_java_f_xutilities_1_1image_view_1_1_centered_image_view.html#aa05843be4846dc0d9c23489cac21ed3d" target="_top" xlink:title="utilities.JavaFXutilities.image\lView.CenteredImageView.getYCenter">
<polygon fill="white" stroke="black" points="444.5,-0 444.5,-30 635.5,-30 635.5,-0 444.5,-0"/>
<text text-anchor="start" x="452.5" y="-18" font-family="Helvetica,sans-Serif" font-size="10.00">utilities.JavaFXutilities.image</text>
<text text-anchor="middle" x="540" y="-7" font-family="Helvetica,sans-Serif" font-size="10.00">View.CenteredImageView.getYCenter</text>
</a>
</g>
</g>
<!-- Node4&#45;&gt;Node5 -->
<g id="edge4" class="edge"><title>Node4&#45;&gt;Node5</title>
<path fill="none" stroke="midnightblue" d="M407.668,-17.9447C416.483,-17.747 425.47,-17.5455 434.397,-17.3454"/>
<polygon fill="midnightblue" stroke="midnightblue" points="434.52,-20.8436 444.439,-17.1202 434.363,-13.8453 434.52,-20.8436"/>
</g>
</g>
</svg>
