<?xml version="1.0" encoding="UTF-8" standalone="no"?>
<!DOCTYPE svg PUBLIC "-//W3C//DTD SVG 1.1//EN"
 "http://www.w3.org/Graphics/SVG/1.1/DTD/svg11.dtd">
<!-- Generated by graphviz version 2.36.0 (20140111.2315)
 -->
<!-- Title: gameEngine.MainEngineManager.loadLevel Pages: 1 -->
<!--zoomable 180 -->
<svg id="main" version="1.1" xmlns="http://www.w3.org/2000/svg" xmlns:xlink="http://www.w3.org/1999/xlink" xml:space="preserve" onload="init(evt)">
<style type="text/css"><![CDATA[
.edge:hover path { stroke: red; }
.edge:hover polygon { stroke: red; fill: red; }
]]></style>
<script type="text/javascript"><![CDATA[
var edges = document.getElementsByTagName('g');
if (edges && edges.length) {
  for (var i=0;i<edges.length;i++) {
    if (edges[i].id.substr(0,4)=='edge') {
      edges[i].setAttribute('class','edge');
    }
  }
}
]]></script>
        <defs>
                <circle id="rim" cx="0" cy="0" r="7"/>
                <circle id="rim2" cx="0" cy="0" r="3.5"/>
                <g id="zoomPlus">
                        <use xlink:href="#rim" fill="#404040">
                                <set attributeName="fill" to="#808080" begin="zoomplus.mouseover" end="zoomplus.mouseout"/>
                        </use>
                        <path d="M-4,0h8M0,-4v8" fill="none" stroke="white" stroke-width="1.5" pointer-events="none"/>
                </g>
                <g id="zoomMin">
                        <use xlink:href="#rim" fill="#404040">
                                <set attributeName="fill" to="#808080" begin="zoomminus.mouseover" end="zoomminus.mouseout"/>
                        </use>
                        <path d="M-4,0h8" fill="none" stroke="white" stroke-width="1.5" pointer-events="none"/>
                </g>
                <g id="dirArrow">
                        <path fill="none" stroke="white" stroke-width="1.5" d="M0,-3.0v7 M-2.5,-0.5L0,-3.0L2.5,-0.5"/>
                </g>
               <g id="resetDef">
                       <use xlink:href="#rim2" fill="#404040">
                               <set attributeName="fill" to="#808080" begin="reset.mouseover" end="reset.mouseout"/>
                       </use>
               </g>
        </defs>

<script type="text/javascript">
var viewWidth = 1174;
var viewHeight = 180;
var sectionId = 'dynsection-39';
</script>
<script xlink:href="../../svgpan.js"/>
<svg id="graph" class="graph">
<g id="viewport">
<title>gameEngine.MainEngineManager.loadLevel</title>
<polygon fill="white" stroke="none" points="-4,4 -4,-176 1170,-176 1170,4 -4,4"/>
<!-- Node1 -->
<g id="node1" class="node"><title>Node1</title>
<polygon fill="#bfbfbf" stroke="black" points="0.5,-49 0.5,-79 199.5,-79 199.5,-49 0.5,-49"/>
<text text-anchor="start" x="8.5" y="-67" font-family="Helvetica,sans-Serif" font-size="10.00">gameEngine.MainEngineManager.load</text>
<text text-anchor="middle" x="100" y="-56" font-family="Helvetica,sans-Serif" font-size="10.00">Level</text>
</g>
<!-- Node2 -->
<g id="node2" class="node"><title>Node2</title>
<g id="a_node2"><a xlink:href="../../d4/d81/classgame_engine_1_1actors_1_1_base_enemy.html#adb93973e4e8e4da347747801642fcaf2" target="_top" xlink:title="gameEngine.actors.BaseEnemy.copy">
<polygon fill="white" stroke="black" points="236,-98.5 236,-117.5 430,-117.5 430,-98.5 236,-98.5"/>
<text text-anchor="middle" x="333" y="-105.5" font-family="Helvetica,sans-Serif" font-size="10.00">gameEngine.actors.BaseEnemy.copy</text>
</a>
</g>
</g>
<!-- Node1&#45;&gt;Node2 -->
<g id="edge1" class="edge"><title>Node1&#45;&gt;Node2</title>
<path fill="none" stroke="midnightblue" d="M179.851,-79.0192C210,-84.7619 243.866,-91.2125 271.98,-96.5676"/>
<polygon fill="midnightblue" stroke="midnightblue" points="271.581,-100.055 282.06,-98.4876 272.891,-93.1782 271.581,-100.055"/>
</g>
<!-- Node8 -->
<g id="node8" class="node"><title>Node8</title>
<g id="a_node8"><a xlink:href="../../da/dc8/classgame_engine_1_1levels_1_1_base_level.html#a10e08749157dcd85085d053a952503db" target="_top" xlink:title="gameEngine.levels.BaseLevel.get\lDuration">
<polygon fill="white" stroke="black" points="244.5,-49 244.5,-79 421.5,-79 421.5,-49 244.5,-49"/>
<text text-anchor="start" x="252.5" y="-67" font-family="Helvetica,sans-Serif" font-size="10.00">gameEngine.levels.BaseLevel.get</text>
<text text-anchor="middle" x="333" y="-56" font-family="Helvetica,sans-Serif" font-size="10.00">Duration</text>
</a>
</g>
</g>
<!-- Node1&#45;&gt;Node8 -->
<g id="edge7" class="edge"><title>Node1&#45;&gt;Node8</title>
<path fill="none" stroke="midnightblue" d="M199.635,-64C211.111,-64 222.814,-64 234.278,-64"/>
<polygon fill="midnightblue" stroke="midnightblue" points="234.279,-67.5001 244.279,-64 234.279,-60.5001 234.279,-67.5001"/>
</g>
<!-- Node9 -->
<g id="node9" class="node"><title>Node9</title>
<g id="a_node9"><a xlink:href="../../da/dc8/classgame_engine_1_1levels_1_1_base_level.html#afc3aa5d464c27391506590a989fc0c02" target="_top" xlink:title="gameEngine.levels.BaseLevel.get\lEnemyCountPairs">
<polygon fill="white" stroke="black" points="244.5,-0 244.5,-30 421.5,-30 421.5,-0 244.5,-0"/>
<text text-anchor="start" x="252.5" y="-18" font-family="Helvetica,sans-Serif" font-size="10.00">gameEngine.levels.BaseLevel.get</text>
<text text-anchor="middle" x="333" y="-7" font-family="Helvetica,sans-Serif" font-size="10.00">EnemyCountPairs</text>
</a>
</g>
</g>
<!-- Node1&#45;&gt;Node9 -->
<g id="edge8" class="edge"><title>Node1&#45;&gt;Node9</title>
<path fill="none" stroke="midnightblue" d="M171.877,-48.9654C197.044,-43.627 225.55,-37.5802 251.464,-32.0834"/>
<polygon fill="midnightblue" stroke="midnightblue" points="252.201,-35.5051 261.257,-30.0062 250.748,-28.6575 252.201,-35.5051"/>
</g>
<!-- Node3 -->
<g id="node3" class="node"><title>Node3</title>
<g id="a_node3"><a xlink:href="../../d5/d02/classgame_engine_1_1actors_1_1_base_actor.html#a7feb699c5d4dc6ca8588beacc5567eff" target="_top" xlink:title="gameEngine.actors.BaseActor.copy\lBehaviors">
<polygon fill="white" stroke="black" points="475.5,-142 475.5,-172 662.5,-172 662.5,-142 475.5,-142"/>
<text text-anchor="start" x="483.5" y="-160" font-family="Helvetica,sans-Serif" font-size="10.00">gameEngine.actors.BaseActor.copy</text>
<text text-anchor="middle" x="569" y="-149" font-family="Helvetica,sans-Serif" font-size="10.00">Behaviors</text>
</a>
</g>
</g>
<!-- Node2&#45;&gt;Node3 -->
<g id="edge2" class="edge"><title>Node2&#45;&gt;Node3</title>
<path fill="none" stroke="midnightblue" d="M379.395,-117.506C409.645,-123.84 450.271,-132.347 486.07,-139.844"/>
<polygon fill="midnightblue" stroke="midnightblue" points="485.522,-143.305 496.027,-141.929 486.957,-136.453 485.522,-143.305"/>
</g>
<!-- Node4 -->
<g id="node4" class="node"><title>Node4</title>
<g id="a_node4"><a xlink:href="../../d4/d81/classgame_engine_1_1actors_1_1_base_enemy.html#a67818ce6171fda1624ab7e1d27dc3efe" target="_top" xlink:title="gameEngine.actors.BaseEnemy.\lBaseEnemy">
<polygon fill="white" stroke="black" points="483.5,-93 483.5,-123 654.5,-123 654.5,-93 483.5,-93"/>
<text text-anchor="start" x="491.5" y="-111" font-family="Helvetica,sans-Serif" font-size="10.00">gameEngine.actors.BaseEnemy.</text>
<text text-anchor="middle" x="569" y="-100" font-family="Helvetica,sans-Serif" font-size="10.00">BaseEnemy</text>
</a>
</g>
</g>
<!-- Node2&#45;&gt;Node4 -->
<g id="edge3" class="edge"><title>Node2&#45;&gt;Node4</title>
<path fill="none" stroke="midnightblue" d="M430.19,-108C444.391,-108 459.014,-108 473.187,-108"/>
<polygon fill="midnightblue" stroke="midnightblue" points="473.415,-111.5 483.415,-108 473.415,-104.5 473.415,-111.5"/>
</g>
<!-- Node7 -->
<g id="node7" class="node"><title>Node7</title>
<g id="a_node7"><a xlink:href="../../d5/d02/classgame_engine_1_1actors_1_1_base_actor.html#ae877e5334153c4e125fb84bf993587af" target="_top" xlink:title="gameEngine.actors.BaseActor.getNode">
<polygon fill="white" stroke="black" points="466,-54.5 466,-73.5 672,-73.5 672,-54.5 466,-54.5"/>
<text text-anchor="middle" x="569" y="-61.5" font-family="Helvetica,sans-Serif" font-size="10.00">gameEngine.actors.BaseActor.getNode</text>
</a>
</g>
</g>
<!-- Node2&#45;&gt;Node7 -->
<g id="edge6" class="edge"><title>Node2&#45;&gt;Node7</title>
<path fill="none" stroke="midnightblue" d="M384.775,-98.4527C420.804,-91.6778 469.328,-82.5537 507.388,-75.3971"/>
<polygon fill="midnightblue" stroke="midnightblue" points="508.144,-78.8165 517.325,-73.5287 506.85,-71.937 508.144,-78.8165"/>
</g>
<!-- Node5 -->
<g id="node5" class="node"><title>Node5</title>
<g id="a_node5"><a xlink:href="../../d4/d81/classgame_engine_1_1actors_1_1_base_enemy.html#a41db5e3bf03c06bd5b17abbe8b82e5e2" target="_top" xlink:title="gameEngine.actors.BaseEnemy.initialize\lEnemy">
<polygon fill="white" stroke="black" points="708.5,-93 708.5,-123 917.5,-123 917.5,-93 708.5,-93"/>
<text text-anchor="start" x="716.5" y="-111" font-family="Helvetica,sans-Serif" font-size="10.00">gameEngine.actors.BaseEnemy.initialize</text>
<text text-anchor="middle" x="813" y="-100" font-family="Helvetica,sans-Serif" font-size="10.00">Enemy</text>
</a>
</g>
</g>
<!-- Node4&#45;&gt;Node5 -->
<g id="edge4" class="edge"><title>Node4&#45;&gt;Node5</title>
<path fill="none" stroke="midnightblue" d="M654.64,-108C668.704,-108 683.491,-108 698.138,-108"/>
<polygon fill="midnightblue" stroke="midnightblue" points="698.246,-111.5 708.246,-108 698.246,-104.5 698.246,-111.5"/>
</g>
<!-- Node6 -->
<g id="node6" class="node"><title>Node6</title>
<g id="a_node6"><a xlink:href="../../d0/d61/classgame_authoring_1_1scenes_1_1path_building_1_1path_components_1_1route_to_point_translation_1_1_backend_route.html#a4decf5451f724697b0b0ba60cd230f6f" target="_top" xlink:title="gameAuthoring.scenes.path\lBuilding.pathComponents.routeTo\lPointTranslation.BackendRoute.getPoints">
<polygon fill="white" stroke="black" points="954.5,-87.5 954.5,-128.5 1165.5,-128.5 1165.5,-87.5 954.5,-87.5"/>
<text text-anchor="start" x="962.5" y="-116.5" font-family="Helvetica,sans-Serif" font-size="10.00">gameAuthoring.scenes.path</text>
<text text-anchor="start" x="962.5" y="-105.5" font-family="Helvetica,sans-Serif" font-size="10.00">Building.pathComponents.routeTo</text>
<text text-anchor="middle" x="1060" y="-94.5" font-family="Helvetica,sans-Serif" font-size="10.00">PointTranslation.BackendRoute.getPoints</text>
</a>
</g>
</g>
<!-- Node5&#45;&gt;Node6 -->
<g id="edge5" class="edge"><title>Node5&#45;&gt;Node6</title>
<path fill="none" stroke="midnightblue" d="M917.547,-108C926.371,-108 935.33,-108 944.235,-108"/>
<polygon fill="midnightblue" stroke="midnightblue" points="944.255,-111.5 954.255,-108 944.255,-104.5 944.255,-111.5"/>
</g>
</g>
</svg>
        <g id="navigator" transform="translate(0 0)" fill="#404254">
                <rect fill="#f2f5e9" fill-opacity="0.5" stroke="#606060" stroke-width=".5" x="0" y="0" width="60" height="60"/>
                <use id="zoomplus" xlink:href="#zoomPlus" x="17" y="9" onmousedown="handleZoom(evt,'in')"/>
                <use id="zoomminus" xlink:href="#zoomMin" x="42" y="9" onmousedown="handleZoom(evt,'out')"/>
                <use id="reset" xlink:href="#resetDef" x="30" y="36" onmousedown="handleReset()"/>
                <g id="arrowUp" xlink:href="#dirArrow" transform="translate(30 24)" onmousedown="handlePan(0,-1)">
                  <use xlink:href="#rim" fill="#404040">
                        <set attributeName="fill" to="#808080" begin="arrowUp.mouseover" end="arrowUp.mouseout"/>
                  </use>
                  <path fill="none" stroke="white" stroke-width="1.5" d="M0,-3.0v7 M-2.5,-0.5L0,-3.0L2.5,-0.5"/>
                </g>
                <g id="arrowRight" xlink:href="#dirArrow" transform="rotate(90) translate(36 -43)" onmousedown="handlePan(1,0)">
                  <use xlink:href="#rim" fill="#404040">
                        <set attributeName="fill" to="#808080" begin="arrowRight.mouseover" end="arrowRight.mouseout"/>
                  </use>
                  <path fill="none" stroke="white" stroke-width="1.5" d="M0,-3.0v7 M-2.5,-0.5L0,-3.0L2.5,-0.5"/>
                </g>
                <g id="arrowDown" xlink:href="#dirArrow" transform="rotate(180) translate(-30 -48)" onmousedown="handlePan(0,1)">
                  <use xlink:href="#rim" fill="#404040">
                        <set attributeName="fill" to="#808080" begin="arrowDown.mouseover" end="arrowDown.mouseout"/>
                  </use>
                  <path fill="none" stroke="white" stroke-width="1.5" d="M0,-3.0v7 M-2.5,-0.5L0,-3.0L2.5,-0.5"/>
                </g>
                <g id="arrowLeft" xlink:href="#dirArrow" transform="rotate(270) translate(-36 17)" onmousedown="handlePan(-1,0)">
                  <use xlink:href="#rim" fill="#404040">
                        <set attributeName="fill" to="#808080" begin="arrowLeft.mouseover" end="arrowLeft.mouseout"/>
                  </use>
                  <path fill="none" stroke="white" stroke-width="1.5" d="M0,-3.0v7 M-2.5,-0.5L0,-3.0L2.5,-0.5"/>
                </g>
        </g>
        <svg viewBox="0 0 15 15" width="100%" height="30px" preserveAspectRatio="xMaxYMin meet">
         <g id="arrow_out" transform="scale(0.3 0.3)">
          <a xlink:href="classgame_engine_1_1_main_engine_manager_a9730cb1b41966ae46599b3c5ee2b670d_cgraph_org.svg" target="_base">
           <rect id="button" ry="5" rx="5" y="6" x="6" height="38" width="38"
                fill="#f2f5e9" fill-opacity="0.5" stroke="#606060" stroke-width="1.0"/>
           <path id="arrow"
             d="M 11.500037,31.436501 C 11.940474,20.09759 22.043105,11.32322 32.158766,21.979434 L 37.068811,17.246167 C 37.068811,17.246167 37.088388,32 37.088388,32 L 22.160133,31.978069 C 22.160133,31.978069 26.997745,27.140456 26.997745,27.140456 C 18.528582,18.264221 13.291696,25.230495 11.500037,31.436501 z"
             style="fill:#404040;"/>
          </a>
         </g>
        </svg>
</svg>
