<?xml version="1.0" encoding="UTF-8" standalone="no"?>
<!DOCTYPE svg PUBLIC "-//W3C//DTD SVG 1.1//EN"
 "http://www.w3.org/Graphics/SVG/1.1/DTD/svg11.dtd">
<!-- Generated by graphviz version 2.36.0 (20140111.2315)
 -->
<!-- Title: gameAuthoring.scenes.pathBuilding.pathComponents.PathComponent.getStartingPoint Pages: 1 -->
<!--zoomable 962 -->
<svg id="main" version="1.1" xmlns="http://www.w3.org/2000/svg" xmlns:xlink="http://www.w3.org/1999/xlink" xml:space="preserve" onload="init(evt)">
<style type="text/css"><![CDATA[
.edge:hover path { stroke: red; }
.edge:hover polygon { stroke: red; fill: red; }
]]></style>
<script type="text/javascript"><![CDATA[
var edges = document.getElementsByTagName('g');
if (edges && edges.length) {
  for (var i=0;i<edges.length;i++) {
    if (edges[i].id.substr(0,4)=='edge') {
      edges[i].setAttribute('class','edge');
    }
  }
}
]]></script>
        <defs>
                <circle id="rim" cx="0" cy="0" r="7"/>
                <circle id="rim2" cx="0" cy="0" r="3.5"/>
                <g id="zoomPlus">
                        <use xlink:href="#rim" fill="#404040">
                                <set attributeName="fill" to="#808080" begin="zoomplus.mouseover" end="zoomplus.mouseout"/>
                        </use>
                        <path d="M-4,0h8M0,-4v8" fill="none" stroke="white" stroke-width="1.5" pointer-events="none"/>
                </g>
                <g id="zoomMin">
                        <use xlink:href="#rim" fill="#404040">
                                <set attributeName="fill" to="#808080" begin="zoomminus.mouseover" end="zoomminus.mouseout"/>
                        </use>
                        <path d="M-4,0h8" fill="none" stroke="white" stroke-width="1.5" pointer-events="none"/>
                </g>
                <g id="dirArrow">
                        <path fill="none" stroke="white" stroke-width="1.5" d="M0,-3.0v7 M-2.5,-0.5L0,-3.0L2.5,-0.5"/>
                </g>
               <g id="resetDef">
                       <use xlink:href="#rim2" fill="#404040">
                               <set attributeName="fill" to="#808080" begin="reset.mouseover" end="reset.mouseout"/>
                       </use>
               </g>
        </defs>

<script type="text/javascript">
var viewWidth = 1812;
var viewHeight = 962;
var sectionId = 'dynsection-3';
</script>
<script xlink:href="../../svgpan.js"/>
<svg id="graph" class="graph">
<g id="viewport">
<title>gameAuthoring.scenes.pathBuilding.pathComponents.PathComponent.getStartingPoint</title>
<polygon fill="white" stroke="none" points="-4,4 -4,-958 1808,-958 1808,4 -4,4"/>
<!-- Node1 -->
<g id="node1" class="node"><title>Node1</title>
<polygon fill="#bfbfbf" stroke="black" points="0.5,-228.5 0.5,-269.5 239.5,-269.5 239.5,-228.5 0.5,-228.5"/>
<text text-anchor="start" x="8.5" y="-257.5" font-family="Helvetica,sans-Serif" font-size="10.00">gameAuthoring.scenes.path</text>
<text text-anchor="start" x="8.5" y="-246.5" font-family="Helvetica,sans-Serif" font-size="10.00">Building.pathComponents.PathComponent.get</text>
<text text-anchor="middle" x="120" y="-235.5" font-family="Helvetica,sans-Serif" font-size="10.00">StartingPoint</text>
</g>
<!-- Node2 -->
<g id="node2" class="node"><title>Node2</title>
<g id="a_node2"><a xlink:href="../../d1/d65/classgame_authoring_1_1scenes_1_1path_building_1_1path_components_1_1_path.html#a6ea935a9238c3c073740926923914205" target="_top" xlink:title="gameAuthoring.scenes.path\lBuilding.pathComponents.Path.close\lEnoughToConnect">
<polygon fill="white" stroke="black" points="276,-187.5 276,-228.5 468,-228.5 468,-187.5 276,-187.5"/>
<text text-anchor="start" x="284" y="-216.5" font-family="Helvetica,sans-Serif" font-size="10.00">gameAuthoring.scenes.path</text>
<text text-anchor="start" x="284" y="-205.5" font-family="Helvetica,sans-Serif" font-size="10.00">Building.pathComponents.Path.close</text>
<text text-anchor="middle" x="372" y="-194.5" font-family="Helvetica,sans-Serif" font-size="10.00">EnoughToConnect</text>
</a>
</g>
</g>
<!-- Node1&#45;&gt;Node2 -->
<g id="edge1" class="edge"><title>Node1&#45;&gt;Node2</title>
<path fill="none" stroke="midnightblue" d="M249.706,-227.892C258.5,-226.45 267.269,-225.012 275.839,-223.606"/>
<polygon fill="midnightblue" stroke="midnightblue" points="249.078,-224.448 239.777,-229.521 250.211,-231.356 249.078,-224.448"/>
</g>
<!-- Node26 -->
<g id="node26" class="node"><title>Node26</title>
<g id="a_node26"><a xlink:href="../../d1/d65/classgame_authoring_1_1scenes_1_1path_building_1_1path_components_1_1_path.html#ac216f4faac2841dfad15ce4a0666668e" target="_top" xlink:title="gameAuthoring.scenes.path\lBuilding.pathComponents.Path.component\lAddedToStartingLocation">
<polygon fill="white" stroke="black" points="504,-303.5 504,-344.5 726,-344.5 726,-303.5 504,-303.5"/>
<text text-anchor="start" x="512" y="-332.5" font-family="Helvetica,sans-Serif" font-size="10.00">gameAuthoring.scenes.path</text>
<text text-anchor="start" x="512" y="-321.5" font-family="Helvetica,sans-Serif" font-size="10.00">Building.pathComponents.Path.component</text>
<text text-anchor="middle" x="615" y="-310.5" font-family="Helvetica,sans-Serif" font-size="10.00">AddedToStartingLocation</text>
</a>
</g>
</g>
<!-- Node1&#45;&gt;Node26 -->
<g id="edge28" class="edge"><title>Node1&#45;&gt;Node26</title>
<path fill="none" stroke="midnightblue" d="M249.722,-268.583C328.66,-280.591 428.662,-295.805 503.91,-307.252"/>
<polygon fill="midnightblue" stroke="midnightblue" points="250.126,-265.104 239.713,-267.06 249.073,-272.024 250.126,-265.104"/>
</g>
<!-- Node3 -->
<g id="node3" class="node"><title>Node3</title>
<g id="a_node3"><a xlink:href="../../d1/d65/classgame_authoring_1_1scenes_1_1path_building_1_1path_components_1_1_path.html#af2f92d642a6fe0c48c6b87193d462f00" target="_top" xlink:title="gameAuthoring.scenes.path\lBuilding.pathComponents.Path.attempt\lToConnectRoutes">
<polygon fill="white" stroke="black" points="512,-120.5 512,-161.5 718,-161.5 718,-120.5 512,-120.5"/>
<text text-anchor="start" x="520" y="-149.5" font-family="Helvetica,sans-Serif" font-size="10.00">gameAuthoring.scenes.path</text>
<text text-anchor="start" x="520" y="-138.5" font-family="Helvetica,sans-Serif" font-size="10.00">Building.pathComponents.Path.attempt</text>
<text text-anchor="middle" x="615" y="-127.5" font-family="Helvetica,sans-Serif" font-size="10.00">ToConnectRoutes</text>
</a>
</g>
</g>
<!-- Node2&#45;&gt;Node3 -->
<g id="edge2" class="edge"><title>Node2&#45;&gt;Node3</title>
<path fill="none" stroke="midnightblue" d="M456.809,-184.7C483.949,-177.155 513.835,-168.847 540.194,-161.519"/>
<polygon fill="midnightblue" stroke="midnightblue" points="455.643,-181.392 446.946,-187.442 457.518,-188.136 455.643,-181.392"/>
</g>
<!-- Node4 -->
<g id="node4" class="node"><title>Node4</title>
<g id="a_node4"><a xlink:href="../../d1/d65/classgame_authoring_1_1scenes_1_1path_building_1_1path_components_1_1_path.html#acffcf828c8875053d700834381b6b747" target="_top" xlink:title="gameAuthoring.scenes.path\lBuilding.pathComponents.Path.add\lComponentToPath">
<polygon fill="white" stroke="black" points="800.5,-426.5 800.5,-467.5 985.5,-467.5 985.5,-426.5 800.5,-426.5"/>
<text text-anchor="start" x="808.5" y="-455.5" font-family="Helvetica,sans-Serif" font-size="10.00">gameAuthoring.scenes.path</text>
<text text-anchor="start" x="808.5" y="-444.5" font-family="Helvetica,sans-Serif" font-size="10.00">Building.pathComponents.Path.add</text>
<text text-anchor="middle" x="893" y="-433.5" font-family="Helvetica,sans-Serif" font-size="10.00">ComponentToPath</text>
</a>
</g>
</g>
<!-- Node3&#45;&gt;Node4 -->
<g id="edge3" class="edge"><title>Node3&#45;&gt;Node4</title>
<path fill="none" stroke="midnightblue" d="M641.476,-169.245C696.394,-230.132 824.862,-372.564 873.18,-426.134"/>
<polygon fill="midnightblue" stroke="midnightblue" points="643.834,-166.634 634.538,-161.553 638.636,-171.323 643.834,-166.634"/>
</g>
<!-- Node7 -->
<g id="node7" class="node"><title>Node7</title>
<g id="a_node7"><a xlink:href="../../d2/d34/classgame_authoring_1_1scenes_1_1path_building_1_1path_components_1_1_path_creation_tests.html#ac9531a7f491a2dd23e3f1f4fefeae341" target="_top" xlink:title="gameAuthoring.scenes.path\lBuilding.pathComponents.PathCreation\lTests.AttemptToConnectRoutesFORKTest">
<polygon fill="white" stroke="black" points="1080,-120.5 1080,-161.5 1288,-161.5 1288,-120.5 1080,-120.5"/>
<text text-anchor="start" x="1088" y="-149.5" font-family="Helvetica,sans-Serif" font-size="10.00">gameAuthoring.scenes.path</text>
<text text-anchor="start" x="1088" y="-138.5" font-family="Helvetica,sans-Serif" font-size="10.00">Building.pathComponents.PathCreation</text>
<text text-anchor="middle" x="1184" y="-127.5" font-family="Helvetica,sans-Serif" font-size="10.00">Tests.AttemptToConnectRoutesFORKTest</text>
</a>
</g>
</g>
<!-- Node3&#45;&gt;Node7 -->
<g id="edge22" class="edge"><title>Node3&#45;&gt;Node7</title>
<path fill="none" stroke="midnightblue" d="M728.084,-141C830.418,-141 980.462,-141 1079.88,-141"/>
<polygon fill="midnightblue" stroke="midnightblue" points="728.023,-137.5 718.023,-141 728.023,-144.5 728.023,-137.5"/>
</g>
<!-- Node8 -->
<g id="node8" class="node"><title>Node8</title>
<g id="a_node8"><a xlink:href="../../d2/d34/classgame_authoring_1_1scenes_1_1path_building_1_1path_components_1_1_path_creation_tests.html#a6981d0f68e924cf3aca2ebb00a781c66" target="_top" xlink:title="gameAuthoring.scenes.path\lBuilding.pathComponents.PathCreation\lTests.AttemptToConnectRoutesNoForkTest">
<polygon fill="white" stroke="black" points="1075,-60.5 1075,-101.5 1293,-101.5 1293,-60.5 1075,-60.5"/>
<text text-anchor="start" x="1083" y="-89.5" font-family="Helvetica,sans-Serif" font-size="10.00">gameAuthoring.scenes.path</text>
<text text-anchor="start" x="1083" y="-78.5" font-family="Helvetica,sans-Serif" font-size="10.00">Building.pathComponents.PathCreation</text>
<text text-anchor="middle" x="1184" y="-67.5" font-family="Helvetica,sans-Serif" font-size="10.00">Tests.AttemptToConnectRoutesNoForkTest</text>
</a>
</g>
</g>
<!-- Node3&#45;&gt;Node8 -->
<g id="edge23" class="edge"><title>Node3&#45;&gt;Node8</title>
<path fill="none" stroke="midnightblue" d="M728.213,-129.126C828.732,-118.489 975.206,-102.989 1074.55,-92.4757"/>
<polygon fill="midnightblue" stroke="midnightblue" points="727.599,-125.671 718.023,-130.204 728.336,-132.632 727.599,-125.671"/>
</g>
<!-- Node22 -->
<g id="node22" class="node"><title>Node22</title>
<g id="a_node22"><a xlink:href="../../d7/da7/classgame_authoring_1_1scenes_1_1path_building_1_1building_panes_1_1_select_component_pane.html#abfee75cf2b6d4ca0978cc7b44d15f3de" target="_top" xlink:title="gameAuthoring.scenes.path\lBuilding.buildingPanes.SelectComponent\lPane.handleSelectionAndTryToConnectComponents">
<polygon fill="white" stroke="black" points="762,-9.5 762,-50.5 1024,-50.5 1024,-9.5 762,-9.5"/>
<text text-anchor="start" x="770" y="-38.5" font-family="Helvetica,sans-Serif" font-size="10.00">gameAuthoring.scenes.path</text>
<text text-anchor="start" x="770" y="-27.5" font-family="Helvetica,sans-Serif" font-size="10.00">Building.buildingPanes.SelectComponent</text>
<text text-anchor="middle" x="893" y="-16.5" font-family="Helvetica,sans-Serif" font-size="10.00">Pane.handleSelectionAndTryToConnectComponents</text>
</a>
</g>
</g>
<!-- Node3&#45;&gt;Node22 -->
<g id="edge24" class="edge"><title>Node3&#45;&gt;Node22</title>
<path fill="none" stroke="midnightblue" d="M675.111,-116.456C701.639,-105.506 733.349,-92.5061 762,-81 787.31,-70.8355 815.48,-59.7556 839.109,-50.5277"/>
<polygon fill="midnightblue" stroke="midnightblue" points="673.493,-113.337 665.588,-120.39 676.166,-119.807 673.493,-113.337"/>
</g>
<!-- Node5 -->
<g id="node5" class="node"><title>Node5</title>
<g id="a_node5"><a xlink:href="../../d2/d34/classgame_authoring_1_1scenes_1_1path_building_1_1path_components_1_1_path_creation_tests.html#a0911a7565ec3a567911ed649f2c837d0" target="_top" xlink:title="gameAuthoring.scenes.path\lBuilding.pathComponents.PathCreation\lTests.AddSingleCurveComponentTest">
<polygon fill="white" stroke="black" points="1081.5,-360.5 1081.5,-401.5 1286.5,-401.5 1286.5,-360.5 1081.5,-360.5"/>
<text text-anchor="start" x="1089.5" y="-389.5" font-family="Helvetica,sans-Serif" font-size="10.00">gameAuthoring.scenes.path</text>
<text text-anchor="start" x="1089.5" y="-378.5" font-family="Helvetica,sans-Serif" font-size="10.00">Building.pathComponents.PathCreation</text>
<text text-anchor="middle" x="1184" y="-367.5" font-family="Helvetica,sans-Serif" font-size="10.00">Tests.AddSingleCurveComponentTest</text>
</a>
</g>
</g>
<!-- Node4&#45;&gt;Node5 -->
<g id="edge4" class="edge"><title>Node4&#45;&gt;Node5</title>
<path fill="none" stroke="midnightblue" d="M993.766,-424.216C1026.06,-416.84 1061.67,-408.709 1093.2,-401.508"/>
<polygon fill="midnightblue" stroke="midnightblue" points="992.827,-420.84 983.857,-426.479 994.386,-427.665 992.827,-420.84"/>
</g>
<!-- Node6 -->
<g id="node6" class="node"><title>Node6</title>
<g id="a_node6"><a xlink:href="../../d2/d34/classgame_authoring_1_1scenes_1_1path_building_1_1path_components_1_1_path_creation_tests.html#a8299a5b4ff7674dbfa2223a26fd4c2db" target="_top" xlink:title="gameAuthoring.scenes.path\lBuilding.pathComponents.PathCreation\lTests.AddSingleLineComponentTest">
<polygon fill="white" stroke="black" points="1081.5,-300.5 1081.5,-341.5 1286.5,-341.5 1286.5,-300.5 1081.5,-300.5"/>
<text text-anchor="start" x="1089.5" y="-329.5" font-family="Helvetica,sans-Serif" font-size="10.00">gameAuthoring.scenes.path</text>
<text text-anchor="start" x="1089.5" y="-318.5" font-family="Helvetica,sans-Serif" font-size="10.00">Building.pathComponents.PathCreation</text>
<text text-anchor="middle" x="1184" y="-307.5" font-family="Helvetica,sans-Serif" font-size="10.00">Tests.AddSingleLineComponentTest</text>
</a>
</g>
</g>
<!-- Node4&#45;&gt;Node6 -->
<g id="edge5" class="edge"><title>Node4&#45;&gt;Node6</title>
<path fill="none" stroke="midnightblue" d="M931.919,-420.86C964.574,-399.401 1013.63,-369.616 1060,-351 1068.67,-347.52 1077.85,-344.368 1087.13,-341.532"/>
<polygon fill="midnightblue" stroke="midnightblue" points="929.968,-417.954 923.571,-426.4 933.839,-423.787 929.968,-417.954"/>
</g>
<!-- Node4&#45;&gt;Node7 -->
<g id="edge6" class="edge"><title>Node4&#45;&gt;Node7</title>
<path fill="none" stroke="midnightblue" d="M903.443,-416.627C922.908,-359.24 973.11,-234.923 1060,-171 1066.11,-166.506 1072.8,-162.679 1079.82,-159.42"/>
<polygon fill="midnightblue" stroke="midnightblue" points="900.09,-415.618 900.268,-426.212 906.735,-417.82 900.09,-415.618"/>
</g>
<!-- Node4&#45;&gt;Node8 -->
<g id="edge7" class="edge"><title>Node4&#45;&gt;Node8</title>
<path fill="none" stroke="midnightblue" d="M900.028,-416.349C914.761,-349.868 959.033,-191.912 1060,-111 1064.63,-107.289 1069.65,-104.027 1074.93,-101.16"/>
<polygon fill="midnightblue" stroke="midnightblue" points="896.588,-415.695 897.913,-426.207 903.433,-417.164 896.588,-415.695"/>
</g>
<!-- Node9 -->
<g id="node9" class="node"><title>Node9</title>
<g id="a_node9"><a xlink:href="../../d2/d34/classgame_authoring_1_1scenes_1_1path_building_1_1path_components_1_1_path_creation_tests.html#adbb59fd676db1e150df898e9509dd212" target="_top" xlink:title="gameAuthoring.scenes.path\lBuilding.pathComponents.PathCreation\lTests.ConnectComponentToEndingLocationTest">
<polygon fill="white" stroke="black" points="1063.5,-240.5 1063.5,-281.5 1304.5,-281.5 1304.5,-240.5 1063.5,-240.5"/>
<text text-anchor="start" x="1071.5" y="-269.5" font-family="Helvetica,sans-Serif" font-size="10.00">gameAuthoring.scenes.path</text>
<text text-anchor="start" x="1071.5" y="-258.5" font-family="Helvetica,sans-Serif" font-size="10.00">Building.pathComponents.PathCreation</text>
<text text-anchor="middle" x="1184" y="-247.5" font-family="Helvetica,sans-Serif" font-size="10.00">Tests.ConnectComponentToEndingLocationTest</text>
</a>
</g>
</g>
<!-- Node4&#45;&gt;Node9 -->
<g id="edge8" class="edge"><title>Node4&#45;&gt;Node9</title>
<path fill="none" stroke="midnightblue" d="M916.474,-418.227C945.698,-382.831 1000.13,-323.457 1060,-291 1066.57,-287.438 1073.56,-284.293 1080.75,-281.517"/>
<polygon fill="midnightblue" stroke="midnightblue" points="913.541,-416.286 909.942,-426.251 918.969,-420.705 913.541,-416.286"/>
</g>
<!-- Node10 -->
<g id="node10" class="node"><title>Node10</title>
<g id="a_node10"><a xlink:href="../../d2/d34/classgame_authoring_1_1scenes_1_1path_building_1_1path_components_1_1_path_creation_tests.html#afcc8871849fbf8c9a24a5b382c77a167" target="_top" xlink:title="gameAuthoring.scenes.path\lBuilding.pathComponents.PathCreation\lTests.ConnectComponentToStartingLocationTest">
<polygon fill="white" stroke="black" points="1060.5,-180.5 1060.5,-221.5 1307.5,-221.5 1307.5,-180.5 1060.5,-180.5"/>
<text text-anchor="start" x="1068.5" y="-209.5" font-family="Helvetica,sans-Serif" font-size="10.00">gameAuthoring.scenes.path</text>
<text text-anchor="start" x="1068.5" y="-198.5" font-family="Helvetica,sans-Serif" font-size="10.00">Building.pathComponents.PathCreation</text>
<text text-anchor="middle" x="1184" y="-187.5" font-family="Helvetica,sans-Serif" font-size="10.00">Tests.ConnectComponentToStartingLocationTest</text>
</a>
</g>
</g>
<!-- Node4&#45;&gt;Node10 -->
<g id="edge9" class="edge"><title>Node4&#45;&gt;Node10</title>
<path fill="none" stroke="midnightblue" d="M908.397,-417.217C932.778,-370.066 986.779,-278.699 1060,-231 1065.43,-227.461 1071.25,-224.339 1077.28,-221.585"/>
<polygon fill="midnightblue" stroke="midnightblue" points="905.189,-415.803 903.783,-426.304 911.431,-418.972 905.189,-415.803"/>
</g>
<!-- Node11 -->
<g id="node11" class="node"><title>Node11</title>
<g id="a_node11"><a xlink:href="../../d2/d34/classgame_authoring_1_1scenes_1_1path_building_1_1path_components_1_1_path_creation_tests.html#abc7f89653e322c800da5fc26c4719b5a" target="_top" xlink:title="gameAuthoring.scenes.path\lBuilding.pathComponents.PathCreation\lTests.ConnectLineToCurveTest">
<polygon fill="white" stroke="black" points="1081.5,-912.5 1081.5,-953.5 1286.5,-953.5 1286.5,-912.5 1081.5,-912.5"/>
<text text-anchor="start" x="1089.5" y="-941.5" font-family="Helvetica,sans-Serif" font-size="10.00">gameAuthoring.scenes.path</text>
<text text-anchor="start" x="1089.5" y="-930.5" font-family="Helvetica,sans-Serif" font-size="10.00">Building.pathComponents.PathCreation</text>
<text text-anchor="middle" x="1184" y="-919.5" font-family="Helvetica,sans-Serif" font-size="10.00">Tests.ConnectLineToCurveTest</text>
</a>
</g>
</g>
<!-- Node4&#45;&gt;Node11 -->
<g id="edge10" class="edge"><title>Node4&#45;&gt;Node11</title>
<path fill="none" stroke="midnightblue" d="M895.737,-478.149C902.066,-560.493 930.929,-785.576 1060,-902 1066.38,-907.753 1073.67,-912.472 1081.44,-916.339"/>
<polygon fill="midnightblue" stroke="midnightblue" points="899.212,-477.671 895.014,-467.944 892.23,-478.166 899.212,-477.671"/>
</g>
<!-- Node12 -->
<g id="node12" class="node"><title>Node12</title>
<g id="a_node12"><a xlink:href="../../d2/d34/classgame_authoring_1_1scenes_1_1path_building_1_1path_components_1_1_path_creation_tests.html#a7271f13f8ea9f6e6f9137d8237802963" target="_top" xlink:title="gameAuthoring.scenes.path\lBuilding.pathComponents.PathCreation\lTests.ConnectRoutesTest">
<polygon fill="white" stroke="black" points="1081.5,-852.5 1081.5,-893.5 1286.5,-893.5 1286.5,-852.5 1081.5,-852.5"/>
<text text-anchor="start" x="1089.5" y="-881.5" font-family="Helvetica,sans-Serif" font-size="10.00">gameAuthoring.scenes.path</text>
<text text-anchor="start" x="1089.5" y="-870.5" font-family="Helvetica,sans-Serif" font-size="10.00">Building.pathComponents.PathCreation</text>
<text text-anchor="middle" x="1184" y="-859.5" font-family="Helvetica,sans-Serif" font-size="10.00">Tests.ConnectRoutesTest</text>
</a>
</g>
</g>
<!-- Node4&#45;&gt;Node12 -->
<g id="edge11" class="edge"><title>Node4&#45;&gt;Node12</title>
<path fill="none" stroke="midnightblue" d="M897.671,-478.108C908.194,-552.843 945.468,-743.572 1060,-842 1066.43,-847.526 1073.71,-852.091 1081.43,-855.859"/>
<polygon fill="midnightblue" stroke="midnightblue" points="901.106,-477.394 896.306,-467.948 894.168,-478.325 901.106,-477.394"/>
</g>
<!-- Node13 -->
<g id="node13" class="node"><title>Node13</title>
<g id="a_node13"><a xlink:href="../../d2/d34/classgame_authoring_1_1scenes_1_1path_building_1_1path_components_1_1_path_creation_tests.html#a890f9b36b921569b05338a8b8658e03b" target="_top" xlink:title="gameAuthoring.scenes.path\lBuilding.pathComponents.PathCreation\lTests.ConnectTwoCurvesTest">
<polygon fill="white" stroke="black" points="1081.5,-792.5 1081.5,-833.5 1286.5,-833.5 1286.5,-792.5 1081.5,-792.5"/>
<text text-anchor="start" x="1089.5" y="-821.5" font-family="Helvetica,sans-Serif" font-size="10.00">gameAuthoring.scenes.path</text>
<text text-anchor="start" x="1089.5" y="-810.5" font-family="Helvetica,sans-Serif" font-size="10.00">Building.pathComponents.PathCreation</text>
<text text-anchor="middle" x="1184" y="-799.5" font-family="Helvetica,sans-Serif" font-size="10.00">Tests.ConnectTwoCurvesTest</text>
</a>
</g>
</g>
<!-- Node4&#45;&gt;Node13 -->
<g id="edge12" class="edge"><title>Node4&#45;&gt;Node13</title>
<path fill="none" stroke="midnightblue" d="M900.103,-477.504C914.985,-543.676 959.536,-700.956 1060,-782 1066.51,-787.254 1073.8,-791.632 1081.5,-795.277"/>
<polygon fill="midnightblue" stroke="midnightblue" points="903.514,-476.718 897.965,-467.692 896.674,-478.208 903.514,-476.718"/>
</g>
<!-- Node14 -->
<g id="node14" class="node"><title>Node14</title>
<g id="a_node14"><a xlink:href="../../d2/d34/classgame_authoring_1_1scenes_1_1path_building_1_1path_components_1_1_path_creation_tests.html#ad3d391bd2d9c1a46dc8244db73f7448a" target="_top" xlink:title="gameAuthoring.scenes.path\lBuilding.pathComponents.PathCreation\lTests.ConnectTwoLinesTest">
<polygon fill="white" stroke="black" points="1081.5,-732.5 1081.5,-773.5 1286.5,-773.5 1286.5,-732.5 1081.5,-732.5"/>
<text text-anchor="start" x="1089.5" y="-761.5" font-family="Helvetica,sans-Serif" font-size="10.00">gameAuthoring.scenes.path</text>
<text text-anchor="start" x="1089.5" y="-750.5" font-family="Helvetica,sans-Serif" font-size="10.00">Building.pathComponents.PathCreation</text>
<text text-anchor="middle" x="1184" y="-739.5" font-family="Helvetica,sans-Serif" font-size="10.00">Tests.ConnectTwoLinesTest</text>
</a>
</g>
</g>
<!-- Node4&#45;&gt;Node14 -->
<g id="edge13" class="edge"><title>Node4&#45;&gt;Node14</title>
<path fill="none" stroke="midnightblue" d="M903.521,-477.204C923.117,-534.282 973.534,-657.985 1060,-722 1066.55,-726.848 1073.77,-730.943 1081.34,-734.4"/>
<polygon fill="midnightblue" stroke="midnightblue" points="906.821,-476.039 900.323,-467.671 900.185,-478.265 906.821,-476.039"/>
</g>
<!-- Node15 -->
<g id="node15" class="node"><title>Node15</title>
<g id="a_node15"><a xlink:href="../../d2/d34/classgame_authoring_1_1scenes_1_1path_building_1_1path_components_1_1_path_creation_tests.html#a1f6df71a1808af781e53fb0ebe9eb1fa" target="_top" xlink:title="gameAuthoring.scenes.path\lBuilding.pathComponents.PathCreation\lTests.CreateTwoRoutesTest">
<polygon fill="white" stroke="black" points="1081.5,-672.5 1081.5,-713.5 1286.5,-713.5 1286.5,-672.5 1081.5,-672.5"/>
<text text-anchor="start" x="1089.5" y="-701.5" font-family="Helvetica,sans-Serif" font-size="10.00">gameAuthoring.scenes.path</text>
<text text-anchor="start" x="1089.5" y="-690.5" font-family="Helvetica,sans-Serif" font-size="10.00">Building.pathComponents.PathCreation</text>
<text text-anchor="middle" x="1184" y="-679.5" font-family="Helvetica,sans-Serif" font-size="10.00">Tests.CreateTwoRoutesTest</text>
</a>
</g>
</g>
<!-- Node4&#45;&gt;Node15 -->
<g id="edge14" class="edge"><title>Node4&#45;&gt;Node15</title>
<path fill="none" stroke="midnightblue" d="M908.476,-476.58C932.969,-523.422 987.121,-614.242 1060,-662 1066.63,-666.345 1073.83,-670.082 1081.3,-673.294"/>
<polygon fill="midnightblue" stroke="midnightblue" points="911.522,-474.849 903.84,-467.553 905.295,-478.048 911.522,-474.849"/>
</g>
<!-- Node16 -->
<g id="node16" class="node"><title>Node16</title>
<g id="a_node16"><a xlink:href="../../d2/d34/classgame_authoring_1_1scenes_1_1path_building_1_1path_components_1_1_path_creation_tests.html#af5b11ca9b84de06fbdf1bdd7ddf1b459" target="_top" xlink:title="gameAuthoring.scenes.path\lBuilding.pathComponents.PathCreation\lTests.GetRouteContainingComponentTest">
<polygon fill="white" stroke="black" points="1077,-612.5 1077,-653.5 1291,-653.5 1291,-612.5 1077,-612.5"/>
<text text-anchor="start" x="1085" y="-641.5" font-family="Helvetica,sans-Serif" font-size="10.00">gameAuthoring.scenes.path</text>
<text text-anchor="start" x="1085" y="-630.5" font-family="Helvetica,sans-Serif" font-size="10.00">Building.pathComponents.PathCreation</text>
<text text-anchor="middle" x="1184" y="-619.5" font-family="Helvetica,sans-Serif" font-size="10.00">Tests.GetRouteContainingComponentTest</text>
</a>
</g>
</g>
<!-- Node4&#45;&gt;Node16 -->
<g id="edge15" class="edge"><title>Node4&#45;&gt;Node16</title>
<path fill="none" stroke="midnightblue" d="M916.555,-475.51C945.862,-510.598 1000.38,-569.508 1060,-602 1067.25,-605.952 1075.02,-609.412 1082.99,-612.438"/>
<polygon fill="midnightblue" stroke="midnightblue" points="919.063,-473.05 910.003,-467.557 913.66,-477.501 919.063,-473.05"/>
</g>
<!-- Node17 -->
<g id="node17" class="node"><title>Node17</title>
<g id="a_node17"><a xlink:href="../../db/d5b/classgame_authoring_1_1scenes_1_1path_building_1_1building_panes_1_1_line_drawing_pane.html#a1592c5e4b43e931037cfcf357896ff4e" target="_top" xlink:title="gameAuthoring.scenes.path\lBuilding.buildingPanes.LineDrawing\lPane.handleBuildScreenClick">
<polygon fill="white" stroke="black" points="1092.5,-552.5 1092.5,-593.5 1275.5,-593.5 1275.5,-552.5 1092.5,-552.5"/>
<text text-anchor="start" x="1100.5" y="-581.5" font-family="Helvetica,sans-Serif" font-size="10.00">gameAuthoring.scenes.path</text>
<text text-anchor="start" x="1100.5" y="-570.5" font-family="Helvetica,sans-Serif" font-size="10.00">Building.buildingPanes.LineDrawing</text>
<text text-anchor="middle" x="1184" y="-559.5" font-family="Helvetica,sans-Serif" font-size="10.00">Pane.handleBuildScreenClick</text>
</a>
</g>
</g>
<!-- Node4&#45;&gt;Node17 -->
<g id="edge16" class="edge"><title>Node4&#45;&gt;Node17</title>
<path fill="none" stroke="midnightblue" d="M933.016,-473.415C965.713,-494.53 1014.26,-523.553 1060,-542 1070.31,-546.16 1081.35,-549.884 1092.41,-553.184"/>
<polygon fill="midnightblue" stroke="midnightblue" points="934.518,-470.216 924.23,-467.684 930.694,-476.079 934.518,-470.216"/>
</g>
<!-- Node18 -->
<g id="node18" class="node"><title>Node18</title>
<g id="a_node18"><a xlink:href="../../d1/dad/classgame_authoring_1_1scenes_1_1path_building_1_1building_panes_1_1_curve_drawing_pane.html#a9b35c65041978c3a4628a16e26033a42" target="_top" xlink:title="gameAuthoring.scenes.path\lBuilding.buildingPanes.CurveDrawing\lPane.handleBuildScreenClick">
<polygon fill="white" stroke="black" points="1088.5,-492.5 1088.5,-533.5 1279.5,-533.5 1279.5,-492.5 1088.5,-492.5"/>
<text text-anchor="start" x="1096.5" y="-521.5" font-family="Helvetica,sans-Serif" font-size="10.00">gameAuthoring.scenes.path</text>
<text text-anchor="start" x="1096.5" y="-510.5" font-family="Helvetica,sans-Serif" font-size="10.00">Building.buildingPanes.CurveDrawing</text>
<text text-anchor="middle" x="1184" y="-499.5" font-family="Helvetica,sans-Serif" font-size="10.00">Pane.handleBuildScreenClick</text>
</a>
</g>
</g>
<!-- Node4&#45;&gt;Node18 -->
<g id="edge17" class="edge"><title>Node4&#45;&gt;Node18</title>
<path fill="none" stroke="midnightblue" d="M993.766,-469.784C1026.06,-477.16 1061.67,-485.291 1093.2,-492.492"/>
<polygon fill="midnightblue" stroke="midnightblue" points="994.386,-466.335 983.857,-467.521 992.827,-473.16 994.386,-466.335"/>
</g>
<!-- Node21 -->
<g id="node21" class="node"><title>Node21</title>
<g id="a_node21"><a xlink:href="../../d0/d17/classgame_authoring_1_1scenes_1_1path_building_1_1path_components_1_1route_to_point_translation_02993d587809a0174c9c81c680c3a1c8.html#a112d08c7563a9a6d9b371ea3c5fb0015" target="_top" xlink:title="gameAuthoring.scenes.path\lBuilding.pathComponents.routeTo\lPointTranslation.BackendRouteTranslation\lTests.testRoutesTranslation">
<polygon fill="white" stroke="black" points="1077,-421 1077,-473 1291,-473 1291,-421 1077,-421"/>
<text text-anchor="start" x="1085" y="-461" font-family="Helvetica,sans-Serif" font-size="10.00">gameAuthoring.scenes.path</text>
<text text-anchor="start" x="1085" y="-450" font-family="Helvetica,sans-Serif" font-size="10.00">Building.pathComponents.routeTo</text>
<text text-anchor="start" x="1085" y="-439" font-family="Helvetica,sans-Serif" font-size="10.00">PointTranslation.BackendRouteTranslation</text>
<text text-anchor="middle" x="1184" y="-428" font-family="Helvetica,sans-Serif" font-size="10.00">Tests.testRoutesTranslation</text>
</a>
</g>
</g>
<!-- Node4&#45;&gt;Node21 -->
<g id="edge21" class="edge"><title>Node4&#45;&gt;Node21</title>
<path fill="none" stroke="midnightblue" d="M996.132,-447C1022.27,-447 1050.44,-447 1076.79,-447"/>
<polygon fill="midnightblue" stroke="midnightblue" points="995.839,-443.5 985.838,-447 995.838,-450.5 995.839,-443.5"/>
</g>
<!-- Node19 -->
<g id="node19" class="node"><title>Node19</title>
<g id="a_node19"><a xlink:href="../../d1/dad/classgame_authoring_1_1scenes_1_1path_building_1_1building_panes_1_1_curve_drawing_pane.html#a4157681e1cbd0859e25b7ece8ff99a56" target="_top" xlink:title="gameAuthoring.scenes.path\lBuilding.buildingPanes.CurveDrawing\lPane.addListeners">
<polygon fill="white" stroke="black" points="1354.5,-492.5 1354.5,-533.5 1545.5,-533.5 1545.5,-492.5 1354.5,-492.5"/>
<text text-anchor="start" x="1362.5" y="-521.5" font-family="Helvetica,sans-Serif" font-size="10.00">gameAuthoring.scenes.path</text>
<text text-anchor="start" x="1362.5" y="-510.5" font-family="Helvetica,sans-Serif" font-size="10.00">Building.buildingPanes.CurveDrawing</text>
<text text-anchor="middle" x="1450" y="-499.5" font-family="Helvetica,sans-Serif" font-size="10.00">Pane.addListeners</text>
</a>
</g>
</g>
<!-- Node18&#45;&gt;Node19 -->
<g id="edge18" class="edge"><title>Node18&#45;&gt;Node19</title>
<path fill="none" stroke="midnightblue" d="M1289.61,-506.381C1310.93,-506.174 1333.25,-506.212 1354.21,-506.494"/>
<polygon fill="midnightblue" stroke="midnightblue" points="1289.52,-502.882 1279.56,-506.497 1289.6,-509.881 1289.52,-502.882"/>
</g>
<!-- Node19&#45;&gt;Node18 -->
<g id="edge20" class="edge"><title>Node19&#45;&gt;Node18</title>
<path fill="none" stroke="midnightblue" d="M1344.16,-519.621C1322.83,-519.826 1300.51,-519.786 1279.56,-519.503"/>
<polygon fill="midnightblue" stroke="midnightblue" points="1344.25,-523.121 1354.21,-519.506 1344.17,-516.121 1344.25,-523.121"/>
</g>
<!-- Node20 -->
<g id="node20" class="node"><title>Node20</title>
<g id="a_node20"><a xlink:href="../../d1/dad/classgame_authoring_1_1scenes_1_1path_building_1_1building_panes_1_1_curve_drawing_pane.html#a5e42a8d5bc78ce626583ea766277b804" target="_top" xlink:title="gameAuthoring.scenes.path\lBuilding.buildingPanes.CurveDrawing\lPane.executeEnterFunction">
<polygon fill="white" stroke="black" points="1602.5,-492.5 1602.5,-533.5 1793.5,-533.5 1793.5,-492.5 1602.5,-492.5"/>
<text text-anchor="start" x="1610.5" y="-521.5" font-family="Helvetica,sans-Serif" font-size="10.00">gameAuthoring.scenes.path</text>
<text text-anchor="start" x="1610.5" y="-510.5" font-family="Helvetica,sans-Serif" font-size="10.00">Building.buildingPanes.CurveDrawing</text>
<text text-anchor="middle" x="1698" y="-499.5" font-family="Helvetica,sans-Serif" font-size="10.00">Pane.executeEnterFunction</text>
</a>
</g>
</g>
<!-- Node19&#45;&gt;Node20 -->
<g id="edge19" class="edge"><title>Node19&#45;&gt;Node20</title>
<path fill="none" stroke="midnightblue" d="M1555.83,-513C1571.26,-513 1587.08,-513 1602.29,-513"/>
<polygon fill="midnightblue" stroke="midnightblue" points="1555.76,-509.5 1545.76,-513 1555.76,-516.5 1555.76,-509.5"/>
</g>
<!-- Node23 -->
<g id="node23" class="node"><title>Node23</title>
<g id="a_node23"><a xlink:href="../../d7/da7/classgame_authoring_1_1scenes_1_1path_building_1_1building_panes_1_1_select_component_pane.html#a6f69903216e7f0c8dc628fd667a50496" target="_top" xlink:title="gameAuthoring.scenes.path\lBuilding.buildingPanes.SelectComponent\lPane.addSelectionListeners">
<polygon fill="white" stroke="black" points="1078,-0.5 1078,-41.5 1290,-41.5 1290,-0.5 1078,-0.5"/>
<text text-anchor="start" x="1086" y="-29.5" font-family="Helvetica,sans-Serif" font-size="10.00">gameAuthoring.scenes.path</text>
<text text-anchor="start" x="1086" y="-18.5" font-family="Helvetica,sans-Serif" font-size="10.00">Building.buildingPanes.SelectComponent</text>
<text text-anchor="middle" x="1184" y="-7.5" font-family="Helvetica,sans-Serif" font-size="10.00">Pane.addSelectionListeners</text>
</a>
</g>
</g>
<!-- Node22&#45;&gt;Node23 -->
<g id="edge25" class="edge"><title>Node22&#45;&gt;Node23</title>
<path fill="none" stroke="midnightblue" d="M1034.26,-25.6319C1048.93,-25.1752 1063.66,-24.7166 1077.83,-24.2751"/>
<polygon fill="midnightblue" stroke="midnightblue" points="1034.01,-22.1379 1024.13,-25.9476 1034.23,-29.1345 1034.01,-22.1379"/>
</g>
<!-- Node24 -->
<g id="node24" class="node"><title>Node24</title>
<g id="a_node24"><a xlink:href="../../d7/da7/classgame_authoring_1_1scenes_1_1path_building_1_1building_panes_1_1_select_component_pane.html#ab264186c3b2f4ed9391d64633b70d5ed" target="_top" xlink:title="gameAuthoring.scenes.path\lBuilding.buildingPanes.SelectComponent\lPane.addListenersToComponents">
<polygon fill="white" stroke="black" points="1344,-0.5 1344,-41.5 1556,-41.5 1556,-0.5 1344,-0.5"/>
<text text-anchor="start" x="1352" y="-29.5" font-family="Helvetica,sans-Serif" font-size="10.00">gameAuthoring.scenes.path</text>
<text text-anchor="start" x="1352" y="-18.5" font-family="Helvetica,sans-Serif" font-size="10.00">Building.buildingPanes.SelectComponent</text>
<text text-anchor="middle" x="1450" y="-7.5" font-family="Helvetica,sans-Serif" font-size="10.00">Pane.addListenersToComponents</text>
</a>
</g>
</g>
<!-- Node23&#45;&gt;Node24 -->
<g id="edge26" class="edge"><title>Node23&#45;&gt;Node24</title>
<path fill="none" stroke="midnightblue" d="M1300.11,-21C1314.65,-21 1329.46,-21 1343.83,-21"/>
<polygon fill="midnightblue" stroke="midnightblue" points="1300.1,-17.5001 1290.1,-21 1300.1,-24.5001 1300.1,-17.5001"/>
</g>
<!-- Node25 -->
<g id="node25" class="node"><title>Node25</title>
<g id="a_node25"><a xlink:href="../../d7/da7/classgame_authoring_1_1scenes_1_1path_building_1_1building_panes_1_1_select_component_pane.html#a102b73ae9c6cab53a0738a3be5f8e3a4" target="_top" xlink:title="gameAuthoring.scenes.path\lBuilding.buildingPanes.SelectComponent\lPane.executeEnterFunction">
<polygon fill="white" stroke="black" points="1592,-0.5 1592,-41.5 1804,-41.5 1804,-0.5 1592,-0.5"/>
<text text-anchor="start" x="1600" y="-29.5" font-family="Helvetica,sans-Serif" font-size="10.00">gameAuthoring.scenes.path</text>
<text text-anchor="start" x="1600" y="-18.5" font-family="Helvetica,sans-Serif" font-size="10.00">Building.buildingPanes.SelectComponent</text>
<text text-anchor="middle" x="1698" y="-7.5" font-family="Helvetica,sans-Serif" font-size="10.00">Pane.executeEnterFunction</text>
</a>
</g>
</g>
<!-- Node24&#45;&gt;Node25 -->
<g id="edge27" class="edge"><title>Node24&#45;&gt;Node25</title>
<path fill="none" stroke="midnightblue" d="M1566.11,-21C1574.72,-21 1583.38,-21 1591.92,-21"/>
<polygon fill="midnightblue" stroke="midnightblue" points="1566.04,-17.5001 1556.04,-21 1566.04,-24.5001 1566.04,-17.5001"/>
</g>
<!-- Node26&#45;&gt;Node4 -->
<g id="edge29" class="edge"><title>Node26&#45;&gt;Node4</title>
<path fill="none" stroke="midnightblue" d="M671.454,-348.713C722.59,-371.502 797.634,-404.945 845.653,-426.345"/>
<polygon fill="midnightblue" stroke="midnightblue" points="672.755,-345.461 662.196,-344.587 669.905,-351.855 672.755,-345.461"/>
</g>
</g>
</svg>
        <g id="navigator" transform="translate(0 0)" fill="#404254">
                <rect fill="#f2f5e9" fill-opacity="0.5" stroke="#606060" stroke-width=".5" x="0" y="0" width="60" height="60"/>
                <use id="zoomplus" xlink:href="#zoomPlus" x="17" y="9" onmousedown="handleZoom(evt,'in')"/>
                <use id="zoomminus" xlink:href="#zoomMin" x="42" y="9" onmousedown="handleZoom(evt,'out')"/>
                <use id="reset" xlink:href="#resetDef" x="30" y="36" onmousedown="handleReset()"/>
                <g id="arrowUp" xlink:href="#dirArrow" transform="translate(30 24)" onmousedown="handlePan(0,-1)">
                  <use xlink:href="#rim" fill="#404040">
                        <set attributeName="fill" to="#808080" begin="arrowUp.mouseover" end="arrowUp.mouseout"/>
                  </use>
                  <path fill="none" stroke="white" stroke-width="1.5" d="M0,-3.0v7 M-2.5,-0.5L0,-3.0L2.5,-0.5"/>
                </g>
                <g id="arrowRight" xlink:href="#dirArrow" transform="rotate(90) translate(36 -43)" onmousedown="handlePan(1,0)">
                  <use xlink:href="#rim" fill="#404040">
                        <set attributeName="fill" to="#808080" begin="arrowRight.mouseover" end="arrowRight.mouseout"/>
                  </use>
                  <path fill="none" stroke="white" stroke-width="1.5" d="M0,-3.0v7 M-2.5,-0.5L0,-3.0L2.5,-0.5"/>
                </g>
                <g id="arrowDown" xlink:href="#dirArrow" transform="rotate(180) translate(-30 -48)" onmousedown="handlePan(0,1)">
                  <use xlink:href="#rim" fill="#404040">
                        <set attributeName="fill" to="#808080" begin="arrowDown.mouseover" end="arrowDown.mouseout"/>
                  </use>
                  <path fill="none" stroke="white" stroke-width="1.5" d="M0,-3.0v7 M-2.5,-0.5L0,-3.0L2.5,-0.5"/>
                </g>
                <g id="arrowLeft" xlink:href="#dirArrow" transform="rotate(270) translate(-36 17)" onmousedown="handlePan(-1,0)">
                  <use xlink:href="#rim" fill="#404040">
                        <set attributeName="fill" to="#808080" begin="arrowLeft.mouseover" end="arrowLeft.mouseout"/>
                  </use>
                  <path fill="none" stroke="white" stroke-width="1.5" d="M0,-3.0v7 M-2.5,-0.5L0,-3.0L2.5,-0.5"/>
                </g>
        </g>
        <svg viewBox="0 0 15 15" width="100%" height="30px" preserveAspectRatio="xMaxYMin meet">
         <g id="arrow_out" transform="scale(0.3 0.3)">
          <a xlink:href="interfacegame_authoring_1_1scenes_1_1path_building_1_1path_components_1_1_path_component_afce688f365df0f66dad76d541e0c2b24_icgraph_org.svg" target="_base">
           <rect id="button" ry="5" rx="5" y="6" x="6" height="38" width="38"
                fill="#f2f5e9" fill-opacity="0.5" stroke="#606060" stroke-width="1.0"/>
           <path id="arrow"
             d="M 11.500037,31.436501 C 11.940474,20.09759 22.043105,11.32322 32.158766,21.979434 L 37.068811,17.246167 C 37.068811,17.246167 37.088388,32 37.088388,32 L 22.160133,31.978069 C 22.160133,31.978069 26.997745,27.140456 26.997745,27.140456 C 18.528582,18.264221 13.291696,25.230495 11.500037,31.436501 z"
             style="fill:#404040;"/>
          </a>
         </g>
        </svg>
</svg>
