<?xml version="1.0" encoding="UTF-8" standalone="no"?>
<!DOCTYPE svg PUBLIC "-//W3C//DTD SVG 1.1//EN"
 "http://www.w3.org/Graphics/SVG/1.1/DTD/svg11.dtd">
<!-- Generated by graphviz version 2.36.0 (20140111.2315)
 -->
<!-- Title: gameAuthoring.scenes.pathBuilding.pathComponents.PathComponent.getEndingPoint Pages: 1 -->
<!--zoomable 962 -->
<svg id="main" version="1.1" xmlns="http://www.w3.org/2000/svg" xmlns:xlink="http://www.w3.org/1999/xlink" xml:space="preserve" onload="init(evt)">
<style type="text/css"><![CDATA[
.edge:hover path { stroke: red; }
.edge:hover polygon { stroke: red; fill: red; }
]]></style>
<script type="text/javascript"><![CDATA[
var edges = document.getElementsByTagName('g');
if (edges && edges.length) {
  for (var i=0;i<edges.length;i++) {
    if (edges[i].id.substr(0,4)=='edge') {
      edges[i].setAttribute('class','edge');
    }
  }
}
]]></script>
        <defs>
                <circle id="rim" cx="0" cy="0" r="7"/>
                <circle id="rim2" cx="0" cy="0" r="3.5"/>
                <g id="zoomPlus">
                        <use xlink:href="#rim" fill="#404040">
                                <set attributeName="fill" to="#808080" begin="zoomplus.mouseover" end="zoomplus.mouseout"/>
                        </use>
                        <path d="M-4,0h8M0,-4v8" fill="none" stroke="white" stroke-width="1.5" pointer-events="none"/>
                </g>
                <g id="zoomMin">
                        <use xlink:href="#rim" fill="#404040">
                                <set attributeName="fill" to="#808080" begin="zoomminus.mouseover" end="zoomminus.mouseout"/>
                        </use>
                        <path d="M-4,0h8" fill="none" stroke="white" stroke-width="1.5" pointer-events="none"/>
                </g>
                <g id="dirArrow">
                        <path fill="none" stroke="white" stroke-width="1.5" d="M0,-3.0v7 M-2.5,-0.5L0,-3.0L2.5,-0.5"/>
                </g>
               <g id="resetDef">
                       <use xlink:href="#rim2" fill="#404040">
                               <set attributeName="fill" to="#808080" begin="reset.mouseover" end="reset.mouseout"/>
                       </use>
               </g>
        </defs>

<script type="text/javascript">
var viewWidth = 1810;
var viewHeight = 962;
var sectionId = 'dynsection-1';
</script>
<script xlink:href="../../svgpan.js"/>
<svg id="graph" class="graph">
<g id="viewport">
<title>gameAuthoring.scenes.pathBuilding.pathComponents.PathComponent.getEndingPoint</title>
<polygon fill="white" stroke="none" points="-4,4 -4,-958 1806,-958 1806,4 -4,4"/>
<!-- Node1 -->
<g id="node1" class="node"><title>Node1</title>
<polygon fill="#bfbfbf" stroke="black" points="0.5,-241.5 0.5,-282.5 239.5,-282.5 239.5,-241.5 0.5,-241.5"/>
<text text-anchor="start" x="8.5" y="-270.5" font-family="Helvetica,sans-Serif" font-size="10.00">gameAuthoring.scenes.path</text>
<text text-anchor="start" x="8.5" y="-259.5" font-family="Helvetica,sans-Serif" font-size="10.00">Building.pathComponents.PathComponent.get</text>
<text text-anchor="middle" x="120" y="-248.5" font-family="Helvetica,sans-Serif" font-size="10.00">EndingPoint</text>
</g>
<!-- Node2 -->
<g id="node2" class="node"><title>Node2</title>
<g id="a_node2"><a xlink:href="../../d1/d65/classgame_authoring_1_1scenes_1_1path_building_1_1path_components_1_1_path.html#a6ea935a9238c3c073740926923914205" target="_top" xlink:title="gameAuthoring.scenes.path\lBuilding.pathComponents.Path.close\lEnoughToConnect">
<polygon fill="white" stroke="black" points="283,-325.5 283,-366.5 475,-366.5 475,-325.5 283,-325.5"/>
<text text-anchor="start" x="291" y="-354.5" font-family="Helvetica,sans-Serif" font-size="10.00">gameAuthoring.scenes.path</text>
<text text-anchor="start" x="291" y="-343.5" font-family="Helvetica,sans-Serif" font-size="10.00">Building.pathComponents.Path.close</text>
<text text-anchor="middle" x="379" y="-332.5" font-family="Helvetica,sans-Serif" font-size="10.00">EnoughToConnect</text>
</a>
</g>
</g>
<!-- Node1&#45;&gt;Node2 -->
<g id="edge1" class="edge"><title>Node1&#45;&gt;Node2</title>
<path fill="none" stroke="midnightblue" d="M193.403,-285.665C231.644,-298.164 278.132,-313.358 314.889,-325.372"/>
<polygon fill="midnightblue" stroke="midnightblue" points="194.462,-282.329 183.869,-282.549 192.287,-288.982 194.462,-282.329"/>
</g>
<!-- Node26 -->
<g id="node26" class="node"><title>Node26</title>
<g id="a_node26"><a xlink:href="../../d1/d65/classgame_authoring_1_1scenes_1_1path_building_1_1path_components_1_1_path.html#ab8d42b0db73a69b6c63a74445e552045" target="_top" xlink:title="gameAuthoring.scenes.path\lBuilding.pathComponents.Path.connect\lRoutes">
<polygon fill="white" stroke="black" points="276,-241.5 276,-282.5 482,-282.5 482,-241.5 276,-241.5"/>
<text text-anchor="start" x="284" y="-270.5" font-family="Helvetica,sans-Serif" font-size="10.00">gameAuthoring.scenes.path</text>
<text text-anchor="start" x="284" y="-259.5" font-family="Helvetica,sans-Serif" font-size="10.00">Building.pathComponents.Path.connect</text>
<text text-anchor="middle" x="379" y="-248.5" font-family="Helvetica,sans-Serif" font-size="10.00">Routes</text>
</a>
</g>
</g>
<!-- Node1&#45;&gt;Node26 -->
<g id="edge28" class="edge"><title>Node1&#45;&gt;Node26</title>
<path fill="none" stroke="midnightblue" d="M249.948,-262C258.667,-262 267.383,-262 275.937,-262"/>
<polygon fill="midnightblue" stroke="midnightblue" points="249.72,-258.5 239.72,-262 249.72,-265.5 249.72,-258.5"/>
</g>
<!-- Node27 -->
<g id="node27" class="node"><title>Node27</title>
<g id="a_node27"><a xlink:href="../../d1/d65/classgame_authoring_1_1scenes_1_1path_building_1_1path_components_1_1_path.html#a15aa19b79c590df6ddbb354798c999c9" target="_top" xlink:title="gameAuthoring.scenes.path\lBuilding.pathComponents.Path.try\lToAddConnectComponentToEndingLocation">
<polygon fill="white" stroke="black" points="779,-90.5 779,-131.5 1003,-131.5 1003,-90.5 779,-90.5"/>
<text text-anchor="start" x="787" y="-119.5" font-family="Helvetica,sans-Serif" font-size="10.00">gameAuthoring.scenes.path</text>
<text text-anchor="start" x="787" y="-108.5" font-family="Helvetica,sans-Serif" font-size="10.00">Building.pathComponents.Path.try</text>
<text text-anchor="middle" x="891" y="-97.5" font-family="Helvetica,sans-Serif" font-size="10.00">ToAddConnectComponentToEndingLocation</text>
</a>
</g>
</g>
<!-- Node1&#45;&gt;Node27 -->
<g id="edge31" class="edge"><title>Node1&#45;&gt;Node27</title>
<path fill="none" stroke="midnightblue" d="M235.588,-239.5C384.316,-210.296 641.753,-159.745 785.409,-131.537"/>
<polygon fill="midnightblue" stroke="midnightblue" points="234.649,-236.117 225.511,-241.478 235.998,-242.986 234.649,-236.117"/>
</g>
<!-- Node3 -->
<g id="node3" class="node"><title>Node3</title>
<g id="a_node3"><a xlink:href="../../d1/d65/classgame_authoring_1_1scenes_1_1path_building_1_1path_components_1_1_path.html#af2f92d642a6fe0c48c6b87193d462f00" target="_top" xlink:title="gameAuthoring.scenes.path\lBuilding.pathComponents.Path.attempt\lToConnectRoutes">
<polygon fill="white" stroke="black" points="518,-337.5 518,-378.5 724,-378.5 724,-337.5 518,-337.5"/>
<text text-anchor="start" x="526" y="-366.5" font-family="Helvetica,sans-Serif" font-size="10.00">gameAuthoring.scenes.path</text>
<text text-anchor="start" x="526" y="-355.5" font-family="Helvetica,sans-Serif" font-size="10.00">Building.pathComponents.Path.attempt</text>
<text text-anchor="middle" x="621" y="-344.5" font-family="Helvetica,sans-Serif" font-size="10.00">ToConnectRoutes</text>
</a>
</g>
</g>
<!-- Node2&#45;&gt;Node3 -->
<g id="edge2" class="edge"><title>Node2&#45;&gt;Node3</title>
<path fill="none" stroke="midnightblue" d="M485.445,-351.272C496.194,-351.81 507.101,-352.355 517.814,-352.891"/>
<polygon fill="midnightblue" stroke="midnightblue" points="485.361,-347.764 475.199,-350.76 485.012,-354.755 485.361,-347.764"/>
</g>
<!-- Node4 -->
<g id="node4" class="node"><title>Node4</title>
<g id="a_node4"><a xlink:href="../../d1/d65/classgame_authoring_1_1scenes_1_1path_building_1_1path_components_1_1_path.html#acffcf828c8875053d700834381b6b747" target="_top" xlink:title="gameAuthoring.scenes.path\lBuilding.pathComponents.Path.add\lComponentToPath">
<polygon fill="white" stroke="black" points="798.5,-390.5 798.5,-431.5 983.5,-431.5 983.5,-390.5 798.5,-390.5"/>
<text text-anchor="start" x="806.5" y="-419.5" font-family="Helvetica,sans-Serif" font-size="10.00">gameAuthoring.scenes.path</text>
<text text-anchor="start" x="806.5" y="-408.5" font-family="Helvetica,sans-Serif" font-size="10.00">Building.pathComponents.Path.add</text>
<text text-anchor="middle" x="891" y="-397.5" font-family="Helvetica,sans-Serif" font-size="10.00">ComponentToPath</text>
</a>
</g>
</g>
<!-- Node3&#45;&gt;Node4 -->
<g id="edge3" class="edge"><title>Node3&#45;&gt;Node4</title>
<path fill="none" stroke="midnightblue" d="M734.17,-380.183C755.538,-384.409 777.667,-388.785 798.304,-392.866"/>
<polygon fill="midnightblue" stroke="midnightblue" points="734.573,-376.695 724.084,-378.188 733.215,-383.562 734.573,-376.695"/>
</g>
<!-- Node7 -->
<g id="node7" class="node"><title>Node7</title>
<g id="a_node7"><a xlink:href="../../d2/d34/classgame_authoring_1_1scenes_1_1path_building_1_1path_components_1_1_path_creation_tests.html#ac9531a7f491a2dd23e3f1f4fefeae341" target="_top" xlink:title="gameAuthoring.scenes.path\lBuilding.pathComponents.PathCreation\lTests.AttemptToConnectRoutesFORKTest">
<polygon fill="white" stroke="black" points="1078,-240.5 1078,-281.5 1286,-281.5 1286,-240.5 1078,-240.5"/>
<text text-anchor="start" x="1086" y="-269.5" font-family="Helvetica,sans-Serif" font-size="10.00">gameAuthoring.scenes.path</text>
<text text-anchor="start" x="1086" y="-258.5" font-family="Helvetica,sans-Serif" font-size="10.00">Building.pathComponents.PathCreation</text>
<text text-anchor="middle" x="1182" y="-247.5" font-family="Helvetica,sans-Serif" font-size="10.00">Tests.AttemptToConnectRoutesFORKTest</text>
</a>
</g>
</g>
<!-- Node3&#45;&gt;Node7 -->
<g id="edge22" class="edge"><title>Node3&#45;&gt;Node7</title>
<path fill="none" stroke="midnightblue" d="M734.064,-338.554C834.309,-321.159 980.064,-295.867 1077.58,-278.946"/>
<polygon fill="midnightblue" stroke="midnightblue" points="733.458,-335.107 724.204,-340.265 734.655,-342.004 733.458,-335.107"/>
</g>
<!-- Node8 -->
<g id="node8" class="node"><title>Node8</title>
<g id="a_node8"><a xlink:href="../../d2/d34/classgame_authoring_1_1scenes_1_1path_building_1_1path_components_1_1_path_creation_tests.html#a6981d0f68e924cf3aca2ebb00a781c66" target="_top" xlink:title="gameAuthoring.scenes.path\lBuilding.pathComponents.PathCreation\lTests.AttemptToConnectRoutesNoForkTest">
<polygon fill="white" stroke="black" points="1073,-852.5 1073,-893.5 1291,-893.5 1291,-852.5 1073,-852.5"/>
<text text-anchor="start" x="1081" y="-881.5" font-family="Helvetica,sans-Serif" font-size="10.00">gameAuthoring.scenes.path</text>
<text text-anchor="start" x="1081" y="-870.5" font-family="Helvetica,sans-Serif" font-size="10.00">Building.pathComponents.PathCreation</text>
<text text-anchor="middle" x="1182" y="-859.5" font-family="Helvetica,sans-Serif" font-size="10.00">Tests.AttemptToConnectRoutesNoForkTest</text>
</a>
</g>
</g>
<!-- Node3&#45;&gt;Node8 -->
<g id="edge23" class="edge"><title>Node3&#45;&gt;Node8</title>
<path fill="none" stroke="midnightblue" d="M644.192,-386.745C717.626,-481.166 953.974,-779.331 1058,-842 1064.6,-845.977 1071.7,-849.447 1079.03,-852.472"/>
<polygon fill="midnightblue" stroke="midnightblue" points="646.893,-384.517 637.996,-378.765 641.364,-388.81 646.893,-384.517"/>
</g>
<!-- Node22 -->
<g id="node22" class="node"><title>Node22</title>
<g id="a_node22"><a xlink:href="../../d7/da7/classgame_authoring_1_1scenes_1_1path_building_1_1building_panes_1_1_select_component_pane.html#abfee75cf2b6d4ca0978cc7b44d15f3de" target="_top" xlink:title="gameAuthoring.scenes.path\lBuilding.buildingPanes.SelectComponent\lPane.handleSelectionAndTryToConnectComponents">
<polygon fill="white" stroke="black" points="760,-825.5 760,-866.5 1022,-866.5 1022,-825.5 760,-825.5"/>
<text text-anchor="start" x="768" y="-854.5" font-family="Helvetica,sans-Serif" font-size="10.00">gameAuthoring.scenes.path</text>
<text text-anchor="start" x="768" y="-843.5" font-family="Helvetica,sans-Serif" font-size="10.00">Building.buildingPanes.SelectComponent</text>
<text text-anchor="middle" x="891" y="-832.5" font-family="Helvetica,sans-Serif" font-size="10.00">Pane.handleSelectionAndTryToConnectComponents</text>
</a>
</g>
</g>
<!-- Node3&#45;&gt;Node22 -->
<g id="edge24" class="edge"><title>Node3&#45;&gt;Node22</title>
<path fill="none" stroke="midnightblue" d="M630.876,-388.628C649.361,-449.754 695.677,-590.024 760,-695 791.447,-746.322 840.203,-797.637 868.21,-825.244"/>
<polygon fill="midnightblue" stroke="midnightblue" points="634.167,-387.415 627.949,-378.836 627.46,-389.42 634.167,-387.415"/>
</g>
<!-- Node5 -->
<g id="node5" class="node"><title>Node5</title>
<g id="a_node5"><a xlink:href="../../d2/d34/classgame_authoring_1_1scenes_1_1path_building_1_1path_components_1_1_path_creation_tests.html#a0911a7565ec3a567911ed649f2c837d0" target="_top" xlink:title="gameAuthoring.scenes.path\lBuilding.pathComponents.PathCreation\lTests.AddSingleCurveComponentTest">
<polygon fill="white" stroke="black" points="1079.5,-600.5 1079.5,-641.5 1284.5,-641.5 1284.5,-600.5 1079.5,-600.5"/>
<text text-anchor="start" x="1087.5" y="-629.5" font-family="Helvetica,sans-Serif" font-size="10.00">gameAuthoring.scenes.path</text>
<text text-anchor="start" x="1087.5" y="-618.5" font-family="Helvetica,sans-Serif" font-size="10.00">Building.pathComponents.PathCreation</text>
<text text-anchor="middle" x="1182" y="-607.5" font-family="Helvetica,sans-Serif" font-size="10.00">Tests.AddSingleCurveComponentTest</text>
</a>
</g>
</g>
<!-- Node4&#45;&gt;Node5 -->
<g id="edge4" class="edge"><title>Node4&#45;&gt;Node5</title>
<path fill="none" stroke="midnightblue" d="M910.965,-440.305C938.462,-480.368 993.256,-551.631 1058,-590 1064.73,-593.986 1071.95,-597.462 1079.41,-600.494"/>
<polygon fill="midnightblue" stroke="midnightblue" points="913.701,-438.103 905.202,-431.778 907.902,-442.023 913.701,-438.103"/>
</g>
<!-- Node6 -->
<g id="node6" class="node"><title>Node6</title>
<g id="a_node6"><a xlink:href="../../d2/d34/classgame_authoring_1_1scenes_1_1path_building_1_1path_components_1_1_path_creation_tests.html#a8299a5b4ff7674dbfa2223a26fd4c2db" target="_top" xlink:title="gameAuthoring.scenes.path\lBuilding.pathComponents.PathCreation\lTests.AddSingleLineComponentTest">
<polygon fill="white" stroke="black" points="1079.5,-540.5 1079.5,-581.5 1284.5,-581.5 1284.5,-540.5 1079.5,-540.5"/>
<text text-anchor="start" x="1087.5" y="-569.5" font-family="Helvetica,sans-Serif" font-size="10.00">gameAuthoring.scenes.path</text>
<text text-anchor="start" x="1087.5" y="-558.5" font-family="Helvetica,sans-Serif" font-size="10.00">Building.pathComponents.PathCreation</text>
<text text-anchor="middle" x="1182" y="-547.5" font-family="Helvetica,sans-Serif" font-size="10.00">Tests.AddSingleLineComponentTest</text>
</a>
</g>
</g>
<!-- Node4&#45;&gt;Node6 -->
<g id="edge5" class="edge"><title>Node4&#45;&gt;Node6</title>
<path fill="none" stroke="midnightblue" d="M922.297,-438.14C953.994,-465.167 1006.26,-505.991 1058,-530 1066.49,-533.939 1075.55,-537.425 1084.76,-540.499"/>
<polygon fill="midnightblue" stroke="midnightblue" points="924.554,-435.464 914.695,-431.585 919.982,-440.766 924.554,-435.464"/>
</g>
<!-- Node4&#45;&gt;Node7 -->
<g id="edge6" class="edge"><title>Node4&#45;&gt;Node7</title>
<path fill="none" stroke="midnightblue" d="M992.911,-387.943C1003.45,-382.838 1013.42,-376.607 1022,-369 1050.57,-343.668 1028.52,-315.268 1058,-291 1064.02,-286.04 1070.74,-281.879 1077.85,-278.391"/>
<polygon fill="midnightblue" stroke="midnightblue" points="991.224,-384.863 983.528,-392.145 994.085,-391.252 991.224,-384.863"/>
</g>
<!-- Node4&#45;&gt;Node8 -->
<g id="edge7" class="edge"><title>Node4&#45;&gt;Node8</title>
<path fill="none" stroke="midnightblue" d="M910.21,-440.358C938.234,-486.787 991.845,-580.761 1022,-667 1048.21,-741.956 1003.1,-784.629 1058,-842 1062.42,-846.614 1067.41,-850.581 1072.79,-853.987"/>
<polygon fill="midnightblue" stroke="midnightblue" points="913.146,-438.45 904.961,-431.723 907.164,-442.086 913.146,-438.45"/>
</g>
<!-- Node9 -->
<g id="node9" class="node"><title>Node9</title>
<g id="a_node9"><a xlink:href="../../d2/d34/classgame_authoring_1_1scenes_1_1path_building_1_1path_components_1_1_path_creation_tests.html#adbb59fd676db1e150df898e9509dd212" target="_top" xlink:title="gameAuthoring.scenes.path\lBuilding.pathComponents.PathCreation\lTests.ConnectComponentToEndingLocationTest">
<polygon fill="white" stroke="black" points="1061.5,-60.5 1061.5,-101.5 1302.5,-101.5 1302.5,-60.5 1061.5,-60.5"/>
<text text-anchor="start" x="1069.5" y="-89.5" font-family="Helvetica,sans-Serif" font-size="10.00">gameAuthoring.scenes.path</text>
<text text-anchor="start" x="1069.5" y="-78.5" font-family="Helvetica,sans-Serif" font-size="10.00">Building.pathComponents.PathCreation</text>
<text text-anchor="middle" x="1182" y="-67.5" font-family="Helvetica,sans-Serif" font-size="10.00">Tests.ConnectComponentToEndingLocationTest</text>
</a>
</g>
</g>
<!-- Node4&#45;&gt;Node9 -->
<g id="edge8" class="edge"><title>Node4&#45;&gt;Node9</title>
<path fill="none" stroke="midnightblue" d="M899.888,-380.658C917.391,-319.6 965.437,-181.706 1058,-111 1062.63,-107.464 1067.62,-104.339 1072.84,-101.577"/>
<polygon fill="midnightblue" stroke="midnightblue" points="896.471,-379.883 897.155,-390.455 903.214,-381.764 896.471,-379.883"/>
</g>
<!-- Node10 -->
<g id="node10" class="node"><title>Node10</title>
<g id="a_node10"><a xlink:href="../../d2/d34/classgame_authoring_1_1scenes_1_1path_building_1_1path_components_1_1_path_creation_tests.html#afcc8871849fbf8c9a24a5b382c77a167" target="_top" xlink:title="gameAuthoring.scenes.path\lBuilding.pathComponents.PathCreation\lTests.ConnectComponentToStartingLocationTest">
<polygon fill="white" stroke="black" points="1058.5,-480.5 1058.5,-521.5 1305.5,-521.5 1305.5,-480.5 1058.5,-480.5"/>
<text text-anchor="start" x="1066.5" y="-509.5" font-family="Helvetica,sans-Serif" font-size="10.00">gameAuthoring.scenes.path</text>
<text text-anchor="start" x="1066.5" y="-498.5" font-family="Helvetica,sans-Serif" font-size="10.00">Building.pathComponents.PathCreation</text>
<text text-anchor="middle" x="1182" y="-487.5" font-family="Helvetica,sans-Serif" font-size="10.00">Tests.ConnectComponentToStartingLocationTest</text>
</a>
</g>
</g>
<!-- Node4&#45;&gt;Node10 -->
<g id="edge9" class="edge"><title>Node4&#45;&gt;Node10</title>
<path fill="none" stroke="midnightblue" d="M955.498,-435.158C986.23,-446.441 1023.8,-459.636 1058,-470 1069.91,-473.608 1082.55,-477.133 1095.02,-480.437"/>
<polygon fill="midnightblue" stroke="midnightblue" points="956.367,-431.748 945.774,-431.568 953.943,-438.315 956.367,-431.748"/>
</g>
<!-- Node11 -->
<g id="node11" class="node"><title>Node11</title>
<g id="a_node11"><a xlink:href="../../d2/d34/classgame_authoring_1_1scenes_1_1path_building_1_1path_components_1_1_path_creation_tests.html#abc7f89653e322c800da5fc26c4719b5a" target="_top" xlink:title="gameAuthoring.scenes.path\lBuilding.pathComponents.PathCreation\lTests.ConnectLineToCurveTest">
<polygon fill="white" stroke="black" points="1079.5,-420.5 1079.5,-461.5 1284.5,-461.5 1284.5,-420.5 1079.5,-420.5"/>
<text text-anchor="start" x="1087.5" y="-449.5" font-family="Helvetica,sans-Serif" font-size="10.00">gameAuthoring.scenes.path</text>
<text text-anchor="start" x="1087.5" y="-438.5" font-family="Helvetica,sans-Serif" font-size="10.00">Building.pathComponents.PathCreation</text>
<text text-anchor="middle" x="1182" y="-427.5" font-family="Helvetica,sans-Serif" font-size="10.00">Tests.ConnectLineToCurveTest</text>
</a>
</g>
</g>
<!-- Node4&#45;&gt;Node11 -->
<g id="edge10" class="edge"><title>Node4&#45;&gt;Node11</title>
<path fill="none" stroke="midnightblue" d="M993.938,-421.582C1021.66,-424.459 1051.67,-427.575 1079.37,-430.45"/>
<polygon fill="midnightblue" stroke="midnightblue" points="994.146,-418.085 983.838,-420.533 993.424,-425.047 994.146,-418.085"/>
</g>
<!-- Node12 -->
<g id="node12" class="node"><title>Node12</title>
<g id="a_node12"><a xlink:href="../../d2/d34/classgame_authoring_1_1scenes_1_1path_building_1_1path_components_1_1_path_creation_tests.html#a7271f13f8ea9f6e6f9137d8237802963" target="_top" xlink:title="gameAuthoring.scenes.path\lBuilding.pathComponents.PathCreation\lTests.ConnectRoutesTest">
<polygon fill="white" stroke="black" points="1079.5,-180.5 1079.5,-221.5 1284.5,-221.5 1284.5,-180.5 1079.5,-180.5"/>
<text text-anchor="start" x="1087.5" y="-209.5" font-family="Helvetica,sans-Serif" font-size="10.00">gameAuthoring.scenes.path</text>
<text text-anchor="start" x="1087.5" y="-198.5" font-family="Helvetica,sans-Serif" font-size="10.00">Building.pathComponents.PathCreation</text>
<text text-anchor="middle" x="1182" y="-187.5" font-family="Helvetica,sans-Serif" font-size="10.00">Tests.ConnectRoutesTest</text>
</a>
</g>
</g>
<!-- Node4&#45;&gt;Node12 -->
<g id="edge11" class="edge"><title>Node4&#45;&gt;Node12</title>
<path fill="none" stroke="midnightblue" d="M910.497,-382.029C937.769,-341.765 992.66,-269.507 1058,-231 1064.72,-227.038 1071.95,-223.598 1079.4,-220.612"/>
<polygon fill="midnightblue" stroke="midnightblue" points="907.584,-380.089 904.947,-390.35 913.408,-383.973 907.584,-380.089"/>
</g>
<!-- Node13 -->
<g id="node13" class="node"><title>Node13</title>
<g id="a_node13"><a xlink:href="../../d2/d34/classgame_authoring_1_1scenes_1_1path_building_1_1path_components_1_1_path_creation_tests.html#a890f9b36b921569b05338a8b8658e03b" target="_top" xlink:title="gameAuthoring.scenes.path\lBuilding.pathComponents.PathCreation\lTests.ConnectTwoCurvesTest">
<polygon fill="white" stroke="black" points="1079.5,-360.5 1079.5,-401.5 1284.5,-401.5 1284.5,-360.5 1079.5,-360.5"/>
<text text-anchor="start" x="1087.5" y="-389.5" font-family="Helvetica,sans-Serif" font-size="10.00">gameAuthoring.scenes.path</text>
<text text-anchor="start" x="1087.5" y="-378.5" font-family="Helvetica,sans-Serif" font-size="10.00">Building.pathComponents.PathCreation</text>
<text text-anchor="middle" x="1182" y="-367.5" font-family="Helvetica,sans-Serif" font-size="10.00">Tests.ConnectTwoCurvesTest</text>
</a>
</g>
</g>
<!-- Node4&#45;&gt;Node13 -->
<g id="edge12" class="edge"><title>Node4&#45;&gt;Node13</title>
<path fill="none" stroke="midnightblue" d="M993.938,-400.418C1021.66,-397.541 1051.67,-394.425 1079.37,-391.55"/>
<polygon fill="midnightblue" stroke="midnightblue" points="993.424,-396.953 983.838,-401.467 994.146,-403.915 993.424,-396.953"/>
</g>
<!-- Node14 -->
<g id="node14" class="node"><title>Node14</title>
<g id="a_node14"><a xlink:href="../../d2/d34/classgame_authoring_1_1scenes_1_1path_building_1_1path_components_1_1_path_creation_tests.html#ad3d391bd2d9c1a46dc8244db73f7448a" target="_top" xlink:title="gameAuthoring.scenes.path\lBuilding.pathComponents.PathCreation\lTests.ConnectTwoLinesTest">
<polygon fill="white" stroke="black" points="1079.5,-300.5 1079.5,-341.5 1284.5,-341.5 1284.5,-300.5 1079.5,-300.5"/>
<text text-anchor="start" x="1087.5" y="-329.5" font-family="Helvetica,sans-Serif" font-size="10.00">gameAuthoring.scenes.path</text>
<text text-anchor="start" x="1087.5" y="-318.5" font-family="Helvetica,sans-Serif" font-size="10.00">Building.pathComponents.PathCreation</text>
<text text-anchor="middle" x="1182" y="-307.5" font-family="Helvetica,sans-Serif" font-size="10.00">Tests.ConnectTwoLinesTest</text>
</a>
</g>
</g>
<!-- Node4&#45;&gt;Node14 -->
<g id="edge13" class="edge"><title>Node4&#45;&gt;Node14</title>
<path fill="none" stroke="midnightblue" d="M971.936,-387.279C988.647,-381.735 1006.03,-375.527 1022,-369 1038.56,-362.231 1041.2,-357.158 1058,-351 1067.39,-347.557 1077.33,-344.39 1087.32,-341.511"/>
<polygon fill="midnightblue" stroke="midnightblue" points="970.608,-384.031 962.19,-390.464 972.783,-390.684 970.608,-384.031"/>
</g>
<!-- Node15 -->
<g id="node15" class="node"><title>Node15</title>
<g id="a_node15"><a xlink:href="../../d2/d34/classgame_authoring_1_1scenes_1_1path_building_1_1path_components_1_1_path_creation_tests.html#a1f6df71a1808af781e53fb0ebe9eb1fa" target="_top" xlink:title="gameAuthoring.scenes.path\lBuilding.pathComponents.PathCreation\lTests.CreateTwoRoutesTest">
<polygon fill="white" stroke="black" points="1079.5,-792.5 1079.5,-833.5 1284.5,-833.5 1284.5,-792.5 1079.5,-792.5"/>
<text text-anchor="start" x="1087.5" y="-821.5" font-family="Helvetica,sans-Serif" font-size="10.00">gameAuthoring.scenes.path</text>
<text text-anchor="start" x="1087.5" y="-810.5" font-family="Helvetica,sans-Serif" font-size="10.00">Building.pathComponents.PathCreation</text>
<text text-anchor="middle" x="1182" y="-799.5" font-family="Helvetica,sans-Serif" font-size="10.00">Tests.CreateTwoRoutesTest</text>
</a>
</g>
</g>
<!-- Node4&#45;&gt;Node15 -->
<g id="edge14" class="edge"><title>Node4&#45;&gt;Node15</title>
<path fill="none" stroke="midnightblue" d="M908.967,-440.392C935.53,-487.225 987.463,-582.168 1022,-667 1042.19,-716.604 1019.08,-745.214 1058,-782 1064.32,-787.975 1071.62,-792.844 1079.45,-796.806"/>
<polygon fill="midnightblue" stroke="midnightblue" points="911.997,-438.64 904.005,-431.684 905.915,-442.105 911.997,-438.64"/>
</g>
<!-- Node16 -->
<g id="node16" class="node"><title>Node16</title>
<g id="a_node16"><a xlink:href="../../d2/d34/classgame_authoring_1_1scenes_1_1path_building_1_1path_components_1_1_path_creation_tests.html#af5b11ca9b84de06fbdf1bdd7ddf1b459" target="_top" xlink:title="gameAuthoring.scenes.path\lBuilding.pathComponents.PathCreation\lTests.GetRouteContainingComponentTest">
<polygon fill="white" stroke="black" points="1075,-732.5 1075,-773.5 1289,-773.5 1289,-732.5 1075,-732.5"/>
<text text-anchor="start" x="1083" y="-761.5" font-family="Helvetica,sans-Serif" font-size="10.00">gameAuthoring.scenes.path</text>
<text text-anchor="start" x="1083" y="-750.5" font-family="Helvetica,sans-Serif" font-size="10.00">Building.pathComponents.PathCreation</text>
<text text-anchor="middle" x="1182" y="-739.5" font-family="Helvetica,sans-Serif" font-size="10.00">Tests.GetRouteContainingComponentTest</text>
</a>
</g>
</g>
<!-- Node4&#45;&gt;Node16 -->
<g id="edge15" class="edge"><title>Node4&#45;&gt;Node16</title>
<path fill="none" stroke="midnightblue" d="M907.001,-440.645C945.486,-516.483 1045.57,-712.283 1058,-722 1063.2,-726.07 1068.88,-729.612 1074.84,-732.693"/>
<polygon fill="midnightblue" stroke="midnightblue" points="910.057,-438.933 902.413,-431.597 903.814,-442.098 910.057,-438.933"/>
</g>
<!-- Node17 -->
<g id="node17" class="node"><title>Node17</title>
<g id="a_node17"><a xlink:href="../../db/d5b/classgame_authoring_1_1scenes_1_1path_building_1_1building_panes_1_1_line_drawing_pane.html#a1592c5e4b43e931037cfcf357896ff4e" target="_top" xlink:title="gameAuthoring.scenes.path\lBuilding.buildingPanes.LineDrawing\lPane.handleBuildScreenClick">
<polygon fill="white" stroke="black" points="1090.5,-0.5 1090.5,-41.5 1273.5,-41.5 1273.5,-0.5 1090.5,-0.5"/>
<text text-anchor="start" x="1098.5" y="-29.5" font-family="Helvetica,sans-Serif" font-size="10.00">gameAuthoring.scenes.path</text>
<text text-anchor="start" x="1098.5" y="-18.5" font-family="Helvetica,sans-Serif" font-size="10.00">Building.buildingPanes.LineDrawing</text>
<text text-anchor="middle" x="1182" y="-7.5" font-family="Helvetica,sans-Serif" font-size="10.00">Pane.handleBuildScreenClick</text>
</a>
</g>
</g>
<!-- Node4&#45;&gt;Node17 -->
<g id="edge16" class="edge"><title>Node4&#45;&gt;Node17</title>
<path fill="none" stroke="midnightblue" d="M907.012,-381.285C931.882,-331.718 982.774,-228.832 1022,-140 1039.24,-100.967 1025.72,-78.9044 1058,-51 1067.4,-42.8784 1078.63,-36.8805 1090.45,-32.4644"/>
<polygon fill="midnightblue" stroke="midnightblue" points="903.761,-379.96 902.396,-390.467 910.015,-383.104 903.761,-379.96"/>
</g>
<!-- Node18 -->
<g id="node18" class="node"><title>Node18</title>
<g id="a_node18"><a xlink:href="../../d1/dad/classgame_authoring_1_1scenes_1_1path_building_1_1building_panes_1_1_curve_drawing_pane.html#a9b35c65041978c3a4628a16e26033a42" target="_top" xlink:title="gameAuthoring.scenes.path\lBuilding.buildingPanes.CurveDrawing\lPane.handleBuildScreenClick">
<polygon fill="white" stroke="black" points="1086.5,-120.5 1086.5,-161.5 1277.5,-161.5 1277.5,-120.5 1086.5,-120.5"/>
<text text-anchor="start" x="1094.5" y="-149.5" font-family="Helvetica,sans-Serif" font-size="10.00">gameAuthoring.scenes.path</text>
<text text-anchor="start" x="1094.5" y="-138.5" font-family="Helvetica,sans-Serif" font-size="10.00">Building.buildingPanes.CurveDrawing</text>
<text text-anchor="middle" x="1182" y="-127.5" font-family="Helvetica,sans-Serif" font-size="10.00">Pane.handleBuildScreenClick</text>
</a>
</g>
</g>
<!-- Node4&#45;&gt;Node18 -->
<g id="edge17" class="edge"><title>Node4&#45;&gt;Node18</title>
<path fill="none" stroke="midnightblue" d="M904.175,-380.915C926.582,-329.506 979.373,-225.076 1058,-171 1066.6,-165.084 1076.25,-160.33 1086.25,-156.511"/>
<polygon fill="midnightblue" stroke="midnightblue" points="900.933,-379.596 900.222,-390.167 907.37,-382.346 900.933,-379.596"/>
</g>
<!-- Node21 -->
<g id="node21" class="node"><title>Node21</title>
<g id="a_node21"><a xlink:href="../../d0/d17/classgame_authoring_1_1scenes_1_1path_building_1_1path_components_1_1route_to_point_translation_02993d587809a0174c9c81c680c3a1c8.html#a112d08c7563a9a6d9b371ea3c5fb0015" target="_top" xlink:title="gameAuthoring.scenes.path\lBuilding.pathComponents.routeTo\lPointTranslation.BackendRouteTranslation\lTests.testRoutesTranslation">
<polygon fill="white" stroke="black" points="1075,-661 1075,-713 1289,-713 1289,-661 1075,-661"/>
<text text-anchor="start" x="1083" y="-701" font-family="Helvetica,sans-Serif" font-size="10.00">gameAuthoring.scenes.path</text>
<text text-anchor="start" x="1083" y="-690" font-family="Helvetica,sans-Serif" font-size="10.00">Building.pathComponents.routeTo</text>
<text text-anchor="start" x="1083" y="-679" font-family="Helvetica,sans-Serif" font-size="10.00">PointTranslation.BackendRouteTranslation</text>
<text text-anchor="middle" x="1182" y="-668" font-family="Helvetica,sans-Serif" font-size="10.00">Tests.testRoutesTranslation</text>
</a>
</g>
</g>
<!-- Node4&#45;&gt;Node21 -->
<g id="edge21" class="edge"><title>Node4&#45;&gt;Node21</title>
<path fill="none" stroke="midnightblue" d="M904.831,-441.225C927.929,-492.009 981.347,-594.349 1058,-650 1063.59,-654.061 1069.64,-657.682 1075.94,-660.908"/>
<polygon fill="midnightblue" stroke="midnightblue" points="907.889,-439.49 900.617,-431.785 901.497,-442.343 907.889,-439.49"/>
</g>
<!-- Node19 -->
<g id="node19" class="node"><title>Node19</title>
<g id="a_node19"><a xlink:href="../../d1/dad/classgame_authoring_1_1scenes_1_1path_building_1_1building_panes_1_1_curve_drawing_pane.html#a4157681e1cbd0859e25b7ece8ff99a56" target="_top" xlink:title="gameAuthoring.scenes.path\lBuilding.buildingPanes.CurveDrawing\lPane.addListeners">
<polygon fill="white" stroke="black" points="1352.5,-120.5 1352.5,-161.5 1543.5,-161.5 1543.5,-120.5 1352.5,-120.5"/>
<text text-anchor="start" x="1360.5" y="-149.5" font-family="Helvetica,sans-Serif" font-size="10.00">gameAuthoring.scenes.path</text>
<text text-anchor="start" x="1360.5" y="-138.5" font-family="Helvetica,sans-Serif" font-size="10.00">Building.buildingPanes.CurveDrawing</text>
<text text-anchor="middle" x="1448" y="-127.5" font-family="Helvetica,sans-Serif" font-size="10.00">Pane.addListeners</text>
</a>
</g>
</g>
<!-- Node18&#45;&gt;Node19 -->
<g id="edge18" class="edge"><title>Node18&#45;&gt;Node19</title>
<path fill="none" stroke="midnightblue" d="M1287.61,-134.381C1308.93,-134.174 1331.25,-134.212 1352.21,-134.494"/>
<polygon fill="midnightblue" stroke="midnightblue" points="1287.52,-130.882 1277.56,-134.497 1287.6,-137.881 1287.52,-130.882"/>
</g>
<!-- Node19&#45;&gt;Node18 -->
<g id="edge20" class="edge"><title>Node19&#45;&gt;Node18</title>
<path fill="none" stroke="midnightblue" d="M1342.16,-147.621C1320.83,-147.826 1298.51,-147.786 1277.56,-147.503"/>
<polygon fill="midnightblue" stroke="midnightblue" points="1342.25,-151.121 1352.21,-147.506 1342.17,-144.121 1342.25,-151.121"/>
</g>
<!-- Node20 -->
<g id="node20" class="node"><title>Node20</title>
<g id="a_node20"><a xlink:href="../../d1/dad/classgame_authoring_1_1scenes_1_1path_building_1_1building_panes_1_1_curve_drawing_pane.html#a5e42a8d5bc78ce626583ea766277b804" target="_top" xlink:title="gameAuthoring.scenes.path\lBuilding.buildingPanes.CurveDrawing\lPane.executeEnterFunction">
<polygon fill="white" stroke="black" points="1600.5,-120.5 1600.5,-161.5 1791.5,-161.5 1791.5,-120.5 1600.5,-120.5"/>
<text text-anchor="start" x="1608.5" y="-149.5" font-family="Helvetica,sans-Serif" font-size="10.00">gameAuthoring.scenes.path</text>
<text text-anchor="start" x="1608.5" y="-138.5" font-family="Helvetica,sans-Serif" font-size="10.00">Building.buildingPanes.CurveDrawing</text>
<text text-anchor="middle" x="1696" y="-127.5" font-family="Helvetica,sans-Serif" font-size="10.00">Pane.executeEnterFunction</text>
</a>
</g>
</g>
<!-- Node19&#45;&gt;Node20 -->
<g id="edge19" class="edge"><title>Node19&#45;&gt;Node20</title>
<path fill="none" stroke="midnightblue" d="M1553.83,-141C1569.26,-141 1585.08,-141 1600.29,-141"/>
<polygon fill="midnightblue" stroke="midnightblue" points="1553.76,-137.5 1543.76,-141 1553.76,-144.5 1553.76,-137.5"/>
</g>
<!-- Node23 -->
<g id="node23" class="node"><title>Node23</title>
<g id="a_node23"><a xlink:href="../../d7/da7/classgame_authoring_1_1scenes_1_1path_building_1_1building_panes_1_1_select_component_pane.html#a6f69903216e7f0c8dc628fd667a50496" target="_top" xlink:title="gameAuthoring.scenes.path\lBuilding.buildingPanes.SelectComponent\lPane.addSelectionListeners">
<polygon fill="white" stroke="black" points="1076,-912.5 1076,-953.5 1288,-953.5 1288,-912.5 1076,-912.5"/>
<text text-anchor="start" x="1084" y="-941.5" font-family="Helvetica,sans-Serif" font-size="10.00">gameAuthoring.scenes.path</text>
<text text-anchor="start" x="1084" y="-930.5" font-family="Helvetica,sans-Serif" font-size="10.00">Building.buildingPanes.SelectComponent</text>
<text text-anchor="middle" x="1182" y="-919.5" font-family="Helvetica,sans-Serif" font-size="10.00">Pane.addSelectionListeners</text>
</a>
</g>
</g>
<!-- Node22&#45;&gt;Node23 -->
<g id="edge25" class="edge"><title>Node22&#45;&gt;Node23</title>
<path fill="none" stroke="midnightblue" d="M958.825,-869.876C988.954,-880.296 1025.09,-892.318 1058,-902 1070.15,-905.574 1083.04,-909.106 1095.74,-912.435"/>
<polygon fill="midnightblue" stroke="midnightblue" points="959.86,-866.531 949.265,-866.555 957.562,-873.143 959.86,-866.531"/>
</g>
<!-- Node24 -->
<g id="node24" class="node"><title>Node24</title>
<g id="a_node24"><a xlink:href="../../d7/da7/classgame_authoring_1_1scenes_1_1path_building_1_1building_panes_1_1_select_component_pane.html#ab264186c3b2f4ed9391d64633b70d5ed" target="_top" xlink:title="gameAuthoring.scenes.path\lBuilding.buildingPanes.SelectComponent\lPane.addListenersToComponents">
<polygon fill="white" stroke="black" points="1342,-912.5 1342,-953.5 1554,-953.5 1554,-912.5 1342,-912.5"/>
<text text-anchor="start" x="1350" y="-941.5" font-family="Helvetica,sans-Serif" font-size="10.00">gameAuthoring.scenes.path</text>
<text text-anchor="start" x="1350" y="-930.5" font-family="Helvetica,sans-Serif" font-size="10.00">Building.buildingPanes.SelectComponent</text>
<text text-anchor="middle" x="1448" y="-919.5" font-family="Helvetica,sans-Serif" font-size="10.00">Pane.addListenersToComponents</text>
</a>
</g>
</g>
<!-- Node23&#45;&gt;Node24 -->
<g id="edge26" class="edge"><title>Node23&#45;&gt;Node24</title>
<path fill="none" stroke="midnightblue" d="M1298.11,-933C1312.65,-933 1327.46,-933 1341.83,-933"/>
<polygon fill="midnightblue" stroke="midnightblue" points="1298.1,-929.5 1288.1,-933 1298.1,-936.5 1298.1,-929.5"/>
</g>
<!-- Node25 -->
<g id="node25" class="node"><title>Node25</title>
<g id="a_node25"><a xlink:href="../../d7/da7/classgame_authoring_1_1scenes_1_1path_building_1_1building_panes_1_1_select_component_pane.html#a102b73ae9c6cab53a0738a3be5f8e3a4" target="_top" xlink:title="gameAuthoring.scenes.path\lBuilding.buildingPanes.SelectComponent\lPane.executeEnterFunction">
<polygon fill="white" stroke="black" points="1590,-912.5 1590,-953.5 1802,-953.5 1802,-912.5 1590,-912.5"/>
<text text-anchor="start" x="1598" y="-941.5" font-family="Helvetica,sans-Serif" font-size="10.00">gameAuthoring.scenes.path</text>
<text text-anchor="start" x="1598" y="-930.5" font-family="Helvetica,sans-Serif" font-size="10.00">Building.buildingPanes.SelectComponent</text>
<text text-anchor="middle" x="1696" y="-919.5" font-family="Helvetica,sans-Serif" font-size="10.00">Pane.executeEnterFunction</text>
</a>
</g>
</g>
<!-- Node24&#45;&gt;Node25 -->
<g id="edge27" class="edge"><title>Node24&#45;&gt;Node25</title>
<path fill="none" stroke="midnightblue" d="M1564.11,-933C1572.72,-933 1581.38,-933 1589.92,-933"/>
<polygon fill="midnightblue" stroke="midnightblue" points="1564.04,-929.5 1554.04,-933 1564.04,-936.5 1564.04,-929.5"/>
</g>
<!-- Node26&#45;&gt;Node3 -->
<g id="edge29" class="edge"><title>Node26&#45;&gt;Node3</title>
<path fill="none" stroke="midnightblue" d="M441.248,-286.499C480.657,-302.263 531.289,-322.516 568.599,-337.44"/>
<polygon fill="midnightblue" stroke="midnightblue" points="442.071,-283.059 431.486,-282.594 439.471,-289.558 442.071,-283.059"/>
</g>
<!-- Node26&#45;&gt;Node12 -->
<g id="edge30" class="edge"><title>Node26&#45;&gt;Node12</title>
<path fill="none" stroke="midnightblue" d="M492.368,-253.443C648.582,-241.546 929.065,-220.186 1079.35,-208.741"/>
<polygon fill="midnightblue" stroke="midnightblue" points="491.966,-249.963 482.261,-254.212 492.498,-256.943 491.966,-249.963"/>
</g>
<!-- Node27&#45;&gt;Node9 -->
<g id="edge32" class="edge"><title>Node27&#45;&gt;Node9</title>
<path fill="none" stroke="midnightblue" d="M1013.59,-98.3781C1029.31,-96.7461 1045.41,-95.0755 1061.1,-93.4464"/>
<polygon fill="midnightblue" stroke="midnightblue" points="1012.91,-94.9302 1003.32,-99.4441 1013.63,-101.893 1012.91,-94.9302"/>
</g>
<!-- Node27&#45;&gt;Node17 -->
<g id="edge33" class="edge"><title>Node27&#45;&gt;Node17</title>
<path fill="none" stroke="midnightblue" d="M953.609,-86.9419C984.653,-75.2787 1023.04,-61.5489 1058,-51 1068.84,-47.7302 1080.29,-44.5619 1091.68,-41.5865"/>
<polygon fill="midnightblue" stroke="midnightblue" points="952.34,-83.6801 944.223,-90.4894 954.814,-90.2281 952.34,-83.6801"/>
</g>
<!-- Node27&#45;&gt;Node18 -->
<g id="edge34" class="edge"><title>Node27&#45;&gt;Node18</title>
<path fill="none" stroke="midnightblue" d="M1013.32,-123.594C1037.66,-126.121 1062.9,-128.741 1086.19,-131.158"/>
<polygon fill="midnightblue" stroke="midnightblue" points="1013.63,-120.107 1003.32,-122.556 1012.91,-127.07 1013.63,-120.107"/>
</g>
</g>
</svg>
        <g id="navigator" transform="translate(0 0)" fill="#404254">
                <rect fill="#f2f5e9" fill-opacity="0.5" stroke="#606060" stroke-width=".5" x="0" y="0" width="60" height="60"/>
                <use id="zoomplus" xlink:href="#zoomPlus" x="17" y="9" onmousedown="handleZoom(evt,'in')"/>
                <use id="zoomminus" xlink:href="#zoomMin" x="42" y="9" onmousedown="handleZoom(evt,'out')"/>
                <use id="reset" xlink:href="#resetDef" x="30" y="36" onmousedown="handleReset()"/>
                <g id="arrowUp" xlink:href="#dirArrow" transform="translate(30 24)" onmousedown="handlePan(0,-1)">
                  <use xlink:href="#rim" fill="#404040">
                        <set attributeName="fill" to="#808080" begin="arrowUp.mouseover" end="arrowUp.mouseout"/>
                  </use>
                  <path fill="none" stroke="white" stroke-width="1.5" d="M0,-3.0v7 M-2.5,-0.5L0,-3.0L2.5,-0.5"/>
                </g>
                <g id="arrowRight" xlink:href="#dirArrow" transform="rotate(90) translate(36 -43)" onmousedown="handlePan(1,0)">
                  <use xlink:href="#rim" fill="#404040">
                        <set attributeName="fill" to="#808080" begin="arrowRight.mouseover" end="arrowRight.mouseout"/>
                  </use>
                  <path fill="none" stroke="white" stroke-width="1.5" d="M0,-3.0v7 M-2.5,-0.5L0,-3.0L2.5,-0.5"/>
                </g>
                <g id="arrowDown" xlink:href="#dirArrow" transform="rotate(180) translate(-30 -48)" onmousedown="handlePan(0,1)">
                  <use xlink:href="#rim" fill="#404040">
                        <set attributeName="fill" to="#808080" begin="arrowDown.mouseover" end="arrowDown.mouseout"/>
                  </use>
                  <path fill="none" stroke="white" stroke-width="1.5" d="M0,-3.0v7 M-2.5,-0.5L0,-3.0L2.5,-0.5"/>
                </g>
                <g id="arrowLeft" xlink:href="#dirArrow" transform="rotate(270) translate(-36 17)" onmousedown="handlePan(-1,0)">
                  <use xlink:href="#rim" fill="#404040">
                        <set attributeName="fill" to="#808080" begin="arrowLeft.mouseover" end="arrowLeft.mouseout"/>
                  </use>
                  <path fill="none" stroke="white" stroke-width="1.5" d="M0,-3.0v7 M-2.5,-0.5L0,-3.0L2.5,-0.5"/>
                </g>
        </g>
        <svg viewBox="0 0 15 15" width="100%" height="30px" preserveAspectRatio="xMaxYMin meet">
         <g id="arrow_out" transform="scale(0.3 0.3)">
          <a xlink:href="interfacegame_authoring_1_1scenes_1_1path_building_1_1path_components_1_1_path_component_a40cb4921333d7a54fa51132e33b8bfa2_icgraph_org.svg" target="_base">
           <rect id="button" ry="5" rx="5" y="6" x="6" height="38" width="38"
                fill="#f2f5e9" fill-opacity="0.5" stroke="#606060" stroke-width="1.0"/>
           <path id="arrow"
             d="M 11.500037,31.436501 C 11.940474,20.09759 22.043105,11.32322 32.158766,21.979434 L 37.068811,17.246167 C 37.068811,17.246167 37.088388,32 37.088388,32 L 22.160133,31.978069 C 22.160133,31.978069 26.997745,27.140456 26.997745,27.140456 C 18.528582,18.264221 13.291696,25.230495 11.500037,31.436501 z"
             style="fill:#404040;"/>
          </a>
         </g>
        </svg>
</svg>
