<?xml version="1.0" encoding="UTF-8" standalone="no"?>
<!DOCTYPE svg PUBLIC "-//W3C//DTD SVG 1.1//EN"
 "http://www.w3.org/Graphics/SVG/1.1/DTD/svg11.dtd">
<!-- Generated by graphviz version 2.36.0 (20140111.2315)
 -->
<!-- Title: utilities.GSON.objectWrappers.DataWrapper.DataWrapper Pages: 1 -->
<svg width="620pt" height="126pt"
 viewBox="0.00 0.00 620.00 126.00" xmlns="http://www.w3.org/2000/svg" xmlns:xlink="http://www.w3.org/1999/xlink">
<g id="graph0" class="graph" transform="scale(1 1) rotate(0) translate(4 122)">
<title>utilities.GSON.objectWrappers.DataWrapper.DataWrapper</title>
<polygon fill="white" stroke="none" points="-4,4 -4,-122 616,-122 616,4 -4,4"/>
<!-- Node1 -->
<g id="node1" class="node"><title>Node1</title>
<polygon fill="#bfbfbf" stroke="black" points="0,-44 0,-74 162,-74 162,-44 0,-44"/>
<text text-anchor="start" x="8" y="-62" font-family="Helvetica,sans-Serif" font-size="10.00">utilities.GSON.objectWrappers.</text>
<text text-anchor="middle" x="81" y="-51" font-family="Helvetica,sans-Serif" font-size="10.00">DataWrapper.DataWrapper</text>
</g>
<!-- Node2 -->
<g id="node2" class="node"><title>Node2</title>
<g id="a_node2"><a xlink:href="../../d5/d02/classgame_engine_1_1actors_1_1_base_actor.html#a2106e623a36a5683759aff1a392c7686" target="_top" xlink:title="gameEngine.actors.BaseActor.getX">
<polygon fill="white" stroke="black" points="198,-90.5 198,-109.5 384,-109.5 384,-90.5 198,-90.5"/>
<text text-anchor="middle" x="291" y="-97.5" font-family="Helvetica,sans-Serif" font-size="10.00">gameEngine.actors.BaseActor.getX</text>
</a>
</g>
</g>
<!-- Node1&#45;&gt;Node2 -->
<g id="edge1" class="edge"><title>Node1&#45;&gt;Node2</title>
<path fill="none" stroke="midnightblue" d="M158.27,-74.0341C182.51,-78.812 208.917,-84.0174 231.681,-88.5044"/>
<polygon fill="midnightblue" stroke="midnightblue" points="231.04,-91.9454 241.529,-90.4455 232.394,-85.0776 231.04,-91.9454"/>
</g>
<!-- Node4 -->
<g id="node4" class="node"><title>Node4</title>
<g id="a_node4"><a xlink:href="../../d5/d02/classgame_engine_1_1actors_1_1_base_actor.html#a4e1debba2b998a75964fb8c979cb15e8" target="_top" xlink:title="gameEngine.actors.BaseActor.getY">
<polygon fill="white" stroke="black" points="198.5,-49.5 198.5,-68.5 383.5,-68.5 383.5,-49.5 198.5,-49.5"/>
<text text-anchor="middle" x="291" y="-56.5" font-family="Helvetica,sans-Serif" font-size="10.00">gameEngine.actors.BaseActor.getY</text>
</a>
</g>
</g>
<!-- Node1&#45;&gt;Node4 -->
<g id="edge3" class="edge"><title>Node1&#45;&gt;Node4</title>
<path fill="none" stroke="midnightblue" d="M162.121,-59C170.675,-59 179.458,-59 188.219,-59"/>
<polygon fill="midnightblue" stroke="midnightblue" points="188.48,-62.5001 198.48,-59 188.48,-55.5001 188.48,-62.5001"/>
</g>
<!-- Node6 -->
<g id="node6" class="node"><title>Node6</title>
<g id="a_node6"><a xlink:href="../../d5/d02/classgame_engine_1_1actors_1_1_base_actor.html#a9f4fa91555a52251f64b91fa182db92b" target="_top" xlink:title="gameEngine.actors.BaseActor.to\lString">
<polygon fill="white" stroke="black" points="204,-0 204,-30 378,-30 378,-0 204,-0"/>
<text text-anchor="start" x="212" y="-18" font-family="Helvetica,sans-Serif" font-size="10.00">gameEngine.actors.BaseActor.to</text>
<text text-anchor="middle" x="291" y="-7" font-family="Helvetica,sans-Serif" font-size="10.00">String</text>
</a>
</g>
</g>
<!-- Node1&#45;&gt;Node6 -->
<g id="edge5" class="edge"><title>Node1&#45;&gt;Node6</title>
<path fill="none" stroke="midnightblue" d="M153,-43.9808C171.056,-40.1612 190.593,-36.0284 209.102,-32.1131"/>
<polygon fill="midnightblue" stroke="midnightblue" points="209.908,-35.5201 218.967,-30.0262 208.459,-28.6716 209.908,-35.5201"/>
</g>
<!-- Node3 -->
<g id="node3" class="node"><title>Node3</title>
<g id="a_node3"><a xlink:href="../../dd/df0/classutilities_1_1_java_f_xutilities_1_1image_view_1_1_centered_image_view.html#a063a62060b9b686601364fdbb8b6cd86" target="_top" xlink:title="utilities.JavaFXutilities.image\lView.CenteredImageView.getXCenter">
<polygon fill="white" stroke="black" points="420,-88 420,-118 612,-118 612,-88 420,-88"/>
<text text-anchor="start" x="428" y="-106" font-family="Helvetica,sans-Serif" font-size="10.00">utilities.JavaFXutilities.image</text>
<text text-anchor="middle" x="516" y="-95" font-family="Helvetica,sans-Serif" font-size="10.00">View.CenteredImageView.getXCenter</text>
</a>
</g>
</g>
<!-- Node2&#45;&gt;Node3 -->
<g id="edge2" class="edge"><title>Node2&#45;&gt;Node3</title>
<path fill="none" stroke="midnightblue" d="M384.312,-101.242C392.661,-101.354 401.157,-101.468 409.606,-101.582"/>
<polygon fill="midnightblue" stroke="midnightblue" points="409.83,-105.085 419.876,-101.72 409.924,-98.086 409.83,-105.085"/>
</g>
<!-- Node5 -->
<g id="node5" class="node"><title>Node5</title>
<g id="a_node5"><a xlink:href="../../dd/df0/classutilities_1_1_java_f_xutilities_1_1image_view_1_1_centered_image_view.html#aa05843be4846dc0d9c23489cac21ed3d" target="_top" xlink:title="utilities.JavaFXutilities.image\lView.CenteredImageView.getYCenter">
<polygon fill="white" stroke="black" points="420.5,-39 420.5,-69 611.5,-69 611.5,-39 420.5,-39"/>
<text text-anchor="start" x="428.5" y="-57" font-family="Helvetica,sans-Serif" font-size="10.00">utilities.JavaFXutilities.image</text>
<text text-anchor="middle" x="516" y="-46" font-family="Helvetica,sans-Serif" font-size="10.00">View.CenteredImageView.getYCenter</text>
</a>
</g>
</g>
<!-- Node4&#45;&gt;Node5 -->
<g id="edge4" class="edge"><title>Node4&#45;&gt;Node5</title>
<path fill="none" stroke="midnightblue" d="M383.668,-56.9447C392.483,-56.747 401.47,-56.5455 410.397,-56.3454"/>
<polygon fill="midnightblue" stroke="midnightblue" points="410.52,-59.8436 420.439,-56.1202 410.363,-52.8453 410.52,-59.8436"/>
</g>
</g>
</svg>
