<?xml version="1.0" encoding="UTF-8" standalone="no"?>
<!DOCTYPE svg PUBLIC "-//W3C//DTD SVG 1.1//EN"
 "http://www.w3.org/Graphics/SVG/1.1/DTD/svg11.dtd">
<!-- Generated by graphviz version 2.36.0 (20140111.2315)
 -->
<!-- Title: utilities.GSON.objectWrappers.DataWrapper.DataWrapper Pages: 1 -->
<svg width="368pt" height="38pt"
 viewBox="0.00 0.00 368.00 38.00" xmlns="http://www.w3.org/2000/svg" xmlns:xlink="http://www.w3.org/1999/xlink">
<g id="graph0" class="graph" transform="scale(1 1) rotate(0) translate(4 34)">
<title>utilities.GSON.objectWrappers.DataWrapper.DataWrapper</title>
<polygon fill="white" stroke="none" points="-4,4 -4,-34 364,-34 364,4 -4,4"/>
<!-- Node1 -->
<g id="node1" class="node"><title>Node1</title>
<polygon fill="#bfbfbf" stroke="black" points="0,-0 0,-30 162,-30 162,-0 0,-0"/>
<text text-anchor="start" x="8" y="-18" font-family="Helvetica,sans-Serif" font-size="10.00">utilities.GSON.objectWrappers.</text>
<text text-anchor="middle" x="81" y="-7" font-family="Helvetica,sans-Serif" font-size="10.00">DataWrapper.DataWrapper</text>
</g>
<!-- Node2 -->
<g id="node2" class="node"><title>Node2</title>
<g id="a_node2"><a xlink:href="../../df/da2/classutilities_1_1_g_s_o_n_1_1object_wrappers_1_1_data_wrapper.html#a5e7d89dae1a7c05c00b0b5d8a51cc50a" target="_top" xlink:title="utilities.GSON.objectWrappers.\lDataWrapper.equals">
<polygon fill="white" stroke="black" points="198,-0 198,-30 360,-30 360,-0 198,-0"/>
<text text-anchor="start" x="206" y="-18" font-family="Helvetica,sans-Serif" font-size="10.00">utilities.GSON.objectWrappers.</text>
<text text-anchor="middle" x="279" y="-7" font-family="Helvetica,sans-Serif" font-size="10.00">DataWrapper.equals</text>
</a>
</g>
</g>
<!-- Node1&#45;&gt;Node2 -->
<g id="edge1" class="edge"><title>Node1&#45;&gt;Node2</title>
<path fill="none" stroke="midnightblue" d="M172.077,-15C180.703,-15 189.413,-15 197.935,-15"/>
<polygon fill="midnightblue" stroke="midnightblue" points="172.003,-11.5001 162.003,-15 172.003,-18.5001 172.003,-11.5001"/>
</g>
</g>
</svg>
