<?xml version="1.0" encoding="UTF-8" standalone="no"?>
<!DOCTYPE svg PUBLIC "-//W3C//DTD SVG 1.1//EN"
 "http://www.w3.org/Graphics/SVG/1.1/DTD/svg11.dtd">
<!-- Generated by graphviz version 2.36.0 (20140111.2315)
 -->
<!-- Title: utilities.JavaFXutilities.DragAndDropFilePanes.imagePanes.DragAndDropFilePane Pages: 1 -->
<svg width="758pt" height="169pt"
 viewBox="0.00 0.00 758.00 169.00" xmlns="http://www.w3.org/2000/svg" xmlns:xlink="http://www.w3.org/1999/xlink">
<g id="graph0" class="graph" transform="scale(1 1) rotate(0) translate(4 165)">
<title>utilities.JavaFXutilities.DragAndDropFilePanes.imagePanes.DragAndDropFilePane</title>
<polygon fill="white" stroke="none" points="-4,4 -4,-165 754,-165 754,4 -4,4"/>
<!-- Node1 -->
<g id="node1" class="node"><title>Node1</title>
<polygon fill="#bfbfbf" stroke="black" points="108,-60.5 108,-101.5 298,-101.5 298,-60.5 108,-60.5"/>
<text text-anchor="start" x="116" y="-89.5" font-family="Helvetica,sans-Serif" font-size="10.00">utilities.JavaFXutilities.</text>
<text text-anchor="start" x="116" y="-78.5" font-family="Helvetica,sans-Serif" font-size="10.00">DragAndDropFilePanes.imagePanes.</text>
<text text-anchor="middle" x="203" y="-67.5" font-family="Helvetica,sans-Serif" font-size="10.00">DragAndDropFilePane</text>
</g>
<!-- Node3 -->
<g id="node3" class="node"><title>Node3</title>
<g id="a_node3"><a xlink:href="../../dd/de0/classutilities_1_1_java_f_xutilities_1_1_drag_and_drop_file_panes_1_1audio_panes_1_1_drag_and_drop_audio_pane.html" target="_top" xlink:title="utilities.JavaFXutilities.\lDragAndDropFilePanes.audioPanes.\lDragAndDropAudioPane">
<polygon fill="white" stroke="black" points="336,-120.5 336,-161.5 522,-161.5 522,-120.5 336,-120.5"/>
<text text-anchor="start" x="344" y="-149.5" font-family="Helvetica,sans-Serif" font-size="10.00">utilities.JavaFXutilities.</text>
<text text-anchor="start" x="344" y="-138.5" font-family="Helvetica,sans-Serif" font-size="10.00">DragAndDropFilePanes.audioPanes.</text>
<text text-anchor="middle" x="429" y="-127.5" font-family="Helvetica,sans-Serif" font-size="10.00">DragAndDropAudioPane</text>
</a>
</g>
</g>
<!-- Node1&#45;&gt;Node3 -->
<g id="edge2" class="edge"><title>Node1&#45;&gt;Node3</title>
<path fill="none" stroke="midnightblue" d="M290.509,-104.172C310.549,-109.54 331.74,-115.216 351.326,-120.462"/>
<polygon fill="midnightblue" stroke="midnightblue" points="291.34,-100.771 280.775,-101.565 289.529,-107.533 291.34,-100.771"/>
</g>
<!-- Node4 -->
<g id="node4" class="node"><title>Node4</title>
<g id="a_node4"><a xlink:href="../../d9/d5f/classutilities_1_1_java_f_xutilities_1_1_drag_and_drop_file_panes_1_1image_panes_1_1_drag_and_drop_image_pane.html" target="_top" xlink:title="utilities.JavaFXutilities.\lDragAndDropFilePanes.imagePanes.\lDragAndDropImagePane">
<polygon fill="white" stroke="black" points="334,-60.5 334,-101.5 524,-101.5 524,-60.5 334,-60.5"/>
<text text-anchor="start" x="342" y="-89.5" font-family="Helvetica,sans-Serif" font-size="10.00">utilities.JavaFXutilities.</text>
<text text-anchor="start" x="342" y="-78.5" font-family="Helvetica,sans-Serif" font-size="10.00">DragAndDropFilePanes.imagePanes.</text>
<text text-anchor="middle" x="429" y="-67.5" font-family="Helvetica,sans-Serif" font-size="10.00">DragAndDropImagePane</text>
</a>
</g>
</g>
<!-- Node1&#45;&gt;Node4 -->
<g id="edge3" class="edge"><title>Node1&#45;&gt;Node4</title>
<path fill="none" stroke="midnightblue" d="M308.077,-81C316.676,-81 325.338,-81 333.859,-81"/>
<polygon fill="midnightblue" stroke="midnightblue" points="308.023,-77.5001 298.023,-81 308.023,-84.5001 308.023,-77.5001"/>
</g>
<!-- Node7 -->
<g id="node7" class="node"><title>Node7</title>
<g id="a_node7"><a xlink:href="../../db/ddc/classutilities_1_1_java_f_xutilities_1_1_drag_and_drop_file_panes_1_1video_panes_1_1_drag_and_drop_video_pane.html" target="_top" xlink:title="utilities.JavaFXutilities.\lDragAndDropFilePanes.videoPanes.\lDragAndDropVideoPane">
<polygon fill="white" stroke="black" points="336.5,-0.5 336.5,-41.5 521.5,-41.5 521.5,-0.5 336.5,-0.5"/>
<text text-anchor="start" x="344.5" y="-29.5" font-family="Helvetica,sans-Serif" font-size="10.00">utilities.JavaFXutilities.</text>
<text text-anchor="start" x="344.5" y="-18.5" font-family="Helvetica,sans-Serif" font-size="10.00">DragAndDropFilePanes.videoPanes.</text>
<text text-anchor="middle" x="429" y="-7.5" font-family="Helvetica,sans-Serif" font-size="10.00">DragAndDropVideoPane</text>
</a>
</g>
</g>
<!-- Node1&#45;&gt;Node7 -->
<g id="edge6" class="edge"><title>Node1&#45;&gt;Node7</title>
<path fill="none" stroke="midnightblue" d="M290.509,-57.8281C310.549,-52.46 331.74,-46.7838 351.326,-41.5378"/>
<polygon fill="midnightblue" stroke="midnightblue" points="289.529,-54.4671 280.775,-60.4353 291.34,-61.2287 289.529,-54.4671"/>
</g>
<!-- Node2 -->
<g id="node2" class="node"><title>Node2</title>
<polygon fill="white" stroke="#bfbfbf" points="0.5,-71.5 0.5,-90.5 71.5,-90.5 71.5,-71.5 0.5,-71.5"/>
<text text-anchor="middle" x="36" y="-78.5" font-family="Helvetica,sans-Serif" font-size="10.00">Observable</text>
</g>
<!-- Node2&#45;&gt;Node1 -->
<g id="edge1" class="edge"><title>Node2&#45;&gt;Node1</title>
<path fill="none" stroke="midnightblue" d="M81.6826,-81C89.9511,-81 98.8663,-81 107.973,-81"/>
<polygon fill="midnightblue" stroke="midnightblue" points="81.5894,-77.5001 71.5894,-81 81.5894,-84.5001 81.5894,-77.5001"/>
</g>
<!-- Node5 -->
<g id="node5" class="node"><title>Node5</title>
<g id="a_node5"><a xlink:href="../../de/d70/classutilities_1_1_java_f_xutilities_1_1_drag_and_drop_file_panes_1_1image_panes_1_1_drag_and_drop_copy_image_pane.html" target="_top" xlink:title="utilities.JavaFXutilities.\lDragAndDropFilePanes.imagePanes.\lDragAndDropCopyImagePane">
<polygon fill="white" stroke="black" points="560,-90.5 560,-131.5 750,-131.5 750,-90.5 560,-90.5"/>
<text text-anchor="start" x="568" y="-119.5" font-family="Helvetica,sans-Serif" font-size="10.00">utilities.JavaFXutilities.</text>
<text text-anchor="start" x="568" y="-108.5" font-family="Helvetica,sans-Serif" font-size="10.00">DragAndDropFilePanes.imagePanes.</text>
<text text-anchor="middle" x="655" y="-97.5" font-family="Helvetica,sans-Serif" font-size="10.00">DragAndDropCopyImagePane</text>
</a>
</g>
</g>
<!-- Node4&#45;&gt;Node5 -->
<g id="edge4" class="edge"><title>Node4&#45;&gt;Node5</title>
<path fill="none" stroke="midnightblue" d="M534.077,-94.9388C542.676,-96.0906 551.338,-97.2507 559.859,-98.3918"/>
<polygon fill="midnightblue" stroke="midnightblue" points="534.399,-91.4508 524.023,-93.5923 533.469,-98.3889 534.399,-91.4508"/>
</g>
<!-- Node6 -->
<g id="node6" class="node"><title>Node6</title>
<g id="a_node6"><a xlink:href="../../d6/dd8/classutilities_1_1_java_f_xutilities_1_1_drag_and_drop_file_panes_1_1image_panes_1_1_drag_and_drop_no_copy_image_pane.html" target="_top" xlink:title="utilities.JavaFXutilities.\lDragAndDropFilePanes.imagePanes.\lDragAndDropNoCopyImagePane">
<polygon fill="white" stroke="black" points="560,-30.5 560,-71.5 750,-71.5 750,-30.5 560,-30.5"/>
<text text-anchor="start" x="568" y="-59.5" font-family="Helvetica,sans-Serif" font-size="10.00">utilities.JavaFXutilities.</text>
<text text-anchor="start" x="568" y="-48.5" font-family="Helvetica,sans-Serif" font-size="10.00">DragAndDropFilePanes.imagePanes.</text>
<text text-anchor="middle" x="655" y="-37.5" font-family="Helvetica,sans-Serif" font-size="10.00">DragAndDropNoCopyImagePane</text>
</a>
</g>
</g>
<!-- Node4&#45;&gt;Node6 -->
<g id="edge5" class="edge"><title>Node4&#45;&gt;Node6</title>
<path fill="none" stroke="midnightblue" d="M534.077,-67.0612C542.676,-65.9094 551.338,-64.7493 559.859,-63.6082"/>
<polygon fill="midnightblue" stroke="midnightblue" points="533.469,-63.6111 524.023,-68.4077 534.399,-70.5492 533.469,-63.6111"/>
</g>
</g>
</svg>
