<?xml version="1.0" encoding="UTF-8" standalone="no"?>
<!DOCTYPE svg PUBLIC "-//W3C//DTD SVG 1.1//EN"
 "http://www.w3.org/Graphics/SVG/1.1/DTD/svg11.dtd">
<!-- Generated by graphviz version 2.36.0 (20140111.2315)
 -->
<!-- Title: utilities.JavaFXutilities.DragAndDropFilePanes.imagePanes.DragAndDropFilePane.handleDragExit Pages: 1 -->
<svg width="468pt" height="48pt"
 viewBox="0.00 0.00 468.00 48.00" xmlns="http://www.w3.org/2000/svg" xmlns:xlink="http://www.w3.org/1999/xlink">
<g id="graph0" class="graph" transform="scale(1 1) rotate(0) translate(4 44)">
<title>utilities.JavaFXutilities.DragAndDropFilePanes.imagePanes.DragAndDropFilePane.handleDragExit</title>
<polygon fill="white" stroke="none" points="-4,4 -4,-44 464,-44 464,4 -4,4"/>
<!-- Node1 -->
<g id="node1" class="node"><title>Node1</title>
<polygon fill="#bfbfbf" stroke="black" points="0,0.5 0,-40.5 196,-40.5 196,0.5 0,0.5"/>
<text text-anchor="start" x="8" y="-28.5" font-family="Helvetica,sans-Serif" font-size="10.00">utilities.JavaFXutilities.</text>
<text text-anchor="start" x="8" y="-17.5" font-family="Helvetica,sans-Serif" font-size="10.00">DragAndDropFilePanes.imagePanes.</text>
<text text-anchor="middle" x="98" y="-6.5" font-family="Helvetica,sans-Serif" font-size="10.00">DragAndDropFilePane.handleDragExit</text>
</g>
<!-- Node2 -->
<g id="node2" class="node"><title>Node2</title>
<g id="a_node2"><a xlink:href="../../dc/d20/classutilities_1_1_java_f_xutilities_1_1_drag_and_drop_file_panes_1_1image_panes_1_1_drag_and_drop_file_pane.html#ab04e889bf5e96caf72c1b198be903313" target="_top" xlink:title="utilities.JavaFXutilities.\lDragAndDropFilePanes.imagePanes.\lDragAndDropFilePane.DragAndDropFilePane">
<polygon fill="white" stroke="black" points="232.5,0.5 232.5,-40.5 459.5,-40.5 459.5,0.5 232.5,0.5"/>
<text text-anchor="start" x="240.5" y="-28.5" font-family="Helvetica,sans-Serif" font-size="10.00">utilities.JavaFXutilities.</text>
<text text-anchor="start" x="240.5" y="-17.5" font-family="Helvetica,sans-Serif" font-size="10.00">DragAndDropFilePanes.imagePanes.</text>
<text text-anchor="middle" x="346" y="-6.5" font-family="Helvetica,sans-Serif" font-size="10.00">DragAndDropFilePane.DragAndDropFilePane</text>
</a>
</g>
</g>
<!-- Node1&#45;&gt;Node2 -->
<g id="edge1" class="edge"><title>Node1&#45;&gt;Node2</title>
<path fill="none" stroke="midnightblue" d="M206.266,-20C214.868,-20 223.575,-20 232.215,-20"/>
<polygon fill="midnightblue" stroke="midnightblue" points="206.226,-16.5001 196.226,-20 206.226,-23.5001 206.226,-16.5001"/>
</g>
</g>
</svg>
