<?xml version="1.0" encoding="UTF-8" standalone="no"?>
<!DOCTYPE svg PUBLIC "-//W3C//DTD SVG 1.1//EN"
 "http://www.w3.org/Graphics/SVG/1.1/DTD/svg11.dtd">
<!-- Generated by graphviz version 2.36.0 (20140111.2315)
 -->
<!-- Title: utilities.JavaFXutilities.DragAndDropFilePanes.imagePanes.DragAndDropFilePane.showInstructionLabel Pages: 1 -->
<!--zoomable 103 -->
<svg id="main" version="1.1" xmlns="http://www.w3.org/2000/svg" xmlns:xlink="http://www.w3.org/1999/xlink" xml:space="preserve" onload="init(evt)">
<style type="text/css"><![CDATA[
.edge:hover path { stroke: red; }
.edge:hover polygon { stroke: red; fill: red; }
]]></style>
<script type="text/javascript"><![CDATA[
var edges = document.getElementsByTagName('g');
if (edges && edges.length) {
  for (var i=0;i<edges.length;i++) {
    if (edges[i].id.substr(0,4)=='edge') {
      edges[i].setAttribute('class','edge');
    }
  }
}
]]></script>
        <defs>
                <circle id="rim" cx="0" cy="0" r="7"/>
                <circle id="rim2" cx="0" cy="0" r="3.5"/>
                <g id="zoomPlus">
                        <use xlink:href="#rim" fill="#404040">
                                <set attributeName="fill" to="#808080" begin="zoomplus.mouseover" end="zoomplus.mouseout"/>
                        </use>
                        <path d="M-4,0h8M0,-4v8" fill="none" stroke="white" stroke-width="1.5" pointer-events="none"/>
                </g>
                <g id="zoomMin">
                        <use xlink:href="#rim" fill="#404040">
                                <set attributeName="fill" to="#808080" begin="zoomminus.mouseover" end="zoomminus.mouseout"/>
                        </use>
                        <path d="M-4,0h8" fill="none" stroke="white" stroke-width="1.5" pointer-events="none"/>
                </g>
                <g id="dirArrow">
                        <path fill="none" stroke="white" stroke-width="1.5" d="M0,-3.0v7 M-2.5,-0.5L0,-3.0L2.5,-0.5"/>
                </g>
               <g id="resetDef">
                       <use xlink:href="#rim2" fill="#404040">
                               <set attributeName="fill" to="#808080" begin="reset.mouseover" end="reset.mouseout"/>
                       </use>
               </g>
        </defs>

<script type="text/javascript">
var viewWidth = 662;
var viewHeight = 103;
var sectionId = 'dynsection-10';
</script>
<script xlink:href="../../svgpan.js"/>
<svg id="graph" class="graph">
<g id="viewport">
<title>utilities.JavaFXutilities.DragAndDropFilePanes.imagePanes.DragAndDropFilePane.showInstructionLabel</title>
<polygon fill="white" stroke="none" points="-4,4 -4,-99 658,-99 658,4 -4,4"/>
<!-- Node1 -->
<g id="node1" class="node"><title>Node1</title>
<polygon fill="#bfbfbf" stroke="black" points="0.5,-26.5 0.5,-67.5 223.5,-67.5 223.5,-26.5 0.5,-26.5"/>
<text text-anchor="start" x="8.5" y="-55.5" font-family="Helvetica,sans-Serif" font-size="10.00">utilities.JavaFXutilities.</text>
<text text-anchor="start" x="8.5" y="-44.5" font-family="Helvetica,sans-Serif" font-size="10.00">DragAndDropFilePanes.imagePanes.</text>
<text text-anchor="middle" x="112" y="-33.5" font-family="Helvetica,sans-Serif" font-size="10.00">DragAndDropFilePane.showInstructionLabel</text>
</g>
<!-- Node2 -->
<g id="node2" class="node"><title>Node2</title>
<g id="a_node2"><a xlink:href="../../dc/d2e/classutilities_1_1multilanguage_1_1_multi_language_utility.html#aaa34262e5a69e5d96d435c4f9872e544" target="_top" xlink:title="utilities.multilanguage.\lMultiLanguageUtility.getInstance">
<polygon fill="white" stroke="black" points="260.5,-59 260.5,-89 431.5,-89 431.5,-59 260.5,-59"/>
<text text-anchor="start" x="268.5" y="-77" font-family="Helvetica,sans-Serif" font-size="10.00">utilities.multilanguage.</text>
<text text-anchor="middle" x="346" y="-66" font-family="Helvetica,sans-Serif" font-size="10.00">MultiLanguageUtility.getInstance</text>
</a>
</g>
</g>
<!-- Node1&#45;&gt;Node2 -->
<g id="edge1" class="edge"><title>Node1&#45;&gt;Node2</title>
<path fill="none" stroke="midnightblue" d="M223.564,-59.8674C232.456,-60.9022 241.39,-61.942 250.158,-62.9623"/>
<polygon fill="midnightblue" stroke="midnightblue" points="250.023,-66.4702 260.361,-64.1497 250.832,-59.5171 250.023,-66.4702"/>
</g>
<!-- Node4 -->
<g id="node4" class="node"><title>Node4</title>
<g id="a_node4"><a xlink:href="../../dc/d2e/classutilities_1_1multilanguage_1_1_multi_language_utility.html#a6bc704aa624d0bc11d5f18717ef5842a" target="_top" xlink:title="utilities.multilanguage.\lMultiLanguageUtility.getString\lProperty">
<polygon fill="white" stroke="black" points="266.5,0.5 266.5,-40.5 425.5,-40.5 425.5,0.5 266.5,0.5"/>
<text text-anchor="start" x="274.5" y="-28.5" font-family="Helvetica,sans-Serif" font-size="10.00">utilities.multilanguage.</text>
<text text-anchor="start" x="274.5" y="-17.5" font-family="Helvetica,sans-Serif" font-size="10.00">MultiLanguageUtility.getString</text>
<text text-anchor="middle" x="346" y="-6.5" font-family="Helvetica,sans-Serif" font-size="10.00">Property</text>
</a>
</g>
</g>
<!-- Node1&#45;&gt;Node4 -->
<g id="edge3" class="edge"><title>Node1&#45;&gt;Node4</title>
<path fill="none" stroke="midnightblue" d="M223.564,-34.1326C234.531,-32.8563 245.563,-31.5724 256.266,-30.3268"/>
<polygon fill="midnightblue" stroke="midnightblue" points="256.887,-33.7783 266.415,-29.1457 256.077,-26.8252 256.887,-33.7783"/>
</g>
<!-- Node3 -->
<g id="node3" class="node"><title>Node3</title>
<g id="a_node3"><a xlink:href="../../dc/d2e/classutilities_1_1multilanguage_1_1_multi_language_utility.html#a18c8cee78f923458998009428cd84970" target="_top" xlink:title="utilities.multilanguage.\lMultiLanguageUtility.MultiLanguage\lUtility">
<polygon fill="white" stroke="black" points="468.5,-53.5 468.5,-94.5 653.5,-94.5 653.5,-53.5 468.5,-53.5"/>
<text text-anchor="start" x="476.5" y="-82.5" font-family="Helvetica,sans-Serif" font-size="10.00">utilities.multilanguage.</text>
<text text-anchor="start" x="476.5" y="-71.5" font-family="Helvetica,sans-Serif" font-size="10.00">MultiLanguageUtility.MultiLanguage</text>
<text text-anchor="middle" x="561" y="-60.5" font-family="Helvetica,sans-Serif" font-size="10.00">Utility</text>
</a>
</g>
</g>
<!-- Node2&#45;&gt;Node3 -->
<g id="edge2" class="edge"><title>Node2&#45;&gt;Node3</title>
<path fill="none" stroke="midnightblue" d="M431.795,-74C440.384,-74 449.169,-74 457.915,-74"/>
<polygon fill="midnightblue" stroke="midnightblue" points="458.149,-77.5001 468.149,-74 458.149,-70.5001 458.149,-77.5001"/>
</g>
<!-- Node5 -->
<g id="node5" class="node"><title>Node5</title>
<g id="a_node5"><a xlink:href="../../dc/d2e/classutilities_1_1multilanguage_1_1_multi_language_utility.html#a124b4a760f410841ecc50dd4b16e40bb" target="_top" xlink:title="utilities.multilanguage.\lMultiLanguageUtility.getProperty">
<polygon fill="white" stroke="black" points="475.5,-5 475.5,-35 646.5,-35 646.5,-5 475.5,-5"/>
<text text-anchor="start" x="483.5" y="-23" font-family="Helvetica,sans-Serif" font-size="10.00">utilities.multilanguage.</text>
<text text-anchor="middle" x="561" y="-12" font-family="Helvetica,sans-Serif" font-size="10.00">MultiLanguageUtility.getProperty</text>
</a>
</g>
</g>
<!-- Node4&#45;&gt;Node5 -->
<g id="edge4" class="edge"><title>Node4&#45;&gt;Node5</title>
<path fill="none" stroke="midnightblue" d="M425.708,-20C438.551,-20 451.974,-20 465.156,-20"/>
<polygon fill="midnightblue" stroke="midnightblue" points="465.176,-23.5001 475.176,-20 465.176,-16.5001 465.176,-23.5001"/>
</g>
</g>
</svg>
        <g id="navigator" transform="translate(0 0)" fill="#404254">
                <rect fill="#f2f5e9" fill-opacity="0.5" stroke="#606060" stroke-width=".5" x="0" y="0" width="60" height="60"/>
                <use id="zoomplus" xlink:href="#zoomPlus" x="17" y="9" onmousedown="handleZoom(evt,'in')"/>
                <use id="zoomminus" xlink:href="#zoomMin" x="42" y="9" onmousedown="handleZoom(evt,'out')"/>
                <use id="reset" xlink:href="#resetDef" x="30" y="36" onmousedown="handleReset()"/>
                <g id="arrowUp" xlink:href="#dirArrow" transform="translate(30 24)" onmousedown="handlePan(0,-1)">
                  <use xlink:href="#rim" fill="#404040">
                        <set attributeName="fill" to="#808080" begin="arrowUp.mouseover" end="arrowUp.mouseout"/>
                  </use>
                  <path fill="none" stroke="white" stroke-width="1.5" d="M0,-3.0v7 M-2.5,-0.5L0,-3.0L2.5,-0.5"/>
                </g>
                <g id="arrowRight" xlink:href="#dirArrow" transform="rotate(90) translate(36 -43)" onmousedown="handlePan(1,0)">
                  <use xlink:href="#rim" fill="#404040">
                        <set attributeName="fill" to="#808080" begin="arrowRight.mouseover" end="arrowRight.mouseout"/>
                  </use>
                  <path fill="none" stroke="white" stroke-width="1.5" d="M0,-3.0v7 M-2.5,-0.5L0,-3.0L2.5,-0.5"/>
                </g>
                <g id="arrowDown" xlink:href="#dirArrow" transform="rotate(180) translate(-30 -48)" onmousedown="handlePan(0,1)">
                  <use xlink:href="#rim" fill="#404040">
                        <set attributeName="fill" to="#808080" begin="arrowDown.mouseover" end="arrowDown.mouseout"/>
                  </use>
                  <path fill="none" stroke="white" stroke-width="1.5" d="M0,-3.0v7 M-2.5,-0.5L0,-3.0L2.5,-0.5"/>
                </g>
                <g id="arrowLeft" xlink:href="#dirArrow" transform="rotate(270) translate(-36 17)" onmousedown="handlePan(-1,0)">
                  <use xlink:href="#rim" fill="#404040">
                        <set attributeName="fill" to="#808080" begin="arrowLeft.mouseover" end="arrowLeft.mouseout"/>
                  </use>
                  <path fill="none" stroke="white" stroke-width="1.5" d="M0,-3.0v7 M-2.5,-0.5L0,-3.0L2.5,-0.5"/>
                </g>
        </g>
        <svg viewBox="0 0 15 15" width="100%" height="30px" preserveAspectRatio="xMaxYMin meet">
         <g id="arrow_out" transform="scale(0.3 0.3)">
          <a xlink:href="classutilities_1_1_java_f_xutilities_1_1_drag_and_drop_file_panes_1_1image_panes_1_1_drag_and_drop_file_pane_a05597abdb2d316d1b622d82c9114b544_cgraph_org.svg" target="_base">
           <rect id="button" ry="5" rx="5" y="6" x="6" height="38" width="38"
                fill="#f2f5e9" fill-opacity="0.5" stroke="#606060" stroke-width="1.0"/>
           <path id="arrow"
             d="M 11.500037,31.436501 C 11.940474,20.09759 22.043105,11.32322 32.158766,21.979434 L 37.068811,17.246167 C 37.068811,17.246167 37.088388,32 37.088388,32 L 22.160133,31.978069 C 22.160133,31.978069 26.997745,27.140456 26.997745,27.140456 C 18.528582,18.264221 13.291696,25.230495 11.500037,31.436501 z"
             style="fill:#404040;"/>
          </a>
         </g>
        </svg>
</svg>
