<?xml version="1.0" encoding="UTF-8" standalone="no"?>
<!DOCTYPE svg PUBLIC "-//W3C//DTD SVG 1.1//EN"
 "http://www.w3.org/Graphics/SVG/1.1/DTD/svg11.dtd">
<!-- Generated by graphviz version 2.36.0 (20140111.2315)
 -->
<!-- Title: utilities.JavaFXutilities.DragAndDropFilePanes.imagePanes.DragAndDropFilePane.getPane Pages: 1 -->
<!--zoomable 347 -->
<svg id="main" version="1.1" xmlns="http://www.w3.org/2000/svg" xmlns:xlink="http://www.w3.org/1999/xlink" xml:space="preserve" onload="init(evt)">
<style type="text/css"><![CDATA[
.edge:hover path { stroke: red; }
.edge:hover polygon { stroke: red; fill: red; }
]]></style>
<script type="text/javascript"><![CDATA[
var edges = document.getElementsByTagName('g');
if (edges && edges.length) {
  for (var i=0;i<edges.length;i++) {
    if (edges[i].id.substr(0,4)=='edge') {
      edges[i].setAttribute('class','edge');
    }
  }
}
]]></script>
        <defs>
                <circle id="rim" cx="0" cy="0" r="7"/>
                <circle id="rim2" cx="0" cy="0" r="3.5"/>
                <g id="zoomPlus">
                        <use xlink:href="#rim" fill="#404040">
                                <set attributeName="fill" to="#808080" begin="zoomplus.mouseover" end="zoomplus.mouseout"/>
                        </use>
                        <path d="M-4,0h8M0,-4v8" fill="none" stroke="white" stroke-width="1.5" pointer-events="none"/>
                </g>
                <g id="zoomMin">
                        <use xlink:href="#rim" fill="#404040">
                                <set attributeName="fill" to="#808080" begin="zoomminus.mouseover" end="zoomminus.mouseout"/>
                        </use>
                        <path d="M-4,0h8" fill="none" stroke="white" stroke-width="1.5" pointer-events="none"/>
                </g>
                <g id="dirArrow">
                        <path fill="none" stroke="white" stroke-width="1.5" d="M0,-3.0v7 M-2.5,-0.5L0,-3.0L2.5,-0.5"/>
                </g>
               <g id="resetDef">
                       <use xlink:href="#rim2" fill="#404040">
                               <set attributeName="fill" to="#808080" begin="reset.mouseover" end="reset.mouseout"/>
                       </use>
               </g>
        </defs>

<script type="text/javascript">
var viewWidth = 1254;
var viewHeight = 347;
var sectionId = 'dynsection-4';
</script>
<script xlink:href="../../svgpan.js"/>
<svg id="graph" class="graph">
<g id="viewport">
<title>utilities.JavaFXutilities.DragAndDropFilePanes.imagePanes.DragAndDropFilePane.getPane</title>
<polygon fill="white" stroke="none" points="-4,4 -4,-343 1250,-343 1250,4 -4,4"/>
<!-- Node1 -->
<g id="node1" class="node"><title>Node1</title>
<polygon fill="#bfbfbf" stroke="black" points="0,-117.5 0,-158.5 190,-158.5 190,-117.5 0,-117.5"/>
<text text-anchor="start" x="8" y="-146.5" font-family="Helvetica,sans-Serif" font-size="10.00">utilities.JavaFXutilities.</text>
<text text-anchor="start" x="8" y="-135.5" font-family="Helvetica,sans-Serif" font-size="10.00">DragAndDropFilePanes.imagePanes.</text>
<text text-anchor="middle" x="95" y="-124.5" font-family="Helvetica,sans-Serif" font-size="10.00">DragAndDropFilePane.getPane</text>
</g>
<!-- Node2 -->
<g id="node2" class="node"><title>Node2</title>
<g id="a_node2"><a xlink:href="../../d5/de6/classgame_authoring_1_1scenes_1_1actor_building_scenes_1_1_actor_building_scene.html#a903b7fdfe27f5faad827063d80a02f34" target="_top" xlink:title="gameAuthoring.scenes.actor\lBuildingScenes.ActorBuildingScene.clear\lFields">
<polygon fill="white" stroke="black" points="237,-267.5 237,-308.5 449,-308.5 449,-267.5 237,-267.5"/>
<text text-anchor="start" x="245" y="-296.5" font-family="Helvetica,sans-Serif" font-size="10.00">gameAuthoring.scenes.actor</text>
<text text-anchor="start" x="245" y="-285.5" font-family="Helvetica,sans-Serif" font-size="10.00">BuildingScenes.ActorBuildingScene.clear</text>
<text text-anchor="middle" x="343" y="-274.5" font-family="Helvetica,sans-Serif" font-size="10.00">Fields</text>
</a>
</g>
</g>
<!-- Node1&#45;&gt;Node2 -->
<g id="edge1" class="edge"><title>Node1&#45;&gt;Node2</title>
<path fill="none" stroke="midnightblue" d="M119.759,-166.564C143.835,-193.701 183.503,-233.718 226,-257 233.221,-260.956 240.976,-264.43 248.927,-267.475"/>
<polygon fill="midnightblue" stroke="midnightblue" points="122.311,-164.165 113.098,-158.933 117.037,-168.768 122.311,-164.165"/>
</g>
<!-- Node10 -->
<g id="node10" class="node"><title>Node10</title>
<g id="a_node10"><a xlink:href="../../d4/d66/classgame_authoring_1_1scenes_1_1actor_building_scenes_1_1_tower_building_scene.html#a3f9397d9b0674af19816c0c746e35a5e" target="_top" xlink:title="gameAuthoring.scenes.actor\lBuildingScenes.TowerBuildingScene.configure\lAndDisplayRightPane">
<polygon fill="white" stroke="black" points="226.5,-207.5 226.5,-248.5 459.5,-248.5 459.5,-207.5 226.5,-207.5"/>
<text text-anchor="start" x="234.5" y="-236.5" font-family="Helvetica,sans-Serif" font-size="10.00">gameAuthoring.scenes.actor</text>
<text text-anchor="start" x="234.5" y="-225.5" font-family="Helvetica,sans-Serif" font-size="10.00">BuildingScenes.TowerBuildingScene.configure</text>
<text text-anchor="middle" x="343" y="-214.5" font-family="Helvetica,sans-Serif" font-size="10.00">AndDisplayRightPane</text>
</a>
</g>
</g>
<!-- Node1&#45;&gt;Node10 -->
<g id="edge9" class="edge"><title>Node1&#45;&gt;Node10</title>
<path fill="none" stroke="midnightblue" d="M146.043,-163.05C169.877,-174.372 199.012,-187.344 226,-197 236.402,-200.722 247.47,-204.231 258.48,-207.457"/>
<polygon fill="midnightblue" stroke="midnightblue" points="147.38,-159.809 136.849,-158.64 144.352,-166.12 147.38,-159.809"/>
</g>
<!-- Node11 -->
<g id="node11" class="node"><title>Node11</title>
<g id="a_node11"><a xlink:href="../../d3/d8d/classgame_authoring_1_1scenes_1_1path_building_1_1building_panes_1_1_path_background_selection_pane.html#ac42bd6ab4c2300a92734067c29b6af7c" target="_top" xlink:title="gameAuthoring.scenes.path\lBuilding.buildingPanes.PathBackground\lSelectionPane.PathBackgroundSelectionPane">
<polygon fill="white" stroke="black" points="226.5,-147.5 226.5,-188.5 459.5,-188.5 459.5,-147.5 226.5,-147.5"/>
<text text-anchor="start" x="234.5" y="-176.5" font-family="Helvetica,sans-Serif" font-size="10.00">gameAuthoring.scenes.path</text>
<text text-anchor="start" x="234.5" y="-165.5" font-family="Helvetica,sans-Serif" font-size="10.00">Building.buildingPanes.PathBackground</text>
<text text-anchor="middle" x="343" y="-154.5" font-family="Helvetica,sans-Serif" font-size="10.00">SelectionPane.PathBackgroundSelectionPane</text>
</a>
</g>
</g>
<!-- Node1&#45;&gt;Node11 -->
<g id="edge10" class="edge"><title>Node1&#45;&gt;Node11</title>
<path fill="none" stroke="midnightblue" d="M200.091,-150.694C208.698,-151.744 217.432,-152.809 226.118,-153.868"/>
<polygon fill="midnightblue" stroke="midnightblue" points="200.405,-147.206 190.055,-149.47 199.558,-154.155 200.405,-147.206"/>
</g>
<!-- Node12 -->
<g id="node12" class="node"><title>Node12</title>
<g id="a_node12"><a xlink:href="../../de/d35/classgame_authoring_1_1scenes_1_1actor_building_scenes_1_1_projectile_pane.html#a078b1fa5e6bf1ecfc14a5775ed98981c" target="_top" xlink:title="gameAuthoring.scenes.actor\lBuildingScenes.ProjectilePane.\lProjectilePane">
<polygon fill="white" stroke="black" points="262,-87.5 262,-128.5 424,-128.5 424,-87.5 262,-87.5"/>
<text text-anchor="start" x="270" y="-116.5" font-family="Helvetica,sans-Serif" font-size="10.00">gameAuthoring.scenes.actor</text>
<text text-anchor="start" x="270" y="-105.5" font-family="Helvetica,sans-Serif" font-size="10.00">BuildingScenes.ProjectilePane.</text>
<text text-anchor="middle" x="343" y="-94.5" font-family="Helvetica,sans-Serif" font-size="10.00">ProjectilePane</text>
</a>
</g>
</g>
<!-- Node1&#45;&gt;Node12 -->
<g id="edge11" class="edge"><title>Node1&#45;&gt;Node12</title>
<path fill="none" stroke="midnightblue" d="M200.091,-125.306C220.673,-122.796 241.98,-120.198 261.63,-117.801"/>
<polygon fill="midnightblue" stroke="midnightblue" points="199.558,-121.845 190.055,-126.53 200.405,-128.794 199.558,-121.845"/>
</g>
<!-- Node13 -->
<g id="node13" class="node"><title>Node13</title>
<g id="a_node13"><a xlink:href="../../d5/de6/classgame_authoring_1_1scenes_1_1actor_building_scenes_1_1_actor_building_scene.html#aad45720046d4fbf1f3ba2faa849e94f7" target="_top" xlink:title="gameAuthoring.scenes.actor\lBuildingScenes.ActorBuildingScene.setup\lDragAndDropForActorImage">
<polygon fill="white" stroke="black" points="502.5,-68.5 502.5,-109.5 717.5,-109.5 717.5,-68.5 502.5,-68.5"/>
<text text-anchor="start" x="510.5" y="-97.5" font-family="Helvetica,sans-Serif" font-size="10.00">gameAuthoring.scenes.actor</text>
<text text-anchor="start" x="510.5" y="-86.5" font-family="Helvetica,sans-Serif" font-size="10.00">BuildingScenes.ActorBuildingScene.setup</text>
<text text-anchor="middle" x="610" y="-75.5" font-family="Helvetica,sans-Serif" font-size="10.00">DragAndDropForActorImage</text>
</a>
</g>
</g>
<!-- Node1&#45;&gt;Node13 -->
<g id="edge12" class="edge"><title>Node1&#45;&gt;Node13</title>
<path fill="none" stroke="midnightblue" d="M138.908,-112.468C163.482,-99.3389 195.43,-84.7143 226,-78 317.773,-57.8433 424.872,-63.2787 502.446,-72.2013"/>
<polygon fill="midnightblue" stroke="midnightblue" points="136.966,-109.541 129.869,-117.407 140.322,-115.683 136.966,-109.541"/>
</g>
<!-- Node14 -->
<g id="node14" class="node"><title>Node14</title>
<g id="a_node14"><a xlink:href="../../de/d35/classgame_authoring_1_1scenes_1_1actor_building_scenes_1_1_projectile_pane.html#ae77dda97271c6ddb8d2f3b3daa016e6c" target="_top" xlink:title="gameAuthoring.scenes.actor\lBuildingScenes.ProjectilePane.update">
<polygon fill="white" stroke="black" points="245,-0 245,-30 441,-30 441,-0 245,-0"/>
<text text-anchor="start" x="253" y="-18" font-family="Helvetica,sans-Serif" font-size="10.00">gameAuthoring.scenes.actor</text>
<text text-anchor="middle" x="343" y="-7" font-family="Helvetica,sans-Serif" font-size="10.00">BuildingScenes.ProjectilePane.update</text>
</a>
</g>
</g>
<!-- Node1&#45;&gt;Node14 -->
<g id="edge14" class="edge"><title>Node1&#45;&gt;Node14</title>
<path fill="none" stroke="midnightblue" d="M126.955,-110.819C152.08,-90.0539 189.248,-62.169 226,-45 238.91,-38.9691 253.216,-34.0178 267.248,-30.0001"/>
<polygon fill="midnightblue" stroke="midnightblue" points="124.652,-108.182 119.236,-117.288 129.149,-113.547 124.652,-108.182"/>
</g>
<!-- Node3 -->
<g id="node3" class="node"><title>Node3</title>
<g id="a_node3"><a xlink:href="../../d5/de6/classgame_authoring_1_1scenes_1_1actor_building_scenes_1_1_actor_building_scene.html#a7956b5ed3dcd86f2cca525066bbd4361" target="_top" xlink:title="gameAuthoring.scenes.actor\lBuildingScenes.ActorBuildingScene.attempt\lToSaveActor">
<polygon fill="white" stroke="black" points="496.5,-188.5 496.5,-229.5 723.5,-229.5 723.5,-188.5 496.5,-188.5"/>
<text text-anchor="start" x="504.5" y="-217.5" font-family="Helvetica,sans-Serif" font-size="10.00">gameAuthoring.scenes.actor</text>
<text text-anchor="start" x="504.5" y="-206.5" font-family="Helvetica,sans-Serif" font-size="10.00">BuildingScenes.ActorBuildingScene.attempt</text>
<text text-anchor="middle" x="610" y="-195.5" font-family="Helvetica,sans-Serif" font-size="10.00">ToSaveActor</text>
</a>
</g>
</g>
<!-- Node2&#45;&gt;Node3 -->
<g id="edge2" class="edge"><title>Node2&#45;&gt;Node3</title>
<path fill="none" stroke="midnightblue" d="M432.987,-264.71C442.128,-262.171 451.262,-259.573 460,-257 488.938,-248.478 520.794,-238.322 547.597,-229.551"/>
<polygon fill="midnightblue" stroke="midnightblue" points="431.795,-261.408 423.084,-267.439 433.654,-268.157 431.795,-261.408"/>
</g>
<!-- Node6 -->
<g id="node6" class="node"><title>Node6</title>
<g id="a_node6"><a xlink:href="../../d4/d66/classgame_authoring_1_1scenes_1_1actor_building_scenes_1_1_tower_building_scene.html#a5fa4e9809e27472f0b30ee27b5962f21" target="_top" xlink:title="gameAuthoring.scenes.actor\lBuildingScenes.TowerBuildingScene.handle\lAddUpgrade">
<polygon fill="white" stroke="black" points="499.5,-267.5 499.5,-308.5 720.5,-308.5 720.5,-267.5 499.5,-267.5"/>
<text text-anchor="start" x="507.5" y="-296.5" font-family="Helvetica,sans-Serif" font-size="10.00">gameAuthoring.scenes.actor</text>
<text text-anchor="start" x="507.5" y="-285.5" font-family="Helvetica,sans-Serif" font-size="10.00">BuildingScenes.TowerBuildingScene.handle</text>
<text text-anchor="middle" x="610" y="-274.5" font-family="Helvetica,sans-Serif" font-size="10.00">AddUpgrade</text>
</a>
</g>
</g>
<!-- Node2&#45;&gt;Node6 -->
<g id="edge5" class="edge"><title>Node2&#45;&gt;Node6</title>
<path fill="none" stroke="midnightblue" d="M459.218,-288C472.501,-288 486.02,-288 499.228,-288"/>
<polygon fill="midnightblue" stroke="midnightblue" points="459.116,-284.5 449.116,-288 459.116,-291.5 459.116,-284.5"/>
</g>
<!-- Node4 -->
<g id="node4" class="node"><title>Node4</title>
<g id="a_node4"><a xlink:href="../../d5/de6/classgame_authoring_1_1scenes_1_1actor_building_scenes_1_1_actor_building_scene.html#a4b14803e395701d52cf61ed9a1ef0229" target="_top" xlink:title="gameAuthoring.scenes.actor\lBuildingScenes.ActorBuildingScene.setup\lFileMenu">
<polygon fill="white" stroke="black" points="763.5,-169.5 763.5,-210.5 978.5,-210.5 978.5,-169.5 763.5,-169.5"/>
<text text-anchor="start" x="771.5" y="-198.5" font-family="Helvetica,sans-Serif" font-size="10.00">gameAuthoring.scenes.actor</text>
<text text-anchor="start" x="771.5" y="-187.5" font-family="Helvetica,sans-Serif" font-size="10.00">BuildingScenes.ActorBuildingScene.setup</text>
<text text-anchor="middle" x="871" y="-176.5" font-family="Helvetica,sans-Serif" font-size="10.00">FileMenu</text>
</a>
</g>
</g>
<!-- Node3&#45;&gt;Node4 -->
<g id="edge3" class="edge"><title>Node3&#45;&gt;Node4</title>
<path fill="none" stroke="midnightblue" d="M734.006,-199.976C743.78,-199.259 753.604,-198.539 763.253,-197.831"/>
<polygon fill="midnightblue" stroke="midnightblue" points="733.565,-196.499 723.848,-200.722 734.077,-203.48 733.565,-196.499"/>
</g>
<!-- Node5 -->
<g id="node5" class="node"><title>Node5</title>
<g id="a_node5"><a xlink:href="../../d5/de6/classgame_authoring_1_1scenes_1_1actor_building_scenes_1_1_actor_building_scene.html#af797c48013cb5e0b128c5e184056a90d" target="_top" xlink:title="gameAuthoring.scenes.actor\lBuildingScenes.ActorBuildingScene.\lActorBuildingScene">
<polygon fill="white" stroke="black" points="1038,-132.5 1038,-173.5 1226,-173.5 1226,-132.5 1038,-132.5"/>
<text text-anchor="start" x="1046" y="-161.5" font-family="Helvetica,sans-Serif" font-size="10.00">gameAuthoring.scenes.actor</text>
<text text-anchor="start" x="1046" y="-150.5" font-family="Helvetica,sans-Serif" font-size="10.00">BuildingScenes.ActorBuildingScene.</text>
<text text-anchor="middle" x="1132" y="-139.5" font-family="Helvetica,sans-Serif" font-size="10.00">ActorBuildingScene</text>
</a>
</g>
</g>
<!-- Node4&#45;&gt;Node5 -->
<g id="edge4" class="edge"><title>Node4&#45;&gt;Node5</title>
<path fill="none" stroke="midnightblue" d="M988.953,-173.292C1005.26,-170.962 1021.84,-168.594 1037.64,-166.337"/>
<polygon fill="midnightblue" stroke="midnightblue" points="988.245,-169.858 978.841,-174.737 989.235,-176.788 988.245,-169.858"/>
</g>
<!-- Node7 -->
<g id="node7" class="node"><title>Node7</title>
<g id="a_node7"><a xlink:href="../../d4/d66/classgame_authoring_1_1scenes_1_1actor_building_scenes_1_1_tower_building_scene.html#abf6e70d174b0496097e281803b8655e6" target="_top" xlink:title="gameAuthoring.scenes.actor\lBuildingScenes.TowerBuildingScene.redraw\lTowerDisplay">
<polygon fill="white" stroke="black" points="760.5,-267.5 760.5,-308.5 981.5,-308.5 981.5,-267.5 760.5,-267.5"/>
<text text-anchor="start" x="768.5" y="-296.5" font-family="Helvetica,sans-Serif" font-size="10.00">gameAuthoring.scenes.actor</text>
<text text-anchor="start" x="768.5" y="-285.5" font-family="Helvetica,sans-Serif" font-size="10.00">BuildingScenes.TowerBuildingScene.redraw</text>
<text text-anchor="middle" x="871" y="-274.5" font-family="Helvetica,sans-Serif" font-size="10.00">TowerDisplay</text>
</a>
</g>
</g>
<!-- Node6&#45;&gt;Node7 -->
<g id="edge6" class="edge"><title>Node6&#45;&gt;Node7</title>
<path fill="none" stroke="midnightblue" d="M731.015,-288C740.814,-288 750.686,-288 760.404,-288"/>
<polygon fill="midnightblue" stroke="midnightblue" points="730.839,-284.5 720.839,-288 730.839,-291.5 730.839,-284.5"/>
</g>
<!-- Node8 -->
<g id="node8" class="node"><title>Node8</title>
<g id="a_node8"><a xlink:href="../../d4/d66/classgame_authoring_1_1scenes_1_1actor_building_scenes_1_1_tower_building_scene.html#ab9a78d521b93dbdd55e5dc1f71adb3f8" target="_top" xlink:title="gameAuthoring.scenes.actor\lBuildingScenes.TowerBuildingScene.initialize\lActorsAndBuildActorDisplay">
<polygon fill="white" stroke="black" points="1018.5,-237.5 1018.5,-278.5 1245.5,-278.5 1245.5,-237.5 1018.5,-237.5"/>
<text text-anchor="start" x="1026.5" y="-266.5" font-family="Helvetica,sans-Serif" font-size="10.00">gameAuthoring.scenes.actor</text>
<text text-anchor="start" x="1026.5" y="-255.5" font-family="Helvetica,sans-Serif" font-size="10.00">BuildingScenes.TowerBuildingScene.initialize</text>
<text text-anchor="middle" x="1132" y="-244.5" font-family="Helvetica,sans-Serif" font-size="10.00">ActorsAndBuildActorDisplay</text>
</a>
</g>
</g>
<!-- Node7&#45;&gt;Node8 -->
<g id="edge7" class="edge"><title>Node7&#45;&gt;Node8</title>
<path fill="none" stroke="midnightblue" d="M992.005,-274.1C1000.7,-273.093 1009.44,-272.08 1018.09,-271.078"/>
<polygon fill="midnightblue" stroke="midnightblue" points="991.37,-270.65 981.839,-275.277 992.176,-277.603 991.37,-270.65"/>
</g>
<!-- Node9 -->
<g id="node9" class="node"><title>Node9</title>
<g id="a_node9"><a xlink:href="../../d4/d66/classgame_authoring_1_1scenes_1_1actor_building_scenes_1_1_tower_building_scene.html#a0eb2856ee189de1452b66ae4fe2d81ae" target="_top" xlink:title="gameAuthoring.scenes.actor\lBuildingScenes.TowerBuildingScene.make\lNewActor">
<polygon fill="white" stroke="black" points="1024,-297.5 1024,-338.5 1240,-338.5 1240,-297.5 1024,-297.5"/>
<text text-anchor="start" x="1032" y="-326.5" font-family="Helvetica,sans-Serif" font-size="10.00">gameAuthoring.scenes.actor</text>
<text text-anchor="start" x="1032" y="-315.5" font-family="Helvetica,sans-Serif" font-size="10.00">BuildingScenes.TowerBuildingScene.make</text>
<text text-anchor="middle" x="1132" y="-304.5" font-family="Helvetica,sans-Serif" font-size="10.00">NewActor</text>
</a>
</g>
</g>
<!-- Node7&#45;&gt;Node9 -->
<g id="edge8" class="edge"><title>Node7&#45;&gt;Node9</title>
<path fill="none" stroke="midnightblue" d="M992.002,-301.9C1002.64,-303.132 1013.36,-304.374 1023.88,-305.592"/>
<polygon fill="midnightblue" stroke="midnightblue" points="992.176,-298.397 981.839,-300.723 991.37,-305.35 992.176,-298.397"/>
</g>
<!-- Node13&#45;&gt;Node5 -->
<g id="edge13" class="edge"><title>Node13&#45;&gt;Node5</title>
<path fill="none" stroke="midnightblue" d="M727.887,-103.386C821.52,-114.91 951.122,-130.861 1037.85,-141.535"/>
<polygon fill="midnightblue" stroke="midnightblue" points="728.152,-99.8923 717.799,-102.144 727.297,-106.84 728.152,-99.8923"/>
</g>
</g>
</svg>
        <g id="navigator" transform="translate(0 0)" fill="#404254">
                <rect fill="#f2f5e9" fill-opacity="0.5" stroke="#606060" stroke-width=".5" x="0" y="0" width="60" height="60"/>
                <use id="zoomplus" xlink:href="#zoomPlus" x="17" y="9" onmousedown="handleZoom(evt,'in')"/>
                <use id="zoomminus" xlink:href="#zoomMin" x="42" y="9" onmousedown="handleZoom(evt,'out')"/>
                <use id="reset" xlink:href="#resetDef" x="30" y="36" onmousedown="handleReset()"/>
                <g id="arrowUp" xlink:href="#dirArrow" transform="translate(30 24)" onmousedown="handlePan(0,-1)">
                  <use xlink:href="#rim" fill="#404040">
                        <set attributeName="fill" to="#808080" begin="arrowUp.mouseover" end="arrowUp.mouseout"/>
                  </use>
                  <path fill="none" stroke="white" stroke-width="1.5" d="M0,-3.0v7 M-2.5,-0.5L0,-3.0L2.5,-0.5"/>
                </g>
                <g id="arrowRight" xlink:href="#dirArrow" transform="rotate(90) translate(36 -43)" onmousedown="handlePan(1,0)">
                  <use xlink:href="#rim" fill="#404040">
                        <set attributeName="fill" to="#808080" begin="arrowRight.mouseover" end="arrowRight.mouseout"/>
                  </use>
                  <path fill="none" stroke="white" stroke-width="1.5" d="M0,-3.0v7 M-2.5,-0.5L0,-3.0L2.5,-0.5"/>
                </g>
                <g id="arrowDown" xlink:href="#dirArrow" transform="rotate(180) translate(-30 -48)" onmousedown="handlePan(0,1)">
                  <use xlink:href="#rim" fill="#404040">
                        <set attributeName="fill" to="#808080" begin="arrowDown.mouseover" end="arrowDown.mouseout"/>
                  </use>
                  <path fill="none" stroke="white" stroke-width="1.5" d="M0,-3.0v7 M-2.5,-0.5L0,-3.0L2.5,-0.5"/>
                </g>
                <g id="arrowLeft" xlink:href="#dirArrow" transform="rotate(270) translate(-36 17)" onmousedown="handlePan(-1,0)">
                  <use xlink:href="#rim" fill="#404040">
                        <set attributeName="fill" to="#808080" begin="arrowLeft.mouseover" end="arrowLeft.mouseout"/>
                  </use>
                  <path fill="none" stroke="white" stroke-width="1.5" d="M0,-3.0v7 M-2.5,-0.5L0,-3.0L2.5,-0.5"/>
                </g>
        </g>
        <svg viewBox="0 0 15 15" width="100%" height="30px" preserveAspectRatio="xMaxYMin meet">
         <g id="arrow_out" transform="scale(0.3 0.3)">
          <a xlink:href="classutilities_1_1_java_f_xutilities_1_1_drag_and_drop_file_panes_1_1image_panes_1_1_drag_and_drop_file_pane_a22d6f246777b35474dfb4a1766d5e225_icgraph_org.svg" target="_base">
           <rect id="button" ry="5" rx="5" y="6" x="6" height="38" width="38"
                fill="#f2f5e9" fill-opacity="0.5" stroke="#606060" stroke-width="1.0"/>
           <path id="arrow"
             d="M 11.500037,31.436501 C 11.940474,20.09759 22.043105,11.32322 32.158766,21.979434 L 37.068811,17.246167 C 37.068811,17.246167 37.088388,32 37.088388,32 L 22.160133,31.978069 C 22.160133,31.978069 26.997745,27.140456 26.997745,27.140456 C 18.528582,18.264221 13.291696,25.230495 11.500037,31.436501 z"
             style="fill:#404040;"/>
          </a>
         </g>
        </svg>
</svg>
