<?xml version="1.0" encoding="UTF-8" standalone="no"?>
<!DOCTYPE svg PUBLIC "-//W3C//DTD SVG 1.1//EN"
 "http://www.w3.org/Graphics/SVG/1.1/DTD/svg11.dtd">
<!-- Generated by graphviz version 2.36.0 (20140111.2315)
 -->
<!-- Title: gameEngine.actors.behaviors.BaseMovementBehavior.move Pages: 1 -->
<svg width="414pt" height="126pt"
 viewBox="0.00 0.00 414.00 126.00" xmlns="http://www.w3.org/2000/svg" xmlns:xlink="http://www.w3.org/1999/xlink">
<g id="graph0" class="graph" transform="scale(1 1) rotate(0) translate(4 122)">
<title>gameEngine.actors.behaviors.BaseMovementBehavior.move</title>
<polygon fill="white" stroke="none" points="-4,4 -4,-122 410,-122 410,4 -4,4"/>
<!-- Node1 -->
<g id="node1" class="node"><title>Node1</title>
<polygon fill="#bfbfbf" stroke="black" points="0.5,-49 0.5,-79 163.5,-79 163.5,-49 0.5,-49"/>
<text text-anchor="start" x="8.5" y="-67" font-family="Helvetica,sans-Serif" font-size="10.00">gameEngine.actors.behaviors.</text>
<text text-anchor="middle" x="82" y="-56" font-family="Helvetica,sans-Serif" font-size="10.00">BaseMovementBehavior.move</text>
</g>
<!-- Node2 -->
<g id="node2" class="node"><title>Node2</title>
<g id="a_node2"><a xlink:href="../../d5/d02/classgame_engine_1_1actors_1_1_base_actor.html#ae877e5334153c4e125fb84bf993587af" target="_top" xlink:title="gameEngine.actors.BaseActor.getNode">
<polygon fill="white" stroke="black" points="200,-98.5 200,-117.5 406,-117.5 406,-98.5 200,-98.5"/>
<text text-anchor="middle" x="303" y="-105.5" font-family="Helvetica,sans-Serif" font-size="10.00">gameEngine.actors.BaseActor.getNode</text>
</a>
</g>
</g>
<!-- Node1&#45;&gt;Node2 -->
<g id="edge1" class="edge"><title>Node1&#45;&gt;Node2</title>
<path fill="none" stroke="midnightblue" d="M155.69,-79.0131C170.355,-82.0131 185.667,-85.1248 200,-88 213.881,-90.7846 228.835,-93.7409 242.899,-96.5021"/>
<polygon fill="midnightblue" stroke="midnightblue" points="242.468,-99.9843 252.955,-98.473 243.815,-93.1149 242.468,-99.9843"/>
</g>
<!-- Node3 -->
<g id="node3" class="node"><title>Node3</title>
<g id="a_node3"><a xlink:href="../../dd/df0/classutilities_1_1_java_f_xutilities_1_1image_view_1_1_centered_image_view.html#a4df6d41d08c4c4a5c530290c736926f2" target="_top" xlink:title="utilities.JavaFXutilities.image\lView.CenteredImageView.setXCenter">
<polygon fill="white" stroke="black" points="207.5,-49 207.5,-79 398.5,-79 398.5,-49 207.5,-49"/>
<text text-anchor="start" x="215.5" y="-67" font-family="Helvetica,sans-Serif" font-size="10.00">utilities.JavaFXutilities.image</text>
<text text-anchor="middle" x="303" y="-56" font-family="Helvetica,sans-Serif" font-size="10.00">View.CenteredImageView.setXCenter</text>
</a>
</g>
</g>
<!-- Node1&#45;&gt;Node3 -->
<g id="edge2" class="edge"><title>Node1&#45;&gt;Node3</title>
<path fill="none" stroke="midnightblue" d="M163.615,-64C174.54,-64 185.878,-64 197.15,-64"/>
<polygon fill="midnightblue" stroke="midnightblue" points="197.47,-67.5001 207.47,-64 197.47,-60.5001 197.47,-67.5001"/>
</g>
<!-- Node4 -->
<g id="node4" class="node"><title>Node4</title>
<g id="a_node4"><a xlink:href="../../dd/df0/classutilities_1_1_java_f_xutilities_1_1image_view_1_1_centered_image_view.html#a2bcbaa8cc681ef2663182084f742d29d" target="_top" xlink:title="utilities.JavaFXutilities.image\lView.CenteredImageView.setYCenter">
<polygon fill="white" stroke="black" points="207.5,-0 207.5,-30 398.5,-30 398.5,-0 207.5,-0"/>
<text text-anchor="start" x="215.5" y="-18" font-family="Helvetica,sans-Serif" font-size="10.00">utilities.JavaFXutilities.image</text>
<text text-anchor="middle" x="303" y="-7" font-family="Helvetica,sans-Serif" font-size="10.00">View.CenteredImageView.setYCenter</text>
</a>
</g>
</g>
<!-- Node1&#45;&gt;Node4 -->
<g id="edge3" class="edge"><title>Node1&#45;&gt;Node4</title>
<path fill="none" stroke="midnightblue" d="M150.196,-48.9654C173.844,-43.6741 200.604,-37.6867 224.998,-32.2288"/>
<polygon fill="midnightblue" stroke="midnightblue" points="225.937,-35.6053 234.932,-30.0062 224.409,-28.7742 225.937,-35.6053"/>
</g>
</g>
</svg>
