<?xml version="1.0" encoding="UTF-8" standalone="no"?>
<!DOCTYPE svg PUBLIC "-//W3C//DTD SVG 1.1//EN"
 "http://www.w3.org/Graphics/SVG/1.1/DTD/svg11.dtd">
<!-- Generated by graphviz version 2.36.0 (20140111.2315)
 -->
<!-- Title: gameEngine.actors.behaviors.BaseMovementBehavior.setSpeed Pages: 1 -->
<svg width="388pt" height="87pt"
 viewBox="0.00 0.00 388.00 87.00" xmlns="http://www.w3.org/2000/svg" xmlns:xlink="http://www.w3.org/1999/xlink">
<g id="graph0" class="graph" transform="scale(1 1) rotate(0) translate(4 83)">
<title>gameEngine.actors.behaviors.BaseMovementBehavior.setSpeed</title>
<polygon fill="white" stroke="none" points="-4,4 -4,-83 384,-83 384,4 -4,4"/>
<!-- Node1 -->
<g id="node1" class="node"><title>Node1</title>
<polygon fill="#bfbfbf" stroke="black" points="0,-24 0,-54 182,-54 182,-24 0,-24"/>
<text text-anchor="start" x="8" y="-42" font-family="Helvetica,sans-Serif" font-size="10.00">gameEngine.actors.behaviors.</text>
<text text-anchor="middle" x="91" y="-31" font-family="Helvetica,sans-Serif" font-size="10.00">BaseMovementBehavior.setSpeed</text>
</g>
<!-- Node2 -->
<g id="node2" class="node"><title>Node2</title>
<g id="a_node2"><a xlink:href="../../d6/dc5/classgame_engine_1_1actors_1_1behaviors_1_1_slow_effect.html#a4c539e92c6e4a825c19dc4a73ab04996" target="_top" xlink:title="gameEngine.actors.behaviors.\lSlowEffect.end">
<polygon fill="white" stroke="black" points="218,-49 218,-79 380,-79 380,-49 218,-49"/>
<text text-anchor="start" x="226" y="-67" font-family="Helvetica,sans-Serif" font-size="10.00">gameEngine.actors.behaviors.</text>
<text text-anchor="middle" x="299" y="-56" font-family="Helvetica,sans-Serif" font-size="10.00">SlowEffect.end</text>
</a>
</g>
</g>
<!-- Node1&#45;&gt;Node2 -->
<g id="edge1" class="edge"><title>Node1&#45;&gt;Node2</title>
<path fill="none" stroke="midnightblue" d="M192.144,-51.1534C200.762,-52.1993 209.406,-53.2483 217.835,-54.2713"/>
<polygon fill="midnightblue" stroke="midnightblue" points="192.404,-47.6593 182.055,-49.929 191.56,-54.6083 192.404,-47.6593"/>
</g>
<!-- Node3 -->
<g id="node3" class="node"><title>Node3</title>
<g id="a_node3"><a xlink:href="../../d6/dc5/classgame_engine_1_1actors_1_1behaviors_1_1_slow_effect.html#ab997c714ae22ef5b5851f6405b3259e9" target="_top" xlink:title="gameEngine.actors.behaviors.\lSlowEffect.start">
<polygon fill="white" stroke="black" points="218,-0 218,-30 380,-30 380,-0 218,-0"/>
<text text-anchor="start" x="226" y="-18" font-family="Helvetica,sans-Serif" font-size="10.00">gameEngine.actors.behaviors.</text>
<text text-anchor="middle" x="299" y="-7" font-family="Helvetica,sans-Serif" font-size="10.00">SlowEffect.start</text>
</a>
</g>
</g>
<!-- Node1&#45;&gt;Node3 -->
<g id="edge2" class="edge"><title>Node1&#45;&gt;Node3</title>
<path fill="none" stroke="midnightblue" d="M192.144,-27.3327C200.762,-26.3287 209.406,-25.3216 217.835,-24.3396"/>
<polygon fill="midnightblue" stroke="midnightblue" points="191.583,-23.8744 182.055,-28.5082 192.393,-30.8273 191.583,-23.8744"/>
</g>
</g>
</svg>
