<?xml version="1.0" encoding="UTF-8" standalone="no"?>
<!DOCTYPE svg PUBLIC "-//W3C//DTD SVG 1.1//EN"
 "http://www.w3.org/Graphics/SVG/1.1/DTD/svg11.dtd">
<!-- Generated by graphviz version 2.36.0 (20140111.2315)
 -->
<!-- Title: gameEngine.actors.behaviors.BaseMovementBehavior.setRoute Pages: 1 -->
<svg width="602pt" height="87pt"
 viewBox="0.00 0.00 602.00 87.00" xmlns="http://www.w3.org/2000/svg" xmlns:xlink="http://www.w3.org/1999/xlink">
<g id="graph0" class="graph" transform="scale(1 1) rotate(0) translate(4 83)">
<title>gameEngine.actors.behaviors.BaseMovementBehavior.setRoute</title>
<polygon fill="white" stroke="none" points="-4,4 -4,-83 598,-83 598,4 -4,4"/>
<!-- Node1 -->
<g id="node1" class="node"><title>Node1</title>
<polygon fill="#bfbfbf" stroke="black" points="0,-24 0,-54 178,-54 178,-24 0,-24"/>
<text text-anchor="start" x="8" y="-42" font-family="Helvetica,sans-Serif" font-size="10.00">gameEngine.actors.behaviors.</text>
<text text-anchor="middle" x="89" y="-31" font-family="Helvetica,sans-Serif" font-size="10.00">BaseMovementBehavior.setRoute</text>
</g>
<!-- Node2 -->
<g id="node2" class="node"><title>Node2</title>
<g id="a_node2"><a xlink:href="../../db/d9e/classgame_engine_1_1actors_1_1behaviors_1_1_ao_e_attack.html#a35d7f53636d745562765310ca1e4b850" target="_top" xlink:title="gameEngine.actors.behaviors.\lAoEAttack.performAttack">
<polygon fill="white" stroke="black" points="224,-49 224,-79 386,-79 386,-49 224,-49"/>
<text text-anchor="start" x="232" y="-67" font-family="Helvetica,sans-Serif" font-size="10.00">gameEngine.actors.behaviors.</text>
<text text-anchor="middle" x="305" y="-56" font-family="Helvetica,sans-Serif" font-size="10.00">AoEAttack.performAttack</text>
</a>
</g>
</g>
<!-- Node1&#45;&gt;Node2 -->
<g id="edge1" class="edge"><title>Node1&#45;&gt;Node2</title>
<path fill="none" stroke="midnightblue" d="M188.236,-50.4762C200.148,-51.8677 212.205,-53.2763 223.813,-54.6323"/>
<polygon fill="midnightblue" stroke="midnightblue" points="188.616,-46.9969 178.278,-49.3128 187.804,-53.9496 188.616,-46.9969"/>
</g>
<!-- Node3 -->
<g id="node3" class="node"><title>Node3</title>
<g id="a_node3"><a xlink:href="../../d9/d41/classgame_engine_1_1actors_1_1behaviors_1_1_range_attack.html#ad01ed9c7d2605735948e6a8b0d1a9485" target="_top" xlink:title="gameEngine.actors.behaviors.\lRangeAttack.shootActorFromActor">
<polygon fill="white" stroke="black" points="214,-0 214,-30 396,-30 396,-0 214,-0"/>
<text text-anchor="start" x="222" y="-18" font-family="Helvetica,sans-Serif" font-size="10.00">gameEngine.actors.behaviors.</text>
<text text-anchor="middle" x="305" y="-7" font-family="Helvetica,sans-Serif" font-size="10.00">RangeAttack.shootActorFromActor</text>
</a>
</g>
</g>
<!-- Node1&#45;&gt;Node3 -->
<g id="edge2" class="edge"><title>Node1&#45;&gt;Node3</title>
<path fill="none" stroke="midnightblue" d="M188.247,-27.9817C196.78,-27.0247 205.387,-26.0594 213.85,-25.1102"/>
<polygon fill="midnightblue" stroke="midnightblue" points="187.825,-24.5069 178.278,-29.0997 188.605,-31.4633 187.825,-24.5069"/>
</g>
<!-- Node4 -->
<g id="node4" class="node"><title>Node4</title>
<g id="a_node4"><a xlink:href="../../d9/d41/classgame_engine_1_1actors_1_1behaviors_1_1_range_attack.html#adce033b0e318665ad52cde7c985b8538" target="_top" xlink:title="gameEngine.actors.behaviors.\lRangeAttack.performAttack">
<polygon fill="white" stroke="black" points="432,-0 432,-30 594,-30 594,-0 432,-0"/>
<text text-anchor="start" x="440" y="-18" font-family="Helvetica,sans-Serif" font-size="10.00">gameEngine.actors.behaviors.</text>
<text text-anchor="middle" x="513" y="-7" font-family="Helvetica,sans-Serif" font-size="10.00">RangeAttack.performAttack</text>
</a>
</g>
</g>
<!-- Node3&#45;&gt;Node4 -->
<g id="edge3" class="edge"><title>Node3&#45;&gt;Node4</title>
<path fill="none" stroke="midnightblue" d="M406.144,-15C414.762,-15 423.406,-15 431.835,-15"/>
<polygon fill="midnightblue" stroke="midnightblue" points="406.055,-11.5001 396.055,-15 406.055,-18.5001 406.055,-11.5001"/>
</g>
</g>
</svg>
