<?xml version="1.0" encoding="UTF-8" standalone="no"?>
<!DOCTYPE svg PUBLIC "-//W3C//DTD SVG 1.1//EN"
 "http://www.w3.org/Graphics/SVG/1.1/DTD/svg11.dtd">
<!-- Generated by graphviz version 2.36.0 (20140111.2315)
 -->
<!-- Title: gameEngine.actors.behaviors.BaseMovementBehavior.move Pages: 1 -->
<!--zoomable 110 -->
<svg id="main" version="1.1" xmlns="http://www.w3.org/2000/svg" xmlns:xlink="http://www.w3.org/1999/xlink" xml:space="preserve" onload="init(evt)">
<style type="text/css"><![CDATA[
.edge:hover path { stroke: red; }
.edge:hover polygon { stroke: red; fill: red; }
]]></style>
<script type="text/javascript"><![CDATA[
var edges = document.getElementsByTagName('g');
if (edges && edges.length) {
  for (var i=0;i<edges.length;i++) {
    if (edges[i].id.substr(0,4)=='edge') {
      edges[i].setAttribute('class','edge');
    }
  }
}
]]></script>
        <defs>
                <circle id="rim" cx="0" cy="0" r="7"/>
                <circle id="rim2" cx="0" cy="0" r="3.5"/>
                <g id="zoomPlus">
                        <use xlink:href="#rim" fill="#404040">
                                <set attributeName="fill" to="#808080" begin="zoomplus.mouseover" end="zoomplus.mouseout"/>
                        </use>
                        <path d="M-4,0h8M0,-4v8" fill="none" stroke="white" stroke-width="1.5" pointer-events="none"/>
                </g>
                <g id="zoomMin">
                        <use xlink:href="#rim" fill="#404040">
                                <set attributeName="fill" to="#808080" begin="zoomminus.mouseover" end="zoomminus.mouseout"/>
                        </use>
                        <path d="M-4,0h8" fill="none" stroke="white" stroke-width="1.5" pointer-events="none"/>
                </g>
                <g id="dirArrow">
                        <path fill="none" stroke="white" stroke-width="1.5" d="M0,-3.0v7 M-2.5,-0.5L0,-3.0L2.5,-0.5"/>
                </g>
               <g id="resetDef">
                       <use xlink:href="#rim2" fill="#404040">
                               <set attributeName="fill" to="#808080" begin="reset.mouseover" end="reset.mouseout"/>
                       </use>
               </g>
        </defs>

<script type="text/javascript">
var viewWidth = 848;
var viewHeight = 110;
var sectionId = 'dynsection-8';
</script>
<script xlink:href="../../svgpan.js"/>
<svg id="graph" class="graph">
<g id="viewport">
<title>gameEngine.actors.behaviors.BaseMovementBehavior.move</title>
<polygon fill="white" stroke="none" points="-4,4 -4,-106 844,-106 844,4 -4,4"/>
<!-- Node1 -->
<g id="node1" class="node"><title>Node1</title>
<polygon fill="#bfbfbf" stroke="black" points="0.5,-52 0.5,-82 163.5,-82 163.5,-52 0.5,-52"/>
<text text-anchor="start" x="8.5" y="-70" font-family="Helvetica,sans-Serif" font-size="10.00">gameEngine.actors.behaviors.</text>
<text text-anchor="middle" x="82" y="-59" font-family="Helvetica,sans-Serif" font-size="10.00">BaseMovementBehavior.move</text>
</g>
<!-- Node2 -->
<g id="node2" class="node"><title>Node2</title>
<g id="a_node2"><a xlink:href="../../d6/d0d/classgame_engine_1_1actors_1_1behaviors_1_1_enemy_homing_movement.html#ae0dfa468b7ebfd766b31406b8d1f74d6" target="_top" xlink:title="gameEngine.actors.behaviors.\lEnemyHomingMovement.execute">
<polygon fill="white" stroke="black" points="449.5,-49 449.5,-79 628.5,-79 628.5,-49 449.5,-49"/>
<text text-anchor="start" x="457.5" y="-67" font-family="Helvetica,sans-Serif" font-size="10.00">gameEngine.actors.behaviors.</text>
<text text-anchor="middle" x="539" y="-56" font-family="Helvetica,sans-Serif" font-size="10.00">EnemyHomingMovement.execute</text>
</a>
</g>
</g>
<!-- Node1&#45;&gt;Node2 -->
<g id="edge1" class="edge"><title>Node1&#45;&gt;Node2</title>
<path fill="none" stroke="midnightblue" d="M173.63,-66.4024C253.702,-65.8745 369.78,-65.1091 449.275,-64.585"/>
<polygon fill="midnightblue" stroke="midnightblue" points="173.536,-62.9029 163.559,-66.4688 173.582,-69.9027 173.536,-62.9029"/>
</g>
<!-- Node3 -->
<g id="node3" class="node"><title>Node3</title>
<g id="a_node3"><a xlink:href="../../d6/d0e/classgame_engine_1_1actors_1_1behaviors_1_1_a_i_movement.html#aeb1d8783ef4330c7c62ab30c03822b7d" target="_top" xlink:title="gameEngine.actors.behaviors.\lAIMovement.execute">
<polygon fill="white" stroke="black" points="678,-71 678,-101 840,-101 840,-71 678,-71"/>
<text text-anchor="start" x="686" y="-89" font-family="Helvetica,sans-Serif" font-size="10.00">gameEngine.actors.behaviors.</text>
<text text-anchor="middle" x="759" y="-78" font-family="Helvetica,sans-Serif" font-size="10.00">AIMovement.execute</text>
</a>
</g>
</g>
<!-- Node1&#45;&gt;Node3 -->
<g id="edge2" class="edge"><title>Node1&#45;&gt;Node3</title>
<path fill="none" stroke="midnightblue" d="M173.779,-77.7792C182.632,-78.6219 191.484,-79.3835 200,-80 369.823,-92.2948 569.465,-90.5361 677.942,-88.2254"/>
<polygon fill="midnightblue" stroke="midnightblue" points="174.098,-74.2937 163.803,-76.7965 173.412,-81.26 174.098,-74.2937"/>
</g>
<!-- Node4 -->
<g id="node4" class="node"><title>Node4</title>
<g id="a_node4"><a xlink:href="../../de/d4a/classgame_engine_1_1actors_1_1behaviors_1_1_base_movement_behavior.html#a651324cf5d06db046fb2ee34330d7452" target="_top" xlink:title="gameEngine.actors.behaviors.\lBaseMovementBehavior.moveTowards">
<polygon fill="white" stroke="black" points="200,-8 200,-38 400,-38 400,-8 200,-8"/>
<text text-anchor="start" x="208" y="-26" font-family="Helvetica,sans-Serif" font-size="10.00">gameEngine.actors.behaviors.</text>
<text text-anchor="middle" x="300" y="-15" font-family="Helvetica,sans-Serif" font-size="10.00">BaseMovementBehavior.moveTowards</text>
</a>
</g>
</g>
<!-- Node1&#45;&gt;Node4 -->
<g id="edge3" class="edge"><title>Node1&#45;&gt;Node4</title>
<path fill="none" stroke="midnightblue" d="M166.709,-49.9482C186.007,-46.0171 206.396,-41.8638 225.235,-38.0262"/>
<polygon fill="midnightblue" stroke="midnightblue" points="165.831,-46.5551 156.731,-51.9808 167.228,-53.4142 165.831,-46.5551"/>
</g>
<!-- Node4&#45;&gt;Node2 -->
<g id="edge7" class="edge"><title>Node4&#45;&gt;Node2</title>
<path fill="none" stroke="midnightblue" d="M398.147,-39.806C415.69,-42.8409 433.879,-45.9875 451.106,-48.9677"/>
<polygon fill="midnightblue" stroke="midnightblue" points="398.355,-36.29 387.904,-38.0341 397.161,-43.1876 398.355,-36.29"/>
</g>
<!-- Node5 -->
<g id="node5" class="node"><title>Node5</title>
<g id="a_node5"><a xlink:href="../../de/d4a/classgame_engine_1_1actors_1_1behaviors_1_1_base_movement_behavior.html#ac56b8c6d59f87cad83decf65b7fd368f" target="_top" xlink:title="gameEngine.actors.behaviors.\lBaseMovementBehavior.findNextTarget">
<polygon fill="white" stroke="black" points="436.5,-0 436.5,-30 641.5,-30 641.5,-0 436.5,-0"/>
<text text-anchor="start" x="444.5" y="-18" font-family="Helvetica,sans-Serif" font-size="10.00">gameEngine.actors.behaviors.</text>
<text text-anchor="middle" x="539" y="-7" font-family="Helvetica,sans-Serif" font-size="10.00">BaseMovementBehavior.findNextTarget</text>
</a>
</g>
</g>
<!-- Node4&#45;&gt;Node5 -->
<g id="edge4" class="edge"><title>Node4&#45;&gt;Node5</title>
<path fill="none" stroke="midnightblue" d="M410.249,-19.3123C418.899,-19.0203 427.615,-18.7261 436.212,-18.4359"/>
<polygon fill="midnightblue" stroke="midnightblue" points="410.012,-15.8182 400.136,-19.6536 410.249,-22.8142 410.012,-15.8182"/>
</g>
<!-- Node5&#45;&gt;Node3 -->
<g id="edge5" class="edge"><title>Node5&#45;&gt;Node3</title>
<path fill="none" stroke="midnightblue" d="M620.127,-32.6134C627.563,-34.6202 634.949,-36.7566 642,-39 670.471,-48.0582 701.823,-60.9448 724.747,-70.934"/>
<polygon fill="midnightblue" stroke="midnightblue" points="620.908,-29.1998 610.347,-30.0519 619.134,-35.9714 620.908,-29.1998"/>
</g>
<!-- Node6 -->
<g id="node6" class="node"><title>Node6</title>
<g id="a_node6"><a xlink:href="../../da/d56/classgame_engine_1_1actors_1_1behaviors_1_1_linear_movement.html#a388237f4dafec0d8b13cd7c215b5ec87" target="_top" xlink:title="gameEngine.actors.behaviors.\lLinearMovement.execute">
<polygon fill="white" stroke="black" points="678,-0 678,-30 840,-30 840,-0 678,-0"/>
<text text-anchor="start" x="686" y="-18" font-family="Helvetica,sans-Serif" font-size="10.00">gameEngine.actors.behaviors.</text>
<text text-anchor="middle" x="759" y="-7" font-family="Helvetica,sans-Serif" font-size="10.00">LinearMovement.execute</text>
</a>
</g>
</g>
<!-- Node5&#45;&gt;Node6 -->
<g id="edge6" class="edge"><title>Node5&#45;&gt;Node6</title>
<path fill="none" stroke="midnightblue" d="M651.884,-15C660.596,-15 669.282,-15 677.722,-15"/>
<polygon fill="midnightblue" stroke="midnightblue" points="651.66,-11.5001 641.66,-15 651.66,-18.5001 651.66,-11.5001"/>
</g>
</g>
</svg>
        <g id="navigator" transform="translate(0 0)" fill="#404254">
                <rect fill="#f2f5e9" fill-opacity="0.5" stroke="#606060" stroke-width=".5" x="0" y="0" width="60" height="60"/>
                <use id="zoomplus" xlink:href="#zoomPlus" x="17" y="9" onmousedown="handleZoom(evt,'in')"/>
                <use id="zoomminus" xlink:href="#zoomMin" x="42" y="9" onmousedown="handleZoom(evt,'out')"/>
                <use id="reset" xlink:href="#resetDef" x="30" y="36" onmousedown="handleReset()"/>
                <g id="arrowUp" xlink:href="#dirArrow" transform="translate(30 24)" onmousedown="handlePan(0,-1)">
                  <use xlink:href="#rim" fill="#404040">
                        <set attributeName="fill" to="#808080" begin="arrowUp.mouseover" end="arrowUp.mouseout"/>
                  </use>
                  <path fill="none" stroke="white" stroke-width="1.5" d="M0,-3.0v7 M-2.5,-0.5L0,-3.0L2.5,-0.5"/>
                </g>
                <g id="arrowRight" xlink:href="#dirArrow" transform="rotate(90) translate(36 -43)" onmousedown="handlePan(1,0)">
                  <use xlink:href="#rim" fill="#404040">
                        <set attributeName="fill" to="#808080" begin="arrowRight.mouseover" end="arrowRight.mouseout"/>
                  </use>
                  <path fill="none" stroke="white" stroke-width="1.5" d="M0,-3.0v7 M-2.5,-0.5L0,-3.0L2.5,-0.5"/>
                </g>
                <g id="arrowDown" xlink:href="#dirArrow" transform="rotate(180) translate(-30 -48)" onmousedown="handlePan(0,1)">
                  <use xlink:href="#rim" fill="#404040">
                        <set attributeName="fill" to="#808080" begin="arrowDown.mouseover" end="arrowDown.mouseout"/>
                  </use>
                  <path fill="none" stroke="white" stroke-width="1.5" d="M0,-3.0v7 M-2.5,-0.5L0,-3.0L2.5,-0.5"/>
                </g>
                <g id="arrowLeft" xlink:href="#dirArrow" transform="rotate(270) translate(-36 17)" onmousedown="handlePan(-1,0)">
                  <use xlink:href="#rim" fill="#404040">
                        <set attributeName="fill" to="#808080" begin="arrowLeft.mouseover" end="arrowLeft.mouseout"/>
                  </use>
                  <path fill="none" stroke="white" stroke-width="1.5" d="M0,-3.0v7 M-2.5,-0.5L0,-3.0L2.5,-0.5"/>
                </g>
        </g>
        <svg viewBox="0 0 15 15" width="100%" height="30px" preserveAspectRatio="xMaxYMin meet">
         <g id="arrow_out" transform="scale(0.3 0.3)">
          <a xlink:href="classgame_engine_1_1actors_1_1behaviors_1_1_base_movement_behavior_aff0b5253f4e7e0aab38f275509464092_icgraph_org.svg" target="_base">
           <rect id="button" ry="5" rx="5" y="6" x="6" height="38" width="38"
                fill="#f2f5e9" fill-opacity="0.5" stroke="#606060" stroke-width="1.0"/>
           <path id="arrow"
             d="M 11.500037,31.436501 C 11.940474,20.09759 22.043105,11.32322 32.158766,21.979434 L 37.068811,17.246167 C 37.068811,17.246167 37.088388,32 37.088388,32 L 22.160133,31.978069 C 22.160133,31.978069 26.997745,27.140456 26.997745,27.140456 C 18.528582,18.264221 13.291696,25.230495 11.500037,31.436501 z"
             style="fill:#404040;"/>
          </a>
         </g>
        </svg>
</svg>
