<?xml version="1.0" encoding="UTF-8" standalone="no"?>
<!DOCTYPE svg PUBLIC "-//W3C//DTD SVG 1.1//EN"
 "http://www.w3.org/Graphics/SVG/1.1/DTD/svg11.dtd">
<!-- Generated by graphviz version 2.36.0 (20140111.2315)
 -->
<!-- Title: gameEngine.actors.behaviors.BaseMovementBehavior.getSpeed Pages: 1 -->
<svg width="388pt" height="38pt"
 viewBox="0.00 0.00 388.00 38.00" xmlns="http://www.w3.org/2000/svg" xmlns:xlink="http://www.w3.org/1999/xlink">
<g id="graph0" class="graph" transform="scale(1 1) rotate(0) translate(4 34)">
<title>gameEngine.actors.behaviors.BaseMovementBehavior.getSpeed</title>
<polygon fill="white" stroke="none" points="-4,4 -4,-34 384,-34 384,4 -4,4"/>
<!-- Node1 -->
<g id="node1" class="node"><title>Node1</title>
<polygon fill="#bfbfbf" stroke="black" points="0,-0 0,-30 182,-30 182,-0 0,-0"/>
<text text-anchor="start" x="8" y="-18" font-family="Helvetica,sans-Serif" font-size="10.00">gameEngine.actors.behaviors.</text>
<text text-anchor="middle" x="91" y="-7" font-family="Helvetica,sans-Serif" font-size="10.00">BaseMovementBehavior.getSpeed</text>
</g>
<!-- Node2 -->
<g id="node2" class="node"><title>Node2</title>
<g id="a_node2"><a xlink:href="../../d6/dc5/classgame_engine_1_1actors_1_1behaviors_1_1_slow_effect.html#ab997c714ae22ef5b5851f6405b3259e9" target="_top" xlink:title="gameEngine.actors.behaviors.\lSlowEffect.start">
<polygon fill="white" stroke="black" points="218,-0 218,-30 380,-30 380,-0 218,-0"/>
<text text-anchor="start" x="226" y="-18" font-family="Helvetica,sans-Serif" font-size="10.00">gameEngine.actors.behaviors.</text>
<text text-anchor="middle" x="299" y="-7" font-family="Helvetica,sans-Serif" font-size="10.00">SlowEffect.start</text>
</a>
</g>
</g>
<!-- Node1&#45;&gt;Node2 -->
<g id="edge1" class="edge"><title>Node1&#45;&gt;Node2</title>
<path fill="none" stroke="midnightblue" d="M192.144,-15C200.762,-15 209.406,-15 217.835,-15"/>
<polygon fill="midnightblue" stroke="midnightblue" points="192.055,-11.5001 182.055,-15 192.055,-18.5001 192.055,-11.5001"/>
</g>
</g>
</svg>
