<?xml version="1.0" encoding="UTF-8" standalone="no"?>
<!DOCTYPE svg PUBLIC "-//W3C//DTD SVG 1.1//EN"
 "http://www.w3.org/Graphics/SVG/1.1/DTD/svg11.dtd">
<!-- Generated by graphviz version 2.36.0 (20140111.2315)
 -->
<!-- Title: gamePlayer.guiItems.controlDockButtons.buttons.SpeedButton Pages: 1 -->
<svg width="984pt" height="191pt"
 viewBox="0.00 0.00 984.00 191.00" xmlns="http://www.w3.org/2000/svg" xmlns:xlink="http://www.w3.org/1999/xlink">
<g id="graph0" class="graph" transform="scale(1 1) rotate(0) translate(4 187)">
<title>gamePlayer.guiItems.controlDockButtons.buttons.SpeedButton</title>
<polygon fill="white" stroke="none" points="-4,4 -4,-187 980,-187 980,4 -4,4"/>
<!-- Node1 -->
<g id="node1" class="node"><title>Node1</title>
<polygon fill="#bfbfbf" stroke="black" points="792,-47 792,-77 976,-77 976,-47 792,-47"/>
<text text-anchor="start" x="800" y="-65" font-family="Helvetica,sans-Serif" font-size="10.00">gamePlayer.guiItems.control</text>
<text text-anchor="middle" x="884" y="-54" font-family="Helvetica,sans-Serif" font-size="10.00">DockButtons.buttons.SpeedButton</text>
</g>
<!-- Node2 -->
<g id="node2" class="node"><title>Node2</title>
<g id="a_node2"><a xlink:href="../../d5/da2/classgame_player_1_1gui_items_1_1control_dock_buttons_1_1_control_dock_button.html" target="_top" xlink:title="gamePlayer.guiItems.control\lDockButtons.ControlDockButton">
<polygon fill="white" stroke="black" points="526,-78 526,-108 698,-108 698,-78 526,-78"/>
<text text-anchor="start" x="534" y="-96" font-family="Helvetica,sans-Serif" font-size="10.00">gamePlayer.guiItems.control</text>
<text text-anchor="middle" x="612" y="-85" font-family="Helvetica,sans-Serif" font-size="10.00">DockButtons.ControlDockButton</text>
</a>
</g>
</g>
<!-- Node2&#45;&gt;Node1 -->
<g id="edge1" class="edge"><title>Node2&#45;&gt;Node1</title>
<path fill="none" stroke="midnightblue" d="M708.333,-82.0543C735.467,-78.939 764.947,-75.5543 791.826,-72.4681"/>
<polygon fill="midnightblue" stroke="midnightblue" points="707.595,-78.6161 698.059,-83.234 708.393,-85.5704 707.595,-78.6161"/>
</g>
<!-- Node3 -->
<g id="node3" class="node"><title>Node3</title>
<g id="a_node3"><a xlink:href="../../de/d25/interfacegame_player_1_1gui_items_1_1_gui_item.html" target="_top" xlink:title="gamePlayer.guiItems.GuiItem">
<polygon fill="white" stroke="black" points="261,-157.5 261,-176.5 419,-176.5 419,-157.5 261,-157.5"/>
<text text-anchor="middle" x="340" y="-164.5" font-family="Helvetica,sans-Serif" font-size="10.00">gamePlayer.guiItems.GuiItem</text>
</a>
</g>
</g>
<!-- Node3&#45;&gt;Node2 -->
<g id="edge2" class="edge"><title>Node3&#45;&gt;Node2</title>
<path fill="none" stroke="midnightblue" d="M407.418,-155.538C438.28,-149.588 475.301,-141.554 508,-132 530.758,-125.35 555.635,-115.992 575.239,-108.11"/>
<polygon fill="midnightblue" stroke="midnightblue" points="406.376,-152.174 397.203,-157.476 407.68,-159.051 406.376,-152.174"/>
</g>
<!-- Node4 -->
<g id="node4" class="node"><title>Node4</title>
<g id="a_node4"><a xlink:href="../../d7/d02/interfacegame_player_1_1main_classes_1_1gui_builder_1_1_gui_element.html" target="_top" xlink:title="gamePlayer.mainClasses.gui\lBuilder.GuiElement">
<polygon fill="white" stroke="black" points="0,-152 0,-182 154,-182 154,-152 0,-152"/>
<text text-anchor="start" x="8" y="-170" font-family="Helvetica,sans-Serif" font-size="10.00">gamePlayer.mainClasses.gui</text>
<text text-anchor="middle" x="77" y="-159" font-family="Helvetica,sans-Serif" font-size="10.00">Builder.GuiElement</text>
</a>
</g>
</g>
<!-- Node4&#45;&gt;Node3 -->
<g id="edge3" class="edge"><title>Node4&#45;&gt;Node3</title>
<path fill="none" stroke="midnightblue" d="M164.585,-167C195.689,-167 230.56,-167 260.9,-167"/>
<polygon fill="midnightblue" stroke="midnightblue" points="164.194,-163.5 154.194,-167 164.194,-170.5 164.194,-163.5"/>
</g>
<!-- Node5 -->
<g id="node5" class="node"><title>Node5</title>
<polygon fill="white" stroke="#bfbfbf" points="300.5,-119.5 300.5,-138.5 379.5,-138.5 379.5,-119.5 300.5,-119.5"/>
<text text-anchor="middle" x="340" y="-126.5" font-family="Helvetica,sans-Serif" font-size="10.00">ToggleButton</text>
</g>
<!-- Node5&#45;&gt;Node2 -->
<g id="edge4" class="edge"><title>Node5&#45;&gt;Node2</title>
<path fill="none" stroke="#9a32cd" stroke-dasharray="5,2" d="M389.75,-122.632C423.06,-118.267 468.204,-112.326 508,-107 513.813,-106.222 519.811,-105.416 525.851,-104.601"/>
<polygon fill="#9a32cd" stroke="#9a32cd" points="389.273,-119.164 379.812,-123.933 390.182,-126.105 389.273,-119.164"/>
<text text-anchor="middle" x="473" y="-120" font-family="Helvetica,sans-Serif" font-size="10.00"> myButton</text>
</g>
<!-- Node6 -->
<g id="node6" class="node"><title>Node6</title>
<polygon fill="white" stroke="#bfbfbf" points="306,-81.5 306,-100.5 374,-100.5 374,-81.5 306,-81.5"/>
<text text-anchor="middle" x="340" y="-88.5" font-family="Helvetica,sans-Serif" font-size="10.00">ImageView</text>
</g>
<!-- Node6&#45;&gt;Node2 -->
<g id="edge5" class="edge"><title>Node6&#45;&gt;Node2</title>
<path fill="none" stroke="#9a32cd" stroke-dasharray="5,2" d="M384.316,-91.3209C422.319,-91.6024 478.698,-92.02 525.721,-92.3683"/>
<polygon fill="#9a32cd" stroke="#9a32cd" points="384.133,-87.8195 374.107,-91.2452 384.081,-94.8193 384.133,-87.8195"/>
<text text-anchor="middle" x="473" y="-96" font-family="Helvetica,sans-Serif" font-size="10.00"> myImageView</text>
</g>
<!-- Node7 -->
<g id="node7" class="node"><title>Node7</title>
<polygon fill="white" stroke="#bfbfbf" points="299.5,-38.5 299.5,-57.5 380.5,-57.5 380.5,-38.5 299.5,-38.5"/>
<text text-anchor="middle" x="340" y="-45.5" font-family="Helvetica,sans-Serif" font-size="10.00">Dimension2D</text>
</g>
<!-- Node7&#45;&gt;Node2 -->
<g id="edge6" class="edge"><title>Node7&#45;&gt;Node2</title>
<path fill="none" stroke="#9a32cd" stroke-dasharray="5,2" d="M391.116,-51.4411C424.431,-54.2087 469.052,-58.8374 508,-66 524.999,-69.1262 543.321,-73.5705 559.732,-77.9531"/>
<polygon fill="#9a32cd" stroke="#9a32cd" points="390.966,-47.9179 380.718,-50.6071 390.406,-54.8955 390.966,-47.9179"/>
<text text-anchor="middle" x="473" y="-80" font-family="Helvetica,sans-Serif" font-size="10.00"> imageSize</text>
<text text-anchor="middle" x="473" y="-69" font-family="Helvetica,sans-Serif" font-size="10.00">buttonSize</text>
</g>
<!-- Node8 -->
<g id="node8" class="node"><title>Node8</title>
<g id="a_node8"><a xlink:href="../../df/db4/classutilities_1_1_x_m_l_parsing_1_1_x_m_l_parser.html" target="_top" xlink:title="utilities.XMLParsing.XMLParser">
<polygon fill="white" stroke="black" points="260,-0.5 260,-19.5 420,-19.5 420,-0.5 260,-0.5"/>
<text text-anchor="middle" x="340" y="-7.5" font-family="Helvetica,sans-Serif" font-size="10.00">utilities.XMLParsing.XMLParser</text>
</a>
</g>
</g>
<!-- Node8&#45;&gt;Node2 -->
<g id="edge7" class="edge"><title>Node8&#45;&gt;Node2</title>
<path fill="none" stroke="#9a32cd" stroke-dasharray="5,2" d="M430.207,-14.2254C456.871,-18.7573 485.079,-27.0713 508,-42 519.777,-49.6703 514.608,-59.7693 526,-68 531.361,-71.8735 537.32,-75.151 543.524,-77.9236"/>
<polygon fill="#9a32cd" stroke="#9a32cd" points="430.493,-10.7284 420.077,-12.6678 429.429,-17.647 430.493,-10.7284"/>
<text text-anchor="middle" x="473" y="-45" font-family="Helvetica,sans-Serif" font-size="10.00"> myParser</text>
</g>
<!-- Node9 -->
<g id="node9" class="node"><title>Node9</title>
<polygon fill="white" stroke="#bfbfbf" points="43.5,-0.5 43.5,-19.5 110.5,-19.5 110.5,-0.5 43.5,-0.5"/>
<text text-anchor="middle" x="77" y="-7.5" font-family="Helvetica,sans-Serif" font-size="10.00">Document</text>
</g>
<!-- Node9&#45;&gt;Node8 -->
<g id="edge8" class="edge"><title>Node9&#45;&gt;Node8</title>
<path fill="none" stroke="#9a32cd" stroke-dasharray="5,2" d="M120.641,-10C158.292,-10 214.161,-10 259.961,-10"/>
<polygon fill="#9a32cd" stroke="#9a32cd" points="120.528,-6.5001 110.528,-10 120.528,-13.5001 120.528,-6.5001"/>
<text text-anchor="middle" x="207" y="-13" font-family="Helvetica,sans-Serif" font-size="10.00"> myDocument</text>
</g>
<!-- Node10 -->
<g id="node10" class="node"><title>Node10</title>
<g id="a_node10"><a xlink:href="../../dc/da5/interfacegame_player_1_1gui_items_listeners_1_1_speed_button_listener.html" target="_top" xlink:title="gamePlayer.guiItemsListeners.\lSpeedButtonListener">
<polygon fill="white" stroke="black" points="530,-29 530,-59 694,-59 694,-29 530,-29"/>
<text text-anchor="start" x="538" y="-47" font-family="Helvetica,sans-Serif" font-size="10.00">gamePlayer.guiItemsListeners.</text>
<text text-anchor="middle" x="612" y="-36" font-family="Helvetica,sans-Serif" font-size="10.00">SpeedButtonListener</text>
</a>
</g>
</g>
<!-- Node10&#45;&gt;Node1 -->
<g id="edge9" class="edge"><title>Node10&#45;&gt;Node1</title>
<path fill="none" stroke="#9a32cd" stroke-dasharray="5,2" d="M704.251,-50.0834C732.429,-51.9619 763.458,-54.0305 791.643,-55.9096"/>
<polygon fill="#9a32cd" stroke="#9a32cd" points="704.22,-46.5736 694.009,-49.4006 703.754,-53.5581 704.22,-46.5736"/>
<text text-anchor="middle" x="745" y="-58" font-family="Helvetica,sans-Serif" font-size="10.00"> myListener</text>
</g>
</g>
</svg>
