<?xml version="1.0" encoding="UTF-8" standalone="no"?>
<!DOCTYPE svg PUBLIC "-//W3C//DTD SVG 1.1//EN"
 "http://www.w3.org/Graphics/SVG/1.1/DTD/svg11.dtd">
<!-- Generated by graphviz version 2.36.0 (20140111.2315)
 -->
<!-- Title: gameAuthoring.scenes.pathBuilding.enemyLocations.PathStartingLocation Pages: 1 -->
<svg width="208pt" height="174pt"
 viewBox="0.00 0.00 208.00 174.00" xmlns="http://www.w3.org/2000/svg" xmlns:xlink="http://www.w3.org/1999/xlink">
<g id="graph0" class="graph" transform="scale(1 1) rotate(0) translate(4 170)">
<title>gameAuthoring.scenes.pathBuilding.enemyLocations.PathStartingLocation</title>
<polygon fill="white" stroke="none" points="-4,4 -4,-170 204,-170 204,4 -4,4"/>
<!-- Node1 -->
<g id="node1" class="node"><title>Node1</title>
<polygon fill="#bfbfbf" stroke="black" points="1,-0.5 1,-41.5 199,-41.5 199,-0.5 1,-0.5"/>
<text text-anchor="start" x="9" y="-29.5" font-family="Helvetica,sans-Serif" font-size="10.00">gameAuthoring.scenes.path</text>
<text text-anchor="start" x="9" y="-18.5" font-family="Helvetica,sans-Serif" font-size="10.00">Building.enemyLocations.PathStarting</text>
<text text-anchor="middle" x="100" y="-7.5" font-family="Helvetica,sans-Serif" font-size="10.00">Location</text>
</g>
<!-- Node2 -->
<g id="node2" class="node"><title>Node2</title>
<g id="a_node2"><a xlink:href="../../d3/d91/classgame_authoring_1_1scenes_1_1path_building_1_1enemy_locations_1_1_path_location.html" target="_top" xlink:title="gameAuthoring.scenes.path\lBuilding.enemyLocations.PathLocation">
<polygon fill="white" stroke="black" points="0,-79 0,-109 200,-109 200,-79 0,-79"/>
<text text-anchor="start" x="8" y="-97" font-family="Helvetica,sans-Serif" font-size="10.00">gameAuthoring.scenes.path</text>
<text text-anchor="middle" x="100" y="-86" font-family="Helvetica,sans-Serif" font-size="10.00">Building.enemyLocations.PathLocation</text>
</a>
</g>
</g>
<!-- Node2&#45;&gt;Node1 -->
<g id="edge1" class="edge"><title>Node2&#45;&gt;Node1</title>
<path fill="none" stroke="midnightblue" d="M100,-68.8534C100,-59.9872 100,-50.065 100,-41.642"/>
<polygon fill="midnightblue" stroke="midnightblue" points="96.5001,-68.9727 100,-78.9727 103.5,-68.9727 96.5001,-68.9727"/>
</g>
<!-- Node3 -->
<g id="node3" class="node"><title>Node3</title>
<polygon fill="white" stroke="#bfbfbf" points="78.5,-146.5 78.5,-165.5 121.5,-165.5 121.5,-146.5 78.5,-146.5"/>
<text text-anchor="middle" x="100" y="-153.5" font-family="Helvetica,sans-Serif" font-size="10.00">Circle</text>
</g>
<!-- Node3&#45;&gt;Node2 -->
<g id="edge2" class="edge"><title>Node3&#45;&gt;Node2</title>
<path fill="none" stroke="midnightblue" d="M100,-136.371C100,-127.585 100,-117.272 100,-109.141"/>
<polygon fill="midnightblue" stroke="midnightblue" points="96.5001,-136.403 100,-146.403 103.5,-136.403 96.5001,-136.403"/>
</g>
</g>
</svg>
