<?xml version="1.0" encoding="UTF-8" standalone="no"?>
<!DOCTYPE svg PUBLIC "-//W3C//DTD SVG 1.1//EN"
 "http://www.w3.org/Graphics/SVG/1.1/DTD/svg11.dtd">
<!-- Generated by graphviz version 2.36.0 (20140111.2315)
 -->
<!-- Title: gameEngine.actors.behaviors.AoEEffect.start Pages: 1 -->
<svg width="602pt" height="218pt"
 viewBox="0.00 0.00 602.00 218.00" xmlns="http://www.w3.org/2000/svg" xmlns:xlink="http://www.w3.org/1999/xlink">
<g id="graph0" class="graph" transform="scale(1 1) rotate(0) translate(4 214)">
<title>gameEngine.actors.behaviors.AoEEffect.start</title>
<polygon fill="white" stroke="none" points="-4,4 -4,-214 598,-214 598,4 -4,4"/>
<!-- Node1 -->
<g id="node1" class="node"><title>Node1</title>
<polygon fill="#bfbfbf" stroke="black" points="0,-73 0,-103 162,-103 162,-73 0,-73"/>
<text text-anchor="start" x="8" y="-91" font-family="Helvetica,sans-Serif" font-size="10.00">gameEngine.actors.behaviors.</text>
<text text-anchor="middle" x="81" y="-80" font-family="Helvetica,sans-Serif" font-size="10.00">AoEEffect.start</text>
</g>
<!-- Node2 -->
<g id="node2" class="node"><title>Node2</title>
<g id="a_node2"><a xlink:href="../../d5/d02/classgame_engine_1_1actors_1_1_base_actor.html#aa69731335ede718aa18dc55d533868df" target="_top" xlink:title="gameEngine.actors.BaseActor.get\lEnemiesInRange">
<polygon fill="white" stroke="black" points="198,-147 198,-177 378,-177 378,-147 198,-147"/>
<text text-anchor="start" x="206" y="-165" font-family="Helvetica,sans-Serif" font-size="10.00">gameEngine.actors.BaseActor.get</text>
<text text-anchor="middle" x="288" y="-154" font-family="Helvetica,sans-Serif" font-size="10.00">EnemiesInRange</text>
</a>
</g>
</g>
<!-- Node1&#45;&gt;Node2 -->
<g id="edge1" class="edge"><title>Node1&#45;&gt;Node2</title>
<path fill="none" stroke="midnightblue" d="M114.569,-103.057C137.585,-113.376 169.319,-126.959 198,-137 204.873,-139.406 212.106,-141.745 219.355,-143.965"/>
<polygon fill="midnightblue" stroke="midnightblue" points="218.634,-147.402 229.218,-146.912 220.639,-140.695 218.634,-147.402"/>
</g>
<!-- Node5 -->
<g id="node5" class="node"><title>Node5</title>
<g id="a_node5"><a xlink:href="../../de/dcd/classgame_engine_1_1actors_1_1behaviors_1_1_base_defend_behavior.html#af18efd576785fa50fc20db0920623064" target="_top" xlink:title="gameEngine.actors.behaviors.\lBaseDefendBehavior.getHealth">
<polygon fill="white" stroke="black" points="204.5,-98 204.5,-128 371.5,-128 371.5,-98 204.5,-98"/>
<text text-anchor="start" x="212.5" y="-116" font-family="Helvetica,sans-Serif" font-size="10.00">gameEngine.actors.behaviors.</text>
<text text-anchor="middle" x="288" y="-105" font-family="Helvetica,sans-Serif" font-size="10.00">BaseDefendBehavior.getHealth</text>
</a>
</g>
</g>
<!-- Node1&#45;&gt;Node5 -->
<g id="edge4" class="edge"><title>Node1&#45;&gt;Node5</title>
<path fill="none" stroke="midnightblue" d="M162.139,-97.7731C172.607,-99.0496 183.401,-100.366 194.056,-101.665"/>
<polygon fill="midnightblue" stroke="midnightblue" points="193.865,-105.168 204.215,-102.904 194.712,-98.2193 193.865,-105.168"/>
</g>
<!-- Node6 -->
<g id="node6" class="node"><title>Node6</title>
<g id="a_node6"><a xlink:href="../../de/dcd/classgame_engine_1_1actors_1_1behaviors_1_1_base_defend_behavior.html#ab76ecb7cdf0bf5e75e537a75257dfd8c" target="_top" xlink:title="gameEngine.actors.behaviors.\lBaseDefendBehavior.onDeath">
<polygon fill="white" stroke="black" points="207,-49 207,-79 369,-79 369,-49 207,-49"/>
<text text-anchor="start" x="215" y="-67" font-family="Helvetica,sans-Serif" font-size="10.00">gameEngine.actors.behaviors.</text>
<text text-anchor="middle" x="288" y="-56" font-family="Helvetica,sans-Serif" font-size="10.00">BaseDefendBehavior.onDeath</text>
</a>
</g>
</g>
<!-- Node1&#45;&gt;Node6 -->
<g id="edge5" class="edge"><title>Node1&#45;&gt;Node6</title>
<path fill="none" stroke="midnightblue" d="M162.139,-78.6179C173.517,-77.2858 185.282,-75.9085 196.834,-74.556"/>
<polygon fill="midnightblue" stroke="midnightblue" points="197.391,-78.0148 206.917,-73.3756 196.577,-71.0622 197.391,-78.0148"/>
</g>
<!-- Node7 -->
<g id="node7" class="node"><title>Node7</title>
<g id="a_node7"><a xlink:href="../../de/dcd/classgame_engine_1_1actors_1_1behaviors_1_1_base_defend_behavior.html#a6b8c10a820bab5b54587a0252b10123b" target="_top" xlink:title="gameEngine.actors.behaviors.\lBaseDefendBehavior.setHealth">
<polygon fill="white" stroke="black" points="205,-0 205,-30 371,-30 371,-0 205,-0"/>
<text text-anchor="start" x="213" y="-18" font-family="Helvetica,sans-Serif" font-size="10.00">gameEngine.actors.behaviors.</text>
<text text-anchor="middle" x="288" y="-7" font-family="Helvetica,sans-Serif" font-size="10.00">BaseDefendBehavior.setHealth</text>
</a>
</g>
</g>
<!-- Node1&#45;&gt;Node7 -->
<g id="edge6" class="edge"><title>Node1&#45;&gt;Node7</title>
<path fill="none" stroke="midnightblue" d="M115.35,-72.9655C138.317,-62.9186 169.679,-49.7985 198,-40 205.066,-37.5554 212.507,-35.1726 219.954,-32.9101"/>
<polygon fill="midnightblue" stroke="midnightblue" points="221.125,-36.2132 229.714,-30.01 219.132,-29.5031 221.125,-36.2132"/>
</g>
<!-- Node3 -->
<g id="node3" class="node"><title>Node3</title>
<g id="a_node3"><a xlink:href="../../d2/d81/interfacegame_engine_1_1_manager_interface_1_1_information_interface.html#a3eabafeda6598b367a863b4d035932f1" target="_top" xlink:title="gameEngine.ManagerInterface.\lInformationInterface.getRequired\lActors">
<polygon fill="white" stroke="black" points="417.5,-168.5 417.5,-209.5 590.5,-209.5 590.5,-168.5 417.5,-168.5"/>
<text text-anchor="start" x="425.5" y="-197.5" font-family="Helvetica,sans-Serif" font-size="10.00">gameEngine.ManagerInterface.</text>
<text text-anchor="start" x="425.5" y="-186.5" font-family="Helvetica,sans-Serif" font-size="10.00">InformationInterface.getRequired</text>
<text text-anchor="middle" x="504" y="-175.5" font-family="Helvetica,sans-Serif" font-size="10.00">Actors</text>
</a>
</g>
</g>
<!-- Node2&#45;&gt;Node3 -->
<g id="edge2" class="edge"><title>Node2&#45;&gt;Node3</title>
<path fill="none" stroke="midnightblue" d="M378.206,-173.255C387.824,-174.468 397.64,-175.707 407.33,-176.93"/>
<polygon fill="midnightblue" stroke="midnightblue" points="407.01,-180.417 417.37,-178.196 407.886,-173.472 407.01,-180.417"/>
</g>
<!-- Node4 -->
<g id="node4" class="node"><title>Node4</title>
<g id="a_node4"><a xlink:href="../../d5/d02/classgame_engine_1_1actors_1_1_base_actor.html#a827bcd701171b1776750c84bca05675d" target="_top" xlink:title="gameEngine.actors.BaseActor.set\lRange">
<polygon fill="white" stroke="black" points="414.5,-120 414.5,-150 593.5,-150 593.5,-120 414.5,-120"/>
<text text-anchor="start" x="422.5" y="-138" font-family="Helvetica,sans-Serif" font-size="10.00">gameEngine.actors.BaseActor.set</text>
<text text-anchor="middle" x="504" y="-127" font-family="Helvetica,sans-Serif" font-size="10.00">Range</text>
</a>
</g>
</g>
<!-- Node2&#45;&gt;Node4 -->
<g id="edge3" class="edge"><title>Node2&#45;&gt;Node4</title>
<path fill="none" stroke="midnightblue" d="M378.206,-150.745C386.778,-149.663 395.508,-148.562 404.166,-147.47"/>
<polygon fill="midnightblue" stroke="midnightblue" points="404.8,-150.918 414.283,-146.193 403.923,-143.973 404.8,-150.918"/>
</g>
</g>
</svg>
