<?xml version="1.0" encoding="UTF-8" standalone="no"?>
<!DOCTYPE svg PUBLIC "-//W3C//DTD SVG 1.1//EN"
 "http://www.w3.org/Graphics/SVG/1.1/DTD/svg11.dtd">
<!-- Generated by graphviz version 2.36.0 (20140111.2315)
 -->
<!-- Title: gameAuthoring.scenes.pathBuilding.pathComponents.routeToPointTranslation.VisibilityPoint.getPoint Pages: 1 -->
<!--zoomable 174 -->
<svg id="main" version="1.1" xmlns="http://www.w3.org/2000/svg" xmlns:xlink="http://www.w3.org/1999/xlink" xml:space="preserve" onload="init(evt)">
<style type="text/css"><![CDATA[
.edge:hover path { stroke: red; }
.edge:hover polygon { stroke: red; fill: red; }
]]></style>
<script type="text/javascript"><![CDATA[
var edges = document.getElementsByTagName('g');
if (edges && edges.length) {
  for (var i=0;i<edges.length;i++) {
    if (edges[i].id.substr(0,4)=='edge') {
      edges[i].setAttribute('class','edge');
    }
  }
}
]]></script>
        <defs>
                <circle id="rim" cx="0" cy="0" r="7"/>
                <circle id="rim2" cx="0" cy="0" r="3.5"/>
                <g id="zoomPlus">
                        <use xlink:href="#rim" fill="#404040">
                                <set attributeName="fill" to="#808080" begin="zoomplus.mouseover" end="zoomplus.mouseout"/>
                        </use>
                        <path d="M-4,0h8M0,-4v8" fill="none" stroke="white" stroke-width="1.5" pointer-events="none"/>
                </g>
                <g id="zoomMin">
                        <use xlink:href="#rim" fill="#404040">
                                <set attributeName="fill" to="#808080" begin="zoomminus.mouseover" end="zoomminus.mouseout"/>
                        </use>
                        <path d="M-4,0h8" fill="none" stroke="white" stroke-width="1.5" pointer-events="none"/>
                </g>
                <g id="dirArrow">
                        <path fill="none" stroke="white" stroke-width="1.5" d="M0,-3.0v7 M-2.5,-0.5L0,-3.0L2.5,-0.5"/>
                </g>
               <g id="resetDef">
                       <use xlink:href="#rim2" fill="#404040">
                               <set attributeName="fill" to="#808080" begin="reset.mouseover" end="reset.mouseout"/>
                       </use>
               </g>
        </defs>

<script type="text/javascript">
var viewWidth = 656;
var viewHeight = 174;
var sectionId = 'dynsection-1';
</script>
<script xlink:href="../../svgpan.js"/>
<svg id="graph" class="graph">
<g id="viewport">
<title>gameAuthoring.scenes.pathBuilding.pathComponents.routeToPointTranslation.VisibilityPoint.getPoint</title>
<polygon fill="white" stroke="none" points="-4,4 -4,-170 652,-170 652,4 -4,4"/>
<!-- Node1 -->
<g id="node1" class="node"><title>Node1</title>
<polygon fill="#bfbfbf" stroke="black" points="0,-87.5 0,-128.5 200,-128.5 200,-87.5 0,-87.5"/>
<text text-anchor="start" x="8" y="-116.5" font-family="Helvetica,sans-Serif" font-size="10.00">gameAuthoring.scenes.path</text>
<text text-anchor="start" x="8" y="-105.5" font-family="Helvetica,sans-Serif" font-size="10.00">Building.pathComponents.routeTo</text>
<text text-anchor="middle" x="100" y="-94.5" font-family="Helvetica,sans-Serif" font-size="10.00">PointTranslation.VisibilityPoint.getPoint</text>
</g>
<!-- Node2 -->
<g id="node2" class="node"><title>Node2</title>
<g id="a_node2"><a xlink:href="../../d6/d0e/classgame_engine_1_1actors_1_1behaviors_1_1_a_i_movement.html#aeb1d8783ef4330c7c62ab30c03822b7d" target="_top" xlink:title="gameEngine.actors.behaviors.\lAIMovement.execute">
<polygon fill="white" stroke="black" points="486,-136 486,-166 648,-166 648,-136 486,-136"/>
<text text-anchor="start" x="494" y="-154" font-family="Helvetica,sans-Serif" font-size="10.00">gameEngine.actors.behaviors.</text>
<text text-anchor="middle" x="567" y="-143" font-family="Helvetica,sans-Serif" font-size="10.00">AIMovement.execute</text>
</a>
</g>
</g>
<!-- Node1&#45;&gt;Node2 -->
<g id="edge1" class="edge"><title>Node1&#45;&gt;Node2</title>
<path fill="none" stroke="midnightblue" d="M165.27,-131.653C187.372,-138.672 212.478,-145.434 236,-149 320.543,-161.817 418.674,-160.369 485.813,-156.933"/>
<polygon fill="midnightblue" stroke="midnightblue" points="166.262,-128.295 155.67,-128.529 164.096,-134.952 166.262,-128.295"/>
</g>
<!-- Node3 -->
<g id="node3" class="node"><title>Node3</title>
<g id="a_node3"><a xlink:href="../../d1/d5b/classgame_engine_1_1_a_i_1_1_grid_path_finder.html#a7e3ed2c2ff3c355a04437f91e62b89b2" target="_top" xlink:title="gameEngine.AI.GridPathFinder.getPath">
<polygon fill="white" stroke="black" points="243,-120.5 243,-139.5 443,-139.5 443,-120.5 243,-120.5"/>
<text text-anchor="middle" x="343" y="-127.5" font-family="Helvetica,sans-Serif" font-size="10.00">gameEngine.AI.GridPathFinder.getPath</text>
</a>
</g>
</g>
<!-- Node1&#45;&gt;Node3 -->
<g id="edge2" class="edge"><title>Node1&#45;&gt;Node3</title>
<path fill="none" stroke="midnightblue" d="M210.074,-117.957C221.02,-118.956 232.094,-119.967 242.928,-120.956"/>
<polygon fill="midnightblue" stroke="midnightblue" points="210.344,-114.467 200.067,-117.043 209.708,-121.438 210.344,-114.467"/>
</g>
<!-- Node4 -->
<g id="node4" class="node"><title>Node4</title>
<g id="a_node4"><a xlink:href="../../da/d56/classgame_engine_1_1actors_1_1behaviors_1_1_linear_movement.html#aa8f07e5130f43a3683584d1d7eeeed1e" target="_top" xlink:title="gameEngine.actors.behaviors.\lLinearMovement.move">
<polygon fill="white" stroke="black" points="262,-71 262,-101 424,-101 424,-71 262,-71"/>
<text text-anchor="start" x="270" y="-89" font-family="Helvetica,sans-Serif" font-size="10.00">gameEngine.actors.behaviors.</text>
<text text-anchor="middle" x="343" y="-78" font-family="Helvetica,sans-Serif" font-size="10.00">LinearMovement.move</text>
</a>
</g>
</g>
<!-- Node1&#45;&gt;Node4 -->
<g id="edge4" class="edge"><title>Node1&#45;&gt;Node4</title>
<path fill="none" stroke="midnightblue" d="M210.221,-98.0296C227.548,-96.4479 245.188,-94.8376 261.692,-93.3311"/>
<polygon fill="midnightblue" stroke="midnightblue" points="209.708,-94.5618 200.067,-98.9565 210.344,-101.533 209.708,-94.5618"/>
</g>
<!-- Node6 -->
<g id="node6" class="node"><title>Node6</title>
<g id="a_node6"><a xlink:href="../../d0/d17/classgame_authoring_1_1scenes_1_1path_building_1_1path_components_1_1route_to_point_translation_02993d587809a0174c9c81c680c3a1c8.html#a35dfb4879cf496d5c985c2da48c72052" target="_top" xlink:title="gameAuthoring.scenes.path\lBuilding.pathComponents.routeTo\lPointTranslation.BackendRouteTranslation\lTests.testVisibilityPointCreation">
<polygon fill="white" stroke="black" points="236,-0 236,-52 450,-52 450,-0 236,-0"/>
<text text-anchor="start" x="244" y="-40" font-family="Helvetica,sans-Serif" font-size="10.00">gameAuthoring.scenes.path</text>
<text text-anchor="start" x="244" y="-29" font-family="Helvetica,sans-Serif" font-size="10.00">Building.pathComponents.routeTo</text>
<text text-anchor="start" x="244" y="-18" font-family="Helvetica,sans-Serif" font-size="10.00">PointTranslation.BackendRouteTranslation</text>
<text text-anchor="middle" x="343" y="-7" font-family="Helvetica,sans-Serif" font-size="10.00">Tests.testVisibilityPointCreation</text>
</a>
</g>
</g>
<!-- Node1&#45;&gt;Node6 -->
<g id="edge6" class="edge"><title>Node1&#45;&gt;Node6</title>
<path fill="none" stroke="midnightblue" d="M170.631,-84.2591C191.637,-77.1009 214.757,-69.2265 236,-62 245.476,-58.7765 255.429,-55.393 265.284,-52.0444"/>
<polygon fill="midnightblue" stroke="midnightblue" points="169.479,-80.9539 161.142,-87.4926 171.737,-87.5797 169.479,-80.9539"/>
</g>
<!-- Node3&#45;&gt;Node2 -->
<g id="edge3" class="edge"><title>Node3&#45;&gt;Node2</title>
<path fill="none" stroke="midnightblue" d="M453.327,-140.342C464.252,-141.375 475.198,-142.411 485.743,-143.408"/>
<polygon fill="midnightblue" stroke="midnightblue" points="453.597,-136.852 443.312,-139.394 452.938,-143.821 453.597,-136.852"/>
</g>
<!-- Node5 -->
<g id="node5" class="node"><title>Node5</title>
<g id="a_node5"><a xlink:href="../../da/d56/classgame_engine_1_1actors_1_1behaviors_1_1_linear_movement.html#a388237f4dafec0d8b13cd7c215b5ec87" target="_top" xlink:title="gameEngine.actors.behaviors.\lLinearMovement.execute">
<polygon fill="white" stroke="black" points="486,-71 486,-101 648,-101 648,-71 486,-71"/>
<text text-anchor="start" x="494" y="-89" font-family="Helvetica,sans-Serif" font-size="10.00">gameEngine.actors.behaviors.</text>
<text text-anchor="middle" x="567" y="-78" font-family="Helvetica,sans-Serif" font-size="10.00">LinearMovement.execute</text>
</a>
</g>
</g>
<!-- Node4&#45;&gt;Node5 -->
<g id="edge5" class="edge"><title>Node4&#45;&gt;Node5</title>
<path fill="none" stroke="midnightblue" d="M434.156,-86C451.311,-86 469.156,-86 485.971,-86"/>
<polygon fill="midnightblue" stroke="midnightblue" points="434.147,-82.5001 424.147,-86 434.147,-89.5001 434.147,-82.5001"/>
</g>
</g>
</svg>
        <g id="navigator" transform="translate(0 0)" fill="#404254">
                <rect fill="#f2f5e9" fill-opacity="0.5" stroke="#606060" stroke-width=".5" x="0" y="0" width="60" height="60"/>
                <use id="zoomplus" xlink:href="#zoomPlus" x="17" y="9" onmousedown="handleZoom(evt,'in')"/>
                <use id="zoomminus" xlink:href="#zoomMin" x="42" y="9" onmousedown="handleZoom(evt,'out')"/>
                <use id="reset" xlink:href="#resetDef" x="30" y="36" onmousedown="handleReset()"/>
                <g id="arrowUp" xlink:href="#dirArrow" transform="translate(30 24)" onmousedown="handlePan(0,-1)">
                  <use xlink:href="#rim" fill="#404040">
                        <set attributeName="fill" to="#808080" begin="arrowUp.mouseover" end="arrowUp.mouseout"/>
                  </use>
                  <path fill="none" stroke="white" stroke-width="1.5" d="M0,-3.0v7 M-2.5,-0.5L0,-3.0L2.5,-0.5"/>
                </g>
                <g id="arrowRight" xlink:href="#dirArrow" transform="rotate(90) translate(36 -43)" onmousedown="handlePan(1,0)">
                  <use xlink:href="#rim" fill="#404040">
                        <set attributeName="fill" to="#808080" begin="arrowRight.mouseover" end="arrowRight.mouseout"/>
                  </use>
                  <path fill="none" stroke="white" stroke-width="1.5" d="M0,-3.0v7 M-2.5,-0.5L0,-3.0L2.5,-0.5"/>
                </g>
                <g id="arrowDown" xlink:href="#dirArrow" transform="rotate(180) translate(-30 -48)" onmousedown="handlePan(0,1)">
                  <use xlink:href="#rim" fill="#404040">
                        <set attributeName="fill" to="#808080" begin="arrowDown.mouseover" end="arrowDown.mouseout"/>
                  </use>
                  <path fill="none" stroke="white" stroke-width="1.5" d="M0,-3.0v7 M-2.5,-0.5L0,-3.0L2.5,-0.5"/>
                </g>
                <g id="arrowLeft" xlink:href="#dirArrow" transform="rotate(270) translate(-36 17)" onmousedown="handlePan(-1,0)">
                  <use xlink:href="#rim" fill="#404040">
                        <set attributeName="fill" to="#808080" begin="arrowLeft.mouseover" end="arrowLeft.mouseout"/>
                  </use>
                  <path fill="none" stroke="white" stroke-width="1.5" d="M0,-3.0v7 M-2.5,-0.5L0,-3.0L2.5,-0.5"/>
                </g>
        </g>
        <svg viewBox="0 0 15 15" width="100%" height="30px" preserveAspectRatio="xMaxYMin meet">
         <g id="arrow_out" transform="scale(0.3 0.3)">
          <a xlink:href="classgame_authoring_1_1scenes_1_1path_building_1_1path_components_1_1route_to_point_translation_1_1_visibility_point_a4bf2b5df218b78778c5eb9b2ad58e106_icgraph_org.svg" target="_base">
           <rect id="button" ry="5" rx="5" y="6" x="6" height="38" width="38"
                fill="#f2f5e9" fill-opacity="0.5" stroke="#606060" stroke-width="1.0"/>
           <path id="arrow"
             d="M 11.500037,31.436501 C 11.940474,20.09759 22.043105,11.32322 32.158766,21.979434 L 37.068811,17.246167 C 37.068811,17.246167 37.088388,32 37.088388,32 L 22.160133,31.978069 C 22.160133,31.978069 26.997745,27.140456 26.997745,27.140456 C 18.528582,18.264221 13.291696,25.230495 11.500037,31.436501 z"
             style="fill:#404040;"/>
          </a>
         </g>
        </svg>
</svg>
