<?xml version="1.0" encoding="UTF-8" standalone="no"?>
<!DOCTYPE svg PUBLIC "-//W3C//DTD SVG 1.1//EN"
 "http://www.w3.org/Graphics/SVG/1.1/DTD/svg11.dtd">
<!-- Generated by graphviz version 2.36.0 (20140111.2315)
 -->
<!-- Title: utilities.GSON.GSONFileWriter.convertWrappersToJson Pages: 1 -->
<svg width="860pt" height="87pt"
 viewBox="0.00 0.00 860.00 87.00" xmlns="http://www.w3.org/2000/svg" xmlns:xlink="http://www.w3.org/1999/xlink">
<g id="graph0" class="graph" transform="scale(1 1) rotate(0) translate(4 83)">
<title>utilities.GSON.GSONFileWriter.convertWrappersToJson</title>
<polygon fill="white" stroke="none" points="-4,4 -4,-83 856,-83 856,4 -4,4"/>
<!-- Node1 -->
<g id="node1" class="node"><title>Node1</title>
<polygon fill="#bfbfbf" stroke="black" points="0.5,-24 0.5,-54 195.5,-54 195.5,-24 0.5,-24"/>
<text text-anchor="start" x="8.5" y="-42" font-family="Helvetica,sans-Serif" font-size="10.00">utilities.GSON.GSONFileWriter.convert</text>
<text text-anchor="middle" x="98" y="-31" font-family="Helvetica,sans-Serif" font-size="10.00">WrappersToJson</text>
</g>
<!-- Node2 -->
<g id="node2" class="node"><title>Node2</title>
<g id="a_node2"><a xlink:href="../../d4/d66/classgame_engine_1_1_co_op_manager.html#af3f1305ae766bda3afc2e2579c40d33b" target="_top" xlink:title="gameEngine.CoOpManager.convert\lTowersToString">
<polygon fill="white" stroke="black" points="232,-24 232,-54 418,-54 418,-24 232,-24"/>
<text text-anchor="start" x="240" y="-42" font-family="Helvetica,sans-Serif" font-size="10.00">gameEngine.CoOpManager.convert</text>
<text text-anchor="middle" x="325" y="-31" font-family="Helvetica,sans-Serif" font-size="10.00">TowersToString</text>
</a>
</g>
</g>
<!-- Node1&#45;&gt;Node2 -->
<g id="edge1" class="edge"><title>Node1&#45;&gt;Node2</title>
<path fill="none" stroke="midnightblue" d="M205.922,-39C214.635,-39 223.394,-39 231.987,-39"/>
<polygon fill="midnightblue" stroke="midnightblue" points="205.726,-35.5001 195.726,-39 205.726,-42.5001 205.726,-35.5001"/>
</g>
<!-- Node3 -->
<g id="node3" class="node"><title>Node3</title>
<g id="a_node3"><a xlink:href="../../d4/d66/classgame_engine_1_1_co_op_manager.html#ad5584e14774b52926698fb63b4b1c6fd" target="_top" xlink:title="gameEngine.CoOpManager.write\lTowersToServer">
<polygon fill="white" stroke="black" points="454.5,-24 454.5,-54 627.5,-54 627.5,-24 454.5,-24"/>
<text text-anchor="start" x="462.5" y="-42" font-family="Helvetica,sans-Serif" font-size="10.00">gameEngine.CoOpManager.write</text>
<text text-anchor="middle" x="541" y="-31" font-family="Helvetica,sans-Serif" font-size="10.00">TowersToServer</text>
</a>
</g>
</g>
<!-- Node2&#45;&gt;Node3 -->
<g id="edge2" class="edge"><title>Node2&#45;&gt;Node3</title>
<path fill="none" stroke="midnightblue" d="M428.471,-39C437.156,-39 445.881,-39 454.416,-39"/>
<polygon fill="midnightblue" stroke="midnightblue" points="428.308,-35.5001 418.308,-39 428.308,-42.5001 428.308,-35.5001"/>
</g>
<!-- Node4 -->
<g id="node4" class="node"><title>Node4</title>
<g id="a_node4"><a xlink:href="../../d4/d66/classgame_engine_1_1_co_op_manager.html#af79a82231e7ef2225ef6fabeb0269d12" target="_top" xlink:title="gameEngine.CoOpManager.add\lTower">
<polygon fill="white" stroke="black" points="674,-49 674,-79 842,-79 842,-49 674,-49"/>
<text text-anchor="start" x="682" y="-67" font-family="Helvetica,sans-Serif" font-size="10.00">gameEngine.CoOpManager.add</text>
<text text-anchor="middle" x="758" y="-56" font-family="Helvetica,sans-Serif" font-size="10.00">Tower</text>
</a>
</g>
</g>
<!-- Node3&#45;&gt;Node4 -->
<g id="edge3" class="edge"><title>Node3&#45;&gt;Node4</title>
<path fill="none" stroke="midnightblue" d="M637.656,-50.1228C649.71,-51.5245 661.966,-52.9495 673.806,-54.3262"/>
<polygon fill="midnightblue" stroke="midnightblue" points="637.929,-46.631 627.591,-48.9525 637.12,-53.5842 637.929,-46.631"/>
</g>
<!-- Node5 -->
<g id="node5" class="node"><title>Node5</title>
<g id="a_node5"><a xlink:href="../../d4/d66/classgame_engine_1_1_co_op_manager.html#ac47b70262d8632fbc594ac5419377725" target="_top" xlink:title="gameEngine.CoOpManager.remove\lTower">
<polygon fill="white" stroke="black" points="664.5,-0 664.5,-30 851.5,-30 851.5,-0 664.5,-0"/>
<text text-anchor="start" x="672.5" y="-18" font-family="Helvetica,sans-Serif" font-size="10.00">gameEngine.CoOpManager.remove</text>
<text text-anchor="middle" x="758" y="-7" font-family="Helvetica,sans-Serif" font-size="10.00">Tower</text>
</a>
</g>
</g>
<!-- Node3&#45;&gt;Node5 -->
<g id="edge4" class="edge"><title>Node3&#45;&gt;Node5</title>
<path fill="none" stroke="midnightblue" d="M637.559,-28.333C646.44,-27.3416 655.431,-26.3379 664.286,-25.3494"/>
<polygon fill="midnightblue" stroke="midnightblue" points="637.141,-24.8577 627.591,-29.4456 637.918,-31.8145 637.141,-24.8577"/>
</g>
</g>
</svg>
