<?xml version="1.0" encoding="UTF-8" standalone="no"?>
<!DOCTYPE svg PUBLIC "-//W3C//DTD SVG 1.1//EN"
 "http://www.w3.org/Graphics/SVG/1.1/DTD/svg11.dtd">
<!-- Generated by graphviz version 2.36.0 (20140111.2315)
 -->
<!-- Title: gameAuthoring.scenes.actorBuildingScenes.behaviorBuilders.SliderInfo.getMyInfo Pages: 1 -->
<svg width="386pt" height="48pt"
 viewBox="0.00 0.00 386.00 48.00" xmlns="http://www.w3.org/2000/svg" xmlns:xlink="http://www.w3.org/1999/xlink">
<g id="graph0" class="graph" transform="scale(1 1) rotate(0) translate(4 44)">
<title>gameAuthoring.scenes.actorBuildingScenes.behaviorBuilders.SliderInfo.getMyInfo</title>
<polygon fill="white" stroke="none" points="-4,4 -4,-44 382,-44 382,4 -4,4"/>
<!-- Node1 -->
<g id="node1" class="node"><title>Node1</title>
<polygon fill="#bfbfbf" stroke="black" points="0.5,0.5 0.5,-40.5 175.5,-40.5 175.5,0.5 0.5,0.5"/>
<text text-anchor="start" x="8.5" y="-28.5" font-family="Helvetica,sans-Serif" font-size="10.00">gameAuthoring.scenes.actor</text>
<text text-anchor="start" x="8.5" y="-17.5" font-family="Helvetica,sans-Serif" font-size="10.00">BuildingScenes.behaviorBuilders.</text>
<text text-anchor="middle" x="88" y="-6.5" font-family="Helvetica,sans-Serif" font-size="10.00">SliderInfo.getMyInfo</text>
</g>
<!-- Node2 -->
<g id="node2" class="node"><title>Node2</title>
<g id="a_node2"><a xlink:href="../../d7/d46/classutilities_1_1_java_f_xutilities_1_1slider_1_1_slider_container.html#ac7b4e453f0d3eb0d7aeba4aed432d462" target="_top" xlink:title="utilities.JavaFXutilities.slider.\lSliderContainer.SliderContainer">
<polygon fill="white" stroke="black" points="212,-5 212,-35 378,-35 378,-5 212,-5"/>
<text text-anchor="start" x="220" y="-23" font-family="Helvetica,sans-Serif" font-size="10.00">utilities.JavaFXutilities.slider.</text>
<text text-anchor="middle" x="295" y="-12" font-family="Helvetica,sans-Serif" font-size="10.00">SliderContainer.SliderContainer</text>
</a>
</g>
</g>
<!-- Node1&#45;&gt;Node2 -->
<g id="edge1" class="edge"><title>Node1&#45;&gt;Node2</title>
<path fill="none" stroke="midnightblue" d="M185.839,-20C194.56,-20 203.337,-20 211.914,-20"/>
<polygon fill="midnightblue" stroke="midnightblue" points="185.641,-16.5001 175.641,-20 185.641,-23.5001 185.641,-16.5001"/>
</g>
</g>
</svg>
