<?xml version="1.0" encoding="UTF-8" standalone="no"?>
<!DOCTYPE svg PUBLIC "-//W3C//DTD SVG 1.1//EN"
 "http://www.w3.org/Graphics/SVG/1.1/DTD/svg11.dtd">
<!-- Generated by graphviz version 2.36.0 (20140111.2315)
 -->
<!-- Title: gameAuthoring.scenes.actorBuildingScenes.behaviorBuilders.SliderInfo.getMyMin Pages: 1 -->
<svg width="1404pt" height="170pt"
 viewBox="0.00 0.00 1404.00 170.00" xmlns="http://www.w3.org/2000/svg" xmlns:xlink="http://www.w3.org/1999/xlink">
<g id="graph0" class="graph" transform="scale(1 1) rotate(0) translate(4 166)">
<title>gameAuthoring.scenes.actorBuildingScenes.behaviorBuilders.SliderInfo.getMyMin</title>
<polygon fill="white" stroke="none" points="-4,4 -4,-166 1400,-166 1400,4 -4,4"/>
<!-- Node1 -->
<g id="node1" class="node"><title>Node1</title>
<polygon fill="#bfbfbf" stroke="black" points="0.5,-63.5 0.5,-104.5 175.5,-104.5 175.5,-63.5 0.5,-63.5"/>
<text text-anchor="start" x="8.5" y="-92.5" font-family="Helvetica,sans-Serif" font-size="10.00">gameAuthoring.scenes.actor</text>
<text text-anchor="start" x="8.5" y="-81.5" font-family="Helvetica,sans-Serif" font-size="10.00">BuildingScenes.behaviorBuilders.</text>
<text text-anchor="middle" x="88" y="-70.5" font-family="Helvetica,sans-Serif" font-size="10.00">SliderInfo.getMyMin</text>
</g>
<!-- Node2 -->
<g id="node2" class="node"><title>Node2</title>
<g id="a_node2"><a xlink:href="../../d7/d46/classutilities_1_1_java_f_xutilities_1_1slider_1_1_slider_container.html#ac4e7c185d5de5afe2a491faf8f6b49d8" target="_top" xlink:title="utilities.JavaFXutilities.slider.\lSliderContainer.resetSlider">
<polygon fill="white" stroke="black" points="212.5,-94 212.5,-124 361.5,-124 361.5,-94 212.5,-94"/>
<text text-anchor="start" x="220.5" y="-112" font-family="Helvetica,sans-Serif" font-size="10.00">utilities.JavaFXutilities.slider.</text>
<text text-anchor="middle" x="287" y="-101" font-family="Helvetica,sans-Serif" font-size="10.00">SliderContainer.resetSlider</text>
</a>
</g>
</g>
<!-- Node1&#45;&gt;Node2 -->
<g id="edge1" class="edge"><title>Node1&#45;&gt;Node2</title>
<path fill="none" stroke="midnightblue" d="M185.725,-96.2748C194.631,-97.405 203.557,-98.5376 212.21,-99.6358"/>
<polygon fill="midnightblue" stroke="midnightblue" points="186.055,-92.7886 175.694,-95.0017 185.174,-99.7329 186.055,-92.7886"/>
</g>
<!-- Node11 -->
<g id="node11" class="node"><title>Node11</title>
<g id="a_node11"><a xlink:href="../../d7/d46/classutilities_1_1_java_f_xutilities_1_1slider_1_1_slider_container.html#a6be4c2215558a1416c9b7984057f4746" target="_top" xlink:title="utilities.JavaFXutilities.slider.\lSliderContainer.setupSlider">
<polygon fill="white" stroke="black" points="212.5,-44 212.5,-74 361.5,-74 361.5,-44 212.5,-44"/>
<text text-anchor="start" x="220.5" y="-62" font-family="Helvetica,sans-Serif" font-size="10.00">utilities.JavaFXutilities.slider.</text>
<text text-anchor="middle" x="287" y="-51" font-family="Helvetica,sans-Serif" font-size="10.00">SliderContainer.setupSlider</text>
</a>
</g>
</g>
<!-- Node1&#45;&gt;Node11 -->
<g id="edge10" class="edge"><title>Node1&#45;&gt;Node11</title>
<path fill="none" stroke="midnightblue" d="M185.725,-71.7252C194.631,-70.595 203.557,-69.4624 212.21,-68.3642"/>
<polygon fill="midnightblue" stroke="midnightblue" points="185.174,-68.2671 175.694,-72.9983 186.055,-75.2114 185.174,-68.2671"/>
</g>
<!-- Node3 -->
<g id="node3" class="node"><title>Node3</title>
<g id="a_node3"><a xlink:href="../../d5/de6/classgame_authoring_1_1scenes_1_1actor_building_scenes_1_1_actor_building_scene.html#a903b7fdfe27f5faad827063d80a02f34" target="_top" xlink:title="gameAuthoring.scenes.actor\lBuildingScenes.ActorBuildingScene.clear\lFields">
<polygon fill="white" stroke="black" points="398,-90.5 398,-131.5 610,-131.5 610,-90.5 398,-90.5"/>
<text text-anchor="start" x="406" y="-119.5" font-family="Helvetica,sans-Serif" font-size="10.00">gameAuthoring.scenes.actor</text>
<text text-anchor="start" x="406" y="-108.5" font-family="Helvetica,sans-Serif" font-size="10.00">BuildingScenes.ActorBuildingScene.clear</text>
<text text-anchor="middle" x="504" y="-97.5" font-family="Helvetica,sans-Serif" font-size="10.00">Fields</text>
</a>
</g>
</g>
<!-- Node2&#45;&gt;Node3 -->
<g id="edge2" class="edge"><title>Node2&#45;&gt;Node3</title>
<path fill="none" stroke="midnightblue" d="M371.943,-109.781C380.445,-109.86 389.154,-109.941 397.842,-110.022"/>
<polygon fill="midnightblue" stroke="midnightblue" points="371.722,-106.279 361.69,-109.685 371.657,-113.278 371.722,-106.279"/>
</g>
<!-- Node4 -->
<g id="node4" class="node"><title>Node4</title>
<g id="a_node4"><a xlink:href="../../d5/de6/classgame_authoring_1_1scenes_1_1actor_building_scenes_1_1_actor_building_scene.html#a7956b5ed3dcd86f2cca525066bbd4361" target="_top" xlink:title="gameAuthoring.scenes.actor\lBuildingScenes.ActorBuildingScene.attempt\lToSaveActor">
<polygon fill="white" stroke="black" points="646.5,-120.5 646.5,-161.5 873.5,-161.5 873.5,-120.5 646.5,-120.5"/>
<text text-anchor="start" x="654.5" y="-149.5" font-family="Helvetica,sans-Serif" font-size="10.00">gameAuthoring.scenes.actor</text>
<text text-anchor="start" x="654.5" y="-138.5" font-family="Helvetica,sans-Serif" font-size="10.00">BuildingScenes.ActorBuildingScene.attempt</text>
<text text-anchor="middle" x="760" y="-127.5" font-family="Helvetica,sans-Serif" font-size="10.00">ToSaveActor</text>
</a>
</g>
</g>
<!-- Node3&#45;&gt;Node4 -->
<g id="edge3" class="edge"><title>Node3&#45;&gt;Node4</title>
<path fill="none" stroke="midnightblue" d="M620.216,-124.608C628.832,-125.626 637.521,-126.652 646.122,-127.668"/>
<polygon fill="midnightblue" stroke="midnightblue" points="620.487,-121.116 610.145,-123.419 619.665,-128.068 620.487,-121.116"/>
</g>
<!-- Node7 -->
<g id="node7" class="node"><title>Node7</title>
<g id="a_node7"><a xlink:href="../../d4/d66/classgame_authoring_1_1scenes_1_1actor_building_scenes_1_1_tower_building_scene.html#a5fa4e9809e27472f0b30ee27b5962f21" target="_top" xlink:title="gameAuthoring.scenes.actor\lBuildingScenes.TowerBuildingScene.handle\lAddUpgrade">
<polygon fill="white" stroke="black" points="649.5,-60.5 649.5,-101.5 870.5,-101.5 870.5,-60.5 649.5,-60.5"/>
<text text-anchor="start" x="657.5" y="-89.5" font-family="Helvetica,sans-Serif" font-size="10.00">gameAuthoring.scenes.actor</text>
<text text-anchor="start" x="657.5" y="-78.5" font-family="Helvetica,sans-Serif" font-size="10.00">BuildingScenes.TowerBuildingScene.handle</text>
<text text-anchor="middle" x="760" y="-67.5" font-family="Helvetica,sans-Serif" font-size="10.00">AddUpgrade</text>
</a>
</g>
</g>
<!-- Node3&#45;&gt;Node7 -->
<g id="edge6" class="edge"><title>Node3&#45;&gt;Node7</title>
<path fill="none" stroke="midnightblue" d="M620.226,-97.3907C629.941,-96.2432 639.748,-95.0848 649.419,-93.9427"/>
<polygon fill="midnightblue" stroke="midnightblue" points="619.665,-93.9324 610.145,-98.5813 620.487,-100.884 619.665,-93.9324"/>
</g>
<!-- Node5 -->
<g id="node5" class="node"><title>Node5</title>
<g id="a_node5"><a xlink:href="../../d5/de6/classgame_authoring_1_1scenes_1_1actor_building_scenes_1_1_actor_building_scene.html#a4b14803e395701d52cf61ed9a1ef0229" target="_top" xlink:title="gameAuthoring.scenes.actor\lBuildingScenes.ActorBuildingScene.setup\lFileMenu">
<polygon fill="white" stroke="black" points="913.5,-120.5 913.5,-161.5 1128.5,-161.5 1128.5,-120.5 913.5,-120.5"/>
<text text-anchor="start" x="921.5" y="-149.5" font-family="Helvetica,sans-Serif" font-size="10.00">gameAuthoring.scenes.actor</text>
<text text-anchor="start" x="921.5" y="-138.5" font-family="Helvetica,sans-Serif" font-size="10.00">BuildingScenes.ActorBuildingScene.setup</text>
<text text-anchor="middle" x="1021" y="-127.5" font-family="Helvetica,sans-Serif" font-size="10.00">FileMenu</text>
</a>
</g>
</g>
<!-- Node4&#45;&gt;Node5 -->
<g id="edge4" class="edge"><title>Node4&#45;&gt;Node5</title>
<path fill="none" stroke="midnightblue" d="M884.006,-141C893.78,-141 903.604,-141 913.253,-141"/>
<polygon fill="midnightblue" stroke="midnightblue" points="883.848,-137.5 873.848,-141 883.848,-144.5 883.848,-137.5"/>
</g>
<!-- Node6 -->
<g id="node6" class="node"><title>Node6</title>
<g id="a_node6"><a xlink:href="../../d5/de6/classgame_authoring_1_1scenes_1_1actor_building_scenes_1_1_actor_building_scene.html#af797c48013cb5e0b128c5e184056a90d" target="_top" xlink:title="gameAuthoring.scenes.actor\lBuildingScenes.ActorBuildingScene.\lActorBuildingScene">
<polygon fill="white" stroke="black" points="1188,-120.5 1188,-161.5 1376,-161.5 1376,-120.5 1188,-120.5"/>
<text text-anchor="start" x="1196" y="-149.5" font-family="Helvetica,sans-Serif" font-size="10.00">gameAuthoring.scenes.actor</text>
<text text-anchor="start" x="1196" y="-138.5" font-family="Helvetica,sans-Serif" font-size="10.00">BuildingScenes.ActorBuildingScene.</text>
<text text-anchor="middle" x="1282" y="-127.5" font-family="Helvetica,sans-Serif" font-size="10.00">ActorBuildingScene</text>
</a>
</g>
</g>
<!-- Node5&#45;&gt;Node6 -->
<g id="edge5" class="edge"><title>Node5&#45;&gt;Node6</title>
<path fill="none" stroke="midnightblue" d="M1138.95,-141C1155.26,-141 1171.84,-141 1187.64,-141"/>
<polygon fill="midnightblue" stroke="midnightblue" points="1138.84,-137.5 1128.84,-141 1138.84,-144.5 1138.84,-137.5"/>
</g>
<!-- Node8 -->
<g id="node8" class="node"><title>Node8</title>
<g id="a_node8"><a xlink:href="../../d4/d66/classgame_authoring_1_1scenes_1_1actor_building_scenes_1_1_tower_building_scene.html#abf6e70d174b0496097e281803b8655e6" target="_top" xlink:title="gameAuthoring.scenes.actor\lBuildingScenes.TowerBuildingScene.redraw\lTowerDisplay">
<polygon fill="white" stroke="black" points="910.5,-60.5 910.5,-101.5 1131.5,-101.5 1131.5,-60.5 910.5,-60.5"/>
<text text-anchor="start" x="918.5" y="-89.5" font-family="Helvetica,sans-Serif" font-size="10.00">gameAuthoring.scenes.actor</text>
<text text-anchor="start" x="918.5" y="-78.5" font-family="Helvetica,sans-Serif" font-size="10.00">BuildingScenes.TowerBuildingScene.redraw</text>
<text text-anchor="middle" x="1021" y="-67.5" font-family="Helvetica,sans-Serif" font-size="10.00">TowerDisplay</text>
</a>
</g>
</g>
<!-- Node7&#45;&gt;Node8 -->
<g id="edge7" class="edge"><title>Node7&#45;&gt;Node8</title>
<path fill="none" stroke="midnightblue" d="M881.015,-81C890.814,-81 900.686,-81 910.404,-81"/>
<polygon fill="midnightblue" stroke="midnightblue" points="880.839,-77.5001 870.839,-81 880.839,-84.5001 880.839,-77.5001"/>
</g>
<!-- Node9 -->
<g id="node9" class="node"><title>Node9</title>
<g id="a_node9"><a xlink:href="../../d4/d66/classgame_authoring_1_1scenes_1_1actor_building_scenes_1_1_tower_building_scene.html#ab9a78d521b93dbdd55e5dc1f71adb3f8" target="_top" xlink:title="gameAuthoring.scenes.actor\lBuildingScenes.TowerBuildingScene.initialize\lActorsAndBuildActorDisplay">
<polygon fill="white" stroke="black" points="1168.5,-60.5 1168.5,-101.5 1395.5,-101.5 1395.5,-60.5 1168.5,-60.5"/>
<text text-anchor="start" x="1176.5" y="-89.5" font-family="Helvetica,sans-Serif" font-size="10.00">gameAuthoring.scenes.actor</text>
<text text-anchor="start" x="1176.5" y="-78.5" font-family="Helvetica,sans-Serif" font-size="10.00">BuildingScenes.TowerBuildingScene.initialize</text>
<text text-anchor="middle" x="1282" y="-67.5" font-family="Helvetica,sans-Serif" font-size="10.00">ActorsAndBuildActorDisplay</text>
</a>
</g>
</g>
<!-- Node8&#45;&gt;Node9 -->
<g id="edge8" class="edge"><title>Node8&#45;&gt;Node9</title>
<path fill="none" stroke="midnightblue" d="M1142.01,-81C1150.7,-81 1159.44,-81 1168.09,-81"/>
<polygon fill="midnightblue" stroke="midnightblue" points="1141.84,-77.5001 1131.84,-81 1141.84,-84.5001 1141.84,-77.5001"/>
</g>
<!-- Node10 -->
<g id="node10" class="node"><title>Node10</title>
<g id="a_node10"><a xlink:href="../../d4/d66/classgame_authoring_1_1scenes_1_1actor_building_scenes_1_1_tower_building_scene.html#a0eb2856ee189de1452b66ae4fe2d81ae" target="_top" xlink:title="gameAuthoring.scenes.actor\lBuildingScenes.TowerBuildingScene.make\lNewActor">
<polygon fill="white" stroke="black" points="1174,-0.5 1174,-41.5 1390,-41.5 1390,-0.5 1174,-0.5"/>
<text text-anchor="start" x="1182" y="-29.5" font-family="Helvetica,sans-Serif" font-size="10.00">gameAuthoring.scenes.actor</text>
<text text-anchor="start" x="1182" y="-18.5" font-family="Helvetica,sans-Serif" font-size="10.00">BuildingScenes.TowerBuildingScene.make</text>
<text text-anchor="middle" x="1282" y="-7.5" font-family="Helvetica,sans-Serif" font-size="10.00">NewActor</text>
</a>
</g>
</g>
<!-- Node8&#45;&gt;Node10 -->
<g id="edge9" class="edge"><title>Node8&#45;&gt;Node10</title>
<path fill="none" stroke="midnightblue" d="M1120.76,-58.1206C1144.31,-52.6665 1169.29,-46.8792 1192.35,-41.5378"/>
<polygon fill="midnightblue" stroke="midnightblue" points="1119.72,-54.7687 1110.77,-60.4353 1121.3,-61.5881 1119.72,-54.7687"/>
</g>
<!-- Node12 -->
<g id="node12" class="node"><title>Node12</title>
<g id="a_node12"><a xlink:href="../../d7/d46/classutilities_1_1_java_f_xutilities_1_1slider_1_1_slider_container.html#a51d886a1acacfe4addd70bdb4975f883" target="_top" xlink:title="utilities.JavaFXutilities.slider.\lSliderContainer.SliderContainer">
<polygon fill="white" stroke="black" points="421,-42 421,-72 587,-72 587,-42 421,-42"/>
<text text-anchor="start" x="429" y="-60" font-family="Helvetica,sans-Serif" font-size="10.00">utilities.JavaFXutilities.slider.</text>
<text text-anchor="middle" x="504" y="-49" font-family="Helvetica,sans-Serif" font-size="10.00">SliderContainer.SliderContainer</text>
</a>
</g>
</g>
<!-- Node11&#45;&gt;Node12 -->
<g id="edge11" class="edge"><title>Node11&#45;&gt;Node12</title>
<path fill="none" stroke="midnightblue" d="M372.115,-58.2175C388.164,-58.0682 404.944,-57.9122 420.928,-57.7635"/>
<polygon fill="midnightblue" stroke="midnightblue" points="371.657,-54.7215 361.69,-58.3145 371.722,-61.7212 371.657,-54.7215"/>
</g>
</g>
</svg>
