<?xml version="1.0" encoding="UTF-8" standalone="no"?>
<!DOCTYPE svg PUBLIC "-//W3C//DTD SVG 1.1//EN"
 "http://www.w3.org/Graphics/SVG/1.1/DTD/svg11.dtd">
<!-- Generated by graphviz version 2.36.0 (20140111.2315)
 -->
<!-- Title: gameAuthoring.scenes.BuildingScene Pages: 1 -->
<svg width="174pt" height="108pt"
 viewBox="0.00 0.00 174.00 108.00" xmlns="http://www.w3.org/2000/svg" xmlns:xlink="http://www.w3.org/1999/xlink">
<g id="graph0" class="graph" transform="scale(1 1) rotate(0) translate(4 104)">
<title>gameAuthoring.scenes.BuildingScene</title>
<polygon fill="white" stroke="none" points="-4,4 -4,-104 170,-104 170,4 -4,4"/>
<!-- Node1 -->
<g id="node1" class="node"><title>Node1</title>
<polygon fill="#bfbfbf" stroke="black" points="-1,-1 -1,-31 167,-31 167,-1 -1,-1"/>
<text text-anchor="start" x="7" y="-19" font-family="Helvetica,sans-Serif" font-size="10.00">gameAuthoring.scenes.Building</text>
<text text-anchor="middle" x="83" y="-8" font-family="Helvetica,sans-Serif" font-size="10.00">Scene</text>
</g>
<!-- Node2 -->
<g id="node2" class="node"><title>Node2</title>
<polygon fill="white" stroke="#bfbfbf" points="20.5,-80.5 20.5,-99.5 67.5,-99.5 67.5,-80.5 20.5,-80.5"/>
<text text-anchor="middle" x="44" y="-87.5" font-family="Helvetica,sans-Serif" font-size="10.00">Scene</text>
</g>
<!-- Node2&#45;&gt;Node1 -->
<g id="edge1" class="edge"><title>Node2&#45;&gt;Node1</title>
<path fill="none" stroke="#9a32cd" stroke-dasharray="5,2" d="M45.0983,-70.2642C46.064,-63.589 47.823,-56.1958 51,-50 54.5685,-43.0407 60.0943,-36.5736 65.5559,-31.2418"/>
<polygon fill="#9a32cd" stroke="#9a32cd" points="41.5891,-70.1918 44.1118,-80.4819 48.5567,-70.8646 41.5891,-70.1918"/>
<text text-anchor="middle" x="75.5" y="-53.5" font-family="Helvetica,sans-Serif" font-size="10.00"> myScene</text>
</g>
<!-- Node3 -->
<g id="node3" class="node"><title>Node3</title>
<polygon fill="white" stroke="#bfbfbf" points="86,-80.5 86,-99.5 158,-99.5 158,-80.5 86,-80.5"/>
<text text-anchor="middle" x="122" y="-87.5" font-family="Helvetica,sans-Serif" font-size="10.00">BorderPane</text>
</g>
<!-- Node3&#45;&gt;Node1 -->
<g id="edge2" class="edge"><title>Node3&#45;&gt;Node1</title>
<path fill="none" stroke="#9a32cd" stroke-dasharray="5,2" d="M112.56,-71.5723C105.861,-59.2058 96.9818,-42.8125 90.7088,-31.2316"/>
<polygon fill="#9a32cd" stroke="#9a32cd" points="109.533,-73.332 117.373,-80.4579 115.688,-69.998 109.533,-73.332"/>
<text text-anchor="middle" x="129" y="-53.5" font-family="Helvetica,sans-Serif" font-size="10.00"> myPane</text>
</g>
</g>
</svg>
