<?xml version="1.0" encoding="UTF-8" standalone="no"?>
<!DOCTYPE svg PUBLIC "-//W3C//DTD SVG 1.1//EN"
 "http://www.w3.org/Graphics/SVG/1.1/DTD/svg11.dtd">
<!-- Generated by graphviz version 2.36.0 (20140111.2315)
 -->
<!-- Title: gamePlayer.guiItemsListeners.HUDListener Pages: 1 -->
<svg width="198pt" height="108pt"
 viewBox="0.00 0.00 198.00 108.00" xmlns="http://www.w3.org/2000/svg" xmlns:xlink="http://www.w3.org/1999/xlink">
<g id="graph0" class="graph" transform="scale(1 1) rotate(0) translate(4 104)">
<title>gamePlayer.guiItemsListeners.HUDListener</title>
<polygon fill="white" stroke="none" points="-4,4 -4,-104 194,-104 194,4 -4,4"/>
<!-- Node1 -->
<g id="node1" class="node"><title>Node1</title>
<polygon fill="#bfbfbf" stroke="black" points="13,-69 13,-99 177,-99 177,-69 13,-69"/>
<text text-anchor="start" x="21" y="-87" font-family="Helvetica,sans-Serif" font-size="10.00">gamePlayer.guiItemsListeners.</text>
<text text-anchor="middle" x="95" y="-76" font-family="Helvetica,sans-Serif" font-size="10.00">HUDListener</text>
</g>
<!-- Node2 -->
<g id="node2" class="node"><title>Node2</title>
<g id="a_node2"><a xlink:href="../../da/d69/classgame_player_1_1main_classes_1_1managers_1_1_gui_manager.html" target="_top" xlink:title="gamePlayer.mainClasses.managers.\lGuiManager">
<polygon fill="white" stroke="black" points="-0.5,-1 -0.5,-31 190.5,-31 190.5,-1 -0.5,-1"/>
<text text-anchor="start" x="7.5" y="-19" font-family="Helvetica,sans-Serif" font-size="10.00">gamePlayer.mainClasses.managers.</text>
<text text-anchor="middle" x="95" y="-8" font-family="Helvetica,sans-Serif" font-size="10.00">GuiManager</text>
</a>
</g>
</g>
<!-- Node1&#45;&gt;Node2 -->
<g id="edge1" class="edge"><title>Node1&#45;&gt;Node2</title>
<path fill="none" stroke="midnightblue" d="M95,-58.5322C95,-49.3606 95,-39.2449 95,-31.2931"/>
<polygon fill="midnightblue" stroke="midnightblue" points="91.5001,-58.6789 95,-68.679 98.5001,-58.679 91.5001,-58.6789"/>
</g>
</g>
</svg>
