<?xml version="1.0" encoding="UTF-8" standalone="no"?>
<!DOCTYPE svg PUBLIC "-//W3C//DTD SVG 1.1//EN"
 "http://www.w3.org/Graphics/SVG/1.1/DTD/svg11.dtd">
<!-- Generated by graphviz version 2.36.0 (20140111.2315)
 -->
<!-- Title: gamePlayer.mainClasses.welcomeScreen.GameStartManager.startMultiPlayerGameChooser Pages: 1 -->
<svg width="448pt" height="48pt"
 viewBox="0.00 0.00 448.00 48.00" xmlns="http://www.w3.org/2000/svg" xmlns:xlink="http://www.w3.org/1999/xlink">
<g id="graph0" class="graph" transform="scale(1 1) rotate(0) translate(4 44)">
<title>gamePlayer.mainClasses.welcomeScreen.GameStartManager.startMultiPlayerGameChooser</title>
<polygon fill="white" stroke="none" points="-4,4 -4,-44 444,-44 444,4 -4,4"/>
<!-- Node1 -->
<g id="node1" class="node"><title>Node1</title>
<polygon fill="#bfbfbf" stroke="black" points="0,0.5 0,-40.5 196,-40.5 196,0.5 0,0.5"/>
<text text-anchor="start" x="8" y="-28.5" font-family="Helvetica,sans-Serif" font-size="10.00">gamePlayer.mainClasses.welcome</text>
<text text-anchor="start" x="8" y="-17.5" font-family="Helvetica,sans-Serif" font-size="10.00">Screen.GameStartManager.startMulti</text>
<text text-anchor="middle" x="98" y="-6.5" font-family="Helvetica,sans-Serif" font-size="10.00">PlayerGameChooser</text>
</g>
<!-- Node2 -->
<g id="node2" class="node"><title>Node2</title>
<g id="a_node2"><a xlink:href="../../d1/dc1/classgame_player_1_1main_classes_1_1welcome_screen_1_1_welcome_screen.html#ac7189c036fcd2406d77b801ec31460a7" target="_top" xlink:title="gamePlayer.mainClasses.welcome\lScreen.WelcomeScreen.setCenterLarge\lContent">
<polygon fill="white" stroke="black" points="232.5,0.5 232.5,-40.5 439.5,-40.5 439.5,0.5 232.5,0.5"/>
<text text-anchor="start" x="240.5" y="-28.5" font-family="Helvetica,sans-Serif" font-size="10.00">gamePlayer.mainClasses.welcome</text>
<text text-anchor="start" x="240.5" y="-17.5" font-family="Helvetica,sans-Serif" font-size="10.00">Screen.WelcomeScreen.setCenterLarge</text>
<text text-anchor="middle" x="336" y="-6.5" font-family="Helvetica,sans-Serif" font-size="10.00">Content</text>
</a>
</g>
</g>
<!-- Node1&#45;&gt;Node2 -->
<g id="edge1" class="edge"><title>Node1&#45;&gt;Node2</title>
<path fill="none" stroke="midnightblue" d="M196.012,-20C204.601,-20 213.344,-20 222.05,-20"/>
<polygon fill="midnightblue" stroke="midnightblue" points="222.242,-23.5001 232.242,-20 222.242,-16.5001 222.242,-23.5001"/>
</g>
</g>
</svg>
