<?xml version="1.0" encoding="UTF-8" standalone="no"?>
<!DOCTYPE svg PUBLIC "-//W3C//DTD SVG 1.1//EN"
 "http://www.w3.org/Graphics/SVG/1.1/DTD/svg11.dtd">
<!-- Generated by graphviz version 2.36.0 (20140111.2315)
 -->
<!-- Title: gamePlayer.mainClasses.welcomeScreen.GameStartManager.GameStartManager Pages: 1 -->
<svg width="1622pt" height="637pt"
 viewBox="0.00 0.00 1622.00 637.00" xmlns="http://www.w3.org/2000/svg" xmlns:xlink="http://www.w3.org/1999/xlink">
<g id="graph0" class="graph" transform="scale(1 1) rotate(0) translate(4 633)">
<title>gamePlayer.mainClasses.welcomeScreen.GameStartManager.GameStartManager</title>
<polygon fill="white" stroke="none" points="-4,4 -4,-633 1618,-633 1618,4 -4,4"/>
<!-- Node1 -->
<g id="node1" class="node"><title>Node1</title>
<polygon fill="#bfbfbf" stroke="black" points="0,-218.5 0,-259.5 204,-259.5 204,-218.5 0,-218.5"/>
<text text-anchor="start" x="8" y="-247.5" font-family="Helvetica,sans-Serif" font-size="10.00">gamePlayer.mainClasses.welcome</text>
<text text-anchor="start" x="8" y="-236.5" font-family="Helvetica,sans-Serif" font-size="10.00">Screen.GameStartManager.GameStart</text>
<text text-anchor="middle" x="102" y="-225.5" font-family="Helvetica,sans-Serif" font-size="10.00">Manager</text>
</g>
<!-- Node2 -->
<g id="node2" class="node"><title>Node2</title>
<g id="a_node2"><a xlink:href="../../dc/d2e/classutilities_1_1multilanguage_1_1_multi_language_utility.html#aaa34262e5a69e5d96d435c4f9872e544" target="_top" xlink:title="utilities.multilanguage.\lMultiLanguageUtility.getInstance">
<polygon fill="white" stroke="black" points="245.5,-431 245.5,-461 416.5,-461 416.5,-431 245.5,-431"/>
<text text-anchor="start" x="253.5" y="-449" font-family="Helvetica,sans-Serif" font-size="10.00">utilities.multilanguage.</text>
<text text-anchor="middle" x="331" y="-438" font-family="Helvetica,sans-Serif" font-size="10.00">MultiLanguageUtility.getInstance</text>
</a>
</g>
</g>
<!-- Node1&#45;&gt;Node2 -->
<g id="edge1" class="edge"><title>Node1&#45;&gt;Node2</title>
<path fill="none" stroke="midnightblue" d="M117.064,-259.526C139.948,-291.821 187.951,-355.123 240,-397 254.004,-408.267 270.972,-418.273 286.384,-426.258"/>
<polygon fill="midnightblue" stroke="midnightblue" points="285.232,-429.596 295.738,-430.962 288.377,-423.342 285.232,-429.596"/>
</g>
<!-- Node4 -->
<g id="node4" class="node"><title>Node4</title>
<g id="a_node4"><a xlink:href="../../d3/dee/classgame_player_1_1main_classes_1_1welcome_screen_1_1_game_start_manager.html#ad8f1528149e361b0dfb590208d2b9532" target="_top" xlink:title="gamePlayer.mainClasses.welcome\lScreen.GameStartManager.init">
<polygon fill="white" stroke="black" points="240,-358 240,-388 422,-388 422,-358 240,-358"/>
<text text-anchor="start" x="248" y="-376" font-family="Helvetica,sans-Serif" font-size="10.00">gamePlayer.mainClasses.welcome</text>
<text text-anchor="middle" x="331" y="-365" font-family="Helvetica,sans-Serif" font-size="10.00">Screen.GameStartManager.init</text>
</a>
</g>
</g>
<!-- Node1&#45;&gt;Node4 -->
<g id="edge3" class="edge"><title>Node1&#45;&gt;Node4</title>
<path fill="none" stroke="midnightblue" d="M137.971,-259.644C180.841,-284.95 253.028,-327.563 295.624,-352.708"/>
<polygon fill="midnightblue" stroke="midnightblue" points="294.109,-355.877 304.499,-357.947 297.667,-349.849 294.109,-355.877"/>
</g>
<!-- Node19 -->
<g id="node19" class="node"><title>Node19</title>
<g id="a_node19"><a xlink:href="../../dc/d2e/classutilities_1_1multilanguage_1_1_multi_language_utility.html#a9f7f62c6c1f93e2f9d815f7335b6cef3" target="_top" xlink:title="utilities.multilanguage.\lMultiLanguageUtility.setLanguage">
<polygon fill="white" stroke="black" points="972.5,-118 972.5,-148 1149.5,-148 1149.5,-118 972.5,-118"/>
<text text-anchor="start" x="980.5" y="-136" font-family="Helvetica,sans-Serif" font-size="10.00">utilities.multilanguage.</text>
<text text-anchor="middle" x="1061" y="-125" font-family="Helvetica,sans-Serif" font-size="10.00">MultiLanguageUtility.setLanguage</text>
</a>
</g>
</g>
<!-- Node1&#45;&gt;Node19 -->
<g id="edge29" class="edge"><title>Node1&#45;&gt;Node19</title>
<path fill="none" stroke="midnightblue" d="M204.239,-222.004C319.927,-203.174 515.096,-173.202 684,-156 778.335,-146.392 886.424,-140.29 962.427,-136.804"/>
<polygon fill="midnightblue" stroke="midnightblue" points="962.635,-140.298 972.466,-136.35 962.318,-133.305 962.635,-140.298"/>
</g>
<!-- Node25 -->
<g id="node25" class="node"><title>Node25</title>
<g id="a_node25"><a xlink:href="../../dc/d2e/classutilities_1_1multilanguage_1_1_multi_language_utility.html#aed38b87f0002783aac828ef86369d18d" target="_top" xlink:title="utilities.multilanguage.\lMultiLanguageUtility.initLanguages">
<polygon fill="white" stroke="black" points="462,-75 462,-105 644,-105 644,-75 462,-75"/>
<text text-anchor="start" x="470" y="-93" font-family="Helvetica,sans-Serif" font-size="10.00">utilities.multilanguage.</text>
<text text-anchor="middle" x="553" y="-82" font-family="Helvetica,sans-Serif" font-size="10.00">MultiLanguageUtility.initLanguages</text>
</a>
</g>
</g>
<!-- Node1&#45;&gt;Node25 -->
<g id="edge27" class="edge"><title>Node1&#45;&gt;Node25</title>
<path fill="none" stroke="midnightblue" d="M119.949,-218.211C143.617,-190.842 189.394,-143.666 240,-122 306.62,-93.4782 388.299,-85.9636 451.372,-85.3224"/>
<polygon fill="midnightblue" stroke="midnightblue" points="451.742,-88.8209 461.727,-85.2768 451.711,-81.8209 451.742,-88.8209"/>
</g>
<!-- Node3 -->
<g id="node3" class="node"><title>Node3</title>
<g id="a_node3"><a xlink:href="../../dc/d2e/classutilities_1_1multilanguage_1_1_multi_language_utility.html#a18c8cee78f923458998009428cd84970" target="_top" xlink:title="utilities.multilanguage.\lMultiLanguageUtility.MultiLanguage\lUtility">
<polygon fill="white" stroke="black" points="460.5,-450.5 460.5,-491.5 645.5,-491.5 645.5,-450.5 460.5,-450.5"/>
<text text-anchor="start" x="468.5" y="-479.5" font-family="Helvetica,sans-Serif" font-size="10.00">utilities.multilanguage.</text>
<text text-anchor="start" x="468.5" y="-468.5" font-family="Helvetica,sans-Serif" font-size="10.00">MultiLanguageUtility.MultiLanguage</text>
<text text-anchor="middle" x="553" y="-457.5" font-family="Helvetica,sans-Serif" font-size="10.00">Utility</text>
</a>
</g>
</g>
<!-- Node2&#45;&gt;Node3 -->
<g id="edge2" class="edge"><title>Node2&#45;&gt;Node3</title>
<path fill="none" stroke="midnightblue" d="M416.743,-455.63C427.679,-456.873 438.966,-458.155 450.141,-459.425"/>
<polygon fill="midnightblue" stroke="midnightblue" points="450.028,-462.935 460.359,-460.586 450.818,-455.979 450.028,-462.935"/>
</g>
<!-- Node5 -->
<g id="node5" class="node"><title>Node5</title>
<g id="a_node5"><a xlink:href="../../df/db4/classutilities_1_1_x_m_l_parsing_1_1_x_m_l_parser.html#a70485375200a84f459aa83ffedbea646" target="_top" xlink:title="utilities.XMLParsing.XMLParser.get\lValuesFromTag">
<polygon fill="white" stroke="black" points="713,-599 713,-629 891,-629 891,-599 713,-599"/>
<text text-anchor="start" x="721" y="-617" font-family="Helvetica,sans-Serif" font-size="10.00">utilities.XMLParsing.XMLParser.get</text>
<text text-anchor="middle" x="802" y="-606" font-family="Helvetica,sans-Serif" font-size="10.00">ValuesFromTag</text>
</a>
</g>
</g>
<!-- Node4&#45;&gt;Node5 -->
<g id="edge4" class="edge"><title>Node4&#45;&gt;Node5</title>
<path fill="none" stroke="midnightblue" d="M396.033,-388.048C415.873,-392.627 437.821,-397.608 458,-402 542.232,-420.336 585.952,-381.156 648,-441 696.726,-487.995 635.464,-541.809 684,-589 689.707,-594.549 696.327,-598.996 703.458,-602.548"/>
<polygon fill="midnightblue" stroke="midnightblue" points="702.169,-605.804 712.735,-606.584 704.962,-599.385 702.169,-605.804"/>
</g>
<!-- Node7 -->
<g id="node7" class="node"><title>Node7</title>
<g id="a_node7"><a xlink:href="../../d3/dee/classgame_player_1_1main_classes_1_1welcome_screen_1_1_game_start_manager.html#aaeadf75f81a631bdd0fde079470bc44e" target="_top" xlink:title="gamePlayer.mainClasses.welcome\lScreen.GameStartManager.initialize\lWelcomeScreen">
<polygon fill="white" stroke="black" points="458.5,-352.5 458.5,-393.5 647.5,-393.5 647.5,-352.5 458.5,-352.5"/>
<text text-anchor="start" x="466.5" y="-381.5" font-family="Helvetica,sans-Serif" font-size="10.00">gamePlayer.mainClasses.welcome</text>
<text text-anchor="start" x="466.5" y="-370.5" font-family="Helvetica,sans-Serif" font-size="10.00">Screen.GameStartManager.initialize</text>
<text text-anchor="middle" x="553" y="-359.5" font-family="Helvetica,sans-Serif" font-size="10.00">WelcomeScreen</text>
</a>
</g>
</g>
<!-- Node4&#45;&gt;Node7 -->
<g id="edge6" class="edge"><title>Node4&#45;&gt;Node7</title>
<path fill="none" stroke="midnightblue" d="M422.117,-373C430.731,-373 439.514,-373 448.244,-373"/>
<polygon fill="midnightblue" stroke="midnightblue" points="448.455,-376.5 458.455,-373 448.455,-369.5 448.455,-376.5"/>
</g>
<!-- Node6 -->
<g id="node6" class="node"><title>Node6</title>
<g id="a_node6"><a xlink:href="../../df/db4/classutilities_1_1_x_m_l_parsing_1_1_x_m_l_parser.html#ab3a0a60481d20e93b1382f9a8a31fe9d" target="_top" xlink:title="utilities.XMLParsing.XMLParser.get\lValues">
<polygon fill="white" stroke="black" points="972,-599 972,-629 1150,-629 1150,-599 972,-599"/>
<text text-anchor="start" x="980" y="-617" font-family="Helvetica,sans-Serif" font-size="10.00">utilities.XMLParsing.XMLParser.get</text>
<text text-anchor="middle" x="1061" y="-606" font-family="Helvetica,sans-Serif" font-size="10.00">Values</text>
</a>
</g>
</g>
<!-- Node5&#45;&gt;Node6 -->
<g id="edge5" class="edge"><title>Node5&#45;&gt;Node6</title>
<path fill="none" stroke="midnightblue" d="M891.085,-614C913.742,-614 938.265,-614 961.417,-614"/>
<polygon fill="midnightblue" stroke="midnightblue" points="961.594,-617.5 971.594,-614 961.594,-610.5 961.594,-617.5"/>
</g>
<!-- Node7&#45;&gt;Node5 -->
<g id="edge9" class="edge"><title>Node7&#45;&gt;Node5</title>
<path fill="none" stroke="midnightblue" d="M630.853,-393.529C637.27,-397.525 643.146,-402.299 648,-408 701.173,-470.449 626.416,-530.593 684,-589 689.639,-594.72 696.245,-599.282 703.396,-602.906"/>
<polygon fill="midnightblue" stroke="midnightblue" points="702.152,-606.183 712.714,-607.011 704.974,-599.777 702.152,-606.183"/>
</g>
<!-- Node8 -->
<g id="node8" class="node"><title>Node8</title>
<g id="a_node8"><a xlink:href="../../d1/dc1/classgame_player_1_1main_classes_1_1welcome_screen_1_1_welcome_screen.html#ad2877d572b7464452a893a41a88df8b9" target="_top" xlink:title="gamePlayer.mainClasses.welcome\lScreen.WelcomeScreen.setBackgroundImage">
<polygon fill="white" stroke="black" points="684.5,-550 684.5,-580 919.5,-580 919.5,-550 684.5,-550"/>
<text text-anchor="start" x="692.5" y="-568" font-family="Helvetica,sans-Serif" font-size="10.00">gamePlayer.mainClasses.welcome</text>
<text text-anchor="middle" x="802" y="-557" font-family="Helvetica,sans-Serif" font-size="10.00">Screen.WelcomeScreen.setBackgroundImage</text>
</a>
</g>
</g>
<!-- Node7&#45;&gt;Node8 -->
<g id="edge7" class="edge"><title>Node7&#45;&gt;Node8</title>
<path fill="none" stroke="midnightblue" d="M629.991,-393.616C636.663,-397.597 642.832,-402.343 648,-408 689.017,-452.893 639.82,-498.216 684,-540 685.5,-541.418 687.059,-542.764 688.672,-544.041"/>
<polygon fill="midnightblue" stroke="midnightblue" points="686.921,-547.085 697.144,-549.867 690.887,-541.317 686.921,-547.085"/>
</g>
<!-- Node9 -->
<g id="node9" class="node"><title>Node9</title>
<g id="a_node9"><a xlink:href="../../d3/dee/classgame_player_1_1main_classes_1_1welcome_screen_1_1_game_start_manager.html#ad92c5de379204c66162afa31ad29c219" target="_top" xlink:title="gamePlayer.mainClasses.welcome\lScreen.GameStartManager.getImage\lFromPath">
<polygon fill="white" stroke="black" points="703.5,-490.5 703.5,-531.5 900.5,-531.5 900.5,-490.5 703.5,-490.5"/>
<text text-anchor="start" x="711.5" y="-519.5" font-family="Helvetica,sans-Serif" font-size="10.00">gamePlayer.mainClasses.welcome</text>
<text text-anchor="start" x="711.5" y="-508.5" font-family="Helvetica,sans-Serif" font-size="10.00">Screen.GameStartManager.getImage</text>
<text text-anchor="middle" x="802" y="-497.5" font-family="Helvetica,sans-Serif" font-size="10.00">FromPath</text>
</a>
</g>
</g>
<!-- Node7&#45;&gt;Node9 -->
<g id="edge8" class="edge"><title>Node7&#45;&gt;Node9</title>
<path fill="none" stroke="midnightblue" d="M627.04,-393.675C634.615,-397.666 641.797,-402.398 648,-408 674.847,-432.246 655.913,-458.202 684,-481 687.297,-483.676 690.804,-486.117 694.468,-488.342"/>
<polygon fill="midnightblue" stroke="midnightblue" points="692.823,-491.431 703.277,-493.154 696.179,-485.288 692.823,-491.431"/>
</g>
<!-- Node10 -->
<g id="node10" class="node"><title>Node10</title>
<g id="a_node10"><a xlink:href="../../d1/dc1/classgame_player_1_1main_classes_1_1welcome_screen_1_1_welcome_screen.html#a5483a6c7bd7d393055d2554147174ab2" target="_top" xlink:title="gamePlayer.mainClasses.welcome\lScreen.WelcomeScreen.setTopContent">
<polygon fill="white" stroke="black" points="701,-442 701,-472 903,-472 903,-442 701,-442"/>
<text text-anchor="start" x="709" y="-460" font-family="Helvetica,sans-Serif" font-size="10.00">gamePlayer.mainClasses.welcome</text>
<text text-anchor="middle" x="802" y="-449" font-family="Helvetica,sans-Serif" font-size="10.00">Screen.WelcomeScreen.setTopContent</text>
</a>
</g>
</g>
<!-- Node7&#45;&gt;Node10 -->
<g id="edge10" class="edge"><title>Node7&#45;&gt;Node10</title>
<path fill="none" stroke="midnightblue" d="M615.564,-393.581C626.559,-397.914 637.765,-402.772 648,-408 665.125,-416.747 666.283,-424.525 684,-432 690.172,-434.604 696.645,-436.949 703.247,-439.058"/>
<polygon fill="midnightblue" stroke="midnightblue" points="702.406,-442.46 712.99,-441.983 704.418,-435.755 702.406,-442.46"/>
</g>
<!-- Node12 -->
<g id="node12" class="node"><title>Node12</title>
<g id="a_node12"><a xlink:href="../../d8/d3b/classgame_player_1_1main_classes_1_1welcome_screen_1_1starting_options_1_1_player_count_options.html#afb1b1c952032b38f94df58404d89d136" target="_top" xlink:title="gamePlayer.mainClasses.welcome\lScreen.startingOptions.PlayerCount\lOptions.getSinglePlayerOption">
<polygon fill="white" stroke="black" points="708,-382.5 708,-423.5 896,-423.5 896,-382.5 708,-382.5"/>
<text text-anchor="start" x="716" y="-411.5" font-family="Helvetica,sans-Serif" font-size="10.00">gamePlayer.mainClasses.welcome</text>
<text text-anchor="start" x="716" y="-400.5" font-family="Helvetica,sans-Serif" font-size="10.00">Screen.startingOptions.PlayerCount</text>
<text text-anchor="middle" x="802" y="-389.5" font-family="Helvetica,sans-Serif" font-size="10.00">Options.getSinglePlayerOption</text>
</a>
</g>
</g>
<!-- Node7&#45;&gt;Node12 -->
<g id="edge12" class="edge"><title>Node7&#45;&gt;Node12</title>
<path fill="none" stroke="midnightblue" d="M647.732,-384.384C664.007,-386.361 681.015,-388.427 697.531,-390.433"/>
<polygon fill="midnightblue" stroke="midnightblue" points="697.392,-393.942 707.741,-391.673 698.236,-386.993 697.392,-393.942"/>
</g>
<!-- Node13 -->
<g id="node13" class="node"><title>Node13</title>
<g id="a_node13"><a xlink:href="../../d8/d3b/classgame_player_1_1main_classes_1_1welcome_screen_1_1starting_options_1_1_player_count_options.html#a8d0d55eee8e28745d4a6672fd42233c1" target="_top" xlink:title="gamePlayer.mainClasses.welcome\lScreen.startingOptions.PlayerCount\lOptions.getMultiPlayerOption">
<polygon fill="white" stroke="black" points="708,-322.5 708,-363.5 896,-363.5 896,-322.5 708,-322.5"/>
<text text-anchor="start" x="716" y="-351.5" font-family="Helvetica,sans-Serif" font-size="10.00">gamePlayer.mainClasses.welcome</text>
<text text-anchor="start" x="716" y="-340.5" font-family="Helvetica,sans-Serif" font-size="10.00">Screen.startingOptions.PlayerCount</text>
<text text-anchor="middle" x="802" y="-329.5" font-family="Helvetica,sans-Serif" font-size="10.00">Options.getMultiPlayerOption</text>
</a>
</g>
</g>
<!-- Node7&#45;&gt;Node13 -->
<g id="edge13" class="edge"><title>Node7&#45;&gt;Node13</title>
<path fill="none" stroke="midnightblue" d="M647.732,-361.616C664.007,-359.639 681.015,-357.573 697.531,-355.567"/>
<polygon fill="midnightblue" stroke="midnightblue" points="698.236,-359.007 707.741,-354.327 697.392,-352.058 698.236,-359.007"/>
</g>
<!-- Node14 -->
<g id="node14" class="node"><title>Node14</title>
<g id="a_node14"><a xlink:href="../../d1/dc1/classgame_player_1_1main_classes_1_1welcome_screen_1_1_welcome_screen.html#a41cc2d3462730d4baae53d5839eafde7" target="_top" xlink:title="gamePlayer.mainClasses.welcome\lScreen.WelcomeScreen.setCenterContent">
<polygon fill="white" stroke="black" points="693,-274 693,-304 911,-304 911,-274 693,-274"/>
<text text-anchor="start" x="701" y="-292" font-family="Helvetica,sans-Serif" font-size="10.00">gamePlayer.mainClasses.welcome</text>
<text text-anchor="middle" x="802" y="-281" font-family="Helvetica,sans-Serif" font-size="10.00">Screen.WelcomeScreen.setCenterContent</text>
</a>
</g>
</g>
<!-- Node7&#45;&gt;Node14 -->
<g id="edge14" class="edge"><title>Node7&#45;&gt;Node14</title>
<path fill="none" stroke="midnightblue" d="M592.306,-352.477C617.71,-339.585 652.118,-323.472 684,-313 691.123,-310.66 698.567,-308.503 706.101,-306.523"/>
<polygon fill="midnightblue" stroke="midnightblue" points="707.193,-309.857 716.036,-304.022 705.484,-303.069 707.193,-309.857"/>
</g>
<!-- Node15 -->
<g id="node15" class="node"><title>Node15</title>
<g id="a_node15"><a xlink:href="../../d1/dc1/classgame_player_1_1main_classes_1_1welcome_screen_1_1_welcome_screen.html#ae748ffd35b1707ce66f9465c51715abc" target="_top" xlink:title="gamePlayer.mainClasses.welcome\lScreen.WelcomeScreen.setBottomContent">
<polygon fill="white" stroke="black" points="691,-225 691,-255 913,-255 913,-225 691,-225"/>
<text text-anchor="start" x="699" y="-243" font-family="Helvetica,sans-Serif" font-size="10.00">gamePlayer.mainClasses.welcome</text>
<text text-anchor="middle" x="802" y="-232" font-family="Helvetica,sans-Serif" font-size="10.00">Screen.WelcomeScreen.setBottomContent</text>
</a>
</g>
</g>
<!-- Node7&#45;&gt;Node15 -->
<g id="edge16" class="edge"><title>Node7&#45;&gt;Node15</title>
<path fill="none" stroke="midnightblue" d="M572.479,-352.176C595.881,-327.183 638.65,-285.909 684,-264 688.268,-261.938 692.707,-260.053 697.252,-258.33"/>
<polygon fill="midnightblue" stroke="midnightblue" points="698.43,-261.626 706.709,-255.015 696.114,-255.02 698.43,-261.626"/>
</g>
<!-- Node16 -->
<g id="node16" class="node"><title>Node16</title>
<g id="a_node16"><a xlink:href="../../d3/dee/classgame_player_1_1main_classes_1_1welcome_screen_1_1_game_start_manager.html#ad9b9f7f8def0c2a1eda87e8c0e671357" target="_top" xlink:title="gamePlayer.mainClasses.welcome\lScreen.GameStartManager.createLanguage\lSelector">
<polygon fill="white" stroke="black" points="687.5,-165.5 687.5,-206.5 916.5,-206.5 916.5,-165.5 687.5,-165.5"/>
<text text-anchor="start" x="695.5" y="-194.5" font-family="Helvetica,sans-Serif" font-size="10.00">gamePlayer.mainClasses.welcome</text>
<text text-anchor="start" x="695.5" y="-183.5" font-family="Helvetica,sans-Serif" font-size="10.00">Screen.GameStartManager.createLanguage</text>
<text text-anchor="middle" x="802" y="-172.5" font-family="Helvetica,sans-Serif" font-size="10.00">Selector</text>
</a>
</g>
</g>
<!-- Node7&#45;&gt;Node16 -->
<g id="edge18" class="edge"><title>Node7&#45;&gt;Node16</title>
<path fill="none" stroke="midnightblue" d="M564.996,-352.475C584.346,-318.407 627.813,-250.433 684,-215 686.168,-213.633 688.397,-212.33 690.676,-211.088"/>
<polygon fill="midnightblue" stroke="midnightblue" points="692.298,-214.19 699.687,-206.597 689.176,-207.925 692.298,-214.19"/>
</g>
<!-- Node11 -->
<g id="node11" class="node"><title>Node11</title>
<g id="a_node11"><a xlink:href="../../d1/dc1/classgame_player_1_1main_classes_1_1welcome_screen_1_1_welcome_screen.html#a44ec77f689221b5a53243d8ff5b0728e" target="_top" xlink:title="gamePlayer.mainClasses.welcome\lScreen.WelcomeScreen.setPaneContent">
<polygon fill="white" stroke="black" points="956.5,-286 956.5,-316 1165.5,-316 1165.5,-286 956.5,-286"/>
<text text-anchor="start" x="964.5" y="-304" font-family="Helvetica,sans-Serif" font-size="10.00">gamePlayer.mainClasses.welcome</text>
<text text-anchor="middle" x="1061" y="-293" font-family="Helvetica,sans-Serif" font-size="10.00">Screen.WelcomeScreen.setPaneContent</text>
</a>
</g>
</g>
<!-- Node10&#45;&gt;Node11 -->
<g id="edge11" class="edge"><title>Node10&#45;&gt;Node11</title>
<path fill="none" stroke="midnightblue" d="M896.29,-441.959C904.518,-439.183 912.544,-435.895 920,-432 971.29,-405.209 1017.48,-354.396 1041.84,-324.54"/>
<polygon fill="midnightblue" stroke="midnightblue" points="1044.88,-326.346 1048.41,-316.354 1039.42,-321.968 1044.88,-326.346"/>
</g>
<!-- Node14&#45;&gt;Node11 -->
<g id="edge15" class="edge"><title>Node14&#45;&gt;Node11</title>
<path fill="none" stroke="midnightblue" d="M911.246,-294.054C922.811,-294.594 934.601,-295.145 946.227,-295.688"/>
<polygon fill="midnightblue" stroke="midnightblue" points="946.24,-299.192 956.393,-296.162 946.567,-292.2 946.24,-299.192"/>
</g>
<!-- Node15&#45;&gt;Node11 -->
<g id="edge17" class="edge"><title>Node15&#45;&gt;Node11</title>
<path fill="none" stroke="midnightblue" d="M882.914,-255.064C895.386,-257.797 908.084,-260.804 920,-264 936.29,-268.369 939.786,-271.358 956,-276 965.01,-278.579 974.51,-281.114 983.955,-283.52"/>
<polygon fill="midnightblue" stroke="midnightblue" points="983.206,-286.94 993.757,-285.978 984.908,-280.15 983.206,-286.94"/>
</g>
<!-- Node17 -->
<g id="node17" class="node"><title>Node17</title>
<g id="a_node17"><a xlink:href="../../dc/d2e/classutilities_1_1multilanguage_1_1_multi_language_utility.html#ae3293bec747e4a75909cad5635f28a1e" target="_top" xlink:title="utilities.multilanguage.\lMultiLanguageUtility.getSupported\lLanguages">
<polygon fill="white" stroke="black" points="970.5,-226.5 970.5,-267.5 1151.5,-267.5 1151.5,-226.5 970.5,-226.5"/>
<text text-anchor="start" x="978.5" y="-255.5" font-family="Helvetica,sans-Serif" font-size="10.00">utilities.multilanguage.</text>
<text text-anchor="start" x="978.5" y="-244.5" font-family="Helvetica,sans-Serif" font-size="10.00">MultiLanguageUtility.getSupported</text>
<text text-anchor="middle" x="1061" y="-233.5" font-family="Helvetica,sans-Serif" font-size="10.00">Languages</text>
</a>
</g>
</g>
<!-- Node16&#45;&gt;Node17 -->
<g id="edge19" class="edge"><title>Node16&#45;&gt;Node17</title>
<path fill="none" stroke="midnightblue" d="M889.65,-206.567C913.344,-212.191 939.169,-218.32 963.382,-224.067"/>
<polygon fill="midnightblue" stroke="midnightblue" points="962.751,-227.515 973.289,-226.419 964.368,-220.704 962.751,-227.515"/>
</g>
<!-- Node18 -->
<g id="node18" class="node"><title>Node18</title>
<g id="a_node18"><a xlink:href="../../dc/d2e/classutilities_1_1multilanguage_1_1_multi_language_utility.html#a1f263366ddb01fc51a62fd131f32d552" target="_top" xlink:title="utilities.multilanguage.\lMultiLanguageUtility.getCurrent\lLanguage">
<polygon fill="white" stroke="black" points="977.5,-166.5 977.5,-207.5 1144.5,-207.5 1144.5,-166.5 977.5,-166.5"/>
<text text-anchor="start" x="985.5" y="-195.5" font-family="Helvetica,sans-Serif" font-size="10.00">utilities.multilanguage.</text>
<text text-anchor="start" x="985.5" y="-184.5" font-family="Helvetica,sans-Serif" font-size="10.00">MultiLanguageUtility.getCurrent</text>
<text text-anchor="middle" x="1061" y="-173.5" font-family="Helvetica,sans-Serif" font-size="10.00">Language</text>
</a>
</g>
</g>
<!-- Node16&#45;&gt;Node18 -->
<g id="edge20" class="edge"><title>Node16&#45;&gt;Node18</title>
<path fill="none" stroke="midnightblue" d="M916.846,-186.443C933.747,-186.509 950.99,-186.576 967.385,-186.64"/>
<polygon fill="midnightblue" stroke="midnightblue" points="967.46,-190.14 977.474,-186.679 967.487,-183.14 967.46,-190.14"/>
</g>
<!-- Node16&#45;&gt;Node19 -->
<g id="edge21" class="edge"><title>Node16&#45;&gt;Node19</title>
<path fill="none" stroke="midnightblue" d="M902.731,-165.433C927.299,-160.366 953.346,-154.995 977.025,-150.112"/>
<polygon fill="midnightblue" stroke="midnightblue" points="977.93,-153.499 987.017,-148.051 976.516,-146.643 977.93,-153.499"/>
</g>
<!-- Node20 -->
<g id="node20" class="node"><title>Node20</title>
<g id="a_node20"><a xlink:href="../../dc/d2e/classutilities_1_1multilanguage_1_1_multi_language_utility.html#a600c19aa976a0541b9b7b896dd822a8a" target="_top" xlink:title="utilities.multilanguage.\lMultiLanguageUtility.updateProperties">
<polygon fill="white" stroke="black" points="1202.5,-96 1202.5,-126 1399.5,-126 1399.5,-96 1202.5,-96"/>
<text text-anchor="start" x="1210.5" y="-114" font-family="Helvetica,sans-Serif" font-size="10.00">utilities.multilanguage.</text>
<text text-anchor="middle" x="1301" y="-103" font-family="Helvetica,sans-Serif" font-size="10.00">MultiLanguageUtility.updateProperties</text>
</a>
</g>
</g>
<!-- Node19&#45;&gt;Node20 -->
<g id="edge22" class="edge"><title>Node19&#45;&gt;Node20</title>
<path fill="none" stroke="midnightblue" d="M1149.61,-124.902C1163.37,-123.63 1177.73,-122.302 1191.88,-120.994"/>
<polygon fill="midnightblue" stroke="midnightblue" points="1192.51,-124.451 1202.14,-120.046 1191.86,-117.481 1192.51,-124.451"/>
</g>
<!-- Node21 -->
<g id="node21" class="node"><title>Node21</title>
<g id="a_node21"><a xlink:href="../../dc/d2e/classutilities_1_1multilanguage_1_1_multi_language_utility.html#afd0f2ac6d018d23509016b80f8d50ce7" target="_top" xlink:title="utilities.multilanguage.\lMultiLanguageUtility.createString\lProperties">
<polygon fill="white" stroke="black" points="1438,-180.5 1438,-221.5 1612,-221.5 1612,-180.5 1438,-180.5"/>
<text text-anchor="start" x="1446" y="-209.5" font-family="Helvetica,sans-Serif" font-size="10.00">utilities.multilanguage.</text>
<text text-anchor="start" x="1446" y="-198.5" font-family="Helvetica,sans-Serif" font-size="10.00">MultiLanguageUtility.createString</text>
<text text-anchor="middle" x="1525" y="-187.5" font-family="Helvetica,sans-Serif" font-size="10.00">Properties</text>
</a>
</g>
</g>
<!-- Node20&#45;&gt;Node21 -->
<g id="edge23" class="edge"><title>Node20&#45;&gt;Node21</title>
<path fill="none" stroke="midnightblue" d="M1334.2,-126.003C1361.17,-138.366 1400.78,-156.067 1436,-170 1441.83,-172.307 1447.91,-174.626 1454.03,-176.899"/>
<polygon fill="midnightblue" stroke="midnightblue" points="1453.06,-180.271 1463.66,-180.427 1455.47,-173.698 1453.06,-180.271"/>
</g>
<!-- Node22 -->
<g id="node22" class="node"><title>Node22</title>
<g id="a_node22"><a xlink:href="../../dc/d2e/classutilities_1_1multilanguage_1_1_multi_language_utility.html#afa95168fee718834254841c3d4c70f77" target="_top" xlink:title="utilities.multilanguage.\lMultiLanguageUtility.updateString\lProperties">
<polygon fill="white" stroke="black" points="1436.5,-120.5 1436.5,-161.5 1613.5,-161.5 1613.5,-120.5 1436.5,-120.5"/>
<text text-anchor="start" x="1444.5" y="-149.5" font-family="Helvetica,sans-Serif" font-size="10.00">utilities.multilanguage.</text>
<text text-anchor="start" x="1444.5" y="-138.5" font-family="Helvetica,sans-Serif" font-size="10.00">MultiLanguageUtility.updateString</text>
<text text-anchor="middle" x="1525" y="-127.5" font-family="Helvetica,sans-Serif" font-size="10.00">Properties</text>
</a>
</g>
</g>
<!-- Node20&#45;&gt;Node22 -->
<g id="edge24" class="edge"><title>Node20&#45;&gt;Node22</title>
<path fill="none" stroke="midnightblue" d="M1399.7,-124.202C1408.57,-125.401 1417.56,-126.616 1426.43,-127.815"/>
<polygon fill="midnightblue" stroke="midnightblue" points="1426.01,-131.29 1436.39,-129.161 1426.95,-124.353 1426.01,-131.29"/>
</g>
<!-- Node23 -->
<g id="node23" class="node"><title>Node23</title>
<g id="a_node23"><a xlink:href="../../dc/d2e/classutilities_1_1multilanguage_1_1_multi_language_utility.html#a4dac2710dd1f749cd1c5f3750a715dd6" target="_top" xlink:title="utilities.multilanguage.\lMultiLanguageUtility.createString\lListProperties">
<polygon fill="white" stroke="black" points="1438,-60.5 1438,-101.5 1612,-101.5 1612,-60.5 1438,-60.5"/>
<text text-anchor="start" x="1446" y="-89.5" font-family="Helvetica,sans-Serif" font-size="10.00">utilities.multilanguage.</text>
<text text-anchor="start" x="1446" y="-78.5" font-family="Helvetica,sans-Serif" font-size="10.00">MultiLanguageUtility.createString</text>
<text text-anchor="middle" x="1525" y="-67.5" font-family="Helvetica,sans-Serif" font-size="10.00">ListProperties</text>
</a>
</g>
</g>
<!-- Node20&#45;&gt;Node23 -->
<g id="edge25" class="edge"><title>Node20&#45;&gt;Node23</title>
<path fill="none" stroke="midnightblue" d="M1399.7,-97.7979C1409.01,-96.5396 1418.45,-95.2641 1427.74,-94.0076"/>
<polygon fill="midnightblue" stroke="midnightblue" points="1428.32,-97.4611 1437.76,-92.6534 1427.39,-90.5242 1428.32,-97.4611"/>
</g>
<!-- Node24 -->
<g id="node24" class="node"><title>Node24</title>
<g id="a_node24"><a xlink:href="../../dc/d2e/classutilities_1_1multilanguage_1_1_multi_language_utility.html#a6ec1064747fb29f38bc77ed9c665c974" target="_top" xlink:title="utilities.multilanguage.\lMultiLanguageUtility.updateString\lListProperties">
<polygon fill="white" stroke="black" points="1436.5,-0.5 1436.5,-41.5 1613.5,-41.5 1613.5,-0.5 1436.5,-0.5"/>
<text text-anchor="start" x="1444.5" y="-29.5" font-family="Helvetica,sans-Serif" font-size="10.00">utilities.multilanguage.</text>
<text text-anchor="start" x="1444.5" y="-18.5" font-family="Helvetica,sans-Serif" font-size="10.00">MultiLanguageUtility.updateString</text>
<text text-anchor="middle" x="1525" y="-7.5" font-family="Helvetica,sans-Serif" font-size="10.00">ListProperties</text>
</a>
</g>
</g>
<!-- Node20&#45;&gt;Node24 -->
<g id="edge26" class="edge"><title>Node20&#45;&gt;Node24</title>
<path fill="none" stroke="midnightblue" d="M1333.33,-95.9835C1360.26,-83.3112 1400.3,-65.0427 1436,-51 1441.07,-49.0058 1446.33,-47.0161 1451.65,-45.0642"/>
<polygon fill="midnightblue" stroke="midnightblue" points="1453.03,-48.287 1461.25,-41.5989 1450.65,-41.703 1453.03,-48.287"/>
</g>
<!-- Node25&#45;&gt;Node20 -->
<g id="edge28" class="edge"><title>Node25&#45;&gt;Node20</title>
<path fill="none" stroke="midnightblue" d="M644.356,-92.5435C782.153,-96.4225 1044.34,-103.803 1191.99,-107.959"/>
<polygon fill="midnightblue" stroke="midnightblue" points="1192.32,-111.47 1202.42,-108.253 1192.52,-104.473 1192.32,-111.47"/>
</g>
</g>
</svg>
