<?xml version="1.0" encoding="UTF-8" standalone="no"?>
<!DOCTYPE svg PUBLIC "-//W3C//DTD SVG 1.1//EN"
 "http://www.w3.org/Graphics/SVG/1.1/DTD/svg11.dtd">
<!-- Generated by graphviz version 2.36.0 (20140111.2315)
 -->
<!-- Title: gamePlayer.mainClasses.welcomeScreen.GameStartManager.initializeWelcomeScreen Pages: 1 -->
<svg width="656pt" height="48pt"
 viewBox="0.00 0.00 656.00 48.00" xmlns="http://www.w3.org/2000/svg" xmlns:xlink="http://www.w3.org/1999/xlink">
<g id="graph0" class="graph" transform="scale(1 1) rotate(0) translate(4 44)">
<title>gamePlayer.mainClasses.welcomeScreen.GameStartManager.initializeWelcomeScreen</title>
<polygon fill="white" stroke="none" points="-4,4 -4,-44 652,-44 652,4 -4,4"/>
<!-- Node1 -->
<g id="node1" class="node"><title>Node1</title>
<polygon fill="#bfbfbf" stroke="black" points="0.5,0.5 0.5,-40.5 189.5,-40.5 189.5,0.5 0.5,0.5"/>
<text text-anchor="start" x="8.5" y="-28.5" font-family="Helvetica,sans-Serif" font-size="10.00">gamePlayer.mainClasses.welcome</text>
<text text-anchor="start" x="8.5" y="-17.5" font-family="Helvetica,sans-Serif" font-size="10.00">Screen.GameStartManager.initialize</text>
<text text-anchor="middle" x="95" y="-6.5" font-family="Helvetica,sans-Serif" font-size="10.00">WelcomeScreen</text>
</g>
<!-- Node2 -->
<g id="node2" class="node"><title>Node2</title>
<g id="a_node2"><a xlink:href="../../d3/dee/classgame_player_1_1main_classes_1_1welcome_screen_1_1_game_start_manager.html#ad8f1528149e361b0dfb590208d2b9532" target="_top" xlink:title="gamePlayer.mainClasses.welcome\lScreen.GameStartManager.init">
<polygon fill="white" stroke="black" points="226,-5 226,-35 408,-35 408,-5 226,-5"/>
<text text-anchor="start" x="234" y="-23" font-family="Helvetica,sans-Serif" font-size="10.00">gamePlayer.mainClasses.welcome</text>
<text text-anchor="middle" x="317" y="-12" font-family="Helvetica,sans-Serif" font-size="10.00">Screen.GameStartManager.init</text>
</a>
</g>
</g>
<!-- Node1&#45;&gt;Node2 -->
<g id="edge1" class="edge"><title>Node1&#45;&gt;Node2</title>
<path fill="none" stroke="midnightblue" d="M199.833,-20C208.565,-20 217.35,-20 225.965,-20"/>
<polygon fill="midnightblue" stroke="midnightblue" points="199.619,-16.5001 189.619,-20 199.619,-23.5001 199.619,-16.5001"/>
</g>
<!-- Node3 -->
<g id="node3" class="node"><title>Node3</title>
<g id="a_node3"><a xlink:href="../../d3/dee/classgame_player_1_1main_classes_1_1welcome_screen_1_1_game_start_manager.html#a306af611e85c84fc7d2d297403407df9" target="_top" xlink:title="gamePlayer.mainClasses.welcome\lScreen.GameStartManager.GameStart\lManager">
<polygon fill="white" stroke="black" points="444,0.5 444,-40.5 648,-40.5 648,0.5 444,0.5"/>
<text text-anchor="start" x="452" y="-28.5" font-family="Helvetica,sans-Serif" font-size="10.00">gamePlayer.mainClasses.welcome</text>
<text text-anchor="start" x="452" y="-17.5" font-family="Helvetica,sans-Serif" font-size="10.00">Screen.GameStartManager.GameStart</text>
<text text-anchor="middle" x="546" y="-6.5" font-family="Helvetica,sans-Serif" font-size="10.00">Manager</text>
</a>
</g>
</g>
<!-- Node2&#45;&gt;Node3 -->
<g id="edge2" class="edge"><title>Node2&#45;&gt;Node3</title>
<path fill="none" stroke="midnightblue" d="M418.315,-20C426.788,-20 435.36,-20 443.839,-20"/>
<polygon fill="midnightblue" stroke="midnightblue" points="418.042,-16.5001 408.042,-20 418.042,-23.5001 418.042,-16.5001"/>
</g>
</g>
</svg>
