<?xml version="1.0" encoding="UTF-8" standalone="no"?>
<!DOCTYPE svg PUBLIC "-//W3C//DTD SVG 1.1//EN"
 "http://www.w3.org/Graphics/SVG/1.1/DTD/svg11.dtd">
<!-- Generated by graphviz version 2.36.0 (20140111.2315)
 -->
<!-- Title: gamePlayer.mainClasses.welcomeScreen.startingOptions.Options.createOptionButton Pages: 1 -->
<svg width="432pt" height="109pt"
 viewBox="0.00 0.00 432.00 109.00" xmlns="http://www.w3.org/2000/svg" xmlns:xlink="http://www.w3.org/1999/xlink">
<g id="graph0" class="graph" transform="scale(1 1) rotate(0) translate(4 105)">
<title>gamePlayer.mainClasses.welcomeScreen.startingOptions.Options.createOptionButton</title>
<polygon fill="white" stroke="none" points="-4,4 -4,-105 428,-105 428,4 -4,4"/>
<!-- Node1 -->
<g id="node1" class="node"><title>Node1</title>
<polygon fill="#bfbfbf" stroke="black" points="0,-29.5 0,-70.5 200,-70.5 200,-29.5 0,-29.5"/>
<text text-anchor="start" x="8" y="-58.5" font-family="Helvetica,sans-Serif" font-size="10.00">gamePlayer.mainClasses.welcome</text>
<text text-anchor="start" x="8" y="-47.5" font-family="Helvetica,sans-Serif" font-size="10.00">Screen.startingOptions.Options.create</text>
<text text-anchor="middle" x="100" y="-36.5" font-family="Helvetica,sans-Serif" font-size="10.00">OptionButton</text>
</g>
<!-- Node2 -->
<g id="node2" class="node"><title>Node2</title>
<g id="a_node2"><a xlink:href="../../d3/d43/classgame_player_1_1main_classes_1_1welcome_screen_1_1starting_options_1_1_multi_player_options.html#a1f82366b164eb342fbebda4ddccafb83" target="_top" xlink:title="gamePlayer.mainClasses.welcome\lScreen.startingOptions.MultiPlayer\lOptions.MultiPlayerOptions">
<polygon fill="white" stroke="black" points="239,-59.5 239,-100.5 421,-100.5 421,-59.5 239,-59.5"/>
<text text-anchor="start" x="247" y="-88.5" font-family="Helvetica,sans-Serif" font-size="10.00">gamePlayer.mainClasses.welcome</text>
<text text-anchor="start" x="247" y="-77.5" font-family="Helvetica,sans-Serif" font-size="10.00">Screen.startingOptions.MultiPlayer</text>
<text text-anchor="middle" x="330" y="-66.5" font-family="Helvetica,sans-Serif" font-size="10.00">Options.MultiPlayerOptions</text>
</a>
</g>
</g>
<!-- Node1&#45;&gt;Node2 -->
<g id="edge1" class="edge"><title>Node1&#45;&gt;Node2</title>
<path fill="none" stroke="midnightblue" d="M209.995,-64.3415C219.605,-65.6059 229.262,-66.8766 238.693,-68.1175"/>
<polygon fill="midnightblue" stroke="midnightblue" points="210.381,-60.8621 200.009,-63.0276 209.467,-67.8023 210.381,-60.8621"/>
</g>
<!-- Node3 -->
<g id="node3" class="node"><title>Node3</title>
<g id="a_node3"><a xlink:href="../../d8/d3b/classgame_player_1_1main_classes_1_1welcome_screen_1_1starting_options_1_1_player_count_options.html#ac4421866de46dfe2eaa7d3e66453d94f" target="_top" xlink:title="gamePlayer.mainClasses.welcome\lScreen.startingOptions.PlayerCount\lOptions.PlayerCountOptions">
<polygon fill="white" stroke="black" points="236,0.5 236,-40.5 424,-40.5 424,0.5 236,0.5"/>
<text text-anchor="start" x="244" y="-28.5" font-family="Helvetica,sans-Serif" font-size="10.00">gamePlayer.mainClasses.welcome</text>
<text text-anchor="start" x="244" y="-17.5" font-family="Helvetica,sans-Serif" font-size="10.00">Screen.startingOptions.PlayerCount</text>
<text text-anchor="middle" x="330" y="-6.5" font-family="Helvetica,sans-Serif" font-size="10.00">Options.PlayerCountOptions</text>
</a>
</g>
</g>
<!-- Node1&#45;&gt;Node3 -->
<g id="edge2" class="edge"><title>Node1&#45;&gt;Node3</title>
<path fill="none" stroke="midnightblue" d="M210.089,-35.6462C218.7,-34.5132 227.348,-33.3753 235.837,-32.2584"/>
<polygon fill="midnightblue" stroke="midnightblue" points="209.467,-32.1977 200.009,-36.9724 210.381,-39.1379 209.467,-32.1977"/>
</g>
</g>
</svg>
