<?xml version="1.0" encoding="UTF-8" standalone="no"?>
<!DOCTYPE svg PUBLIC "-//W3C//DTD SVG 1.1//EN"
 "http://www.w3.org/Graphics/SVG/1.1/DTD/svg11.dtd">
<!-- Generated by graphviz version 2.36.0 (20140111.2315)
 -->
<!-- Title: gamePlayer.unusedCodeWarehouse.guiItems.headsUpDisplayA.Health Pages: 1 -->
<svg width="754pt" height="259pt"
 viewBox="0.00 0.00 754.00 259.00" xmlns="http://www.w3.org/2000/svg" xmlns:xlink="http://www.w3.org/1999/xlink">
<g id="graph0" class="graph" transform="scale(1 1) rotate(0) translate(4 255)">
<title>gamePlayer.unusedCodeWarehouse.guiItems.headsUpDisplayA.Health</title>
<polygon fill="white" stroke="none" points="-4,4 -4,-255 750,-255 750,4 -4,4"/>
<!-- Node1 -->
<g id="node1" class="node"><title>Node1</title>
<polygon fill="#bfbfbf" stroke="black" points="540,-112 540,-142 746,-142 746,-112 540,-112"/>
<text text-anchor="start" x="548" y="-130" font-family="Helvetica,sans-Serif" font-size="10.00">gamePlayer.unusedCodeWarehouse.gui</text>
<text text-anchor="middle" x="643" y="-119" font-family="Helvetica,sans-Serif" font-size="10.00">Items.headsUpDisplayA.Health</text>
</g>
<!-- Node2 -->
<g id="node2" class="node"><title>Node2</title>
<polygon fill="white" stroke="#bfbfbf" points="319.5,-231.5 319.5,-250.5 360.5,-250.5 360.5,-231.5 319.5,-231.5"/>
<text text-anchor="middle" x="340" y="-238.5" font-family="Helvetica,sans-Serif" font-size="10.00">VBox</text>
</g>
<!-- Node2&#45;&gt;Node1 -->
<g id="edge1" class="edge"><title>Node2&#45;&gt;Node1</title>
<path fill="none" stroke="midnightblue" d="M370.69,-234.23C385.543,-230.749 403.769,-226.336 420,-222 465.653,-209.805 478.317,-210.019 522,-192 556.607,-177.725 594.206,-156.311 617.922,-142.007"/>
<polygon fill="midnightblue" stroke="midnightblue" points="369.497,-230.914 360.548,-236.585 371.081,-237.733 369.497,-230.914"/>
</g>
<!-- Node3 -->
<g id="node3" class="node"><title>Node3</title>
<g id="a_node3"><a xlink:href="../../de/d25/interfacegame_player_1_1gui_items_1_1_gui_item.html" target="_top" xlink:title="gamePlayer.guiItems.GuiItem">
<polygon fill="white" stroke="black" points="261,-193.5 261,-212.5 419,-212.5 419,-193.5 261,-193.5"/>
<text text-anchor="middle" x="340" y="-200.5" font-family="Helvetica,sans-Serif" font-size="10.00">gamePlayer.guiItems.GuiItem</text>
</a>
</g>
</g>
<!-- Node3&#45;&gt;Node1 -->
<g id="edge2" class="edge"><title>Node3&#45;&gt;Node1</title>
<path fill="none" stroke="midnightblue" d="M411.606,-191.684C445.279,-185.694 485.982,-177.586 522,-168 549.232,-160.752 579.232,-150.502 602.424,-142.064"/>
<polygon fill="midnightblue" stroke="midnightblue" points="410.64,-188.3 401.394,-193.474 411.849,-195.195 410.64,-188.3"/>
</g>
<!-- Node4 -->
<g id="node4" class="node"><title>Node4</title>
<g id="a_node4"><a xlink:href="../../d7/d02/interfacegame_player_1_1main_classes_1_1gui_builder_1_1_gui_element.html" target="_top" xlink:title="gamePlayer.mainClasses.gui\lBuilder.GuiElement">
<polygon fill="white" stroke="black" points="0,-188 0,-218 154,-218 154,-188 0,-188"/>
<text text-anchor="start" x="8" y="-206" font-family="Helvetica,sans-Serif" font-size="10.00">gamePlayer.mainClasses.gui</text>
<text text-anchor="middle" x="77" y="-195" font-family="Helvetica,sans-Serif" font-size="10.00">Builder.GuiElement</text>
</a>
</g>
</g>
<!-- Node4&#45;&gt;Node3 -->
<g id="edge3" class="edge"><title>Node4&#45;&gt;Node3</title>
<path fill="none" stroke="midnightblue" d="M164.585,-203C195.689,-203 230.56,-203 260.9,-203"/>
<polygon fill="midnightblue" stroke="midnightblue" points="164.194,-199.5 154.194,-203 164.194,-206.5 164.194,-199.5"/>
</g>
<!-- Node5 -->
<g id="node5" class="node"><title>Node5</title>
<polygon fill="white" stroke="#bfbfbf" points="294.5,-155.5 294.5,-174.5 385.5,-174.5 385.5,-155.5 294.5,-155.5"/>
<text text-anchor="middle" x="340" y="-162.5" font-family="Helvetica,sans-Serif" font-size="10.00">DoubleProperty</text>
</g>
<!-- Node5&#45;&gt;Node1 -->
<g id="edge4" class="edge"><title>Node5&#45;&gt;Node1</title>
<path fill="none" stroke="#9a32cd" stroke-dasharray="5,2" d="M395.858,-158.074C436.02,-153.004 491.698,-145.975 539.941,-139.884"/>
<polygon fill="#9a32cd" stroke="#9a32cd" points="395.221,-154.627 385.738,-159.352 396.097,-161.572 395.221,-154.627"/>
<text text-anchor="middle" x="480" y="-156" font-family="Helvetica,sans-Serif" font-size="10.00"> healthRemaining</text>
</g>
<!-- Node6 -->
<g id="node6" class="node"><title>Node6</title>
<polygon fill="white" stroke="#bfbfbf" points="302.5,-117.5 302.5,-136.5 377.5,-136.5 377.5,-117.5 302.5,-117.5"/>
<text text-anchor="middle" x="340" y="-124.5" font-family="Helvetica,sans-Serif" font-size="10.00">ProgressBar</text>
</g>
<!-- Node6&#45;&gt;Node1 -->
<g id="edge5" class="edge"><title>Node6&#45;&gt;Node1</title>
<path fill="none" stroke="#9a32cd" stroke-dasharray="5,2" d="M387.725,-127C428.238,-127 488.304,-127 539.885,-127"/>
<polygon fill="#9a32cd" stroke="#9a32cd" points="387.608,-123.5 377.608,-127 387.608,-130.5 387.608,-123.5"/>
<text text-anchor="middle" x="480" y="-130" font-family="Helvetica,sans-Serif" font-size="10.00"> myHealthBar</text>
</g>
<!-- Node7 -->
<g id="node7" class="node"><title>Node7</title>
<polygon fill="white" stroke="#bfbfbf" points="306,-79.5 306,-98.5 374,-98.5 374,-79.5 306,-79.5"/>
<text text-anchor="middle" x="340" y="-86.5" font-family="Helvetica,sans-Serif" font-size="10.00">ImageView</text>
</g>
<!-- Node7&#45;&gt;Node1 -->
<g id="edge6" class="edge"><title>Node7&#45;&gt;Node1</title>
<path fill="none" stroke="#9a32cd" stroke-dasharray="5,2" d="M384.125,-94.4443C424.572,-99.5506 486.609,-107.383 539.699,-114.085"/>
<polygon fill="#9a32cd" stroke="#9a32cd" points="384.433,-90.9555 374.073,-93.1754 383.556,-97.9004 384.433,-90.9555"/>
<text text-anchor="middle" x="480" y="-115" font-family="Helvetica,sans-Serif" font-size="10.00"> myHeart</text>
</g>
<!-- Node8 -->
<g id="node8" class="node"><title>Node8</title>
<polygon fill="white" stroke="#bfbfbf" points="299.5,-38.5 299.5,-57.5 380.5,-57.5 380.5,-38.5 299.5,-38.5"/>
<text text-anchor="middle" x="340" y="-45.5" font-family="Helvetica,sans-Serif" font-size="10.00">Dimension2D</text>
</g>
<!-- Node8&#45;&gt;Node1 -->
<g id="edge7" class="edge"><title>Node8&#45;&gt;Node1</title>
<path fill="none" stroke="#9a32cd" stroke-dasharray="5,2" d="M390.773,-52.3374C427.539,-56.3476 478.535,-63.6109 522,-76 553.784,-85.0596 588.345,-100.374 612.178,-111.862"/>
<polygon fill="#9a32cd" stroke="#9a32cd" points="391.109,-48.8536 380.798,-51.291 390.379,-55.8153 391.109,-48.8536"/>
<text text-anchor="middle" x="480" y="-90" font-family="Helvetica,sans-Serif" font-size="10.00"> imageSize</text>
<text text-anchor="middle" x="480" y="-79" font-family="Helvetica,sans-Serif" font-size="10.00">mySize</text>
</g>
<!-- Node9 -->
<g id="node9" class="node"><title>Node9</title>
<g id="a_node9"><a xlink:href="../../df/db4/classutilities_1_1_x_m_l_parsing_1_1_x_m_l_parser.html" target="_top" xlink:title="utilities.XMLParsing.XMLParser">
<polygon fill="white" stroke="black" points="260,-0.5 260,-19.5 420,-19.5 420,-0.5 260,-0.5"/>
<text text-anchor="middle" x="340" y="-7.5" font-family="Helvetica,sans-Serif" font-size="10.00">utilities.XMLParsing.XMLParser</text>
</a>
</g>
</g>
<!-- Node9&#45;&gt;Node1 -->
<g id="edge8" class="edge"><title>Node9&#45;&gt;Node1</title>
<path fill="none" stroke="#9a32cd" stroke-dasharray="5,2" d="M430.168,-19.1557C460.135,-24.2028 493.237,-31.995 522,-44 562.442,-60.8794 603.026,-92.8497 625.091,-111.806"/>
<polygon fill="#9a32cd" stroke="#9a32cd" points="430.565,-15.6746 420.137,-17.5472 429.457,-22.5863 430.565,-15.6746"/>
<text text-anchor="middle" x="480" y="-47" font-family="Helvetica,sans-Serif" font-size="10.00"> myParser</text>
</g>
<!-- Node10 -->
<g id="node10" class="node"><title>Node10</title>
<polygon fill="white" stroke="#bfbfbf" points="43.5,-0.5 43.5,-19.5 110.5,-19.5 110.5,-0.5 43.5,-0.5"/>
<text text-anchor="middle" x="77" y="-7.5" font-family="Helvetica,sans-Serif" font-size="10.00">Document</text>
</g>
<!-- Node10&#45;&gt;Node9 -->
<g id="edge9" class="edge"><title>Node10&#45;&gt;Node9</title>
<path fill="none" stroke="#9a32cd" stroke-dasharray="5,2" d="M120.641,-10C158.292,-10 214.161,-10 259.961,-10"/>
<polygon fill="#9a32cd" stroke="#9a32cd" points="120.528,-6.5001 110.528,-10 120.528,-13.5001 120.528,-6.5001"/>
<text text-anchor="middle" x="207" y="-13" font-family="Helvetica,sans-Serif" font-size="10.00"> myDocument</text>
</g>
</g>
</svg>
