<?xml version="1.0" encoding="UTF-8" standalone="no"?>
<!DOCTYPE svg PUBLIC "-//W3C//DTD SVG 1.1//EN"
 "http://www.w3.org/Graphics/SVG/1.1/DTD/svg11.dtd">
<!-- Generated by graphviz version 2.36.0 (20140111.2315)
 -->
<!-- Title: gameAuthoring.scenes.actorBuildingScenes.actorListView.listViewCells.EnemyCell.updateItem Pages: 1 -->
<svg width="424pt" height="77pt"
 viewBox="0.00 0.00 424.00 77.00" xmlns="http://www.w3.org/2000/svg" xmlns:xlink="http://www.w3.org/1999/xlink">
<g id="graph0" class="graph" transform="scale(1 1) rotate(0) translate(4 73)">
<title>gameAuthoring.scenes.actorBuildingScenes.actorListView.listViewCells.EnemyCell.updateItem</title>
<polygon fill="white" stroke="none" points="-4,4 -4,-73 420,-73 420,4 -4,4"/>
<!-- Node1 -->
<g id="node1" class="node"><title>Node1</title>
<polygon fill="#bfbfbf" stroke="black" points="0.5,-16.5 0.5,-57.5 173.5,-57.5 173.5,-16.5 0.5,-16.5"/>
<text text-anchor="start" x="8.5" y="-45.5" font-family="Helvetica,sans-Serif" font-size="10.00">gameAuthoring.scenes.actor</text>
<text text-anchor="start" x="8.5" y="-34.5" font-family="Helvetica,sans-Serif" font-size="10.00">BuildingScenes.actorListView.list</text>
<text text-anchor="middle" x="87" y="-23.5" font-family="Helvetica,sans-Serif" font-size="10.00">ViewCells.EnemyCell.updateItem</text>
</g>
<!-- Node2 -->
<g id="node2" class="node"><title>Node2</title>
<g id="a_node2"><a xlink:href="../../d5/d02/classgame_engine_1_1actors_1_1_base_actor.html#ae877e5334153c4e125fb84bf993587af" target="_top" xlink:title="gameEngine.actors.BaseActor.getNode">
<polygon fill="white" stroke="black" points="210,-49.5 210,-68.5 416,-68.5 416,-49.5 210,-49.5"/>
<text text-anchor="middle" x="313" y="-56.5" font-family="Helvetica,sans-Serif" font-size="10.00">gameEngine.actors.BaseActor.getNode</text>
</a>
</g>
</g>
<!-- Node1&#45;&gt;Node2 -->
<g id="edge1" class="edge"><title>Node1&#45;&gt;Node2</title>
<path fill="none" stroke="midnightblue" d="M173.644,-45.4114C183.939,-46.4226 194.55,-47.4647 205.1,-48.5009"/>
<polygon fill="midnightblue" stroke="midnightblue" points="204.89,-51.997 215.184,-49.4913 205.574,-45.0305 204.89,-51.997"/>
</g>
<!-- Node3 -->
<g id="node3" class="node"><title>Node3</title>
<g id="a_node3"><a xlink:href="../../d5/d02/classgame_engine_1_1actors_1_1_base_actor.html#a9f4fa91555a52251f64b91fa182db92b" target="_top" xlink:title="gameEngine.actors.BaseActor.to\lString">
<polygon fill="white" stroke="black" points="226,-0 226,-30 400,-30 400,-0 226,-0"/>
<text text-anchor="start" x="234" y="-18" font-family="Helvetica,sans-Serif" font-size="10.00">gameEngine.actors.BaseActor.to</text>
<text text-anchor="middle" x="313" y="-7" font-family="Helvetica,sans-Serif" font-size="10.00">String</text>
</a>
</g>
</g>
<!-- Node1&#45;&gt;Node3 -->
<g id="edge2" class="edge"><title>Node1&#45;&gt;Node3</title>
<path fill="none" stroke="midnightblue" d="M173.644,-28.5886C187.359,-27.2415 201.633,-25.8396 215.579,-24.47"/>
<polygon fill="midnightblue" stroke="midnightblue" points="216.052,-27.9404 225.662,-23.4796 215.368,-20.9739 216.052,-27.9404"/>
</g>
</g>
</svg>
