<?xml version="1.0" encoding="UTF-8" standalone="no"?>
<!DOCTYPE svg PUBLIC "-//W3C//DTD SVG 1.1//EN"
 "http://www.w3.org/Graphics/SVG/1.1/DTD/svg11.dtd">
<!-- Generated by graphviz version 2.36.0 (20140111.2315)
 -->
<!-- Title: gameAuthoring.scenes.pathBuilding.pathComponents.PathCurve Pages: 1 -->
<svg width="317pt" height="108pt"
 viewBox="0.00 0.00 317.00 108.00" xmlns="http://www.w3.org/2000/svg" xmlns:xlink="http://www.w3.org/1999/xlink">
<g id="graph0" class="graph" transform="scale(1 1) rotate(0) translate(4 104)">
<title>gameAuthoring.scenes.pathBuilding.pathComponents.PathCurve</title>
<polygon fill="white" stroke="none" points="-4,4 -4,-104 313,-104 313,4 -4,4"/>
<!-- Node1 -->
<g id="node1" class="node"><title>Node1</title>
<polygon fill="#bfbfbf" stroke="black" points="21,-1 21,-31 213,-31 213,-1 21,-1"/>
<text text-anchor="start" x="29" y="-19" font-family="Helvetica,sans-Serif" font-size="10.00">gameAuthoring.scenes.path</text>
<text text-anchor="middle" x="117" y="-8" font-family="Helvetica,sans-Serif" font-size="10.00">Building.pathComponents.PathCurve</text>
</g>
<!-- Node2 -->
<g id="node2" class="node"><title>Node2</title>
<polygon fill="white" stroke="#bfbfbf" points="-0.5,-74.5 -0.5,-93.5 70.5,-93.5 70.5,-74.5 -0.5,-74.5"/>
<text text-anchor="middle" x="35" y="-81.5" font-family="Helvetica,sans-Serif" font-size="10.00">CubicCurve</text>
</g>
<!-- Node2&#45;&gt;Node1 -->
<g id="edge1" class="edge"><title>Node2&#45;&gt;Node1</title>
<path fill="none" stroke="midnightblue" d="M53.5541,-68.0662C67.2866,-57.0132 85.8755,-42.0515 99.3806,-31.1815"/>
<polygon fill="midnightblue" stroke="midnightblue" points="51.3157,-65.375 45.7201,-74.3717 55.7048,-70.8281 51.3157,-65.375"/>
</g>
<!-- Node3 -->
<g id="node3" class="node"><title>Node3</title>
<g id="a_node3"><a xlink:href="../../df/dea/interfacegame_authoring_1_1scenes_1_1path_building_1_1path_components_1_1_path_component.html" target="_top" xlink:title="gameAuthoring.scenes.path\lBuilding.pathComponents.PathComponent">
<polygon fill="white" stroke="black" points="88.5,-69 88.5,-99 309.5,-99 309.5,-69 88.5,-69"/>
<text text-anchor="start" x="96.5" y="-87" font-family="Helvetica,sans-Serif" font-size="10.00">gameAuthoring.scenes.path</text>
<text text-anchor="middle" x="199" y="-76" font-family="Helvetica,sans-Serif" font-size="10.00">Building.pathComponents.PathComponent</text>
</a>
</g>
</g>
<!-- Node3&#45;&gt;Node1 -->
<g id="edge2" class="edge"><title>Node3&#45;&gt;Node1</title>
<path fill="none" stroke="midnightblue" d="M173.294,-62.3094C160.662,-52.1426 145.77,-40.1562 134.476,-31.0663"/>
<polygon fill="midnightblue" stroke="midnightblue" points="171.223,-65.1354 181.207,-68.679 175.612,-59.6823 171.223,-65.1354"/>
</g>
</g>
</svg>
