<?xml version="1.0" encoding="UTF-8" standalone="no"?>
<!DOCTYPE svg PUBLIC "-//W3C//DTD SVG 1.1//EN"
 "http://www.w3.org/Graphics/SVG/1.1/DTD/svg11.dtd">
<!-- Generated by graphviz version 2.36.0 (20140111.2315)
 -->
<!-- Title: gamePlayer.guiFeatures.TowerPlacer.drag Pages: 1 -->
<svg width="1076pt" height="38pt"
 viewBox="0.00 0.00 1076.00 38.00" xmlns="http://www.w3.org/2000/svg" xmlns:xlink="http://www.w3.org/1999/xlink">
<g id="graph0" class="graph" transform="scale(1 1) rotate(0) translate(4 34)">
<title>gamePlayer.guiFeatures.TowerPlacer.drag</title>
<polygon fill="white" stroke="none" points="-4,4 -4,-34 1072,-34 1072,4 -4,4"/>
<!-- Node1 -->
<g id="node1" class="node"><title>Node1</title>
<polygon fill="#bfbfbf" stroke="black" points="0.5,-0 0.5,-30 161.5,-30 161.5,-0 0.5,-0"/>
<text text-anchor="start" x="8.5" y="-18" font-family="Helvetica,sans-Serif" font-size="10.00">gamePlayer.guiFeatures.Tower</text>
<text text-anchor="middle" x="81" y="-7" font-family="Helvetica,sans-Serif" font-size="10.00">Placer.drag</text>
</g>
<!-- Node2 -->
<g id="node2" class="node"><title>Node2</title>
<g id="a_node2"><a xlink:href="../../db/d6b/classgame_player_1_1gui_features_1_1_tower_placer.html#a10670d3648daa0238e78318ee4fe5951" target="_top" xlink:title="gamePlayer.guiFeatures.Tower\lPlacer.validPlacement">
<polygon fill="white" stroke="black" points="198.5,-0 198.5,-30 359.5,-30 359.5,-0 198.5,-0"/>
<text text-anchor="start" x="206.5" y="-18" font-family="Helvetica,sans-Serif" font-size="10.00">gamePlayer.guiFeatures.Tower</text>
<text text-anchor="middle" x="279" y="-7" font-family="Helvetica,sans-Serif" font-size="10.00">Placer.validPlacement</text>
</a>
</g>
</g>
<!-- Node1&#45;&gt;Node2 -->
<g id="edge1" class="edge"><title>Node1&#45;&gt;Node2</title>
<path fill="none" stroke="midnightblue" d="M161.721,-15C170.405,-15 179.287,-15 188.082,-15"/>
<polygon fill="midnightblue" stroke="midnightblue" points="188.35,-18.5001 198.35,-15 188.35,-11.5001 188.35,-18.5001"/>
</g>
<!-- Node3 -->
<g id="node3" class="node"><title>Node3</title>
<g id="a_node3"><a xlink:href="../../da/d69/classgame_player_1_1main_classes_1_1managers_1_1_gui_manager.html#ab9444687dde4ba3763273b1029bae12b" target="_top" xlink:title="gamePlayer.mainClasses.managers.\lGuiManager.validPlacement">
<polygon fill="white" stroke="black" points="396.5,-0 396.5,-30 587.5,-30 587.5,-0 396.5,-0"/>
<text text-anchor="start" x="404.5" y="-18" font-family="Helvetica,sans-Serif" font-size="10.00">gamePlayer.mainClasses.managers.</text>
<text text-anchor="middle" x="492" y="-7" font-family="Helvetica,sans-Serif" font-size="10.00">GuiManager.validPlacement</text>
</a>
</g>
</g>
<!-- Node2&#45;&gt;Node3 -->
<g id="edge2" class="edge"><title>Node2&#45;&gt;Node3</title>
<path fill="none" stroke="midnightblue" d="M359.77,-15C368.419,-15 377.313,-15 386.201,-15"/>
<polygon fill="midnightblue" stroke="midnightblue" points="386.219,-18.5001 396.219,-15 386.219,-11.5001 386.219,-18.5001"/>
</g>
<!-- Node4 -->
<g id="node4" class="node"><title>Node4</title>
<g id="a_node4"><a xlink:href="../../d0/d94/classgame_engine_1_1_main_engine_manager.html#a0df1000af70082b96b286adf21e84a8e" target="_top" xlink:title="gameEngine.MainEngineManager.validate\lTower">
<polygon fill="white" stroke="black" points="624,-0 624,-30 840,-30 840,-0 624,-0"/>
<text text-anchor="start" x="632" y="-18" font-family="Helvetica,sans-Serif" font-size="10.00">gameEngine.MainEngineManager.validate</text>
<text text-anchor="middle" x="732" y="-7" font-family="Helvetica,sans-Serif" font-size="10.00">Tower</text>
</a>
</g>
</g>
<!-- Node3&#45;&gt;Node4 -->
<g id="edge3" class="edge"><title>Node3&#45;&gt;Node4</title>
<path fill="none" stroke="midnightblue" d="M587.748,-15C596.226,-15 604.877,-15 613.516,-15"/>
<polygon fill="midnightblue" stroke="midnightblue" points="613.642,-18.5001 623.642,-15 613.642,-11.5001 613.642,-18.5001"/>
</g>
<!-- Node5 -->
<g id="node5" class="node"><title>Node5</title>
<g id="a_node5"><a xlink:href="../../d0/d94/classgame_engine_1_1_main_engine_manager.html#a2d6903d241e3ebfded94e43d855f84e9" target="_top" xlink:title="gameEngine.MainEngineManager.list\lCollidesWith">
<polygon fill="white" stroke="black" points="876,-0 876,-30 1068,-30 1068,-0 876,-0"/>
<text text-anchor="start" x="884" y="-18" font-family="Helvetica,sans-Serif" font-size="10.00">gameEngine.MainEngineManager.list</text>
<text text-anchor="middle" x="972" y="-7" font-family="Helvetica,sans-Serif" font-size="10.00">CollidesWith</text>
</a>
</g>
</g>
<!-- Node4&#45;&gt;Node5 -->
<g id="edge4" class="edge"><title>Node4&#45;&gt;Node5</title>
<path fill="none" stroke="midnightblue" d="M840.164,-15C848.585,-15 857.085,-15 865.495,-15"/>
<polygon fill="midnightblue" stroke="midnightblue" points="865.696,-18.5001 875.696,-15 865.696,-11.5001 865.696,-18.5001"/>
</g>
</g>
</svg>
