<?xml version="1.0" encoding="UTF-8" standalone="no"?>
<!DOCTYPE svg PUBLIC "-//W3C//DTD SVG 1.1//EN"
 "http://www.w3.org/Graphics/SVG/1.1/DTD/svg11.dtd">
<!-- Generated by graphviz version 2.36.0 (20140111.2315)
 -->
<!-- Title: gamePlayer.guiFeatures.TowerPlacer.drop Pages: 1 -->
<!--zoomable 848 -->
<svg id="main" version="1.1" xmlns="http://www.w3.org/2000/svg" xmlns:xlink="http://www.w3.org/1999/xlink" xml:space="preserve" onload="init(evt)">
<style type="text/css"><![CDATA[
.edge:hover path { stroke: red; }
.edge:hover polygon { stroke: red; fill: red; }
]]></style>
<script type="text/javascript"><![CDATA[
var edges = document.getElementsByTagName('g');
if (edges && edges.length) {
  for (var i=0;i<edges.length;i++) {
    if (edges[i].id.substr(0,4)=='edge') {
      edges[i].setAttribute('class','edge');
    }
  }
}
]]></script>
        <defs>
                <circle id="rim" cx="0" cy="0" r="7"/>
                <circle id="rim2" cx="0" cy="0" r="3.5"/>
                <g id="zoomPlus">
                        <use xlink:href="#rim" fill="#404040">
                                <set attributeName="fill" to="#808080" begin="zoomplus.mouseover" end="zoomplus.mouseout"/>
                        </use>
                        <path d="M-4,0h8M0,-4v8" fill="none" stroke="white" stroke-width="1.5" pointer-events="none"/>
                </g>
                <g id="zoomMin">
                        <use xlink:href="#rim" fill="#404040">
                                <set attributeName="fill" to="#808080" begin="zoomminus.mouseover" end="zoomminus.mouseout"/>
                        </use>
                        <path d="M-4,0h8" fill="none" stroke="white" stroke-width="1.5" pointer-events="none"/>
                </g>
                <g id="dirArrow">
                        <path fill="none" stroke="white" stroke-width="1.5" d="M0,-3.0v7 M-2.5,-0.5L0,-3.0L2.5,-0.5"/>
                </g>
               <g id="resetDef">
                       <use xlink:href="#rim2" fill="#404040">
                               <set attributeName="fill" to="#808080" begin="reset.mouseover" end="reset.mouseout"/>
                       </use>
               </g>
        </defs>

<script type="text/javascript">
var viewWidth = 1376;
var viewHeight = 848;
var sectionId = 'dynsection-3';
</script>
<script xlink:href="../../svgpan.js"/>
<svg id="graph" class="graph">
<g id="viewport">
<title>gamePlayer.guiFeatures.TowerPlacer.drop</title>
<polygon fill="white" stroke="none" points="-4,4 -4,-844 1372,-844 1372,4 -4,4"/>
<!-- Node1 -->
<g id="node1" class="node"><title>Node1</title>
<polygon fill="#bfbfbf" stroke="black" points="0.5,-674 0.5,-704 161.5,-704 161.5,-674 0.5,-674"/>
<text text-anchor="start" x="8.5" y="-692" font-family="Helvetica,sans-Serif" font-size="10.00">gamePlayer.guiFeatures.Tower</text>
<text text-anchor="middle" x="81" y="-681" font-family="Helvetica,sans-Serif" font-size="10.00">Placer.drop</text>
</g>
<!-- Node2 -->
<g id="node2" class="node"><title>Node2</title>
<g id="a_node2"><a xlink:href="../../da/d69/classgame_player_1_1main_classes_1_1managers_1_1_gui_manager.html#aa36cd779c78f6d551e001fbe2ccbf2c8" target="_top" xlink:title="gamePlayer.mainClasses.managers.\lGuiManager.displayMessage">
<polygon fill="white" stroke="black" points="444.5,-788 444.5,-818 635.5,-818 635.5,-788 444.5,-788"/>
<text text-anchor="start" x="452.5" y="-806" font-family="Helvetica,sans-Serif" font-size="10.00">gamePlayer.mainClasses.managers.</text>
<text text-anchor="middle" x="540" y="-795" font-family="Helvetica,sans-Serif" font-size="10.00">GuiManager.displayMessage</text>
</a>
</g>
</g>
<!-- Node1&#45;&gt;Node2 -->
<g id="edge1" class="edge"><title>Node1&#45;&gt;Node2</title>
<path fill="none" stroke="midnightblue" d="M137.557,-704.021C205.439,-722.224 323.873,-753.5 426,-778 436.805,-780.592 448.214,-783.231 459.464,-785.775"/>
<polygon fill="midnightblue" stroke="midnightblue" points="458.764,-789.205 469.289,-787.983 460.299,-782.376 458.764,-789.205"/>
</g>
<!-- Node4 -->
<g id="node4" class="node"><title>Node4</title>
<g id="a_node4"><a xlink:href="../../da/d69/classgame_player_1_1main_classes_1_1managers_1_1_gui_manager.html#a148dc947569bdc60c98be5a853cf82ee" target="_top" xlink:title="gamePlayer.mainClasses.managers.\lGuiManager.makeTower">
<polygon fill="white" stroke="black" points="198.5,-674 198.5,-704 389.5,-704 389.5,-674 198.5,-674"/>
<text text-anchor="start" x="206.5" y="-692" font-family="Helvetica,sans-Serif" font-size="10.00">gamePlayer.mainClasses.managers.</text>
<text text-anchor="middle" x="294" y="-681" font-family="Helvetica,sans-Serif" font-size="10.00">GuiManager.makeTower</text>
</a>
</g>
</g>
<!-- Node1&#45;&gt;Node4 -->
<g id="edge3" class="edge"><title>Node1&#45;&gt;Node4</title>
<path fill="none" stroke="midnightblue" d="M161.77,-689C170.419,-689 179.313,-689 188.201,-689"/>
<polygon fill="midnightblue" stroke="midnightblue" points="188.219,-692.5 198.219,-689 188.219,-685.5 188.219,-692.5"/>
</g>
<!-- Node37 -->
<g id="node37" class="node"><title>Node37</title>
<g id="a_node37"><a xlink:href="../../db/d6b/classgame_player_1_1gui_features_1_1_tower_placer.html#a10670d3648daa0238e78318ee4fe5951" target="_top" xlink:title="gamePlayer.guiFeatures.Tower\lPlacer.validPlacement">
<polygon fill="white" stroke="black" points="213.5,-413 213.5,-443 374.5,-443 374.5,-413 213.5,-413"/>
<text text-anchor="start" x="221.5" y="-431" font-family="Helvetica,sans-Serif" font-size="10.00">gamePlayer.guiFeatures.Tower</text>
<text text-anchor="middle" x="294" y="-420" font-family="Helvetica,sans-Serif" font-size="10.00">Placer.validPlacement</text>
</a>
</g>
</g>
<!-- Node1&#45;&gt;Node37 -->
<g id="edge40" class="edge"><title>Node1&#45;&gt;Node37</title>
<path fill="none" stroke="midnightblue" d="M94.2563,-673.839C129.582,-630.142 231.786,-503.72 274.203,-451.251"/>
<polygon fill="midnightblue" stroke="midnightblue" points="277.145,-453.179 280.71,-443.202 271.701,-448.779 277.145,-453.179"/>
</g>
<!-- Node3 -->
<g id="node3" class="node"><title>Node3</title>
<g id="a_node3"><a xlink:href="../../dd/dee/classgame_player_1_1gui_items_1_1message_display_1_1_message_display.html#aab83737510993a53476288fcb995af19" target="_top" xlink:title="gamePlayer.guiItems.message\lDisplay.MessageDisplay.showMessage">
<polygon fill="white" stroke="black" points="708,-810 708,-840 906,-840 906,-810 708,-810"/>
<text text-anchor="start" x="716" y="-828" font-family="Helvetica,sans-Serif" font-size="10.00">gamePlayer.guiItems.message</text>
<text text-anchor="middle" x="807" y="-817" font-family="Helvetica,sans-Serif" font-size="10.00">Display.MessageDisplay.showMessage</text>
</a>
</g>
</g>
<!-- Node2&#45;&gt;Node3 -->
<g id="edge2" class="edge"><title>Node2&#45;&gt;Node3</title>
<path fill="none" stroke="midnightblue" d="M635.549,-810.849C655.731,-812.525 677.197,-814.307 697.846,-816.021"/>
<polygon fill="midnightblue" stroke="midnightblue" points="697.652,-819.517 707.908,-816.856 698.232,-812.541 697.652,-819.517"/>
</g>
<!-- Node4&#45;&gt;Node2 -->
<g id="edge4" class="edge"><title>Node4&#45;&gt;Node2</title>
<path fill="none" stroke="midnightblue" d="M312.366,-704.027C336.311,-723.954 381.566,-758.833 426,-778 431.872,-780.533 438.031,-782.823 444.314,-784.89"/>
<polygon fill="midnightblue" stroke="midnightblue" points="443.679,-788.357 454.267,-787.959 445.742,-781.668 443.679,-788.357"/>
</g>
<!-- Node5 -->
<g id="node5" class="node"><title>Node5</title>
<g id="a_node5"><a xlink:href="../../d0/d94/classgame_engine_1_1_main_engine_manager.html#a1edf9d92fa4f94e77f9ed269f0b01d3f" target="_top" xlink:title="gameEngine.MainEngineManager.checkGold">
<polygon fill="white" stroke="black" points="426,-749.5 426,-768.5 654,-768.5 654,-749.5 426,-749.5"/>
<text text-anchor="middle" x="540" y="-756.5" font-family="Helvetica,sans-Serif" font-size="10.00">gameEngine.MainEngineManager.checkGold</text>
</a>
</g>
</g>
<!-- Node4&#45;&gt;Node5 -->
<g id="edge5" class="edge"><title>Node4&#45;&gt;Node5</title>
<path fill="none" stroke="midnightblue" d="M329.155,-704.085C355.247,-715.103 392.332,-729.686 426,-739 437.818,-742.269 450.485,-745.123 462.91,-747.571"/>
<polygon fill="midnightblue" stroke="midnightblue" points="462.324,-751.022 472.801,-749.448 463.629,-744.145 462.324,-751.022"/>
</g>
<!-- Node7 -->
<g id="node7" class="node"><title>Node7</title>
<g id="a_node7"><a xlink:href="../../d0/d94/classgame_engine_1_1_main_engine_manager.html#a1e89018fb479a8c91b27e38952922637" target="_top" xlink:title="gameEngine.MainEngineManager.get\lGoldProperty">
<polygon fill="white" stroke="black" points="443,-700 443,-730 637,-730 637,-700 443,-700"/>
<text text-anchor="start" x="451" y="-718" font-family="Helvetica,sans-Serif" font-size="10.00">gameEngine.MainEngineManager.get</text>
<text text-anchor="middle" x="540" y="-707" font-family="Helvetica,sans-Serif" font-size="10.00">GoldProperty</text>
</a>
</g>
</g>
<!-- Node4&#45;&gt;Node7 -->
<g id="edge7" class="edge"><title>Node4&#45;&gt;Node7</title>
<path fill="none" stroke="midnightblue" d="M389.686,-699.089C403.699,-700.583 418.219,-702.13 432.454,-703.647"/>
<polygon fill="midnightblue" stroke="midnightblue" points="432.443,-707.165 442.758,-704.745 433.185,-700.205 432.443,-707.165"/>
</g>
<!-- Node8 -->
<g id="node8" class="node"><title>Node8</title>
<g id="a_node8"><a xlink:href="../../d0/d94/classgame_engine_1_1_main_engine_manager.html#a6729e2d14134ef08bf882e485399e93e" target="_top" xlink:title="gameEngine.MainEngineManager.set\lMyGold">
<polygon fill="white" stroke="black" points="443,-651 443,-681 637,-681 637,-651 443,-651"/>
<text text-anchor="start" x="451" y="-669" font-family="Helvetica,sans-Serif" font-size="10.00">gameEngine.MainEngineManager.set</text>
<text text-anchor="middle" x="540" y="-658" font-family="Helvetica,sans-Serif" font-size="10.00">MyGold</text>
</a>
</g>
</g>
<!-- Node4&#45;&gt;Node8 -->
<g id="edge8" class="edge"><title>Node4&#45;&gt;Node8</title>
<path fill="none" stroke="midnightblue" d="M389.686,-680.075C403.699,-678.754 418.219,-677.385 432.454,-676.043"/>
<polygon fill="midnightblue" stroke="midnightblue" points="433.13,-679.495 442.758,-675.072 432.473,-672.526 433.13,-679.495"/>
</g>
<!-- Node9 -->
<g id="node9" class="node"><title>Node9</title>
<g id="a_node9"><a xlink:href="../../d0/d94/classgame_engine_1_1_main_engine_manager.html#a42a2b5309be3a2d21f572d3d9f353a28" target="_top" xlink:title="gameEngine.MainEngineManager.add\lTower">
<polygon fill="white" stroke="black" points="441.5,-602 441.5,-632 638.5,-632 638.5,-602 441.5,-602"/>
<text text-anchor="start" x="449.5" y="-620" font-family="Helvetica,sans-Serif" font-size="10.00">gameEngine.MainEngineManager.add</text>
<text text-anchor="middle" x="540" y="-609" font-family="Helvetica,sans-Serif" font-size="10.00">Tower</text>
</a>
</g>
</g>
<!-- Node4&#45;&gt;Node9 -->
<g id="edge9" class="edge"><title>Node4&#45;&gt;Node9</title>
<path fill="none" stroke="midnightblue" d="M332.987,-673.927C358.915,-663.998 394.197,-651.183 426,-642 435.338,-639.304 445.182,-636.734 455.007,-634.338"/>
<polygon fill="midnightblue" stroke="midnightblue" points="455.891,-637.726 464.807,-632.003 454.268,-630.917 455.891,-637.726"/>
</g>
<!-- Node23 -->
<g id="node23" class="node"><title>Node23</title>
<g id="a_node23"><a xlink:href="../../da/d69/classgame_player_1_1main_classes_1_1managers_1_1_gui_manager.html#ad5da35abd0e1b0f2938b85549703118e" target="_top" xlink:title="gamePlayer.mainClasses.managers.\lGuiManager.selectTower">
<polygon fill="white" stroke="black" points="444.5,-330 444.5,-360 635.5,-360 635.5,-330 444.5,-330"/>
<text text-anchor="start" x="452.5" y="-348" font-family="Helvetica,sans-Serif" font-size="10.00">gamePlayer.mainClasses.managers.</text>
<text text-anchor="middle" x="540" y="-337" font-family="Helvetica,sans-Serif" font-size="10.00">GuiManager.selectTower</text>
</a>
</g>
</g>
<!-- Node4&#45;&gt;Node23 -->
<g id="edge24" class="edge"><title>Node4&#45;&gt;Node23</title>
<path fill="none" stroke="midnightblue" d="M305.799,-673.775C344.381,-619.381 475.591,-434.396 522.312,-368.527"/>
<polygon fill="midnightblue" stroke="midnightblue" points="525.395,-370.231 528.326,-360.049 519.685,-366.181 525.395,-370.231"/>
</g>
<!-- Node6 -->
<g id="node6" class="node"><title>Node6</title>
<g id="a_node6"><a xlink:href="../../d2/dae/classgame_engine_1_1_data_1_1_tower_info_object.html#ad278fbdec131b3af691125cd08a82891" target="_top" xlink:title="gameEngine.Data.TowerInfo\lObject.getBuyCost">
<polygon fill="white" stroke="black" points="732.5,-761 732.5,-791 881.5,-791 881.5,-761 732.5,-761"/>
<text text-anchor="start" x="740.5" y="-779" font-family="Helvetica,sans-Serif" font-size="10.00">gameEngine.Data.TowerInfo</text>
<text text-anchor="middle" x="807" y="-768" font-family="Helvetica,sans-Serif" font-size="10.00">Object.getBuyCost</text>
</a>
</g>
</g>
<!-- Node5&#45;&gt;Node6 -->
<g id="edge6" class="edge"><title>Node5&#45;&gt;Node6</title>
<path fill="none" stroke="midnightblue" d="M654.153,-766.259C676.984,-767.723 700.598,-769.238 722.206,-770.625"/>
<polygon fill="midnightblue" stroke="midnightblue" points="722.106,-774.125 732.309,-771.273 722.554,-767.14 722.106,-774.125"/>
</g>
<!-- Node10 -->
<g id="node10" class="node"><title>Node10</title>
<g id="a_node10"><a xlink:href="../../db/d6c/classgame_engine_1_1_data_1_1_range_restricted_collection.html#a42ea7db9dded67061a467a111fdc49f4" target="_top" xlink:title="gameEngine.Data.RangeRestricted\lCollection.add">
<polygon fill="white" stroke="black" points="715.5,-712 715.5,-742 898.5,-742 898.5,-712 715.5,-712"/>
<text text-anchor="start" x="723.5" y="-730" font-family="Helvetica,sans-Serif" font-size="10.00">gameEngine.Data.RangeRestricted</text>
<text text-anchor="middle" x="807" y="-719" font-family="Helvetica,sans-Serif" font-size="10.00">Collection.add</text>
</a>
</g>
</g>
<!-- Node9&#45;&gt;Node10 -->
<g id="edge10" class="edge"><title>Node9&#45;&gt;Node10</title>
<path fill="none" stroke="midnightblue" d="M636.602,-632.041C642.748,-634.835 648.619,-638.126 654,-642 679.237,-660.172 664.714,-683.897 690,-702 694.936,-705.534 700.273,-708.586 705.853,-711.219"/>
<polygon fill="midnightblue" stroke="midnightblue" points="704.871,-714.604 715.445,-715.268 707.593,-708.155 704.871,-714.604"/>
</g>
<!-- Node11 -->
<g id="node11" class="node"><title>Node11</title>
<g id="a_node11"><a xlink:href="../../df/db9/classgame_engine_1_1actors_1_1_base_tower.html#a5196fadecf06ee9ecebc59a678f8f272" target="_top" xlink:title="gameEngine.actors.BaseTower.copy">
<polygon fill="white" stroke="black" points="713,-673.5 713,-692.5 901,-692.5 901,-673.5 713,-673.5"/>
<text text-anchor="middle" x="807" y="-680.5" font-family="Helvetica,sans-Serif" font-size="10.00">gameEngine.actors.BaseTower.copy</text>
</a>
</g>
</g>
<!-- Node9&#45;&gt;Node11 -->
<g id="edge11" class="edge"><title>Node9&#45;&gt;Node11</title>
<path fill="none" stroke="midnightblue" d="M619.741,-632.041C631.346,-634.942 643.068,-638.262 654,-642 670.743,-647.725 673.219,-653.39 690,-659 704.72,-663.92 720.842,-668.026 736.261,-671.369"/>
<polygon fill="midnightblue" stroke="midnightblue" points="735.765,-674.84 746.269,-673.456 737.195,-667.988 735.765,-674.84"/>
</g>
<!-- Node14 -->
<g id="node14" class="node"><title>Node14</title>
<g id="a_node14"><a xlink:href="../../d5/d02/classgame_engine_1_1actors_1_1_base_actor.html#ae877e5334153c4e125fb84bf993587af" target="_top" xlink:title="gameEngine.actors.BaseActor.getNode">
<polygon fill="white" stroke="black" points="969,-667.5 969,-686.5 1175,-686.5 1175,-667.5 969,-667.5"/>
<text text-anchor="middle" x="1072" y="-674.5" font-family="Helvetica,sans-Serif" font-size="10.00">gameEngine.actors.BaseActor.getNode</text>
</a>
</g>
</g>
<!-- Node9&#45;&gt;Node14 -->
<g id="edge14" class="edge"><title>Node9&#45;&gt;Node14</title>
<path fill="none" stroke="midnightblue" d="M638.519,-628.04C734.865,-638.947 881.259,-655.52 976.531,-666.305"/>
<polygon fill="midnightblue" stroke="midnightblue" points="976.407,-669.814 986.737,-667.461 977.195,-662.858 976.407,-669.814"/>
</g>
<!-- Node15 -->
<g id="node15" class="node"><title>Node15</title>
<g id="a_node15"><a xlink:href="../../d0/d94/classgame_engine_1_1_main_engine_manager.html#a80b291e3df09fa199760f6c7b1482638" target="_top" xlink:title="gameEngine.MainEngineManager.set\lTowerTileStatus">
<polygon fill="white" stroke="black" points="710,-586 710,-616 904,-616 904,-586 710,-586"/>
<text text-anchor="start" x="718" y="-604" font-family="Helvetica,sans-Serif" font-size="10.00">gameEngine.MainEngineManager.set</text>
<text text-anchor="middle" x="807" y="-593" font-family="Helvetica,sans-Serif" font-size="10.00">TowerTileStatus</text>
</a>
</g>
</g>
<!-- Node9&#45;&gt;Node15 -->
<g id="edge15" class="edge"><title>Node9&#45;&gt;Node15</title>
<path fill="none" stroke="midnightblue" d="M638.547,-611.11C658.495,-609.906 679.58,-608.633 699.813,-607.411"/>
<polygon fill="midnightblue" stroke="midnightblue" points="700.214,-610.894 709.985,-606.797 699.792,-603.906 700.214,-610.894"/>
</g>
<!-- Node21 -->
<g id="node21" class="node"><title>Node21</title>
<g id="a_node21"><a xlink:href="../../dd/df0/classutilities_1_1_java_f_xutilities_1_1image_view_1_1_centered_image_view.html#a4df6d41d08c4c4a5c530290c736926f2" target="_top" xlink:title="utilities.JavaFXutilities.image\lView.CenteredImageView.setXCenter">
<polygon fill="white" stroke="black" points="711.5,-537 711.5,-567 902.5,-567 902.5,-537 711.5,-537"/>
<text text-anchor="start" x="719.5" y="-555" font-family="Helvetica,sans-Serif" font-size="10.00">utilities.JavaFXutilities.image</text>
<text text-anchor="middle" x="807" y="-544" font-family="Helvetica,sans-Serif" font-size="10.00">View.CenteredImageView.setXCenter</text>
</a>
</g>
</g>
<!-- Node9&#45;&gt;Node21 -->
<g id="edge22" class="edge"><title>Node9&#45;&gt;Node21</title>
<path fill="none" stroke="midnightblue" d="M594.628,-601.908C622.911,-594.125 658.239,-584.681 690,-577 700.841,-574.378 712.285,-571.747 723.592,-569.228"/>
<polygon fill="midnightblue" stroke="midnightblue" points="724.464,-572.62 733.474,-567.046 722.955,-565.785 724.464,-572.62"/>
</g>
<!-- Node22 -->
<g id="node22" class="node"><title>Node22</title>
<g id="a_node22"><a xlink:href="../../dd/df0/classutilities_1_1_java_f_xutilities_1_1image_view_1_1_centered_image_view.html#a2bcbaa8cc681ef2663182084f742d29d" target="_top" xlink:title="utilities.JavaFXutilities.image\lView.CenteredImageView.setYCenter">
<polygon fill="white" stroke="black" points="711.5,-488 711.5,-518 902.5,-518 902.5,-488 711.5,-488"/>
<text text-anchor="start" x="719.5" y="-506" font-family="Helvetica,sans-Serif" font-size="10.00">utilities.JavaFXutilities.image</text>
<text text-anchor="middle" x="807" y="-495" font-family="Helvetica,sans-Serif" font-size="10.00">View.CenteredImageView.setYCenter</text>
</a>
</g>
</g>
<!-- Node9&#45;&gt;Node22 -->
<g id="edge23" class="edge"><title>Node9&#45;&gt;Node22</title>
<path fill="none" stroke="midnightblue" d="M561.577,-601.714C589.327,-581.823 640.941,-547.331 690,-528 696.72,-525.352 703.776,-522.96 710.949,-520.804"/>
<polygon fill="midnightblue" stroke="midnightblue" points="712.12,-524.11 720.782,-518.009 710.206,-517.377 712.12,-524.11"/>
</g>
<!-- Node12 -->
<g id="node12" class="node"><title>Node12</title>
<g id="a_node12"><a xlink:href="../../df/db9/classgame_engine_1_1actors_1_1_base_tower.html#a579a596add08873663ac736c7800f687" target="_top" xlink:title="gameEngine.actors.BaseTower.\lBaseTower">
<polygon fill="white" stroke="black" points="989.5,-755 989.5,-785 1154.5,-785 1154.5,-755 989.5,-755"/>
<text text-anchor="start" x="997.5" y="-773" font-family="Helvetica,sans-Serif" font-size="10.00">gameEngine.actors.BaseTower.</text>
<text text-anchor="middle" x="1072" y="-762" font-family="Helvetica,sans-Serif" font-size="10.00">BaseTower</text>
</a>
</g>
</g>
<!-- Node11&#45;&gt;Node12 -->
<g id="edge12" class="edge"><title>Node11&#45;&gt;Node12</title>
<path fill="none" stroke="midnightblue" d="M899.711,-692.58C908.205,-695.295 916.447,-698.711 924,-703 945.379,-715.14 938.936,-732.321 960,-745 966.167,-748.712 972.827,-751.874 979.715,-754.567"/>
<polygon fill="midnightblue" stroke="midnightblue" points="978.629,-757.895 989.224,-757.956 980.979,-751.302 978.629,-757.895"/>
</g>
<!-- Node13 -->
<g id="node13" class="node"><title>Node13</title>
<g id="a_node13"><a xlink:href="../../d5/d02/classgame_engine_1_1actors_1_1_base_actor.html#a7feb699c5d4dc6ca8588beacc5567eff" target="_top" xlink:title="gameEngine.actors.BaseActor.copy\lBehaviors">
<polygon fill="white" stroke="black" points="978.5,-706 978.5,-736 1165.5,-736 1165.5,-706 978.5,-706"/>
<text text-anchor="start" x="986.5" y="-724" font-family="Helvetica,sans-Serif" font-size="10.00">gameEngine.actors.BaseActor.copy</text>
<text text-anchor="middle" x="1072" y="-713" font-family="Helvetica,sans-Serif" font-size="10.00">Behaviors</text>
</a>
</g>
</g>
<!-- Node11&#45;&gt;Node13 -->
<g id="edge13" class="edge"><title>Node11&#45;&gt;Node13</title>
<path fill="none" stroke="midnightblue" d="M874.027,-692.54C902.448,-696.646 936.347,-701.544 967.945,-706.11"/>
<polygon fill="midnightblue" stroke="midnightblue" points="967.716,-709.613 978.113,-707.579 968.717,-702.685 967.716,-709.613"/>
</g>
<!-- Node15&#45;&gt;Node14 -->
<g id="edge18" class="edge"><title>Node15&#45;&gt;Node14</title>
<path fill="none" stroke="midnightblue" d="M883.082,-616.041C897.012,-620.048 911.198,-624.984 924,-631 941.863,-639.394 941.836,-649.28 960,-657 967.303,-660.104 975.075,-662.726 982.985,-664.941"/>
<polygon fill="midnightblue" stroke="midnightblue" points="982.122,-668.333 992.679,-667.447 983.873,-661.556 982.122,-668.333"/>
</g>
<!-- Node16 -->
<g id="node16" class="node"><title>Node16</title>
<g id="a_node16"><a xlink:href="../../d5/db4/classgame_authoring_1_1scenes_1_1path_building_1_1building_panes_1_1tower_regions_1_1_tile.html#a71f5d493f80cf25cea9276247991294a" target="_top" xlink:title="gameAuthoring.scenes.path\lBuilding.buildingPanes.towerRegions.\lTile.getColumn">
<polygon fill="white" stroke="black" points="976.5,-607.5 976.5,-648.5 1167.5,-648.5 1167.5,-607.5 976.5,-607.5"/>
<text text-anchor="start" x="984.5" y="-636.5" font-family="Helvetica,sans-Serif" font-size="10.00">gameAuthoring.scenes.path</text>
<text text-anchor="start" x="984.5" y="-625.5" font-family="Helvetica,sans-Serif" font-size="10.00">Building.buildingPanes.towerRegions.</text>
<text text-anchor="middle" x="1072" y="-614.5" font-family="Helvetica,sans-Serif" font-size="10.00">Tile.getColumn</text>
</a>
</g>
</g>
<!-- Node15&#45;&gt;Node16 -->
<g id="edge16" class="edge"><title>Node15&#45;&gt;Node16</title>
<path fill="none" stroke="midnightblue" d="M904.065,-610.862C924.242,-612.934 945.621,-615.128 966.101,-617.231"/>
<polygon fill="midnightblue" stroke="midnightblue" points="965.769,-620.715 976.074,-618.255 966.484,-613.752 965.769,-620.715"/>
</g>
<!-- Node17 -->
<g id="node17" class="node"><title>Node17</title>
<g id="a_node17"><a xlink:href="../../d0/d94/classgame_engine_1_1_main_engine_manager.html#ac3e9c579c0ea0259bf4dd5a0dc7d29b1" target="_top" xlink:title="gameEngine.MainEngineManager.get\lIntersectingTowerTileNode">
<polygon fill="white" stroke="black" points="975,-559 975,-589 1169,-589 1169,-559 975,-559"/>
<text text-anchor="start" x="983" y="-577" font-family="Helvetica,sans-Serif" font-size="10.00">gameEngine.MainEngineManager.get</text>
<text text-anchor="middle" x="1072" y="-566" font-family="Helvetica,sans-Serif" font-size="10.00">IntersectingTowerTileNode</text>
</a>
</g>
</g>
<!-- Node15&#45;&gt;Node17 -->
<g id="edge17" class="edge"><title>Node15&#45;&gt;Node17</title>
<path fill="none" stroke="midnightblue" d="M904.065,-591.138C923.774,-589.115 944.629,-586.973 964.674,-584.916"/>
<polygon fill="midnightblue" stroke="midnightblue" points="965.165,-588.384 974.755,-583.881 964.45,-581.42 965.165,-588.384"/>
</g>
<!-- Node18 -->
<g id="node18" class="node"><title>Node18</title>
<g id="a_node18"><a xlink:href="../../d5/db4/classgame_authoring_1_1scenes_1_1path_building_1_1building_panes_1_1tower_regions_1_1_tile.html#afe5b972b91b5f857bfbabd1894a48592" target="_top" xlink:title="gameAuthoring.scenes.path\lBuilding.buildingPanes.towerRegions.\lTile.getRow">
<polygon fill="white" stroke="black" points="976.5,-499.5 976.5,-540.5 1167.5,-540.5 1167.5,-499.5 976.5,-499.5"/>
<text text-anchor="start" x="984.5" y="-528.5" font-family="Helvetica,sans-Serif" font-size="10.00">gameAuthoring.scenes.path</text>
<text text-anchor="start" x="984.5" y="-517.5" font-family="Helvetica,sans-Serif" font-size="10.00">Building.buildingPanes.towerRegions.</text>
<text text-anchor="middle" x="1072" y="-506.5" font-family="Helvetica,sans-Serif" font-size="10.00">Tile.getRow</text>
</a>
</g>
</g>
<!-- Node15&#45;&gt;Node18 -->
<g id="edge19" class="edge"><title>Node15&#45;&gt;Node18</title>
<path fill="none" stroke="midnightblue" d="M896.633,-585.913C906.051,-583.131 915.343,-579.854 924,-576 942.03,-567.972 942.183,-558.491 960,-550 964.333,-547.935 968.832,-545.993 973.427,-544.169"/>
<polygon fill="midnightblue" stroke="midnightblue" points="974.836,-547.379 982.971,-540.591 972.378,-540.825 974.836,-547.379"/>
</g>
<!-- Node19 -->
<g id="node19" class="node"><title>Node19</title>
<g id="a_node19"><a xlink:href="../../da/df9/classgame_engine_1_1_data_1_1_tower_tile_grid.html#a367cfa2903c44048ec959bcc546486fe" target="_top" xlink:title="gameEngine.Data.TowerTile\lGrid.setTowerTile">
<polygon fill="white" stroke="black" points="998,-451 998,-481 1146,-481 1146,-451 998,-451"/>
<text text-anchor="start" x="1006" y="-469" font-family="Helvetica,sans-Serif" font-size="10.00">gameEngine.Data.TowerTile</text>
<text text-anchor="middle" x="1072" y="-458" font-family="Helvetica,sans-Serif" font-size="10.00">Grid.setTowerTile</text>
</a>
</g>
</g>
<!-- Node15&#45;&gt;Node19 -->
<g id="edge20" class="edge"><title>Node15&#45;&gt;Node19</title>
<path fill="none" stroke="midnightblue" d="M904.276,-588.242C911.368,-584.965 918.058,-580.937 924,-576 955.87,-549.519 928.139,-516.492 960,-490 968.157,-483.218 977.788,-478.226 987.914,-474.572"/>
<polygon fill="midnightblue" stroke="midnightblue" points="989.263,-477.817 997.742,-471.464 987.152,-471.143 989.263,-477.817"/>
</g>
<!-- Node20 -->
<g id="node20" class="node"><title>Node20</title>
<g id="a_node20"><a xlink:href="../../da/df9/classgame_engine_1_1_data_1_1_tower_tile_grid.html#a2bcbce6f5009d9adf2d13bc540c36a52" target="_top" xlink:title="gameEngine.Data.TowerTile\lGrid.setChangedStatus">
<polygon fill="white" stroke="black" points="1220,-451 1220,-481 1368,-481 1368,-451 1220,-451"/>
<text text-anchor="start" x="1228" y="-469" font-family="Helvetica,sans-Serif" font-size="10.00">gameEngine.Data.TowerTile</text>
<text text-anchor="middle" x="1294" y="-458" font-family="Helvetica,sans-Serif" font-size="10.00">Grid.setChangedStatus</text>
</a>
</g>
</g>
<!-- Node19&#45;&gt;Node20 -->
<g id="edge21" class="edge"><title>Node19&#45;&gt;Node20</title>
<path fill="none" stroke="midnightblue" d="M1146.26,-466C1166.56,-466 1188.75,-466 1209.58,-466"/>
<polygon fill="midnightblue" stroke="midnightblue" points="1209.69,-469.5 1219.69,-466 1209.69,-462.5 1209.69,-469.5"/>
</g>
<!-- Node24 -->
<g id="node24" class="node"><title>Node24</title>
<g id="a_node24"><a xlink:href="../../da/d69/classgame_player_1_1main_classes_1_1managers_1_1_gui_manager.html#a3c54e67481646eaa1208a9f69cc1ea78" target="_top" xlink:title="gamePlayer.mainClasses.managers.\lGuiManager.deselectTower">
<polygon fill="white" stroke="black" points="711.5,-354 711.5,-384 902.5,-384 902.5,-354 711.5,-354"/>
<text text-anchor="start" x="719.5" y="-372" font-family="Helvetica,sans-Serif" font-size="10.00">gamePlayer.mainClasses.managers.</text>
<text text-anchor="middle" x="807" y="-361" font-family="Helvetica,sans-Serif" font-size="10.00">GuiManager.deselectTower</text>
</a>
</g>
</g>
<!-- Node23&#45;&gt;Node24 -->
<g id="edge25" class="edge"><title>Node23&#45;&gt;Node24</title>
<path fill="none" stroke="midnightblue" d="M635.549,-347.065C657.075,-348.721 680.061,-350.765 701.958,-352.968"/>
<polygon fill="midnightblue" stroke="midnightblue" points="701.629,-356.452 711.933,-353.99 702.342,-349.489 701.629,-356.452"/>
</g>
<!-- Node25 -->
<g id="node25" class="node"><title>Node25</title>
<g id="a_node25"><a xlink:href="../../d0/dee/classgame_player_1_1gui_items_1_1game_world_1_1_game_world.html#ab07bae6d692a39832fd7ecc25f3b6cf3" target="_top" xlink:title="gamePlayer.guiItems.game\lWorld.GameWorld.getMap">
<polygon fill="white" stroke="black" points="998,-402 998,-432 1146,-432 1146,-402 998,-402"/>
<text text-anchor="start" x="1006" y="-420" font-family="Helvetica,sans-Serif" font-size="10.00">gamePlayer.guiItems.game</text>
<text text-anchor="middle" x="1072" y="-409" font-family="Helvetica,sans-Serif" font-size="10.00">World.GameWorld.getMap</text>
</a>
</g>
</g>
<!-- Node23&#45;&gt;Node25 -->
<g id="edge39" class="edge"><title>Node23&#45;&gt;Node25</title>
<path fill="none" stroke="midnightblue" d="M578.908,-360.109C608.623,-371.238 651.282,-385.663 690,-393 791.114,-412.161 909.739,-416.908 987.432,-417.676"/>
<polygon fill="midnightblue" stroke="midnightblue" points="987.616,-421.178 997.644,-417.757 987.671,-414.178 987.616,-421.178"/>
</g>
<!-- Node27 -->
<g id="node27" class="node"><title>Node27</title>
<g id="a_node27"><a xlink:href="../../d0/d94/classgame_engine_1_1_main_engine_manager.html#a10eebcc873d27deccb595f18ca9072fb" target="_top" xlink:title="gameEngine.MainEngineManager.get\lTowerName">
<polygon fill="white" stroke="black" points="710,-305 710,-335 904,-335 904,-305 710,-305"/>
<text text-anchor="start" x="718" y="-323" font-family="Helvetica,sans-Serif" font-size="10.00">gameEngine.MainEngineManager.get</text>
<text text-anchor="middle" x="807" y="-312" font-family="Helvetica,sans-Serif" font-size="10.00">TowerName</text>
</a>
</g>
</g>
<!-- Node23&#45;&gt;Node27 -->
<g id="edge29" class="edge"><title>Node23&#45;&gt;Node27</title>
<path fill="none" stroke="midnightblue" d="M635.549,-336.08C656.336,-334.119 678.485,-332.03 699.701,-330.028"/>
<polygon fill="midnightblue" stroke="midnightblue" points="700.074,-333.509 709.701,-329.085 699.416,-326.54 700.074,-333.509"/>
</g>
<!-- Node29 -->
<g id="node29" class="node"><title>Node29</title>
<g id="a_node29"><a xlink:href="../../dd/df0/classutilities_1_1_java_f_xutilities_1_1image_view_1_1_centered_image_view.html#a063a62060b9b686601364fdbb8b6cd86" target="_top" xlink:title="utilities.JavaFXutilities.image\lView.CenteredImageView.getXCenter">
<polygon fill="white" stroke="black" points="711,-256 711,-286 903,-286 903,-256 711,-256"/>
<text text-anchor="start" x="719" y="-274" font-family="Helvetica,sans-Serif" font-size="10.00">utilities.JavaFXutilities.image</text>
<text text-anchor="middle" x="807" y="-263" font-family="Helvetica,sans-Serif" font-size="10.00">View.CenteredImageView.getXCenter</text>
</a>
</g>
</g>
<!-- Node23&#45;&gt;Node29 -->
<g id="edge31" class="edge"><title>Node23&#45;&gt;Node29</title>
<path fill="none" stroke="midnightblue" d="M581.389,-329.984C611.137,-319.284 652.727,-305.071 690,-295 698.748,-292.636 707.921,-290.375 717.114,-288.252"/>
<polygon fill="midnightblue" stroke="midnightblue" points="718.093,-291.619 727.077,-286.003 716.552,-284.791 718.093,-291.619"/>
</g>
<!-- Node30 -->
<g id="node30" class="node"><title>Node30</title>
<g id="a_node30"><a xlink:href="../../dd/df0/classutilities_1_1_java_f_xutilities_1_1image_view_1_1_centered_image_view.html#aa05843be4846dc0d9c23489cac21ed3d" target="_top" xlink:title="utilities.JavaFXutilities.image\lView.CenteredImageView.getYCenter">
<polygon fill="white" stroke="black" points="711.5,-207 711.5,-237 902.5,-237 902.5,-207 711.5,-207"/>
<text text-anchor="start" x="719.5" y="-225" font-family="Helvetica,sans-Serif" font-size="10.00">utilities.JavaFXutilities.image</text>
<text text-anchor="middle" x="807" y="-214" font-family="Helvetica,sans-Serif" font-size="10.00">View.CenteredImageView.getYCenter</text>
</a>
</g>
</g>
<!-- Node23&#45;&gt;Node30 -->
<g id="edge32" class="edge"><title>Node23&#45;&gt;Node30</title>
<path fill="none" stroke="midnightblue" d="M558.957,-329.696C585.703,-307.724 638.406,-267.524 690,-246 695.16,-243.847 700.533,-241.881 706.014,-240.086"/>
<polygon fill="midnightblue" stroke="midnightblue" points="707.439,-243.31 715.976,-237.037 705.39,-236.617 707.439,-243.31"/>
</g>
<!-- Node31 -->
<g id="node31" class="node"><title>Node31</title>
<g id="a_node31"><a xlink:href="../../d1/d18/classgame_player_1_1gui_items_1_1tower_upgrade_1_1_tower_upgrade_panel.html#ab1a665d01bbeab4d6a954df1b4f6b10f" target="_top" xlink:title="gamePlayer.guiItems.tower\lUpgrade.TowerUpgradePanel.setCurrentTower">
<polygon fill="white" stroke="black" points="690,-152 690,-182 924,-182 924,-152 690,-152"/>
<text text-anchor="start" x="698" y="-170" font-family="Helvetica,sans-Serif" font-size="10.00">gamePlayer.guiItems.tower</text>
<text text-anchor="middle" x="807" y="-159" font-family="Helvetica,sans-Serif" font-size="10.00">Upgrade.TowerUpgradePanel.setCurrentTower</text>
</a>
</g>
</g>
<!-- Node23&#45;&gt;Node31 -->
<g id="edge33" class="edge"><title>Node23&#45;&gt;Node31</title>
<path fill="none" stroke="midnightblue" d="M551.824,-329.787C574.103,-299.635 628.214,-232.176 690,-197 697.899,-192.503 706.481,-188.667 715.282,-185.398"/>
<polygon fill="midnightblue" stroke="midnightblue" points="716.593,-188.648 724.897,-182.068 714.303,-182.033 716.593,-188.648"/>
</g>
<!-- Node24&#45;&gt;Node23 -->
<g id="edge28" class="edge"><title>Node24&#45;&gt;Node23</title>
<path fill="none" stroke="midnightblue" d="M711.235,-366.918C689.89,-365.274 667.119,-363.25 645.403,-361.069"/>
<polygon fill="midnightblue" stroke="midnightblue" points="645.48,-357.558 635.175,-360.022 644.767,-364.522 645.48,-357.558"/>
</g>
<!-- Node24&#45;&gt;Node25 -->
<g id="edge26" class="edge"><title>Node24&#45;&gt;Node25</title>
<path fill="none" stroke="midnightblue" d="M890.493,-384.056C921.486,-389.712 956.716,-396.142 987.775,-401.811"/>
<polygon fill="midnightblue" stroke="midnightblue" points="987.236,-405.27 997.702,-403.622 988.493,-398.384 987.236,-405.27"/>
</g>
<!-- Node26 -->
<g id="node26" class="node"><title>Node26</title>
<g id="a_node26"><a xlink:href="../../d1/d18/classgame_player_1_1gui_items_1_1tower_upgrade_1_1_tower_upgrade_panel.html#a4dd7a166c98ebf68effcd02c939bd544" target="_top" xlink:title="gamePlayer.guiItems.tower\lUpgrade.TowerUpgradePanel.deselectTower">
<polygon fill="white" stroke="black" points="960,-353 960,-383 1184,-383 1184,-353 960,-353"/>
<text text-anchor="start" x="968" y="-371" font-family="Helvetica,sans-Serif" font-size="10.00">gamePlayer.guiItems.tower</text>
<text text-anchor="middle" x="1072" y="-360" font-family="Helvetica,sans-Serif" font-size="10.00">Upgrade.TowerUpgradePanel.deselectTower</text>
</a>
</g>
</g>
<!-- Node24&#45;&gt;Node26 -->
<g id="edge27" class="edge"><title>Node24&#45;&gt;Node26</title>
<path fill="none" stroke="midnightblue" d="M902.577,-368.64C917.799,-368.583 933.738,-368.522 949.485,-368.462"/>
<polygon fill="midnightblue" stroke="midnightblue" points="949.81,-371.961 959.796,-368.423 949.783,-364.961 949.81,-371.961"/>
</g>
<!-- Node28 -->
<g id="node28" class="node"><title>Node28</title>
<g id="a_node28"><a xlink:href="../../d5/d02/classgame_engine_1_1actors_1_1_base_actor.html#a9f4fa91555a52251f64b91fa182db92b" target="_top" xlink:title="gameEngine.actors.BaseActor.to\lString">
<polygon fill="white" stroke="black" points="985,-304 985,-334 1159,-334 1159,-304 985,-304"/>
<text text-anchor="start" x="993" y="-322" font-family="Helvetica,sans-Serif" font-size="10.00">gameEngine.actors.BaseActor.to</text>
<text text-anchor="middle" x="1072" y="-311" font-family="Helvetica,sans-Serif" font-size="10.00">String</text>
</a>
</g>
</g>
<!-- Node27&#45;&gt;Node28 -->
<g id="edge30" class="edge"><title>Node27&#45;&gt;Node28</title>
<path fill="none" stroke="midnightblue" d="M904.065,-319.635C927.073,-319.547 951.645,-319.454 974.665,-319.366"/>
<polygon fill="midnightblue" stroke="midnightblue" points="974.786,-322.866 984.773,-319.328 974.76,-315.866 974.786,-322.866"/>
</g>
<!-- Node32 -->
<g id="node32" class="node"><title>Node32</title>
<g id="a_node32"><a xlink:href="../../dc/d37/classutilities_1_1_java_f_xutilities_1_1image_view_1_1_string_to_image_view_converter.html#a5beb76f3bbfa4aae7d9b897a285b007b" target="_top" xlink:title="utilities.JavaFXutilities.image\lView.StringToImageViewConverter.get\lImageView">
<polygon fill="white" stroke="black" points="974,-244.5 974,-285.5 1170,-285.5 1170,-244.5 974,-244.5"/>
<text text-anchor="start" x="982" y="-273.5" font-family="Helvetica,sans-Serif" font-size="10.00">utilities.JavaFXutilities.image</text>
<text text-anchor="start" x="982" y="-262.5" font-family="Helvetica,sans-Serif" font-size="10.00">View.StringToImageViewConverter.get</text>
<text text-anchor="middle" x="1072" y="-251.5" font-family="Helvetica,sans-Serif" font-size="10.00">ImageView</text>
</a>
</g>
</g>
<!-- Node31&#45;&gt;Node32 -->
<g id="edge34" class="edge"><title>Node31&#45;&gt;Node32</title>
<path fill="none" stroke="midnightblue" d="M890.184,-182.081C901.969,-185.981 913.607,-190.872 924,-197 944.04,-208.816 940.024,-223.075 960,-235 963.049,-236.82 966.21,-238.532 969.454,-240.143"/>
<polygon fill="midnightblue" stroke="midnightblue" points="968.236,-243.435 978.785,-244.416 971.151,-237.07 968.236,-243.435"/>
</g>
<!-- Node33 -->
<g id="node33" class="node"><title>Node33</title>
<g id="a_node33"><a xlink:href="../../d2/dae/classgame_engine_1_1_data_1_1_tower_info_object.html#af130c92f07cfb719eb25c6b46117e02f" target="_top" xlink:title="gameEngine.Data.TowerInfo\lObject.getImageLocation">
<polygon fill="white" stroke="black" points="997.5,-196 997.5,-226 1146.5,-226 1146.5,-196 997.5,-196"/>
<text text-anchor="start" x="1005.5" y="-214" font-family="Helvetica,sans-Serif" font-size="10.00">gameEngine.Data.TowerInfo</text>
<text text-anchor="middle" x="1072" y="-203" font-family="Helvetica,sans-Serif" font-size="10.00">Object.getImageLocation</text>
</a>
</g>
</g>
<!-- Node31&#45;&gt;Node33 -->
<g id="edge35" class="edge"><title>Node31&#45;&gt;Node33</title>
<path fill="none" stroke="midnightblue" d="M897.774,-182.019C926.793,-186.874 958.835,-192.235 987.389,-197.012"/>
<polygon fill="midnightblue" stroke="midnightblue" points="986.892,-200.477 997.333,-198.675 988.047,-193.573 986.892,-200.477"/>
</g>
<!-- Node34 -->
<g id="node34" class="node"><title>Node34</title>
<g id="a_node34"><a xlink:href="../../d2/dae/classgame_engine_1_1_data_1_1_tower_info_object.html#a52473d08f24e1e664999ec11f8f72632" target="_top" xlink:title="gameEngine.Data.TowerInfo\lObject.getName">
<polygon fill="white" stroke="black" points="997.5,-147 997.5,-177 1146.5,-177 1146.5,-147 997.5,-147"/>
<text text-anchor="start" x="1005.5" y="-165" font-family="Helvetica,sans-Serif" font-size="10.00">gameEngine.Data.TowerInfo</text>
<text text-anchor="middle" x="1072" y="-154" font-family="Helvetica,sans-Serif" font-size="10.00">Object.getName</text>
</a>
</g>
</g>
<!-- Node31&#45;&gt;Node34 -->
<g id="edge36" class="edge"><title>Node31&#45;&gt;Node34</title>
<path fill="none" stroke="midnightblue" d="M924.121,-164.792C945.428,-164.387 967.281,-163.972 987.401,-163.589"/>
<polygon fill="midnightblue" stroke="midnightblue" points="987.508,-167.088 997.439,-163.398 987.375,-160.089 987.508,-167.088"/>
</g>
<!-- Node35 -->
<g id="node35" class="node"><title>Node35</title>
<g id="a_node35"><a xlink:href="../../d2/dae/classgame_engine_1_1_data_1_1_tower_info_object.html#aae3256ac67a3504c1e55820260c542a2" target="_top" xlink:title="gameEngine.Data.TowerInfo\lObject.getMyUpgrade">
<polygon fill="white" stroke="black" points="997.5,-98 997.5,-128 1146.5,-128 1146.5,-98 997.5,-98"/>
<text text-anchor="start" x="1005.5" y="-116" font-family="Helvetica,sans-Serif" font-size="10.00">gameEngine.Data.TowerInfo</text>
<text text-anchor="middle" x="1072" y="-105" font-family="Helvetica,sans-Serif" font-size="10.00">Object.getMyUpgrade</text>
</a>
</g>
</g>
<!-- Node31&#45;&gt;Node35 -->
<g id="edge37" class="edge"><title>Node31&#45;&gt;Node35</title>
<path fill="none" stroke="midnightblue" d="M881.26,-151.958C914.322,-145.17 953.54,-137.117 987.715,-130.1"/>
<polygon fill="midnightblue" stroke="midnightblue" points="988.585,-133.495 997.677,-128.055 987.177,-126.638 988.585,-133.495"/>
</g>
<!-- Node36 -->
<g id="node36" class="node"><title>Node36</title>
<g id="a_node36"><a xlink:href="../../d2/dae/classgame_engine_1_1_data_1_1_tower_info_object.html#ad81afa853b7dac417c3a781d810e0217" target="_top" xlink:title="gameEngine.Data.TowerInfo\lObject.getSellCost">
<polygon fill="white" stroke="black" points="997.5,-49 997.5,-79 1146.5,-79 1146.5,-49 997.5,-49"/>
<text text-anchor="start" x="1005.5" y="-67" font-family="Helvetica,sans-Serif" font-size="10.00">gameEngine.Data.TowerInfo</text>
<text text-anchor="middle" x="1072" y="-56" font-family="Helvetica,sans-Serif" font-size="10.00">Object.getSellCost</text>
</a>
</g>
</g>
<!-- Node31&#45;&gt;Node36 -->
<g id="edge38" class="edge"><title>Node31&#45;&gt;Node36</title>
<path fill="none" stroke="midnightblue" d="M832.092,-151.894C861.319,-134.19 912.58,-105.102 960,-88 968.81,-84.8228 978.172,-81.9984 987.578,-79.5052"/>
<polygon fill="midnightblue" stroke="midnightblue" points="988.539,-82.8725 997.374,-77.0261 986.821,-76.0864 988.539,-82.8725"/>
</g>
<!-- Node38 -->
<g id="node38" class="node"><title>Node38</title>
<g id="a_node38"><a xlink:href="../../da/d69/classgame_player_1_1main_classes_1_1managers_1_1_gui_manager.html#ab9444687dde4ba3763273b1029bae12b" target="_top" xlink:title="gamePlayer.mainClasses.managers.\lGuiManager.validPlacement">
<polygon fill="white" stroke="black" points="444.5,-153 444.5,-183 635.5,-183 635.5,-153 444.5,-153"/>
<text text-anchor="start" x="452.5" y="-171" font-family="Helvetica,sans-Serif" font-size="10.00">gamePlayer.mainClasses.managers.</text>
<text text-anchor="middle" x="540" y="-160" font-family="Helvetica,sans-Serif" font-size="10.00">GuiManager.validPlacement</text>
</a>
</g>
</g>
<!-- Node37&#45;&gt;Node38 -->
<g id="edge41" class="edge"><title>Node37&#45;&gt;Node38</title>
<path fill="none" stroke="midnightblue" d="M309.173,-412.897C350.192,-369.188 469.188,-242.39 517.867,-190.519"/>
<polygon fill="midnightblue" stroke="midnightblue" points="520.497,-192.831 524.788,-183.144 515.392,-188.041 520.497,-192.831"/>
</g>
<!-- Node39 -->
<g id="node39" class="node"><title>Node39</title>
<g id="a_node39"><a xlink:href="../../d0/d94/classgame_engine_1_1_main_engine_manager.html#a0df1000af70082b96b286adf21e84a8e" target="_top" xlink:title="gameEngine.MainEngineManager.validate\lTower">
<polygon fill="white" stroke="black" points="699,-54 699,-84 915,-84 915,-54 699,-54"/>
<text text-anchor="start" x="707" y="-72" font-family="Helvetica,sans-Serif" font-size="10.00">gameEngine.MainEngineManager.validate</text>
<text text-anchor="middle" x="807" y="-61" font-family="Helvetica,sans-Serif" font-size="10.00">Tower</text>
</a>
</g>
</g>
<!-- Node38&#45;&gt;Node39 -->
<g id="edge42" class="edge"><title>Node38&#45;&gt;Node39</title>
<path fill="none" stroke="midnightblue" d="M581.248,-152.964C628.176,-135.432 705.755,-106.45 756.373,-87.5399"/>
<polygon fill="midnightblue" stroke="midnightblue" points="757.666,-90.7933 765.808,-84.015 755.216,-84.236 757.666,-90.7933"/>
</g>
<!-- Node40 -->
<g id="node40" class="node"><title>Node40</title>
<g id="a_node40"><a xlink:href="../../d0/d94/classgame_engine_1_1_main_engine_manager.html#a2d6903d241e3ebfded94e43d855f84e9" target="_top" xlink:title="gameEngine.MainEngineManager.list\lCollidesWith">
<polygon fill="white" stroke="black" points="976,-0 976,-30 1168,-30 1168,-0 976,-0"/>
<text text-anchor="start" x="984" y="-18" font-family="Helvetica,sans-Serif" font-size="10.00">gameEngine.MainEngineManager.list</text>
<text text-anchor="middle" x="1072" y="-7" font-family="Helvetica,sans-Serif" font-size="10.00">CollidesWith</text>
</a>
</g>
</g>
<!-- Node39&#45;&gt;Node40 -->
<g id="edge43" class="edge"><title>Node39&#45;&gt;Node40</title>
<path fill="none" stroke="midnightblue" d="M881.26,-53.958C914.322,-47.1695 953.54,-39.1173 987.715,-32.1004"/>
<polygon fill="midnightblue" stroke="midnightblue" points="988.585,-35.4947 997.677,-30.0549 987.177,-28.6378 988.585,-35.4947"/>
</g>
</g>
</svg>
        <g id="navigator" transform="translate(0 0)" fill="#404254">
                <rect fill="#f2f5e9" fill-opacity="0.5" stroke="#606060" stroke-width=".5" x="0" y="0" width="60" height="60"/>
                <use id="zoomplus" xlink:href="#zoomPlus" x="17" y="9" onmousedown="handleZoom(evt,'in')"/>
                <use id="zoomminus" xlink:href="#zoomMin" x="42" y="9" onmousedown="handleZoom(evt,'out')"/>
                <use id="reset" xlink:href="#resetDef" x="30" y="36" onmousedown="handleReset()"/>
                <g id="arrowUp" xlink:href="#dirArrow" transform="translate(30 24)" onmousedown="handlePan(0,-1)">
                  <use xlink:href="#rim" fill="#404040">
                        <set attributeName="fill" to="#808080" begin="arrowUp.mouseover" end="arrowUp.mouseout"/>
                  </use>
                  <path fill="none" stroke="white" stroke-width="1.5" d="M0,-3.0v7 M-2.5,-0.5L0,-3.0L2.5,-0.5"/>
                </g>
                <g id="arrowRight" xlink:href="#dirArrow" transform="rotate(90) translate(36 -43)" onmousedown="handlePan(1,0)">
                  <use xlink:href="#rim" fill="#404040">
                        <set attributeName="fill" to="#808080" begin="arrowRight.mouseover" end="arrowRight.mouseout"/>
                  </use>
                  <path fill="none" stroke="white" stroke-width="1.5" d="M0,-3.0v7 M-2.5,-0.5L0,-3.0L2.5,-0.5"/>
                </g>
                <g id="arrowDown" xlink:href="#dirArrow" transform="rotate(180) translate(-30 -48)" onmousedown="handlePan(0,1)">
                  <use xlink:href="#rim" fill="#404040">
                        <set attributeName="fill" to="#808080" begin="arrowDown.mouseover" end="arrowDown.mouseout"/>
                  </use>
                  <path fill="none" stroke="white" stroke-width="1.5" d="M0,-3.0v7 M-2.5,-0.5L0,-3.0L2.5,-0.5"/>
                </g>
                <g id="arrowLeft" xlink:href="#dirArrow" transform="rotate(270) translate(-36 17)" onmousedown="handlePan(-1,0)">
                  <use xlink:href="#rim" fill="#404040">
                        <set attributeName="fill" to="#808080" begin="arrowLeft.mouseover" end="arrowLeft.mouseout"/>
                  </use>
                  <path fill="none" stroke="white" stroke-width="1.5" d="M0,-3.0v7 M-2.5,-0.5L0,-3.0L2.5,-0.5"/>
                </g>
        </g>
        <svg viewBox="0 0 15 15" width="100%" height="30px" preserveAspectRatio="xMaxYMin meet">
         <g id="arrow_out" transform="scale(0.3 0.3)">
          <a xlink:href="classgame_player_1_1gui_features_1_1_tower_placer_a8a56e5205e61a12602015f880e47070c_cgraph_org.svg" target="_base">
           <rect id="button" ry="5" rx="5" y="6" x="6" height="38" width="38"
                fill="#f2f5e9" fill-opacity="0.5" stroke="#606060" stroke-width="1.0"/>
           <path id="arrow"
             d="M 11.500037,31.436501 C 11.940474,20.09759 22.043105,11.32322 32.158766,21.979434 L 37.068811,17.246167 C 37.068811,17.246167 37.088388,32 37.088388,32 L 22.160133,31.978069 C 22.160133,31.978069 26.997745,27.140456 26.997745,27.140456 C 18.528582,18.264221 13.291696,25.230495 11.500037,31.436501 z"
             style="fill:#404040;"/>
          </a>
         </g>
        </svg>
</svg>
