<?xml version="1.0" encoding="UTF-8" standalone="no"?>
<!DOCTYPE svg PUBLIC "-//W3C//DTD SVG 1.1//EN"
 "http://www.w3.org/Graphics/SVG/1.1/DTD/svg11.dtd">
<!-- Generated by graphviz version 2.36.0 (20140111.2315)
 -->
<!-- Title: gameEngine.actors.behaviors.BaseEffect Pages: 1 -->
<svg width="566pt" height="332pt"
 viewBox="0.00 0.00 566.00 332.00" xmlns="http://www.w3.org/2000/svg" xmlns:xlink="http://www.w3.org/1999/xlink">
<g id="graph0" class="graph" transform="scale(1 1) rotate(0) translate(4 328)">
<title>gameEngine.actors.behaviors.BaseEffect</title>
<polygon fill="white" stroke="none" points="-4,4 -4,-328 562,-328 562,4 -4,4"/>
<!-- Node1 -->
<g id="node1" class="node"><title>Node1</title>
<polygon fill="#bfbfbf" stroke="black" points="198,-147 198,-177 360,-177 360,-147 198,-147"/>
<text text-anchor="start" x="206" y="-165" font-family="Helvetica,sans-Serif" font-size="10.00">gameEngine.actors.behaviors.</text>
<text text-anchor="middle" x="279" y="-154" font-family="Helvetica,sans-Serif" font-size="10.00">BaseEffect</text>
</g>
<!-- Node3 -->
<g id="node3" class="node"><title>Node3</title>
<g id="a_node3"><a xlink:href="../../dc/d40/classgame_engine_1_1actors_1_1behaviors_1_1_ao_e_effect.html" target="_top" xlink:title="gameEngine.actors.behaviors.\lAoEEffect">
<polygon fill="white" stroke="black" points="396,-294 396,-324 558,-324 558,-294 396,-294"/>
<text text-anchor="start" x="404" y="-312" font-family="Helvetica,sans-Serif" font-size="10.00">gameEngine.actors.behaviors.</text>
<text text-anchor="middle" x="477" y="-301" font-family="Helvetica,sans-Serif" font-size="10.00">AoEEffect</text>
</a>
</g>
</g>
<!-- Node1&#45;&gt;Node3 -->
<g id="edge2" class="edge"><title>Node1&#45;&gt;Node3</title>
<path fill="none" stroke="midnightblue" d="M296.326,-185.339C316.663,-212.752 353.907,-257.801 396,-284 402.177,-287.845 408.993,-291.141 415.962,-293.957"/>
<polygon fill="midnightblue" stroke="midnightblue" points="299.047,-183.13 290.332,-177.105 293.387,-187.25 299.047,-183.13"/>
</g>
<!-- Node4 -->
<g id="node4" class="node"><title>Node4</title>
<g id="a_node4"><a xlink:href="../../dc/d58/classgame_engine_1_1actors_1_1behaviors_1_1_do_t_on_hit.html" target="_top" xlink:title="gameEngine.actors.behaviors.\lDoTOnHit">
<polygon fill="white" stroke="black" points="396,-245 396,-275 558,-275 558,-245 396,-245"/>
<text text-anchor="start" x="404" y="-263" font-family="Helvetica,sans-Serif" font-size="10.00">gameEngine.actors.behaviors.</text>
<text text-anchor="middle" x="477" y="-252" font-family="Helvetica,sans-Serif" font-size="10.00">DoTOnHit</text>
</a>
</g>
</g>
<!-- Node1&#45;&gt;Node4 -->
<g id="edge3" class="edge"><title>Node1&#45;&gt;Node4</title>
<path fill="none" stroke="midnightblue" d="M308.645,-182.98C331.425,-198.92 364.58,-220.503 396,-235 403.928,-238.658 412.534,-241.974 421.065,-244.908"/>
<polygon fill="midnightblue" stroke="midnightblue" points="310.631,-180.097 300.448,-177.173 306.585,-185.809 310.631,-180.097"/>
</g>
<!-- Node5 -->
<g id="node5" class="node"><title>Node5</title>
<g id="a_node5"><a xlink:href="../../d9/df0/classgame_engine_1_1actors_1_1behaviors_1_1_earth_quake_effect.html" target="_top" xlink:title="gameEngine.actors.behaviors.\lEarthQuakeEffect">
<polygon fill="white" stroke="black" points="396,-196 396,-226 558,-226 558,-196 396,-196"/>
<text text-anchor="start" x="404" y="-214" font-family="Helvetica,sans-Serif" font-size="10.00">gameEngine.actors.behaviors.</text>
<text text-anchor="middle" x="477" y="-203" font-family="Helvetica,sans-Serif" font-size="10.00">EarthQuakeEffect</text>
</a>
</g>
</g>
<!-- Node1&#45;&gt;Node5 -->
<g id="edge4" class="edge"><title>Node1&#45;&gt;Node5</title>
<path fill="none" stroke="midnightblue" d="M349.907,-179.477C371.51,-184.877 395.102,-190.776 415.975,-195.994"/>
<polygon fill="midnightblue" stroke="midnightblue" points="350.689,-176.065 340.138,-177.035 348.991,-182.856 350.689,-176.065"/>
</g>
<!-- Node6 -->
<g id="node6" class="node"><title>Node6</title>
<g id="a_node6"><a xlink:href="../../de/dd5/classgame_engine_1_1actors_1_1behaviors_1_1_gold_gen_effect.html" target="_top" xlink:title="gameEngine.actors.behaviors.\lGoldGenEffect">
<polygon fill="white" stroke="black" points="396,-147 396,-177 558,-177 558,-147 396,-147"/>
<text text-anchor="start" x="404" y="-165" font-family="Helvetica,sans-Serif" font-size="10.00">gameEngine.actors.behaviors.</text>
<text text-anchor="middle" x="477" y="-154" font-family="Helvetica,sans-Serif" font-size="10.00">GoldGenEffect</text>
</a>
</g>
</g>
<!-- Node1&#45;&gt;Node6 -->
<g id="edge5" class="edge"><title>Node1&#45;&gt;Node6</title>
<path fill="none" stroke="midnightblue" d="M370.077,-162C378.703,-162 387.413,-162 395.935,-162"/>
<polygon fill="midnightblue" stroke="midnightblue" points="370.003,-158.5 360.003,-162 370.003,-165.5 370.003,-158.5"/>
</g>
<!-- Node7 -->
<g id="node7" class="node"><title>Node7</title>
<g id="a_node7"><a xlink:href="../../dc/d28/classgame_engine_1_1actors_1_1behaviors_1_1_heal_effect.html" target="_top" xlink:title="gameEngine.actors.behaviors.\lHealEffect">
<polygon fill="white" stroke="black" points="396,-98 396,-128 558,-128 558,-98 396,-98"/>
<text text-anchor="start" x="404" y="-116" font-family="Helvetica,sans-Serif" font-size="10.00">gameEngine.actors.behaviors.</text>
<text text-anchor="middle" x="477" y="-105" font-family="Helvetica,sans-Serif" font-size="10.00">HealEffect</text>
</a>
</g>
</g>
<!-- Node1&#45;&gt;Node7 -->
<g id="edge6" class="edge"><title>Node1&#45;&gt;Node7</title>
<path fill="none" stroke="midnightblue" d="M349.907,-144.523C371.51,-139.123 395.102,-133.224 415.975,-128.006"/>
<polygon fill="midnightblue" stroke="midnightblue" points="348.991,-141.144 340.138,-146.965 350.689,-147.935 348.991,-141.144"/>
</g>
<!-- Node8 -->
<g id="node8" class="node"><title>Node8</title>
<g id="a_node8"><a xlink:href="../../d6/dc5/classgame_engine_1_1actors_1_1behaviors_1_1_slow_effect.html" target="_top" xlink:title="gameEngine.actors.behaviors.\lSlowEffect">
<polygon fill="white" stroke="black" points="396,-49 396,-79 558,-79 558,-49 396,-49"/>
<text text-anchor="start" x="404" y="-67" font-family="Helvetica,sans-Serif" font-size="10.00">gameEngine.actors.behaviors.</text>
<text text-anchor="middle" x="477" y="-56" font-family="Helvetica,sans-Serif" font-size="10.00">SlowEffect</text>
</a>
</g>
</g>
<!-- Node1&#45;&gt;Node8 -->
<g id="edge7" class="edge"><title>Node1&#45;&gt;Node8</title>
<path fill="none" stroke="midnightblue" d="M308.14,-140.903C330.882,-124.647 364.227,-102.558 396,-88 403.25,-84.6779 411.078,-81.6755 418.9,-79.0087"/>
<polygon fill="midnightblue" stroke="midnightblue" points="306.016,-138.12 299.969,-146.82 310.121,-143.79 306.016,-138.12"/>
</g>
<!-- Node9 -->
<g id="node9" class="node"><title>Node9</title>
<g id="a_node9"><a xlink:href="../../d3/df0/classgame_engine_1_1actors_1_1behaviors_1_1_tower_range_effect.html" target="_top" xlink:title="gameEngine.actors.behaviors.\lTowerRangeEffect">
<polygon fill="white" stroke="black" points="396,-0 396,-30 558,-30 558,-0 396,-0"/>
<text text-anchor="start" x="404" y="-18" font-family="Helvetica,sans-Serif" font-size="10.00">gameEngine.actors.behaviors.</text>
<text text-anchor="middle" x="477" y="-7" font-family="Helvetica,sans-Serif" font-size="10.00">TowerRangeEffect</text>
</a>
</g>
</g>
<!-- Node1&#45;&gt;Node9 -->
<g id="edge8" class="edge"><title>Node1&#45;&gt;Node9</title>
<path fill="none" stroke="midnightblue" d="M296.231,-138.382C316.476,-110.659 353.629,-65.1568 396,-39 401.552,-35.5723 407.625,-32.6081 413.863,-30.0503"/>
<polygon fill="midnightblue" stroke="midnightblue" points="293.243,-136.543 290.266,-146.711 298.934,-140.618 293.243,-136.543"/>
</g>
<!-- Node2 -->
<g id="node2" class="node"><title>Node2</title>
<g id="a_node2"><a xlink:href="../../dd/d43/interfacegame_engine_1_1actors_1_1behaviors_1_1_i_behavior.html" target="_top" xlink:title="gameEngine.actors.behaviors.\lIBehavior">
<polygon fill="white" stroke="black" points="0,-147 0,-177 162,-177 162,-147 0,-147"/>
<text text-anchor="start" x="8" y="-165" font-family="Helvetica,sans-Serif" font-size="10.00">gameEngine.actors.behaviors.</text>
<text text-anchor="middle" x="81" y="-154" font-family="Helvetica,sans-Serif" font-size="10.00">IBehavior</text>
</a>
</g>
</g>
<!-- Node2&#45;&gt;Node1 -->
<g id="edge1" class="edge"><title>Node2&#45;&gt;Node1</title>
<path fill="none" stroke="midnightblue" d="M172.077,-162C180.703,-162 189.413,-162 197.935,-162"/>
<polygon fill="midnightblue" stroke="midnightblue" points="172.003,-158.5 162.003,-162 172.003,-165.5 172.003,-158.5"/>
</g>
</g>
</svg>
