<?xml version="1.0" encoding="UTF-8" standalone="no"?>
<!DOCTYPE svg PUBLIC "-//W3C//DTD SVG 1.1//EN"
 "http://www.w3.org/Graphics/SVG/1.1/DTD/svg11.dtd">
<!-- Generated by graphviz version 2.36.0 (20140111.2315)
 -->
<!-- Title: gameAuthoring.scenes.pathBuilding.buildingPanes.BuildingPane Pages: 1 -->
<svg width="192pt" height="108pt"
 viewBox="0.00 0.00 192.00 108.00" xmlns="http://www.w3.org/2000/svg" xmlns:xlink="http://www.w3.org/1999/xlink">
<g id="graph0" class="graph" transform="scale(1 1) rotate(0) translate(4 104)">
<title>gameAuthoring.scenes.pathBuilding.buildingPanes.BuildingPane</title>
<polygon fill="white" stroke="none" points="-4,4 -4,-104 188,-104 188,4 -4,4"/>
<!-- Node1 -->
<g id="node1" class="node"><title>Node1</title>
<polygon fill="#bfbfbf" stroke="black" points="-1,-1 -1,-31 185,-31 185,-1 -1,-1"/>
<text text-anchor="start" x="7" y="-19" font-family="Helvetica,sans-Serif" font-size="10.00">gameAuthoring.scenes.path</text>
<text text-anchor="middle" x="92" y="-8" font-family="Helvetica,sans-Serif" font-size="10.00">Building.buildingPanes.BuildingPane</text>
</g>
<!-- Node2 -->
<g id="node2" class="node"><title>Node2</title>
<polygon fill="white" stroke="#bfbfbf" points="42,-80.5 42,-99.5 82,-99.5 82,-80.5 42,-80.5"/>
<text text-anchor="middle" x="62" y="-87.5" font-family="Helvetica,sans-Serif" font-size="10.00">Pane</text>
</g>
<!-- Node2&#45;&gt;Node1 -->
<g id="edge1" class="edge"><title>Node2&#45;&gt;Node1</title>
<path fill="none" stroke="midnightblue" d="M69.4151,-71.2038C74.5493,-58.8816 81.2926,-42.6978 86.0702,-31.2316"/>
<polygon fill="midnightblue" stroke="midnightblue" points="66.1746,-69.881 65.5592,-80.4579 72.6362,-72.5733 66.1746,-69.881"/>
</g>
<!-- Node3 -->
<g id="node3" class="node"><title>Node3</title>
<polygon fill="white" stroke="#bfbfbf" points="100,-80.5 100,-99.5 146,-99.5 146,-80.5 100,-80.5"/>
<text text-anchor="middle" x="123" y="-87.5" font-family="Helvetica,sans-Serif" font-size="10.00">Group</text>
</g>
<!-- Node3&#45;&gt;Node1 -->
<g id="edge2" class="edge"><title>Node3&#45;&gt;Node1</title>
<path fill="none" stroke="#9a32cd" stroke-dasharray="5,2" d="M115.338,-71.2038C110.032,-58.8816 103.064,-42.6978 98.1275,-31.2316"/>
<polygon fill="#9a32cd" stroke="#9a32cd" points="112.153,-72.6572 119.322,-80.4579 118.582,-69.8889 112.153,-72.6572"/>
<text text-anchor="middle" x="135" y="-53.5" font-family="Helvetica,sans-Serif" font-size="10.00"> myGroup</text>
</g>
</g>
</svg>
