<?xml version="1.0" encoding="UTF-8" standalone="no"?>
<!DOCTYPE svg PUBLIC "-//W3C//DTD SVG 1.1//EN"
 "http://www.w3.org/Graphics/SVG/1.1/DTD/svg11.dtd">
<!-- Generated by graphviz version 2.36.0 (20140111.2315)
 -->
<!-- Title: utilities.GSON.GSONFileReader.readWrappers Pages: 1 -->
<svg width="2066pt" height="260pt"
 viewBox="0.00 0.00 2066.00 260.00" xmlns="http://www.w3.org/2000/svg" xmlns:xlink="http://www.w3.org/1999/xlink">
<g id="graph0" class="graph" transform="scale(1 1) rotate(0) translate(4 256)">
<title>utilities.GSON.GSONFileReader.readWrappers</title>
<polygon fill="white" stroke="none" points="-4,4 -4,-256 2062,-256 2062,4 -4,4"/>
<!-- Node1 -->
<g id="node1" class="node"><title>Node1</title>
<polygon fill="#bfbfbf" stroke="black" points="0.5,-87 0.5,-117 187.5,-117 187.5,-87 0.5,-87"/>
<text text-anchor="start" x="8.5" y="-105" font-family="Helvetica,sans-Serif" font-size="10.00">utilities.GSON.GSONFileReader.read</text>
<text text-anchor="middle" x="94" y="-94" font-family="Helvetica,sans-Serif" font-size="10.00">Wrappers</text>
</g>
<!-- Node2 -->
<g id="node2" class="node"><title>Node2</title>
<g id="a_node2"><a xlink:href="../../d4/d66/classgame_engine_1_1_co_op_manager.html#a15a51949e52c7652ea6f6e420868bd6d" target="_top" xlink:title="gameEngine.CoOpManager.get\lTowersFromServer">
<polygon fill="white" stroke="black" points="224,-87 224,-117 390,-117 390,-87 224,-87"/>
<text text-anchor="start" x="232" y="-105" font-family="Helvetica,sans-Serif" font-size="10.00">gameEngine.CoOpManager.get</text>
<text text-anchor="middle" x="307" y="-94" font-family="Helvetica,sans-Serif" font-size="10.00">TowersFromServer</text>
</a>
</g>
</g>
<!-- Node1&#45;&gt;Node2 -->
<g id="edge1" class="edge"><title>Node1&#45;&gt;Node2</title>
<path fill="none" stroke="midnightblue" d="M197.771,-102C206.502,-102 215.258,-102 223.8,-102"/>
<polygon fill="midnightblue" stroke="midnightblue" points="197.548,-98.5001 187.548,-102 197.548,-105.5 197.548,-98.5001"/>
</g>
<!-- Node3 -->
<g id="node3" class="node"><title>Node3</title>
<g id="a_node3"><a xlink:href="../../d4/d66/classgame_engine_1_1_co_op_manager.html#af79a82231e7ef2225ef6fabeb0269d12" target="_top" xlink:title="gameEngine.CoOpManager.add\lTower">
<polygon fill="white" stroke="black" points="436,-153 436,-183 604,-183 604,-153 436,-153"/>
<text text-anchor="start" x="444" y="-171" font-family="Helvetica,sans-Serif" font-size="10.00">gameEngine.CoOpManager.add</text>
<text text-anchor="middle" x="520" y="-160" font-family="Helvetica,sans-Serif" font-size="10.00">Tower</text>
</a>
</g>
</g>
<!-- Node2&#45;&gt;Node3 -->
<g id="edge2" class="edge"><title>Node2&#45;&gt;Node3</title>
<path fill="none" stroke="midnightblue" d="M366.077,-120.166C398.951,-130.449 439.582,-143.158 470.699,-152.892"/>
<polygon fill="midnightblue" stroke="midnightblue" points="366.732,-116.704 356.143,-117.059 364.642,-123.385 366.732,-116.704"/>
</g>
<!-- Node4 -->
<g id="node4" class="node"><title>Node4</title>
<g id="a_node4"><a xlink:href="../../d4/d66/classgame_engine_1_1_co_op_manager.html#ad4b88a1ebf8918a80ea2a3ba697442e3" target="_top" xlink:title="gameEngine.CoOpManager.allow\lInteraction">
<polygon fill="white" stroke="black" points="650.5,-62 650.5,-92 823.5,-92 823.5,-62 650.5,-62"/>
<text text-anchor="start" x="658.5" y="-80" font-family="Helvetica,sans-Serif" font-size="10.00">gameEngine.CoOpManager.allow</text>
<text text-anchor="middle" x="737" y="-69" font-family="Helvetica,sans-Serif" font-size="10.00">Interaction</text>
</a>
</g>
</g>
<!-- Node2&#45;&gt;Node4 -->
<g id="edge3" class="edge"><title>Node2&#45;&gt;Node4</title>
<path fill="none" stroke="midnightblue" d="M400.436,-108.132C461.291,-110.81 542.61,-111.805 614,-104 635.888,-101.607 659.598,-96.8671 680.244,-92.0176"/>
<polygon fill="midnightblue" stroke="midnightblue" points="400.237,-104.619 390.086,-107.651 399.913,-111.611 400.237,-104.619"/>
</g>
<!-- Node19 -->
<g id="node19" class="node"><title>Node19</title>
<g id="a_node19"><a xlink:href="../../d4/d66/classgame_engine_1_1_co_op_manager.html#ac47b70262d8632fbc594ac5419377725" target="_top" xlink:title="gameEngine.CoOpManager.remove\lTower">
<polygon fill="white" stroke="black" points="426.5,-65 426.5,-95 613.5,-95 613.5,-65 426.5,-65"/>
<text text-anchor="start" x="434.5" y="-83" font-family="Helvetica,sans-Serif" font-size="10.00">gameEngine.CoOpManager.remove</text>
<text text-anchor="middle" x="520" y="-72" font-family="Helvetica,sans-Serif" font-size="10.00">Tower</text>
</a>
</g>
</g>
<!-- Node2&#45;&gt;Node19 -->
<g id="edge18" class="edge"><title>Node2&#45;&gt;Node19</title>
<path fill="none" stroke="midnightblue" d="M400.224,-92.3842C408.837,-91.4862 417.57,-90.5756 426.188,-89.677"/>
<polygon fill="midnightblue" stroke="midnightblue" points="399.765,-88.913 390.182,-93.4312 400.491,-95.8752 399.765,-88.913"/>
</g>
<!-- Node20 -->
<g id="node20" class="node"><title>Node20</title>
<g id="a_node20"><a xlink:href="../../d4/d66/classgame_engine_1_1_co_op_manager.html#af2b56fd3bc5e8ae23648b6ffc0c18dff" target="_top" xlink:title="gameEngine.CoOpManager.start\lLevel">
<polygon fill="white" stroke="black" points="433.5,-16 433.5,-46 606.5,-46 606.5,-16 433.5,-16"/>
<text text-anchor="start" x="441.5" y="-34" font-family="Helvetica,sans-Serif" font-size="10.00">gameEngine.CoOpManager.start</text>
<text text-anchor="middle" x="520" y="-23" font-family="Helvetica,sans-Serif" font-size="10.00">Level</text>
</a>
</g>
</g>
<!-- Node2&#45;&gt;Node20 -->
<g id="edge19" class="edge"><title>Node2&#45;&gt;Node20</title>
<path fill="none" stroke="midnightblue" d="M351.835,-83.0057C373.849,-73.8614 401.077,-63.1433 426,-55 435.669,-51.8409 446.01,-48.8247 456.154,-46.0626"/>
<polygon fill="midnightblue" stroke="midnightblue" points="350.298,-79.8547 342.428,-86.9484 353.004,-86.3106 350.298,-79.8547"/>
</g>
<!-- Node5 -->
<g id="node5" class="node"><title>Node5</title>
<g id="a_node5"><a xlink:href="../../d4/d66/classgame_engine_1_1_co_op_manager.html#af6188fa0b89fef3dea97e3ce873b883e" target="_top" xlink:title="gameEngine.CoOpManager.initializeGame">
<polygon fill="white" stroke="black" points="860,-89.5 860,-108.5 1078,-108.5 1078,-89.5 860,-89.5"/>
<text text-anchor="middle" x="969" y="-96.5" font-family="Helvetica,sans-Serif" font-size="10.00">gameEngine.CoOpManager.initializeGame</text>
</a>
</g>
</g>
<!-- Node4&#45;&gt;Node5 -->
<g id="edge4" class="edge"><title>Node4&#45;&gt;Node5</title>
<path fill="none" stroke="midnightblue" d="M833.631,-86.1474C845.088,-87.2432 856.809,-88.3643 868.321,-89.4654"/>
<polygon fill="midnightblue" stroke="midnightblue" points="833.931,-82.6602 823.644,-85.192 833.265,-89.6284 833.931,-82.6602"/>
</g>
<!-- Node18 -->
<g id="node18" class="node"><title>Node18</title>
<g id="a_node18"><a xlink:href="../../d4/d66/classgame_engine_1_1_co_op_manager.html#a1e977212e886dab17670950489c15801" target="_top" xlink:title="gameEngine.CoOpManager.on\lLevelEnd">
<polygon fill="white" stroke="black" points="888,-40 888,-70 1050,-70 1050,-40 888,-40"/>
<text text-anchor="start" x="896" y="-58" font-family="Helvetica,sans-Serif" font-size="10.00">gameEngine.CoOpManager.on</text>
<text text-anchor="middle" x="969" y="-47" font-family="Helvetica,sans-Serif" font-size="10.00">LevelEnd</text>
</a>
</g>
</g>
<!-- Node4&#45;&gt;Node18 -->
<g id="edge17" class="edge"><title>Node4&#45;&gt;Node18</title>
<path fill="none" stroke="midnightblue" d="M833.613,-67.8544C851.702,-66.1242 870.45,-64.3309 887.996,-62.6526"/>
<polygon fill="midnightblue" stroke="midnightblue" points="833.265,-64.3716 823.644,-68.808 833.931,-71.3398 833.265,-64.3716"/>
</g>
<!-- Node6 -->
<g id="node6" class="node"><title>Node6</title>
<g id="a_node6"><a xlink:href="../../da/d69/classgame_player_1_1main_classes_1_1managers_1_1_gui_manager.html#aa0b614e03bdec959e13e3d5ca2e1f614" target="_top" xlink:title="gamePlayer.mainClasses.managers.\lGuiManager.startMultiPlayerGame">
<polygon fill="white" stroke="black" points="1114.5,-84 1114.5,-114 1305.5,-114 1305.5,-84 1114.5,-84"/>
<text text-anchor="start" x="1122.5" y="-102" font-family="Helvetica,sans-Serif" font-size="10.00">gamePlayer.mainClasses.managers.</text>
<text text-anchor="middle" x="1210" y="-91" font-family="Helvetica,sans-Serif" font-size="10.00">GuiManager.startMultiPlayerGame</text>
</a>
</g>
</g>
<!-- Node5&#45;&gt;Node6 -->
<g id="edge5" class="edge"><title>Node5&#45;&gt;Node6</title>
<path fill="none" stroke="midnightblue" d="M1088.44,-99C1097.09,-99 1105.74,-99 1114.22,-99"/>
<polygon fill="midnightblue" stroke="midnightblue" points="1088.31,-95.5001 1078.31,-99 1088.31,-102.5 1088.31,-95.5001"/>
</g>
<!-- Node7 -->
<g id="node7" class="node"><title>Node7</title>
<g id="a_node7"><a xlink:href="../../da/d69/classgame_player_1_1main_classes_1_1managers_1_1_gui_manager.html#ad50f462f8d45a5bbfc8a17290372a1ab" target="_top" xlink:title="gamePlayer.mainClasses.managers.\lGuiManager.joinMultiPlayerGame">
<polygon fill="white" stroke="black" points="1356.5,-168 1356.5,-198 1547.5,-198 1547.5,-168 1356.5,-168"/>
<text text-anchor="start" x="1364.5" y="-186" font-family="Helvetica,sans-Serif" font-size="10.00">gamePlayer.mainClasses.managers.</text>
<text text-anchor="middle" x="1452" y="-175" font-family="Helvetica,sans-Serif" font-size="10.00">GuiManager.joinMultiPlayerGame</text>
</a>
</g>
</g>
<!-- Node6&#45;&gt;Node7 -->
<g id="edge6" class="edge"><title>Node6&#45;&gt;Node7</title>
<path fill="none" stroke="midnightblue" d="M1249.02,-118.539C1274.75,-131.152 1309.78,-147.169 1342,-158 1352.95,-161.681 1364.7,-165.002 1376.28,-167.93"/>
<polygon fill="midnightblue" stroke="midnightblue" points="1250.5,-115.366 1239.99,-114.061 1247.39,-121.638 1250.5,-115.366"/>
</g>
<!-- Node11 -->
<g id="node11" class="node"><title>Node11</title>
<g id="a_node11"><a xlink:href="../../d4/d3f/classgame_player_1_1main_classes_1_1managers_1_1_welcome_manager.html#a55598dd2973b0a9b979151dd60c9e436" target="_top" xlink:title="gamePlayer.mainClasses.managers.\lWelcomeManager.pollEngineForMultiPlayer\lReadiness">
<polygon fill="white" stroke="black" points="1342.5,-108.5 1342.5,-149.5 1561.5,-149.5 1561.5,-108.5 1342.5,-108.5"/>
<text text-anchor="start" x="1350.5" y="-137.5" font-family="Helvetica,sans-Serif" font-size="10.00">gamePlayer.mainClasses.managers.</text>
<text text-anchor="start" x="1350.5" y="-126.5" font-family="Helvetica,sans-Serif" font-size="10.00">WelcomeManager.pollEngineForMultiPlayer</text>
<text text-anchor="middle" x="1452" y="-115.5" font-family="Helvetica,sans-Serif" font-size="10.00">Readiness</text>
</a>
</g>
</g>
<!-- Node6&#45;&gt;Node11 -->
<g id="edge10" class="edge"><title>Node6&#45;&gt;Node11</title>
<path fill="none" stroke="midnightblue" d="M1315.48,-112.06C1324.36,-113.17 1333.36,-114.295 1342.28,-115.41"/>
<polygon fill="midnightblue" stroke="midnightblue" points="1315.87,-108.581 1305.51,-110.814 1315,-115.527 1315.87,-108.581"/>
</g>
<!-- Node14 -->
<g id="node14" class="node"><title>Node14</title>
<g id="a_node14"><a xlink:href="../../d3/dee/classgame_player_1_1main_classes_1_1welcome_screen_1_1_game_start_manager.html#a5d5001d1ee14ae57deef01f6e3ddde31" target="_top" xlink:title="gamePlayer.mainClasses.welcome\lScreen.GameStartManager.pollEngine\lForMultiPlayerReadiness">
<polygon fill="white" stroke="black" points="1352,-48.5 1352,-89.5 1552,-89.5 1552,-48.5 1352,-48.5"/>
<text text-anchor="start" x="1360" y="-77.5" font-family="Helvetica,sans-Serif" font-size="10.00">gamePlayer.mainClasses.welcome</text>
<text text-anchor="start" x="1360" y="-66.5" font-family="Helvetica,sans-Serif" font-size="10.00">Screen.GameStartManager.pollEngine</text>
<text text-anchor="middle" x="1452" y="-55.5" font-family="Helvetica,sans-Serif" font-size="10.00">ForMultiPlayerReadiness</text>
</a>
</g>
</g>
<!-- Node6&#45;&gt;Node14 -->
<g id="edge13" class="edge"><title>Node6&#45;&gt;Node14</title>
<path fill="none" stroke="midnightblue" d="M1315.57,-85.9291C1327.61,-84.4236 1339.87,-82.8916 1351.84,-81.3953"/>
<polygon fill="midnightblue" stroke="midnightblue" points="1315,-82.4729 1305.51,-87.1863 1315.87,-89.4188 1315,-82.4729"/>
</g>
<!-- Node17 -->
<g id="node17" class="node"><title>Node17</title>
<g id="a_node17"><a xlink:href="../../da/d69/classgame_player_1_1main_classes_1_1managers_1_1_gui_manager.html#a3f657f0e3ba1e493d2dd02b5df5e03f6" target="_top" xlink:title="gamePlayer.mainClasses.managers.\lGuiManager.replayGame">
<polygon fill="white" stroke="black" points="1356.5,-0 1356.5,-30 1547.5,-30 1547.5,-0 1356.5,-0"/>
<text text-anchor="start" x="1364.5" y="-18" font-family="Helvetica,sans-Serif" font-size="10.00">gamePlayer.mainClasses.managers.</text>
<text text-anchor="middle" x="1452" y="-7" font-family="Helvetica,sans-Serif" font-size="10.00">GuiManager.replayGame</text>
</a>
</g>
</g>
<!-- Node6&#45;&gt;Node17 -->
<g id="edge16" class="edge"><title>Node6&#45;&gt;Node17</title>
<path fill="none" stroke="midnightblue" d="M1248.2,-79.3826C1273.96,-66.4443 1309.36,-49.9294 1342,-39 1351.92,-35.6776 1362.51,-32.689 1373.04,-30.0412"/>
<polygon fill="midnightblue" stroke="midnightblue" points="1246.5,-76.3213 1239.17,-83.9706 1249.67,-82.5623 1246.5,-76.3213"/>
</g>
<!-- Node8 -->
<g id="node8" class="node"><title>Node8</title>
<g id="a_node8"><a xlink:href="../../d4/d3f/classgame_player_1_1main_classes_1_1managers_1_1_welcome_manager.html#a71a2a80cfe9d3a07d7becc506178acfd" target="_top" xlink:title="gamePlayer.mainClasses.managers.\lWelcomeManager.joinMultiPlayerGame">
<polygon fill="white" stroke="black" points="1601.5,-222 1601.5,-252 1802.5,-252 1802.5,-222 1601.5,-222"/>
<text text-anchor="start" x="1609.5" y="-240" font-family="Helvetica,sans-Serif" font-size="10.00">gamePlayer.mainClasses.managers.</text>
<text text-anchor="middle" x="1702" y="-229" font-family="Helvetica,sans-Serif" font-size="10.00">WelcomeManager.joinMultiPlayerGame</text>
</a>
</g>
</g>
<!-- Node7&#45;&gt;Node8 -->
<g id="edge7" class="edge"><title>Node7&#45;&gt;Node8</title>
<path fill="none" stroke="midnightblue" d="M1531.89,-200.177C1564.01,-207.172 1600.81,-215.184 1631.86,-221.945"/>
<polygon fill="midnightblue" stroke="midnightblue" points="1532.6,-196.75 1522.08,-198.042 1531.11,-203.59 1532.6,-196.75"/>
</g>
<!-- Node10 -->
<g id="node10" class="node"><title>Node10</title>
<g id="a_node10"><a xlink:href="../../d3/dee/classgame_player_1_1main_classes_1_1welcome_screen_1_1_game_start_manager.html#a7465850240e12e23aec544dbfd08f6a0" target="_top" xlink:title="gamePlayer.mainClasses.welcome\lScreen.GameStartManager.joinMulti\lPlayerGame">
<polygon fill="white" stroke="black" points="1607,-162.5 1607,-203.5 1797,-203.5 1797,-162.5 1607,-162.5"/>
<text text-anchor="start" x="1615" y="-191.5" font-family="Helvetica,sans-Serif" font-size="10.00">gamePlayer.mainClasses.welcome</text>
<text text-anchor="start" x="1615" y="-180.5" font-family="Helvetica,sans-Serif" font-size="10.00">Screen.GameStartManager.joinMulti</text>
<text text-anchor="middle" x="1702" y="-169.5" font-family="Helvetica,sans-Serif" font-size="10.00">PlayerGame</text>
</a>
</g>
</g>
<!-- Node7&#45;&gt;Node10 -->
<g id="edge9" class="edge"><title>Node7&#45;&gt;Node10</title>
<path fill="none" stroke="midnightblue" d="M1557.84,-183C1574.04,-183 1590.69,-183 1606.64,-183"/>
<polygon fill="midnightblue" stroke="midnightblue" points="1557.82,-179.5 1547.82,-183 1557.82,-186.5 1557.82,-179.5"/>
</g>
<!-- Node9 -->
<g id="node9" class="node"><title>Node9</title>
<g id="a_node9"><a xlink:href="../../d4/d3f/classgame_player_1_1main_classes_1_1managers_1_1_welcome_manager.html#aa605746e09c481b225463d37a82427e3" target="_top" xlink:title="gamePlayer.mainClasses.managers.\lWelcomeManager.startMultiPlayerOptions">
<polygon fill="white" stroke="black" points="1842.5,-222 1842.5,-252 2057.5,-252 2057.5,-222 1842.5,-222"/>
<text text-anchor="start" x="1850.5" y="-240" font-family="Helvetica,sans-Serif" font-size="10.00">gamePlayer.mainClasses.managers.</text>
<text text-anchor="middle" x="1950" y="-229" font-family="Helvetica,sans-Serif" font-size="10.00">WelcomeManager.startMultiPlayerOptions</text>
</a>
</g>
</g>
<!-- Node8&#45;&gt;Node9 -->
<g id="edge8" class="edge"><title>Node8&#45;&gt;Node9</title>
<path fill="none" stroke="midnightblue" d="M1812.86,-237C1822.66,-237 1832.56,-237 1842.33,-237"/>
<polygon fill="midnightblue" stroke="midnightblue" points="1812.7,-233.5 1802.7,-237 1812.7,-240.5 1812.7,-233.5"/>
</g>
<!-- Node12 -->
<g id="node12" class="node"><title>Node12</title>
<g id="a_node12"><a xlink:href="../../d4/d3f/classgame_player_1_1main_classes_1_1managers_1_1_welcome_manager.html#a0669db103a94675dce875042258da508" target="_top" xlink:title="gamePlayer.mainClasses.managers.\lWelcomeManager.startMultiPlayerGame">
<polygon fill="white" stroke="black" points="1598.5,-114 1598.5,-144 1805.5,-144 1805.5,-114 1598.5,-114"/>
<text text-anchor="start" x="1606.5" y="-132" font-family="Helvetica,sans-Serif" font-size="10.00">gamePlayer.mainClasses.managers.</text>
<text text-anchor="middle" x="1702" y="-121" font-family="Helvetica,sans-Serif" font-size="10.00">WelcomeManager.startMultiPlayerGame</text>
</a>
</g>
</g>
<!-- Node11&#45;&gt;Node12 -->
<g id="edge11" class="edge"><title>Node11&#45;&gt;Node12</title>
<path fill="none" stroke="midnightblue" d="M1572.02,-129C1580.78,-129 1589.56,-129 1598.21,-129"/>
<polygon fill="midnightblue" stroke="midnightblue" points="1571.78,-125.5 1561.78,-129 1571.78,-132.5 1571.78,-125.5"/>
</g>
<!-- Node13 -->
<g id="node13" class="node"><title>Node13</title>
<g id="a_node13"><a xlink:href="../../d4/d3f/classgame_player_1_1main_classes_1_1managers_1_1_welcome_manager.html#ae6495396aef63551116c0835c40574e1" target="_top" xlink:title="gamePlayer.mainClasses.managers.\lWelcomeManager.startGame">
<polygon fill="white" stroke="black" points="1854.5,-114 1854.5,-144 2045.5,-144 2045.5,-114 1854.5,-114"/>
<text text-anchor="start" x="1862.5" y="-132" font-family="Helvetica,sans-Serif" font-size="10.00">gamePlayer.mainClasses.managers.</text>
<text text-anchor="middle" x="1950" y="-121" font-family="Helvetica,sans-Serif" font-size="10.00">WelcomeManager.startGame</text>
</a>
</g>
</g>
<!-- Node12&#45;&gt;Node13 -->
<g id="edge12" class="edge"><title>Node12&#45;&gt;Node13</title>
<path fill="none" stroke="midnightblue" d="M1815.86,-129C1828.78,-129 1841.84,-129 1854.49,-129"/>
<polygon fill="midnightblue" stroke="midnightblue" points="1815.54,-125.5 1805.54,-129 1815.54,-132.5 1815.54,-125.5"/>
</g>
<!-- Node15 -->
<g id="node15" class="node"><title>Node15</title>
<g id="a_node15"><a xlink:href="../../d3/dee/classgame_player_1_1main_classes_1_1welcome_screen_1_1_game_start_manager.html#a994c29260d6cb90abf19dca2b3463b6a" target="_top" xlink:title="gamePlayer.mainClasses.welcome\lScreen.GameStartManager.startMulti\lPlayerGame">
<polygon fill="white" stroke="black" points="1604,-48.5 1604,-89.5 1800,-89.5 1800,-48.5 1604,-48.5"/>
<text text-anchor="start" x="1612" y="-77.5" font-family="Helvetica,sans-Serif" font-size="10.00">gamePlayer.mainClasses.welcome</text>
<text text-anchor="start" x="1612" y="-66.5" font-family="Helvetica,sans-Serif" font-size="10.00">Screen.GameStartManager.startMulti</text>
<text text-anchor="middle" x="1702" y="-55.5" font-family="Helvetica,sans-Serif" font-size="10.00">PlayerGame</text>
</a>
</g>
</g>
<!-- Node14&#45;&gt;Node15 -->
<g id="edge14" class="edge"><title>Node14&#45;&gt;Node15</title>
<path fill="none" stroke="midnightblue" d="M1562.11,-69C1575.95,-69 1590.05,-69 1603.69,-69"/>
<polygon fill="midnightblue" stroke="midnightblue" points="1562.09,-65.5001 1552.09,-69 1562.09,-72.5001 1562.09,-65.5001"/>
</g>
<!-- Node16 -->
<g id="node16" class="node"><title>Node16</title>
<g id="a_node16"><a xlink:href="../../d3/dee/classgame_player_1_1main_classes_1_1welcome_screen_1_1_game_start_manager.html#a4ac849399bf00c6df86f0db25ea95ed8" target="_top" xlink:title="gamePlayer.mainClasses.welcome\lScreen.GameStartManager.startGame">
<polygon fill="white" stroke="black" points="1848.5,-54 1848.5,-84 2051.5,-84 2051.5,-54 1848.5,-54"/>
<text text-anchor="start" x="1856.5" y="-72" font-family="Helvetica,sans-Serif" font-size="10.00">gamePlayer.mainClasses.welcome</text>
<text text-anchor="middle" x="1950" y="-61" font-family="Helvetica,sans-Serif" font-size="10.00">Screen.GameStartManager.startGame</text>
</a>
</g>
</g>
<!-- Node15&#45;&gt;Node16 -->
<g id="edge15" class="edge"><title>Node15&#45;&gt;Node16</title>
<path fill="none" stroke="midnightblue" d="M1810.32,-69C1822.99,-69 1835.88,-69 1848.44,-69"/>
<polygon fill="midnightblue" stroke="midnightblue" points="1810.23,-65.5001 1800.23,-69 1810.23,-72.5001 1810.23,-65.5001"/>
</g>
<!-- Node20&#45;&gt;Node4 -->
<g id="edge20" class="edge"><title>Node20&#45;&gt;Node4</title>
<path fill="none" stroke="midnightblue" d="M601.336,-48.1881C622.519,-52.7204 645.208,-57.5748 665.81,-61.9826"/>
<polygon fill="midnightblue" stroke="midnightblue" points="601.91,-44.7318 591.399,-46.0621 600.445,-51.5769 601.91,-44.7318"/>
</g>
</g>
</svg>
