<?xml version="1.0" encoding="UTF-8" standalone="no"?>
<!DOCTYPE svg PUBLIC "-//W3C//DTD SVG 1.1//EN"
 "http://www.w3.org/Graphics/SVG/1.1/DTD/svg11.dtd">
<!-- Generated by graphviz version 2.36.0 (20140111.2315)
 -->
<!-- Title: gameAuthoring.scenes.actorBuildingScenes.behaviorBuilders.IBehaviorKeyValuePair.getTypeOfBehavior Pages: 1 -->
<svg width="1172pt" height="109pt"
 viewBox="0.00 0.00 1172.00 109.00" xmlns="http://www.w3.org/2000/svg" xmlns:xlink="http://www.w3.org/1999/xlink">
<g id="graph0" class="graph" transform="scale(1 1) rotate(0) translate(4 105)">
<title>gameAuthoring.scenes.actorBuildingScenes.behaviorBuilders.IBehaviorKeyValuePair.getTypeOfBehavior</title>
<polygon fill="white" stroke="none" points="-4,4 -4,-105 1168,-105 1168,4 -4,4"/>
<!-- Node1 -->
<g id="node1" class="node"><title>Node1</title>
<polygon fill="#bfbfbf" stroke="black" points="0,-30.5 0,-71.5 212,-71.5 212,-30.5 0,-30.5"/>
<text text-anchor="start" x="8" y="-59.5" font-family="Helvetica,sans-Serif" font-size="10.00">gameAuthoring.scenes.actor</text>
<text text-anchor="start" x="8" y="-48.5" font-family="Helvetica,sans-Serif" font-size="10.00">BuildingScenes.behaviorBuilders.</text>
<text text-anchor="middle" x="106" y="-37.5" font-family="Helvetica,sans-Serif" font-size="10.00">IBehaviorKeyValuePair.getTypeOfBehavior</text>
</g>
<!-- Node2 -->
<g id="node2" class="node"><title>Node2</title>
<g id="a_node2"><a xlink:href="../../d5/d69/classgame_authoring_1_1scenes_1_1actor_building_scenes_1_1behavior_builders_1_1_behavior_map_builder.html#a6102d8fca52e2f705aa47aa6b8d6a574" target="_top" xlink:title="gameAuthoring.scenes.actor\lBuildingScenes.behaviorBuilders.\lBehaviorMapBuilder.buildMap">
<polygon fill="white" stroke="black" points="248.5,-30.5 248.5,-71.5 423.5,-71.5 423.5,-30.5 248.5,-30.5"/>
<text text-anchor="start" x="256.5" y="-59.5" font-family="Helvetica,sans-Serif" font-size="10.00">gameAuthoring.scenes.actor</text>
<text text-anchor="start" x="256.5" y="-48.5" font-family="Helvetica,sans-Serif" font-size="10.00">BuildingScenes.behaviorBuilders.</text>
<text text-anchor="middle" x="336" y="-37.5" font-family="Helvetica,sans-Serif" font-size="10.00">BehaviorMapBuilder.buildMap</text>
</a>
</g>
</g>
<!-- Node1&#45;&gt;Node2 -->
<g id="edge1" class="edge"><title>Node1&#45;&gt;Node2</title>
<path fill="none" stroke="midnightblue" d="M222.483,-51C231.142,-51 239.791,-51 248.228,-51"/>
<polygon fill="midnightblue" stroke="midnightblue" points="222.324,-47.5001 212.324,-51 222.324,-54.5001 222.324,-47.5001"/>
</g>
<!-- Node3 -->
<g id="node3" class="node"><title>Node3</title>
<g id="a_node3"><a xlink:href="../../d5/de6/classgame_authoring_1_1scenes_1_1actor_building_scenes_1_1_actor_building_scene.html#a7956b5ed3dcd86f2cca525066bbd4361" target="_top" xlink:title="gameAuthoring.scenes.actor\lBuildingScenes.ActorBuildingScene.attempt\lToSaveActor">
<polygon fill="white" stroke="black" points="460.5,-60.5 460.5,-101.5 687.5,-101.5 687.5,-60.5 460.5,-60.5"/>
<text text-anchor="start" x="468.5" y="-89.5" font-family="Helvetica,sans-Serif" font-size="10.00">gameAuthoring.scenes.actor</text>
<text text-anchor="start" x="468.5" y="-78.5" font-family="Helvetica,sans-Serif" font-size="10.00">BuildingScenes.ActorBuildingScene.attempt</text>
<text text-anchor="middle" x="574" y="-67.5" font-family="Helvetica,sans-Serif" font-size="10.00">ToSaveActor</text>
</a>
</g>
</g>
<!-- Node2&#45;&gt;Node3 -->
<g id="edge2" class="edge"><title>Node2&#45;&gt;Node3</title>
<path fill="none" stroke="midnightblue" d="M433.737,-63.297C442.499,-64.4108 451.422,-65.5452 460.305,-66.6744"/>
<polygon fill="midnightblue" stroke="midnightblue" points="433.899,-59.7896 423.538,-62.0005 433.016,-66.7337 433.899,-59.7896"/>
</g>
<!-- Node6 -->
<g id="node6" class="node"><title>Node6</title>
<g id="a_node6"><a xlink:href="../../de/d35/classgame_authoring_1_1scenes_1_1actor_building_scenes_1_1_projectile_pane.html#a07c23c47c229ef795a9a3da59dd272de" target="_top" xlink:title="gameAuthoring.scenes.actor\lBuildingScenes.ProjectilePane.make\lProjectileInfo">
<polygon fill="white" stroke="black" points="479.5,-0.5 479.5,-41.5 668.5,-41.5 668.5,-0.5 479.5,-0.5"/>
<text text-anchor="start" x="487.5" y="-29.5" font-family="Helvetica,sans-Serif" font-size="10.00">gameAuthoring.scenes.actor</text>
<text text-anchor="start" x="487.5" y="-18.5" font-family="Helvetica,sans-Serif" font-size="10.00">BuildingScenes.ProjectilePane.make</text>
<text text-anchor="middle" x="574" y="-7.5" font-family="Helvetica,sans-Serif" font-size="10.00">ProjectileInfo</text>
</a>
</g>
</g>
<!-- Node2&#45;&gt;Node6 -->
<g id="edge5" class="edge"><title>Node2&#45;&gt;Node6</title>
<path fill="none" stroke="midnightblue" d="M433.85,-38.6886C448.872,-36.7789 464.368,-34.8092 479.319,-32.9086"/>
<polygon fill="midnightblue" stroke="midnightblue" points="433.016,-35.2663 423.538,-39.9995 433.899,-42.2104 433.016,-35.2663"/>
</g>
<!-- Node4 -->
<g id="node4" class="node"><title>Node4</title>
<g id="a_node4"><a xlink:href="../../d5/de6/classgame_authoring_1_1scenes_1_1actor_building_scenes_1_1_actor_building_scene.html#a4b14803e395701d52cf61ed9a1ef0229" target="_top" xlink:title="gameAuthoring.scenes.actor\lBuildingScenes.ActorBuildingScene.setup\lFileMenu">
<polygon fill="white" stroke="black" points="724.5,-60.5 724.5,-101.5 939.5,-101.5 939.5,-60.5 724.5,-60.5"/>
<text text-anchor="start" x="732.5" y="-89.5" font-family="Helvetica,sans-Serif" font-size="10.00">gameAuthoring.scenes.actor</text>
<text text-anchor="start" x="732.5" y="-78.5" font-family="Helvetica,sans-Serif" font-size="10.00">BuildingScenes.ActorBuildingScene.setup</text>
<text text-anchor="middle" x="832" y="-67.5" font-family="Helvetica,sans-Serif" font-size="10.00">FileMenu</text>
</a>
</g>
</g>
<!-- Node3&#45;&gt;Node4 -->
<g id="edge3" class="edge"><title>Node3&#45;&gt;Node4</title>
<path fill="none" stroke="midnightblue" d="M697.705,-81C706.624,-81 715.578,-81 724.393,-81"/>
<polygon fill="midnightblue" stroke="midnightblue" points="697.658,-77.5001 687.658,-81 697.658,-84.5001 697.658,-77.5001"/>
</g>
<!-- Node5 -->
<g id="node5" class="node"><title>Node5</title>
<g id="a_node5"><a xlink:href="../../d5/de6/classgame_authoring_1_1scenes_1_1actor_building_scenes_1_1_actor_building_scene.html#af797c48013cb5e0b128c5e184056a90d" target="_top" xlink:title="gameAuthoring.scenes.actor\lBuildingScenes.ActorBuildingScene.\lActorBuildingScene">
<polygon fill="white" stroke="black" points="976,-60.5 976,-101.5 1164,-101.5 1164,-60.5 976,-60.5"/>
<text text-anchor="start" x="984" y="-89.5" font-family="Helvetica,sans-Serif" font-size="10.00">gameAuthoring.scenes.actor</text>
<text text-anchor="start" x="984" y="-78.5" font-family="Helvetica,sans-Serif" font-size="10.00">BuildingScenes.ActorBuildingScene.</text>
<text text-anchor="middle" x="1070" y="-67.5" font-family="Helvetica,sans-Serif" font-size="10.00">ActorBuildingScene</text>
</a>
</g>
</g>
<!-- Node4&#45;&gt;Node5 -->
<g id="edge4" class="edge"><title>Node4&#45;&gt;Node5</title>
<path fill="none" stroke="midnightblue" d="M949.838,-81C958.566,-81 967.302,-81 975.856,-81"/>
<polygon fill="midnightblue" stroke="midnightblue" points="949.608,-77.5001 939.608,-81 949.608,-84.5001 949.608,-77.5001"/>
</g>
<!-- Node7 -->
<g id="node7" class="node"><title>Node7</title>
<g id="a_node7"><a xlink:href="../../d4/d66/classgame_authoring_1_1scenes_1_1actor_building_scenes_1_1_tower_building_scene.html#a0eb2856ee189de1452b66ae4fe2d81ae" target="_top" xlink:title="gameAuthoring.scenes.actor\lBuildingScenes.TowerBuildingScene.make\lNewActor">
<polygon fill="white" stroke="black" points="724,-0.5 724,-41.5 940,-41.5 940,-0.5 724,-0.5"/>
<text text-anchor="start" x="732" y="-29.5" font-family="Helvetica,sans-Serif" font-size="10.00">gameAuthoring.scenes.actor</text>
<text text-anchor="start" x="732" y="-18.5" font-family="Helvetica,sans-Serif" font-size="10.00">BuildingScenes.TowerBuildingScene.make</text>
<text text-anchor="middle" x="832" y="-7.5" font-family="Helvetica,sans-Serif" font-size="10.00">NewActor</text>
</a>
</g>
</g>
<!-- Node6&#45;&gt;Node7 -->
<g id="edge6" class="edge"><title>Node6&#45;&gt;Node7</title>
<path fill="none" stroke="midnightblue" d="M678.725,-21C693.602,-21 708.933,-21 723.874,-21"/>
<polygon fill="midnightblue" stroke="midnightblue" points="678.509,-17.5001 668.509,-21 678.509,-24.5001 678.509,-17.5001"/>
</g>
</g>
</svg>
