<?xml version="1.0" encoding="UTF-8" standalone="no"?>
<!DOCTYPE svg PUBLIC "-//W3C//DTD SVG 1.1//EN"
 "http://www.w3.org/Graphics/SVG/1.1/DTD/svg11.dtd">
<!-- Generated by graphviz version 2.36.0 (20140111.2315)
 -->
<!-- Title: gameEngine.actors.BaseActor.getBehavior Pages: 1 -->
<svg width="440pt" height="283pt"
 viewBox="0.00 0.00 440.00 283.00" xmlns="http://www.w3.org/2000/svg" xmlns:xlink="http://www.w3.org/1999/xlink">
<g id="graph0" class="graph" transform="scale(1 1) rotate(0) translate(4 279)">
<title>gameEngine.actors.BaseActor.getBehavior</title>
<polygon fill="white" stroke="none" points="-4,4 -4,-279 436,-279 436,4 -4,4"/>
<!-- Node1 -->
<g id="node1" class="node"><title>Node1</title>
<polygon fill="#bfbfbf" stroke="black" points="0,-122 0,-152 180,-152 180,-122 0,-122"/>
<text text-anchor="start" x="8" y="-140" font-family="Helvetica,sans-Serif" font-size="10.00">gameEngine.actors.BaseActor.get</text>
<text text-anchor="middle" x="90" y="-129" font-family="Helvetica,sans-Serif" font-size="10.00">Behavior</text>
</g>
<!-- Node2 -->
<g id="node2" class="node"><title>Node2</title>
<g id="a_node2"><a xlink:href="../../d6/db4/classgame_engine_1_1actors_1_1behaviors_1_1_farthest_range_attack.html#aae9aab5791d211ba4bbb115f0b058857" target="_top" xlink:title="gameEngine.actors.behaviors.\lFarthestRangeAttack.defineComparison">
<polygon fill="white" stroke="black" points="221,-245 221,-275 427,-275 427,-245 221,-245"/>
<text text-anchor="start" x="229" y="-263" font-family="Helvetica,sans-Serif" font-size="10.00">gameEngine.actors.behaviors.</text>
<text text-anchor="middle" x="324" y="-252" font-family="Helvetica,sans-Serif" font-size="10.00">FarthestRangeAttack.defineComparison</text>
</a>
</g>
</g>
<!-- Node1&#45;&gt;Node2 -->
<g id="edge1" class="edge"><title>Node1&#45;&gt;Node2</title>
<path fill="none" stroke="midnightblue" d="M113.014,-159.239C136.5,-181.687 175.791,-215.714 216,-235 224.084,-238.877 232.807,-242.174 241.66,-244.972"/>
<polygon fill="midnightblue" stroke="midnightblue" points="115.287,-156.567 105.676,-152.108 110.408,-161.587 115.287,-156.567"/>
</g>
<!-- Node3 -->
<g id="node3" class="node"><title>Node3</title>
<g id="a_node3"><a xlink:href="../../da/d49/classgame_engine_1_1actors_1_1behaviors_1_1_strongest_range_attack.html#a482948cfa4dccdb95b5c9d8e6afc51c8" target="_top" xlink:title="gameEngine.actors.behaviors.\lStrongestRangeAttack.defineComparison">
<polygon fill="white" stroke="black" points="216.5,-196 216.5,-226 431.5,-226 431.5,-196 216.5,-196"/>
<text text-anchor="start" x="224.5" y="-214" font-family="Helvetica,sans-Serif" font-size="10.00">gameEngine.actors.behaviors.</text>
<text text-anchor="middle" x="324" y="-203" font-family="Helvetica,sans-Serif" font-size="10.00">StrongestRangeAttack.defineComparison</text>
</a>
</g>
</g>
<!-- Node1&#45;&gt;Node3 -->
<g id="edge2" class="edge"><title>Node1&#45;&gt;Node3</title>
<path fill="none" stroke="midnightblue" d="M134.965,-156.028C158.675,-165.831 188.613,-177.481 216,-186 227.567,-189.598 239.979,-192.949 252.105,-195.955"/>
<polygon fill="midnightblue" stroke="midnightblue" points="136.119,-152.718 125.543,-152.095 133.423,-159.177 136.119,-152.718"/>
</g>
<!-- Node4 -->
<g id="node4" class="node"><title>Node4</title>
<g id="a_node4"><a xlink:href="../../dc/d58/classgame_engine_1_1actors_1_1behaviors_1_1_do_t_on_hit.html#ad11d0311ebed715d9afd96a7b6c47b76" target="_top" xlink:title="gameEngine.actors.behaviors.\lDoTOnHit.during">
<polygon fill="white" stroke="black" points="243,-147 243,-177 405,-177 405,-147 243,-147"/>
<text text-anchor="start" x="251" y="-165" font-family="Helvetica,sans-Serif" font-size="10.00">gameEngine.actors.behaviors.</text>
<text text-anchor="middle" x="324" y="-154" font-family="Helvetica,sans-Serif" font-size="10.00">DoTOnHit.during</text>
</a>
</g>
</g>
<!-- Node1&#45;&gt;Node4 -->
<g id="edge3" class="edge"><title>Node1&#45;&gt;Node4</title>
<path fill="none" stroke="midnightblue" d="M190.308,-147.701C207.881,-149.595 225.977,-151.545 242.935,-153.372"/>
<polygon fill="midnightblue" stroke="midnightblue" points="190.351,-144.186 180.034,-146.594 189.601,-151.145 190.351,-144.186"/>
</g>
<!-- Node5 -->
<g id="node5" class="node"><title>Node5</title>
<g id="a_node5"><a xlink:href="../../d6/dc5/classgame_engine_1_1actors_1_1behaviors_1_1_slow_effect.html#a4c539e92c6e4a825c19dc4a73ab04996" target="_top" xlink:title="gameEngine.actors.behaviors.\lSlowEffect.end">
<polygon fill="white" stroke="black" points="243,-98 243,-128 405,-128 405,-98 243,-98"/>
<text text-anchor="start" x="251" y="-116" font-family="Helvetica,sans-Serif" font-size="10.00">gameEngine.actors.behaviors.</text>
<text text-anchor="middle" x="324" y="-105" font-family="Helvetica,sans-Serif" font-size="10.00">SlowEffect.end</text>
</a>
</g>
</g>
<!-- Node1&#45;&gt;Node5 -->
<g id="edge4" class="edge"><title>Node1&#45;&gt;Node5</title>
<path fill="none" stroke="midnightblue" d="M190.308,-126.727C207.881,-124.909 225.977,-123.037 242.935,-121.283"/>
<polygon fill="midnightblue" stroke="midnightblue" points="189.62,-123.279 180.034,-127.79 190.341,-130.242 189.62,-123.279"/>
</g>
<!-- Node6 -->
<g id="node6" class="node"><title>Node6</title>
<g id="a_node6"><a xlink:href="../../d5/d02/classgame_engine_1_1actors_1_1_base_actor.html#aa3f11f196c3183d56dfd62303c1cc56d" target="_top" xlink:title="gameEngine.actors.BaseActor.get\lRangeProperty">
<polygon fill="white" stroke="black" points="234,-49 234,-79 414,-79 414,-49 234,-49"/>
<text text-anchor="start" x="242" y="-67" font-family="Helvetica,sans-Serif" font-size="10.00">gameEngine.actors.BaseActor.get</text>
<text text-anchor="middle" x="324" y="-56" font-family="Helvetica,sans-Serif" font-size="10.00">RangeProperty</text>
</a>
</g>
</g>
<!-- Node1&#45;&gt;Node6 -->
<g id="edge5" class="edge"><title>Node1&#45;&gt;Node6</title>
<path fill="none" stroke="midnightblue" d="M135.766,-118.096C159.362,-108.571 188.95,-97.3106 216,-89 227.671,-85.4143 240.194,-82.059 252.413,-79.043"/>
<polygon fill="midnightblue" stroke="midnightblue" points="134.316,-114.908 126.376,-121.922 136.958,-121.39 134.316,-114.908"/>
</g>
<!-- Node7 -->
<g id="node7" class="node"><title>Node7</title>
<g id="a_node7"><a xlink:href="../../d6/dc5/classgame_engine_1_1actors_1_1behaviors_1_1_slow_effect.html#ab997c714ae22ef5b5851f6405b3259e9" target="_top" xlink:title="gameEngine.actors.behaviors.\lSlowEffect.start">
<polygon fill="white" stroke="black" points="243,-0 243,-30 405,-30 405,-0 243,-0"/>
<text text-anchor="start" x="251" y="-18" font-family="Helvetica,sans-Serif" font-size="10.00">gameEngine.actors.behaviors.</text>
<text text-anchor="middle" x="324" y="-7" font-family="Helvetica,sans-Serif" font-size="10.00">SlowEffect.start</text>
</a>
</g>
</g>
<!-- Node1&#45;&gt;Node7 -->
<g id="edge6" class="edge"><title>Node1&#45;&gt;Node7</title>
<path fill="none" stroke="midnightblue" d="M113.451,-114.626C137.017,-92.4121 176.121,-59.0051 216,-40 224.438,-35.9785 233.566,-32.5806 242.811,-29.7149"/>
<polygon fill="midnightblue" stroke="midnightblue" points="110.875,-112.248 106.076,-121.694 115.718,-117.302 110.875,-112.248"/>
</g>
</g>
</svg>
