<?xml version="1.0" encoding="UTF-8" standalone="no"?>
<!DOCTYPE svg PUBLIC "-//W3C//DTD SVG 1.1//EN"
 "http://www.w3.org/Graphics/SVG/1.1/DTD/svg11.dtd">
<!-- Generated by graphviz version 2.36.0 (20140111.2315)
 -->
<!-- Title: gameEngine.actors.BaseActor.killed Pages: 1 -->
<svg width="412pt" height="185pt"
 viewBox="0.00 0.00 412.00 185.00" xmlns="http://www.w3.org/2000/svg" xmlns:xlink="http://www.w3.org/1999/xlink">
<g id="graph0" class="graph" transform="scale(1 1) rotate(0) translate(4 181)">
<title>gameEngine.actors.BaseActor.killed</title>
<polygon fill="white" stroke="none" points="-4,4 -4,-181 408,-181 408,4 -4,4"/>
<!-- Node1 -->
<g id="node1" class="node"><title>Node1</title>
<polygon fill="#bfbfbf" stroke="black" points="0,-78.5 0,-97.5 188,-97.5 188,-78.5 0,-78.5"/>
<text text-anchor="middle" x="94" y="-85.5" font-family="Helvetica,sans-Serif" font-size="10.00">gameEngine.actors.BaseActor.killed</text>
</g>
<!-- Node2 -->
<g id="node2" class="node"><title>Node2</title>
<g id="a_node2"><a xlink:href="../../dc/d58/classgame_engine_1_1actors_1_1behaviors_1_1_do_t_on_hit.html#ad11d0311ebed715d9afd96a7b6c47b76" target="_top" xlink:title="gameEngine.actors.behaviors.\lDoTOnHit.during">
<polygon fill="white" stroke="black" points="233,-147 233,-177 395,-177 395,-147 233,-147"/>
<text text-anchor="start" x="241" y="-165" font-family="Helvetica,sans-Serif" font-size="10.00">gameEngine.actors.behaviors.</text>
<text text-anchor="middle" x="314" y="-154" font-family="Helvetica,sans-Serif" font-size="10.00">DoTOnHit.during</text>
</a>
</g>
</g>
<!-- Node1&#45;&gt;Node2 -->
<g id="edge1" class="edge"><title>Node1&#45;&gt;Node2</title>
<path fill="none" stroke="midnightblue" d="M127.893,-101.424C153.79,-111.766 190.913,-126.093 224,-137 234.365,-140.417 245.503,-143.782 256.272,-146.883"/>
<polygon fill="midnightblue" stroke="midnightblue" points="129.133,-98.1503 118.549,-97.6707 126.524,-104.646 129.133,-98.1503"/>
</g>
<!-- Node3 -->
<g id="node3" class="node"><title>Node3</title>
<g id="a_node3"><a xlink:href="../../d6/d0d/classgame_engine_1_1actors_1_1behaviors_1_1_enemy_homing_movement.html#ae0dfa468b7ebfd766b31406b8d1f74d6" target="_top" xlink:title="gameEngine.actors.behaviors.\lEnemyHomingMovement.execute">
<polygon fill="white" stroke="black" points="224.5,-98 224.5,-128 403.5,-128 403.5,-98 224.5,-98"/>
<text text-anchor="start" x="232.5" y="-116" font-family="Helvetica,sans-Serif" font-size="10.00">gameEngine.actors.behaviors.</text>
<text text-anchor="middle" x="314" y="-105" font-family="Helvetica,sans-Serif" font-size="10.00">EnemyHomingMovement.execute</text>
</a>
</g>
</g>
<!-- Node1&#45;&gt;Node3 -->
<g id="edge2" class="edge"><title>Node1&#45;&gt;Node3</title>
<path fill="none" stroke="midnightblue" d="M188.077,-98.6739C200.117,-100.055 212.422,-101.466 224.388,-102.838"/>
<polygon fill="midnightblue" stroke="midnightblue" points="188.372,-95.1849 178.038,-97.5227 187.574,-102.139 188.372,-95.1849"/>
</g>
<!-- Node4 -->
<g id="node4" class="node"><title>Node4</title>
<g id="a_node4"><a xlink:href="../../df/d0a/classgame_engine_1_1actors_1_1behaviors_1_1_simple_defense.html#aca848918f462be4330b081a34f5faf7e" target="_top" xlink:title="gameEngine.actors.behaviors.\lSimpleDefense.onDeath">
<polygon fill="white" stroke="black" points="233,-49 233,-79 395,-79 395,-49 233,-49"/>
<text text-anchor="start" x="241" y="-67" font-family="Helvetica,sans-Serif" font-size="10.00">gameEngine.actors.behaviors.</text>
<text text-anchor="middle" x="314" y="-56" font-family="Helvetica,sans-Serif" font-size="10.00">SimpleDefense.onDeath</text>
</a>
</g>
</g>
<!-- Node1&#45;&gt;Node4 -->
<g id="edge3" class="edge"><title>Node1&#45;&gt;Node4</title>
<path fill="none" stroke="midnightblue" d="M191.437,-77.3831C205.204,-75.8674 219.243,-74.3219 232.658,-72.845"/>
<polygon fill="midnightblue" stroke="midnightblue" points="191.029,-73.9067 181.472,-78.4801 191.795,-80.8647 191.029,-73.9067"/>
</g>
<!-- Node5 -->
<g id="node5" class="node"><title>Node5</title>
<g id="a_node5"><a xlink:href="../../d2/d9a/classgame_engine_1_1actors_1_1behaviors_1_1_piercable_defense.html#a7bf9e4fa8ed8b7b701b14d72d4528a23" target="_top" xlink:title="gameEngine.actors.behaviors.\lPiercableDefense.onDeath">
<polygon fill="white" stroke="black" points="233,-0 233,-30 395,-30 395,-0 233,-0"/>
<text text-anchor="start" x="241" y="-18" font-family="Helvetica,sans-Serif" font-size="10.00">gameEngine.actors.behaviors.</text>
<text text-anchor="middle" x="314" y="-7" font-family="Helvetica,sans-Serif" font-size="10.00">PiercableDefense.onDeath</text>
</a>
</g>
</g>
<!-- Node1&#45;&gt;Node5 -->
<g id="edge4" class="edge"><title>Node1&#45;&gt;Node5</title>
<path fill="none" stroke="midnightblue" d="M128.395,-74.7111C154.283,-64.6196 191.162,-50.7015 224,-40 234.529,-36.5687 245.848,-33.171 256.766,-30.0379"/>
<polygon fill="midnightblue" stroke="midnightblue" points="127.075,-71.4689 119.042,-78.3766 129.63,-77.9862 127.075,-71.4689"/>
</g>
</g>
</svg>
