<?xml version="1.0" encoding="UTF-8" standalone="no"?>
<!DOCTYPE svg PUBLIC "-//W3C//DTD SVG 1.1//EN"
 "http://www.w3.org/Graphics/SVG/1.1/DTD/svg11.dtd">
<!-- Generated by graphviz version 2.36.0 (20140111.2315)
 -->
<!-- Title: gameEngine.actors.BaseActor.setRange Pages: 1 -->
<!--zoomable 332 -->
<svg id="main" version="1.1" xmlns="http://www.w3.org/2000/svg" xmlns:xlink="http://www.w3.org/1999/xlink" xml:space="preserve" onload="init(evt)">
<style type="text/css"><![CDATA[
.edge:hover path { stroke: red; }
.edge:hover polygon { stroke: red; fill: red; }
]]></style>
<script type="text/javascript"><![CDATA[
var edges = document.getElementsByTagName('g');
if (edges && edges.length) {
  for (var i=0;i<edges.length;i++) {
    if (edges[i].id.substr(0,4)=='edge') {
      edges[i].setAttribute('class','edge');
    }
  }
}
]]></script>
        <defs>
                <circle id="rim" cx="0" cy="0" r="7"/>
                <circle id="rim2" cx="0" cy="0" r="3.5"/>
                <g id="zoomPlus">
                        <use xlink:href="#rim" fill="#404040">
                                <set attributeName="fill" to="#808080" begin="zoomplus.mouseover" end="zoomplus.mouseout"/>
                        </use>
                        <path d="M-4,0h8M0,-4v8" fill="none" stroke="white" stroke-width="1.5" pointer-events="none"/>
                </g>
                <g id="zoomMin">
                        <use xlink:href="#rim" fill="#404040">
                                <set attributeName="fill" to="#808080" begin="zoomminus.mouseover" end="zoomminus.mouseout"/>
                        </use>
                        <path d="M-4,0h8" fill="none" stroke="white" stroke-width="1.5" pointer-events="none"/>
                </g>
                <g id="dirArrow">
                        <path fill="none" stroke="white" stroke-width="1.5" d="M0,-3.0v7 M-2.5,-0.5L0,-3.0L2.5,-0.5"/>
                </g>
               <g id="resetDef">
                       <use xlink:href="#rim2" fill="#404040">
                               <set attributeName="fill" to="#808080" begin="reset.mouseover" end="reset.mouseout"/>
                       </use>
               </g>
        </defs>

<script type="text/javascript">
var viewWidth = 620;
var viewHeight = 332;
var sectionId = 'dynsection-30';
</script>
<script xlink:href="../../svgpan.js"/>
<svg id="graph" class="graph">
<g id="viewport">
<title>gameEngine.actors.BaseActor.setRange</title>
<polygon fill="white" stroke="none" points="-4,4 -4,-328 616,-328 616,4 -4,4"/>
<!-- Node1 -->
<g id="node1" class="node"><title>Node1</title>
<polygon fill="#bfbfbf" stroke="black" points="0.5,-49 0.5,-79 179.5,-79 179.5,-49 0.5,-49"/>
<text text-anchor="start" x="8.5" y="-67" font-family="Helvetica,sans-Serif" font-size="10.00">gameEngine.actors.BaseActor.set</text>
<text text-anchor="middle" x="90" y="-56" font-family="Helvetica,sans-Serif" font-size="10.00">Range</text>
</g>
<!-- Node2 -->
<g id="node2" class="node"><title>Node2</title>
<g id="a_node2"><a xlink:href="../../d5/d02/classgame_engine_1_1actors_1_1_base_actor.html#aa69731335ede718aa18dc55d533868df" target="_top" xlink:title="gameEngine.actors.BaseActor.get\lEnemiesInRange">
<polygon fill="white" stroke="black" points="216,-171 216,-201 396,-201 396,-171 216,-171"/>
<text text-anchor="start" x="224" y="-189" font-family="Helvetica,sans-Serif" font-size="10.00">gameEngine.actors.BaseActor.get</text>
<text text-anchor="middle" x="306" y="-178" font-family="Helvetica,sans-Serif" font-size="10.00">EnemiesInRange</text>
</a>
</g>
</g>
<!-- Node1&#45;&gt;Node2 -->
<g id="edge1" class="edge"><title>Node1&#45;&gt;Node2</title>
<path fill="none" stroke="midnightblue" d="M126.359,-84.1579C169.193,-108.578 240.363,-149.151 278.666,-170.987"/>
<polygon fill="midnightblue" stroke="midnightblue" points="128.091,-81.1168 117.671,-79.2047 124.625,-87.198 128.091,-81.1168"/>
</g>
<!-- Node8 -->
<g id="node8" class="node"><title>Node8</title>
<g id="a_node8"><a xlink:href="../../d5/d02/classgame_engine_1_1actors_1_1_base_actor.html#a16b9d7d56d535f90a8d9b89134f9b561" target="_top" xlink:title="gameEngine.actors.BaseActor.get\lProjectilesInRange">
<polygon fill="white" stroke="black" points="216,-49 216,-79 396,-79 396,-49 216,-49"/>
<text text-anchor="start" x="224" y="-67" font-family="Helvetica,sans-Serif" font-size="10.00">gameEngine.actors.BaseActor.get</text>
<text text-anchor="middle" x="306" y="-56" font-family="Helvetica,sans-Serif" font-size="10.00">ProjectilesInRange</text>
</a>
</g>
</g>
<!-- Node1&#45;&gt;Node8 -->
<g id="edge7" class="edge"><title>Node1&#45;&gt;Node8</title>
<path fill="none" stroke="midnightblue" d="M189.738,-64C198.426,-64 207.187,-64 215.79,-64"/>
<polygon fill="midnightblue" stroke="midnightblue" points="189.587,-60.5001 179.587,-64 189.587,-67.5001 189.587,-60.5001"/>
</g>
<!-- Node10 -->
<g id="node10" class="node"><title>Node10</title>
<g id="a_node10"><a xlink:href="../../d5/d02/classgame_engine_1_1actors_1_1_base_actor.html#a9d71182c076cf5c6b84a16b18becca0a" target="_top" xlink:title="gameEngine.actors.BaseActor.get\lTowersInRange">
<polygon fill="white" stroke="black" points="216,-0 216,-30 396,-30 396,-0 216,-0"/>
<text text-anchor="start" x="224" y="-18" font-family="Helvetica,sans-Serif" font-size="10.00">gameEngine.actors.BaseActor.get</text>
<text text-anchor="middle" x="306" y="-7" font-family="Helvetica,sans-Serif" font-size="10.00">TowersInRange</text>
</a>
</g>
</g>
<!-- Node1&#45;&gt;Node10 -->
<g id="edge9" class="edge"><title>Node1&#45;&gt;Node10</title>
<path fill="none" stroke="midnightblue" d="M166.69,-46.6691C190.45,-41.2288 216.467,-35.2715 239.463,-30.0062"/>
<polygon fill="midnightblue" stroke="midnightblue" points="165.628,-43.3216 156.661,-48.9654 167.19,-50.1451 165.628,-43.3216"/>
</g>
<!-- Node3 -->
<g id="node3" class="node"><title>Node3</title>
<g id="a_node3"><a xlink:href="../../d9/df0/classgame_engine_1_1actors_1_1behaviors_1_1_earth_quake_effect.html#a6937fd3e557485b65aa5001b1b66b720" target="_top" xlink:title="gameEngine.actors.behaviors.\lEarthQuakeEffect.during">
<polygon fill="white" stroke="black" points="441,-294 441,-324 603,-324 603,-294 441,-294"/>
<text text-anchor="start" x="449" y="-312" font-family="Helvetica,sans-Serif" font-size="10.00">gameEngine.actors.behaviors.</text>
<text text-anchor="middle" x="522" y="-301" font-family="Helvetica,sans-Serif" font-size="10.00">EarthQuakeEffect.during</text>
</a>
</g>
</g>
<!-- Node2&#45;&gt;Node3 -->
<g id="edge2" class="edge"><title>Node2&#45;&gt;Node3</title>
<path fill="none" stroke="midnightblue" d="M329.587,-208.248C353.26,-230.409 392.449,-263.94 432,-284 439.443,-287.775 447.535,-291.048 455.704,-293.867"/>
<polygon fill="midnightblue" stroke="midnightblue" points="331.835,-205.557 322.175,-201.205 327.013,-210.631 331.835,-205.557"/>
</g>
<!-- Node4 -->
<g id="node4" class="node"><title>Node4</title>
<g id="a_node4"><a xlink:href="../../d6/d0d/classgame_engine_1_1actors_1_1behaviors_1_1_enemy_homing_movement.html#ae0dfa468b7ebfd766b31406b8d1f74d6" target="_top" xlink:title="gameEngine.actors.behaviors.\lEnemyHomingMovement.execute">
<polygon fill="white" stroke="black" points="432.5,-245 432.5,-275 611.5,-275 611.5,-245 432.5,-245"/>
<text text-anchor="start" x="440.5" y="-263" font-family="Helvetica,sans-Serif" font-size="10.00">gameEngine.actors.behaviors.</text>
<text text-anchor="middle" x="522" y="-252" font-family="Helvetica,sans-Serif" font-size="10.00">EnemyHomingMovement.execute</text>
</a>
</g>
</g>
<!-- Node2&#45;&gt;Node4 -->
<g id="edge3" class="edge"><title>Node2&#45;&gt;Node4</title>
<path fill="none" stroke="midnightblue" d="M351.889,-204.85C375.519,-214.453 405.1,-225.974 432,-235 442.347,-238.472 453.476,-241.863 464.243,-244.971"/>
<polygon fill="midnightblue" stroke="midnightblue" points="353.064,-201.55 342.484,-201.002 350.413,-208.028 353.064,-201.55"/>
</g>
<!-- Node5 -->
<g id="node5" class="node"><title>Node5</title>
<g id="a_node5"><a xlink:href="../../db/d9e/classgame_engine_1_1actors_1_1behaviors_1_1_ao_e_attack.html#a35d7f53636d745562765310ca1e4b850" target="_top" xlink:title="gameEngine.actors.behaviors.\lAoEAttack.performAttack">
<polygon fill="white" stroke="black" points="441,-196 441,-226 603,-226 603,-196 441,-196"/>
<text text-anchor="start" x="449" y="-214" font-family="Helvetica,sans-Serif" font-size="10.00">gameEngine.actors.behaviors.</text>
<text text-anchor="middle" x="522" y="-203" font-family="Helvetica,sans-Serif" font-size="10.00">AoEAttack.performAttack</text>
</a>
</g>
</g>
<!-- Node2&#45;&gt;Node5 -->
<g id="edge4" class="edge"><title>Node2&#45;&gt;Node5</title>
<path fill="none" stroke="midnightblue" d="M406.32,-197.603C417.879,-198.953 429.559,-200.318 440.816,-201.633"/>
<polygon fill="midnightblue" stroke="midnightblue" points="406.544,-194.105 396.206,-196.421 405.732,-201.058 406.544,-194.105"/>
</g>
<!-- Node6 -->
<g id="node6" class="node"><title>Node6</title>
<g id="a_node6"><a xlink:href="../../d9/d41/classgame_engine_1_1actors_1_1behaviors_1_1_range_attack.html#adce033b0e318665ad52cde7c985b8538" target="_top" xlink:title="gameEngine.actors.behaviors.\lRangeAttack.performAttack">
<polygon fill="white" stroke="black" points="441,-147 441,-177 603,-177 603,-147 441,-147"/>
<text text-anchor="start" x="449" y="-165" font-family="Helvetica,sans-Serif" font-size="10.00">gameEngine.actors.behaviors.</text>
<text text-anchor="middle" x="522" y="-154" font-family="Helvetica,sans-Serif" font-size="10.00">RangeAttack.performAttack</text>
</a>
</g>
</g>
<!-- Node2&#45;&gt;Node6 -->
<g id="edge5" class="edge"><title>Node2&#45;&gt;Node6</title>
<path fill="none" stroke="midnightblue" d="M406.32,-174.861C417.879,-173.565 429.559,-172.255 440.816,-170.993"/>
<polygon fill="midnightblue" stroke="midnightblue" points="405.753,-171.403 396.206,-175.996 406.533,-178.359 405.753,-171.403"/>
</g>
<!-- Node7 -->
<g id="node7" class="node"><title>Node7</title>
<g id="a_node7"><a xlink:href="../../dc/d40/classgame_engine_1_1actors_1_1behaviors_1_1_ao_e_effect.html#ab9f4fcfbf53370716362e4c71768623c" target="_top" xlink:title="gameEngine.actors.behaviors.\lAoEEffect.start">
<polygon fill="white" stroke="black" points="441,-98 441,-128 603,-128 603,-98 441,-98"/>
<text text-anchor="start" x="449" y="-116" font-family="Helvetica,sans-Serif" font-size="10.00">gameEngine.actors.behaviors.</text>
<text text-anchor="middle" x="522" y="-105" font-family="Helvetica,sans-Serif" font-size="10.00">AoEEffect.start</text>
</a>
</g>
</g>
<!-- Node2&#45;&gt;Node7 -->
<g id="edge6" class="edge"><title>Node2&#45;&gt;Node7</title>
<path fill="none" stroke="midnightblue" d="M352.951,-167.181C376.416,-157.872 405.529,-146.779 432,-138 442.359,-134.564 453.494,-131.19 464.262,-128.087"/>
<polygon fill="midnightblue" stroke="midnightblue" points="351.585,-163.958 343.595,-170.917 354.18,-170.459 351.585,-163.958"/>
</g>
<!-- Node9 -->
<g id="node9" class="node"><title>Node9</title>
<g id="a_node9"><a xlink:href="../../de/dcd/classgame_engine_1_1actors_1_1behaviors_1_1_base_defend_behavior.html#a9c4d907d4daabdcbf4706ebd765eb4d3" target="_top" xlink:title="gameEngine.actors.behaviors.\lBaseDefendBehavior.execute">
<polygon fill="white" stroke="black" points="441,-49 441,-79 603,-79 603,-49 441,-49"/>
<text text-anchor="start" x="449" y="-67" font-family="Helvetica,sans-Serif" font-size="10.00">gameEngine.actors.behaviors.</text>
<text text-anchor="middle" x="522" y="-56" font-family="Helvetica,sans-Serif" font-size="10.00">BaseDefendBehavior.execute</text>
</a>
</g>
</g>
<!-- Node8&#45;&gt;Node9 -->
<g id="edge8" class="edge"><title>Node8&#45;&gt;Node9</title>
<path fill="none" stroke="midnightblue" d="M406.32,-64C417.879,-64 429.559,-64 440.816,-64"/>
<polygon fill="midnightblue" stroke="midnightblue" points="406.206,-60.5001 396.206,-64 406.206,-67.5001 406.206,-60.5001"/>
</g>
<!-- Node11 -->
<g id="node11" class="node"><title>Node11</title>
<g id="a_node11"><a xlink:href="../../d3/df0/classgame_engine_1_1actors_1_1behaviors_1_1_tower_range_effect.html#a875dbd661dc3e511e68f803c86b5b275" target="_top" xlink:title="gameEngine.actors.behaviors.\lTowerRangeEffect.start">
<polygon fill="white" stroke="black" points="441,-0 441,-30 603,-30 603,-0 441,-0"/>
<text text-anchor="start" x="449" y="-18" font-family="Helvetica,sans-Serif" font-size="10.00">gameEngine.actors.behaviors.</text>
<text text-anchor="middle" x="522" y="-7" font-family="Helvetica,sans-Serif" font-size="10.00">TowerRangeEffect.start</text>
</a>
</g>
</g>
<!-- Node10&#45;&gt;Node11 -->
<g id="edge10" class="edge"><title>Node10&#45;&gt;Node11</title>
<path fill="none" stroke="midnightblue" d="M406.32,-15C417.879,-15 429.559,-15 440.816,-15"/>
<polygon fill="midnightblue" stroke="midnightblue" points="406.206,-11.5001 396.206,-15 406.206,-18.5001 406.206,-11.5001"/>
</g>
</g>
</svg>
        <g id="navigator" transform="translate(0 0)" fill="#404254">
                <rect fill="#f2f5e9" fill-opacity="0.5" stroke="#606060" stroke-width=".5" x="0" y="0" width="60" height="60"/>
                <use id="zoomplus" xlink:href="#zoomPlus" x="17" y="9" onmousedown="handleZoom(evt,'in')"/>
                <use id="zoomminus" xlink:href="#zoomMin" x="42" y="9" onmousedown="handleZoom(evt,'out')"/>
                <use id="reset" xlink:href="#resetDef" x="30" y="36" onmousedown="handleReset()"/>
                <g id="arrowUp" xlink:href="#dirArrow" transform="translate(30 24)" onmousedown="handlePan(0,-1)">
                  <use xlink:href="#rim" fill="#404040">
                        <set attributeName="fill" to="#808080" begin="arrowUp.mouseover" end="arrowUp.mouseout"/>
                  </use>
                  <path fill="none" stroke="white" stroke-width="1.5" d="M0,-3.0v7 M-2.5,-0.5L0,-3.0L2.5,-0.5"/>
                </g>
                <g id="arrowRight" xlink:href="#dirArrow" transform="rotate(90) translate(36 -43)" onmousedown="handlePan(1,0)">
                  <use xlink:href="#rim" fill="#404040">
                        <set attributeName="fill" to="#808080" begin="arrowRight.mouseover" end="arrowRight.mouseout"/>
                  </use>
                  <path fill="none" stroke="white" stroke-width="1.5" d="M0,-3.0v7 M-2.5,-0.5L0,-3.0L2.5,-0.5"/>
                </g>
                <g id="arrowDown" xlink:href="#dirArrow" transform="rotate(180) translate(-30 -48)" onmousedown="handlePan(0,1)">
                  <use xlink:href="#rim" fill="#404040">
                        <set attributeName="fill" to="#808080" begin="arrowDown.mouseover" end="arrowDown.mouseout"/>
                  </use>
                  <path fill="none" stroke="white" stroke-width="1.5" d="M0,-3.0v7 M-2.5,-0.5L0,-3.0L2.5,-0.5"/>
                </g>
                <g id="arrowLeft" xlink:href="#dirArrow" transform="rotate(270) translate(-36 17)" onmousedown="handlePan(-1,0)">
                  <use xlink:href="#rim" fill="#404040">
                        <set attributeName="fill" to="#808080" begin="arrowLeft.mouseover" end="arrowLeft.mouseout"/>
                  </use>
                  <path fill="none" stroke="white" stroke-width="1.5" d="M0,-3.0v7 M-2.5,-0.5L0,-3.0L2.5,-0.5"/>
                </g>
        </g>
        <svg viewBox="0 0 15 15" width="100%" height="30px" preserveAspectRatio="xMaxYMin meet">
         <g id="arrow_out" transform="scale(0.3 0.3)">
          <a xlink:href="classgame_engine_1_1actors_1_1_base_actor_a827bcd701171b1776750c84bca05675d_icgraph_org.svg" target="_base">
           <rect id="button" ry="5" rx="5" y="6" x="6" height="38" width="38"
                fill="#f2f5e9" fill-opacity="0.5" stroke="#606060" stroke-width="1.0"/>
           <path id="arrow"
             d="M 11.500037,31.436501 C 11.940474,20.09759 22.043105,11.32322 32.158766,21.979434 L 37.068811,17.246167 C 37.068811,17.246167 37.088388,32 37.088388,32 L 22.160133,31.978069 C 22.160133,31.978069 26.997745,27.140456 26.997745,27.140456 C 18.528582,18.264221 13.291696,25.230495 11.500037,31.436501 z"
             style="fill:#404040;"/>
          </a>
         </g>
        </svg>
</svg>
