<?xml version="1.0" encoding="UTF-8" standalone="no"?>
<!DOCTYPE svg PUBLIC "-//W3C//DTD SVG 1.1//EN"
 "http://www.w3.org/Graphics/SVG/1.1/DTD/svg11.dtd">
<!-- Generated by graphviz version 2.36.0 (20140111.2315)
 -->
<!-- Title: gameEngine.actors.BaseActor.getY Pages: 1 -->
<svg width="1388pt" height="469pt"
 viewBox="0.00 0.00 1388.00 469.00" xmlns="http://www.w3.org/2000/svg" xmlns:xlink="http://www.w3.org/1999/xlink">
<g id="graph0" class="graph" transform="scale(1 1) rotate(0) translate(4 465)">
<title>gameEngine.actors.BaseActor.getY</title>
<polygon fill="white" stroke="none" points="-4,4 -4,-465 1384,-465 1384,4 -4,4"/>
<!-- Node1 -->
<g id="node1" class="node"><title>Node1</title>
<polygon fill="#bfbfbf" stroke="black" points="0.5,-250.5 0.5,-269.5 185.5,-269.5 185.5,-250.5 0.5,-250.5"/>
<text text-anchor="middle" x="93" y="-257.5" font-family="Helvetica,sans-Serif" font-size="10.00">gameEngine.actors.BaseActor.getY</text>
</g>
<!-- Node2 -->
<g id="node2" class="node"><title>Node2</title>
<g id="a_node2"><a xlink:href="../../df/da2/classutilities_1_1_g_s_o_n_1_1object_wrappers_1_1_data_wrapper.html#a014585cfc953fd7d5d30e48165aa7dae" target="_top" xlink:title="utilities.GSON.objectWrappers.\lDataWrapper.DataWrapper">
<polygon fill="white" stroke="black" points="244,-431 244,-461 406,-461 406,-431 244,-431"/>
<text text-anchor="start" x="252" y="-449" font-family="Helvetica,sans-Serif" font-size="10.00">utilities.GSON.objectWrappers.</text>
<text text-anchor="middle" x="325" y="-438" font-family="Helvetica,sans-Serif" font-size="10.00">DataWrapper.DataWrapper</text>
</a>
</g>
</g>
<!-- Node1&#45;&gt;Node2 -->
<g id="edge1" class="edge"><title>Node1&#45;&gt;Node2</title>
<path fill="none" stroke="midnightblue" d="M103.42,-278.681C121.524,-312.597 164.529,-384.185 222,-421 228.755,-425.327 236.201,-428.906 243.902,-431.864"/>
<polygon fill="midnightblue" stroke="midnightblue" points="106.522,-277.06 98.7969,-269.809 100.314,-280.294 106.522,-277.06"/>
</g>
<!-- Node4 -->
<g id="node4" class="node"><title>Node4</title>
<g id="a_node4"><a xlink:href="../../dc/d78/classgame_engine_1_1actors_1_1behaviors_1_1_closest_range_attack.html#a380f59e50b1ac7df4fa391345e437279" target="_top" xlink:title="gameEngine.actors.behaviors.\lClosestRangeAttack.defineComparison">
<polygon fill="white" stroke="black" points="223.5,-382 223.5,-412 426.5,-412 426.5,-382 223.5,-382"/>
<text text-anchor="start" x="231.5" y="-400" font-family="Helvetica,sans-Serif" font-size="10.00">gameEngine.actors.behaviors.</text>
<text text-anchor="middle" x="325" y="-389" font-family="Helvetica,sans-Serif" font-size="10.00">ClosestRangeAttack.defineComparison</text>
</a>
</g>
</g>
<!-- Node1&#45;&gt;Node4 -->
<g id="edge3" class="edge"><title>Node1&#45;&gt;Node4</title>
<path fill="none" stroke="midnightblue" d="M108.793,-277.397C130.874,-302.225 174.927,-347.518 222,-372 229.441,-375.87 237.501,-379.156 245.717,-381.944"/>
<polygon fill="midnightblue" stroke="midnightblue" points="111.389,-275.049 102.174,-269.822 106.118,-279.655 111.389,-275.049"/>
</g>
<!-- Node5 -->
<g id="node5" class="node"><title>Node5</title>
<g id="a_node5"><a xlink:href="../../d6/d0d/classgame_engine_1_1actors_1_1behaviors_1_1_enemy_homing_movement.html#ae0dfa468b7ebfd766b31406b8d1f74d6" target="_top" xlink:title="gameEngine.actors.behaviors.\lEnemyHomingMovement.execute">
<polygon fill="white" stroke="black" points="235.5,-333 235.5,-363 414.5,-363 414.5,-333 235.5,-333"/>
<text text-anchor="start" x="243.5" y="-351" font-family="Helvetica,sans-Serif" font-size="10.00">gameEngine.actors.behaviors.</text>
<text text-anchor="middle" x="325" y="-340" font-family="Helvetica,sans-Serif" font-size="10.00">EnemyHomingMovement.execute</text>
</a>
</g>
</g>
<!-- Node1&#45;&gt;Node5 -->
<g id="edge4" class="edge"><title>Node1&#45;&gt;Node5</title>
<path fill="none" stroke="midnightblue" d="M119.397,-274.556C144.718,-288.569 185.056,-309.562 222,-323 232.195,-326.708 243.161,-330.043 253.988,-332.978"/>
<polygon fill="midnightblue" stroke="midnightblue" points="120.902,-271.387 110.466,-269.557 117.483,-277.495 120.902,-271.387"/>
</g>
<!-- Node6 -->
<g id="node6" class="node"><title>Node6</title>
<g id="a_node6"><a xlink:href="../../de/d4a/classgame_engine_1_1actors_1_1behaviors_1_1_base_movement_behavior.html#ac56b8c6d59f87cad83decf65b7fd368f" target="_top" xlink:title="gameEngine.actors.behaviors.\lBaseMovementBehavior.findNextTarget">
<polygon fill="white" stroke="black" points="222.5,-245 222.5,-275 427.5,-275 427.5,-245 222.5,-245"/>
<text text-anchor="start" x="230.5" y="-263" font-family="Helvetica,sans-Serif" font-size="10.00">gameEngine.actors.behaviors.</text>
<text text-anchor="middle" x="325" y="-252" font-family="Helvetica,sans-Serif" font-size="10.00">BaseMovementBehavior.findNextTarget</text>
</a>
</g>
</g>
<!-- Node1&#45;&gt;Node6 -->
<g id="edge5" class="edge"><title>Node1&#45;&gt;Node6</title>
<path fill="none" stroke="midnightblue" d="M195.782,-260C204.539,-260 213.399,-260 222.156,-260"/>
<polygon fill="midnightblue" stroke="midnightblue" points="195.563,-256.5 185.563,-260 195.563,-263.5 195.563,-256.5"/>
</g>
<!-- Node9 -->
<g id="node9" class="node"><title>Node9</title>
<g id="a_node9"><a xlink:href="../../d1/d5b/classgame_engine_1_1_a_i_1_1_grid_path_finder.html#a7e3ed2c2ff3c355a04437f91e62b89b2" target="_top" xlink:title="gameEngine.AI.GridPathFinder.getPath">
<polygon fill="white" stroke="black" points="225,-294.5 225,-313.5 425,-313.5 425,-294.5 225,-294.5"/>
<text text-anchor="middle" x="325" y="-301.5" font-family="Helvetica,sans-Serif" font-size="10.00">gameEngine.AI.GridPathFinder.getPath</text>
</a>
</g>
</g>
<!-- Node1&#45;&gt;Node9 -->
<g id="edge8" class="edge"><title>Node1&#45;&gt;Node9</title>
<path fill="none" stroke="midnightblue" d="M154.157,-271.508C191.513,-278.655 238.95,-287.73 274.191,-294.471"/>
<polygon fill="midnightblue" stroke="midnightblue" points="154.386,-267.989 143.907,-269.547 153.071,-274.864 154.386,-267.989"/>
</g>
<!-- Node10 -->
<g id="node10" class="node"><title>Node10</title>
<g id="a_node10"><a xlink:href="../../d0/d94/classgame_engine_1_1_main_engine_manager.html#aabe49b899d0903500a511aaebb40b6ce" target="_top" xlink:title="gameEngine.MainEngineManager.is\lInRangeOfField">
<polygon fill="white" stroke="black" points="232,-196 232,-226 418,-226 418,-196 232,-196"/>
<text text-anchor="start" x="240" y="-214" font-family="Helvetica,sans-Serif" font-size="10.00">gameEngine.MainEngineManager.is</text>
<text text-anchor="middle" x="325" y="-203" font-family="Helvetica,sans-Serif" font-size="10.00">InRangeOfField</text>
</a>
</g>
</g>
<!-- Node1&#45;&gt;Node10 -->
<g id="edge10" class="edge"><title>Node1&#45;&gt;Node10</title>
<path fill="none" stroke="midnightblue" d="M148.48,-248.393C179.814,-241.718 219.532,-233.256 253.257,-226.071"/>
<polygon fill="midnightblue" stroke="midnightblue" points="147.67,-244.987 138.619,-250.494 149.129,-251.834 147.67,-244.987"/>
</g>
<!-- Node15 -->
<g id="node15" class="node"><title>Node15</title>
<g id="a_node15"><a xlink:href="../../db/d9e/classgame_engine_1_1actors_1_1behaviors_1_1_ao_e_attack.html#a35d7f53636d745562765310ca1e4b850" target="_top" xlink:title="gameEngine.actors.behaviors.\lAoEAttack.performAttack">
<polygon fill="white" stroke="black" points="244,-147 244,-177 406,-177 406,-147 244,-147"/>
<text text-anchor="start" x="252" y="-165" font-family="Helvetica,sans-Serif" font-size="10.00">gameEngine.actors.behaviors.</text>
<text text-anchor="middle" x="325" y="-154" font-family="Helvetica,sans-Serif" font-size="10.00">AoEAttack.performAttack</text>
</a>
</g>
</g>
<!-- Node1&#45;&gt;Node15 -->
<g id="edge15" class="edge"><title>Node1&#45;&gt;Node15</title>
<path fill="none" stroke="midnightblue" d="M115.805,-244.714C140.505,-228.052 182.474,-201.679 222,-186 230.54,-182.613 239.679,-179.628 248.85,-177.018"/>
<polygon fill="midnightblue" stroke="midnightblue" points="113.803,-241.843 107.523,-250.376 117.753,-247.622 113.803,-241.843"/>
</g>
<!-- Node16 -->
<g id="node16" class="node"><title>Node16</title>
<g id="a_node16"><a xlink:href="../../d9/d41/classgame_engine_1_1actors_1_1behaviors_1_1_range_attack.html#ad01ed9c7d2605735948e6a8b0d1a9485" target="_top" xlink:title="gameEngine.actors.behaviors.\lRangeAttack.shootActorFromActor">
<polygon fill="white" stroke="black" points="234,-98 234,-128 416,-128 416,-98 234,-98"/>
<text text-anchor="start" x="242" y="-116" font-family="Helvetica,sans-Serif" font-size="10.00">gameEngine.actors.behaviors.</text>
<text text-anchor="middle" x="325" y="-105" font-family="Helvetica,sans-Serif" font-size="10.00">RangeAttack.shootActorFromActor</text>
</a>
</g>
</g>
<!-- Node1&#45;&gt;Node16 -->
<g id="edge16" class="edge"><title>Node1&#45;&gt;Node16</title>
<path fill="none" stroke="midnightblue" d="M107.418,-242C128.635,-214.88 172.626,-163.863 222,-137 228.312,-133.566 235.105,-130.62 242.079,-128.094"/>
<polygon fill="midnightblue" stroke="midnightblue" points="104.429,-240.146 101.121,-250.212 109.984,-244.406 104.429,-240.146"/>
</g>
<!-- Node18 -->
<g id="node18" class="node"><title>Node18</title>
<g id="a_node18"><a xlink:href="../../dc/dde/classgame_engine_1_1tests_1_1_behavior_tester.html#a6f24e35b70fe115668ec08cff38b25bc" target="_top" xlink:title="gameEngine.tests.Behavior\lTester.updateAndCheck">
<polygon fill="white" stroke="black" points="250.5,-49 250.5,-79 399.5,-79 399.5,-49 250.5,-49"/>
<text text-anchor="start" x="258.5" y="-67" font-family="Helvetica,sans-Serif" font-size="10.00">gameEngine.tests.Behavior</text>
<text text-anchor="middle" x="325" y="-56" font-family="Helvetica,sans-Serif" font-size="10.00">Tester.updateAndCheck</text>
</a>
</g>
</g>
<!-- Node1&#45;&gt;Node18 -->
<g id="edge18" class="edge"><title>Node1&#45;&gt;Node18</title>
<path fill="none" stroke="midnightblue" d="M102.543,-241.015C119.713,-205.131 161.965,-127.424 222,-88 230.592,-82.3581 240.359,-78.0375 250.365,-74.7298"/>
<polygon fill="midnightblue" stroke="midnightblue" points="99.2481,-239.799 98.1983,-250.342 105.593,-242.755 99.2481,-239.799"/>
</g>
<!-- Node3 -->
<g id="node3" class="node"><title>Node3</title>
<g id="a_node3"><a xlink:href="../../df/da2/classutilities_1_1_g_s_o_n_1_1object_wrappers_1_1_data_wrapper.html#a5e7d89dae1a7c05c00b0b5d8a51cc50a" target="_top" xlink:title="utilities.GSON.objectWrappers.\lDataWrapper.equals">
<polygon fill="white" stroke="black" points="489,-431 489,-461 651,-461 651,-431 489,-431"/>
<text text-anchor="start" x="497" y="-449" font-family="Helvetica,sans-Serif" font-size="10.00">utilities.GSON.objectWrappers.</text>
<text text-anchor="middle" x="570" y="-438" font-family="Helvetica,sans-Serif" font-size="10.00">DataWrapper.equals</text>
</a>
</g>
</g>
<!-- Node2&#45;&gt;Node3 -->
<g id="edge2" class="edge"><title>Node2&#45;&gt;Node3</title>
<path fill="none" stroke="midnightblue" d="M416.322,-446C440.118,-446 465.624,-446 488.844,-446"/>
<polygon fill="midnightblue" stroke="midnightblue" points="416.241,-442.5 406.241,-446 416.241,-449.5 416.241,-442.5"/>
</g>
<!-- Node7 -->
<g id="node7" class="node"><title>Node7</title>
<g id="a_node7"><a xlink:href="../../d6/d0e/classgame_engine_1_1actors_1_1behaviors_1_1_a_i_movement.html#aeb1d8783ef4330c7c62ab30c03822b7d" target="_top" xlink:title="gameEngine.actors.behaviors.\lAIMovement.execute">
<polygon fill="white" stroke="black" points="489,-292 489,-322 651,-322 651,-292 489,-292"/>
<text text-anchor="start" x="497" y="-310" font-family="Helvetica,sans-Serif" font-size="10.00">gameEngine.actors.behaviors.</text>
<text text-anchor="middle" x="570" y="-299" font-family="Helvetica,sans-Serif" font-size="10.00">AIMovement.execute</text>
</a>
</g>
</g>
<!-- Node6&#45;&gt;Node7 -->
<g id="edge6" class="edge"><title>Node6&#45;&gt;Node7</title>
<path fill="none" stroke="midnightblue" d="M413.556,-276.935C438.985,-281.853 466.572,-287.189 491.348,-291.981"/>
<polygon fill="midnightblue" stroke="midnightblue" points="414.038,-273.463 403.555,-275 412.708,-280.336 414.038,-273.463"/>
</g>
<!-- Node8 -->
<g id="node8" class="node"><title>Node8</title>
<g id="a_node8"><a xlink:href="../../da/d56/classgame_engine_1_1actors_1_1behaviors_1_1_linear_movement.html#a388237f4dafec0d8b13cd7c215b5ec87" target="_top" xlink:title="gameEngine.actors.behaviors.\lLinearMovement.execute">
<polygon fill="white" stroke="black" points="489,-243 489,-273 651,-273 651,-243 489,-243"/>
<text text-anchor="start" x="497" y="-261" font-family="Helvetica,sans-Serif" font-size="10.00">gameEngine.actors.behaviors.</text>
<text text-anchor="middle" x="570" y="-250" font-family="Helvetica,sans-Serif" font-size="10.00">LinearMovement.execute</text>
</a>
</g>
</g>
<!-- Node6&#45;&gt;Node8 -->
<g id="edge7" class="edge"><title>Node6&#45;&gt;Node8</title>
<path fill="none" stroke="midnightblue" d="M437.747,-259.08C454.973,-258.938 472.462,-258.795 488.817,-258.66"/>
<polygon fill="midnightblue" stroke="midnightblue" points="437.617,-255.581 427.646,-259.163 437.674,-262.581 437.617,-255.581"/>
</g>
<!-- Node9&#45;&gt;Node7 -->
<g id="edge9" class="edge"><title>Node9&#45;&gt;Node7</title>
<path fill="none" stroke="midnightblue" d="M435.4,-305.351C453.338,-305.572 471.632,-305.798 488.695,-306.009"/>
<polygon fill="midnightblue" stroke="midnightblue" points="435.23,-301.848 425.188,-305.225 435.144,-308.848 435.23,-301.848"/>
</g>
<!-- Node11 -->
<g id="node11" class="node"><title>Node11</title>
<g id="a_node11"><a xlink:href="../../d0/d94/classgame_engine_1_1_main_engine_manager.html#a07313072a6056b1e5bf9cbc595bd809c" target="_top" xlink:title="gameEngine.MainEngineManager.update\lActors">
<polygon fill="white" stroke="black" points="464,-194 464,-224 676,-224 676,-194 464,-194"/>
<text text-anchor="start" x="472" y="-212" font-family="Helvetica,sans-Serif" font-size="10.00">gameEngine.MainEngineManager.update</text>
<text text-anchor="middle" x="570" y="-201" font-family="Helvetica,sans-Serif" font-size="10.00">Actors</text>
</a>
</g>
</g>
<!-- Node10&#45;&gt;Node11 -->
<g id="edge11" class="edge"><title>Node10&#45;&gt;Node11</title>
<path fill="none" stroke="midnightblue" d="M428.429,-210.157C440.136,-210.061 452.086,-209.962 463.828,-209.866"/>
<polygon fill="midnightblue" stroke="midnightblue" points="428.185,-206.659 418.214,-210.241 428.243,-213.659 428.185,-206.659"/>
</g>
<!-- Node12 -->
<g id="node12" class="node"><title>Node12</title>
<g id="a_node12"><a xlink:href="../../d0/d94/classgame_engine_1_1_main_engine_manager.html#aa167e2a5e062c22e361f11a25db3c3ef" target="_top" xlink:title="gameEngine.MainEngineManager.game\lUpdate">
<polygon fill="white" stroke="black" points="712,-194 712,-224 918,-224 918,-194 712,-194"/>
<text text-anchor="start" x="720" y="-212" font-family="Helvetica,sans-Serif" font-size="10.00">gameEngine.MainEngineManager.game</text>
<text text-anchor="middle" x="815" y="-201" font-family="Helvetica,sans-Serif" font-size="10.00">Update</text>
</a>
</g>
</g>
<!-- Node11&#45;&gt;Node12 -->
<g id="edge12" class="edge"><title>Node11&#45;&gt;Node12</title>
<path fill="none" stroke="midnightblue" d="M686.445,-209C694.893,-209 703.381,-209 711.744,-209"/>
<polygon fill="midnightblue" stroke="midnightblue" points="686.17,-205.5 676.17,-209 686.17,-212.5 686.17,-205.5"/>
</g>
<!-- Node13 -->
<g id="node13" class="node"><title>Node13</title>
<g id="a_node13"><a xlink:href="../../d0/d94/classgame_engine_1_1_main_engine_manager.html#a0d381e03af0128b42e169322c2d1ca00" target="_top" xlink:title="gameEngine.MainEngineManager.create\lTimeline">
<polygon fill="white" stroke="black" points="954.5,-194 954.5,-224 1163.5,-224 1163.5,-194 954.5,-194"/>
<text text-anchor="start" x="962.5" y="-212" font-family="Helvetica,sans-Serif" font-size="10.00">gameEngine.MainEngineManager.create</text>
<text text-anchor="middle" x="1059" y="-201" font-family="Helvetica,sans-Serif" font-size="10.00">Timeline</text>
</a>
</g>
</g>
<!-- Node12&#45;&gt;Node13 -->
<g id="edge13" class="edge"><title>Node12&#45;&gt;Node13</title>
<path fill="none" stroke="midnightblue" d="M928.34,-209C936.943,-209 945.605,-209 954.15,-209"/>
<polygon fill="midnightblue" stroke="midnightblue" points="928.279,-205.5 918.279,-209 928.279,-212.5 928.279,-205.5"/>
</g>
<!-- Node14 -->
<g id="node14" class="node"><title>Node14</title>
<g id="a_node14"><a xlink:href="../../d0/d94/classgame_engine_1_1_main_engine_manager.html#aec2cd142182da8ef024078d42fb5bc23" target="_top" xlink:title="gameEngine.MainEngineManager.\lMainEngineManager">
<polygon fill="white" stroke="black" points="1200.5,-194 1200.5,-224 1379.5,-224 1379.5,-194 1200.5,-194"/>
<text text-anchor="start" x="1208.5" y="-212" font-family="Helvetica,sans-Serif" font-size="10.00">gameEngine.MainEngineManager.</text>
<text text-anchor="middle" x="1290" y="-201" font-family="Helvetica,sans-Serif" font-size="10.00">MainEngineManager</text>
</a>
</g>
</g>
<!-- Node13&#45;&gt;Node14 -->
<g id="edge14" class="edge"><title>Node13&#45;&gt;Node14</title>
<path fill="none" stroke="midnightblue" d="M1173.8,-209C1182.69,-209 1191.59,-209 1200.28,-209"/>
<polygon fill="midnightblue" stroke="midnightblue" points="1173.78,-205.5 1163.78,-209 1173.78,-212.5 1173.78,-205.5"/>
</g>
<!-- Node17 -->
<g id="node17" class="node"><title>Node17</title>
<g id="a_node17"><a xlink:href="../../d9/d41/classgame_engine_1_1actors_1_1behaviors_1_1_range_attack.html#adce033b0e318665ad52cde7c985b8538" target="_top" xlink:title="gameEngine.actors.behaviors.\lRangeAttack.performAttack">
<polygon fill="white" stroke="black" points="489,-98 489,-128 651,-128 651,-98 489,-98"/>
<text text-anchor="start" x="497" y="-116" font-family="Helvetica,sans-Serif" font-size="10.00">gameEngine.actors.behaviors.</text>
<text text-anchor="middle" x="570" y="-105" font-family="Helvetica,sans-Serif" font-size="10.00">RangeAttack.performAttack</text>
</a>
</g>
</g>
<!-- Node16&#45;&gt;Node17 -->
<g id="edge17" class="edge"><title>Node16&#45;&gt;Node17</title>
<path fill="none" stroke="midnightblue" d="M426.259,-113C447.036,-113 468.668,-113 488.622,-113"/>
<polygon fill="midnightblue" stroke="midnightblue" points="426.139,-109.5 416.139,-113 426.139,-116.5 426.139,-109.5"/>
</g>
<!-- Node19 -->
<g id="node19" class="node"><title>Node19</title>
<g id="a_node19"><a xlink:href="../../dc/dde/classgame_engine_1_1tests_1_1_behavior_tester.html#aee99e22e79872733f939e9c05f52bf27" target="_top" xlink:title="gameEngine.tests.Behavior\lTester.testMovementBehaviorSimple">
<polygon fill="white" stroke="black" points="474,-49 474,-79 666,-79 666,-49 474,-49"/>
<text text-anchor="start" x="482" y="-67" font-family="Helvetica,sans-Serif" font-size="10.00">gameEngine.tests.Behavior</text>
<text text-anchor="middle" x="570" y="-56" font-family="Helvetica,sans-Serif" font-size="10.00">Tester.testMovementBehaviorSimple</text>
</a>
</g>
</g>
<!-- Node18&#45;&gt;Node19 -->
<g id="edge19" class="edge"><title>Node18&#45;&gt;Node19</title>
<path fill="none" stroke="midnightblue" d="M409.845,-64C430.419,-64 452.591,-64 473.661,-64"/>
<polygon fill="midnightblue" stroke="midnightblue" points="409.567,-60.5001 399.567,-64 409.567,-67.5001 409.567,-60.5001"/>
</g>
<!-- Node20 -->
<g id="node20" class="node"><title>Node20</title>
<g id="a_node20"><a xlink:href="../../dc/dde/classgame_engine_1_1tests_1_1_behavior_tester.html#abe26f1fe47eb6206b525b38d4e8ad360" target="_top" xlink:title="gameEngine.tests.Behavior\lTester.testMovementBehaviorSimple2">
<polygon fill="white" stroke="black" points="471,-0 471,-30 669,-30 669,-0 471,-0"/>
<text text-anchor="start" x="479" y="-18" font-family="Helvetica,sans-Serif" font-size="10.00">gameEngine.tests.Behavior</text>
<text text-anchor="middle" x="570" y="-7" font-family="Helvetica,sans-Serif" font-size="10.00">Tester.testMovementBehaviorSimple2</text>
</a>
</g>
</g>
<!-- Node18&#45;&gt;Node20 -->
<g id="edge20" class="edge"><title>Node18&#45;&gt;Node20</title>
<path fill="none" stroke="midnightblue" d="M409.577,-47.147C437.134,-41.5903 467.584,-35.4502 494.424,-30.038"/>
<polygon fill="midnightblue" stroke="midnightblue" points="408.678,-43.7577 399.567,-49.1654 410.062,-50.6196 408.678,-43.7577"/>
</g>
</g>
</svg>
