<?xml version="1.0" encoding="UTF-8" standalone="no"?>
<!DOCTYPE svg PUBLIC "-//W3C//DTD SVG 1.1//EN"
 "http://www.w3.org/Graphics/SVG/1.1/DTD/svg11.dtd">
<!-- Generated by graphviz version 2.36.0 (20140111.2315)
 -->
<!-- Title: gameEngine.actors.BaseActor.changeAndNotify Pages: 1 -->
<svg width="440pt" height="164pt"
 viewBox="0.00 0.00 440.00 164.00" xmlns="http://www.w3.org/2000/svg" xmlns:xlink="http://www.w3.org/1999/xlink">
<g id="graph0" class="graph" transform="scale(1 1) rotate(0) translate(4 160)">
<title>gameEngine.actors.BaseActor.changeAndNotify</title>
<polygon fill="white" stroke="none" points="-4,4 -4,-160 436,-160 436,4 -4,4"/>
<!-- Node1 -->
<g id="node1" class="node"><title>Node1</title>
<polygon fill="#bfbfbf" stroke="black" points="0,-71 0,-101 200,-101 200,-71 0,-71"/>
<text text-anchor="start" x="8" y="-89" font-family="Helvetica,sans-Serif" font-size="10.00">gameEngine.actors.BaseActor.change</text>
<text text-anchor="middle" x="100" y="-78" font-family="Helvetica,sans-Serif" font-size="10.00">AndNotify</text>
</g>
<!-- Node2 -->
<g id="node2" class="node"><title>Node2</title>
<g id="a_node2"><a xlink:href="../../d4/d81/classgame_engine_1_1actors_1_1_base_enemy.html#ab34454917fda5e54bf234ce35e98dbc8" target="_top" xlink:title="gameEngine.actors.BaseEnemy.died">
<polygon fill="white" stroke="black" points="238.5,-136.5 238.5,-155.5 429.5,-155.5 429.5,-136.5 238.5,-136.5"/>
<text text-anchor="middle" x="334" y="-143.5" font-family="Helvetica,sans-Serif" font-size="10.00">gameEngine.actors.BaseEnemy.died</text>
</a>
</g>
</g>
<!-- Node1&#45;&gt;Node2 -->
<g id="edge1" class="edge"><title>Node1&#45;&gt;Node2</title>
<path fill="none" stroke="midnightblue" d="M156.069,-104.107C180.41,-111.751 209.47,-120.391 236,-127 249.904,-130.464 265.057,-133.689 279.166,-136.463"/>
<polygon fill="midnightblue" stroke="midnightblue" points="156.887,-100.694 146.297,-101.012 154.773,-107.368 156.887,-100.694"/>
</g>
<!-- Node3 -->
<g id="node3" class="node"><title>Node3</title>
<g id="a_node3"><a xlink:href="../../d4/d81/classgame_engine_1_1actors_1_1_base_enemy.html#a3e6cfe26361f1d8bbc079b366108e7f2" target="_top" xlink:title="gameEngine.actors.BaseEnemy.killed">
<polygon fill="white" stroke="black" points="236.5,-98.5 236.5,-117.5 431.5,-117.5 431.5,-98.5 236.5,-98.5"/>
<text text-anchor="middle" x="334" y="-105.5" font-family="Helvetica,sans-Serif" font-size="10.00">gameEngine.actors.BaseEnemy.killed</text>
</a>
</g>
</g>
<!-- Node1&#45;&gt;Node3 -->
<g id="edge2" class="edge"><title>Node1&#45;&gt;Node3</title>
<path fill="none" stroke="midnightblue" d="M210.293,-96.364C219.038,-97.1933 227.835,-98.0274 236.482,-98.8475"/>
<polygon fill="midnightblue" stroke="midnightblue" points="210.348,-92.8536 200.062,-95.3938 209.687,-99.8223 210.348,-92.8536"/>
</g>
<!-- Node4 -->
<g id="node4" class="node"><title>Node4</title>
<g id="a_node4"><a xlink:href="../../de/dd5/classgame_engine_1_1actors_1_1behaviors_1_1_gold_gen_effect.html#ae4b9e87044dd48ff3c798f1b91c5ed83" target="_top" xlink:title="gameEngine.actors.behaviors.\lGoldGenEffect.start">
<polygon fill="white" stroke="black" points="253,-49 253,-79 415,-79 415,-49 253,-49"/>
<text text-anchor="start" x="261" y="-67" font-family="Helvetica,sans-Serif" font-size="10.00">gameEngine.actors.behaviors.</text>
<text text-anchor="middle" x="334" y="-56" font-family="Helvetica,sans-Serif" font-size="10.00">GoldGenEffect.start</text>
</a>
</g>
</g>
<!-- Node1&#45;&gt;Node4 -->
<g id="edge3" class="edge"><title>Node1&#45;&gt;Node4</title>
<path fill="none" stroke="midnightblue" d="M210.43,-75.6231C224.717,-74.2682 239.139,-72.9006 252.822,-71.603"/>
<polygon fill="midnightblue" stroke="midnightblue" points="209.687,-72.1777 200.062,-76.6062 210.348,-79.1464 209.687,-72.1777"/>
</g>
<!-- Node5 -->
<g id="node5" class="node"><title>Node5</title>
<g id="a_node5"><a xlink:href="../../dc/d28/classgame_engine_1_1actors_1_1behaviors_1_1_heal_effect.html#a5c7f5db308e8e2e4448ef3bb6020282e" target="_top" xlink:title="gameEngine.actors.behaviors.\lHealEffect.start">
<polygon fill="white" stroke="black" points="253,-0 253,-30 415,-30 415,-0 253,-0"/>
<text text-anchor="start" x="261" y="-18" font-family="Helvetica,sans-Serif" font-size="10.00">gameEngine.actors.behaviors.</text>
<text text-anchor="middle" x="334" y="-7" font-family="Helvetica,sans-Serif" font-size="10.00">HealEffect.start</text>
</a>
</g>
</g>
<!-- Node1&#45;&gt;Node5 -->
<g id="edge4" class="edge"><title>Node1&#45;&gt;Node5</title>
<path fill="none" stroke="midnightblue" d="M152.081,-67.5691C177.211,-58.7651 208.039,-48.3536 236,-40 247.497,-36.565 259.844,-33.1655 271.746,-30.0319"/>
<polygon fill="midnightblue" stroke="midnightblue" points="150.664,-64.3575 142.395,-70.9816 152.99,-70.9598 150.664,-64.3575"/>
</g>
</g>
</svg>
