<?xml version="1.0" encoding="UTF-8" standalone="no"?>
<!DOCTYPE svg PUBLIC "-//W3C//DTD SVG 1.1//EN"
 "http://www.w3.org/Graphics/SVG/1.1/DTD/svg11.dtd">
<!-- Generated by graphviz version 2.36.0 (20140111.2315)
 -->
<!-- Title: gameEngine.actors.BaseActor.getSize Pages: 1 -->
<svg width="682pt" height="87pt"
 viewBox="0.00 0.00 682.00 87.00" xmlns="http://www.w3.org/2000/svg" xmlns:xlink="http://www.w3.org/1999/xlink">
<g id="graph0" class="graph" transform="scale(1 1) rotate(0) translate(4 83)">
<title>gameEngine.actors.BaseActor.getSize</title>
<polygon fill="white" stroke="none" points="-4,4 -4,-83 678,-83 678,4 -4,4"/>
<!-- Node1 -->
<g id="node1" class="node"><title>Node1</title>
<polygon fill="#bfbfbf" stroke="black" points="0,-29.5 0,-48.5 200,-48.5 200,-29.5 0,-29.5"/>
<text text-anchor="middle" x="100" y="-36.5" font-family="Helvetica,sans-Serif" font-size="10.00">gameEngine.actors.BaseActor.getSize</text>
</g>
<!-- Node2 -->
<g id="node2" class="node"><title>Node2</title>
<g id="a_node2"><a xlink:href="../../d5/d02/classgame_engine_1_1actors_1_1_base_actor.html#a8958b963f8a8252355d329f947f809df" target="_top" xlink:title="gameEngine.actors.BaseActor.makeNode">
<polygon fill="white" stroke="black" points="236.5,-29.5 236.5,-48.5 453.5,-48.5 453.5,-29.5 236.5,-29.5"/>
<text text-anchor="middle" x="345" y="-36.5" font-family="Helvetica,sans-Serif" font-size="10.00">gameEngine.actors.BaseActor.makeNode</text>
</a>
</g>
</g>
<!-- Node1&#45;&gt;Node2 -->
<g id="edge1" class="edge"><title>Node1&#45;&gt;Node2</title>
<path fill="none" stroke="midnightblue" d="M210.324,-39C219.001,-39 227.761,-39 236.425,-39"/>
<polygon fill="midnightblue" stroke="midnightblue" points="210.188,-35.5001 200.188,-39 210.188,-42.5001 210.188,-35.5001"/>
</g>
<!-- Node3 -->
<g id="node3" class="node"><title>Node3</title>
<g id="a_node3"><a xlink:href="../../d5/d02/classgame_engine_1_1actors_1_1_base_actor.html#ab63f7a8300a3318a56e440509cdc265b" target="_top" xlink:title="gameEngine.actors.BaseActor.\lBaseActor">
<polygon fill="white" stroke="black" points="500,-49 500,-79 664,-79 664,-49 500,-49"/>
<text text-anchor="start" x="508" y="-67" font-family="Helvetica,sans-Serif" font-size="10.00">gameEngine.actors.BaseActor.</text>
<text text-anchor="middle" x="582" y="-56" font-family="Helvetica,sans-Serif" font-size="10.00">BaseActor</text>
</a>
</g>
</g>
<!-- Node2&#45;&gt;Node3 -->
<g id="edge2" class="edge"><title>Node2&#45;&gt;Node3</title>
<path fill="none" stroke="midnightblue" d="M445.507,-49.5859C463.624,-51.5131 482.325,-53.5026 499.832,-55.3651"/>
<polygon fill="midnightblue" stroke="midnightblue" points="445.828,-46.1003 435.514,-48.5227 445.087,-53.0611 445.828,-46.1003"/>
</g>
<!-- Node4 -->
<g id="node4" class="node"><title>Node4</title>
<g id="a_node4"><a xlink:href="../../da/d6a/classgame_engine_1_1actors_1_1_base_projectile.html#ae8d140742d4cb1d90689e52e30195f83" target="_top" xlink:title="gameEngine.actors.BaseProjectile.\lBaseProjectile">
<polygon fill="white" stroke="black" points="490.5,-0 490.5,-30 673.5,-30 673.5,-0 490.5,-0"/>
<text text-anchor="start" x="498.5" y="-18" font-family="Helvetica,sans-Serif" font-size="10.00">gameEngine.actors.BaseProjectile.</text>
<text text-anchor="middle" x="582" y="-7" font-family="Helvetica,sans-Serif" font-size="10.00">BaseProjectile</text>
</a>
</g>
</g>
<!-- Node2&#45;&gt;Node4 -->
<g id="edge3" class="edge"><title>Node2&#45;&gt;Node4</title>
<path fill="none" stroke="midnightblue" d="M449.519,-28.4279C463.072,-27.0437 476.877,-25.6338 490.199,-24.2733"/>
<polygon fill="midnightblue" stroke="midnightblue" points="448.808,-24.9821 439.216,-29.4801 449.52,-31.9459 448.808,-24.9821"/>
</g>
</g>
</svg>
