<?xml version="1.0" encoding="UTF-8" standalone="no"?>
<!DOCTYPE svg PUBLIC "-//W3C//DTD SVG 1.1//EN"
 "http://www.w3.org/Graphics/SVG/1.1/DTD/svg11.dtd">
<!-- Generated by graphviz version 2.36.0 (20140111.2315)
 -->
<!-- Title: gameEngine.actors.BaseActor.makeNode Pages: 1 -->
<svg width="462pt" height="88pt"
 viewBox="0.00 0.00 462.00 88.00" xmlns="http://www.w3.org/2000/svg" xmlns:xlink="http://www.w3.org/1999/xlink">
<g id="graph0" class="graph" transform="scale(1 1) rotate(0) translate(4 84)">
<title>gameEngine.actors.BaseActor.makeNode</title>
<polygon fill="white" stroke="none" points="-4,4 -4,-84 458,-84 458,4 -4,4"/>
<!-- Node1 -->
<g id="node1" class="node"><title>Node1</title>
<polygon fill="#bfbfbf" stroke="black" points="0.5,-24.5 0.5,-43.5 217.5,-43.5 217.5,-24.5 0.5,-24.5"/>
<text text-anchor="middle" x="109" y="-31.5" font-family="Helvetica,sans-Serif" font-size="10.00">gameEngine.actors.BaseActor.makeNode</text>
</g>
<!-- Node2 -->
<g id="node2" class="node"><title>Node2</title>
<g id="a_node2"><a xlink:href="../../dc/d37/classutilities_1_1_java_f_xutilities_1_1image_view_1_1_string_to_image_view_converter.html#a5beb76f3bbfa4aae7d9b897a285b007b" target="_top" xlink:title="utilities.JavaFXutilities.image\lView.StringToImageViewConverter.get\lImageView">
<polygon fill="white" stroke="black" points="256,-38.5 256,-79.5 452,-79.5 452,-38.5 256,-38.5"/>
<text text-anchor="start" x="264" y="-67.5" font-family="Helvetica,sans-Serif" font-size="10.00">utilities.JavaFXutilities.image</text>
<text text-anchor="start" x="264" y="-56.5" font-family="Helvetica,sans-Serif" font-size="10.00">View.StringToImageViewConverter.get</text>
<text text-anchor="middle" x="354" y="-45.5" font-family="Helvetica,sans-Serif" font-size="10.00">ImageView</text>
</a>
</g>
</g>
<!-- Node1&#45;&gt;Node2 -->
<g id="edge1" class="edge"><title>Node1&#45;&gt;Node2</title>
<path fill="none" stroke="midnightblue" d="M202.561,-43.5227C216.728,-44.9802 231.452,-46.4951 245.901,-47.9816"/>
<polygon fill="midnightblue" stroke="midnightblue" points="245.544,-51.4632 255.85,-49.0051 246.26,-44.5 245.544,-51.4632"/>
</g>
<!-- Node3 -->
<g id="node3" class="node"><title>Node3</title>
<g id="a_node3"><a xlink:href="../../d5/d02/classgame_engine_1_1actors_1_1_base_actor.html#aa62f6dc2982420c08f2d1d30a9f3838a" target="_top" xlink:title="gameEngine.actors.BaseActor.getSize">
<polygon fill="white" stroke="black" points="254,-0.5 254,-19.5 454,-19.5 454,-0.5 254,-0.5"/>
<text text-anchor="middle" x="354" y="-7.5" font-family="Helvetica,sans-Serif" font-size="10.00">gameEngine.actors.BaseActor.getSize</text>
</a>
</g>
</g>
<!-- Node1&#45;&gt;Node3 -->
<g id="edge2" class="edge"><title>Node1&#45;&gt;Node3</title>
<path fill="none" stroke="midnightblue" d="M206.389,-24.4801C219.588,-23.1765 233.201,-21.832 246.566,-20.512"/>
<polygon fill="midnightblue" stroke="midnightblue" points="247.12,-23.9744 256.728,-19.5084 246.432,-17.0083 247.12,-23.9744"/>
</g>
</g>
</svg>
