<?xml version="1.0" encoding="UTF-8" standalone="no"?>
<!DOCTYPE svg PUBLIC "-//W3C//DTD SVG 1.1//EN"
 "http://www.w3.org/Graphics/SVG/1.1/DTD/svg11.dtd">
<!-- Generated by graphviz version 2.36.0 (20140111.2315)
 -->
<!-- Title: gamePlayer.guiItems.headsUpDisplay.GameStat.gameStatProperty Pages: 1 -->
<svg width="1906pt" height="336pt"
 viewBox="0.00 0.00 1906.00 336.05" xmlns="http://www.w3.org/2000/svg" xmlns:xlink="http://www.w3.org/1999/xlink">
<g id="graph0" class="graph" transform="scale(1 1) rotate(0) translate(4 332.051)">
<title>gamePlayer.guiItems.headsUpDisplay.GameStat.gameStatProperty</title>
<polygon fill="white" stroke="none" points="-4,4 -4,-332.051 1902,-332.051 1902,4 -4,4"/>
<!-- Node1 -->
<g id="node1" class="node"><title>Node1</title>
<polygon fill="#bfbfbf" stroke="black" points="0.5,-118.051 0.5,-148.051 207.5,-148.051 207.5,-118.051 0.5,-118.051"/>
<text text-anchor="start" x="8.5" y="-136.051" font-family="Helvetica,sans-Serif" font-size="10.00">gamePlayer.guiItems.heads</text>
<text text-anchor="middle" x="104" y="-125.051" font-family="Helvetica,sans-Serif" font-size="10.00">UpDisplay.GameStat.gameStatProperty</text>
</g>
<!-- Node2 -->
<g id="node2" class="node"><title>Node2</title>
<g id="a_node2"><a xlink:href="../../de/d1a/classgame_player_1_1gui_items_1_1heads_up_display_1_1_game_stat.html#a3340f67d12837232adae8741819b1af7" target="_top" xlink:title="gamePlayer.guiItems.heads\lUpDisplay.GameStat.getGameStat">
<polygon fill="white" stroke="black" points="244,-143.051 244,-173.051 428,-173.051 428,-143.051 244,-143.051"/>
<text text-anchor="start" x="252" y="-161.051" font-family="Helvetica,sans-Serif" font-size="10.00">gamePlayer.guiItems.heads</text>
<text text-anchor="middle" x="336" y="-150.051" font-family="Helvetica,sans-Serif" font-size="10.00">UpDisplay.GameStat.getGameStat</text>
</a>
</g>
</g>
<!-- Node1&#45;&gt;Node2 -->
<g id="edge1" class="edge"><title>Node1&#45;&gt;Node2</title>
<path fill="none" stroke="midnightblue" d="M217.511,-145.281C226.346,-146.241 235.201,-147.204 243.866,-148.146"/>
<polygon fill="midnightblue" stroke="midnightblue" points="217.876,-141.8 207.556,-144.199 217.119,-148.759 217.876,-141.8"/>
</g>
<!-- Node3 -->
<g id="node3" class="node"><title>Node3</title>
<g id="a_node3"><a xlink:href="../../de/d1a/classgame_player_1_1gui_items_1_1heads_up_display_1_1_game_stat.html#a6a0e0959c86d6be192dab0aca0dc6aa2" target="_top" xlink:title="gamePlayer.guiItems.heads\lUpDisplay.GameStat.setGameStat">
<polygon fill="white" stroke="black" points="244.5,-94.0513 244.5,-124.051 427.5,-124.051 427.5,-94.0513 244.5,-94.0513"/>
<text text-anchor="start" x="252.5" y="-112.051" font-family="Helvetica,sans-Serif" font-size="10.00">gamePlayer.guiItems.heads</text>
<text text-anchor="middle" x="336" y="-101.051" font-family="Helvetica,sans-Serif" font-size="10.00">UpDisplay.GameStat.setGameStat</text>
</a>
</g>
</g>
<!-- Node1&#45;&gt;Node3 -->
<g id="edge2" class="edge"><title>Node1&#45;&gt;Node3</title>
<path fill="none" stroke="midnightblue" d="M217.61,-121.301C226.533,-120.37 235.474,-119.437 244.22,-118.524"/>
<polygon fill="midnightblue" stroke="midnightblue" points="217.139,-117.831 207.556,-122.35 217.865,-124.793 217.139,-117.831"/>
</g>
<!-- Node4 -->
<g id="node4" class="node"><title>Node4</title>
<g id="a_node4"><a xlink:href="../../da/d69/classgame_player_1_1main_classes_1_1managers_1_1_gui_manager.html#aa0b614e03bdec959e13e3d5ca2e1f614" target="_top" xlink:title="gamePlayer.mainClasses.managers.\lGuiManager.startMultiPlayerGame">
<polygon fill="white" stroke="black" points="948.5,-153.051 948.5,-183.051 1139.5,-183.051 1139.5,-153.051 948.5,-153.051"/>
<text text-anchor="start" x="956.5" y="-171.051" font-family="Helvetica,sans-Serif" font-size="10.00">gamePlayer.mainClasses.managers.</text>
<text text-anchor="middle" x="1044" y="-160.051" font-family="Helvetica,sans-Serif" font-size="10.00">GuiManager.startMultiPlayerGame</text>
</a>
</g>
</g>
<!-- Node3&#45;&gt;Node4 -->
<g id="edge3" class="edge"><title>Node3&#45;&gt;Node4</title>
<path fill="none" stroke="midnightblue" d="M417.879,-125.918C433.146,-128.651 449.021,-131.191 464,-133.051 633.892,-154.153 833.473,-162.663 948.393,-166"/>
<polygon fill="midnightblue" stroke="midnightblue" points="418.418,-122.458 407.95,-124.098 417.156,-129.343 418.418,-122.458"/>
</g>
<!-- Node16 -->
<g id="node16" class="node"><title>Node16</title>
<g id="a_node16"><a xlink:href="../../da/d69/classgame_player_1_1main_classes_1_1managers_1_1_gui_manager.html#a65aad1ef2aaead2977ee21f0a78696a7" target="_top" xlink:title="gamePlayer.mainClasses.managers.\lGuiManager.setUpHUD">
<polygon fill="white" stroke="black" points="469.5,-94.0513 469.5,-124.051 660.5,-124.051 660.5,-94.0513 469.5,-94.0513"/>
<text text-anchor="start" x="477.5" y="-112.051" font-family="Helvetica,sans-Serif" font-size="10.00">gamePlayer.mainClasses.managers.</text>
<text text-anchor="middle" x="565" y="-101.051" font-family="Helvetica,sans-Serif" font-size="10.00">GuiManager.setUpHUD</text>
</a>
</g>
</g>
<!-- Node3&#45;&gt;Node16 -->
<g id="edge15" class="edge"><title>Node3&#45;&gt;Node16</title>
<path fill="none" stroke="midnightblue" d="M437.724,-109.051C448.244,-109.051 458.913,-109.051 469.362,-109.051"/>
<polygon fill="midnightblue" stroke="midnightblue" points="437.695,-105.551 427.695,-109.051 437.695,-112.551 437.695,-105.551"/>
</g>
<!-- Node23 -->
<g id="node23" class="node"><title>Node23</title>
<g id="a_node23"><a xlink:href="../../d9/df4/classgame_player_1_1main_classes_1_1test_game_manager_1_1_test_game_manager.html#aba61faa510d527ff65780d9ece40c183" target="_top" xlink:title="gamePlayer.mainClasses.test\lGameManager.TestGameManager.test\lLoadingGuiHUD">
<polygon fill="white" stroke="black" points="464.5,-12.5513 464.5,-53.5513 665.5,-53.5513 665.5,-12.5513 464.5,-12.5513"/>
<text text-anchor="start" x="472.5" y="-41.5513" font-family="Helvetica,sans-Serif" font-size="10.00">gamePlayer.mainClasses.test</text>
<text text-anchor="start" x="472.5" y="-30.5513" font-family="Helvetica,sans-Serif" font-size="10.00">GameManager.TestGameManager.test</text>
<text text-anchor="middle" x="565" y="-19.5513" font-family="Helvetica,sans-Serif" font-size="10.00">LoadingGuiHUD</text>
</a>
</g>
</g>
<!-- Node3&#45;&gt;Node23 -->
<g id="edge26" class="edge"><title>Node3&#45;&gt;Node23</title>
<path fill="none" stroke="midnightblue" d="M391.458,-90.8189C424.901,-79.622 467.822,-65.252 502.489,-53.6454"/>
<polygon fill="midnightblue" stroke="midnightblue" points="390.219,-87.5424 381.848,-94.0362 392.442,-94.1802 390.219,-87.5424"/>
</g>
<!-- Node5 -->
<g id="node5" class="node"><title>Node5</title>
<g id="a_node5"><a xlink:href="../../da/d69/classgame_player_1_1main_classes_1_1managers_1_1_gui_manager.html#ad50f462f8d45a5bbfc8a17290372a1ab" target="_top" xlink:title="gamePlayer.mainClasses.managers.\lGuiManager.joinMultiPlayerGame">
<polygon fill="white" stroke="black" points="1190.5,-270.051 1190.5,-300.051 1381.5,-300.051 1381.5,-270.051 1190.5,-270.051"/>
<text text-anchor="start" x="1198.5" y="-288.051" font-family="Helvetica,sans-Serif" font-size="10.00">gamePlayer.mainClasses.managers.</text>
<text text-anchor="middle" x="1286" y="-277.051" font-family="Helvetica,sans-Serif" font-size="10.00">GuiManager.joinMultiPlayerGame</text>
</a>
</g>
</g>
<!-- Node4&#45;&gt;Node5 -->
<g id="edge4" class="edge"><title>Node4&#45;&gt;Node5</title>
<path fill="none" stroke="midnightblue" d="M1069.77,-189.917C1094.86,-210.933 1135.63,-242.076 1176,-260.051 1184.69,-263.921 1194.05,-267.225 1203.5,-270.038"/>
<polygon fill="midnightblue" stroke="midnightblue" points="1071.77,-187.024 1061.89,-183.212 1067.24,-192.356 1071.77,-187.024"/>
</g>
<!-- Node9 -->
<g id="node9" class="node"><title>Node9</title>
<g id="a_node9"><a xlink:href="../../da/d69/classgame_player_1_1main_classes_1_1managers_1_1_gui_manager.html#a3f657f0e3ba1e493d2dd02b5df5e03f6" target="_top" xlink:title="gamePlayer.mainClasses.managers.\lGuiManager.replayGame">
<polygon fill="white" stroke="black" points="1190.5,-102.051 1190.5,-132.051 1381.5,-132.051 1381.5,-102.051 1190.5,-102.051"/>
<text text-anchor="start" x="1198.5" y="-120.051" font-family="Helvetica,sans-Serif" font-size="10.00">gamePlayer.mainClasses.managers.</text>
<text text-anchor="middle" x="1286" y="-109.051" font-family="Helvetica,sans-Serif" font-size="10.00">GuiManager.replayGame</text>
</a>
</g>
</g>
<!-- Node4&#45;&gt;Node9 -->
<g id="edge8" class="edge"><title>Node4&#45;&gt;Node9</title>
<path fill="none" stroke="midnightblue" d="M1125.72,-150.898C1154.45,-144.793 1186.56,-137.97 1214.38,-132.058"/>
<polygon fill="midnightblue" stroke="midnightblue" points="1124.76,-147.523 1115.71,-153.025 1126.22,-154.37 1124.76,-147.523"/>
</g>
<!-- Node10 -->
<g id="node10" class="node"><title>Node10</title>
<g id="a_node10"><a xlink:href="../../d4/d3f/classgame_player_1_1main_classes_1_1managers_1_1_welcome_manager.html#a55598dd2973b0a9b979151dd60c9e436" target="_top" xlink:title="gamePlayer.mainClasses.managers.\lWelcomeManager.pollEngineForMultiPlayer\lReadiness">
<polygon fill="white" stroke="black" points="1176.5,-150.551 1176.5,-191.551 1395.5,-191.551 1395.5,-150.551 1176.5,-150.551"/>
<text text-anchor="start" x="1184.5" y="-179.551" font-family="Helvetica,sans-Serif" font-size="10.00">gamePlayer.mainClasses.managers.</text>
<text text-anchor="start" x="1184.5" y="-168.551" font-family="Helvetica,sans-Serif" font-size="10.00">WelcomeManager.pollEngineForMultiPlayer</text>
<text text-anchor="middle" x="1286" y="-157.551" font-family="Helvetica,sans-Serif" font-size="10.00">Readiness</text>
</a>
</g>
</g>
<!-- Node4&#45;&gt;Node10 -->
<g id="edge9" class="edge"><title>Node4&#45;&gt;Node10</title>
<path fill="none" stroke="midnightblue" d="M1149.77,-169.361C1158.56,-169.471 1167.46,-169.582 1176.28,-169.692"/>
<polygon fill="midnightblue" stroke="midnightblue" points="1149.55,-165.858 1139.51,-169.233 1149.47,-172.858 1149.55,-165.858"/>
</g>
<!-- Node13 -->
<g id="node13" class="node"><title>Node13</title>
<g id="a_node13"><a xlink:href="../../d3/dee/classgame_player_1_1main_classes_1_1welcome_screen_1_1_game_start_manager.html#a5d5001d1ee14ae57deef01f6e3ddde31" target="_top" xlink:title="gamePlayer.mainClasses.welcome\lScreen.GameStartManager.pollEngine\lForMultiPlayerReadiness">
<polygon fill="white" stroke="black" points="1186,-210.551 1186,-251.551 1386,-251.551 1386,-210.551 1186,-210.551"/>
<text text-anchor="start" x="1194" y="-239.551" font-family="Helvetica,sans-Serif" font-size="10.00">gamePlayer.mainClasses.welcome</text>
<text text-anchor="start" x="1194" y="-228.551" font-family="Helvetica,sans-Serif" font-size="10.00">Screen.GameStartManager.pollEngine</text>
<text text-anchor="middle" x="1286" y="-217.551" font-family="Helvetica,sans-Serif" font-size="10.00">ForMultiPlayerReadiness</text>
</a>
</g>
</g>
<!-- Node4&#45;&gt;Node13 -->
<g id="edge12" class="edge"><title>Node4&#45;&gt;Node13</title>
<path fill="none" stroke="midnightblue" d="M1111.92,-185.617C1141.26,-193.32 1175.91,-202.416 1206.47,-210.438"/>
<polygon fill="midnightblue" stroke="midnightblue" points="1112.74,-182.215 1102.18,-183.061 1110.96,-188.986 1112.74,-182.215"/>
</g>
<!-- Node6 -->
<g id="node6" class="node"><title>Node6</title>
<g id="a_node6"><a xlink:href="../../d4/d3f/classgame_player_1_1main_classes_1_1managers_1_1_welcome_manager.html#a71a2a80cfe9d3a07d7becc506178acfd" target="_top" xlink:title="gamePlayer.mainClasses.managers.\lWelcomeManager.joinMultiPlayerGame">
<polygon fill="white" stroke="black" points="1438.5,-297.051 1438.5,-327.051 1639.5,-327.051 1639.5,-297.051 1438.5,-297.051"/>
<text text-anchor="start" x="1446.5" y="-315.051" font-family="Helvetica,sans-Serif" font-size="10.00">gamePlayer.mainClasses.managers.</text>
<text text-anchor="middle" x="1539" y="-304.051" font-family="Helvetica,sans-Serif" font-size="10.00">WelcomeManager.joinMultiPlayerGame</text>
</a>
</g>
</g>
<!-- Node5&#45;&gt;Node6 -->
<g id="edge5" class="edge"><title>Node5&#45;&gt;Node6</title>
<path fill="none" stroke="midnightblue" d="M1391.58,-296.301C1406.98,-297.957 1422.81,-299.66 1438.11,-301.306"/>
<polygon fill="midnightblue" stroke="midnightblue" points="1391.85,-292.81 1381.53,-295.22 1391.1,-299.77 1391.85,-292.81"/>
</g>
<!-- Node8 -->
<g id="node8" class="node"><title>Node8</title>
<g id="a_node8"><a xlink:href="../../d3/dee/classgame_player_1_1main_classes_1_1welcome_screen_1_1_game_start_manager.html#a7465850240e12e23aec544dbfd08f6a0" target="_top" xlink:title="gamePlayer.mainClasses.welcome\lScreen.GameStartManager.joinMulti\lPlayerGame">
<polygon fill="white" stroke="black" points="1444,-237.551 1444,-278.551 1634,-278.551 1634,-237.551 1444,-237.551"/>
<text text-anchor="start" x="1452" y="-266.551" font-family="Helvetica,sans-Serif" font-size="10.00">gamePlayer.mainClasses.welcome</text>
<text text-anchor="start" x="1452" y="-255.551" font-family="Helvetica,sans-Serif" font-size="10.00">Screen.GameStartManager.joinMulti</text>
<text text-anchor="middle" x="1539" y="-244.551" font-family="Helvetica,sans-Serif" font-size="10.00">PlayerGame</text>
</a>
</g>
</g>
<!-- Node5&#45;&gt;Node8 -->
<g id="edge7" class="edge"><title>Node5&#45;&gt;Node8</title>
<path fill="none" stroke="midnightblue" d="M1391.67,-273.792C1409.02,-271.926 1426.91,-270.002 1443.97,-268.166"/>
<polygon fill="midnightblue" stroke="midnightblue" points="1391.1,-270.333 1381.53,-274.882 1391.85,-277.293 1391.1,-270.333"/>
</g>
<!-- Node7 -->
<g id="node7" class="node"><title>Node7</title>
<g id="a_node7"><a xlink:href="../../d4/d3f/classgame_player_1_1main_classes_1_1managers_1_1_welcome_manager.html#aa605746e09c481b225463d37a82427e3" target="_top" xlink:title="gamePlayer.mainClasses.managers.\lWelcomeManager.startMultiPlayerOptions">
<polygon fill="white" stroke="black" points="1682.5,-297.051 1682.5,-327.051 1897.5,-327.051 1897.5,-297.051 1682.5,-297.051"/>
<text text-anchor="start" x="1690.5" y="-315.051" font-family="Helvetica,sans-Serif" font-size="10.00">gamePlayer.mainClasses.managers.</text>
<text text-anchor="middle" x="1790" y="-304.051" font-family="Helvetica,sans-Serif" font-size="10.00">WelcomeManager.startMultiPlayerOptions</text>
</a>
</g>
</g>
<!-- Node6&#45;&gt;Node7 -->
<g id="edge6" class="edge"><title>Node6&#45;&gt;Node7</title>
<path fill="none" stroke="midnightblue" d="M1650.03,-312.051C1660.72,-312.051 1671.55,-312.051 1682.2,-312.051"/>
<polygon fill="midnightblue" stroke="midnightblue" points="1649.84,-308.551 1639.84,-312.051 1649.84,-315.551 1649.84,-308.551"/>
</g>
<!-- Node11 -->
<g id="node11" class="node"><title>Node11</title>
<g id="a_node11"><a xlink:href="../../d4/d3f/classgame_player_1_1main_classes_1_1managers_1_1_welcome_manager.html#a0669db103a94675dce875042258da508" target="_top" xlink:title="gamePlayer.mainClasses.managers.\lWelcomeManager.startMultiPlayerGame">
<polygon fill="white" stroke="black" points="1435.5,-126.051 1435.5,-156.051 1642.5,-156.051 1642.5,-126.051 1435.5,-126.051"/>
<text text-anchor="start" x="1443.5" y="-144.051" font-family="Helvetica,sans-Serif" font-size="10.00">gamePlayer.mainClasses.managers.</text>
<text text-anchor="middle" x="1539" y="-133.051" font-family="Helvetica,sans-Serif" font-size="10.00">WelcomeManager.startMultiPlayerGame</text>
</a>
</g>
</g>
<!-- Node10&#45;&gt;Node11 -->
<g id="edge10" class="edge"><title>Node10&#45;&gt;Node11</title>
<path fill="none" stroke="midnightblue" d="M1405.82,-156.85C1415.62,-155.679 1425.48,-154.5 1435.15,-153.345"/>
<polygon fill="midnightblue" stroke="midnightblue" points="1405.15,-153.405 1395.63,-158.067 1405.98,-160.356 1405.15,-153.405"/>
</g>
<!-- Node12 -->
<g id="node12" class="node"><title>Node12</title>
<g id="a_node12"><a xlink:href="../../d4/d3f/classgame_player_1_1main_classes_1_1managers_1_1_welcome_manager.html#ae6495396aef63551116c0835c40574e1" target="_top" xlink:title="gamePlayer.mainClasses.managers.\lWelcomeManager.startGame">
<polygon fill="white" stroke="black" points="1694.5,-77.0513 1694.5,-107.051 1885.5,-107.051 1885.5,-77.0513 1694.5,-77.0513"/>
<text text-anchor="start" x="1702.5" y="-95.0513" font-family="Helvetica,sans-Serif" font-size="10.00">gamePlayer.mainClasses.managers.</text>
<text text-anchor="middle" x="1790" y="-84.0513" font-family="Helvetica,sans-Serif" font-size="10.00">WelcomeManager.startGame</text>
</a>
</g>
</g>
<!-- Node11&#45;&gt;Node12 -->
<g id="edge11" class="edge"><title>Node11&#45;&gt;Node12</title>
<path fill="none" stroke="midnightblue" d="M1626.22,-124.084C1654.36,-118.546 1685.39,-112.44 1712.74,-107.058"/>
<polygon fill="midnightblue" stroke="midnightblue" points="1625.54,-120.652 1616.4,-126.017 1626.89,-127.52 1625.54,-120.652"/>
</g>
<!-- Node14 -->
<g id="node14" class="node"><title>Node14</title>
<g id="a_node14"><a xlink:href="../../d3/dee/classgame_player_1_1main_classes_1_1welcome_screen_1_1_game_start_manager.html#a994c29260d6cb90abf19dca2b3463b6a" target="_top" xlink:title="gamePlayer.mainClasses.welcome\lScreen.GameStartManager.startMulti\lPlayerGame">
<polygon fill="white" stroke="black" points="1441,-176.551 1441,-217.551 1637,-217.551 1637,-176.551 1441,-176.551"/>
<text text-anchor="start" x="1449" y="-205.551" font-family="Helvetica,sans-Serif" font-size="10.00">gamePlayer.mainClasses.welcome</text>
<text text-anchor="start" x="1449" y="-194.551" font-family="Helvetica,sans-Serif" font-size="10.00">Screen.GameStartManager.startMulti</text>
<text text-anchor="middle" x="1539" y="-183.551" font-family="Helvetica,sans-Serif" font-size="10.00">PlayerGame</text>
</a>
</g>
</g>
<!-- Node13&#45;&gt;Node14 -->
<g id="edge13" class="edge"><title>Node13&#45;&gt;Node14</title>
<path fill="none" stroke="midnightblue" d="M1396.37,-216.237C1411.14,-214.236 1426.21,-212.194 1440.75,-210.225"/>
<polygon fill="midnightblue" stroke="midnightblue" points="1395.64,-212.803 1386.2,-217.614 1396.58,-219.74 1395.64,-212.803"/>
</g>
<!-- Node15 -->
<g id="node15" class="node"><title>Node15</title>
<g id="a_node15"><a xlink:href="../../d3/dee/classgame_player_1_1main_classes_1_1welcome_screen_1_1_game_start_manager.html#a4ac849399bf00c6df86f0db25ea95ed8" target="_top" xlink:title="gamePlayer.mainClasses.welcome\lScreen.GameStartManager.startGame">
<polygon fill="white" stroke="black" points="1688.5,-154.051 1688.5,-184.051 1891.5,-184.051 1891.5,-154.051 1688.5,-154.051"/>
<text text-anchor="start" x="1696.5" y="-172.051" font-family="Helvetica,sans-Serif" font-size="10.00">gamePlayer.mainClasses.welcome</text>
<text text-anchor="middle" x="1790" y="-161.051" font-family="Helvetica,sans-Serif" font-size="10.00">Screen.GameStartManager.startGame</text>
</a>
</g>
</g>
<!-- Node14&#45;&gt;Node15 -->
<g id="edge14" class="edge"><title>Node14&#45;&gt;Node15</title>
<path fill="none" stroke="midnightblue" d="M1647.64,-184.947C1661.19,-183.424 1675.01,-181.869 1688.45,-180.359"/>
<polygon fill="midnightblue" stroke="midnightblue" points="1646.89,-181.51 1637.34,-186.106 1647.67,-188.466 1646.89,-181.51"/>
</g>
<!-- Node17 -->
<g id="node17" class="node"><title>Node17</title>
<g id="a_node17"><a xlink:href="../../da/d69/classgame_player_1_1main_classes_1_1managers_1_1_gui_manager.html#a02a63a3d495b31cce0c4976f95758a49" target="_top" xlink:title="gamePlayer.mainClasses.managers.\lGuiManager.startGame">
<polygon fill="white" stroke="black" points="711.5,-54.0513 711.5,-84.0513 902.5,-84.0513 902.5,-54.0513 711.5,-54.0513"/>
<text text-anchor="start" x="719.5" y="-72.0513" font-family="Helvetica,sans-Serif" font-size="10.00">gamePlayer.mainClasses.managers.</text>
<text text-anchor="middle" x="807" y="-61.0513" font-family="Helvetica,sans-Serif" font-size="10.00">GuiManager.startGame</text>
</a>
</g>
</g>
<!-- Node16&#45;&gt;Node17 -->
<g id="edge16" class="edge"><title>Node16&#45;&gt;Node17</title>
<path fill="none" stroke="midnightblue" d="M666.221,-92.3479C682.68,-89.6047 699.649,-86.7764 715.845,-84.0772"/>
<polygon fill="midnightblue" stroke="midnightblue" points="665.338,-88.9466 656.05,-94.043 666.489,-95.8513 665.338,-88.9466"/>
</g>
<!-- Node19 -->
<g id="node19" class="node"><title>Node19</title>
<g id="a_node19"><a xlink:href="../../da/d69/classgame_player_1_1main_classes_1_1managers_1_1_gui_manager.html#a6f0d5fa9c335707fd051fa83bd82f9bf" target="_top" xlink:title="gamePlayer.mainClasses.managers.\lGuiManager.initializeNewGameElements">
<polygon fill="white" stroke="black" points="702.5,-103.051 702.5,-133.051 911.5,-133.051 911.5,-103.051 702.5,-103.051"/>
<text text-anchor="start" x="710.5" y="-121.051" font-family="Helvetica,sans-Serif" font-size="10.00">gamePlayer.mainClasses.managers.</text>
<text text-anchor="middle" x="807" y="-110.051" font-family="Helvetica,sans-Serif" font-size="10.00">GuiManager.initializeNewGameElements</text>
</a>
</g>
</g>
<!-- Node16&#45;&gt;Node19 -->
<g id="edge18" class="edge"><title>Node16&#45;&gt;Node19</title>
<path fill="none" stroke="midnightblue" d="M670.589,-112.973C681.164,-113.37 691.902,-113.773 702.467,-114.169"/>
<polygon fill="midnightblue" stroke="midnightblue" points="670.634,-109.473 660.51,-112.595 670.372,-116.468 670.634,-109.473"/>
</g>
<!-- Node18 -->
<g id="node18" class="node"><title>Node18</title>
<g id="a_node18"><a xlink:href="../../da/d69/classgame_player_1_1main_classes_1_1managers_1_1_gui_manager.html#a287842e1d39b7ecf2e13befeeafa1a7b" target="_top" xlink:title="gamePlayer.mainClasses.managers.\lGuiManager.loadGame">
<polygon fill="white" stroke="black" points="948.5,-53.0513 948.5,-83.0513 1139.5,-83.0513 1139.5,-53.0513 948.5,-53.0513"/>
<text text-anchor="start" x="956.5" y="-71.0513" font-family="Helvetica,sans-Serif" font-size="10.00">gamePlayer.mainClasses.managers.</text>
<text text-anchor="middle" x="1044" y="-60.0513" font-family="Helvetica,sans-Serif" font-size="10.00">GuiManager.loadGame</text>
</a>
</g>
</g>
<!-- Node17&#45;&gt;Node18 -->
<g id="edge17" class="edge"><title>Node17&#45;&gt;Node18</title>
<path fill="none" stroke="midnightblue" d="M912.865,-68.6051C924.647,-68.555 936.6,-68.5041 948.243,-68.4546"/>
<polygon fill="midnightblue" stroke="midnightblue" points="912.553,-65.1063 902.568,-68.6489 912.583,-72.1062 912.553,-65.1063"/>
</g>
<!-- Node19&#45;&gt;Node4 -->
<g id="edge25" class="edge"><title>Node19&#45;&gt;Node4</title>
<path fill="none" stroke="midnightblue" d="M888.382,-135.154C915.579,-140.94 945.733,-147.356 972.136,-152.974"/>
<polygon fill="midnightblue" stroke="midnightblue" points="889.017,-131.711 878.508,-133.053 887.56,-138.558 889.017,-131.711"/>
</g>
<!-- Node20 -->
<g id="node20" class="node"><title>Node20</title>
<g id="a_node20"><a xlink:href="../../da/d69/classgame_player_1_1main_classes_1_1managers_1_1_gui_manager.html#aa9b035d2a17b73719ca8a26d8ebde9ce" target="_top" xlink:title="gamePlayer.mainClasses.managers.\lGuiManager.startSinglePlayerGame">
<polygon fill="white" stroke="black" points="948.5,-102.051 948.5,-132.051 1139.5,-132.051 1139.5,-102.051 948.5,-102.051"/>
<text text-anchor="start" x="956.5" y="-120.051" font-family="Helvetica,sans-Serif" font-size="10.00">gamePlayer.mainClasses.managers.</text>
<text text-anchor="middle" x="1044" y="-109.051" font-family="Helvetica,sans-Serif" font-size="10.00">GuiManager.startSinglePlayerGame</text>
</a>
</g>
</g>
<!-- Node19&#45;&gt;Node20 -->
<g id="edge19" class="edge"><title>Node19&#45;&gt;Node20</title>
<path fill="none" stroke="midnightblue" d="M921.778,-117.567C930.672,-117.529 939.595,-117.491 948.342,-117.454"/>
<polygon fill="midnightblue" stroke="midnightblue" points="921.743,-114.067 911.758,-117.61 921.773,-121.067 921.743,-114.067"/>
</g>
<!-- Node20&#45;&gt;Node9 -->
<g id="edge20" class="edge"><title>Node20&#45;&gt;Node9</title>
<path fill="none" stroke="midnightblue" d="M1149.74,-117.051C1163.19,-117.051 1176.9,-117.051 1190.18,-117.051"/>
<polygon fill="midnightblue" stroke="midnightblue" points="1149.51,-113.551 1139.51,-117.051 1149.51,-120.551 1149.51,-113.551"/>
</g>
<!-- Node21 -->
<g id="node21" class="node"><title>Node21</title>
<g id="a_node21"><a xlink:href="../../d4/d3f/classgame_player_1_1main_classes_1_1managers_1_1_welcome_manager.html#a5da8d3f5b8bc1c4bd4c555140bd9384c" target="_top" xlink:title="gamePlayer.mainClasses.managers.\lWelcomeManager.startSinglePlayerGame">
<polygon fill="white" stroke="black" points="1432,-27.0513 1432,-57.0513 1646,-57.0513 1646,-27.0513 1432,-27.0513"/>
<text text-anchor="start" x="1440" y="-45.0513" font-family="Helvetica,sans-Serif" font-size="10.00">gamePlayer.mainClasses.managers.</text>
<text text-anchor="middle" x="1539" y="-34.0513" font-family="Helvetica,sans-Serif" font-size="10.00">WelcomeManager.startSinglePlayerGame</text>
</a>
</g>
</g>
<!-- Node20&#45;&gt;Node21 -->
<g id="edge21" class="edge"><title>Node20&#45;&gt;Node21</title>
<path fill="none" stroke="midnightblue" d="M1132.09,-97.2656C1134.84,-95.6609 1137.48,-93.9263 1140,-92.0513 1164.64,-73.7034 1149.21,-48.0865 1176,-33.0513 1277.01,23.6433 1420.14,-5.9334 1492.43,-26.9661"/>
<polygon fill="midnightblue" stroke="midnightblue" points="1130.3,-94.2514 1123.03,-101.961 1133.52,-100.466 1130.3,-94.2514"/>
</g>
<!-- Node22 -->
<g id="node22" class="node"><title>Node22</title>
<g id="a_node22"><a xlink:href="../../d3/dee/classgame_player_1_1main_classes_1_1welcome_screen_1_1_game_start_manager.html#a0c44b3f25d2a30fe2e7aeca9da7161a9" target="_top" xlink:title="gamePlayer.mainClasses.welcome\lScreen.GameStartManager.startSingle\lPlayerGame">
<polygon fill="white" stroke="black" points="1184.5,-42.5513 1184.5,-83.5513 1387.5,-83.5513 1387.5,-42.5513 1184.5,-42.5513"/>
<text text-anchor="start" x="1192.5" y="-71.5513" font-family="Helvetica,sans-Serif" font-size="10.00">gamePlayer.mainClasses.welcome</text>
<text text-anchor="start" x="1192.5" y="-60.5513" font-family="Helvetica,sans-Serif" font-size="10.00">Screen.GameStartManager.startSingle</text>
<text text-anchor="middle" x="1286" y="-49.5513" font-family="Helvetica,sans-Serif" font-size="10.00">PlayerGame</text>
</a>
</g>
</g>
<!-- Node20&#45;&gt;Node22 -->
<g id="edge23" class="edge"><title>Node20&#45;&gt;Node22</title>
<path fill="none" stroke="midnightblue" d="M1121.85,-99.7591C1144.77,-94.6033 1170.11,-88.9027 1193.84,-83.5621"/>
<polygon fill="midnightblue" stroke="midnightblue" points="1120.84,-96.3995 1111.85,-102.009 1122.38,-103.229 1120.84,-96.3995"/>
</g>
<!-- Node21&#45;&gt;Node12 -->
<g id="edge22" class="edge"><title>Node21&#45;&gt;Node12</title>
<path fill="none" stroke="midnightblue" d="M1624.79,-59.0777C1653.71,-64.8841 1685.82,-71.3315 1713.91,-76.9739"/>
<polygon fill="midnightblue" stroke="midnightblue" points="1625.2,-55.5903 1614.71,-57.053 1623.82,-62.4533 1625.2,-55.5903"/>
</g>
<!-- Node22&#45;&gt;Node15 -->
<g id="edge24" class="edge"><title>Node22&#45;&gt;Node15</title>
<path fill="none" stroke="midnightblue" d="M1397.48,-73.339C1469.09,-81.4776 1563.96,-95.0364 1646,-116.051 1684.09,-125.807 1726.11,-142.079 1754.68,-154.024"/>
<polygon fill="midnightblue" stroke="midnightblue" points="1397.87,-69.8599 1387.54,-72.2263 1397.09,-76.8165 1397.87,-69.8599"/>
</g>
<!-- Node24 -->
<g id="node24" class="node"><title>Node24</title>
<g id="a_node24"><a xlink:href="../../d9/df4/classgame_player_1_1main_classes_1_1test_game_manager_1_1_test_game_manager.html#acd60c6a57fa3cb28e5c8b1a884d3180d" target="_top" xlink:title="gamePlayer.mainClasses.test\lGameManager.TestGameManager.run">
<polygon fill="white" stroke="black" points="708,-5.05134 708,-35.0513 906,-35.0513 906,-5.05134 708,-5.05134"/>
<text text-anchor="start" x="716" y="-23.0513" font-family="Helvetica,sans-Serif" font-size="10.00">gamePlayer.mainClasses.test</text>
<text text-anchor="middle" x="807" y="-12.0513" font-family="Helvetica,sans-Serif" font-size="10.00">GameManager.TestGameManager.run</text>
</a>
</g>
</g>
<!-- Node23&#45;&gt;Node24 -->
<g id="edge27" class="edge"><title>Node23&#45;&gt;Node24</title>
<path fill="none" stroke="midnightblue" d="M675.857,-27.1007C686.501,-26.5242 697.252,-25.9419 707.772,-25.372"/>
<polygon fill="midnightblue" stroke="midnightblue" points="675.493,-23.6153 665.697,-27.6511 675.871,-30.605 675.493,-23.6153"/>
</g>
</g>
</svg>
