<?xml version="1.0" encoding="UTF-8" standalone="no"?>
<!DOCTYPE svg PUBLIC "-//W3C//DTD SVG 1.1//EN"
 "http://www.w3.org/Graphics/SVG/1.1/DTD/svg11.dtd">
<!-- Generated by graphviz version 2.36.0 (20140111.2315)
 -->
<!-- Title: gamePlayer.guiItems.headsUpDisplay.GameStat.statValueProperty Pages: 1 -->
<!--zoomable 388 -->
<svg id="main" version="1.1" xmlns="http://www.w3.org/2000/svg" xmlns:xlink="http://www.w3.org/1999/xlink" xml:space="preserve" onload="init(evt)">
<style type="text/css"><![CDATA[
.edge:hover path { stroke: red; }
.edge:hover polygon { stroke: red; fill: red; }
]]></style>
<script type="text/javascript"><![CDATA[
var edges = document.getElementsByTagName('g');
if (edges && edges.length) {
  for (var i=0;i<edges.length;i++) {
    if (edges[i].id.substr(0,4)=='edge') {
      edges[i].setAttribute('class','edge');
    }
  }
}
]]></script>
        <defs>
                <circle id="rim" cx="0" cy="0" r="7"/>
                <circle id="rim2" cx="0" cy="0" r="3.5"/>
                <g id="zoomPlus">
                        <use xlink:href="#rim" fill="#404040">
                                <set attributeName="fill" to="#808080" begin="zoomplus.mouseover" end="zoomplus.mouseout"/>
                        </use>
                        <path d="M-4,0h8M0,-4v8" fill="none" stroke="white" stroke-width="1.5" pointer-events="none"/>
                </g>
                <g id="zoomMin">
                        <use xlink:href="#rim" fill="#404040">
                                <set attributeName="fill" to="#808080" begin="zoomminus.mouseover" end="zoomminus.mouseout"/>
                        </use>
                        <path d="M-4,0h8" fill="none" stroke="white" stroke-width="1.5" pointer-events="none"/>
                </g>
                <g id="dirArrow">
                        <path fill="none" stroke="white" stroke-width="1.5" d="M0,-3.0v7 M-2.5,-0.5L0,-3.0L2.5,-0.5"/>
                </g>
               <g id="resetDef">
                       <use xlink:href="#rim2" fill="#404040">
                               <set attributeName="fill" to="#808080" begin="reset.mouseover" end="reset.mouseout"/>
                       </use>
               </g>
        </defs>

<script type="text/javascript">
var viewWidth = 1678;
var viewHeight = 388;
var sectionId = 'dynsection-9';
</script>
<script xlink:href="../../svgpan.js"/>
<svg id="graph" class="graph">
<g id="viewport">
<title>gamePlayer.guiItems.headsUpDisplay.GameStat.statValueProperty</title>
<polygon fill="white" stroke="none" points="-4,4 -4,-384 1674,-384 1674,4 -4,4"/>
<!-- Node1 -->
<g id="node1" class="node"><title>Node1</title>
<polygon fill="#bfbfbf" stroke="black" points="0,-266 0,-296 204,-296 204,-266 0,-266"/>
<text text-anchor="start" x="8" y="-284" font-family="Helvetica,sans-Serif" font-size="10.00">gamePlayer.guiItems.heads</text>
<text text-anchor="middle" x="102" y="-273" font-family="Helvetica,sans-Serif" font-size="10.00">UpDisplay.GameStat.statValueProperty</text>
</g>
<!-- Node2 -->
<g id="node2" class="node"><title>Node2</title>
<g id="a_node2"><a xlink:href="../../de/d1a/classgame_player_1_1gui_items_1_1heads_up_display_1_1_game_stat.html#ae7cfa5e0a3a681fd6c928944ec94792e" target="_top" xlink:title="gamePlayer.guiItems.heads\lUpDisplay.GameStat.getStatValue">
<polygon fill="white" stroke="black" points="245.5,-345 245.5,-375 426.5,-375 426.5,-345 245.5,-345"/>
<text text-anchor="start" x="253.5" y="-363" font-family="Helvetica,sans-Serif" font-size="10.00">gamePlayer.guiItems.heads</text>
<text text-anchor="middle" x="336" y="-352" font-family="Helvetica,sans-Serif" font-size="10.00">UpDisplay.GameStat.getStatValue</text>
</a>
</g>
</g>
<!-- Node1&#45;&gt;Node2 -->
<g id="edge1" class="edge"><title>Node1&#45;&gt;Node2</title>
<path fill="none" stroke="midnightblue" d="M152.002,-299.607C178.026,-309.306 210.621,-321.163 240,-331 254.226,-335.764 269.755,-340.639 284.058,-344.999"/>
<polygon fill="midnightblue" stroke="midnightblue" points="152.963,-296.23 142.371,-296.005 150.511,-302.786 152.963,-296.23"/>
</g>
<!-- Node5 -->
<g id="node5" class="node"><title>Node5</title>
<g id="a_node5"><a xlink:href="../../de/d1a/classgame_player_1_1gui_items_1_1heads_up_display_1_1_game_stat.html#a288604a4395900eb1f99af7e6d040d4b" target="_top" xlink:title="gamePlayer.guiItems.heads\lUpDisplay.GameStat.setStatValue">
<polygon fill="white" stroke="black" points="246,-292 246,-322 426,-322 426,-292 246,-292"/>
<text text-anchor="start" x="254" y="-310" font-family="Helvetica,sans-Serif" font-size="10.00">gamePlayer.guiItems.heads</text>
<text text-anchor="middle" x="336" y="-299" font-family="Helvetica,sans-Serif" font-size="10.00">UpDisplay.GameStat.setStatValue</text>
</a>
</g>
</g>
<!-- Node1&#45;&gt;Node5 -->
<g id="edge4" class="edge"><title>Node1&#45;&gt;Node5</title>
<path fill="none" stroke="midnightblue" d="M214.237,-293.466C224.857,-294.656 235.53,-295.852 245.899,-297.015"/>
<polygon fill="midnightblue" stroke="midnightblue" points="214.411,-289.964 204.084,-292.328 213.632,-296.92 214.411,-289.964"/>
</g>
<!-- Node8 -->
<g id="node8" class="node"><title>Node8</title>
<g id="a_node8"><a xlink:href="../../da/d69/classgame_player_1_1main_classes_1_1managers_1_1_gui_manager.html#a65aad1ef2aaead2977ee21f0a78696a7" target="_top" xlink:title="gamePlayer.mainClasses.managers.\lGuiManager.setUpHUD">
<polygon fill="white" stroke="black" points="240.5,-241 240.5,-271 431.5,-271 431.5,-241 240.5,-241"/>
<text text-anchor="start" x="248.5" y="-259" font-family="Helvetica,sans-Serif" font-size="10.00">gamePlayer.mainClasses.managers.</text>
<text text-anchor="middle" x="336" y="-248" font-family="Helvetica,sans-Serif" font-size="10.00">GuiManager.setUpHUD</text>
</a>
</g>
</g>
<!-- Node1&#45;&gt;Node8 -->
<g id="edge7" class="edge"><title>Node1&#45;&gt;Node8</title>
<path fill="none" stroke="midnightblue" d="M214.038,-269.035C222.88,-268.082 231.76,-267.125 240.472,-266.186"/>
<polygon fill="midnightblue" stroke="midnightblue" points="213.651,-265.556 204.084,-270.107 214.401,-272.516 213.651,-265.556"/>
</g>
<!-- Node18 -->
<g id="node18" class="node"><title>Node18</title>
<g id="a_node18"><a xlink:href="../../da/d69/classgame_player_1_1main_classes_1_1managers_1_1_gui_manager.html#aa0b614e03bdec959e13e3d5ca2e1f614" target="_top" xlink:title="gamePlayer.mainClasses.managers.\lGuiManager.startMultiPlayerGame">
<polygon fill="white" stroke="black" points="717.5,-143 717.5,-173 908.5,-173 908.5,-143 717.5,-143"/>
<text text-anchor="start" x="725.5" y="-161" font-family="Helvetica,sans-Serif" font-size="10.00">gamePlayer.mainClasses.managers.</text>
<text text-anchor="middle" x="813" y="-150" font-family="Helvetica,sans-Serif" font-size="10.00">GuiManager.startMultiPlayerGame</text>
</a>
</g>
</g>
<!-- Node1&#45;&gt;Node18 -->
<g id="edge29" class="edge"><title>Node1&#45;&gt;Node18</title>
<path fill="none" stroke="midnightblue" d="M149.377,-262.26C175.668,-252.097 209.342,-239.843 240,-231 339.587,-202.275 365.377,-196.532 468,-182 551.876,-170.122 648.127,-164.043 717.447,-160.98"/>
<polygon fill="midnightblue" stroke="midnightblue" points="148.089,-259.005 140.044,-265.899 150.633,-265.527 148.089,-259.005"/>
</g>
<!-- Node3 -->
<g id="node3" class="node"><title>Node3</title>
<g id="a_node3"><a xlink:href="../../da/d69/classgame_player_1_1main_classes_1_1managers_1_1_gui_manager.html#a24eb4ad0dc462b3286f646544a33a42b" target="_top" xlink:title="gamePlayer.mainClasses.managers.\lGuiManager.checkGold">
<polygon fill="white" stroke="black" points="477.5,-349 477.5,-379 668.5,-379 668.5,-349 477.5,-349"/>
<text text-anchor="start" x="485.5" y="-367" font-family="Helvetica,sans-Serif" font-size="10.00">gamePlayer.mainClasses.managers.</text>
<text text-anchor="middle" x="573" y="-356" font-family="Helvetica,sans-Serif" font-size="10.00">GuiManager.checkGold</text>
</a>
</g>
</g>
<!-- Node2&#45;&gt;Node3 -->
<g id="edge2" class="edge"><title>Node2&#45;&gt;Node3</title>
<path fill="none" stroke="midnightblue" d="M436.717,-361.697C450.156,-361.926 463.914,-362.16 477.263,-362.387"/>
<polygon fill="midnightblue" stroke="midnightblue" points="436.572,-358.194 426.514,-361.524 436.453,-365.193 436.572,-358.194"/>
</g>
<!-- Node4 -->
<g id="node4" class="node"><title>Node4</title>
<g id="a_node4"><a xlink:href="../../da/d69/classgame_player_1_1main_classes_1_1managers_1_1_gui_manager.html#ae90e338dc9959e32627518bde3fdf2ff" target="_top" xlink:title="gamePlayer.mainClasses.managers.\lGuiManager.placeTower">
<polygon fill="white" stroke="black" points="717.5,-349 717.5,-379 908.5,-379 908.5,-349 717.5,-349"/>
<text text-anchor="start" x="725.5" y="-367" font-family="Helvetica,sans-Serif" font-size="10.00">gamePlayer.mainClasses.managers.</text>
<text text-anchor="middle" x="813" y="-356" font-family="Helvetica,sans-Serif" font-size="10.00">GuiManager.placeTower</text>
</a>
</g>
</g>
<!-- Node3&#45;&gt;Node4 -->
<g id="edge3" class="edge"><title>Node3&#45;&gt;Node4</title>
<path fill="none" stroke="midnightblue" d="M678.907,-364C691.648,-364 704.607,-364 717.189,-364"/>
<polygon fill="midnightblue" stroke="midnightblue" points="678.748,-360.5 668.748,-364 678.748,-367.5 678.748,-360.5"/>
</g>
<!-- Node6 -->
<g id="node6" class="node"><title>Node6</title>
<g id="a_node6"><a xlink:href="../../d9/df4/classgame_player_1_1main_classes_1_1test_game_manager_1_1_test_game_manager.html#aba61faa510d527ff65780d9ece40c183" target="_top" xlink:title="gamePlayer.mainClasses.test\lGameManager.TestGameManager.test\lLoadingGuiHUD">
<polygon fill="white" stroke="black" points="472.5,-289.5 472.5,-330.5 673.5,-330.5 673.5,-289.5 472.5,-289.5"/>
<text text-anchor="start" x="480.5" y="-318.5" font-family="Helvetica,sans-Serif" font-size="10.00">gamePlayer.mainClasses.test</text>
<text text-anchor="start" x="480.5" y="-307.5" font-family="Helvetica,sans-Serif" font-size="10.00">GameManager.TestGameManager.test</text>
<text text-anchor="middle" x="573" y="-296.5" font-family="Helvetica,sans-Serif" font-size="10.00">LoadingGuiHUD</text>
</a>
</g>
</g>
<!-- Node5&#45;&gt;Node6 -->
<g id="edge5" class="edge"><title>Node5&#45;&gt;Node6</title>
<path fill="none" stroke="midnightblue" d="M436.505,-308.27C448.343,-308.421 460.431,-308.576 472.272,-308.727"/>
<polygon fill="midnightblue" stroke="midnightblue" points="436.222,-304.766 426.179,-308.138 436.133,-311.766 436.222,-304.766"/>
</g>
<!-- Node7 -->
<g id="node7" class="node"><title>Node7</title>
<g id="a_node7"><a xlink:href="../../d9/df4/classgame_player_1_1main_classes_1_1test_game_manager_1_1_test_game_manager.html#acd60c6a57fa3cb28e5c8b1a884d3180d" target="_top" xlink:title="gamePlayer.mainClasses.test\lGameManager.TestGameManager.run">
<polygon fill="white" stroke="black" points="714,-295 714,-325 912,-325 912,-295 714,-295"/>
<text text-anchor="start" x="722" y="-313" font-family="Helvetica,sans-Serif" font-size="10.00">gamePlayer.mainClasses.test</text>
<text text-anchor="middle" x="813" y="-302" font-family="Helvetica,sans-Serif" font-size="10.00">GameManager.TestGameManager.run</text>
</a>
</g>
</g>
<!-- Node6&#45;&gt;Node7 -->
<g id="edge6" class="edge"><title>Node6&#45;&gt;Node7</title>
<path fill="none" stroke="midnightblue" d="M683.638,-310C693.762,-310 703.978,-310 713.989,-310"/>
<polygon fill="midnightblue" stroke="midnightblue" points="683.554,-306.5 673.554,-310 683.554,-313.5 683.554,-306.5"/>
</g>
<!-- Node9 -->
<g id="node9" class="node"><title>Node9</title>
<g id="a_node9"><a xlink:href="../../da/d69/classgame_player_1_1main_classes_1_1managers_1_1_gui_manager.html#a02a63a3d495b31cce0c4976f95758a49" target="_top" xlink:title="gamePlayer.mainClasses.managers.\lGuiManager.startGame">
<polygon fill="white" stroke="black" points="477.5,-241 477.5,-271 668.5,-271 668.5,-241 477.5,-241"/>
<text text-anchor="start" x="485.5" y="-259" font-family="Helvetica,sans-Serif" font-size="10.00">gamePlayer.mainClasses.managers.</text>
<text text-anchor="middle" x="573" y="-248" font-family="Helvetica,sans-Serif" font-size="10.00">GuiManager.startGame</text>
</a>
</g>
</g>
<!-- Node8&#45;&gt;Node9 -->
<g id="edge8" class="edge"><title>Node8&#45;&gt;Node9</title>
<path fill="none" stroke="midnightblue" d="M441.865,-256C453.647,-256 465.6,-256 477.243,-256"/>
<polygon fill="midnightblue" stroke="midnightblue" points="441.568,-252.5 431.568,-256 441.568,-259.5 441.568,-252.5"/>
</g>
<!-- Node11 -->
<g id="node11" class="node"><title>Node11</title>
<g id="a_node11"><a xlink:href="../../da/d69/classgame_player_1_1main_classes_1_1managers_1_1_gui_manager.html#a6f0d5fa9c335707fd051fa83bd82f9bf" target="_top" xlink:title="gamePlayer.mainClasses.managers.\lGuiManager.initializeNewGameElements">
<polygon fill="white" stroke="black" points="468.5,-192 468.5,-222 677.5,-222 677.5,-192 468.5,-192"/>
<text text-anchor="start" x="476.5" y="-210" font-family="Helvetica,sans-Serif" font-size="10.00">gamePlayer.mainClasses.managers.</text>
<text text-anchor="middle" x="573" y="-199" font-family="Helvetica,sans-Serif" font-size="10.00">GuiManager.initializeNewGameElements</text>
</a>
</g>
</g>
<!-- Node8&#45;&gt;Node11 -->
<g id="edge10" class="edge"><title>Node8&#45;&gt;Node11</title>
<path fill="none" stroke="midnightblue" d="M419.071,-238.887C445.443,-233.389 474.441,-227.342 500.032,-222.006"/>
<polygon fill="midnightblue" stroke="midnightblue" points="418.18,-235.498 409.105,-240.965 419.609,-242.35 418.18,-235.498"/>
</g>
<!-- Node10 -->
<g id="node10" class="node"><title>Node10</title>
<g id="a_node10"><a xlink:href="../../da/d69/classgame_player_1_1main_classes_1_1managers_1_1_gui_manager.html#a287842e1d39b7ecf2e13befeeafa1a7b" target="_top" xlink:title="gamePlayer.mainClasses.managers.\lGuiManager.loadGame">
<polygon fill="white" stroke="black" points="717.5,-244 717.5,-274 908.5,-274 908.5,-244 717.5,-244"/>
<text text-anchor="start" x="725.5" y="-262" font-family="Helvetica,sans-Serif" font-size="10.00">gamePlayer.mainClasses.managers.</text>
<text text-anchor="middle" x="813" y="-251" font-family="Helvetica,sans-Serif" font-size="10.00">GuiManager.loadGame</text>
</a>
</g>
</g>
<!-- Node9&#45;&gt;Node10 -->
<g id="edge9" class="edge"><title>Node9&#45;&gt;Node10</title>
<path fill="none" stroke="midnightblue" d="M678.907,-257.322C691.648,-257.483 704.607,-257.646 717.189,-257.805"/>
<polygon fill="midnightblue" stroke="midnightblue" points="678.791,-253.821 668.748,-257.194 678.703,-260.82 678.791,-253.821"/>
</g>
<!-- Node12 -->
<g id="node12" class="node"><title>Node12</title>
<g id="a_node12"><a xlink:href="../../da/d69/classgame_player_1_1main_classes_1_1managers_1_1_gui_manager.html#aa9b035d2a17b73719ca8a26d8ebde9ce" target="_top" xlink:title="gamePlayer.mainClasses.managers.\lGuiManager.startSinglePlayerGame">
<polygon fill="white" stroke="black" points="717.5,-195 717.5,-225 908.5,-225 908.5,-195 717.5,-195"/>
<text text-anchor="start" x="725.5" y="-213" font-family="Helvetica,sans-Serif" font-size="10.00">gamePlayer.mainClasses.managers.</text>
<text text-anchor="middle" x="813" y="-202" font-family="Helvetica,sans-Serif" font-size="10.00">GuiManager.startSinglePlayerGame</text>
</a>
</g>
</g>
<!-- Node11&#45;&gt;Node12 -->
<g id="edge11" class="edge"><title>Node11&#45;&gt;Node12</title>
<path fill="none" stroke="midnightblue" d="M687.91,-208.436C697.737,-208.56 707.61,-208.684 717.26,-208.806"/>
<polygon fill="midnightblue" stroke="midnightblue" points="687.741,-204.934 677.698,-208.307 687.653,-211.933 687.741,-204.934"/>
</g>
<!-- Node11&#45;&gt;Node18 -->
<g id="edge17" class="edge"><title>Node11&#45;&gt;Node18</title>
<path fill="none" stroke="midnightblue" d="M657.119,-189.887C683.827,-184.389 713.196,-178.342 739.113,-173.006"/>
<polygon fill="midnightblue" stroke="midnightblue" points="656.114,-186.521 647.025,-191.965 657.526,-193.377 656.114,-186.521"/>
</g>
<!-- Node13 -->
<g id="node13" class="node"><title>Node13</title>
<g id="a_node13"><a xlink:href="../../da/d69/classgame_player_1_1main_classes_1_1managers_1_1_gui_manager.html#a3f657f0e3ba1e493d2dd02b5df5e03f6" target="_top" xlink:title="gamePlayer.mainClasses.managers.\lGuiManager.replayGame">
<polygon fill="white" stroke="black" points="962.5,-195 962.5,-225 1153.5,-225 1153.5,-195 962.5,-195"/>
<text text-anchor="start" x="970.5" y="-213" font-family="Helvetica,sans-Serif" font-size="10.00">gamePlayer.mainClasses.managers.</text>
<text text-anchor="middle" x="1058" y="-202" font-family="Helvetica,sans-Serif" font-size="10.00">GuiManager.replayGame</text>
</a>
</g>
</g>
<!-- Node12&#45;&gt;Node13 -->
<g id="edge12" class="edge"><title>Node12&#45;&gt;Node13</title>
<path fill="none" stroke="midnightblue" d="M919.032,-210C933.387,-210 948.054,-210 962.213,-210"/>
<polygon fill="midnightblue" stroke="midnightblue" points="918.646,-206.5 908.646,-210 918.646,-213.5 918.646,-206.5"/>
</g>
<!-- Node14 -->
<g id="node14" class="node"><title>Node14</title>
<g id="a_node14"><a xlink:href="../../d4/d3f/classgame_player_1_1main_classes_1_1managers_1_1_welcome_manager.html#a5da8d3f5b8bc1c4bd4c555140bd9384c" target="_top" xlink:title="gamePlayer.mainClasses.managers.\lWelcomeManager.startSinglePlayerGame">
<polygon fill="white" stroke="black" points="1204,-293 1204,-323 1418,-323 1418,-293 1204,-293"/>
<text text-anchor="start" x="1212" y="-311" font-family="Helvetica,sans-Serif" font-size="10.00">gamePlayer.mainClasses.managers.</text>
<text text-anchor="middle" x="1311" y="-300" font-family="Helvetica,sans-Serif" font-size="10.00">WelcomeManager.startSinglePlayerGame</text>
</a>
</g>
</g>
<!-- Node12&#45;&gt;Node14 -->
<g id="edge13" class="edge"><title>Node12&#45;&gt;Node14</title>
<path fill="none" stroke="midnightblue" d="M906.116,-230.074C908.139,-231.306 910.105,-232.614 912,-234 936.793,-252.136 921.53,-277.413 948,-293 1038.79,-346.46 1165.75,-336.384 1242.67,-323.029"/>
<polygon fill="midnightblue" stroke="midnightblue" points="907.38,-226.781 896.914,-225.137 904.071,-232.949 907.38,-226.781"/>
</g>
<!-- Node16 -->
<g id="node16" class="node"><title>Node16</title>
<g id="a_node16"><a xlink:href="../../d3/dee/classgame_player_1_1main_classes_1_1welcome_screen_1_1_game_start_manager.html#a0c44b3f25d2a30fe2e7aeca9da7161a9" target="_top" xlink:title="gamePlayer.mainClasses.welcome\lScreen.GameStartManager.startSingle\lPlayerGame">
<polygon fill="white" stroke="black" points="956.5,-243.5 956.5,-284.5 1159.5,-284.5 1159.5,-243.5 956.5,-243.5"/>
<text text-anchor="start" x="964.5" y="-272.5" font-family="Helvetica,sans-Serif" font-size="10.00">gamePlayer.mainClasses.welcome</text>
<text text-anchor="start" x="964.5" y="-261.5" font-family="Helvetica,sans-Serif" font-size="10.00">Screen.GameStartManager.startSingle</text>
<text text-anchor="middle" x="1058" y="-250.5" font-family="Helvetica,sans-Serif" font-size="10.00">PlayerGame</text>
</a>
</g>
</g>
<!-- Node12&#45;&gt;Node16 -->
<g id="edge15" class="edge"><title>Node12&#45;&gt;Node16</title>
<path fill="none" stroke="midnightblue" d="M891.503,-227.223C914.786,-232.397 940.561,-238.125 964.702,-243.489"/>
<polygon fill="midnightblue" stroke="midnightblue" points="892.21,-223.795 881.689,-225.042 890.692,-230.628 892.21,-223.795"/>
</g>
<!-- Node15 -->
<g id="node15" class="node"><title>Node15</title>
<g id="a_node15"><a xlink:href="../../d4/d3f/classgame_player_1_1main_classes_1_1managers_1_1_welcome_manager.html#ae6495396aef63551116c0835c40574e1" target="_top" xlink:title="gamePlayer.mainClasses.managers.\lWelcomeManager.startGame">
<polygon fill="white" stroke="black" points="1466.5,-244 1466.5,-274 1657.5,-274 1657.5,-244 1466.5,-244"/>
<text text-anchor="start" x="1474.5" y="-262" font-family="Helvetica,sans-Serif" font-size="10.00">gamePlayer.mainClasses.managers.</text>
<text text-anchor="middle" x="1562" y="-251" font-family="Helvetica,sans-Serif" font-size="10.00">WelcomeManager.startGame</text>
</a>
</g>
</g>
<!-- Node14&#45;&gt;Node15 -->
<g id="edge14" class="edge"><title>Node14&#45;&gt;Node15</title>
<path fill="none" stroke="midnightblue" d="M1398.22,-291.033C1426.36,-285.495 1457.39,-279.389 1484.74,-274.006"/>
<polygon fill="midnightblue" stroke="midnightblue" points="1397.54,-287.6 1388.4,-292.965 1398.89,-294.469 1397.54,-287.6"/>
</g>
<!-- Node17 -->
<g id="node17" class="node"><title>Node17</title>
<g id="a_node17"><a xlink:href="../../d3/dee/classgame_player_1_1main_classes_1_1welcome_screen_1_1_game_start_manager.html#a4ac849399bf00c6df86f0db25ea95ed8" target="_top" xlink:title="gamePlayer.mainClasses.welcome\lScreen.GameStartManager.startGame">
<polygon fill="white" stroke="black" points="1460.5,-163 1460.5,-193 1663.5,-193 1663.5,-163 1460.5,-163"/>
<text text-anchor="start" x="1468.5" y="-181" font-family="Helvetica,sans-Serif" font-size="10.00">gamePlayer.mainClasses.welcome</text>
<text text-anchor="middle" x="1562" y="-170" font-family="Helvetica,sans-Serif" font-size="10.00">Screen.GameStartManager.startGame</text>
</a>
</g>
</g>
<!-- Node16&#45;&gt;Node17 -->
<g id="edge16" class="edge"><title>Node16&#45;&gt;Node17</title>
<path fill="none" stroke="midnightblue" d="M1170.02,-262.987C1241.62,-260.316 1336.27,-252.99 1418,-234 1458.12,-224.677 1501.9,-206.21 1530.31,-193.032"/>
<polygon fill="midnightblue" stroke="midnightblue" points="1169.51,-259.503 1159.63,-263.348 1169.75,-266.499 1169.51,-259.503"/>
</g>
<!-- Node18&#45;&gt;Node13 -->
<g id="edge22" class="edge"><title>Node18&#45;&gt;Node13</title>
<path fill="none" stroke="midnightblue" d="M894.278,-175.179C924.209,-181.584 957.925,-188.799 986.872,-194.993"/>
<polygon fill="midnightblue" stroke="midnightblue" points="894.797,-171.711 884.286,-173.041 893.332,-178.556 894.797,-171.711"/>
</g>
<!-- Node19 -->
<g id="node19" class="node"><title>Node19</title>
<g id="a_node19"><a xlink:href="../../da/d69/classgame_player_1_1main_classes_1_1managers_1_1_gui_manager.html#ad50f462f8d45a5bbfc8a17290372a1ab" target="_top" xlink:title="gamePlayer.mainClasses.managers.\lGuiManager.joinMultiPlayerGame">
<polygon fill="white" stroke="black" points="962.5,-27 962.5,-57 1153.5,-57 1153.5,-27 962.5,-27"/>
<text text-anchor="start" x="970.5" y="-45" font-family="Helvetica,sans-Serif" font-size="10.00">gamePlayer.mainClasses.managers.</text>
<text text-anchor="middle" x="1058" y="-34" font-family="Helvetica,sans-Serif" font-size="10.00">GuiManager.joinMultiPlayerGame</text>
</a>
</g>
</g>
<!-- Node18&#45;&gt;Node19 -->
<g id="edge18" class="edge"><title>Node18&#45;&gt;Node19</title>
<path fill="none" stroke="midnightblue" d="M839.06,-136.356C864.739,-115.298 906.651,-83.9319 948,-66 955.911,-62.5693 964.365,-59.6061 972.935,-57.0516"/>
<polygon fill="midnightblue" stroke="midnightblue" points="836.763,-133.715 831.315,-142.801 841.241,-139.095 836.763,-133.715"/>
</g>
<!-- Node23 -->
<g id="node23" class="node"><title>Node23</title>
<g id="a_node23"><a xlink:href="../../d4/d3f/classgame_player_1_1main_classes_1_1managers_1_1_welcome_manager.html#a55598dd2973b0a9b979151dd60c9e436" target="_top" xlink:title="gamePlayer.mainClasses.managers.\lWelcomeManager.pollEngineForMultiPlayer\lReadiness">
<polygon fill="white" stroke="black" points="948.5,-135.5 948.5,-176.5 1167.5,-176.5 1167.5,-135.5 948.5,-135.5"/>
<text text-anchor="start" x="956.5" y="-164.5" font-family="Helvetica,sans-Serif" font-size="10.00">gamePlayer.mainClasses.managers.</text>
<text text-anchor="start" x="956.5" y="-153.5" font-family="Helvetica,sans-Serif" font-size="10.00">WelcomeManager.pollEngineForMultiPlayer</text>
<text text-anchor="middle" x="1058" y="-142.5" font-family="Helvetica,sans-Serif" font-size="10.00">Readiness</text>
</a>
</g>
</g>
<!-- Node18&#45;&gt;Node23 -->
<g id="edge23" class="edge"><title>Node18&#45;&gt;Node23</title>
<path fill="none" stroke="midnightblue" d="M918.823,-157.137C928.65,-157.056 938.626,-156.974 948.487,-156.893"/>
<polygon fill="midnightblue" stroke="midnightblue" points="918.617,-153.639 908.646,-157.221 918.674,-160.639 918.617,-153.639"/>
</g>
<!-- Node25 -->
<g id="node25" class="node"><title>Node25</title>
<g id="a_node25"><a xlink:href="../../d3/dee/classgame_player_1_1main_classes_1_1welcome_screen_1_1_game_start_manager.html#a5d5001d1ee14ae57deef01f6e3ddde31" target="_top" xlink:title="gamePlayer.mainClasses.welcome\lScreen.GameStartManager.pollEngine\lForMultiPlayerReadiness">
<polygon fill="white" stroke="black" points="958,-75.5 958,-116.5 1158,-116.5 1158,-75.5 958,-75.5"/>
<text text-anchor="start" x="966" y="-104.5" font-family="Helvetica,sans-Serif" font-size="10.00">gamePlayer.mainClasses.welcome</text>
<text text-anchor="start" x="966" y="-93.5" font-family="Helvetica,sans-Serif" font-size="10.00">Screen.GameStartManager.pollEngine</text>
<text text-anchor="middle" x="1058" y="-82.5" font-family="Helvetica,sans-Serif" font-size="10.00">ForMultiPlayerReadiness</text>
</a>
</g>
</g>
<!-- Node18&#45;&gt;Node25 -->
<g id="edge26" class="edge"><title>Node18&#45;&gt;Node25</title>
<path fill="none" stroke="midnightblue" d="M882.882,-140.425C911.946,-133.01 945.989,-124.324 976.227,-116.609"/>
<polygon fill="midnightblue" stroke="midnightblue" points="881.648,-137.128 872.824,-142.992 883.378,-143.911 881.648,-137.128"/>
</g>
<!-- Node20 -->
<g id="node20" class="node"><title>Node20</title>
<g id="a_node20"><a xlink:href="../../d4/d3f/classgame_player_1_1main_classes_1_1managers_1_1_welcome_manager.html#a71a2a80cfe9d3a07d7becc506178acfd" target="_top" xlink:title="gamePlayer.mainClasses.managers.\lWelcomeManager.joinMultiPlayerGame">
<polygon fill="white" stroke="black" points="1210.5,-0 1210.5,-30 1411.5,-30 1411.5,-0 1210.5,-0"/>
<text text-anchor="start" x="1218.5" y="-18" font-family="Helvetica,sans-Serif" font-size="10.00">gamePlayer.mainClasses.managers.</text>
<text text-anchor="middle" x="1311" y="-7" font-family="Helvetica,sans-Serif" font-size="10.00">WelcomeManager.joinMultiPlayerGame</text>
</a>
</g>
</g>
<!-- Node19&#45;&gt;Node20 -->
<g id="edge19" class="edge"><title>Node19&#45;&gt;Node20</title>
<path fill="none" stroke="midnightblue" d="M1163.58,-30.7503C1178.98,-29.0941 1194.81,-27.3913 1210.11,-25.7456"/>
<polygon fill="midnightblue" stroke="midnightblue" points="1163.1,-27.2814 1153.53,-31.8309 1163.85,-34.2412 1163.1,-27.2814"/>
</g>
<!-- Node22 -->
<g id="node22" class="node"><title>Node22</title>
<g id="a_node22"><a xlink:href="../../d3/dee/classgame_player_1_1main_classes_1_1welcome_screen_1_1_game_start_manager.html#a7465850240e12e23aec544dbfd08f6a0" target="_top" xlink:title="gamePlayer.mainClasses.welcome\lScreen.GameStartManager.joinMulti\lPlayerGame">
<polygon fill="white" stroke="black" points="1216,-48.5 1216,-89.5 1406,-89.5 1406,-48.5 1216,-48.5"/>
<text text-anchor="start" x="1224" y="-77.5" font-family="Helvetica,sans-Serif" font-size="10.00">gamePlayer.mainClasses.welcome</text>
<text text-anchor="start" x="1224" y="-66.5" font-family="Helvetica,sans-Serif" font-size="10.00">Screen.GameStartManager.joinMulti</text>
<text text-anchor="middle" x="1311" y="-55.5" font-family="Helvetica,sans-Serif" font-size="10.00">PlayerGame</text>
</a>
</g>
</g>
<!-- Node19&#45;&gt;Node22 -->
<g id="edge21" class="edge"><title>Node19&#45;&gt;Node22</title>
<path fill="none" stroke="midnightblue" d="M1163.67,-53.2596C1181.02,-55.1253 1198.91,-57.0497 1215.97,-58.8849"/>
<polygon fill="midnightblue" stroke="midnightblue" points="1163.85,-49.7588 1153.53,-52.1691 1163.1,-56.7186 1163.85,-49.7588"/>
</g>
<!-- Node21 -->
<g id="node21" class="node"><title>Node21</title>
<g id="a_node21"><a xlink:href="../../d4/d3f/classgame_player_1_1main_classes_1_1managers_1_1_welcome_manager.html#aa605746e09c481b225463d37a82427e3" target="_top" xlink:title="gamePlayer.mainClasses.managers.\lWelcomeManager.startMultiPlayerOptions">
<polygon fill="white" stroke="black" points="1454.5,-0 1454.5,-30 1669.5,-30 1669.5,-0 1454.5,-0"/>
<text text-anchor="start" x="1462.5" y="-18" font-family="Helvetica,sans-Serif" font-size="10.00">gamePlayer.mainClasses.managers.</text>
<text text-anchor="middle" x="1562" y="-7" font-family="Helvetica,sans-Serif" font-size="10.00">WelcomeManager.startMultiPlayerOptions</text>
</a>
</g>
</g>
<!-- Node20&#45;&gt;Node21 -->
<g id="edge20" class="edge"><title>Node20&#45;&gt;Node21</title>
<path fill="none" stroke="midnightblue" d="M1422.03,-15C1432.72,-15 1443.55,-15 1454.2,-15"/>
<polygon fill="midnightblue" stroke="midnightblue" points="1421.84,-11.5001 1411.84,-15 1421.84,-18.5001 1421.84,-11.5001"/>
</g>
<!-- Node24 -->
<g id="node24" class="node"><title>Node24</title>
<g id="a_node24"><a xlink:href="../../d4/d3f/classgame_player_1_1main_classes_1_1managers_1_1_welcome_manager.html#a0669db103a94675dce875042258da508" target="_top" xlink:title="gamePlayer.mainClasses.managers.\lWelcomeManager.startMultiPlayerGame">
<polygon fill="white" stroke="black" points="1207.5,-195 1207.5,-225 1414.5,-225 1414.5,-195 1207.5,-195"/>
<text text-anchor="start" x="1215.5" y="-213" font-family="Helvetica,sans-Serif" font-size="10.00">gamePlayer.mainClasses.managers.</text>
<text text-anchor="middle" x="1311" y="-202" font-family="Helvetica,sans-Serif" font-size="10.00">WelcomeManager.startMultiPlayerGame</text>
</a>
</g>
</g>
<!-- Node23&#45;&gt;Node24 -->
<g id="edge24" class="edge"><title>Node23&#45;&gt;Node24</title>
<path fill="none" stroke="midnightblue" d="M1164.67,-178.734C1190.12,-184.208 1216.68,-189.923 1240.03,-194.946"/>
<polygon fill="midnightblue" stroke="midnightblue" points="1165.12,-175.251 1154.61,-176.569 1163.65,-182.094 1165.12,-175.251"/>
</g>
<!-- Node24&#45;&gt;Node15 -->
<g id="edge25" class="edge"><title>Node24&#45;&gt;Node15</title>
<path fill="none" stroke="midnightblue" d="M1398.22,-226.967C1426.36,-232.505 1457.39,-238.611 1484.74,-243.994"/>
<polygon fill="midnightblue" stroke="midnightblue" points="1398.89,-223.531 1388.4,-225.035 1397.54,-230.4 1398.89,-223.531"/>
</g>
<!-- Node26 -->
<g id="node26" class="node"><title>Node26</title>
<g id="a_node26"><a xlink:href="../../d3/dee/classgame_player_1_1main_classes_1_1welcome_screen_1_1_game_start_manager.html#a994c29260d6cb90abf19dca2b3463b6a" target="_top" xlink:title="gamePlayer.mainClasses.welcome\lScreen.GameStartManager.startMulti\lPlayerGame">
<polygon fill="white" stroke="black" points="1213,-126.5 1213,-167.5 1409,-167.5 1409,-126.5 1213,-126.5"/>
<text text-anchor="start" x="1221" y="-155.5" font-family="Helvetica,sans-Serif" font-size="10.00">gamePlayer.mainClasses.welcome</text>
<text text-anchor="start" x="1221" y="-144.5" font-family="Helvetica,sans-Serif" font-size="10.00">Screen.GameStartManager.startMulti</text>
<text text-anchor="middle" x="1311" y="-133.5" font-family="Helvetica,sans-Serif" font-size="10.00">PlayerGame</text>
</a>
</g>
</g>
<!-- Node25&#45;&gt;Node26 -->
<g id="edge27" class="edge"><title>Node25&#45;&gt;Node26</title>
<path fill="none" stroke="midnightblue" d="M1168.37,-118.222C1183.14,-121.223 1198.21,-124.286 1212.75,-127.24"/>
<polygon fill="midnightblue" stroke="midnightblue" points="1168.7,-114.718 1158.2,-116.157 1167.3,-121.578 1168.7,-114.718"/>
</g>
<!-- Node26&#45;&gt;Node17 -->
<g id="edge28" class="edge"><title>Node26&#45;&gt;Node17</title>
<path fill="none" stroke="midnightblue" d="M1419.64,-160.401C1433.19,-162.088 1447.01,-163.809 1460.45,-165.481"/>
<polygon fill="midnightblue" stroke="midnightblue" points="1419.7,-156.881 1409.34,-159.119 1418.83,-163.827 1419.7,-156.881"/>
</g>
</g>
</svg>
        <g id="navigator" transform="translate(0 0)" fill="#404254">
                <rect fill="#f2f5e9" fill-opacity="0.5" stroke="#606060" stroke-width=".5" x="0" y="0" width="60" height="60"/>
                <use id="zoomplus" xlink:href="#zoomPlus" x="17" y="9" onmousedown="handleZoom(evt,'in')"/>
                <use id="zoomminus" xlink:href="#zoomMin" x="42" y="9" onmousedown="handleZoom(evt,'out')"/>
                <use id="reset" xlink:href="#resetDef" x="30" y="36" onmousedown="handleReset()"/>
                <g id="arrowUp" xlink:href="#dirArrow" transform="translate(30 24)" onmousedown="handlePan(0,-1)">
                  <use xlink:href="#rim" fill="#404040">
                        <set attributeName="fill" to="#808080" begin="arrowUp.mouseover" end="arrowUp.mouseout"/>
                  </use>
                  <path fill="none" stroke="white" stroke-width="1.5" d="M0,-3.0v7 M-2.5,-0.5L0,-3.0L2.5,-0.5"/>
                </g>
                <g id="arrowRight" xlink:href="#dirArrow" transform="rotate(90) translate(36 -43)" onmousedown="handlePan(1,0)">
                  <use xlink:href="#rim" fill="#404040">
                        <set attributeName="fill" to="#808080" begin="arrowRight.mouseover" end="arrowRight.mouseout"/>
                  </use>
                  <path fill="none" stroke="white" stroke-width="1.5" d="M0,-3.0v7 M-2.5,-0.5L0,-3.0L2.5,-0.5"/>
                </g>
                <g id="arrowDown" xlink:href="#dirArrow" transform="rotate(180) translate(-30 -48)" onmousedown="handlePan(0,1)">
                  <use xlink:href="#rim" fill="#404040">
                        <set attributeName="fill" to="#808080" begin="arrowDown.mouseover" end="arrowDown.mouseout"/>
                  </use>
                  <path fill="none" stroke="white" stroke-width="1.5" d="M0,-3.0v7 M-2.5,-0.5L0,-3.0L2.5,-0.5"/>
                </g>
                <g id="arrowLeft" xlink:href="#dirArrow" transform="rotate(270) translate(-36 17)" onmousedown="handlePan(-1,0)">
                  <use xlink:href="#rim" fill="#404040">
                        <set attributeName="fill" to="#808080" begin="arrowLeft.mouseover" end="arrowLeft.mouseout"/>
                  </use>
                  <path fill="none" stroke="white" stroke-width="1.5" d="M0,-3.0v7 M-2.5,-0.5L0,-3.0L2.5,-0.5"/>
                </g>
        </g>
        <svg viewBox="0 0 15 15" width="100%" height="30px" preserveAspectRatio="xMaxYMin meet">
         <g id="arrow_out" transform="scale(0.3 0.3)">
          <a xlink:href="classgame_player_1_1gui_items_1_1heads_up_display_1_1_game_stat_a8b7a10b5d7454339159230a830272c69_icgraph_org.svg" target="_base">
           <rect id="button" ry="5" rx="5" y="6" x="6" height="38" width="38"
                fill="#f2f5e9" fill-opacity="0.5" stroke="#606060" stroke-width="1.0"/>
           <path id="arrow"
             d="M 11.500037,31.436501 C 11.940474,20.09759 22.043105,11.32322 32.158766,21.979434 L 37.068811,17.246167 C 37.068811,17.246167 37.088388,32 37.088388,32 L 22.160133,31.978069 C 22.160133,31.978069 26.997745,27.140456 26.997745,27.140456 C 18.528582,18.264221 13.291696,25.230495 11.500037,31.436501 z"
             style="fill:#404040;"/>
          </a>
         </g>
        </svg>
</svg>
