<?xml version="1.0" encoding="UTF-8" standalone="no"?>
<!DOCTYPE svg PUBLIC "-//W3C//DTD SVG 1.1//EN"
 "http://www.w3.org/Graphics/SVG/1.1/DTD/svg11.dtd">
<!-- Generated by graphviz version 2.36.0 (20140111.2315)
 -->
<!-- Title: gamePlayer.guiItems.headsUpDisplay.GameStat.setStatValue Pages: 1 -->
<svg width="660pt" height="48pt"
 viewBox="0.00 0.00 660.00 48.00" xmlns="http://www.w3.org/2000/svg" xmlns:xlink="http://www.w3.org/1999/xlink">
<g id="graph0" class="graph" transform="scale(1 1) rotate(0) translate(4 44)">
<title>gamePlayer.guiItems.headsUpDisplay.GameStat.setStatValue</title>
<polygon fill="white" stroke="none" points="-4,4 -4,-44 656,-44 656,4 -4,4"/>
<!-- Node1 -->
<g id="node1" class="node"><title>Node1</title>
<polygon fill="#bfbfbf" stroke="black" points="0,-5 0,-35 180,-35 180,-5 0,-5"/>
<text text-anchor="start" x="8" y="-23" font-family="Helvetica,sans-Serif" font-size="10.00">gamePlayer.guiItems.heads</text>
<text text-anchor="middle" x="90" y="-12" font-family="Helvetica,sans-Serif" font-size="10.00">UpDisplay.GameStat.setStatValue</text>
</g>
<!-- Node2 -->
<g id="node2" class="node"><title>Node2</title>
<g id="a_node2"><a xlink:href="../../d9/df4/classgame_player_1_1main_classes_1_1test_game_manager_1_1_test_game_manager.html#aba61faa510d527ff65780d9ece40c183" target="_top" xlink:title="gamePlayer.mainClasses.test\lGameManager.TestGameManager.test\lLoadingGuiHUD">
<polygon fill="white" stroke="black" points="216.5,0.5 216.5,-40.5 417.5,-40.5 417.5,0.5 216.5,0.5"/>
<text text-anchor="start" x="224.5" y="-28.5" font-family="Helvetica,sans-Serif" font-size="10.00">gamePlayer.mainClasses.test</text>
<text text-anchor="start" x="224.5" y="-17.5" font-family="Helvetica,sans-Serif" font-size="10.00">GameManager.TestGameManager.test</text>
<text text-anchor="middle" x="317" y="-6.5" font-family="Helvetica,sans-Serif" font-size="10.00">LoadingGuiHUD</text>
</a>
</g>
</g>
<!-- Node1&#45;&gt;Node2 -->
<g id="edge1" class="edge"><title>Node1&#45;&gt;Node2</title>
<path fill="none" stroke="midnightblue" d="M190.364,-20C199.033,-20 207.807,-20 216.477,-20"/>
<polygon fill="midnightblue" stroke="midnightblue" points="190.249,-16.5001 180.249,-20 190.249,-23.5001 190.249,-16.5001"/>
</g>
<!-- Node3 -->
<g id="node3" class="node"><title>Node3</title>
<g id="a_node3"><a xlink:href="../../d9/df4/classgame_player_1_1main_classes_1_1test_game_manager_1_1_test_game_manager.html#acd60c6a57fa3cb28e5c8b1a884d3180d" target="_top" xlink:title="gamePlayer.mainClasses.test\lGameManager.TestGameManager.run">
<polygon fill="white" stroke="black" points="454,-5 454,-35 652,-35 652,-5 454,-5"/>
<text text-anchor="start" x="462" y="-23" font-family="Helvetica,sans-Serif" font-size="10.00">gamePlayer.mainClasses.test</text>
<text text-anchor="middle" x="553" y="-12" font-family="Helvetica,sans-Serif" font-size="10.00">GameManager.TestGameManager.run</text>
</a>
</g>
</g>
<!-- Node2&#45;&gt;Node3 -->
<g id="edge2" class="edge"><title>Node2&#45;&gt;Node3</title>
<path fill="none" stroke="midnightblue" d="M427.7,-20C436.354,-20 445.061,-20 453.632,-20"/>
<polygon fill="midnightblue" stroke="midnightblue" points="427.576,-16.5001 417.576,-20 427.576,-23.5001 427.576,-16.5001"/>
</g>
</g>
</svg>
