<?xml version="1.0" encoding="UTF-8" standalone="no"?>
<!DOCTYPE svg PUBLIC "-//W3C//DTD SVG 1.1//EN"
 "http://www.w3.org/Graphics/SVG/1.1/DTD/svg11.dtd">
<!-- Generated by graphviz version 2.36.0 (20140111.2315)
 -->
<!-- Title: gamePlayer.guiItems.headsUpDisplay.GameStat.setStatValue Pages: 1 -->
<svg width="428pt" height="38pt"
 viewBox="0.00 0.00 428.00 38.00" xmlns="http://www.w3.org/2000/svg" xmlns:xlink="http://www.w3.org/1999/xlink">
<g id="graph0" class="graph" transform="scale(1 1) rotate(0) translate(4 34)">
<title>gamePlayer.guiItems.headsUpDisplay.GameStat.setStatValue</title>
<polygon fill="white" stroke="none" points="-4,4 -4,-34 424,-34 424,4 -4,4"/>
<!-- Node1 -->
<g id="node1" class="node"><title>Node1</title>
<polygon fill="#bfbfbf" stroke="black" points="0,-0 0,-30 180,-30 180,-0 0,-0"/>
<text text-anchor="start" x="8" y="-18" font-family="Helvetica,sans-Serif" font-size="10.00">gamePlayer.guiItems.heads</text>
<text text-anchor="middle" x="90" y="-7" font-family="Helvetica,sans-Serif" font-size="10.00">UpDisplay.GameStat.setStatValue</text>
</g>
<!-- Node2 -->
<g id="node2" class="node"><title>Node2</title>
<g id="a_node2"><a xlink:href="../../de/d1a/classgame_player_1_1gui_items_1_1heads_up_display_1_1_game_stat.html#a8b7a10b5d7454339159230a830272c69" target="_top" xlink:title="gamePlayer.guiItems.heads\lUpDisplay.GameStat.statValueProperty">
<polygon fill="white" stroke="black" points="216,-0 216,-30 420,-30 420,-0 216,-0"/>
<text text-anchor="start" x="224" y="-18" font-family="Helvetica,sans-Serif" font-size="10.00">gamePlayer.guiItems.heads</text>
<text text-anchor="middle" x="318" y="-7" font-family="Helvetica,sans-Serif" font-size="10.00">UpDisplay.GameStat.statValueProperty</text>
</a>
</g>
</g>
<!-- Node1&#45;&gt;Node2 -->
<g id="edge1" class="edge"><title>Node1&#45;&gt;Node2</title>
<path fill="none" stroke="midnightblue" d="M180.321,-15C188.566,-15 196.988,-15 205.399,-15"/>
<polygon fill="midnightblue" stroke="midnightblue" points="205.641,-18.5001 215.641,-15 205.641,-11.5001 205.641,-18.5001"/>
</g>
</g>
</svg>
