<?xml version="1.0" encoding="UTF-8" standalone="no"?>
<!DOCTYPE svg PUBLIC "-//W3C//DTD SVG 1.1//EN"
 "http://www.w3.org/Graphics/SVG/1.1/DTD/svg11.dtd">
<!-- Generated by graphviz version 2.36.0 (20140111.2315)
 -->
<!-- Title: gameEngine.actors.behaviors.BaseDefendBehavior.handleBullet Pages: 1 -->
<svg width="584pt" height="38pt"
 viewBox="0.00 0.00 584.00 38.00" xmlns="http://www.w3.org/2000/svg" xmlns:xlink="http://www.w3.org/1999/xlink">
<g id="graph0" class="graph" transform="scale(1 1) rotate(0) translate(4 34)">
<title>gameEngine.actors.behaviors.BaseDefendBehavior.handleBullet</title>
<polygon fill="white" stroke="none" points="-4,4 -4,-34 580,-34 580,4 -4,4"/>
<!-- Node1 -->
<g id="node1" class="node"><title>Node1</title>
<polygon fill="#bfbfbf" stroke="black" points="0.5,-0 0.5,-30 179.5,-30 179.5,-0 0.5,-0"/>
<text text-anchor="start" x="8.5" y="-18" font-family="Helvetica,sans-Serif" font-size="10.00">gameEngine.actors.behaviors.</text>
<text text-anchor="middle" x="90" y="-7" font-family="Helvetica,sans-Serif" font-size="10.00">BaseDefendBehavior.handleBullet</text>
</g>
<!-- Node2 -->
<g id="node2" class="node"><title>Node2</title>
<g id="a_node2"><a xlink:href="../../de/dcd/classgame_engine_1_1actors_1_1behaviors_1_1_base_defend_behavior.html#adca48e093a239d0fbaa2d7bc3b648f09" target="_top" xlink:title="gameEngine.actors.behaviors.\lBaseDefendBehavior.gotHit">
<polygon fill="white" stroke="black" points="216,-0 216,-30 378,-30 378,-0 216,-0"/>
<text text-anchor="start" x="224" y="-18" font-family="Helvetica,sans-Serif" font-size="10.00">gameEngine.actors.behaviors.</text>
<text text-anchor="middle" x="297" y="-7" font-family="Helvetica,sans-Serif" font-size="10.00">BaseDefendBehavior.gotHit</text>
</a>
</g>
</g>
<!-- Node1&#45;&gt;Node2 -->
<g id="edge1" class="edge"><title>Node1&#45;&gt;Node2</title>
<path fill="none" stroke="midnightblue" d="M189.904,-15C198.603,-15 207.336,-15 215.853,-15"/>
<polygon fill="midnightblue" stroke="midnightblue" points="189.724,-11.5001 179.724,-15 189.724,-18.5001 189.724,-11.5001"/>
</g>
<!-- Node3 -->
<g id="node3" class="node"><title>Node3</title>
<g id="a_node3"><a xlink:href="../../de/dcd/classgame_engine_1_1actors_1_1behaviors_1_1_base_defend_behavior.html#a9c4d907d4daabdcbf4706ebd765eb4d3" target="_top" xlink:title="gameEngine.actors.behaviors.\lBaseDefendBehavior.execute">
<polygon fill="white" stroke="black" points="414,-0 414,-30 576,-30 576,-0 414,-0"/>
<text text-anchor="start" x="422" y="-18" font-family="Helvetica,sans-Serif" font-size="10.00">gameEngine.actors.behaviors.</text>
<text text-anchor="middle" x="495" y="-7" font-family="Helvetica,sans-Serif" font-size="10.00">BaseDefendBehavior.execute</text>
</a>
</g>
</g>
<!-- Node2&#45;&gt;Node3 -->
<g id="edge2" class="edge"><title>Node2&#45;&gt;Node3</title>
<path fill="none" stroke="midnightblue" d="M388.077,-15C396.703,-15 405.413,-15 413.935,-15"/>
<polygon fill="midnightblue" stroke="midnightblue" points="388.003,-11.5001 378.003,-15 388.003,-18.5001 388.003,-11.5001"/>
</g>
</g>
</svg>
