<?xml version="1.0" encoding="UTF-8" standalone="no"?>
<!DOCTYPE svg PUBLIC "-//W3C//DTD SVG 1.1//EN"
 "http://www.w3.org/Graphics/SVG/1.1/DTD/svg11.dtd">
<!-- Generated by graphviz version 2.36.0 (20140111.2315)
 -->
<!-- Title: gameEngine.actors.behaviors.BaseDefendBehavior.onDeath Pages: 1 -->
<svg width="566pt" height="136pt"
 viewBox="0.00 0.00 566.00 136.00" xmlns="http://www.w3.org/2000/svg" xmlns:xlink="http://www.w3.org/1999/xlink">
<g id="graph0" class="graph" transform="scale(1 1) rotate(0) translate(4 132)">
<title>gameEngine.actors.behaviors.BaseDefendBehavior.onDeath</title>
<polygon fill="white" stroke="none" points="-4,4 -4,-132 562,-132 562,4 -4,4"/>
<!-- Node1 -->
<g id="node1" class="node"><title>Node1</title>
<polygon fill="#bfbfbf" stroke="black" points="0,-49 0,-79 162,-79 162,-49 0,-49"/>
<text text-anchor="start" x="8" y="-67" font-family="Helvetica,sans-Serif" font-size="10.00">gameEngine.actors.behaviors.</text>
<text text-anchor="middle" x="81" y="-56" font-family="Helvetica,sans-Serif" font-size="10.00">BaseDefendBehavior.onDeath</text>
</g>
<!-- Node2 -->
<g id="node2" class="node"><title>Node2</title>
<g id="a_node2"><a xlink:href="../../d9/df0/classgame_engine_1_1actors_1_1behaviors_1_1_earth_quake_effect.html#a6937fd3e557485b65aa5001b1b66b720" target="_top" xlink:title="gameEngine.actors.behaviors.\lEarthQuakeEffect.during">
<polygon fill="white" stroke="black" points="198,-98 198,-128 360,-128 360,-98 198,-98"/>
<text text-anchor="start" x="206" y="-116" font-family="Helvetica,sans-Serif" font-size="10.00">gameEngine.actors.behaviors.</text>
<text text-anchor="middle" x="279" y="-105" font-family="Helvetica,sans-Serif" font-size="10.00">EarthQuakeEffect.during</text>
</a>
</g>
</g>
<!-- Node1&#45;&gt;Node2 -->
<g id="edge1" class="edge"><title>Node1&#45;&gt;Node2</title>
<path fill="none" stroke="midnightblue" d="M151.907,-81.4768C173.51,-86.8775 197.102,-92.7755 217.975,-97.9938"/>
<polygon fill="midnightblue" stroke="midnightblue" points="152.689,-78.0645 142.138,-79.0346 150.991,-84.8555 152.689,-78.0645"/>
</g>
<!-- Node3 -->
<g id="node3" class="node"><title>Node3</title>
<g id="a_node3"><a xlink:href="../../de/dcd/classgame_engine_1_1actors_1_1behaviors_1_1_base_defend_behavior.html#adca48e093a239d0fbaa2d7bc3b648f09" target="_top" xlink:title="gameEngine.actors.behaviors.\lBaseDefendBehavior.gotHit">
<polygon fill="white" stroke="black" points="198,-49 198,-79 360,-79 360,-49 198,-49"/>
<text text-anchor="start" x="206" y="-67" font-family="Helvetica,sans-Serif" font-size="10.00">gameEngine.actors.behaviors.</text>
<text text-anchor="middle" x="279" y="-56" font-family="Helvetica,sans-Serif" font-size="10.00">BaseDefendBehavior.gotHit</text>
</a>
</g>
</g>
<!-- Node1&#45;&gt;Node3 -->
<g id="edge2" class="edge"><title>Node1&#45;&gt;Node3</title>
<path fill="none" stroke="midnightblue" d="M172.077,-64C180.703,-64 189.413,-64 197.935,-64"/>
<polygon fill="midnightblue" stroke="midnightblue" points="172.003,-60.5001 162.003,-64 172.003,-67.5001 172.003,-60.5001"/>
</g>
<!-- Node5 -->
<g id="node5" class="node"><title>Node5</title>
<g id="a_node5"><a xlink:href="../../dc/d40/classgame_engine_1_1actors_1_1behaviors_1_1_ao_e_effect.html#ab9f4fcfbf53370716362e4c71768623c" target="_top" xlink:title="gameEngine.actors.behaviors.\lAoEEffect.start">
<polygon fill="white" stroke="black" points="198,-0 198,-30 360,-30 360,-0 198,-0"/>
<text text-anchor="start" x="206" y="-18" font-family="Helvetica,sans-Serif" font-size="10.00">gameEngine.actors.behaviors.</text>
<text text-anchor="middle" x="279" y="-7" font-family="Helvetica,sans-Serif" font-size="10.00">AoEEffect.start</text>
</a>
</g>
</g>
<!-- Node1&#45;&gt;Node5 -->
<g id="edge4" class="edge"><title>Node1&#45;&gt;Node5</title>
<path fill="none" stroke="midnightblue" d="M151.907,-46.5232C173.51,-41.1225 197.102,-35.2245 217.975,-30.0062"/>
<polygon fill="midnightblue" stroke="midnightblue" points="150.991,-43.1445 142.138,-48.9654 152.689,-49.9355 150.991,-43.1445"/>
</g>
<!-- Node4 -->
<g id="node4" class="node"><title>Node4</title>
<g id="a_node4"><a xlink:href="../../de/dcd/classgame_engine_1_1actors_1_1behaviors_1_1_base_defend_behavior.html#a9c4d907d4daabdcbf4706ebd765eb4d3" target="_top" xlink:title="gameEngine.actors.behaviors.\lBaseDefendBehavior.execute">
<polygon fill="white" stroke="black" points="396,-49 396,-79 558,-79 558,-49 396,-49"/>
<text text-anchor="start" x="404" y="-67" font-family="Helvetica,sans-Serif" font-size="10.00">gameEngine.actors.behaviors.</text>
<text text-anchor="middle" x="477" y="-56" font-family="Helvetica,sans-Serif" font-size="10.00">BaseDefendBehavior.execute</text>
</a>
</g>
</g>
<!-- Node3&#45;&gt;Node4 -->
<g id="edge3" class="edge"><title>Node3&#45;&gt;Node4</title>
<path fill="none" stroke="midnightblue" d="M370.077,-64C378.703,-64 387.413,-64 395.935,-64"/>
<polygon fill="midnightblue" stroke="midnightblue" points="370.003,-60.5001 360.003,-64 370.003,-67.5001 370.003,-60.5001"/>
</g>
</g>
</svg>
