<?xml version="1.0" encoding="UTF-8" standalone="no"?>
<!DOCTYPE svg PUBLIC "-//W3C//DTD SVG 1.1//EN"
 "http://www.w3.org/Graphics/SVG/1.1/DTD/svg11.dtd">
<!-- Generated by graphviz version 2.36.0 (20140111.2315)
 -->
<!-- Title: gameAuthoring.scenes.pathBuilding.buildingPanes.BuildingPane.drawPathComponent Pages: 1 -->
<!--zoomable 109 -->
<svg id="main" version="1.1" xmlns="http://www.w3.org/2000/svg" xmlns:xlink="http://www.w3.org/1999/xlink" xml:space="preserve" onload="init(evt)">
<style type="text/css"><![CDATA[
.edge:hover path { stroke: red; }
.edge:hover polygon { stroke: red; fill: red; }
]]></style>
<script type="text/javascript"><![CDATA[
var edges = document.getElementsByTagName('g');
if (edges && edges.length) {
  for (var i=0;i<edges.length;i++) {
    if (edges[i].id.substr(0,4)=='edge') {
      edges[i].setAttribute('class','edge');
    }
  }
}
]]></script>
        <defs>
                <circle id="rim" cx="0" cy="0" r="7"/>
                <circle id="rim2" cx="0" cy="0" r="3.5"/>
                <g id="zoomPlus">
                        <use xlink:href="#rim" fill="#404040">
                                <set attributeName="fill" to="#808080" begin="zoomplus.mouseover" end="zoomplus.mouseout"/>
                        </use>
                        <path d="M-4,0h8M0,-4v8" fill="none" stroke="white" stroke-width="1.5" pointer-events="none"/>
                </g>
                <g id="zoomMin">
                        <use xlink:href="#rim" fill="#404040">
                                <set attributeName="fill" to="#808080" begin="zoomminus.mouseover" end="zoomminus.mouseout"/>
                        </use>
                        <path d="M-4,0h8" fill="none" stroke="white" stroke-width="1.5" pointer-events="none"/>
                </g>
                <g id="dirArrow">
                        <path fill="none" stroke="white" stroke-width="1.5" d="M0,-3.0v7 M-2.5,-0.5L0,-3.0L2.5,-0.5"/>
                </g>
               <g id="resetDef">
                       <use xlink:href="#rim2" fill="#404040">
                               <set attributeName="fill" to="#808080" begin="reset.mouseover" end="reset.mouseout"/>
                       </use>
               </g>
        </defs>

<script type="text/javascript">
var viewWidth = 856;
var viewHeight = 109;
var sectionId = 'dynsection-5';
</script>
<script xlink:href="../../svgpan.js"/>
<svg id="graph" class="graph">
<g id="viewport">
<title>gameAuthoring.scenes.pathBuilding.buildingPanes.BuildingPane.drawPathComponent</title>
<polygon fill="white" stroke="none" points="-4,4 -4,-105 852,-105 852,4 -4,4"/>
<!-- Node1 -->
<g id="node1" class="node"><title>Node1</title>
<polygon fill="#bfbfbf" stroke="black" points="0.5,-29.5 0.5,-70.5 163.5,-70.5 163.5,-29.5 0.5,-29.5"/>
<text text-anchor="start" x="8.5" y="-58.5" font-family="Helvetica,sans-Serif" font-size="10.00">gameAuthoring.scenes.path</text>
<text text-anchor="start" x="8.5" y="-47.5" font-family="Helvetica,sans-Serif" font-size="10.00">Building.buildingPanes.Building</text>
<text text-anchor="middle" x="82" y="-36.5" font-family="Helvetica,sans-Serif" font-size="10.00">Pane.drawPathComponent</text>
</g>
<!-- Node2 -->
<g id="node2" class="node"><title>Node2</title>
<g id="a_node2"><a xlink:href="../../db/d5b/classgame_authoring_1_1scenes_1_1path_building_1_1building_panes_1_1_line_drawing_pane.html#a1592c5e4b43e931037cfcf357896ff4e" target="_top" xlink:title="gameAuthoring.scenes.path\lBuilding.buildingPanes.LineDrawing\lPane.handleBuildScreenClick">
<polygon fill="white" stroke="black" points="204.5,-59.5 204.5,-100.5 387.5,-100.5 387.5,-59.5 204.5,-59.5"/>
<text text-anchor="start" x="212.5" y="-88.5" font-family="Helvetica,sans-Serif" font-size="10.00">gameAuthoring.scenes.path</text>
<text text-anchor="start" x="212.5" y="-77.5" font-family="Helvetica,sans-Serif" font-size="10.00">Building.buildingPanes.LineDrawing</text>
<text text-anchor="middle" x="296" y="-66.5" font-family="Helvetica,sans-Serif" font-size="10.00">Pane.handleBuildScreenClick</text>
</a>
</g>
</g>
<!-- Node1&#45;&gt;Node2 -->
<g id="edge1" class="edge"><title>Node1&#45;&gt;Node2</title>
<path fill="none" stroke="midnightblue" d="M173.76,-62.8434C183.844,-64.2704 194.116,-65.724 204.2,-67.151"/>
<polygon fill="midnightblue" stroke="midnightblue" points="174.145,-59.363 163.753,-61.4273 173.164,-66.294 174.145,-59.363"/>
</g>
<!-- Node3 -->
<g id="node3" class="node"><title>Node3</title>
<g id="a_node3"><a xlink:href="../../d1/dad/classgame_authoring_1_1scenes_1_1path_building_1_1building_panes_1_1_curve_drawing_pane.html#a9b35c65041978c3a4628a16e26033a42" target="_top" xlink:title="gameAuthoring.scenes.path\lBuilding.buildingPanes.CurveDrawing\lPane.handleBuildScreenClick">
<polygon fill="white" stroke="black" points="200.5,0.5 200.5,-40.5 391.5,-40.5 391.5,0.5 200.5,0.5"/>
<text text-anchor="start" x="208.5" y="-28.5" font-family="Helvetica,sans-Serif" font-size="10.00">gameAuthoring.scenes.path</text>
<text text-anchor="start" x="208.5" y="-17.5" font-family="Helvetica,sans-Serif" font-size="10.00">Building.buildingPanes.CurveDrawing</text>
<text text-anchor="middle" x="296" y="-6.5" font-family="Helvetica,sans-Serif" font-size="10.00">Pane.handleBuildScreenClick</text>
</a>
</g>
</g>
<!-- Node1&#45;&gt;Node3 -->
<g id="edge2" class="edge"><title>Node1&#45;&gt;Node3</title>
<path fill="none" stroke="midnightblue" d="M173.916,-37.1345C182.641,-35.8998 191.505,-34.6455 200.265,-33.4059"/>
<polygon fill="midnightblue" stroke="midnightblue" points="173.164,-33.706 163.753,-38.5727 174.145,-40.637 173.164,-33.706"/>
</g>
<!-- Node4 -->
<g id="node4" class="node"><title>Node4</title>
<g id="a_node4"><a xlink:href="../../d1/dad/classgame_authoring_1_1scenes_1_1path_building_1_1building_panes_1_1_curve_drawing_pane.html#a4157681e1cbd0859e25b7ece8ff99a56" target="_top" xlink:title="gameAuthoring.scenes.path\lBuilding.buildingPanes.CurveDrawing\lPane.addListeners">
<polygon fill="white" stroke="black" points="428.5,0.5 428.5,-40.5 619.5,-40.5 619.5,0.5 428.5,0.5"/>
<text text-anchor="start" x="436.5" y="-28.5" font-family="Helvetica,sans-Serif" font-size="10.00">gameAuthoring.scenes.path</text>
<text text-anchor="start" x="436.5" y="-17.5" font-family="Helvetica,sans-Serif" font-size="10.00">Building.buildingPanes.CurveDrawing</text>
<text text-anchor="middle" x="524" y="-6.5" font-family="Helvetica,sans-Serif" font-size="10.00">Pane.addListeners</text>
</a>
</g>
</g>
<!-- Node3&#45;&gt;Node4 -->
<g id="edge3" class="edge"><title>Node3&#45;&gt;Node4</title>
<path fill="none" stroke="midnightblue" d="M401.611,-13.2666C410.572,-13.2311 419.605,-13.2526 428.48,-13.3309"/>
<polygon fill="midnightblue" stroke="midnightblue" points="401.512,-9.76702 391.535,-13.3307 401.557,-16.7669 401.512,-9.76702"/>
</g>
<!-- Node4&#45;&gt;Node3 -->
<g id="edge4" class="edge"><title>Node4&#45;&gt;Node3</title>
<path fill="none" stroke="midnightblue" d="M418.405,-26.7334C409.443,-26.7689 400.411,-26.7475 391.535,-26.6693"/>
<polygon fill="midnightblue" stroke="midnightblue" points="418.503,-30.2329 428.48,-26.6691 418.458,-23.2331 418.503,-30.2329"/>
</g>
<!-- Node5 -->
<g id="node5" class="node"><title>Node5</title>
<g id="a_node5"><a xlink:href="../../d1/dad/classgame_authoring_1_1scenes_1_1path_building_1_1building_panes_1_1_curve_drawing_pane.html#a5e42a8d5bc78ce626583ea766277b804" target="_top" xlink:title="gameAuthoring.scenes.path\lBuilding.buildingPanes.CurveDrawing\lPane.executeEnterFunction">
<polygon fill="white" stroke="black" points="656.5,0.5 656.5,-40.5 847.5,-40.5 847.5,0.5 656.5,0.5"/>
<text text-anchor="start" x="664.5" y="-28.5" font-family="Helvetica,sans-Serif" font-size="10.00">gameAuthoring.scenes.path</text>
<text text-anchor="start" x="664.5" y="-17.5" font-family="Helvetica,sans-Serif" font-size="10.00">Building.buildingPanes.CurveDrawing</text>
<text text-anchor="middle" x="752" y="-6.5" font-family="Helvetica,sans-Serif" font-size="10.00">Pane.executeEnterFunction</text>
</a>
</g>
</g>
<!-- Node4&#45;&gt;Node5 -->
<g id="edge5" class="edge"><title>Node4&#45;&gt;Node5</title>
<path fill="none" stroke="midnightblue" d="M629.611,-20C638.572,-20 647.605,-20 656.48,-20"/>
<polygon fill="midnightblue" stroke="midnightblue" points="629.535,-16.5001 619.535,-20 629.535,-23.5001 629.535,-16.5001"/>
</g>
</g>
</svg>
        <g id="navigator" transform="translate(0 0)" fill="#404254">
                <rect fill="#f2f5e9" fill-opacity="0.5" stroke="#606060" stroke-width=".5" x="0" y="0" width="60" height="60"/>
                <use id="zoomplus" xlink:href="#zoomPlus" x="17" y="9" onmousedown="handleZoom(evt,'in')"/>
                <use id="zoomminus" xlink:href="#zoomMin" x="42" y="9" onmousedown="handleZoom(evt,'out')"/>
                <use id="reset" xlink:href="#resetDef" x="30" y="36" onmousedown="handleReset()"/>
                <g id="arrowUp" xlink:href="#dirArrow" transform="translate(30 24)" onmousedown="handlePan(0,-1)">
                  <use xlink:href="#rim" fill="#404040">
                        <set attributeName="fill" to="#808080" begin="arrowUp.mouseover" end="arrowUp.mouseout"/>
                  </use>
                  <path fill="none" stroke="white" stroke-width="1.5" d="M0,-3.0v7 M-2.5,-0.5L0,-3.0L2.5,-0.5"/>
                </g>
                <g id="arrowRight" xlink:href="#dirArrow" transform="rotate(90) translate(36 -43)" onmousedown="handlePan(1,0)">
                  <use xlink:href="#rim" fill="#404040">
                        <set attributeName="fill" to="#808080" begin="arrowRight.mouseover" end="arrowRight.mouseout"/>
                  </use>
                  <path fill="none" stroke="white" stroke-width="1.5" d="M0,-3.0v7 M-2.5,-0.5L0,-3.0L2.5,-0.5"/>
                </g>
                <g id="arrowDown" xlink:href="#dirArrow" transform="rotate(180) translate(-30 -48)" onmousedown="handlePan(0,1)">
                  <use xlink:href="#rim" fill="#404040">
                        <set attributeName="fill" to="#808080" begin="arrowDown.mouseover" end="arrowDown.mouseout"/>
                  </use>
                  <path fill="none" stroke="white" stroke-width="1.5" d="M0,-3.0v7 M-2.5,-0.5L0,-3.0L2.5,-0.5"/>
                </g>
                <g id="arrowLeft" xlink:href="#dirArrow" transform="rotate(270) translate(-36 17)" onmousedown="handlePan(-1,0)">
                  <use xlink:href="#rim" fill="#404040">
                        <set attributeName="fill" to="#808080" begin="arrowLeft.mouseover" end="arrowLeft.mouseout"/>
                  </use>
                  <path fill="none" stroke="white" stroke-width="1.5" d="M0,-3.0v7 M-2.5,-0.5L0,-3.0L2.5,-0.5"/>
                </g>
        </g>
        <svg viewBox="0 0 15 15" width="100%" height="30px" preserveAspectRatio="xMaxYMin meet">
         <g id="arrow_out" transform="scale(0.3 0.3)">
          <a xlink:href="classgame_authoring_1_1scenes_1_1path_building_1_1building_panes_1_1_building_pane_a2d6b965c14feaf90edcede9a5a7973a6_icgraph_org.svg" target="_base">
           <rect id="button" ry="5" rx="5" y="6" x="6" height="38" width="38"
                fill="#f2f5e9" fill-opacity="0.5" stroke="#606060" stroke-width="1.0"/>
           <path id="arrow"
             d="M 11.500037,31.436501 C 11.940474,20.09759 22.043105,11.32322 32.158766,21.979434 L 37.068811,17.246167 C 37.068811,17.246167 37.088388,32 37.088388,32 L 22.160133,31.978069 C 22.160133,31.978069 26.997745,27.140456 26.997745,27.140456 C 18.528582,18.264221 13.291696,25.230495 11.500037,31.436501 z"
             style="fill:#404040;"/>
          </a>
         </g>
        </svg>
</svg>
