<?xml version="1.0" encoding="UTF-8" standalone="no"?>
<!DOCTYPE svg PUBLIC "-//W3C//DTD SVG 1.1//EN"
 "http://www.w3.org/Graphics/SVG/1.1/DTD/svg11.dtd">
<!-- Generated by graphviz version 2.36.0 (20140111.2315)
 -->
<!-- Title: gameEngine.actors.behaviors.AoEAttack.performAttack Pages: 1 -->
<!--zoomable 382 -->
<svg id="main" version="1.1" xmlns="http://www.w3.org/2000/svg" xmlns:xlink="http://www.w3.org/1999/xlink" xml:space="preserve" onload="init(evt)">
<style type="text/css"><![CDATA[
.edge:hover path { stroke: red; }
.edge:hover polygon { stroke: red; fill: red; }
]]></style>
<script type="text/javascript"><![CDATA[
var edges = document.getElementsByTagName('g');
if (edges && edges.length) {
  for (var i=0;i<edges.length;i++) {
    if (edges[i].id.substr(0,4)=='edge') {
      edges[i].setAttribute('class','edge');
    }
  }
}
]]></script>
        <defs>
                <circle id="rim" cx="0" cy="0" r="7"/>
                <circle id="rim2" cx="0" cy="0" r="3.5"/>
                <g id="zoomPlus">
                        <use xlink:href="#rim" fill="#404040">
                                <set attributeName="fill" to="#808080" begin="zoomplus.mouseover" end="zoomplus.mouseout"/>
                        </use>
                        <path d="M-4,0h8M0,-4v8" fill="none" stroke="white" stroke-width="1.5" pointer-events="none"/>
                </g>
                <g id="zoomMin">
                        <use xlink:href="#rim" fill="#404040">
                                <set attributeName="fill" to="#808080" begin="zoomminus.mouseover" end="zoomminus.mouseout"/>
                        </use>
                        <path d="M-4,0h8" fill="none" stroke="white" stroke-width="1.5" pointer-events="none"/>
                </g>
                <g id="dirArrow">
                        <path fill="none" stroke="white" stroke-width="1.5" d="M0,-3.0v7 M-2.5,-0.5L0,-3.0L2.5,-0.5"/>
                </g>
               <g id="resetDef">
                       <use xlink:href="#rim2" fill="#404040">
                               <set attributeName="fill" to="#808080" begin="reset.mouseover" end="reset.mouseout"/>
                       </use>
               </g>
        </defs>

<script type="text/javascript">
var viewWidth = 670;
var viewHeight = 382;
var sectionId = 'dynsection-5';
</script>
<script xlink:href="../../svgpan.js"/>
<svg id="graph" class="graph">
<g id="viewport">
<title>gameEngine.actors.behaviors.AoEAttack.performAttack</title>
<polygon fill="white" stroke="none" points="-4,4 -4,-378 666,-378 666,4 -4,4"/>
<!-- Node1 -->
<g id="node1" class="node"><title>Node1</title>
<polygon fill="#bfbfbf" stroke="black" points="0,-202 0,-232 162,-232 162,-202 0,-202"/>
<text text-anchor="start" x="8" y="-220" font-family="Helvetica,sans-Serif" font-size="10.00">gameEngine.actors.behaviors.</text>
<text text-anchor="middle" x="81" y="-209" font-family="Helvetica,sans-Serif" font-size="10.00">AoEAttack.performAttack</text>
</g>
<!-- Node2 -->
<g id="node2" class="node"><title>Node2</title>
<g id="a_node2"><a xlink:href="../../db/d9e/classgame_engine_1_1actors_1_1behaviors_1_1_ao_e_attack.html#acb00a95e17f52372f469245b4cc13acf" target="_top" xlink:title="gameEngine.actors.behaviors.\lAoEAttack.copy">
<polygon fill="white" stroke="black" points="225,-341 225,-371 387,-371 387,-341 225,-341"/>
<text text-anchor="start" x="233" y="-359" font-family="Helvetica,sans-Serif" font-size="10.00">gameEngine.actors.behaviors.</text>
<text text-anchor="middle" x="306" y="-348" font-family="Helvetica,sans-Serif" font-size="10.00">AoEAttack.copy</text>
</a>
</g>
</g>
<!-- Node1&#45;&gt;Node2 -->
<g id="edge1" class="edge"><title>Node1&#45;&gt;Node2</title>
<path fill="none" stroke="midnightblue" d="M93.3743,-232.258C112.315,-256.549 152.739,-303.83 198,-329 203.604,-332.116 209.571,-334.879 215.712,-337.328"/>
<polygon fill="midnightblue" stroke="midnightblue" points="214.882,-340.752 225.475,-340.923 217.301,-334.183 214.882,-340.752"/>
</g>
<!-- Node4 -->
<g id="node4" class="node"><title>Node4</title>
<g id="a_node4"><a xlink:href="../../d5/d02/classgame_engine_1_1actors_1_1_base_actor.html#aa69731335ede718aa18dc55d533868df" target="_top" xlink:title="gameEngine.actors.BaseActor.get\lEnemiesInRange">
<polygon fill="white" stroke="black" points="216,-290 216,-320 396,-320 396,-290 216,-290"/>
<text text-anchor="start" x="224" y="-308" font-family="Helvetica,sans-Serif" font-size="10.00">gameEngine.actors.BaseActor.get</text>
<text text-anchor="middle" x="306" y="-297" font-family="Helvetica,sans-Serif" font-size="10.00">EnemiesInRange</text>
</a>
</g>
</g>
<!-- Node1&#45;&gt;Node4 -->
<g id="edge3" class="edge"><title>Node1&#45;&gt;Node4</title>
<path fill="none" stroke="midnightblue" d="M105.539,-232.238C128.361,-246.41 164.371,-267.206 198,-280 204.803,-282.588 211.956,-284.96 219.202,-287.123"/>
<polygon fill="midnightblue" stroke="midnightblue" points="218.541,-290.574 229.117,-289.943 220.456,-283.841 218.541,-290.574"/>
</g>
<!-- Node7 -->
<g id="node7" class="node"><title>Node7</title>
<g id="a_node7"><a xlink:href="../../da/d6a/classgame_engine_1_1actors_1_1_base_projectile.html#a1576fcb5d291dd025c11c0cab3f05bd4" target="_top" xlink:title="gameEngine.actors.BaseProjectile.getInfo">
<polygon fill="white" stroke="black" points="198,-251.5 198,-270.5 414,-270.5 414,-251.5 198,-251.5"/>
<text text-anchor="middle" x="306" y="-258.5" font-family="Helvetica,sans-Serif" font-size="10.00">gameEngine.actors.BaseProjectile.getInfo</text>
</a>
</g>
</g>
<!-- Node1&#45;&gt;Node7 -->
<g id="edge6" class="edge"><title>Node1&#45;&gt;Node7</title>
<path fill="none" stroke="midnightblue" d="M153.427,-232.003C168.156,-235.033 183.573,-238.159 198,-241 212.538,-243.862 228.208,-246.848 242.953,-249.612"/>
<polygon fill="midnightblue" stroke="midnightblue" points="242.515,-253.09 252.987,-251.486 243.8,-246.209 242.515,-253.09"/>
</g>
<!-- Node8 -->
<g id="node8" class="node"><title>Node8</title>
<g id="a_node8"><a xlink:href="../../d8/d65/classgame_engine_1_1actors_1_1_projectile_info.html#a554e5dd70eb8f5ac9d79ed1289fa702d" target="_top" xlink:title="gameEngine.actors.Projectile\lInfo.getMove">
<polygon fill="white" stroke="black" points="228,-202 228,-232 384,-232 384,-202 228,-202"/>
<text text-anchor="start" x="236" y="-220" font-family="Helvetica,sans-Serif" font-size="10.00">gameEngine.actors.Projectile</text>
<text text-anchor="middle" x="306" y="-209" font-family="Helvetica,sans-Serif" font-size="10.00">Info.getMove</text>
</a>
</g>
</g>
<!-- Node1&#45;&gt;Node8 -->
<g id="edge7" class="edge"><title>Node1&#45;&gt;Node8</title>
<path fill="none" stroke="midnightblue" d="M162.193,-217C180.209,-217 199.412,-217 217.701,-217"/>
<polygon fill="midnightblue" stroke="midnightblue" points="217.755,-220.5 227.755,-217 217.755,-213.5 217.755,-220.5"/>
</g>
<!-- Node9 -->
<g id="node9" class="node"><title>Node9</title>
<g id="a_node9"><a xlink:href="../../d5/d02/classgame_engine_1_1actors_1_1_base_actor.html#a2106e623a36a5683759aff1a392c7686" target="_top" xlink:title="gameEngine.actors.BaseActor.getX">
<polygon fill="white" stroke="black" points="213,-163.5 213,-182.5 399,-182.5 399,-163.5 213,-163.5"/>
<text text-anchor="middle" x="306" y="-170.5" font-family="Helvetica,sans-Serif" font-size="10.00">gameEngine.actors.BaseActor.getX</text>
</a>
</g>
</g>
<!-- Node1&#45;&gt;Node9 -->
<g id="edge8" class="edge"><title>Node1&#45;&gt;Node9</title>
<path fill="none" stroke="midnightblue" d="M149.693,-201.976C165.521,-198.584 182.334,-195.078 198,-192 211.204,-189.406 225.355,-186.782 238.901,-184.347"/>
<polygon fill="midnightblue" stroke="midnightblue" points="239.887,-187.727 249.117,-182.526 238.658,-180.836 239.887,-187.727"/>
</g>
<!-- Node11 -->
<g id="node11" class="node"><title>Node11</title>
<g id="a_node11"><a xlink:href="../../d5/d02/classgame_engine_1_1actors_1_1_base_actor.html#a4e1debba2b998a75964fb8c979cb15e8" target="_top" xlink:title="gameEngine.actors.BaseActor.getY">
<polygon fill="white" stroke="black" points="213.5,-125.5 213.5,-144.5 398.5,-144.5 398.5,-125.5 213.5,-125.5"/>
<text text-anchor="middle" x="306" y="-132.5" font-family="Helvetica,sans-Serif" font-size="10.00">gameEngine.actors.BaseActor.getY</text>
</a>
</g>
</g>
<!-- Node1&#45;&gt;Node11 -->
<g id="edge10" class="edge"><title>Node1&#45;&gt;Node11</title>
<path fill="none" stroke="midnightblue" d="M104.528,-201.904C127.188,-187.424 163.607,-166.036 198,-154 205.936,-151.223 214.351,-148.837 222.838,-146.79"/>
<polygon fill="midnightblue" stroke="midnightblue" points="223.826,-150.155 232.81,-144.54 222.285,-143.327 223.826,-150.155"/>
</g>
<!-- Node13 -->
<g id="node13" class="node"><title>Node13</title>
<g id="a_node13"><a xlink:href="../../de/d4a/classgame_engine_1_1actors_1_1behaviors_1_1_base_movement_behavior.html#a70e6d2becc4b988c5d35a4f5fed8b7dd" target="_top" xlink:title="gameEngine.actors.behaviors.\lBaseMovementBehavior.setRoute">
<polygon fill="white" stroke="black" points="217,-66 217,-96 395,-96 395,-66 217,-66"/>
<text text-anchor="start" x="225" y="-84" font-family="Helvetica,sans-Serif" font-size="10.00">gameEngine.actors.behaviors.</text>
<text text-anchor="middle" x="306" y="-73" font-family="Helvetica,sans-Serif" font-size="10.00">BaseMovementBehavior.setRoute</text>
</a>
</g>
</g>
<!-- Node1&#45;&gt;Node13 -->
<g id="edge12" class="edge"><title>Node1&#45;&gt;Node13</title>
<path fill="none" stroke="midnightblue" d="M95.5483,-201.854C115.832,-180.02 156.199,-139.726 198,-116 209.513,-109.465 222.425,-103.938 235.188,-99.3429"/>
<polygon fill="midnightblue" stroke="midnightblue" points="236.574,-102.568 244.895,-96.0095 234.3,-95.9475 236.574,-102.568"/>
</g>
<!-- Node3 -->
<g id="node3" class="node"><title>Node3</title>
<g id="a_node3"><a xlink:href="../../db/d9e/classgame_engine_1_1actors_1_1behaviors_1_1_ao_e_attack.html#af1ebed87063c5c30be364dee89c2af5a" target="_top" xlink:title="gameEngine.actors.behaviors.\lAoEAttack.AoEAttack">
<polygon fill="white" stroke="black" points="475,-344 475,-374 637,-374 637,-344 475,-344"/>
<text text-anchor="start" x="483" y="-362" font-family="Helvetica,sans-Serif" font-size="10.00">gameEngine.actors.behaviors.</text>
<text text-anchor="middle" x="556" y="-351" font-family="Helvetica,sans-Serif" font-size="10.00">AoEAttack.AoEAttack</text>
</a>
</g>
</g>
<!-- Node2&#45;&gt;Node3 -->
<g id="edge2" class="edge"><title>Node2&#45;&gt;Node3</title>
<path fill="none" stroke="midnightblue" d="M387.176,-356.97C411.803,-357.268 439.077,-357.598 464.354,-357.903"/>
<polygon fill="midnightblue" stroke="midnightblue" points="464.634,-361.407 474.676,-358.028 464.719,-354.408 464.634,-361.407"/>
</g>
<!-- Node5 -->
<g id="node5" class="node"><title>Node5</title>
<g id="a_node5"><a xlink:href="../../d2/d81/interfacegame_engine_1_1_manager_interface_1_1_information_interface.html#a3eabafeda6598b367a863b4d035932f1" target="_top" xlink:title="gameEngine.ManagerInterface.\lInformationInterface.getRequired\lActors">
<polygon fill="white" stroke="black" points="469.5,-284.5 469.5,-325.5 642.5,-325.5 642.5,-284.5 469.5,-284.5"/>
<text text-anchor="start" x="477.5" y="-313.5" font-family="Helvetica,sans-Serif" font-size="10.00">gameEngine.ManagerInterface.</text>
<text text-anchor="start" x="477.5" y="-302.5" font-family="Helvetica,sans-Serif" font-size="10.00">InformationInterface.getRequired</text>
<text text-anchor="middle" x="556" y="-291.5" font-family="Helvetica,sans-Serif" font-size="10.00">Actors</text>
</a>
</g>
</g>
<!-- Node4&#45;&gt;Node5 -->
<g id="edge4" class="edge"><title>Node4&#45;&gt;Node5</title>
<path fill="none" stroke="midnightblue" d="M396.183,-305C416.59,-305 438.366,-305 459.044,-305"/>
<polygon fill="midnightblue" stroke="midnightblue" points="459.096,-308.5 469.095,-305 459.095,-301.5 459.096,-308.5"/>
</g>
<!-- Node6 -->
<g id="node6" class="node"><title>Node6</title>
<g id="a_node6"><a xlink:href="../../d5/d02/classgame_engine_1_1actors_1_1_base_actor.html#a827bcd701171b1776750c84bca05675d" target="_top" xlink:title="gameEngine.actors.BaseActor.set\lRange">
<polygon fill="white" stroke="black" points="466.5,-236 466.5,-266 645.5,-266 645.5,-236 466.5,-236"/>
<text text-anchor="start" x="474.5" y="-254" font-family="Helvetica,sans-Serif" font-size="10.00">gameEngine.actors.BaseActor.set</text>
<text text-anchor="middle" x="556" y="-243" font-family="Helvetica,sans-Serif" font-size="10.00">Range</text>
</a>
</g>
</g>
<!-- Node4&#45;&gt;Node6 -->
<g id="edge5" class="edge"><title>Node4&#45;&gt;Node6</title>
<path fill="none" stroke="midnightblue" d="M376.082,-289.958C407.125,-283.199 443.922,-275.186 476.05,-268.191"/>
<polygon fill="midnightblue" stroke="midnightblue" points="476.833,-271.602 485.859,-266.055 475.343,-264.763 476.833,-271.602"/>
</g>
<!-- Node10 -->
<g id="node10" class="node"><title>Node10</title>
<g id="a_node10"><a xlink:href="../../dd/df0/classutilities_1_1_java_f_xutilities_1_1image_view_1_1_centered_image_view.html#a063a62060b9b686601364fdbb8b6cd86" target="_top" xlink:title="utilities.JavaFXutilities.image\lView.CenteredImageView.getXCenter">
<polygon fill="white" stroke="black" points="460,-169 460,-199 652,-199 652,-169 460,-169"/>
<text text-anchor="start" x="468" y="-187" font-family="Helvetica,sans-Serif" font-size="10.00">utilities.JavaFXutilities.image</text>
<text text-anchor="middle" x="556" y="-176" font-family="Helvetica,sans-Serif" font-size="10.00">View.CenteredImageView.getXCenter</text>
</a>
</g>
</g>
<!-- Node9&#45;&gt;Node10 -->
<g id="edge9" class="edge"><title>Node9&#45;&gt;Node10</title>
<path fill="none" stroke="midnightblue" d="M399.346,-177.096C415.654,-177.819 432.746,-178.577 449.385,-179.315"/>
<polygon fill="midnightblue" stroke="midnightblue" points="449.531,-182.825 459.676,-179.772 449.841,-175.832 449.531,-182.825"/>
</g>
<!-- Node12 -->
<g id="node12" class="node"><title>Node12</title>
<g id="a_node12"><a xlink:href="../../dd/df0/classutilities_1_1_java_f_xutilities_1_1image_view_1_1_centered_image_view.html#aa05843be4846dc0d9c23489cac21ed3d" target="_top" xlink:title="utilities.JavaFXutilities.image\lView.CenteredImageView.getYCenter">
<polygon fill="white" stroke="black" points="460.5,-120 460.5,-150 651.5,-150 651.5,-120 460.5,-120"/>
<text text-anchor="start" x="468.5" y="-138" font-family="Helvetica,sans-Serif" font-size="10.00">utilities.JavaFXutilities.image</text>
<text text-anchor="middle" x="556" y="-127" font-family="Helvetica,sans-Serif" font-size="10.00">View.CenteredImageView.getYCenter</text>
</a>
</g>
</g>
<!-- Node11&#45;&gt;Node12 -->
<g id="edge11" class="edge"><title>Node11&#45;&gt;Node12</title>
<path fill="none" stroke="midnightblue" d="M398.641,-135C415.482,-135 433.178,-135 450.365,-135"/>
<polygon fill="midnightblue" stroke="midnightblue" points="450.415,-138.5 460.415,-135 450.415,-131.5 450.415,-138.5"/>
</g>
<!-- Node14 -->
<g id="node14" class="node"><title>Node14</title>
<g id="a_node14"><a xlink:href="../../d0/d61/classgame_authoring_1_1scenes_1_1path_building_1_1path_components_1_1route_to_point_translation_1_1_backend_route.html#a4decf5451f724697b0b0ba60cd230f6f" target="_top" xlink:title="gameAuthoring.scenes.path\lBuilding.pathComponents.routeTo\lPointTranslation.BackendRoute.getPoints">
<polygon fill="white" stroke="black" points="450.5,-60.5 450.5,-101.5 661.5,-101.5 661.5,-60.5 450.5,-60.5"/>
<text text-anchor="start" x="458.5" y="-89.5" font-family="Helvetica,sans-Serif" font-size="10.00">gameAuthoring.scenes.path</text>
<text text-anchor="start" x="458.5" y="-78.5" font-family="Helvetica,sans-Serif" font-size="10.00">Building.pathComponents.routeTo</text>
<text text-anchor="middle" x="556" y="-67.5" font-family="Helvetica,sans-Serif" font-size="10.00">PointTranslation.BackendRoute.getPoints</text>
</a>
</g>
</g>
<!-- Node13&#45;&gt;Node14 -->
<g id="edge13" class="edge"><title>Node13&#45;&gt;Node14</title>
<path fill="none" stroke="midnightblue" d="M395.134,-81C409.613,-81 424.806,-81 439.826,-81"/>
<polygon fill="midnightblue" stroke="midnightblue" points="440.185,-84.5001 450.185,-81 440.185,-77.5001 440.185,-84.5001"/>
</g>
<!-- Node15 -->
<g id="node15" class="node"><title>Node15</title>
<g id="a_node15"><a xlink:href="../../de/d4a/classgame_engine_1_1actors_1_1behaviors_1_1_base_movement_behavior.html#abbe13fb6a28a1168081ede01b9626d45" target="_top" xlink:title="gameEngine.actors.behaviors.\lBaseMovementBehavior.calculateTotal\lDistance">
<polygon fill="white" stroke="black" points="456,-0.5 456,-41.5 656,-41.5 656,-0.5 456,-0.5"/>
<text text-anchor="start" x="464" y="-29.5" font-family="Helvetica,sans-Serif" font-size="10.00">gameEngine.actors.behaviors.</text>
<text text-anchor="start" x="464" y="-18.5" font-family="Helvetica,sans-Serif" font-size="10.00">BaseMovementBehavior.calculateTotal</text>
<text text-anchor="middle" x="556" y="-7.5" font-family="Helvetica,sans-Serif" font-size="10.00">Distance</text>
</a>
</g>
</g>
<!-- Node13&#45;&gt;Node15 -->
<g id="edge14" class="edge"><title>Node13&#45;&gt;Node15</title>
<path fill="none" stroke="midnightblue" d="M369.261,-65.9369C396.838,-59.2651 429.884,-51.2699 460.408,-43.8852"/>
<polygon fill="midnightblue" stroke="midnightblue" points="461.323,-47.2649 470.22,-41.5114 459.677,-40.4611 461.323,-47.2649"/>
</g>
</g>
</svg>
        <g id="navigator" transform="translate(0 0)" fill="#404254">
                <rect fill="#f2f5e9" fill-opacity="0.5" stroke="#606060" stroke-width=".5" x="0" y="0" width="60" height="60"/>
                <use id="zoomplus" xlink:href="#zoomPlus" x="17" y="9" onmousedown="handleZoom(evt,'in')"/>
                <use id="zoomminus" xlink:href="#zoomMin" x="42" y="9" onmousedown="handleZoom(evt,'out')"/>
                <use id="reset" xlink:href="#resetDef" x="30" y="36" onmousedown="handleReset()"/>
                <g id="arrowUp" xlink:href="#dirArrow" transform="translate(30 24)" onmousedown="handlePan(0,-1)">
                  <use xlink:href="#rim" fill="#404040">
                        <set attributeName="fill" to="#808080" begin="arrowUp.mouseover" end="arrowUp.mouseout"/>
                  </use>
                  <path fill="none" stroke="white" stroke-width="1.5" d="M0,-3.0v7 M-2.5,-0.5L0,-3.0L2.5,-0.5"/>
                </g>
                <g id="arrowRight" xlink:href="#dirArrow" transform="rotate(90) translate(36 -43)" onmousedown="handlePan(1,0)">
                  <use xlink:href="#rim" fill="#404040">
                        <set attributeName="fill" to="#808080" begin="arrowRight.mouseover" end="arrowRight.mouseout"/>
                  </use>
                  <path fill="none" stroke="white" stroke-width="1.5" d="M0,-3.0v7 M-2.5,-0.5L0,-3.0L2.5,-0.5"/>
                </g>
                <g id="arrowDown" xlink:href="#dirArrow" transform="rotate(180) translate(-30 -48)" onmousedown="handlePan(0,1)">
                  <use xlink:href="#rim" fill="#404040">
                        <set attributeName="fill" to="#808080" begin="arrowDown.mouseover" end="arrowDown.mouseout"/>
                  </use>
                  <path fill="none" stroke="white" stroke-width="1.5" d="M0,-3.0v7 M-2.5,-0.5L0,-3.0L2.5,-0.5"/>
                </g>
                <g id="arrowLeft" xlink:href="#dirArrow" transform="rotate(270) translate(-36 17)" onmousedown="handlePan(-1,0)">
                  <use xlink:href="#rim" fill="#404040">
                        <set attributeName="fill" to="#808080" begin="arrowLeft.mouseover" end="arrowLeft.mouseout"/>
                  </use>
                  <path fill="none" stroke="white" stroke-width="1.5" d="M0,-3.0v7 M-2.5,-0.5L0,-3.0L2.5,-0.5"/>
                </g>
        </g>
        <svg viewBox="0 0 15 15" width="100%" height="30px" preserveAspectRatio="xMaxYMin meet">
         <g id="arrow_out" transform="scale(0.3 0.3)">
          <a xlink:href="classgame_engine_1_1actors_1_1behaviors_1_1_ao_e_attack_a35d7f53636d745562765310ca1e4b850_cgraph_org.svg" target="_base">
           <rect id="button" ry="5" rx="5" y="6" x="6" height="38" width="38"
                fill="#f2f5e9" fill-opacity="0.5" stroke="#606060" stroke-width="1.0"/>
           <path id="arrow"
             d="M 11.500037,31.436501 C 11.940474,20.09759 22.043105,11.32322 32.158766,21.979434 L 37.068811,17.246167 C 37.068811,17.246167 37.088388,32 37.088388,32 L 22.160133,31.978069 C 22.160133,31.978069 26.997745,27.140456 26.997745,27.140456 C 18.528582,18.264221 13.291696,25.230495 11.500037,31.436501 z"
             style="fill:#404040;"/>
          </a>
         </g>
        </svg>
</svg>
