<?xml version="1.0" encoding="UTF-8" standalone="no"?>
<!DOCTYPE svg PUBLIC "-//W3C//DTD SVG 1.1//EN"
 "http://www.w3.org/Graphics/SVG/1.1/DTD/svg11.dtd">
<!-- Generated by graphviz version 2.36.0 (20140111.2315)
 -->
<!-- Title: utilities.JavaFXutilities.imageView.CenteredImageView.getYCenter Pages: 1 -->
<svg width="1630pt" height="567pt"
 viewBox="0.00 0.00 1630.00 567.00" xmlns="http://www.w3.org/2000/svg" xmlns:xlink="http://www.w3.org/1999/xlink">
<g id="graph0" class="graph" transform="scale(1 1) rotate(0) translate(4 563)">
<title>utilities.JavaFXutilities.imageView.CenteredImageView.getYCenter</title>
<polygon fill="white" stroke="none" points="-4,4 -4,-563 1626,-563 1626,4 -4,4"/>
<!-- Node1 -->
<g id="node1" class="node"><title>Node1</title>
<polygon fill="#bfbfbf" stroke="black" points="0.5,-340 0.5,-370 191.5,-370 191.5,-340 0.5,-340"/>
<text text-anchor="start" x="8.5" y="-358" font-family="Helvetica,sans-Serif" font-size="10.00">utilities.JavaFXutilities.image</text>
<text text-anchor="middle" x="96" y="-347" font-family="Helvetica,sans-Serif" font-size="10.00">View.CenteredImageView.getYCenter</text>
</g>
<!-- Node2 -->
<g id="node2" class="node"><title>Node2</title>
<g id="a_node2"><a xlink:href="../../da/d6a/classgame_engine_1_1actors_1_1_base_projectile.html#a2b8b2ce5491620fd048ef019dba93eb8" target="_top" xlink:title="gameEngine.actors.BaseProjectile.get\lRange">
<polygon fill="white" stroke="black" points="228.5,-411 228.5,-441 427.5,-441 427.5,-411 228.5,-411"/>
<text text-anchor="start" x="236.5" y="-429" font-family="Helvetica,sans-Serif" font-size="10.00">gameEngine.actors.BaseProjectile.get</text>
<text text-anchor="middle" x="328" y="-418" font-family="Helvetica,sans-Serif" font-size="10.00">Range</text>
</a>
</g>
</g>
<!-- Node1&#45;&gt;Node2 -->
<g id="edge1" class="edge"><title>Node1&#45;&gt;Node2</title>
<path fill="none" stroke="midnightblue" d="M146.234,-373.473C170.654,-382.331 200.697,-392.777 228,-401 239.542,-404.476 251.938,-407.869 263.919,-410.979"/>
<polygon fill="midnightblue" stroke="midnightblue" points="147.42,-370.18 136.826,-370.038 145.019,-376.755 147.42,-370.18"/>
</g>
<!-- Node3 -->
<g id="node3" class="node"><title>Node3</title>
<g id="a_node3"><a xlink:href="../../de/d0f/classgame_engine_1_1actors_1_1_real_actor.html#ac4c0a4a81311cd21cc671e7c2d0eba82" target="_top" xlink:title="gameEngine.actors.RealActor.get\lRange">
<polygon fill="white" stroke="black" points="240,-362 240,-392 416,-392 416,-362 240,-362"/>
<text text-anchor="start" x="248" y="-380" font-family="Helvetica,sans-Serif" font-size="10.00">gameEngine.actors.RealActor.get</text>
<text text-anchor="middle" x="328" y="-369" font-family="Helvetica,sans-Serif" font-size="10.00">Range</text>
</a>
</g>
</g>
<!-- Node1&#45;&gt;Node3 -->
<g id="edge2" class="edge"><title>Node1&#45;&gt;Node3</title>
<path fill="none" stroke="midnightblue" d="M201.72,-365.017C214.468,-366.236 227.386,-367.472 239.84,-368.663"/>
<polygon fill="midnightblue" stroke="midnightblue" points="201.833,-361.512 191.545,-364.043 201.167,-368.48 201.833,-361.512"/>
</g>
<!-- Node4 -->
<g id="node4" class="node"><title>Node4</title>
<g id="a_node4"><a xlink:href="../../d5/d02/classgame_engine_1_1actors_1_1_base_actor.html#a4e1debba2b998a75964fb8c979cb15e8" target="_top" xlink:title="gameEngine.actors.BaseActor.getY">
<polygon fill="white" stroke="black" points="235.5,-323.5 235.5,-342.5 420.5,-342.5 420.5,-323.5 235.5,-323.5"/>
<text text-anchor="middle" x="328" y="-330.5" font-family="Helvetica,sans-Serif" font-size="10.00">gameEngine.actors.BaseActor.getY</text>
</a>
</g>
</g>
<!-- Node1&#45;&gt;Node4 -->
<g id="edge3" class="edge"><title>Node1&#45;&gt;Node4</title>
<path fill="none" stroke="midnightblue" d="M201.8,-344.976C213.019,-343.903 224.369,-342.817 235.417,-341.76"/>
<polygon fill="midnightblue" stroke="midnightblue" points="201.167,-341.52 191.545,-345.957 201.833,-348.488 201.167,-341.52"/>
</g>
<!-- Node24 -->
<g id="node24" class="node"><title>Node24</title>
<g id="a_node24"><a xlink:href="../../da/d69/classgame_player_1_1main_classes_1_1managers_1_1_gui_manager.html#ad5da35abd0e1b0f2938b85549703118e" target="_top" xlink:title="gamePlayer.mainClasses.managers.\lGuiManager.selectTower">
<polygon fill="white" stroke="black" points="232.5,-98 232.5,-128 423.5,-128 423.5,-98 232.5,-98"/>
<text text-anchor="start" x="240.5" y="-116" font-family="Helvetica,sans-Serif" font-size="10.00">gamePlayer.mainClasses.managers.</text>
<text text-anchor="middle" x="328" y="-105" font-family="Helvetica,sans-Serif" font-size="10.00">GuiManager.selectTower</text>
</a>
</g>
</g>
<!-- Node1&#45;&gt;Node24 -->
<g id="edge24" class="edge"><title>Node1&#45;&gt;Node24</title>
<path fill="none" stroke="midnightblue" d="M118.544,-332.331C164.989,-283.464 273.498,-169.294 312.618,-128.132"/>
<polygon fill="midnightblue" stroke="midnightblue" points="115.74,-330.202 111.388,-339.862 120.814,-335.024 115.74,-330.202"/>
</g>
<!-- Node5 -->
<g id="node5" class="node"><title>Node5</title>
<g id="a_node5"><a xlink:href="../../df/da2/classutilities_1_1_g_s_o_n_1_1object_wrappers_1_1_data_wrapper.html#a014585cfc953fd7d5d30e48165aa7dae" target="_top" xlink:title="utilities.GSON.objectWrappers.\lDataWrapper.DataWrapper">
<polygon fill="white" stroke="black" points="486,-529 486,-559 648,-559 648,-529 486,-529"/>
<text text-anchor="start" x="494" y="-547" font-family="Helvetica,sans-Serif" font-size="10.00">utilities.GSON.objectWrappers.</text>
<text text-anchor="middle" x="567" y="-536" font-family="Helvetica,sans-Serif" font-size="10.00">DataWrapper.DataWrapper</text>
</a>
</g>
</g>
<!-- Node4&#45;&gt;Node5 -->
<g id="edge4" class="edge"><title>Node4&#45;&gt;Node5</title>
<path fill="none" stroke="midnightblue" d="M423.965,-348.424C425.362,-349.548 426.709,-350.738 428,-352 482.295,-405.076 411.069,-464.564 464,-519 470.228,-525.405 477.809,-530.274 485.996,-533.961"/>
<polygon fill="midnightblue" stroke="midnightblue" points="425.711,-345.38 415.462,-342.697 421.801,-351.186 425.711,-345.38"/>
</g>
<!-- Node7 -->
<g id="node7" class="node"><title>Node7</title>
<g id="a_node7"><a xlink:href="../../dc/d78/classgame_engine_1_1actors_1_1behaviors_1_1_closest_range_attack.html#a380f59e50b1ac7df4fa391345e437279" target="_top" xlink:title="gameEngine.actors.behaviors.\lClosestRangeAttack.defineComparison">
<polygon fill="white" stroke="black" points="465.5,-480 465.5,-510 668.5,-510 668.5,-480 465.5,-480"/>
<text text-anchor="start" x="473.5" y="-498" font-family="Helvetica,sans-Serif" font-size="10.00">gameEngine.actors.behaviors.</text>
<text text-anchor="middle" x="567" y="-487" font-family="Helvetica,sans-Serif" font-size="10.00">ClosestRangeAttack.defineComparison</text>
</a>
</g>
</g>
<!-- Node4&#45;&gt;Node7 -->
<g id="edge6" class="edge"><title>Node4&#45;&gt;Node7</title>
<path fill="none" stroke="midnightblue" d="M423.111,-348.053C424.805,-349.282 426.438,-350.596 428,-352 468.78,-388.653 424.163,-432.325 464,-470 467.974,-473.758 472.417,-476.979 477.165,-479.737"/>
<polygon fill="midnightblue" stroke="midnightblue" points="424.535,-344.821 414.179,-342.585 420.881,-350.791 424.535,-344.821"/>
</g>
<!-- Node8 -->
<g id="node8" class="node"><title>Node8</title>
<g id="a_node8"><a xlink:href="../../d6/d0d/classgame_engine_1_1actors_1_1behaviors_1_1_enemy_homing_movement.html#ae0dfa468b7ebfd766b31406b8d1f74d6" target="_top" xlink:title="gameEngine.actors.behaviors.\lEnemyHomingMovement.execute">
<polygon fill="white" stroke="black" points="477.5,-431 477.5,-461 656.5,-461 656.5,-431 477.5,-431"/>
<text text-anchor="start" x="485.5" y="-449" font-family="Helvetica,sans-Serif" font-size="10.00">gameEngine.actors.behaviors.</text>
<text text-anchor="middle" x="567" y="-438" font-family="Helvetica,sans-Serif" font-size="10.00">EnemyHomingMovement.execute</text>
</a>
</g>
</g>
<!-- Node4&#45;&gt;Node8 -->
<g id="edge7" class="edge"><title>Node4&#45;&gt;Node8</title>
<path fill="none" stroke="midnightblue" d="M420.565,-347.148C423.144,-348.624 425.631,-350.237 428,-352 455.749,-372.65 436.784,-399.652 464,-421 468.949,-424.882 474.417,-428.172 480.174,-430.959"/>
<polygon fill="midnightblue" stroke="midnightblue" points="421.993,-343.95 411.479,-342.645 418.884,-350.222 421.993,-343.95"/>
</g>
<!-- Node9 -->
<g id="node9" class="node"><title>Node9</title>
<g id="a_node9"><a xlink:href="../../de/d4a/classgame_engine_1_1actors_1_1behaviors_1_1_base_movement_behavior.html#ac56b8c6d59f87cad83decf65b7fd368f" target="_top" xlink:title="gameEngine.actors.behaviors.\lBaseMovementBehavior.findNextTarget">
<polygon fill="white" stroke="black" points="464.5,-343 464.5,-373 669.5,-373 669.5,-343 464.5,-343"/>
<text text-anchor="start" x="472.5" y="-361" font-family="Helvetica,sans-Serif" font-size="10.00">gameEngine.actors.behaviors.</text>
<text text-anchor="middle" x="567" y="-350" font-family="Helvetica,sans-Serif" font-size="10.00">BaseMovementBehavior.findNextTarget</text>
</a>
</g>
</g>
<!-- Node4&#45;&gt;Node9 -->
<g id="edge8" class="edge"><title>Node4&#45;&gt;Node9</title>
<path fill="none" stroke="midnightblue" d="M429.407,-343.591C441.018,-344.816 452.867,-346.066 464.493,-347.292"/>
<polygon fill="midnightblue" stroke="midnightblue" points="429.588,-340.091 419.276,-342.523 428.853,-347.053 429.588,-340.091"/>
</g>
<!-- Node12 -->
<g id="node12" class="node"><title>Node12</title>
<g id="a_node12"><a xlink:href="../../d1/d5b/classgame_engine_1_1_a_i_1_1_grid_path_finder.html#a7e3ed2c2ff3c355a04437f91e62b89b2" target="_top" xlink:title="gameEngine.AI.GridPathFinder.getPath">
<polygon fill="white" stroke="black" points="467,-392.5 467,-411.5 667,-411.5 667,-392.5 467,-392.5"/>
<text text-anchor="middle" x="567" y="-399.5" font-family="Helvetica,sans-Serif" font-size="10.00">gameEngine.AI.GridPathFinder.getPath</text>
</a>
</g>
</g>
<!-- Node4&#45;&gt;Node12 -->
<g id="edge11" class="edge"><title>Node4&#45;&gt;Node12</title>
<path fill="none" stroke="midnightblue" d="M411.446,-345.455C417.156,-347.338 422.731,-349.505 428,-352 446.824,-360.912 445.194,-373.05 464,-382 473.206,-386.381 483.317,-389.803 493.485,-392.475"/>
<polygon fill="midnightblue" stroke="midnightblue" points="412.32,-342.064 401.736,-342.548 410.312,-348.769 412.32,-342.064"/>
</g>
<!-- Node13 -->
<g id="node13" class="node"><title>Node13</title>
<g id="a_node13"><a xlink:href="../../d0/d94/classgame_engine_1_1_main_engine_manager.html#aabe49b899d0903500a511aaebb40b6ce" target="_top" xlink:title="gameEngine.MainEngineManager.is\lInRangeOfField">
<polygon fill="white" stroke="black" points="474,-294 474,-324 660,-324 660,-294 474,-294"/>
<text text-anchor="start" x="482" y="-312" font-family="Helvetica,sans-Serif" font-size="10.00">gameEngine.MainEngineManager.is</text>
<text text-anchor="middle" x="567" y="-301" font-family="Helvetica,sans-Serif" font-size="10.00">InRangeOfField</text>
</a>
</g>
</g>
<!-- Node4&#45;&gt;Node13 -->
<g id="edge13" class="edge"><title>Node4&#45;&gt;Node13</title>
<path fill="none" stroke="midnightblue" d="M430.939,-322.677C445.193,-321.234 459.773,-319.757 473.832,-318.334"/>
<polygon fill="midnightblue" stroke="midnightblue" points="430.227,-319.231 420.63,-323.721 430.932,-326.196 430.227,-319.231"/>
</g>
<!-- Node18 -->
<g id="node18" class="node"><title>Node18</title>
<g id="a_node18"><a xlink:href="../../db/d9e/classgame_engine_1_1actors_1_1behaviors_1_1_ao_e_attack.html#a35d7f53636d745562765310ca1e4b850" target="_top" xlink:title="gameEngine.actors.behaviors.\lAoEAttack.performAttack">
<polygon fill="white" stroke="black" points="486,-245 486,-275 648,-275 648,-245 486,-245"/>
<text text-anchor="start" x="494" y="-263" font-family="Helvetica,sans-Serif" font-size="10.00">gameEngine.actors.behaviors.</text>
<text text-anchor="middle" x="567" y="-252" font-family="Helvetica,sans-Serif" font-size="10.00">AoEAttack.performAttack</text>
</a>
</g>
</g>
<!-- Node4&#45;&gt;Node18 -->
<g id="edge18" class="edge"><title>Node4&#45;&gt;Node18</title>
<path fill="none" stroke="midnightblue" d="M362.012,-319.789C389.124,-309.239 428.673,-294.528 464,-284 474.635,-280.831 485.993,-277.809 497.126,-275.045"/>
<polygon fill="midnightblue" stroke="midnightblue" points="360.649,-316.564 352.617,-323.473 363.204,-323.081 360.649,-316.564"/>
</g>
<!-- Node19 -->
<g id="node19" class="node"><title>Node19</title>
<g id="a_node19"><a xlink:href="../../d9/d41/classgame_engine_1_1actors_1_1behaviors_1_1_range_attack.html#ad01ed9c7d2605735948e6a8b0d1a9485" target="_top" xlink:title="gameEngine.actors.behaviors.\lRangeAttack.shootActorFromActor">
<polygon fill="white" stroke="black" points="476,-196 476,-226 658,-226 658,-196 476,-196"/>
<text text-anchor="start" x="484" y="-214" font-family="Helvetica,sans-Serif" font-size="10.00">gameEngine.actors.behaviors.</text>
<text text-anchor="middle" x="567" y="-203" font-family="Helvetica,sans-Serif" font-size="10.00">RangeAttack.shootActorFromActor</text>
</a>
</g>
</g>
<!-- Node4&#45;&gt;Node19 -->
<g id="edge19" class="edge"><title>Node4&#45;&gt;Node19</title>
<path fill="none" stroke="midnightblue" d="M346.695,-316.524C371.177,-294.627 417.632,-256.237 464,-235 471.526,-231.553 479.598,-228.573 487.786,-226.004"/>
<polygon fill="midnightblue" stroke="midnightblue" points="344.317,-313.956 339.266,-323.269 349.023,-319.138 344.317,-313.956"/>
</g>
<!-- Node21 -->
<g id="node21" class="node"><title>Node21</title>
<g id="a_node21"><a xlink:href="../../dc/dde/classgame_engine_1_1tests_1_1_behavior_tester.html#a6f24e35b70fe115668ec08cff38b25bc" target="_top" xlink:title="gameEngine.tests.Behavior\lTester.updateAndCheck">
<polygon fill="white" stroke="black" points="492.5,-147 492.5,-177 641.5,-177 641.5,-147 492.5,-147"/>
<text text-anchor="start" x="500.5" y="-165" font-family="Helvetica,sans-Serif" font-size="10.00">gameEngine.tests.Behavior</text>
<text text-anchor="middle" x="567" y="-154" font-family="Helvetica,sans-Serif" font-size="10.00">Tester.updateAndCheck</text>
</a>
</g>
</g>
<!-- Node4&#45;&gt;Node21 -->
<g id="edge21" class="edge"><title>Node4&#45;&gt;Node21</title>
<path fill="none" stroke="midnightblue" d="M340.45,-314.611C361.079,-283.098 407.629,-218.991 464,-186 472.714,-180.9 482.444,-176.884 492.339,-173.72"/>
<polygon fill="midnightblue" stroke="midnightblue" points="337.347,-312.966 334.898,-323.274 343.241,-316.743 337.347,-312.966"/>
</g>
<!-- Node6 -->
<g id="node6" class="node"><title>Node6</title>
<g id="a_node6"><a xlink:href="../../df/da2/classutilities_1_1_g_s_o_n_1_1object_wrappers_1_1_data_wrapper.html#a5e7d89dae1a7c05c00b0b5d8a51cc50a" target="_top" xlink:title="utilities.GSON.objectWrappers.\lDataWrapper.equals">
<polygon fill="white" stroke="black" points="731,-529 731,-559 893,-559 893,-529 731,-529"/>
<text text-anchor="start" x="739" y="-547" font-family="Helvetica,sans-Serif" font-size="10.00">utilities.GSON.objectWrappers.</text>
<text text-anchor="middle" x="812" y="-536" font-family="Helvetica,sans-Serif" font-size="10.00">DataWrapper.equals</text>
</a>
</g>
</g>
<!-- Node5&#45;&gt;Node6 -->
<g id="edge5" class="edge"><title>Node5&#45;&gt;Node6</title>
<path fill="none" stroke="midnightblue" d="M658.322,-544C682.118,-544 707.624,-544 730.844,-544"/>
<polygon fill="midnightblue" stroke="midnightblue" points="658.241,-540.5 648.241,-544 658.241,-547.5 658.241,-540.5"/>
</g>
<!-- Node10 -->
<g id="node10" class="node"><title>Node10</title>
<g id="a_node10"><a xlink:href="../../d6/d0e/classgame_engine_1_1actors_1_1behaviors_1_1_a_i_movement.html#aeb1d8783ef4330c7c62ab30c03822b7d" target="_top" xlink:title="gameEngine.actors.behaviors.\lAIMovement.execute">
<polygon fill="white" stroke="black" points="731,-389 731,-419 893,-419 893,-389 731,-389"/>
<text text-anchor="start" x="739" y="-407" font-family="Helvetica,sans-Serif" font-size="10.00">gameEngine.actors.behaviors.</text>
<text text-anchor="middle" x="812" y="-396" font-family="Helvetica,sans-Serif" font-size="10.00">AIMovement.execute</text>
</a>
</g>
</g>
<!-- Node9&#45;&gt;Node10 -->
<g id="edge9" class="edge"><title>Node9&#45;&gt;Node10</title>
<path fill="none" stroke="midnightblue" d="M657.5,-374.942C681.811,-379.544 707.963,-384.495 731.669,-388.983"/>
<polygon fill="midnightblue" stroke="midnightblue" points="658.044,-371.483 647.567,-373.062 656.742,-378.361 658.044,-371.483"/>
</g>
<!-- Node11 -->
<g id="node11" class="node"><title>Node11</title>
<g id="a_node11"><a xlink:href="../../da/d56/classgame_engine_1_1actors_1_1behaviors_1_1_linear_movement.html#a388237f4dafec0d8b13cd7c215b5ec87" target="_top" xlink:title="gameEngine.actors.behaviors.\lLinearMovement.execute">
<polygon fill="white" stroke="black" points="731,-340 731,-370 893,-370 893,-340 731,-340"/>
<text text-anchor="start" x="739" y="-358" font-family="Helvetica,sans-Serif" font-size="10.00">gameEngine.actors.behaviors.</text>
<text text-anchor="middle" x="812" y="-347" font-family="Helvetica,sans-Serif" font-size="10.00">LinearMovement.execute</text>
</a>
</g>
</g>
<!-- Node9&#45;&gt;Node11 -->
<g id="edge10" class="edge"><title>Node9&#45;&gt;Node11</title>
<path fill="none" stroke="midnightblue" d="M679.747,-356.62C696.973,-356.408 714.462,-356.192 730.817,-355.99"/>
<polygon fill="midnightblue" stroke="midnightblue" points="679.602,-353.122 669.646,-356.745 679.688,-360.121 679.602,-353.122"/>
</g>
<!-- Node12&#45;&gt;Node10 -->
<g id="edge12" class="edge"><title>Node12&#45;&gt;Node10</title>
<path fill="none" stroke="midnightblue" d="M677.4,-402.9C695.338,-403.048 713.632,-403.199 730.695,-403.339"/>
<polygon fill="midnightblue" stroke="midnightblue" points="677.216,-399.399 667.188,-402.816 677.159,-406.399 677.216,-399.399"/>
</g>
<!-- Node14 -->
<g id="node14" class="node"><title>Node14</title>
<g id="a_node14"><a xlink:href="../../d0/d94/classgame_engine_1_1_main_engine_manager.html#a07313072a6056b1e5bf9cbc595bd809c" target="_top" xlink:title="gameEngine.MainEngineManager.update\lActors">
<polygon fill="white" stroke="black" points="706,-291 706,-321 918,-321 918,-291 706,-291"/>
<text text-anchor="start" x="714" y="-309" font-family="Helvetica,sans-Serif" font-size="10.00">gameEngine.MainEngineManager.update</text>
<text text-anchor="middle" x="812" y="-298" font-family="Helvetica,sans-Serif" font-size="10.00">Actors</text>
</a>
</g>
</g>
<!-- Node13&#45;&gt;Node14 -->
<g id="edge14" class="edge"><title>Node13&#45;&gt;Node14</title>
<path fill="none" stroke="midnightblue" d="M670.429,-307.735C682.136,-307.591 694.086,-307.443 705.828,-307.298"/>
<polygon fill="midnightblue" stroke="midnightblue" points="670.17,-304.238 660.214,-307.862 670.257,-311.238 670.17,-304.238"/>
</g>
<!-- Node15 -->
<g id="node15" class="node"><title>Node15</title>
<g id="a_node15"><a xlink:href="../../d0/d94/classgame_engine_1_1_main_engine_manager.html#aa167e2a5e062c22e361f11a25db3c3ef" target="_top" xlink:title="gameEngine.MainEngineManager.game\lUpdate">
<polygon fill="white" stroke="black" points="954,-291 954,-321 1160,-321 1160,-291 954,-291"/>
<text text-anchor="start" x="962" y="-309" font-family="Helvetica,sans-Serif" font-size="10.00">gameEngine.MainEngineManager.game</text>
<text text-anchor="middle" x="1057" y="-298" font-family="Helvetica,sans-Serif" font-size="10.00">Update</text>
</a>
</g>
</g>
<!-- Node14&#45;&gt;Node15 -->
<g id="edge15" class="edge"><title>Node14&#45;&gt;Node15</title>
<path fill="none" stroke="midnightblue" d="M928.445,-306C936.893,-306 945.381,-306 953.744,-306"/>
<polygon fill="midnightblue" stroke="midnightblue" points="928.17,-302.5 918.17,-306 928.17,-309.5 928.17,-302.5"/>
</g>
<!-- Node16 -->
<g id="node16" class="node"><title>Node16</title>
<g id="a_node16"><a xlink:href="../../d0/d94/classgame_engine_1_1_main_engine_manager.html#a0d381e03af0128b42e169322c2d1ca00" target="_top" xlink:title="gameEngine.MainEngineManager.create\lTimeline">
<polygon fill="white" stroke="black" points="1196.5,-291 1196.5,-321 1405.5,-321 1405.5,-291 1196.5,-291"/>
<text text-anchor="start" x="1204.5" y="-309" font-family="Helvetica,sans-Serif" font-size="10.00">gameEngine.MainEngineManager.create</text>
<text text-anchor="middle" x="1301" y="-298" font-family="Helvetica,sans-Serif" font-size="10.00">Timeline</text>
</a>
</g>
</g>
<!-- Node15&#45;&gt;Node16 -->
<g id="edge16" class="edge"><title>Node15&#45;&gt;Node16</title>
<path fill="none" stroke="midnightblue" d="M1170.34,-306C1178.94,-306 1187.6,-306 1196.15,-306"/>
<polygon fill="midnightblue" stroke="midnightblue" points="1170.28,-302.5 1160.28,-306 1170.28,-309.5 1170.28,-302.5"/>
</g>
<!-- Node17 -->
<g id="node17" class="node"><title>Node17</title>
<g id="a_node17"><a xlink:href="../../d0/d94/classgame_engine_1_1_main_engine_manager.html#aec2cd142182da8ef024078d42fb5bc23" target="_top" xlink:title="gameEngine.MainEngineManager.\lMainEngineManager">
<polygon fill="white" stroke="black" points="1442.5,-291 1442.5,-321 1621.5,-321 1621.5,-291 1442.5,-291"/>
<text text-anchor="start" x="1450.5" y="-309" font-family="Helvetica,sans-Serif" font-size="10.00">gameEngine.MainEngineManager.</text>
<text text-anchor="middle" x="1532" y="-298" font-family="Helvetica,sans-Serif" font-size="10.00">MainEngineManager</text>
</a>
</g>
</g>
<!-- Node16&#45;&gt;Node17 -->
<g id="edge17" class="edge"><title>Node16&#45;&gt;Node17</title>
<path fill="none" stroke="midnightblue" d="M1415.8,-306C1424.69,-306 1433.59,-306 1442.28,-306"/>
<polygon fill="midnightblue" stroke="midnightblue" points="1415.78,-302.5 1405.78,-306 1415.78,-309.5 1415.78,-302.5"/>
</g>
<!-- Node20 -->
<g id="node20" class="node"><title>Node20</title>
<g id="a_node20"><a xlink:href="../../d9/d41/classgame_engine_1_1actors_1_1behaviors_1_1_range_attack.html#adce033b0e318665ad52cde7c985b8538" target="_top" xlink:title="gameEngine.actors.behaviors.\lRangeAttack.performAttack">
<polygon fill="white" stroke="black" points="731,-196 731,-226 893,-226 893,-196 731,-196"/>
<text text-anchor="start" x="739" y="-214" font-family="Helvetica,sans-Serif" font-size="10.00">gameEngine.actors.behaviors.</text>
<text text-anchor="middle" x="812" y="-203" font-family="Helvetica,sans-Serif" font-size="10.00">RangeAttack.performAttack</text>
</a>
</g>
</g>
<!-- Node19&#45;&gt;Node20 -->
<g id="edge20" class="edge"><title>Node19&#45;&gt;Node20</title>
<path fill="none" stroke="midnightblue" d="M668.259,-211C689.036,-211 710.668,-211 730.622,-211"/>
<polygon fill="midnightblue" stroke="midnightblue" points="668.139,-207.5 658.139,-211 668.139,-214.5 668.139,-207.5"/>
</g>
<!-- Node22 -->
<g id="node22" class="node"><title>Node22</title>
<g id="a_node22"><a xlink:href="../../dc/dde/classgame_engine_1_1tests_1_1_behavior_tester.html#aee99e22e79872733f939e9c05f52bf27" target="_top" xlink:title="gameEngine.tests.Behavior\lTester.testMovementBehaviorSimple">
<polygon fill="white" stroke="black" points="716,-147 716,-177 908,-177 908,-147 716,-147"/>
<text text-anchor="start" x="724" y="-165" font-family="Helvetica,sans-Serif" font-size="10.00">gameEngine.tests.Behavior</text>
<text text-anchor="middle" x="812" y="-154" font-family="Helvetica,sans-Serif" font-size="10.00">Tester.testMovementBehaviorSimple</text>
</a>
</g>
</g>
<!-- Node21&#45;&gt;Node22 -->
<g id="edge22" class="edge"><title>Node21&#45;&gt;Node22</title>
<path fill="none" stroke="midnightblue" d="M651.845,-162C672.419,-162 694.591,-162 715.661,-162"/>
<polygon fill="midnightblue" stroke="midnightblue" points="651.567,-158.5 641.567,-162 651.567,-165.5 651.567,-158.5"/>
</g>
<!-- Node23 -->
<g id="node23" class="node"><title>Node23</title>
<g id="a_node23"><a xlink:href="../../dc/dde/classgame_engine_1_1tests_1_1_behavior_tester.html#abe26f1fe47eb6206b525b38d4e8ad360" target="_top" xlink:title="gameEngine.tests.Behavior\lTester.testMovementBehaviorSimple2">
<polygon fill="white" stroke="black" points="713,-98 713,-128 911,-128 911,-98 713,-98"/>
<text text-anchor="start" x="721" y="-116" font-family="Helvetica,sans-Serif" font-size="10.00">gameEngine.tests.Behavior</text>
<text text-anchor="middle" x="812" y="-105" font-family="Helvetica,sans-Serif" font-size="10.00">Tester.testMovementBehaviorSimple2</text>
</a>
</g>
</g>
<!-- Node21&#45;&gt;Node23 -->
<g id="edge23" class="edge"><title>Node21&#45;&gt;Node23</title>
<path fill="none" stroke="midnightblue" d="M651.577,-145.147C679.134,-139.59 709.584,-133.45 736.424,-128.038"/>
<polygon fill="midnightblue" stroke="midnightblue" points="650.678,-141.758 641.567,-147.165 652.062,-148.62 650.678,-141.758"/>
</g>
<!-- Node25 -->
<g id="node25" class="node"><title>Node25</title>
<g id="a_node25"><a xlink:href="../../da/d69/classgame_player_1_1main_classes_1_1managers_1_1_gui_manager.html#a3c54e67481646eaa1208a9f69cc1ea78" target="_top" xlink:title="gamePlayer.mainClasses.managers.\lGuiManager.deselectTower">
<polygon fill="white" stroke="black" points="471.5,-98 471.5,-128 662.5,-128 662.5,-98 471.5,-98"/>
<text text-anchor="start" x="479.5" y="-116" font-family="Helvetica,sans-Serif" font-size="10.00">gamePlayer.mainClasses.managers.</text>
<text text-anchor="middle" x="567" y="-105" font-family="Helvetica,sans-Serif" font-size="10.00">GuiManager.deselectTower</text>
</a>
</g>
</g>
<!-- Node24&#45;&gt;Node25 -->
<g id="edge25" class="edge"><title>Node24&#45;&gt;Node25</title>
<path fill="none" stroke="midnightblue" d="M433.711,-106.291C446.276,-106.216 459.051,-106.244 471.46,-106.374"/>
<polygon fill="midnightblue" stroke="midnightblue" points="433.661,-102.791 423.69,-106.373 433.719,-109.791 433.661,-102.791"/>
</g>
<!-- Node26 -->
<g id="node26" class="node"><title>Node26</title>
<g id="a_node26"><a xlink:href="../../da/d69/classgame_player_1_1main_classes_1_1managers_1_1_gui_manager.html#a148dc947569bdc60c98be5a853cf82ee" target="_top" xlink:title="gamePlayer.mainClasses.managers.\lGuiManager.makeTower">
<polygon fill="white" stroke="black" points="471.5,-49 471.5,-79 662.5,-79 662.5,-49 471.5,-49"/>
<text text-anchor="start" x="479.5" y="-67" font-family="Helvetica,sans-Serif" font-size="10.00">gamePlayer.mainClasses.managers.</text>
<text text-anchor="middle" x="567" y="-56" font-family="Helvetica,sans-Serif" font-size="10.00">GuiManager.makeTower</text>
</a>
</g>
</g>
<!-- Node24&#45;&gt;Node26 -->
<g id="edge27" class="edge"><title>Node24&#45;&gt;Node26</title>
<path fill="none" stroke="midnightblue" d="M411.769,-95.8873C438.366,-90.3885 467.611,-84.342 493.419,-79.0062"/>
<polygon fill="midnightblue" stroke="midnightblue" points="410.803,-92.5131 401.718,-97.9654 412.22,-99.3681 410.803,-92.5131"/>
</g>
<!-- Node30 -->
<g id="node30" class="node"><title>Node30</title>
<g id="a_node30"><a xlink:href="../../da/d69/classgame_player_1_1main_classes_1_1managers_1_1_gui_manager.html#a162f5822f9bff033684bd28cada2f03e" target="_top" xlink:title="gamePlayer.mainClasses.managers.\lGuiManager.upgradeTower">
<polygon fill="white" stroke="black" points="471.5,-0 471.5,-30 662.5,-30 662.5,-0 471.5,-0"/>
<text text-anchor="start" x="479.5" y="-18" font-family="Helvetica,sans-Serif" font-size="10.00">gamePlayer.mainClasses.managers.</text>
<text text-anchor="middle" x="567" y="-7" font-family="Helvetica,sans-Serif" font-size="10.00">GuiManager.upgradeTower</text>
</a>
</g>
</g>
<!-- Node24&#45;&gt;Node30 -->
<g id="edge31" class="edge"><title>Node24&#45;&gt;Node30</title>
<path fill="none" stroke="midnightblue" d="M360.475,-92.5451C387.11,-76.0332 426.782,-53.2754 464,-39 472.747,-35.6448 482.103,-32.6683 491.469,-30.0538"/>
<polygon fill="midnightblue" stroke="midnightblue" points="358.576,-89.6049 351.964,-97.884 362.296,-95.5347 358.576,-89.6049"/>
</g>
<!-- Node25&#45;&gt;Node24 -->
<g id="edge26" class="edge"><title>Node25&#45;&gt;Node24</title>
<path fill="none" stroke="midnightblue" d="M461.441,-119.708C448.878,-119.784 436.102,-119.757 423.69,-119.627"/>
<polygon fill="midnightblue" stroke="midnightblue" points="461.489,-123.208 471.46,-119.626 461.432,-116.208 461.489,-123.208"/>
</g>
<!-- Node27 -->
<g id="node27" class="node"><title>Node27</title>
<g id="a_node27"><a xlink:href="../../db/d6b/classgame_player_1_1gui_features_1_1_tower_placer.html#a8a56e5205e61a12602015f880e47070c" target="_top" xlink:title="gamePlayer.guiFeatures.Tower\lPlacer.drop">
<polygon fill="white" stroke="black" points="731.5,-49 731.5,-79 892.5,-79 892.5,-49 731.5,-49"/>
<text text-anchor="start" x="739.5" y="-67" font-family="Helvetica,sans-Serif" font-size="10.00">gamePlayer.guiFeatures.Tower</text>
<text text-anchor="middle" x="812" y="-56" font-family="Helvetica,sans-Serif" font-size="10.00">Placer.drop</text>
</a>
</g>
</g>
<!-- Node26&#45;&gt;Node27 -->
<g id="edge28" class="edge"><title>Node26&#45;&gt;Node27</title>
<path fill="none" stroke="midnightblue" d="M672.81,-64C692.37,-64 712.518,-64 731.175,-64"/>
<polygon fill="midnightblue" stroke="midnightblue" points="672.646,-60.5001 662.646,-64 672.646,-67.5001 672.646,-60.5001"/>
</g>
<!-- Node28 -->
<g id="node28" class="node"><title>Node28</title>
<g id="a_node28"><a xlink:href="../../db/d6b/classgame_player_1_1gui_features_1_1_tower_placer.html#a2798d82694ca4f2a02b48f9516f0cd1b" target="_top" xlink:title="gamePlayer.guiFeatures.Tower\lPlacer.placeItem">
<polygon fill="white" stroke="black" points="976.5,-49 976.5,-79 1137.5,-79 1137.5,-49 976.5,-49"/>
<text text-anchor="start" x="984.5" y="-67" font-family="Helvetica,sans-Serif" font-size="10.00">gamePlayer.guiFeatures.Tower</text>
<text text-anchor="middle" x="1057" y="-56" font-family="Helvetica,sans-Serif" font-size="10.00">Placer.placeItem</text>
</a>
</g>
</g>
<!-- Node27&#45;&gt;Node28 -->
<g id="edge29" class="edge"><title>Node27&#45;&gt;Node28</title>
<path fill="none" stroke="midnightblue" d="M902.771,-64C926.863,-64 952.746,-64 976.254,-64"/>
<polygon fill="midnightblue" stroke="midnightblue" points="902.567,-60.5001 892.567,-64 902.567,-67.5001 902.567,-60.5001"/>
</g>
<!-- Node29 -->
<g id="node29" class="node"><title>Node29</title>
<g id="a_node29"><a xlink:href="../../da/d69/classgame_player_1_1main_classes_1_1managers_1_1_gui_manager.html#ae90e338dc9959e32627518bde3fdf2ff" target="_top" xlink:title="gamePlayer.mainClasses.managers.\lGuiManager.placeTower">
<polygon fill="white" stroke="black" points="1205.5,-49 1205.5,-79 1396.5,-79 1396.5,-49 1205.5,-49"/>
<text text-anchor="start" x="1213.5" y="-67" font-family="Helvetica,sans-Serif" font-size="10.00">gamePlayer.mainClasses.managers.</text>
<text text-anchor="middle" x="1301" y="-56" font-family="Helvetica,sans-Serif" font-size="10.00">GuiManager.placeTower</text>
</a>
</g>
</g>
<!-- Node28&#45;&gt;Node29 -->
<g id="edge30" class="edge"><title>Node28&#45;&gt;Node29</title>
<path fill="none" stroke="midnightblue" d="M1147.59,-64C1166.38,-64 1186.25,-64 1205.22,-64"/>
<polygon fill="midnightblue" stroke="midnightblue" points="1147.58,-60.5001 1137.58,-64 1147.57,-67.5001 1147.58,-60.5001"/>
</g>
</g>
</svg>
