<?xml version="1.0" encoding="UTF-8" standalone="no"?>
<!DOCTYPE svg PUBLIC "-//W3C//DTD SVG 1.1//EN"
 "http://www.w3.org/Graphics/SVG/1.1/DTD/svg11.dtd">
<!-- Generated by graphviz version 2.36.0 (20140111.2315)
 -->
<!-- Title: utilities.JavaFXutilities.imageView.CenteredImageView.setXCenter Pages: 1 -->
<!--zoomable 278 -->
<svg id="main" version="1.1" xmlns="http://www.w3.org/2000/svg" xmlns:xlink="http://www.w3.org/1999/xlink" xml:space="preserve" onload="init(evt)">
<style type="text/css"><![CDATA[
.edge:hover path { stroke: red; }
.edge:hover polygon { stroke: red; fill: red; }
]]></style>
<script type="text/javascript"><![CDATA[
var edges = document.getElementsByTagName('g');
if (edges && edges.length) {
  for (var i=0;i<edges.length;i++) {
    if (edges[i].id.substr(0,4)=='edge') {
      edges[i].setAttribute('class','edge');
    }
  }
}
]]></script>
        <defs>
                <circle id="rim" cx="0" cy="0" r="7"/>
                <circle id="rim2" cx="0" cy="0" r="3.5"/>
                <g id="zoomPlus">
                        <use xlink:href="#rim" fill="#404040">
                                <set attributeName="fill" to="#808080" begin="zoomplus.mouseover" end="zoomplus.mouseout"/>
                        </use>
                        <path d="M-4,0h8M0,-4v8" fill="none" stroke="white" stroke-width="1.5" pointer-events="none"/>
                </g>
                <g id="zoomMin">
                        <use xlink:href="#rim" fill="#404040">
                                <set attributeName="fill" to="#808080" begin="zoomminus.mouseover" end="zoomminus.mouseout"/>
                        </use>
                        <path d="M-4,0h8" fill="none" stroke="white" stroke-width="1.5" pointer-events="none"/>
                </g>
                <g id="dirArrow">
                        <path fill="none" stroke="white" stroke-width="1.5" d="M0,-3.0v7 M-2.5,-0.5L0,-3.0L2.5,-0.5"/>
                </g>
               <g id="resetDef">
                       <use xlink:href="#rim2" fill="#404040">
                               <set attributeName="fill" to="#808080" begin="reset.mouseover" end="reset.mouseout"/>
                       </use>
               </g>
        </defs>

<script type="text/javascript">
var viewWidth = 1376;
var viewHeight = 278;
var sectionId = 'dynsection-4';
</script>
<script xlink:href="../../svgpan.js"/>
<svg id="graph" class="graph">
<g id="viewport">
<title>utilities.JavaFXutilities.imageView.CenteredImageView.setXCenter</title>
<polygon fill="white" stroke="none" points="-4,4 -4,-274 1372,-274 1372,4 -4,4"/>
<!-- Node1 -->
<g id="node1" class="node"><title>Node1</title>
<polygon fill="#bfbfbf" stroke="black" points="0.5,-109 0.5,-139 191.5,-139 191.5,-109 0.5,-109"/>
<text text-anchor="start" x="8.5" y="-127" font-family="Helvetica,sans-Serif" font-size="10.00">utilities.JavaFXutilities.image</text>
<text text-anchor="middle" x="96" y="-116" font-family="Helvetica,sans-Serif" font-size="10.00">View.CenteredImageView.setXCenter</text>
</g>
<!-- Node2 -->
<g id="node2" class="node"><title>Node2</title>
<g id="a_node2"><a xlink:href="../../d0/d94/classgame_engine_1_1_main_engine_manager.html#a42a2b5309be3a2d21f572d3d9f353a28" target="_top" xlink:title="gameEngine.MainEngineManager.add\lTower">
<polygon fill="white" stroke="black" points="238.5,-166 238.5,-196 435.5,-196 435.5,-166 238.5,-166"/>
<text text-anchor="start" x="246.5" y="-184" font-family="Helvetica,sans-Serif" font-size="10.00">gameEngine.MainEngineManager.add</text>
<text text-anchor="middle" x="337" y="-173" font-family="Helvetica,sans-Serif" font-size="10.00">Tower</text>
</a>
</g>
</g>
<!-- Node1&#45;&gt;Node2 -->
<g id="edge1" class="edge"><title>Node1&#45;&gt;Node2</title>
<path fill="none" stroke="midnightblue" d="M170.114,-141.437C202.977,-149.275 241.379,-158.433 272.954,-165.964"/>
<polygon fill="midnightblue" stroke="midnightblue" points="170.646,-137.966 160.107,-139.051 169.022,-144.775 170.646,-137.966"/>
</g>
<!-- Node11 -->
<g id="node11" class="node"><title>Node11</title>
<g id="a_node11"><a xlink:href="../../d5/d02/classgame_engine_1_1actors_1_1_base_actor.html#a3520ade4ccda39ee0fa2b844a3990b3f" target="_top" xlink:title="gameEngine.actors.BaseActor.makeNode">
<polygon fill="white" stroke="black" points="228.5,-114.5 228.5,-133.5 445.5,-133.5 445.5,-114.5 228.5,-114.5"/>
<text text-anchor="middle" x="337" y="-121.5" font-family="Helvetica,sans-Serif" font-size="10.00">gameEngine.actors.BaseActor.makeNode</text>
</a>
</g>
</g>
<!-- Node1&#45;&gt;Node11 -->
<g id="edge10" class="edge"><title>Node1&#45;&gt;Node11</title>
<path fill="none" stroke="midnightblue" d="M201.99,-124C210.719,-124 219.553,-124 228.301,-124"/>
<polygon fill="midnightblue" stroke="midnightblue" points="201.802,-120.5 191.802,-124 201.802,-127.5 201.802,-120.5"/>
</g>
<!-- Node12 -->
<g id="node12" class="node"><title>Node12</title>
<g id="a_node12"><a xlink:href="../../de/d4a/classgame_engine_1_1actors_1_1behaviors_1_1_base_movement_behavior.html#aff0b5253f4e7e0aab38f275509464092" target="_top" xlink:title="gameEngine.actors.behaviors.\lBaseMovementBehavior.move">
<polygon fill="white" stroke="black" points="255.5,-62 255.5,-92 418.5,-92 418.5,-62 255.5,-62"/>
<text text-anchor="start" x="263.5" y="-80" font-family="Helvetica,sans-Serif" font-size="10.00">gameEngine.actors.behaviors.</text>
<text text-anchor="middle" x="337" y="-69" font-family="Helvetica,sans-Serif" font-size="10.00">BaseMovementBehavior.move</text>
</a>
</g>
</g>
<!-- Node1&#45;&gt;Node12 -->
<g id="edge11" class="edge"><title>Node1&#45;&gt;Node12</title>
<path fill="none" stroke="midnightblue" d="M183.115,-107.065C208.126,-102.147 235.258,-96.8112 259.627,-92.019"/>
<polygon fill="midnightblue" stroke="midnightblue" points="182.415,-103.636 173.278,-109 183.766,-110.504 182.415,-103.636"/>
</g>
<!-- Node3 -->
<g id="node3" class="node"><title>Node3</title>
<g id="a_node3"><a xlink:href="../../d0/d94/classgame_engine_1_1_main_engine_manager.html#a877d3b0d8eeb5a117fe7043df349d101" target="_top" xlink:title="gameEngine.MainEngineManager.load\lState">
<polygon fill="white" stroke="black" points="491.5,-239 491.5,-269 690.5,-269 690.5,-239 491.5,-239"/>
<text text-anchor="start" x="499.5" y="-257" font-family="Helvetica,sans-Serif" font-size="10.00">gameEngine.MainEngineManager.load</text>
<text text-anchor="middle" x="591" y="-246" font-family="Helvetica,sans-Serif" font-size="10.00">State</text>
</a>
</g>
</g>
<!-- Node2&#45;&gt;Node3 -->
<g id="edge2" class="edge"><title>Node2&#45;&gt;Node3</title>
<path fill="none" stroke="midnightblue" d="M390.874,-199.369C417.966,-208.498 451.576,-219.388 482,-228 495.453,-231.808 509.949,-235.545 523.817,-238.945"/>
<polygon fill="midnightblue" stroke="midnightblue" points="391.8,-195.987 381.205,-196.093 389.553,-202.617 391.8,-195.987"/>
</g>
<!-- Node5 -->
<g id="node5" class="node"><title>Node5</title>
<g id="a_node5"><a xlink:href="../../da/d69/classgame_player_1_1main_classes_1_1managers_1_1_gui_manager.html#a148dc947569bdc60c98be5a853cf82ee" target="_top" xlink:title="gamePlayer.mainClasses.managers.\lGuiManager.makeTower">
<polygon fill="white" stroke="black" points="495.5,-189 495.5,-219 686.5,-219 686.5,-189 495.5,-189"/>
<text text-anchor="start" x="503.5" y="-207" font-family="Helvetica,sans-Serif" font-size="10.00">gamePlayer.mainClasses.managers.</text>
<text text-anchor="middle" x="591" y="-196" font-family="Helvetica,sans-Serif" font-size="10.00">GuiManager.makeTower</text>
</a>
</g>
</g>
<!-- Node2&#45;&gt;Node5 -->
<g id="edge4" class="edge"><title>Node2&#45;&gt;Node5</title>
<path fill="none" stroke="midnightblue" d="M445.923,-190.85C462.299,-192.345 479.092,-193.877 495.162,-195.344"/>
<polygon fill="midnightblue" stroke="midnightblue" points="446.067,-187.349 435.79,-189.925 445.431,-194.32 446.067,-187.349"/>
</g>
<!-- Node9 -->
<g id="node9" class="node"><title>Node9</title>
<g id="a_node9"><a xlink:href="../../d0/d94/classgame_engine_1_1_main_engine_manager.html#ab5dbebb52c5edcf41787d314326cc1aa" target="_top" xlink:title="gameEngine.MainEngineManager.upgrade">
<polygon fill="white" stroke="black" points="482,-148.5 482,-167.5 700,-167.5 700,-148.5 482,-148.5"/>
<text text-anchor="middle" x="591" y="-155.5" font-family="Helvetica,sans-Serif" font-size="10.00">gameEngine.MainEngineManager.upgrade</text>
</a>
</g>
</g>
<!-- Node2&#45;&gt;Node9 -->
<g id="edge8" class="edge"><title>Node2&#45;&gt;Node9</title>
<path fill="none" stroke="midnightblue" d="M445.811,-171.16C458.998,-169.957 472.455,-168.728 485.59,-167.529"/>
<polygon fill="midnightblue" stroke="midnightblue" points="445.431,-167.68 435.79,-172.075 446.067,-174.651 445.431,-167.68"/>
</g>
<!-- Node4 -->
<g id="node4" class="node"><title>Node4</title>
<g id="a_node4"><a xlink:href="../../da/d69/classgame_player_1_1main_classes_1_1managers_1_1_gui_manager.html#a3c6a6b6581cd16f2c9e702ce936c217b" target="_top" xlink:title="gamePlayer.mainClasses.managers.\lGuiManager.loadState">
<polygon fill="white" stroke="black" points="743.5,-240 743.5,-270 934.5,-270 934.5,-240 743.5,-240"/>
<text text-anchor="start" x="751.5" y="-258" font-family="Helvetica,sans-Serif" font-size="10.00">gamePlayer.mainClasses.managers.</text>
<text text-anchor="middle" x="839" y="-247" font-family="Helvetica,sans-Serif" font-size="10.00">GuiManager.loadState</text>
</a>
</g>
</g>
<!-- Node3&#45;&gt;Node4 -->
<g id="edge3" class="edge"><title>Node3&#45;&gt;Node4</title>
<path fill="none" stroke="midnightblue" d="M700.888,-254.443C715.039,-254.5 729.442,-254.559 743.335,-254.615"/>
<polygon fill="midnightblue" stroke="midnightblue" points="700.654,-250.942 690.64,-254.401 700.626,-257.942 700.654,-250.942"/>
</g>
<!-- Node6 -->
<g id="node6" class="node"><title>Node6</title>
<g id="a_node6"><a xlink:href="../../db/d6b/classgame_player_1_1gui_features_1_1_tower_placer.html#a8a56e5205e61a12602015f880e47070c" target="_top" xlink:title="gamePlayer.guiFeatures.Tower\lPlacer.drop">
<polygon fill="white" stroke="black" points="758.5,-191 758.5,-221 919.5,-221 919.5,-191 758.5,-191"/>
<text text-anchor="start" x="766.5" y="-209" font-family="Helvetica,sans-Serif" font-size="10.00">gamePlayer.guiFeatures.Tower</text>
<text text-anchor="middle" x="839" y="-198" font-family="Helvetica,sans-Serif" font-size="10.00">Placer.drop</text>
</a>
</g>
</g>
<!-- Node5&#45;&gt;Node6 -->
<g id="edge5" class="edge"><title>Node5&#45;&gt;Node6</title>
<path fill="none" stroke="midnightblue" d="M696.828,-204.852C717.476,-205.02 738.823,-205.194 758.471,-205.353"/>
<polygon fill="midnightblue" stroke="midnightblue" points="696.786,-201.352 686.758,-204.77 696.729,-208.352 696.786,-201.352"/>
</g>
<!-- Node7 -->
<g id="node7" class="node"><title>Node7</title>
<g id="a_node7"><a xlink:href="../../db/d6b/classgame_player_1_1gui_features_1_1_tower_placer.html#a2798d82694ca4f2a02b48f9516f0cd1b" target="_top" xlink:title="gamePlayer.guiFeatures.Tower\lPlacer.placeItem">
<polygon fill="white" stroke="black" points="978.5,-191 978.5,-221 1139.5,-221 1139.5,-191 978.5,-191"/>
<text text-anchor="start" x="986.5" y="-209" font-family="Helvetica,sans-Serif" font-size="10.00">gamePlayer.guiFeatures.Tower</text>
<text text-anchor="middle" x="1059" y="-198" font-family="Helvetica,sans-Serif" font-size="10.00">Placer.placeItem</text>
</a>
</g>
</g>
<!-- Node6&#45;&gt;Node7 -->
<g id="edge6" class="edge"><title>Node6&#45;&gt;Node7</title>
<path fill="none" stroke="midnightblue" d="M930.033,-206C946.012,-206 962.552,-206 978.223,-206"/>
<polygon fill="midnightblue" stroke="midnightblue" points="929.628,-202.5 919.628,-206 929.628,-209.5 929.628,-202.5"/>
</g>
<!-- Node8 -->
<g id="node8" class="node"><title>Node8</title>
<g id="a_node8"><a xlink:href="../../da/d69/classgame_player_1_1main_classes_1_1managers_1_1_gui_manager.html#ae90e338dc9959e32627518bde3fdf2ff" target="_top" xlink:title="gamePlayer.mainClasses.managers.\lGuiManager.placeTower">
<polygon fill="white" stroke="black" points="1176.5,-191 1176.5,-221 1367.5,-221 1367.5,-191 1176.5,-191"/>
<text text-anchor="start" x="1184.5" y="-209" font-family="Helvetica,sans-Serif" font-size="10.00">gamePlayer.mainClasses.managers.</text>
<text text-anchor="middle" x="1272" y="-198" font-family="Helvetica,sans-Serif" font-size="10.00">GuiManager.placeTower</text>
</a>
</g>
</g>
<!-- Node7&#45;&gt;Node8 -->
<g id="edge7" class="edge"><title>Node7&#45;&gt;Node8</title>
<path fill="none" stroke="midnightblue" d="M1149.91,-206C1158.62,-206 1167.47,-206 1176.22,-206"/>
<polygon fill="midnightblue" stroke="midnightblue" points="1149.77,-202.5 1139.77,-206 1149.77,-209.5 1149.77,-202.5"/>
</g>
<!-- Node10 -->
<g id="node10" class="node"><title>Node10</title>
<g id="a_node10"><a xlink:href="../../da/d69/classgame_player_1_1main_classes_1_1managers_1_1_gui_manager.html#a162f5822f9bff033684bd28cada2f03e" target="_top" xlink:title="gamePlayer.mainClasses.managers.\lGuiManager.upgradeTower">
<polygon fill="white" stroke="black" points="743.5,-142 743.5,-172 934.5,-172 934.5,-142 743.5,-142"/>
<text text-anchor="start" x="751.5" y="-160" font-family="Helvetica,sans-Serif" font-size="10.00">gamePlayer.mainClasses.managers.</text>
<text text-anchor="middle" x="839" y="-149" font-family="Helvetica,sans-Serif" font-size="10.00">GuiManager.upgradeTower</text>
</a>
</g>
</g>
<!-- Node9&#45;&gt;Node10 -->
<g id="edge9" class="edge"><title>Node9&#45;&gt;Node10</title>
<path fill="none" stroke="midnightblue" d="M710.352,-157.519C721.371,-157.474 732.439,-157.429 743.203,-157.385"/>
<polygon fill="midnightblue" stroke="midnightblue" points="710.243,-154.019 700.257,-157.56 710.271,-161.019 710.243,-154.019"/>
</g>
<!-- Node13 -->
<g id="node13" class="node"><title>Node13</title>
<g id="a_node13"><a xlink:href="../../d6/d0d/classgame_engine_1_1actors_1_1behaviors_1_1_enemy_homing_movement.html#ae0dfa468b7ebfd766b31406b8d1f74d6" target="_top" xlink:title="gameEngine.actors.behaviors.\lEnemyHomingMovement.execute">
<polygon fill="white" stroke="black" points="749.5,-93 749.5,-123 928.5,-123 928.5,-93 749.5,-93"/>
<text text-anchor="start" x="757.5" y="-111" font-family="Helvetica,sans-Serif" font-size="10.00">gameEngine.actors.behaviors.</text>
<text text-anchor="middle" x="839" y="-100" font-family="Helvetica,sans-Serif" font-size="10.00">EnemyHomingMovement.execute</text>
</a>
</g>
</g>
<!-- Node12&#45;&gt;Node13 -->
<g id="edge12" class="edge"><title>Node12&#45;&gt;Node13</title>
<path fill="none" stroke="midnightblue" d="M428.972,-84.2281C446.561,-85.5468 464.851,-86.8634 482,-88 573.107,-94.0384 677.41,-99.7579 749.458,-103.521"/>
<polygon fill="midnightblue" stroke="midnightblue" points="428.945,-80.7162 418.71,-83.4528 428.418,-87.6963 428.945,-80.7162"/>
</g>
<!-- Node14 -->
<g id="node14" class="node"><title>Node14</title>
<g id="a_node14"><a xlink:href="../../d6/d0e/classgame_engine_1_1actors_1_1behaviors_1_1_a_i_movement.html#aeb1d8783ef4330c7c62ab30c03822b7d" target="_top" xlink:title="gameEngine.actors.behaviors.\lAIMovement.execute">
<polygon fill="white" stroke="black" points="978,-0 978,-30 1140,-30 1140,-0 978,-0"/>
<text text-anchor="start" x="986" y="-18" font-family="Helvetica,sans-Serif" font-size="10.00">gameEngine.actors.behaviors.</text>
<text text-anchor="middle" x="1059" y="-7" font-family="Helvetica,sans-Serif" font-size="10.00">AIMovement.execute</text>
</a>
</g>
</g>
<!-- Node12&#45;&gt;Node14 -->
<g id="edge13" class="edge"><title>Node12&#45;&gt;Node14</title>
<path fill="none" stroke="midnightblue" d="M394.291,-59.1209C420.649,-51.5334 452.642,-43.4317 482,-39 657.416,-12.5198 866.053,-11.203 977.814,-12.8987"/>
<polygon fill="midnightblue" stroke="midnightblue" points="393.094,-55.8243 384.482,-61.995 395.063,-62.5418 393.094,-55.8243"/>
</g>
<!-- Node15 -->
<g id="node15" class="node"><title>Node15</title>
<g id="a_node15"><a xlink:href="../../de/d4a/classgame_engine_1_1actors_1_1behaviors_1_1_base_movement_behavior.html#a651324cf5d06db046fb2ee34330d7452" target="_top" xlink:title="gameEngine.actors.behaviors.\lBaseMovementBehavior.moveTowards">
<polygon fill="white" stroke="black" points="491,-49 491,-79 691,-79 691,-49 491,-49"/>
<text text-anchor="start" x="499" y="-67" font-family="Helvetica,sans-Serif" font-size="10.00">gameEngine.actors.behaviors.</text>
<text text-anchor="middle" x="591" y="-56" font-family="Helvetica,sans-Serif" font-size="10.00">BaseMovementBehavior.moveTowards</text>
</a>
</g>
</g>
<!-- Node12&#45;&gt;Node15 -->
<g id="edge14" class="edge"><title>Node12&#45;&gt;Node15</title>
<path fill="none" stroke="midnightblue" d="M428.832,-72.3142C448.917,-71.2781 470.297,-70.1751 490.699,-69.1227"/>
<polygon fill="midnightblue" stroke="midnightblue" points="428.581,-68.8224 418.774,-72.8331 428.941,-75.8131 428.581,-68.8224"/>
</g>
<!-- Node15&#45;&gt;Node13 -->
<g id="edge15" class="edge"><title>Node15&#45;&gt;Node13</title>
<path fill="none" stroke="midnightblue" d="M685.825,-80.7817C708.247,-84.7922 732.042,-89.0482 753.99,-92.9738"/>
<polygon fill="midnightblue" stroke="midnightblue" points="686.431,-77.3347 675.971,-79.0192 685.199,-84.2253 686.431,-77.3347"/>
</g>
<!-- Node16 -->
<g id="node16" class="node"><title>Node16</title>
<g id="a_node16"><a xlink:href="../../de/d4a/classgame_engine_1_1actors_1_1behaviors_1_1_base_movement_behavior.html#ac56b8c6d59f87cad83decf65b7fd368f" target="_top" xlink:title="gameEngine.actors.behaviors.\lBaseMovementBehavior.findNextTarget">
<polygon fill="white" stroke="black" points="736.5,-44 736.5,-74 941.5,-74 941.5,-44 736.5,-44"/>
<text text-anchor="start" x="744.5" y="-62" font-family="Helvetica,sans-Serif" font-size="10.00">gameEngine.actors.behaviors.</text>
<text text-anchor="middle" x="839" y="-51" font-family="Helvetica,sans-Serif" font-size="10.00">BaseMovementBehavior.findNextTarget</text>
</a>
</g>
</g>
<!-- Node15&#45;&gt;Node16 -->
<g id="edge16" class="edge"><title>Node15&#45;&gt;Node16</title>
<path fill="none" stroke="midnightblue" d="M701.472,-61.775C713.05,-61.5396 724.791,-61.301 736.276,-61.0676"/>
<polygon fill="midnightblue" stroke="midnightblue" points="701.275,-58.2781 691.349,-61.9807 701.418,-65.2767 701.275,-58.2781"/>
</g>
<!-- Node16&#45;&gt;Node14 -->
<g id="edge17" class="edge"><title>Node16&#45;&gt;Node14</title>
<path fill="none" stroke="midnightblue" d="M924.216,-42.0023C943.772,-38.0552 964.451,-33.8814 983.552,-30.0262"/>
<polygon fill="midnightblue" stroke="midnightblue" points="923.523,-38.5714 914.414,-43.9808 924.908,-45.433 923.523,-38.5714"/>
</g>
<!-- Node17 -->
<g id="node17" class="node"><title>Node17</title>
<g id="a_node17"><a xlink:href="../../da/d56/classgame_engine_1_1actors_1_1behaviors_1_1_linear_movement.html#a388237f4dafec0d8b13cd7c215b5ec87" target="_top" xlink:title="gameEngine.actors.behaviors.\lLinearMovement.execute">
<polygon fill="white" stroke="black" points="978,-49 978,-79 1140,-79 1140,-49 978,-49"/>
<text text-anchor="start" x="986" y="-67" font-family="Helvetica,sans-Serif" font-size="10.00">gameEngine.actors.behaviors.</text>
<text text-anchor="middle" x="1059" y="-56" font-family="Helvetica,sans-Serif" font-size="10.00">LinearMovement.execute</text>
</a>
</g>
</g>
<!-- Node16&#45;&gt;Node17 -->
<g id="edge18" class="edge"><title>Node16&#45;&gt;Node17</title>
<path fill="none" stroke="midnightblue" d="M951.884,-61.5662C960.596,-61.766 969.282,-61.9652 977.722,-62.1588"/>
<polygon fill="midnightblue" stroke="midnightblue" points="951.738,-58.062 941.66,-61.3317 951.577,-65.0601 951.738,-58.062"/>
</g>
</g>
</svg>
        <g id="navigator" transform="translate(0 0)" fill="#404254">
                <rect fill="#f2f5e9" fill-opacity="0.5" stroke="#606060" stroke-width=".5" x="0" y="0" width="60" height="60"/>
                <use id="zoomplus" xlink:href="#zoomPlus" x="17" y="9" onmousedown="handleZoom(evt,'in')"/>
                <use id="zoomminus" xlink:href="#zoomMin" x="42" y="9" onmousedown="handleZoom(evt,'out')"/>
                <use id="reset" xlink:href="#resetDef" x="30" y="36" onmousedown="handleReset()"/>
                <g id="arrowUp" xlink:href="#dirArrow" transform="translate(30 24)" onmousedown="handlePan(0,-1)">
                  <use xlink:href="#rim" fill="#404040">
                        <set attributeName="fill" to="#808080" begin="arrowUp.mouseover" end="arrowUp.mouseout"/>
                  </use>
                  <path fill="none" stroke="white" stroke-width="1.5" d="M0,-3.0v7 M-2.5,-0.5L0,-3.0L2.5,-0.5"/>
                </g>
                <g id="arrowRight" xlink:href="#dirArrow" transform="rotate(90) translate(36 -43)" onmousedown="handlePan(1,0)">
                  <use xlink:href="#rim" fill="#404040">
                        <set attributeName="fill" to="#808080" begin="arrowRight.mouseover" end="arrowRight.mouseout"/>
                  </use>
                  <path fill="none" stroke="white" stroke-width="1.5" d="M0,-3.0v7 M-2.5,-0.5L0,-3.0L2.5,-0.5"/>
                </g>
                <g id="arrowDown" xlink:href="#dirArrow" transform="rotate(180) translate(-30 -48)" onmousedown="handlePan(0,1)">
                  <use xlink:href="#rim" fill="#404040">
                        <set attributeName="fill" to="#808080" begin="arrowDown.mouseover" end="arrowDown.mouseout"/>
                  </use>
                  <path fill="none" stroke="white" stroke-width="1.5" d="M0,-3.0v7 M-2.5,-0.5L0,-3.0L2.5,-0.5"/>
                </g>
                <g id="arrowLeft" xlink:href="#dirArrow" transform="rotate(270) translate(-36 17)" onmousedown="handlePan(-1,0)">
                  <use xlink:href="#rim" fill="#404040">
                        <set attributeName="fill" to="#808080" begin="arrowLeft.mouseover" end="arrowLeft.mouseout"/>
                  </use>
                  <path fill="none" stroke="white" stroke-width="1.5" d="M0,-3.0v7 M-2.5,-0.5L0,-3.0L2.5,-0.5"/>
                </g>
        </g>
        <svg viewBox="0 0 15 15" width="100%" height="30px" preserveAspectRatio="xMaxYMin meet">
         <g id="arrow_out" transform="scale(0.3 0.3)">
          <a xlink:href="classutilities_1_1_java_f_xutilities_1_1image_view_1_1_centered_image_view_a4df6d41d08c4c4a5c530290c736926f2_icgraph_org.svg" target="_base">
           <rect id="button" ry="5" rx="5" y="6" x="6" height="38" width="38"
                fill="#f2f5e9" fill-opacity="0.5" stroke="#606060" stroke-width="1.0"/>
           <path id="arrow"
             d="M 11.500037,31.436501 C 11.940474,20.09759 22.043105,11.32322 32.158766,21.979434 L 37.068811,17.246167 C 37.068811,17.246167 37.088388,32 37.088388,32 L 22.160133,31.978069 C 22.160133,31.978069 26.997745,27.140456 26.997745,27.140456 C 18.528582,18.264221 13.291696,25.230495 11.500037,31.436501 z"
             style="fill:#404040;"/>
          </a>
         </g>
        </svg>
</svg>
