<?xml version="1.0" encoding="UTF-8" standalone="no"?>
<!DOCTYPE svg PUBLIC "-//W3C//DTD SVG 1.1//EN"
 "http://www.w3.org/Graphics/SVG/1.1/DTD/svg11.dtd">
<!-- Generated by graphviz version 2.36.0 (20140111.2315)
 -->
<!-- Title: gameEngine.actors.behaviors.LinearMovement.execute Pages: 1 -->
<!--zoomable 338 -->
<svg id="main" version="1.1" xmlns="http://www.w3.org/2000/svg" xmlns:xlink="http://www.w3.org/1999/xlink" xml:space="preserve" onload="init(evt)">
<style type="text/css"><![CDATA[
.edge:hover path { stroke: red; }
.edge:hover polygon { stroke: red; fill: red; }
]]></style>
<script type="text/javascript"><![CDATA[
var edges = document.getElementsByTagName('g');
if (edges && edges.length) {
  for (var i=0;i<edges.length;i++) {
    if (edges[i].id.substr(0,4)=='edge') {
      edges[i].setAttribute('class','edge');
    }
  }
}
]]></script>
        <defs>
                <circle id="rim" cx="0" cy="0" r="7"/>
                <circle id="rim2" cx="0" cy="0" r="3.5"/>
                <g id="zoomPlus">
                        <use xlink:href="#rim" fill="#404040">
                                <set attributeName="fill" to="#808080" begin="zoomplus.mouseover" end="zoomplus.mouseout"/>
                        </use>
                        <path d="M-4,0h8M0,-4v8" fill="none" stroke="white" stroke-width="1.5" pointer-events="none"/>
                </g>
                <g id="zoomMin">
                        <use xlink:href="#rim" fill="#404040">
                                <set attributeName="fill" to="#808080" begin="zoomminus.mouseover" end="zoomminus.mouseout"/>
                        </use>
                        <path d="M-4,0h8" fill="none" stroke="white" stroke-width="1.5" pointer-events="none"/>
                </g>
                <g id="dirArrow">
                        <path fill="none" stroke="white" stroke-width="1.5" d="M0,-3.0v7 M-2.5,-0.5L0,-3.0L2.5,-0.5"/>
                </g>
               <g id="resetDef">
                       <use xlink:href="#rim2" fill="#404040">
                               <set attributeName="fill" to="#808080" begin="reset.mouseover" end="reset.mouseout"/>
                       </use>
               </g>
        </defs>

<script type="text/javascript">
var viewWidth = 1118;
var viewHeight = 338;
var sectionId = 'dynsection-4';
</script>
<script xlink:href="../../svgpan.js"/>
<svg id="graph" class="graph">
<g id="viewport">
<title>gameEngine.actors.behaviors.LinearMovement.execute</title>
<polygon fill="white" stroke="none" points="-4,4 -4,-333.932 1114,-333.932 1114,4 -4,4"/>
<!-- Node1 -->
<g id="node1" class="node"><title>Node1</title>
<polygon fill="#bfbfbf" stroke="black" points="0,-136.932 0,-166.932 162,-166.932 162,-136.932 0,-136.932"/>
<text text-anchor="start" x="8" y="-154.932" font-family="Helvetica,sans-Serif" font-size="10.00">gameEngine.actors.behaviors.</text>
<text text-anchor="middle" x="81" y="-143.932" font-family="Helvetica,sans-Serif" font-size="10.00">LinearMovement.execute</text>
</g>
<!-- Node2 -->
<g id="node2" class="node"><title>Node2</title>
<g id="a_node2"><a xlink:href="../../de/d4a/classgame_engine_1_1actors_1_1behaviors_1_1_base_movement_behavior.html#ac56b8c6d59f87cad83decf65b7fd368f" target="_top" xlink:title="gameEngine.actors.behaviors.\lBaseMovementBehavior.findNextTarget">
<polygon fill="white" stroke="black" points="198.5,-228.932 198.5,-258.932 403.5,-258.932 403.5,-228.932 198.5,-228.932"/>
<text text-anchor="start" x="206.5" y="-246.932" font-family="Helvetica,sans-Serif" font-size="10.00">gameEngine.actors.behaviors.</text>
<text text-anchor="middle" x="301" y="-235.932" font-family="Helvetica,sans-Serif" font-size="10.00">BaseMovementBehavior.findNextTarget</text>
</a>
</g>
</g>
<!-- Node1&#45;&gt;Node2 -->
<g id="edge1" class="edge"><title>Node1&#45;&gt;Node2</title>
<path fill="none" stroke="midnightblue" d="M117.998,-167.124C155.504,-182.953 214.352,-207.787 254.925,-224.91"/>
<polygon fill="midnightblue" stroke="midnightblue" points="253.737,-228.207 264.311,-228.871 256.458,-221.758 253.737,-228.207"/>
</g>
<!-- Node10 -->
<g id="node10" class="node"><title>Node10</title>
<g id="a_node10"><a xlink:href="../../d5/d02/classgame_engine_1_1actors_1_1_base_actor.html#ae877e5334153c4e125fb84bf993587af" target="_top" xlink:title="gameEngine.actors.BaseActor.getNode">
<polygon fill="white" stroke="black" points="904,-142.432 904,-161.432 1110,-161.432 1110,-142.432 904,-142.432"/>
<text text-anchor="middle" x="1007" y="-149.432" font-family="Helvetica,sans-Serif" font-size="10.00">gameEngine.actors.BaseActor.getNode</text>
</a>
</g>
</g>
<!-- Node1&#45;&gt;Node10 -->
<g id="edge12" class="edge"><title>Node1&#45;&gt;Node10</title>
<path fill="none" stroke="midnightblue" d="M162.383,-151.932C327.4,-151.932 704.724,-151.932 893.749,-151.932"/>
<polygon fill="midnightblue" stroke="midnightblue" points="893.989,-155.432 903.989,-151.932 893.989,-148.432 893.989,-155.432"/>
</g>
<!-- Node13 -->
<g id="node13" class="node"><title>Node13</title>
<g id="a_node13"><a xlink:href="../../da/d56/classgame_engine_1_1actors_1_1behaviors_1_1_linear_movement.html#aa8f07e5130f43a3683584d1d7eeeed1e" target="_top" xlink:title="gameEngine.actors.behaviors.\lLinearMovement.move">
<polygon fill="white" stroke="black" points="220,-57.9324 220,-87.9324 382,-87.9324 382,-57.9324 220,-57.9324"/>
<text text-anchor="start" x="228" y="-75.9324" font-family="Helvetica,sans-Serif" font-size="10.00">gameEngine.actors.behaviors.</text>
<text text-anchor="middle" x="301" y="-64.9324" font-family="Helvetica,sans-Serif" font-size="10.00">LinearMovement.move</text>
</a>
</g>
</g>
<!-- Node1&#45;&gt;Node13 -->
<g id="edge13" class="edge"><title>Node1&#45;&gt;Node13</title>
<path fill="none" stroke="midnightblue" d="M123.517,-136.887C159.163,-123.969 210.684,-105.299 248.865,-91.463"/>
<polygon fill="midnightblue" stroke="midnightblue" points="250.057,-94.7536 258.267,-88.0559 247.672,-88.1724 250.057,-94.7536"/>
</g>
<!-- Node3 -->
<g id="node3" class="node"><title>Node3</title>
<g id="a_node3"><a xlink:href="../../d5/d02/classgame_engine_1_1actors_1_1_base_actor.html#ab09622640b8a086e4fd85fe9c4a8cc6a" target="_top" xlink:title="gameEngine.actors.BaseActor.died">
<polygon fill="white" stroke="black" points="447.5,-310.432 447.5,-329.432 632.5,-329.432 632.5,-310.432 447.5,-310.432"/>
<text text-anchor="middle" x="540" y="-317.432" font-family="Helvetica,sans-Serif" font-size="10.00">gameEngine.actors.BaseActor.died</text>
</a>
</g>
</g>
<!-- Node2&#45;&gt;Node3 -->
<g id="edge2" class="edge"><title>Node2&#45;&gt;Node3</title>
<path fill="none" stroke="midnightblue" d="M333.404,-259.046C360.953,-271.781 402.376,-289.678 440,-300.932 449.209,-303.687 459.023,-306.134 468.759,-308.279"/>
<polygon fill="midnightblue" stroke="midnightblue" points="468.341,-311.768 478.848,-310.405 469.784,-304.918 468.341,-311.768"/>
</g>
<!-- Node4 -->
<g id="node4" class="node"><title>Node4</title>
<g id="a_node4"><a xlink:href="../../d5/d02/classgame_engine_1_1actors_1_1_base_actor.html#a2106e623a36a5683759aff1a392c7686" target="_top" xlink:title="gameEngine.actors.BaseActor.getX">
<polygon fill="white" stroke="black" points="447,-272.432 447,-291.432 633,-291.432 633,-272.432 447,-272.432"/>
<text text-anchor="middle" x="540" y="-279.432" font-family="Helvetica,sans-Serif" font-size="10.00">gameEngine.actors.BaseActor.getX</text>
</a>
</g>
</g>
<!-- Node2&#45;&gt;Node4 -->
<g id="edge3" class="edge"><title>Node2&#45;&gt;Node4</title>
<path fill="none" stroke="midnightblue" d="M395.669,-258.951C420.352,-262.909 446.539,-267.107 469.684,-270.818"/>
<polygon fill="midnightblue" stroke="midnightblue" points="469.316,-274.304 479.744,-272.431 470.424,-267.392 469.316,-274.304"/>
</g>
<!-- Node6 -->
<g id="node6" class="node"><title>Node6</title>
<g id="a_node6"><a xlink:href="../../d5/d02/classgame_engine_1_1actors_1_1_base_actor.html#a4e1debba2b998a75964fb8c979cb15e8" target="_top" xlink:title="gameEngine.actors.BaseActor.getY">
<polygon fill="white" stroke="black" points="447.5,-234.432 447.5,-253.432 632.5,-253.432 632.5,-234.432 447.5,-234.432"/>
<text text-anchor="middle" x="540" y="-241.432" font-family="Helvetica,sans-Serif" font-size="10.00">gameEngine.actors.BaseActor.getY</text>
</a>
</g>
</g>
<!-- Node2&#45;&gt;Node6 -->
<g id="edge5" class="edge"><title>Node2&#45;&gt;Node6</title>
<path fill="none" stroke="midnightblue" d="M403.541,-243.932C414.699,-243.932 426.062,-243.932 437.223,-243.932"/>
<polygon fill="midnightblue" stroke="midnightblue" points="437.404,-247.432 447.404,-243.932 437.404,-240.432 437.404,-247.432"/>
</g>
<!-- Node8 -->
<g id="node8" class="node"><title>Node8</title>
<g id="a_node8"><a xlink:href="../../de/d4a/classgame_engine_1_1actors_1_1behaviors_1_1_base_movement_behavior.html#a651324cf5d06db046fb2ee34330d7452" target="_top" xlink:title="gameEngine.actors.behaviors.\lBaseMovementBehavior.moveTowards">
<polygon fill="white" stroke="black" points="440,-182.932 440,-212.932 640,-212.932 640,-182.932 440,-182.932"/>
<text text-anchor="start" x="448" y="-200.932" font-family="Helvetica,sans-Serif" font-size="10.00">gameEngine.actors.behaviors.</text>
<text text-anchor="middle" x="540" y="-189.932" font-family="Helvetica,sans-Serif" font-size="10.00">BaseMovementBehavior.moveTowards</text>
</a>
</g>
</g>
<!-- Node2&#45;&gt;Node8 -->
<g id="edge7" class="edge"><title>Node2&#45;&gt;Node8</title>
<path fill="none" stroke="midnightblue" d="M379.603,-228.87C402.637,-224.399 428.021,-219.473 451.63,-214.89"/>
<polygon fill="midnightblue" stroke="midnightblue" points="452.478,-218.291 461.628,-212.95 451.144,-211.419 452.478,-218.291"/>
</g>
<!-- Node5 -->
<g id="node5" class="node"><title>Node5</title>
<g id="a_node5"><a xlink:href="../../dd/df0/classutilities_1_1_java_f_xutilities_1_1image_view_1_1_centered_image_view.html#a063a62060b9b686601364fdbb8b6cd86" target="_top" xlink:title="utilities.JavaFXutilities.image\lView.CenteredImageView.getXCenter">
<polygon fill="white" stroke="black" points="676,-278.932 676,-308.932 868,-308.932 868,-278.932 676,-278.932"/>
<text text-anchor="start" x="684" y="-296.932" font-family="Helvetica,sans-Serif" font-size="10.00">utilities.JavaFXutilities.image</text>
<text text-anchor="middle" x="772" y="-285.932" font-family="Helvetica,sans-Serif" font-size="10.00">View.CenteredImageView.getXCenter</text>
</a>
</g>
</g>
<!-- Node4&#45;&gt;Node5 -->
<g id="edge4" class="edge"><title>Node4&#45;&gt;Node5</title>
<path fill="none" stroke="midnightblue" d="M633.225,-286.744C643.832,-287.297 654.709,-287.865 665.474,-288.427"/>
<polygon fill="midnightblue" stroke="midnightblue" points="665.58,-291.937 675.748,-288.963 665.944,-284.946 665.58,-291.937"/>
</g>
<!-- Node7 -->
<g id="node7" class="node"><title>Node7</title>
<g id="a_node7"><a xlink:href="../../dd/df0/classutilities_1_1_java_f_xutilities_1_1image_view_1_1_centered_image_view.html#aa05843be4846dc0d9c23489cac21ed3d" target="_top" xlink:title="utilities.JavaFXutilities.image\lView.CenteredImageView.getYCenter">
<polygon fill="white" stroke="black" points="676.5,-229.932 676.5,-259.932 867.5,-259.932 867.5,-229.932 676.5,-229.932"/>
<text text-anchor="start" x="684.5" y="-247.932" font-family="Helvetica,sans-Serif" font-size="10.00">utilities.JavaFXutilities.image</text>
<text text-anchor="middle" x="772" y="-236.932" font-family="Helvetica,sans-Serif" font-size="10.00">View.CenteredImageView.getYCenter</text>
</a>
</g>
</g>
<!-- Node6&#45;&gt;Node7 -->
<g id="edge6" class="edge"><title>Node6&#45;&gt;Node7</title>
<path fill="none" stroke="midnightblue" d="M632.563,-244.33C643.593,-244.378 654.923,-244.428 666.124,-244.476"/>
<polygon fill="midnightblue" stroke="midnightblue" points="666.347,-247.977 676.362,-244.521 666.378,-240.977 666.347,-247.977"/>
</g>
<!-- Node9 -->
<g id="node9" class="node"><title>Node9</title>
<g id="a_node9"><a xlink:href="../../de/d4a/classgame_engine_1_1actors_1_1behaviors_1_1_base_movement_behavior.html#aff0b5253f4e7e0aab38f275509464092" target="_top" xlink:title="gameEngine.actors.behaviors.\lBaseMovementBehavior.move">
<polygon fill="white" stroke="black" points="690.5,-180.932 690.5,-210.932 853.5,-210.932 853.5,-180.932 690.5,-180.932"/>
<text text-anchor="start" x="698.5" y="-198.932" font-family="Helvetica,sans-Serif" font-size="10.00">gameEngine.actors.behaviors.</text>
<text text-anchor="middle" x="772" y="-187.932" font-family="Helvetica,sans-Serif" font-size="10.00">BaseMovementBehavior.move</text>
</a>
</g>
</g>
<!-- Node8&#45;&gt;Node9 -->
<g id="edge8" class="edge"><title>Node8&#45;&gt;Node9</title>
<path fill="none" stroke="midnightblue" d="M640.21,-197.07C653.58,-196.953 667.24,-196.835 680.449,-196.72"/>
<polygon fill="midnightblue" stroke="midnightblue" points="680.481,-200.22 690.45,-196.633 680.42,-193.22 680.481,-200.22"/>
</g>
<!-- Node9&#45;&gt;Node10 -->
<g id="edge9" class="edge"><title>Node9&#45;&gt;Node10</title>
<path fill="none" stroke="midnightblue" d="M851.613,-180.872C868.87,-177.582 887.049,-174.129 904,-170.932 917.118,-168.459 931.189,-165.825 944.562,-163.331"/>
<polygon fill="midnightblue" stroke="midnightblue" points="945.435,-166.729 954.625,-161.457 944.153,-159.847 945.435,-166.729"/>
</g>
<!-- Node11 -->
<g id="node11" class="node"><title>Node11</title>
<g id="a_node11"><a xlink:href="../../dd/df0/classutilities_1_1_java_f_xutilities_1_1image_view_1_1_centered_image_view.html#a4df6d41d08c4c4a5c530290c736926f2" target="_top" xlink:title="utilities.JavaFXutilities.image\lView.CenteredImageView.setXCenter">
<polygon fill="white" stroke="black" points="911.5,-180.932 911.5,-210.932 1102.5,-210.932 1102.5,-180.932 911.5,-180.932"/>
<text text-anchor="start" x="919.5" y="-198.932" font-family="Helvetica,sans-Serif" font-size="10.00">utilities.JavaFXutilities.image</text>
<text text-anchor="middle" x="1007" y="-187.932" font-family="Helvetica,sans-Serif" font-size="10.00">View.CenteredImageView.setXCenter</text>
</a>
</g>
</g>
<!-- Node9&#45;&gt;Node11 -->
<g id="edge10" class="edge"><title>Node9&#45;&gt;Node11</title>
<path fill="none" stroke="midnightblue" d="M853.512,-195.932C868.834,-195.932 885.077,-195.932 901.029,-195.932"/>
<polygon fill="midnightblue" stroke="midnightblue" points="901.457,-199.432 911.457,-195.932 901.457,-192.432 901.457,-199.432"/>
</g>
<!-- Node12 -->
<g id="node12" class="node"><title>Node12</title>
<g id="a_node12"><a xlink:href="../../dd/df0/classutilities_1_1_java_f_xutilities_1_1image_view_1_1_centered_image_view.html#a2bcbaa8cc681ef2663182084f742d29d" target="_top" xlink:title="utilities.JavaFXutilities.image\lView.CenteredImageView.setYCenter">
<polygon fill="white" stroke="black" points="911.5,-229.932 911.5,-259.932 1102.5,-259.932 1102.5,-229.932 911.5,-229.932"/>
<text text-anchor="start" x="919.5" y="-247.932" font-family="Helvetica,sans-Serif" font-size="10.00">utilities.JavaFXutilities.image</text>
<text text-anchor="middle" x="1007" y="-236.932" font-family="Helvetica,sans-Serif" font-size="10.00">View.CenteredImageView.setYCenter</text>
</a>
</g>
</g>
<!-- Node9&#45;&gt;Node12 -->
<g id="edge11" class="edge"><title>Node9&#45;&gt;Node12</title>
<path fill="none" stroke="midnightblue" d="M844.491,-210.967C869.875,-216.305 898.629,-222.352 924.767,-227.849"/>
<polygon fill="midnightblue" stroke="midnightblue" points="924.138,-231.293 934.644,-229.926 925.578,-224.443 924.138,-231.293"/>
</g>
<!-- Node13&#45;&gt;Node10 -->
<g id="edge15" class="edge"><title>Node13&#45;&gt;Node10</title>
<path fill="none" stroke="midnightblue" d="M327.895,-57.8153C354.855,-43.0205 398.82,-21.4972 440,-12.9324 527.026,5.16804 552.571,3.11062 640,-12.9324 772.672,-37.2773 919.593,-107.408 978.943,-137.709"/>
<polygon fill="midnightblue" stroke="midnightblue" points="977.53,-140.918 988.023,-142.384 980.735,-134.694 977.53,-140.918"/>
</g>
<!-- Node14 -->
<g id="node14" class="node"><title>Node14</title>
<g id="a_node14"><a xlink:href="../../d8/d5b/classgame_authoring_1_1scenes_1_1path_building_1_1path_components_1_1route_to_point_translation_1_1_visibility_point.html#a4bf2b5df218b78778c5eb9b2ad58e106" target="_top" xlink:title="gameAuthoring.scenes.path\lBuilding.pathComponents.routeTo\lPointTranslation.VisibilityPoint.getPoint">
<polygon fill="white" stroke="black" points="440,-82.4324 440,-123.432 640,-123.432 640,-82.4324 440,-82.4324"/>
<text text-anchor="start" x="448" y="-111.432" font-family="Helvetica,sans-Serif" font-size="10.00">gameAuthoring.scenes.path</text>
<text text-anchor="start" x="448" y="-100.432" font-family="Helvetica,sans-Serif" font-size="10.00">Building.pathComponents.routeTo</text>
<text text-anchor="middle" x="540" y="-89.4324" font-family="Helvetica,sans-Serif" font-size="10.00">PointTranslation.VisibilityPoint.getPoint</text>
</a>
</g>
</g>
<!-- Node13&#45;&gt;Node14 -->
<g id="edge14" class="edge"><title>Node13&#45;&gt;Node14</title>
<path fill="none" stroke="midnightblue" d="M382.237,-83.089C397.584,-85.0316 413.89,-87.0956 429.962,-89.1301"/>
<polygon fill="midnightblue" stroke="midnightblue" points="429.568,-92.608 439.928,-90.3916 430.447,-85.6634 429.568,-92.608"/>
</g>
<!-- Node15 -->
<g id="node15" class="node"><title>Node15</title>
<g id="a_node15"><a xlink:href="../../d8/d5b/classgame_authoring_1_1scenes_1_1path_building_1_1path_components_1_1route_to_point_translation_1_1_visibility_point.html#a0e7b99c7adabbffea1b4bc7d9a1aa895" target="_top" xlink:title="gameAuthoring.scenes.path\lBuilding.pathComponents.routeTo\lPointTranslation.VisibilityPoint.isVisible">
<polygon fill="white" stroke="black" points="441,-22.4324 441,-63.4324 639,-63.4324 639,-22.4324 441,-22.4324"/>
<text text-anchor="start" x="449" y="-51.4324" font-family="Helvetica,sans-Serif" font-size="10.00">gameAuthoring.scenes.path</text>
<text text-anchor="start" x="449" y="-40.4324" font-family="Helvetica,sans-Serif" font-size="10.00">Building.pathComponents.routeTo</text>
<text text-anchor="middle" x="540" y="-29.4324" font-family="Helvetica,sans-Serif" font-size="10.00">PointTranslation.VisibilityPoint.isVisible</text>
</a>
</g>
</g>
<!-- Node13&#45;&gt;Node15 -->
<g id="edge16" class="edge"><title>Node13&#45;&gt;Node15</title>
<path fill="none" stroke="midnightblue" d="M382.237,-62.7757C397.806,-60.805 414.363,-58.7092 430.661,-56.6462"/>
<polygon fill="midnightblue" stroke="midnightblue" points="431.283,-60.0955 440.764,-55.3673 430.403,-53.1509 431.283,-60.0955"/>
</g>
</g>
</svg>
        <g id="navigator" transform="translate(0 0)" fill="#404254">
                <rect fill="#f2f5e9" fill-opacity="0.5" stroke="#606060" stroke-width=".5" x="0" y="0" width="60" height="60"/>
                <use id="zoomplus" xlink:href="#zoomPlus" x="17" y="9" onmousedown="handleZoom(evt,'in')"/>
                <use id="zoomminus" xlink:href="#zoomMin" x="42" y="9" onmousedown="handleZoom(evt,'out')"/>
                <use id="reset" xlink:href="#resetDef" x="30" y="36" onmousedown="handleReset()"/>
                <g id="arrowUp" xlink:href="#dirArrow" transform="translate(30 24)" onmousedown="handlePan(0,-1)">
                  <use xlink:href="#rim" fill="#404040">
                        <set attributeName="fill" to="#808080" begin="arrowUp.mouseover" end="arrowUp.mouseout"/>
                  </use>
                  <path fill="none" stroke="white" stroke-width="1.5" d="M0,-3.0v7 M-2.5,-0.5L0,-3.0L2.5,-0.5"/>
                </g>
                <g id="arrowRight" xlink:href="#dirArrow" transform="rotate(90) translate(36 -43)" onmousedown="handlePan(1,0)">
                  <use xlink:href="#rim" fill="#404040">
                        <set attributeName="fill" to="#808080" begin="arrowRight.mouseover" end="arrowRight.mouseout"/>
                  </use>
                  <path fill="none" stroke="white" stroke-width="1.5" d="M0,-3.0v7 M-2.5,-0.5L0,-3.0L2.5,-0.5"/>
                </g>
                <g id="arrowDown" xlink:href="#dirArrow" transform="rotate(180) translate(-30 -48)" onmousedown="handlePan(0,1)">
                  <use xlink:href="#rim" fill="#404040">
                        <set attributeName="fill" to="#808080" begin="arrowDown.mouseover" end="arrowDown.mouseout"/>
                  </use>
                  <path fill="none" stroke="white" stroke-width="1.5" d="M0,-3.0v7 M-2.5,-0.5L0,-3.0L2.5,-0.5"/>
                </g>
                <g id="arrowLeft" xlink:href="#dirArrow" transform="rotate(270) translate(-36 17)" onmousedown="handlePan(-1,0)">
                  <use xlink:href="#rim" fill="#404040">
                        <set attributeName="fill" to="#808080" begin="arrowLeft.mouseover" end="arrowLeft.mouseout"/>
                  </use>
                  <path fill="none" stroke="white" stroke-width="1.5" d="M0,-3.0v7 M-2.5,-0.5L0,-3.0L2.5,-0.5"/>
                </g>
        </g>
        <svg viewBox="0 0 15 15" width="100%" height="30px" preserveAspectRatio="xMaxYMin meet">
         <g id="arrow_out" transform="scale(0.3 0.3)">
          <a xlink:href="classgame_engine_1_1actors_1_1behaviors_1_1_linear_movement_a388237f4dafec0d8b13cd7c215b5ec87_cgraph_org.svg" target="_base">
           <rect id="button" ry="5" rx="5" y="6" x="6" height="38" width="38"
                fill="#f2f5e9" fill-opacity="0.5" stroke="#606060" stroke-width="1.0"/>
           <path id="arrow"
             d="M 11.500037,31.436501 C 11.940474,20.09759 22.043105,11.32322 32.158766,21.979434 L 37.068811,17.246167 C 37.068811,17.246167 37.088388,32 37.088388,32 L 22.160133,31.978069 C 22.160133,31.978069 26.997745,27.140456 26.997745,27.140456 C 18.528582,18.264221 13.291696,25.230495 11.500037,31.436501 z"
             style="fill:#404040;"/>
          </a>
         </g>
        </svg>
</svg>
