<?xml version="1.0" encoding="UTF-8" standalone="no"?>
<!DOCTYPE svg PUBLIC "-//W3C//DTD SVG 1.1//EN"
 "http://www.w3.org/Graphics/SVG/1.1/DTD/svg11.dtd">
<!-- Generated by graphviz version 2.36.0 (20140111.2315)
 -->
<!-- Title: gameEngine.ManagerInterface.InformationInterface.checkNewPath Pages: 1 -->
<svg width="392pt" height="38pt"
 viewBox="0.00 0.00 392.00 38.00" xmlns="http://www.w3.org/2000/svg" xmlns:xlink="http://www.w3.org/1999/xlink">
<g id="graph0" class="graph" transform="scale(1 1) rotate(0) translate(4 34)">
<title>gameEngine.ManagerInterface.InformationInterface.checkNewPath</title>
<polygon fill="white" stroke="none" points="-4,4 -4,-34 388,-34 388,4 -4,4"/>
<!-- Node1 -->
<g id="node1" class="node"><title>Node1</title>
<polygon fill="#bfbfbf" stroke="black" points="0.5,-0 0.5,-30 185.5,-30 185.5,-0 0.5,-0"/>
<text text-anchor="start" x="8.5" y="-18" font-family="Helvetica,sans-Serif" font-size="10.00">gameEngine.ManagerInterface.</text>
<text text-anchor="middle" x="93" y="-7" font-family="Helvetica,sans-Serif" font-size="10.00">InformationInterface.checkNewPath</text>
</g>
<!-- Node2 -->
<g id="node2" class="node"><title>Node2</title>
<g id="a_node2"><a xlink:href="../../d6/d0e/classgame_engine_1_1actors_1_1behaviors_1_1_a_i_movement.html#aeb1d8783ef4330c7c62ab30c03822b7d" target="_top" xlink:title="gameEngine.actors.behaviors.\lAIMovement.execute">
<polygon fill="white" stroke="black" points="222,-0 222,-30 384,-30 384,-0 222,-0"/>
<text text-anchor="start" x="230" y="-18" font-family="Helvetica,sans-Serif" font-size="10.00">gameEngine.actors.behaviors.</text>
<text text-anchor="middle" x="303" y="-7" font-family="Helvetica,sans-Serif" font-size="10.00">AIMovement.execute</text>
</a>
</g>
</g>
<!-- Node1&#45;&gt;Node2 -->
<g id="edge1" class="edge"><title>Node1&#45;&gt;Node2</title>
<path fill="none" stroke="midnightblue" d="M195.782,-15C204.531,-15 213.302,-15 221.846,-15"/>
<polygon fill="midnightblue" stroke="midnightblue" points="195.535,-11.5001 185.535,-15 195.534,-18.5001 195.535,-11.5001"/>
</g>
</g>
</svg>
