<?xml version="1.0" encoding="UTF-8" standalone="no"?>
<!DOCTYPE svg PUBLIC "-//W3C//DTD SVG 1.1//EN"
 "http://www.w3.org/Graphics/SVG/1.1/DTD/svg11.dtd">
<!-- Generated by graphviz version 2.36.0 (20140111.2315)
 -->
<!-- Title: utilities.pathfinding.IPathFinder&lt; T &gt; Pages: 1 -->
<!--zoomable 157 -->
<svg id="main" version="1.1" xmlns="http://www.w3.org/2000/svg" xmlns:xlink="http://www.w3.org/1999/xlink" xml:space="preserve" onload="init(evt)">
<style type="text/css"><![CDATA[
.edge:hover path { stroke: red; }
.edge:hover polygon { stroke: red; fill: red; }
]]></style>
<script type="text/javascript"><![CDATA[
var edges = document.getElementsByTagName('g');
if (edges && edges.length) {
  for (var i=0;i<edges.length;i++) {
    if (edges[i].id.substr(0,4)=='edge') {
      edges[i].setAttribute('class','edge');
    }
  }
}
]]></script>
        <defs>
                <circle id="rim" cx="0" cy="0" r="7"/>
                <circle id="rim2" cx="0" cy="0" r="3.5"/>
                <g id="zoomPlus">
                        <use xlink:href="#rim" fill="#404040">
                                <set attributeName="fill" to="#808080" begin="zoomplus.mouseover" end="zoomplus.mouseout"/>
                        </use>
                        <path d="M-4,0h8M0,-4v8" fill="none" stroke="white" stroke-width="1.5" pointer-events="none"/>
                </g>
                <g id="zoomMin">
                        <use xlink:href="#rim" fill="#404040">
                                <set attributeName="fill" to="#808080" begin="zoomminus.mouseover" end="zoomminus.mouseout"/>
                        </use>
                        <path d="M-4,0h8" fill="none" stroke="white" stroke-width="1.5" pointer-events="none"/>
                </g>
                <g id="dirArrow">
                        <path fill="none" stroke="white" stroke-width="1.5" d="M0,-3.0v7 M-2.5,-0.5L0,-3.0L2.5,-0.5"/>
                </g>
               <g id="resetDef">
                       <use xlink:href="#rim2" fill="#404040">
                               <set attributeName="fill" to="#808080" begin="reset.mouseover" end="reset.mouseout"/>
                       </use>
               </g>
        </defs>

<script type="text/javascript">
var viewWidth = 524;
var viewHeight = 157;
var sectionId = 'dynsection-0';
</script>
<script xlink:href="../../svgpan.js"/>
<svg id="graph" class="graph">
<g id="viewport">
<title>utilities.pathfinding.IPathFinder&lt; T &gt;</title>
<polygon fill="white" stroke="none" points="-4,4 -4,-153 520,-153 520,4 -4,4"/>
<!-- Node1 -->
<g id="node1" class="node"><title>Node1</title>
<polygon fill="#bfbfbf" stroke="black" points="0.5,-65 0.5,-95 133.5,-95 133.5,-65 0.5,-65"/>
<text text-anchor="start" x="8.5" y="-83" font-family="Helvetica,sans-Serif" font-size="10.00">utilities.pathfinding.IPath</text>
<text text-anchor="middle" x="67" y="-72" font-family="Helvetica,sans-Serif" font-size="10.00">Finder&lt; T &gt;</text>
</g>
<!-- Node2 -->
<g id="node2" class="node"><title>Node2</title>
<g id="a_node2"><a xlink:href="../../d5/de4/classutilities_1_1pathfinding_1_1_a_star_path_finder.html" target="_top" xlink:title="utilities::pathfinding\l::AStarPathFinder\&lt; T \&gt;">
<polygon fill="white" stroke="black" points="170.5,-65 170.5,-95 297.5,-95 297.5,-65 170.5,-65"/>
<text text-anchor="start" x="178.5" y="-83" font-family="Helvetica,sans-Serif" font-size="10.00">utilities::pathfinding</text>
<text text-anchor="middle" x="234" y="-72" font-family="Helvetica,sans-Serif" font-size="10.00">::AStarPathFinder&lt; T &gt;</text>
</a>
</g>
</g>
<!-- Node1&#45;&gt;Node2 -->
<g id="edge1" class="edge"><title>Node1&#45;&gt;Node2</title>
<path fill="none" stroke="midnightblue" d="M143.73,-80C152.686,-80 161.749,-80 170.493,-80"/>
<polygon fill="midnightblue" stroke="midnightblue" points="143.687,-76.5001 133.686,-80 143.686,-83.5001 143.687,-76.5001"/>
</g>
<!-- Node3 -->
<g id="node3" class="node"><title>Node3</title>
<g id="a_node3"><a xlink:href="../../d1/d5b/classgame_engine_1_1_a_i_1_1_grid_path_finder.html" target="_top" xlink:title="gameEngine::AI::GridPath\lFinder\&lt; Point2D \&gt;">
<polygon fill="white" stroke="black" points="356,-119 356,-149 494,-149 494,-119 356,-119"/>
<text text-anchor="start" x="364" y="-137" font-family="Helvetica,sans-Serif" font-size="10.00">gameEngine::AI::GridPath</text>
<text text-anchor="middle" x="425" y="-126" font-family="Helvetica,sans-Serif" font-size="10.00">Finder&lt; Point2D &gt;</text>
</a>
</g>
</g>
<!-- Node2&#45;&gt;Node3 -->
<g id="edge2" class="edge"><title>Node2&#45;&gt;Node3</title>
<path fill="none" stroke="midnightblue" d="M295.797,-97.955C308.416,-101.641 321.634,-105.471 334,-109 345.384,-112.248 357.594,-115.677 369.232,-118.919"/>
<polygon fill="midnightblue" stroke="midnightblue" points="296.414,-94.4888 285.833,-95.0388 294.447,-101.207 296.414,-94.4888"/>
</g>
<!-- Node4 -->
<g id="node4" class="node"><title>Node4</title>
<g id="a_node4"><a xlink:href="../../df/dc7/classutilities_1_1pathfinding_1_1example_1_1_linked_node_a_star_finder.html" target="_top" xlink:title="utilities::pathfinding\l::example::LinkedNodeAStarFinder\l\&lt; LinkedNode \&gt;">
<polygon fill="white" stroke="black" points="334,-59.5 334,-100.5 516,-100.5 516,-59.5 334,-59.5"/>
<text text-anchor="start" x="342" y="-88.5" font-family="Helvetica,sans-Serif" font-size="10.00">utilities::pathfinding</text>
<text text-anchor="start" x="342" y="-77.5" font-family="Helvetica,sans-Serif" font-size="10.00">::example::LinkedNodeAStarFinder</text>
<text text-anchor="middle" x="425" y="-66.5" font-family="Helvetica,sans-Serif" font-size="10.00">&lt; LinkedNode &gt;</text>
</a>
</g>
</g>
<!-- Node2&#45;&gt;Node4 -->
<g id="edge3" class="edge"><title>Node2&#45;&gt;Node4</title>
<path fill="none" stroke="midnightblue" d="M307.897,-80C316.397,-80 325.143,-80 333.84,-80"/>
<polygon fill="midnightblue" stroke="midnightblue" points="307.672,-76.5001 297.672,-80 307.672,-83.5001 307.672,-76.5001"/>
</g>
<!-- Node5 -->
<g id="node5" class="node"><title>Node5</title>
<g id="a_node5"><a xlink:href="../../de/d82/classutilities_1_1pathfinding_1_1example_1_1_unlinked_node_a_star_finder.html" target="_top" xlink:title="utilities::pathfinding\l::example::UnlinkedNodeAStar\lFinder\&lt; UnlinkedNode \&gt;">
<polygon fill="white" stroke="black" points="343,0.5 343,-40.5 507,-40.5 507,0.5 343,0.5"/>
<text text-anchor="start" x="351" y="-28.5" font-family="Helvetica,sans-Serif" font-size="10.00">utilities::pathfinding</text>
<text text-anchor="start" x="351" y="-17.5" font-family="Helvetica,sans-Serif" font-size="10.00">::example::UnlinkedNodeAStar</text>
<text text-anchor="middle" x="425" y="-6.5" font-family="Helvetica,sans-Serif" font-size="10.00">Finder&lt; UnlinkedNode &gt;</text>
</a>
</g>
</g>
<!-- Node2&#45;&gt;Node5 -->
<g id="edge4" class="edge"><title>Node2&#45;&gt;Node5</title>
<path fill="none" stroke="midnightblue" d="M292.463,-61.7579C313.532,-55.0693 337.519,-47.4542 359.188,-40.5751"/>
<polygon fill="midnightblue" stroke="midnightblue" points="291.165,-58.4977 282.693,-64.8595 293.283,-65.1695 291.165,-58.4977"/>
</g>
</g>
</svg>
        <g id="navigator" transform="translate(0 0)" fill="#404254">
                <rect fill="#f2f5e9" fill-opacity="0.5" stroke="#606060" stroke-width=".5" x="0" y="0" width="60" height="60"/>
                <use id="zoomplus" xlink:href="#zoomPlus" x="17" y="9" onmousedown="handleZoom(evt,'in')"/>
                <use id="zoomminus" xlink:href="#zoomMin" x="42" y="9" onmousedown="handleZoom(evt,'out')"/>
                <use id="reset" xlink:href="#resetDef" x="30" y="36" onmousedown="handleReset()"/>
                <g id="arrowUp" xlink:href="#dirArrow" transform="translate(30 24)" onmousedown="handlePan(0,-1)">
                  <use xlink:href="#rim" fill="#404040">
                        <set attributeName="fill" to="#808080" begin="arrowUp.mouseover" end="arrowUp.mouseout"/>
                  </use>
                  <path fill="none" stroke="white" stroke-width="1.5" d="M0,-3.0v7 M-2.5,-0.5L0,-3.0L2.5,-0.5"/>
                </g>
                <g id="arrowRight" xlink:href="#dirArrow" transform="rotate(90) translate(36 -43)" onmousedown="handlePan(1,0)">
                  <use xlink:href="#rim" fill="#404040">
                        <set attributeName="fill" to="#808080" begin="arrowRight.mouseover" end="arrowRight.mouseout"/>
                  </use>
                  <path fill="none" stroke="white" stroke-width="1.5" d="M0,-3.0v7 M-2.5,-0.5L0,-3.0L2.5,-0.5"/>
                </g>
                <g id="arrowDown" xlink:href="#dirArrow" transform="rotate(180) translate(-30 -48)" onmousedown="handlePan(0,1)">
                  <use xlink:href="#rim" fill="#404040">
                        <set attributeName="fill" to="#808080" begin="arrowDown.mouseover" end="arrowDown.mouseout"/>
                  </use>
                  <path fill="none" stroke="white" stroke-width="1.5" d="M0,-3.0v7 M-2.5,-0.5L0,-3.0L2.5,-0.5"/>
                </g>
                <g id="arrowLeft" xlink:href="#dirArrow" transform="rotate(270) translate(-36 17)" onmousedown="handlePan(-1,0)">
                  <use xlink:href="#rim" fill="#404040">
                        <set attributeName="fill" to="#808080" begin="arrowLeft.mouseover" end="arrowLeft.mouseout"/>
                  </use>
                  <path fill="none" stroke="white" stroke-width="1.5" d="M0,-3.0v7 M-2.5,-0.5L0,-3.0L2.5,-0.5"/>
                </g>
        </g>
        <svg viewBox="0 0 15 15" width="100%" height="30px" preserveAspectRatio="xMaxYMin meet">
         <g id="arrow_out" transform="scale(0.3 0.3)">
          <a xlink:href="interfaceutilities_1_1pathfinding_1_1_i_path_finder__inherit__graph_org.svg" target="_base">
           <rect id="button" ry="5" rx="5" y="6" x="6" height="38" width="38"
                fill="#f2f5e9" fill-opacity="0.5" stroke="#606060" stroke-width="1.0"/>
           <path id="arrow"
             d="M 11.500037,31.436501 C 11.940474,20.09759 22.043105,11.32322 32.158766,21.979434 L 37.068811,17.246167 C 37.068811,17.246167 37.088388,32 37.088388,32 L 22.160133,31.978069 C 22.160133,31.978069 26.997745,27.140456 26.997745,27.140456 C 18.528582,18.264221 13.291696,25.230495 11.500037,31.436501 z"
             style="fill:#404040;"/>
          </a>
         </g>
        </svg>
</svg>
