<?xml version="1.0" encoding="UTF-8" standalone="no"?>
<!DOCTYPE svg PUBLIC "-//W3C//DTD SVG 1.1//EN"
 "http://www.w3.org/Graphics/SVG/1.1/DTD/svg11.dtd">
<!-- Generated by graphviz version 2.36.0 (20140111.2315)
 -->
<!-- Title: /tmp/git/duke&#45;compsci308&#45;fall2014/voogasalad_LosTorres/repository/src/gamePlayer Pages: 1 -->
<svg width="833pt" height="111pt"
 viewBox="0.00 0.00 833.00 111.00" xmlns="http://www.w3.org/2000/svg" xmlns:xlink="http://www.w3.org/1999/xlink">
<g id="graph0" class="graph" transform="scale(1 1) rotate(0) translate(4 107)">
<title>/tmp/git/duke&#45;compsci308&#45;fall2014/voogasalad_LosTorres/repository/src/gamePlayer</title>
<polygon fill="white" stroke="none" points="-4,4 -4,-107 829,-107 829,4 -4,4"/>
<g id="clust1" class="cluster"><title>clusterdir_cbeb6ba8b7266040292c13b71bdcddf3</title>
<g id="a_clust1"><a xlink:href="dir_cbeb6ba8b7266040292c13b71bdcddf3.html" target="_top" xlink:title="src">
<polygon fill="#ddddee" stroke="black" points="8,-8 8,-95 817,-95 817,-8 8,-8"/>
<text text-anchor="middle" x="412.5" y="-83" font-family="Helvetica,sans-Serif" font-size="10.00">src</text>
</a>
</g>
</g>
<g id="clust2" class="cluster"><title>clusterdir_9a78cb451fc20e8b141c91adc7be476e</title>
<g id="a_clust2"><a xlink:href="dir_9a78cb451fc20e8b141c91adc7be476e.html" target="_top">
<polygon fill="#eeeeff" stroke="black" points="16,-16 16,-68 809,-68 809,-16 16,-16"/>
</a>
</g>
</g>
<!-- dir_9a78cb451fc20e8b141c91adc7be476e -->
<g id="node1" class="node"><title>dir_9a78cb451fc20e8b141c91adc7be476e</title>
<text text-anchor="middle" x="764" y="-39.5" font-family="Helvetica,sans-Serif" font-size="10.00">gamePlayer</text>
</g>
<!-- dir_33acdf5b586fc3bd0ac674aeab9710ba -->
<g id="node2" class="node"><title>dir_33acdf5b586fc3bd0ac674aeab9710ba</title>
<g id="a_node2"><a xlink:href="dir_33acdf5b586fc3bd0ac674aeab9710ba.html" target="_top" xlink:title="guiContainers">
<polygon fill="white" stroke="red" points="708.25,-60 625.75,-60 625.75,-24 708.25,-24 708.25,-60"/>
<text text-anchor="middle" x="667" y="-39.5" font-family="Helvetica,sans-Serif" font-size="10.00">guiContainers</text>
</a>
</g>
</g>
<!-- dir_40590a64afa4a0ae0bed18a53a4d77c3 -->
<g id="node3" class="node"><title>dir_40590a64afa4a0ae0bed18a53a4d77c3</title>
<g id="a_node3"><a xlink:href="dir_40590a64afa4a0ae0bed18a53a4d77c3.html" target="_top" xlink:title="guiFeatures">
<polygon fill="white" stroke="black" points="607,-60 535,-60 535,-24 607,-24 607,-60"/>
<text text-anchor="middle" x="571" y="-39.5" font-family="Helvetica,sans-Serif" font-size="10.00">guiFeatures</text>
</a>
</g>
</g>
<!-- dir_f14e99b6a36f8b062dda9efd860f2234 -->
<g id="node4" class="node"><title>dir_f14e99b6a36f8b062dda9efd860f2234</title>
<g id="a_node4"><a xlink:href="dir_f14e99b6a36f8b062dda9efd860f2234.html" target="_top" xlink:title="guiItems">
<polygon fill="white" stroke="red" points="516.5,-60 459.5,-60 459.5,-24 516.5,-24 516.5,-60"/>
<text text-anchor="middle" x="488" y="-39.5" font-family="Helvetica,sans-Serif" font-size="10.00">guiItems</text>
</a>
</g>
</g>
<!-- dir_5c13f34595f3b860904a8fa3da8bf2cb -->
<g id="node5" class="node"><title>dir_5c13f34595f3b860904a8fa3da8bf2cb</title>
<g id="a_node5"><a xlink:href="dir_5c13f34595f3b860904a8fa3da8bf2cb.html" target="_top" xlink:title="guiItemsListeners">
<polygon fill="white" stroke="black" points="440.25,-60 339.75,-60 339.75,-24 440.25,-24 440.25,-60"/>
<text text-anchor="middle" x="390" y="-39.5" font-family="Helvetica,sans-Serif" font-size="10.00">guiItemsListeners</text>
</a>
</g>
</g>
<!-- dir_c378f8551af869bffa09722a9a6f2cf5 -->
<g id="node6" class="node"><title>dir_c378f8551af869bffa09722a9a6f2cf5</title>
<g id="a_node6"><a xlink:href="dir_c378f8551af869bffa09722a9a6f2cf5.html" target="_top" xlink:title="mainClasses">
<polygon fill="white" stroke="red" points="321.25,-60 244.75,-60 244.75,-24 321.25,-24 321.25,-60"/>
<text text-anchor="middle" x="283" y="-39.5" font-family="Helvetica,sans-Serif" font-size="10.00">mainClasses</text>
</a>
</g>
</g>
<!-- dir_c0659a5acfb4769a6c34774d807c11be -->
<g id="node7" class="node"><title>dir_c0659a5acfb4769a6c34774d807c11be</title>
<g id="a_node7"><a xlink:href="dir_c0659a5acfb4769a6c34774d807c11be.html" target="_top" xlink:title="tests">
<polygon fill="white" stroke="black" points="226,-60 172,-60 172,-24 226,-24 226,-60"/>
<text text-anchor="middle" x="199" y="-39.5" font-family="Helvetica,sans-Serif" font-size="10.00">tests</text>
</a>
</g>
</g>
<!-- dir_dcf033e82ce99d7a94ae24cbb76e5473 -->
<g id="node8" class="node"><title>dir_dcf033e82ce99d7a94ae24cbb76e5473</title>
<g id="a_node8"><a xlink:href="dir_dcf033e82ce99d7a94ae24cbb76e5473.html" target="_top" xlink:title="unusedCodeWarehouse">
<polygon fill="white" stroke="red" points="153.25,-60 24.75,-60 24.75,-24 153.25,-24 153.25,-60"/>
<text text-anchor="middle" x="89" y="-39.5" font-family="Helvetica,sans-Serif" font-size="10.00">unusedCodeWarehouse</text>
</a>
</g>
</g>
</g>
</svg>
