<?xml version="1.0" encoding="UTF-8" standalone="no"?>
<!DOCTYPE svg PUBLIC "-//W3C//DTD SVG 1.1//EN"
 "http://www.w3.org/Graphics/SVG/1.1/DTD/svg11.dtd">
<!-- Generated by graphviz version 2.36.0 (20140111.2315)
 -->
<!-- Title: /tmp/git/duke&#45;compsci308&#45;fall2014/voogasalad_LosTorres/repository/src/gamePlayer/guiItems Pages: 1 -->
<svg width="1010pt" height="111pt"
 viewBox="0.00 0.00 1010.00 111.00" xmlns="http://www.w3.org/2000/svg" xmlns:xlink="http://www.w3.org/1999/xlink">
<g id="graph0" class="graph" transform="scale(1 1) rotate(0) translate(4 107)">
<title>/tmp/git/duke&#45;compsci308&#45;fall2014/voogasalad_LosTorres/repository/src/gamePlayer/guiItems</title>
<polygon fill="white" stroke="none" points="-4,4 -4,-107 1006,-107 1006,4 -4,4"/>
<g id="clust1" class="cluster"><title>clusterdir_9a78cb451fc20e8b141c91adc7be476e</title>
<g id="a_clust1"><a xlink:href="dir_9a78cb451fc20e8b141c91adc7be476e.html" target="_top" xlink:title="gamePlayer">
<polygon fill="#ddddee" stroke="black" points="8,-8 8,-95 994,-95 994,-8 8,-8"/>
<text text-anchor="middle" x="501" y="-83" font-family="Helvetica,sans-Serif" font-size="10.00">gamePlayer</text>
</a>
</g>
</g>
<g id="clust2" class="cluster"><title>clusterdir_f14e99b6a36f8b062dda9efd860f2234</title>
<g id="a_clust2"><a xlink:href="dir_f14e99b6a36f8b062dda9efd860f2234.html" target="_top">
<polygon fill="#eeeeff" stroke="black" points="16,-16 16,-68 986,-68 986,-16 16,-16"/>
</a>
</g>
</g>
<!-- dir_f14e99b6a36f8b062dda9efd860f2234 -->
<g id="node1" class="node"><title>dir_f14e99b6a36f8b062dda9efd860f2234</title>
<text text-anchor="middle" x="949" y="-39.5" font-family="Helvetica,sans-Serif" font-size="10.00">guiItems</text>
</g>
<!-- dir_6051f8022e2cfe161ac5a85352aa4765 -->
<g id="node2" class="node"><title>dir_6051f8022e2cfe161ac5a85352aa4765</title>
<g id="a_node2"><a xlink:href="dir_6051f8022e2cfe161ac5a85352aa4765.html" target="_top" xlink:title="controlDockButtons">
<polygon fill="white" stroke="red" points="902.25,-60 791.75,-60 791.75,-24 902.25,-24 902.25,-60"/>
<text text-anchor="middle" x="847" y="-39.5" font-family="Helvetica,sans-Serif" font-size="10.00">controlDockButtons</text>
</a>
</g>
</g>
<!-- dir_7201c5649c982adbfdc12ac0d9c1341d -->
<g id="node3" class="node"><title>dir_7201c5649c982adbfdc12ac0d9c1341d</title>
<g id="a_node3"><a xlink:href="dir_7201c5649c982adbfdc12ac0d9c1341d.html" target="_top" xlink:title="gameWorld">
<polygon fill="white" stroke="black" points="773,-60 703,-60 703,-24 773,-24 773,-60"/>
<text text-anchor="middle" x="738" y="-39.5" font-family="Helvetica,sans-Serif" font-size="10.00">gameWorld</text>
</a>
</g>
</g>
<!-- dir_cbd28f53d6aa03362a928dcd0a62870d -->
<g id="node4" class="node"><title>dir_cbd28f53d6aa03362a928dcd0a62870d</title>
<g id="a_node4"><a xlink:href="dir_cbd28f53d6aa03362a928dcd0a62870d.html" target="_top" xlink:title="headsUpDisplay">
<polygon fill="white" stroke="black" points="685,-60 591,-60 591,-24 685,-24 685,-60"/>
<text text-anchor="middle" x="638" y="-39.5" font-family="Helvetica,sans-Serif" font-size="10.00">headsUpDisplay</text>
</a>
</g>
</g>
<!-- dir_34efab2f0f9528034c157f7b4299edd0 -->
<g id="node5" class="node"><title>dir_34efab2f0f9528034c157f7b4299edd0</title>
<g id="a_node5"><a xlink:href="dir_34efab2f0f9528034c157f7b4299edd0.html" target="_top" xlink:title="messageDisplay">
<polygon fill="white" stroke="black" points="572.25,-60 477.75,-60 477.75,-24 572.25,-24 572.25,-60"/>
<text text-anchor="middle" x="525" y="-39.5" font-family="Helvetica,sans-Serif" font-size="10.00">messageDisplay</text>
</a>
</g>
</g>
<!-- dir_f16dbcb685bcd33981e5d3fbe009be01 -->
<g id="node6" class="node"><title>dir_f16dbcb685bcd33981e5d3fbe009be01</title>
<g id="a_node6"><a xlink:href="dir_f16dbcb685bcd33981e5d3fbe009be01.html" target="_top" xlink:title="placeholders">
<polygon fill="white" stroke="black" points="459.25,-60 382.75,-60 382.75,-24 459.25,-24 459.25,-60"/>
<text text-anchor="middle" x="421" y="-39.5" font-family="Helvetica,sans-Serif" font-size="10.00">placeholders</text>
</a>
</g>
</g>
<!-- dir_9e2a148c84fb11e897580656f9fc3f7f -->
<g id="node7" class="node"><title>dir_9e2a148c84fb11e897580656f9fc3f7f</title>
<g id="a_node7"><a xlink:href="dir_9e2a148c84fb11e897580656f9fc3f7f.html" target="_top" xlink:title="store">
<polygon fill="white" stroke="black" points="364,-60 310,-60 310,-24 364,-24 364,-60"/>
<text text-anchor="middle" x="337" y="-39.5" font-family="Helvetica,sans-Serif" font-size="10.00">store</text>
</a>
</g>
</g>
<!-- dir_3054a76eb0272e63db942192e254cbcd -->
<g id="node8" class="node"><title>dir_3054a76eb0272e63db942192e254cbcd</title>
<g id="a_node8"><a xlink:href="dir_3054a76eb0272e63db942192e254cbcd.html" target="_top" xlink:title="towerUpgrade">
<polygon fill="white" stroke="black" points="291.5,-60 208.5,-60 208.5,-24 291.5,-24 291.5,-60"/>
<text text-anchor="middle" x="250" y="-39.5" font-family="Helvetica,sans-Serif" font-size="10.00">towerUpgrade</text>
</a>
</g>
</g>
<!-- dir_59fb7f9218f1c9d67a511fc059915d13 -->
<g id="node9" class="node"><title>dir_59fb7f9218f1c9d67a511fc059915d13</title>
<g id="a_node9"><a xlink:href="dir_59fb7f9218f1c9d67a511fc059915d13.html" target="_top" xlink:title="voogaMenuBar">
<polygon fill="white" stroke="red" points="190.25,-60 101.75,-60 101.75,-24 190.25,-24 190.25,-60"/>
<text text-anchor="middle" x="146" y="-39.5" font-family="Helvetica,sans-Serif" font-size="10.00">voogaMenuBar</text>
</a>
</g>
</g>
<!-- dir_e9fd843ab1a57cd7b696ebe011a14ce1 -->
<g id="node10" class="node"><title>dir_e9fd843ab1a57cd7b696ebe011a14ce1</title>
<g id="a_node10"><a xlink:href="dir_e9fd843ab1a57cd7b696ebe011a14ce1.html" target="_top" xlink:title="welcome">
<polygon fill="white" stroke="black" points="83.25,-60 24.75,-60 24.75,-24 83.25,-24 83.25,-60"/>
<text text-anchor="middle" x="54" y="-39.5" font-family="Helvetica,sans-Serif" font-size="10.00">welcome</text>
</a>
</g>
</g>
</g>
</svg>
