<?xml version="1.0" encoding="UTF-8" standalone="no"?>
<!DOCTYPE svg PUBLIC "-//W3C//DTD SVG 1.1//EN"
 "http://www.w3.org/Graphics/SVG/1.1/DTD/svg11.dtd">
<!-- Generated by graphviz version 2.36.0 (20140111.2315)
 -->
<!-- Title: /tmp/git/duke&#45;compsci308&#45;fall2014/voogasalad_LosTorres/repository/src/gameAuthoring Pages: 1 -->
<svg width="314pt" height="111pt"
 viewBox="0.00 0.00 314.00 111.00" xmlns="http://www.w3.org/2000/svg" xmlns:xlink="http://www.w3.org/1999/xlink">
<g id="graph0" class="graph" transform="scale(1 1) rotate(0) translate(4 107)">
<title>/tmp/git/duke&#45;compsci308&#45;fall2014/voogasalad_LosTorres/repository/src/gameAuthoring</title>
<polygon fill="white" stroke="none" points="-4,4 -4,-107 310,-107 310,4 -4,4"/>
<g id="clust1" class="cluster"><title>clusterdir_cbeb6ba8b7266040292c13b71bdcddf3</title>
<g id="a_clust1"><a xlink:href="dir_cbeb6ba8b7266040292c13b71bdcddf3.html" target="_top" xlink:title="src">
<polygon fill="#ddddee" stroke="black" points="8,-8 8,-95 298,-95 298,-8 8,-8"/>
<text text-anchor="middle" x="153" y="-83" font-family="Helvetica,sans-Serif" font-size="10.00">src</text>
</a>
</g>
</g>
<g id="clust2" class="cluster"><title>clusterdir_fd0b0cb03e348c770a906aa56bbeebc3</title>
<g id="a_clust2"><a xlink:href="dir_fd0b0cb03e348c770a906aa56bbeebc3.html" target="_top">
<polygon fill="#eeeeff" stroke="black" points="16,-16 16,-68 290,-68 290,-16 16,-16"/>
</a>
</g>
</g>
<!-- dir_fd0b0cb03e348c770a906aa56bbeebc3 -->
<g id="node1" class="node"><title>dir_fd0b0cb03e348c770a906aa56bbeebc3</title>
<text text-anchor="middle" x="236" y="-39.5" font-family="Helvetica,sans-Serif" font-size="10.00">gameAuthoring</text>
</g>
<!-- dir_6bb8a21c48e67bdfb93357826fa8e60e -->
<g id="node2" class="node"><title>dir_6bb8a21c48e67bdfb93357826fa8e60e</title>
<g id="a_node2"><a xlink:href="dir_6bb8a21c48e67bdfb93357826fa8e60e.html" target="_top" xlink:title="mainclasses">
<polygon fill="white" stroke="red" points="172,-60 96,-60 96,-24 172,-24 172,-60"/>
<text text-anchor="middle" x="134" y="-39.5" font-family="Helvetica,sans-Serif" font-size="10.00">mainclasses</text>
</a>
</g>
</g>
<!-- dir_60b91055328ae48f3e401b59ecd5ff12 -->
<g id="node3" class="node"><title>dir_60b91055328ae48f3e401b59ecd5ff12</title>
<g id="a_node3"><a xlink:href="dir_60b91055328ae48f3e401b59ecd5ff12.html" target="_top" xlink:title="scenes">
<polygon fill="white" stroke="red" points="78,-60 24,-60 24,-24 78,-24 78,-60"/>
<text text-anchor="middle" x="51" y="-39.5" font-family="Helvetica,sans-Serif" font-size="10.00">scenes</text>
</a>
</g>
</g>
</g>
</svg>
