<?xml version="1.0" encoding="UTF-8" standalone="no"?>
<!DOCTYPE svg PUBLIC "-//W3C//DTD SVG 1.1//EN"
 "http://www.w3.org/Graphics/SVG/1.1/DTD/svg11.dtd">
<!-- Generated by graphviz version 2.36.0 (20140111.2315)
 -->
<!-- Title: Graphical Class Hierarchy Pages: 1 -->
<svg width="522pt" height="123pt"
 viewBox="0.00 0.00 522.00 123.00" xmlns="http://www.w3.org/2000/svg" xmlns:xlink="http://www.w3.org/1999/xlink">
<g id="graph0" class="graph" transform="scale(1 1) rotate(0) translate(4 119)">
<title>Graphical Class Hierarchy</title>
<polygon fill="white" stroke="none" points="-4,4 -4,-119 518,-119 518,4 -4,4"/>
<!-- Node1 -->
<g id="node1" class="node"><title>Node1</title>
<polygon fill="white" stroke="#bfbfbf" points="0.5,-29.5 0.5,-48.5 43.5,-48.5 43.5,-29.5 0.5,-29.5"/>
<text text-anchor="middle" x="22" y="-36.5" font-family="Helvetica,sans-Serif" font-size="10.00">Circle</text>
</g>
<!-- Node2 -->
<g id="node2" class="node"><title>Node2</title>
<g id="a_node2"><a xlink:href="d3/d91/classgame_authoring_1_1scenes_1_1path_building_1_1enemy_locations_1_1_path_location.html" target="_top" xlink:title="gameAuthoring.scenes.path\lBuilding.enemyLocations.PathLocation">
<polygon fill="white" stroke="black" points="80,-49 80,-79 280,-79 280,-49 80,-49"/>
<text text-anchor="start" x="88" y="-67" font-family="Helvetica,sans-Serif" font-size="10.00">gameAuthoring.scenes.path</text>
<text text-anchor="middle" x="180" y="-56" font-family="Helvetica,sans-Serif" font-size="10.00">Building.enemyLocations.PathLocation</text>
</a>
</g>
</g>
<!-- Node1&#45;&gt;Node2 -->
<g id="edge1" class="edge"><title>Node1&#45;&gt;Node2</title>
<path fill="none" stroke="midnightblue" d="M53.6265,-43.9081C63.0059,-45.4112 73.8565,-47.1501 85.171,-48.9633"/>
<polygon fill="midnightblue" stroke="midnightblue" points="54.1435,-40.4464 43.7156,-42.3198 53.0357,-47.3582 54.1435,-40.4464"/>
</g>
<!-- Node5 -->
<g id="node5" class="node"><title>Node5</title>
<g id="a_node5"><a xlink:href="d0/d3d/classgame_player_1_1gui_items_1_1tower_upgrade_1_1_tower_indicator.html" target="_top" xlink:title="gamePlayer.guiItems.tower\lUpgrade.TowerIndicator">
<polygon fill="white" stroke="black" points="107,-0 107,-30 253,-30 253,-0 107,-0"/>
<text text-anchor="start" x="115" y="-18" font-family="Helvetica,sans-Serif" font-size="10.00">gamePlayer.guiItems.tower</text>
<text text-anchor="middle" x="180" y="-7" font-family="Helvetica,sans-Serif" font-size="10.00">Upgrade.TowerIndicator</text>
</a>
</g>
</g>
<!-- Node1&#45;&gt;Node5 -->
<g id="edge4" class="edge"><title>Node1&#45;&gt;Node5</title>
<path fill="none" stroke="midnightblue" d="M53.6332,-34.2872C68.9403,-31.9323 88.1644,-28.9747 106.928,-26.088"/>
<polygon fill="midnightblue" stroke="midnightblue" points="53.0671,-30.833 43.7156,-35.813 54.1315,-37.7516 53.0671,-30.833"/>
</g>
<!-- Node3 -->
<g id="node3" class="node"><title>Node3</title>
<g id="a_node3"><a xlink:href="d0/d86/classgame_authoring_1_1scenes_1_1path_building_1_1enemy_locations_1_1_path_ending_location.html" target="_top" xlink:title="gameAuthoring.scenes.path\lBuilding.enemyLocations.PathEnding\lLocation">
<polygon fill="white" stroke="black" points="319,-73.5 319,-114.5 511,-114.5 511,-73.5 319,-73.5"/>
<text text-anchor="start" x="327" y="-102.5" font-family="Helvetica,sans-Serif" font-size="10.00">gameAuthoring.scenes.path</text>
<text text-anchor="start" x="327" y="-91.5" font-family="Helvetica,sans-Serif" font-size="10.00">Building.enemyLocations.PathEnding</text>
<text text-anchor="middle" x="415" y="-80.5" font-family="Helvetica,sans-Serif" font-size="10.00">Location</text>
</a>
</g>
</g>
<!-- Node2&#45;&gt;Node3 -->
<g id="edge2" class="edge"><title>Node2&#45;&gt;Node3</title>
<path fill="none" stroke="midnightblue" d="M290.365,-78.0814C299.812,-79.2977 309.322,-80.5222 318.645,-81.7225"/>
<polygon fill="midnightblue" stroke="midnightblue" points="290.516,-74.572 280.151,-76.7662 289.622,-81.5146 290.516,-74.572"/>
</g>
<!-- Node4 -->
<g id="node4" class="node"><title>Node4</title>
<g id="a_node4"><a xlink:href="d8/db0/classgame_authoring_1_1scenes_1_1path_building_1_1enemy_locations_1_1_path_starting_location.html" target="_top" xlink:title="gameAuthoring.scenes.path\lBuilding.enemyLocations.PathStarting\lLocation">
<polygon fill="white" stroke="black" points="316,-13.5 316,-54.5 514,-54.5 514,-13.5 316,-13.5"/>
<text text-anchor="start" x="324" y="-42.5" font-family="Helvetica,sans-Serif" font-size="10.00">gameAuthoring.scenes.path</text>
<text text-anchor="start" x="324" y="-31.5" font-family="Helvetica,sans-Serif" font-size="10.00">Building.enemyLocations.PathStarting</text>
<text text-anchor="middle" x="415" y="-20.5" font-family="Helvetica,sans-Serif" font-size="10.00">Location</text>
</a>
</g>
</g>
<!-- Node2&#45;&gt;Node4 -->
<g id="edge3" class="edge"><title>Node2&#45;&gt;Node4</title>
<path fill="none" stroke="midnightblue" d="M290.125,-49.9495C298.652,-48.8516 307.232,-47.7469 315.681,-46.6591"/>
<polygon fill="midnightblue" stroke="midnightblue" points="289.622,-46.4854 280.151,-51.2338 290.516,-53.428 289.622,-46.4854"/>
</g>
</g>
</svg>
