<?xml version="1.0" encoding="UTF-8" standalone="no"?>
<!DOCTYPE svg PUBLIC "-//W3C//DTD SVG 1.1//EN"
 "http://www.w3.org/Graphics/SVG/1.1/DTD/svg11.dtd">
<!-- Generated by graphviz version 2.36.0 (20140111.2315)
 -->
<!-- Title: Graphical Class Hierarchy Pages: 1 -->
<svg width="764pt" height="773pt"
 viewBox="0.00 0.00 764.00 773.00" xmlns="http://www.w3.org/2000/svg" xmlns:xlink="http://www.w3.org/1999/xlink">
<g id="graph0" class="graph" transform="scale(1 1) rotate(0) translate(4 769)">
<title>Graphical Class Hierarchy</title>
<polygon fill="white" stroke="none" points="-4,4 -4,-769 760,-769 760,4 -4,4"/>
<!-- Node1 -->
<g id="node1" class="node"><title>Node1</title>
<g id="a_node1"><a xlink:href="dd/d43/interfacegame_engine_1_1actors_1_1behaviors_1_1_i_behavior.html" target="_top" xlink:title="gameEngine.actors.behaviors.\lIBehavior">
<polygon fill="white" stroke="black" points="0,-294 0,-324 162,-324 162,-294 0,-294"/>
<text text-anchor="start" x="8" y="-312" font-family="Helvetica,sans-Serif" font-size="10.00">gameEngine.actors.behaviors.</text>
<text text-anchor="middle" x="81" y="-301" font-family="Helvetica,sans-Serif" font-size="10.00">IBehavior</text>
</a>
</g>
</g>
<!-- Node2 -->
<g id="node2" class="node"><title>Node2</title>
<g id="a_node2"><a xlink:href="dd/d7b/classgame_engine_1_1actors_1_1behaviors_1_1_base_attack.html" target="_top" xlink:title="gameEngine.actors.behaviors.\lBaseAttack">
<polygon fill="white" stroke="black" points="198,-637 198,-667 360,-667 360,-637 198,-637"/>
<text text-anchor="start" x="206" y="-655" font-family="Helvetica,sans-Serif" font-size="10.00">gameEngine.actors.behaviors.</text>
<text text-anchor="middle" x="279" y="-644" font-family="Helvetica,sans-Serif" font-size="10.00">BaseAttack</text>
</a>
</g>
</g>
<!-- Node1&#45;&gt;Node2 -->
<g id="edge1" class="edge"><title>Node1&#45;&gt;Node2</title>
<path fill="none" stroke="midnightblue" d="M93.9539,-333.411C114.243,-374.43 157.2,-459.516 198,-529 221.346,-568.76 251.671,-613.783 267.435,-636.752"/>
<polygon fill="midnightblue" stroke="midnightblue" points="96.9725,-331.619 89.4115,-324.197 90.694,-334.714 96.9725,-331.619"/>
</g>
<!-- Node10 -->
<g id="node10" class="node"><title>Node10</title>
<g id="a_node10"><a xlink:href="de/dcd/classgame_engine_1_1actors_1_1behaviors_1_1_base_defend_behavior.html" target="_top" xlink:title="gameEngine.actors.behaviors.\lBaseDefendBehavior">
<polygon fill="white" stroke="black" points="198,-490 198,-520 360,-520 360,-490 198,-490"/>
<text text-anchor="start" x="206" y="-508" font-family="Helvetica,sans-Serif" font-size="10.00">gameEngine.actors.behaviors.</text>
<text text-anchor="middle" x="279" y="-497" font-family="Helvetica,sans-Serif" font-size="10.00">BaseDefendBehavior</text>
</a>
</g>
</g>
<!-- Node1&#45;&gt;Node10 -->
<g id="edge9" class="edge"><title>Node1&#45;&gt;Node10</title>
<path fill="none" stroke="midnightblue" d="M104.528,-331.528C144.921,-371.921 228.642,-455.642 262.894,-489.894"/>
<polygon fill="midnightblue" stroke="midnightblue" points="106.6,-328.651 97.0543,-324.054 101.651,-333.6 106.6,-328.651"/>
</g>
<!-- Node13 -->
<g id="node13" class="node"><title>Node13</title>
<g id="a_node13"><a xlink:href="d3/dd6/classgame_engine_1_1actors_1_1behaviors_1_1_base_effect.html" target="_top" xlink:title="gameEngine.actors.behaviors.\lBaseEffect">
<polygon fill="white" stroke="black" points="198,-294 198,-324 360,-324 360,-294 198,-294"/>
<text text-anchor="start" x="206" y="-312" font-family="Helvetica,sans-Serif" font-size="10.00">gameEngine.actors.behaviors.</text>
<text text-anchor="middle" x="279" y="-301" font-family="Helvetica,sans-Serif" font-size="10.00">BaseEffect</text>
</a>
</g>
</g>
<!-- Node1&#45;&gt;Node13 -->
<g id="edge12" class="edge"><title>Node1&#45;&gt;Node13</title>
<path fill="none" stroke="midnightblue" d="M172.077,-309C180.703,-309 189.413,-309 197.935,-309"/>
<polygon fill="midnightblue" stroke="midnightblue" points="172.003,-305.5 162.003,-309 172.003,-312.5 172.003,-305.5"/>
</g>
<!-- Node21 -->
<g id="node21" class="node"><title>Node21</title>
<g id="a_node21"><a xlink:href="de/d4a/classgame_engine_1_1actors_1_1behaviors_1_1_base_movement_behavior.html" target="_top" xlink:title="gameEngine.actors.behaviors.\lBaseMovementBehavior">
<polygon fill="white" stroke="black" points="198,-98 198,-128 360,-128 360,-98 198,-98"/>
<text text-anchor="start" x="206" y="-116" font-family="Helvetica,sans-Serif" font-size="10.00">gameEngine.actors.behaviors.</text>
<text text-anchor="middle" x="279" y="-105" font-family="Helvetica,sans-Serif" font-size="10.00">BaseMovementBehavior</text>
</a>
</g>
</g>
<!-- Node1&#45;&gt;Node21 -->
<g id="edge20" class="edge"><title>Node1&#45;&gt;Node21</title>
<path fill="none" stroke="midnightblue" d="M104.528,-286.472C144.921,-246.079 228.642,-162.358 262.894,-128.106"/>
<polygon fill="midnightblue" stroke="midnightblue" points="101.651,-284.4 97.0543,-293.946 106.6,-289.349 101.651,-284.4"/>
</g>
<!-- Node25 -->
<g id="node25" class="node"><title>Node25</title>
<g id="a_node25"><a xlink:href="d3/d3c/classgame_engine_1_1actors_1_1behaviors_1_1_null_behavior.html" target="_top" xlink:title="gameEngine.actors.behaviors.\lNullBehavior">
<polygon fill="white" stroke="black" points="198,-49 198,-79 360,-79 360,-49 198,-49"/>
<text text-anchor="start" x="206" y="-67" font-family="Helvetica,sans-Serif" font-size="10.00">gameEngine.actors.behaviors.</text>
<text text-anchor="middle" x="279" y="-56" font-family="Helvetica,sans-Serif" font-size="10.00">NullBehavior</text>
</a>
</g>
</g>
<!-- Node1&#45;&gt;Node25 -->
<g id="edge24" class="edge"><title>Node1&#45;&gt;Node25</title>
<path fill="none" stroke="midnightblue" d="M88.1717,-284.09C100.799,-238.343 133.946,-140.807 198,-88 202.14,-84.5872 206.754,-81.6595 211.619,-79.1481"/>
<polygon fill="midnightblue" stroke="midnightblue" points="84.7793,-283.228 85.5896,-293.792 91.5439,-285.028 84.7793,-283.228"/>
</g>
<!-- Node3 -->
<g id="node3" class="node"><title>Node3</title>
<g id="a_node3"><a xlink:href="db/d9e/classgame_engine_1_1actors_1_1behaviors_1_1_ao_e_attack.html" target="_top" xlink:title="gameEngine.actors.behaviors.\lAoEAttack">
<polygon fill="white" stroke="black" points="396,-735 396,-765 558,-765 558,-735 396,-735"/>
<text text-anchor="start" x="404" y="-753" font-family="Helvetica,sans-Serif" font-size="10.00">gameEngine.actors.behaviors.</text>
<text text-anchor="middle" x="477" y="-742" font-family="Helvetica,sans-Serif" font-size="10.00">AoEAttack</text>
</a>
</g>
</g>
<!-- Node2&#45;&gt;Node3 -->
<g id="edge2" class="edge"><title>Node2&#45;&gt;Node3</title>
<path fill="none" stroke="midnightblue" d="M308.645,-672.98C331.425,-688.92 364.58,-710.503 396,-725 403.928,-728.658 412.534,-731.974 421.065,-734.908"/>
<polygon fill="midnightblue" stroke="midnightblue" points="310.631,-670.097 300.448,-667.173 306.585,-675.809 310.631,-670.097"/>
</g>
<!-- Node4 -->
<g id="node4" class="node"><title>Node4</title>
<g id="a_node4"><a xlink:href="da/d28/classgame_engine_1_1actors_1_1behaviors_1_1_melee_attack.html" target="_top" xlink:title="gameEngine.actors.behaviors.\lMeleeAttack">
<polygon fill="white" stroke="black" points="396,-686 396,-716 558,-716 558,-686 396,-686"/>
<text text-anchor="start" x="404" y="-704" font-family="Helvetica,sans-Serif" font-size="10.00">gameEngine.actors.behaviors.</text>
<text text-anchor="middle" x="477" y="-693" font-family="Helvetica,sans-Serif" font-size="10.00">MeleeAttack</text>
</a>
</g>
</g>
<!-- Node2&#45;&gt;Node4 -->
<g id="edge3" class="edge"><title>Node2&#45;&gt;Node4</title>
<path fill="none" stroke="midnightblue" d="M349.907,-669.477C371.51,-674.877 395.102,-680.776 415.975,-685.994"/>
<polygon fill="midnightblue" stroke="midnightblue" points="350.689,-666.065 340.138,-667.035 348.991,-672.856 350.689,-666.065"/>
</g>
<!-- Node5 -->
<g id="node5" class="node"><title>Node5</title>
<g id="a_node5"><a xlink:href="d3/d97/classgame_engine_1_1actors_1_1behaviors_1_1_null_attack.html" target="_top" xlink:title="gameEngine.actors.behaviors.\lNullAttack">
<polygon fill="white" stroke="black" points="396,-637 396,-667 558,-667 558,-637 396,-637"/>
<text text-anchor="start" x="404" y="-655" font-family="Helvetica,sans-Serif" font-size="10.00">gameEngine.actors.behaviors.</text>
<text text-anchor="middle" x="477" y="-644" font-family="Helvetica,sans-Serif" font-size="10.00">NullAttack</text>
</a>
</g>
</g>
<!-- Node2&#45;&gt;Node5 -->
<g id="edge4" class="edge"><title>Node2&#45;&gt;Node5</title>
<path fill="none" stroke="midnightblue" d="M370.077,-652C378.703,-652 387.413,-652 395.935,-652"/>
<polygon fill="midnightblue" stroke="midnightblue" points="370.003,-648.5 360.003,-652 370.003,-655.5 370.003,-648.5"/>
</g>
<!-- Node6 -->
<g id="node6" class="node"><title>Node6</title>
<g id="a_node6"><a xlink:href="d9/d41/classgame_engine_1_1actors_1_1behaviors_1_1_range_attack.html" target="_top" xlink:title="gameEngine.actors.behaviors.\lRangeAttack">
<polygon fill="white" stroke="black" points="396,-588 396,-618 558,-618 558,-588 396,-588"/>
<text text-anchor="start" x="404" y="-606" font-family="Helvetica,sans-Serif" font-size="10.00">gameEngine.actors.behaviors.</text>
<text text-anchor="middle" x="477" y="-595" font-family="Helvetica,sans-Serif" font-size="10.00">RangeAttack</text>
</a>
</g>
</g>
<!-- Node2&#45;&gt;Node6 -->
<g id="edge5" class="edge"><title>Node2&#45;&gt;Node6</title>
<path fill="none" stroke="midnightblue" d="M349.907,-634.523C371.51,-629.123 395.102,-623.224 415.975,-618.006"/>
<polygon fill="midnightblue" stroke="midnightblue" points="348.991,-631.144 340.138,-636.965 350.689,-637.935 348.991,-631.144"/>
</g>
<!-- Node7 -->
<g id="node7" class="node"><title>Node7</title>
<g id="a_node7"><a xlink:href="dc/d78/classgame_engine_1_1actors_1_1behaviors_1_1_closest_range_attack.html" target="_top" xlink:title="gameEngine.actors.behaviors.\lClosestRangeAttack">
<polygon fill="white" stroke="black" points="594,-637 594,-667 756,-667 756,-637 594,-637"/>
<text text-anchor="start" x="602" y="-655" font-family="Helvetica,sans-Serif" font-size="10.00">gameEngine.actors.behaviors.</text>
<text text-anchor="middle" x="675" y="-644" font-family="Helvetica,sans-Serif" font-size="10.00">ClosestRangeAttack</text>
</a>
</g>
</g>
<!-- Node6&#45;&gt;Node7 -->
<g id="edge6" class="edge"><title>Node6&#45;&gt;Node7</title>
<path fill="none" stroke="midnightblue" d="M547.907,-620.477C569.51,-625.877 593.102,-631.776 613.975,-636.994"/>
<polygon fill="midnightblue" stroke="midnightblue" points="548.689,-617.065 538.138,-618.035 546.991,-623.856 548.689,-617.065"/>
</g>
<!-- Node8 -->
<g id="node8" class="node"><title>Node8</title>
<g id="a_node8"><a xlink:href="d6/db4/classgame_engine_1_1actors_1_1behaviors_1_1_farthest_range_attack.html" target="_top" xlink:title="gameEngine.actors.behaviors.\lFarthestRangeAttack">
<polygon fill="white" stroke="black" points="594,-588 594,-618 756,-618 756,-588 594,-588"/>
<text text-anchor="start" x="602" y="-606" font-family="Helvetica,sans-Serif" font-size="10.00">gameEngine.actors.behaviors.</text>
<text text-anchor="middle" x="675" y="-595" font-family="Helvetica,sans-Serif" font-size="10.00">FarthestRangeAttack</text>
</a>
</g>
</g>
<!-- Node6&#45;&gt;Node8 -->
<g id="edge7" class="edge"><title>Node6&#45;&gt;Node8</title>
<path fill="none" stroke="midnightblue" d="M568.077,-603C576.703,-603 585.413,-603 593.935,-603"/>
<polygon fill="midnightblue" stroke="midnightblue" points="568.003,-599.5 558.003,-603 568.003,-606.5 568.003,-599.5"/>
</g>
<!-- Node9 -->
<g id="node9" class="node"><title>Node9</title>
<g id="a_node9"><a xlink:href="da/d49/classgame_engine_1_1actors_1_1behaviors_1_1_strongest_range_attack.html" target="_top" xlink:title="gameEngine.actors.behaviors.\lStrongestRangeAttack">
<polygon fill="white" stroke="black" points="594,-539 594,-569 756,-569 756,-539 594,-539"/>
<text text-anchor="start" x="602" y="-557" font-family="Helvetica,sans-Serif" font-size="10.00">gameEngine.actors.behaviors.</text>
<text text-anchor="middle" x="675" y="-546" font-family="Helvetica,sans-Serif" font-size="10.00">StrongestRangeAttack</text>
</a>
</g>
</g>
<!-- Node6&#45;&gt;Node9 -->
<g id="edge8" class="edge"><title>Node6&#45;&gt;Node9</title>
<path fill="none" stroke="midnightblue" d="M547.907,-585.523C569.51,-580.123 593.102,-574.224 613.975,-569.006"/>
<polygon fill="midnightblue" stroke="midnightblue" points="546.991,-582.144 538.138,-587.965 548.689,-588.935 546.991,-582.144"/>
</g>
<!-- Node11 -->
<g id="node11" class="node"><title>Node11</title>
<g id="a_node11"><a xlink:href="d2/d9a/classgame_engine_1_1actors_1_1behaviors_1_1_piercable_defense.html" target="_top" xlink:title="gameEngine.actors.behaviors.\lPiercableDefense">
<polygon fill="white" stroke="black" points="396,-539 396,-569 558,-569 558,-539 396,-539"/>
<text text-anchor="start" x="404" y="-557" font-family="Helvetica,sans-Serif" font-size="10.00">gameEngine.actors.behaviors.</text>
<text text-anchor="middle" x="477" y="-546" font-family="Helvetica,sans-Serif" font-size="10.00">PiercableDefense</text>
</a>
</g>
</g>
<!-- Node10&#45;&gt;Node11 -->
<g id="edge10" class="edge"><title>Node10&#45;&gt;Node11</title>
<path fill="none" stroke="midnightblue" d="M349.907,-522.477C371.51,-527.877 395.102,-533.776 415.975,-538.994"/>
<polygon fill="midnightblue" stroke="midnightblue" points="350.689,-519.065 340.138,-520.035 348.991,-525.856 350.689,-519.065"/>
</g>
<!-- Node12 -->
<g id="node12" class="node"><title>Node12</title>
<g id="a_node12"><a xlink:href="df/d0a/classgame_engine_1_1actors_1_1behaviors_1_1_simple_defense.html" target="_top" xlink:title="gameEngine.actors.behaviors.\lSimpleDefense">
<polygon fill="white" stroke="black" points="396,-490 396,-520 558,-520 558,-490 396,-490"/>
<text text-anchor="start" x="404" y="-508" font-family="Helvetica,sans-Serif" font-size="10.00">gameEngine.actors.behaviors.</text>
<text text-anchor="middle" x="477" y="-497" font-family="Helvetica,sans-Serif" font-size="10.00">SimpleDefense</text>
</a>
</g>
</g>
<!-- Node10&#45;&gt;Node12 -->
<g id="edge11" class="edge"><title>Node10&#45;&gt;Node12</title>
<path fill="none" stroke="midnightblue" d="M370.077,-505C378.703,-505 387.413,-505 395.935,-505"/>
<polygon fill="midnightblue" stroke="midnightblue" points="370.003,-501.5 360.003,-505 370.003,-508.5 370.003,-501.5"/>
</g>
<!-- Node14 -->
<g id="node14" class="node"><title>Node14</title>
<g id="a_node14"><a xlink:href="dc/d40/classgame_engine_1_1actors_1_1behaviors_1_1_ao_e_effect.html" target="_top" xlink:title="gameEngine.actors.behaviors.\lAoEEffect">
<polygon fill="white" stroke="black" points="396,-441 396,-471 558,-471 558,-441 396,-441"/>
<text text-anchor="start" x="404" y="-459" font-family="Helvetica,sans-Serif" font-size="10.00">gameEngine.actors.behaviors.</text>
<text text-anchor="middle" x="477" y="-448" font-family="Helvetica,sans-Serif" font-size="10.00">AoEEffect</text>
</a>
</g>
</g>
<!-- Node13&#45;&gt;Node14 -->
<g id="edge13" class="edge"><title>Node13&#45;&gt;Node14</title>
<path fill="none" stroke="midnightblue" d="M296.326,-332.339C316.663,-359.752 353.907,-404.801 396,-431 402.177,-434.845 408.993,-438.141 415.962,-440.957"/>
<polygon fill="midnightblue" stroke="midnightblue" points="299.047,-330.13 290.332,-324.105 293.387,-334.25 299.047,-330.13"/>
</g>
<!-- Node15 -->
<g id="node15" class="node"><title>Node15</title>
<g id="a_node15"><a xlink:href="dc/d58/classgame_engine_1_1actors_1_1behaviors_1_1_do_t_on_hit.html" target="_top" xlink:title="gameEngine.actors.behaviors.\lDoTOnHit">
<polygon fill="white" stroke="black" points="396,-392 396,-422 558,-422 558,-392 396,-392"/>
<text text-anchor="start" x="404" y="-410" font-family="Helvetica,sans-Serif" font-size="10.00">gameEngine.actors.behaviors.</text>
<text text-anchor="middle" x="477" y="-399" font-family="Helvetica,sans-Serif" font-size="10.00">DoTOnHit</text>
</a>
</g>
</g>
<!-- Node13&#45;&gt;Node15 -->
<g id="edge14" class="edge"><title>Node13&#45;&gt;Node15</title>
<path fill="none" stroke="midnightblue" d="M308.645,-329.98C331.425,-345.92 364.58,-367.503 396,-382 403.928,-385.658 412.534,-388.974 421.065,-391.908"/>
<polygon fill="midnightblue" stroke="midnightblue" points="310.631,-327.097 300.448,-324.173 306.585,-332.809 310.631,-327.097"/>
</g>
<!-- Node16 -->
<g id="node16" class="node"><title>Node16</title>
<g id="a_node16"><a xlink:href="d9/df0/classgame_engine_1_1actors_1_1behaviors_1_1_earth_quake_effect.html" target="_top" xlink:title="gameEngine.actors.behaviors.\lEarthQuakeEffect">
<polygon fill="white" stroke="black" points="396,-343 396,-373 558,-373 558,-343 396,-343"/>
<text text-anchor="start" x="404" y="-361" font-family="Helvetica,sans-Serif" font-size="10.00">gameEngine.actors.behaviors.</text>
<text text-anchor="middle" x="477" y="-350" font-family="Helvetica,sans-Serif" font-size="10.00">EarthQuakeEffect</text>
</a>
</g>
</g>
<!-- Node13&#45;&gt;Node16 -->
<g id="edge15" class="edge"><title>Node13&#45;&gt;Node16</title>
<path fill="none" stroke="midnightblue" d="M349.907,-326.477C371.51,-331.877 395.102,-337.776 415.975,-342.994"/>
<polygon fill="midnightblue" stroke="midnightblue" points="350.689,-323.065 340.138,-324.035 348.991,-329.856 350.689,-323.065"/>
</g>
<!-- Node17 -->
<g id="node17" class="node"><title>Node17</title>
<g id="a_node17"><a xlink:href="de/dd5/classgame_engine_1_1actors_1_1behaviors_1_1_gold_gen_effect.html" target="_top" xlink:title="gameEngine.actors.behaviors.\lGoldGenEffect">
<polygon fill="white" stroke="black" points="396,-294 396,-324 558,-324 558,-294 396,-294"/>
<text text-anchor="start" x="404" y="-312" font-family="Helvetica,sans-Serif" font-size="10.00">gameEngine.actors.behaviors.</text>
<text text-anchor="middle" x="477" y="-301" font-family="Helvetica,sans-Serif" font-size="10.00">GoldGenEffect</text>
</a>
</g>
</g>
<!-- Node13&#45;&gt;Node17 -->
<g id="edge16" class="edge"><title>Node13&#45;&gt;Node17</title>
<path fill="none" stroke="midnightblue" d="M370.077,-309C378.703,-309 387.413,-309 395.935,-309"/>
<polygon fill="midnightblue" stroke="midnightblue" points="370.003,-305.5 360.003,-309 370.003,-312.5 370.003,-305.5"/>
</g>
<!-- Node18 -->
<g id="node18" class="node"><title>Node18</title>
<g id="a_node18"><a xlink:href="dc/d28/classgame_engine_1_1actors_1_1behaviors_1_1_heal_effect.html" target="_top" xlink:title="gameEngine.actors.behaviors.\lHealEffect">
<polygon fill="white" stroke="black" points="396,-245 396,-275 558,-275 558,-245 396,-245"/>
<text text-anchor="start" x="404" y="-263" font-family="Helvetica,sans-Serif" font-size="10.00">gameEngine.actors.behaviors.</text>
<text text-anchor="middle" x="477" y="-252" font-family="Helvetica,sans-Serif" font-size="10.00">HealEffect</text>
</a>
</g>
</g>
<!-- Node13&#45;&gt;Node18 -->
<g id="edge17" class="edge"><title>Node13&#45;&gt;Node18</title>
<path fill="none" stroke="midnightblue" d="M349.907,-291.523C371.51,-286.123 395.102,-280.224 415.975,-275.006"/>
<polygon fill="midnightblue" stroke="midnightblue" points="348.991,-288.144 340.138,-293.965 350.689,-294.935 348.991,-288.144"/>
</g>
<!-- Node19 -->
<g id="node19" class="node"><title>Node19</title>
<g id="a_node19"><a xlink:href="d6/dc5/classgame_engine_1_1actors_1_1behaviors_1_1_slow_effect.html" target="_top" xlink:title="gameEngine.actors.behaviors.\lSlowEffect">
<polygon fill="white" stroke="black" points="396,-196 396,-226 558,-226 558,-196 396,-196"/>
<text text-anchor="start" x="404" y="-214" font-family="Helvetica,sans-Serif" font-size="10.00">gameEngine.actors.behaviors.</text>
<text text-anchor="middle" x="477" y="-203" font-family="Helvetica,sans-Serif" font-size="10.00">SlowEffect</text>
</a>
</g>
</g>
<!-- Node13&#45;&gt;Node19 -->
<g id="edge18" class="edge"><title>Node13&#45;&gt;Node19</title>
<path fill="none" stroke="midnightblue" d="M308.14,-287.903C330.882,-271.647 364.227,-249.558 396,-235 403.25,-231.678 411.078,-228.675 418.9,-226.009"/>
<polygon fill="midnightblue" stroke="midnightblue" points="306.016,-285.12 299.969,-293.82 310.121,-290.79 306.016,-285.12"/>
</g>
<!-- Node20 -->
<g id="node20" class="node"><title>Node20</title>
<g id="a_node20"><a xlink:href="d3/df0/classgame_engine_1_1actors_1_1behaviors_1_1_tower_range_effect.html" target="_top" xlink:title="gameEngine.actors.behaviors.\lTowerRangeEffect">
<polygon fill="white" stroke="black" points="396,-147 396,-177 558,-177 558,-147 396,-147"/>
<text text-anchor="start" x="404" y="-165" font-family="Helvetica,sans-Serif" font-size="10.00">gameEngine.actors.behaviors.</text>
<text text-anchor="middle" x="477" y="-154" font-family="Helvetica,sans-Serif" font-size="10.00">TowerRangeEffect</text>
</a>
</g>
</g>
<!-- Node13&#45;&gt;Node20 -->
<g id="edge19" class="edge"><title>Node13&#45;&gt;Node20</title>
<path fill="none" stroke="midnightblue" d="M296.231,-285.382C316.476,-257.659 353.629,-212.157 396,-186 401.552,-182.572 407.625,-179.608 413.863,-177.05"/>
<polygon fill="midnightblue" stroke="midnightblue" points="293.243,-283.543 290.266,-293.711 298.934,-287.618 293.243,-283.543"/>
</g>
<!-- Node22 -->
<g id="node22" class="node"><title>Node22</title>
<g id="a_node22"><a xlink:href="d6/d0e/classgame_engine_1_1actors_1_1behaviors_1_1_a_i_movement.html" target="_top" xlink:title="gameEngine.actors.behaviors.\lAIMovement">
<polygon fill="white" stroke="black" points="396,-98 396,-128 558,-128 558,-98 396,-98"/>
<text text-anchor="start" x="404" y="-116" font-family="Helvetica,sans-Serif" font-size="10.00">gameEngine.actors.behaviors.</text>
<text text-anchor="middle" x="477" y="-105" font-family="Helvetica,sans-Serif" font-size="10.00">AIMovement</text>
</a>
</g>
</g>
<!-- Node21&#45;&gt;Node22 -->
<g id="edge21" class="edge"><title>Node21&#45;&gt;Node22</title>
<path fill="none" stroke="midnightblue" d="M370.077,-113C378.703,-113 387.413,-113 395.935,-113"/>
<polygon fill="midnightblue" stroke="midnightblue" points="370.003,-109.5 360.003,-113 370.003,-116.5 370.003,-109.5"/>
</g>
<!-- Node23 -->
<g id="node23" class="node"><title>Node23</title>
<g id="a_node23"><a xlink:href="d6/d0d/classgame_engine_1_1actors_1_1behaviors_1_1_enemy_homing_movement.html" target="_top" xlink:title="gameEngine.actors.behaviors.\lEnemyHomingMovement">
<polygon fill="white" stroke="black" points="396,-49 396,-79 558,-79 558,-49 396,-49"/>
<text text-anchor="start" x="404" y="-67" font-family="Helvetica,sans-Serif" font-size="10.00">gameEngine.actors.behaviors.</text>
<text text-anchor="middle" x="477" y="-56" font-family="Helvetica,sans-Serif" font-size="10.00">EnemyHomingMovement</text>
</a>
</g>
</g>
<!-- Node21&#45;&gt;Node23 -->
<g id="edge22" class="edge"><title>Node21&#45;&gt;Node23</title>
<path fill="none" stroke="midnightblue" d="M349.907,-95.5232C371.51,-90.1225 395.102,-84.2245 415.975,-79.0062"/>
<polygon fill="midnightblue" stroke="midnightblue" points="348.991,-92.1445 340.138,-97.9654 350.689,-98.9355 348.991,-92.1445"/>
</g>
<!-- Node24 -->
<g id="node24" class="node"><title>Node24</title>
<g id="a_node24"><a xlink:href="da/d56/classgame_engine_1_1actors_1_1behaviors_1_1_linear_movement.html" target="_top" xlink:title="gameEngine.actors.behaviors.\lLinearMovement">
<polygon fill="white" stroke="black" points="396,-0 396,-30 558,-30 558,-0 396,-0"/>
<text text-anchor="start" x="404" y="-18" font-family="Helvetica,sans-Serif" font-size="10.00">gameEngine.actors.behaviors.</text>
<text text-anchor="middle" x="477" y="-7" font-family="Helvetica,sans-Serif" font-size="10.00">LinearMovement</text>
</a>
</g>
</g>
<!-- Node21&#45;&gt;Node24 -->
<g id="edge23" class="edge"><title>Node21&#45;&gt;Node24</title>
<path fill="none" stroke="midnightblue" d="M351.41,-93.4019C354.396,-91.7417 357.276,-89.9447 360,-88 381.993,-72.2978 373.917,-54.5762 396,-39 400.858,-35.5732 406.212,-32.6285 411.779,-30.0993"/>
<polygon fill="midnightblue" stroke="midnightblue" points="349.582,-90.4014 342.182,-97.983 352.695,-96.6713 349.582,-90.4014"/>
</g>
</g>
</svg>
