<?xml version="1.0" encoding="UTF-8" standalone="no"?>
<!DOCTYPE svg PUBLIC "-//W3C//DTD SVG 1.1//EN"
 "http://www.w3.org/Graphics/SVG/1.1/DTD/svg11.dtd">
<!-- Generated by graphviz version 2.36.0 (20140111.2315)
 -->
<!-- Title: Graphical Class Hierarchy Pages: 1 -->
<svg width="320pt" height="38pt"
 viewBox="0.00 0.00 320.00 38.00" xmlns="http://www.w3.org/2000/svg" xmlns:xlink="http://www.w3.org/1999/xlink">
<g id="graph0" class="graph" transform="scale(1 1) rotate(0) translate(4 34)">
<title>Graphical Class Hierarchy</title>
<polygon fill="white" stroke="none" points="-4,4 -4,-34 316,-34 316,4 -4,4"/>
<!-- Node1 -->
<g id="node1" class="node"><title>Node1</title>
<g id="a_node1"><a xlink:href="d5/de4/classutilities_1_1pathfinding_1_1_a_star_path_finder.html" target="_top" xlink:title="utilities.pathfinding.AStar\lPathFinder\&lt; TestNode \&gt;">
<polygon fill="white" stroke="black" points="0.5,-0 0.5,-30 137.5,-30 137.5,-0 0.5,-0"/>
<text text-anchor="start" x="8.5" y="-18" font-family="Helvetica,sans-Serif" font-size="10.00">utilities.pathfinding.AStar</text>
<text text-anchor="middle" x="69" y="-7" font-family="Helvetica,sans-Serif" font-size="10.00">PathFinder&lt; TestNode &gt;</text>
</a>
</g>
</g>
<!-- Node2 -->
<g id="node2" class="node"><title>Node2</title>
<g id="a_node2"><a xlink:href="d7/d66/classutilities_1_1pathfinding_1_1_a_star_test_1_1_test_a_star_finder.html" target="_top" xlink:title="utilities.pathfinding.AStar\lTest.TestAStarFinder">
<polygon fill="white" stroke="black" points="174.5,-0 174.5,-30 311.5,-30 311.5,-0 174.5,-0"/>
<text text-anchor="start" x="182.5" y="-18" font-family="Helvetica,sans-Serif" font-size="10.00">utilities.pathfinding.AStar</text>
<text text-anchor="middle" x="243" y="-7" font-family="Helvetica,sans-Serif" font-size="10.00">Test.TestAStarFinder</text>
</a>
</g>
</g>
<!-- Node1&#45;&gt;Node2 -->
<g id="edge1" class="edge"><title>Node1&#45;&gt;Node2</title>
<path fill="none" stroke="midnightblue" d="M148.134,-15C156.846,-15 165.666,-15 174.233,-15"/>
<polygon fill="midnightblue" stroke="midnightblue" points="147.979,-11.5001 137.979,-15 147.979,-18.5001 147.979,-11.5001"/>
</g>
</g>
</svg>
