<?xml version="1.0" encoding="UTF-8" standalone="no"?>
<!DOCTYPE svg PUBLIC "-//W3C//DTD SVG 1.1//EN"
 "http://www.w3.org/Graphics/SVG/1.1/DTD/svg11.dtd">
<!-- Generated by graphviz version 2.36.0 (20140111.2315)
 -->
<!-- Title: Graphical Class Hierarchy Pages: 1 -->
<svg width="400pt" height="430pt"
 viewBox="0.00 0.00 400.00 430.00" xmlns="http://www.w3.org/2000/svg" xmlns:xlink="http://www.w3.org/1999/xlink">
<g id="graph0" class="graph" transform="scale(1 1) rotate(0) translate(4 426)">
<title>Graphical Class Hierarchy</title>
<polygon fill="white" stroke="none" points="-4,4 -4,-426 396,-426 396,4 -4,4"/>
<!-- Node1 -->
<g id="node1" class="node"><title>Node1</title>
<g id="a_node1"><a xlink:href="da/df4/interfacegame_player_1_1gui_items_listeners_1_1_game_world_listener.html" target="_top" xlink:title="gamePlayer.guiItemsListeners.\lGameWorldListener">
<polygon fill="white" stroke="black" points="0,-392 0,-422 164,-422 164,-392 0,-392"/>
<text text-anchor="start" x="8" y="-410" font-family="Helvetica,sans-Serif" font-size="10.00">gamePlayer.guiItemsListeners.</text>
<text text-anchor="middle" x="82" y="-399" font-family="Helvetica,sans-Serif" font-size="10.00">GameWorldListener</text>
</a>
</g>
</g>
<!-- Node2 -->
<g id="node2" class="node"><title>Node2</title>
<g id="a_node2"><a xlink:href="da/d69/classgame_player_1_1main_classes_1_1managers_1_1_gui_manager.html" target="_top" xlink:title="gamePlayer.mainClasses.managers.\lGuiManager">
<polygon fill="white" stroke="black" points="200.5,-196 200.5,-226 391.5,-226 391.5,-196 200.5,-196"/>
<text text-anchor="start" x="208.5" y="-214" font-family="Helvetica,sans-Serif" font-size="10.00">gamePlayer.mainClasses.managers.</text>
<text text-anchor="middle" x="296" y="-203" font-family="Helvetica,sans-Serif" font-size="10.00">GuiManager</text>
</a>
</g>
</g>
<!-- Node1&#45;&gt;Node2 -->
<g id="edge1" class="edge"><title>Node1&#45;&gt;Node2</title>
<path fill="none" stroke="midnightblue" d="M154.968,-387.53C158.106,-385.834 161.135,-383.995 164,-382 225.229,-339.368 270.583,-259.333 287.621,-226.082"/>
<polygon fill="midnightblue" stroke="midnightblue" points="153.347,-384.426 145.878,-391.941 156.403,-390.724 153.347,-384.426"/>
</g>
<!-- Node3 -->
<g id="node3" class="node"><title>Node3</title>
<g id="a_node3"><a xlink:href="d0/d8b/interfacegame_player_1_1gui_items_listeners_1_1_h_u_d_listener.html" target="_top" xlink:title="gamePlayer.guiItemsListeners.\lHUDListener">
<polygon fill="white" stroke="black" points="0,-343 0,-373 164,-373 164,-343 0,-343"/>
<text text-anchor="start" x="8" y="-361" font-family="Helvetica,sans-Serif" font-size="10.00">gamePlayer.guiItemsListeners.</text>
<text text-anchor="middle" x="82" y="-350" font-family="Helvetica,sans-Serif" font-size="10.00">HUDListener</text>
</a>
</g>
</g>
<!-- Node3&#45;&gt;Node2 -->
<g id="edge2" class="edge"><title>Node3&#45;&gt;Node2</title>
<path fill="none" stroke="midnightblue" d="M151.963,-339.132C156.124,-337.256 160.171,-335.216 164,-333 214.57,-303.736 261.515,-251.658 282.886,-226.056"/>
<polygon fill="midnightblue" stroke="midnightblue" points="150.603,-335.906 142.713,-342.978 153.291,-342.37 150.603,-335.906"/>
</g>
<!-- Node4 -->
<g id="node4" class="node"><title>Node4</title>
<g id="a_node4"><a xlink:href="d4/d7e/interfacegame_player_1_1gui_items_listeners_1_1_message_display_listener.html" target="_top" xlink:title="gamePlayer.guiItemsListeners.\lMessageDisplayListener">
<polygon fill="white" stroke="black" points="0,-294 0,-324 164,-324 164,-294 0,-294"/>
<text text-anchor="start" x="8" y="-312" font-family="Helvetica,sans-Serif" font-size="10.00">gamePlayer.guiItemsListeners.</text>
<text text-anchor="middle" x="82" y="-301" font-family="Helvetica,sans-Serif" font-size="10.00">MessageDisplayListener</text>
</a>
</g>
</g>
<!-- Node4&#45;&gt;Node2 -->
<g id="edge3" class="edge"><title>Node4&#45;&gt;Node2</title>
<path fill="none" stroke="midnightblue" d="M147.246,-290.538C152.968,-288.483 158.625,-286.297 164,-284 203.263,-267.22 245.983,-241.98 271.617,-226.006"/>
<polygon fill="midnightblue" stroke="midnightblue" points="145.905,-287.298 137.593,-293.867 148.188,-293.915 145.905,-287.298"/>
</g>
<!-- Node5 -->
<g id="node5" class="node"><title>Node5</title>
<g id="a_node5"><a xlink:href="d5/de0/interfacegame_player_1_1gui_items_listeners_1_1_play_button_listener.html" target="_top" xlink:title="gamePlayer.guiItemsListeners.\lPlayButtonListener">
<polygon fill="white" stroke="black" points="0,-245 0,-275 164,-275 164,-245 0,-245"/>
<text text-anchor="start" x="8" y="-263" font-family="Helvetica,sans-Serif" font-size="10.00">gamePlayer.guiItemsListeners.</text>
<text text-anchor="middle" x="82" y="-252" font-family="Helvetica,sans-Serif" font-size="10.00">PlayButtonListener</text>
</a>
</g>
</g>
<!-- Node5&#45;&gt;Node2 -->
<g id="edge4" class="edge"><title>Node5&#45;&gt;Node2</title>
<path fill="none" stroke="midnightblue" d="M157.983,-242.669C181.52,-237.229 207.295,-231.271 230.075,-226.006"/>
<polygon fill="midnightblue" stroke="midnightblue" points="157.003,-239.303 148.048,-244.965 158.579,-246.123 157.003,-239.303"/>
</g>
<!-- Node6 -->
<g id="node6" class="node"><title>Node6</title>
<g id="a_node6"><a xlink:href="dc/da5/interfacegame_player_1_1gui_items_listeners_1_1_speed_button_listener.html" target="_top" xlink:title="gamePlayer.guiItemsListeners.\lSpeedButtonListener">
<polygon fill="white" stroke="black" points="0,-196 0,-226 164,-226 164,-196 0,-196"/>
<text text-anchor="start" x="8" y="-214" font-family="Helvetica,sans-Serif" font-size="10.00">gamePlayer.guiItemsListeners.</text>
<text text-anchor="middle" x="82" y="-203" font-family="Helvetica,sans-Serif" font-size="10.00">SpeedButtonListener</text>
</a>
</g>
</g>
<!-- Node6&#45;&gt;Node2 -->
<g id="edge5" class="edge"><title>Node6&#45;&gt;Node2</title>
<path fill="none" stroke="midnightblue" d="M174.107,-211C182.733,-211 191.494,-211 200.155,-211"/>
<polygon fill="midnightblue" stroke="midnightblue" points="174.056,-207.5 164.056,-211 174.056,-214.5 174.056,-207.5"/>
</g>
<!-- Node7 -->
<g id="node7" class="node"><title>Node7</title>
<g id="a_node7"><a xlink:href="d4/d68/interfacegame_player_1_1gui_items_listeners_1_1_speed_slider_listener.html" target="_top" xlink:title="gamePlayer.guiItemsListeners.\lSpeedSliderListener">
<polygon fill="white" stroke="black" points="0,-147 0,-177 164,-177 164,-147 0,-147"/>
<text text-anchor="start" x="8" y="-165" font-family="Helvetica,sans-Serif" font-size="10.00">gamePlayer.guiItemsListeners.</text>
<text text-anchor="middle" x="82" y="-154" font-family="Helvetica,sans-Serif" font-size="10.00">SpeedSliderListener</text>
</a>
</g>
</g>
<!-- Node7&#45;&gt;Node2 -->
<g id="edge6" class="edge"><title>Node7&#45;&gt;Node2</title>
<path fill="none" stroke="midnightblue" d="M157.983,-179.331C181.52,-184.771 207.295,-190.729 230.075,-195.994"/>
<polygon fill="midnightblue" stroke="midnightblue" points="158.579,-175.877 148.048,-177.035 157.003,-182.697 158.579,-175.877"/>
</g>
<!-- Node8 -->
<g id="node8" class="node"><title>Node8</title>
<g id="a_node8"><a xlink:href="d4/db7/interfacegame_player_1_1gui_items_listeners_1_1_store_listener.html" target="_top" xlink:title="gamePlayer.guiItemsListeners.\lStoreListener">
<polygon fill="white" stroke="black" points="0,-98 0,-128 164,-128 164,-98 0,-98"/>
<text text-anchor="start" x="8" y="-116" font-family="Helvetica,sans-Serif" font-size="10.00">gamePlayer.guiItemsListeners.</text>
<text text-anchor="middle" x="82" y="-105" font-family="Helvetica,sans-Serif" font-size="10.00">StoreListener</text>
</a>
</g>
</g>
<!-- Node8&#45;&gt;Node2 -->
<g id="edge7" class="edge"><title>Node8&#45;&gt;Node2</title>
<path fill="none" stroke="midnightblue" d="M147.246,-131.462C152.968,-133.517 158.625,-135.703 164,-138 203.263,-154.78 245.983,-180.02 271.617,-195.994"/>
<polygon fill="midnightblue" stroke="midnightblue" points="148.188,-128.085 137.593,-128.133 145.905,-134.702 148.188,-128.085"/>
</g>
<!-- Node9 -->
<g id="node9" class="node"><title>Node9</title>
<g id="a_node9"><a xlink:href="d8/dbf/interfacegame_player_1_1gui_items_listeners_1_1_upgrade_listener.html" target="_top" xlink:title="gamePlayer.guiItemsListeners.\lUpgradeListener">
<polygon fill="white" stroke="black" points="0,-49 0,-79 164,-79 164,-49 0,-49"/>
<text text-anchor="start" x="8" y="-67" font-family="Helvetica,sans-Serif" font-size="10.00">gamePlayer.guiItemsListeners.</text>
<text text-anchor="middle" x="82" y="-56" font-family="Helvetica,sans-Serif" font-size="10.00">UpgradeListener</text>
</a>
</g>
</g>
<!-- Node9&#45;&gt;Node2 -->
<g id="edge8" class="edge"><title>Node9&#45;&gt;Node2</title>
<path fill="none" stroke="midnightblue" d="M151.963,-82.8684C156.124,-84.7437 160.171,-86.784 164,-89 214.57,-118.264 261.515,-170.342 282.886,-195.944"/>
<polygon fill="midnightblue" stroke="midnightblue" points="153.291,-79.6299 142.713,-79.0224 150.603,-86.0935 153.291,-79.6299"/>
</g>
<!-- Node10 -->
<g id="node10" class="node"><title>Node10</title>
<g id="a_node10"><a xlink:href="dc/d5f/interfacegame_player_1_1gui_items_listeners_1_1_vooga_menu_bar_listener.html" target="_top" xlink:title="gamePlayer.guiItemsListeners.\lVoogaMenuBarListener">
<polygon fill="white" stroke="black" points="0,-0 0,-30 164,-30 164,-0 0,-0"/>
<text text-anchor="start" x="8" y="-18" font-family="Helvetica,sans-Serif" font-size="10.00">gamePlayer.guiItemsListeners.</text>
<text text-anchor="middle" x="82" y="-7" font-family="Helvetica,sans-Serif" font-size="10.00">VoogaMenuBarListener</text>
</a>
</g>
</g>
<!-- Node10&#45;&gt;Node2 -->
<g id="edge9" class="edge"><title>Node10&#45;&gt;Node2</title>
<path fill="none" stroke="midnightblue" d="M154.968,-34.4695C158.106,-36.1658 161.135,-38.0054 164,-40 225.229,-82.6322 270.583,-162.667 287.621,-195.918"/>
<polygon fill="midnightblue" stroke="midnightblue" points="156.403,-31.2759 145.878,-30.0593 153.347,-37.5737 156.403,-31.2759"/>
</g>
</g>
</svg>
