<?xml version="1.0" encoding="UTF-8" standalone="no"?>
<!DOCTYPE svg PUBLIC "-//W3C//DTD SVG 1.1//EN"
 "http://www.w3.org/Graphics/SVG/1.1/DTD/svg11.dtd">
<!-- Generated by graphviz version 2.36.0 (20140111.2315)
 -->
<!-- Title: Graphical Class Hierarchy Pages: 1 -->
<svg width="514pt" height="126pt"
 viewBox="0.00 0.00 514.00 126.00" xmlns="http://www.w3.org/2000/svg" xmlns:xlink="http://www.w3.org/1999/xlink">
<g id="graph0" class="graph" transform="scale(1 1) rotate(0) translate(4 122)">
<title>Graphical Class Hierarchy</title>
<polygon fill="white" stroke="none" points="-4,4 -4,-122 510,-122 510,4 -4,4"/>
<!-- Node1 -->
<g id="node1" class="node"><title>Node1</title>
<g id="a_node1"><a xlink:href="d3/d9c/interfaceutilities_1_1pathfinding_1_1_i_path_finder.html" target="_top" xlink:title="utilities.pathfinding.IPath\lFinder\&lt; T \&gt;">
<polygon fill="white" stroke="black" points="0.5,-49 0.5,-79 133.5,-79 133.5,-49 0.5,-49"/>
<text text-anchor="start" x="8.5" y="-67" font-family="Helvetica,sans-Serif" font-size="10.00">utilities.pathfinding.IPath</text>
<text text-anchor="middle" x="67" y="-56" font-family="Helvetica,sans-Serif" font-size="10.00">Finder&lt; T &gt;</text>
</a>
</g>
</g>
<!-- Node2 -->
<g id="node2" class="node"><title>Node2</title>
<g id="a_node2"><a xlink:href="d5/de4/classutilities_1_1pathfinding_1_1_a_star_path_finder.html" target="_top" xlink:title="utilities.pathfinding.AStar\lPathFinder\&lt; T \&gt;">
<polygon fill="white" stroke="black" points="170.5,-49 170.5,-79 307.5,-79 307.5,-49 170.5,-49"/>
<text text-anchor="start" x="178.5" y="-67" font-family="Helvetica,sans-Serif" font-size="10.00">utilities.pathfinding.AStar</text>
<text text-anchor="middle" x="239" y="-56" font-family="Helvetica,sans-Serif" font-size="10.00">PathFinder&lt; T &gt;</text>
</a>
</g>
</g>
<!-- Node1&#45;&gt;Node2 -->
<g id="edge1" class="edge"><title>Node1&#45;&gt;Node2</title>
<path fill="none" stroke="midnightblue" d="M144.002,-64C152.827,-64 161.782,-64 170.482,-64"/>
<polygon fill="midnightblue" stroke="midnightblue" points="143.726,-60.5001 133.726,-64 143.726,-67.5001 143.726,-60.5001"/>
</g>
<!-- Node3 -->
<g id="node3" class="node"><title>Node3</title>
<g id="a_node3"><a xlink:href="d1/d5b/classgame_engine_1_1_a_i_1_1_grid_path_finder.html" target="_top" xlink:title="gameEngine.AI.GridPathFinder">
<polygon fill="white" stroke="black" points="344.5,-98.5 344.5,-117.5 505.5,-117.5 505.5,-98.5 344.5,-98.5"/>
<text text-anchor="middle" x="425" y="-105.5" font-family="Helvetica,sans-Serif" font-size="10.00">gameEngine.AI.GridPathFinder</text>
</a>
</g>
</g>
<!-- Node2&#45;&gt;Node3 -->
<g id="edge2" class="edge"><title>Node2&#45;&gt;Node3</title>
<path fill="none" stroke="midnightblue" d="M312.748,-81.3964C337.104,-87.2206 363.344,-93.4954 384.221,-98.4876"/>
<polygon fill="midnightblue" stroke="midnightblue" points="313.348,-77.941 302.808,-79.0192 311.719,-84.7491 313.348,-77.941"/>
</g>
<!-- Node4 -->
<g id="node4" class="node"><title>Node4</title>
<g id="a_node4"><a xlink:href="df/dc7/classutilities_1_1pathfinding_1_1example_1_1_linked_node_a_star_finder.html" target="_top" xlink:title="utilities.pathfinding.example.\lLinkedNodeAStarFinder">
<polygon fill="white" stroke="black" points="348,-49 348,-79 502,-79 502,-49 348,-49"/>
<text text-anchor="start" x="356" y="-67" font-family="Helvetica,sans-Serif" font-size="10.00">utilities.pathfinding.example.</text>
<text text-anchor="middle" x="425" y="-56" font-family="Helvetica,sans-Serif" font-size="10.00">LinkedNodeAStarFinder</text>
</a>
</g>
</g>
<!-- Node2&#45;&gt;Node4 -->
<g id="edge3" class="edge"><title>Node2&#45;&gt;Node4</title>
<path fill="none" stroke="midnightblue" d="M317.916,-64C327.785,-64 337.875,-64 347.718,-64"/>
<polygon fill="midnightblue" stroke="midnightblue" points="317.731,-60.5001 307.731,-64 317.731,-67.5001 317.731,-60.5001"/>
</g>
<!-- Node5 -->
<g id="node5" class="node"><title>Node5</title>
<g id="a_node5"><a xlink:href="de/d82/classutilities_1_1pathfinding_1_1example_1_1_unlinked_node_a_star_finder.html" target="_top" xlink:title="utilities.pathfinding.example.\lUnlinkedNodeAStarFinder">
<polygon fill="white" stroke="black" points="348,-0 348,-30 502,-30 502,-0 348,-0"/>
<text text-anchor="start" x="356" y="-18" font-family="Helvetica,sans-Serif" font-size="10.00">utilities.pathfinding.example.</text>
<text text-anchor="middle" x="425" y="-7" font-family="Helvetica,sans-Serif" font-size="10.00">UnlinkedNodeAStarFinder</text>
</a>
</g>
</g>
<!-- Node2&#45;&gt;Node5 -->
<g id="edge4" class="edge"><title>Node2&#45;&gt;Node5</title>
<path fill="none" stroke="midnightblue" d="M306.176,-46.3771C326.306,-41.0163 348.232,-35.1775 367.65,-30.0062"/>
<polygon fill="midnightblue" stroke="midnightblue" points="305.219,-43.0098 296.457,-48.9654 307.02,-49.7741 305.219,-43.0098"/>
</g>
</g>
</svg>
