<?xml version="1.0" encoding="UTF-8" standalone="no"?>
<!DOCTYPE svg PUBLIC "-//W3C//DTD SVG 1.1//EN"
 "http://www.w3.org/Graphics/SVG/1.1/DTD/svg11.dtd">
<!-- Generated by graphviz version 2.36.0 (20140111.2315)
 -->
<!-- Title: Graphical Class Hierarchy Pages: 1 -->
<svg width="534pt" height="283pt"
 viewBox="0.00 0.00 534.00 283.00" xmlns="http://www.w3.org/2000/svg" xmlns:xlink="http://www.w3.org/1999/xlink">
<g id="graph0" class="graph" transform="scale(1 1) rotate(0) translate(4 279)">
<title>Graphical Class Hierarchy</title>
<polygon fill="white" stroke="none" points="-4,4 -4,-279 530,-279 530,4 -4,4"/>
<!-- Node1 -->
<g id="node1" class="node"><title>Node1</title>
<polygon fill="white" stroke="#bfbfbf" points="0.5,-127.5 0.5,-146.5 65.5,-146.5 65.5,-127.5 0.5,-127.5"/>
<text text-anchor="middle" x="33" y="-134.5" font-family="Helvetica,sans-Serif" font-size="10.00">MenuItem</text>
</g>
<!-- Node2 -->
<g id="node2" class="node"><title>Node2</title>
<g id="a_node2"><a xlink:href="d2/dbe/classgame_player_1_1gui_items_1_1vooga_menu_bar_1_1_vooga_menu_item.html" target="_top" xlink:title="gamePlayer.guiItems.vooga\lMenuBar.VoogaMenuItem">
<polygon fill="white" stroke="black" points="102.5,-122 102.5,-152 251.5,-152 251.5,-122 102.5,-122"/>
<text text-anchor="start" x="110.5" y="-140" font-family="Helvetica,sans-Serif" font-size="10.00">gamePlayer.guiItems.vooga</text>
<text text-anchor="middle" x="177" y="-129" font-family="Helvetica,sans-Serif" font-size="10.00">MenuBar.VoogaMenuItem</text>
</a>
</g>
</g>
<!-- Node1&#45;&gt;Node2 -->
<g id="edge1" class="edge"><title>Node1&#45;&gt;Node2</title>
<path fill="none" stroke="midnightblue" d="M75.7856,-137C84.2114,-137 93.302,-137 102.449,-137"/>
<polygon fill="midnightblue" stroke="midnightblue" points="75.5144,-133.5 65.5144,-137 75.5144,-140.5 75.5144,-133.5"/>
</g>
<!-- Node3 -->
<g id="node3" class="node"><title>Node3</title>
<g id="a_node3"><a xlink:href="d0/de6/classgame_player_1_1gui_items_1_1vooga_menu_bar_1_1menu_items_1_1_change_theme_menu_item.html" target="_top" xlink:title="gamePlayer.guiItems.vooga\lMenuBar.menuItems.ChangeThemeMenuItem">
<polygon fill="white" stroke="black" points="288.5,-245 288.5,-275 525.5,-275 525.5,-245 288.5,-245"/>
<text text-anchor="start" x="296.5" y="-263" font-family="Helvetica,sans-Serif" font-size="10.00">gamePlayer.guiItems.vooga</text>
<text text-anchor="middle" x="407" y="-252" font-family="Helvetica,sans-Serif" font-size="10.00">MenuBar.menuItems.ChangeThemeMenuItem</text>
</a>
</g>
</g>
<!-- Node2&#45;&gt;Node3 -->
<g id="edge2" class="edge"><title>Node2&#45;&gt;Node3</title>
<path fill="none" stroke="midnightblue" d="M197.28,-160.083C217.511,-182.734 251.411,-216.493 288,-235 295.661,-238.875 303.896,-242.15 312.322,-244.918"/>
<polygon fill="midnightblue" stroke="midnightblue" points="199.683,-157.514 190.466,-152.289 194.413,-162.121 199.683,-157.514"/>
</g>
<!-- Node4 -->
<g id="node4" class="node"><title>Node4</title>
<g id="a_node4"><a xlink:href="d1/d9d/classgame_player_1_1gui_items_1_1vooga_menu_bar_1_1menu_items_1_1_game_selection_item.html" target="_top" xlink:title="gamePlayer.guiItems.vooga\lMenuBar.menuItems.GameSelectionItem">
<polygon fill="white" stroke="black" points="299.5,-196 299.5,-226 514.5,-226 514.5,-196 299.5,-196"/>
<text text-anchor="start" x="307.5" y="-214" font-family="Helvetica,sans-Serif" font-size="10.00">gamePlayer.guiItems.vooga</text>
<text text-anchor="middle" x="407" y="-203" font-family="Helvetica,sans-Serif" font-size="10.00">MenuBar.menuItems.GameSelectionItem</text>
</a>
</g>
</g>
<!-- Node2&#45;&gt;Node4 -->
<g id="edge3" class="edge"><title>Node2&#45;&gt;Node4</title>
<path fill="none" stroke="midnightblue" d="M216.345,-156.471C237.133,-166.411 263.514,-178.05 288,-186 299.552,-189.75 311.927,-193.085 324.158,-195.999"/>
<polygon fill="midnightblue" stroke="midnightblue" points="217.74,-153.257 207.215,-152.043 214.685,-159.556 217.74,-153.257"/>
</g>
<!-- Node5 -->
<g id="node5" class="node"><title>Node5</title>
<g id="a_node5"><a xlink:href="dc/dc0/classgame_player_1_1gui_items_1_1vooga_menu_bar_1_1menu_items_1_1_load_menu_item.html" target="_top" xlink:title="gamePlayer.guiItems.vooga\lMenuBar.menuItems.LoadMenuItem">
<polygon fill="white" stroke="black" points="311.5,-147 311.5,-177 502.5,-177 502.5,-147 311.5,-147"/>
<text text-anchor="start" x="319.5" y="-165" font-family="Helvetica,sans-Serif" font-size="10.00">gamePlayer.guiItems.vooga</text>
<text text-anchor="middle" x="407" y="-154" font-family="Helvetica,sans-Serif" font-size="10.00">MenuBar.menuItems.LoadMenuItem</text>
</a>
</g>
</g>
<!-- Node2&#45;&gt;Node5 -->
<g id="edge4" class="edge"><title>Node2&#45;&gt;Node5</title>
<path fill="none" stroke="midnightblue" d="M262.101,-146.222C278.121,-147.978 294.989,-149.828 311.313,-151.618"/>
<polygon fill="midnightblue" stroke="midnightblue" points="262.032,-142.693 251.71,-145.082 261.269,-149.651 262.032,-142.693"/>
</g>
<!-- Node6 -->
<g id="node6" class="node"><title>Node6</title>
<g id="a_node6"><a xlink:href="db/da0/classgame_player_1_1gui_items_1_1vooga_menu_bar_1_1menu_items_1_1_replay_menu_item.html" target="_top" xlink:title="gamePlayer.guiItems.vooga\lMenuBar.menuItems.ReplayMenuItem">
<polygon fill="white" stroke="black" points="308,-98 308,-128 506,-128 506,-98 308,-98"/>
<text text-anchor="start" x="316" y="-116" font-family="Helvetica,sans-Serif" font-size="10.00">gamePlayer.guiItems.vooga</text>
<text text-anchor="middle" x="407" y="-105" font-family="Helvetica,sans-Serif" font-size="10.00">MenuBar.menuItems.ReplayMenuItem</text>
</a>
</g>
</g>
<!-- Node2&#45;&gt;Node6 -->
<g id="edge5" class="edge"><title>Node2&#45;&gt;Node6</title>
<path fill="none" stroke="midnightblue" d="M261.882,-128.17C276.764,-126.604 292.384,-124.96 307.624,-123.355"/>
<polygon fill="midnightblue" stroke="midnightblue" points="261.289,-124.713 251.71,-129.241 262.022,-131.675 261.289,-124.713"/>
</g>
<!-- Node7 -->
<g id="node7" class="node"><title>Node7</title>
<g id="a_node7"><a xlink:href="d1/dd3/classgame_player_1_1gui_items_1_1vooga_menu_bar_1_1menu_items_1_1_save_menu_item.html" target="_top" xlink:title="gamePlayer.guiItems.vooga\lMenuBar.menuItems.SaveMenuItem">
<polygon fill="white" stroke="black" points="311.5,-49 311.5,-79 502.5,-79 502.5,-49 311.5,-49"/>
<text text-anchor="start" x="319.5" y="-67" font-family="Helvetica,sans-Serif" font-size="10.00">gamePlayer.guiItems.vooga</text>
<text text-anchor="middle" x="407" y="-56" font-family="Helvetica,sans-Serif" font-size="10.00">MenuBar.menuItems.SaveMenuItem</text>
</a>
</g>
</g>
<!-- Node2&#45;&gt;Node7 -->
<g id="edge6" class="edge"><title>Node2&#45;&gt;Node7</title>
<path fill="none" stroke="midnightblue" d="M217.269,-117.549C237.93,-107.913 263.91,-96.7197 288,-89 299.666,-85.2616 312.162,-81.9262 324.5,-79.005"/>
<polygon fill="midnightblue" stroke="midnightblue" points="215.721,-114.409 208.177,-121.848 218.714,-120.737 215.721,-114.409"/>
</g>
<!-- Node8 -->
<g id="node8" class="node"><title>Node8</title>
<g id="a_node8"><a xlink:href="d5/de9/classgame_player_1_1gui_items_1_1vooga_menu_bar_1_1menu_items_1_1_switch_game_menu_item.html" target="_top" xlink:title="gamePlayer.guiItems.vooga\lMenuBar.menuItems.SwitchGameMenuItem">
<polygon fill="white" stroke="black" points="293.5,-0 293.5,-30 520.5,-30 520.5,-0 293.5,-0"/>
<text text-anchor="start" x="301.5" y="-18" font-family="Helvetica,sans-Serif" font-size="10.00">gamePlayer.guiItems.vooga</text>
<text text-anchor="middle" x="407" y="-7" font-family="Helvetica,sans-Serif" font-size="10.00">MenuBar.menuItems.SwitchGameMenuItem</text>
</a>
</g>
</g>
<!-- Node2&#45;&gt;Node8 -->
<g id="edge7" class="edge"><title>Node2&#45;&gt;Node8</title>
<path fill="none" stroke="midnightblue" d="M197.33,-114.158C217.599,-91.7418 251.529,-58.3304 288,-40 295.765,-36.0974 304.113,-32.803 312.652,-30.0224"/>
<polygon fill="midnightblue" stroke="midnightblue" points="194.509,-112.063 190.501,-121.871 199.75,-116.704 194.509,-112.063"/>
</g>
</g>
</svg>
