<?xml version="1.0" encoding="UTF-8" standalone="no"?>
<!DOCTYPE svg PUBLIC "-//W3C//DTD SVG 1.1//EN"
 "http://www.w3.org/Graphics/SVG/1.1/DTD/svg11.dtd">
<!-- Generated by graphviz version 2.36.0 (20140111.2315)
 -->
<!-- Title: Graphical Class Hierarchy Pages: 1 -->
<svg width="266pt" height="48pt"
 viewBox="0.00 0.00 266.00 48.00" xmlns="http://www.w3.org/2000/svg" xmlns:xlink="http://www.w3.org/1999/xlink">
<g id="graph0" class="graph" transform="scale(1 1) rotate(0) translate(4 44)">
<title>Graphical Class Hierarchy</title>
<polygon fill="white" stroke="none" points="-4,4 -4,-44 262,-44 262,4 -4,4"/>
<!-- Node1 -->
<g id="node1" class="node"><title>Node1</title>
<polygon fill="white" stroke="#bfbfbf" points="0,-10.5 0,-29.5 50,-29.5 50,-10.5 0,-10.5"/>
<text text-anchor="middle" x="25" y="-17.5" font-family="Helvetica,sans-Serif" font-size="10.00">ListCell</text>
</g>
<!-- Node2 -->
<g id="node2" class="node"><title>Node2</title>
<g id="a_node2"><a xlink:href="d3/d0c/classgame_authoring_1_1scenes_1_1actor_building_scenes_1_1actor_list_view_1_1list_view_cells_1_1_enemy_cell.html" target="_top" xlink:title="gameAuthoring.scenes.actor\lBuildingScenes.actorListView.list\lViewCells.EnemyCell">
<polygon fill="white" stroke="black" points="86.5,0.5 86.5,-40.5 257.5,-40.5 257.5,0.5 86.5,0.5"/>
<text text-anchor="start" x="94.5" y="-28.5" font-family="Helvetica,sans-Serif" font-size="10.00">gameAuthoring.scenes.actor</text>
<text text-anchor="start" x="94.5" y="-17.5" font-family="Helvetica,sans-Serif" font-size="10.00">BuildingScenes.actorListView.list</text>
<text text-anchor="middle" x="172" y="-6.5" font-family="Helvetica,sans-Serif" font-size="10.00">ViewCells.EnemyCell</text>
</a>
</g>
</g>
<!-- Node1&#45;&gt;Node2 -->
<g id="edge1" class="edge"><title>Node1&#45;&gt;Node2</title>
<path fill="none" stroke="midnightblue" d="M60.502,-20C68.4299,-20 77.2029,-20 86.2375,-20"/>
<polygon fill="midnightblue" stroke="midnightblue" points="60.2698,-16.5001 50.2697,-20 60.2697,-23.5001 60.2698,-16.5001"/>
</g>
</g>
</svg>
