<?xml version="1.0" encoding="UTF-8" standalone="no"?>
<!DOCTYPE svg PUBLIC "-//W3C//DTD SVG 1.1//EN"
 "http://www.w3.org/Graphics/SVG/1.1/DTD/svg11.dtd">
<!-- Generated by graphviz version 2.36.0 (20140111.2315)
 -->
<!-- Title: Graphical Class Hierarchy Pages: 1 -->
<svg width="380pt" height="87pt"
 viewBox="0.00 0.00 380.00 87.00" xmlns="http://www.w3.org/2000/svg" xmlns:xlink="http://www.w3.org/1999/xlink">
<g id="graph0" class="graph" transform="scale(1 1) rotate(0) translate(4 83)">
<title>Graphical Class Hierarchy</title>
<polygon fill="white" stroke="none" points="-4,4 -4,-83 376,-83 376,4 -4,4"/>
<!-- Node1 -->
<g id="node1" class="node"><title>Node1</title>
<g id="a_node1"><a xlink:href="dc/d8a/classgame_engine_1_1_manager_interface_1_1_update_object.html" target="_top" xlink:title="gameEngine.ManagerInterface.\lUpdateObject">
<polygon fill="white" stroke="black" points="0.5,-24 0.5,-54 167.5,-54 167.5,-24 0.5,-24"/>
<text text-anchor="start" x="8.5" y="-42" font-family="Helvetica,sans-Serif" font-size="10.00">gameEngine.ManagerInterface.</text>
<text text-anchor="middle" x="84" y="-31" font-family="Helvetica,sans-Serif" font-size="10.00">UpdateObject</text>
</a>
</g>
</g>
<!-- Node2 -->
<g id="node2" class="node"><title>Node2</title>
<g id="a_node2"><a xlink:href="d4/d0f/classgame_engine_1_1_manager_interface_1_1_gold_update.html" target="_top" xlink:title="gameEngine.ManagerInterface.\lGoldUpdate">
<polygon fill="white" stroke="black" points="204.5,-49 204.5,-79 371.5,-79 371.5,-49 204.5,-49"/>
<text text-anchor="start" x="212.5" y="-67" font-family="Helvetica,sans-Serif" font-size="10.00">gameEngine.ManagerInterface.</text>
<text text-anchor="middle" x="288" y="-56" font-family="Helvetica,sans-Serif" font-size="10.00">GoldUpdate</text>
</a>
</g>
</g>
<!-- Node1&#45;&gt;Node2 -->
<g id="edge1" class="edge"><title>Node1&#45;&gt;Node2</title>
<path fill="none" stroke="midnightblue" d="M177.731,-50.4766C186.622,-51.577 195.6,-52.6881 204.385,-53.7753"/>
<polygon fill="midnightblue" stroke="midnightblue" points="178.098,-46.9954 167.744,-49.2406 177.238,-53.9424 178.098,-46.9954"/>
</g>
<!-- Node3 -->
<g id="node3" class="node"><title>Node3</title>
<g id="a_node3"><a xlink:href="db/d48/classgame_engine_1_1_manager_interface_1_1_health_update.html" target="_top" xlink:title="gameEngine.ManagerInterface.\lHealthUpdate">
<polygon fill="white" stroke="black" points="204.5,-0 204.5,-30 371.5,-30 371.5,-0 204.5,-0"/>
<text text-anchor="start" x="212.5" y="-18" font-family="Helvetica,sans-Serif" font-size="10.00">gameEngine.ManagerInterface.</text>
<text text-anchor="middle" x="288" y="-7" font-family="Helvetica,sans-Serif" font-size="10.00">HealthUpdate</text>
</a>
</g>
</g>
<!-- Node1&#45;&gt;Node3 -->
<g id="edge2" class="edge"><title>Node1&#45;&gt;Node3</title>
<path fill="none" stroke="midnightblue" d="M177.731,-27.9824C186.622,-26.9261 195.6,-25.8595 204.385,-24.8157"/>
<polygon fill="midnightblue" stroke="midnightblue" points="177.261,-24.5136 167.744,-29.169 178.087,-31.4647 177.261,-24.5136"/>
</g>
</g>
</svg>
