<?xml version="1.0" encoding="UTF-8" standalone="no"?>
<!DOCTYPE svg PUBLIC "-//W3C//DTD SVG 1.1//EN"
 "http://www.w3.org/Graphics/SVG/1.1/DTD/svg11.dtd">
<!-- Generated by graphviz version 2.36.0 (20140111.2315)
 -->
<!-- Title: Graphical Class Hierarchy Pages: 1 -->
<svg width="242pt" height="77pt"
 viewBox="0.00 0.00 242.00 77.00" xmlns="http://www.w3.org/2000/svg" xmlns:xlink="http://www.w3.org/1999/xlink">
<g id="graph0" class="graph" transform="scale(1 1) rotate(0) translate(4 73)">
<title>Graphical Class Hierarchy</title>
<polygon fill="white" stroke="none" points="-4,4 -4,-73 238,-73 238,4 -4,4"/>
<!-- Node1 -->
<g id="node1" class="node"><title>Node1</title>
<polygon fill="white" stroke="#bfbfbf" points="0.5,-27.5 0.5,-46.5 45.5,-46.5 45.5,-27.5 0.5,-27.5"/>
<text text-anchor="middle" x="23" y="-34.5" font-family="Helvetica,sans-Serif" font-size="10.00">Stage</text>
</g>
<!-- Node2 -->
<g id="node2" class="node"><title>Node2</title>
<g id="a_node2"><a xlink:href="d8/d3d/classutilities_1_1chatroom_1_1_chatroom.html" target="_top" xlink:title="utilities.chatroom.Chatroom">
<polygon fill="white" stroke="black" points="82.5,-49.5 82.5,-68.5 233.5,-68.5 233.5,-49.5 82.5,-49.5"/>
<text text-anchor="middle" x="158" y="-56.5" font-family="Helvetica,sans-Serif" font-size="10.00">utilities.chatroom.Chatroom</text>
</a>
</g>
</g>
<!-- Node1&#45;&gt;Node2 -->
<g id="edge1" class="edge"><title>Node1&#45;&gt;Node2</title>
<path fill="none" stroke="midnightblue" d="M55.5989,-42.2269C68.7395,-44.4005 84.4172,-46.9938 99.4703,-49.4838"/>
<polygon fill="midnightblue" stroke="midnightblue" points="56.1019,-38.7626 45.6648,-40.5836 54.9595,-45.6688 56.1019,-38.7626"/>
</g>
<!-- Node3 -->
<g id="node3" class="node"><title>Node3</title>
<g id="a_node3"><a xlink:href="d8/d38/classutilities_1_1error_popup_1_1_error_popup.html" target="_top" xlink:title="utilities.errorPopup.Error\lPopup">
<polygon fill="white" stroke="black" points="91.5,-0 91.5,-30 224.5,-30 224.5,-0 91.5,-0"/>
<text text-anchor="start" x="99.5" y="-18" font-family="Helvetica,sans-Serif" font-size="10.00">utilities.errorPopup.Error</text>
<text text-anchor="middle" x="158" y="-7" font-family="Helvetica,sans-Serif" font-size="10.00">Popup</text>
</a>
</g>
</g>
<!-- Node1&#45;&gt;Node3 -->
<g id="edge2" class="edge"><title>Node1&#45;&gt;Node3</title>
<path fill="none" stroke="midnightblue" d="M55.7933,-31.741C66.5463,-29.9623 78.9814,-27.9053 91.3759,-25.8551"/>
<polygon fill="midnightblue" stroke="midnightblue" points="54.9595,-28.3312 45.6648,-33.4164 56.1019,-35.2374 54.9595,-28.3312"/>
</g>
</g>
</svg>
