<?xml version="1.0" encoding="UTF-8" standalone="no"?>
<!DOCTYPE svg PUBLIC "-//W3C//DTD SVG 1.1//EN"
 "http://www.w3.org/Graphics/SVG/1.1/DTD/svg11.dtd">
<!-- Generated by graphviz version 2.36.0 (20140111.2315)
 -->
<!-- Title: gamePlayer.mainClasses.welcomeScreen.startingOptions.PlayerCountOptions.PlayerCountOptions Pages: 1 -->
<svg width="640pt" height="109pt"
 viewBox="0.00 0.00 640.00 109.00" xmlns="http://www.w3.org/2000/svg" xmlns:xlink="http://www.w3.org/1999/xlink">
<g id="graph0" class="graph" transform="scale(1 1) rotate(0) translate(4 105)">
<title>gamePlayer.mainClasses.welcomeScreen.startingOptions.PlayerCountOptions.PlayerCountOptions</title>
<polygon fill="white" stroke="none" points="-4,4 -4,-105 636,-105 636,4 -4,4"/>
<!-- Node1 -->
<g id="node1" class="node"><title>Node1</title>
<polygon fill="#bfbfbf" stroke="black" points="0,-29.5 0,-70.5 188,-70.5 188,-29.5 0,-29.5"/>
<text text-anchor="start" x="8" y="-58.5" font-family="Helvetica,sans-Serif" font-size="10.00">gamePlayer.mainClasses.welcome</text>
<text text-anchor="start" x="8" y="-47.5" font-family="Helvetica,sans-Serif" font-size="10.00">Screen.startingOptions.PlayerCount</text>
<text text-anchor="middle" x="94" y="-36.5" font-family="Helvetica,sans-Serif" font-size="10.00">Options.PlayerCountOptions</text>
</g>
<!-- Node2 -->
<g id="node2" class="node"><title>Node2</title>
<g id="a_node2"><a xlink:href="../../d9/d88/classgame_player_1_1main_classes_1_1welcome_screen_1_1starting_options_1_1_options.html#a5eab2ede60ae07d567cf1fbed439bec7" target="_top" xlink:title="gamePlayer.mainClasses.welcome\lScreen.startingOptions.Options.create\lOptionButton">
<polygon fill="white" stroke="black" points="224,-59.5 224,-100.5 424,-100.5 424,-59.5 224,-59.5"/>
<text text-anchor="start" x="232" y="-88.5" font-family="Helvetica,sans-Serif" font-size="10.00">gamePlayer.mainClasses.welcome</text>
<text text-anchor="start" x="232" y="-77.5" font-family="Helvetica,sans-Serif" font-size="10.00">Screen.startingOptions.Options.create</text>
<text text-anchor="middle" x="324" y="-66.5" font-family="Helvetica,sans-Serif" font-size="10.00">OptionButton</text>
</a>
</g>
</g>
<!-- Node1&#45;&gt;Node2 -->
<g id="edge1" class="edge"><title>Node1&#45;&gt;Node2</title>
<path fill="none" stroke="midnightblue" d="M188.065,-62.2454C196.561,-63.3633 205.218,-64.5024 213.838,-65.6366"/>
<polygon fill="midnightblue" stroke="midnightblue" points="213.557,-69.1297 223.928,-66.9643 214.471,-62.1895 213.557,-69.1297"/>
</g>
<!-- Node3 -->
<g id="node3" class="node"><title>Node3</title>
<g id="a_node3"><a xlink:href="../../dc/d2e/classutilities_1_1multilanguage_1_1_multi_language_utility.html#a6bc704aa624d0bc11d5f18717ef5842a" target="_top" xlink:title="utilities.multilanguage.\lMultiLanguageUtility.getString\lProperty">
<polygon fill="white" stroke="black" points="244.5,0.5 244.5,-40.5 403.5,-40.5 403.5,0.5 244.5,0.5"/>
<text text-anchor="start" x="252.5" y="-28.5" font-family="Helvetica,sans-Serif" font-size="10.00">utilities.multilanguage.</text>
<text text-anchor="start" x="252.5" y="-17.5" font-family="Helvetica,sans-Serif" font-size="10.00">MultiLanguageUtility.getString</text>
<text text-anchor="middle" x="324" y="-6.5" font-family="Helvetica,sans-Serif" font-size="10.00">Property</text>
</a>
</g>
</g>
<!-- Node1&#45;&gt;Node3 -->
<g id="edge2" class="edge"><title>Node1&#45;&gt;Node3</title>
<path fill="none" stroke="midnightblue" d="M188.065,-37.7546C203.272,-35.7537 218.994,-33.685 234.097,-31.6977"/>
<polygon fill="midnightblue" stroke="midnightblue" points="234.983,-35.1115 244.441,-30.3368 234.069,-28.1713 234.983,-35.1115"/>
</g>
<!-- Node4 -->
<g id="node4" class="node"><title>Node4</title>
<g id="a_node4"><a xlink:href="../../dc/d2e/classutilities_1_1multilanguage_1_1_multi_language_utility.html#a124b4a760f410841ecc50dd4b16e40bb" target="_top" xlink:title="utilities.multilanguage.\lMultiLanguageUtility.getProperty">
<polygon fill="white" stroke="black" points="460.5,-5 460.5,-35 631.5,-35 631.5,-5 460.5,-5"/>
<text text-anchor="start" x="468.5" y="-23" font-family="Helvetica,sans-Serif" font-size="10.00">utilities.multilanguage.</text>
<text text-anchor="middle" x="546" y="-12" font-family="Helvetica,sans-Serif" font-size="10.00">MultiLanguageUtility.getProperty</text>
</a>
</g>
</g>
<!-- Node3&#45;&gt;Node4 -->
<g id="edge3" class="edge"><title>Node3&#45;&gt;Node4</title>
<path fill="none" stroke="midnightblue" d="M403.804,-20C418.873,-20 434.795,-20 450.303,-20"/>
<polygon fill="midnightblue" stroke="midnightblue" points="450.42,-23.5001 460.42,-20 450.42,-16.5001 450.42,-23.5001"/>
</g>
</g>
</svg>
