<?xml version="1.0" encoding="UTF-8" standalone="no"?>
<!DOCTYPE svg PUBLIC "-//W3C//DTD SVG 1.1//EN"
 "http://www.w3.org/Graphics/SVG/1.1/DTD/svg11.dtd">
<!-- Generated by graphviz version 2.36.0 (20140111.2315)
 -->
<!-- Title: utilities.pathfinding.IPathFinder.getCost Pages: 1 -->
<svg width="396pt" height="38pt"
 viewBox="0.00 0.00 396.00 38.00" xmlns="http://www.w3.org/2000/svg" xmlns:xlink="http://www.w3.org/1999/xlink">
<g id="graph0" class="graph" transform="scale(1 1) rotate(0) translate(4 34)">
<title>utilities.pathfinding.IPathFinder.getCost</title>
<polygon fill="white" stroke="none" points="-4,4 -4,-34 392,-34 392,4 -4,4"/>
<!-- Node1 -->
<g id="node1" class="node"><title>Node1</title>
<polygon fill="#bfbfbf" stroke="black" points="0.5,-0 0.5,-30 133.5,-30 133.5,-0 0.5,-0"/>
<text text-anchor="start" x="8.5" y="-18" font-family="Helvetica,sans-Serif" font-size="10.00">utilities.pathfinding.IPath</text>
<text text-anchor="middle" x="67" y="-7" font-family="Helvetica,sans-Serif" font-size="10.00">Finder.getCost</text>
</g>
<!-- Node2 -->
<g id="node2" class="node"><title>Node2</title>
<g id="a_node2"><a xlink:href="../../d5/de4/classutilities_1_1pathfinding_1_1_a_star_path_finder.html#a06263ecf704918b5ed795ece67d8ad37" target="_top" xlink:title="utilities.pathfinding.AStar\lPathFinder\&lt; Point2D \&gt;::getAndCheckCost">
<polygon fill="white" stroke="black" points="170,-0 170,-30 388,-30 388,-0 170,-0"/>
<text text-anchor="start" x="178" y="-18" font-family="Helvetica,sans-Serif" font-size="10.00">utilities.pathfinding.AStar</text>
<text text-anchor="middle" x="279" y="-7" font-family="Helvetica,sans-Serif" font-size="10.00">PathFinder&lt; Point2D &gt;::getAndCheckCost</text>
</a>
</g>
</g>
<!-- Node1&#45;&gt;Node2 -->
<g id="edge1" class="edge"><title>Node1&#45;&gt;Node2</title>
<path fill="none" stroke="midnightblue" d="M143.77,-15C152.249,-15 161.004,-15 169.79,-15"/>
<polygon fill="midnightblue" stroke="midnightblue" points="143.582,-11.5001 133.582,-15 143.581,-18.5001 143.582,-11.5001"/>
</g>
</g>
</svg>
