<?xml version="1.0" encoding="UTF-8" standalone="no"?>
<!DOCTYPE svg PUBLIC "-//W3C//DTD SVG 1.1//EN"
 "http://www.w3.org/Graphics/SVG/1.1/DTD/svg11.dtd">
<!-- Generated by graphviz version 2.36.0 (20140111.2315)
 -->
<!-- Title: gameEngine.Data.TowerInfoObject.getMyUpgrade Pages: 1 -->
<!--zoomable 431 -->
<svg id="main" version="1.1" xmlns="http://www.w3.org/2000/svg" xmlns:xlink="http://www.w3.org/1999/xlink" xml:space="preserve" onload="init(evt)">
<style type="text/css"><![CDATA[
.edge:hover path { stroke: red; }
.edge:hover polygon { stroke: red; fill: red; }
]]></style>
<script type="text/javascript"><![CDATA[
var edges = document.getElementsByTagName('g');
if (edges && edges.length) {
  for (var i=0;i<edges.length;i++) {
    if (edges[i].id.substr(0,4)=='edge') {
      edges[i].setAttribute('class','edge');
    }
  }
}
]]></script>
        <defs>
                <circle id="rim" cx="0" cy="0" r="7"/>
                <circle id="rim2" cx="0" cy="0" r="3.5"/>
                <g id="zoomPlus">
                        <use xlink:href="#rim" fill="#404040">
                                <set attributeName="fill" to="#808080" begin="zoomplus.mouseover" end="zoomplus.mouseout"/>
                        </use>
                        <path d="M-4,0h8M0,-4v8" fill="none" stroke="white" stroke-width="1.5" pointer-events="none"/>
                </g>
                <g id="zoomMin">
                        <use xlink:href="#rim" fill="#404040">
                                <set attributeName="fill" to="#808080" begin="zoomminus.mouseover" end="zoomminus.mouseout"/>
                        </use>
                        <path d="M-4,0h8" fill="none" stroke="white" stroke-width="1.5" pointer-events="none"/>
                </g>
                <g id="dirArrow">
                        <path fill="none" stroke="white" stroke-width="1.5" d="M0,-3.0v7 M-2.5,-0.5L0,-3.0L2.5,-0.5"/>
                </g>
               <g id="resetDef">
                       <use xlink:href="#rim2" fill="#404040">
                               <set attributeName="fill" to="#808080" begin="reset.mouseover" end="reset.mouseout"/>
                       </use>
               </g>
        </defs>

<script type="text/javascript">
var viewWidth = 1660;
var viewHeight = 431;
var sectionId = 'dynsection-4';
</script>
<script xlink:href="../../svgpan.js"/>
<svg id="graph" class="graph">
<g id="viewport">
<title>gameEngine.Data.TowerInfoObject.getMyUpgrade</title>
<polygon fill="white" stroke="none" points="-4,4 -4,-427 1656,-427 1656,4 -4,4"/>
<!-- Node1 -->
<g id="node1" class="node"><title>Node1</title>
<polygon fill="#bfbfbf" stroke="black" points="0.5,-122 0.5,-152 149.5,-152 149.5,-122 0.5,-122"/>
<text text-anchor="start" x="8.5" y="-140" font-family="Helvetica,sans-Serif" font-size="10.00">gameEngine.Data.TowerInfo</text>
<text text-anchor="middle" x="75" y="-129" font-family="Helvetica,sans-Serif" font-size="10.00">Object.getMyUpgrade</text>
</g>
<!-- Node2 -->
<g id="node2" class="node"><title>Node2</title>
<g id="a_node2"><a xlink:href="../../da/d69/classgame_player_1_1main_classes_1_1managers_1_1_gui_manager.html#a6055e678686afb552c0ea4946d6b97a2" target="_top" xlink:title="gamePlayer.mainClasses.managers.\lGuiManager.makeTowerMap">
<polygon fill="white" stroke="black" points="207.5,-147 207.5,-177 398.5,-177 398.5,-147 207.5,-147"/>
<text text-anchor="start" x="215.5" y="-165" font-family="Helvetica,sans-Serif" font-size="10.00">gamePlayer.mainClasses.managers.</text>
<text text-anchor="middle" x="303" y="-154" font-family="Helvetica,sans-Serif" font-size="10.00">GuiManager.makeTowerMap</text>
</a>
</g>
</g>
<!-- Node1&#45;&gt;Node2 -->
<g id="edge1" class="edge"><title>Node1&#45;&gt;Node2</title>
<path fill="none" stroke="midnightblue" d="M159.758,-146.265C175.276,-147.982 191.584,-149.786 207.398,-151.535"/>
<polygon fill="midnightblue" stroke="midnightblue" points="160.012,-142.772 149.688,-145.151 159.243,-149.73 160.012,-142.772"/>
</g>
<!-- Node21 -->
<g id="node21" class="node"><title>Node21</title>
<g id="a_node21"><a xlink:href="../../d1/d18/classgame_player_1_1gui_items_1_1tower_upgrade_1_1_tower_upgrade_panel.html#ab1a665d01bbeab4d6a954df1b4f6b10f" target="_top" xlink:title="gamePlayer.guiItems.tower\lUpgrade.TowerUpgradePanel.setCurrentTower">
<polygon fill="white" stroke="black" points="186,-73 186,-103 420,-103 420,-73 186,-73"/>
<text text-anchor="start" x="194" y="-91" font-family="Helvetica,sans-Serif" font-size="10.00">gamePlayer.guiItems.tower</text>
<text text-anchor="middle" x="303" y="-80" font-family="Helvetica,sans-Serif" font-size="10.00">Upgrade.TowerUpgradePanel.setCurrentTower</text>
</a>
</g>
</g>
<!-- Node1&#45;&gt;Node21 -->
<g id="edge23" class="edge"><title>Node1&#45;&gt;Node21</title>
<path fill="none" stroke="midnightblue" d="M155.263,-119.815C180.535,-114.335 208.286,-108.318 232.788,-103.006"/>
<polygon fill="midnightblue" stroke="midnightblue" points="154.375,-116.426 145.343,-121.965 155.858,-123.267 154.375,-116.426"/>
</g>
<!-- Node3 -->
<g id="node3" class="node"><title>Node3</title>
<g id="a_node3"><a xlink:href="../../da/d69/classgame_player_1_1main_classes_1_1managers_1_1_gui_manager.html#a02a63a3d495b31cce0c4976f95758a49" target="_top" xlink:title="gamePlayer.mainClasses.managers.\lGuiManager.startGame">
<polygon fill="white" stroke="black" points="465.5,-147 465.5,-177 656.5,-177 656.5,-147 465.5,-147"/>
<text text-anchor="start" x="473.5" y="-165" font-family="Helvetica,sans-Serif" font-size="10.00">gamePlayer.mainClasses.managers.</text>
<text text-anchor="middle" x="561" y="-154" font-family="Helvetica,sans-Serif" font-size="10.00">GuiManager.startGame</text>
</a>
</g>
</g>
<!-- Node2&#45;&gt;Node3 -->
<g id="edge2" class="edge"><title>Node2&#45;&gt;Node3</title>
<path fill="none" stroke="midnightblue" d="M408.644,-162C427.42,-162 446.891,-162 465.364,-162"/>
<polygon fill="midnightblue" stroke="midnightblue" points="408.598,-158.5 398.598,-162 408.598,-165.5 408.598,-158.5"/>
</g>
<!-- Node5 -->
<g id="node5" class="node"><title>Node5</title>
<g id="a_node5"><a xlink:href="../../da/d69/classgame_player_1_1main_classes_1_1managers_1_1_gui_manager.html#a6f0d5fa9c335707fd051fa83bd82f9bf" target="_top" xlink:title="gamePlayer.mainClasses.managers.\lGuiManager.initializeNewGameElements">
<polygon fill="white" stroke="black" points="456.5,-196 456.5,-226 665.5,-226 665.5,-196 456.5,-196"/>
<text text-anchor="start" x="464.5" y="-214" font-family="Helvetica,sans-Serif" font-size="10.00">gamePlayer.mainClasses.managers.</text>
<text text-anchor="middle" x="561" y="-203" font-family="Helvetica,sans-Serif" font-size="10.00">GuiManager.initializeNewGameElements</text>
</a>
</g>
</g>
<!-- Node2&#45;&gt;Node5 -->
<g id="edge4" class="edge"><title>Node2&#45;&gt;Node5</title>
<path fill="none" stroke="midnightblue" d="M392.646,-178.967C421.576,-184.505 453.478,-190.611 481.6,-195.994"/>
<polygon fill="midnightblue" stroke="midnightblue" points="393.028,-175.477 382.548,-177.035 391.712,-182.352 393.028,-175.477"/>
</g>
<!-- Node4 -->
<g id="node4" class="node"><title>Node4</title>
<g id="a_node4"><a xlink:href="../../da/d69/classgame_player_1_1main_classes_1_1managers_1_1_gui_manager.html#a287842e1d39b7ecf2e13befeeafa1a7b" target="_top" xlink:title="gamePlayer.mainClasses.managers.\lGuiManager.loadGame">
<polygon fill="white" stroke="black" points="702.5,-147 702.5,-177 893.5,-177 893.5,-147 702.5,-147"/>
<text text-anchor="start" x="710.5" y="-165" font-family="Helvetica,sans-Serif" font-size="10.00">gamePlayer.mainClasses.managers.</text>
<text text-anchor="middle" x="798" y="-154" font-family="Helvetica,sans-Serif" font-size="10.00">GuiManager.loadGame</text>
</a>
</g>
</g>
<!-- Node3&#45;&gt;Node4 -->
<g id="edge3" class="edge"><title>Node3&#45;&gt;Node4</title>
<path fill="none" stroke="midnightblue" d="M666.865,-162C678.647,-162 690.6,-162 702.243,-162"/>
<polygon fill="midnightblue" stroke="midnightblue" points="666.568,-158.5 656.568,-162 666.568,-165.5 666.568,-158.5"/>
</g>
<!-- Node6 -->
<g id="node6" class="node"><title>Node6</title>
<g id="a_node6"><a xlink:href="../../da/d69/classgame_player_1_1main_classes_1_1managers_1_1_gui_manager.html#aa9b035d2a17b73719ca8a26d8ebde9ce" target="_top" xlink:title="gamePlayer.mainClasses.managers.\lGuiManager.startSinglePlayerGame">
<polygon fill="white" stroke="black" points="702.5,-196 702.5,-226 893.5,-226 893.5,-196 702.5,-196"/>
<text text-anchor="start" x="710.5" y="-214" font-family="Helvetica,sans-Serif" font-size="10.00">gamePlayer.mainClasses.managers.</text>
<text text-anchor="middle" x="798" y="-203" font-family="Helvetica,sans-Serif" font-size="10.00">GuiManager.startSinglePlayerGame</text>
</a>
</g>
</g>
<!-- Node5&#45;&gt;Node6 -->
<g id="edge5" class="edge"><title>Node5&#45;&gt;Node6</title>
<path fill="none" stroke="midnightblue" d="M675.778,-211C684.672,-211 693.595,-211 702.342,-211"/>
<polygon fill="midnightblue" stroke="midnightblue" points="675.759,-207.5 665.758,-211 675.758,-214.5 675.759,-207.5"/>
</g>
<!-- Node12 -->
<g id="node12" class="node"><title>Node12</title>
<g id="a_node12"><a xlink:href="../../da/d69/classgame_player_1_1main_classes_1_1managers_1_1_gui_manager.html#aa0b614e03bdec959e13e3d5ca2e1f614" target="_top" xlink:title="gamePlayer.mainClasses.managers.\lGuiManager.startMultiPlayerGame">
<polygon fill="white" stroke="black" points="702.5,-252 702.5,-282 893.5,-282 893.5,-252 702.5,-252"/>
<text text-anchor="start" x="710.5" y="-270" font-family="Helvetica,sans-Serif" font-size="10.00">gamePlayer.mainClasses.managers.</text>
<text text-anchor="middle" x="798" y="-259" font-family="Helvetica,sans-Serif" font-size="10.00">GuiManager.startMultiPlayerGame</text>
</a>
</g>
</g>
<!-- Node5&#45;&gt;Node12 -->
<g id="edge11" class="edge"><title>Node5&#45;&gt;Node12</title>
<path fill="none" stroke="midnightblue" d="M635.06,-228.41C666.708,-235.952 703.402,-244.696 733.85,-251.952"/>
<polygon fill="midnightblue" stroke="midnightblue" points="635.515,-224.92 624.976,-226.007 633.892,-231.73 635.515,-224.92"/>
</g>
<!-- Node7 -->
<g id="node7" class="node"><title>Node7</title>
<g id="a_node7"><a xlink:href="../../da/d69/classgame_player_1_1main_classes_1_1managers_1_1_gui_manager.html#a3f657f0e3ba1e493d2dd02b5df5e03f6" target="_top" xlink:title="gamePlayer.mainClasses.managers.\lGuiManager.replayGame">
<polygon fill="white" stroke="black" points="944.5,-198 944.5,-228 1135.5,-228 1135.5,-198 944.5,-198"/>
<text text-anchor="start" x="952.5" y="-216" font-family="Helvetica,sans-Serif" font-size="10.00">gamePlayer.mainClasses.managers.</text>
<text text-anchor="middle" x="1040" y="-205" font-family="Helvetica,sans-Serif" font-size="10.00">GuiManager.replayGame</text>
</a>
</g>
</g>
<!-- Node6&#45;&gt;Node7 -->
<g id="edge6" class="edge"><title>Node6&#45;&gt;Node7</title>
<path fill="none" stroke="midnightblue" d="M903.735,-211.873C917.188,-211.985 930.901,-212.099 944.183,-212.21"/>
<polygon fill="midnightblue" stroke="midnightblue" points="903.539,-208.371 893.51,-211.788 903.48,-215.371 903.539,-208.371"/>
</g>
<!-- Node8 -->
<g id="node8" class="node"><title>Node8</title>
<g id="a_node8"><a xlink:href="../../d4/d3f/classgame_player_1_1main_classes_1_1managers_1_1_welcome_manager.html#a5da8d3f5b8bc1c4bd4c555140bd9384c" target="_top" xlink:title="gamePlayer.mainClasses.managers.\lWelcomeManager.startSinglePlayerGame">
<polygon fill="white" stroke="black" points="1186,-98 1186,-128 1400,-128 1400,-98 1186,-98"/>
<text text-anchor="start" x="1194" y="-116" font-family="Helvetica,sans-Serif" font-size="10.00">gamePlayer.mainClasses.managers.</text>
<text text-anchor="middle" x="1293" y="-105" font-family="Helvetica,sans-Serif" font-size="10.00">WelcomeManager.startSinglePlayerGame</text>
</a>
</g>
</g>
<!-- Node6&#45;&gt;Node8 -->
<g id="edge7" class="edge"><title>Node6&#45;&gt;Node8</title>
<path fill="none" stroke="midnightblue" d="M886.054,-191.164C888.809,-189.573 891.468,-187.855 894,-186 918.168,-168.289 904.085,-144.039 930,-129 1020.05,-76.7425 1144.96,-85.3653 1222.03,-97.9926"/>
<polygon fill="midnightblue" stroke="midnightblue" points="884.271,-188.145 876.97,-195.823 887.465,-194.374 884.271,-188.145"/>
</g>
<!-- Node10 -->
<g id="node10" class="node"><title>Node10</title>
<g id="a_node10"><a xlink:href="../../d3/dee/classgame_player_1_1main_classes_1_1welcome_screen_1_1_game_start_manager.html#a0c44b3f25d2a30fe2e7aeca9da7161a9" target="_top" xlink:title="gamePlayer.mainClasses.welcome\lScreen.GameStartManager.startSingle\lPlayerGame">
<polygon fill="white" stroke="black" points="938.5,-138.5 938.5,-179.5 1141.5,-179.5 1141.5,-138.5 938.5,-138.5"/>
<text text-anchor="start" x="946.5" y="-167.5" font-family="Helvetica,sans-Serif" font-size="10.00">gamePlayer.mainClasses.welcome</text>
<text text-anchor="start" x="946.5" y="-156.5" font-family="Helvetica,sans-Serif" font-size="10.00">Screen.GameStartManager.startSingle</text>
<text text-anchor="middle" x="1040" y="-145.5" font-family="Helvetica,sans-Serif" font-size="10.00">PlayerGame</text>
</a>
</g>
</g>
<!-- Node6&#45;&gt;Node10 -->
<g id="edge9" class="edge"><title>Node6&#45;&gt;Node10</title>
<path fill="none" stroke="midnightblue" d="M878.296,-193.819C899.414,-189.244 922.44,-184.255 944.294,-179.52"/>
<polygon fill="midnightblue" stroke="midnightblue" points="877.45,-190.421 868.418,-195.959 878.932,-197.262 877.45,-190.421"/>
</g>
<!-- Node9 -->
<g id="node9" class="node"><title>Node9</title>
<g id="a_node9"><a xlink:href="../../d4/d3f/classgame_player_1_1main_classes_1_1managers_1_1_welcome_manager.html#ae6495396aef63551116c0835c40574e1" target="_top" xlink:title="gamePlayer.mainClasses.managers.\lWelcomeManager.startGame">
<polygon fill="white" stroke="black" points="1448.5,-158 1448.5,-188 1639.5,-188 1639.5,-158 1448.5,-158"/>
<text text-anchor="start" x="1456.5" y="-176" font-family="Helvetica,sans-Serif" font-size="10.00">gamePlayer.mainClasses.managers.</text>
<text text-anchor="middle" x="1544" y="-165" font-family="Helvetica,sans-Serif" font-size="10.00">WelcomeManager.startGame</text>
</a>
</g>
</g>
<!-- Node8&#45;&gt;Node9 -->
<g id="edge8" class="edge"><title>Node8&#45;&gt;Node9</title>
<path fill="none" stroke="midnightblue" d="M1366.49,-130.469C1402.6,-139.169 1445.83,-149.585 1480.46,-157.931"/>
<polygon fill="midnightblue" stroke="midnightblue" points="1367.05,-127.003 1356.51,-128.063 1365.41,-133.808 1367.05,-127.003"/>
</g>
<!-- Node11 -->
<g id="node11" class="node"><title>Node11</title>
<g id="a_node11"><a xlink:href="../../d3/dee/classgame_player_1_1main_classes_1_1welcome_screen_1_1_game_start_manager.html#a4ac849399bf00c6df86f0db25ea95ed8" target="_top" xlink:title="gamePlayer.mainClasses.welcome\lScreen.GameStartManager.startGame">
<polygon fill="white" stroke="black" points="1442.5,-242 1442.5,-272 1645.5,-272 1645.5,-242 1442.5,-242"/>
<text text-anchor="start" x="1450.5" y="-260" font-family="Helvetica,sans-Serif" font-size="10.00">gamePlayer.mainClasses.welcome</text>
<text text-anchor="middle" x="1544" y="-249" font-family="Helvetica,sans-Serif" font-size="10.00">Screen.GameStartManager.startGame</text>
</a>
</g>
</g>
<!-- Node10&#45;&gt;Node11 -->
<g id="edge10" class="edge"><title>Node10&#45;&gt;Node11</title>
<path fill="none" stroke="midnightblue" d="M1152.15,-168.539C1223.59,-176.049 1318.04,-188.559 1400,-208 1436.64,-216.691 1477.14,-231.035 1505.65,-241.964"/>
<polygon fill="midnightblue" stroke="midnightblue" points="1152.08,-165.014 1141.78,-167.467 1151.36,-171.977 1152.08,-165.014"/>
</g>
<!-- Node12&#45;&gt;Node7 -->
<g id="edge16" class="edge"><title>Node12&#45;&gt;Node7</title>
<path fill="none" stroke="midnightblue" d="M874.267,-249.649C892.503,-245.477 911.945,-241.055 930,-237 943.045,-234.07 956.977,-230.976 970.369,-228.019"/>
<polygon fill="midnightblue" stroke="midnightblue" points="873.242,-246.293 864.276,-251.938 874.805,-253.117 873.242,-246.293"/>
</g>
<!-- Node13 -->
<g id="node13" class="node"><title>Node13</title>
<g id="a_node13"><a xlink:href="../../da/d69/classgame_player_1_1main_classes_1_1managers_1_1_gui_manager.html#ad50f462f8d45a5bbfc8a17290372a1ab" target="_top" xlink:title="gamePlayer.mainClasses.managers.\lGuiManager.joinMultiPlayerGame">
<polygon fill="white" stroke="black" points="944.5,-366 944.5,-396 1135.5,-396 1135.5,-366 944.5,-366"/>
<text text-anchor="start" x="952.5" y="-384" font-family="Helvetica,sans-Serif" font-size="10.00">gamePlayer.mainClasses.managers.</text>
<text text-anchor="middle" x="1040" y="-373" font-family="Helvetica,sans-Serif" font-size="10.00">GuiManager.joinMultiPlayerGame</text>
</a>
</g>
</g>
<!-- Node12&#45;&gt;Node13 -->
<g id="edge12" class="edge"><title>Node12&#45;&gt;Node13</title>
<path fill="none" stroke="midnightblue" d="M824.758,-288.808C850.007,-309.098 890.372,-338.724 930,-356 938.81,-359.841 948.288,-363.131 957.846,-365.939"/>
<polygon fill="midnightblue" stroke="midnightblue" points="826.76,-285.924 816.798,-282.317 822.336,-291.349 826.76,-285.924"/>
</g>
<!-- Node17 -->
<g id="node17" class="node"><title>Node17</title>
<g id="a_node17"><a xlink:href="../../d4/d3f/classgame_player_1_1main_classes_1_1managers_1_1_welcome_manager.html#a55598dd2973b0a9b979151dd60c9e436" target="_top" xlink:title="gamePlayer.mainClasses.managers.\lWelcomeManager.pollEngineForMultiPlayer\lReadiness">
<polygon fill="white" stroke="black" points="930.5,-246.5 930.5,-287.5 1149.5,-287.5 1149.5,-246.5 930.5,-246.5"/>
<text text-anchor="start" x="938.5" y="-275.5" font-family="Helvetica,sans-Serif" font-size="10.00">gamePlayer.mainClasses.managers.</text>
<text text-anchor="start" x="938.5" y="-264.5" font-family="Helvetica,sans-Serif" font-size="10.00">WelcomeManager.pollEngineForMultiPlayer</text>
<text text-anchor="middle" x="1040" y="-253.5" font-family="Helvetica,sans-Serif" font-size="10.00">Readiness</text>
</a>
</g>
</g>
<!-- Node12&#45;&gt;Node17 -->
<g id="edge17" class="edge"><title>Node12&#45;&gt;Node17</title>
<path fill="none" stroke="midnightblue" d="M903.766,-267C912.556,-267 921.457,-267 930.276,-267"/>
<polygon fill="midnightblue" stroke="midnightblue" points="903.51,-263.5 893.51,-267 903.51,-270.5 903.51,-263.5"/>
</g>
<!-- Node19 -->
<g id="node19" class="node"><title>Node19</title>
<g id="a_node19"><a xlink:href="../../d3/dee/classgame_player_1_1main_classes_1_1welcome_screen_1_1_game_start_manager.html#a5d5001d1ee14ae57deef01f6e3ddde31" target="_top" xlink:title="gamePlayer.mainClasses.welcome\lScreen.GameStartManager.pollEngine\lForMultiPlayerReadiness">
<polygon fill="white" stroke="black" points="940,-306.5 940,-347.5 1140,-347.5 1140,-306.5 940,-306.5"/>
<text text-anchor="start" x="948" y="-335.5" font-family="Helvetica,sans-Serif" font-size="10.00">gamePlayer.mainClasses.welcome</text>
<text text-anchor="start" x="948" y="-324.5" font-family="Helvetica,sans-Serif" font-size="10.00">Screen.GameStartManager.pollEngine</text>
<text text-anchor="middle" x="1040" y="-313.5" font-family="Helvetica,sans-Serif" font-size="10.00">ForMultiPlayerReadiness</text>
</a>
</g>
</g>
<!-- Node12&#45;&gt;Node19 -->
<g id="edge20" class="edge"><title>Node12&#45;&gt;Node19</title>
<path fill="none" stroke="midnightblue" d="M869.176,-284.544C896.672,-291.418 928.41,-299.352 956.954,-306.489"/>
<polygon fill="midnightblue" stroke="midnightblue" points="869.803,-281.093 859.252,-282.063 868.105,-287.884 869.803,-281.093"/>
</g>
<!-- Node14 -->
<g id="node14" class="node"><title>Node14</title>
<g id="a_node14"><a xlink:href="../../d4/d3f/classgame_player_1_1main_classes_1_1managers_1_1_welcome_manager.html#a71a2a80cfe9d3a07d7becc506178acfd" target="_top" xlink:title="gamePlayer.mainClasses.managers.\lWelcomeManager.joinMultiPlayerGame">
<polygon fill="white" stroke="black" points="1192.5,-393 1192.5,-423 1393.5,-423 1393.5,-393 1192.5,-393"/>
<text text-anchor="start" x="1200.5" y="-411" font-family="Helvetica,sans-Serif" font-size="10.00">gamePlayer.mainClasses.managers.</text>
<text text-anchor="middle" x="1293" y="-400" font-family="Helvetica,sans-Serif" font-size="10.00">WelcomeManager.joinMultiPlayerGame</text>
</a>
</g>
</g>
<!-- Node13&#45;&gt;Node14 -->
<g id="edge13" class="edge"><title>Node13&#45;&gt;Node14</title>
<path fill="none" stroke="midnightblue" d="M1145.58,-392.25C1160.98,-393.906 1176.81,-395.609 1192.11,-397.254"/>
<polygon fill="midnightblue" stroke="midnightblue" points="1145.85,-388.759 1135.53,-391.169 1145.1,-395.719 1145.85,-388.759"/>
</g>
<!-- Node16 -->
<g id="node16" class="node"><title>Node16</title>
<g id="a_node16"><a xlink:href="../../d3/dee/classgame_player_1_1main_classes_1_1welcome_screen_1_1_game_start_manager.html#a7465850240e12e23aec544dbfd08f6a0" target="_top" xlink:title="gamePlayer.mainClasses.welcome\lScreen.GameStartManager.joinMulti\lPlayerGame">
<polygon fill="white" stroke="black" points="1198,-333.5 1198,-374.5 1388,-374.5 1388,-333.5 1198,-333.5"/>
<text text-anchor="start" x="1206" y="-362.5" font-family="Helvetica,sans-Serif" font-size="10.00">gamePlayer.mainClasses.welcome</text>
<text text-anchor="start" x="1206" y="-351.5" font-family="Helvetica,sans-Serif" font-size="10.00">Screen.GameStartManager.joinMulti</text>
<text text-anchor="middle" x="1293" y="-340.5" font-family="Helvetica,sans-Serif" font-size="10.00">PlayerGame</text>
</a>
</g>
</g>
<!-- Node13&#45;&gt;Node16 -->
<g id="edge15" class="edge"><title>Node13&#45;&gt;Node16</title>
<path fill="none" stroke="midnightblue" d="M1145.67,-369.74C1163.02,-367.875 1180.91,-365.95 1197.97,-364.115"/>
<polygon fill="midnightblue" stroke="midnightblue" points="1145.1,-366.281 1135.53,-370.831 1145.85,-373.241 1145.1,-366.281"/>
</g>
<!-- Node15 -->
<g id="node15" class="node"><title>Node15</title>
<g id="a_node15"><a xlink:href="../../d4/d3f/classgame_player_1_1main_classes_1_1managers_1_1_welcome_manager.html#aa605746e09c481b225463d37a82427e3" target="_top" xlink:title="gamePlayer.mainClasses.managers.\lWelcomeManager.startMultiPlayerOptions">
<polygon fill="white" stroke="black" points="1436.5,-393 1436.5,-423 1651.5,-423 1651.5,-393 1436.5,-393"/>
<text text-anchor="start" x="1444.5" y="-411" font-family="Helvetica,sans-Serif" font-size="10.00">gamePlayer.mainClasses.managers.</text>
<text text-anchor="middle" x="1544" y="-400" font-family="Helvetica,sans-Serif" font-size="10.00">WelcomeManager.startMultiPlayerOptions</text>
</a>
</g>
</g>
<!-- Node14&#45;&gt;Node15 -->
<g id="edge14" class="edge"><title>Node14&#45;&gt;Node15</title>
<path fill="none" stroke="midnightblue" d="M1404.03,-408C1414.72,-408 1425.55,-408 1436.2,-408"/>
<polygon fill="midnightblue" stroke="midnightblue" points="1403.84,-404.5 1393.84,-408 1403.84,-411.5 1403.84,-404.5"/>
</g>
<!-- Node18 -->
<g id="node18" class="node"><title>Node18</title>
<g id="a_node18"><a xlink:href="../../d4/d3f/classgame_player_1_1main_classes_1_1managers_1_1_welcome_manager.html#a0669db103a94675dce875042258da508" target="_top" xlink:title="gamePlayer.mainClasses.managers.\lWelcomeManager.startMultiPlayerGame">
<polygon fill="white" stroke="black" points="1189.5,-218 1189.5,-248 1396.5,-248 1396.5,-218 1189.5,-218"/>
<text text-anchor="start" x="1197.5" y="-236" font-family="Helvetica,sans-Serif" font-size="10.00">gamePlayer.mainClasses.managers.</text>
<text text-anchor="middle" x="1293" y="-225" font-family="Helvetica,sans-Serif" font-size="10.00">WelcomeManager.startMultiPlayerGame</text>
</a>
</g>
</g>
<!-- Node17&#45;&gt;Node18 -->
<g id="edge18" class="edge"><title>Node17&#45;&gt;Node18</title>
<path fill="none" stroke="midnightblue" d="M1159.82,-250.905C1169.62,-249.577 1179.48,-248.242 1189.15,-246.932"/>
<polygon fill="midnightblue" stroke="midnightblue" points="1159.07,-247.474 1149.63,-252.285 1160.01,-254.411 1159.07,-247.474"/>
</g>
<!-- Node18&#45;&gt;Node9 -->
<g id="edge19" class="edge"><title>Node18&#45;&gt;Node9</title>
<path fill="none" stroke="midnightblue" d="M1366.49,-215.531C1402.6,-206.831 1445.83,-196.415 1480.46,-188.069"/>
<polygon fill="midnightblue" stroke="midnightblue" points="1365.41,-212.192 1356.51,-217.937 1367.05,-218.997 1365.41,-212.192"/>
</g>
<!-- Node20 -->
<g id="node20" class="node"><title>Node20</title>
<g id="a_node20"><a xlink:href="../../d3/dee/classgame_player_1_1main_classes_1_1welcome_screen_1_1_game_start_manager.html#a994c29260d6cb90abf19dca2b3463b6a" target="_top" xlink:title="gamePlayer.mainClasses.welcome\lScreen.GameStartManager.startMulti\lPlayerGame">
<polygon fill="white" stroke="black" points="1195,-271.5 1195,-312.5 1391,-312.5 1391,-271.5 1195,-271.5"/>
<text text-anchor="start" x="1203" y="-300.5" font-family="Helvetica,sans-Serif" font-size="10.00">gamePlayer.mainClasses.welcome</text>
<text text-anchor="start" x="1203" y="-289.5" font-family="Helvetica,sans-Serif" font-size="10.00">Screen.GameStartManager.startMulti</text>
<text text-anchor="middle" x="1293" y="-278.5" font-family="Helvetica,sans-Serif" font-size="10.00">PlayerGame</text>
</a>
</g>
</g>
<!-- Node19&#45;&gt;Node20 -->
<g id="edge21" class="edge"><title>Node19&#45;&gt;Node20</title>
<path fill="none" stroke="midnightblue" d="M1150.37,-311.749C1165.14,-309.69 1180.21,-307.588 1194.75,-305.561"/>
<polygon fill="midnightblue" stroke="midnightblue" points="1149.62,-308.319 1140.2,-313.167 1150.59,-315.252 1149.62,-308.319"/>
</g>
<!-- Node20&#45;&gt;Node11 -->
<g id="edge22" class="edge"><title>Node20&#45;&gt;Node11</title>
<path fill="none" stroke="midnightblue" d="M1401.64,-276.87C1415.19,-274.965 1429.01,-273.023 1442.45,-271.134"/>
<polygon fill="midnightblue" stroke="midnightblue" points="1400.76,-273.46 1391.34,-278.318 1401.73,-280.392 1400.76,-273.46"/>
</g>
<!-- Node22 -->
<g id="node22" class="node"><title>Node22</title>
<g id="a_node22"><a xlink:href="../../da/d69/classgame_player_1_1main_classes_1_1managers_1_1_gui_manager.html#ad5da35abd0e1b0f2938b85549703118e" target="_top" xlink:title="gamePlayer.mainClasses.managers.\lGuiManager.selectTower">
<polygon fill="white" stroke="black" points="465.5,-49 465.5,-79 656.5,-79 656.5,-49 465.5,-49"/>
<text text-anchor="start" x="473.5" y="-67" font-family="Helvetica,sans-Serif" font-size="10.00">gamePlayer.mainClasses.managers.</text>
<text text-anchor="middle" x="561" y="-56" font-family="Helvetica,sans-Serif" font-size="10.00">GuiManager.selectTower</text>
</a>
</g>
</g>
<!-- Node21&#45;&gt;Node22 -->
<g id="edge24" class="edge"><title>Node21&#45;&gt;Node22</title>
<path fill="none" stroke="midnightblue" d="M430.023,-76.1853C441.954,-75.0668 453.908,-73.9461 465.471,-72.8621"/>
<polygon fill="midnightblue" stroke="midnightblue" points="429.645,-72.7053 420.016,-77.1235 430.299,-79.6748 429.645,-72.7053"/>
</g>
<!-- Node23 -->
<g id="node23" class="node"><title>Node23</title>
<g id="a_node23"><a xlink:href="../../da/d69/classgame_player_1_1main_classes_1_1managers_1_1_gui_manager.html#a162f5822f9bff033684bd28cada2f03e" target="_top" xlink:title="gamePlayer.mainClasses.managers.\lGuiManager.upgradeTower">
<polygon fill="white" stroke="black" points="702.5,-98 702.5,-128 893.5,-128 893.5,-98 702.5,-98"/>
<text text-anchor="start" x="710.5" y="-116" font-family="Helvetica,sans-Serif" font-size="10.00">gamePlayer.mainClasses.managers.</text>
<text text-anchor="middle" x="798" y="-105" font-family="Helvetica,sans-Serif" font-size="10.00">GuiManager.upgradeTower</text>
</a>
</g>
</g>
<!-- Node22&#45;&gt;Node23 -->
<g id="edge25" class="edge"><title>Node22&#45;&gt;Node23</title>
<path fill="none" stroke="midnightblue" d="M644.071,-81.1127C670.443,-86.6115 699.441,-92.658 725.032,-97.9938"/>
<polygon fill="midnightblue" stroke="midnightblue" points="644.609,-77.6496 634.105,-79.0346 643.18,-84.5022 644.609,-77.6496"/>
</g>
<!-- Node24 -->
<g id="node24" class="node"><title>Node24</title>
<g id="a_node24"><a xlink:href="../../da/d69/classgame_player_1_1main_classes_1_1managers_1_1_gui_manager.html#a148dc947569bdc60c98be5a853cf82ee" target="_top" xlink:title="gamePlayer.mainClasses.managers.\lGuiManager.makeTower">
<polygon fill="white" stroke="black" points="702.5,-49 702.5,-79 893.5,-79 893.5,-49 702.5,-49"/>
<text text-anchor="start" x="710.5" y="-67" font-family="Helvetica,sans-Serif" font-size="10.00">gamePlayer.mainClasses.managers.</text>
<text text-anchor="middle" x="798" y="-56" font-family="Helvetica,sans-Serif" font-size="10.00">GuiManager.makeTower</text>
</a>
</g>
</g>
<!-- Node22&#45;&gt;Node24 -->
<g id="edge26" class="edge"><title>Node22&#45;&gt;Node24</title>
<path fill="none" stroke="midnightblue" d="M666.865,-64C678.647,-64 690.6,-64 702.243,-64"/>
<polygon fill="midnightblue" stroke="midnightblue" points="666.568,-60.5001 656.568,-64 666.568,-67.5001 666.568,-60.5001"/>
</g>
<!-- Node28 -->
<g id="node28" class="node"><title>Node28</title>
<g id="a_node28"><a xlink:href="../../da/d69/classgame_player_1_1main_classes_1_1managers_1_1_gui_manager.html#a3c54e67481646eaa1208a9f69cc1ea78" target="_top" xlink:title="gamePlayer.mainClasses.managers.\lGuiManager.deselectTower">
<polygon fill="white" stroke="black" points="702.5,-0 702.5,-30 893.5,-30 893.5,-0 702.5,-0"/>
<text text-anchor="start" x="710.5" y="-18" font-family="Helvetica,sans-Serif" font-size="10.00">gamePlayer.mainClasses.managers.</text>
<text text-anchor="middle" x="798" y="-7" font-family="Helvetica,sans-Serif" font-size="10.00">GuiManager.deselectTower</text>
</a>
</g>
</g>
<!-- Node22&#45;&gt;Node28 -->
<g id="edge30" class="edge"><title>Node22&#45;&gt;Node28</title>
<path fill="none" stroke="midnightblue" d="M617.623,-46.5644C642.867,-40.4787 673.443,-33.8367 702.145,-28.1409"/>
<polygon fill="midnightblue" stroke="midnightblue" points="616.748,-43.1752 607.868,-48.955 618.414,-49.974 616.748,-43.1752"/>
</g>
<!-- Node25 -->
<g id="node25" class="node"><title>Node25</title>
<g id="a_node25"><a xlink:href="../../db/d6b/classgame_player_1_1gui_features_1_1_tower_placer.html#a8a56e5205e61a12602015f880e47070c" target="_top" xlink:title="gamePlayer.guiFeatures.Tower\lPlacer.drop">
<polygon fill="white" stroke="black" points="959.5,-49 959.5,-79 1120.5,-79 1120.5,-49 959.5,-49"/>
<text text-anchor="start" x="967.5" y="-67" font-family="Helvetica,sans-Serif" font-size="10.00">gamePlayer.guiFeatures.Tower</text>
<text text-anchor="middle" x="1040" y="-56" font-family="Helvetica,sans-Serif" font-size="10.00">Placer.drop</text>
</a>
</g>
</g>
<!-- Node24&#45;&gt;Node25 -->
<g id="edge27" class="edge"><title>Node24&#45;&gt;Node25</title>
<path fill="none" stroke="midnightblue" d="M903.533,-64C922.233,-64 941.444,-64 959.306,-64"/>
<polygon fill="midnightblue" stroke="midnightblue" points="903.51,-60.5001 893.51,-64 903.51,-67.5001 903.51,-60.5001"/>
</g>
<!-- Node26 -->
<g id="node26" class="node"><title>Node26</title>
<g id="a_node26"><a xlink:href="../../db/d6b/classgame_player_1_1gui_features_1_1_tower_placer.html#a2798d82694ca4f2a02b48f9516f0cd1b" target="_top" xlink:title="gamePlayer.guiFeatures.Tower\lPlacer.placeItem">
<polygon fill="white" stroke="black" points="1212.5,-49 1212.5,-79 1373.5,-79 1373.5,-49 1212.5,-49"/>
<text text-anchor="start" x="1220.5" y="-67" font-family="Helvetica,sans-Serif" font-size="10.00">gamePlayer.guiFeatures.Tower</text>
<text text-anchor="middle" x="1293" y="-56" font-family="Helvetica,sans-Serif" font-size="10.00">Placer.placeItem</text>
</a>
</g>
</g>
<!-- Node25&#45;&gt;Node26 -->
<g id="edge28" class="edge"><title>Node25&#45;&gt;Node26</title>
<path fill="none" stroke="midnightblue" d="M1130.85,-64C1157.5,-64 1186.49,-64 1212.44,-64"/>
<polygon fill="midnightblue" stroke="midnightblue" points="1130.76,-60.5001 1120.76,-64 1130.76,-67.5001 1130.76,-60.5001"/>
</g>
<!-- Node27 -->
<g id="node27" class="node"><title>Node27</title>
<g id="a_node27"><a xlink:href="../../da/d69/classgame_player_1_1main_classes_1_1managers_1_1_gui_manager.html#ae90e338dc9959e32627518bde3fdf2ff" target="_top" xlink:title="gamePlayer.mainClasses.managers.\lGuiManager.placeTower">
<polygon fill="white" stroke="black" points="1448.5,-49 1448.5,-79 1639.5,-79 1639.5,-49 1448.5,-49"/>
<text text-anchor="start" x="1456.5" y="-67" font-family="Helvetica,sans-Serif" font-size="10.00">gamePlayer.mainClasses.managers.</text>
<text text-anchor="middle" x="1544" y="-56" font-family="Helvetica,sans-Serif" font-size="10.00">GuiManager.placeTower</text>
</a>
</g>
</g>
<!-- Node26&#45;&gt;Node27 -->
<g id="edge29" class="edge"><title>Node26&#45;&gt;Node27</title>
<path fill="none" stroke="midnightblue" d="M1383.97,-64C1404.92,-64 1427.29,-64 1448.43,-64"/>
<polygon fill="midnightblue" stroke="midnightblue" points="1383.81,-60.5001 1373.81,-64 1383.81,-67.5001 1383.81,-60.5001"/>
</g>
<!-- Node28&#45;&gt;Node22 -->
<g id="edge31" class="edge"><title>Node28&#45;&gt;Node22</title>
<path fill="none" stroke="midnightblue" d="M741.479,-32.411C716.131,-38.5237 685.392,-45.1999 656.568,-50.916"/>
<polygon fill="midnightblue" stroke="midnightblue" points="742.393,-35.7908 751.271,-30.0101 740.726,-28.9922 742.393,-35.7908"/>
</g>
</g>
</svg>
        <g id="navigator" transform="translate(0 0)" fill="#404254">
                <rect fill="#f2f5e9" fill-opacity="0.5" stroke="#606060" stroke-width=".5" x="0" y="0" width="60" height="60"/>
                <use id="zoomplus" xlink:href="#zoomPlus" x="17" y="9" onmousedown="handleZoom(evt,'in')"/>
                <use id="zoomminus" xlink:href="#zoomMin" x="42" y="9" onmousedown="handleZoom(evt,'out')"/>
                <use id="reset" xlink:href="#resetDef" x="30" y="36" onmousedown="handleReset()"/>
                <g id="arrowUp" xlink:href="#dirArrow" transform="translate(30 24)" onmousedown="handlePan(0,-1)">
                  <use xlink:href="#rim" fill="#404040">
                        <set attributeName="fill" to="#808080" begin="arrowUp.mouseover" end="arrowUp.mouseout"/>
                  </use>
                  <path fill="none" stroke="white" stroke-width="1.5" d="M0,-3.0v7 M-2.5,-0.5L0,-3.0L2.5,-0.5"/>
                </g>
                <g id="arrowRight" xlink:href="#dirArrow" transform="rotate(90) translate(36 -43)" onmousedown="handlePan(1,0)">
                  <use xlink:href="#rim" fill="#404040">
                        <set attributeName="fill" to="#808080" begin="arrowRight.mouseover" end="arrowRight.mouseout"/>
                  </use>
                  <path fill="none" stroke="white" stroke-width="1.5" d="M0,-3.0v7 M-2.5,-0.5L0,-3.0L2.5,-0.5"/>
                </g>
                <g id="arrowDown" xlink:href="#dirArrow" transform="rotate(180) translate(-30 -48)" onmousedown="handlePan(0,1)">
                  <use xlink:href="#rim" fill="#404040">
                        <set attributeName="fill" to="#808080" begin="arrowDown.mouseover" end="arrowDown.mouseout"/>
                  </use>
                  <path fill="none" stroke="white" stroke-width="1.5" d="M0,-3.0v7 M-2.5,-0.5L0,-3.0L2.5,-0.5"/>
                </g>
                <g id="arrowLeft" xlink:href="#dirArrow" transform="rotate(270) translate(-36 17)" onmousedown="handlePan(-1,0)">
                  <use xlink:href="#rim" fill="#404040">
                        <set attributeName="fill" to="#808080" begin="arrowLeft.mouseover" end="arrowLeft.mouseout"/>
                  </use>
                  <path fill="none" stroke="white" stroke-width="1.5" d="M0,-3.0v7 M-2.5,-0.5L0,-3.0L2.5,-0.5"/>
                </g>
        </g>
        <svg viewBox="0 0 15 15" width="100%" height="30px" preserveAspectRatio="xMaxYMin meet">
         <g id="arrow_out" transform="scale(0.3 0.3)">
          <a xlink:href="classgame_engine_1_1_data_1_1_tower_info_object_aae3256ac67a3504c1e55820260c542a2_icgraph_org.svg" target="_base">
           <rect id="button" ry="5" rx="5" y="6" x="6" height="38" width="38"
                fill="#f2f5e9" fill-opacity="0.5" stroke="#606060" stroke-width="1.0"/>
           <path id="arrow"
             d="M 11.500037,31.436501 C 11.940474,20.09759 22.043105,11.32322 32.158766,21.979434 L 37.068811,17.246167 C 37.068811,17.246167 37.088388,32 37.088388,32 L 22.160133,31.978069 C 22.160133,31.978069 26.997745,27.140456 26.997745,27.140456 C 18.528582,18.264221 13.291696,25.230495 11.500037,31.436501 z"
             style="fill:#404040;"/>
          </a>
         </g>
        </svg>
</svg>
