<?xml version="1.0" encoding="UTF-8" standalone="no"?>
<!DOCTYPE svg PUBLIC "-//W3C//DTD SVG 1.1//EN"
 "http://www.w3.org/Graphics/SVG/1.1/DTD/svg11.dtd">
<!-- Generated by graphviz version 2.36.0 (20140111.2315)
 -->
<!-- Title: gameEngine.Data.TowerInfoObject.getImageLocation Pages: 1 -->
<!--zoomable 136 -->
<svg id="main" version="1.1" xmlns="http://www.w3.org/2000/svg" xmlns:xlink="http://www.w3.org/1999/xlink" xml:space="preserve" onload="init(evt)">
<style type="text/css"><![CDATA[
.edge:hover path { stroke: red; }
.edge:hover polygon { stroke: red; fill: red; }
]]></style>
<script type="text/javascript"><![CDATA[
var edges = document.getElementsByTagName('g');
if (edges && edges.length) {
  for (var i=0;i<edges.length;i++) {
    if (edges[i].id.substr(0,4)=='edge') {
      edges[i].setAttribute('class','edge');
    }
  }
}
]]></script>
        <defs>
                <circle id="rim" cx="0" cy="0" r="7"/>
                <circle id="rim2" cx="0" cy="0" r="3.5"/>
                <g id="zoomPlus">
                        <use xlink:href="#rim" fill="#404040">
                                <set attributeName="fill" to="#808080" begin="zoomplus.mouseover" end="zoomplus.mouseout"/>
                        </use>
                        <path d="M-4,0h8M0,-4v8" fill="none" stroke="white" stroke-width="1.5" pointer-events="none"/>
                </g>
                <g id="zoomMin">
                        <use xlink:href="#rim" fill="#404040">
                                <set attributeName="fill" to="#808080" begin="zoomminus.mouseover" end="zoomminus.mouseout"/>
                        </use>
                        <path d="M-4,0h8" fill="none" stroke="white" stroke-width="1.5" pointer-events="none"/>
                </g>
                <g id="dirArrow">
                        <path fill="none" stroke="white" stroke-width="1.5" d="M0,-3.0v7 M-2.5,-0.5L0,-3.0L2.5,-0.5"/>
                </g>
               <g id="resetDef">
                       <use xlink:href="#rim2" fill="#404040">
                               <set attributeName="fill" to="#808080" begin="reset.mouseover" end="reset.mouseout"/>
                       </use>
               </g>
        </defs>

<script type="text/javascript">
var viewWidth = 1508;
var viewHeight = 136;
var sectionId = 'dynsection-3';
</script>
<script xlink:href="../../svgpan.js"/>
<svg id="graph" class="graph">
<g id="viewport">
<title>gameEngine.Data.TowerInfoObject.getImageLocation</title>
<polygon fill="white" stroke="none" points="-4,4 -4,-132 1504,-132 1504,4 -4,4"/>
<!-- Node1 -->
<g id="node1" class="node"><title>Node1</title>
<polygon fill="#bfbfbf" stroke="black" points="0.5,-24 0.5,-54 149.5,-54 149.5,-24 0.5,-24"/>
<text text-anchor="start" x="8.5" y="-42" font-family="Helvetica,sans-Serif" font-size="10.00">gameEngine.Data.TowerInfo</text>
<text text-anchor="middle" x="75" y="-31" font-family="Helvetica,sans-Serif" font-size="10.00">Object.getImageLocation</text>
</g>
<!-- Node2 -->
<g id="node2" class="node"><title>Node2</title>
<g id="a_node2"><a xlink:href="../../d1/d18/classgame_player_1_1gui_items_1_1tower_upgrade_1_1_tower_upgrade_panel.html#ab1a665d01bbeab4d6a954df1b4f6b10f" target="_top" xlink:title="gamePlayer.guiItems.tower\lUpgrade.TowerUpgradePanel.setCurrentTower">
<polygon fill="white" stroke="black" points="186,-24 186,-54 420,-54 420,-24 186,-24"/>
<text text-anchor="start" x="194" y="-42" font-family="Helvetica,sans-Serif" font-size="10.00">gamePlayer.guiItems.tower</text>
<text text-anchor="middle" x="303" y="-31" font-family="Helvetica,sans-Serif" font-size="10.00">Upgrade.TowerUpgradePanel.setCurrentTower</text>
</a>
</g>
</g>
<!-- Node1&#45;&gt;Node2 -->
<g id="edge1" class="edge"><title>Node1&#45;&gt;Node2</title>
<path fill="none" stroke="midnightblue" d="M159.886,-39C168.352,-39 177.053,-39 185.779,-39"/>
<polygon fill="midnightblue" stroke="midnightblue" points="159.688,-35.5001 149.688,-39 159.688,-42.5001 159.688,-35.5001"/>
</g>
<!-- Node3 -->
<g id="node3" class="node"><title>Node3</title>
<g id="a_node3"><a xlink:href="../../da/d69/classgame_player_1_1main_classes_1_1managers_1_1_gui_manager.html#ad5da35abd0e1b0f2938b85549703118e" target="_top" xlink:title="gamePlayer.mainClasses.managers.\lGuiManager.selectTower">
<polygon fill="white" stroke="black" points="456.5,-24 456.5,-54 647.5,-54 647.5,-24 456.5,-24"/>
<text text-anchor="start" x="464.5" y="-42" font-family="Helvetica,sans-Serif" font-size="10.00">gamePlayer.mainClasses.managers.</text>
<text text-anchor="middle" x="552" y="-31" font-family="Helvetica,sans-Serif" font-size="10.00">GuiManager.selectTower</text>
</a>
</g>
</g>
<!-- Node2&#45;&gt;Node3 -->
<g id="edge2" class="edge"><title>Node2&#45;&gt;Node3</title>
<path fill="none" stroke="midnightblue" d="M430.52,-39C439.254,-39 447.969,-39 456.488,-39"/>
<polygon fill="midnightblue" stroke="midnightblue" points="430.267,-35.5001 420.267,-39 430.267,-42.5001 430.267,-35.5001"/>
</g>
<!-- Node4 -->
<g id="node4" class="node"><title>Node4</title>
<g id="a_node4"><a xlink:href="../../da/d69/classgame_player_1_1main_classes_1_1managers_1_1_gui_manager.html#a162f5822f9bff033684bd28cada2f03e" target="_top" xlink:title="gamePlayer.mainClasses.managers.\lGuiManager.upgradeTower">
<polygon fill="white" stroke="black" points="684.5,-98 684.5,-128 875.5,-128 875.5,-98 684.5,-98"/>
<text text-anchor="start" x="692.5" y="-116" font-family="Helvetica,sans-Serif" font-size="10.00">gamePlayer.mainClasses.managers.</text>
<text text-anchor="middle" x="780" y="-105" font-family="Helvetica,sans-Serif" font-size="10.00">GuiManager.upgradeTower</text>
</a>
</g>
</g>
<!-- Node3&#45;&gt;Node4 -->
<g id="edge3" class="edge"><title>Node3&#45;&gt;Node4</title>
<path fill="none" stroke="midnightblue" d="M599.731,-57.7845C624.554,-67.4299 655.704,-79.01 684,-88 694.971,-91.4858 706.762,-94.8714 718.176,-97.9674"/>
<polygon fill="midnightblue" stroke="midnightblue" points="600.79,-54.4403 590.202,-54.0563 598.239,-60.9592 600.79,-54.4403"/>
</g>
<!-- Node5 -->
<g id="node5" class="node"><title>Node5</title>
<g id="a_node5"><a xlink:href="../../da/d69/classgame_player_1_1main_classes_1_1managers_1_1_gui_manager.html#a148dc947569bdc60c98be5a853cf82ee" target="_top" xlink:title="gamePlayer.mainClasses.managers.\lGuiManager.makeTower">
<polygon fill="white" stroke="black" points="684.5,-49 684.5,-79 875.5,-79 875.5,-49 684.5,-49"/>
<text text-anchor="start" x="692.5" y="-67" font-family="Helvetica,sans-Serif" font-size="10.00">gamePlayer.mainClasses.managers.</text>
<text text-anchor="middle" x="780" y="-56" font-family="Helvetica,sans-Serif" font-size="10.00">GuiManager.makeTower</text>
</a>
</g>
</g>
<!-- Node3&#45;&gt;Node5 -->
<g id="edge4" class="edge"><title>Node3&#45;&gt;Node5</title>
<path fill="none" stroke="midnightblue" d="M657.611,-50.572C666.572,-51.5633 675.605,-52.5624 684.48,-53.5443"/>
<polygon fill="midnightblue" stroke="midnightblue" points="657.859,-47.0782 647.535,-49.4574 657.089,-54.0358 657.859,-47.0782"/>
</g>
<!-- Node9 -->
<g id="node9" class="node"><title>Node9</title>
<g id="a_node9"><a xlink:href="../../da/d69/classgame_player_1_1main_classes_1_1managers_1_1_gui_manager.html#a3c54e67481646eaa1208a9f69cc1ea78" target="_top" xlink:title="gamePlayer.mainClasses.managers.\lGuiManager.deselectTower">
<polygon fill="white" stroke="black" points="684.5,-0 684.5,-30 875.5,-30 875.5,-0 684.5,-0"/>
<text text-anchor="start" x="692.5" y="-18" font-family="Helvetica,sans-Serif" font-size="10.00">gamePlayer.mainClasses.managers.</text>
<text text-anchor="middle" x="780" y="-7" font-family="Helvetica,sans-Serif" font-size="10.00">GuiManager.deselectTower</text>
</a>
</g>
</g>
<!-- Node3&#45;&gt;Node9 -->
<g id="edge8" class="edge"><title>Node3&#45;&gt;Node9</title>
<path fill="none" stroke="midnightblue" d="M643.479,-22.7622C656.899,-21.1916 670.761,-19.7056 684.266,-18.3893"/>
<polygon fill="midnightblue" stroke="midnightblue" points="642.829,-19.315 633.315,-23.9784 643.661,-26.2654 642.829,-19.315"/>
</g>
<!-- Node6 -->
<g id="node6" class="node"><title>Node6</title>
<g id="a_node6"><a xlink:href="../../db/d6b/classgame_player_1_1gui_features_1_1_tower_placer.html#a8a56e5205e61a12602015f880e47070c" target="_top" xlink:title="gamePlayer.guiFeatures.Tower\lPlacer.drop">
<polygon fill="white" stroke="black" points="912.5,-49 912.5,-79 1073.5,-79 1073.5,-49 912.5,-49"/>
<text text-anchor="start" x="920.5" y="-67" font-family="Helvetica,sans-Serif" font-size="10.00">gamePlayer.guiFeatures.Tower</text>
<text text-anchor="middle" x="993" y="-56" font-family="Helvetica,sans-Serif" font-size="10.00">Placer.drop</text>
</a>
</g>
</g>
<!-- Node5&#45;&gt;Node6 -->
<g id="edge5" class="edge"><title>Node5&#45;&gt;Node6</title>
<path fill="none" stroke="midnightblue" d="M885.795,-64C894.752,-64 903.715,-64 912.427,-64"/>
<polygon fill="midnightblue" stroke="midnightblue" points="885.699,-60.5001 875.699,-64 885.699,-67.5001 885.699,-60.5001"/>
</g>
<!-- Node7 -->
<g id="node7" class="node"><title>Node7</title>
<g id="a_node7"><a xlink:href="../../db/d6b/classgame_player_1_1gui_features_1_1_tower_placer.html#a2798d82694ca4f2a02b48f9516f0cd1b" target="_top" xlink:title="gamePlayer.guiFeatures.Tower\lPlacer.placeItem">
<polygon fill="white" stroke="black" points="1110.5,-49 1110.5,-79 1271.5,-79 1271.5,-49 1110.5,-49"/>
<text text-anchor="start" x="1118.5" y="-67" font-family="Helvetica,sans-Serif" font-size="10.00">gamePlayer.guiFeatures.Tower</text>
<text text-anchor="middle" x="1191" y="-56" font-family="Helvetica,sans-Serif" font-size="10.00">Placer.placeItem</text>
</a>
</g>
</g>
<!-- Node6&#45;&gt;Node7 -->
<g id="edge6" class="edge"><title>Node6&#45;&gt;Node7</title>
<path fill="none" stroke="midnightblue" d="M1083.99,-64C1092.78,-64 1101.67,-64 1110.35,-64"/>
<polygon fill="midnightblue" stroke="midnightblue" points="1083.72,-60.5001 1073.72,-64 1083.72,-67.5001 1083.72,-60.5001"/>
</g>
<!-- Node8 -->
<g id="node8" class="node"><title>Node8</title>
<g id="a_node8"><a xlink:href="../../da/d69/classgame_player_1_1main_classes_1_1managers_1_1_gui_manager.html#ae90e338dc9959e32627518bde3fdf2ff" target="_top" xlink:title="gamePlayer.mainClasses.managers.\lGuiManager.placeTower">
<polygon fill="white" stroke="black" points="1308.5,-49 1308.5,-79 1499.5,-79 1499.5,-49 1308.5,-49"/>
<text text-anchor="start" x="1316.5" y="-67" font-family="Helvetica,sans-Serif" font-size="10.00">gamePlayer.mainClasses.managers.</text>
<text text-anchor="middle" x="1404" y="-56" font-family="Helvetica,sans-Serif" font-size="10.00">GuiManager.placeTower</text>
</a>
</g>
</g>
<!-- Node7&#45;&gt;Node8 -->
<g id="edge7" class="edge"><title>Node7&#45;&gt;Node8</title>
<path fill="none" stroke="midnightblue" d="M1281.91,-64C1290.62,-64 1299.47,-64 1308.22,-64"/>
<polygon fill="midnightblue" stroke="midnightblue" points="1281.77,-60.5001 1271.77,-64 1281.77,-67.5001 1281.77,-60.5001"/>
</g>
<!-- Node9&#45;&gt;Node3 -->
<g id="edge9" class="edge"><title>Node9&#45;&gt;Node3</title>
<path fill="none" stroke="midnightblue" d="M688.59,-31.2297C675.082,-32.811 661.125,-34.3067 647.535,-35.6301"/>
<polygon fill="midnightblue" stroke="midnightblue" points="689.306,-34.6691 698.819,-30.0051 688.474,-27.7187 689.306,-34.6691"/>
</g>
</g>
</svg>
        <g id="navigator" transform="translate(0 0)" fill="#404254">
                <rect fill="#f2f5e9" fill-opacity="0.5" stroke="#606060" stroke-width=".5" x="0" y="0" width="60" height="60"/>
                <use id="zoomplus" xlink:href="#zoomPlus" x="17" y="9" onmousedown="handleZoom(evt,'in')"/>
                <use id="zoomminus" xlink:href="#zoomMin" x="42" y="9" onmousedown="handleZoom(evt,'out')"/>
                <use id="reset" xlink:href="#resetDef" x="30" y="36" onmousedown="handleReset()"/>
                <g id="arrowUp" xlink:href="#dirArrow" transform="translate(30 24)" onmousedown="handlePan(0,-1)">
                  <use xlink:href="#rim" fill="#404040">
                        <set attributeName="fill" to="#808080" begin="arrowUp.mouseover" end="arrowUp.mouseout"/>
                  </use>
                  <path fill="none" stroke="white" stroke-width="1.5" d="M0,-3.0v7 M-2.5,-0.5L0,-3.0L2.5,-0.5"/>
                </g>
                <g id="arrowRight" xlink:href="#dirArrow" transform="rotate(90) translate(36 -43)" onmousedown="handlePan(1,0)">
                  <use xlink:href="#rim" fill="#404040">
                        <set attributeName="fill" to="#808080" begin="arrowRight.mouseover" end="arrowRight.mouseout"/>
                  </use>
                  <path fill="none" stroke="white" stroke-width="1.5" d="M0,-3.0v7 M-2.5,-0.5L0,-3.0L2.5,-0.5"/>
                </g>
                <g id="arrowDown" xlink:href="#dirArrow" transform="rotate(180) translate(-30 -48)" onmousedown="handlePan(0,1)">
                  <use xlink:href="#rim" fill="#404040">
                        <set attributeName="fill" to="#808080" begin="arrowDown.mouseover" end="arrowDown.mouseout"/>
                  </use>
                  <path fill="none" stroke="white" stroke-width="1.5" d="M0,-3.0v7 M-2.5,-0.5L0,-3.0L2.5,-0.5"/>
                </g>
                <g id="arrowLeft" xlink:href="#dirArrow" transform="rotate(270) translate(-36 17)" onmousedown="handlePan(-1,0)">
                  <use xlink:href="#rim" fill="#404040">
                        <set attributeName="fill" to="#808080" begin="arrowLeft.mouseover" end="arrowLeft.mouseout"/>
                  </use>
                  <path fill="none" stroke="white" stroke-width="1.5" d="M0,-3.0v7 M-2.5,-0.5L0,-3.0L2.5,-0.5"/>
                </g>
        </g>
        <svg viewBox="0 0 15 15" width="100%" height="30px" preserveAspectRatio="xMaxYMin meet">
         <g id="arrow_out" transform="scale(0.3 0.3)">
          <a xlink:href="classgame_engine_1_1_data_1_1_tower_info_object_af130c92f07cfb719eb25c6b46117e02f_icgraph_org.svg" target="_base">
           <rect id="button" ry="5" rx="5" y="6" x="6" height="38" width="38"
                fill="#f2f5e9" fill-opacity="0.5" stroke="#606060" stroke-width="1.0"/>
           <path id="arrow"
             d="M 11.500037,31.436501 C 11.940474,20.09759 22.043105,11.32322 32.158766,21.979434 L 37.068811,17.246167 C 37.068811,17.246167 37.088388,32 37.088388,32 L 22.160133,31.978069 C 22.160133,31.978069 26.997745,27.140456 26.997745,27.140456 C 18.528582,18.264221 13.291696,25.230495 11.500037,31.436501 z"
             style="fill:#404040;"/>
          </a>
         </g>
        </svg>
</svg>
