<?xml version="1.0" encoding="UTF-8" standalone="no"?>
<!DOCTYPE svg PUBLIC "-//W3C//DTD SVG 1.1//EN"
 "http://www.w3.org/Graphics/SVG/1.1/DTD/svg11.dtd">
<!-- Generated by graphviz version 2.36.0 (20140111.2315)
 -->
<!-- Title: gameAuthoring.scenes.pathBuilding.buildingPanes.towerRegions.TowerRegionsPane.getBackendTowerRegions Pages: 1 -->
<svg width="480pt" height="48pt"
 viewBox="0.00 0.00 480.00 48.00" xmlns="http://www.w3.org/2000/svg" xmlns:xlink="http://www.w3.org/1999/xlink">
<g id="graph0" class="graph" transform="scale(1 1) rotate(0) translate(4 44)">
<title>gameAuthoring.scenes.pathBuilding.buildingPanes.towerRegions.TowerRegionsPane.getBackendTowerRegions</title>
<polygon fill="white" stroke="none" points="-4,4 -4,-44 476,-44 476,4 -4,4"/>
<!-- Node1 -->
<g id="node1" class="node"><title>Node1</title>
<polygon fill="#bfbfbf" stroke="black" points="0,0.5 0,-40.5 226,-40.5 226,0.5 0,0.5"/>
<text text-anchor="start" x="8" y="-28.5" font-family="Helvetica,sans-Serif" font-size="10.00">gameAuthoring.scenes.path</text>
<text text-anchor="start" x="8" y="-17.5" font-family="Helvetica,sans-Serif" font-size="10.00">Building.buildingPanes.towerRegions.</text>
<text text-anchor="middle" x="113" y="-6.5" font-family="Helvetica,sans-Serif" font-size="10.00">TowerRegionsPane.getBackendTowerRegions</text>
</g>
<!-- Node2 -->
<g id="node2" class="node"><title>Node2</title>
<g id="a_node2"><a xlink:href="../../de/d21/classgame_authoring_1_1scenes_1_1path_building_1_1building_panes_1_1tower_regions_1_1_tower_regions_pane.html#a82a4719f9f393d91d0d33ed9ef1cf2c6" target="_top" xlink:title="gameAuthoring.scenes.path\lBuilding.buildingPanes.towerRegions.\lTowerRegionsPane.generateBackendGrid">
<polygon fill="white" stroke="black" points="262,0.5 262,-40.5 472,-40.5 472,0.5 262,0.5"/>
<text text-anchor="start" x="270" y="-28.5" font-family="Helvetica,sans-Serif" font-size="10.00">gameAuthoring.scenes.path</text>
<text text-anchor="start" x="270" y="-17.5" font-family="Helvetica,sans-Serif" font-size="10.00">Building.buildingPanes.towerRegions.</text>
<text text-anchor="middle" x="367" y="-6.5" font-family="Helvetica,sans-Serif" font-size="10.00">TowerRegionsPane.generateBackendGrid</text>
</a>
</g>
</g>
<!-- Node1&#45;&gt;Node2 -->
<g id="edge1" class="edge"><title>Node1&#45;&gt;Node2</title>
<path fill="none" stroke="midnightblue" d="M226.366,-20C234.764,-20 243.243,-20 251.653,-20"/>
<polygon fill="midnightblue" stroke="midnightblue" points="251.866,-23.5001 261.866,-20 251.866,-16.5001 251.866,-23.5001"/>
</g>
</g>
</svg>
