<?xml version="1.0" encoding="UTF-8" standalone="no"?>
<!DOCTYPE svg PUBLIC "-//W3C//DTD SVG 1.1//EN"
 "http://www.w3.org/Graphics/SVG/1.1/DTD/svg11.dtd">
<!-- Generated by graphviz version 2.36.0 (20140111.2315)
 -->
<!-- Title: utilities.JavaFXutilities.DragAndDropFilePanes.imagePanes.DragAndDropImagePane Pages: 1 -->
<svg width="710pt" height="179pt"
 viewBox="0.00 0.00 710.00 179.00" xmlns="http://www.w3.org/2000/svg" xmlns:xlink="http://www.w3.org/1999/xlink">
<g id="graph0" class="graph" transform="scale(1 1) rotate(0) translate(4 175)">
<title>utilities.JavaFXutilities.DragAndDropFilePanes.imagePanes.DragAndDropImagePane</title>
<polygon fill="white" stroke="none" points="-4,4 -4,-175 706,-175 706,4 -4,4"/>
<!-- Node1 -->
<g id="node1" class="node"><title>Node1</title>
<polygon fill="#bfbfbf" stroke="black" points="512,-35.5 512,-76.5 702,-76.5 702,-35.5 512,-35.5"/>
<text text-anchor="start" x="520" y="-64.5" font-family="Helvetica,sans-Serif" font-size="10.00">utilities.JavaFXutilities.</text>
<text text-anchor="start" x="520" y="-53.5" font-family="Helvetica,sans-Serif" font-size="10.00">DragAndDropFilePanes.imagePanes.</text>
<text text-anchor="middle" x="607" y="-42.5" font-family="Helvetica,sans-Serif" font-size="10.00">DragAndDropImagePane</text>
</g>
<!-- Node2 -->
<g id="node2" class="node"><title>Node2</title>
<g id="a_node2"><a xlink:href="../../dc/d20/classutilities_1_1_java_f_xutilities_1_1_drag_and_drop_file_panes_1_1image_panes_1_1_drag_and_drop_file_pane.html" target="_top" xlink:title="utilities.JavaFXutilities.\lDragAndDropFilePanes.imagePanes.\lDragAndDropFilePane">
<polygon fill="white" stroke="black" points="216,-94.5 216,-135.5 406,-135.5 406,-94.5 216,-94.5"/>
<text text-anchor="start" x="224" y="-123.5" font-family="Helvetica,sans-Serif" font-size="10.00">utilities.JavaFXutilities.</text>
<text text-anchor="start" x="224" y="-112.5" font-family="Helvetica,sans-Serif" font-size="10.00">DragAndDropFilePanes.imagePanes.</text>
<text text-anchor="middle" x="311" y="-101.5" font-family="Helvetica,sans-Serif" font-size="10.00">DragAndDropFilePane</text>
</a>
</g>
</g>
<!-- Node2&#45;&gt;Node1 -->
<g id="edge1" class="edge"><title>Node2&#45;&gt;Node1</title>
<path fill="none" stroke="midnightblue" d="M416.241,-94.0808C447.385,-87.831 481.332,-81.0183 511.793,-74.9055"/>
<polygon fill="midnightblue" stroke="midnightblue" points="415.352,-90.6893 406.237,-96.0886 416.73,-97.5525 415.352,-90.6893"/>
</g>
<!-- Node3 -->
<g id="node3" class="node"><title>Node3</title>
<polygon fill="white" stroke="#bfbfbf" points="0.5,-151.5 0.5,-170.5 71.5,-170.5 71.5,-151.5 0.5,-151.5"/>
<text text-anchor="middle" x="36" y="-158.5" font-family="Helvetica,sans-Serif" font-size="10.00">Observable</text>
</g>
<!-- Node3&#45;&gt;Node2 -->
<g id="edge2" class="edge"><title>Node3&#45;&gt;Node2</title>
<path fill="none" stroke="midnightblue" d="M81.8889,-159.401C114.356,-157.687 159.162,-154.169 198,-147 213.71,-144.1 230.39,-139.943 245.945,-135.58"/>
<polygon fill="midnightblue" stroke="midnightblue" points="81.6204,-155.91 71.8043,-159.897 81.9641,-162.902 81.6204,-155.91"/>
</g>
<!-- Node4 -->
<g id="node4" class="node"><title>Node4</title>
<polygon fill="white" stroke="#bfbfbf" points="15.5,-113.5 15.5,-132.5 56.5,-132.5 56.5,-113.5 15.5,-113.5"/>
<text text-anchor="middle" x="36" y="-120.5" font-family="Helvetica,sans-Serif" font-size="10.00">VBox</text>
</g>
<!-- Node4&#45;&gt;Node2 -->
<g id="edge3" class="edge"><title>Node4&#45;&gt;Node2</title>
<path fill="none" stroke="#9a32cd" stroke-dasharray="5,2" d="M66.8188,-122.126C102.418,-121.083 163.69,-119.287 215.822,-117.76"/>
<polygon fill="#9a32cd" stroke="#9a32cd" points="66.5266,-118.633 56.6335,-122.425 66.7317,-125.63 66.5266,-118.633"/>
<text text-anchor="middle" x="144" y="-135" font-family="Helvetica,sans-Serif" font-size="10.00"> myDragAndDropPane</text>
<text text-anchor="middle" x="144" y="-124" font-family="Helvetica,sans-Serif" font-size="10.00">myContainer</text>
</g>
<!-- Node5 -->
<g id="node5" class="node"><title>Node5</title>
<polygon fill="white" stroke="#bfbfbf" points="20,-61.5 20,-80.5 52,-80.5 52,-61.5 20,-61.5"/>
<text text-anchor="middle" x="36" y="-68.5" font-family="Helvetica,sans-Serif" font-size="10.00">File</text>
</g>
<!-- Node5&#45;&gt;Node1 -->
<g id="edge6" class="edge"><title>Node5&#45;&gt;Node1</title>
<path fill="none" stroke="#9a32cd" stroke-dasharray="5,2" d="M62.5242,-70.3271C140.431,-68.2733 377.977,-62.0112 511.794,-58.4835"/>
<polygon fill="#9a32cd" stroke="#9a32cd" points="62.1236,-66.8364 52.2194,-70.5988 62.3082,-73.8339 62.1236,-66.8364"/>
<text text-anchor="middle" x="311" y="-69" font-family="Helvetica,sans-Serif" font-size="10.00"> myFile</text>
</g>
<!-- Node5&#45;&gt;Node2 -->
<g id="edge4" class="edge"><title>Node5&#45;&gt;Node2</title>
<path fill="none" stroke="#9a32cd" stroke-dasharray="5,2" d="M62.2476,-75.0692C96.9697,-80.6654 161.351,-91.0419 215.78,-99.8144"/>
<polygon fill="#9a32cd" stroke="#9a32cd" points="62.4961,-71.5642 52.0665,-73.4283 61.3822,-78.475 62.4961,-71.5642"/>
<text text-anchor="middle" x="144" y="-99" font-family="Helvetica,sans-Serif" font-size="10.00"> myFile</text>
</g>
<!-- Node6 -->
<g id="node6" class="node"><title>Node6</title>
<polygon fill="white" stroke="#bfbfbf" points="277,-0.5 277,-19.5 345,-19.5 345,-0.5 277,-0.5"/>
<text text-anchor="middle" x="311" y="-7.5" font-family="Helvetica,sans-Serif" font-size="10.00">ImageView</text>
</g>
<!-- Node6&#45;&gt;Node1 -->
<g id="edge5" class="edge"><title>Node6&#45;&gt;Node1</title>
<path fill="none" stroke="#9a32cd" stroke-dasharray="5,2" d="M355.443,-13.7224C392.429,-17.1994 446.9,-23.0485 494,-31 501.858,-32.3266 509.995,-33.849 518.131,-35.4736"/>
<polygon fill="#9a32cd" stroke="#9a32cd" points="355.304,-10.1949 345.025,-12.7623 354.662,-17.1653 355.304,-10.1949"/>
<text text-anchor="middle" x="459" y="-34" font-family="Helvetica,sans-Serif" font-size="10.00"> myImageView</text>
</g>
</g>
</svg>
