<?xml version="1.0" encoding="UTF-8" standalone="no"?>
<!DOCTYPE svg PUBLIC "-//W3C//DTD SVG 1.1//EN"
 "http://www.w3.org/Graphics/SVG/1.1/DTD/svg11.dtd">
<!-- Generated by graphviz version 2.36.0 (20140111.2315)
 -->
<!-- Title: gameAuthoring.scenes.actorBuildingScenes.ProjectilePane.update Pages: 1 -->
<svg width="430pt" height="48pt"
 viewBox="0.00 0.00 430.00 48.00" xmlns="http://www.w3.org/2000/svg" xmlns:xlink="http://www.w3.org/1999/xlink">
<g id="graph0" class="graph" transform="scale(1 1) rotate(0) translate(4 44)">
<title>gameAuthoring.scenes.actorBuildingScenes.ProjectilePane.update</title>
<polygon fill="white" stroke="none" points="-4,4 -4,-44 426,-44 426,4 -4,4"/>
<!-- Node1 -->
<g id="node1" class="node"><title>Node1</title>
<polygon fill="#bfbfbf" stroke="black" points="0,-5 0,-35 196,-35 196,-5 0,-5"/>
<text text-anchor="start" x="8" y="-23" font-family="Helvetica,sans-Serif" font-size="10.00">gameAuthoring.scenes.actor</text>
<text text-anchor="middle" x="98" y="-12" font-family="Helvetica,sans-Serif" font-size="10.00">BuildingScenes.ProjectilePane.update</text>
</g>
<!-- Node2 -->
<g id="node2" class="node"><title>Node2</title>
<g id="a_node2"><a xlink:href="../../dc/d20/classutilities_1_1_java_f_xutilities_1_1_drag_and_drop_file_panes_1_1image_panes_1_1_drag_and_drop_file_pane.html#a22d6f246777b35474dfb4a1766d5e225" target="_top" xlink:title="utilities.JavaFXutilities.\lDragAndDropFilePanes.imagePanes.\lDragAndDropFilePane.getPane">
<polygon fill="white" stroke="black" points="232,0.5 232,-40.5 422,-40.5 422,0.5 232,0.5"/>
<text text-anchor="start" x="240" y="-28.5" font-family="Helvetica,sans-Serif" font-size="10.00">utilities.JavaFXutilities.</text>
<text text-anchor="start" x="240" y="-17.5" font-family="Helvetica,sans-Serif" font-size="10.00">DragAndDropFilePanes.imagePanes.</text>
<text text-anchor="middle" x="327" y="-6.5" font-family="Helvetica,sans-Serif" font-size="10.00">DragAndDropFilePane.getPane</text>
</a>
</g>
</g>
<!-- Node1&#45;&gt;Node2 -->
<g id="edge1" class="edge"><title>Node1&#45;&gt;Node2</title>
<path fill="none" stroke="midnightblue" d="M196.256,-20C204.64,-20 213.145,-20 221.582,-20"/>
<polygon fill="midnightblue" stroke="midnightblue" points="221.828,-23.5001 231.828,-20 221.828,-16.5001 221.828,-23.5001"/>
</g>
</g>
</svg>
