<?xml version="1.0" encoding="UTF-8" standalone="no"?>
<!DOCTYPE svg PUBLIC "-//W3C//DTD SVG 1.1//EN"
 "http://www.w3.org/Graphics/SVG/1.1/DTD/svg11.dtd">
<!-- Generated by graphviz version 2.36.0 (20140111.2315)
 -->
<!-- Title: gameEngine.actors.RealActor.spawnProjectile Pages: 1 -->
<svg width="614pt" height="38pt"
 viewBox="0.00 0.00 614.00 38.00" xmlns="http://www.w3.org/2000/svg" xmlns:xlink="http://www.w3.org/1999/xlink">
<g id="graph0" class="graph" transform="scale(1 1) rotate(0) translate(4 34)">
<title>gameEngine.actors.RealActor.spawnProjectile</title>
<polygon fill="white" stroke="none" points="-4,4 -4,-34 610,-34 610,4 -4,4"/>
<!-- Node1 -->
<g id="node1" class="node"><title>Node1</title>
<polygon fill="#bfbfbf" stroke="black" points="0,-0 0,-30 190,-30 190,-0 0,-0"/>
<text text-anchor="start" x="8" y="-18" font-family="Helvetica,sans-Serif" font-size="10.00">gameEngine.actors.RealActor.spawn</text>
<text text-anchor="middle" x="95" y="-7" font-family="Helvetica,sans-Serif" font-size="10.00">Projectile</text>
</g>
<!-- Node2 -->
<g id="node2" class="node"><title>Node2</title>
<g id="a_node2"><a xlink:href="../../d9/d41/classgame_engine_1_1actors_1_1behaviors_1_1_range_attack.html#ad01ed9c7d2605735948e6a8b0d1a9485" target="_top" xlink:title="gameEngine.actors.behaviors.\lRangeAttack.shootActorFromActor">
<polygon fill="white" stroke="black" points="226,-0 226,-30 408,-30 408,-0 226,-0"/>
<text text-anchor="start" x="234" y="-18" font-family="Helvetica,sans-Serif" font-size="10.00">gameEngine.actors.behaviors.</text>
<text text-anchor="middle" x="317" y="-7" font-family="Helvetica,sans-Serif" font-size="10.00">RangeAttack.shootActorFromActor</text>
</a>
</g>
</g>
<!-- Node1&#45;&gt;Node2 -->
<g id="edge1" class="edge"><title>Node1&#45;&gt;Node2</title>
<path fill="none" stroke="midnightblue" d="M200.52,-15C208.962,-15 217.448,-15 225.777,-15"/>
<polygon fill="midnightblue" stroke="midnightblue" points="200.257,-11.5001 190.257,-15 200.257,-18.5001 200.257,-11.5001"/>
</g>
<!-- Node3 -->
<g id="node3" class="node"><title>Node3</title>
<g id="a_node3"><a xlink:href="../../d9/d41/classgame_engine_1_1actors_1_1behaviors_1_1_range_attack.html#adce033b0e318665ad52cde7c985b8538" target="_top" xlink:title="gameEngine.actors.behaviors.\lRangeAttack.performAttack">
<polygon fill="white" stroke="black" points="444,-0 444,-30 606,-30 606,-0 444,-0"/>
<text text-anchor="start" x="452" y="-18" font-family="Helvetica,sans-Serif" font-size="10.00">gameEngine.actors.behaviors.</text>
<text text-anchor="middle" x="525" y="-7" font-family="Helvetica,sans-Serif" font-size="10.00">RangeAttack.performAttack</text>
</a>
</g>
</g>
<!-- Node2&#45;&gt;Node3 -->
<g id="edge2" class="edge"><title>Node2&#45;&gt;Node3</title>
<path fill="none" stroke="midnightblue" d="M418.144,-15C426.762,-15 435.406,-15 443.835,-15"/>
<polygon fill="midnightblue" stroke="midnightblue" points="418.055,-11.5001 408.055,-15 418.055,-18.5001 418.055,-11.5001"/>
</g>
</g>
</svg>
