<?xml version="1.0" encoding="UTF-8" standalone="no"?>
<!DOCTYPE svg PUBLIC "-//W3C//DTD SVG 1.1//EN"
 "http://www.w3.org/Graphics/SVG/1.1/DTD/svg11.dtd">
<!-- Generated by graphviz version 2.36.0 (20140111.2315)
 -->
<!-- Title: gameAuthoring.scenes.levelBuilding.LevelDisplayCell.createLevelInfoBox Pages: 1 -->
<svg width="606pt" height="103pt"
 viewBox="0.00 0.00 606.00 103.00" xmlns="http://www.w3.org/2000/svg" xmlns:xlink="http://www.w3.org/1999/xlink">
<g id="graph0" class="graph" transform="scale(1 1) rotate(0) translate(4 99)">
<title>gameAuthoring.scenes.levelBuilding.LevelDisplayCell.createLevelInfoBox</title>
<polygon fill="white" stroke="none" points="-4,4 -4,-99 602,-99 602,4 -4,4"/>
<!-- Node1 -->
<g id="node1" class="node"><title>Node1</title>
<polygon fill="#bfbfbf" stroke="black" points="0.5,-26.5 0.5,-67.5 167.5,-67.5 167.5,-26.5 0.5,-26.5"/>
<text text-anchor="start" x="8.5" y="-55.5" font-family="Helvetica,sans-Serif" font-size="10.00">gameAuthoring.scenes.level</text>
<text text-anchor="start" x="8.5" y="-44.5" font-family="Helvetica,sans-Serif" font-size="10.00">Building.LevelDisplayCell.create</text>
<text text-anchor="middle" x="84" y="-33.5" font-family="Helvetica,sans-Serif" font-size="10.00">LevelInfoBox</text>
</g>
<!-- Node2 -->
<g id="node2" class="node"><title>Node2</title>
<g id="a_node2"><a xlink:href="../../dc/d2e/classutilities_1_1multilanguage_1_1_multi_language_utility.html#aaa34262e5a69e5d96d435c4f9872e544" target="_top" xlink:title="utilities.multilanguage.\lMultiLanguageUtility.getInstance">
<polygon fill="white" stroke="black" points="204.5,-59 204.5,-89 375.5,-89 375.5,-59 204.5,-59"/>
<text text-anchor="start" x="212.5" y="-77" font-family="Helvetica,sans-Serif" font-size="10.00">utilities.multilanguage.</text>
<text text-anchor="middle" x="290" y="-66" font-family="Helvetica,sans-Serif" font-size="10.00">MultiLanguageUtility.getInstance</text>
</a>
</g>
</g>
<!-- Node1&#45;&gt;Node2 -->
<g id="edge1" class="edge"><title>Node1&#45;&gt;Node2</title>
<path fill="none" stroke="midnightblue" d="M167.681,-57.943C176.427,-59.1007 185.371,-60.2844 194.241,-61.4584"/>
<polygon fill="midnightblue" stroke="midnightblue" points="193.837,-64.9354 204.21,-62.7778 194.756,-57.9959 193.837,-64.9354"/>
</g>
<!-- Node4 -->
<g id="node4" class="node"><title>Node4</title>
<g id="a_node4"><a xlink:href="../../dc/d2e/classutilities_1_1multilanguage_1_1_multi_language_utility.html#a6bc704aa624d0bc11d5f18717ef5842a" target="_top" xlink:title="utilities.multilanguage.\lMultiLanguageUtility.getString\lProperty">
<polygon fill="white" stroke="black" points="210.5,0.5 210.5,-40.5 369.5,-40.5 369.5,0.5 210.5,0.5"/>
<text text-anchor="start" x="218.5" y="-28.5" font-family="Helvetica,sans-Serif" font-size="10.00">utilities.multilanguage.</text>
<text text-anchor="start" x="218.5" y="-17.5" font-family="Helvetica,sans-Serif" font-size="10.00">MultiLanguageUtility.getString</text>
<text text-anchor="middle" x="290" y="-6.5" font-family="Helvetica,sans-Serif" font-size="10.00">Property</text>
</a>
</g>
</g>
<!-- Node1&#45;&gt;Node4 -->
<g id="edge3" class="edge"><title>Node1&#45;&gt;Node4</title>
<path fill="none" stroke="midnightblue" d="M167.681,-36.057C178.504,-34.6244 189.629,-33.152 200.544,-31.7075"/>
<polygon fill="midnightblue" stroke="midnightblue" points="201.039,-35.1725 210.493,-30.3906 200.12,-28.2331 201.039,-35.1725"/>
</g>
<!-- Node3 -->
<g id="node3" class="node"><title>Node3</title>
<g id="a_node3"><a xlink:href="../../dc/d2e/classutilities_1_1multilanguage_1_1_multi_language_utility.html#a18c8cee78f923458998009428cd84970" target="_top" xlink:title="utilities.multilanguage.\lMultiLanguageUtility.MultiLanguage\lUtility">
<polygon fill="white" stroke="black" points="412.5,-53.5 412.5,-94.5 597.5,-94.5 597.5,-53.5 412.5,-53.5"/>
<text text-anchor="start" x="420.5" y="-82.5" font-family="Helvetica,sans-Serif" font-size="10.00">utilities.multilanguage.</text>
<text text-anchor="start" x="420.5" y="-71.5" font-family="Helvetica,sans-Serif" font-size="10.00">MultiLanguageUtility.MultiLanguage</text>
<text text-anchor="middle" x="505" y="-60.5" font-family="Helvetica,sans-Serif" font-size="10.00">Utility</text>
</a>
</g>
</g>
<!-- Node2&#45;&gt;Node3 -->
<g id="edge2" class="edge"><title>Node2&#45;&gt;Node3</title>
<path fill="none" stroke="midnightblue" d="M375.795,-74C384.384,-74 393.169,-74 401.915,-74"/>
<polygon fill="midnightblue" stroke="midnightblue" points="402.149,-77.5001 412.149,-74 402.149,-70.5001 402.149,-77.5001"/>
</g>
<!-- Node5 -->
<g id="node5" class="node"><title>Node5</title>
<g id="a_node5"><a xlink:href="../../dc/d2e/classutilities_1_1multilanguage_1_1_multi_language_utility.html#a124b4a760f410841ecc50dd4b16e40bb" target="_top" xlink:title="utilities.multilanguage.\lMultiLanguageUtility.getProperty">
<polygon fill="white" stroke="black" points="419.5,-5 419.5,-35 590.5,-35 590.5,-5 419.5,-5"/>
<text text-anchor="start" x="427.5" y="-23" font-family="Helvetica,sans-Serif" font-size="10.00">utilities.multilanguage.</text>
<text text-anchor="middle" x="505" y="-12" font-family="Helvetica,sans-Serif" font-size="10.00">MultiLanguageUtility.getProperty</text>
</a>
</g>
</g>
<!-- Node4&#45;&gt;Node5 -->
<g id="edge4" class="edge"><title>Node4&#45;&gt;Node5</title>
<path fill="none" stroke="midnightblue" d="M369.708,-20C382.551,-20 395.974,-20 409.156,-20"/>
<polygon fill="midnightblue" stroke="midnightblue" points="409.176,-23.5001 419.176,-20 409.176,-16.5001 409.176,-23.5001"/>
</g>
</g>
</svg>
