<?xml version="1.0" encoding="UTF-8" standalone="no"?>
<!DOCTYPE svg PUBLIC "-//W3C//DTD SVG 1.1//EN"
 "http://www.w3.org/Graphics/SVG/1.1/DTD/svg11.dtd">
<!-- Generated by graphviz version 2.36.0 (20140111.2315)
 -->
<!-- Title: gameAuthoring.scenes.levelBuilding.LevelDisplayCell.generateLevel Pages: 1 -->
<svg width="698pt" height="163pt"
 viewBox="0.00 0.00 698.00 163.00" xmlns="http://www.w3.org/2000/svg" xmlns:xlink="http://www.w3.org/1999/xlink">
<g id="graph0" class="graph" transform="scale(1 1) rotate(0) translate(4 159)">
<title>gameAuthoring.scenes.levelBuilding.LevelDisplayCell.generateLevel</title>
<polygon fill="white" stroke="none" points="-4,4 -4,-159 694,-159 694,4 -4,4"/>
<!-- Node1 -->
<g id="node1" class="node"><title>Node1</title>
<polygon fill="#bfbfbf" stroke="black" points="0.5,-49 0.5,-79 205.5,-79 205.5,-49 0.5,-49"/>
<text text-anchor="start" x="8.5" y="-67" font-family="Helvetica,sans-Serif" font-size="10.00">gameAuthoring.scenes.level</text>
<text text-anchor="middle" x="103" y="-56" font-family="Helvetica,sans-Serif" font-size="10.00">Building.LevelDisplayCell.generateLevel</text>
</g>
<!-- Node2 -->
<g id="node2" class="node"><title>Node2</title>
<g id="a_node2"><a xlink:href="../../da/dc8/classgame_engine_1_1levels_1_1_base_level.html#a3bb35c46c9b89cd4492d361f3b698c10" target="_top" xlink:title="gameEngine.levels.BaseLevel.add\lEnemyCountPair">
<polygon fill="white" stroke="black" points="258.5,-98 258.5,-128 437.5,-128 437.5,-98 258.5,-98"/>
<text text-anchor="start" x="266.5" y="-116" font-family="Helvetica,sans-Serif" font-size="10.00">gameEngine.levels.BaseLevel.add</text>
<text text-anchor="middle" x="348" y="-105" font-family="Helvetica,sans-Serif" font-size="10.00">EnemyCountPair</text>
</a>
</g>
</g>
<!-- Node1&#45;&gt;Node2 -->
<g id="edge1" class="edge"><title>Node1&#45;&gt;Node2</title>
<path fill="none" stroke="midnightblue" d="M178.559,-79.0346C205.15,-84.3965 235.285,-90.4731 262.641,-95.9892"/>
<polygon fill="midnightblue" stroke="midnightblue" points="262.087,-99.448 272.582,-97.9938 263.471,-92.5861 262.087,-99.448"/>
</g>
<!-- Node5 -->
<g id="node5" class="node"><title>Node5</title>
<g id="a_node5"><a xlink:href="../../dc/dc4/classutilities_1_1_java_f_xutilities_1_1numerical_text_fields_1_1_numerical_text_field.html#a9845b092d6d88a4a2322ee2394eab870" target="_top" xlink:title="utilities.JavaFXutilities.numerical\lTextFields.NumericalTextField.getNumber">
<polygon fill="white" stroke="black" points="242.5,-49 242.5,-79 453.5,-79 453.5,-49 242.5,-49"/>
<text text-anchor="start" x="250.5" y="-67" font-family="Helvetica,sans-Serif" font-size="10.00">utilities.JavaFXutilities.numerical</text>
<text text-anchor="middle" x="348" y="-56" font-family="Helvetica,sans-Serif" font-size="10.00">TextFields.NumericalTextField.getNumber</text>
</a>
</g>
</g>
<!-- Node1&#45;&gt;Node5 -->
<g id="edge4" class="edge"><title>Node1&#45;&gt;Node5</title>
<path fill="none" stroke="midnightblue" d="M205.646,-64C214.339,-64 223.172,-64 231.96,-64"/>
<polygon fill="midnightblue" stroke="midnightblue" points="232.244,-67.5001 242.244,-64 232.244,-60.5001 232.244,-67.5001"/>
</g>
<!-- Node6 -->
<g id="node6" class="node"><title>Node6</title>
<g id="a_node6"><a xlink:href="../../da/dc8/classgame_engine_1_1levels_1_1_base_level.html#aac4c45cdcc8fbea07503dea2d7ae54f7" target="_top" xlink:title="gameEngine.levels.BaseLevel.set\lDuration">
<polygon fill="white" stroke="black" points="260,-0 260,-30 436,-30 436,-0 260,-0"/>
<text text-anchor="start" x="268" y="-18" font-family="Helvetica,sans-Serif" font-size="10.00">gameEngine.levels.BaseLevel.set</text>
<text text-anchor="middle" x="348" y="-7" font-family="Helvetica,sans-Serif" font-size="10.00">Duration</text>
</a>
</g>
</g>
<!-- Node1&#45;&gt;Node6 -->
<g id="edge5" class="edge"><title>Node1&#45;&gt;Node6</title>
<path fill="none" stroke="midnightblue" d="M178.559,-48.9654C205.15,-43.6035 235.285,-37.5269 262.641,-32.0108"/>
<polygon fill="midnightblue" stroke="midnightblue" points="263.471,-35.4139 272.582,-30.0062 262.087,-28.552 263.471,-35.4139"/>
</g>
<!-- Node3 -->
<g id="node3" class="node"><title>Node3</title>
<g id="a_node3"><a xlink:href="../../d5/d5e/classgame_authoring_1_1scenes_1_1level_building_1_1_enemy_count_pair.html#a169d821bf2463b1007a219ce2354fc8a" target="_top" xlink:title="gameAuthoring.scenes.level\lBuilding.EnemyCountPair.getMyEnemy">
<polygon fill="white" stroke="black" points="490,-125 490,-155 690,-155 690,-125 490,-125"/>
<text text-anchor="start" x="498" y="-143" font-family="Helvetica,sans-Serif" font-size="10.00">gameAuthoring.scenes.level</text>
<text text-anchor="middle" x="590" y="-132" font-family="Helvetica,sans-Serif" font-size="10.00">Building.EnemyCountPair.getMyEnemy</text>
</a>
</g>
</g>
<!-- Node2&#45;&gt;Node3 -->
<g id="edge2" class="edge"><title>Node2&#45;&gt;Node3</title>
<path fill="none" stroke="midnightblue" d="M437.685,-122.977C451.331,-124.512 465.558,-126.113 479.591,-127.691"/>
<polygon fill="midnightblue" stroke="midnightblue" points="479.434,-131.196 489.763,-128.836 480.217,-124.24 479.434,-131.196"/>
</g>
<!-- Node4 -->
<g id="node4" class="node"><title>Node4</title>
<g id="a_node4"><a xlink:href="../../d5/d5e/classgame_authoring_1_1scenes_1_1level_building_1_1_enemy_count_pair.html#a88c8e3029e6be3a38a7d7b8252d13fab" target="_top" xlink:title="gameAuthoring.scenes.level\lBuilding.EnemyCountPair.getMyNum\lEnemies">
<polygon fill="white" stroke="black" points="494.5,-65.5 494.5,-106.5 685.5,-106.5 685.5,-65.5 494.5,-65.5"/>
<text text-anchor="start" x="502.5" y="-94.5" font-family="Helvetica,sans-Serif" font-size="10.00">gameAuthoring.scenes.level</text>
<text text-anchor="start" x="502.5" y="-83.5" font-family="Helvetica,sans-Serif" font-size="10.00">Building.EnemyCountPair.getMyNum</text>
<text text-anchor="middle" x="590" y="-72.5" font-family="Helvetica,sans-Serif" font-size="10.00">Enemies</text>
</a>
</g>
</g>
<!-- Node2&#45;&gt;Node4 -->
<g id="edge3" class="edge"><title>Node2&#45;&gt;Node4</title>
<path fill="none" stroke="midnightblue" d="M437.685,-103.023C452.801,-101.322 468.63,-99.5416 484.117,-97.7993"/>
<polygon fill="midnightblue" stroke="midnightblue" points="484.688,-101.257 494.234,-96.6611 483.906,-94.3011 484.688,-101.257"/>
</g>
</g>
</svg>
