<?xml version="1.0" encoding="UTF-8" standalone="no"?>
<!DOCTYPE svg PUBLIC "-//W3C//DTD SVG 1.1//EN"
 "http://www.w3.org/Graphics/SVG/1.1/DTD/svg11.dtd">
<!-- Generated by graphviz version 2.36.0 (20140111.2315)
 -->
<!-- Title: gameEngine.Data.NullTowerInfoObject Pages: 1 -->
<svg width="234pt" height="110pt"
 viewBox="0.00 0.00 234.00 110.00" xmlns="http://www.w3.org/2000/svg" xmlns:xlink="http://www.w3.org/1999/xlink">
<g id="graph0" class="graph" transform="scale(1 1) rotate(0) translate(4 106)">
<title>gameEngine.Data.NullTowerInfoObject</title>
<polygon fill="white" stroke="none" points="-4,4 -4,-106 230,-106 230,4 -4,4"/>
<!-- Node1 -->
<g id="node1" class="node"><title>Node1</title>
<polygon fill="#bfbfbf" stroke="black" points="-1,-1 -1,-31 149,-31 149,-1 -1,-1"/>
<text text-anchor="start" x="7" y="-19" font-family="Helvetica,sans-Serif" font-size="10.00">gameEngine.Data.NullTower</text>
<text text-anchor="middle" x="74" y="-8" font-family="Helvetica,sans-Serif" font-size="10.00">InfoObject</text>
</g>
<!-- Node2 -->
<g id="node2" class="node"><title>Node2</title>
<g id="a_node2"><a xlink:href="../../d2/dae/classgame_engine_1_1_data_1_1_tower_info_object.html" target="_top" xlink:title="gameEngine.Data.TowerInfo\lObject">
<polygon fill="white" stroke="black" points="-0.5,-71 -0.5,-101 148.5,-101 148.5,-71 -0.5,-71"/>
<text text-anchor="start" x="7.5" y="-89" font-family="Helvetica,sans-Serif" font-size="10.00">gameEngine.Data.TowerInfo</text>
<text text-anchor="middle" x="74" y="-78" font-family="Helvetica,sans-Serif" font-size="10.00">Object</text>
</a>
</g>
</g>
<!-- Node2&#45;&gt;Node1 -->
<g id="edge1" class="edge"><title>Node2&#45;&gt;Node1</title>
<path fill="none" stroke="midnightblue" d="M74,-60.7688C74,-50.8141 74,-39.6384 74,-31.0716"/>
<polygon fill="midnightblue" stroke="midnightblue" points="70.5001,-60.9103 74,-70.9104 77.5001,-60.9104 70.5001,-60.9103"/>
</g>
<!-- Node2&#45;&gt;Node2 -->
<g id="edge2" class="edge"><title>Node2&#45;&gt;Node2</title>
<path fill="none" stroke="#9a32cd" stroke-dasharray="5,2" d="M158.74,-90.2299C163.296,-89.1946 166,-87.7847 166,-86 166,-83.1445 159.078,-81.2483 148.723,-80.3114"/>
<polygon fill="#9a32cd" stroke="#9a32cd" points="158.114,-86.7841 148.723,-91.6886 159.123,-93.711 158.114,-86.7841"/>
<text text-anchor="middle" x="196" y="-83.5" font-family="Helvetica,sans-Serif" font-size="10.00"> myUpgrade</text>
</g>
</g>
</svg>
