<?xml version="1.0" encoding="UTF-8" standalone="no"?>
<!DOCTYPE svg PUBLIC "-//W3C//DTD SVG 1.1//EN"
 "http://www.w3.org/Graphics/SVG/1.1/DTD/svg11.dtd">
<!-- Generated by graphviz version 2.36.0 (20140111.2315)
 -->
<!-- Title: gamePlayer.guiContainers.secondaryContainers.ControlDock Pages: 1 -->
<svg width="241pt" height="176pt"
 viewBox="0.00 0.00 241.00 176.00" xmlns="http://www.w3.org/2000/svg" xmlns:xlink="http://www.w3.org/1999/xlink">
<g id="graph0" class="graph" transform="scale(1 1) rotate(0) translate(4 172)">
<title>gamePlayer.guiContainers.secondaryContainers.ControlDock</title>
<polygon fill="white" stroke="none" points="-4,4 -4,-172 237,-172 237,4 -4,4"/>
<!-- Node1 -->
<g id="node1" class="node"><title>Node1</title>
<polygon fill="#bfbfbf" stroke="black" points="-1,-1 -1,-31 193,-31 193,-1 -1,-1"/>
<text text-anchor="start" x="7" y="-19" font-family="Helvetica,sans-Serif" font-size="10.00">gamePlayer.guiContainers.secondary</text>
<text text-anchor="middle" x="96" y="-8" font-family="Helvetica,sans-Serif" font-size="10.00">Containers.ControlDock</text>
</g>
<!-- Node2 -->
<g id="node2" class="node"><title>Node2</title>
<polygon fill="white" stroke="#bfbfbf" points="9,-74.5 9,-93.5 65,-93.5 65,-74.5 9,-74.5"/>
<text text-anchor="middle" x="37" y="-81.5" font-family="Helvetica,sans-Serif" font-size="10.00">TilePane</text>
</g>
<!-- Node2&#45;&gt;Node1 -->
<g id="edge1" class="edge"><title>Node2&#45;&gt;Node1</title>
<path fill="none" stroke="midnightblue" d="M51.483,-66.7987C61.2348,-55.8898 73.9722,-41.6413 83.3226,-31.1815"/>
<polygon fill="midnightblue" stroke="midnightblue" points="48.7685,-64.5836 44.7132,-74.3717 53.9873,-69.2489 48.7685,-64.5836"/>
</g>
<!-- Node3 -->
<g id="node3" class="node"><title>Node3</title>
<g id="a_node3"><a xlink:href="../../dd/da3/interfacegame_player_1_1gui_containers_1_1_gui_container.html" target="_top" xlink:title="gamePlayer.guiContainers.\lGuiContainer">
<polygon fill="white" stroke="black" points="83.5,-69 83.5,-99 228.5,-99 228.5,-69 83.5,-69"/>
<text text-anchor="start" x="91.5" y="-87" font-family="Helvetica,sans-Serif" font-size="10.00">gamePlayer.guiContainers.</text>
<text text-anchor="middle" x="156" y="-76" font-family="Helvetica,sans-Serif" font-size="10.00">GuiContainer</text>
</a>
</g>
</g>
<!-- Node3&#45;&gt;Node1 -->
<g id="edge2" class="edge"><title>Node3&#45;&gt;Node1</title>
<path fill="none" stroke="midnightblue" d="M136.176,-61.1939C127.237,-51.3605 116.93,-40.0228 108.994,-31.2931"/>
<polygon fill="midnightblue" stroke="midnightblue" points="133.664,-63.6339 142.981,-68.679 138.844,-58.9252 133.664,-63.6339"/>
</g>
<!-- Node4 -->
<g id="node4" class="node"><title>Node4</title>
<g id="a_node4"><a xlink:href="../../d7/d02/interfacegame_player_1_1main_classes_1_1gui_builder_1_1_gui_element.html" target="_top" xlink:title="gamePlayer.mainClasses.gui\lBuilder.GuiElement">
<polygon fill="white" stroke="black" points="79,-137 79,-167 233,-167 233,-137 79,-137"/>
<text text-anchor="start" x="87" y="-155" font-family="Helvetica,sans-Serif" font-size="10.00">gamePlayer.mainClasses.gui</text>
<text text-anchor="middle" x="156" y="-144" font-family="Helvetica,sans-Serif" font-size="10.00">Builder.GuiElement</text>
</a>
</g>
</g>
<!-- Node4&#45;&gt;Node3 -->
<g id="edge3" class="edge"><title>Node4&#45;&gt;Node3</title>
<path fill="none" stroke="midnightblue" d="M156,-126.532C156,-117.361 156,-107.245 156,-99.2931"/>
<polygon fill="midnightblue" stroke="midnightblue" points="152.5,-126.679 156,-136.679 159.5,-126.679 152.5,-126.679"/>
</g>
</g>
</svg>
