<?xml version="1.0" encoding="UTF-8" standalone="no"?>
<!DOCTYPE svg PUBLIC "-//W3C//DTD SVG 1.1//EN"
 "http://www.w3.org/Graphics/SVG/1.1/DTD/svg11.dtd">
<!-- Generated by graphviz version 2.36.0 (20140111.2315)
 -->
<!-- Title: gamePlayer.mainClasses.managers.WelcomeManager.joinMultiPlayerGame Pages: 1 -->
<svg width="462pt" height="38pt"
 viewBox="0.00 0.00 462.00 38.00" xmlns="http://www.w3.org/2000/svg" xmlns:xlink="http://www.w3.org/1999/xlink">
<g id="graph0" class="graph" transform="scale(1 1) rotate(0) translate(4 34)">
<title>gamePlayer.mainClasses.managers.WelcomeManager.joinMultiPlayerGame</title>
<polygon fill="white" stroke="none" points="-4,4 -4,-34 458,-34 458,4 -4,4"/>
<!-- Node1 -->
<g id="node1" class="node"><title>Node1</title>
<polygon fill="#bfbfbf" stroke="black" points="0.5,-0 0.5,-30 201.5,-30 201.5,-0 0.5,-0"/>
<text text-anchor="start" x="8.5" y="-18" font-family="Helvetica,sans-Serif" font-size="10.00">gamePlayer.mainClasses.managers.</text>
<text text-anchor="middle" x="101" y="-7" font-family="Helvetica,sans-Serif" font-size="10.00">WelcomeManager.joinMultiPlayerGame</text>
</g>
<!-- Node2 -->
<g id="node2" class="node"><title>Node2</title>
<g id="a_node2"><a xlink:href="../../d4/d3f/classgame_player_1_1main_classes_1_1managers_1_1_welcome_manager.html#aa605746e09c481b225463d37a82427e3" target="_top" xlink:title="gamePlayer.mainClasses.managers.\lWelcomeManager.startMultiPlayerOptions">
<polygon fill="white" stroke="black" points="238.5,-0 238.5,-30 453.5,-30 453.5,-0 238.5,-0"/>
<text text-anchor="start" x="246.5" y="-18" font-family="Helvetica,sans-Serif" font-size="10.00">gamePlayer.mainClasses.managers.</text>
<text text-anchor="middle" x="346" y="-7" font-family="Helvetica,sans-Serif" font-size="10.00">WelcomeManager.startMultiPlayerOptions</text>
</a>
</g>
</g>
<!-- Node1&#45;&gt;Node2 -->
<g id="edge1" class="edge"><title>Node1&#45;&gt;Node2</title>
<path fill="none" stroke="midnightblue" d="M211.773,-15C220.532,-15 229.374,-15 238.113,-15"/>
<polygon fill="midnightblue" stroke="midnightblue" points="211.539,-11.5001 201.539,-15 211.539,-18.5001 211.539,-11.5001"/>
</g>
</g>
</svg>
