<?xml version="1.0" encoding="UTF-8" standalone="no"?>
<!DOCTYPE svg PUBLIC "-//W3C//DTD SVG 1.1//EN"
 "http://www.w3.org/Graphics/SVG/1.1/DTD/svg11.dtd">
<!-- Generated by graphviz version 2.36.0 (20140111.2315)
 -->
<!-- Title: gamePlayer.mainClasses.managers.WelcomeManager.newGame Pages: 1 -->
<!--zoomable 458 -->
<svg id="main" version="1.1" xmlns="http://www.w3.org/2000/svg" xmlns:xlink="http://www.w3.org/1999/xlink" xml:space="preserve" onload="init(evt)">
<style type="text/css"><![CDATA[
.edge:hover path { stroke: red; }
.edge:hover polygon { stroke: red; fill: red; }
]]></style>
<script type="text/javascript"><![CDATA[
var edges = document.getElementsByTagName('g');
if (edges && edges.length) {
  for (var i=0;i<edges.length;i++) {
    if (edges[i].id.substr(0,4)=='edge') {
      edges[i].setAttribute('class','edge');
    }
  }
}
]]></script>
        <defs>
                <circle id="rim" cx="0" cy="0" r="7"/>
                <circle id="rim2" cx="0" cy="0" r="3.5"/>
                <g id="zoomPlus">
                        <use xlink:href="#rim" fill="#404040">
                                <set attributeName="fill" to="#808080" begin="zoomplus.mouseover" end="zoomplus.mouseout"/>
                        </use>
                        <path d="M-4,0h8M0,-4v8" fill="none" stroke="white" stroke-width="1.5" pointer-events="none"/>
                </g>
                <g id="zoomMin">
                        <use xlink:href="#rim" fill="#404040">
                                <set attributeName="fill" to="#808080" begin="zoomminus.mouseover" end="zoomminus.mouseout"/>
                        </use>
                        <path d="M-4,0h8" fill="none" stroke="white" stroke-width="1.5" pointer-events="none"/>
                </g>
                <g id="dirArrow">
                        <path fill="none" stroke="white" stroke-width="1.5" d="M0,-3.0v7 M-2.5,-0.5L0,-3.0L2.5,-0.5"/>
                </g>
               <g id="resetDef">
                       <use xlink:href="#rim2" fill="#404040">
                               <set attributeName="fill" to="#808080" begin="reset.mouseover" end="reset.mouseout"/>
                       </use>
               </g>
        </defs>

<script type="text/javascript">
var viewWidth = 1738;
var viewHeight = 458;
var sectionId = 'dynsection-8';
</script>
<script xlink:href="../../svgpan.js"/>
<svg id="graph" class="graph">
<g id="viewport">
<title>gamePlayer.mainClasses.managers.WelcomeManager.newGame</title>
<polygon fill="white" stroke="none" points="-4,4 -4,-454 1734,-454 1734,4 -4,4"/>
<!-- Node1 -->
<g id="node1" class="node"><title>Node1</title>
<polygon fill="#bfbfbf" stroke="black" points="0.5,-71 0.5,-101 191.5,-101 191.5,-71 0.5,-71"/>
<text text-anchor="start" x="8.5" y="-89" font-family="Helvetica,sans-Serif" font-size="10.00">gamePlayer.mainClasses.managers.</text>
<text text-anchor="middle" x="96" y="-78" font-family="Helvetica,sans-Serif" font-size="10.00">WelcomeManager.newGame</text>
</g>
<!-- Node2 -->
<g id="node2" class="node"><title>Node2</title>
<g id="a_node2"><a xlink:href="../../da/d69/classgame_player_1_1main_classes_1_1managers_1_1_gui_manager.html#a6bce033ad0751d90302ee3520a36e95b" target="_top" xlink:title="gamePlayer.mainClasses.managers.\lGuiManager.init">
<polygon fill="white" stroke="black" points="228.5,-71 228.5,-101 419.5,-101 419.5,-71 228.5,-71"/>
<text text-anchor="start" x="236.5" y="-89" font-family="Helvetica,sans-Serif" font-size="10.00">gamePlayer.mainClasses.managers.</text>
<text text-anchor="middle" x="324" y="-78" font-family="Helvetica,sans-Serif" font-size="10.00">GuiManager.init</text>
</a>
</g>
</g>
<!-- Node1&#45;&gt;Node2 -->
<g id="edge1" class="edge"><title>Node1&#45;&gt;Node2</title>
<path fill="none" stroke="midnightblue" d="M191.535,-86C200.411,-86 209.443,-86 218.405,-86"/>
<polygon fill="midnightblue" stroke="midnightblue" points="218.481,-89.5001 228.48,-86 218.48,-82.5001 218.481,-89.5001"/>
</g>
<!-- Node3 -->
<g id="node3" class="node"><title>Node3</title>
<g id="a_node3"><a xlink:href="../../d6/d33/classgame_player_1_1main_classes_1_1gui_builder_1_1_gui_builder.html#ab281fef7b723af3743f3cb38dd5b7660" target="_top" xlink:title="gamePlayer.mainClasses.gui\lBuilder.GuiBuilder.build">
<polygon fill="white" stroke="black" points="459,-104 459,-134 613,-134 613,-104 459,-104"/>
<text text-anchor="start" x="467" y="-122" font-family="Helvetica,sans-Serif" font-size="10.00">gamePlayer.mainClasses.gui</text>
<text text-anchor="middle" x="536" y="-111" font-family="Helvetica,sans-Serif" font-size="10.00">Builder.GuiBuilder.build</text>
</a>
</g>
</g>
<!-- Node2&#45;&gt;Node3 -->
<g id="edge2" class="edge"><title>Node2&#45;&gt;Node3</title>
<path fill="none" stroke="midnightblue" d="M419.556,-100.859C429.333,-102.395 439.232,-103.951 448.909,-105.471"/>
<polygon fill="midnightblue" stroke="midnightblue" points="448.477,-108.946 458.899,-107.041 449.563,-102.031 448.477,-108.946"/>
</g>
<!-- Node23 -->
<g id="node23" class="node"><title>Node23</title>
<g id="a_node23"><a xlink:href="../../d6/d33/classgame_player_1_1main_classes_1_1gui_builder_1_1_gui_builder.html#a8f8a7f747869b006abafa384ee968927" target="_top" xlink:title="gamePlayer.mainClasses.gui\lBuilder.GuiBuilder.getInstance">
<polygon fill="white" stroke="black" points="456.5,-39 456.5,-69 615.5,-69 615.5,-39 456.5,-39"/>
<text text-anchor="start" x="464.5" y="-57" font-family="Helvetica,sans-Serif" font-size="10.00">gamePlayer.mainClasses.gui</text>
<text text-anchor="middle" x="536" y="-46" font-family="Helvetica,sans-Serif" font-size="10.00">Builder.GuiBuilder.getInstance</text>
</a>
</g>
</g>
<!-- Node2&#45;&gt;Node23 -->
<g id="edge34" class="edge"><title>Node2&#45;&gt;Node23</title>
<path fill="none" stroke="midnightblue" d="M419.556,-71.5914C428.494,-70.2294 437.534,-68.8519 446.414,-67.4988"/>
<polygon fill="midnightblue" stroke="midnightblue" points="446.998,-70.9503 456.357,-65.9837 445.944,-64.0302 446.998,-70.9503"/>
</g>
<!-- Node4 -->
<g id="node4" class="node"><title>Node4</title>
<g id="a_node4"><a xlink:href="../../df/db4/classutilities_1_1_x_m_l_parsing_1_1_x_m_l_parser.html#a159b395412a8ce61e6decfefc9ed9854" target="_top" xlink:title="utilities.XMLParsing.XMLParser.get\lDoubleValuesFromTag">
<polygon fill="white" stroke="black" points="860,-126 860,-156 1038,-156 1038,-126 860,-126"/>
<text text-anchor="start" x="868" y="-144" font-family="Helvetica,sans-Serif" font-size="10.00">utilities.XMLParsing.XMLParser.get</text>
<text text-anchor="middle" x="949" y="-133" font-family="Helvetica,sans-Serif" font-size="10.00">DoubleValuesFromTag</text>
</a>
</g>
</g>
<!-- Node3&#45;&gt;Node4 -->
<g id="edge3" class="edge"><title>Node3&#45;&gt;Node4</title>
<path fill="none" stroke="midnightblue" d="M613.343,-123.086C680.079,-126.659 777.378,-131.867 849.879,-135.748"/>
<polygon fill="midnightblue" stroke="midnightblue" points="849.766,-139.247 859.939,-136.286 850.14,-132.257 849.766,-139.247"/>
</g>
<!-- Node5 -->
<g id="node5" class="node"><title>Node5</title>
<g id="a_node5"><a xlink:href="../../df/db4/classutilities_1_1_x_m_l_parsing_1_1_x_m_l_parser.html#a70485375200a84f459aa83ffedbea646" target="_top" xlink:title="utilities.XMLParsing.XMLParser.get\lValuesFromTag">
<polygon fill="white" stroke="black" points="1333,-82 1333,-112 1511,-112 1511,-82 1333,-82"/>
<text text-anchor="start" x="1341" y="-100" font-family="Helvetica,sans-Serif" font-size="10.00">utilities.XMLParsing.XMLParser.get</text>
<text text-anchor="middle" x="1422" y="-89" font-family="Helvetica,sans-Serif" font-size="10.00">ValuesFromTag</text>
</a>
</g>
</g>
<!-- Node3&#45;&gt;Node5 -->
<g id="edge8" class="edge"><title>Node3&#45;&gt;Node5</title>
<path fill="none" stroke="midnightblue" d="M613.134,-117.105C773.254,-113.12 1144.72,-103.876 1322.6,-99.4488"/>
<polygon fill="midnightblue" stroke="midnightblue" points="1322.83,-102.944 1332.74,-99.1965 1322.66,-95.9465 1322.83,-102.944"/>
</g>
<!-- Node7 -->
<g id="node7" class="node"><title>Node7</title>
<g id="a_node7"><a xlink:href="../../dc/d2e/classutilities_1_1multilanguage_1_1_multi_language_utility.html#a6bc704aa624d0bc11d5f18717ef5842a" target="_top" xlink:title="utilities.multilanguage.\lMultiLanguageUtility.getString\lProperty">
<polygon fill="white" stroke="black" points="654.5,-346.5 654.5,-387.5 813.5,-387.5 813.5,-346.5 654.5,-346.5"/>
<text text-anchor="start" x="662.5" y="-375.5" font-family="Helvetica,sans-Serif" font-size="10.00">utilities.multilanguage.</text>
<text text-anchor="start" x="662.5" y="-364.5" font-family="Helvetica,sans-Serif" font-size="10.00">MultiLanguageUtility.getString</text>
<text text-anchor="middle" x="734" y="-353.5" font-family="Helvetica,sans-Serif" font-size="10.00">Property</text>
</a>
</g>
</g>
<!-- Node3&#45;&gt;Node7 -->
<g id="edge6" class="edge"><title>Node3&#45;&gt;Node7</title>
<path fill="none" stroke="midnightblue" d="M548.612,-134.34C569.205,-161.478 613.575,-219.65 652,-268 670.981,-291.883 692.916,-318.642 709.168,-338.313"/>
<polygon fill="midnightblue" stroke="midnightblue" points="706.689,-340.807 715.761,-346.281 712.082,-336.345 706.689,-340.807"/>
</g>
<!-- Node9 -->
<g id="node9" class="node"><title>Node9</title>
<g id="a_node9"><a xlink:href="../../d6/d33/classgame_player_1_1main_classes_1_1gui_builder_1_1_gui_builder.html#a0fbd44d2d57fb100c883cdf4ad77e7f8" target="_top" xlink:title="gamePlayer.mainClasses.gui\lBuilder.GuiBuilder.initializeCore\lContainers">
<polygon fill="white" stroke="black" points="652,-218.5 652,-259.5 816,-259.5 816,-218.5 652,-218.5"/>
<text text-anchor="start" x="660" y="-247.5" font-family="Helvetica,sans-Serif" font-size="10.00">gamePlayer.mainClasses.gui</text>
<text text-anchor="start" x="660" y="-236.5" font-family="Helvetica,sans-Serif" font-size="10.00">Builder.GuiBuilder.initializeCore</text>
<text text-anchor="middle" x="734" y="-225.5" font-family="Helvetica,sans-Serif" font-size="10.00">Containers</text>
</a>
</g>
</g>
<!-- Node3&#45;&gt;Node9 -->
<g id="edge9" class="edge"><title>Node3&#45;&gt;Node9</title>
<path fill="none" stroke="midnightblue" d="M561.824,-134.198C594.193,-154.016 651.307,-188.984 690.6,-213.041"/>
<polygon fill="midnightblue" stroke="midnightblue" points="688.835,-216.064 699.191,-218.301 692.49,-210.094 688.835,-216.064"/>
</g>
<!-- Node22 -->
<g id="node22" class="node"><title>Node22</title>
<g id="a_node22"><a xlink:href="../../d6/d33/classgame_player_1_1main_classes_1_1gui_builder_1_1_gui_builder.html#ab2e1366c6468e1238aa2bee62c04bd4b" target="_top" xlink:title="gamePlayer.mainClasses.gui\lBuilder.GuiBuilder.setStyleSheet">
<polygon fill="white" stroke="black" points="1102,-38 1102,-68 1272,-68 1272,-38 1102,-38"/>
<text text-anchor="start" x="1110" y="-56" font-family="Helvetica,sans-Serif" font-size="10.00">gamePlayer.mainClasses.gui</text>
<text text-anchor="middle" x="1187" y="-45" font-family="Helvetica,sans-Serif" font-size="10.00">Builder.GuiBuilder.setStyleSheet</text>
</a>
</g>
</g>
<!-- Node3&#45;&gt;Node22 -->
<g id="edge32" class="edge"><title>Node3&#45;&gt;Node22</title>
<path fill="none" stroke="midnightblue" d="M576.572,-103.948C598.473,-96.2985 626.373,-87.6567 652,-83 804.005,-55.379 983.992,-50.9892 1091.38,-51.3006"/>
<polygon fill="midnightblue" stroke="midnightblue" points="1091.53,-54.8012 1101.54,-51.3448 1091.56,-47.8013 1091.53,-54.8012"/>
</g>
<!-- Node4&#45;&gt;Node5 -->
<g id="edge4" class="edge"><title>Node4&#45;&gt;Node5</title>
<path fill="none" stroke="midnightblue" d="M1038.27,-133.76C1107.35,-127.972 1205.84,-119.453 1292,-111 1302.02,-110.017 1312.48,-108.95 1322.92,-107.858"/>
<polygon fill="midnightblue" stroke="midnightblue" points="1323.32,-111.335 1332.9,-106.806 1322.59,-104.374 1323.32,-111.335"/>
</g>
<!-- Node6 -->
<g id="node6" class="node"><title>Node6</title>
<g id="a_node6"><a xlink:href="../../df/db4/classutilities_1_1_x_m_l_parsing_1_1_x_m_l_parser.html#ab3a0a60481d20e93b1382f9a8a31fe9d" target="_top" xlink:title="utilities.XMLParsing.XMLParser.get\lValues">
<polygon fill="white" stroke="black" points="1552,-82 1552,-112 1730,-112 1730,-82 1552,-82"/>
<text text-anchor="start" x="1560" y="-100" font-family="Helvetica,sans-Serif" font-size="10.00">utilities.XMLParsing.XMLParser.get</text>
<text text-anchor="middle" x="1641" y="-89" font-family="Helvetica,sans-Serif" font-size="10.00">Values</text>
</a>
</g>
</g>
<!-- Node5&#45;&gt;Node6 -->
<g id="edge5" class="edge"><title>Node5&#45;&gt;Node6</title>
<path fill="none" stroke="midnightblue" d="M1511.26,-97C1521.29,-97 1531.57,-97 1541.72,-97"/>
<polygon fill="midnightblue" stroke="midnightblue" points="1541.82,-100.5 1551.82,-97 1541.82,-93.5001 1541.82,-100.5"/>
</g>
<!-- Node8 -->
<g id="node8" class="node"><title>Node8</title>
<g id="a_node8"><a xlink:href="../../dc/d2e/classutilities_1_1multilanguage_1_1_multi_language_utility.html#a124b4a760f410841ecc50dd4b16e40bb" target="_top" xlink:title="utilities.multilanguage.\lMultiLanguageUtility.getProperty">
<polygon fill="white" stroke="black" points="863.5,-420 863.5,-450 1034.5,-450 1034.5,-420 863.5,-420"/>
<text text-anchor="start" x="871.5" y="-438" font-family="Helvetica,sans-Serif" font-size="10.00">utilities.multilanguage.</text>
<text text-anchor="middle" x="949" y="-427" font-family="Helvetica,sans-Serif" font-size="10.00">MultiLanguageUtility.getProperty</text>
</a>
</g>
</g>
<!-- Node7&#45;&gt;Node8 -->
<g id="edge7" class="edge"><title>Node7&#45;&gt;Node8</title>
<path fill="none" stroke="midnightblue" d="M787.627,-387.581C807.634,-395.077 830.728,-403.339 852,-410 859.974,-412.497 868.373,-414.945 876.75,-417.274"/>
<polygon fill="midnightblue" stroke="midnightblue" points="875.979,-420.691 886.548,-419.948 877.822,-413.939 875.979,-420.691"/>
</g>
<!-- Node9&#45;&gt;Node4 -->
<g id="edge10" class="edge"><title>Node9&#45;&gt;Node4</title>
<path fill="none" stroke="midnightblue" d="M761.979,-218.41C784.845,-201.849 819.078,-179.093 852,-165 856.935,-162.887 862.096,-160.933 867.354,-159.129"/>
<polygon fill="midnightblue" stroke="midnightblue" points="868.457,-162.451 876.896,-156.044 866.304,-155.791 868.457,-162.451"/>
</g>
<!-- Node10 -->
<g id="node10" class="node"><title>Node10</title>
<g id="a_node10"><a xlink:href="../../dd/de8/classgame_player_1_1gui_containers_1_1core_containers_1_1_right_container.html#a334bf5d79096bf6348e43ac614bb3e65" target="_top" xlink:title="gamePlayer.guiContainers.core\lContainers.RightContainer.initialize">
<polygon fill="white" stroke="black" points="858,-371 858,-401 1040,-401 1040,-371 858,-371"/>
<text text-anchor="start" x="866" y="-389" font-family="Helvetica,sans-Serif" font-size="10.00">gamePlayer.guiContainers.core</text>
<text text-anchor="middle" x="949" y="-378" font-family="Helvetica,sans-Serif" font-size="10.00">Containers.RightContainer.initialize</text>
</a>
</g>
</g>
<!-- Node9&#45;&gt;Node10 -->
<g id="edge11" class="edge"><title>Node9&#45;&gt;Node10</title>
<path fill="none" stroke="midnightblue" d="M749.085,-259.639C768.856,-287.002 807.45,-334.865 852,-361 855.677,-363.157 859.54,-365.13 863.519,-366.936"/>
<polygon fill="midnightblue" stroke="midnightblue" points="862.402,-370.261 872.98,-370.85 865.078,-363.793 862.402,-370.261"/>
</g>
<!-- Node18 -->
<g id="node18" class="node"><title>Node18</title>
<g id="a_node18"><a xlink:href="../../dc/d6a/classgame_player_1_1gui_containers_1_1core_containers_1_1_top_container.html#a7ee024a250448af00717a87d0cc6f920" target="_top" xlink:title="gamePlayer.guiContainers.core\lContainers.TopContainer.initialize">
<polygon fill="white" stroke="black" points="862,-322 862,-352 1036,-352 1036,-322 862,-322"/>
<text text-anchor="start" x="870" y="-340" font-family="Helvetica,sans-Serif" font-size="10.00">gamePlayer.guiContainers.core</text>
<text text-anchor="middle" x="949" y="-329" font-family="Helvetica,sans-Serif" font-size="10.00">Containers.TopContainer.initialize</text>
</a>
</g>
</g>
<!-- Node9&#45;&gt;Node18 -->
<g id="edge20" class="edge"><title>Node9&#45;&gt;Node18</title>
<path fill="none" stroke="midnightblue" d="M762.521,-259.538C785.432,-275.786 819.451,-297.996 852,-312 857.762,-314.479 863.828,-316.759 869.994,-318.846"/>
<polygon fill="midnightblue" stroke="midnightblue" points="869.147,-322.249 879.738,-321.967 871.282,-315.583 869.147,-322.249"/>
</g>
<!-- Node19 -->
<g id="node19" class="node"><title>Node19</title>
<g id="a_node19"><a xlink:href="../../d7/dca/classgame_player_1_1gui_containers_1_1core_containers_1_1_left_container.html#a1c5ab988bc6350ae15e03aa601f850a8" target="_top" xlink:title="gamePlayer.guiContainers.core\lContainers.LeftContainer.initialize">
<polygon fill="white" stroke="black" points="861,-273 861,-303 1037,-303 1037,-273 861,-273"/>
<text text-anchor="start" x="869" y="-291" font-family="Helvetica,sans-Serif" font-size="10.00">gamePlayer.guiContainers.core</text>
<text text-anchor="middle" x="949" y="-280" font-family="Helvetica,sans-Serif" font-size="10.00">Containers.LeftContainer.initialize</text>
</a>
</g>
</g>
<!-- Node9&#45;&gt;Node19 -->
<g id="edge23" class="edge"><title>Node9&#45;&gt;Node19</title>
<path fill="none" stroke="midnightblue" d="M816.134,-257.665C834.769,-261.952 854.505,-266.492 872.874,-270.717"/>
<polygon fill="midnightblue" stroke="midnightblue" points="872.101,-274.131 882.631,-272.962 873.67,-267.309 872.101,-274.131"/>
</g>
<!-- Node20 -->
<g id="node20" class="node"><title>Node20</title>
<g id="a_node20"><a xlink:href="../../d4/d8d/classgame_player_1_1gui_containers_1_1core_containers_1_1_bottom_container.html#aa6b6a142786ee38f05a4db76619a9265" target="_top" xlink:title="gamePlayer.guiContainers.core\lContainers.BottomContainer.initialize">
<polygon fill="white" stroke="black" points="852,-224 852,-254 1046,-254 1046,-224 852,-224"/>
<text text-anchor="start" x="860" y="-242" font-family="Helvetica,sans-Serif" font-size="10.00">gamePlayer.guiContainers.core</text>
<text text-anchor="middle" x="949" y="-231" font-family="Helvetica,sans-Serif" font-size="10.00">Containers.BottomContainer.initialize</text>
</a>
</g>
</g>
<!-- Node9&#45;&gt;Node20 -->
<g id="edge26" class="edge"><title>Node9&#45;&gt;Node20</title>
<path fill="none" stroke="midnightblue" d="M816.134,-239C824.499,-239 833.087,-239 841.672,-239"/>
<polygon fill="midnightblue" stroke="midnightblue" points="841.737,-242.5 851.737,-239 841.737,-235.5 841.737,-242.5"/>
</g>
<!-- Node21 -->
<g id="node21" class="node"><title>Node21</title>
<g id="a_node21"><a xlink:href="../../d3/d87/classgame_player_1_1gui_containers_1_1core_containers_1_1_center_container.html#ae748e7137af86ab7cad38928b987b07d" target="_top" xlink:title="gamePlayer.guiContainers.core\lContainers.CenterContainer.initialize">
<polygon fill="white" stroke="black" points="853.5,-175 853.5,-205 1044.5,-205 1044.5,-175 853.5,-175"/>
<text text-anchor="start" x="861.5" y="-193" font-family="Helvetica,sans-Serif" font-size="10.00">gamePlayer.guiContainers.core</text>
<text text-anchor="middle" x="949" y="-182" font-family="Helvetica,sans-Serif" font-size="10.00">Containers.CenterContainer.initialize</text>
</a>
</g>
</g>
<!-- Node9&#45;&gt;Node21 -->
<g id="edge29" class="edge"><title>Node9&#45;&gt;Node21</title>
<path fill="none" stroke="midnightblue" d="M816.134,-220.335C834.769,-216.048 854.505,-211.508 872.874,-207.283"/>
<polygon fill="midnightblue" stroke="midnightblue" points="873.67,-210.691 882.631,-205.038 872.101,-203.869 873.67,-210.691"/>
</g>
<!-- Node11 -->
<g id="node11" class="node"><title>Node11</title>
<g id="a_node11"><a xlink:href="../../d5/d26/classgame_player_1_1gui_containers_1_1core_containers_1_1_core_container_setup.html#a55a6911411bd3e2aeb13ef411d610d9d" target="_top" xlink:title="gamePlayer.guiContainers.core\lContainers.CoreContainerSetup.get\lChildList">
<polygon fill="white" stroke="black" points="1093,-277.5 1093,-318.5 1281,-318.5 1281,-277.5 1093,-277.5"/>
<text text-anchor="start" x="1101" y="-306.5" font-family="Helvetica,sans-Serif" font-size="10.00">gamePlayer.guiContainers.core</text>
<text text-anchor="start" x="1101" y="-295.5" font-family="Helvetica,sans-Serif" font-size="10.00">Containers.CoreContainerSetup.get</text>
<text text-anchor="middle" x="1187" y="-284.5" font-family="Helvetica,sans-Serif" font-size="10.00">ChildList</text>
</a>
</g>
</g>
<!-- Node10&#45;&gt;Node11 -->
<g id="edge12" class="edge"><title>Node10&#45;&gt;Node11</title>
<path fill="none" stroke="midnightblue" d="M1013.97,-370.946C1024.76,-367.952 1035.77,-364.606 1046,-361 1076.58,-350.223 1109.71,-335.461 1136.07,-322.936"/>
<polygon fill="midnightblue" stroke="midnightblue" points="1137.59,-326.089 1145.09,-318.609 1134.56,-319.777 1137.59,-326.089"/>
</g>
<!-- Node12 -->
<g id="node12" class="node"><title>Node12</title>
<g id="a_node12"><a xlink:href="../../d5/d26/classgame_player_1_1gui_containers_1_1core_containers_1_1_core_container_setup.html#ac6df0ac7fc30e15aabe27ac39f137b74" target="_top" xlink:title="gamePlayer.guiContainers.core\lContainers.CoreContainerSetup.initialize">
<polygon fill="white" stroke="black" points="1082,-229 1082,-259 1292,-259 1292,-229 1082,-229"/>
<text text-anchor="start" x="1090" y="-247" font-family="Helvetica,sans-Serif" font-size="10.00">gamePlayer.guiContainers.core</text>
<text text-anchor="middle" x="1187" y="-236" font-family="Helvetica,sans-Serif" font-size="10.00">Containers.CoreContainerSetup.initialize</text>
</a>
</g>
</g>
<!-- Node10&#45;&gt;Node12 -->
<g id="edge13" class="edge"><title>Node10&#45;&gt;Node12</title>
<path fill="none" stroke="midnightblue" d="M1031.51,-370.997C1036.73,-368.199 1041.63,-364.897 1046,-361 1079.08,-331.505 1048.51,-297.029 1082,-268 1083.35,-266.832 1084.74,-265.718 1086.17,-264.655"/>
<polygon fill="midnightblue" stroke="midnightblue" points="1088.27,-267.468 1094.79,-259.115 1084.49,-261.58 1088.27,-267.468"/>
</g>
<!-- Node12&#45;&gt;Node5 -->
<g id="edge16" class="edge"><title>Node12&#45;&gt;Node5</title>
<path fill="none" stroke="midnightblue" d="M1205.19,-228.809C1242.19,-196.115 1326.22,-121.943 1328,-121 1331.55,-119.123 1335.25,-117.387 1339.04,-115.782"/>
<polygon fill="midnightblue" stroke="midnightblue" points="1340.58,-118.939 1348.64,-112.057 1338.05,-112.414 1340.58,-118.939"/>
</g>
<!-- Node13 -->
<g id="node13" class="node"><title>Node13</title>
<g id="a_node13"><a xlink:href="../../db/d5e/classutilities_1_1reflection_1_1_reflection.html#a8bc52887d77966c001a83c2f585e6100" target="_top" xlink:title="utilities.reflection.Reflection.create\lInstance">
<polygon fill="white" stroke="black" points="1332,-180 1332,-210 1512,-210 1512,-180 1332,-180"/>
<text text-anchor="start" x="1340" y="-198" font-family="Helvetica,sans-Serif" font-size="10.00">utilities.reflection.Reflection.create</text>
<text text-anchor="middle" x="1422" y="-187" font-family="Helvetica,sans-Serif" font-size="10.00">Instance</text>
</a>
</g>
</g>
<!-- Node12&#45;&gt;Node13 -->
<g id="edge14" class="edge"><title>Node12&#45;&gt;Node13</title>
<path fill="none" stroke="midnightblue" d="M1259.49,-228.965C1284.88,-223.627 1313.63,-217.58 1339.77,-212.083"/>
<polygon fill="midnightblue" stroke="midnightblue" points="1340.58,-215.489 1349.64,-210.006 1339.14,-208.639 1340.58,-215.489"/>
</g>
<!-- Node14 -->
<g id="node14" class="node"><title>Node14</title>
<g id="a_node14"><a xlink:href="../../d7/d02/interfacegame_player_1_1main_classes_1_1gui_builder_1_1_gui_element.html#a0cfbb03fce35c4102f5ee95dc523d789" target="_top" xlink:title="gamePlayer.mainClasses.gui\lBuilder.GuiElement.getNode">
<polygon fill="white" stroke="black" points="1345,-131 1345,-161 1499,-161 1499,-131 1345,-131"/>
<text text-anchor="start" x="1353" y="-149" font-family="Helvetica,sans-Serif" font-size="10.00">gamePlayer.mainClasses.gui</text>
<text text-anchor="middle" x="1422" y="-138" font-family="Helvetica,sans-Serif" font-size="10.00">Builder.GuiElement.getNode</text>
</a>
</g>
</g>
<!-- Node12&#45;&gt;Node14 -->
<g id="edge15" class="edge"><title>Node12&#45;&gt;Node14</title>
<path fill="none" stroke="midnightblue" d="M1212.46,-228.805C1239.77,-212.385 1285.7,-186.378 1328,-170 1333.48,-167.879 1339.21,-165.887 1345.02,-164.029"/>
<polygon fill="midnightblue" stroke="midnightblue" points="1346.31,-167.296 1354.85,-161.029 1344.26,-160.601 1346.31,-167.296"/>
</g>
<!-- Node15 -->
<g id="node15" class="node"><title>Node15</title>
<g id="a_node15"><a xlink:href="../../d7/d02/interfacegame_player_1_1main_classes_1_1gui_builder_1_1_gui_element.html#a11c38d8cb75271486784dd02171fd867" target="_top" xlink:title="gamePlayer.mainClasses.gui\lBuilder.GuiElement.initialize">
<polygon fill="white" stroke="black" points="1345,-348 1345,-378 1499,-378 1499,-348 1345,-348"/>
<text text-anchor="start" x="1353" y="-366" font-family="Helvetica,sans-Serif" font-size="10.00">gamePlayer.mainClasses.gui</text>
<text text-anchor="middle" x="1422" y="-355" font-family="Helvetica,sans-Serif" font-size="10.00">Builder.GuiElement.initialize</text>
</a>
</g>
</g>
<!-- Node12&#45;&gt;Node15 -->
<g id="edge17" class="edge"><title>Node12&#45;&gt;Node15</title>
<path fill="none" stroke="midnightblue" d="M1277.79,-259.106C1282.83,-261.643 1287.61,-264.586 1292,-268 1319.61,-289.485 1300.78,-316.024 1328,-338 1330.46,-339.984 1333.06,-341.811 1335.77,-343.494"/>
<polygon fill="midnightblue" stroke="midnightblue" points="1334.3,-346.679 1344.75,-348.393 1337.65,-340.533 1334.3,-346.679"/>
</g>
<!-- Node16 -->
<g id="node16" class="node"><title>Node16</title>
<g id="a_node16"><a xlink:href="../../d5/d26/classgame_player_1_1gui_containers_1_1core_containers_1_1_core_container_setup.html#a7c2dbb68f48270227de03e789675da1f" target="_top" xlink:title="gamePlayer.guiContainers.core\lContainers.CoreContainerSetup.set\lDimensions">
<polygon fill="white" stroke="black" points="1328.5,-288.5 1328.5,-329.5 1515.5,-329.5 1515.5,-288.5 1328.5,-288.5"/>
<text text-anchor="start" x="1336.5" y="-317.5" font-family="Helvetica,sans-Serif" font-size="10.00">gamePlayer.guiContainers.core</text>
<text text-anchor="start" x="1336.5" y="-306.5" font-family="Helvetica,sans-Serif" font-size="10.00">Containers.CoreContainerSetup.set</text>
<text text-anchor="middle" x="1422" y="-295.5" font-family="Helvetica,sans-Serif" font-size="10.00">Dimensions</text>
</a>
</g>
</g>
<!-- Node12&#45;&gt;Node16 -->
<g id="edge18" class="edge"><title>Node12&#45;&gt;Node16</title>
<path fill="none" stroke="midnightblue" d="M1256.73,-259.031C1268.53,-261.85 1280.65,-264.892 1292,-268 1311.01,-273.206 1331.41,-279.402 1350.25,-285.38"/>
<polygon fill="midnightblue" stroke="midnightblue" points="1349.36,-288.768 1359.95,-288.48 1351.49,-282.101 1349.36,-288.768"/>
</g>
<!-- Node17 -->
<g id="node17" class="node"><title>Node17</title>
<g id="a_node17"><a xlink:href="../../d5/d26/classgame_player_1_1gui_containers_1_1core_containers_1_1_core_container_setup.html#a41141499099dc8da6acb6aa5d45ba65c" target="_top" xlink:title="gamePlayer.guiContainers.core\lContainers.CoreContainerSetup.set\lRegion">
<polygon fill="white" stroke="black" points="1328.5,-228.5 1328.5,-269.5 1515.5,-269.5 1515.5,-228.5 1328.5,-228.5"/>
<text text-anchor="start" x="1336.5" y="-257.5" font-family="Helvetica,sans-Serif" font-size="10.00">gamePlayer.guiContainers.core</text>
<text text-anchor="start" x="1336.5" y="-246.5" font-family="Helvetica,sans-Serif" font-size="10.00">Containers.CoreContainerSetup.set</text>
<text text-anchor="middle" x="1422" y="-235.5" font-family="Helvetica,sans-Serif" font-size="10.00">Region</text>
</a>
</g>
</g>
<!-- Node12&#45;&gt;Node17 -->
<g id="edge19" class="edge"><title>Node12&#45;&gt;Node17</title>
<path fill="none" stroke="midnightblue" d="M1292.23,-246.237C1300.85,-246.422 1309.57,-246.609 1318.18,-246.794"/>
<polygon fill="midnightblue" stroke="midnightblue" points="1318.16,-250.294 1328.23,-247.009 1318.31,-243.295 1318.16,-250.294"/>
</g>
<!-- Node18&#45;&gt;Node11 -->
<g id="edge21" class="edge"><title>Node18&#45;&gt;Node11</title>
<path fill="none" stroke="midnightblue" d="M1036.2,-322.755C1051.33,-320.256 1067.2,-317.632 1082.73,-315.066"/>
<polygon fill="midnightblue" stroke="midnightblue" points="1083.58,-318.473 1092.87,-313.39 1082.44,-311.567 1083.58,-318.473"/>
</g>
<!-- Node18&#45;&gt;Node12 -->
<g id="edge22" class="edge"><title>Node18&#45;&gt;Node12</title>
<path fill="none" stroke="midnightblue" d="M1026.33,-321.98C1033.23,-319.198 1039.91,-315.903 1046,-312 1067.27,-298.367 1060.54,-281.334 1082,-268 1084.79,-266.264 1087.7,-264.654 1090.69,-263.16"/>
<polygon fill="midnightblue" stroke="midnightblue" points="1092.2,-266.317 1099.88,-259.017 1089.33,-259.935 1092.2,-266.317"/>
</g>
<!-- Node19&#45;&gt;Node11 -->
<g id="edge24" class="edge"><title>Node19&#45;&gt;Node11</title>
<path fill="none" stroke="midnightblue" d="M1037.21,-291.695C1051.93,-292.319 1067.34,-292.972 1082.43,-293.611"/>
<polygon fill="midnightblue" stroke="midnightblue" points="1082.67,-297.125 1092.81,-294.051 1082.97,-290.131 1082.67,-297.125"/>
</g>
<!-- Node19&#45;&gt;Node12 -->
<g id="edge25" class="edge"><title>Node19&#45;&gt;Node12</title>
<path fill="none" stroke="midnightblue" d="M1030.56,-272.981C1051.42,-269.091 1074.03,-264.876 1095.37,-260.897"/>
<polygon fill="midnightblue" stroke="midnightblue" points="1096.22,-264.3 1105.4,-259.026 1094.93,-257.418 1096.22,-264.3"/>
</g>
<!-- Node20&#45;&gt;Node11 -->
<g id="edge27" class="edge"><title>Node20&#45;&gt;Node11</title>
<path fill="none" stroke="midnightblue" d="M1010.16,-254.041C1035.57,-260.393 1065.74,-267.934 1093.84,-274.96"/>
<polygon fill="midnightblue" stroke="midnightblue" points="1093.14,-278.392 1103.69,-277.422 1094.83,-271.601 1093.14,-278.392"/>
</g>
<!-- Node20&#45;&gt;Node12 -->
<g id="edge28" class="edge"><title>Node20&#45;&gt;Node12</title>
<path fill="none" stroke="midnightblue" d="M1046.33,-241.041C1054.76,-241.219 1063.34,-241.401 1071.89,-241.582"/>
<polygon fill="midnightblue" stroke="midnightblue" points="1071.84,-245.082 1081.91,-241.795 1071.99,-238.084 1071.84,-245.082"/>
</g>
<!-- Node21&#45;&gt;Node11 -->
<g id="edge30" class="edge"><title>Node21&#45;&gt;Node11</title>
<path fill="none" stroke="midnightblue" d="M1030.12,-205.033C1035.72,-207.571 1041.08,-210.536 1046,-214 1069.58,-230.616 1058.72,-250.964 1082,-268 1084.12,-269.554 1086.32,-271.027 1088.59,-272.425"/>
<polygon fill="midnightblue" stroke="midnightblue" points="1087.17,-275.642 1097.61,-277.447 1090.58,-269.526 1087.17,-275.642"/>
</g>
<!-- Node21&#45;&gt;Node12 -->
<g id="edge31" class="edge"><title>Node21&#45;&gt;Node12</title>
<path fill="none" stroke="midnightblue" d="M1015.74,-205.042C1045.03,-211.743 1079.69,-219.676 1110.08,-226.628"/>
<polygon fill="midnightblue" stroke="midnightblue" points="1109.68,-230.126 1120.2,-228.945 1111.24,-223.303 1109.68,-230.126"/>
</g>
<!-- Node22&#45;&gt;Node5 -->
<g id="edge33" class="edge"><title>Node22&#45;&gt;Node5</title>
<path fill="none" stroke="midnightblue" d="M1267.53,-68.0192C1288.13,-71.9092 1310.45,-76.1241 1331.52,-80.1032"/>
<polygon fill="midnightblue" stroke="midnightblue" points="1330.95,-83.5573 1341.43,-81.9738 1332.25,-76.6789 1330.95,-83.5573"/>
</g>
<!-- Node24 -->
<g id="node24" class="node"><title>Node24</title>
<g id="a_node24"><a xlink:href="../../d6/d33/classgame_player_1_1main_classes_1_1gui_builder_1_1_gui_builder.html#ae4bd92625489e79b46af8ca6e1e88104" target="_top" xlink:title="gamePlayer.mainClasses.gui\lBuilder.GuiBuilder.GuiBuilder">
<polygon fill="white" stroke="black" points="657,-0 657,-30 811,-30 811,-0 657,-0"/>
<text text-anchor="start" x="665" y="-18" font-family="Helvetica,sans-Serif" font-size="10.00">gamePlayer.mainClasses.gui</text>
<text text-anchor="middle" x="734" y="-7" font-family="Helvetica,sans-Serif" font-size="10.00">Builder.GuiBuilder.GuiBuilder</text>
</a>
</g>
</g>
<!-- Node23&#45;&gt;Node24 -->
<g id="edge35" class="edge"><title>Node23&#45;&gt;Node24</title>
<path fill="none" stroke="midnightblue" d="M612.498,-38.9774C623.925,-36.7037 635.783,-34.3441 647.405,-32.0316"/>
<polygon fill="midnightblue" stroke="midnightblue" points="648.416,-35.3992 657.541,-30.0149 647.05,-28.5338 648.416,-35.3992"/>
</g>
</g>
</svg>
        <g id="navigator" transform="translate(0 0)" fill="#404254">
                <rect fill="#f2f5e9" fill-opacity="0.5" stroke="#606060" stroke-width=".5" x="0" y="0" width="60" height="60"/>
                <use id="zoomplus" xlink:href="#zoomPlus" x="17" y="9" onmousedown="handleZoom(evt,'in')"/>
                <use id="zoomminus" xlink:href="#zoomMin" x="42" y="9" onmousedown="handleZoom(evt,'out')"/>
                <use id="reset" xlink:href="#resetDef" x="30" y="36" onmousedown="handleReset()"/>
                <g id="arrowUp" xlink:href="#dirArrow" transform="translate(30 24)" onmousedown="handlePan(0,-1)">
                  <use xlink:href="#rim" fill="#404040">
                        <set attributeName="fill" to="#808080" begin="arrowUp.mouseover" end="arrowUp.mouseout"/>
                  </use>
                  <path fill="none" stroke="white" stroke-width="1.5" d="M0,-3.0v7 M-2.5,-0.5L0,-3.0L2.5,-0.5"/>
                </g>
                <g id="arrowRight" xlink:href="#dirArrow" transform="rotate(90) translate(36 -43)" onmousedown="handlePan(1,0)">
                  <use xlink:href="#rim" fill="#404040">
                        <set attributeName="fill" to="#808080" begin="arrowRight.mouseover" end="arrowRight.mouseout"/>
                  </use>
                  <path fill="none" stroke="white" stroke-width="1.5" d="M0,-3.0v7 M-2.5,-0.5L0,-3.0L2.5,-0.5"/>
                </g>
                <g id="arrowDown" xlink:href="#dirArrow" transform="rotate(180) translate(-30 -48)" onmousedown="handlePan(0,1)">
                  <use xlink:href="#rim" fill="#404040">
                        <set attributeName="fill" to="#808080" begin="arrowDown.mouseover" end="arrowDown.mouseout"/>
                  </use>
                  <path fill="none" stroke="white" stroke-width="1.5" d="M0,-3.0v7 M-2.5,-0.5L0,-3.0L2.5,-0.5"/>
                </g>
                <g id="arrowLeft" xlink:href="#dirArrow" transform="rotate(270) translate(-36 17)" onmousedown="handlePan(-1,0)">
                  <use xlink:href="#rim" fill="#404040">
                        <set attributeName="fill" to="#808080" begin="arrowLeft.mouseover" end="arrowLeft.mouseout"/>
                  </use>
                  <path fill="none" stroke="white" stroke-width="1.5" d="M0,-3.0v7 M-2.5,-0.5L0,-3.0L2.5,-0.5"/>
                </g>
        </g>
        <svg viewBox="0 0 15 15" width="100%" height="30px" preserveAspectRatio="xMaxYMin meet">
         <g id="arrow_out" transform="scale(0.3 0.3)">
          <a xlink:href="classgame_player_1_1main_classes_1_1managers_1_1_welcome_manager_a85bf325329fe7587bbe74526c37c11c0_cgraph_org.svg" target="_base">
           <rect id="button" ry="5" rx="5" y="6" x="6" height="38" width="38"
                fill="#f2f5e9" fill-opacity="0.5" stroke="#606060" stroke-width="1.0"/>
           <path id="arrow"
             d="M 11.500037,31.436501 C 11.940474,20.09759 22.043105,11.32322 32.158766,21.979434 L 37.068811,17.246167 C 37.068811,17.246167 37.088388,32 37.088388,32 L 22.160133,31.978069 C 22.160133,31.978069 26.997745,27.140456 26.997745,27.140456 C 18.528582,18.264221 13.291696,25.230495 11.500037,31.436501 z"
             style="fill:#404040;"/>
          </a>
         </g>
        </svg>
</svg>
