<?xml version="1.0" encoding="UTF-8" standalone="no"?>
<!DOCTYPE svg PUBLIC "-//W3C//DTD SVG 1.1//EN"
 "http://www.w3.org/Graphics/SVG/1.1/DTD/svg11.dtd">
<!-- Generated by graphviz version 2.36.0 (20140111.2315)
 -->
<!-- Title: gamePlayer.mainClasses.managers.WelcomeManager.startMultiPlayerGameChooser Pages: 1 -->
<svg width="418pt" height="48pt"
 viewBox="0.00 0.00 418.00 48.00" xmlns="http://www.w3.org/2000/svg" xmlns:xlink="http://www.w3.org/1999/xlink">
<g id="graph0" class="graph" transform="scale(1 1) rotate(0) translate(4 44)">
<title>gamePlayer.mainClasses.managers.WelcomeManager.startMultiPlayerGameChooser</title>
<polygon fill="white" stroke="none" points="-4,4 -4,-44 414,-44 414,4 -4,4"/>
<!-- Node1 -->
<g id="node1" class="node"><title>Node1</title>
<polygon fill="#bfbfbf" stroke="black" points="0.5,0.5 0.5,-40.5 207.5,-40.5 207.5,0.5 0.5,0.5"/>
<text text-anchor="start" x="8.5" y="-28.5" font-family="Helvetica,sans-Serif" font-size="10.00">gamePlayer.mainClasses.managers.</text>
<text text-anchor="start" x="8.5" y="-17.5" font-family="Helvetica,sans-Serif" font-size="10.00">WelcomeManager.startMultiPlayerGame</text>
<text text-anchor="middle" x="104" y="-6.5" font-family="Helvetica,sans-Serif" font-size="10.00">Chooser</text>
</g>
<!-- Node2 -->
<g id="node2" class="node"><title>Node2</title>
<g id="a_node2"><a xlink:href="../../dc/dbd/classgame_player_1_1gui_items_1_1welcome_1_1_welcome_navigator.html#a32b1bc7fdb44cb15dddc68a8c72abd0a" target="_top" xlink:title="gamePlayer.guiItems.welcome.\lWelcomeNavigator.setContent">
<polygon fill="white" stroke="black" points="244.5,-5 244.5,-35 409.5,-35 409.5,-5 244.5,-5"/>
<text text-anchor="start" x="252.5" y="-23" font-family="Helvetica,sans-Serif" font-size="10.00">gamePlayer.guiItems.welcome.</text>
<text text-anchor="middle" x="327" y="-12" font-family="Helvetica,sans-Serif" font-size="10.00">WelcomeNavigator.setContent</text>
</a>
</g>
</g>
<!-- Node1&#45;&gt;Node2 -->
<g id="edge1" class="edge"><title>Node1&#45;&gt;Node2</title>
<path fill="none" stroke="midnightblue" d="M207.736,-20C216.567,-20 225.464,-20 234.201,-20"/>
<polygon fill="midnightblue" stroke="midnightblue" points="234.37,-23.5001 244.37,-20 234.37,-16.5001 234.37,-23.5001"/>
</g>
</g>
</svg>
