<?xml version="1.0" encoding="UTF-8" standalone="no"?>
<!DOCTYPE svg PUBLIC "-//W3C//DTD SVG 1.1//EN"
 "http://www.w3.org/Graphics/SVG/1.1/DTD/svg11.dtd">
<!-- Generated by graphviz version 2.36.0 (20140111.2315)
 -->
<!-- Title: utilities.video.VideoPlayer Pages: 1 -->
<!--zoomable 106 -->
<svg id="main" version="1.1" xmlns="http://www.w3.org/2000/svg" xmlns:xlink="http://www.w3.org/1999/xlink" xml:space="preserve" onload="init(evt)">
<style type="text/css"><![CDATA[
.edge:hover path { stroke: red; }
.edge:hover polygon { stroke: red; fill: red; }
]]></style>
<script type="text/javascript"><![CDATA[
var edges = document.getElementsByTagName('g');
if (edges && edges.length) {
  for (var i=0;i<edges.length;i++) {
    if (edges[i].id.substr(0,4)=='edge') {
      edges[i].setAttribute('class','edge');
    }
  }
}
]]></script>
        <defs>
                <circle id="rim" cx="0" cy="0" r="7"/>
                <circle id="rim2" cx="0" cy="0" r="3.5"/>
                <g id="zoomPlus">
                        <use xlink:href="#rim" fill="#404040">
                                <set attributeName="fill" to="#808080" begin="zoomplus.mouseover" end="zoomplus.mouseout"/>
                        </use>
                        <path d="M-4,0h8M0,-4v8" fill="none" stroke="white" stroke-width="1.5" pointer-events="none"/>
                </g>
                <g id="zoomMin">
                        <use xlink:href="#rim" fill="#404040">
                                <set attributeName="fill" to="#808080" begin="zoomminus.mouseover" end="zoomminus.mouseout"/>
                        </use>
                        <path d="M-4,0h8" fill="none" stroke="white" stroke-width="1.5" pointer-events="none"/>
                </g>
                <g id="dirArrow">
                        <path fill="none" stroke="white" stroke-width="1.5" d="M0,-3.0v7 M-2.5,-0.5L0,-3.0L2.5,-0.5"/>
                </g>
               <g id="resetDef">
                       <use xlink:href="#rim2" fill="#404040">
                               <set attributeName="fill" to="#808080" begin="reset.mouseover" end="reset.mouseout"/>
                       </use>
               </g>
        </defs>

<script type="text/javascript">
var viewWidth = 656;
var viewHeight = 106;
var sectionId = 'dynsection-1';
</script>
<script xlink:href="../../svgpan.js"/>
<svg id="graph" class="graph">
<g id="viewport">
<title>utilities.video.VideoPlayer</title>
<polygon fill="white" stroke="none" points="-4,4 -4,-102 652,-102 652,4 -4,4"/>
<!-- Node1 -->
<g id="node1" class="node"><title>Node1</title>
<polygon fill="#bfbfbf" stroke="black" points="240,-0.5 240,-19.5 378,-19.5 378,-0.5 240,-0.5"/>
<text text-anchor="middle" x="309" y="-7.5" font-family="Helvetica,sans-Serif" font-size="10.00">utilities.video.VideoPlayer</text>
</g>
<!-- Node2 -->
<g id="node2" class="node"><title>Node2</title>
<polygon fill="white" stroke="#bfbfbf" points="0,-78.5 0,-97.5 72,-97.5 72,-78.5 0,-78.5"/>
<text text-anchor="middle" x="36" y="-85.5" font-family="Helvetica,sans-Serif" font-size="10.00">BorderPane</text>
</g>
<!-- Node2&#45;&gt;Node1 -->
<g id="edge1" class="edge"><title>Node2&#45;&gt;Node1</title>
<path fill="none" stroke="midnightblue" d="M58.369,-73.1288C77.4904,-61.9122 106.101,-46.6162 133,-38 167.297,-27.014 206.827,-20.4354 239.725,-16.5279"/>
<polygon fill="midnightblue" stroke="midnightblue" points="56.3257,-70.2727 49.5439,-78.4127 59.9216,-76.2785 56.3257,-70.2727"/>
</g>
<!-- Node3 -->
<g id="node3" class="node"><title>Node3</title>
<polygon fill="white" stroke="#bfbfbf" points="90,-78.5 90,-97.5 164,-97.5 164,-78.5 90,-78.5"/>
<text text-anchor="middle" x="127" y="-85.5" font-family="Helvetica,sans-Serif" font-size="10.00">MediaPlayer</text>
</g>
<!-- Node3&#45;&gt;Node1 -->
<g id="edge2" class="edge"><title>Node3&#45;&gt;Node1</title>
<path fill="none" stroke="#9a32cd" stroke-dasharray="5,2" d="M132.282,-68.5352C136.266,-57.9645 142.824,-45.3754 153,-38 166.965,-27.8782 204.729,-21.1916 239.602,-17.0047"/>
<polygon fill="#9a32cd" stroke="#9a32cd" points="128.915,-67.5724 129.118,-78.1653 135.565,-69.7579 128.915,-67.5724"/>
<text text-anchor="middle" x="191" y="-46.5" font-family="Helvetica,sans-Serif" font-size="10.00"> myMediaPlayer</text>
</g>
<!-- Node4 -->
<g id="node4" class="node"><title>Node4</title>
<polygon fill="white" stroke="#bfbfbf" points="197,-78.5 197,-97.5 255,-97.5 255,-78.5 197,-78.5"/>
<text text-anchor="middle" x="226" y="-85.5" font-family="Helvetica,sans-Serif" font-size="10.00">Duration</text>
</g>
<!-- Node4&#45;&gt;Node1 -->
<g id="edge3" class="edge"><title>Node4&#45;&gt;Node1</title>
<path fill="none" stroke="#9a32cd" stroke-dasharray="5,2" d="M229.506,-68.381C232.24,-58.306 236.971,-46.2679 245,-38 253.149,-29.6082 264.311,-23.6994 275.033,-19.5968"/>
<polygon fill="#9a32cd" stroke="#9a32cd" points="226.062,-67.7452 227.263,-78.2717 232.888,-69.2935 226.062,-67.7452"/>
<text text-anchor="middle" x="275" y="-46.5" font-family="Helvetica,sans-Serif" font-size="10.00"> myDuration</text>
</g>
<!-- Node5 -->
<g id="node5" class="node"><title>Node5</title>
<polygon fill="white" stroke="#bfbfbf" points="288,-78.5 288,-97.5 330,-97.5 330,-78.5 288,-78.5"/>
<text text-anchor="middle" x="309" y="-85.5" font-family="Helvetica,sans-Serif" font-size="10.00">Label</text>
</g>
<!-- Node5&#45;&gt;Node1 -->
<g id="edge4" class="edge"><title>Node5&#45;&gt;Node1</title>
<path fill="none" stroke="#9a32cd" stroke-dasharray="5,2" d="M309,-68.2239C309,-52.6974 309,-31.3582 309,-19.6165"/>
<polygon fill="#9a32cd" stroke="#9a32cd" points="305.5,-68.2818 309,-78.2818 312.5,-68.2819 305.5,-68.2818"/>
<text text-anchor="middle" x="342.5" y="-46.5" font-family="Helvetica,sans-Serif" font-size="10.00"> myTimeLabel</text>
</g>
<!-- Node6 -->
<g id="node6" class="node"><title>Node6</title>
<polygon fill="white" stroke="#bfbfbf" points="377,-78.5 377,-97.5 421,-97.5 421,-78.5 377,-78.5"/>
<text text-anchor="middle" x="399" y="-85.5" font-family="Helvetica,sans-Serif" font-size="10.00">Slider</text>
</g>
<!-- Node6&#45;&gt;Node1 -->
<g id="edge5" class="edge"><title>Node6&#45;&gt;Node1</title>
<path fill="none" stroke="#9a32cd" stroke-dasharray="5,2" d="M394.334,-68.2852C390.978,-58.1799 385.51,-46.1434 377,-38 368.19,-29.5694 356.425,-23.6649 345.16,-19.5775"/>
<polygon fill="#9a32cd" stroke="#9a32cd" points="391.063,-69.5742 397.191,-78.2169 397.79,-67.639 391.063,-69.5742"/>
<text text-anchor="middle" x="431.5" y="-52" font-family="Helvetica,sans-Serif" font-size="10.00"> myTimeSlider</text>
<text text-anchor="middle" x="431.5" y="-41" font-family="Helvetica,sans-Serif" font-size="10.00">myVolumeSlider</text>
</g>
<!-- Node7 -->
<g id="node7" class="node"><title>Node7</title>
<polygon fill="white" stroke="#bfbfbf" points="467.5,-78.5 467.5,-97.5 534.5,-97.5 534.5,-78.5 467.5,-78.5"/>
<text text-anchor="middle" x="501" y="-85.5" font-family="Helvetica,sans-Serif" font-size="10.00">MediaView</text>
</g>
<!-- Node7&#45;&gt;Node1 -->
<g id="edge6" class="edge"><title>Node7&#45;&gt;Node1</title>
<path fill="none" stroke="#9a32cd" stroke-dasharray="5,2" d="M495.744,-68.498C491.77,-57.9138 485.213,-45.3237 475,-38 459.517,-26.8977 416.683,-20.0983 378.406,-16.0999"/>
<polygon fill="#9a32cd" stroke="#9a32cd" points="492.464,-69.7266 498.898,-78.1441 499.117,-67.5515 492.464,-69.7266"/>
<text text-anchor="middle" x="526.5" y="-46.5" font-family="Helvetica,sans-Serif" font-size="10.00"> myMediaView</text>
</g>
<!-- Node8 -->
<g id="node8" class="node"><title>Node8</title>
<polygon fill="white" stroke="#bfbfbf" points="572,-78.5 572,-97.5 614,-97.5 614,-78.5 572,-78.5"/>
<text text-anchor="middle" x="593" y="-85.5" font-family="Helvetica,sans-Serif" font-size="10.00">HBox</text>
</g>
<!-- Node8&#45;&gt;Node1 -->
<g id="edge7" class="edge"><title>Node8&#45;&gt;Node1</title>
<path fill="none" stroke="#9a32cd" stroke-dasharray="5,2" d="M587.413,-68.9595C583.083,-58.1441 575.943,-45.1437 565,-38 535.202,-18.5472 443.413,-12.8482 378.288,-11.319"/>
<polygon fill="#9a32cd" stroke="#9a32cd" points="584.114,-70.1269 590.736,-78.397 590.716,-67.8022 584.114,-70.1269"/>
<text text-anchor="middle" x="616" y="-46.5" font-family="Helvetica,sans-Serif" font-size="10.00"> myMediaBar</text>
</g>
</g>
</svg>
        <g id="navigator" transform="translate(0 0)" fill="#404254">
                <rect fill="#f2f5e9" fill-opacity="0.5" stroke="#606060" stroke-width=".5" x="0" y="0" width="60" height="60"/>
                <use id="zoomplus" xlink:href="#zoomPlus" x="17" y="9" onmousedown="handleZoom(evt,'in')"/>
                <use id="zoomminus" xlink:href="#zoomMin" x="42" y="9" onmousedown="handleZoom(evt,'out')"/>
                <use id="reset" xlink:href="#resetDef" x="30" y="36" onmousedown="handleReset()"/>
                <g id="arrowUp" xlink:href="#dirArrow" transform="translate(30 24)" onmousedown="handlePan(0,-1)">
                  <use xlink:href="#rim" fill="#404040">
                        <set attributeName="fill" to="#808080" begin="arrowUp.mouseover" end="arrowUp.mouseout"/>
                  </use>
                  <path fill="none" stroke="white" stroke-width="1.5" d="M0,-3.0v7 M-2.5,-0.5L0,-3.0L2.5,-0.5"/>
                </g>
                <g id="arrowRight" xlink:href="#dirArrow" transform="rotate(90) translate(36 -43)" onmousedown="handlePan(1,0)">
                  <use xlink:href="#rim" fill="#404040">
                        <set attributeName="fill" to="#808080" begin="arrowRight.mouseover" end="arrowRight.mouseout"/>
                  </use>
                  <path fill="none" stroke="white" stroke-width="1.5" d="M0,-3.0v7 M-2.5,-0.5L0,-3.0L2.5,-0.5"/>
                </g>
                <g id="arrowDown" xlink:href="#dirArrow" transform="rotate(180) translate(-30 -48)" onmousedown="handlePan(0,1)">
                  <use xlink:href="#rim" fill="#404040">
                        <set attributeName="fill" to="#808080" begin="arrowDown.mouseover" end="arrowDown.mouseout"/>
                  </use>
                  <path fill="none" stroke="white" stroke-width="1.5" d="M0,-3.0v7 M-2.5,-0.5L0,-3.0L2.5,-0.5"/>
                </g>
                <g id="arrowLeft" xlink:href="#dirArrow" transform="rotate(270) translate(-36 17)" onmousedown="handlePan(-1,0)">
                  <use xlink:href="#rim" fill="#404040">
                        <set attributeName="fill" to="#808080" begin="arrowLeft.mouseover" end="arrowLeft.mouseout"/>
                  </use>
                  <path fill="none" stroke="white" stroke-width="1.5" d="M0,-3.0v7 M-2.5,-0.5L0,-3.0L2.5,-0.5"/>
                </g>
        </g>
        <svg viewBox="0 0 15 15" width="100%" height="30px" preserveAspectRatio="xMaxYMin meet">
         <g id="arrow_out" transform="scale(0.3 0.3)">
          <a xlink:href="classutilities_1_1video_1_1_video_player__coll__graph_org.svg" target="_base">
           <rect id="button" ry="5" rx="5" y="6" x="6" height="38" width="38"
                fill="#f2f5e9" fill-opacity="0.5" stroke="#606060" stroke-width="1.0"/>
           <path id="arrow"
             d="M 11.500037,31.436501 C 11.940474,20.09759 22.043105,11.32322 32.158766,21.979434 L 37.068811,17.246167 C 37.068811,17.246167 37.088388,32 37.088388,32 L 22.160133,31.978069 C 22.160133,31.978069 26.997745,27.140456 26.997745,27.140456 C 18.528582,18.264221 13.291696,25.230495 11.500037,31.436501 z"
             style="fill:#404040;"/>
          </a>
         </g>
        </svg>
</svg>
