<?xml version="1.0" encoding="UTF-8" standalone="no"?>
<!DOCTYPE svg PUBLIC "-//W3C//DTD SVG 1.1//EN"
 "http://www.w3.org/Graphics/SVG/1.1/DTD/svg11.dtd">
<!-- Generated by graphviz version 2.36.0 (20140111.2315)
 -->
<!-- Title: gamePlayer.guiItems.voogaMenuBar.VoogaMenuBar.createMenu Pages: 1 -->
<svg width="634pt" height="87pt"
 viewBox="0.00 0.00 634.00 87.00" xmlns="http://www.w3.org/2000/svg" xmlns:xlink="http://www.w3.org/1999/xlink">
<g id="graph0" class="graph" transform="scale(1 1) rotate(0) translate(4 83)">
<title>gamePlayer.guiItems.voogaMenuBar.VoogaMenuBar.createMenu</title>
<polygon fill="white" stroke="none" points="-4,4 -4,-83 630,-83 630,4 -4,4"/>
<!-- Node1 -->
<g id="node1" class="node"><title>Node1</title>
<polygon fill="#bfbfbf" stroke="black" points="0,-24 0,-54 194,-54 194,-24 0,-24"/>
<text text-anchor="start" x="8" y="-42" font-family="Helvetica,sans-Serif" font-size="10.00">gamePlayer.guiItems.vooga</text>
<text text-anchor="middle" x="97" y="-31" font-family="Helvetica,sans-Serif" font-size="10.00">MenuBar.VoogaMenuBar.createMenu</text>
</g>
<!-- Node2 -->
<g id="node2" class="node"><title>Node2</title>
<g id="a_node2"><a xlink:href="../../df/db4/classutilities_1_1_x_m_l_parsing_1_1_x_m_l_parser.html#a70485375200a84f459aa83ffedbea646" target="_top" xlink:title="utilities.XMLParsing.XMLParser.get\lValuesFromTag">
<polygon fill="white" stroke="black" points="232,-49 232,-79 410,-79 410,-49 232,-49"/>
<text text-anchor="start" x="240" y="-67" font-family="Helvetica,sans-Serif" font-size="10.00">utilities.XMLParsing.XMLParser.get</text>
<text text-anchor="middle" x="321" y="-56" font-family="Helvetica,sans-Serif" font-size="10.00">ValuesFromTag</text>
</a>
</g>
</g>
<!-- Node1&#45;&gt;Node2 -->
<g id="edge1" class="edge"><title>Node1&#45;&gt;Node2</title>
<path fill="none" stroke="midnightblue" d="M194.081,-49.82C203.289,-50.8569 212.637,-51.9096 221.864,-52.9487"/>
<polygon fill="midnightblue" stroke="midnightblue" points="221.489,-56.4284 231.818,-54.0695 222.272,-49.4724 221.489,-56.4284"/>
</g>
<!-- Node4 -->
<g id="node4" class="node"><title>Node4</title>
<g id="a_node4"><a xlink:href="../../d2/dbe/classgame_player_1_1gui_items_1_1vooga_menu_bar_1_1_vooga_menu_item.html#adefa8c037c5ddfba536b8af439e50c13" target="_top" xlink:title="gamePlayer.guiItems.vooga\lMenuBar.VoogaMenuItem.initialize">
<polygon fill="white" stroke="black" points="230.5,-0 230.5,-30 411.5,-30 411.5,-0 230.5,-0"/>
<text text-anchor="start" x="238.5" y="-18" font-family="Helvetica,sans-Serif" font-size="10.00">gamePlayer.guiItems.vooga</text>
<text text-anchor="middle" x="321" y="-7" font-family="Helvetica,sans-Serif" font-size="10.00">MenuBar.VoogaMenuItem.initialize</text>
</a>
</g>
</g>
<!-- Node1&#45;&gt;Node4 -->
<g id="edge3" class="edge"><title>Node1&#45;&gt;Node4</title>
<path fill="none" stroke="midnightblue" d="M194.081,-28.6128C202.757,-27.675 211.556,-26.7237 220.261,-25.7826"/>
<polygon fill="midnightblue" stroke="midnightblue" points="220.859,-29.2384 230.425,-24.6838 220.107,-22.2789 220.859,-29.2384"/>
</g>
<!-- Node3 -->
<g id="node3" class="node"><title>Node3</title>
<g id="a_node3"><a xlink:href="../../df/db4/classutilities_1_1_x_m_l_parsing_1_1_x_m_l_parser.html#ab3a0a60481d20e93b1382f9a8a31fe9d" target="_top" xlink:title="utilities.XMLParsing.XMLParser.get\lValues">
<polygon fill="white" stroke="black" points="448,-49 448,-79 626,-79 626,-49 448,-49"/>
<text text-anchor="start" x="456" y="-67" font-family="Helvetica,sans-Serif" font-size="10.00">utilities.XMLParsing.XMLParser.get</text>
<text text-anchor="middle" x="537" y="-56" font-family="Helvetica,sans-Serif" font-size="10.00">Values</text>
</a>
</g>
</g>
<!-- Node2&#45;&gt;Node3 -->
<g id="edge2" class="edge"><title>Node2&#45;&gt;Node3</title>
<path fill="none" stroke="midnightblue" d="M410.278,-64C419.312,-64 428.53,-64 437.664,-64"/>
<polygon fill="midnightblue" stroke="midnightblue" points="437.925,-67.5001 447.925,-64 437.925,-60.5001 437.925,-67.5001"/>
</g>
</g>
</svg>
