<?xml version="1.0" encoding="UTF-8" standalone="no"?>
<!DOCTYPE svg PUBLIC "-//W3C//DTD SVG 1.1//EN"
 "http://www.w3.org/Graphics/SVG/1.1/DTD/svg11.dtd">
<!-- Generated by graphviz version 2.36.0 (20140111.2315)
 -->
<!-- Title: gamePlayer.guiItems.voogaMenuBar.VoogaMenuBar.initialize Pages: 1 -->
<!--zoomable 147 -->
<svg id="main" version="1.1" xmlns="http://www.w3.org/2000/svg" xmlns:xlink="http://www.w3.org/1999/xlink" xml:space="preserve" onload="init(evt)">
<style type="text/css"><![CDATA[
.edge:hover path { stroke: red; }
.edge:hover polygon { stroke: red; fill: red; }
]]></style>
<script type="text/javascript"><![CDATA[
var edges = document.getElementsByTagName('g');
if (edges && edges.length) {
  for (var i=0;i<edges.length;i++) {
    if (edges[i].id.substr(0,4)=='edge') {
      edges[i].setAttribute('class','edge');
    }
  }
}
]]></script>
        <defs>
                <circle id="rim" cx="0" cy="0" r="7"/>
                <circle id="rim2" cx="0" cy="0" r="3.5"/>
                <g id="zoomPlus">
                        <use xlink:href="#rim" fill="#404040">
                                <set attributeName="fill" to="#808080" begin="zoomplus.mouseover" end="zoomplus.mouseout"/>
                        </use>
                        <path d="M-4,0h8M0,-4v8" fill="none" stroke="white" stroke-width="1.5" pointer-events="none"/>
                </g>
                <g id="zoomMin">
                        <use xlink:href="#rim" fill="#404040">
                                <set attributeName="fill" to="#808080" begin="zoomminus.mouseover" end="zoomminus.mouseout"/>
                        </use>
                        <path d="M-4,0h8" fill="none" stroke="white" stroke-width="1.5" pointer-events="none"/>
                </g>
                <g id="dirArrow">
                        <path fill="none" stroke="white" stroke-width="1.5" d="M0,-3.0v7 M-2.5,-0.5L0,-3.0L2.5,-0.5"/>
                </g>
               <g id="resetDef">
                       <use xlink:href="#rim2" fill="#404040">
                               <set attributeName="fill" to="#808080" begin="reset.mouseover" end="reset.mouseout"/>
                       </use>
               </g>
        </defs>

<script type="text/javascript">
var viewWidth = 1088;
var viewHeight = 147;
var sectionId = 'dynsection-4';
</script>
<script xlink:href="../../svgpan.js"/>
<svg id="graph" class="graph">
<g id="viewport">
<title>gamePlayer.guiItems.voogaMenuBar.VoogaMenuBar.initialize</title>
<polygon fill="white" stroke="none" points="-4,4 -4,-143 1084,-143 1084,4 -4,4"/>
<!-- Node1 -->
<g id="node1" class="node"><title>Node1</title>
<polygon fill="#bfbfbf" stroke="black" points="0.5,-84 0.5,-114 175.5,-114 175.5,-84 0.5,-84"/>
<text text-anchor="start" x="8.5" y="-102" font-family="Helvetica,sans-Serif" font-size="10.00">gamePlayer.guiItems.vooga</text>
<text text-anchor="middle" x="88" y="-91" font-family="Helvetica,sans-Serif" font-size="10.00">MenuBar.VoogaMenuBar.initialize</text>
</g>
<!-- Node2 -->
<g id="node2" class="node"><title>Node2</title>
<g id="a_node2"><a xlink:href="../../df/db4/classutilities_1_1_x_m_l_parsing_1_1_x_m_l_parser.html#aac8c276e1fe06546bb4cc6488dd15047" target="_top" xlink:title="utilities.XMLParsing.XMLParser.get\lDimension">
<polygon fill="white" stroke="black" points="226,-109 226,-139 404,-139 404,-109 226,-109"/>
<text text-anchor="start" x="234" y="-127" font-family="Helvetica,sans-Serif" font-size="10.00">utilities.XMLParsing.XMLParser.get</text>
<text text-anchor="middle" x="315" y="-116" font-family="Helvetica,sans-Serif" font-size="10.00">Dimension</text>
</a>
</g>
</g>
<!-- Node1&#45;&gt;Node2 -->
<g id="edge1" class="edge"><title>Node1&#45;&gt;Node2</title>
<path fill="none" stroke="midnightblue" d="M175.669,-108.63C188.789,-110.088 202.405,-111.601 215.749,-113.083"/>
<polygon fill="midnightblue" stroke="midnightblue" points="215.563,-116.584 225.888,-114.21 216.336,-109.627 215.563,-116.584"/>
</g>
<!-- Node6 -->
<g id="node6" class="node"><title>Node6</title>
<g id="a_node6"><a xlink:href="../../da/dea/classgame_player_1_1gui_items_1_1vooga_menu_bar_1_1_vooga_menu_bar.html#a6d30f2a37964ea57895999434aa89609" target="_top" xlink:title="gamePlayer.guiItems.vooga\lMenuBar.VoogaMenuBar.initializeMenus">
<polygon fill="white" stroke="black" points="212,-60 212,-90 418,-90 418,-60 212,-60"/>
<text text-anchor="start" x="220" y="-78" font-family="Helvetica,sans-Serif" font-size="10.00">gamePlayer.guiItems.vooga</text>
<text text-anchor="middle" x="315" y="-67" font-family="Helvetica,sans-Serif" font-size="10.00">MenuBar.VoogaMenuBar.initializeMenus</text>
</a>
</g>
</g>
<!-- Node1&#45;&gt;Node6 -->
<g id="edge5" class="edge"><title>Node1&#45;&gt;Node6</title>
<path fill="none" stroke="midnightblue" d="M175.669,-89.7553C184.304,-88.8343 193.153,-87.8903 201.998,-86.9468"/>
<polygon fill="midnightblue" stroke="midnightblue" points="202.399,-90.424 211.972,-85.883 201.657,-83.4635 202.399,-90.424"/>
</g>
<!-- Node3 -->
<g id="node3" class="node"><title>Node3</title>
<g id="a_node3"><a xlink:href="../../df/db4/classutilities_1_1_x_m_l_parsing_1_1_x_m_l_parser.html#a159b395412a8ce61e6decfefc9ed9854" target="_top" xlink:title="utilities.XMLParsing.XMLParser.get\lDoubleValuesFromTag">
<polygon fill="white" stroke="black" points="462,-109 462,-139 640,-139 640,-109 462,-109"/>
<text text-anchor="start" x="470" y="-127" font-family="Helvetica,sans-Serif" font-size="10.00">utilities.XMLParsing.XMLParser.get</text>
<text text-anchor="middle" x="551" y="-116" font-family="Helvetica,sans-Serif" font-size="10.00">DoubleValuesFromTag</text>
</a>
</g>
</g>
<!-- Node2&#45;&gt;Node3 -->
<g id="edge2" class="edge"><title>Node2&#45;&gt;Node3</title>
<path fill="none" stroke="midnightblue" d="M404.132,-124C419.648,-124 435.887,-124 451.661,-124"/>
<polygon fill="midnightblue" stroke="midnightblue" points="451.948,-127.5 461.947,-124 451.947,-120.5 451.948,-127.5"/>
</g>
<!-- Node4 -->
<g id="node4" class="node"><title>Node4</title>
<g id="a_node4"><a xlink:href="../../df/db4/classutilities_1_1_x_m_l_parsing_1_1_x_m_l_parser.html#a70485375200a84f459aa83ffedbea646" target="_top" xlink:title="utilities.XMLParsing.XMLParser.get\lValuesFromTag">
<polygon fill="white" stroke="black" points="686,-109 686,-139 864,-139 864,-109 686,-109"/>
<text text-anchor="start" x="694" y="-127" font-family="Helvetica,sans-Serif" font-size="10.00">utilities.XMLParsing.XMLParser.get</text>
<text text-anchor="middle" x="775" y="-116" font-family="Helvetica,sans-Serif" font-size="10.00">ValuesFromTag</text>
</a>
</g>
</g>
<!-- Node3&#45;&gt;Node4 -->
<g id="edge3" class="edge"><title>Node3&#45;&gt;Node4</title>
<path fill="none" stroke="midnightblue" d="M640.059,-124C651.669,-124 663.629,-124 675.401,-124"/>
<polygon fill="midnightblue" stroke="midnightblue" points="675.684,-127.5 685.684,-124 675.684,-120.5 675.684,-127.5"/>
</g>
<!-- Node5 -->
<g id="node5" class="node"><title>Node5</title>
<g id="a_node5"><a xlink:href="../../df/db4/classutilities_1_1_x_m_l_parsing_1_1_x_m_l_parser.html#ab3a0a60481d20e93b1382f9a8a31fe9d" target="_top" xlink:title="utilities.XMLParsing.XMLParser.get\lValues">
<polygon fill="white" stroke="black" points="902,-109 902,-139 1080,-139 1080,-109 902,-109"/>
<text text-anchor="start" x="910" y="-127" font-family="Helvetica,sans-Serif" font-size="10.00">utilities.XMLParsing.XMLParser.get</text>
<text text-anchor="middle" x="991" y="-116" font-family="Helvetica,sans-Serif" font-size="10.00">Values</text>
</a>
</g>
</g>
<!-- Node4&#45;&gt;Node5 -->
<g id="edge4" class="edge"><title>Node4&#45;&gt;Node5</title>
<path fill="none" stroke="midnightblue" d="M864.278,-124C873.312,-124 882.53,-124 891.664,-124"/>
<polygon fill="midnightblue" stroke="midnightblue" points="891.925,-127.5 901.925,-124 891.925,-120.5 891.925,-127.5"/>
</g>
<!-- Node7 -->
<g id="node7" class="node"><title>Node7</title>
<g id="a_node7"><a xlink:href="../../da/dea/classgame_player_1_1gui_items_1_1vooga_menu_bar_1_1_vooga_menu_bar.html#aff0427df3f2b14fa6212b08d5549ca56" target="_top" xlink:title="gamePlayer.guiItems.vooga\lMenuBar.VoogaMenuBar.createMenu">
<polygon fill="white" stroke="black" points="454,-60 454,-90 648,-90 648,-60 454,-60"/>
<text text-anchor="start" x="462" y="-78" font-family="Helvetica,sans-Serif" font-size="10.00">gamePlayer.guiItems.vooga</text>
<text text-anchor="middle" x="551" y="-67" font-family="Helvetica,sans-Serif" font-size="10.00">MenuBar.VoogaMenuBar.createMenu</text>
</a>
</g>
</g>
<!-- Node6&#45;&gt;Node7 -->
<g id="edge6" class="edge"><title>Node6&#45;&gt;Node7</title>
<path fill="none" stroke="midnightblue" d="M418.295,-75C426.689,-75 435.185,-75 443.607,-75"/>
<polygon fill="midnightblue" stroke="midnightblue" points="443.831,-78.5001 453.831,-75 443.831,-71.5001 443.831,-78.5001"/>
</g>
<!-- Node9 -->
<g id="node9" class="node"><title>Node9</title>
<g id="a_node9"><a xlink:href="../../dc/d2e/classutilities_1_1multilanguage_1_1_multi_language_utility.html#a6bc704aa624d0bc11d5f18717ef5842a" target="_top" xlink:title="utilities.multilanguage.\lMultiLanguageUtility.getString\lProperty">
<polygon fill="white" stroke="black" points="471.5,-0.5 471.5,-41.5 630.5,-41.5 630.5,-0.5 471.5,-0.5"/>
<text text-anchor="start" x="479.5" y="-29.5" font-family="Helvetica,sans-Serif" font-size="10.00">utilities.multilanguage.</text>
<text text-anchor="start" x="479.5" y="-18.5" font-family="Helvetica,sans-Serif" font-size="10.00">MultiLanguageUtility.getString</text>
<text text-anchor="middle" x="551" y="-7.5" font-family="Helvetica,sans-Serif" font-size="10.00">Property</text>
</a>
</g>
</g>
<!-- Node6&#45;&gt;Node9 -->
<g id="edge9" class="edge"><title>Node6&#45;&gt;Node9</title>
<path fill="none" stroke="midnightblue" d="M381.182,-59.958C406.004,-54.2299 434.725,-47.6019 461.36,-41.4554"/>
<polygon fill="midnightblue" stroke="midnightblue" points="462.496,-44.7852 471.453,-39.1262 460.922,-37.9645 462.496,-44.7852"/>
</g>
<!-- Node7&#45;&gt;Node4 -->
<g id="edge7" class="edge"><title>Node7&#45;&gt;Node4</title>
<path fill="none" stroke="midnightblue" d="M620.116,-90.0346C644.089,-95.3259 671.215,-101.313 695.943,-106.771"/>
<polygon fill="midnightblue" stroke="midnightblue" points="695.493,-110.256 706.013,-108.994 697.002,-103.421 695.493,-110.256"/>
</g>
<!-- Node8 -->
<g id="node8" class="node"><title>Node8</title>
<g id="a_node8"><a xlink:href="../../d2/dbe/classgame_player_1_1gui_items_1_1vooga_menu_bar_1_1_vooga_menu_item.html#adefa8c037c5ddfba536b8af439e50c13" target="_top" xlink:title="gamePlayer.guiItems.vooga\lMenuBar.VoogaMenuItem.initialize">
<polygon fill="white" stroke="black" points="684.5,-60 684.5,-90 865.5,-90 865.5,-60 684.5,-60"/>
<text text-anchor="start" x="692.5" y="-78" font-family="Helvetica,sans-Serif" font-size="10.00">gamePlayer.guiItems.vooga</text>
<text text-anchor="middle" x="775" y="-67" font-family="Helvetica,sans-Serif" font-size="10.00">MenuBar.VoogaMenuItem.initialize</text>
</a>
</g>
</g>
<!-- Node7&#45;&gt;Node8 -->
<g id="edge8" class="edge"><title>Node7&#45;&gt;Node8</title>
<path fill="none" stroke="midnightblue" d="M648.081,-75C656.757,-75 665.556,-75 674.261,-75"/>
<polygon fill="midnightblue" stroke="midnightblue" points="674.425,-78.5001 684.425,-75 674.425,-71.5001 674.425,-78.5001"/>
</g>
<!-- Node10 -->
<g id="node10" class="node"><title>Node10</title>
<g id="a_node10"><a xlink:href="../../dc/d2e/classutilities_1_1multilanguage_1_1_multi_language_utility.html#a124b4a760f410841ecc50dd4b16e40bb" target="_top" xlink:title="utilities.multilanguage.\lMultiLanguageUtility.getProperty">
<polygon fill="white" stroke="black" points="689.5,-6 689.5,-36 860.5,-36 860.5,-6 689.5,-6"/>
<text text-anchor="start" x="697.5" y="-24" font-family="Helvetica,sans-Serif" font-size="10.00">utilities.multilanguage.</text>
<text text-anchor="middle" x="775" y="-13" font-family="Helvetica,sans-Serif" font-size="10.00">MultiLanguageUtility.getProperty</text>
</a>
</g>
</g>
<!-- Node9&#45;&gt;Node10 -->
<g id="edge10" class="edge"><title>Node9&#45;&gt;Node10</title>
<path fill="none" stroke="midnightblue" d="M630.581,-21C646.385,-21 663.15,-21 679.433,-21"/>
<polygon fill="midnightblue" stroke="midnightblue" points="679.496,-24.5001 689.496,-21 679.496,-17.5001 679.496,-24.5001"/>
</g>
</g>
</svg>
        <g id="navigator" transform="translate(0 0)" fill="#404254">
                <rect fill="#f2f5e9" fill-opacity="0.5" stroke="#606060" stroke-width=".5" x="0" y="0" width="60" height="60"/>
                <use id="zoomplus" xlink:href="#zoomPlus" x="17" y="9" onmousedown="handleZoom(evt,'in')"/>
                <use id="zoomminus" xlink:href="#zoomMin" x="42" y="9" onmousedown="handleZoom(evt,'out')"/>
                <use id="reset" xlink:href="#resetDef" x="30" y="36" onmousedown="handleReset()"/>
                <g id="arrowUp" xlink:href="#dirArrow" transform="translate(30 24)" onmousedown="handlePan(0,-1)">
                  <use xlink:href="#rim" fill="#404040">
                        <set attributeName="fill" to="#808080" begin="arrowUp.mouseover" end="arrowUp.mouseout"/>
                  </use>
                  <path fill="none" stroke="white" stroke-width="1.5" d="M0,-3.0v7 M-2.5,-0.5L0,-3.0L2.5,-0.5"/>
                </g>
                <g id="arrowRight" xlink:href="#dirArrow" transform="rotate(90) translate(36 -43)" onmousedown="handlePan(1,0)">
                  <use xlink:href="#rim" fill="#404040">
                        <set attributeName="fill" to="#808080" begin="arrowRight.mouseover" end="arrowRight.mouseout"/>
                  </use>
                  <path fill="none" stroke="white" stroke-width="1.5" d="M0,-3.0v7 M-2.5,-0.5L0,-3.0L2.5,-0.5"/>
                </g>
                <g id="arrowDown" xlink:href="#dirArrow" transform="rotate(180) translate(-30 -48)" onmousedown="handlePan(0,1)">
                  <use xlink:href="#rim" fill="#404040">
                        <set attributeName="fill" to="#808080" begin="arrowDown.mouseover" end="arrowDown.mouseout"/>
                  </use>
                  <path fill="none" stroke="white" stroke-width="1.5" d="M0,-3.0v7 M-2.5,-0.5L0,-3.0L2.5,-0.5"/>
                </g>
                <g id="arrowLeft" xlink:href="#dirArrow" transform="rotate(270) translate(-36 17)" onmousedown="handlePan(-1,0)">
                  <use xlink:href="#rim" fill="#404040">
                        <set attributeName="fill" to="#808080" begin="arrowLeft.mouseover" end="arrowLeft.mouseout"/>
                  </use>
                  <path fill="none" stroke="white" stroke-width="1.5" d="M0,-3.0v7 M-2.5,-0.5L0,-3.0L2.5,-0.5"/>
                </g>
        </g>
        <svg viewBox="0 0 15 15" width="100%" height="30px" preserveAspectRatio="xMaxYMin meet">
         <g id="arrow_out" transform="scale(0.3 0.3)">
          <a xlink:href="classgame_player_1_1gui_items_1_1vooga_menu_bar_1_1_vooga_menu_bar_ad9f06b8904cfe0c510d8b8dd3819bad5_cgraph_org.svg" target="_base">
           <rect id="button" ry="5" rx="5" y="6" x="6" height="38" width="38"
                fill="#f2f5e9" fill-opacity="0.5" stroke="#606060" stroke-width="1.0"/>
           <path id="arrow"
             d="M 11.500037,31.436501 C 11.940474,20.09759 22.043105,11.32322 32.158766,21.979434 L 37.068811,17.246167 C 37.068811,17.246167 37.088388,32 37.088388,32 L 22.160133,31.978069 C 22.160133,31.978069 26.997745,27.140456 26.997745,27.140456 C 18.528582,18.264221 13.291696,25.230495 11.500037,31.436501 z"
             style="fill:#404040;"/>
          </a>
         </g>
        </svg>
</svg>
