<?xml version="1.0" encoding="UTF-8" standalone="no"?>
<!DOCTYPE svg PUBLIC "-//W3C//DTD SVG 1.1//EN"
 "http://www.w3.org/Graphics/SVG/1.1/DTD/svg11.dtd">
<!-- Generated by graphviz version 2.36.0 (20140111.2315)
 -->
<!-- Title: gameEngine.Data.RangeRestrictedCollection&lt; T extends BaseActor &gt; Pages: 1 -->
<svg width="192pt" height="96pt"
 viewBox="0.00 0.00 192.00 96.00" xmlns="http://www.w3.org/2000/svg" xmlns:xlink="http://www.w3.org/1999/xlink">
<g id="graph0" class="graph" transform="scale(1 1) rotate(0) translate(4 92)">
<title>gameEngine.Data.RangeRestrictedCollection&lt; T extends BaseActor &gt;</title>
<polygon fill="white" stroke="none" points="-4,4 -4,-92 188,-92 188,4 -4,4"/>
<!-- Node1 -->
<g id="node1" class="node"><title>Node1</title>
<polygon fill="#bfbfbf" stroke="black" points="-0.5,-1 -0.5,-31 184.5,-31 184.5,-1 -0.5,-1"/>
<text text-anchor="start" x="7.5" y="-19" font-family="Helvetica,sans-Serif" font-size="10.00">gameEngine.Data.RangeRestricted</text>
<text text-anchor="middle" x="92" y="-8" font-family="Helvetica,sans-Serif" font-size="10.00">Collection&lt; T extends BaseActor &gt;</text>
</g>
<!-- Node2 -->
<g id="node2" class="node"><title>Node2</title>
<polygon fill="white" stroke="#bfbfbf" points="29,-68.5 29,-87.5 75,-87.5 75,-68.5 29,-68.5"/>
<text text-anchor="middle" x="52" y="-75.5" font-family="Helvetica,sans-Serif" font-size="10.00">Group</text>
</g>
<!-- Node2&#45;&gt;Node1 -->
<g id="edge1" class="edge"><title>Node2&#45;&gt;Node1</title>
<path fill="none" stroke="midnightblue" d="M63.4532,-59.8202C69.5083,-50.7375 76.8508,-39.7238 82.5728,-31.1408"/>
<polygon fill="midnightblue" stroke="midnightblue" points="60.3659,-58.1415 57.731,-68.4035 66.1903,-62.0244 60.3659,-58.1415"/>
</g>
<!-- Node3 -->
<g id="node3" class="node"><title>Node3</title>
<polygon fill="white" stroke="#bfbfbf" points="93,-68.5 93,-87.5 173,-87.5 173,-68.5 93,-68.5"/>
<text text-anchor="middle" x="133" y="-75.5" font-family="Helvetica,sans-Serif" font-size="10.00">Iterable&lt; T &gt;</text>
</g>
<!-- Node3&#45;&gt;Node1 -->
<g id="edge2" class="edge"><title>Node3&#45;&gt;Node1</title>
<path fill="none" stroke="midnightblue" d="M121.456,-60.1064C115.213,-50.9697 107.59,-39.8142 101.663,-31.1408"/>
<polygon fill="midnightblue" stroke="midnightblue" points="118.594,-62.1217 127.126,-68.4035 124.374,-58.1723 118.594,-62.1217"/>
</g>
</g>
</svg>
