<?xml version="1.0" encoding="UTF-8" standalone="no"?>
<!DOCTYPE svg PUBLIC "-//W3C//DTD SVG 1.1//EN"
 "http://www.w3.org/Graphics/SVG/1.1/DTD/svg11.dtd">
<!-- Generated by graphviz version 2.36.0 (20140111.2315)
 -->
<!-- Title: gameEngine.actors.behaviors.BaseAttack Pages: 1 -->
<svg width="277pt" height="120pt"
 viewBox="0.00 0.00 277.00 120.00" xmlns="http://www.w3.org/2000/svg" xmlns:xlink="http://www.w3.org/1999/xlink">
<g id="graph0" class="graph" transform="scale(1 1) rotate(0) translate(4 116)">
<title>gameEngine.actors.behaviors.BaseAttack</title>
<polygon fill="white" stroke="none" points="-4,4 -4,-116 273,-116 273,4 -4,4"/>
<!-- Node1 -->
<g id="node1" class="node"><title>Node1</title>
<polygon fill="#bfbfbf" stroke="black" points="72,-1 72,-31 234,-31 234,-1 72,-1"/>
<text text-anchor="start" x="80" y="-19" font-family="Helvetica,sans-Serif" font-size="10.00">gameEngine.actors.behaviors.</text>
<text text-anchor="middle" x="153" y="-8" font-family="Helvetica,sans-Serif" font-size="10.00">BaseAttack</text>
</g>
<!-- Node2 -->
<g id="node2" class="node"><title>Node2</title>
<g id="a_node2"><a xlink:href="../../dd/d43/interfacegame_engine_1_1actors_1_1behaviors_1_1_i_behavior.html" target="_top" xlink:title="gameEngine.actors.behaviors.\lIBehavior">
<polygon fill="white" stroke="black" points="0,-81 0,-111 162,-111 162,-81 0,-81"/>
<text text-anchor="start" x="8" y="-99" font-family="Helvetica,sans-Serif" font-size="10.00">gameEngine.actors.behaviors.</text>
<text text-anchor="middle" x="81" y="-88" font-family="Helvetica,sans-Serif" font-size="10.00">IBehavior</text>
</a>
</g>
</g>
<!-- Node2&#45;&gt;Node1 -->
<g id="edge1" class="edge"><title>Node2&#45;&gt;Node1</title>
<path fill="none" stroke="midnightblue" d="M101.084,-73.2427C113.485,-59.8075 129.042,-42.9542 139.878,-31.2157"/>
<polygon fill="midnightblue" stroke="midnightblue" points="98.4169,-70.9715 94.2059,-80.6936 103.561,-75.7195 98.4169,-70.9715"/>
</g>
<!-- Node3 -->
<g id="node3" class="node"><title>Node3</title>
<polygon fill="white" stroke="#bfbfbf" points="180.5,-86.5 180.5,-105.5 269.5,-105.5 269.5,-86.5 180.5,-86.5"/>
<text text-anchor="middle" x="225" y="-93.5" font-family="Helvetica,sans-Serif" font-size="10.00">List&lt; Double &gt;</text>
</g>
<!-- Node3&#45;&gt;Node1 -->
<g id="edge2" class="edge"><title>Node3&#45;&gt;Node1</title>
<path fill="none" stroke="#9a32cd" stroke-dasharray="5,2" d="M210.132,-78.8928C197.171,-64.8519 178.553,-44.6827 166.133,-31.227"/>
<polygon fill="#9a32cd" stroke="#9a32cd" points="207.665,-81.3805 217.02,-86.3546 212.809,-76.6326 207.665,-81.3805"/>
<text text-anchor="middle" x="211.5" y="-53.5" font-family="Helvetica,sans-Serif" font-size="10.00"> myList</text>
</g>
</g>
</svg>
