<?xml version="1.0" encoding="UTF-8" standalone="no"?>
<!DOCTYPE svg PUBLIC "-//W3C//DTD SVG 1.1//EN"
 "http://www.w3.org/Graphics/SVG/1.1/DTD/svg11.dtd">
<!-- Generated by graphviz version 2.36.0 (20140111.2315)
 -->
<!-- Title: gameAuthoring.scenes.WelcomeScene.createLanguageComboBox Pages: 1 -->
<!--zoomable 230 -->
<svg id="main" version="1.1" xmlns="http://www.w3.org/2000/svg" xmlns:xlink="http://www.w3.org/1999/xlink" xml:space="preserve" onload="init(evt)">
<style type="text/css"><![CDATA[
.edge:hover path { stroke: red; }
.edge:hover polygon { stroke: red; fill: red; }
]]></style>
<script type="text/javascript"><![CDATA[
var edges = document.getElementsByTagName('g');
if (edges && edges.length) {
  for (var i=0;i<edges.length;i++) {
    if (edges[i].id.substr(0,4)=='edge') {
      edges[i].setAttribute('class','edge');
    }
  }
}
]]></script>
        <defs>
                <circle id="rim" cx="0" cy="0" r="7"/>
                <circle id="rim2" cx="0" cy="0" r="3.5"/>
                <g id="zoomPlus">
                        <use xlink:href="#rim" fill="#404040">
                                <set attributeName="fill" to="#808080" begin="zoomplus.mouseover" end="zoomplus.mouseout"/>
                        </use>
                        <path d="M-4,0h8M0,-4v8" fill="none" stroke="white" stroke-width="1.5" pointer-events="none"/>
                </g>
                <g id="zoomMin">
                        <use xlink:href="#rim" fill="#404040">
                                <set attributeName="fill" to="#808080" begin="zoomminus.mouseover" end="zoomminus.mouseout"/>
                        </use>
                        <path d="M-4,0h8" fill="none" stroke="white" stroke-width="1.5" pointer-events="none"/>
                </g>
                <g id="dirArrow">
                        <path fill="none" stroke="white" stroke-width="1.5" d="M0,-3.0v7 M-2.5,-0.5L0,-3.0L2.5,-0.5"/>
                </g>
               <g id="resetDef">
                       <use xlink:href="#rim2" fill="#404040">
                               <set attributeName="fill" to="#808080" begin="reset.mouseover" end="reset.mouseout"/>
                       </use>
               </g>
        </defs>

<script type="text/javascript">
var viewWidth = 850;
var viewHeight = 230;
var sectionId = 'dynsection-3';
</script>
<script xlink:href="../../svgpan.js"/>
<svg id="graph" class="graph">
<g id="viewport">
<title>gameAuthoring.scenes.WelcomeScene.createLanguageComboBox</title>
<polygon fill="white" stroke="none" points="-4,4 -4,-226 846,-226 846,4 -4,4"/>
<!-- Node1 -->
<g id="node1" class="node"><title>Node1</title>
<polygon fill="#bfbfbf" stroke="black" points="0,-123 0,-153 180,-153 180,-123 0,-123"/>
<text text-anchor="start" x="8" y="-141" font-family="Helvetica,sans-Serif" font-size="10.00">gameAuthoring.scenes.Welcome</text>
<text text-anchor="middle" x="90" y="-130" font-family="Helvetica,sans-Serif" font-size="10.00">Scene.createLanguageComboBox</text>
</g>
<!-- Node2 -->
<g id="node2" class="node"><title>Node2</title>
<g id="a_node2"><a xlink:href="../../dc/d2e/classutilities_1_1multilanguage_1_1_multi_language_utility.html#aaa34262e5a69e5d96d435c4f9872e544" target="_top" xlink:title="utilities.multilanguage.\lMultiLanguageUtility.getInstance">
<polygon fill="white" stroke="black" points="219.5,-148 219.5,-178 390.5,-178 390.5,-148 219.5,-148"/>
<text text-anchor="start" x="227.5" y="-166" font-family="Helvetica,sans-Serif" font-size="10.00">utilities.multilanguage.</text>
<text text-anchor="middle" x="305" y="-155" font-family="Helvetica,sans-Serif" font-size="10.00">MultiLanguageUtility.getInstance</text>
</a>
</g>
</g>
<!-- Node1&#45;&gt;Node2 -->
<g id="edge1" class="edge"><title>Node1&#45;&gt;Node2</title>
<path fill="none" stroke="midnightblue" d="M180.097,-148.457C189.742,-149.589 199.584,-150.745 209.292,-151.884"/>
<polygon fill="midnightblue" stroke="midnightblue" points="209.008,-155.375 219.348,-153.064 209.824,-148.422 209.008,-155.375"/>
</g>
<!-- Node4 -->
<g id="node4" class="node"><title>Node4</title>
<g id="a_node4"><a xlink:href="../../dc/d2e/classutilities_1_1multilanguage_1_1_multi_language_utility.html#a9f7f62c6c1f93e2f9d815f7335b6cef3" target="_top" xlink:title="utilities.multilanguage.\lMultiLanguageUtility.setLanguage">
<polygon fill="white" stroke="black" points="216.5,-98 216.5,-128 393.5,-128 393.5,-98 216.5,-98"/>
<text text-anchor="start" x="224.5" y="-116" font-family="Helvetica,sans-Serif" font-size="10.00">utilities.multilanguage.</text>
<text text-anchor="middle" x="305" y="-105" font-family="Helvetica,sans-Serif" font-size="10.00">MultiLanguageUtility.setLanguage</text>
</a>
</g>
</g>
<!-- Node1&#45;&gt;Node4 -->
<g id="edge3" class="edge"><title>Node1&#45;&gt;Node4</title>
<path fill="none" stroke="midnightblue" d="M180.097,-127.543C188.7,-126.533 197.459,-125.505 206.141,-124.486"/>
<polygon fill="midnightblue" stroke="midnightblue" points="206.76,-127.937 216.284,-123.295 205.944,-120.985 206.76,-127.937"/>
</g>
<!-- Node3 -->
<g id="node3" class="node"><title>Node3</title>
<g id="a_node3"><a xlink:href="../../dc/d2e/classutilities_1_1multilanguage_1_1_multi_language_utility.html#a18c8cee78f923458998009428cd84970" target="_top" xlink:title="utilities.multilanguage.\lMultiLanguageUtility.MultiLanguage\lUtility">
<polygon fill="white" stroke="black" points="436.5,-144.5 436.5,-185.5 621.5,-185.5 621.5,-144.5 436.5,-144.5"/>
<text text-anchor="start" x="444.5" y="-173.5" font-family="Helvetica,sans-Serif" font-size="10.00">utilities.multilanguage.</text>
<text text-anchor="start" x="444.5" y="-162.5" font-family="Helvetica,sans-Serif" font-size="10.00">MultiLanguageUtility.MultiLanguage</text>
<text text-anchor="middle" x="529" y="-151.5" font-family="Helvetica,sans-Serif" font-size="10.00">Utility</text>
</a>
</g>
</g>
<!-- Node2&#45;&gt;Node3 -->
<g id="edge2" class="edge"><title>Node2&#45;&gt;Node3</title>
<path fill="none" stroke="midnightblue" d="M390.562,-163.762C402.124,-163.866 414.093,-163.974 425.925,-164.08"/>
<polygon fill="midnightblue" stroke="midnightblue" points="426.243,-167.583 436.275,-164.174 426.307,-160.584 426.243,-167.583"/>
</g>
<!-- Node5 -->
<g id="node5" class="node"><title>Node5</title>
<g id="a_node5"><a xlink:href="../../dc/d2e/classutilities_1_1multilanguage_1_1_multi_language_utility.html#a600c19aa976a0541b9b7b896dd822a8a" target="_top" xlink:title="utilities.multilanguage.\lMultiLanguageUtility.updateProperties">
<polygon fill="white" stroke="black" points="430.5,-96 430.5,-126 627.5,-126 627.5,-96 430.5,-96"/>
<text text-anchor="start" x="438.5" y="-114" font-family="Helvetica,sans-Serif" font-size="10.00">utilities.multilanguage.</text>
<text text-anchor="middle" x="529" y="-103" font-family="Helvetica,sans-Serif" font-size="10.00">MultiLanguageUtility.updateProperties</text>
</a>
</g>
</g>
<!-- Node4&#45;&gt;Node5 -->
<g id="edge4" class="edge"><title>Node4&#45;&gt;Node5</title>
<path fill="none" stroke="midnightblue" d="M393.74,-112.21C402.458,-112.131 411.376,-112.051 420.266,-111.971"/>
<polygon fill="midnightblue" stroke="midnightblue" points="420.311,-115.47 430.279,-111.88 420.248,-108.471 420.311,-115.47"/>
</g>
<!-- Node6 -->
<g id="node6" class="node"><title>Node6</title>
<g id="a_node6"><a xlink:href="../../dc/d2e/classutilities_1_1multilanguage_1_1_multi_language_utility.html#afd0f2ac6d018d23509016b80f8d50ce7" target="_top" xlink:title="utilities.multilanguage.\lMultiLanguageUtility.createString\lProperties">
<polygon fill="white" stroke="black" points="666,-180.5 666,-221.5 840,-221.5 840,-180.5 666,-180.5"/>
<text text-anchor="start" x="674" y="-209.5" font-family="Helvetica,sans-Serif" font-size="10.00">utilities.multilanguage.</text>
<text text-anchor="start" x="674" y="-198.5" font-family="Helvetica,sans-Serif" font-size="10.00">MultiLanguageUtility.createString</text>
<text text-anchor="middle" x="753" y="-187.5" font-family="Helvetica,sans-Serif" font-size="10.00">Properties</text>
</a>
</g>
</g>
<!-- Node5&#45;&gt;Node6 -->
<g id="edge5" class="edge"><title>Node5&#45;&gt;Node6</title>
<path fill="none" stroke="midnightblue" d="M608.224,-126.082C615.099,-128.613 621.794,-131.563 628,-135 647.522,-145.811 645.034,-158.241 664,-170 667.388,-172.101 670.938,-174.084 674.587,-175.953"/>
<polygon fill="midnightblue" stroke="midnightblue" points="673.295,-179.214 683.827,-180.365 676.311,-172.897 673.295,-179.214"/>
</g>
<!-- Node7 -->
<g id="node7" class="node"><title>Node7</title>
<g id="a_node7"><a xlink:href="../../dc/d2e/classutilities_1_1multilanguage_1_1_multi_language_utility.html#afa95168fee718834254841c3d4c70f77" target="_top" xlink:title="utilities.multilanguage.\lMultiLanguageUtility.updateString\lProperties">
<polygon fill="white" stroke="black" points="664.5,-120.5 664.5,-161.5 841.5,-161.5 841.5,-120.5 664.5,-120.5"/>
<text text-anchor="start" x="672.5" y="-149.5" font-family="Helvetica,sans-Serif" font-size="10.00">utilities.multilanguage.</text>
<text text-anchor="start" x="672.5" y="-138.5" font-family="Helvetica,sans-Serif" font-size="10.00">MultiLanguageUtility.updateString</text>
<text text-anchor="middle" x="753" y="-127.5" font-family="Helvetica,sans-Serif" font-size="10.00">Properties</text>
</a>
</g>
</g>
<!-- Node5&#45;&gt;Node7 -->
<g id="edge6" class="edge"><title>Node5&#45;&gt;Node7</title>
<path fill="none" stroke="midnightblue" d="M627.695,-124.202C636.57,-125.401 645.56,-126.616 654.433,-127.815"/>
<polygon fill="midnightblue" stroke="midnightblue" points="654.011,-131.29 664.39,-129.161 654.949,-124.353 654.011,-131.29"/>
</g>
<!-- Node8 -->
<g id="node8" class="node"><title>Node8</title>
<g id="a_node8"><a xlink:href="../../dc/d2e/classutilities_1_1multilanguage_1_1_multi_language_utility.html#a4dac2710dd1f749cd1c5f3750a715dd6" target="_top" xlink:title="utilities.multilanguage.\lMultiLanguageUtility.createString\lListProperties">
<polygon fill="white" stroke="black" points="666,-60.5 666,-101.5 840,-101.5 840,-60.5 666,-60.5"/>
<text text-anchor="start" x="674" y="-89.5" font-family="Helvetica,sans-Serif" font-size="10.00">utilities.multilanguage.</text>
<text text-anchor="start" x="674" y="-78.5" font-family="Helvetica,sans-Serif" font-size="10.00">MultiLanguageUtility.createString</text>
<text text-anchor="middle" x="753" y="-67.5" font-family="Helvetica,sans-Serif" font-size="10.00">ListProperties</text>
</a>
</g>
</g>
<!-- Node5&#45;&gt;Node8 -->
<g id="edge7" class="edge"><title>Node5&#45;&gt;Node8</title>
<path fill="none" stroke="midnightblue" d="M627.695,-97.7979C637.007,-96.5396 646.446,-95.2641 655.744,-94.0076"/>
<polygon fill="midnightblue" stroke="midnightblue" points="656.324,-97.4611 665.765,-92.6534 655.386,-90.5242 656.324,-97.4611"/>
</g>
<!-- Node9 -->
<g id="node9" class="node"><title>Node9</title>
<g id="a_node9"><a xlink:href="../../dc/d2e/classutilities_1_1multilanguage_1_1_multi_language_utility.html#a6ec1064747fb29f38bc77ed9c665c974" target="_top" xlink:title="utilities.multilanguage.\lMultiLanguageUtility.updateString\lListProperties">
<polygon fill="white" stroke="black" points="664.5,-0.5 664.5,-41.5 841.5,-41.5 841.5,-0.5 664.5,-0.5"/>
<text text-anchor="start" x="672.5" y="-29.5" font-family="Helvetica,sans-Serif" font-size="10.00">utilities.multilanguage.</text>
<text text-anchor="start" x="672.5" y="-18.5" font-family="Helvetica,sans-Serif" font-size="10.00">MultiLanguageUtility.updateString</text>
<text text-anchor="middle" x="753" y="-7.5" font-family="Helvetica,sans-Serif" font-size="10.00">ListProperties</text>
</a>
</g>
</g>
<!-- Node5&#45;&gt;Node9 -->
<g id="edge8" class="edge"><title>Node5&#45;&gt;Node9</title>
<path fill="none" stroke="midnightblue" d="M561.327,-95.9835C588.264,-83.3112 628.301,-65.0427 664,-51 669.07,-49.0058 674.332,-47.0161 679.648,-45.0642"/>
<polygon fill="midnightblue" stroke="midnightblue" points="681.028,-48.287 689.245,-41.5989 678.651,-41.703 681.028,-48.287"/>
</g>
</g>
</svg>
        <g id="navigator" transform="translate(0 0)" fill="#404254">
                <rect fill="#f2f5e9" fill-opacity="0.5" stroke="#606060" stroke-width=".5" x="0" y="0" width="60" height="60"/>
                <use id="zoomplus" xlink:href="#zoomPlus" x="17" y="9" onmousedown="handleZoom(evt,'in')"/>
                <use id="zoomminus" xlink:href="#zoomMin" x="42" y="9" onmousedown="handleZoom(evt,'out')"/>
                <use id="reset" xlink:href="#resetDef" x="30" y="36" onmousedown="handleReset()"/>
                <g id="arrowUp" xlink:href="#dirArrow" transform="translate(30 24)" onmousedown="handlePan(0,-1)">
                  <use xlink:href="#rim" fill="#404040">
                        <set attributeName="fill" to="#808080" begin="arrowUp.mouseover" end="arrowUp.mouseout"/>
                  </use>
                  <path fill="none" stroke="white" stroke-width="1.5" d="M0,-3.0v7 M-2.5,-0.5L0,-3.0L2.5,-0.5"/>
                </g>
                <g id="arrowRight" xlink:href="#dirArrow" transform="rotate(90) translate(36 -43)" onmousedown="handlePan(1,0)">
                  <use xlink:href="#rim" fill="#404040">
                        <set attributeName="fill" to="#808080" begin="arrowRight.mouseover" end="arrowRight.mouseout"/>
                  </use>
                  <path fill="none" stroke="white" stroke-width="1.5" d="M0,-3.0v7 M-2.5,-0.5L0,-3.0L2.5,-0.5"/>
                </g>
                <g id="arrowDown" xlink:href="#dirArrow" transform="rotate(180) translate(-30 -48)" onmousedown="handlePan(0,1)">
                  <use xlink:href="#rim" fill="#404040">
                        <set attributeName="fill" to="#808080" begin="arrowDown.mouseover" end="arrowDown.mouseout"/>
                  </use>
                  <path fill="none" stroke="white" stroke-width="1.5" d="M0,-3.0v7 M-2.5,-0.5L0,-3.0L2.5,-0.5"/>
                </g>
                <g id="arrowLeft" xlink:href="#dirArrow" transform="rotate(270) translate(-36 17)" onmousedown="handlePan(-1,0)">
                  <use xlink:href="#rim" fill="#404040">
                        <set attributeName="fill" to="#808080" begin="arrowLeft.mouseover" end="arrowLeft.mouseout"/>
                  </use>
                  <path fill="none" stroke="white" stroke-width="1.5" d="M0,-3.0v7 M-2.5,-0.5L0,-3.0L2.5,-0.5"/>
                </g>
        </g>
        <svg viewBox="0 0 15 15" width="100%" height="30px" preserveAspectRatio="xMaxYMin meet">
         <g id="arrow_out" transform="scale(0.3 0.3)">
          <a xlink:href="classgame_authoring_1_1scenes_1_1_welcome_scene_a866dc21e004064b967b5687ceab763db_cgraph_org.svg" target="_base">
           <rect id="button" ry="5" rx="5" y="6" x="6" height="38" width="38"
                fill="#f2f5e9" fill-opacity="0.5" stroke="#606060" stroke-width="1.0"/>
           <path id="arrow"
             d="M 11.500037,31.436501 C 11.940474,20.09759 22.043105,11.32322 32.158766,21.979434 L 37.068811,17.246167 C 37.068811,17.246167 37.088388,32 37.088388,32 L 22.160133,31.978069 C 22.160133,31.978069 26.997745,27.140456 26.997745,27.140456 C 18.528582,18.264221 13.291696,25.230495 11.500037,31.436501 z"
             style="fill:#404040;"/>
          </a>
         </g>
        </svg>
</svg>
