<?xml version="1.0" encoding="UTF-8" standalone="no"?>
<!DOCTYPE svg PUBLIC "-//W3C//DTD SVG 1.1//EN"
 "http://www.w3.org/Graphics/SVG/1.1/DTD/svg11.dtd">
<!-- Generated by graphviz version 2.36.0 (20140111.2315)
 -->
<!-- Title: gameAuthoring.scenes.WelcomeScene.getScene Pages: 1 -->
<svg width="604pt" height="38pt"
 viewBox="0.00 0.00 604.00 38.00" xmlns="http://www.w3.org/2000/svg" xmlns:xlink="http://www.w3.org/1999/xlink">
<g id="graph0" class="graph" transform="scale(1 1) rotate(0) translate(4 34)">
<title>gameAuthoring.scenes.WelcomeScene.getScene</title>
<polygon fill="white" stroke="none" points="-4,4 -4,-34 600,-34 600,4 -4,4"/>
<!-- Node1 -->
<g id="node1" class="node"><title>Node1</title>
<polygon fill="#bfbfbf" stroke="black" points="0.5,-0 0.5,-30 173.5,-30 173.5,-0 0.5,-0"/>
<text text-anchor="start" x="8.5" y="-18" font-family="Helvetica,sans-Serif" font-size="10.00">gameAuthoring.scenes.Welcome</text>
<text text-anchor="middle" x="87" y="-7" font-family="Helvetica,sans-Serif" font-size="10.00">Scene.getScene</text>
</g>
<!-- Node2 -->
<g id="node2" class="node"><title>Node2</title>
<g id="a_node2"><a xlink:href="../../d6/d87/classgame_authoring_1_1mainclasses_1_1_author_controller.html#a5188cd2fc34a2feef53cf500103fb207" target="_top" xlink:title="gameAuthoring.mainclasses.\lAuthorController.showWelcomeScene">
<polygon fill="white" stroke="black" points="210,-0 210,-30 404,-30 404,-0 210,-0"/>
<text text-anchor="start" x="218" y="-18" font-family="Helvetica,sans-Serif" font-size="10.00">gameAuthoring.mainclasses.</text>
<text text-anchor="middle" x="307" y="-7" font-family="Helvetica,sans-Serif" font-size="10.00">AuthorController.showWelcomeScene</text>
</a>
</g>
</g>
<!-- Node1&#45;&gt;Node2 -->
<g id="edge1" class="edge"><title>Node1&#45;&gt;Node2</title>
<path fill="none" stroke="midnightblue" d="M183.678,-15C192.376,-15 201.189,-15 209.891,-15"/>
<polygon fill="midnightblue" stroke="midnightblue" points="183.534,-11.5001 173.534,-15 183.534,-18.5001 183.534,-11.5001"/>
</g>
<!-- Node3 -->
<g id="node3" class="node"><title>Node3</title>
<g id="a_node3"><a xlink:href="../../d6/d87/classgame_authoring_1_1mainclasses_1_1_author_controller.html#ae542dc4fa7cdb6ede23dee41b5070676" target="_top" xlink:title="gameAuthoring.mainclasses.\lAuthorController.start">
<polygon fill="white" stroke="black" points="440,-0 440,-30 596,-30 596,-0 440,-0"/>
<text text-anchor="start" x="448" y="-18" font-family="Helvetica,sans-Serif" font-size="10.00">gameAuthoring.mainclasses.</text>
<text text-anchor="middle" x="518" y="-7" font-family="Helvetica,sans-Serif" font-size="10.00">AuthorController.start</text>
</a>
</g>
</g>
<!-- Node2&#45;&gt;Node3 -->
<g id="edge2" class="edge"><title>Node2&#45;&gt;Node3</title>
<path fill="none" stroke="midnightblue" d="M414.296,-15C422.865,-15 431.419,-15 439.726,-15"/>
<polygon fill="midnightblue" stroke="midnightblue" points="414.242,-11.5001 404.242,-15 414.242,-18.5001 414.242,-11.5001"/>
</g>
</g>
</svg>
