<?xml version="1.0" encoding="UTF-8" standalone="no"?>
<!DOCTYPE svg PUBLIC "-//W3C//DTD SVG 1.1//EN"
 "http://www.w3.org/Graphics/SVG/1.1/DTD/svg11.dtd">
<!-- Generated by graphviz version 2.36.0 (20140111.2315)
 -->
<!-- Title: gameAuthoring.scenes.GeneralSettingScene Pages: 1 -->
<!--zoomable 295 -->
<svg id="main" version="1.1" xmlns="http://www.w3.org/2000/svg" xmlns:xlink="http://www.w3.org/1999/xlink" xml:space="preserve" onload="init(evt)">
<style type="text/css"><![CDATA[
.edge:hover path { stroke: red; }
.edge:hover polygon { stroke: red; fill: red; }
]]></style>
<script type="text/javascript"><![CDATA[
var edges = document.getElementsByTagName('g');
if (edges && edges.length) {
  for (var i=0;i<edges.length;i++) {
    if (edges[i].id.substr(0,4)=='edge') {
      edges[i].setAttribute('class','edge');
    }
  }
}
]]></script>
        <defs>
                <circle id="rim" cx="0" cy="0" r="7"/>
                <circle id="rim2" cx="0" cy="0" r="3.5"/>
                <g id="zoomPlus">
                        <use xlink:href="#rim" fill="#404040">
                                <set attributeName="fill" to="#808080" begin="zoomplus.mouseover" end="zoomplus.mouseout"/>
                        </use>
                        <path d="M-4,0h8M0,-4v8" fill="none" stroke="white" stroke-width="1.5" pointer-events="none"/>
                </g>
                <g id="zoomMin">
                        <use xlink:href="#rim" fill="#404040">
                                <set attributeName="fill" to="#808080" begin="zoomminus.mouseover" end="zoomminus.mouseout"/>
                        </use>
                        <path d="M-4,0h8" fill="none" stroke="white" stroke-width="1.5" pointer-events="none"/>
                </g>
                <g id="dirArrow">
                        <path fill="none" stroke="white" stroke-width="1.5" d="M0,-3.0v7 M-2.5,-0.5L0,-3.0L2.5,-0.5"/>
                </g>
               <g id="resetDef">
                       <use xlink:href="#rim2" fill="#404040">
                               <set attributeName="fill" to="#808080" begin="reset.mouseover" end="reset.mouseout"/>
                       </use>
               </g>
        </defs>

<script type="text/javascript">
var viewWidth = 650;
var viewHeight = 295;
var sectionId = 'dynsection-0';
</script>
<script xlink:href="../../svgpan.js"/>
<svg id="graph" class="graph">
<g id="viewport">
<title>gameAuthoring.scenes.GeneralSettingScene</title>
<polygon fill="white" stroke="none" points="-4,4 -4,-291 646,-291 646,4 -4,4"/>
<!-- Node1 -->
<g id="node1" class="node"><title>Node1</title>
<polygon fill="#bfbfbf" stroke="black" points="474,-126 474,-156 642,-156 642,-126 474,-126"/>
<text text-anchor="start" x="482" y="-144" font-family="Helvetica,sans-Serif" font-size="10.00">gameAuthoring.scenes.General</text>
<text text-anchor="middle" x="558" y="-133" font-family="Helvetica,sans-Serif" font-size="10.00">SettingScene</text>
</g>
<!-- Node2 -->
<g id="node2" class="node"><title>Node2</title>
<polygon fill="white" stroke="#bfbfbf" points="174.5,-260.5 174.5,-279.5 215.5,-279.5 215.5,-260.5 174.5,-260.5"/>
<text text-anchor="middle" x="195" y="-267.5" font-family="Helvetica,sans-Serif" font-size="10.00">VBox</text>
</g>
<!-- Node2&#45;&gt;Node1 -->
<g id="edge1" class="edge"><title>Node2&#45;&gt;Node1</title>
<path fill="none" stroke="#9a32cd" stroke-dasharray="5,2" d="M226.011,-273.92C276.342,-279.106 379.74,-283.733 456,-247 498.366,-226.593 532.246,-180.324 547.779,-156.229"/>
<polygon fill="#9a32cd" stroke="#9a32cd" points="226.146,-270.413 215.82,-272.785 225.371,-277.37 226.146,-270.413"/>
<text text-anchor="middle" x="385" y="-279" font-family="Helvetica,sans-Serif" font-size="10.00"> myVBox</text>
</g>
<!-- Node3 -->
<g id="node3" class="node"><title>Node3</title>
<polygon fill="white" stroke="#bfbfbf" points="135,-222.5 135,-241.5 255,-241.5 255,-222.5 135,-222.5"/>
<text text-anchor="middle" x="195" y="-229.5" font-family="Helvetica,sans-Serif" font-size="10.00">ComboBox&lt; String &gt;</text>
</g>
<!-- Node3&#45;&gt;Node1 -->
<g id="edge2" class="edge"><title>Node3&#45;&gt;Node1</title>
<path fill="none" stroke="#9a32cd" stroke-dasharray="5,2" d="M265.097,-234.251C318.63,-233.903 393.89,-228.784 456,-207 488.416,-195.63 520.75,-171.742 539.803,-156.04"/>
<polygon fill="#9a32cd" stroke="#9a32cd" points="265.023,-230.751 255.027,-234.262 265.031,-237.751 265.023,-230.751"/>
<text text-anchor="middle" x="385" y="-235" font-family="Helvetica,sans-Serif" font-size="10.00"> myGameTypeComboBox</text>
</g>
<!-- Node4 -->
<g id="node4" class="node"><title>Node4</title>
<polygon fill="white" stroke="#bfbfbf" points="0,-164.5 0,-183.5 56,-183.5 56,-164.5 0,-164.5"/>
<text text-anchor="middle" x="28" y="-171.5" font-family="Helvetica,sans-Serif" font-size="10.00">TextField</text>
</g>
<!-- Node4&#45;&gt;Node1 -->
<g id="edge3" class="edge"><title>Node4&#45;&gt;Node1</title>
<path fill="none" stroke="#9a32cd" stroke-dasharray="5,2" d="M66.4739,-178.812C69.6916,-178.975 72.9001,-179.049 76,-179 244.952,-176.333 288.722,-190.874 456,-167 473.029,-164.57 491.327,-160.363 507.609,-156.032"/>
<polygon fill="#9a32cd" stroke="#9a32cd" points="66.524,-175.306 56.2872,-178.037 65.9927,-182.286 66.524,-175.306"/>
<text text-anchor="middle" x="195" y="-184" font-family="Helvetica,sans-Serif" font-size="10.00"> myNameTextField</text>
</g>
<!-- Node6 -->
<g id="node6" class="node"><title>Node6</title>
<g id="a_node6"><a xlink:href="../../dc/dc4/classutilities_1_1_java_f_xutilities_1_1numerical_text_fields_1_1_numerical_text_field.html" target="_top" xlink:title="utilities.JavaFXutilities.numerical\lTextFields.NumericalTextField">
<polygon fill="white" stroke="black" points="111,-126 111,-156 279,-156 279,-126 111,-126"/>
<text text-anchor="start" x="119" y="-144" font-family="Helvetica,sans-Serif" font-size="10.00">utilities.JavaFXutilities.numerical</text>
<text text-anchor="middle" x="195" y="-133" font-family="Helvetica,sans-Serif" font-size="10.00">TextFields.NumericalTextField</text>
</a>
</g>
</g>
<!-- Node4&#45;&gt;Node6 -->
<g id="edge6" class="edge"><title>Node4&#45;&gt;Node6</title>
<path fill="none" stroke="midnightblue" d="M66.0588,-166.588C81.7478,-163.45 100.623,-159.675 118.999,-156"/>
<polygon fill="midnightblue" stroke="midnightblue" points="65.3658,-163.157 56.2464,-168.551 66.7386,-170.022 65.3658,-163.157"/>
</g>
<!-- Node5 -->
<g id="node5" class="node"><title>Node5</title>
<polygon fill="white" stroke="#bfbfbf" points="171.5,-87.5 171.5,-106.5 218.5,-106.5 218.5,-87.5 171.5,-87.5"/>
<text text-anchor="middle" x="195" y="-94.5" font-family="Helvetica,sans-Serif" font-size="10.00">Scene</text>
</g>
<!-- Node5&#45;&gt;Node1 -->
<g id="edge4" class="edge"><title>Node5&#45;&gt;Node1</title>
<path fill="none" stroke="#9a32cd" stroke-dasharray="5,2" d="M228.714,-100.263C278.044,-105.271 374.386,-115.392 456,-126 461.801,-126.754 467.785,-127.563 473.808,-128.4"/>
<polygon fill="#9a32cd" stroke="#9a32cd" points="228.94,-96.7685 218.639,-99.2454 228.236,-103.733 228.94,-96.7685"/>
<text text-anchor="middle" x="385" y="-129" font-family="Helvetica,sans-Serif" font-size="10.00"> myScene</text>
</g>
<!-- Node6&#45;&gt;Node1 -->
<g id="edge5" class="edge"><title>Node6&#45;&gt;Node1</title>
<path fill="none" stroke="#9a32cd" stroke-dasharray="5,2" d="M289.378,-141C346.429,-141 418.756,-141 473.833,-141"/>
<polygon fill="#9a32cd" stroke="#9a32cd" points="289.274,-137.5 279.274,-141 289.274,-144.5 289.274,-137.5"/>
<text text-anchor="middle" x="385" y="-155" font-family="Helvetica,sans-Serif" font-size="10.00"> myStartingCashField</text>
<text text-anchor="middle" x="385" y="-144" font-family="Helvetica,sans-Serif" font-size="10.00">myStartingHealthField</text>
</g>
<!-- Node7 -->
<g id="node7" class="node"><title>Node7</title>
<polygon fill="white" stroke="#bfbfbf" points="172,-49.5 172,-68.5 218,-68.5 218,-49.5 172,-49.5"/>
<text text-anchor="middle" x="195" y="-56.5" font-family="Helvetica,sans-Serif" font-size="10.00">Group</text>
</g>
<!-- Node7&#45;&gt;Node1 -->
<g id="edge7" class="edge"><title>Node7&#45;&gt;Node1</title>
<path fill="none" stroke="#9a32cd" stroke-dasharray="5,2" d="M228.156,-60.4612C277.893,-63.3839 376.087,-71.806 456,-95 481.906,-102.519 509.683,-115.571 529.538,-125.856"/>
<polygon fill="#9a32cd" stroke="#9a32cd" points="228.194,-56.958 218.016,-59.9029 227.809,-63.9474 228.194,-56.958"/>
<text text-anchor="middle" x="385" y="-98" font-family="Helvetica,sans-Serif" font-size="10.00"> root</text>
</g>
<!-- Node8 -->
<g id="node8" class="node"><title>Node8</title>
<g id="a_node8"><a xlink:href="../../d4/d81/interfacegame_authoring_1_1mainclasses_1_1controller_interfaces_1_1_i_general_settings_configuring.html" target="_top" xlink:title="gameAuthoring.mainclasses.controller\lInterfaces.IGeneralSettingsConfiguring">
<polygon fill="white" stroke="black" points="94.5,-0 94.5,-30 295.5,-30 295.5,-0 94.5,-0"/>
<text text-anchor="start" x="102.5" y="-18" font-family="Helvetica,sans-Serif" font-size="10.00">gameAuthoring.mainclasses.controller</text>
<text text-anchor="middle" x="195" y="-7" font-family="Helvetica,sans-Serif" font-size="10.00">Interfaces.IGeneralSettingsConfiguring</text>
</a>
</g>
</g>
<!-- Node8&#45;&gt;Node1 -->
<g id="edge8" class="edge"><title>Node8&#45;&gt;Node1</title>
<path fill="none" stroke="#9a32cd" stroke-dasharray="5,2" d="M305.801,-17.8765C353.695,-22.5137 409.422,-32.6397 456,-54 493.024,-70.9791 526.878,-105.733 544.422,-125.796"/>
<polygon fill="#9a32cd" stroke="#9a32cd" points="305.979,-14.3785 295.706,-16.9683 305.352,-21.3504 305.979,-14.3785"/>
<text text-anchor="middle" x="385" y="-57" font-family="Helvetica,sans-Serif" font-size="10.00"> myGeneralSettingsController</text>
</g>
</g>
</svg>
        <g id="navigator" transform="translate(0 0)" fill="#404254">
                <rect fill="#f2f5e9" fill-opacity="0.5" stroke="#606060" stroke-width=".5" x="0" y="0" width="60" height="60"/>
                <use id="zoomplus" xlink:href="#zoomPlus" x="17" y="9" onmousedown="handleZoom(evt,'in')"/>
                <use id="zoomminus" xlink:href="#zoomMin" x="42" y="9" onmousedown="handleZoom(evt,'out')"/>
                <use id="reset" xlink:href="#resetDef" x="30" y="36" onmousedown="handleReset()"/>
                <g id="arrowUp" xlink:href="#dirArrow" transform="translate(30 24)" onmousedown="handlePan(0,-1)">
                  <use xlink:href="#rim" fill="#404040">
                        <set attributeName="fill" to="#808080" begin="arrowUp.mouseover" end="arrowUp.mouseout"/>
                  </use>
                  <path fill="none" stroke="white" stroke-width="1.5" d="M0,-3.0v7 M-2.5,-0.5L0,-3.0L2.5,-0.5"/>
                </g>
                <g id="arrowRight" xlink:href="#dirArrow" transform="rotate(90) translate(36 -43)" onmousedown="handlePan(1,0)">
                  <use xlink:href="#rim" fill="#404040">
                        <set attributeName="fill" to="#808080" begin="arrowRight.mouseover" end="arrowRight.mouseout"/>
                  </use>
                  <path fill="none" stroke="white" stroke-width="1.5" d="M0,-3.0v7 M-2.5,-0.5L0,-3.0L2.5,-0.5"/>
                </g>
                <g id="arrowDown" xlink:href="#dirArrow" transform="rotate(180) translate(-30 -48)" onmousedown="handlePan(0,1)">
                  <use xlink:href="#rim" fill="#404040">
                        <set attributeName="fill" to="#808080" begin="arrowDown.mouseover" end="arrowDown.mouseout"/>
                  </use>
                  <path fill="none" stroke="white" stroke-width="1.5" d="M0,-3.0v7 M-2.5,-0.5L0,-3.0L2.5,-0.5"/>
                </g>
                <g id="arrowLeft" xlink:href="#dirArrow" transform="rotate(270) translate(-36 17)" onmousedown="handlePan(-1,0)">
                  <use xlink:href="#rim" fill="#404040">
                        <set attributeName="fill" to="#808080" begin="arrowLeft.mouseover" end="arrowLeft.mouseout"/>
                  </use>
                  <path fill="none" stroke="white" stroke-width="1.5" d="M0,-3.0v7 M-2.5,-0.5L0,-3.0L2.5,-0.5"/>
                </g>
        </g>
        <svg viewBox="0 0 15 15" width="100%" height="30px" preserveAspectRatio="xMaxYMin meet">
         <g id="arrow_out" transform="scale(0.3 0.3)">
          <a xlink:href="classgame_authoring_1_1scenes_1_1_general_setting_scene__coll__graph_org.svg" target="_base">
           <rect id="button" ry="5" rx="5" y="6" x="6" height="38" width="38"
                fill="#f2f5e9" fill-opacity="0.5" stroke="#606060" stroke-width="1.0"/>
           <path id="arrow"
             d="M 11.500037,31.436501 C 11.940474,20.09759 22.043105,11.32322 32.158766,21.979434 L 37.068811,17.246167 C 37.068811,17.246167 37.088388,32 37.088388,32 L 22.160133,31.978069 C 22.160133,31.978069 26.997745,27.140456 26.997745,27.140456 C 18.528582,18.264221 13.291696,25.230495 11.500037,31.436501 z"
             style="fill:#404040;"/>
          </a>
         </g>
        </svg>
</svg>
