<?xml version="1.0" encoding="UTF-8" standalone="no"?>
<!DOCTYPE svg PUBLIC "-//W3C//DTD SVG 1.1//EN"
 "http://www.w3.org/Graphics/SVG/1.1/DTD/svg11.dtd">
<!-- Generated by graphviz version 2.36.0 (20140111.2315)
 -->
<!-- Title: gameAuthoring.scenes.pathBuilding.DefaultMapSelectionPane.getDefaultMapsScrollPane Pages: 1 -->
<svg width="640pt" height="48pt"
 viewBox="0.00 0.00 640.00 48.00" xmlns="http://www.w3.org/2000/svg" xmlns:xlink="http://www.w3.org/1999/xlink">
<g id="graph0" class="graph" transform="scale(1 1) rotate(0) translate(4 44)">
<title>gameAuthoring.scenes.pathBuilding.DefaultMapSelectionPane.getDefaultMapsScrollPane</title>
<polygon fill="white" stroke="none" points="-4,4 -4,-44 636,-44 636,4 -4,4"/>
<!-- Node1 -->
<g id="node1" class="node"><title>Node1</title>
<polygon fill="#bfbfbf" stroke="black" points="0,0.5 0,-40.5 198,-40.5 198,0.5 0,0.5"/>
<text text-anchor="start" x="8" y="-28.5" font-family="Helvetica,sans-Serif" font-size="10.00">gameAuthoring.scenes.path</text>
<text text-anchor="start" x="8" y="-17.5" font-family="Helvetica,sans-Serif" font-size="10.00">Building.DefaultMapSelectionPane.get</text>
<text text-anchor="middle" x="99" y="-6.5" font-family="Helvetica,sans-Serif" font-size="10.00">DefaultMapsScrollPane</text>
</g>
<!-- Node2 -->
<g id="node2" class="node"><title>Node2</title>
<g id="a_node2"><a xlink:href="../../d6/d82/classgame_authoring_1_1scenes_1_1path_building_1_1_path_building_scene.html#a458087c5d03e9d402d9ff4a38ca5d1c3" target="_top" xlink:title="gameAuthoring.scenes.path\lBuilding.PathBuildingScene.create\lAndDisplayDefaultMapSelectionPane">
<polygon fill="white" stroke="black" points="234,0.5 234,-40.5 426,-40.5 426,0.5 234,0.5"/>
<text text-anchor="start" x="242" y="-28.5" font-family="Helvetica,sans-Serif" font-size="10.00">gameAuthoring.scenes.path</text>
<text text-anchor="start" x="242" y="-17.5" font-family="Helvetica,sans-Serif" font-size="10.00">Building.PathBuildingScene.create</text>
<text text-anchor="middle" x="330" y="-6.5" font-family="Helvetica,sans-Serif" font-size="10.00">AndDisplayDefaultMapSelectionPane</text>
</a>
</g>
</g>
<!-- Node1&#45;&gt;Node2 -->
<g id="edge1" class="edge"><title>Node1&#45;&gt;Node2</title>
<path fill="none" stroke="midnightblue" d="M208.196,-20C216.815,-20 225.481,-20 233.998,-20"/>
<polygon fill="midnightblue" stroke="midnightblue" points="208.113,-16.5001 198.113,-20 208.113,-23.5001 208.113,-16.5001"/>
</g>
<!-- Node3 -->
<g id="node3" class="node"><title>Node3</title>
<g id="a_node3"><a xlink:href="../../d6/d82/classgame_authoring_1_1scenes_1_1path_building_1_1_path_building_scene.html#aa265fe743457d8feda83464c9af1f288" target="_top" xlink:title="gameAuthoring.scenes.path\lBuilding.PathBuildingScene.Path\lBuildingScene">
<polygon fill="white" stroke="black" points="462,0.5 462,-40.5 632,-40.5 632,0.5 462,0.5"/>
<text text-anchor="start" x="470" y="-28.5" font-family="Helvetica,sans-Serif" font-size="10.00">gameAuthoring.scenes.path</text>
<text text-anchor="start" x="470" y="-17.5" font-family="Helvetica,sans-Serif" font-size="10.00">Building.PathBuildingScene.Path</text>
<text text-anchor="middle" x="547" y="-6.5" font-family="Helvetica,sans-Serif" font-size="10.00">BuildingScene</text>
</a>
</g>
</g>
<!-- Node2&#45;&gt;Node3 -->
<g id="edge2" class="edge"><title>Node2&#45;&gt;Node3</title>
<path fill="none" stroke="midnightblue" d="M436.322,-20C444.928,-20 453.552,-20 461.975,-20"/>
<polygon fill="midnightblue" stroke="midnightblue" points="436.241,-16.5001 426.241,-20 436.241,-23.5001 436.241,-16.5001"/>
</g>
</g>
</svg>
