<?xml version="1.0" encoding="UTF-8" standalone="no"?>
<!DOCTYPE svg PUBLIC "-//W3C//DTD SVG 1.1//EN"
 "http://www.w3.org/Graphics/SVG/1.1/DTD/svg11.dtd">
<!-- Generated by graphviz version 2.36.0 (20140111.2315)
 -->
<!-- Title: gameAuthoring.scenes.pathBuilding.DefaultMapSelectionPane.DefaultMapSelectionPane Pages: 1 -->
<svg width="660pt" height="109pt"
 viewBox="0.00 0.00 660.00 109.00" xmlns="http://www.w3.org/2000/svg" xmlns:xlink="http://www.w3.org/1999/xlink">
<g id="graph0" class="graph" transform="scale(1 1) rotate(0) translate(4 105)">
<title>gameAuthoring.scenes.pathBuilding.DefaultMapSelectionPane.DefaultMapSelectionPane</title>
<polygon fill="white" stroke="none" points="-4,4 -4,-105 656,-105 656,4 -4,4"/>
<!-- Node1 -->
<g id="node1" class="node"><title>Node1</title>
<polygon fill="#bfbfbf" stroke="black" points="0,-29.5 0,-70.5 182,-70.5 182,-29.5 0,-29.5"/>
<text text-anchor="start" x="8" y="-58.5" font-family="Helvetica,sans-Serif" font-size="10.00">gameAuthoring.scenes.path</text>
<text text-anchor="start" x="8" y="-47.5" font-family="Helvetica,sans-Serif" font-size="10.00">Building.DefaultMapSelectionPane.</text>
<text text-anchor="middle" x="91" y="-36.5" font-family="Helvetica,sans-Serif" font-size="10.00">DefaultMapSelectionPane</text>
</g>
<!-- Node2 -->
<g id="node2" class="node"><title>Node2</title>
<g id="a_node2"><a xlink:href="../../dc/d37/classutilities_1_1_java_f_xutilities_1_1image_view_1_1_string_to_image_view_converter.html#a5beb76f3bbfa4aae7d9b897a285b007b" target="_top" xlink:title="utilities.JavaFXutilities.image\lView.StringToImageViewConverter.get\lImageView">
<polygon fill="white" stroke="black" points="228,-59.5 228,-100.5 424,-100.5 424,-59.5 228,-59.5"/>
<text text-anchor="start" x="236" y="-88.5" font-family="Helvetica,sans-Serif" font-size="10.00">utilities.JavaFXutilities.image</text>
<text text-anchor="start" x="236" y="-77.5" font-family="Helvetica,sans-Serif" font-size="10.00">View.StringToImageViewConverter.get</text>
<text text-anchor="middle" x="326" y="-66.5" font-family="Helvetica,sans-Serif" font-size="10.00">ImageView</text>
</a>
</g>
</g>
<!-- Node1&#45;&gt;Node2 -->
<g id="edge1" class="edge"><title>Node1&#45;&gt;Node2</title>
<path fill="none" stroke="midnightblue" d="M182.084,-61.5988C193.789,-63.1059 205.87,-64.6614 217.82,-66.1999"/>
<polygon fill="midnightblue" stroke="midnightblue" points="217.45,-69.6812 227.815,-67.4869 218.344,-62.7385 217.45,-69.6812"/>
</g>
<!-- Node3 -->
<g id="node3" class="node"><title>Node3</title>
<g id="a_node3"><a xlink:href="../../de/d43/classgame_authoring_1_1scenes_1_1path_building_1_1_default_map_selection_pane.html#adb498efb7e931ae43c2339fc19a7946b" target="_top" xlink:title="gameAuthoring.scenes.path\lBuilding.DefaultMapSelectionPane.handle\lImageClick">
<polygon fill="white" stroke="black" points="218.5,0.5 218.5,-40.5 433.5,-40.5 433.5,0.5 218.5,0.5"/>
<text text-anchor="start" x="226.5" y="-28.5" font-family="Helvetica,sans-Serif" font-size="10.00">gameAuthoring.scenes.path</text>
<text text-anchor="start" x="226.5" y="-17.5" font-family="Helvetica,sans-Serif" font-size="10.00">Building.DefaultMapSelectionPane.handle</text>
<text text-anchor="middle" x="326" y="-6.5" font-family="Helvetica,sans-Serif" font-size="10.00">ImageClick</text>
</a>
</g>
</g>
<!-- Node1&#45;&gt;Node3 -->
<g id="edge2" class="edge"><title>Node1&#45;&gt;Node3</title>
<path fill="none" stroke="midnightblue" d="M182.084,-38.4012C190.737,-37.2871 199.595,-36.1466 208.454,-35.006"/>
<polygon fill="midnightblue" stroke="midnightblue" points="208.973,-38.468 218.445,-33.7196 208.079,-31.5253 208.973,-38.468"/>
</g>
<!-- Node4 -->
<g id="node4" class="node"><title>Node4</title>
<g id="a_node4"><a xlink:href="../../d3/d75/interfacegame_authoring_1_1scenes_1_1path_building_1_1building_panes_1_1_background_building.html#a12e766abd8a216c6b56abcb5d93f724f" target="_top" xlink:title="gameAuthoring.scenes.path\lBuilding.buildingPanes.Background\lBuilding.setBackground">
<polygon fill="white" stroke="black" points="470,0.5 470,-40.5 652,-40.5 652,0.5 470,0.5"/>
<text text-anchor="start" x="478" y="-28.5" font-family="Helvetica,sans-Serif" font-size="10.00">gameAuthoring.scenes.path</text>
<text text-anchor="start" x="478" y="-17.5" font-family="Helvetica,sans-Serif" font-size="10.00">Building.buildingPanes.Background</text>
<text text-anchor="middle" x="561" y="-6.5" font-family="Helvetica,sans-Serif" font-size="10.00">Building.setBackground</text>
</a>
</g>
</g>
<!-- Node3&#45;&gt;Node4 -->
<g id="edge3" class="edge"><title>Node3&#45;&gt;Node4</title>
<path fill="none" stroke="midnightblue" d="M433.613,-20C442.311,-20 451.084,-20 459.735,-20"/>
<polygon fill="midnightblue" stroke="midnightblue" points="459.823,-23.5001 469.823,-20 459.823,-16.5001 459.823,-23.5001"/>
</g>
</g>
</svg>
