<?xml version="1.0" encoding="UTF-8" standalone="no"?>
<!DOCTYPE svg PUBLIC "-//W3C//DTD SVG 1.1//EN"
 "http://www.w3.org/Graphics/SVG/1.1/DTD/svg11.dtd">
<!-- Generated by graphviz version 2.36.0 (20140111.2315)
 -->
<!-- Title: gamePlayer.guiItems.headsUpDisplay.HUD Pages: 1 -->
<svg width="704pt" height="159pt"
 viewBox="0.00 0.00 704.00 159.00" xmlns="http://www.w3.org/2000/svg" xmlns:xlink="http://www.w3.org/1999/xlink">
<g id="graph0" class="graph" transform="scale(1 1) rotate(0) translate(4 155)">
<title>gamePlayer.guiItems.headsUpDisplay.HUD</title>
<polygon fill="white" stroke="none" points="-4,4 -4,-155 700,-155 700,4 -4,4"/>
<!-- Node1 -->
<g id="node1" class="node"><title>Node1</title>
<polygon fill="#bfbfbf" stroke="black" points="546.5,-55 546.5,-85 695.5,-85 695.5,-55 546.5,-55"/>
<text text-anchor="start" x="554.5" y="-73" font-family="Helvetica,sans-Serif" font-size="10.00">gamePlayer.guiItems.heads</text>
<text text-anchor="middle" x="621" y="-62" font-family="Helvetica,sans-Serif" font-size="10.00">UpDisplay.HUD</text>
</g>
<!-- Node2 -->
<g id="node2" class="node"><title>Node2</title>
<g id="a_node2"><a xlink:href="../../de/d25/interfacegame_player_1_1gui_items_1_1_gui_item.html" target="_top" xlink:title="gamePlayer.guiItems.GuiItem">
<polygon fill="white" stroke="black" points="274,-126.5 274,-145.5 432,-145.5 432,-126.5 274,-126.5"/>
<text text-anchor="middle" x="353" y="-133.5" font-family="Helvetica,sans-Serif" font-size="10.00">gamePlayer.guiItems.GuiItem</text>
</a>
</g>
</g>
<!-- Node2&#45;&gt;Node1 -->
<g id="edge1" class="edge"><title>Node2&#45;&gt;Node1</title>
<path fill="none" stroke="midnightblue" d="M407.843,-124.314C420.369,-121.59 433.652,-118.698 446,-116 482.453,-108.037 491.902,-107.439 528,-98 542.699,-94.1564 558.573,-89.5074 572.929,-85.1111"/>
<polygon fill="midnightblue" stroke="midnightblue" points="407.021,-120.911 397.992,-126.455 408.508,-127.751 407.021,-120.911"/>
</g>
<!-- Node3 -->
<g id="node3" class="node"><title>Node3</title>
<g id="a_node3"><a xlink:href="../../d7/d02/interfacegame_player_1_1main_classes_1_1gui_builder_1_1_gui_element.html" target="_top" xlink:title="gamePlayer.mainClasses.gui\lBuilder.GuiElement">
<polygon fill="white" stroke="black" points="0,-121 0,-151 154,-151 154,-121 0,-121"/>
<text text-anchor="start" x="8" y="-139" font-family="Helvetica,sans-Serif" font-size="10.00">gamePlayer.mainClasses.gui</text>
<text text-anchor="middle" x="77" y="-128" font-family="Helvetica,sans-Serif" font-size="10.00">Builder.GuiElement</text>
</a>
</g>
</g>
<!-- Node3&#45;&gt;Node2 -->
<g id="edge2" class="edge"><title>Node3&#45;&gt;Node2</title>
<path fill="none" stroke="midnightblue" d="M164.525,-136C199.509,-136 239.599,-136 273.703,-136"/>
<polygon fill="midnightblue" stroke="midnightblue" points="164.324,-132.5 154.324,-136 164.324,-139.5 164.324,-132.5"/>
</g>
<!-- Node4 -->
<g id="node4" class="node"><title>Node4</title>
<polygon fill="white" stroke="#bfbfbf" points="260,-77 260,-107 446,-107 446,-77 260,-77"/>
<text text-anchor="start" x="268" y="-95" font-family="Helvetica,sans-Serif" font-size="10.00">TableView&lt; gamePlayer.gui</text>
<text text-anchor="middle" x="353" y="-84" font-family="Helvetica,sans-Serif" font-size="10.00">Items.headsUpDisplay.GameStat &gt;</text>
</g>
<!-- Node4&#45;&gt;Node1 -->
<g id="edge3" class="edge"><title>Node4&#45;&gt;Node1</title>
<path fill="none" stroke="#9a32cd" stroke-dasharray="5,2" d="M456.357,-83.5344C486.327,-81.0557 518.491,-78.3955 546.304,-76.0951"/>
<polygon fill="#9a32cd" stroke="#9a32cd" points="455.965,-80.0548 446.287,-84.3672 456.542,-87.031 455.965,-80.0548"/>
<text text-anchor="middle" x="496" y="-86" font-family="Helvetica,sans-Serif" font-size="10.00"> myTableView</text>
</g>
<!-- Node5 -->
<g id="node5" class="node"><title>Node5</title>
<polygon fill="white" stroke="#bfbfbf" points="312.5,-38.5 312.5,-57.5 393.5,-57.5 393.5,-38.5 312.5,-38.5"/>
<text text-anchor="middle" x="353" y="-45.5" font-family="Helvetica,sans-Serif" font-size="10.00">Dimension2D</text>
</g>
<!-- Node5&#45;&gt;Node1 -->
<g id="edge4" class="edge"><title>Node5&#45;&gt;Node1</title>
<path fill="none" stroke="#9a32cd" stroke-dasharray="5,2" d="M403.607,-52.1029C443.723,-55.4207 500.807,-60.1419 546.273,-63.9023"/>
<polygon fill="#9a32cd" stroke="#9a32cd" points="403.79,-48.6061 393.536,-51.2699 403.213,-55.5823 403.79,-48.6061"/>
<text text-anchor="middle" x="496" y="-66" font-family="Helvetica,sans-Serif" font-size="10.00"> mySize</text>
</g>
<!-- Node6 -->
<g id="node6" class="node"><title>Node6</title>
<g id="a_node6"><a xlink:href="../../df/db4/classutilities_1_1_x_m_l_parsing_1_1_x_m_l_parser.html" target="_top" xlink:title="utilities.XMLParsing.XMLParser">
<polygon fill="white" stroke="black" points="273,-0.5 273,-19.5 433,-19.5 433,-0.5 273,-0.5"/>
<text text-anchor="middle" x="353" y="-7.5" font-family="Helvetica,sans-Serif" font-size="10.00">utilities.XMLParsing.XMLParser</text>
</a>
</g>
</g>
<!-- Node6&#45;&gt;Node1 -->
<g id="edge5" class="edge"><title>Node6&#45;&gt;Node1</title>
<path fill="none" stroke="#9a32cd" stroke-dasharray="5,2" d="M422.129,-21.3247C454.382,-27.0927 493.341,-34.6487 528,-43 542.403,-46.4704 557.91,-50.7911 572.014,-54.9515"/>
<polygon fill="#9a32cd" stroke="#9a32cd" points="422.364,-17.812 411.907,-19.5161 421.144,-24.7049 422.364,-17.812"/>
<text text-anchor="middle" x="496" y="-46" font-family="Helvetica,sans-Serif" font-size="10.00"> myParser</text>
</g>
<!-- Node7 -->
<g id="node7" class="node"><title>Node7</title>
<polygon fill="white" stroke="#bfbfbf" points="43.5,-0.5 43.5,-19.5 110.5,-19.5 110.5,-0.5 43.5,-0.5"/>
<text text-anchor="middle" x="77" y="-7.5" font-family="Helvetica,sans-Serif" font-size="10.00">Document</text>
</g>
<!-- Node7&#45;&gt;Node6 -->
<g id="edge6" class="edge"><title>Node7&#45;&gt;Node6</title>
<path fill="none" stroke="#9a32cd" stroke-dasharray="5,2" d="M120.594,-10C161.175,-10 223.269,-10 272.922,-10"/>
<polygon fill="#9a32cd" stroke="#9a32cd" points="120.507,-6.5001 110.507,-10 120.507,-13.5001 120.507,-6.5001"/>
<text text-anchor="middle" x="207" y="-13" font-family="Helvetica,sans-Serif" font-size="10.00"> myDocument</text>
</g>
</g>
</svg>
