<?xml version="1.0" encoding="UTF-8" standalone="no"?>
<!DOCTYPE svg PUBLIC "-//W3C//DTD SVG 1.1//EN"
 "http://www.w3.org/Graphics/SVG/1.1/DTD/svg11.dtd">
<!-- Generated by graphviz version 2.36.0 (20140111.2315)
 -->
<!-- Title: utilities.pathfinding.example.UnlinkedNodeAStarFinder.breakTie Pages: 1 -->
<svg width="380pt" height="87pt"
 viewBox="0.00 0.00 380.00 87.00" xmlns="http://www.w3.org/2000/svg" xmlns:xlink="http://www.w3.org/1999/xlink">
<g id="graph0" class="graph" transform="scale(1 1) rotate(0) translate(4 83)">
<title>utilities.pathfinding.example.UnlinkedNodeAStarFinder.breakTie</title>
<polygon fill="white" stroke="none" points="-4,4 -4,-83 376,-83 376,4 -4,4"/>
<!-- Node1 -->
<g id="node1" class="node"><title>Node1</title>
<polygon fill="#bfbfbf" stroke="black" points="0,-24 0,-54 182,-54 182,-24 0,-24"/>
<text text-anchor="start" x="8" y="-42" font-family="Helvetica,sans-Serif" font-size="10.00">utilities.pathfinding.example.</text>
<text text-anchor="middle" x="91" y="-31" font-family="Helvetica,sans-Serif" font-size="10.00">UnlinkedNodeAStarFinder.breakTie</text>
</g>
<!-- Node2 -->
<g id="node2" class="node"><title>Node2</title>
<g id="a_node2"><a xlink:href="../../dd/dda/classutilities_1_1pathfinding_1_1example_1_1_unlinked_node.html#a53081d84e0c3086a52dab9713de86942" target="_top" xlink:title="utilities.pathfinding.example.\lUnlinkedNode.getX">
<polygon fill="white" stroke="black" points="218,-49 218,-79 372,-79 372,-49 218,-49"/>
<text text-anchor="start" x="226" y="-67" font-family="Helvetica,sans-Serif" font-size="10.00">utilities.pathfinding.example.</text>
<text text-anchor="middle" x="295" y="-56" font-family="Helvetica,sans-Serif" font-size="10.00">UnlinkedNode.getX</text>
</a>
</g>
</g>
<!-- Node1&#45;&gt;Node2 -->
<g id="edge1" class="edge"><title>Node1&#45;&gt;Node2</title>
<path fill="none" stroke="midnightblue" d="M182.071,-50.1474C190.691,-51.2143 199.419,-52.2945 208,-53.3564"/>
<polygon fill="midnightblue" stroke="midnightblue" points="207.635,-56.8378 217.989,-54.5927 208.494,-49.8908 207.635,-56.8378"/>
</g>
<!-- Node3 -->
<g id="node3" class="node"><title>Node3</title>
<g id="a_node3"><a xlink:href="../../dd/dda/classutilities_1_1pathfinding_1_1example_1_1_unlinked_node.html#a92432c42bac95c8bcf8b438d08c07126" target="_top" xlink:title="utilities.pathfinding.example.\lUnlinkedNode.getY">
<polygon fill="white" stroke="black" points="218,-0 218,-30 372,-30 372,-0 218,-0"/>
<text text-anchor="start" x="226" y="-18" font-family="Helvetica,sans-Serif" font-size="10.00">utilities.pathfinding.example.</text>
<text text-anchor="middle" x="295" y="-7" font-family="Helvetica,sans-Serif" font-size="10.00">UnlinkedNode.getY</text>
</a>
</g>
</g>
<!-- Node1&#45;&gt;Node3 -->
<g id="edge2" class="edge"><title>Node1&#45;&gt;Node3</title>
<path fill="none" stroke="midnightblue" d="M182.071,-28.2985C190.691,-27.2743 199.419,-26.2373 208,-25.2179"/>
<polygon fill="midnightblue" stroke="midnightblue" points="208.472,-28.6865 217.989,-24.031 207.646,-21.7354 208.472,-28.6865"/>
</g>
</g>
</svg>
