<?xml version="1.0" encoding="UTF-8" standalone="no"?>
<!DOCTYPE svg PUBLIC "-//W3C//DTD SVG 1.1//EN"
 "http://www.w3.org/Graphics/SVG/1.1/DTD/svg11.dtd">
<!-- Generated by graphviz version 2.36.0 (20140111.2315)
 -->
<!-- Title: gameAuthoring.scenes.pathBuilding.enemyLocations.PathLocation Pages: 1 -->
<svg width="522pt" height="110pt"
 viewBox="0.00 0.00 522.00 110.00" xmlns="http://www.w3.org/2000/svg" xmlns:xlink="http://www.w3.org/1999/xlink">
<g id="graph0" class="graph" transform="scale(1 1) rotate(0) translate(4 106)">
<title>gameAuthoring.scenes.pathBuilding.enemyLocations.PathLocation</title>
<polygon fill="white" stroke="none" points="-4,4 -4,-106 518,-106 518,4 -4,4"/>
<!-- Node1 -->
<g id="node1" class="node"><title>Node1</title>
<polygon fill="#bfbfbf" stroke="black" points="80,-36 80,-66 280,-66 280,-36 80,-36"/>
<text text-anchor="start" x="88" y="-54" font-family="Helvetica,sans-Serif" font-size="10.00">gameAuthoring.scenes.path</text>
<text text-anchor="middle" x="180" y="-43" font-family="Helvetica,sans-Serif" font-size="10.00">Building.enemyLocations.PathLocation</text>
</g>
<!-- Node3 -->
<g id="node3" class="node"><title>Node3</title>
<g id="a_node3"><a xlink:href="../../d0/d86/classgame_authoring_1_1scenes_1_1path_building_1_1enemy_locations_1_1_path_ending_location.html" target="_top" xlink:title="gameAuthoring.scenes.path\lBuilding.enemyLocations.PathEnding\lLocation">
<polygon fill="white" stroke="black" points="319,-60.5 319,-101.5 511,-101.5 511,-60.5 319,-60.5"/>
<text text-anchor="start" x="327" y="-89.5" font-family="Helvetica,sans-Serif" font-size="10.00">gameAuthoring.scenes.path</text>
<text text-anchor="start" x="327" y="-78.5" font-family="Helvetica,sans-Serif" font-size="10.00">Building.enemyLocations.PathEnding</text>
<text text-anchor="middle" x="415" y="-67.5" font-family="Helvetica,sans-Serif" font-size="10.00">Location</text>
</a>
</g>
</g>
<!-- Node1&#45;&gt;Node3 -->
<g id="edge2" class="edge"><title>Node1&#45;&gt;Node3</title>
<path fill="none" stroke="midnightblue" d="M290.365,-65.0814C299.812,-66.2977 309.322,-67.5222 318.645,-68.7225"/>
<polygon fill="midnightblue" stroke="midnightblue" points="290.516,-61.572 280.151,-63.7662 289.622,-68.5146 290.516,-61.572"/>
</g>
<!-- Node4 -->
<g id="node4" class="node"><title>Node4</title>
<g id="a_node4"><a xlink:href="../../d8/db0/classgame_authoring_1_1scenes_1_1path_building_1_1enemy_locations_1_1_path_starting_location.html" target="_top" xlink:title="gameAuthoring.scenes.path\lBuilding.enemyLocations.PathStarting\lLocation">
<polygon fill="white" stroke="black" points="316,-0.5 316,-41.5 514,-41.5 514,-0.5 316,-0.5"/>
<text text-anchor="start" x="324" y="-29.5" font-family="Helvetica,sans-Serif" font-size="10.00">gameAuthoring.scenes.path</text>
<text text-anchor="start" x="324" y="-18.5" font-family="Helvetica,sans-Serif" font-size="10.00">Building.enemyLocations.PathStarting</text>
<text text-anchor="middle" x="415" y="-7.5" font-family="Helvetica,sans-Serif" font-size="10.00">Location</text>
</a>
</g>
</g>
<!-- Node1&#45;&gt;Node4 -->
<g id="edge3" class="edge"><title>Node1&#45;&gt;Node4</title>
<path fill="none" stroke="midnightblue" d="M290.125,-36.9495C298.652,-35.8516 307.232,-34.7469 315.681,-33.6591"/>
<polygon fill="midnightblue" stroke="midnightblue" points="289.622,-33.4854 280.151,-38.2338 290.516,-40.428 289.622,-33.4854"/>
</g>
<!-- Node2 -->
<g id="node2" class="node"><title>Node2</title>
<polygon fill="white" stroke="#bfbfbf" points="0.5,-41.5 0.5,-60.5 43.5,-60.5 43.5,-41.5 0.5,-41.5"/>
<text text-anchor="middle" x="22" y="-48.5" font-family="Helvetica,sans-Serif" font-size="10.00">Circle</text>
</g>
<!-- Node2&#45;&gt;Node1 -->
<g id="edge1" class="edge"><title>Node2&#45;&gt;Node1</title>
<path fill="none" stroke="midnightblue" d="M53.9723,-51C61.7363,-51 70.4923,-51 79.6755,-51"/>
<polygon fill="midnightblue" stroke="midnightblue" points="53.7156,-47.5001 43.7156,-51 53.7156,-54.5001 53.7156,-47.5001"/>
</g>
</g>
</svg>
