<?xml version="1.0" encoding="UTF-8" standalone="no"?>
<!DOCTYPE svg PUBLIC "-//W3C//DTD SVG 1.1//EN"
 "http://www.w3.org/Graphics/SVG/1.1/DTD/svg11.dtd">
<!-- Generated by graphviz version 2.36.0 (20140111.2315)
 -->
<!-- Title: gameEngine.actors.behaviors.EarthQuakeEffect.during Pages: 1 -->
<svg width="610pt" height="294pt"
 viewBox="0.00 0.00 610.00 294.00" xmlns="http://www.w3.org/2000/svg" xmlns:xlink="http://www.w3.org/1999/xlink">
<g id="graph0" class="graph" transform="scale(1 1) rotate(0) translate(4 290)">
<title>gameEngine.actors.behaviors.EarthQuakeEffect.during</title>
<polygon fill="white" stroke="none" points="-4,4 -4,-290 606,-290 606,4 -4,4"/>
<!-- Node1 -->
<g id="node1" class="node"><title>Node1</title>
<polygon fill="#bfbfbf" stroke="black" points="0,-122 0,-152 162,-152 162,-122 0,-122"/>
<text text-anchor="start" x="8" y="-140" font-family="Helvetica,sans-Serif" font-size="10.00">gameEngine.actors.behaviors.</text>
<text text-anchor="middle" x="81" y="-129" font-family="Helvetica,sans-Serif" font-size="10.00">EarthQuakeEffect.during</text>
</g>
<!-- Node2 -->
<g id="node2" class="node"><title>Node2</title>
<g id="a_node2"><a xlink:href="../../d2/d81/interfacegame_engine_1_1_manager_interface_1_1_information_interface.html#af3bb3c9a506b0e42bef350649b6ad1bf" target="_top" xlink:title="gameEngine.ManagerInterface.\lInformationInterface.getEarthquake\lMagnitude">
<polygon fill="white" stroke="black" points="198.5,-244.5 198.5,-285.5 385.5,-285.5 385.5,-244.5 198.5,-244.5"/>
<text text-anchor="start" x="206.5" y="-273.5" font-family="Helvetica,sans-Serif" font-size="10.00">gameEngine.ManagerInterface.</text>
<text text-anchor="start" x="206.5" y="-262.5" font-family="Helvetica,sans-Serif" font-size="10.00">InformationInterface.getEarthquake</text>
<text text-anchor="middle" x="292" y="-251.5" font-family="Helvetica,sans-Serif" font-size="10.00">Magnitude</text>
</a>
</g>
</g>
<!-- Node1&#45;&gt;Node2 -->
<g id="edge1" class="edge"><title>Node1&#45;&gt;Node2</title>
<path fill="none" stroke="midnightblue" d="M95.9719,-152.048C116.466,-173.309 156.74,-212.096 198,-235 201.407,-236.891 204.951,-238.685 208.581,-240.382"/>
<polygon fill="midnightblue" stroke="midnightblue" points="207.185,-243.592 217.748,-244.407 209.999,-237.183 207.185,-243.592"/>
</g>
<!-- Node3 -->
<g id="node3" class="node"><title>Node3</title>
<g id="a_node3"><a xlink:href="../../d5/d02/classgame_engine_1_1actors_1_1_base_actor.html#aa69731335ede718aa18dc55d533868df" target="_top" xlink:title="gameEngine.actors.BaseActor.get\lEnemiesInRange">
<polygon fill="white" stroke="black" points="202,-196 202,-226 382,-226 382,-196 202,-196"/>
<text text-anchor="start" x="210" y="-214" font-family="Helvetica,sans-Serif" font-size="10.00">gameEngine.actors.BaseActor.get</text>
<text text-anchor="middle" x="292" y="-203" font-family="Helvetica,sans-Serif" font-size="10.00">EnemiesInRange</text>
</a>
</g>
</g>
<!-- Node1&#45;&gt;Node3 -->
<g id="edge2" class="edge"><title>Node1&#45;&gt;Node3</title>
<path fill="none" stroke="midnightblue" d="M114.534,-152.159C137.534,-162.523 169.263,-176.12 198,-186 205.226,-188.484 212.836,-190.878 220.463,-193.135"/>
<polygon fill="midnightblue" stroke="midnightblue" points="219.526,-196.508 230.104,-195.917 221.466,-189.782 219.526,-196.508"/>
</g>
<!-- Node6 -->
<g id="node6" class="node"><title>Node6</title>
<g id="a_node6"><a xlink:href="../../de/dcd/classgame_engine_1_1actors_1_1behaviors_1_1_base_defend_behavior.html#af18efd576785fa50fc20db0920623064" target="_top" xlink:title="gameEngine.actors.behaviors.\lBaseDefendBehavior.getHealth">
<polygon fill="white" stroke="black" points="208.5,-147 208.5,-177 375.5,-177 375.5,-147 208.5,-147"/>
<text text-anchor="start" x="216.5" y="-165" font-family="Helvetica,sans-Serif" font-size="10.00">gameEngine.actors.behaviors.</text>
<text text-anchor="middle" x="292" y="-154" font-family="Helvetica,sans-Serif" font-size="10.00">BaseDefendBehavior.getHealth</text>
</a>
</g>
</g>
<!-- Node1&#45;&gt;Node6 -->
<g id="edge5" class="edge"><title>Node1&#45;&gt;Node6</title>
<path fill="none" stroke="midnightblue" d="M162.207,-146.594C173.988,-148.003 186.206,-149.465 198.214,-150.901"/>
<polygon fill="midnightblue" stroke="midnightblue" points="197.893,-154.388 208.238,-152.1 198.725,-147.437 197.893,-154.388"/>
</g>
<!-- Node7 -->
<g id="node7" class="node"><title>Node7</title>
<g id="a_node7"><a xlink:href="../../d5/d02/classgame_engine_1_1actors_1_1_base_actor.html#a44486882dca9a2894f0445ee98e7bf45" target="_top" xlink:title="gameEngine.actors.BaseActor.get\lInfoInterface">
<polygon fill="white" stroke="black" points="202,-98 202,-128 382,-128 382,-98 202,-98"/>
<text text-anchor="start" x="210" y="-116" font-family="Helvetica,sans-Serif" font-size="10.00">gameEngine.actors.BaseActor.get</text>
<text text-anchor="middle" x="292" y="-105" font-family="Helvetica,sans-Serif" font-size="10.00">InfoInterface</text>
</a>
</g>
</g>
<!-- Node1&#45;&gt;Node7 -->
<g id="edge6" class="edge"><title>Node1&#45;&gt;Node7</title>
<path fill="none" stroke="midnightblue" d="M162.207,-127.79C171.963,-126.669 182.018,-125.515 192.006,-124.368"/>
<polygon fill="midnightblue" stroke="midnightblue" points="192.423,-127.843 201.958,-123.225 191.624,-120.889 192.423,-127.843"/>
</g>
<!-- Node8 -->
<g id="node8" class="node"><title>Node8</title>
<g id="a_node8"><a xlink:href="../../de/dcd/classgame_engine_1_1actors_1_1behaviors_1_1_base_defend_behavior.html#ab76ecb7cdf0bf5e75e537a75257dfd8c" target="_top" xlink:title="gameEngine.actors.behaviors.\lBaseDefendBehavior.onDeath">
<polygon fill="white" stroke="black" points="211,-49 211,-79 373,-79 373,-49 211,-49"/>
<text text-anchor="start" x="219" y="-67" font-family="Helvetica,sans-Serif" font-size="10.00">gameEngine.actors.behaviors.</text>
<text text-anchor="middle" x="292" y="-56" font-family="Helvetica,sans-Serif" font-size="10.00">BaseDefendBehavior.onDeath</text>
</a>
</g>
</g>
<!-- Node1&#45;&gt;Node8 -->
<g id="edge7" class="edge"><title>Node1&#45;&gt;Node8</title>
<path fill="none" stroke="midnightblue" d="M115.065,-121.973C138.038,-111.867 169.521,-98.6744 198,-89 205.346,-86.5044 213.085,-84.0921 220.833,-81.8148"/>
<polygon fill="midnightblue" stroke="midnightblue" points="221.976,-85.1283 230.623,-79.0064 220.045,-78.3997 221.976,-85.1283"/>
</g>
<!-- Node9 -->
<g id="node9" class="node"><title>Node9</title>
<g id="a_node9"><a xlink:href="../../de/dcd/classgame_engine_1_1actors_1_1behaviors_1_1_base_defend_behavior.html#a6b8c10a820bab5b54587a0252b10123b" target="_top" xlink:title="gameEngine.actors.behaviors.\lBaseDefendBehavior.setHealth">
<polygon fill="white" stroke="black" points="209,-0 209,-30 375,-30 375,-0 209,-0"/>
<text text-anchor="start" x="217" y="-18" font-family="Helvetica,sans-Serif" font-size="10.00">gameEngine.actors.behaviors.</text>
<text text-anchor="middle" x="292" y="-7" font-family="Helvetica,sans-Serif" font-size="10.00">BaseDefendBehavior.setHealth</text>
</a>
</g>
</g>
<!-- Node1&#45;&gt;Node9 -->
<g id="edge8" class="edge"><title>Node1&#45;&gt;Node9</title>
<path fill="none" stroke="midnightblue" d="M95.8549,-121.836C116.207,-100.466 156.309,-61.6795 198,-40 202.52,-37.6498 207.281,-35.5049 212.162,-33.5498"/>
<polygon fill="midnightblue" stroke="midnightblue" points="213.509,-36.783 221.665,-30.0196 211.072,-30.2211 213.509,-36.783"/>
</g>
<!-- Node4 -->
<g id="node4" class="node"><title>Node4</title>
<g id="a_node4"><a xlink:href="../../d2/d81/interfacegame_engine_1_1_manager_interface_1_1_information_interface.html#a3eabafeda6598b367a863b4d035932f1" target="_top" xlink:title="gameEngine.ManagerInterface.\lInformationInterface.getRequired\lActors">
<polygon fill="white" stroke="black" points="425.5,-217.5 425.5,-258.5 598.5,-258.5 598.5,-217.5 425.5,-217.5"/>
<text text-anchor="start" x="433.5" y="-246.5" font-family="Helvetica,sans-Serif" font-size="10.00">gameEngine.ManagerInterface.</text>
<text text-anchor="start" x="433.5" y="-235.5" font-family="Helvetica,sans-Serif" font-size="10.00">InformationInterface.getRequired</text>
<text text-anchor="middle" x="512" y="-224.5" font-family="Helvetica,sans-Serif" font-size="10.00">Actors</text>
</a>
</g>
</g>
<!-- Node3&#45;&gt;Node4 -->
<g id="edge3" class="edge"><title>Node3&#45;&gt;Node4</title>
<path fill="none" stroke="midnightblue" d="M382.298,-222.06C393.191,-223.409 404.356,-224.792 415.337,-226.152"/>
<polygon fill="midnightblue" stroke="midnightblue" points="415.003,-229.637 425.358,-227.393 415.864,-222.69 415.003,-229.637"/>
</g>
<!-- Node5 -->
<g id="node5" class="node"><title>Node5</title>
<g id="a_node5"><a xlink:href="../../d5/d02/classgame_engine_1_1actors_1_1_base_actor.html#a827bcd701171b1776750c84bca05675d" target="_top" xlink:title="gameEngine.actors.BaseActor.set\lRange">
<polygon fill="white" stroke="black" points="422.5,-169 422.5,-199 601.5,-199 601.5,-169 422.5,-169"/>
<text text-anchor="start" x="430.5" y="-187" font-family="Helvetica,sans-Serif" font-size="10.00">gameEngine.actors.BaseActor.set</text>
<text text-anchor="middle" x="512" y="-176" font-family="Helvetica,sans-Serif" font-size="10.00">Range</text>
</a>
</g>
</g>
<!-- Node3&#45;&gt;Node5 -->
<g id="edge4" class="edge"><title>Node3&#45;&gt;Node5</title>
<path fill="none" stroke="midnightblue" d="M382.298,-199.94C392.175,-198.717 402.276,-197.466 412.26,-196.229"/>
<polygon fill="midnightblue" stroke="midnightblue" points="412.7,-199.702 422.194,-194.999 411.839,-192.755 412.7,-199.702"/>
</g>
</g>
</svg>
