<?xml version="1.0" encoding="UTF-8" standalone="no"?>
<!DOCTYPE svg PUBLIC "-//W3C//DTD SVG 1.1//EN"
 "http://www.w3.org/Graphics/SVG/1.1/DTD/svg11.dtd">
<!-- Generated by graphviz version 2.36.0 (20140111.2315)
 -->
<!-- Title: gameEngine.actors.BaseTower Pages: 1 -->
<svg width="170pt" height="196pt"
 viewBox="0.00 0.00 170.00 196.00" xmlns="http://www.w3.org/2000/svg" xmlns:xlink="http://www.w3.org/1999/xlink">
<g id="graph0" class="graph" transform="scale(1 1) rotate(0) translate(4 192)">
<title>gameEngine.actors.BaseTower</title>
<polygon fill="white" stroke="none" points="-4,4 -4,-192 166,-192 166,4 -4,4"/>
<!-- Node1 -->
<g id="node1" class="node"><title>Node1</title>
<polygon fill="#bfbfbf" stroke="black" points="-0.5,-0.5 -0.5,-19.5 162.5,-19.5 162.5,-0.5 -0.5,-0.5"/>
<text text-anchor="middle" x="81" y="-7.5" font-family="Helvetica,sans-Serif" font-size="10.00">gameEngine.actors.BaseTower</text>
</g>
<!-- Node2 -->
<g id="node2" class="node"><title>Node2</title>
<g id="a_node2"><a xlink:href="../../de/d0f/classgame_engine_1_1actors_1_1_real_actor.html" target="_top" xlink:title="gameEngine.actors.RealActor">
<polygon fill="white" stroke="black" points="2,-56.5 2,-75.5 160,-75.5 160,-56.5 2,-56.5"/>
<text text-anchor="middle" x="81" y="-63.5" font-family="Helvetica,sans-Serif" font-size="10.00">gameEngine.actors.RealActor</text>
</a>
</g>
</g>
<!-- Node2&#45;&gt;Node1 -->
<g id="edge1" class="edge"><title>Node2&#45;&gt;Node1</title>
<path fill="none" stroke="midnightblue" d="M81,-45.8045C81,-36.9102 81,-26.7798 81,-19.7511"/>
<polygon fill="midnightblue" stroke="midnightblue" points="77.5001,-46.083 81,-56.083 84.5001,-46.083 77.5001,-46.083"/>
</g>
<!-- Node3 -->
<g id="node3" class="node"><title>Node3</title>
<g id="a_node3"><a xlink:href="../../d5/d02/classgame_engine_1_1actors_1_1_base_actor.html" target="_top" xlink:title="gameEngine.actors.BaseActor">
<polygon fill="white" stroke="black" points="0,-112.5 0,-131.5 162,-131.5 162,-112.5 0,-112.5"/>
<text text-anchor="middle" x="81" y="-119.5" font-family="Helvetica,sans-Serif" font-size="10.00">gameEngine.actors.BaseActor</text>
</a>
</g>
</g>
<!-- Node3&#45;&gt;Node2 -->
<g id="edge2" class="edge"><title>Node3&#45;&gt;Node2</title>
<path fill="none" stroke="midnightblue" d="M81,-101.805C81,-92.9102 81,-82.7798 81,-75.7511"/>
<polygon fill="midnightblue" stroke="midnightblue" points="77.5001,-102.083 81,-112.083 84.5001,-102.083 77.5001,-102.083"/>
</g>
<!-- Node4 -->
<g id="node4" class="node"><title>Node4</title>
<polygon fill="white" stroke="#bfbfbf" points="45.5,-168.5 45.5,-187.5 116.5,-187.5 116.5,-168.5 45.5,-168.5"/>
<text text-anchor="middle" x="81" y="-175.5" font-family="Helvetica,sans-Serif" font-size="10.00">Observable</text>
</g>
<!-- Node4&#45;&gt;Node3 -->
<g id="edge3" class="edge"><title>Node4&#45;&gt;Node3</title>
<path fill="none" stroke="midnightblue" d="M81,-157.805C81,-148.91 81,-138.78 81,-131.751"/>
<polygon fill="midnightblue" stroke="midnightblue" points="77.5001,-158.083 81,-168.083 84.5001,-158.083 77.5001,-158.083"/>
</g>
</g>
</svg>
