<?xml version="1.0" encoding="UTF-8" standalone="no"?>
<!DOCTYPE svg PUBLIC "-//W3C//DTD SVG 1.1//EN"
 "http://www.w3.org/Graphics/SVG/1.1/DTD/svg11.dtd">
<!-- Generated by graphviz version 2.36.0 (20140111.2315)
 -->
<!-- Title: utilities.JavaFXutilities.numericalTextFields.NumericalTextField.getNumber Pages: 1 -->
<svg width="1410pt" height="338pt"
 viewBox="0.00 0.00 1410.00 338.00" xmlns="http://www.w3.org/2000/svg" xmlns:xlink="http://www.w3.org/1999/xlink">
<g id="graph0" class="graph" transform="scale(1 1) rotate(0) translate(4 334)">
<title>utilities.JavaFXutilities.numericalTextFields.NumericalTextField.getNumber</title>
<polygon fill="white" stroke="none" points="-4,4 -4,-334 1406,-334 1406,4 -4,4"/>
<!-- Node1 -->
<g id="node1" class="node"><title>Node1</title>
<polygon fill="#bfbfbf" stroke="black" points="0.5,-120 0.5,-150 211.5,-150 211.5,-120 0.5,-120"/>
<text text-anchor="start" x="8.5" y="-138" font-family="Helvetica,sans-Serif" font-size="10.00">utilities.JavaFXutilities.numerical</text>
<text text-anchor="middle" x="106" y="-127" font-family="Helvetica,sans-Serif" font-size="10.00">TextFields.NumericalTextField.getNumber</text>
</g>
<!-- Node2 -->
<g id="node2" class="node"><title>Node2</title>
<g id="a_node2"><a xlink:href="../../da/d10/classgame_authoring_1_1scenes_1_1level_building_1_1_level_display_cell.html#a5c088c395aefa2404d56d7e35bf5f31a" target="_top" xlink:title="gameAuthoring.scenes.level\lBuilding.LevelDisplayCell.generateLevel">
<polygon fill="white" stroke="black" points="250.5,-261 250.5,-291 455.5,-291 455.5,-261 250.5,-261"/>
<text text-anchor="start" x="258.5" y="-279" font-family="Helvetica,sans-Serif" font-size="10.00">gameAuthoring.scenes.level</text>
<text text-anchor="middle" x="353" y="-268" font-family="Helvetica,sans-Serif" font-size="10.00">Building.LevelDisplayCell.generateLevel</text>
</a>
</g>
</g>
<!-- Node1&#45;&gt;Node2 -->
<g id="edge1" class="edge"><title>Node1&#45;&gt;Node2</title>
<path fill="none" stroke="midnightblue" d="M140.867,-155.235C169.348,-172.18 211.195,-196.908 248,-218 273.829,-232.802 303.507,-249.303 324.531,-260.909"/>
<polygon fill="midnightblue" stroke="midnightblue" points="142.495,-152.131 132.113,-150.021 138.914,-158.145 142.495,-152.131"/>
</g>
<!-- Node4 -->
<g id="node4" class="node"><title>Node4</title>
<g id="a_node4"><a xlink:href="../../d8/dbd/classutilities_1_1_java_f_xutilities_1_1numerical_text_fields_1_1_labeled_numerical_text_field.html#a7965a2a42055843864a69c3f98beb704" target="_top" xlink:title="utilities.JavaFXutilities.numerical\lTextFields.LabeledNumericalTextField.get\lNumberEntered">
<polygon fill="white" stroke="black" points="248.5,-168.5 248.5,-209.5 457.5,-209.5 457.5,-168.5 248.5,-168.5"/>
<text text-anchor="start" x="256.5" y="-197.5" font-family="Helvetica,sans-Serif" font-size="10.00">utilities.JavaFXutilities.numerical</text>
<text text-anchor="start" x="256.5" y="-186.5" font-family="Helvetica,sans-Serif" font-size="10.00">TextFields.LabeledNumericalTextField.get</text>
<text text-anchor="middle" x="353" y="-175.5" font-family="Helvetica,sans-Serif" font-size="10.00">NumberEntered</text>
</a>
</g>
</g>
<!-- Node1&#45;&gt;Node4 -->
<g id="edge3" class="edge"><title>Node1&#45;&gt;Node4</title>
<path fill="none" stroke="midnightblue" d="M185.141,-152.223C208.616,-157.397 234.603,-163.125 258.942,-168.489"/>
<polygon fill="midnightblue" stroke="midnightblue" points="185.765,-148.777 175.246,-150.042 184.258,-155.612 185.765,-148.777"/>
</g>
<!-- Node7 -->
<g id="node7" class="node"><title>Node7</title>
<g id="a_node7"><a xlink:href="../../d4/d4e/classgame_authoring_1_1scenes_1_1_general_setting_scene.html#a617e6b5af6f393494c7f4c4668e62af9" target="_top" xlink:title="gameAuthoring.scenes.General\lSettingScene.handleButtonClick">
<polygon fill="white" stroke="black" points="521,-120 521,-150 691,-150 691,-120 521,-120"/>
<text text-anchor="start" x="529" y="-138" font-family="Helvetica,sans-Serif" font-size="10.00">gameAuthoring.scenes.General</text>
<text text-anchor="middle" x="606" y="-127" font-family="Helvetica,sans-Serif" font-size="10.00">SettingScene.handleButtonClick</text>
</a>
</g>
</g>
<!-- Node1&#45;&gt;Node7 -->
<g id="edge6" class="edge"><title>Node1&#45;&gt;Node7</title>
<path fill="none" stroke="midnightblue" d="M221.811,-135C313.033,-135 438.519,-135 520.665,-135"/>
<polygon fill="midnightblue" stroke="midnightblue" points="221.701,-131.5 211.701,-135 221.701,-138.5 221.701,-131.5"/>
</g>
<!-- Node11 -->
<g id="node11" class="node"><title>Node11</title>
<g id="a_node11"><a xlink:href="../../da/d10/classgame_authoring_1_1scenes_1_1level_building_1_1_level_display_cell.html#a2afb2e6c217fb7d246fbd37bbc0c632d" target="_top" xlink:title="gameAuthoring.scenes.level\lBuilding.LevelDisplayCell.isUser\lInputValid">
<polygon fill="white" stroke="black" points="522.5,-0.5 522.5,-41.5 689.5,-41.5 689.5,-0.5 522.5,-0.5"/>
<text text-anchor="start" x="530.5" y="-29.5" font-family="Helvetica,sans-Serif" font-size="10.00">gameAuthoring.scenes.level</text>
<text text-anchor="start" x="530.5" y="-18.5" font-family="Helvetica,sans-Serif" font-size="10.00">Building.LevelDisplayCell.isUser</text>
<text text-anchor="middle" x="606" y="-7.5" font-family="Helvetica,sans-Serif" font-size="10.00">InputValid</text>
</a>
</g>
</g>
<!-- Node1&#45;&gt;Node11 -->
<g id="edge11" class="edge"><title>Node1&#45;&gt;Node11</title>
<path fill="none" stroke="midnightblue" d="M134.99,-114.037C162.284,-94.8212 205.745,-67.3867 248,-54 338.785,-25.2385 448.572,-19.0686 522.219,-18.7597"/>
<polygon fill="midnightblue" stroke="midnightblue" points="132.812,-111.291 126.719,-119.959 136.887,-116.983 132.812,-111.291"/>
</g>
<!-- Node12 -->
<g id="node12" class="node"><title>Node12</title>
<g id="a_node12"><a xlink:href="../../dc/dc4/classutilities_1_1_java_f_xutilities_1_1numerical_text_fields_1_1_numerical_text_field.html#a93ab2c03308370bacb4cf17917e23d5f" target="_top" xlink:title="utilities.JavaFXutilities.numerical\lTextFields.NumericalTextField.isValue\lEntered">
<polygon fill="white" stroke="black" points="258,-63.5 258,-104.5 448,-104.5 448,-63.5 258,-63.5"/>
<text text-anchor="start" x="266" y="-92.5" font-family="Helvetica,sans-Serif" font-size="10.00">utilities.JavaFXutilities.numerical</text>
<text text-anchor="start" x="266" y="-81.5" font-family="Helvetica,sans-Serif" font-size="10.00">TextFields.NumericalTextField.isValue</text>
<text text-anchor="middle" x="353" y="-70.5" font-family="Helvetica,sans-Serif" font-size="10.00">Entered</text>
</a>
</g>
</g>
<!-- Node1&#45;&gt;Node12 -->
<g id="edge12" class="edge"><title>Node1&#45;&gt;Node12</title>
<path fill="none" stroke="midnightblue" d="M189.13,-117.904C211.103,-113.33 235.027,-108.349 257.605,-103.65"/>
<polygon fill="midnightblue" stroke="midnightblue" points="188.26,-114.51 179.183,-119.974 189.686,-121.363 188.26,-114.51"/>
</g>
<!-- Node3 -->
<g id="node3" class="node"><title>Node3</title>
<g id="a_node3"><a xlink:href="../../da/d10/classgame_authoring_1_1scenes_1_1level_building_1_1_level_display_cell.html#a7c364973b2428267a31e0a8e7be0238f" target="_top" xlink:title="gameAuthoring.scenes.level\lBuilding.LevelDisplayCell.Level\lDisplayCell">
<polygon fill="white" stroke="black" points="525.5,-288.5 525.5,-329.5 686.5,-329.5 686.5,-288.5 525.5,-288.5"/>
<text text-anchor="start" x="533.5" y="-317.5" font-family="Helvetica,sans-Serif" font-size="10.00">gameAuthoring.scenes.level</text>
<text text-anchor="start" x="533.5" y="-306.5" font-family="Helvetica,sans-Serif" font-size="10.00">Building.LevelDisplayCell.Level</text>
<text text-anchor="middle" x="606" y="-295.5" font-family="Helvetica,sans-Serif" font-size="10.00">DisplayCell</text>
</a>
</g>
</g>
<!-- Node2&#45;&gt;Node3 -->
<g id="edge2" class="edge"><title>Node2&#45;&gt;Node3</title>
<path fill="none" stroke="midnightblue" d="M465.866,-290.707C485.964,-293.35 506.534,-296.054 525.482,-298.545"/>
<polygon fill="midnightblue" stroke="midnightblue" points="466.1,-287.208 455.729,-289.375 465.188,-294.149 466.1,-287.208"/>
</g>
<!-- Node5 -->
<g id="node5" class="node"><title>Node5</title>
<g id="a_node5"><a xlink:href="../../d4/dc5/classgame_authoring_1_1scenes_1_1actor_building_scenes_1_1_enemy_building_scene.html#a2de288f65797462cf65c9fba8cc2b58c" target="_top" xlink:title="gameAuthoring.scenes.actor\lBuildingScenes.EnemyBuildingScene.make\lNewActor">
<polygon fill="white" stroke="black" points="494.5,-228.5 494.5,-269.5 717.5,-269.5 717.5,-228.5 494.5,-228.5"/>
<text text-anchor="start" x="502.5" y="-257.5" font-family="Helvetica,sans-Serif" font-size="10.00">gameAuthoring.scenes.actor</text>
<text text-anchor="start" x="502.5" y="-246.5" font-family="Helvetica,sans-Serif" font-size="10.00">BuildingScenes.EnemyBuildingScene.make</text>
<text text-anchor="middle" x="606" y="-235.5" font-family="Helvetica,sans-Serif" font-size="10.00">NewActor</text>
</a>
</g>
</g>
<!-- Node4&#45;&gt;Node5 -->
<g id="edge4" class="edge"><title>Node4&#45;&gt;Node5</title>
<path fill="none" stroke="midnightblue" d="M450.018,-211.952C472.745,-217.385 496.838,-223.145 519.084,-228.462"/>
<polygon fill="midnightblue" stroke="midnightblue" points="450.569,-208.486 440.029,-209.565 448.941,-215.294 450.569,-208.486"/>
</g>
<!-- Node6 -->
<g id="node6" class="node"><title>Node6</title>
<g id="a_node6"><a xlink:href="../../d4/d66/classgame_authoring_1_1scenes_1_1actor_building_scenes_1_1_tower_building_scene.html#a0eb2856ee189de1452b66ae4fe2d81ae" target="_top" xlink:title="gameAuthoring.scenes.actor\lBuildingScenes.TowerBuildingScene.make\lNewActor">
<polygon fill="white" stroke="black" points="498,-168.5 498,-209.5 714,-209.5 714,-168.5 498,-168.5"/>
<text text-anchor="start" x="506" y="-197.5" font-family="Helvetica,sans-Serif" font-size="10.00">gameAuthoring.scenes.actor</text>
<text text-anchor="start" x="506" y="-186.5" font-family="Helvetica,sans-Serif" font-size="10.00">BuildingScenes.TowerBuildingScene.make</text>
<text text-anchor="middle" x="606" y="-175.5" font-family="Helvetica,sans-Serif" font-size="10.00">NewActor</text>
</a>
</g>
</g>
<!-- Node4&#45;&gt;Node6 -->
<g id="edge5" class="edge"><title>Node4&#45;&gt;Node6</title>
<path fill="none" stroke="midnightblue" d="M467.833,-189C477.753,-189 487.772,-189 497.638,-189"/>
<polygon fill="midnightblue" stroke="midnightblue" points="467.54,-185.5 457.54,-189 467.54,-192.5 467.54,-185.5"/>
</g>
<!-- Node8 -->
<g id="node8" class="node"><title>Node8</title>
<g id="a_node8"><a xlink:href="../../d4/d4e/classgame_authoring_1_1scenes_1_1_general_setting_scene.html#a9282c877dfdbca9fc95ae068ddcc45c4" target="_top" xlink:title="gameAuthoring.scenes.General\lSettingScene.createNextButton">
<polygon fill="white" stroke="black" points="780,-120 780,-150 950,-150 950,-120 780,-120"/>
<text text-anchor="start" x="788" y="-138" font-family="Helvetica,sans-Serif" font-size="10.00">gameAuthoring.scenes.General</text>
<text text-anchor="middle" x="865" y="-127" font-family="Helvetica,sans-Serif" font-size="10.00">SettingScene.createNextButton</text>
</a>
</g>
</g>
<!-- Node7&#45;&gt;Node8 -->
<g id="edge7" class="edge"><title>Node7&#45;&gt;Node8</title>
<path fill="none" stroke="midnightblue" d="M701.261,-135C726.934,-135 754.575,-135 779.66,-135"/>
<polygon fill="midnightblue" stroke="midnightblue" points="701.151,-131.5 691.151,-135 701.151,-138.5 701.151,-131.5"/>
</g>
<!-- Node9 -->
<g id="node9" class="node"><title>Node9</title>
<g id="a_node9"><a xlink:href="../../d4/d4e/classgame_authoring_1_1scenes_1_1_general_setting_scene.html#af02688df88ba8091f244385b1344ccad" target="_top" xlink:title="gameAuthoring.scenes.General\lSettingScene.createOptions">
<polygon fill="white" stroke="black" points="1012,-142 1012,-172 1180,-172 1180,-142 1012,-142"/>
<text text-anchor="start" x="1020" y="-160" font-family="Helvetica,sans-Serif" font-size="10.00">gameAuthoring.scenes.General</text>
<text text-anchor="middle" x="1096" y="-149" font-family="Helvetica,sans-Serif" font-size="10.00">SettingScene.createOptions</text>
</a>
</g>
</g>
<!-- Node8&#45;&gt;Node9 -->
<g id="edge8" class="edge"><title>Node8&#45;&gt;Node9</title>
<path fill="none" stroke="midnightblue" d="M960.723,-144.1C977.616,-145.723 995.101,-147.403 1011.65,-148.992"/>
<polygon fill="midnightblue" stroke="midnightblue" points="960.584,-140.571 950.296,-143.098 959.915,-147.539 960.584,-140.571"/>
</g>
<!-- Node10 -->
<g id="node10" class="node"><title>Node10</title>
<g id="a_node10"><a xlink:href="../../d4/d4e/classgame_authoring_1_1scenes_1_1_general_setting_scene.html#ab5d7d1efd2c3cecbebf9db0a99d05ab8" target="_top" xlink:title="gameAuthoring.scenes.General\lSettingScene.GeneralSettingScene">
<polygon fill="white" stroke="black" points="1216,-120 1216,-150 1402,-150 1402,-120 1216,-120"/>
<text text-anchor="start" x="1224" y="-138" font-family="Helvetica,sans-Serif" font-size="10.00">gameAuthoring.scenes.General</text>
<text text-anchor="middle" x="1309" y="-127" font-family="Helvetica,sans-Serif" font-size="10.00">SettingScene.GeneralSettingScene</text>
</a>
</g>
</g>
<!-- Node8&#45;&gt;Node10 -->
<g id="edge10" class="edge"><title>Node8&#45;&gt;Node10</title>
<path fill="none" stroke="midnightblue" d="M960.211,-132.78C977.438,-132.455 995.258,-132.172 1012,-132 1086.66,-131.233 1105.34,-131.125 1180,-132 1191.56,-132.135 1203.7,-132.34 1215.72,-132.579"/>
<polygon fill="midnightblue" stroke="midnightblue" points="960.078,-129.282 950.148,-132.976 960.215,-136.28 960.078,-129.282"/>
</g>
<!-- Node9&#45;&gt;Node10 -->
<g id="edge9" class="edge"><title>Node9&#45;&gt;Node10</title>
<path fill="none" stroke="midnightblue" d="M1190.09,-147.294C1198.67,-146.399 1207.36,-145.493 1215.93,-144.6"/>
<polygon fill="midnightblue" stroke="midnightblue" points="1189.67,-143.818 1180.09,-148.337 1190.4,-150.781 1189.67,-143.818"/>
</g>
<!-- Node12&#45;&gt;Node7 -->
<g id="edge13" class="edge"><title>Node12&#45;&gt;Node7</title>
<path fill="none" stroke="midnightblue" d="M458.216,-105.175C482.681,-110.146 508.258,-115.343 531.08,-119.98"/>
<polygon fill="midnightblue" stroke="midnightblue" points="458.674,-101.697 448.177,-103.136 457.28,-108.557 458.674,-101.697"/>
</g>
<!-- Node12&#45;&gt;Node11 -->
<g id="edge14" class="edge"><title>Node12&#45;&gt;Node11</title>
<path fill="none" stroke="midnightblue" d="M445.823,-60.9527C471.184,-54.5873 498.526,-47.7246 523.272,-41.5135"/>
<polygon fill="midnightblue" stroke="midnightblue" points="444.687,-57.6294 435.839,-63.4586 446.391,-64.4188 444.687,-57.6294"/>
</g>
<!-- Node13 -->
<g id="node13" class="node"><title>Node13</title>
<g id="a_node13"><a xlink:href="../../d8/dbd/classutilities_1_1_java_f_xutilities_1_1numerical_text_fields_1_1_labeled_numerical_text_field.html#ad22c78a7a22485dbaf15431c9a489bbd" target="_top" xlink:title="utilities.JavaFXutilities.numerical\lTextFields.LabeledNumericalTextField.is\lValueEntered">
<polygon fill="white" stroke="black" points="505.5,-60.5 505.5,-101.5 706.5,-101.5 706.5,-60.5 505.5,-60.5"/>
<text text-anchor="start" x="513.5" y="-89.5" font-family="Helvetica,sans-Serif" font-size="10.00">utilities.JavaFXutilities.numerical</text>
<text text-anchor="start" x="513.5" y="-78.5" font-family="Helvetica,sans-Serif" font-size="10.00">TextFields.LabeledNumericalTextField.is</text>
<text text-anchor="middle" x="606" y="-67.5" font-family="Helvetica,sans-Serif" font-size="10.00">ValueEntered</text>
</a>
</g>
</g>
<!-- Node12&#45;&gt;Node13 -->
<g id="edge15" class="edge"><title>Node12&#45;&gt;Node13</title>
<path fill="none" stroke="midnightblue" d="M458.31,-82.7533C473.844,-82.5676 489.824,-82.3766 505.26,-82.1921"/>
<polygon fill="midnightblue" stroke="midnightblue" points="458.135,-79.255 448.177,-82.8744 458.218,-86.2545 458.135,-79.255"/>
</g>
<!-- Node14 -->
<g id="node14" class="node"><title>Node14</title>
<g id="a_node14"><a xlink:href="../../d4/dc5/classgame_authoring_1_1scenes_1_1actor_building_scenes_1_1_enemy_building_scene.html#a23374001280bc8dcc22a274a596c56f2" target="_top" xlink:title="gameAuthoring.scenes.actor\lBuildingScenes.EnemyBuildingScene.actor\lSpecificFieldsValid">
<polygon fill="white" stroke="black" points="754.5,-0.5 754.5,-41.5 975.5,-41.5 975.5,-0.5 754.5,-0.5"/>
<text text-anchor="start" x="762.5" y="-29.5" font-family="Helvetica,sans-Serif" font-size="10.00">gameAuthoring.scenes.actor</text>
<text text-anchor="start" x="762.5" y="-18.5" font-family="Helvetica,sans-Serif" font-size="10.00">BuildingScenes.EnemyBuildingScene.actor</text>
<text text-anchor="middle" x="865" y="-7.5" font-family="Helvetica,sans-Serif" font-size="10.00">SpecificFieldsValid</text>
</a>
</g>
</g>
<!-- Node13&#45;&gt;Node14 -->
<g id="edge16" class="edge"><title>Node13&#45;&gt;Node14</title>
<path fill="none" stroke="midnightblue" d="M705,-58.1206C728.362,-52.6665 753.151,-46.8792 776.03,-41.5378"/>
<polygon fill="midnightblue" stroke="midnightblue" points="704.028,-54.7534 695.085,-60.4353 705.619,-61.5701 704.028,-54.7534"/>
</g>
<!-- Node15 -->
<g id="node15" class="node"><title>Node15</title>
<g id="a_node15"><a xlink:href="../../d4/d66/classgame_authoring_1_1scenes_1_1actor_building_scenes_1_1_tower_building_scene.html#a34a88f39003843c72cec7e89a442f24d" target="_top" xlink:title="gameAuthoring.scenes.actor\lBuildingScenes.TowerBuildingScene.actor\lSpecificFieldsValid">
<polygon fill="white" stroke="black" points="758,-60.5 758,-101.5 972,-101.5 972,-60.5 758,-60.5"/>
<text text-anchor="start" x="766" y="-89.5" font-family="Helvetica,sans-Serif" font-size="10.00">gameAuthoring.scenes.actor</text>
<text text-anchor="start" x="766" y="-78.5" font-family="Helvetica,sans-Serif" font-size="10.00">BuildingScenes.TowerBuildingScene.actor</text>
<text text-anchor="middle" x="865" y="-67.5" font-family="Helvetica,sans-Serif" font-size="10.00">SpecificFieldsValid</text>
</a>
</g>
</g>
<!-- Node13&#45;&gt;Node15 -->
<g id="edge17" class="edge"><title>Node13&#45;&gt;Node15</title>
<path fill="none" stroke="midnightblue" d="M717.038,-81C730.601,-81 744.444,-81 757.946,-81"/>
<polygon fill="midnightblue" stroke="midnightblue" points="716.731,-77.5001 706.731,-81 716.731,-84.5001 716.731,-77.5001"/>
</g>
</g>
</svg>
