<?xml version="1.0" encoding="UTF-8" standalone="no"?>
<!DOCTYPE svg PUBLIC "-//W3C//DTD SVG 1.1//EN"
 "http://www.w3.org/Graphics/SVG/1.1/DTD/svg11.dtd">
<!-- Generated by graphviz version 2.36.0 (20140111.2315)
 -->
<!-- Title: utilities.JavaFXutilities.numericalTextFields.NumericalTextField.isValueEntered Pages: 1 -->
<svg width="1120pt" height="210pt"
 viewBox="0.00 0.00 1120.00 210.00" xmlns="http://www.w3.org/2000/svg" xmlns:xlink="http://www.w3.org/1999/xlink">
<g id="graph0" class="graph" transform="scale(1 1) rotate(0) translate(4 206)">
<title>utilities.JavaFXutilities.numericalTextFields.NumericalTextField.isValueEntered</title>
<polygon fill="white" stroke="none" points="-4,4 -4,-206 1116,-206 1116,4 -4,4"/>
<!-- Node1 -->
<g id="node1" class="node"><title>Node1</title>
<polygon fill="#bfbfbf" stroke="black" points="0,-90.5 0,-131.5 190,-131.5 190,-90.5 0,-90.5"/>
<text text-anchor="start" x="8" y="-119.5" font-family="Helvetica,sans-Serif" font-size="10.00">utilities.JavaFXutilities.numerical</text>
<text text-anchor="start" x="8" y="-108.5" font-family="Helvetica,sans-Serif" font-size="10.00">TextFields.NumericalTextField.isValue</text>
<text text-anchor="middle" x="95" y="-97.5" font-family="Helvetica,sans-Serif" font-size="10.00">Entered</text>
</g>
<!-- Node2 -->
<g id="node2" class="node"><title>Node2</title>
<g id="a_node2"><a xlink:href="../../d4/d4e/classgame_authoring_1_1scenes_1_1_general_setting_scene.html#a617e6b5af6f393494c7f4c4668e62af9" target="_top" xlink:title="gameAuthoring.scenes.General\lSettingScene.handleButtonClick">
<polygon fill="white" stroke="black" points="242,-150 242,-180 412,-180 412,-150 242,-150"/>
<text text-anchor="start" x="250" y="-168" font-family="Helvetica,sans-Serif" font-size="10.00">gameAuthoring.scenes.General</text>
<text text-anchor="middle" x="327" y="-157" font-family="Helvetica,sans-Serif" font-size="10.00">SettingScene.handleButtonClick</text>
</a>
</g>
</g>
<!-- Node1&#45;&gt;Node2 -->
<g id="edge1" class="edge"><title>Node1&#45;&gt;Node2</title>
<path fill="none" stroke="midnightblue" d="M193.45,-133.88C216.578,-139.31 240.675,-144.967 261.881,-149.946"/>
<polygon fill="midnightblue" stroke="midnightblue" points="194.145,-130.448 183.609,-131.569 192.545,-137.262 194.145,-130.448"/>
</g>
<!-- Node6 -->
<g id="node6" class="node"><title>Node6</title>
<g id="a_node6"><a xlink:href="../../da/d10/classgame_authoring_1_1scenes_1_1level_building_1_1_level_display_cell.html#a2afb2e6c217fb7d246fbd37bbc0c632d" target="_top" xlink:title="gameAuthoring.scenes.level\lBuilding.LevelDisplayCell.isUser\lInputValid">
<polygon fill="white" stroke="black" points="243.5,-90.5 243.5,-131.5 410.5,-131.5 410.5,-90.5 243.5,-90.5"/>
<text text-anchor="start" x="251.5" y="-119.5" font-family="Helvetica,sans-Serif" font-size="10.00">gameAuthoring.scenes.level</text>
<text text-anchor="start" x="251.5" y="-108.5" font-family="Helvetica,sans-Serif" font-size="10.00">Building.LevelDisplayCell.isUser</text>
<text text-anchor="middle" x="327" y="-97.5" font-family="Helvetica,sans-Serif" font-size="10.00">InputValid</text>
</a>
</g>
</g>
<!-- Node1&#45;&gt;Node6 -->
<g id="edge6" class="edge"><title>Node1&#45;&gt;Node6</title>
<path fill="none" stroke="midnightblue" d="M200.6,-111C214.934,-111 229.485,-111 243.353,-111"/>
<polygon fill="midnightblue" stroke="midnightblue" points="200.213,-107.5 190.213,-111 200.213,-114.5 200.213,-107.5"/>
</g>
<!-- Node7 -->
<g id="node7" class="node"><title>Node7</title>
<g id="a_node7"><a xlink:href="../../d8/dbd/classutilities_1_1_java_f_xutilities_1_1numerical_text_fields_1_1_labeled_numerical_text_field.html#ad22c78a7a22485dbaf15431c9a489bbd" target="_top" xlink:title="utilities.JavaFXutilities.numerical\lTextFields.LabeledNumericalTextField.is\lValueEntered">
<polygon fill="white" stroke="black" points="226.5,-30.5 226.5,-71.5 427.5,-71.5 427.5,-30.5 226.5,-30.5"/>
<text text-anchor="start" x="234.5" y="-59.5" font-family="Helvetica,sans-Serif" font-size="10.00">utilities.JavaFXutilities.numerical</text>
<text text-anchor="start" x="234.5" y="-48.5" font-family="Helvetica,sans-Serif" font-size="10.00">TextFields.LabeledNumericalTextField.is</text>
<text text-anchor="middle" x="327" y="-37.5" font-family="Helvetica,sans-Serif" font-size="10.00">ValueEntered</text>
</a>
</g>
</g>
<!-- Node1&#45;&gt;Node7 -->
<g id="edge7" class="edge"><title>Node1&#45;&gt;Node7</title>
<path fill="none" stroke="midnightblue" d="M184.545,-87.9013C205.206,-82.5116 227.071,-76.8077 247.272,-71.5378"/>
<polygon fill="midnightblue" stroke="midnightblue" points="183.624,-84.5244 174.831,-90.4353 185.391,-91.2977 183.624,-84.5244"/>
</g>
<!-- Node3 -->
<g id="node3" class="node"><title>Node3</title>
<g id="a_node3"><a xlink:href="../../d4/d4e/classgame_authoring_1_1scenes_1_1_general_setting_scene.html#a9282c877dfdbca9fc95ae068ddcc45c4" target="_top" xlink:title="gameAuthoring.scenes.General\lSettingScene.createNextButton">
<polygon fill="white" stroke="black" points="490,-150 490,-180 660,-180 660,-150 490,-150"/>
<text text-anchor="start" x="498" y="-168" font-family="Helvetica,sans-Serif" font-size="10.00">gameAuthoring.scenes.General</text>
<text text-anchor="middle" x="575" y="-157" font-family="Helvetica,sans-Serif" font-size="10.00">SettingScene.createNextButton</text>
</a>
</g>
</g>
<!-- Node2&#45;&gt;Node3 -->
<g id="edge2" class="edge"><title>Node2&#45;&gt;Node3</title>
<path fill="none" stroke="midnightblue" d="M422.405,-165C444.591,-165 468.091,-165 489.795,-165"/>
<polygon fill="midnightblue" stroke="midnightblue" points="422.315,-161.5 412.315,-165 422.315,-168.5 422.315,-161.5"/>
</g>
<!-- Node4 -->
<g id="node4" class="node"><title>Node4</title>
<g id="a_node4"><a xlink:href="../../d4/d4e/classgame_authoring_1_1scenes_1_1_general_setting_scene.html#af02688df88ba8091f244385b1344ccad" target="_top" xlink:title="gameAuthoring.scenes.General\lSettingScene.createOptions">
<polygon fill="white" stroke="black" points="722,-172 722,-202 890,-202 890,-172 722,-172"/>
<text text-anchor="start" x="730" y="-190" font-family="Helvetica,sans-Serif" font-size="10.00">gameAuthoring.scenes.General</text>
<text text-anchor="middle" x="806" y="-179" font-family="Helvetica,sans-Serif" font-size="10.00">SettingScene.createOptions</text>
</a>
</g>
</g>
<!-- Node3&#45;&gt;Node4 -->
<g id="edge3" class="edge"><title>Node3&#45;&gt;Node4</title>
<path fill="none" stroke="midnightblue" d="M670.723,-174.1C687.616,-175.723 705.101,-177.403 721.647,-178.992"/>
<polygon fill="midnightblue" stroke="midnightblue" points="670.584,-170.571 660.296,-173.098 669.915,-177.539 670.584,-170.571"/>
</g>
<!-- Node5 -->
<g id="node5" class="node"><title>Node5</title>
<g id="a_node5"><a xlink:href="../../d4/d4e/classgame_authoring_1_1scenes_1_1_general_setting_scene.html#ab5d7d1efd2c3cecbebf9db0a99d05ab8" target="_top" xlink:title="gameAuthoring.scenes.General\lSettingScene.GeneralSettingScene">
<polygon fill="white" stroke="black" points="926,-150 926,-180 1112,-180 1112,-150 926,-150"/>
<text text-anchor="start" x="934" y="-168" font-family="Helvetica,sans-Serif" font-size="10.00">gameAuthoring.scenes.General</text>
<text text-anchor="middle" x="1019" y="-157" font-family="Helvetica,sans-Serif" font-size="10.00">SettingScene.GeneralSettingScene</text>
</a>
</g>
</g>
<!-- Node3&#45;&gt;Node5 -->
<g id="edge5" class="edge"><title>Node3&#45;&gt;Node5</title>
<path fill="none" stroke="midnightblue" d="M670.213,-163.52C687.441,-163.303 705.26,-163.115 722,-163 796.665,-162.489 815.336,-162.417 890,-163 901.557,-163.09 913.7,-163.226 925.714,-163.386"/>
<polygon fill="midnightblue" stroke="midnightblue" points="670.105,-160.021 660.151,-163.651 670.195,-167.02 670.105,-160.021"/>
</g>
<!-- Node4&#45;&gt;Node5 -->
<g id="edge4" class="edge"><title>Node4&#45;&gt;Node5</title>
<path fill="none" stroke="midnightblue" d="M900.094,-177.294C908.67,-176.399 917.358,-175.493 925.926,-174.6"/>
<polygon fill="midnightblue" stroke="midnightblue" points="899.673,-173.818 890.09,-178.337 900.399,-180.781 899.673,-173.818"/>
</g>
<!-- Node8 -->
<g id="node8" class="node"><title>Node8</title>
<g id="a_node8"><a xlink:href="../../d4/dc5/classgame_authoring_1_1scenes_1_1actor_building_scenes_1_1_enemy_building_scene.html#a23374001280bc8dcc22a274a596c56f2" target="_top" xlink:title="gameAuthoring.scenes.actor\lBuildingScenes.EnemyBuildingScene.actor\lSpecificFieldsValid">
<polygon fill="white" stroke="black" points="464.5,-60.5 464.5,-101.5 685.5,-101.5 685.5,-60.5 464.5,-60.5"/>
<text text-anchor="start" x="472.5" y="-89.5" font-family="Helvetica,sans-Serif" font-size="10.00">gameAuthoring.scenes.actor</text>
<text text-anchor="start" x="472.5" y="-78.5" font-family="Helvetica,sans-Serif" font-size="10.00">BuildingScenes.EnemyBuildingScene.actor</text>
<text text-anchor="middle" x="575" y="-67.5" font-family="Helvetica,sans-Serif" font-size="10.00">SpecificFieldsValid</text>
</a>
</g>
</g>
<!-- Node7&#45;&gt;Node8 -->
<g id="edge8" class="edge"><title>Node7&#45;&gt;Node8</title>
<path fill="none" stroke="midnightblue" d="M437.879,-64.3999C446.591,-65.4623 455.392,-66.5356 464.104,-67.598"/>
<polygon fill="midnightblue" stroke="midnightblue" points="438.053,-60.8953 427.703,-63.1589 437.206,-67.8438 438.053,-60.8953"/>
</g>
<!-- Node9 -->
<g id="node9" class="node"><title>Node9</title>
<g id="a_node9"><a xlink:href="../../d4/d66/classgame_authoring_1_1scenes_1_1actor_building_scenes_1_1_tower_building_scene.html#a34a88f39003843c72cec7e89a442f24d" target="_top" xlink:title="gameAuthoring.scenes.actor\lBuildingScenes.TowerBuildingScene.actor\lSpecificFieldsValid">
<polygon fill="white" stroke="black" points="468,-0.5 468,-41.5 682,-41.5 682,-0.5 468,-0.5"/>
<text text-anchor="start" x="476" y="-29.5" font-family="Helvetica,sans-Serif" font-size="10.00">gameAuthoring.scenes.actor</text>
<text text-anchor="start" x="476" y="-18.5" font-family="Helvetica,sans-Serif" font-size="10.00">BuildingScenes.TowerBuildingScene.actor</text>
<text text-anchor="middle" x="575" y="-7.5" font-family="Helvetica,sans-Serif" font-size="10.00">SpecificFieldsValid</text>
</a>
</g>
</g>
<!-- Node7&#45;&gt;Node9 -->
<g id="edge9" class="edge"><title>Node7&#45;&gt;Node9</title>
<path fill="none" stroke="midnightblue" d="M437.652,-37.6279C447.65,-36.4086 457.767,-35.1748 467.735,-33.9592"/>
<polygon fill="midnightblue" stroke="midnightblue" points="437.206,-34.1562 427.703,-38.8411 438.053,-41.1047 437.206,-34.1562"/>
</g>
</g>
</svg>
