<?xml version="1.0" encoding="UTF-8" standalone="no"?>
<!DOCTYPE svg PUBLIC "-//W3C//DTD SVG 1.1//EN"
 "http://www.w3.org/Graphics/SVG/1.1/DTD/svg11.dtd">
<!-- Generated by graphviz version 2.36.0 (20140111.2315)
 -->
<!-- Title: gameAuthoring.scenes.actorBuildingScenes.TowerBuildingScene Pages: 1 -->
<svg width="254pt" height="176pt"
 viewBox="0.00 0.00 254.00 176.00" xmlns="http://www.w3.org/2000/svg" xmlns:xlink="http://www.w3.org/1999/xlink">
<g id="graph0" class="graph" transform="scale(1 1) rotate(0) translate(4 172)">
<title>gameAuthoring.scenes.actorBuildingScenes.TowerBuildingScene</title>
<polygon fill="white" stroke="none" points="-4,4 -4,-172 250,-172 250,4 -4,4"/>
<!-- Node1 -->
<g id="node1" class="node"><title>Node1</title>
<polygon fill="#bfbfbf" stroke="black" points="57,-1 57,-31 243,-31 243,-1 57,-1"/>
<text text-anchor="start" x="65" y="-19" font-family="Helvetica,sans-Serif" font-size="10.00">gameAuthoring.scenes.actor</text>
<text text-anchor="middle" x="150" y="-8" font-family="Helvetica,sans-Serif" font-size="10.00">BuildingScenes.TowerBuildingScene</text>
</g>
<!-- Node2 -->
<g id="node2" class="node"><title>Node2</title>
<g id="a_node2"><a xlink:href="../../d5/de6/classgame_authoring_1_1scenes_1_1actor_building_scenes_1_1_actor_building_scene.html" target="_top" xlink:title="gameAuthoring.scenes.actor\lBuildingScenes.ActorBuildingScene">
<polygon fill="white" stroke="black" points="57.5,-69 57.5,-99 242.5,-99 242.5,-69 57.5,-69"/>
<text text-anchor="start" x="65.5" y="-87" font-family="Helvetica,sans-Serif" font-size="10.00">gameAuthoring.scenes.actor</text>
<text text-anchor="middle" x="150" y="-76" font-family="Helvetica,sans-Serif" font-size="10.00">BuildingScenes.ActorBuildingScene</text>
</a>
</g>
</g>
<!-- Node2&#45;&gt;Node1 -->
<g id="edge1" class="edge"><title>Node2&#45;&gt;Node1</title>
<path fill="none" stroke="midnightblue" d="M150,-58.5322C150,-49.3606 150,-39.2449 150,-31.2931"/>
<polygon fill="midnightblue" stroke="midnightblue" points="146.5,-58.6789 150,-68.679 153.5,-58.679 146.5,-58.6789"/>
</g>
<!-- Node3 -->
<g id="node3" class="node"><title>Node3</title>
<g id="a_node3"><a xlink:href="../../d3/d57/classgame_authoring_1_1scenes_1_1_building_scene.html" target="_top" xlink:title="gameAuthoring.scenes.Building\lScene">
<polygon fill="white" stroke="black" points="0,-137 0,-167 168,-167 168,-137 0,-137"/>
<text text-anchor="start" x="8" y="-155" font-family="Helvetica,sans-Serif" font-size="10.00">gameAuthoring.scenes.Building</text>
<text text-anchor="middle" x="84" y="-144" font-family="Helvetica,sans-Serif" font-size="10.00">Scene</text>
</a>
</g>
</g>
<!-- Node3&#45;&gt;Node2 -->
<g id="edge2" class="edge"><title>Node3&#45;&gt;Node2</title>
<path fill="none" stroke="midnightblue" d="M105.515,-129.485C115.415,-119.585 126.891,-108.109 135.707,-99.2931"/>
<polygon fill="midnightblue" stroke="midnightblue" points="102.917,-127.133 98.321,-136.679 107.867,-132.083 102.917,-127.133"/>
</g>
<!-- Node4 -->
<g id="node4" class="node"><title>Node4</title>
<polygon fill="white" stroke="#bfbfbf" points="186,-142.5 186,-161.5 246,-161.5 246,-142.5 186,-142.5"/>
<text text-anchor="middle" x="216" y="-149.5" font-family="Helvetica,sans-Serif" font-size="10.00">Observer</text>
</g>
<!-- Node4&#45;&gt;Node2 -->
<g id="edge3" class="edge"><title>Node4&#45;&gt;Node2</title>
<path fill="none" stroke="midnightblue" d="M200.119,-135.119C189.17,-124.17 174.744,-109.744 164.181,-99.1815"/>
<polygon fill="midnightblue" stroke="midnightblue" points="197.826,-137.775 207.372,-142.372 202.775,-132.826 197.826,-137.775"/>
</g>
</g>
</svg>
