<?xml version="1.0" encoding="UTF-8" standalone="no"?>
<!DOCTYPE svg PUBLIC "-//W3C//DTD SVG 1.1//EN"
 "http://www.w3.org/Graphics/SVG/1.1/DTD/svg11.dtd">
<!-- Generated by graphviz version 2.36.0 (20140111.2315)
 -->
<!-- Title: gameEngine.actors.behaviors.FarthestRangeAttack.FarthestRangeAttack Pages: 1 -->
<svg width="394pt" height="48pt"
 viewBox="0.00 0.00 394.00 48.00" xmlns="http://www.w3.org/2000/svg" xmlns:xlink="http://www.w3.org/1999/xlink">
<g id="graph0" class="graph" transform="scale(1 1) rotate(0) translate(4 44)">
<title>gameEngine.actors.behaviors.FarthestRangeAttack.FarthestRangeAttack</title>
<polygon fill="white" stroke="none" points="-4,4 -4,-44 390,-44 390,4 -4,4"/>
<!-- Node1 -->
<g id="node1" class="node"><title>Node1</title>
<polygon fill="#bfbfbf" stroke="black" points="0,0.5 0,-40.5 188,-40.5 188,0.5 0,0.5"/>
<text text-anchor="start" x="8" y="-28.5" font-family="Helvetica,sans-Serif" font-size="10.00">gameEngine.actors.behaviors.</text>
<text text-anchor="start" x="8" y="-17.5" font-family="Helvetica,sans-Serif" font-size="10.00">FarthestRangeAttack.FarthestRange</text>
<text text-anchor="middle" x="94" y="-6.5" font-family="Helvetica,sans-Serif" font-size="10.00">Attack</text>
</g>
<!-- Node2 -->
<g id="node2" class="node"><title>Node2</title>
<g id="a_node2"><a xlink:href="../../d6/db4/classgame_engine_1_1actors_1_1behaviors_1_1_farthest_range_attack.html#a8df477684b084950ee5914c1f839cd63" target="_top" xlink:title="gameEngine.actors.behaviors.\lFarthestRangeAttack.copy">
<polygon fill="white" stroke="black" points="224,-5 224,-35 386,-35 386,-5 224,-5"/>
<text text-anchor="start" x="232" y="-23" font-family="Helvetica,sans-Serif" font-size="10.00">gameEngine.actors.behaviors.</text>
<text text-anchor="middle" x="305" y="-12" font-family="Helvetica,sans-Serif" font-size="10.00">FarthestRangeAttack.copy</text>
</a>
</g>
</g>
<!-- Node1&#45;&gt;Node2 -->
<g id="edge1" class="edge"><title>Node1&#45;&gt;Node2</title>
<path fill="none" stroke="midnightblue" d="M198.236,-20C206.808,-20 215.392,-20 223.756,-20"/>
<polygon fill="midnightblue" stroke="midnightblue" points="198.192,-16.5001 188.192,-20 198.192,-23.5001 198.192,-16.5001"/>
</g>
</g>
</svg>
