<?xml version="1.0" encoding="UTF-8" standalone="no"?>
<!DOCTYPE svg PUBLIC "-//W3C//DTD SVG 1.1//EN"
 "http://www.w3.org/Graphics/SVG/1.1/DTD/svg11.dtd">
<!-- Generated by graphviz version 2.36.0 (20140111.2315)
 -->
<!-- Title: gameEngine.actors.behaviors.FarthestRangeAttack.copy Pages: 1 -->
<svg width="394pt" height="48pt"
 viewBox="0.00 0.00 394.00 48.00" xmlns="http://www.w3.org/2000/svg" xmlns:xlink="http://www.w3.org/1999/xlink">
<g id="graph0" class="graph" transform="scale(1 1) rotate(0) translate(4 44)">
<title>gameEngine.actors.behaviors.FarthestRangeAttack.copy</title>
<polygon fill="white" stroke="none" points="-4,4 -4,-44 390,-44 390,4 -4,4"/>
<!-- Node1 -->
<g id="node1" class="node"><title>Node1</title>
<polygon fill="#bfbfbf" stroke="black" points="0,-5 0,-35 162,-35 162,-5 0,-5"/>
<text text-anchor="start" x="8" y="-23" font-family="Helvetica,sans-Serif" font-size="10.00">gameEngine.actors.behaviors.</text>
<text text-anchor="middle" x="81" y="-12" font-family="Helvetica,sans-Serif" font-size="10.00">FarthestRangeAttack.copy</text>
</g>
<!-- Node2 -->
<g id="node2" class="node"><title>Node2</title>
<g id="a_node2"><a xlink:href="../../d6/db4/classgame_engine_1_1actors_1_1behaviors_1_1_farthest_range_attack.html#ac22a94c8365fb4001eef7d1163b70649" target="_top" xlink:title="gameEngine.actors.behaviors.\lFarthestRangeAttack.FarthestRange\lAttack">
<polygon fill="white" stroke="black" points="198,0.5 198,-40.5 386,-40.5 386,0.5 198,0.5"/>
<text text-anchor="start" x="206" y="-28.5" font-family="Helvetica,sans-Serif" font-size="10.00">gameEngine.actors.behaviors.</text>
<text text-anchor="start" x="206" y="-17.5" font-family="Helvetica,sans-Serif" font-size="10.00">FarthestRangeAttack.FarthestRange</text>
<text text-anchor="middle" x="292" y="-6.5" font-family="Helvetica,sans-Serif" font-size="10.00">Attack</text>
</a>
</g>
</g>
<!-- Node1&#45;&gt;Node2 -->
<g id="edge1" class="edge"><title>Node1&#45;&gt;Node2</title>
<path fill="none" stroke="midnightblue" d="M162.207,-20C170.564,-20 179.14,-20 187.705,-20"/>
<polygon fill="midnightblue" stroke="midnightblue" points="187.741,-23.5001 197.741,-20 187.741,-16.5001 187.741,-23.5001"/>
</g>
</g>
</svg>
