<?xml version="1.0" encoding="UTF-8" standalone="no"?>
<!DOCTYPE svg PUBLIC "-//W3C//DTD SVG 1.1//EN"
 "http://www.w3.org/Graphics/SVG/1.1/DTD/svg11.dtd">
<!-- Generated by graphviz version 2.36.0 (20140111.2315)
 -->
<!-- Title: gameAuthoring.scenes.actorBuildingScenes.EnemyBuildingScene.actorNamesAreUnique Pages: 1 -->
<svg width="488pt" height="48pt"
 viewBox="0.00 0.00 488.00 48.00" xmlns="http://www.w3.org/2000/svg" xmlns:xlink="http://www.w3.org/1999/xlink">
<g id="graph0" class="graph" transform="scale(1 1) rotate(0) translate(4 44)">
<title>gameAuthoring.scenes.actorBuildingScenes.EnemyBuildingScene.actorNamesAreUnique</title>
<polygon fill="white" stroke="none" points="-4,4 -4,-44 484,-44 484,4 -4,4"/>
<!-- Node1 -->
<g id="node1" class="node"><title>Node1</title>
<polygon fill="#bfbfbf" stroke="black" points="0.5,0.5 0.5,-40.5 221.5,-40.5 221.5,0.5 0.5,0.5"/>
<text text-anchor="start" x="8.5" y="-28.5" font-family="Helvetica,sans-Serif" font-size="10.00">gameAuthoring.scenes.actor</text>
<text text-anchor="start" x="8.5" y="-17.5" font-family="Helvetica,sans-Serif" font-size="10.00">BuildingScenes.EnemyBuildingScene.actor</text>
<text text-anchor="middle" x="111" y="-6.5" font-family="Helvetica,sans-Serif" font-size="10.00">NamesAreUnique</text>
</g>
<!-- Node2 -->
<g id="node2" class="node"><title>Node2</title>
<g id="a_node2"><a xlink:href="../../d4/dc5/classgame_authoring_1_1scenes_1_1actor_building_scenes_1_1_enemy_building_scene.html#a23374001280bc8dcc22a274a596c56f2" target="_top" xlink:title="gameAuthoring.scenes.actor\lBuildingScenes.EnemyBuildingScene.actor\lSpecificFieldsValid">
<polygon fill="white" stroke="black" points="258.5,0.5 258.5,-40.5 479.5,-40.5 479.5,0.5 258.5,0.5"/>
<text text-anchor="start" x="266.5" y="-28.5" font-family="Helvetica,sans-Serif" font-size="10.00">gameAuthoring.scenes.actor</text>
<text text-anchor="start" x="266.5" y="-17.5" font-family="Helvetica,sans-Serif" font-size="10.00">BuildingScenes.EnemyBuildingScene.actor</text>
<text text-anchor="middle" x="369" y="-6.5" font-family="Helvetica,sans-Serif" font-size="10.00">SpecificFieldsValid</text>
</a>
</g>
</g>
<!-- Node1&#45;&gt;Node2 -->
<g id="edge1" class="edge"><title>Node1&#45;&gt;Node2</title>
<path fill="none" stroke="midnightblue" d="M231.915,-20C240.661,-20 249.457,-20 258.14,-20"/>
<polygon fill="midnightblue" stroke="midnightblue" points="231.681,-16.5001 221.681,-20 231.681,-23.5001 231.681,-16.5001"/>
</g>
</g>
</svg>
