<?xml version="1.0" encoding="UTF-8" standalone="no"?>
<!DOCTYPE svg PUBLIC "-//W3C//DTD SVG 1.1//EN"
 "http://www.w3.org/Graphics/SVG/1.1/DTD/svg11.dtd">
<!-- Generated by graphviz version 2.36.0 (20140111.2315)
 -->
<!-- Title: gameEngine.actors.RealActor Pages: 1 -->
<svg width="359pt" height="196pt"
 viewBox="0.00 0.00 359.00 196.00" xmlns="http://www.w3.org/2000/svg" xmlns:xlink="http://www.w3.org/1999/xlink">
<g id="graph0" class="graph" transform="scale(1 1) rotate(0) translate(4 192)">
<title>gameEngine.actors.RealActor</title>
<polygon fill="white" stroke="none" points="-4,4 -4,-192 355,-192 355,4 -4,4"/>
<!-- Node1 -->
<g id="node1" class="node"><title>Node1</title>
<polygon fill="#bfbfbf" stroke="black" points="98,-56.5 98,-75.5 256,-75.5 256,-56.5 98,-56.5"/>
<text text-anchor="middle" x="177" y="-63.5" font-family="Helvetica,sans-Serif" font-size="10.00">gameEngine.actors.RealActor</text>
</g>
<!-- Node4 -->
<g id="node4" class="node"><title>Node4</title>
<g id="a_node4"><a xlink:href="../../d4/d81/classgame_engine_1_1actors_1_1_base_enemy.html" target="_top" xlink:title="gameEngine.actors.BaseEnemy">
<polygon fill="white" stroke="black" points="0,-0.5 0,-19.5 170,-19.5 170,-0.5 0,-0.5"/>
<text text-anchor="middle" x="85" y="-7.5" font-family="Helvetica,sans-Serif" font-size="10.00">gameEngine.actors.BaseEnemy</text>
</a>
</g>
</g>
<!-- Node1&#45;&gt;Node4 -->
<g id="edge3" class="edge"><title>Node1&#45;&gt;Node4</title>
<path fill="none" stroke="midnightblue" d="M153.45,-51.1774C136.521,-41.2407 114.217,-28.1492 99.7447,-19.6545"/>
<polygon fill="midnightblue" stroke="midnightblue" points="151.823,-54.2804 162.219,-56.324 155.366,-48.2435 151.823,-54.2804"/>
</g>
<!-- Node5 -->
<g id="node5" class="node"><title>Node5</title>
<g id="a_node5"><a xlink:href="../../df/db9/classgame_engine_1_1actors_1_1_base_tower.html" target="_top" xlink:title="gameEngine.actors.BaseTower">
<polygon fill="white" stroke="black" points="188.5,-0.5 188.5,-19.5 351.5,-19.5 351.5,-0.5 188.5,-0.5"/>
<text text-anchor="middle" x="270" y="-7.5" font-family="Helvetica,sans-Serif" font-size="10.00">gameEngine.actors.BaseTower</text>
</a>
</g>
</g>
<!-- Node1&#45;&gt;Node5 -->
<g id="edge4" class="edge"><title>Node1&#45;&gt;Node5</title>
<path fill="none" stroke="midnightblue" d="M200.806,-51.1774C217.919,-41.2407 240.465,-28.1492 255.095,-19.6545"/>
<polygon fill="midnightblue" stroke="midnightblue" points="198.832,-48.2758 191.942,-56.324 202.347,-54.3293 198.832,-48.2758"/>
</g>
<!-- Node2 -->
<g id="node2" class="node"><title>Node2</title>
<g id="a_node2"><a xlink:href="../../d5/d02/classgame_engine_1_1actors_1_1_base_actor.html" target="_top" xlink:title="gameEngine.actors.BaseActor">
<polygon fill="white" stroke="black" points="96,-112.5 96,-131.5 258,-131.5 258,-112.5 96,-112.5"/>
<text text-anchor="middle" x="177" y="-119.5" font-family="Helvetica,sans-Serif" font-size="10.00">gameEngine.actors.BaseActor</text>
</a>
</g>
</g>
<!-- Node2&#45;&gt;Node1 -->
<g id="edge1" class="edge"><title>Node2&#45;&gt;Node1</title>
<path fill="none" stroke="midnightblue" d="M177,-101.805C177,-92.9102 177,-82.7798 177,-75.7511"/>
<polygon fill="midnightblue" stroke="midnightblue" points="173.5,-102.083 177,-112.083 180.5,-102.083 173.5,-102.083"/>
</g>
<!-- Node3 -->
<g id="node3" class="node"><title>Node3</title>
<polygon fill="white" stroke="#bfbfbf" points="141.5,-168.5 141.5,-187.5 212.5,-187.5 212.5,-168.5 141.5,-168.5"/>
<text text-anchor="middle" x="177" y="-175.5" font-family="Helvetica,sans-Serif" font-size="10.00">Observable</text>
</g>
<!-- Node3&#45;&gt;Node2 -->
<g id="edge2" class="edge"><title>Node3&#45;&gt;Node2</title>
<path fill="none" stroke="midnightblue" d="M177,-157.805C177,-148.91 177,-138.78 177,-131.751"/>
<polygon fill="midnightblue" stroke="midnightblue" points="173.5,-158.083 177,-168.083 180.5,-158.083 173.5,-158.083"/>
</g>
</g>
</svg>
