<?xml version="1.0" encoding="UTF-8" standalone="no"?>
<!DOCTYPE svg PUBLIC "-//W3C//DTD SVG 1.1//EN"
 "http://www.w3.org/Graphics/SVG/1.1/DTD/svg11.dtd">
<!-- Generated by graphviz version 2.36.0 (20140111.2315)
 -->
<!-- Title: gamePlayer.mainClasses.welcomeScreen.WelcomeScreen Pages: 1 -->
<svg width="254pt" height="140pt"
 viewBox="0.00 0.00 254.00 140.00" xmlns="http://www.w3.org/2000/svg" xmlns:xlink="http://www.w3.org/1999/xlink">
<g id="graph0" class="graph" transform="scale(1 1) rotate(0) translate(4 136)">
<title>gamePlayer.mainClasses.welcomeScreen.WelcomeScreen</title>
<polygon fill="white" stroke="none" points="-4,4 -4,-136 250,-136 250,4 -4,4"/>
<!-- Node1 -->
<g id="node1" class="node"><title>Node1</title>
<polygon fill="#bfbfbf" stroke="black" points="22,-1 22,-31 204,-31 204,-1 22,-1"/>
<text text-anchor="start" x="30" y="-19" font-family="Helvetica,sans-Serif" font-size="10.00">gamePlayer.mainClasses.welcome</text>
<text text-anchor="middle" x="113" y="-8" font-family="Helvetica,sans-Serif" font-size="10.00">Screen.WelcomeScreen</text>
</g>
<!-- Node2 -->
<g id="node2" class="node"><title>Node2</title>
<polygon fill="white" stroke="#bfbfbf" points="0,-112.5 0,-131.5 74,-131.5 74,-112.5 0,-112.5"/>
<text text-anchor="middle" x="37" y="-119.5" font-family="Helvetica,sans-Serif" font-size="10.00">AnchorPane</text>
</g>
<!-- Node2&#45;&gt;Node1 -->
<g id="edge1" class="edge"><title>Node2&#45;&gt;Node1</title>
<path fill="none" stroke="midnightblue" d="M49.2586,-104.225C64.0725,-83.9535 88.7362,-50.2031 102.641,-31.1748"/>
<polygon fill="midnightblue" stroke="midnightblue" points="46.2937,-102.35 43.2194,-112.489 51.9455,-106.48 46.2937,-102.35"/>
</g>
<!-- Node3 -->
<g id="node3" class="node"><title>Node3</title>
<polygon fill="white" stroke="#bfbfbf" points="92.5,-112.5 92.5,-131.5 133.5,-131.5 133.5,-112.5 92.5,-112.5"/>
<text text-anchor="middle" x="113" y="-119.5" font-family="Helvetica,sans-Serif" font-size="10.00">VBox</text>
</g>
<!-- Node3&#45;&gt;Node1 -->
<g id="edge2" class="edge"><title>Node3&#45;&gt;Node1</title>
<path fill="none" stroke="#9a32cd" stroke-dasharray="5,2" d="M113,-102.268C113,-81.8397 113,-49.6031 113,-31.1748"/>
<polygon fill="#9a32cd" stroke="#9a32cd" points="109.5,-102.489 113,-112.489 116.5,-102.489 109.5,-102.489"/>
<text text-anchor="middle" x="126" y="-69.5" font-family="Helvetica,sans-Serif" font-size="10.00"> vbox</text>
</g>
<!-- Node4 -->
<g id="node4" class="node"><title>Node4</title>
<polygon fill="white" stroke="#bfbfbf" points="152,-112.5 152,-131.5 192,-131.5 192,-112.5 152,-112.5"/>
<text text-anchor="middle" x="172" y="-119.5" font-family="Helvetica,sans-Serif" font-size="10.00">Pane</text>
</g>
<!-- Node4&#45;&gt;Node1 -->
<g id="edge3" class="edge"><title>Node4&#45;&gt;Node1</title>
<path fill="none" stroke="#9a32cd" stroke-dasharray="5,2" d="M166.491,-102.67C161.571,-87.8107 153.519,-66.6739 143,-50 138.786,-43.3205 133.168,-36.7248 127.933,-31.2067"/>
<polygon fill="#9a32cd" stroke="#9a32cd" points="163.16,-103.747 169.51,-112.228 169.835,-101.638 163.16,-103.747"/>
<text text-anchor="middle" x="205" y="-86" font-family="Helvetica,sans-Serif" font-size="10.00"> centerPane</text>
<text text-anchor="middle" x="205" y="-75" font-family="Helvetica,sans-Serif" font-size="10.00">bottomPane</text>
<text text-anchor="middle" x="205" y="-64" font-family="Helvetica,sans-Serif" font-size="10.00">centerLargePane</text>
<text text-anchor="middle" x="205" y="-53" font-family="Helvetica,sans-Serif" font-size="10.00">topPane</text>
</g>
</g>
</svg>
