<?xml version="1.0" encoding="UTF-8" standalone="no"?>
<!DOCTYPE svg PUBLIC "-//W3C//DTD SVG 1.1//EN"
 "http://www.w3.org/Graphics/SVG/1.1/DTD/svg11.dtd">
<!-- Generated by graphviz version 2.36.0 (20140111.2315)
 -->
<!-- Title: gameAuthoring.mainclasses.controllerInterfaces.ILevelConfiguring.getBackgroundImagePath Pages: 1 -->
<svg width="662pt" height="48pt"
 viewBox="0.00 0.00 662.00 48.00" xmlns="http://www.w3.org/2000/svg" xmlns:xlink="http://www.w3.org/1999/xlink">
<g id="graph0" class="graph" transform="scale(1 1) rotate(0) translate(4 44)">
<title>gameAuthoring.mainclasses.controllerInterfaces.ILevelConfiguring.getBackgroundImagePath</title>
<polygon fill="white" stroke="none" points="-4,4 -4,-44 658,-44 658,4 -4,4"/>
<!-- Node1 -->
<g id="node1" class="node"><title>Node1</title>
<polygon fill="#bfbfbf" stroke="black" points="0,0.5 0,-40.5 224,-40.5 224,0.5 0,0.5"/>
<text text-anchor="start" x="8" y="-28.5" font-family="Helvetica,sans-Serif" font-size="10.00">gameAuthoring.mainclasses.controller</text>
<text text-anchor="start" x="8" y="-17.5" font-family="Helvetica,sans-Serif" font-size="10.00">Interfaces.ILevelConfiguring.getBackground</text>
<text text-anchor="middle" x="112" y="-6.5" font-family="Helvetica,sans-Serif" font-size="10.00">ImagePath</text>
</g>
<!-- Node2 -->
<g id="node2" class="node"><title>Node2</title>
<g id="a_node2"><a xlink:href="../../d4/d5e/classgame_authoring_1_1scenes_1_1level_building_1_1_level_building_scene.html#affaf4a44d8924869a3f5c38c2cacebf5" target="_top" xlink:title="gameAuthoring.scenes.level\lBuilding.LevelBuildingScene.setup\lLevelDisplay">
<polygon fill="white" stroke="black" points="260.5,0.5 260.5,-40.5 439.5,-40.5 439.5,0.5 260.5,0.5"/>
<text text-anchor="start" x="268.5" y="-28.5" font-family="Helvetica,sans-Serif" font-size="10.00">gameAuthoring.scenes.level</text>
<text text-anchor="start" x="268.5" y="-17.5" font-family="Helvetica,sans-Serif" font-size="10.00">Building.LevelBuildingScene.setup</text>
<text text-anchor="middle" x="350" y="-6.5" font-family="Helvetica,sans-Serif" font-size="10.00">LevelDisplay</text>
</a>
</g>
</g>
<!-- Node1&#45;&gt;Node2 -->
<g id="edge1" class="edge"><title>Node1&#45;&gt;Node2</title>
<path fill="none" stroke="midnightblue" d="M234.104,-20C242.975,-20 251.822,-20 260.446,-20"/>
<polygon fill="midnightblue" stroke="midnightblue" points="234.089,-16.5001 224.089,-20 234.089,-23.5001 234.089,-16.5001"/>
</g>
<!-- Node3 -->
<g id="node3" class="node"><title>Node3</title>
<g id="a_node3"><a xlink:href="../../d4/d5e/classgame_authoring_1_1scenes_1_1level_building_1_1_level_building_scene.html#a8b556e86b4aef6b87a1be44f901cec69" target="_top" xlink:title="gameAuthoring.scenes.level\lBuilding.LevelBuildingScene.Level\lBuildingScene">
<polygon fill="white" stroke="black" points="476.5,0.5 476.5,-40.5 653.5,-40.5 653.5,0.5 476.5,0.5"/>
<text text-anchor="start" x="484.5" y="-28.5" font-family="Helvetica,sans-Serif" font-size="10.00">gameAuthoring.scenes.level</text>
<text text-anchor="start" x="484.5" y="-17.5" font-family="Helvetica,sans-Serif" font-size="10.00">Building.LevelBuildingScene.Level</text>
<text text-anchor="middle" x="565" y="-6.5" font-family="Helvetica,sans-Serif" font-size="10.00">BuildingScene</text>
</a>
</g>
</g>
<!-- Node2&#45;&gt;Node3 -->
<g id="edge2" class="edge"><title>Node2&#45;&gt;Node3</title>
<path fill="none" stroke="midnightblue" d="M450.058,-20C458.845,-20 467.7,-20 476.381,-20"/>
<polygon fill="midnightblue" stroke="midnightblue" points="449.789,-16.5001 439.789,-20 449.789,-23.5001 449.789,-16.5001"/>
</g>
</g>
</svg>
