<?xml version="1.0" encoding="UTF-8" standalone="no"?>
<!DOCTYPE svg PUBLIC "-//W3C//DTD SVG 1.1//EN"
 "http://www.w3.org/Graphics/SVG/1.1/DTD/svg11.dtd">
<!-- Generated by graphviz version 2.36.0 (20140111.2315)
 -->
<!-- Title: gameAuthoring.mainclasses.controllerInterfaces.ILevelConfiguring.configureLevels Pages: 1 -->
<svg width="456pt" height="38pt"
 viewBox="0.00 0.00 456.00 38.00" xmlns="http://www.w3.org/2000/svg" xmlns:xlink="http://www.w3.org/1999/xlink">
<g id="graph0" class="graph" transform="scale(1 1) rotate(0) translate(4 34)">
<title>gameAuthoring.mainclasses.controllerInterfaces.ILevelConfiguring.configureLevels</title>
<polygon fill="white" stroke="none" points="-4,4 -4,-34 452,-34 452,4 -4,4"/>
<!-- Node1 -->
<g id="node1" class="node"><title>Node1</title>
<polygon fill="#bfbfbf" stroke="black" points="0.5,-0 0.5,-30 225.5,-30 225.5,-0 0.5,-0"/>
<text text-anchor="start" x="8.5" y="-18" font-family="Helvetica,sans-Serif" font-size="10.00">gameAuthoring.mainclasses.controller</text>
<text text-anchor="middle" x="113" y="-7" font-family="Helvetica,sans-Serif" font-size="10.00">Interfaces.ILevelConfiguring.configureLevels</text>
</g>
<!-- Node2 -->
<g id="node2" class="node"><title>Node2</title>
<g id="a_node2"><a xlink:href="../../d4/d5e/classgame_authoring_1_1scenes_1_1level_building_1_1_level_building_scene.html#a93a24a2e609dbca6dadb3eeac78101f6" target="_top" xlink:title="gameAuthoring.scenes.level\lBuilding.LevelBuildingScene.update">
<polygon fill="white" stroke="black" points="262,-0 262,-30 448,-30 448,-0 262,-0"/>
<text text-anchor="start" x="270" y="-18" font-family="Helvetica,sans-Serif" font-size="10.00">gameAuthoring.scenes.level</text>
<text text-anchor="middle" x="355" y="-7" font-family="Helvetica,sans-Serif" font-size="10.00">Building.LevelBuildingScene.update</text>
</a>
</g>
</g>
<!-- Node1&#45;&gt;Node2 -->
<g id="edge1" class="edge"><title>Node1&#45;&gt;Node2</title>
<path fill="none" stroke="midnightblue" d="M235.81,-15C244.539,-15 253.255,-15 261.773,-15"/>
<polygon fill="midnightblue" stroke="midnightblue" points="235.569,-11.5001 225.569,-15 235.569,-18.5001 235.569,-11.5001"/>
</g>
</g>
</svg>
