<?xml version="1.0" encoding="UTF-8" standalone="no"?>
<!DOCTYPE svg PUBLIC "-//W3C//DTD SVG 1.1//EN"
 "http://www.w3.org/Graphics/SVG/1.1/DTD/svg11.dtd">
<!-- Generated by graphviz version 2.36.0 (20140111.2315)
 -->
<!-- Title: gamePlayer.guiItems.controlDockButtons.sliders.SpeedSlider Pages: 1 -->
<!--zoomable 252 -->
<svg id="main" version="1.1" xmlns="http://www.w3.org/2000/svg" xmlns:xlink="http://www.w3.org/1999/xlink" xml:space="preserve" onload="init(evt)">
<style type="text/css"><![CDATA[
.edge:hover path { stroke: red; }
.edge:hover polygon { stroke: red; fill: red; }
]]></style>
<script type="text/javascript"><![CDATA[
var edges = document.getElementsByTagName('g');
if (edges && edges.length) {
  for (var i=0;i<edges.length;i++) {
    if (edges[i].id.substr(0,4)=='edge') {
      edges[i].setAttribute('class','edge');
    }
  }
}
]]></script>
        <defs>
                <circle id="rim" cx="0" cy="0" r="7"/>
                <circle id="rim2" cx="0" cy="0" r="3.5"/>
                <g id="zoomPlus">
                        <use xlink:href="#rim" fill="#404040">
                                <set attributeName="fill" to="#808080" begin="zoomplus.mouseover" end="zoomplus.mouseout"/>
                        </use>
                        <path d="M-4,0h8M0,-4v8" fill="none" stroke="white" stroke-width="1.5" pointer-events="none"/>
                </g>
                <g id="zoomMin">
                        <use xlink:href="#rim" fill="#404040">
                                <set attributeName="fill" to="#808080" begin="zoomminus.mouseover" end="zoomminus.mouseout"/>
                        </use>
                        <path d="M-4,0h8" fill="none" stroke="white" stroke-width="1.5" pointer-events="none"/>
                </g>
                <g id="dirArrow">
                        <path fill="none" stroke="white" stroke-width="1.5" d="M0,-3.0v7 M-2.5,-0.5L0,-3.0L2.5,-0.5"/>
                </g>
               <g id="resetDef">
                       <use xlink:href="#rim2" fill="#404040">
                               <set attributeName="fill" to="#808080" begin="reset.mouseover" end="reset.mouseout"/>
                       </use>
               </g>
        </defs>

<script type="text/javascript">
var viewWidth = 972;
var viewHeight = 252;
var sectionId = 'dynsection-1';
</script>
<script xlink:href="../../svgpan.js"/>
<svg id="graph" class="graph">
<g id="viewport">
<title>gamePlayer.guiItems.controlDockButtons.sliders.SpeedSlider</title>
<polygon fill="white" stroke="none" points="-4,4 -4,-248 968,-248 968,4 -4,4"/>
<!-- Node1 -->
<g id="node1" class="node"><title>Node1</title>
<polygon fill="#bfbfbf" stroke="black" points="790.5,-64 790.5,-94 963.5,-94 963.5,-64 790.5,-64"/>
<text text-anchor="start" x="798.5" y="-82" font-family="Helvetica,sans-Serif" font-size="10.00">gamePlayer.guiItems.control</text>
<text text-anchor="middle" x="877" y="-71" font-family="Helvetica,sans-Serif" font-size="10.00">DockButtons.sliders.SpeedSlider</text>
</g>
<!-- Node2 -->
<g id="node2" class="node"><title>Node2</title>
<g id="a_node2"><a xlink:href="../../d2/d0d/classgame_player_1_1gui_items_1_1control_dock_buttons_1_1_control_dock_slider.html" target="_top" xlink:title="gamePlayer.guiItems.control\lDockButtons.ControlDockSlider">
<polygon fill="white" stroke="black" points="528.5,-95 528.5,-125 695.5,-125 695.5,-95 528.5,-95"/>
<text text-anchor="start" x="536.5" y="-113" font-family="Helvetica,sans-Serif" font-size="10.00">gamePlayer.guiItems.control</text>
<text text-anchor="middle" x="612" y="-102" font-family="Helvetica,sans-Serif" font-size="10.00">DockButtons.ControlDockSlider</text>
</a>
</g>
</g>
<!-- Node2&#45;&gt;Node1 -->
<g id="edge1" class="edge"><title>Node2&#45;&gt;Node1</title>
<path fill="none" stroke="midnightblue" d="M705.867,-99.0537C733.377,-95.8111 763.362,-92.2767 790.39,-89.0909"/>
<polygon fill="midnightblue" stroke="midnightblue" points="705.375,-95.5873 695.854,-100.234 706.195,-102.539 705.375,-95.5873"/>
</g>
<!-- Node3 -->
<g id="node3" class="node"><title>Node3</title>
<g id="a_node3"><a xlink:href="../../de/d25/interfacegame_player_1_1gui_items_1_1_gui_item.html" target="_top" xlink:title="gamePlayer.guiItems.GuiItem">
<polygon fill="white" stroke="black" points="283,-193.5 283,-212.5 441,-212.5 441,-193.5 283,-193.5"/>
<text text-anchor="middle" x="362" y="-200.5" font-family="Helvetica,sans-Serif" font-size="10.00">gamePlayer.guiItems.GuiItem</text>
</a>
</g>
</g>
<!-- Node3&#45;&gt;Node2 -->
<g id="edge2" class="edge"><title>Node3&#45;&gt;Node2</title>
<path fill="none" stroke="midnightblue" d="M398.061,-189.852C443.61,-172.771 522.954,-143.017 570.864,-125.051"/>
<polygon fill="midnightblue" stroke="midnightblue" points="396.741,-186.609 388.606,-193.398 399.199,-193.164 396.741,-186.609"/>
</g>
<!-- Node4 -->
<g id="node4" class="node"><title>Node4</title>
<g id="a_node4"><a xlink:href="../../d7/d02/interfacegame_player_1_1main_classes_1_1gui_builder_1_1_gui_element.html" target="_top" xlink:title="gamePlayer.mainClasses.gui\lBuilder.GuiElement">
<polygon fill="white" stroke="black" points="11,-213 11,-243 165,-243 165,-213 11,-213"/>
<text text-anchor="start" x="19" y="-231" font-family="Helvetica,sans-Serif" font-size="10.00">gamePlayer.mainClasses.gui</text>
<text text-anchor="middle" x="88" y="-220" font-family="Helvetica,sans-Serif" font-size="10.00">Builder.GuiElement</text>
</a>
</g>
</g>
<!-- Node4&#45;&gt;Node3 -->
<g id="edge3" class="edge"><title>Node4&#45;&gt;Node3</title>
<path fill="none" stroke="midnightblue" d="M175.207,-220.077C209.767,-216.9 249.304,-213.266 282.997,-210.169"/>
<polygon fill="midnightblue" stroke="midnightblue" points="174.767,-216.602 165.129,-221.003 175.407,-223.573 174.767,-216.602"/>
</g>
<!-- Node5 -->
<g id="node5" class="node"><title>Node5</title>
<g id="a_node5"><a xlink:href="../../d7/d46/classutilities_1_1_java_f_xutilities_1_1slider_1_1_slider_container.html" target="_top" xlink:title="utilities.JavaFXutilities.slider.\lSliderContainer">
<polygon fill="white" stroke="black" points="287.5,-95 287.5,-125 436.5,-125 436.5,-95 287.5,-95"/>
<text text-anchor="start" x="295.5" y="-113" font-family="Helvetica,sans-Serif" font-size="10.00">utilities.JavaFXutilities.slider.</text>
<text text-anchor="middle" x="362" y="-102" font-family="Helvetica,sans-Serif" font-size="10.00">SliderContainer</text>
</a>
</g>
</g>
<!-- Node5&#45;&gt;Node2 -->
<g id="edge4" class="edge"><title>Node5&#45;&gt;Node2</title>
<path fill="none" stroke="#9a32cd" stroke-dasharray="5,2" d="M447.044,-110C473.313,-110 502.261,-110 528.428,-110"/>
<polygon fill="#9a32cd" stroke="#9a32cd" points="446.737,-106.5 436.737,-110 446.737,-113.5 446.737,-106.5"/>
<text text-anchor="middle" x="485" y="-113" font-family="Helvetica,sans-Serif" font-size="10.00"> mySlider</text>
</g>
<!-- Node6 -->
<g id="node6" class="node"><title>Node6</title>
<polygon fill="white" stroke="#bfbfbf" points="67.5,-174.5 67.5,-193.5 108.5,-193.5 108.5,-174.5 67.5,-174.5"/>
<text text-anchor="middle" x="88" y="-181.5" font-family="Helvetica,sans-Serif" font-size="10.00">VBox</text>
</g>
<!-- Node6&#45;&gt;Node5 -->
<g id="edge5" class="edge"><title>Node6&#45;&gt;Node5</title>
<path fill="none" stroke="midnightblue" d="M118.586,-177.509C135.451,-173.732 156.955,-168.784 176,-164 215.318,-154.123 225.074,-151.324 264,-140 280.079,-135.322 297.583,-129.985 313.239,-125.122"/>
<polygon fill="midnightblue" stroke="midnightblue" points="117.75,-174.109 108.749,-179.698 119.271,-180.942 117.75,-174.109"/>
</g>
<!-- Node7 -->
<g id="node7" class="node"><title>Node7</title>
<g id="a_node7"><a xlink:href="../../db/d3a/classgame_authoring_1_1scenes_1_1actor_building_scenes_1_1behavior_builders_1_1_slider_info.html" target="_top" xlink:title="gameAuthoring.scenes.actor\lBuildingScenes.behaviorBuilders.\lSliderInfo">
<polygon fill="white" stroke="black" points="0.5,-114.5 0.5,-155.5 175.5,-155.5 175.5,-114.5 0.5,-114.5"/>
<text text-anchor="start" x="8.5" y="-143.5" font-family="Helvetica,sans-Serif" font-size="10.00">gameAuthoring.scenes.actor</text>
<text text-anchor="start" x="8.5" y="-132.5" font-family="Helvetica,sans-Serif" font-size="10.00">BuildingScenes.behaviorBuilders.</text>
<text text-anchor="middle" x="88" y="-121.5" font-family="Helvetica,sans-Serif" font-size="10.00">SliderInfo</text>
</a>
</g>
</g>
<!-- Node7&#45;&gt;Node5 -->
<g id="edge6" class="edge"><title>Node7&#45;&gt;Node5</title>
<path fill="none" stroke="#9a32cd" stroke-dasharray="5,2" d="M186.041,-126.081C219.391,-123.016 256.154,-119.637 287.338,-116.77"/>
<polygon fill="#9a32cd" stroke="#9a32cd" points="185.448,-122.62 175.81,-127.021 186.089,-129.591 185.448,-122.62"/>
<text text-anchor="middle" x="229" y="-128" font-family="Helvetica,sans-Serif" font-size="10.00"> mySliderInfo</text>
</g>
<!-- Node8 -->
<g id="node8" class="node"><title>Node8</title>
<polygon fill="white" stroke="#bfbfbf" points="67,-76.5 67,-95.5 109,-95.5 109,-76.5 67,-76.5"/>
<text text-anchor="middle" x="88" y="-83.5" font-family="Helvetica,sans-Serif" font-size="10.00">Label</text>
</g>
<!-- Node8&#45;&gt;Node5 -->
<g id="edge7" class="edge"><title>Node8&#45;&gt;Node5</title>
<path fill="none" stroke="#9a32cd" stroke-dasharray="5,2" d="M118.971,-88.6445C159.204,-92.1945 232.009,-98.6185 287.295,-103.497"/>
<polygon fill="#9a32cd" stroke="#9a32cd" points="119.27,-85.1574 109.001,-87.7648 118.654,-92.1303 119.27,-85.1574"/>
<text text-anchor="middle" x="229" y="-104" font-family="Helvetica,sans-Serif" font-size="10.00"> myValueLabel</text>
</g>
<!-- Node9 -->
<g id="node9" class="node"><title>Node9</title>
<polygon fill="white" stroke="#bfbfbf" points="66,-38.5 66,-57.5 110,-57.5 110,-38.5 66,-38.5"/>
<text text-anchor="middle" x="88" y="-45.5" font-family="Helvetica,sans-Serif" font-size="10.00">Slider</text>
</g>
<!-- Node9&#45;&gt;Node5 -->
<g id="edge8" class="edge"><title>Node9&#45;&gt;Node5</title>
<path fill="none" stroke="#9a32cd" stroke-dasharray="5,2" d="M120.288,-52.8896C155.463,-58.6204 214.176,-68.8893 264,-81 280.567,-85.027 298.506,-90.1658 314.398,-94.9957"/>
<polygon fill="#9a32cd" stroke="#9a32cd" points="120.592,-49.3937 110.163,-51.2598 119.48,-56.3047 120.592,-49.3937"/>
<text text-anchor="middle" x="229" y="-84" font-family="Helvetica,sans-Serif" font-size="10.00"> mySlider</text>
</g>
<!-- Node10 -->
<g id="node10" class="node"><title>Node10</title>
<g id="a_node10"><a xlink:href="../../df/db4/classutilities_1_1_x_m_l_parsing_1_1_x_m_l_parser.html" target="_top" xlink:title="utilities.XMLParsing.XMLParser">
<polygon fill="white" stroke="black" points="282,-40.5 282,-59.5 442,-59.5 442,-40.5 282,-40.5"/>
<text text-anchor="middle" x="362" y="-47.5" font-family="Helvetica,sans-Serif" font-size="10.00">utilities.XMLParsing.XMLParser</text>
</a>
</g>
</g>
<!-- Node10&#45;&gt;Node2 -->
<g id="edge9" class="edge"><title>Node10&#45;&gt;Node2</title>
<path fill="none" stroke="#9a32cd" stroke-dasharray="5,2" d="M412.146,-61.8902C451.323,-71.3684 506.429,-84.7006 548.699,-94.9272"/>
<polygon fill="#9a32cd" stroke="#9a32cd" points="412.839,-58.4569 402.296,-59.5072 411.193,-65.2606 412.839,-58.4569"/>
<text text-anchor="middle" x="485" y="-89" font-family="Helvetica,sans-Serif" font-size="10.00"> myParser</text>
</g>
<!-- Node11 -->
<g id="node11" class="node"><title>Node11</title>
<polygon fill="white" stroke="#bfbfbf" points="54.5,-0.5 54.5,-19.5 121.5,-19.5 121.5,-0.5 54.5,-0.5"/>
<text text-anchor="middle" x="88" y="-7.5" font-family="Helvetica,sans-Serif" font-size="10.00">Document</text>
</g>
<!-- Node11&#45;&gt;Node10 -->
<g id="edge10" class="edge"><title>Node11&#45;&gt;Node10</title>
<path fill="none" stroke="#9a32cd" stroke-dasharray="5,2" d="M131.65,-7.47429C167.337,-6.25115 219.426,-6.54656 264,-15 291.264,-20.1706 321.072,-31.9106 340.349,-40.3695"/>
<polygon fill="#9a32cd" stroke="#9a32cd" points="131.437,-3.97989 121.584,-7.87451 131.716,-10.9744 131.437,-3.97989"/>
<text text-anchor="middle" x="229" y="-18" font-family="Helvetica,sans-Serif" font-size="10.00"> myDocument</text>
</g>
<!-- Node12 -->
<g id="node12" class="node"><title>Node12</title>
<g id="a_node12"><a xlink:href="../../d4/d68/interfacegame_player_1_1gui_items_listeners_1_1_speed_slider_listener.html" target="_top" xlink:title="gamePlayer.guiItemsListeners.\lSpeedSliderListener">
<polygon fill="white" stroke="black" points="530,-46 530,-76 694,-76 694,-46 530,-46"/>
<text text-anchor="start" x="538" y="-64" font-family="Helvetica,sans-Serif" font-size="10.00">gamePlayer.guiItemsListeners.</text>
<text text-anchor="middle" x="612" y="-53" font-family="Helvetica,sans-Serif" font-size="10.00">SpeedSliderListener</text>
</a>
</g>
</g>
<!-- Node12&#45;&gt;Node1 -->
<g id="edge11" class="edge"><title>Node12&#45;&gt;Node1</title>
<path fill="none" stroke="#9a32cd" stroke-dasharray="5,2" d="M704.201,-67.2419C732.098,-69.1512 762.674,-71.2439 790.2,-73.1277"/>
<polygon fill="#9a32cd" stroke="#9a32cd" points="704.27,-63.7385 694.055,-66.5475 703.792,-70.7222 704.27,-63.7385"/>
<text text-anchor="middle" x="743" y="-75" font-family="Helvetica,sans-Serif" font-size="10.00"> myListener</text>
</g>
</g>
</svg>
        <g id="navigator" transform="translate(0 0)" fill="#404254">
                <rect fill="#f2f5e9" fill-opacity="0.5" stroke="#606060" stroke-width=".5" x="0" y="0" width="60" height="60"/>
                <use id="zoomplus" xlink:href="#zoomPlus" x="17" y="9" onmousedown="handleZoom(evt,'in')"/>
                <use id="zoomminus" xlink:href="#zoomMin" x="42" y="9" onmousedown="handleZoom(evt,'out')"/>
                <use id="reset" xlink:href="#resetDef" x="30" y="36" onmousedown="handleReset()"/>
                <g id="arrowUp" xlink:href="#dirArrow" transform="translate(30 24)" onmousedown="handlePan(0,-1)">
                  <use xlink:href="#rim" fill="#404040">
                        <set attributeName="fill" to="#808080" begin="arrowUp.mouseover" end="arrowUp.mouseout"/>
                  </use>
                  <path fill="none" stroke="white" stroke-width="1.5" d="M0,-3.0v7 M-2.5,-0.5L0,-3.0L2.5,-0.5"/>
                </g>
                <g id="arrowRight" xlink:href="#dirArrow" transform="rotate(90) translate(36 -43)" onmousedown="handlePan(1,0)">
                  <use xlink:href="#rim" fill="#404040">
                        <set attributeName="fill" to="#808080" begin="arrowRight.mouseover" end="arrowRight.mouseout"/>
                  </use>
                  <path fill="none" stroke="white" stroke-width="1.5" d="M0,-3.0v7 M-2.5,-0.5L0,-3.0L2.5,-0.5"/>
                </g>
                <g id="arrowDown" xlink:href="#dirArrow" transform="rotate(180) translate(-30 -48)" onmousedown="handlePan(0,1)">
                  <use xlink:href="#rim" fill="#404040">
                        <set attributeName="fill" to="#808080" begin="arrowDown.mouseover" end="arrowDown.mouseout"/>
                  </use>
                  <path fill="none" stroke="white" stroke-width="1.5" d="M0,-3.0v7 M-2.5,-0.5L0,-3.0L2.5,-0.5"/>
                </g>
                <g id="arrowLeft" xlink:href="#dirArrow" transform="rotate(270) translate(-36 17)" onmousedown="handlePan(-1,0)">
                  <use xlink:href="#rim" fill="#404040">
                        <set attributeName="fill" to="#808080" begin="arrowLeft.mouseover" end="arrowLeft.mouseout"/>
                  </use>
                  <path fill="none" stroke="white" stroke-width="1.5" d="M0,-3.0v7 M-2.5,-0.5L0,-3.0L2.5,-0.5"/>
                </g>
        </g>
        <svg viewBox="0 0 15 15" width="100%" height="30px" preserveAspectRatio="xMaxYMin meet">
         <g id="arrow_out" transform="scale(0.3 0.3)">
          <a xlink:href="classgame_player_1_1gui_items_1_1control_dock_buttons_1_1sliders_1_1_speed_slider__coll__graph_org.svg" target="_base">
           <rect id="button" ry="5" rx="5" y="6" x="6" height="38" width="38"
                fill="#f2f5e9" fill-opacity="0.5" stroke="#606060" stroke-width="1.0"/>
           <path id="arrow"
             d="M 11.500037,31.436501 C 11.940474,20.09759 22.043105,11.32322 32.158766,21.979434 L 37.068811,17.246167 C 37.068811,17.246167 37.088388,32 37.088388,32 L 22.160133,31.978069 C 22.160133,31.978069 26.997745,27.140456 26.997745,27.140456 C 18.528582,18.264221 13.291696,25.230495 11.500037,31.436501 z"
             style="fill:#404040;"/>
          </a>
         </g>
        </svg>
</svg>
