<?xml version="1.0" encoding="UTF-8" standalone="no"?>
<!DOCTYPE svg PUBLIC "-//W3C//DTD SVG 1.1//EN"
 "http://www.w3.org/Graphics/SVG/1.1/DTD/svg11.dtd">
<!-- Generated by graphviz version 2.36.0 (20140111.2315)
 -->
<!-- Title: gameEngine.actors.BaseProjectile.BaseProjectile Pages: 1 -->
<svg width="682pt" height="150pt"
 viewBox="0.00 0.00 682.00 150.00" xmlns="http://www.w3.org/2000/svg" xmlns:xlink="http://www.w3.org/1999/xlink">
<g id="graph0" class="graph" transform="scale(1 1) rotate(0) translate(4 146)">
<title>gameEngine.actors.BaseProjectile.BaseProjectile</title>
<polygon fill="white" stroke="none" points="-4,4 -4,-146 678,-146 678,4 -4,4"/>
<!-- Node1 -->
<g id="node1" class="node"><title>Node1</title>
<polygon fill="#bfbfbf" stroke="black" points="0.5,-63 0.5,-93 183.5,-93 183.5,-63 0.5,-63"/>
<text text-anchor="start" x="8.5" y="-81" font-family="Helvetica,sans-Serif" font-size="10.00">gameEngine.actors.BaseProjectile.</text>
<text text-anchor="middle" x="92" y="-70" font-family="Helvetica,sans-Serif" font-size="10.00">BaseProjectile</text>
</g>
<!-- Node2 -->
<g id="node2" class="node"><title>Node2</title>
<g id="a_node2"><a xlink:href="../../d8/d65/classgame_engine_1_1actors_1_1_projectile_info.html#ae5c78b2c16d86e8107a24aa8e2808bc1" target="_top" xlink:title="gameEngine.actors.Projectile\lInfo.getImage">
<polygon fill="white" stroke="black" points="251,-112 251,-142 407,-142 407,-112 251,-112"/>
<text text-anchor="start" x="259" y="-130" font-family="Helvetica,sans-Serif" font-size="10.00">gameEngine.actors.Projectile</text>
<text text-anchor="middle" x="329" y="-119" font-family="Helvetica,sans-Serif" font-size="10.00">Info.getImage</text>
</a>
</g>
</g>
<!-- Node1&#45;&gt;Node2 -->
<g id="edge1" class="edge"><title>Node1&#45;&gt;Node2</title>
<path fill="none" stroke="midnightblue" d="M165.105,-93.0346C190.707,-98.373 219.707,-104.42 246.07,-109.917"/>
<polygon fill="midnightblue" stroke="midnightblue" points="245.528,-113.379 256.032,-111.994 246.957,-106.526 245.528,-113.379"/>
</g>
<!-- Node3 -->
<g id="node3" class="node"><title>Node3</title>
<g id="a_node3"><a xlink:href="../../d8/d65/classgame_engine_1_1actors_1_1_projectile_info.html#a554e5dd70eb8f5ac9d79ed1289fa702d" target="_top" xlink:title="gameEngine.actors.Projectile\lInfo.getMove">
<polygon fill="white" stroke="black" points="251,-63 251,-93 407,-93 407,-63 251,-63"/>
<text text-anchor="start" x="259" y="-81" font-family="Helvetica,sans-Serif" font-size="10.00">gameEngine.actors.Projectile</text>
<text text-anchor="middle" x="329" y="-70" font-family="Helvetica,sans-Serif" font-size="10.00">Info.getMove</text>
</a>
</g>
</g>
<!-- Node1&#45;&gt;Node3 -->
<g id="edge2" class="edge"><title>Node1&#45;&gt;Node3</title>
<path fill="none" stroke="midnightblue" d="M183.521,-78C202.285,-78 222.02,-78 240.667,-78"/>
<polygon fill="midnightblue" stroke="midnightblue" points="240.902,-81.5001 250.902,-78 240.902,-74.5001 240.902,-81.5001"/>
</g>
<!-- Node4 -->
<g id="node4" class="node"><title>Node4</title>
<g id="a_node4"><a xlink:href="../../d5/d02/classgame_engine_1_1actors_1_1_base_actor.html#a8958b963f8a8252355d329f947f809df" target="_top" xlink:title="gameEngine.actors.BaseActor.makeNode">
<polygon fill="white" stroke="black" points="220.5,-24.5 220.5,-43.5 437.5,-43.5 437.5,-24.5 220.5,-24.5"/>
<text text-anchor="middle" x="329" y="-31.5" font-family="Helvetica,sans-Serif" font-size="10.00">gameEngine.actors.BaseActor.makeNode</text>
</a>
</g>
</g>
<!-- Node1&#45;&gt;Node4 -->
<g id="edge3" class="edge"><title>Node1&#45;&gt;Node4</title>
<path fill="none" stroke="midnightblue" d="M172.255,-62.9763C188.069,-59.9916 204.561,-56.8884 220,-54 234.925,-51.2079 251.013,-48.2178 266.098,-45.4231"/>
<polygon fill="midnightblue" stroke="midnightblue" points="267.159,-48.7863 276.354,-43.5242 265.884,-41.9032 267.159,-48.7863"/>
</g>
<!-- Node5 -->
<g id="node5" class="node"><title>Node5</title>
<g id="a_node5"><a xlink:href="../../dc/d37/classutilities_1_1_java_f_xutilities_1_1image_view_1_1_string_to_image_view_converter.html#a5beb76f3bbfa4aae7d9b897a285b007b" target="_top" xlink:title="utilities.JavaFXutilities.image\lView.StringToImageViewConverter.get\lImageView">
<polygon fill="white" stroke="black" points="476,-38.5 476,-79.5 672,-79.5 672,-38.5 476,-38.5"/>
<text text-anchor="start" x="484" y="-67.5" font-family="Helvetica,sans-Serif" font-size="10.00">utilities.JavaFXutilities.image</text>
<text text-anchor="start" x="484" y="-56.5" font-family="Helvetica,sans-Serif" font-size="10.00">View.StringToImageViewConverter.get</text>
<text text-anchor="middle" x="574" y="-45.5" font-family="Helvetica,sans-Serif" font-size="10.00">ImageView</text>
</a>
</g>
</g>
<!-- Node4&#45;&gt;Node5 -->
<g id="edge4" class="edge"><title>Node4&#45;&gt;Node5</title>
<path fill="none" stroke="midnightblue" d="M422.561,-43.5227C436.728,-44.9802 451.452,-46.4951 465.901,-47.9816"/>
<polygon fill="midnightblue" stroke="midnightblue" points="465.544,-51.4632 475.85,-49.0051 466.26,-44.5 465.544,-51.4632"/>
</g>
<!-- Node6 -->
<g id="node6" class="node"><title>Node6</title>
<g id="a_node6"><a xlink:href="../../d5/d02/classgame_engine_1_1actors_1_1_base_actor.html#aa62f6dc2982420c08f2d1d30a9f3838a" target="_top" xlink:title="gameEngine.actors.BaseActor.getSize">
<polygon fill="white" stroke="black" points="474,-0.5 474,-19.5 674,-19.5 674,-0.5 474,-0.5"/>
<text text-anchor="middle" x="574" y="-7.5" font-family="Helvetica,sans-Serif" font-size="10.00">gameEngine.actors.BaseActor.getSize</text>
</a>
</g>
</g>
<!-- Node4&#45;&gt;Node6 -->
<g id="edge5" class="edge"><title>Node4&#45;&gt;Node6</title>
<path fill="none" stroke="midnightblue" d="M426.389,-24.4801C439.588,-23.1765 453.201,-21.832 466.566,-20.512"/>
<polygon fill="midnightblue" stroke="midnightblue" points="467.12,-23.9744 476.728,-19.5084 466.432,-17.0083 467.12,-23.9744"/>
</g>
</g>
</svg>
