<?xml version="1.0" encoding="UTF-8" standalone="no"?>
<!DOCTYPE svg PUBLIC "-//W3C//DTD SVG 1.1//EN"
 "http://www.w3.org/Graphics/SVG/1.1/DTD/svg11.dtd">
<!-- Generated by graphviz version 2.36.0 (20140111.2315)
 -->
<!-- Title: gamePlayer.guiItems.gameWorld.GameItem Pages: 1 -->
<svg width="353pt" height="130pt"
 viewBox="0.00 0.00 353.00 130.00" xmlns="http://www.w3.org/2000/svg" xmlns:xlink="http://www.w3.org/1999/xlink">
<g id="graph0" class="graph" transform="scale(1 1) rotate(0) translate(4 126)">
<title>gamePlayer.guiItems.gameWorld.GameItem</title>
<polygon fill="white" stroke="none" points="-4,4 -4,-126 349,-126 349,4 -4,4"/>
<!-- Node1 -->
<g id="node1" class="node"><title>Node1</title>
<polygon fill="#bfbfbf" stroke="black" points="115,-1 115,-31 263,-31 263,-1 115,-1"/>
<text text-anchor="start" x="123" y="-19" font-family="Helvetica,sans-Serif" font-size="10.00">gamePlayer.guiItems.game</text>
<text text-anchor="middle" x="189" y="-8" font-family="Helvetica,sans-Serif" font-size="10.00">World.GameItem</text>
</g>
<!-- Node2 -->
<g id="node2" class="node"><title>Node2</title>
<polygon fill="white" stroke="#bfbfbf" points="-0.5,-102.5 -0.5,-121.5 90.5,-121.5 90.5,-102.5 -0.5,-102.5"/>
<text text-anchor="middle" x="45" y="-109.5" font-family="Helvetica,sans-Serif" font-size="10.00">DoubleProperty</text>
</g>
<!-- Node2&#45;&gt;Node1 -->
<g id="edge1" class="edge"><title>Node2&#45;&gt;Node1</title>
<path fill="none" stroke="#9a32cd" stroke-dasharray="5,2" d="M55.9326,-93.8071C65.3483,-80.2351 80.0701,-61.698 97,-50 108.447,-42.0902 122.001,-35.8618 135.136,-31.0492"/>
<polygon fill="#9a32cd" stroke="#9a32cd" points="52.9299,-92.0016 50.2998,-102.265 58.7561,-95.8818 52.9299,-92.0016"/>
<text text-anchor="middle" x="116" y="-75.5" font-family="Helvetica,sans-Serif" font-size="10.00"> X</text>
<text text-anchor="middle" x="116" y="-64.5" font-family="Helvetica,sans-Serif" font-size="10.00">Y</text>
<text text-anchor="middle" x="116" y="-53.5" font-family="Helvetica,sans-Serif" font-size="10.00">rotation</text>
</g>
<!-- Node3 -->
<g id="node3" class="node"><title>Node3</title>
<polygon fill="white" stroke="#bfbfbf" points="109,-102.5 109,-121.5 177,-121.5 177,-102.5 109,-102.5"/>
<text text-anchor="middle" x="143" y="-109.5" font-family="Helvetica,sans-Serif" font-size="10.00">ImageView</text>
</g>
<!-- Node3&#45;&gt;Node1 -->
<g id="edge2" class="edge"><title>Node3&#45;&gt;Node1</title>
<path fill="none" stroke="#9a32cd" stroke-dasharray="5,2" d="M139.151,-92.2522C137.519,-79.6156 137.302,-62.9526 144,-50 147.916,-42.427 154.457,-36.161 161.356,-31.1984"/>
<polygon fill="#9a32cd" stroke="#9a32cd" points="135.701,-92.8446 140.81,-102.126 142.604,-91.6843 135.701,-92.8446"/>
<text text-anchor="middle" x="179" y="-64.5" font-family="Helvetica,sans-Serif" font-size="10.00"> myImageView</text>
</g>
<!-- Node4 -->
<g id="node4" class="node"><title>Node4</title>
<polygon fill="white" stroke="#bfbfbf" points="215,-102.5 215,-121.5 257,-121.5 257,-102.5 215,-102.5"/>
<text text-anchor="middle" x="236" y="-109.5" font-family="Helvetica,sans-Serif" font-size="10.00">Node</text>
</g>
<!-- Node4&#45;&gt;Node1 -->
<g id="edge3" class="edge"><title>Node4&#45;&gt;Node1</title>
<path fill="none" stroke="#9a32cd" stroke-dasharray="5,2" d="M230.983,-92.6814C227.197,-80.2346 221.393,-63.6222 214,-50 210.434,-43.4301 205.64,-36.752 201.203,-31.1378"/>
<polygon fill="#9a32cd" stroke="#9a32cd" points="227.643,-93.7307 233.78,-102.367 234.368,-91.7888 227.643,-93.7307"/>
<text text-anchor="middle" x="251" y="-64.5" font-family="Helvetica,sans-Serif" font-size="10.00"> myNode</text>
</g>
<!-- Node5 -->
<g id="node5" class="node"><title>Node5</title>
<polygon fill="white" stroke="#bfbfbf" points="280,-102.5 280,-121.5 326,-121.5 326,-102.5 280,-102.5"/>
<text text-anchor="middle" x="303" y="-109.5" font-family="Helvetica,sans-Serif" font-size="10.00">Group</text>
</g>
<!-- Node5&#45;&gt;Node1 -->
<g id="edge4" class="edge"><title>Node5&#45;&gt;Node1</title>
<path fill="none" stroke="#9a32cd" stroke-dasharray="5,2" d="M299.165,-92.2602C295.537,-78.8799 288.827,-61.3162 277,-50 268.512,-41.8783 257.837,-35.7146 246.877,-31.0502"/>
<polygon fill="#9a32cd" stroke="#9a32cd" points="295.829,-93.3588 301.533,-102.287 302.641,-91.7499 295.829,-93.3588"/>
<text text-anchor="middle" x="321" y="-64.5" font-family="Helvetica,sans-Serif" font-size="10.00"> myGroup</text>
</g>
</g>
</svg>
