<?xml version="1.0" encoding="UTF-8" standalone="no"?>
<!DOCTYPE svg PUBLIC "-//W3C//DTD SVG 1.1//EN"
 "http://www.w3.org/Graphics/SVG/1.1/DTD/svg11.dtd">
<!-- Generated by graphviz version 2.36.0 (20140111.2315)
 -->
<!-- Title: gamePlayer.guiItems.controlDockButtons.buttons.SpeedButton Pages: 1 -->
<svg width="192pt" height="232pt"
 viewBox="0.00 0.00 192.00 232.00" xmlns="http://www.w3.org/2000/svg" xmlns:xlink="http://www.w3.org/1999/xlink">
<g id="graph0" class="graph" transform="scale(1 1) rotate(0) translate(4 228)">
<title>gamePlayer.guiItems.controlDockButtons.buttons.SpeedButton</title>
<polygon fill="white" stroke="none" points="-4,4 -4,-228 188,-228 188,4 -4,4"/>
<!-- Node1 -->
<g id="node1" class="node"><title>Node1</title>
<polygon fill="#bfbfbf" stroke="black" points="0,-1 0,-31 184,-31 184,-1 0,-1"/>
<text text-anchor="start" x="8" y="-19" font-family="Helvetica,sans-Serif" font-size="10.00">gamePlayer.guiItems.control</text>
<text text-anchor="middle" x="92" y="-8" font-family="Helvetica,sans-Serif" font-size="10.00">DockButtons.buttons.SpeedButton</text>
</g>
<!-- Node2 -->
<g id="node2" class="node"><title>Node2</title>
<g id="a_node2"><a xlink:href="../../d5/da2/classgame_player_1_1gui_items_1_1control_dock_buttons_1_1_control_dock_button.html" target="_top" xlink:title="gamePlayer.guiItems.control\lDockButtons.ControlDockButton">
<polygon fill="white" stroke="black" points="6,-69 6,-99 178,-99 178,-69 6,-69"/>
<text text-anchor="start" x="14" y="-87" font-family="Helvetica,sans-Serif" font-size="10.00">gamePlayer.guiItems.control</text>
<text text-anchor="middle" x="92" y="-76" font-family="Helvetica,sans-Serif" font-size="10.00">DockButtons.ControlDockButton</text>
</a>
</g>
</g>
<!-- Node2&#45;&gt;Node1 -->
<g id="edge1" class="edge"><title>Node2&#45;&gt;Node1</title>
<path fill="none" stroke="midnightblue" d="M92,-58.5322C92,-49.3606 92,-39.2449 92,-31.2931"/>
<polygon fill="midnightblue" stroke="midnightblue" points="88.5001,-58.6789 92,-68.679 95.5001,-58.679 88.5001,-58.6789"/>
</g>
<!-- Node3 -->
<g id="node3" class="node"><title>Node3</title>
<g id="a_node3"><a xlink:href="../../de/d25/interfacegame_player_1_1gui_items_1_1_gui_item.html" target="_top" xlink:title="gamePlayer.guiItems.GuiItem">
<polygon fill="white" stroke="black" points="13,-136.5 13,-155.5 171,-155.5 171,-136.5 13,-136.5"/>
<text text-anchor="middle" x="92" y="-143.5" font-family="Helvetica,sans-Serif" font-size="10.00">gamePlayer.guiItems.GuiItem</text>
</a>
</g>
</g>
<!-- Node3&#45;&gt;Node2 -->
<g id="edge2" class="edge"><title>Node3&#45;&gt;Node2</title>
<path fill="none" stroke="midnightblue" d="M92,-126.371C92,-117.585 92,-107.272 92,-99.1408"/>
<polygon fill="midnightblue" stroke="midnightblue" points="88.5001,-126.403 92,-136.403 95.5001,-126.403 88.5001,-126.403"/>
</g>
<!-- Node4 -->
<g id="node4" class="node"><title>Node4</title>
<g id="a_node4"><a xlink:href="../../d7/d02/interfacegame_player_1_1main_classes_1_1gui_builder_1_1_gui_element.html" target="_top" xlink:title="gamePlayer.mainClasses.gui\lBuilder.GuiElement">
<polygon fill="white" stroke="black" points="15,-193 15,-223 169,-223 169,-193 15,-193"/>
<text text-anchor="start" x="23" y="-211" font-family="Helvetica,sans-Serif" font-size="10.00">gamePlayer.mainClasses.gui</text>
<text text-anchor="middle" x="92" y="-200" font-family="Helvetica,sans-Serif" font-size="10.00">Builder.GuiElement</text>
</a>
</g>
</g>
<!-- Node4&#45;&gt;Node3 -->
<g id="edge3" class="edge"><title>Node4&#45;&gt;Node3</title>
<path fill="none" stroke="midnightblue" d="M92,-182.586C92,-173.074 92,-162.786 92,-155.731"/>
<polygon fill="midnightblue" stroke="midnightblue" points="88.5001,-182.781 92,-192.781 95.5001,-182.781 88.5001,-182.781"/>
</g>
</g>
</svg>
