<?xml version="1.0" encoding="UTF-8" standalone="no"?>
<!DOCTYPE svg PUBLIC "-//W3C//DTD SVG 1.1//EN"
 "http://www.w3.org/Graphics/SVG/1.1/DTD/svg11.dtd">
<!-- Generated by graphviz version 2.36.0 (20140111.2315)
 -->
<!-- Title: gamePlayer.guiItems.controlDockButtons.sliders.SpeedSlider.setUpSlider Pages: 1 -->
<svg width="416pt" height="87pt"
 viewBox="0.00 0.00 416.00 87.00" xmlns="http://www.w3.org/2000/svg" xmlns:xlink="http://www.w3.org/1999/xlink">
<g id="graph0" class="graph" transform="scale(1 1) rotate(0) translate(4 83)">
<title>gamePlayer.guiItems.controlDockButtons.sliders.SpeedSlider.setUpSlider</title>
<polygon fill="white" stroke="none" points="-4,4 -4,-83 412,-83 412,4 -4,4"/>
<!-- Node1 -->
<g id="node1" class="node"><title>Node1</title>
<polygon fill="#bfbfbf" stroke="black" points="0,-18.5 0,-59.5 190,-59.5 190,-18.5 0,-18.5"/>
<text text-anchor="start" x="8" y="-47.5" font-family="Helvetica,sans-Serif" font-size="10.00">gamePlayer.guiItems.control</text>
<text text-anchor="start" x="8" y="-36.5" font-family="Helvetica,sans-Serif" font-size="10.00">DockButtons.sliders.SpeedSlider.set</text>
<text text-anchor="middle" x="95" y="-25.5" font-family="Helvetica,sans-Serif" font-size="10.00">UpSlider</text>
</g>
<!-- Node2 -->
<g id="node2" class="node"><title>Node2</title>
<g id="a_node2"><a xlink:href="../../d4/d68/interfacegame_player_1_1gui_items_listeners_1_1_speed_slider_listener.html#a8647df072b5c2b5a6dc4fbc9cd831f3c" target="_top" xlink:title="gamePlayer.guiItemsListeners.\lSpeedSliderListener.changeSpeed">
<polygon fill="white" stroke="black" points="226.5,-49 226.5,-79 407.5,-79 407.5,-49 226.5,-49"/>
<text text-anchor="start" x="234.5" y="-67" font-family="Helvetica,sans-Serif" font-size="10.00">gamePlayer.guiItemsListeners.</text>
<text text-anchor="middle" x="317" y="-56" font-family="Helvetica,sans-Serif" font-size="10.00">SpeedSliderListener.changeSpeed</text>
</a>
</g>
</g>
<!-- Node1&#45;&gt;Node2 -->
<g id="edge1" class="edge"><title>Node1&#45;&gt;Node2</title>
<path fill="none" stroke="midnightblue" d="M190.257,-49.711C198.891,-50.6922 207.657,-51.6883 216.336,-52.6746"/>
<polygon fill="midnightblue" stroke="midnightblue" points="216.141,-56.1748 226.472,-53.8264 216.932,-49.2196 216.141,-56.1748"/>
</g>
<!-- Node3 -->
<g id="node3" class="node"><title>Node3</title>
<g id="a_node3"><a xlink:href="../../d7/d46/classutilities_1_1_java_f_xutilities_1_1slider_1_1_slider_container.html#a469ecb29b057ee7dcaceb6034c36a137" target="_top" xlink:title="utilities.JavaFXutilities.slider.\lSliderContainer.getValueProperty">
<polygon fill="white" stroke="black" points="229.5,-0 229.5,-30 404.5,-30 404.5,-0 229.5,-0"/>
<text text-anchor="start" x="237.5" y="-18" font-family="Helvetica,sans-Serif" font-size="10.00">utilities.JavaFXutilities.slider.</text>
<text text-anchor="middle" x="317" y="-7" font-family="Helvetica,sans-Serif" font-size="10.00">SliderContainer.getValueProperty</text>
</a>
</g>
</g>
<!-- Node1&#45;&gt;Node3 -->
<g id="edge2" class="edge"><title>Node1&#45;&gt;Node3</title>
<path fill="none" stroke="midnightblue" d="M190.257,-28.7174C199.865,-27.6693 209.637,-26.6033 219.27,-25.5523"/>
<polygon fill="midnightblue" stroke="midnightblue" points="219.686,-29.0279 229.247,-24.464 218.926,-22.0692 219.686,-29.0279"/>
</g>
</g>
</svg>
