<?xml version="1.0" encoding="UTF-8" standalone="no"?>
<!DOCTYPE svg PUBLIC "-//W3C//DTD SVG 1.1//EN"
 "http://www.w3.org/Graphics/SVG/1.1/DTD/svg11.dtd">
<!-- Generated by graphviz version 2.36.0 (20140111.2315)
 -->
<!-- Title: gamePlayer.guiItems.controlDockButtons.sliders.SpeedSlider.initialize Pages: 1 -->
<svg width="1308pt" height="188pt"
 viewBox="0.00 0.00 1308.00 188.00" xmlns="http://www.w3.org/2000/svg" xmlns:xlink="http://www.w3.org/1999/xlink">
<g id="graph0" class="graph" transform="scale(1 1) rotate(0) translate(4 184)">
<title>gamePlayer.guiItems.controlDockButtons.sliders.SpeedSlider.initialize</title>
<polygon fill="white" stroke="none" points="-4,4 -4,-184 1304,-184 1304,4 -4,4"/>
<!-- Node1 -->
<g id="node1" class="node"><title>Node1</title>
<polygon fill="#bfbfbf" stroke="black" points="0.5,-76 0.5,-106 213.5,-106 213.5,-76 0.5,-76"/>
<text text-anchor="start" x="8.5" y="-94" font-family="Helvetica,sans-Serif" font-size="10.00">gamePlayer.guiItems.control</text>
<text text-anchor="middle" x="107" y="-83" font-family="Helvetica,sans-Serif" font-size="10.00">DockButtons.sliders.SpeedSlider.initialize</text>
</g>
<!-- Node2 -->
<g id="node2" class="node"><title>Node2</title>
<g id="a_node2"><a xlink:href="../../d2/d0d/classgame_player_1_1gui_items_1_1control_dock_buttons_1_1_control_dock_slider.html#aaaef8ba819895bf5352dc59563f7234d" target="_top" xlink:title="gamePlayer.guiItems.control\lDockButtons.ControlDockSlider.set\lUpSizing">
<polygon fill="white" stroke="black" points="253,-100.5 253,-141.5 437,-141.5 437,-100.5 253,-100.5"/>
<text text-anchor="start" x="261" y="-129.5" font-family="Helvetica,sans-Serif" font-size="10.00">gamePlayer.guiItems.control</text>
<text text-anchor="start" x="261" y="-118.5" font-family="Helvetica,sans-Serif" font-size="10.00">DockButtons.ControlDockSlider.set</text>
<text text-anchor="middle" x="345" y="-107.5" font-family="Helvetica,sans-Serif" font-size="10.00">UpSizing</text>
</a>
</g>
</g>
<!-- Node1&#45;&gt;Node2 -->
<g id="edge1" class="edge"><title>Node1&#45;&gt;Node2</title>
<path fill="none" stroke="midnightblue" d="M213.575,-104.421C223.321,-105.66 233.182,-106.913 242.887,-108.147"/>
<polygon fill="midnightblue" stroke="midnightblue" points="242.571,-111.635 252.933,-109.424 243.454,-104.69 242.571,-111.635"/>
</g>
<!-- Node8 -->
<g id="node8" class="node"><title>Node8</title>
<g id="a_node8"><a xlink:href="../../d5/dbe/classgame_player_1_1gui_items_1_1control_dock_buttons_1_1sliders_1_1_speed_slider.html#a8ffc36d066339f382bc6c7d1565b4aee" target="_top" xlink:title="gamePlayer.guiItems.control\lDockButtons.sliders.SpeedSlider.set\lUpSlider">
<polygon fill="white" stroke="black" points="250,-40.5 250,-81.5 440,-81.5 440,-40.5 250,-40.5"/>
<text text-anchor="start" x="258" y="-69.5" font-family="Helvetica,sans-Serif" font-size="10.00">gamePlayer.guiItems.control</text>
<text text-anchor="start" x="258" y="-58.5" font-family="Helvetica,sans-Serif" font-size="10.00">DockButtons.sliders.SpeedSlider.set</text>
<text text-anchor="middle" x="345" y="-47.5" font-family="Helvetica,sans-Serif" font-size="10.00">UpSlider</text>
</a>
</g>
</g>
<!-- Node1&#45;&gt;Node8 -->
<g id="edge7" class="edge"><title>Node1&#45;&gt;Node8</title>
<path fill="none" stroke="midnightblue" d="M213.575,-77.5794C222.22,-76.4805 230.954,-75.3702 239.59,-74.2724"/>
<polygon fill="midnightblue" stroke="midnightblue" points="240.193,-77.724 249.672,-72.9908 239.31,-70.7799 240.193,-77.724"/>
</g>
<!-- Node3 -->
<g id="node3" class="node"><title>Node3</title>
<g id="a_node3"><a xlink:href="../../d4/dfb/classutilities_1_1_java_f_xutilities_1_1ratio_sizing_1_1_ratios_to_dim.html#ab3d9988b529c32ef726dc3891257e00e" target="_top" xlink:title="utilities.JavaFXutilities.ratio\lSizing.RatiosToDim.convert">
<polygon fill="white" stroke="black" points="494,-150 494,-180 640,-180 640,-150 494,-150"/>
<text text-anchor="start" x="502" y="-168" font-family="Helvetica,sans-Serif" font-size="10.00">utilities.JavaFXutilities.ratio</text>
<text text-anchor="middle" x="567" y="-157" font-family="Helvetica,sans-Serif" font-size="10.00">Sizing.RatiosToDim.convert</text>
</a>
</g>
</g>
<!-- Node2&#45;&gt;Node3 -->
<g id="edge2" class="edge"><title>Node2&#45;&gt;Node3</title>
<path fill="none" stroke="midnightblue" d="M437.07,-139.214C452.586,-142.317 468.619,-145.524 483.884,-148.577"/>
<polygon fill="midnightblue" stroke="midnightblue" points="483.3,-152.029 493.792,-150.558 484.673,-145.165 483.3,-152.029"/>
</g>
<!-- Node4 -->
<g id="node4" class="node"><title>Node4</title>
<g id="a_node4"><a xlink:href="../../df/db4/classutilities_1_1_x_m_l_parsing_1_1_x_m_l_parser.html#aac8c276e1fe06546bb4cc6488dd15047" target="_top" xlink:title="utilities.XMLParsing.XMLParser.get\lDimension">
<polygon fill="white" stroke="black" points="478,-101 478,-131 656,-131 656,-101 478,-101"/>
<text text-anchor="start" x="486" y="-119" font-family="Helvetica,sans-Serif" font-size="10.00">utilities.XMLParsing.XMLParser.get</text>
<text text-anchor="middle" x="567" y="-108" font-family="Helvetica,sans-Serif" font-size="10.00">Dimension</text>
</a>
</g>
</g>
<!-- Node2&#45;&gt;Node4 -->
<g id="edge3" class="edge"><title>Node2&#45;&gt;Node4</title>
<path fill="none" stroke="midnightblue" d="M437.07,-118.93C447.177,-118.701 457.504,-118.466 467.695,-118.234"/>
<polygon fill="midnightblue" stroke="midnightblue" points="467.911,-121.73 477.828,-118.004 467.752,-114.732 467.911,-121.73"/>
</g>
<!-- Node5 -->
<g id="node5" class="node"><title>Node5</title>
<g id="a_node5"><a xlink:href="../../df/db4/classutilities_1_1_x_m_l_parsing_1_1_x_m_l_parser.html#a159b395412a8ce61e6decfefc9ed9854" target="_top" xlink:title="utilities.XMLParsing.XMLParser.get\lDoubleValuesFromTag">
<polygon fill="white" stroke="black" points="694,-101 694,-131 872,-131 872,-101 694,-101"/>
<text text-anchor="start" x="702" y="-119" font-family="Helvetica,sans-Serif" font-size="10.00">utilities.XMLParsing.XMLParser.get</text>
<text text-anchor="middle" x="783" y="-108" font-family="Helvetica,sans-Serif" font-size="10.00">DoubleValuesFromTag</text>
</a>
</g>
</g>
<!-- Node4&#45;&gt;Node5 -->
<g id="edge4" class="edge"><title>Node4&#45;&gt;Node5</title>
<path fill="none" stroke="midnightblue" d="M656.278,-116C665.312,-116 674.53,-116 683.664,-116"/>
<polygon fill="midnightblue" stroke="midnightblue" points="683.925,-119.5 693.925,-116 683.925,-112.5 683.925,-119.5"/>
</g>
<!-- Node6 -->
<g id="node6" class="node"><title>Node6</title>
<g id="a_node6"><a xlink:href="../../df/db4/classutilities_1_1_x_m_l_parsing_1_1_x_m_l_parser.html#a70485375200a84f459aa83ffedbea646" target="_top" xlink:title="utilities.XMLParsing.XMLParser.get\lValuesFromTag">
<polygon fill="white" stroke="black" points="908,-101 908,-131 1086,-131 1086,-101 908,-101"/>
<text text-anchor="start" x="916" y="-119" font-family="Helvetica,sans-Serif" font-size="10.00">utilities.XMLParsing.XMLParser.get</text>
<text text-anchor="middle" x="997" y="-108" font-family="Helvetica,sans-Serif" font-size="10.00">ValuesFromTag</text>
</a>
</g>
</g>
<!-- Node5&#45;&gt;Node6 -->
<g id="edge5" class="edge"><title>Node5&#45;&gt;Node6</title>
<path fill="none" stroke="midnightblue" d="M872.065,-116C880.569,-116 889.232,-116 897.825,-116"/>
<polygon fill="midnightblue" stroke="midnightblue" points="897.868,-119.5 907.868,-116 897.868,-112.5 897.868,-119.5"/>
</g>
<!-- Node7 -->
<g id="node7" class="node"><title>Node7</title>
<g id="a_node7"><a xlink:href="../../df/db4/classutilities_1_1_x_m_l_parsing_1_1_x_m_l_parser.html#ab3a0a60481d20e93b1382f9a8a31fe9d" target="_top" xlink:title="utilities.XMLParsing.XMLParser.get\lValues">
<polygon fill="white" stroke="black" points="1122,-101 1122,-131 1300,-131 1300,-101 1122,-101"/>
<text text-anchor="start" x="1130" y="-119" font-family="Helvetica,sans-Serif" font-size="10.00">utilities.XMLParsing.XMLParser.get</text>
<text text-anchor="middle" x="1211" y="-108" font-family="Helvetica,sans-Serif" font-size="10.00">Values</text>
</a>
</g>
</g>
<!-- Node6&#45;&gt;Node7 -->
<g id="edge6" class="edge"><title>Node6&#45;&gt;Node7</title>
<path fill="none" stroke="midnightblue" d="M1086.07,-116C1094.57,-116 1103.23,-116 1111.82,-116"/>
<polygon fill="midnightblue" stroke="midnightblue" points="1111.87,-119.5 1121.87,-116 1111.87,-112.5 1111.87,-119.5"/>
</g>
<!-- Node9 -->
<g id="node9" class="node"><title>Node9</title>
<g id="a_node9"><a xlink:href="../../d7/d46/classutilities_1_1_java_f_xutilities_1_1slider_1_1_slider_container.html#a469ecb29b057ee7dcaceb6034c36a137" target="_top" xlink:title="utilities.JavaFXutilities.slider.\lSliderContainer.getValueProperty">
<polygon fill="white" stroke="black" points="479.5,-49 479.5,-79 654.5,-79 654.5,-49 479.5,-49"/>
<text text-anchor="start" x="487.5" y="-67" font-family="Helvetica,sans-Serif" font-size="10.00">utilities.JavaFXutilities.slider.</text>
<text text-anchor="middle" x="567" y="-56" font-family="Helvetica,sans-Serif" font-size="10.00">SliderContainer.getValueProperty</text>
</a>
</g>
</g>
<!-- Node8&#45;&gt;Node9 -->
<g id="edge8" class="edge"><title>Node8&#45;&gt;Node9</title>
<path fill="none" stroke="midnightblue" d="M440.257,-62.2853C449.764,-62.415 459.431,-62.5468 468.966,-62.6768"/>
<polygon fill="midnightblue" stroke="midnightblue" points="469.2,-66.1802 479.247,-62.817 469.296,-59.1809 469.2,-66.1802"/>
</g>
<!-- Node10 -->
<g id="node10" class="node"><title>Node10</title>
<g id="a_node10"><a xlink:href="../../d4/d68/interfacegame_player_1_1gui_items_listeners_1_1_speed_slider_listener.html#a8647df072b5c2b5a6dc4fbc9cd831f3c" target="_top" xlink:title="gamePlayer.guiItemsListeners.\lSpeedSliderListener.changeSpeed">
<polygon fill="white" stroke="black" points="476.5,-0 476.5,-30 657.5,-30 657.5,-0 476.5,-0"/>
<text text-anchor="start" x="484.5" y="-18" font-family="Helvetica,sans-Serif" font-size="10.00">gamePlayer.guiItemsListeners.</text>
<text text-anchor="middle" x="567" y="-7" font-family="Helvetica,sans-Serif" font-size="10.00">SpeedSliderListener.changeSpeed</text>
</a>
</g>
</g>
<!-- Node8&#45;&gt;Node10 -->
<g id="edge9" class="edge"><title>Node8&#45;&gt;Node10</title>
<path fill="none" stroke="midnightblue" d="M440.257,-41.2917C454.945,-38.2207 470.014,-35.0697 484.39,-32.064"/>
<polygon fill="midnightblue" stroke="midnightblue" points="485.146,-35.4817 494.218,-30.009 483.713,-28.6298 485.146,-35.4817"/>
</g>
</g>
</svg>
