<?xml version="1.0" encoding="UTF-8" standalone="no"?>
<!DOCTYPE svg PUBLIC "-//W3C//DTD SVG 1.1//EN"
 "http://www.w3.org/Graphics/SVG/1.1/DTD/svg11.dtd">
<!-- Generated by graphviz version 2.36.0 (20140111.2315)
 -->
<!-- Title: gamePlayer.unusedCodeWarehouse.guiItems.store.Store.initialize Pages: 1 -->
<svg width="1110pt" height="312pt"
 viewBox="0.00 0.00 1110.00 312.00" xmlns="http://www.w3.org/2000/svg" xmlns:xlink="http://www.w3.org/1999/xlink">
<g id="graph0" class="graph" transform="scale(1 1) rotate(0) translate(4 308)">
<title>gamePlayer.unusedCodeWarehouse.guiItems.store.Store.initialize</title>
<polygon fill="white" stroke="none" points="-4,4 -4,-308 1106,-308 1106,4 -4,4"/>
<!-- Node1 -->
<g id="node1" class="node"><title>Node1</title>
<polygon fill="#bfbfbf" stroke="black" points="0,-208 0,-238 206,-238 206,-208 0,-208"/>
<text text-anchor="start" x="8" y="-226" font-family="Helvetica,sans-Serif" font-size="10.00">gamePlayer.unusedCodeWarehouse.gui</text>
<text text-anchor="middle" x="103" y="-215" font-family="Helvetica,sans-Serif" font-size="10.00">Items.store.Store.initialize</text>
</g>
<!-- Node2 -->
<g id="node2" class="node"><title>Node2</title>
<g id="a_node2"><a xlink:href="../../d6/dac/classgame_player_1_1unused_code_warehouse_1_1gui_items_1_1store_1_1_store.html#aca26e897aaa16b03b8367033ed081089" target="_top" xlink:title="gamePlayer.unusedCodeWarehouse.gui\lItems.store.Store.buildHeader">
<polygon fill="white" stroke="black" points="248,-274 248,-304 454,-304 454,-274 248,-274"/>
<text text-anchor="start" x="256" y="-292" font-family="Helvetica,sans-Serif" font-size="10.00">gamePlayer.unusedCodeWarehouse.gui</text>
<text text-anchor="middle" x="351" y="-281" font-family="Helvetica,sans-Serif" font-size="10.00">Items.store.Store.buildHeader</text>
</a>
</g>
</g>
<!-- Node1&#45;&gt;Node2 -->
<g id="edge1" class="edge"><title>Node1&#45;&gt;Node2</title>
<path fill="none" stroke="midnightblue" d="M160.129,-238.059C196.838,-247.908 244.964,-260.82 283.578,-271.179"/>
<polygon fill="midnightblue" stroke="midnightblue" points="283.121,-274.681 293.687,-273.892 284.935,-267.92 283.121,-274.681"/>
</g>
<!-- Node3 -->
<g id="node3" class="node"><title>Node3</title>
<g id="a_node3"><a xlink:href="../../df/db4/classutilities_1_1_x_m_l_parsing_1_1_x_m_l_parser.html#a70485375200a84f459aa83ffedbea646" target="_top" xlink:title="utilities.XMLParsing.XMLParser.get\lValuesFromTag">
<polygon fill="white" stroke="black" points="710,-186 710,-216 888,-216 888,-186 710,-186"/>
<text text-anchor="start" x="718" y="-204" font-family="Helvetica,sans-Serif" font-size="10.00">utilities.XMLParsing.XMLParser.get</text>
<text text-anchor="middle" x="799" y="-193" font-family="Helvetica,sans-Serif" font-size="10.00">ValuesFromTag</text>
</a>
</g>
</g>
<!-- Node1&#45;&gt;Node3 -->
<g id="edge13" class="edge"><title>Node1&#45;&gt;Node3</title>
<path fill="none" stroke="midnightblue" d="M206.216,-229.434C320.506,-235.216 510.971,-240.632 674,-225 689.907,-223.475 706.805,-220.873 722.843,-217.931"/>
<polygon fill="midnightblue" stroke="midnightblue" points="723.527,-221.364 732.7,-216.062 722.223,-214.487 723.527,-221.364"/>
</g>
<!-- Node5 -->
<g id="node5" class="node"><title>Node5</title>
<g id="a_node5"><a xlink:href="../../d6/dac/classgame_player_1_1unused_code_warehouse_1_1gui_items_1_1store_1_1_store.html#a3e828c04b91101f45ad872ddd3ee035c" target="_top" xlink:title="gamePlayer.unusedCodeWarehouse.gui\lItems.store.Store.buildInventoryContainer">
<polygon fill="white" stroke="black" points="242.5,-186 242.5,-216 459.5,-216 459.5,-186 242.5,-186"/>
<text text-anchor="start" x="250.5" y="-204" font-family="Helvetica,sans-Serif" font-size="10.00">gamePlayer.unusedCodeWarehouse.gui</text>
<text text-anchor="middle" x="351" y="-193" font-family="Helvetica,sans-Serif" font-size="10.00">Items.store.Store.buildInventoryContainer</text>
</a>
</g>
</g>
<!-- Node1&#45;&gt;Node5 -->
<g id="edge4" class="edge"><title>Node1&#45;&gt;Node5</title>
<path fill="none" stroke="midnightblue" d="M206.189,-213.861C214.728,-213.097 223.405,-212.321 232.049,-211.548"/>
<polygon fill="midnightblue" stroke="midnightblue" points="232.522,-215.02 242.171,-210.643 231.899,-208.048 232.522,-215.02"/>
</g>
<!-- Node8 -->
<g id="node8" class="node"><title>Node8</title>
<g id="a_node8"><a xlink:href="../../d6/dac/classgame_player_1_1unused_code_warehouse_1_1gui_items_1_1store_1_1_store.html#ac1c5ca053c5b6acd17d1048953177085" target="_top" xlink:title="gamePlayer.unusedCodeWarehouse.gui\lItems.store.Store.buildInventoryItems">
<polygon fill="white" stroke="black" points="248,-71 248,-101 454,-101 454,-71 248,-71"/>
<text text-anchor="start" x="256" y="-89" font-family="Helvetica,sans-Serif" font-size="10.00">gamePlayer.unusedCodeWarehouse.gui</text>
<text text-anchor="middle" x="351" y="-78" font-family="Helvetica,sans-Serif" font-size="10.00">Items.store.Store.buildInventoryItems</text>
</a>
</g>
</g>
<!-- Node1&#45;&gt;Node8 -->
<g id="edge9" class="edge"><title>Node1&#45;&gt;Node8</title>
<path fill="none" stroke="midnightblue" d="M131.266,-207.815C175.9,-182.958 264.547,-133.59 314.19,-105.943"/>
<polygon fill="midnightblue" stroke="midnightblue" points="315.953,-108.967 322.987,-101.044 312.547,-102.852 315.953,-108.967"/>
</g>
<!-- Node2&#45;&gt;Node3 -->
<g id="edge2" class="edge"><title>Node2&#45;&gt;Node3</title>
<path fill="none" stroke="midnightblue" d="M454.027,-288.419C518.157,-285.877 602.073,-278.535 674,-259 705.726,-250.383 739.371,-234.144 763.597,-221.036"/>
<polygon fill="midnightblue" stroke="midnightblue" points="765.328,-224.079 772.398,-216.188 761.95,-217.947 765.328,-224.079"/>
</g>
<!-- Node4 -->
<g id="node4" class="node"><title>Node4</title>
<g id="a_node4"><a xlink:href="../../df/db4/classutilities_1_1_x_m_l_parsing_1_1_x_m_l_parser.html#ab3a0a60481d20e93b1382f9a8a31fe9d" target="_top" xlink:title="utilities.XMLParsing.XMLParser.get\lValues">
<polygon fill="white" stroke="black" points="924,-186 924,-216 1102,-216 1102,-186 924,-186"/>
<text text-anchor="start" x="932" y="-204" font-family="Helvetica,sans-Serif" font-size="10.00">utilities.XMLParsing.XMLParser.get</text>
<text text-anchor="middle" x="1013" y="-193" font-family="Helvetica,sans-Serif" font-size="10.00">Values</text>
</a>
</g>
</g>
<!-- Node3&#45;&gt;Node4 -->
<g id="edge3" class="edge"><title>Node3&#45;&gt;Node4</title>
<path fill="none" stroke="midnightblue" d="M888.065,-201C896.569,-201 905.232,-201 913.825,-201"/>
<polygon fill="midnightblue" stroke="midnightblue" points="913.868,-204.5 923.868,-201 913.868,-197.5 913.868,-204.5"/>
</g>
<!-- Node6 -->
<g id="node6" class="node"><title>Node6</title>
<g id="a_node6"><a xlink:href="../../df/db4/classutilities_1_1_x_m_l_parsing_1_1_x_m_l_parser.html#a159b395412a8ce61e6decfefc9ed9854" target="_top" xlink:title="utilities.XMLParsing.XMLParser.get\lDoubleValuesFromTag">
<polygon fill="white" stroke="black" points="496,-186 496,-216 674,-216 674,-186 496,-186"/>
<text text-anchor="start" x="504" y="-204" font-family="Helvetica,sans-Serif" font-size="10.00">utilities.XMLParsing.XMLParser.get</text>
<text text-anchor="middle" x="585" y="-193" font-family="Helvetica,sans-Serif" font-size="10.00">DoubleValuesFromTag</text>
</a>
</g>
</g>
<!-- Node5&#45;&gt;Node6 -->
<g id="edge5" class="edge"><title>Node5&#45;&gt;Node6</title>
<path fill="none" stroke="midnightblue" d="M459.511,-201C468.286,-201 477.126,-201 485.828,-201"/>
<polygon fill="midnightblue" stroke="midnightblue" points="485.97,-204.5 495.97,-201 485.97,-197.5 485.97,-204.5"/>
</g>
<!-- Node7 -->
<g id="node7" class="node"><title>Node7</title>
<g id="a_node7"><a xlink:href="../../df/db4/classutilities_1_1_x_m_l_parsing_1_1_x_m_l_parser.html#abefb8ebeb4519c1d094168dda6a502c6" target="_top" xlink:title="utilities.XMLParsing.XMLParser.get\lIntegerValuesFromTag">
<polygon fill="white" stroke="black" points="496,-137 496,-167 674,-167 674,-137 496,-137"/>
<text text-anchor="start" x="504" y="-155" font-family="Helvetica,sans-Serif" font-size="10.00">utilities.XMLParsing.XMLParser.get</text>
<text text-anchor="middle" x="585" y="-144" font-family="Helvetica,sans-Serif" font-size="10.00">IntegerValuesFromTag</text>
</a>
</g>
</g>
<!-- Node5&#45;&gt;Node7 -->
<g id="edge7" class="edge"><title>Node5&#45;&gt;Node7</title>
<path fill="none" stroke="midnightblue" d="M423.184,-185.965C448.46,-180.627 477.09,-174.58 503.115,-169.083"/>
<polygon fill="midnightblue" stroke="midnightblue" points="503.889,-172.497 512.95,-167.006 502.443,-165.648 503.889,-172.497"/>
</g>
<!-- Node6&#45;&gt;Node3 -->
<g id="edge6" class="edge"><title>Node6&#45;&gt;Node3</title>
<path fill="none" stroke="midnightblue" d="M674.065,-201C682.569,-201 691.232,-201 699.825,-201"/>
<polygon fill="midnightblue" stroke="midnightblue" points="699.868,-204.5 709.868,-201 699.868,-197.5 699.868,-204.5"/>
</g>
<!-- Node7&#45;&gt;Node3 -->
<g id="edge8" class="edge"><title>Node7&#45;&gt;Node3</title>
<path fill="none" stroke="midnightblue" d="M651.048,-167.035C673.839,-172.302 699.615,-178.26 723.144,-183.698"/>
<polygon fill="midnightblue" stroke="midnightblue" points="722.544,-187.152 733.075,-185.994 724.12,-180.332 722.544,-187.152"/>
</g>
<!-- Node8&#45;&gt;Node3 -->
<g id="edge11" class="edge"><title>Node8&#45;&gt;Node3</title>
<path fill="none" stroke="midnightblue" d="M454.141,-88.3412C518.69,-92.3972 603.017,-102.5 674,-127 709.669,-139.311 746.26,-162.726 770.358,-179.933"/>
<polygon fill="midnightblue" stroke="midnightblue" points="768.5,-182.909 778.647,-185.959 772.617,-177.247 768.5,-182.909"/>
</g>
<!-- Node9 -->
<g id="node9" class="node"><title>Node9</title>
<g id="a_node9"><a xlink:href="../../d7/d02/interfacegame_player_1_1main_classes_1_1gui_builder_1_1_gui_element.html#a0cfbb03fce35c4102f5ee95dc523d789" target="_top" xlink:title="gamePlayer.mainClasses.gui\lBuilder.GuiElement.getNode">
<polygon fill="white" stroke="black" points="508,-49 508,-79 662,-79 662,-49 508,-49"/>
<text text-anchor="start" x="516" y="-67" font-family="Helvetica,sans-Serif" font-size="10.00">gamePlayer.mainClasses.gui</text>
<text text-anchor="middle" x="585" y="-56" font-family="Helvetica,sans-Serif" font-size="10.00">Builder.GuiElement.getNode</text>
</a>
</g>
</g>
<!-- Node8&#45;&gt;Node9 -->
<g id="edge10" class="edge"><title>Node8&#45;&gt;Node9</title>
<path fill="none" stroke="midnightblue" d="M454.096,-76.3185C468.574,-74.9456 483.345,-73.5448 497.49,-72.2035"/>
<polygon fill="midnightblue" stroke="midnightblue" points="498.041,-75.6671 507.665,-71.2386 497.38,-68.6984 498.041,-75.6671"/>
</g>
<!-- Node10 -->
<g id="node10" class="node"><title>Node10</title>
<g id="a_node10"><a xlink:href="../../d7/d02/interfacegame_player_1_1main_classes_1_1gui_builder_1_1_gui_element.html#a11c38d8cb75271486784dd02171fd867" target="_top" xlink:title="gamePlayer.mainClasses.gui\lBuilder.GuiElement.initialize">
<polygon fill="white" stroke="black" points="508,-0 508,-30 662,-30 662,-0 508,-0"/>
<text text-anchor="start" x="516" y="-18" font-family="Helvetica,sans-Serif" font-size="10.00">gamePlayer.mainClasses.gui</text>
<text text-anchor="middle" x="585" y="-7" font-family="Helvetica,sans-Serif" font-size="10.00">Builder.GuiElement.initialize</text>
</a>
</g>
</g>
<!-- Node8&#45;&gt;Node10 -->
<g id="edge12" class="edge"><title>Node8&#45;&gt;Node10</title>
<path fill="none" stroke="midnightblue" d="M396.259,-70.93C424.652,-61.4172 462.367,-49.0684 496,-39 502.884,-36.9393 510.092,-34.8551 517.293,-32.8205"/>
<polygon fill="midnightblue" stroke="midnightblue" points="518.39,-36.1481 527.077,-30.0837 516.504,-29.4068 518.39,-36.1481"/>
</g>
</g>
</svg>
