<?xml version="1.0" encoding="UTF-8" standalone="no"?>
<!DOCTYPE svg PUBLIC "-//W3C//DTD SVG 1.1//EN"
 "http://www.w3.org/Graphics/SVG/1.1/DTD/svg11.dtd">
<!-- Generated by graphviz version 2.36.0 (20140111.2315)
 -->
<!-- Title: gamePlayer.guiItemsListeners.SpeedButtonListener.normalSpeed Pages: 1 -->
<svg width="744pt" height="98pt"
 viewBox="0.00 0.00 744.00 98.00" xmlns="http://www.w3.org/2000/svg" xmlns:xlink="http://www.w3.org/1999/xlink">
<g id="graph0" class="graph" transform="scale(1 1) rotate(0) translate(4 94)">
<title>gamePlayer.guiItemsListeners.SpeedButtonListener.normalSpeed</title>
<polygon fill="white" stroke="none" points="-4,4 -4,-94 740,-94 740,4 -4,4"/>
<!-- Node1 -->
<g id="node1" class="node"><title>Node1</title>
<polygon fill="#bfbfbf" stroke="black" points="0.5,-27 0.5,-57 185.5,-57 185.5,-27 0.5,-27"/>
<text text-anchor="start" x="8.5" y="-45" font-family="Helvetica,sans-Serif" font-size="10.00">gamePlayer.guiItemsListeners.</text>
<text text-anchor="middle" x="93" y="-34" font-family="Helvetica,sans-Serif" font-size="10.00">SpeedButtonListener.normalSpeed</text>
</g>
<!-- Node2 -->
<g id="node2" class="node"><title>Node2</title>
<g id="a_node2"><a xlink:href="../../dd/d15/classgame_player_1_1gui_items_1_1control_dock_buttons_1_1buttons_1_1_speed_button.html#a85368e275e2b877e912484e5d3220b36" target="_top" xlink:title="gamePlayer.guiItems.control\lDockButtons.buttons.SpeedButton.normalSpeed">
<polygon fill="white" stroke="black" points="222.5,-27 222.5,-57 473.5,-57 473.5,-27 222.5,-27"/>
<text text-anchor="start" x="230.5" y="-45" font-family="Helvetica,sans-Serif" font-size="10.00">gamePlayer.guiItems.control</text>
<text text-anchor="middle" x="348" y="-34" font-family="Helvetica,sans-Serif" font-size="10.00">DockButtons.buttons.SpeedButton.normalSpeed</text>
</a>
</g>
</g>
<!-- Node1&#45;&gt;Node2 -->
<g id="edge1" class="edge"><title>Node1&#45;&gt;Node2</title>
<path fill="none" stroke="midnightblue" d="M195.814,-42C204.505,-42 213.358,-42 222.2,-42"/>
<polygon fill="midnightblue" stroke="midnightblue" points="195.697,-38.5001 185.697,-42 195.696,-45.5001 195.697,-38.5001"/>
</g>
<!-- Node3 -->
<g id="node3" class="node"><title>Node3</title>
<g id="a_node3"><a xlink:href="../../dd/d15/classgame_player_1_1gui_items_1_1control_dock_buttons_1_1buttons_1_1_speed_button.html#a9336e1edbb644efe514bd88eef3d5443" target="_top" xlink:title="gamePlayer.guiItems.control\lDockButtons.buttons.SpeedButton.fast\lForward">
<polygon fill="white" stroke="black" points="520.5,-48.5 520.5,-89.5 725.5,-89.5 725.5,-48.5 520.5,-48.5"/>
<text text-anchor="start" x="528.5" y="-77.5" font-family="Helvetica,sans-Serif" font-size="10.00">gamePlayer.guiItems.control</text>
<text text-anchor="start" x="528.5" y="-66.5" font-family="Helvetica,sans-Serif" font-size="10.00">DockButtons.buttons.SpeedButton.fast</text>
<text text-anchor="middle" x="623" y="-55.5" font-family="Helvetica,sans-Serif" font-size="10.00">Forward</text>
</a>
</g>
</g>
<!-- Node2&#45;&gt;Node3 -->
<g id="edge2" class="edge"><title>Node2&#45;&gt;Node3</title>
<path fill="none" stroke="midnightblue" d="M483.782,-55.3301C496.018,-56.5403 508.273,-57.7522 520.152,-58.9272"/>
<polygon fill="midnightblue" stroke="midnightblue" points="483.813,-51.8161 473.517,-54.3148 483.124,-58.7821 483.813,-51.8161"/>
</g>
<!-- Node4 -->
<g id="node4" class="node"><title>Node4</title>
<g id="a_node4"><a xlink:href="../../dd/d15/classgame_player_1_1gui_items_1_1control_dock_buttons_1_1buttons_1_1_speed_button.html#a2f0f314f2da9b1f6dd374976c3619734" target="_top" xlink:title="gamePlayer.guiItems.control\lDockButtons.buttons.SpeedButton.initialize">
<polygon fill="white" stroke="black" points="510.5,-0 510.5,-30 735.5,-30 735.5,-0 510.5,-0"/>
<text text-anchor="start" x="518.5" y="-18" font-family="Helvetica,sans-Serif" font-size="10.00">gamePlayer.guiItems.control</text>
<text text-anchor="middle" x="623" y="-7" font-family="Helvetica,sans-Serif" font-size="10.00">DockButtons.buttons.SpeedButton.initialize</text>
</a>
</g>
</g>
<!-- Node2&#45;&gt;Node4 -->
<g id="edge3" class="edge"><title>Node2&#45;&gt;Node4</title>
<path fill="none" stroke="midnightblue" d="M483.574,-28.6905C492.493,-27.8084 501.423,-26.9252 510.211,-26.056"/>
<polygon fill="midnightblue" stroke="midnightblue" points="483.124,-25.2179 473.517,-29.6852 483.813,-32.1839 483.124,-25.2179"/>
</g>
</g>
</svg>
