<?xml version="1.0" encoding="UTF-8" standalone="no"?>
<!DOCTYPE svg PUBLIC "-//W3C//DTD SVG 1.1//EN"
 "http://www.w3.org/Graphics/SVG/1.1/DTD/svg11.dtd">
<!-- Generated by graphviz version 2.36.0 (20140111.2315)
 -->
<!-- Title: gamePlayer.mainClasses.welcomeScreen.availableGames.GameChooser.GameChooser Pages: 1 -->
<svg width="956pt" height="48pt"
 viewBox="0.00 0.00 956.00 48.00" xmlns="http://www.w3.org/2000/svg" xmlns:xlink="http://www.w3.org/1999/xlink">
<g id="graph0" class="graph" transform="scale(1 1) rotate(0) translate(4 44)">
<title>gamePlayer.mainClasses.welcomeScreen.availableGames.GameChooser.GameChooser</title>
<polygon fill="white" stroke="none" points="-4,4 -4,-44 952,-44 952,4 -4,4"/>
<!-- Node1 -->
<g id="node1" class="node"><title>Node1</title>
<polygon fill="#bfbfbf" stroke="black" points="0,0.5 0,-40.5 204,-40.5 204,0.5 0,0.5"/>
<text text-anchor="start" x="8" y="-28.5" font-family="Helvetica,sans-Serif" font-size="10.00">gamePlayer.mainClasses.welcome</text>
<text text-anchor="start" x="8" y="-17.5" font-family="Helvetica,sans-Serif" font-size="10.00">Screen.availableGames.GameChooser.</text>
<text text-anchor="middle" x="102" y="-6.5" font-family="Helvetica,sans-Serif" font-size="10.00">GameChooser</text>
</g>
<!-- Node2 -->
<g id="node2" class="node"><title>Node2</title>
<g id="a_node2"><a xlink:href="../../d8/d29/classgame_player_1_1main_classes_1_1welcome_screen_1_1available_games_1_1_game_chooser.html#ad1c8145721f82373b82ffb32dfc3e951" target="_top" xlink:title="gamePlayer.mainClasses.welcome\lScreen.availableGames.GameChooser.load\lGameDescriptions">
<polygon fill="white" stroke="black" points="240,0.5 240,-40.5 464,-40.5 464,0.5 240,0.5"/>
<text text-anchor="start" x="248" y="-28.5" font-family="Helvetica,sans-Serif" font-size="10.00">gamePlayer.mainClasses.welcome</text>
<text text-anchor="start" x="248" y="-17.5" font-family="Helvetica,sans-Serif" font-size="10.00">Screen.availableGames.GameChooser.load</text>
<text text-anchor="middle" x="352" y="-6.5" font-family="Helvetica,sans-Serif" font-size="10.00">GameDescriptions</text>
</a>
</g>
</g>
<!-- Node1&#45;&gt;Node2 -->
<g id="edge1" class="edge"><title>Node1&#45;&gt;Node2</title>
<path fill="none" stroke="midnightblue" d="M204.229,-20C212.7,-20 221.318,-20 229.918,-20"/>
<polygon fill="midnightblue" stroke="midnightblue" points="229.994,-23.5001 239.994,-20 229.994,-16.5001 229.994,-23.5001"/>
</g>
<!-- Node3 -->
<g id="node3" class="node"><title>Node3</title>
<g id="a_node3"><a xlink:href="../../dc/d80/classgame_player_1_1main_classes_1_1welcome_screen_1_1available_games_1_1_game_description_loader.html#a11fd7d4b0a0ef71b5c5460712bab3faa" target="_top" xlink:title="gamePlayer.mainClasses.welcome\lScreen.availableGames.GameDescription\lLoader.getDescriptions">
<polygon fill="white" stroke="black" points="500,0.5 500,-40.5 716,-40.5 716,0.5 500,0.5"/>
<text text-anchor="start" x="508" y="-28.5" font-family="Helvetica,sans-Serif" font-size="10.00">gamePlayer.mainClasses.welcome</text>
<text text-anchor="start" x="508" y="-17.5" font-family="Helvetica,sans-Serif" font-size="10.00">Screen.availableGames.GameDescription</text>
<text text-anchor="middle" x="608" y="-6.5" font-family="Helvetica,sans-Serif" font-size="10.00">Loader.getDescriptions</text>
</a>
</g>
</g>
<!-- Node2&#45;&gt;Node3 -->
<g id="edge2" class="edge"><title>Node2&#45;&gt;Node3</title>
<path fill="none" stroke="midnightblue" d="M464.039,-20C472.578,-20 481.215,-20 489.792,-20"/>
<polygon fill="midnightblue" stroke="midnightblue" points="489.824,-23.5001 499.824,-20 489.824,-16.5001 489.824,-23.5001"/>
</g>
<!-- Node4 -->
<g id="node4" class="node"><title>Node4</title>
<g id="a_node4"><a xlink:href="../../dc/d37/classutilities_1_1_java_f_xutilities_1_1image_view_1_1_string_to_image_view_converter.html#a5beb76f3bbfa4aae7d9b897a285b007b" target="_top" xlink:title="utilities.JavaFXutilities.image\lView.StringToImageViewConverter.get\lImageView">
<polygon fill="white" stroke="black" points="752,0.5 752,-40.5 948,-40.5 948,0.5 752,0.5"/>
<text text-anchor="start" x="760" y="-28.5" font-family="Helvetica,sans-Serif" font-size="10.00">utilities.JavaFXutilities.image</text>
<text text-anchor="start" x="760" y="-17.5" font-family="Helvetica,sans-Serif" font-size="10.00">View.StringToImageViewConverter.get</text>
<text text-anchor="middle" x="850" y="-6.5" font-family="Helvetica,sans-Serif" font-size="10.00">ImageView</text>
</a>
</g>
</g>
<!-- Node3&#45;&gt;Node4 -->
<g id="edge3" class="edge"><title>Node3&#45;&gt;Node4</title>
<path fill="none" stroke="midnightblue" d="M716.015,-20C724.457,-20 732.986,-20 741.432,-20"/>
<polygon fill="midnightblue" stroke="midnightblue" points="741.682,-23.5001 751.682,-20 741.682,-16.5001 741.682,-23.5001"/>
</g>
</g>
</svg>
