<?xml version="1.0" encoding="UTF-8" standalone="no"?>
<!DOCTYPE svg PUBLIC "-//W3C//DTD SVG 1.1//EN"
 "http://www.w3.org/Graphics/SVG/1.1/DTD/svg11.dtd">
<!-- Generated by graphviz version 2.36.0 (20140111.2315)
 -->
<!-- Title: gameAuthoring.scenes.WelcomeScene Pages: 1 -->
<svg width="413pt" height="108pt"
 viewBox="0.00 0.00 413.00 108.00" xmlns="http://www.w3.org/2000/svg" xmlns:xlink="http://www.w3.org/1999/xlink">
<g id="graph0" class="graph" transform="scale(1 1) rotate(0) translate(4 104)">
<title>gameAuthoring.scenes.WelcomeScene</title>
<polygon fill="white" stroke="none" points="-4,4 -4,-104 409,-104 409,4 -4,4"/>
<!-- Node1 -->
<g id="node1" class="node"><title>Node1</title>
<polygon fill="#bfbfbf" stroke="black" points="121.5,-1 121.5,-31 294.5,-31 294.5,-1 121.5,-1"/>
<text text-anchor="start" x="129.5" y="-19" font-family="Helvetica,sans-Serif" font-size="10.00">gameAuthoring.scenes.Welcome</text>
<text text-anchor="middle" x="208" y="-8" font-family="Helvetica,sans-Serif" font-size="10.00">Scene</text>
</g>
<!-- Node2 -->
<g id="node2" class="node"><title>Node2</title>
<polygon fill="white" stroke="#bfbfbf" points="-0.5,-80.5 -0.5,-99.5 70.5,-99.5 70.5,-80.5 -0.5,-80.5"/>
<text text-anchor="middle" x="35" y="-87.5" font-family="Helvetica,sans-Serif" font-size="10.00">Observable</text>
</g>
<!-- Node2&#45;&gt;Node1 -->
<g id="edge1" class="edge"><title>Node2&#45;&gt;Node1</title>
<path fill="none" stroke="midnightblue" d="M64.7684,-76.6108C95.175,-63.9561 142.313,-44.3378 174.129,-31.0968"/>
<polygon fill="midnightblue" stroke="midnightblue" points="63.4122,-73.3842 55.5247,-80.4579 66.1019,-79.8468 63.4122,-73.3842"/>
</g>
<!-- Node3 -->
<g id="node3" class="node"><title>Node3</title>
<polygon fill="white" stroke="#bfbfbf" points="88.5,-80.5 88.5,-99.5 129.5,-99.5 129.5,-80.5 88.5,-80.5"/>
<text text-anchor="middle" x="109" y="-87.5" font-family="Helvetica,sans-Serif" font-size="10.00">VBox</text>
</g>
<!-- Node3&#45;&gt;Node1 -->
<g id="edge2" class="edge"><title>Node3&#45;&gt;Node1</title>
<path fill="none" stroke="#9a32cd" stroke-dasharray="5,2" d="M128.669,-74.0207C138.352,-66.7046 150.232,-57.8154 161,-50 169.553,-43.7923 179.081,-37.0675 187.31,-31.3182"/>
<polygon fill="#9a32cd" stroke="#9a32cd" points="126.344,-71.3913 120.489,-80.2213 130.572,-76.9698 126.344,-71.3913"/>
<text text-anchor="middle" x="182.5" y="-53.5" font-family="Helvetica,sans-Serif" font-size="10.00"> myVBox</text>
</g>
<!-- Node4 -->
<g id="node4" class="node"><title>Node4</title>
<polygon fill="white" stroke="#bfbfbf" points="148,-80.5 148,-99.5 268,-99.5 268,-80.5 148,-80.5"/>
<text text-anchor="middle" x="208" y="-87.5" font-family="Helvetica,sans-Serif" font-size="10.00">ComboBox&lt; String &gt;</text>
</g>
<!-- Node4&#45;&gt;Node1 -->
<g id="edge3" class="edge"><title>Node4&#45;&gt;Node1</title>
<path fill="none" stroke="#9a32cd" stroke-dasharray="5,2" d="M208,-70.0846C208,-57.9148 208,-42.3538 208,-31.2316"/>
<polygon fill="#9a32cd" stroke="#9a32cd" points="204.5,-70.4579 208,-80.4579 211.5,-70.4579 204.5,-70.4579"/>
<text text-anchor="middle" x="247.5" y="-53.5" font-family="Helvetica,sans-Serif" font-size="10.00"> myLanguageCB</text>
</g>
<!-- Node5 -->
<g id="node5" class="node"><title>Node5</title>
<polygon fill="white" stroke="#bfbfbf" points="286.5,-80.5 286.5,-99.5 333.5,-99.5 333.5,-80.5 286.5,-80.5"/>
<text text-anchor="middle" x="310" y="-87.5" font-family="Helvetica,sans-Serif" font-size="10.00">Scene</text>
</g>
<!-- Node5&#45;&gt;Node1 -->
<g id="edge4" class="edge"><title>Node5&#45;&gt;Node1</title>
<path fill="none" stroke="#9a32cd" stroke-dasharray="5,2" d="M303.078,-71.2147C299.491,-63.8632 294.485,-55.7364 288,-50 278.997,-42.0367 267.809,-35.8277 256.68,-31.0544"/>
<polygon fill="#9a32cd" stroke="#9a32cd" points="299.901,-72.6842 307.095,-80.4617 306.321,-69.8952 299.901,-72.6842"/>
<text text-anchor="middle" x="322.5" y="-53.5" font-family="Helvetica,sans-Serif" font-size="10.00"> myScene</text>
</g>
<!-- Node6 -->
<g id="node6" class="node"><title>Node6</title>
<polygon fill="white" stroke="#bfbfbf" points="359,-80.5 359,-99.5 405,-99.5 405,-80.5 359,-80.5"/>
<text text-anchor="middle" x="382" y="-87.5" font-family="Helvetica,sans-Serif" font-size="10.00">Group</text>
</g>
<!-- Node6&#45;&gt;Node1 -->
<g id="edge5" class="edge"><title>Node6&#45;&gt;Node1</title>
<path fill="none" stroke="#9a32cd" stroke-dasharray="5,2" d="M372.195,-71.9434C366.876,-64.1404 359.622,-55.4414 351,-50 334.086,-39.3251 314.099,-32.094 294.514,-27.1984"/>
<polygon fill="#9a32cd" stroke="#9a32cd" points="369.242,-73.8233 377.514,-80.4429 375.176,-70.1094 369.242,-73.8233"/>
<text text-anchor="middle" x="376.5" y="-53.5" font-family="Helvetica,sans-Serif" font-size="10.00"> root</text>
</g>
</g>
</svg>
