<?xml version="1.0" encoding="UTF-8" standalone="no"?>
<!DOCTYPE svg PUBLIC "-//W3C//DTD SVG 1.1//EN"
 "http://www.w3.org/Graphics/SVG/1.1/DTD/svg11.dtd">
<!-- Generated by graphviz version 2.36.0 (20140111.2315)
 -->
<!-- Title: gamePlayer.guiItemsListeners.StoreListener.escapePlace Pages: 1 -->
<svg width="2368pt" height="324pt"
 viewBox="0.00 0.00 2368.00 324.11" xmlns="http://www.w3.org/2000/svg" xmlns:xlink="http://www.w3.org/1999/xlink">
<g id="graph0" class="graph" transform="scale(1 1) rotate(0) translate(4 320.111)">
<title>gamePlayer.guiItemsListeners.StoreListener.escapePlace</title>
<polygon fill="white" stroke="none" points="-4,4 -4,-320.111 2364,-320.111 2364,4 -4,4"/>
<!-- Node1 -->
<g id="node1" class="node"><title>Node1</title>
<polygon fill="#bfbfbf" stroke="black" points="0,-246 0,-276 164,-276 164,-246 0,-246"/>
<text text-anchor="start" x="8" y="-264" font-family="Helvetica,sans-Serif" font-size="10.00">gamePlayer.guiItemsListeners.</text>
<text text-anchor="middle" x="82" y="-253" font-family="Helvetica,sans-Serif" font-size="10.00">StoreListener.escapePlace</text>
</g>
<!-- Node2 -->
<g id="node2" class="node"><title>Node2</title>
<g id="a_node2"><a xlink:href="../../d1/dd3/classgame_player_1_1gui_items_1_1store_1_1_store.html#a9a8c7f92a7b3744d435a62b73a7277cd" target="_top" xlink:title="gamePlayer.guiItems.store.\lStore.checkEscape">
<polygon fill="white" stroke="black" points="200,-246 200,-276 348,-276 348,-246 200,-246"/>
<text text-anchor="start" x="208" y="-264" font-family="Helvetica,sans-Serif" font-size="10.00">gamePlayer.guiItems.store.</text>
<text text-anchor="middle" x="274" y="-253" font-family="Helvetica,sans-Serif" font-size="10.00">Store.checkEscape</text>
</a>
</g>
</g>
<!-- Node1&#45;&gt;Node2 -->
<g id="edge1" class="edge"><title>Node1&#45;&gt;Node2</title>
<path fill="none" stroke="midnightblue" d="M174.224,-261C182.854,-261 191.527,-261 199.955,-261"/>
<polygon fill="midnightblue" stroke="midnightblue" points="174.128,-257.5 164.128,-261 174.128,-264.5 174.128,-257.5"/>
</g>
<!-- Node3 -->
<g id="node3" class="node"><title>Node3</title>
<g id="a_node3"><a xlink:href="../../d1/dd3/classgame_player_1_1gui_items_1_1store_1_1_store.html#ac652ff32d9b01696f457c4684d22a5f2" target="_top" xlink:title="gamePlayer.guiItems.store.\lStore.placeTower">
<polygon fill="white" stroke="black" points="384,-246 384,-276 532,-276 532,-246 384,-246"/>
<text text-anchor="start" x="392" y="-264" font-family="Helvetica,sans-Serif" font-size="10.00">gamePlayer.guiItems.store.</text>
<text text-anchor="middle" x="458" y="-253" font-family="Helvetica,sans-Serif" font-size="10.00">Store.placeTower</text>
</a>
</g>
</g>
<!-- Node2&#45;&gt;Node3 -->
<g id="edge2" class="edge"><title>Node2&#45;&gt;Node3</title>
<path fill="none" stroke="midnightblue" d="M358.516,-261C366.992,-261 375.556,-261 383.91,-261"/>
<polygon fill="midnightblue" stroke="midnightblue" points="358.24,-257.5 348.24,-261 358.24,-264.5 358.24,-257.5"/>
</g>
<!-- Node4 -->
<g id="node4" class="node"><title>Node4</title>
<g id="a_node4"><a xlink:href="../../d1/dd3/classgame_player_1_1gui_items_1_1store_1_1_store.html#a3a475d789937d88d409aeac21ac44b73" target="_top" xlink:title="gamePlayer.guiItems.store.\lStore.addStoreItem">
<polygon fill="white" stroke="black" points="568,-246 568,-276 716,-276 716,-246 568,-246"/>
<text text-anchor="start" x="576" y="-264" font-family="Helvetica,sans-Serif" font-size="10.00">gamePlayer.guiItems.store.</text>
<text text-anchor="middle" x="642" y="-253" font-family="Helvetica,sans-Serif" font-size="10.00">Store.addStoreItem</text>
</a>
</g>
</g>
<!-- Node3&#45;&gt;Node4 -->
<g id="edge3" class="edge"><title>Node3&#45;&gt;Node4</title>
<path fill="none" stroke="midnightblue" d="M542.516,-261C550.992,-261 559.556,-261 567.91,-261"/>
<polygon fill="midnightblue" stroke="midnightblue" points="542.24,-257.5 532.24,-261 542.24,-264.5 542.24,-257.5"/>
</g>
<!-- Node5 -->
<g id="node5" class="node"><title>Node5</title>
<g id="a_node5"><a xlink:href="../../d1/dd3/classgame_player_1_1gui_items_1_1store_1_1_store.html#ad13bae4293f420c408c63393a7e2d0b7" target="_top" xlink:title="gamePlayer.guiItems.store.\lStore.fillStore">
<polygon fill="white" stroke="black" points="752,-246 752,-276 900,-276 900,-246 752,-246"/>
<text text-anchor="start" x="760" y="-264" font-family="Helvetica,sans-Serif" font-size="10.00">gamePlayer.guiItems.store.</text>
<text text-anchor="middle" x="826" y="-253" font-family="Helvetica,sans-Serif" font-size="10.00">Store.fillStore</text>
</a>
</g>
</g>
<!-- Node4&#45;&gt;Node5 -->
<g id="edge4" class="edge"><title>Node4&#45;&gt;Node5</title>
<path fill="none" stroke="midnightblue" d="M726.516,-261C734.992,-261 743.556,-261 751.91,-261"/>
<polygon fill="midnightblue" stroke="midnightblue" points="726.24,-257.5 716.24,-261 726.24,-264.5 726.24,-257.5"/>
</g>
<!-- Node6 -->
<g id="node6" class="node"><title>Node6</title>
<g id="a_node6"><a xlink:href="../../da/d69/classgame_player_1_1main_classes_1_1managers_1_1_gui_manager.html#ae2f2b1e5fe0b1dce495f5d8fabc99dd3" target="_top" xlink:title="gamePlayer.mainClasses.managers.\lGuiManager.fillStore">
<polygon fill="white" stroke="black" points="936.5,-246 936.5,-276 1127.5,-276 1127.5,-246 936.5,-246"/>
<text text-anchor="start" x="944.5" y="-264" font-family="Helvetica,sans-Serif" font-size="10.00">gamePlayer.mainClasses.managers.</text>
<text text-anchor="middle" x="1032" y="-253" font-family="Helvetica,sans-Serif" font-size="10.00">GuiManager.fillStore</text>
</a>
</g>
</g>
<!-- Node5&#45;&gt;Node6 -->
<g id="edge5" class="edge"><title>Node5&#45;&gt;Node6</title>
<path fill="none" stroke="midnightblue" d="M910.126,-261C918.776,-261 927.615,-261 936.38,-261"/>
<polygon fill="midnightblue" stroke="midnightblue" points="910.073,-257.5 900.072,-261 910.072,-264.5 910.073,-257.5"/>
</g>
<!-- Node7 -->
<g id="node7" class="node"><title>Node7</title>
<g id="a_node7"><a xlink:href="../../da/d69/classgame_player_1_1main_classes_1_1managers_1_1_gui_manager.html#a02a63a3d495b31cce0c4976f95758a49" target="_top" xlink:title="gamePlayer.mainClasses.managers.\lGuiManager.startGame">
<polygon fill="white" stroke="black" points="1173.5,-271 1173.5,-301 1364.5,-301 1364.5,-271 1173.5,-271"/>
<text text-anchor="start" x="1181.5" y="-289" font-family="Helvetica,sans-Serif" font-size="10.00">gamePlayer.mainClasses.managers.</text>
<text text-anchor="middle" x="1269" y="-278" font-family="Helvetica,sans-Serif" font-size="10.00">GuiManager.startGame</text>
</a>
</g>
</g>
<!-- Node6&#45;&gt;Node7 -->
<g id="edge6" class="edge"><title>Node6&#45;&gt;Node7</title>
<path fill="none" stroke="midnightblue" d="M1137.87,-272.156C1149.65,-273.409 1161.6,-274.681 1173.24,-275.919"/>
<polygon fill="midnightblue" stroke="midnightblue" points="1137.88,-268.638 1127.57,-271.06 1137.14,-275.599 1137.88,-268.638"/>
</g>
<!-- Node9 -->
<g id="node9" class="node"><title>Node9</title>
<g id="a_node9"><a xlink:href="../../da/d69/classgame_player_1_1main_classes_1_1managers_1_1_gui_manager.html#a6f0d5fa9c335707fd051fa83bd82f9bf" target="_top" xlink:title="gamePlayer.mainClasses.managers.\lGuiManager.initializeNewGameElements">
<polygon fill="white" stroke="black" points="1164.5,-222 1164.5,-252 1373.5,-252 1373.5,-222 1164.5,-222"/>
<text text-anchor="start" x="1172.5" y="-240" font-family="Helvetica,sans-Serif" font-size="10.00">gamePlayer.mainClasses.managers.</text>
<text text-anchor="middle" x="1269" y="-229" font-family="Helvetica,sans-Serif" font-size="10.00">GuiManager.initializeNewGameElements</text>
</a>
</g>
</g>
<!-- Node6&#45;&gt;Node9 -->
<g id="edge8" class="edge"><title>Node6&#45;&gt;Node9</title>
<path fill="none" stroke="midnightblue" d="M1137.57,-250.32C1146.48,-249.411 1155.49,-248.491 1164.39,-247.582"/>
<polygon fill="midnightblue" stroke="midnightblue" points="1137.16,-246.844 1127.57,-251.342 1137.87,-253.808 1137.16,-246.844"/>
</g>
<!-- Node8 -->
<g id="node8" class="node"><title>Node8</title>
<g id="a_node8"><a xlink:href="../../da/d69/classgame_player_1_1main_classes_1_1managers_1_1_gui_manager.html#a287842e1d39b7ecf2e13befeeafa1a7b" target="_top" xlink:title="gamePlayer.mainClasses.managers.\lGuiManager.loadGame">
<polygon fill="white" stroke="black" points="1410.5,-271 1410.5,-301 1601.5,-301 1601.5,-271 1410.5,-271"/>
<text text-anchor="start" x="1418.5" y="-289" font-family="Helvetica,sans-Serif" font-size="10.00">gamePlayer.mainClasses.managers.</text>
<text text-anchor="middle" x="1506" y="-278" font-family="Helvetica,sans-Serif" font-size="10.00">GuiManager.loadGame</text>
</a>
</g>
</g>
<!-- Node7&#45;&gt;Node8 -->
<g id="edge7" class="edge"><title>Node7&#45;&gt;Node8</title>
<path fill="none" stroke="midnightblue" d="M1374.87,-286C1386.65,-286 1398.6,-286 1410.24,-286"/>
<polygon fill="midnightblue" stroke="midnightblue" points="1374.57,-282.5 1364.57,-286 1374.57,-289.5 1374.57,-282.5"/>
</g>
<!-- Node10 -->
<g id="node10" class="node"><title>Node10</title>
<g id="a_node10"><a xlink:href="../../da/d69/classgame_player_1_1main_classes_1_1managers_1_1_gui_manager.html#aa9b035d2a17b73719ca8a26d8ebde9ce" target="_top" xlink:title="gamePlayer.mainClasses.managers.\lGuiManager.startSinglePlayerGame">
<polygon fill="white" stroke="black" points="1410.5,-222 1410.5,-252 1601.5,-252 1601.5,-222 1410.5,-222"/>
<text text-anchor="start" x="1418.5" y="-240" font-family="Helvetica,sans-Serif" font-size="10.00">gamePlayer.mainClasses.managers.</text>
<text text-anchor="middle" x="1506" y="-229" font-family="Helvetica,sans-Serif" font-size="10.00">GuiManager.startSinglePlayerGame</text>
</a>
</g>
</g>
<!-- Node9&#45;&gt;Node10 -->
<g id="edge9" class="edge"><title>Node9&#45;&gt;Node10</title>
<path fill="none" stroke="midnightblue" d="M1383.78,-237C1392.67,-237 1401.6,-237 1410.34,-237"/>
<polygon fill="midnightblue" stroke="midnightblue" points="1383.76,-233.5 1373.76,-237 1383.76,-240.5 1383.76,-233.5"/>
</g>
<!-- Node16 -->
<g id="node16" class="node"><title>Node16</title>
<g id="a_node16"><a xlink:href="../../da/d69/classgame_player_1_1main_classes_1_1managers_1_1_gui_manager.html#aa0b614e03bdec959e13e3d5ca2e1f614" target="_top" xlink:title="gamePlayer.mainClasses.managers.\lGuiManager.startMultiPlayerGame">
<polygon fill="white" stroke="black" points="1410.5,-141 1410.5,-171 1601.5,-171 1601.5,-141 1410.5,-141"/>
<text text-anchor="start" x="1418.5" y="-159" font-family="Helvetica,sans-Serif" font-size="10.00">gamePlayer.mainClasses.managers.</text>
<text text-anchor="middle" x="1506" y="-148" font-family="Helvetica,sans-Serif" font-size="10.00">GuiManager.startMultiPlayerGame</text>
</a>
</g>
</g>
<!-- Node9&#45;&gt;Node16 -->
<g id="edge15" class="edge"><title>Node9&#45;&gt;Node16</title>
<path fill="none" stroke="midnightblue" d="M1323.35,-218.61C1365.01,-204.252 1422.18,-184.547 1461.18,-171.102"/>
<polygon fill="midnightblue" stroke="midnightblue" points="1321.96,-215.387 1313.65,-221.954 1324.25,-222.005 1321.96,-215.387"/>
</g>
<!-- Node11 -->
<g id="node11" class="node"><title>Node11</title>
<g id="a_node11"><a xlink:href="../../da/d69/classgame_player_1_1main_classes_1_1managers_1_1_gui_manager.html#a3f657f0e3ba1e493d2dd02b5df5e03f6" target="_top" xlink:title="gamePlayer.mainClasses.managers.\lGuiManager.replayGame">
<polygon fill="white" stroke="black" points="1652.5,-195 1652.5,-225 1843.5,-225 1843.5,-195 1652.5,-195"/>
<text text-anchor="start" x="1660.5" y="-213" font-family="Helvetica,sans-Serif" font-size="10.00">gamePlayer.mainClasses.managers.</text>
<text text-anchor="middle" x="1748" y="-202" font-family="Helvetica,sans-Serif" font-size="10.00">GuiManager.replayGame</text>
</a>
</g>
</g>
<!-- Node10&#45;&gt;Node11 -->
<g id="edge10" class="edge"><title>Node10&#45;&gt;Node11</title>
<path fill="none" stroke="midnightblue" d="M1611.74,-225.217C1625.19,-223.704 1638.9,-222.161 1652.18,-220.667"/>
<polygon fill="midnightblue" stroke="midnightblue" points="1611.06,-221.772 1601.51,-226.368 1611.84,-228.728 1611.06,-221.772"/>
</g>
<!-- Node12 -->
<g id="node12" class="node"><title>Node12</title>
<g id="a_node12"><a xlink:href="../../d4/d3f/classgame_player_1_1main_classes_1_1managers_1_1_welcome_manager.html#a5da8d3f5b8bc1c4bd4c555140bd9384c" target="_top" xlink:title="gamePlayer.mainClasses.managers.\lWelcomeManager.startSinglePlayerGame">
<polygon fill="white" stroke="black" points="1894,-270 1894,-300 2108,-300 2108,-270 1894,-270"/>
<text text-anchor="start" x="1902" y="-288" font-family="Helvetica,sans-Serif" font-size="10.00">gamePlayer.mainClasses.managers.</text>
<text text-anchor="middle" x="2001" y="-277" font-family="Helvetica,sans-Serif" font-size="10.00">WelcomeManager.startSinglePlayerGame</text>
</a>
</g>
</g>
<!-- Node10&#45;&gt;Node12 -->
<g id="edge11" class="edge"><title>Node10&#45;&gt;Node12</title>
<path fill="none" stroke="midnightblue" d="M1588.02,-255.571C1592.84,-257.517 1597.54,-259.654 1602,-262 1620.69,-271.827 1618.21,-285.652 1638,-293 1737.45,-329.918 1863.08,-314.689 1937.17,-300.019"/>
<polygon fill="midnightblue" stroke="midnightblue" points="1589.23,-252.284 1578.63,-252.06 1586.77,-258.841 1589.23,-252.284"/>
</g>
<!-- Node14 -->
<g id="node14" class="node"><title>Node14</title>
<g id="a_node14"><a xlink:href="../../d3/dee/classgame_player_1_1main_classes_1_1welcome_screen_1_1_game_start_manager.html#a0c44b3f25d2a30fe2e7aeca9da7161a9" target="_top" xlink:title="gamePlayer.mainClasses.welcome\lScreen.GameStartManager.startSingle\lPlayerGame">
<polygon fill="white" stroke="black" points="1646.5,-243.5 1646.5,-284.5 1849.5,-284.5 1849.5,-243.5 1646.5,-243.5"/>
<text text-anchor="start" x="1654.5" y="-272.5" font-family="Helvetica,sans-Serif" font-size="10.00">gamePlayer.mainClasses.welcome</text>
<text text-anchor="start" x="1654.5" y="-261.5" font-family="Helvetica,sans-Serif" font-size="10.00">Screen.GameStartManager.startSingle</text>
<text text-anchor="middle" x="1748" y="-250.5" font-family="Helvetica,sans-Serif" font-size="10.00">PlayerGame</text>
</a>
</g>
</g>
<!-- Node10&#45;&gt;Node14 -->
<g id="edge13" class="edge"><title>Node10&#45;&gt;Node14</title>
<path fill="none" stroke="midnightblue" d="M1611.57,-248.764C1623.08,-250.059 1634.79,-251.376 1646.25,-252.666"/>
<polygon fill="midnightblue" stroke="midnightblue" points="1611.84,-245.272 1601.51,-247.632 1611.06,-252.228 1611.84,-245.272"/>
</g>
<!-- Node13 -->
<g id="node13" class="node"><title>Node13</title>
<g id="a_node13"><a xlink:href="../../d4/d3f/classgame_player_1_1main_classes_1_1managers_1_1_welcome_manager.html#ae6495396aef63551116c0835c40574e1" target="_top" xlink:title="gamePlayer.mainClasses.managers.\lWelcomeManager.startGame">
<polygon fill="white" stroke="black" points="2156.5,-220 2156.5,-250 2347.5,-250 2347.5,-220 2156.5,-220"/>
<text text-anchor="start" x="2164.5" y="-238" font-family="Helvetica,sans-Serif" font-size="10.00">gamePlayer.mainClasses.managers.</text>
<text text-anchor="middle" x="2252" y="-227" font-family="Helvetica,sans-Serif" font-size="10.00">WelcomeManager.startGame</text>
</a>
</g>
</g>
<!-- Node12&#45;&gt;Node13 -->
<g id="edge12" class="edge"><title>Node12&#45;&gt;Node13</title>
<path fill="none" stroke="midnightblue" d="M2086.79,-267.974C2115.71,-262.167 2147.82,-255.72 2175.91,-250.077"/>
<polygon fill="midnightblue" stroke="midnightblue" points="2085.82,-264.598 2076.71,-269.998 2087.2,-271.461 2085.82,-264.598"/>
</g>
<!-- Node15 -->
<g id="node15" class="node"><title>Node15</title>
<g id="a_node15"><a xlink:href="../../d3/dee/classgame_player_1_1main_classes_1_1welcome_screen_1_1_game_start_manager.html#a4ac849399bf00c6df86f0db25ea95ed8" target="_top" xlink:title="gamePlayer.mainClasses.welcome\lScreen.GameStartManager.startGame">
<polygon fill="white" stroke="black" points="2150.5,-143 2150.5,-173 2353.5,-173 2353.5,-143 2150.5,-143"/>
<text text-anchor="start" x="2158.5" y="-161" font-family="Helvetica,sans-Serif" font-size="10.00">gamePlayer.mainClasses.welcome</text>
<text text-anchor="middle" x="2252" y="-150" font-family="Helvetica,sans-Serif" font-size="10.00">Screen.GameStartManager.startGame</text>
</a>
</g>
</g>
<!-- Node14&#45;&gt;Node15 -->
<g id="edge14" class="edge"><title>Node14&#45;&gt;Node15</title>
<path fill="none" stroke="midnightblue" d="M1859.82,-253.115C1931.36,-244.674 2026.03,-230.845 2108,-210 2145.63,-200.429 2187.2,-184.704 2215.77,-173.048"/>
<polygon fill="midnightblue" stroke="midnightblue" points="1859.41,-249.639 1849.88,-254.271 1860.22,-256.592 1859.41,-249.639"/>
</g>
<!-- Node16&#45;&gt;Node11 -->
<g id="edge20" class="edge"><title>Node16&#45;&gt;Node11</title>
<path fill="none" stroke="midnightblue" d="M1583.75,-173.268C1614.74,-180.241 1650.17,-188.213 1680.09,-194.945"/>
<polygon fill="midnightblue" stroke="midnightblue" points="1584.38,-169.823 1573.85,-171.042 1582.84,-176.652 1584.38,-169.823"/>
</g>
<!-- Node17 -->
<g id="node17" class="node"><title>Node17</title>
<g id="a_node17"><a xlink:href="../../da/d69/classgame_player_1_1main_classes_1_1managers_1_1_gui_manager.html#ad50f462f8d45a5bbfc8a17290372a1ab" target="_top" xlink:title="gamePlayer.mainClasses.managers.\lGuiManager.joinMultiPlayerGame">
<polygon fill="white" stroke="black" points="1652.5,-27 1652.5,-57 1843.5,-57 1843.5,-27 1652.5,-27"/>
<text text-anchor="start" x="1660.5" y="-45" font-family="Helvetica,sans-Serif" font-size="10.00">gamePlayer.mainClasses.managers.</text>
<text text-anchor="middle" x="1748" y="-34" font-family="Helvetica,sans-Serif" font-size="10.00">GuiManager.joinMultiPlayerGame</text>
</a>
</g>
</g>
<!-- Node16&#45;&gt;Node17 -->
<g id="edge16" class="edge"><title>Node16&#45;&gt;Node17</title>
<path fill="none" stroke="midnightblue" d="M1532.25,-134.208C1557.41,-113.616 1597.97,-83.3658 1638,-66 1645.91,-62.5681 1654.36,-59.6041 1662.93,-57.0491"/>
<polygon fill="midnightblue" stroke="midnightblue" points="1529.79,-131.706 1524.33,-140.789 1534.26,-137.09 1529.79,-131.706"/>
</g>
<!-- Node21 -->
<g id="node21" class="node"><title>Node21</title>
<g id="a_node21"><a xlink:href="../../d4/d3f/classgame_player_1_1main_classes_1_1managers_1_1_welcome_manager.html#a55598dd2973b0a9b979151dd60c9e436" target="_top" xlink:title="gamePlayer.mainClasses.managers.\lWelcomeManager.pollEngineForMultiPlayer\lReadiness">
<polygon fill="white" stroke="black" points="1638.5,-135.5 1638.5,-176.5 1857.5,-176.5 1857.5,-135.5 1638.5,-135.5"/>
<text text-anchor="start" x="1646.5" y="-164.5" font-family="Helvetica,sans-Serif" font-size="10.00">gamePlayer.mainClasses.managers.</text>
<text text-anchor="start" x="1646.5" y="-153.5" font-family="Helvetica,sans-Serif" font-size="10.00">WelcomeManager.pollEngineForMultiPlayer</text>
<text text-anchor="middle" x="1748" y="-142.5" font-family="Helvetica,sans-Serif" font-size="10.00">Readiness</text>
</a>
</g>
</g>
<!-- Node16&#45;&gt;Node21 -->
<g id="edge21" class="edge"><title>Node16&#45;&gt;Node21</title>
<path fill="none" stroke="midnightblue" d="M1611.77,-156C1620.56,-156 1629.46,-156 1638.28,-156"/>
<polygon fill="midnightblue" stroke="midnightblue" points="1611.51,-152.5 1601.51,-156 1611.51,-159.5 1611.51,-152.5"/>
</g>
<!-- Node23 -->
<g id="node23" class="node"><title>Node23</title>
<g id="a_node23"><a xlink:href="../../d3/dee/classgame_player_1_1main_classes_1_1welcome_screen_1_1_game_start_manager.html#a5d5001d1ee14ae57deef01f6e3ddde31" target="_top" xlink:title="gamePlayer.mainClasses.welcome\lScreen.GameStartManager.pollEngine\lForMultiPlayerReadiness">
<polygon fill="white" stroke="black" points="1648,-75.5 1648,-116.5 1848,-116.5 1848,-75.5 1648,-75.5"/>
<text text-anchor="start" x="1656" y="-104.5" font-family="Helvetica,sans-Serif" font-size="10.00">gamePlayer.mainClasses.welcome</text>
<text text-anchor="start" x="1656" y="-93.5" font-family="Helvetica,sans-Serif" font-size="10.00">Screen.GameStartManager.pollEngine</text>
<text text-anchor="middle" x="1748" y="-82.5" font-family="Helvetica,sans-Serif" font-size="10.00">ForMultiPlayerReadiness</text>
</a>
</g>
</g>
<!-- Node16&#45;&gt;Node23 -->
<g id="edge24" class="edge"><title>Node16&#45;&gt;Node23</title>
<path fill="none" stroke="midnightblue" d="M1577.18,-138.456C1604.67,-131.582 1636.41,-123.648 1664.95,-116.511"/>
<polygon fill="midnightblue" stroke="midnightblue" points="1576.1,-135.116 1567.25,-140.937 1577.8,-141.907 1576.1,-135.116"/>
</g>
<!-- Node18 -->
<g id="node18" class="node"><title>Node18</title>
<g id="a_node18"><a xlink:href="../../d4/d3f/classgame_player_1_1main_classes_1_1managers_1_1_welcome_manager.html#a71a2a80cfe9d3a07d7becc506178acfd" target="_top" xlink:title="gamePlayer.mainClasses.managers.\lWelcomeManager.joinMultiPlayerGame">
<polygon fill="white" stroke="black" points="1900.5,-0 1900.5,-30 2101.5,-30 2101.5,-0 1900.5,-0"/>
<text text-anchor="start" x="1908.5" y="-18" font-family="Helvetica,sans-Serif" font-size="10.00">gamePlayer.mainClasses.managers.</text>
<text text-anchor="middle" x="2001" y="-7" font-family="Helvetica,sans-Serif" font-size="10.00">WelcomeManager.joinMultiPlayerGame</text>
</a>
</g>
</g>
<!-- Node17&#45;&gt;Node18 -->
<g id="edge17" class="edge"><title>Node17&#45;&gt;Node18</title>
<path fill="none" stroke="midnightblue" d="M1853.58,-30.7503C1868.98,-29.0941 1884.81,-27.3913 1900.11,-25.7456"/>
<polygon fill="midnightblue" stroke="midnightblue" points="1853.1,-27.2814 1843.53,-31.8309 1853.85,-34.2412 1853.1,-27.2814"/>
</g>
<!-- Node20 -->
<g id="node20" class="node"><title>Node20</title>
<g id="a_node20"><a xlink:href="../../d3/dee/classgame_player_1_1main_classes_1_1welcome_screen_1_1_game_start_manager.html#a7465850240e12e23aec544dbfd08f6a0" target="_top" xlink:title="gamePlayer.mainClasses.welcome\lScreen.GameStartManager.joinMulti\lPlayerGame">
<polygon fill="white" stroke="black" points="1906,-48.5 1906,-89.5 2096,-89.5 2096,-48.5 1906,-48.5"/>
<text text-anchor="start" x="1914" y="-77.5" font-family="Helvetica,sans-Serif" font-size="10.00">gamePlayer.mainClasses.welcome</text>
<text text-anchor="start" x="1914" y="-66.5" font-family="Helvetica,sans-Serif" font-size="10.00">Screen.GameStartManager.joinMulti</text>
<text text-anchor="middle" x="2001" y="-55.5" font-family="Helvetica,sans-Serif" font-size="10.00">PlayerGame</text>
</a>
</g>
</g>
<!-- Node17&#45;&gt;Node20 -->
<g id="edge19" class="edge"><title>Node17&#45;&gt;Node20</title>
<path fill="none" stroke="midnightblue" d="M1853.67,-53.2596C1871.02,-55.1253 1888.91,-57.0497 1905.97,-58.8849"/>
<polygon fill="midnightblue" stroke="midnightblue" points="1853.85,-49.7588 1843.53,-52.1691 1853.1,-56.7186 1853.85,-49.7588"/>
</g>
<!-- Node19 -->
<g id="node19" class="node"><title>Node19</title>
<g id="a_node19"><a xlink:href="../../d4/d3f/classgame_player_1_1main_classes_1_1managers_1_1_welcome_manager.html#aa605746e09c481b225463d37a82427e3" target="_top" xlink:title="gamePlayer.mainClasses.managers.\lWelcomeManager.startMultiPlayerOptions">
<polygon fill="white" stroke="black" points="2144.5,-0 2144.5,-30 2359.5,-30 2359.5,-0 2144.5,-0"/>
<text text-anchor="start" x="2152.5" y="-18" font-family="Helvetica,sans-Serif" font-size="10.00">gamePlayer.mainClasses.managers.</text>
<text text-anchor="middle" x="2252" y="-7" font-family="Helvetica,sans-Serif" font-size="10.00">WelcomeManager.startMultiPlayerOptions</text>
</a>
</g>
</g>
<!-- Node18&#45;&gt;Node19 -->
<g id="edge18" class="edge"><title>Node18&#45;&gt;Node19</title>
<path fill="none" stroke="midnightblue" d="M2112.03,-15C2122.72,-15 2133.55,-15 2144.2,-15"/>
<polygon fill="midnightblue" stroke="midnightblue" points="2111.84,-11.5001 2101.84,-15 2111.84,-18.5001 2111.84,-11.5001"/>
</g>
<!-- Node22 -->
<g id="node22" class="node"><title>Node22</title>
<g id="a_node22"><a xlink:href="../../d4/d3f/classgame_player_1_1main_classes_1_1managers_1_1_welcome_manager.html#a0669db103a94675dce875042258da508" target="_top" xlink:title="gamePlayer.mainClasses.managers.\lWelcomeManager.startMultiPlayerGame">
<polygon fill="white" stroke="black" points="1897.5,-171 1897.5,-201 2104.5,-201 2104.5,-171 1897.5,-171"/>
<text text-anchor="start" x="1905.5" y="-189" font-family="Helvetica,sans-Serif" font-size="10.00">gamePlayer.mainClasses.managers.</text>
<text text-anchor="middle" x="2001" y="-178" font-family="Helvetica,sans-Serif" font-size="10.00">WelcomeManager.startMultiPlayerGame</text>
</a>
</g>
</g>
<!-- Node21&#45;&gt;Node22 -->
<g id="edge22" class="edge"><title>Node21&#45;&gt;Node22</title>
<path fill="none" stroke="midnightblue" d="M1867.82,-170.201C1877.62,-171.373 1887.48,-172.551 1897.15,-173.707"/>
<polygon fill="midnightblue" stroke="midnightblue" points="1867.98,-166.696 1857.63,-168.984 1867.15,-173.646 1867.98,-166.696"/>
</g>
<!-- Node22&#45;&gt;Node13 -->
<g id="edge23" class="edge"><title>Node22&#45;&gt;Node13</title>
<path fill="none" stroke="midnightblue" d="M2088.22,-202.967C2116.36,-208.505 2147.39,-214.611 2174.74,-219.994"/>
<polygon fill="midnightblue" stroke="midnightblue" points="2088.89,-199.531 2078.4,-201.035 2087.54,-206.4 2088.89,-199.531"/>
</g>
<!-- Node24 -->
<g id="node24" class="node"><title>Node24</title>
<g id="a_node24"><a xlink:href="../../d3/dee/classgame_player_1_1main_classes_1_1welcome_screen_1_1_game_start_manager.html#a994c29260d6cb90abf19dca2b3463b6a" target="_top" xlink:title="gamePlayer.mainClasses.welcome\lScreen.GameStartManager.startMulti\lPlayerGame">
<polygon fill="white" stroke="black" points="1903,-109.5 1903,-150.5 2099,-150.5 2099,-109.5 1903,-109.5"/>
<text text-anchor="start" x="1911" y="-138.5" font-family="Helvetica,sans-Serif" font-size="10.00">gamePlayer.mainClasses.welcome</text>
<text text-anchor="start" x="1911" y="-127.5" font-family="Helvetica,sans-Serif" font-size="10.00">Screen.GameStartManager.startMulti</text>
<text text-anchor="middle" x="2001" y="-116.5" font-family="Helvetica,sans-Serif" font-size="10.00">PlayerGame</text>
</a>
</g>
</g>
<!-- Node23&#45;&gt;Node24 -->
<g id="edge25" class="edge"><title>Node23&#45;&gt;Node24</title>
<path fill="none" stroke="midnightblue" d="M1858.37,-110.815C1873.14,-112.815 1888.21,-114.857 1902.75,-116.827"/>
<polygon fill="midnightblue" stroke="midnightblue" points="1858.58,-107.312 1848.2,-109.438 1857.64,-114.248 1858.58,-107.312"/>
</g>
<!-- Node24&#45;&gt;Node15 -->
<g id="edge26" class="edge"><title>Node24&#45;&gt;Node15</title>
<path fill="none" stroke="midnightblue" d="M2109.64,-142.104C2123.19,-143.628 2137.01,-145.182 2150.45,-146.693"/>
<polygon fill="midnightblue" stroke="midnightblue" points="2109.67,-138.585 2099.34,-140.946 2108.89,-145.541 2109.67,-138.585"/>
</g>
</g>
</svg>
