<?xml version="1.0" encoding="UTF-8" standalone="no"?>
<!DOCTYPE svg PUBLIC "-//W3C//DTD SVG 1.1//EN"
 "http://www.w3.org/Graphics/SVG/1.1/DTD/svg11.dtd">
<!-- Generated by graphviz version 2.36.0 (20140111.2315)
 -->
<!-- Title: gamePlayer.unusedCodeWarehouse.guiItems.gameWorldZoom.ZoomWrapper.ZoomWrapper Pages: 1 -->
<svg width="796pt" height="136pt"
 viewBox="0.00 0.00 796.00 136.00" xmlns="http://www.w3.org/2000/svg" xmlns:xlink="http://www.w3.org/1999/xlink">
<g id="graph0" class="graph" transform="scale(1 1) rotate(0) translate(4 132)">
<title>gamePlayer.unusedCodeWarehouse.guiItems.gameWorldZoom.ZoomWrapper.ZoomWrapper</title>
<polygon fill="white" stroke="none" points="-4,4 -4,-132 792,-132 792,4 -4,4"/>
<!-- Node1 -->
<g id="node1" class="node"><title>Node1</title>
<polygon fill="#bfbfbf" stroke="black" points="0,-43.5 0,-84.5 232,-84.5 232,-43.5 0,-43.5"/>
<text text-anchor="start" x="8" y="-72.5" font-family="Helvetica,sans-Serif" font-size="10.00">gamePlayer.unusedCodeWarehouse.gui</text>
<text text-anchor="start" x="8" y="-61.5" font-family="Helvetica,sans-Serif" font-size="10.00">Items.gameWorldZoom.ZoomWrapper.Zoom</text>
<text text-anchor="middle" x="116" y="-50.5" font-family="Helvetica,sans-Serif" font-size="10.00">Wrapper</text>
</g>
<!-- Node2 -->
<g id="node2" class="node"><title>Node2</title>
<g id="a_node2"><a xlink:href="../../d8/d49/classgame_player_1_1unused_code_warehouse_1_1gui_items_1_1game_world_zoom_1_1_zoom_wrapper.html#abe1cbce6c91ec48c618faf7ca76a3fc1" target="_top" xlink:title="gamePlayer.unusedCodeWarehouse.gui\lItems.gameWorldZoom.ZoomWrapper.bound">
<polygon fill="white" stroke="black" points="268.5,-98 268.5,-128 501.5,-128 501.5,-98 268.5,-98"/>
<text text-anchor="start" x="276.5" y="-116" font-family="Helvetica,sans-Serif" font-size="10.00">gamePlayer.unusedCodeWarehouse.gui</text>
<text text-anchor="middle" x="385" y="-105" font-family="Helvetica,sans-Serif" font-size="10.00">Items.gameWorldZoom.ZoomWrapper.bound</text>
</a>
</g>
</g>
<!-- Node1&#45;&gt;Node2 -->
<g id="edge1" class="edge"><title>Node1&#45;&gt;Node2</title>
<path fill="none" stroke="midnightblue" d="M229.072,-84.5674C250.166,-88.4387 271.993,-92.4444 292.372,-96.1843"/>
<polygon fill="midnightblue" stroke="midnightblue" points="291.783,-99.6346 302.25,-97.9972 293.046,-92.7496 291.783,-99.6346"/>
</g>
<!-- Node3 -->
<g id="node3" class="node"><title>Node3</title>
<g id="a_node3"><a xlink:href="../../d8/d49/classgame_player_1_1unused_code_warehouse_1_1gui_items_1_1game_world_zoom_1_1_zoom_wrapper.html#a56d30338c6fc11f1a6a9fa452819e014" target="_top" xlink:title="gamePlayer.unusedCodeWarehouse.gui\lItems.gameWorldZoom.ZoomWrapper.scroll">
<polygon fill="white" stroke="black" points="271.5,-49 271.5,-79 498.5,-79 498.5,-49 271.5,-49"/>
<text text-anchor="start" x="279.5" y="-67" font-family="Helvetica,sans-Serif" font-size="10.00">gamePlayer.unusedCodeWarehouse.gui</text>
<text text-anchor="middle" x="385" y="-56" font-family="Helvetica,sans-Serif" font-size="10.00">Items.gameWorldZoom.ZoomWrapper.scroll</text>
</a>
</g>
</g>
<!-- Node1&#45;&gt;Node3 -->
<g id="edge2" class="edge"><title>Node1&#45;&gt;Node3</title>
<path fill="none" stroke="midnightblue" d="M232.169,-64C241.806,-64 251.574,-64 261.264,-64"/>
<polygon fill="midnightblue" stroke="midnightblue" points="261.327,-67.5001 271.327,-64 261.327,-60.5001 261.327,-67.5001"/>
</g>
<!-- Node5 -->
<g id="node5" class="node"><title>Node5</title>
<g id="a_node5"><a xlink:href="../../d8/d49/classgame_player_1_1unused_code_warehouse_1_1gui_items_1_1game_world_zoom_1_1_zoom_wrapper.html#ae70a430bdcd60d0743921078e4d22844" target="_top" xlink:title="gamePlayer.unusedCodeWarehouse.gui\lItems.gameWorldZoom.ZoomWrapper.zoom">
<polygon fill="white" stroke="black" points="270,-0 270,-30 500,-30 500,-0 270,-0"/>
<text text-anchor="start" x="278" y="-18" font-family="Helvetica,sans-Serif" font-size="10.00">gamePlayer.unusedCodeWarehouse.gui</text>
<text text-anchor="middle" x="385" y="-7" font-family="Helvetica,sans-Serif" font-size="10.00">Items.gameWorldZoom.ZoomWrapper.zoom</text>
</a>
</g>
</g>
<!-- Node1&#45;&gt;Node5 -->
<g id="edge4" class="edge"><title>Node1&#45;&gt;Node5</title>
<path fill="none" stroke="midnightblue" d="M229.072,-43.4326C250.166,-39.5613 271.993,-35.5556 292.372,-31.8157"/>
<polygon fill="midnightblue" stroke="midnightblue" points="293.046,-35.2504 302.25,-30.0028 291.783,-28.3654 293.046,-35.2504"/>
</g>
<!-- Node4 -->
<g id="node4" class="node"><title>Node4</title>
<g id="a_node4"><a xlink:href="../../d8/d49/classgame_player_1_1unused_code_warehouse_1_1gui_items_1_1game_world_zoom_1_1_zoom_wrapper.html#af4854fc2803cb5aada316aa7a5dd49bf" target="_top" xlink:title="gamePlayer.unusedCodeWarehouse.gui\lItems.gameWorldZoom.ZoomWrapper.reposition">
<polygon fill="white" stroke="black" points="538,-49 538,-79 788,-79 788,-49 538,-49"/>
<text text-anchor="start" x="546" y="-67" font-family="Helvetica,sans-Serif" font-size="10.00">gamePlayer.unusedCodeWarehouse.gui</text>
<text text-anchor="middle" x="663" y="-56" font-family="Helvetica,sans-Serif" font-size="10.00">Items.gameWorldZoom.ZoomWrapper.reposition</text>
</a>
</g>
</g>
<!-- Node3&#45;&gt;Node4 -->
<g id="edge3" class="edge"><title>Node3&#45;&gt;Node4</title>
<path fill="none" stroke="midnightblue" d="M498.658,-64C508.172,-64 517.852,-64 527.51,-64"/>
<polygon fill="midnightblue" stroke="midnightblue" points="527.558,-67.5001 537.558,-64 527.558,-60.5001 527.558,-67.5001"/>
</g>
</g>
</svg>
