<?xml version="1.0" encoding="UTF-8" standalone="no"?>
<!DOCTYPE svg PUBLIC "-//W3C//DTD SVG 1.1//EN"
 "http://www.w3.org/Graphics/SVG/1.1/DTD/svg11.dtd">
<!-- Generated by graphviz version 2.36.0 (20140111.2315)
 -->
<!-- Title: gamePlayer.unusedCodeWarehouse.guiItems.gameWorldZoom.ZoomWrapper.scroll Pages: 1 -->
<svg width="504pt" height="48pt"
 viewBox="0.00 0.00 504.00 48.00" xmlns="http://www.w3.org/2000/svg" xmlns:xlink="http://www.w3.org/1999/xlink">
<g id="graph0" class="graph" transform="scale(1 1) rotate(0) translate(4 44)">
<title>gamePlayer.unusedCodeWarehouse.guiItems.gameWorldZoom.ZoomWrapper.scroll</title>
<polygon fill="white" stroke="none" points="-4,4 -4,-44 500,-44 500,4 -4,4"/>
<!-- Node1 -->
<g id="node1" class="node"><title>Node1</title>
<polygon fill="#bfbfbf" stroke="black" points="0.5,-5 0.5,-35 227.5,-35 227.5,-5 0.5,-5"/>
<text text-anchor="start" x="8.5" y="-23" font-family="Helvetica,sans-Serif" font-size="10.00">gamePlayer.unusedCodeWarehouse.gui</text>
<text text-anchor="middle" x="114" y="-12" font-family="Helvetica,sans-Serif" font-size="10.00">Items.gameWorldZoom.ZoomWrapper.scroll</text>
</g>
<!-- Node2 -->
<g id="node2" class="node"><title>Node2</title>
<g id="a_node2"><a xlink:href="../../d8/d49/classgame_player_1_1unused_code_warehouse_1_1gui_items_1_1game_world_zoom_1_1_zoom_wrapper.html#a421034afef0848885c5b27781a776254" target="_top" xlink:title="gamePlayer.unusedCodeWarehouse.gui\lItems.gameWorldZoom.ZoomWrapper.Zoom\lWrapper">
<polygon fill="white" stroke="black" points="264,0.5 264,-40.5 496,-40.5 496,0.5 264,0.5"/>
<text text-anchor="start" x="272" y="-28.5" font-family="Helvetica,sans-Serif" font-size="10.00">gamePlayer.unusedCodeWarehouse.gui</text>
<text text-anchor="start" x="272" y="-17.5" font-family="Helvetica,sans-Serif" font-size="10.00">Items.gameWorldZoom.ZoomWrapper.Zoom</text>
<text text-anchor="middle" x="380" y="-6.5" font-family="Helvetica,sans-Serif" font-size="10.00">Wrapper</text>
</a>
</g>
</g>
<!-- Node1&#45;&gt;Node2 -->
<g id="edge1" class="edge"><title>Node1&#45;&gt;Node2</title>
<path fill="none" stroke="midnightblue" d="M237.818,-20C246.444,-20 255.123,-20 263.705,-20"/>
<polygon fill="midnightblue" stroke="midnightblue" points="237.726,-16.5001 227.726,-20 237.725,-23.5001 237.726,-16.5001"/>
</g>
</g>
</svg>
