<?xml version="1.0" encoding="UTF-8" standalone="no"?>
<!DOCTYPE svg PUBLIC "-//W3C//DTD SVG 1.1//EN"
 "http://www.w3.org/Graphics/SVG/1.1/DTD/svg11.dtd">
<!-- Generated by graphviz version 2.36.0 (20140111.2315)
 -->
<!-- Title: gameAuthoring.scenes.pathBuilding.buildingPanes.locationPane.EnemyStartingLocationsPane.addNewStartingLocation Pages: 1 -->
<!--zoomable 140 -->
<svg id="main" version="1.1" xmlns="http://www.w3.org/2000/svg" xmlns:xlink="http://www.w3.org/1999/xlink" xml:space="preserve" onload="init(evt)">
<style type="text/css"><![CDATA[
.edge:hover path { stroke: red; }
.edge:hover polygon { stroke: red; fill: red; }
]]></style>
<script type="text/javascript"><![CDATA[
var edges = document.getElementsByTagName('g');
if (edges && edges.length) {
  for (var i=0;i<edges.length;i++) {
    if (edges[i].id.substr(0,4)=='edge') {
      edges[i].setAttribute('class','edge');
    }
  }
}
]]></script>
        <defs>
                <circle id="rim" cx="0" cy="0" r="7"/>
                <circle id="rim2" cx="0" cy="0" r="3.5"/>
                <g id="zoomPlus">
                        <use xlink:href="#rim" fill="#404040">
                                <set attributeName="fill" to="#808080" begin="zoomplus.mouseover" end="zoomplus.mouseout"/>
                        </use>
                        <path d="M-4,0h8M0,-4v8" fill="none" stroke="white" stroke-width="1.5" pointer-events="none"/>
                </g>
                <g id="zoomMin">
                        <use xlink:href="#rim" fill="#404040">
                                <set attributeName="fill" to="#808080" begin="zoomminus.mouseover" end="zoomminus.mouseout"/>
                        </use>
                        <path d="M-4,0h8" fill="none" stroke="white" stroke-width="1.5" pointer-events="none"/>
                </g>
                <g id="dirArrow">
                        <path fill="none" stroke="white" stroke-width="1.5" d="M0,-3.0v7 M-2.5,-0.5L0,-3.0L2.5,-0.5"/>
                </g>
               <g id="resetDef">
                       <use xlink:href="#rim2" fill="#404040">
                               <set attributeName="fill" to="#808080" begin="reset.mouseover" end="reset.mouseout"/>
                       </use>
               </g>
        </defs>

<script type="text/javascript">
var viewWidth = 1356;
var viewHeight = 140;
var sectionId = 'dynsection-3';
</script>
<script xlink:href="../../svgpan.js"/>
<svg id="graph" class="graph">
<g id="viewport">
<title>gameAuthoring.scenes.pathBuilding.buildingPanes.locationPane.EnemyStartingLocationsPane.addNewStartingLocation</title>
<polygon fill="white" stroke="none" points="-4,4 -4,-136 1352,-136 1352,4 -4,4"/>
<!-- Node1 -->
<g id="node1" class="node"><title>Node1</title>
<polygon fill="#bfbfbf" stroke="black" points="0,-25 0,-77 224,-77 224,-25 0,-25"/>
<text text-anchor="start" x="8" y="-65" font-family="Helvetica,sans-Serif" font-size="10.00">gameAuthoring.scenes.path</text>
<text text-anchor="start" x="8" y="-54" font-family="Helvetica,sans-Serif" font-size="10.00">Building.buildingPanes.location</text>
<text text-anchor="start" x="8" y="-43" font-family="Helvetica,sans-Serif" font-size="10.00">Pane.EnemyStartingLocationsPane.addNew</text>
<text text-anchor="middle" x="112" y="-32" font-family="Helvetica,sans-Serif" font-size="10.00">StartingLocation</text>
</g>
<!-- Node2 -->
<g id="node2" class="node"><title>Node2</title>
<g id="a_node2"><a xlink:href="../../d1/d65/classgame_authoring_1_1scenes_1_1path_building_1_1path_components_1_1_path.html#abc0cce4638a30f00c66ee0051e93efa9" target="_top" xlink:title="gameAuthoring.scenes.path\lBuilding.pathComponents.Path.add\lStartingLocation">
<polygon fill="white" stroke="black" points="260.5,-60.5 260.5,-101.5 445.5,-101.5 445.5,-60.5 260.5,-60.5"/>
<text text-anchor="start" x="268.5" y="-89.5" font-family="Helvetica,sans-Serif" font-size="10.00">gameAuthoring.scenes.path</text>
<text text-anchor="start" x="268.5" y="-78.5" font-family="Helvetica,sans-Serif" font-size="10.00">Building.pathComponents.Path.add</text>
<text text-anchor="middle" x="353" y="-67.5" font-family="Helvetica,sans-Serif" font-size="10.00">StartingLocation</text>
</a>
</g>
</g>
<!-- Node1&#45;&gt;Node2 -->
<g id="edge1" class="edge"><title>Node1&#45;&gt;Node2</title>
<path fill="none" stroke="midnightblue" d="M224.104,-64.9461C232.778,-66.0349 241.511,-67.1311 250.12,-68.2117"/>
<polygon fill="midnightblue" stroke="midnightblue" points="249.799,-71.6988 260.157,-69.4716 250.671,-64.7533 249.799,-71.6988"/>
</g>
<!-- Node8 -->
<g id="node8" class="node"><title>Node8</title>
<g id="a_node8"><a xlink:href="../../d4/d78/classgame_authoring_1_1scenes_1_1path_building_1_1building_panes_1_1_building_pane.html#a3ac26edca7ff35acac2e93dd48281d2f" target="_top" xlink:title="gameAuthoring.scenes.path\lBuilding.buildingPanes.Building\lPane.drawLocation">
<polygon fill="white" stroke="black" points="271.5,-0.5 271.5,-41.5 434.5,-41.5 434.5,-0.5 271.5,-0.5"/>
<text text-anchor="start" x="279.5" y="-29.5" font-family="Helvetica,sans-Serif" font-size="10.00">gameAuthoring.scenes.path</text>
<text text-anchor="start" x="279.5" y="-18.5" font-family="Helvetica,sans-Serif" font-size="10.00">Building.buildingPanes.Building</text>
<text text-anchor="middle" x="353" y="-7.5" font-family="Helvetica,sans-Serif" font-size="10.00">Pane.drawLocation</text>
</a>
</g>
</g>
<!-- Node1&#45;&gt;Node8 -->
<g id="edge8" class="edge"><title>Node1&#45;&gt;Node8</title>
<path fill="none" stroke="midnightblue" d="M224.104,-37.0539C236.58,-35.4879 249.178,-33.9065 261.352,-32.3785"/>
<polygon fill="midnightblue" stroke="midnightblue" points="261.979,-35.8272 271.466,-31.1089 261.107,-28.8817 261.979,-35.8272"/>
</g>
<!-- Node3 -->
<g id="node3" class="node"><title>Node3</title>
<g id="a_node3"><a xlink:href="../../d1/d65/classgame_authoring_1_1scenes_1_1path_building_1_1path_components_1_1_path.html#a893183d1c19a9aef3ec0713f8762343d" target="_top" xlink:title="gameAuthoring.scenes.path\lBuilding.pathComponents.Path.can\lCreateLocationAtPoint">
<polygon fill="white" stroke="black" points="482.5,-60.5 482.5,-101.5 667.5,-101.5 667.5,-60.5 482.5,-60.5"/>
<text text-anchor="start" x="490.5" y="-89.5" font-family="Helvetica,sans-Serif" font-size="10.00">gameAuthoring.scenes.path</text>
<text text-anchor="start" x="490.5" y="-78.5" font-family="Helvetica,sans-Serif" font-size="10.00">Building.pathComponents.Path.can</text>
<text text-anchor="middle" x="575" y="-67.5" font-family="Helvetica,sans-Serif" font-size="10.00">CreateLocationAtPoint</text>
</a>
</g>
</g>
<!-- Node2&#45;&gt;Node3 -->
<g id="edge2" class="edge"><title>Node2&#45;&gt;Node3</title>
<path fill="none" stroke="midnightblue" d="M445.707,-81C454.53,-81 463.515,-81 472.425,-81"/>
<polygon fill="midnightblue" stroke="midnightblue" points="472.442,-84.5001 482.442,-81 472.442,-77.5001 472.442,-84.5001"/>
</g>
<!-- Node4 -->
<g id="node4" class="node"><title>Node4</title>
<g id="a_node4"><a xlink:href="../../d1/d65/classgame_authoring_1_1scenes_1_1path_building_1_1path_components_1_1_path.html#ac1221fd95019b7ec3bf9aac00eb52c14" target="_top" xlink:title="gameAuthoring.scenes.path\lBuilding.pathComponents.Path.is\lAnotherEndingLocationToClose">
<polygon fill="white" stroke="black" points="704.5,-90.5 704.5,-131.5 879.5,-131.5 879.5,-90.5 704.5,-90.5"/>
<text text-anchor="start" x="712.5" y="-119.5" font-family="Helvetica,sans-Serif" font-size="10.00">gameAuthoring.scenes.path</text>
<text text-anchor="start" x="712.5" y="-108.5" font-family="Helvetica,sans-Serif" font-size="10.00">Building.pathComponents.Path.is</text>
<text text-anchor="middle" x="792" y="-97.5" font-family="Helvetica,sans-Serif" font-size="10.00">AnotherEndingLocationToClose</text>
</a>
</g>
</g>
<!-- Node3&#45;&gt;Node4 -->
<g id="edge3" class="edge"><title>Node3&#45;&gt;Node4</title>
<path fill="none" stroke="midnightblue" d="M667.803,-93.8097C676.593,-95.0362 685.526,-96.2827 694.361,-97.5154"/>
<polygon fill="midnightblue" stroke="midnightblue" points="693.892,-100.984 704.28,-98.8995 694.86,-94.0511 693.892,-100.984"/>
</g>
<!-- Node7 -->
<g id="node7" class="node"><title>Node7</title>
<g id="a_node7"><a xlink:href="../../d1/d65/classgame_authoring_1_1scenes_1_1path_building_1_1path_components_1_1_path.html#a35ce4590ee29657f91cde1b00932282a" target="_top" xlink:title="gameAuthoring.scenes.path\lBuilding.pathComponents.Path.is\lAnotherStartingLocationToClose">
<polygon fill="white" stroke="black" points="704.5,-30.5 704.5,-71.5 879.5,-71.5 879.5,-30.5 704.5,-30.5"/>
<text text-anchor="start" x="712.5" y="-59.5" font-family="Helvetica,sans-Serif" font-size="10.00">gameAuthoring.scenes.path</text>
<text text-anchor="start" x="712.5" y="-48.5" font-family="Helvetica,sans-Serif" font-size="10.00">Building.pathComponents.Path.is</text>
<text text-anchor="middle" x="792" y="-37.5" font-family="Helvetica,sans-Serif" font-size="10.00">AnotherStartingLocationToClose</text>
</a>
</g>
</g>
<!-- Node3&#45;&gt;Node7 -->
<g id="edge6" class="edge"><title>Node3&#45;&gt;Node7</title>
<path fill="none" stroke="midnightblue" d="M667.803,-68.1903C676.593,-66.9638 685.526,-65.7173 694.361,-64.4846"/>
<polygon fill="midnightblue" stroke="midnightblue" points="694.86,-67.9489 704.28,-63.1005 693.892,-61.0161 694.86,-67.9489"/>
</g>
<!-- Node5 -->
<g id="node5" class="node"><title>Node5</title>
<g id="a_node5"><a xlink:href="../../d1/d65/classgame_authoring_1_1scenes_1_1path_building_1_1path_components_1_1_path.html#a963667d2ff2267b90db8c7acffb22a5d" target="_top" xlink:title="gameAuthoring.scenes.path\lBuilding.pathComponents.Path.is\lLocationCloseToPoint">
<polygon fill="white" stroke="black" points="916.5,-60.5 916.5,-101.5 1091.5,-101.5 1091.5,-60.5 916.5,-60.5"/>
<text text-anchor="start" x="924.5" y="-89.5" font-family="Helvetica,sans-Serif" font-size="10.00">gameAuthoring.scenes.path</text>
<text text-anchor="start" x="924.5" y="-78.5" font-family="Helvetica,sans-Serif" font-size="10.00">Building.pathComponents.Path.is</text>
<text text-anchor="middle" x="1004" y="-67.5" font-family="Helvetica,sans-Serif" font-size="10.00">LocationCloseToPoint</text>
</a>
</g>
</g>
<!-- Node4&#45;&gt;Node5 -->
<g id="edge4" class="edge"><title>Node4&#45;&gt;Node5</title>
<path fill="none" stroke="midnightblue" d="M879.627,-98.6246C888.411,-97.3699 897.371,-96.0898 906.253,-94.821"/>
<polygon fill="midnightblue" stroke="midnightblue" points="906.828,-98.2745 916.233,-93.3953 905.838,-91.3448 906.828,-98.2745"/>
</g>
<!-- Node6 -->
<g id="node6" class="node"><title>Node6</title>
<g id="a_node6"><a xlink:href="../../d3/d91/classgame_authoring_1_1scenes_1_1path_building_1_1enemy_locations_1_1_path_location.html#a8ec7f9674ee9080d0a9cf05a0f2cb55f" target="_top" xlink:title="gameAuthoring.scenes.path\lBuilding.enemyLocations.PathLocation.get\lCenterLoc">
<polygon fill="white" stroke="black" points="1128.5,-60.5 1128.5,-101.5 1347.5,-101.5 1347.5,-60.5 1128.5,-60.5"/>
<text text-anchor="start" x="1136.5" y="-89.5" font-family="Helvetica,sans-Serif" font-size="10.00">gameAuthoring.scenes.path</text>
<text text-anchor="start" x="1136.5" y="-78.5" font-family="Helvetica,sans-Serif" font-size="10.00">Building.enemyLocations.PathLocation.get</text>
<text text-anchor="middle" x="1238" y="-67.5" font-family="Helvetica,sans-Serif" font-size="10.00">CenterLoc</text>
</a>
</g>
</g>
<!-- Node5&#45;&gt;Node6 -->
<g id="edge5" class="edge"><title>Node5&#45;&gt;Node6</title>
<path fill="none" stroke="midnightblue" d="M1091.72,-81C1100.41,-81 1109.35,-81 1118.3,-81"/>
<polygon fill="midnightblue" stroke="midnightblue" points="1118.41,-84.5001 1128.41,-81 1118.41,-77.5001 1118.41,-84.5001"/>
</g>
<!-- Node7&#45;&gt;Node5 -->
<g id="edge7" class="edge"><title>Node7&#45;&gt;Node5</title>
<path fill="none" stroke="midnightblue" d="M879.627,-63.3754C888.411,-64.6301 897.371,-65.9102 906.253,-67.179"/>
<polygon fill="midnightblue" stroke="midnightblue" points="905.838,-70.6552 916.233,-68.6047 906.828,-63.7255 905.838,-70.6552"/>
</g>
<!-- Node9 -->
<g id="node9" class="node"><title>Node9</title>
<g id="a_node9"><a xlink:href="../../d4/d78/classgame_authoring_1_1scenes_1_1path_building_1_1building_panes_1_1_building_pane.html#a41c56b421d936126177667cf2c94afd4" target="_top" xlink:title="gameAuthoring.scenes.path\lBuilding.buildingPanes.Building\lPane.refreshScreen">
<polygon fill="white" stroke="black" points="493.5,-0.5 493.5,-41.5 656.5,-41.5 656.5,-0.5 493.5,-0.5"/>
<text text-anchor="start" x="501.5" y="-29.5" font-family="Helvetica,sans-Serif" font-size="10.00">gameAuthoring.scenes.path</text>
<text text-anchor="start" x="501.5" y="-18.5" font-family="Helvetica,sans-Serif" font-size="10.00">Building.buildingPanes.Building</text>
<text text-anchor="middle" x="575" y="-7.5" font-family="Helvetica,sans-Serif" font-size="10.00">Pane.refreshScreen</text>
</a>
</g>
</g>
<!-- Node8&#45;&gt;Node9 -->
<g id="edge9" class="edge"><title>Node8&#45;&gt;Node9</title>
<path fill="none" stroke="midnightblue" d="M434.671,-21C450.364,-21 466.916,-21 482.918,-21"/>
<polygon fill="midnightblue" stroke="midnightblue" points="483.339,-24.5001 493.339,-21 483.339,-17.5001 483.339,-24.5001"/>
</g>
</g>
</svg>
        <g id="navigator" transform="translate(0 0)" fill="#404254">
                <rect fill="#f2f5e9" fill-opacity="0.5" stroke="#606060" stroke-width=".5" x="0" y="0" width="60" height="60"/>
                <use id="zoomplus" xlink:href="#zoomPlus" x="17" y="9" onmousedown="handleZoom(evt,'in')"/>
                <use id="zoomminus" xlink:href="#zoomMin" x="42" y="9" onmousedown="handleZoom(evt,'out')"/>
                <use id="reset" xlink:href="#resetDef" x="30" y="36" onmousedown="handleReset()"/>
                <g id="arrowUp" xlink:href="#dirArrow" transform="translate(30 24)" onmousedown="handlePan(0,-1)">
                  <use xlink:href="#rim" fill="#404040">
                        <set attributeName="fill" to="#808080" begin="arrowUp.mouseover" end="arrowUp.mouseout"/>
                  </use>
                  <path fill="none" stroke="white" stroke-width="1.5" d="M0,-3.0v7 M-2.5,-0.5L0,-3.0L2.5,-0.5"/>
                </g>
                <g id="arrowRight" xlink:href="#dirArrow" transform="rotate(90) translate(36 -43)" onmousedown="handlePan(1,0)">
                  <use xlink:href="#rim" fill="#404040">
                        <set attributeName="fill" to="#808080" begin="arrowRight.mouseover" end="arrowRight.mouseout"/>
                  </use>
                  <path fill="none" stroke="white" stroke-width="1.5" d="M0,-3.0v7 M-2.5,-0.5L0,-3.0L2.5,-0.5"/>
                </g>
                <g id="arrowDown" xlink:href="#dirArrow" transform="rotate(180) translate(-30 -48)" onmousedown="handlePan(0,1)">
                  <use xlink:href="#rim" fill="#404040">
                        <set attributeName="fill" to="#808080" begin="arrowDown.mouseover" end="arrowDown.mouseout"/>
                  </use>
                  <path fill="none" stroke="white" stroke-width="1.5" d="M0,-3.0v7 M-2.5,-0.5L0,-3.0L2.5,-0.5"/>
                </g>
                <g id="arrowLeft" xlink:href="#dirArrow" transform="rotate(270) translate(-36 17)" onmousedown="handlePan(-1,0)">
                  <use xlink:href="#rim" fill="#404040">
                        <set attributeName="fill" to="#808080" begin="arrowLeft.mouseover" end="arrowLeft.mouseout"/>
                  </use>
                  <path fill="none" stroke="white" stroke-width="1.5" d="M0,-3.0v7 M-2.5,-0.5L0,-3.0L2.5,-0.5"/>
                </g>
        </g>
        <svg viewBox="0 0 15 15" width="100%" height="30px" preserveAspectRatio="xMaxYMin meet">
         <g id="arrow_out" transform="scale(0.3 0.3)">
          <a xlink:href="classgame_authoring_1_1scenes_1_1path_building_1_1building_panes_1_1location_pane_1_1_enemy_starting_locations_pane_a99da2d74595e2ced350eaa6979e94c34_cgraph_org.svg" target="_base">
           <rect id="button" ry="5" rx="5" y="6" x="6" height="38" width="38"
                fill="#f2f5e9" fill-opacity="0.5" stroke="#606060" stroke-width="1.0"/>
           <path id="arrow"
             d="M 11.500037,31.436501 C 11.940474,20.09759 22.043105,11.32322 32.158766,21.979434 L 37.068811,17.246167 C 37.068811,17.246167 37.088388,32 37.088388,32 L 22.160133,31.978069 C 22.160133,31.978069 26.997745,27.140456 26.997745,27.140456 C 18.528582,18.264221 13.291696,25.230495 11.500037,31.436501 z"
             style="fill:#404040;"/>
          </a>
         </g>
        </svg>
</svg>
