<?xml version="1.0" encoding="UTF-8" standalone="no"?>
<!DOCTYPE svg PUBLIC "-//W3C//DTD SVG 1.1//EN"
 "http://www.w3.org/Graphics/SVG/1.1/DTD/svg11.dtd">
<!-- Generated by graphviz version 2.36.0 (20140111.2315)
 -->
<!-- Title: gamePlayer.guiItems.welcome.Header Pages: 1 -->
<svg width="680pt" height="185pt"
 viewBox="0.00 0.00 680.00 185.00" xmlns="http://www.w3.org/2000/svg" xmlns:xlink="http://www.w3.org/1999/xlink">
<g id="graph0" class="graph" transform="scale(1 1) rotate(0) translate(4 181)">
<title>gamePlayer.guiItems.welcome.Header</title>
<polygon fill="white" stroke="none" points="-4,4 -4,-181 676,-181 676,4 -4,4"/>
<!-- Node1 -->
<g id="node1" class="node"><title>Node1</title>
<polygon fill="#bfbfbf" stroke="black" points="506.5,-71 506.5,-101 671.5,-101 671.5,-71 506.5,-71"/>
<text text-anchor="start" x="514.5" y="-89" font-family="Helvetica,sans-Serif" font-size="10.00">gamePlayer.guiItems.welcome.</text>
<text text-anchor="middle" x="589" y="-78" font-family="Helvetica,sans-Serif" font-size="10.00">Header</text>
</g>
<!-- Node2 -->
<g id="node2" class="node"><title>Node2</title>
<g id="a_node2"><a xlink:href="../../de/d25/interfacegame_player_1_1gui_items_1_1_gui_item.html" target="_top" xlink:title="gamePlayer.guiItems.GuiItem">
<polygon fill="white" stroke="black" points="261,-152.5 261,-171.5 419,-171.5 419,-152.5 261,-152.5"/>
<text text-anchor="middle" x="340" y="-159.5" font-family="Helvetica,sans-Serif" font-size="10.00">gamePlayer.guiItems.GuiItem</text>
</a>
</g>
</g>
<!-- Node2&#45;&gt;Node1 -->
<g id="edge1" class="edge"><title>Node2&#45;&gt;Node1</title>
<path fill="none" stroke="midnightblue" d="M392.024,-150.017C401.346,-147.746 410.976,-145.345 420,-143 450.371,-135.108 458.192,-133.806 488,-124 508.994,-117.094 532.078,-108.397 550.773,-101.067"/>
<polygon fill="midnightblue" stroke="midnightblue" points="390.971,-146.67 382.073,-152.422 392.616,-153.475 390.971,-146.67"/>
</g>
<!-- Node3 -->
<g id="node3" class="node"><title>Node3</title>
<g id="a_node3"><a xlink:href="../../d7/d02/interfacegame_player_1_1main_classes_1_1gui_builder_1_1_gui_element.html" target="_top" xlink:title="gamePlayer.mainClasses.gui\lBuilder.GuiElement">
<polygon fill="white" stroke="black" points="0,-147 0,-177 154,-177 154,-147 0,-147"/>
<text text-anchor="start" x="8" y="-165" font-family="Helvetica,sans-Serif" font-size="10.00">gamePlayer.mainClasses.gui</text>
<text text-anchor="middle" x="77" y="-154" font-family="Helvetica,sans-Serif" font-size="10.00">Builder.GuiElement</text>
</a>
</g>
</g>
<!-- Node3&#45;&gt;Node2 -->
<g id="edge2" class="edge"><title>Node3&#45;&gt;Node2</title>
<path fill="none" stroke="midnightblue" d="M164.585,-162C195.689,-162 230.56,-162 260.9,-162"/>
<polygon fill="midnightblue" stroke="midnightblue" points="164.194,-158.5 154.194,-162 164.194,-165.5 164.194,-158.5"/>
</g>
<!-- Node4 -->
<g id="node4" class="node"><title>Node4</title>
<polygon fill="white" stroke="#bfbfbf" points="306,-114.5 306,-133.5 374,-133.5 374,-114.5 306,-114.5"/>
<text text-anchor="middle" x="340" y="-121.5" font-family="Helvetica,sans-Serif" font-size="10.00">ImageView</text>
</g>
<!-- Node4&#45;&gt;Node1 -->
<g id="edge3" class="edge"><title>Node4&#45;&gt;Node1</title>
<path fill="none" stroke="#9a32cd" stroke-dasharray="5,2" d="M384.02,-117.382C417.663,-112.206 465.42,-104.859 506.267,-98.5743"/>
<polygon fill="#9a32cd" stroke="#9a32cd" points="383.407,-113.935 374.055,-118.915 384.471,-120.853 383.407,-113.935"/>
<text text-anchor="middle" x="463" y="-112" font-family="Helvetica,sans-Serif" font-size="10.00"> myImage</text>
</g>
<!-- Node5 -->
<g id="node5" class="node"><title>Node5</title>
<polygon fill="white" stroke="#bfbfbf" points="299.5,-76.5 299.5,-95.5 380.5,-95.5 380.5,-76.5 299.5,-76.5"/>
<text text-anchor="middle" x="340" y="-83.5" font-family="Helvetica,sans-Serif" font-size="10.00">Dimension2D</text>
</g>
<!-- Node5&#45;&gt;Node1 -->
<g id="edge4" class="edge"><title>Node5&#45;&gt;Node1</title>
<path fill="none" stroke="#9a32cd" stroke-dasharray="5,2" d="M391.025,-86C424.14,-86 468.328,-86 506.46,-86"/>
<polygon fill="#9a32cd" stroke="#9a32cd" points="390.685,-82.5001 380.685,-86 390.685,-89.5001 390.685,-82.5001"/>
<text text-anchor="middle" x="463" y="-89" font-family="Helvetica,sans-Serif" font-size="10.00"> mySize</text>
</g>
<!-- Node6 -->
<g id="node6" class="node"><title>Node6</title>
<g id="a_node6"><a xlink:href="../../df/db4/classutilities_1_1_x_m_l_parsing_1_1_x_m_l_parser.html" target="_top" xlink:title="utilities.XMLParsing.XMLParser">
<polygon fill="white" stroke="black" points="260,-38.5 260,-57.5 420,-57.5 420,-38.5 260,-38.5"/>
<text text-anchor="middle" x="340" y="-45.5" font-family="Helvetica,sans-Serif" font-size="10.00">utilities.XMLParsing.XMLParser</text>
</a>
</g>
</g>
<!-- Node6&#45;&gt;Node1 -->
<g id="edge5" class="edge"><title>Node6&#45;&gt;Node1</title>
<path fill="none" stroke="#9a32cd" stroke-dasharray="5,2" d="M413.134,-59.0975C442.346,-63.5918 476.224,-68.8038 506.339,-73.4367"/>
<polygon fill="#9a32cd" stroke="#9a32cd" points="413.426,-55.6013 403.01,-57.54 412.361,-62.5199 413.426,-55.6013"/>
<text text-anchor="middle" x="463" y="-74" font-family="Helvetica,sans-Serif" font-size="10.00"> myParser</text>
</g>
<!-- Node7 -->
<g id="node7" class="node"><title>Node7</title>
<polygon fill="white" stroke="#bfbfbf" points="43.5,-38.5 43.5,-57.5 110.5,-57.5 110.5,-38.5 43.5,-38.5"/>
<text text-anchor="middle" x="77" y="-45.5" font-family="Helvetica,sans-Serif" font-size="10.00">Document</text>
</g>
<!-- Node7&#45;&gt;Node6 -->
<g id="edge6" class="edge"><title>Node7&#45;&gt;Node6</title>
<path fill="none" stroke="#9a32cd" stroke-dasharray="5,2" d="M120.641,-48C158.292,-48 214.161,-48 259.961,-48"/>
<polygon fill="#9a32cd" stroke="#9a32cd" points="120.528,-44.5001 110.528,-48 120.528,-51.5001 120.528,-44.5001"/>
<text text-anchor="middle" x="207" y="-51" font-family="Helvetica,sans-Serif" font-size="10.00"> myDocument</text>
</g>
<!-- Node8 -->
<g id="node8" class="node"><title>Node8</title>
<polygon fill="white" stroke="#bfbfbf" points="319,-0.5 319,-19.5 361,-19.5 361,-0.5 319,-0.5"/>
<text text-anchor="middle" x="340" y="-7.5" font-family="Helvetica,sans-Serif" font-size="10.00">HBox</text>
</g>
<!-- Node8&#45;&gt;Node1 -->
<g id="edge7" class="edge"><title>Node8&#45;&gt;Node1</title>
<path fill="none" stroke="#9a32cd" stroke-dasharray="5,2" d="M371.294,-16.9115C386.035,-20.3699 403.989,-24.7228 420,-29 450.435,-37.1302 458.099,-39.084 488,-49 508.382,-55.7591 530.825,-63.9897 549.276,-70.9705"/>
<polygon fill="#9a32cd" stroke="#9a32cd" points="371.735,-13.4206 361.202,-14.5652 370.149,-20.2388 371.735,-13.4206"/>
<text text-anchor="middle" x="463" y="-52" font-family="Helvetica,sans-Serif" font-size="10.00"> myRoot</text>
</g>
</g>
</svg>
