<?xml version="1.0" encoding="UTF-8" standalone="no"?>
<!DOCTYPE svg PUBLIC "-//W3C//DTD SVG 1.1//EN"
 "http://www.w3.org/Graphics/SVG/1.1/DTD/svg11.dtd">
<!-- Generated by graphviz version 2.36.0 (20140111.2315)
 -->
<!-- Title: gameAuthoring.scenes.levelBuilding.EnemyCountPair.getMyNumEnemies Pages: 1 -->
<svg width="856pt" height="48pt"
 viewBox="0.00 0.00 856.00 48.00" xmlns="http://www.w3.org/2000/svg" xmlns:xlink="http://www.w3.org/1999/xlink">
<g id="graph0" class="graph" transform="scale(1 1) rotate(0) translate(4 44)">
<title>gameAuthoring.scenes.levelBuilding.EnemyCountPair.getMyNumEnemies</title>
<polygon fill="white" stroke="none" points="-4,4 -4,-44 852,-44 852,4 -4,4"/>
<!-- Node1 -->
<g id="node1" class="node"><title>Node1</title>
<polygon fill="#bfbfbf" stroke="black" points="0.5,0.5 0.5,-40.5 191.5,-40.5 191.5,0.5 0.5,0.5"/>
<text text-anchor="start" x="8.5" y="-28.5" font-family="Helvetica,sans-Serif" font-size="10.00">gameAuthoring.scenes.level</text>
<text text-anchor="start" x="8.5" y="-17.5" font-family="Helvetica,sans-Serif" font-size="10.00">Building.EnemyCountPair.getMyNum</text>
<text text-anchor="middle" x="96" y="-6.5" font-family="Helvetica,sans-Serif" font-size="10.00">Enemies</text>
</g>
<!-- Node2 -->
<g id="node2" class="node"><title>Node2</title>
<g id="a_node2"><a xlink:href="../../da/dc8/classgame_engine_1_1levels_1_1_base_level.html#a3bb35c46c9b89cd4492d361f3b698c10" target="_top" xlink:title="gameEngine.levels.BaseLevel.add\lEnemyCountPair">
<polygon fill="white" stroke="black" points="228.5,-5 228.5,-35 407.5,-35 407.5,-5 228.5,-5"/>
<text text-anchor="start" x="236.5" y="-23" font-family="Helvetica,sans-Serif" font-size="10.00">gameEngine.levels.BaseLevel.add</text>
<text text-anchor="middle" x="318" y="-12" font-family="Helvetica,sans-Serif" font-size="10.00">EnemyCountPair</text>
</a>
</g>
</g>
<!-- Node1&#45;&gt;Node2 -->
<g id="edge1" class="edge"><title>Node1&#45;&gt;Node2</title>
<path fill="none" stroke="midnightblue" d="M201.653,-20C210.607,-20 219.608,-20 228.419,-20"/>
<polygon fill="midnightblue" stroke="midnightblue" points="201.577,-16.5001 191.577,-20 201.577,-23.5001 201.577,-16.5001"/>
</g>
<!-- Node3 -->
<g id="node3" class="node"><title>Node3</title>
<g id="a_node3"><a xlink:href="../../da/d10/classgame_authoring_1_1scenes_1_1level_building_1_1_level_display_cell.html#a5c088c395aefa2404d56d7e35bf5f31a" target="_top" xlink:title="gameAuthoring.scenes.level\lBuilding.LevelDisplayCell.generateLevel">
<polygon fill="white" stroke="black" points="444.5,-5 444.5,-35 649.5,-35 649.5,-5 444.5,-5"/>
<text text-anchor="start" x="452.5" y="-23" font-family="Helvetica,sans-Serif" font-size="10.00">gameAuthoring.scenes.level</text>
<text text-anchor="middle" x="547" y="-12" font-family="Helvetica,sans-Serif" font-size="10.00">Building.LevelDisplayCell.generateLevel</text>
</a>
</g>
</g>
<!-- Node2&#45;&gt;Node3 -->
<g id="edge2" class="edge"><title>Node2&#45;&gt;Node3</title>
<path fill="none" stroke="midnightblue" d="M417.89,-20C426.594,-20 435.414,-20 444.141,-20"/>
<polygon fill="midnightblue" stroke="midnightblue" points="417.739,-16.5001 407.739,-20 417.739,-23.5001 417.739,-16.5001"/>
</g>
<!-- Node4 -->
<g id="node4" class="node"><title>Node4</title>
<g id="a_node4"><a xlink:href="../../da/d10/classgame_authoring_1_1scenes_1_1level_building_1_1_level_display_cell.html#a7c364973b2428267a31e0a8e7be0238f" target="_top" xlink:title="gameAuthoring.scenes.level\lBuilding.LevelDisplayCell.Level\lDisplayCell">
<polygon fill="white" stroke="black" points="686.5,0.5 686.5,-40.5 847.5,-40.5 847.5,0.5 686.5,0.5"/>
<text text-anchor="start" x="694.5" y="-28.5" font-family="Helvetica,sans-Serif" font-size="10.00">gameAuthoring.scenes.level</text>
<text text-anchor="start" x="694.5" y="-17.5" font-family="Helvetica,sans-Serif" font-size="10.00">Building.LevelDisplayCell.Level</text>
<text text-anchor="middle" x="767" y="-6.5" font-family="Helvetica,sans-Serif" font-size="10.00">DisplayCell</text>
</a>
</g>
</g>
<!-- Node3&#45;&gt;Node4 -->
<g id="edge3" class="edge"><title>Node3&#45;&gt;Node4</title>
<path fill="none" stroke="midnightblue" d="M659.783,-20C668.75,-20 677.693,-20 686.367,-20"/>
<polygon fill="midnightblue" stroke="midnightblue" points="659.66,-16.5001 649.66,-20 659.66,-23.5001 659.66,-16.5001"/>
</g>
</g>
</svg>
