<?xml version="1.0" encoding="UTF-8" standalone="no"?>
<!DOCTYPE svg PUBLIC "-//W3C//DTD SVG 1.1//EN"
 "http://www.w3.org/Graphics/SVG/1.1/DTD/svg11.dtd">
<!-- Generated by graphviz version 2.36.0 (20140111.2315)
 -->
<!-- Title: gamePlayer.guiItems.controlDockButtons.ControlDockButton.setUpSizing Pages: 1 -->
<svg width="460pt" height="87pt"
 viewBox="0.00 0.00 460.00 87.00" xmlns="http://www.w3.org/2000/svg" xmlns:xlink="http://www.w3.org/1999/xlink">
<g id="graph0" class="graph" transform="scale(1 1) rotate(0) translate(4 83)">
<title>gamePlayer.guiItems.controlDockButtons.ControlDockButton.setUpSizing</title>
<polygon fill="white" stroke="none" points="-4,4 -4,-83 456,-83 456,4 -4,4"/>
<!-- Node1 -->
<g id="node1" class="node"><title>Node1</title>
<polygon fill="#bfbfbf" stroke="black" points="0,-18.5 0,-59.5 190,-59.5 190,-18.5 0,-18.5"/>
<text text-anchor="start" x="8" y="-47.5" font-family="Helvetica,sans-Serif" font-size="10.00">gamePlayer.guiItems.control</text>
<text text-anchor="start" x="8" y="-36.5" font-family="Helvetica,sans-Serif" font-size="10.00">DockButtons.ControlDockButton.set</text>
<text text-anchor="middle" x="95" y="-25.5" font-family="Helvetica,sans-Serif" font-size="10.00">UpSizing</text>
</g>
<!-- Node2 -->
<g id="node2" class="node"><title>Node2</title>
<g id="a_node2"><a xlink:href="../../dd/d15/classgame_player_1_1gui_items_1_1control_dock_buttons_1_1buttons_1_1_speed_button.html#a2f0f314f2da9b1f6dd374976c3619734" target="_top" xlink:title="gamePlayer.guiItems.control\lDockButtons.buttons.SpeedButton.initialize">
<polygon fill="white" stroke="black" points="226.5,-49 226.5,-79 451.5,-79 451.5,-49 226.5,-49"/>
<text text-anchor="start" x="234.5" y="-67" font-family="Helvetica,sans-Serif" font-size="10.00">gamePlayer.guiItems.control</text>
<text text-anchor="middle" x="339" y="-56" font-family="Helvetica,sans-Serif" font-size="10.00">DockButtons.buttons.SpeedButton.initialize</text>
</a>
</g>
</g>
<!-- Node1&#45;&gt;Node2 -->
<g id="edge1" class="edge"><title>Node1&#45;&gt;Node2</title>
<path fill="none" stroke="midnightblue" d="M200.297,-49.7745C208.904,-50.6636 217.625,-51.5646 226.283,-52.459"/>
<polygon fill="midnightblue" stroke="midnightblue" points="200.563,-46.2834 190.256,-48.7372 199.844,-53.2464 200.563,-46.2834"/>
</g>
<!-- Node3 -->
<g id="node3" class="node"><title>Node3</title>
<g id="a_node3"><a xlink:href="../../da/d25/classgame_player_1_1gui_items_1_1control_dock_buttons_1_1buttons_1_1_play_button.html#a6fda47484fb3443433041dadb8c2b2c1" target="_top" xlink:title="gamePlayer.guiItems.control\lDockButtons.buttons.PlayButton.initialize">
<polygon fill="white" stroke="black" points="232,-0 232,-30 446,-30 446,-0 232,-0"/>
<text text-anchor="start" x="240" y="-18" font-family="Helvetica,sans-Serif" font-size="10.00">gamePlayer.guiItems.control</text>
<text text-anchor="middle" x="339" y="-7" font-family="Helvetica,sans-Serif" font-size="10.00">DockButtons.buttons.PlayButton.initialize</text>
</a>
</g>
</g>
<!-- Node1&#45;&gt;Node3 -->
<g id="edge2" class="edge"><title>Node1&#45;&gt;Node3</title>
<path fill="none" stroke="midnightblue" d="M200.262,-28.66C210.764,-27.6185 221.437,-26.56 231.957,-25.5167"/>
<polygon fill="midnightblue" stroke="midnightblue" points="199.862,-25.1824 190.256,-29.6523 200.553,-32.1482 199.862,-25.1824"/>
</g>
</g>
</svg>
