<?xml version="1.0" encoding="UTF-8" standalone="no"?>
<!DOCTYPE svg PUBLIC "-//W3C//DTD SVG 1.1//EN"
 "http://www.w3.org/Graphics/SVG/1.1/DTD/svg11.dtd">
<!-- Generated by graphviz version 2.36.0 (20140111.2315)
 -->
<!-- Title: gamePlayer.guiItems.controlDockButtons.ControlDockButton.setupImageViews Pages: 1 -->
<svg width="472pt" height="87pt"
 viewBox="0.00 0.00 472.00 87.00" xmlns="http://www.w3.org/2000/svg" xmlns:xlink="http://www.w3.org/1999/xlink">
<g id="graph0" class="graph" transform="scale(1 1) rotate(0) translate(4 83)">
<title>gamePlayer.guiItems.controlDockButtons.ControlDockButton.setupImageViews</title>
<polygon fill="white" stroke="none" points="-4,4 -4,-83 468,-83 468,4 -4,4"/>
<!-- Node1 -->
<g id="node1" class="node"><title>Node1</title>
<polygon fill="#bfbfbf" stroke="black" points="0,-18.5 0,-59.5 202,-59.5 202,-18.5 0,-18.5"/>
<text text-anchor="start" x="8" y="-47.5" font-family="Helvetica,sans-Serif" font-size="10.00">gamePlayer.guiItems.control</text>
<text text-anchor="start" x="8" y="-36.5" font-family="Helvetica,sans-Serif" font-size="10.00">DockButtons.ControlDockButton.setup</text>
<text text-anchor="middle" x="101" y="-25.5" font-family="Helvetica,sans-Serif" font-size="10.00">ImageViews</text>
</g>
<!-- Node2 -->
<g id="node2" class="node"><title>Node2</title>
<g id="a_node2"><a xlink:href="../../dd/d15/classgame_player_1_1gui_items_1_1control_dock_buttons_1_1buttons_1_1_speed_button.html#a2f0f314f2da9b1f6dd374976c3619734" target="_top" xlink:title="gamePlayer.guiItems.control\lDockButtons.buttons.SpeedButton.initialize">
<polygon fill="white" stroke="black" points="238.5,-49 238.5,-79 463.5,-79 463.5,-49 238.5,-49"/>
<text text-anchor="start" x="246.5" y="-67" font-family="Helvetica,sans-Serif" font-size="10.00">gamePlayer.guiItems.control</text>
<text text-anchor="middle" x="351" y="-56" font-family="Helvetica,sans-Serif" font-size="10.00">DockButtons.buttons.SpeedButton.initialize</text>
</a>
</g>
</g>
<!-- Node1&#45;&gt;Node2 -->
<g id="edge1" class="edge"><title>Node1&#45;&gt;Node2</title>
<path fill="none" stroke="midnightblue" d="M212.199,-50.1088C220.798,-50.9756 229.486,-51.8514 238.096,-52.7194"/>
<polygon fill="midnightblue" stroke="midnightblue" points="212.457,-46.6171 202.156,-49.0964 211.755,-53.5818 212.457,-46.6171"/>
</g>
<!-- Node3 -->
<g id="node3" class="node"><title>Node3</title>
<g id="a_node3"><a xlink:href="../../da/d25/classgame_player_1_1gui_items_1_1control_dock_buttons_1_1buttons_1_1_play_button.html#a6fda47484fb3443433041dadb8c2b2c1" target="_top" xlink:title="gamePlayer.guiItems.control\lDockButtons.buttons.PlayButton.initialize">
<polygon fill="white" stroke="black" points="244,-0 244,-30 458,-30 458,-0 244,-0"/>
<text text-anchor="start" x="252" y="-18" font-family="Helvetica,sans-Serif" font-size="10.00">gamePlayer.guiItems.control</text>
<text text-anchor="middle" x="351" y="-7" font-family="Helvetica,sans-Serif" font-size="10.00">DockButtons.buttons.PlayButton.initialize</text>
</a>
</g>
</g>
<!-- Node1&#45;&gt;Node3 -->
<g id="edge2" class="edge"><title>Node1&#45;&gt;Node3</title>
<path fill="none" stroke="midnightblue" d="M212.18,-28.3374C222.688,-27.3205 233.33,-26.2906 243.8,-25.2774"/>
<polygon fill="midnightblue" stroke="midnightblue" points="211.773,-24.8604 202.156,-29.3075 212.447,-31.8279 211.773,-24.8604"/>
</g>
</g>
</svg>
