<?xml version="1.0" encoding="UTF-8" standalone="no"?>
<!DOCTYPE svg PUBLIC "-//W3C//DTD SVG 1.1//EN"
 "http://www.w3.org/Graphics/SVG/1.1/DTD/svg11.dtd">
<!-- Generated by graphviz version 2.36.0 (20140111.2315)
 -->
<!-- Title: gamePlayer.guiItems.controlDockButtons.ControlDockButton.setUpSizing Pages: 1 -->
<svg width="1054pt" height="48pt"
 viewBox="0.00 0.00 1054.00 48.00" xmlns="http://www.w3.org/2000/svg" xmlns:xlink="http://www.w3.org/1999/xlink">
<g id="graph0" class="graph" transform="scale(1 1) rotate(0) translate(4 44)">
<title>gamePlayer.guiItems.controlDockButtons.ControlDockButton.setUpSizing</title>
<polygon fill="white" stroke="none" points="-4,4 -4,-44 1050,-44 1050,4 -4,4"/>
<!-- Node1 -->
<g id="node1" class="node"><title>Node1</title>
<polygon fill="#bfbfbf" stroke="black" points="0,0.5 0,-40.5 190,-40.5 190,0.5 0,0.5"/>
<text text-anchor="start" x="8" y="-28.5" font-family="Helvetica,sans-Serif" font-size="10.00">gamePlayer.guiItems.control</text>
<text text-anchor="start" x="8" y="-17.5" font-family="Helvetica,sans-Serif" font-size="10.00">DockButtons.ControlDockButton.set</text>
<text text-anchor="middle" x="95" y="-6.5" font-family="Helvetica,sans-Serif" font-size="10.00">UpSizing</text>
</g>
<!-- Node2 -->
<g id="node2" class="node"><title>Node2</title>
<g id="a_node2"><a xlink:href="../../df/db4/classutilities_1_1_x_m_l_parsing_1_1_x_m_l_parser.html#aac8c276e1fe06546bb4cc6488dd15047" target="_top" xlink:title="utilities.XMLParsing.XMLParser.get\lDimension">
<polygon fill="white" stroke="black" points="226,-5 226,-35 404,-35 404,-5 226,-5"/>
<text text-anchor="start" x="234" y="-23" font-family="Helvetica,sans-Serif" font-size="10.00">utilities.XMLParsing.XMLParser.get</text>
<text text-anchor="middle" x="315" y="-12" font-family="Helvetica,sans-Serif" font-size="10.00">Dimension</text>
</a>
</g>
</g>
<!-- Node1&#45;&gt;Node2 -->
<g id="edge1" class="edge"><title>Node1&#45;&gt;Node2</title>
<path fill="none" stroke="midnightblue" d="M190.033,-20C198.565,-20 207.22,-20 215.786,-20"/>
<polygon fill="midnightblue" stroke="midnightblue" points="215.788,-23.5001 225.788,-20 215.788,-16.5001 215.788,-23.5001"/>
</g>
<!-- Node3 -->
<g id="node3" class="node"><title>Node3</title>
<g id="a_node3"><a xlink:href="../../df/db4/classutilities_1_1_x_m_l_parsing_1_1_x_m_l_parser.html#a159b395412a8ce61e6decfefc9ed9854" target="_top" xlink:title="utilities.XMLParsing.XMLParser.get\lDoubleValuesFromTag">
<polygon fill="white" stroke="black" points="440,-5 440,-35 618,-35 618,-5 440,-5"/>
<text text-anchor="start" x="448" y="-23" font-family="Helvetica,sans-Serif" font-size="10.00">utilities.XMLParsing.XMLParser.get</text>
<text text-anchor="middle" x="529" y="-12" font-family="Helvetica,sans-Serif" font-size="10.00">DoubleValuesFromTag</text>
</a>
</g>
</g>
<!-- Node2&#45;&gt;Node3 -->
<g id="edge2" class="edge"><title>Node2&#45;&gt;Node3</title>
<path fill="none" stroke="midnightblue" d="M404.065,-20C412.569,-20 421.232,-20 429.825,-20"/>
<polygon fill="midnightblue" stroke="midnightblue" points="429.868,-23.5001 439.868,-20 429.868,-16.5001 429.868,-23.5001"/>
</g>
<!-- Node4 -->
<g id="node4" class="node"><title>Node4</title>
<g id="a_node4"><a xlink:href="../../df/db4/classutilities_1_1_x_m_l_parsing_1_1_x_m_l_parser.html#a70485375200a84f459aa83ffedbea646" target="_top" xlink:title="utilities.XMLParsing.XMLParser.get\lValuesFromTag">
<polygon fill="white" stroke="black" points="654,-5 654,-35 832,-35 832,-5 654,-5"/>
<text text-anchor="start" x="662" y="-23" font-family="Helvetica,sans-Serif" font-size="10.00">utilities.XMLParsing.XMLParser.get</text>
<text text-anchor="middle" x="743" y="-12" font-family="Helvetica,sans-Serif" font-size="10.00">ValuesFromTag</text>
</a>
</g>
</g>
<!-- Node3&#45;&gt;Node4 -->
<g id="edge3" class="edge"><title>Node3&#45;&gt;Node4</title>
<path fill="none" stroke="midnightblue" d="M618.065,-20C626.569,-20 635.232,-20 643.825,-20"/>
<polygon fill="midnightblue" stroke="midnightblue" points="643.868,-23.5001 653.868,-20 643.868,-16.5001 643.868,-23.5001"/>
</g>
<!-- Node5 -->
<g id="node5" class="node"><title>Node5</title>
<g id="a_node5"><a xlink:href="../../df/db4/classutilities_1_1_x_m_l_parsing_1_1_x_m_l_parser.html#ab3a0a60481d20e93b1382f9a8a31fe9d" target="_top" xlink:title="utilities.XMLParsing.XMLParser.get\lValues">
<polygon fill="white" stroke="black" points="868,-5 868,-35 1046,-35 1046,-5 868,-5"/>
<text text-anchor="start" x="876" y="-23" font-family="Helvetica,sans-Serif" font-size="10.00">utilities.XMLParsing.XMLParser.get</text>
<text text-anchor="middle" x="957" y="-12" font-family="Helvetica,sans-Serif" font-size="10.00">Values</text>
</a>
</g>
</g>
<!-- Node4&#45;&gt;Node5 -->
<g id="edge4" class="edge"><title>Node4&#45;&gt;Node5</title>
<path fill="none" stroke="midnightblue" d="M832.065,-20C840.569,-20 849.232,-20 857.825,-20"/>
<polygon fill="midnightblue" stroke="midnightblue" points="857.868,-23.5001 867.868,-20 857.868,-16.5001 857.868,-23.5001"/>
</g>
</g>
</svg>
