<?xml version="1.0" encoding="UTF-8" standalone="no"?>
<!DOCTYPE svg PUBLIC "-//W3C//DTD SVG 1.1//EN"
 "http://www.w3.org/Graphics/SVG/1.1/DTD/svg11.dtd">
<!-- Generated by graphviz version 2.36.0 (20140111.2315)
 -->
<!-- Title: gameEngine.Data.RangeRestrictedCollection.clear Pages: 1 -->
<svg width="1206pt" height="293pt"
 viewBox="0.00 0.00 1206.00 293.00" xmlns="http://www.w3.org/2000/svg" xmlns:xlink="http://www.w3.org/1999/xlink">
<g id="graph0" class="graph" transform="scale(1 1) rotate(0) translate(4 289)">
<title>gameEngine.Data.RangeRestrictedCollection.clear</title>
<polygon fill="white" stroke="none" points="-4,4 -4,-289 1202,-289 1202,4 -4,4"/>
<!-- Node1 -->
<g id="node1" class="node"><title>Node1</title>
<polygon fill="#bfbfbf" stroke="black" points="0.5,-103 0.5,-133 183.5,-133 183.5,-103 0.5,-103"/>
<text text-anchor="start" x="8.5" y="-121" font-family="Helvetica,sans-Serif" font-size="10.00">gameEngine.Data.RangeRestricted</text>
<text text-anchor="middle" x="92" y="-110" font-family="Helvetica,sans-Serif" font-size="10.00">Collection.clear</text>
</g>
<!-- Node2 -->
<g id="node2" class="node"><title>Node2</title>
<g id="a_node2"><a xlink:href="../../d0/d94/classgame_engine_1_1_main_engine_manager.html#abce40b23d5178f6390ffcbffd6c930e3" target="_top" xlink:title="gameEngine.MainEngineManager.clear">
<polygon fill="white" stroke="black" points="242,-225.5 242,-244.5 444,-244.5 444,-225.5 242,-225.5"/>
<text text-anchor="middle" x="343" y="-232.5" font-family="Helvetica,sans-Serif" font-size="10.00">gameEngine.MainEngineManager.clear</text>
</a>
</g>
</g>
<!-- Node1&#45;&gt;Node2 -->
<g id="edge1" class="edge"><title>Node1&#45;&gt;Node2</title>
<path fill="none" stroke="midnightblue" d="M128.146,-138.162C153.351,-152.287 188.311,-171.207 220,-186 252.471,-201.158 291.001,-216.154 315.944,-225.485"/>
<polygon fill="midnightblue" stroke="midnightblue" points="129.756,-135.051 119.326,-133.191 126.32,-141.15 129.756,-135.051"/>
</g>
<!-- Node5 -->
<g id="node5" class="node"><title>Node5</title>
<g id="a_node5"><a xlink:href="../../d0/d94/classgame_engine_1_1_main_engine_manager.html#a3677f4b740d81288c36309962d323265" target="_top" xlink:title="gameEngine.MainEngineManager.initializeGame">
<polygon fill="white" stroke="black" points="220,-157.5 220,-176.5 466,-176.5 466,-157.5 220,-157.5"/>
<text text-anchor="middle" x="343" y="-164.5" font-family="Helvetica,sans-Serif" font-size="10.00">gameEngine.MainEngineManager.initializeGame</text>
</a>
</g>
</g>
<!-- Node1&#45;&gt;Node5 -->
<g id="edge4" class="edge"><title>Node1&#45;&gt;Node5</title>
<path fill="none" stroke="midnightblue" d="M179.507,-135.023C217.72,-142.543 261.215,-151.103 293.582,-157.472"/>
<polygon fill="midnightblue" stroke="midnightblue" points="179.888,-131.531 169.4,-133.035 178.536,-138.4 179.888,-131.531"/>
</g>
<!-- Node14 -->
<g id="node14" class="node"><title>Node14</title>
<g id="a_node14"><a xlink:href="../../d0/d94/classgame_engine_1_1_main_engine_manager.html#aabfa2b7038b0fe0d1a5d0f1761740fbe" target="_top" xlink:title="gameEngine.MainEngineManager.load\lAuthoringLevel">
<polygon fill="white" stroke="black" points="243.5,-103 243.5,-133 442.5,-133 442.5,-103 243.5,-103"/>
<text text-anchor="start" x="251.5" y="-121" font-family="Helvetica,sans-Serif" font-size="10.00">gameEngine.MainEngineManager.load</text>
<text text-anchor="middle" x="343" y="-110" font-family="Helvetica,sans-Serif" font-size="10.00">AuthoringLevel</text>
</a>
</g>
</g>
<!-- Node1&#45;&gt;Node14 -->
<g id="edge13" class="edge"><title>Node1&#45;&gt;Node14</title>
<path fill="none" stroke="midnightblue" d="M193.732,-118C210.143,-118 227.126,-118 243.482,-118"/>
<polygon fill="midnightblue" stroke="midnightblue" points="193.599,-114.5 183.599,-118 193.599,-121.5 193.599,-114.5"/>
</g>
<!-- Node16 -->
<g id="node16" class="node"><title>Node16</title>
<g id="a_node16"><a xlink:href="../../d0/d94/classgame_engine_1_1_main_engine_manager.html#aea019bc58433d910ea3fadc2139db4ac" target="_top" xlink:title="gameEngine.MainEngineManager.on\lGameLose">
<polygon fill="white" stroke="black" points="247.5,-54 247.5,-84 438.5,-84 438.5,-54 247.5,-54"/>
<text text-anchor="start" x="255.5" y="-72" font-family="Helvetica,sans-Serif" font-size="10.00">gameEngine.MainEngineManager.on</text>
<text text-anchor="middle" x="343" y="-61" font-family="Helvetica,sans-Serif" font-size="10.00">GameLose</text>
</a>
</g>
</g>
<!-- Node1&#45;&gt;Node16 -->
<g id="edge15" class="edge"><title>Node1&#45;&gt;Node16</title>
<path fill="none" stroke="midnightblue" d="M179.112,-101.047C192.79,-98.355 206.782,-95.6011 220,-93 234.72,-90.1033 250.44,-87.0105 265.531,-84.0416"/>
<polygon fill="midnightblue" stroke="midnightblue" points="178.358,-97.6284 169.223,-102.994 179.71,-104.497 178.358,-97.6284"/>
</g>
<!-- Node20 -->
<g id="node20" class="node"><title>Node20</title>
<g id="a_node20"><a xlink:href="../../d0/d94/classgame_engine_1_1_main_engine_manager.html#afd86188ac12b9cc28f5d05d7a7350af0" target="_top" xlink:title="gameEngine.MainEngineManager.on\lLevelEnd">
<polygon fill="white" stroke="black" points="247.5,-5 247.5,-35 438.5,-35 438.5,-5 247.5,-5"/>
<text text-anchor="start" x="255.5" y="-23" font-family="Helvetica,sans-Serif" font-size="10.00">gameEngine.MainEngineManager.on</text>
<text text-anchor="middle" x="343" y="-12" font-family="Helvetica,sans-Serif" font-size="10.00">LevelEnd</text>
</a>
</g>
</g>
<!-- Node1&#45;&gt;Node20 -->
<g id="edge19" class="edge"><title>Node1&#45;&gt;Node20</title>
<path fill="none" stroke="midnightblue" d="M122.176,-97.1911C147.048,-80.411 184.335,-57.4617 220,-44 229.088,-40.5697 238.751,-37.6038 248.505,-35.0451"/>
<polygon fill="midnightblue" stroke="midnightblue" points="120.194,-94.3064 113.92,-102.844 124.149,-100.083 120.194,-94.3064"/>
</g>
<!-- Node3 -->
<g id="node3" class="node"><title>Node3</title>
<g id="a_node3"><a xlink:href="../../d0/d94/classgame_engine_1_1_main_engine_manager.html#a877d3b0d8eeb5a117fe7043df349d101" target="_top" xlink:title="gameEngine.MainEngineManager.load\lState">
<polygon fill="white" stroke="black" points="505.5,-253 505.5,-283 704.5,-283 704.5,-253 505.5,-253"/>
<text text-anchor="start" x="513.5" y="-271" font-family="Helvetica,sans-Serif" font-size="10.00">gameEngine.MainEngineManager.load</text>
<text text-anchor="middle" x="605" y="-260" font-family="Helvetica,sans-Serif" font-size="10.00">State</text>
</a>
</g>
</g>
<!-- Node2&#45;&gt;Node3 -->
<g id="edge2" class="edge"><title>Node2&#45;&gt;Node3</title>
<path fill="none" stroke="midnightblue" d="M428.824,-245.766C453.309,-248.874 480.235,-252.291 505.476,-255.495"/>
<polygon fill="midnightblue" stroke="midnightblue" points="429.215,-242.288 418.854,-244.501 428.334,-249.232 429.215,-242.288"/>
</g>
<!-- Node4 -->
<g id="node4" class="node"><title>Node4</title>
<g id="a_node4"><a xlink:href="../../da/d69/classgame_player_1_1main_classes_1_1managers_1_1_gui_manager.html#a3c6a6b6581cd16f2c9e702ce936c217b" target="_top" xlink:title="gamePlayer.mainClasses.managers.\lGuiManager.loadState">
<polygon fill="white" stroke="black" points="755.5,-255 755.5,-285 946.5,-285 946.5,-255 755.5,-255"/>
<text text-anchor="start" x="763.5" y="-273" font-family="Helvetica,sans-Serif" font-size="10.00">gamePlayer.mainClasses.managers.</text>
<text text-anchor="middle" x="851" y="-262" font-family="Helvetica,sans-Serif" font-size="10.00">GuiManager.loadState</text>
</a>
</g>
</g>
<!-- Node3&#45;&gt;Node4 -->
<g id="edge3" class="edge"><title>Node3&#45;&gt;Node4</title>
<path fill="none" stroke="midnightblue" d="M714.842,-268.892C728.383,-269.003 742.143,-269.116 755.444,-269.225"/>
<polygon fill="midnightblue" stroke="midnightblue" points="714.569,-265.39 704.541,-268.808 714.512,-272.39 714.569,-265.39"/>
</g>
<!-- Node6 -->
<g id="node6" class="node"><title>Node6</title>
<g id="a_node6"><a xlink:href="../../da/d69/classgame_player_1_1main_classes_1_1managers_1_1_gui_manager.html#a02a63a3d495b31cce0c4976f95758a49" target="_top" xlink:title="gamePlayer.mainClasses.managers.\lGuiManager.startGame">
<polygon fill="white" stroke="black" points="509.5,-203 509.5,-233 700.5,-233 700.5,-203 509.5,-203"/>
<text text-anchor="start" x="517.5" y="-221" font-family="Helvetica,sans-Serif" font-size="10.00">gamePlayer.mainClasses.managers.</text>
<text text-anchor="middle" x="605" y="-210" font-family="Helvetica,sans-Serif" font-size="10.00">GuiManager.startGame</text>
</a>
</g>
</g>
<!-- Node5&#45;&gt;Node6 -->
<g id="edge5" class="edge"><title>Node5&#45;&gt;Node6</title>
<path fill="none" stroke="midnightblue" d="M402.682,-178.511C439.527,-185.738 487.442,-195.137 527.282,-202.952"/>
<polygon fill="midnightblue" stroke="midnightblue" points="403.086,-175.023 392.599,-176.533 401.738,-181.892 403.086,-175.023"/>
</g>
<!-- Node8 -->
<g id="node8" class="node"><title>Node8</title>
<g id="a_node8"><a xlink:href="../../da/d69/classgame_player_1_1main_classes_1_1managers_1_1_gui_manager.html#aa9b035d2a17b73719ca8a26d8ebde9ce" target="_top" xlink:title="gamePlayer.mainClasses.managers.\lGuiManager.startSinglePlayerGame">
<polygon fill="white" stroke="black" points="509.5,-152 509.5,-182 700.5,-182 700.5,-152 509.5,-152"/>
<text text-anchor="start" x="517.5" y="-170" font-family="Helvetica,sans-Serif" font-size="10.00">gamePlayer.mainClasses.managers.</text>
<text text-anchor="middle" x="605" y="-159" font-family="Helvetica,sans-Serif" font-size="10.00">GuiManager.startSinglePlayerGame</text>
</a>
</g>
</g>
<!-- Node5&#45;&gt;Node8 -->
<g id="edge7" class="edge"><title>Node5&#45;&gt;Node8</title>
<path fill="none" stroke="midnightblue" d="M476.224,-167C487.353,-167 498.46,-167 509.219,-167"/>
<polygon fill="midnightblue" stroke="midnightblue" points="476.006,-163.5 466.006,-167 476.006,-170.5 476.006,-163.5"/>
</g>
<!-- Node7 -->
<g id="node7" class="node"><title>Node7</title>
<g id="a_node7"><a xlink:href="../../da/d69/classgame_player_1_1main_classes_1_1managers_1_1_gui_manager.html#a287842e1d39b7ecf2e13befeeafa1a7b" target="_top" xlink:title="gamePlayer.mainClasses.managers.\lGuiManager.loadGame">
<polygon fill="white" stroke="black" points="755.5,-206 755.5,-236 946.5,-236 946.5,-206 755.5,-206"/>
<text text-anchor="start" x="763.5" y="-224" font-family="Helvetica,sans-Serif" font-size="10.00">gamePlayer.mainClasses.managers.</text>
<text text-anchor="middle" x="851" y="-213" font-family="Helvetica,sans-Serif" font-size="10.00">GuiManager.loadGame</text>
</a>
</g>
</g>
<!-- Node6&#45;&gt;Node7 -->
<g id="edge6" class="edge"><title>Node6&#45;&gt;Node7</title>
<path fill="none" stroke="midnightblue" d="M710.86,-219.289C725.65,-219.471 740.784,-219.657 755.367,-219.836"/>
<polygon fill="midnightblue" stroke="midnightblue" points="710.728,-215.787 700.686,-219.164 710.642,-222.787 710.728,-215.787"/>
</g>
<!-- Node9 -->
<g id="node9" class="node"><title>Node9</title>
<g id="a_node9"><a xlink:href="../../da/d69/classgame_player_1_1main_classes_1_1managers_1_1_gui_manager.html#a3f657f0e3ba1e493d2dd02b5df5e03f6" target="_top" xlink:title="gamePlayer.mainClasses.managers.\lGuiManager.replayGame">
<polygon fill="white" stroke="black" points="755.5,-157 755.5,-187 946.5,-187 946.5,-157 755.5,-157"/>
<text text-anchor="start" x="763.5" y="-175" font-family="Helvetica,sans-Serif" font-size="10.00">gamePlayer.mainClasses.managers.</text>
<text text-anchor="middle" x="851" y="-164" font-family="Helvetica,sans-Serif" font-size="10.00">GuiManager.replayGame</text>
</a>
</g>
</g>
<!-- Node8&#45;&gt;Node9 -->
<g id="edge8" class="edge"><title>Node8&#45;&gt;Node9</title>
<path fill="none" stroke="midnightblue" d="M710.86,-169.149C725.65,-169.452 740.784,-169.762 755.367,-170.061"/>
<polygon fill="midnightblue" stroke="midnightblue" points="710.756,-165.646 700.686,-168.94 710.612,-172.645 710.756,-165.646"/>
</g>
<!-- Node10 -->
<g id="node10" class="node"><title>Node10</title>
<g id="a_node10"><a xlink:href="../../d4/d3f/classgame_player_1_1main_classes_1_1managers_1_1_welcome_manager.html#a5da8d3f5b8bc1c4bd4c555140bd9384c" target="_top" xlink:title="gamePlayer.mainClasses.managers.\lWelcomeManager.startSinglePlayerGame">
<polygon fill="white" stroke="black" points="744,-108 744,-138 958,-138 958,-108 744,-108"/>
<text text-anchor="start" x="752" y="-126" font-family="Helvetica,sans-Serif" font-size="10.00">gamePlayer.mainClasses.managers.</text>
<text text-anchor="middle" x="851" y="-115" font-family="Helvetica,sans-Serif" font-size="10.00">WelcomeManager.startSinglePlayerGame</text>
</a>
</g>
</g>
<!-- Node8&#45;&gt;Node10 -->
<g id="edge9" class="edge"><title>Node8&#45;&gt;Node10</title>
<path fill="none" stroke="midnightblue" d="M699.361,-150.164C721.514,-146.17 745.001,-141.934 766.673,-138.026"/>
<polygon fill="midnightblue" stroke="midnightblue" points="698.509,-146.762 689.289,-151.981 699.751,-153.65 698.509,-146.762"/>
</g>
<!-- Node12 -->
<g id="node12" class="node"><title>Node12</title>
<g id="a_node12"><a xlink:href="../../d3/dee/classgame_player_1_1main_classes_1_1welcome_screen_1_1_game_start_manager.html#a0c44b3f25d2a30fe2e7aeca9da7161a9" target="_top" xlink:title="gamePlayer.mainClasses.welcome\lScreen.GameStartManager.startSingle\lPlayerGame">
<polygon fill="white" stroke="black" points="749.5,-48.5 749.5,-89.5 952.5,-89.5 952.5,-48.5 749.5,-48.5"/>
<text text-anchor="start" x="757.5" y="-77.5" font-family="Helvetica,sans-Serif" font-size="10.00">gamePlayer.mainClasses.welcome</text>
<text text-anchor="start" x="757.5" y="-66.5" font-family="Helvetica,sans-Serif" font-size="10.00">Screen.GameStartManager.startSingle</text>
<text text-anchor="middle" x="851" y="-55.5" font-family="Helvetica,sans-Serif" font-size="10.00">PlayerGame</text>
</a>
</g>
</g>
<!-- Node8&#45;&gt;Node12 -->
<g id="edge11" class="edge"><title>Node8&#45;&gt;Node12</title>
<path fill="none" stroke="midnightblue" d="M697.428,-147.855C701.085,-146.074 704.627,-144.128 708,-142 729.371,-128.52 722.811,-111.763 744,-98 748.8,-94.8822 753.931,-92.0968 759.249,-89.6088"/>
<polygon fill="midnightblue" stroke="midnightblue" points="695.874,-144.716 688.133,-151.95 698.696,-151.122 695.874,-144.716"/>
</g>
<!-- Node11 -->
<g id="node11" class="node"><title>Node11</title>
<g id="a_node11"><a xlink:href="../../d4/d3f/classgame_player_1_1main_classes_1_1managers_1_1_welcome_manager.html#ae6495396aef63551116c0835c40574e1" target="_top" xlink:title="gamePlayer.mainClasses.managers.\lWelcomeManager.startGame">
<polygon fill="white" stroke="black" points="1000.5,-108 1000.5,-138 1191.5,-138 1191.5,-108 1000.5,-108"/>
<text text-anchor="start" x="1008.5" y="-126" font-family="Helvetica,sans-Serif" font-size="10.00">gamePlayer.mainClasses.managers.</text>
<text text-anchor="middle" x="1096" y="-115" font-family="Helvetica,sans-Serif" font-size="10.00">WelcomeManager.startGame</text>
</a>
</g>
</g>
<!-- Node10&#45;&gt;Node11 -->
<g id="edge10" class="edge"><title>Node10&#45;&gt;Node11</title>
<path fill="none" stroke="midnightblue" d="M968.474,-123C979.188,-123 989.953,-123 1000.44,-123"/>
<polygon fill="midnightblue" stroke="midnightblue" points="968.23,-119.5 958.23,-123 968.23,-126.5 968.23,-119.5"/>
</g>
<!-- Node13 -->
<g id="node13" class="node"><title>Node13</title>
<g id="a_node13"><a xlink:href="../../d3/dee/classgame_player_1_1main_classes_1_1welcome_screen_1_1_game_start_manager.html#a4ac849399bf00c6df86f0db25ea95ed8" target="_top" xlink:title="gamePlayer.mainClasses.welcome\lScreen.GameStartManager.startGame">
<polygon fill="white" stroke="black" points="994.5,-54 994.5,-84 1197.5,-84 1197.5,-54 994.5,-54"/>
<text text-anchor="start" x="1002.5" y="-72" font-family="Helvetica,sans-Serif" font-size="10.00">gamePlayer.mainClasses.welcome</text>
<text text-anchor="middle" x="1096" y="-61" font-family="Helvetica,sans-Serif" font-size="10.00">Screen.GameStartManager.startGame</text>
</a>
</g>
</g>
<!-- Node12&#45;&gt;Node13 -->
<g id="edge12" class="edge"><title>Node12&#45;&gt;Node13</title>
<path fill="none" stroke="midnightblue" d="M962.702,-69C973.294,-69 983.997,-69 994.484,-69"/>
<polygon fill="midnightblue" stroke="midnightblue" points="962.592,-65.5001 952.591,-69 962.591,-72.5001 962.592,-65.5001"/>
</g>
<!-- Node15 -->
<g id="node15" class="node"><title>Node15</title>
<g id="a_node15"><a xlink:href="../../da/d10/classgame_authoring_1_1scenes_1_1level_building_1_1_level_display_cell.html#a7c364973b2428267a31e0a8e7be0238f" target="_top" xlink:title="gameAuthoring.scenes.level\lBuilding.LevelDisplayCell.Level\lDisplayCell">
<polygon fill="white" stroke="black" points="524.5,-92.5 524.5,-133.5 685.5,-133.5 685.5,-92.5 524.5,-92.5"/>
<text text-anchor="start" x="532.5" y="-121.5" font-family="Helvetica,sans-Serif" font-size="10.00">gameAuthoring.scenes.level</text>
<text text-anchor="start" x="532.5" y="-110.5" font-family="Helvetica,sans-Serif" font-size="10.00">Building.LevelDisplayCell.Level</text>
<text text-anchor="middle" x="605" y="-99.5" font-family="Helvetica,sans-Serif" font-size="10.00">DisplayCell</text>
</a>
</g>
</g>
<!-- Node14&#45;&gt;Node15 -->
<g id="edge14" class="edge"><title>Node14&#45;&gt;Node15</title>
<path fill="none" stroke="midnightblue" d="M452.873,-115.906C476.856,-115.445 501.823,-114.965 524.393,-114.531"/>
<polygon fill="midnightblue" stroke="midnightblue" points="452.596,-112.411 442.666,-116.103 452.731,-119.41 452.596,-112.411"/>
</g>
<!-- Node17 -->
<g id="node17" class="node"><title>Node17</title>
<g id="a_node17"><a xlink:href="../../d0/d94/classgame_engine_1_1_main_engine_manager.html#aa167e2a5e062c22e361f11a25db3c3ef" target="_top" xlink:title="gameEngine.MainEngineManager.game\lUpdate">
<polygon fill="white" stroke="black" points="502,-5 502,-35 708,-35 708,-5 502,-5"/>
<text text-anchor="start" x="510" y="-23" font-family="Helvetica,sans-Serif" font-size="10.00">gameEngine.MainEngineManager.game</text>
<text text-anchor="middle" x="605" y="-12" font-family="Helvetica,sans-Serif" font-size="10.00">Update</text>
</a>
</g>
</g>
<!-- Node16&#45;&gt;Node17 -->
<g id="edge16" class="edge"><title>Node16&#45;&gt;Node17</title>
<path fill="none" stroke="midnightblue" d="M433.647,-52.1051C463.131,-46.5485 495.689,-40.4125 524.375,-35.0062"/>
<polygon fill="midnightblue" stroke="midnightblue" points="432.954,-48.6738 423.776,-53.9654 434.251,-55.5527 432.954,-48.6738"/>
</g>
<!-- Node18 -->
<g id="node18" class="node"><title>Node18</title>
<g id="a_node18"><a xlink:href="../../d0/d94/classgame_engine_1_1_main_engine_manager.html#a0d381e03af0128b42e169322c2d1ca00" target="_top" xlink:title="gameEngine.MainEngineManager.create\lTimeline">
<polygon fill="white" stroke="black" points="746.5,-0 746.5,-30 955.5,-30 955.5,-0 746.5,-0"/>
<text text-anchor="start" x="754.5" y="-18" font-family="Helvetica,sans-Serif" font-size="10.00">gameEngine.MainEngineManager.create</text>
<text text-anchor="middle" x="851" y="-7" font-family="Helvetica,sans-Serif" font-size="10.00">Timeline</text>
</a>
</g>
</g>
<!-- Node17&#45;&gt;Node18 -->
<g id="edge17" class="edge"><title>Node17&#45;&gt;Node18</title>
<path fill="none" stroke="midnightblue" d="M718.21,-17.7006C727.598,-17.5082 737.064,-17.3143 746.384,-17.1233"/>
<polygon fill="midnightblue" stroke="midnightblue" points="717.99,-14.2043 708.064,-17.9085 718.134,-21.2028 717.99,-14.2043"/>
</g>
<!-- Node19 -->
<g id="node19" class="node"><title>Node19</title>
<g id="a_node19"><a xlink:href="../../d0/d94/classgame_engine_1_1_main_engine_manager.html#aec2cd142182da8ef024078d42fb5bc23" target="_top" xlink:title="gameEngine.MainEngineManager.\lMainEngineManager">
<polygon fill="white" stroke="black" points="1006.5,-0 1006.5,-30 1185.5,-30 1185.5,-0 1006.5,-0"/>
<text text-anchor="start" x="1014.5" y="-18" font-family="Helvetica,sans-Serif" font-size="10.00">gameEngine.MainEngineManager.</text>
<text text-anchor="middle" x="1096" y="-7" font-family="Helvetica,sans-Serif" font-size="10.00">MainEngineManager</text>
</a>
</g>
</g>
<!-- Node18&#45;&gt;Node19 -->
<g id="edge18" class="edge"><title>Node18&#45;&gt;Node19</title>
<path fill="none" stroke="midnightblue" d="M966.024,-15C979.493,-15 993.085,-15 1006.14,-15"/>
<polygon fill="midnightblue" stroke="midnightblue" points="965.759,-11.5001 955.759,-15 965.759,-18.5001 965.759,-11.5001"/>
</g>
<!-- Node20&#45;&gt;Node17 -->
<g id="edge20" class="edge"><title>Node20&#45;&gt;Node17</title>
<path fill="none" stroke="midnightblue" d="M448.77,-20C466.181,-20 484.22,-20 501.572,-20"/>
<polygon fill="midnightblue" stroke="midnightblue" points="448.601,-16.5001 438.601,-20 448.601,-23.5001 448.601,-16.5001"/>
</g>
</g>
</svg>
