<?xml version="1.0" encoding="UTF-8" standalone="no"?>
<!DOCTYPE svg PUBLIC "-//W3C//DTD SVG 1.1//EN"
 "http://www.w3.org/Graphics/SVG/1.1/DTD/svg11.dtd">
<!-- Generated by graphviz version 2.36.0 (20140111.2315)
 -->
<!-- Title: utilities.errorPopup.ErrorPopup.ErrorPopup Pages: 1 -->
<svg width="596pt" height="157pt"
 viewBox="0.00 0.00 596.00 157.00" xmlns="http://www.w3.org/2000/svg" xmlns:xlink="http://www.w3.org/1999/xlink">
<g id="graph0" class="graph" transform="scale(1 1) rotate(0) translate(4 153)">
<title>utilities.errorPopup.ErrorPopup.ErrorPopup</title>
<polygon fill="white" stroke="none" points="-4,4 -4,-153 592,-153 592,4 -4,4"/>
<!-- Node1 -->
<g id="node1" class="node"><title>Node1</title>
<polygon fill="#bfbfbf" stroke="black" points="0.5,-59 0.5,-89 133.5,-89 133.5,-59 0.5,-59"/>
<text text-anchor="start" x="8.5" y="-77" font-family="Helvetica,sans-Serif" font-size="10.00">utilities.errorPopup.Error</text>
<text text-anchor="middle" x="67" y="-66" font-family="Helvetica,sans-Serif" font-size="10.00">Popup.ErrorPopup</text>
</g>
<!-- Node2 -->
<g id="node2" class="node"><title>Node2</title>
<g id="a_node2"><a xlink:href="../../dc/d37/classutilities_1_1_java_f_xutilities_1_1image_view_1_1_string_to_image_view_converter.html#a5beb76f3bbfa4aae7d9b897a285b007b" target="_top" xlink:title="utilities.JavaFXutilities.image\lView.StringToImageViewConverter.get\lImageView">
<polygon fill="white" stroke="black" points="170,-107.5 170,-148.5 366,-148.5 366,-107.5 170,-107.5"/>
<text text-anchor="start" x="178" y="-136.5" font-family="Helvetica,sans-Serif" font-size="10.00">utilities.JavaFXutilities.image</text>
<text text-anchor="start" x="178" y="-125.5" font-family="Helvetica,sans-Serif" font-size="10.00">View.StringToImageViewConverter.get</text>
<text text-anchor="middle" x="268" y="-114.5" font-family="Helvetica,sans-Serif" font-size="10.00">ImageView</text>
</a>
</g>
</g>
<!-- Node1&#45;&gt;Node2 -->
<g id="edge1" class="edge"><title>Node1&#45;&gt;Node2</title>
<path fill="none" stroke="midnightblue" d="M123.433,-89.042C141.437,-93.9275 161.853,-99.4677 181.523,-104.805"/>
<polygon fill="midnightblue" stroke="midnightblue" points="180.847,-108.248 191.414,-107.489 182.68,-101.492 180.847,-108.248"/>
</g>
<!-- Node3 -->
<g id="node3" class="node"><title>Node3</title>
<g id="a_node3"><a xlink:href="../../dc/d2e/classutilities_1_1multilanguage_1_1_multi_language_utility.html#aaa34262e5a69e5d96d435c4f9872e544" target="_top" xlink:title="utilities.multilanguage.\lMultiLanguageUtility.getInstance">
<polygon fill="white" stroke="black" points="182.5,-59 182.5,-89 353.5,-89 353.5,-59 182.5,-59"/>
<text text-anchor="start" x="190.5" y="-77" font-family="Helvetica,sans-Serif" font-size="10.00">utilities.multilanguage.</text>
<text text-anchor="middle" x="268" y="-66" font-family="Helvetica,sans-Serif" font-size="10.00">MultiLanguageUtility.getInstance</text>
</a>
</g>
</g>
<!-- Node1&#45;&gt;Node3 -->
<g id="edge2" class="edge"><title>Node1&#45;&gt;Node3</title>
<path fill="none" stroke="midnightblue" d="M133.712,-74C145.95,-74 158.962,-74 171.876,-74"/>
<polygon fill="midnightblue" stroke="midnightblue" points="172.195,-77.5001 182.195,-74 172.195,-70.5001 172.195,-77.5001"/>
</g>
<!-- Node5 -->
<g id="node5" class="node"><title>Node5</title>
<g id="a_node5"><a xlink:href="../../dc/d2e/classutilities_1_1multilanguage_1_1_multi_language_utility.html#a6bc704aa624d0bc11d5f18717ef5842a" target="_top" xlink:title="utilities.multilanguage.\lMultiLanguageUtility.getString\lProperty">
<polygon fill="white" stroke="black" points="188.5,0.5 188.5,-40.5 347.5,-40.5 347.5,0.5 188.5,0.5"/>
<text text-anchor="start" x="196.5" y="-28.5" font-family="Helvetica,sans-Serif" font-size="10.00">utilities.multilanguage.</text>
<text text-anchor="start" x="196.5" y="-17.5" font-family="Helvetica,sans-Serif" font-size="10.00">MultiLanguageUtility.getString</text>
<text text-anchor="middle" x="268" y="-6.5" font-family="Helvetica,sans-Serif" font-size="10.00">Property</text>
</a>
</g>
</g>
<!-- Node1&#45;&gt;Node5 -->
<g id="edge4" class="edge"><title>Node1&#45;&gt;Node5</title>
<path fill="none" stroke="midnightblue" d="M123.433,-58.958C141.437,-54.0725 161.853,-48.5323 181.523,-43.1947"/>
<polygon fill="midnightblue" stroke="midnightblue" points="182.68,-46.5075 191.414,-40.5107 180.847,-39.7518 182.68,-46.5075"/>
</g>
<!-- Node4 -->
<g id="node4" class="node"><title>Node4</title>
<g id="a_node4"><a xlink:href="../../dc/d2e/classutilities_1_1multilanguage_1_1_multi_language_utility.html#a18c8cee78f923458998009428cd84970" target="_top" xlink:title="utilities.multilanguage.\lMultiLanguageUtility.MultiLanguage\lUtility">
<polygon fill="white" stroke="black" points="402.5,-53.5 402.5,-94.5 587.5,-94.5 587.5,-53.5 402.5,-53.5"/>
<text text-anchor="start" x="410.5" y="-82.5" font-family="Helvetica,sans-Serif" font-size="10.00">utilities.multilanguage.</text>
<text text-anchor="start" x="410.5" y="-71.5" font-family="Helvetica,sans-Serif" font-size="10.00">MultiLanguageUtility.MultiLanguage</text>
<text text-anchor="middle" x="495" y="-60.5" font-family="Helvetica,sans-Serif" font-size="10.00">Utility</text>
</a>
</g>
</g>
<!-- Node3&#45;&gt;Node4 -->
<g id="edge3" class="edge"><title>Node3&#45;&gt;Node4</title>
<path fill="none" stroke="midnightblue" d="M353.742,-74C366.226,-74 379.195,-74 391.983,-74"/>
<polygon fill="midnightblue" stroke="midnightblue" points="392.187,-77.5001 402.187,-74 392.187,-70.5001 392.187,-77.5001"/>
</g>
<!-- Node6 -->
<g id="node6" class="node"><title>Node6</title>
<g id="a_node6"><a xlink:href="../../dc/d2e/classutilities_1_1multilanguage_1_1_multi_language_utility.html#a124b4a760f410841ecc50dd4b16e40bb" target="_top" xlink:title="utilities.multilanguage.\lMultiLanguageUtility.getProperty">
<polygon fill="white" stroke="black" points="409.5,-5 409.5,-35 580.5,-35 580.5,-5 409.5,-5"/>
<text text-anchor="start" x="417.5" y="-23" font-family="Helvetica,sans-Serif" font-size="10.00">utilities.multilanguage.</text>
<text text-anchor="middle" x="495" y="-12" font-family="Helvetica,sans-Serif" font-size="10.00">MultiLanguageUtility.getProperty</text>
</a>
</g>
</g>
<!-- Node5&#45;&gt;Node6 -->
<g id="edge5" class="edge"><title>Node5&#45;&gt;Node6</title>
<path fill="none" stroke="midnightblue" d="M347.694,-20C364.326,-20 382.044,-20 399.2,-20"/>
<polygon fill="midnightblue" stroke="midnightblue" points="399.223,-23.5001 409.223,-20 399.223,-16.5001 399.223,-23.5001"/>
</g>
</g>
</svg>
