<?xml version="1.0" encoding="UTF-8" standalone="no"?>
<!DOCTYPE svg PUBLIC "-//W3C//DTD SVG 1.1//EN"
 "http://www.w3.org/Graphics/SVG/1.1/DTD/svg11.dtd">
<!-- Generated by graphviz version 2.36.0 (20140111.2315)
 -->
<!-- Title: utilities.errorPopup.ErrorPopup.ErrorPopup Pages: 1 -->
<!--zoomable 157 -->
<svg id="main" version="1.1" xmlns="http://www.w3.org/2000/svg" xmlns:xlink="http://www.w3.org/1999/xlink" xml:space="preserve" onload="init(evt)">
<style type="text/css"><![CDATA[
.edge:hover path { stroke: red; }
.edge:hover polygon { stroke: red; fill: red; }
]]></style>
<script type="text/javascript"><![CDATA[
var edges = document.getElementsByTagName('g');
if (edges && edges.length) {
  for (var i=0;i<edges.length;i++) {
    if (edges[i].id.substr(0,4)=='edge') {
      edges[i].setAttribute('class','edge');
    }
  }
}
]]></script>
        <defs>
                <circle id="rim" cx="0" cy="0" r="7"/>
                <circle id="rim2" cx="0" cy="0" r="3.5"/>
                <g id="zoomPlus">
                        <use xlink:href="#rim" fill="#404040">
                                <set attributeName="fill" to="#808080" begin="zoomplus.mouseover" end="zoomplus.mouseout"/>
                        </use>
                        <path d="M-4,0h8M0,-4v8" fill="none" stroke="white" stroke-width="1.5" pointer-events="none"/>
                </g>
                <g id="zoomMin">
                        <use xlink:href="#rim" fill="#404040">
                                <set attributeName="fill" to="#808080" begin="zoomminus.mouseover" end="zoomminus.mouseout"/>
                        </use>
                        <path d="M-4,0h8" fill="none" stroke="white" stroke-width="1.5" pointer-events="none"/>
                </g>
                <g id="dirArrow">
                        <path fill="none" stroke="white" stroke-width="1.5" d="M0,-3.0v7 M-2.5,-0.5L0,-3.0L2.5,-0.5"/>
                </g>
               <g id="resetDef">
                       <use xlink:href="#rim2" fill="#404040">
                               <set attributeName="fill" to="#808080" begin="reset.mouseover" end="reset.mouseout"/>
                       </use>
               </g>
        </defs>

<script type="text/javascript">
var viewWidth = 596;
var viewHeight = 157;
var sectionId = 'dynsection-2';
</script>
<script xlink:href="../../svgpan.js"/>
<svg id="graph" class="graph">
<g id="viewport">
<title>utilities.errorPopup.ErrorPopup.ErrorPopup</title>
<polygon fill="white" stroke="none" points="-4,4 -4,-153 592,-153 592,4 -4,4"/>
<!-- Node1 -->
<g id="node1" class="node"><title>Node1</title>
<polygon fill="#bfbfbf" stroke="black" points="0.5,-59 0.5,-89 133.5,-89 133.5,-59 0.5,-59"/>
<text text-anchor="start" x="8.5" y="-77" font-family="Helvetica,sans-Serif" font-size="10.00">utilities.errorPopup.Error</text>
<text text-anchor="middle" x="67" y="-66" font-family="Helvetica,sans-Serif" font-size="10.00">Popup.ErrorPopup</text>
</g>
<!-- Node2 -->
<g id="node2" class="node"><title>Node2</title>
<g id="a_node2"><a xlink:href="../../dc/d37/classutilities_1_1_java_f_xutilities_1_1image_view_1_1_string_to_image_view_converter.html#a5beb76f3bbfa4aae7d9b897a285b007b" target="_top" xlink:title="utilities.JavaFXutilities.image\lView.StringToImageViewConverter.get\lImageView">
<polygon fill="white" stroke="black" points="170,-107.5 170,-148.5 366,-148.5 366,-107.5 170,-107.5"/>
<text text-anchor="start" x="178" y="-136.5" font-family="Helvetica,sans-Serif" font-size="10.00">utilities.JavaFXutilities.image</text>
<text text-anchor="start" x="178" y="-125.5" font-family="Helvetica,sans-Serif" font-size="10.00">View.StringToImageViewConverter.get</text>
<text text-anchor="middle" x="268" y="-114.5" font-family="Helvetica,sans-Serif" font-size="10.00">ImageView</text>
</a>
</g>
</g>
<!-- Node1&#45;&gt;Node2 -->
<g id="edge1" class="edge"><title>Node1&#45;&gt;Node2</title>
<path fill="none" stroke="midnightblue" d="M123.433,-89.042C141.437,-93.9275 161.853,-99.4677 181.523,-104.805"/>
<polygon fill="midnightblue" stroke="midnightblue" points="180.847,-108.248 191.414,-107.489 182.68,-101.492 180.847,-108.248"/>
</g>
<!-- Node3 -->
<g id="node3" class="node"><title>Node3</title>
<g id="a_node3"><a xlink:href="../../dc/d2e/classutilities_1_1multilanguage_1_1_multi_language_utility.html#aaa34262e5a69e5d96d435c4f9872e544" target="_top" xlink:title="utilities.multilanguage.\lMultiLanguageUtility.getInstance">
<polygon fill="white" stroke="black" points="182.5,-59 182.5,-89 353.5,-89 353.5,-59 182.5,-59"/>
<text text-anchor="start" x="190.5" y="-77" font-family="Helvetica,sans-Serif" font-size="10.00">utilities.multilanguage.</text>
<text text-anchor="middle" x="268" y="-66" font-family="Helvetica,sans-Serif" font-size="10.00">MultiLanguageUtility.getInstance</text>
</a>
</g>
</g>
<!-- Node1&#45;&gt;Node3 -->
<g id="edge2" class="edge"><title>Node1&#45;&gt;Node3</title>
<path fill="none" stroke="midnightblue" d="M133.712,-74C145.95,-74 158.962,-74 171.876,-74"/>
<polygon fill="midnightblue" stroke="midnightblue" points="172.195,-77.5001 182.195,-74 172.195,-70.5001 172.195,-77.5001"/>
</g>
<!-- Node5 -->
<g id="node5" class="node"><title>Node5</title>
<g id="a_node5"><a xlink:href="../../dc/d2e/classutilities_1_1multilanguage_1_1_multi_language_utility.html#a6bc704aa624d0bc11d5f18717ef5842a" target="_top" xlink:title="utilities.multilanguage.\lMultiLanguageUtility.getString\lProperty">
<polygon fill="white" stroke="black" points="188.5,0.5 188.5,-40.5 347.5,-40.5 347.5,0.5 188.5,0.5"/>
<text text-anchor="start" x="196.5" y="-28.5" font-family="Helvetica,sans-Serif" font-size="10.00">utilities.multilanguage.</text>
<text text-anchor="start" x="196.5" y="-17.5" font-family="Helvetica,sans-Serif" font-size="10.00">MultiLanguageUtility.getString</text>
<text text-anchor="middle" x="268" y="-6.5" font-family="Helvetica,sans-Serif" font-size="10.00">Property</text>
</a>
</g>
</g>
<!-- Node1&#45;&gt;Node5 -->
<g id="edge4" class="edge"><title>Node1&#45;&gt;Node5</title>
<path fill="none" stroke="midnightblue" d="M123.433,-58.958C141.437,-54.0725 161.853,-48.5323 181.523,-43.1947"/>
<polygon fill="midnightblue" stroke="midnightblue" points="182.68,-46.5075 191.414,-40.5107 180.847,-39.7518 182.68,-46.5075"/>
</g>
<!-- Node4 -->
<g id="node4" class="node"><title>Node4</title>
<g id="a_node4"><a xlink:href="../../dc/d2e/classutilities_1_1multilanguage_1_1_multi_language_utility.html#a18c8cee78f923458998009428cd84970" target="_top" xlink:title="utilities.multilanguage.\lMultiLanguageUtility.MultiLanguage\lUtility">
<polygon fill="white" stroke="black" points="402.5,-53.5 402.5,-94.5 587.5,-94.5 587.5,-53.5 402.5,-53.5"/>
<text text-anchor="start" x="410.5" y="-82.5" font-family="Helvetica,sans-Serif" font-size="10.00">utilities.multilanguage.</text>
<text text-anchor="start" x="410.5" y="-71.5" font-family="Helvetica,sans-Serif" font-size="10.00">MultiLanguageUtility.MultiLanguage</text>
<text text-anchor="middle" x="495" y="-60.5" font-family="Helvetica,sans-Serif" font-size="10.00">Utility</text>
</a>
</g>
</g>
<!-- Node3&#45;&gt;Node4 -->
<g id="edge3" class="edge"><title>Node3&#45;&gt;Node4</title>
<path fill="none" stroke="midnightblue" d="M353.742,-74C366.226,-74 379.195,-74 391.983,-74"/>
<polygon fill="midnightblue" stroke="midnightblue" points="392.187,-77.5001 402.187,-74 392.187,-70.5001 392.187,-77.5001"/>
</g>
<!-- Node6 -->
<g id="node6" class="node"><title>Node6</title>
<g id="a_node6"><a xlink:href="../../dc/d2e/classutilities_1_1multilanguage_1_1_multi_language_utility.html#a124b4a760f410841ecc50dd4b16e40bb" target="_top" xlink:title="utilities.multilanguage.\lMultiLanguageUtility.getProperty">
<polygon fill="white" stroke="black" points="409.5,-5 409.5,-35 580.5,-35 580.5,-5 409.5,-5"/>
<text text-anchor="start" x="417.5" y="-23" font-family="Helvetica,sans-Serif" font-size="10.00">utilities.multilanguage.</text>
<text text-anchor="middle" x="495" y="-12" font-family="Helvetica,sans-Serif" font-size="10.00">MultiLanguageUtility.getProperty</text>
</a>
</g>
</g>
<!-- Node5&#45;&gt;Node6 -->
<g id="edge5" class="edge"><title>Node5&#45;&gt;Node6</title>
<path fill="none" stroke="midnightblue" d="M347.694,-20C364.326,-20 382.044,-20 399.2,-20"/>
<polygon fill="midnightblue" stroke="midnightblue" points="399.223,-23.5001 409.223,-20 399.223,-16.5001 399.223,-23.5001"/>
</g>
</g>
</svg>
        <g id="navigator" transform="translate(0 0)" fill="#404254">
                <rect fill="#f2f5e9" fill-opacity="0.5" stroke="#606060" stroke-width=".5" x="0" y="0" width="60" height="60"/>
                <use id="zoomplus" xlink:href="#zoomPlus" x="17" y="9" onmousedown="handleZoom(evt,'in')"/>
                <use id="zoomminus" xlink:href="#zoomMin" x="42" y="9" onmousedown="handleZoom(evt,'out')"/>
                <use id="reset" xlink:href="#resetDef" x="30" y="36" onmousedown="handleReset()"/>
                <g id="arrowUp" xlink:href="#dirArrow" transform="translate(30 24)" onmousedown="handlePan(0,-1)">
                  <use xlink:href="#rim" fill="#404040">
                        <set attributeName="fill" to="#808080" begin="arrowUp.mouseover" end="arrowUp.mouseout"/>
                  </use>
                  <path fill="none" stroke="white" stroke-width="1.5" d="M0,-3.0v7 M-2.5,-0.5L0,-3.0L2.5,-0.5"/>
                </g>
                <g id="arrowRight" xlink:href="#dirArrow" transform="rotate(90) translate(36 -43)" onmousedown="handlePan(1,0)">
                  <use xlink:href="#rim" fill="#404040">
                        <set attributeName="fill" to="#808080" begin="arrowRight.mouseover" end="arrowRight.mouseout"/>
                  </use>
                  <path fill="none" stroke="white" stroke-width="1.5" d="M0,-3.0v7 M-2.5,-0.5L0,-3.0L2.5,-0.5"/>
                </g>
                <g id="arrowDown" xlink:href="#dirArrow" transform="rotate(180) translate(-30 -48)" onmousedown="handlePan(0,1)">
                  <use xlink:href="#rim" fill="#404040">
                        <set attributeName="fill" to="#808080" begin="arrowDown.mouseover" end="arrowDown.mouseout"/>
                  </use>
                  <path fill="none" stroke="white" stroke-width="1.5" d="M0,-3.0v7 M-2.5,-0.5L0,-3.0L2.5,-0.5"/>
                </g>
                <g id="arrowLeft" xlink:href="#dirArrow" transform="rotate(270) translate(-36 17)" onmousedown="handlePan(-1,0)">
                  <use xlink:href="#rim" fill="#404040">
                        <set attributeName="fill" to="#808080" begin="arrowLeft.mouseover" end="arrowLeft.mouseout"/>
                  </use>
                  <path fill="none" stroke="white" stroke-width="1.5" d="M0,-3.0v7 M-2.5,-0.5L0,-3.0L2.5,-0.5"/>
                </g>
        </g>
        <svg viewBox="0 0 15 15" width="100%" height="30px" preserveAspectRatio="xMaxYMin meet">
         <g id="arrow_out" transform="scale(0.3 0.3)">
          <a xlink:href="classutilities_1_1error_popup_1_1_error_popup_aa2bf9c6eced2d46cec95ca1ce6cd226d_cgraph_org.svg" target="_base">
           <rect id="button" ry="5" rx="5" y="6" x="6" height="38" width="38"
                fill="#f2f5e9" fill-opacity="0.5" stroke="#606060" stroke-width="1.0"/>
           <path id="arrow"
             d="M 11.500037,31.436501 C 11.940474,20.09759 22.043105,11.32322 32.158766,21.979434 L 37.068811,17.246167 C 37.068811,17.246167 37.088388,32 37.088388,32 L 22.160133,31.978069 C 22.160133,31.978069 26.997745,27.140456 26.997745,27.140456 C 18.528582,18.264221 13.291696,25.230495 11.500037,31.436501 z"
             style="fill:#404040;"/>
          </a>
         </g>
        </svg>
</svg>
