<?xml version="1.0" encoding="UTF-8" standalone="no"?>
<!DOCTYPE svg PUBLIC "-//W3C//DTD SVG 1.1//EN"
 "http://www.w3.org/Graphics/SVG/1.1/DTD/svg11.dtd">
<!-- Generated by graphviz version 2.36.0 (20140111.2315)
 -->
<!-- Title: gamePlayer.guiItems.controlDockButtons.ControlDockButton Pages: 1 -->
<!--zoomable 190 -->
<svg id="main" version="1.1" xmlns="http://www.w3.org/2000/svg" xmlns:xlink="http://www.w3.org/1999/xlink" xml:space="preserve" onload="init(evt)">
<style type="text/css"><![CDATA[
.edge:hover path { stroke: red; }
.edge:hover polygon { stroke: red; fill: red; }
]]></style>
<script type="text/javascript"><![CDATA[
var edges = document.getElementsByTagName('g');
if (edges && edges.length) {
  for (var i=0;i<edges.length;i++) {
    if (edges[i].id.substr(0,4)=='edge') {
      edges[i].setAttribute('class','edge');
    }
  }
}
]]></script>
        <defs>
                <circle id="rim" cx="0" cy="0" r="7"/>
                <circle id="rim2" cx="0" cy="0" r="3.5"/>
                <g id="zoomPlus">
                        <use xlink:href="#rim" fill="#404040">
                                <set attributeName="fill" to="#808080" begin="zoomplus.mouseover" end="zoomplus.mouseout"/>
                        </use>
                        <path d="M-4,0h8M0,-4v8" fill="none" stroke="white" stroke-width="1.5" pointer-events="none"/>
                </g>
                <g id="zoomMin">
                        <use xlink:href="#rim" fill="#404040">
                                <set attributeName="fill" to="#808080" begin="zoomminus.mouseover" end="zoomminus.mouseout"/>
                        </use>
                        <path d="M-4,0h8" fill="none" stroke="white" stroke-width="1.5" pointer-events="none"/>
                </g>
                <g id="dirArrow">
                        <path fill="none" stroke="white" stroke-width="1.5" d="M0,-3.0v7 M-2.5,-0.5L0,-3.0L2.5,-0.5"/>
                </g>
               <g id="resetDef">
                       <use xlink:href="#rim2" fill="#404040">
                               <set attributeName="fill" to="#808080" begin="reset.mouseover" end="reset.mouseout"/>
                       </use>
               </g>
        </defs>

<script type="text/javascript">
var viewWidth = 706;
var viewHeight = 190;
var sectionId = 'dynsection-1';
</script>
<script xlink:href="../../svgpan.js"/>
<svg id="graph" class="graph">
<g id="viewport">
<title>gamePlayer.guiItems.controlDockButtons.ControlDockButton</title>
<polygon fill="white" stroke="none" points="-4,4 -4,-186 702,-186 702,4 -4,4"/>
<!-- Node1 -->
<g id="node1" class="node"><title>Node1</title>
<polygon fill="#bfbfbf" stroke="black" points="526,-78 526,-108 698,-108 698,-78 526,-78"/>
<text text-anchor="start" x="534" y="-96" font-family="Helvetica,sans-Serif" font-size="10.00">gamePlayer.guiItems.control</text>
<text text-anchor="middle" x="612" y="-85" font-family="Helvetica,sans-Serif" font-size="10.00">DockButtons.ControlDockButton</text>
</g>
<!-- Node2 -->
<g id="node2" class="node"><title>Node2</title>
<g id="a_node2"><a xlink:href="../../de/d25/interfacegame_player_1_1gui_items_1_1_gui_item.html" target="_top" xlink:title="gamePlayer.guiItems.GuiItem">
<polygon fill="white" stroke="black" points="261,-157.5 261,-176.5 419,-176.5 419,-157.5 261,-157.5"/>
<text text-anchor="middle" x="340" y="-164.5" font-family="Helvetica,sans-Serif" font-size="10.00">gamePlayer.guiItems.GuiItem</text>
</a>
</g>
</g>
<!-- Node2&#45;&gt;Node1 -->
<g id="edge1" class="edge"><title>Node2&#45;&gt;Node1</title>
<path fill="none" stroke="midnightblue" d="M407.418,-155.538C438.28,-149.588 475.301,-141.554 508,-132 530.758,-125.35 555.635,-115.992 575.239,-108.11"/>
<polygon fill="midnightblue" stroke="midnightblue" points="406.376,-152.174 397.203,-157.476 407.68,-159.051 406.376,-152.174"/>
</g>
<!-- Node3 -->
<g id="node3" class="node"><title>Node3</title>
<g id="a_node3"><a xlink:href="../../d7/d02/interfacegame_player_1_1main_classes_1_1gui_builder_1_1_gui_element.html" target="_top" xlink:title="gamePlayer.mainClasses.gui\lBuilder.GuiElement">
<polygon fill="white" stroke="black" points="0,-152 0,-182 154,-182 154,-152 0,-152"/>
<text text-anchor="start" x="8" y="-170" font-family="Helvetica,sans-Serif" font-size="10.00">gamePlayer.mainClasses.gui</text>
<text text-anchor="middle" x="77" y="-159" font-family="Helvetica,sans-Serif" font-size="10.00">Builder.GuiElement</text>
</a>
</g>
</g>
<!-- Node3&#45;&gt;Node2 -->
<g id="edge2" class="edge"><title>Node3&#45;&gt;Node2</title>
<path fill="none" stroke="midnightblue" d="M164.585,-167C195.689,-167 230.56,-167 260.9,-167"/>
<polygon fill="midnightblue" stroke="midnightblue" points="164.194,-163.5 154.194,-167 164.194,-170.5 164.194,-163.5"/>
</g>
<!-- Node4 -->
<g id="node4" class="node"><title>Node4</title>
<polygon fill="white" stroke="#bfbfbf" points="300.5,-119.5 300.5,-138.5 379.5,-138.5 379.5,-119.5 300.5,-119.5"/>
<text text-anchor="middle" x="340" y="-126.5" font-family="Helvetica,sans-Serif" font-size="10.00">ToggleButton</text>
</g>
<!-- Node4&#45;&gt;Node1 -->
<g id="edge3" class="edge"><title>Node4&#45;&gt;Node1</title>
<path fill="none" stroke="#9a32cd" stroke-dasharray="5,2" d="M389.75,-122.632C423.06,-118.267 468.204,-112.326 508,-107 513.813,-106.222 519.811,-105.416 525.851,-104.601"/>
<polygon fill="#9a32cd" stroke="#9a32cd" points="389.273,-119.164 379.812,-123.933 390.182,-126.105 389.273,-119.164"/>
<text text-anchor="middle" x="473" y="-120" font-family="Helvetica,sans-Serif" font-size="10.00"> myButton</text>
</g>
<!-- Node5 -->
<g id="node5" class="node"><title>Node5</title>
<polygon fill="white" stroke="#bfbfbf" points="306,-81.5 306,-100.5 374,-100.5 374,-81.5 306,-81.5"/>
<text text-anchor="middle" x="340" y="-88.5" font-family="Helvetica,sans-Serif" font-size="10.00">ImageView</text>
</g>
<!-- Node5&#45;&gt;Node1 -->
<g id="edge4" class="edge"><title>Node5&#45;&gt;Node1</title>
<path fill="none" stroke="#9a32cd" stroke-dasharray="5,2" d="M384.316,-91.3209C422.319,-91.6024 478.698,-92.02 525.721,-92.3683"/>
<polygon fill="#9a32cd" stroke="#9a32cd" points="384.133,-87.8195 374.107,-91.2452 384.081,-94.8193 384.133,-87.8195"/>
<text text-anchor="middle" x="473" y="-96" font-family="Helvetica,sans-Serif" font-size="10.00"> myImageView</text>
</g>
<!-- Node6 -->
<g id="node6" class="node"><title>Node6</title>
<polygon fill="white" stroke="#bfbfbf" points="299.5,-38.5 299.5,-57.5 380.5,-57.5 380.5,-38.5 299.5,-38.5"/>
<text text-anchor="middle" x="340" y="-45.5" font-family="Helvetica,sans-Serif" font-size="10.00">Dimension2D</text>
</g>
<!-- Node6&#45;&gt;Node1 -->
<g id="edge5" class="edge"><title>Node6&#45;&gt;Node1</title>
<path fill="none" stroke="#9a32cd" stroke-dasharray="5,2" d="M391.116,-51.4411C424.431,-54.2087 469.052,-58.8374 508,-66 524.999,-69.1262 543.321,-73.5705 559.732,-77.9531"/>
<polygon fill="#9a32cd" stroke="#9a32cd" points="390.966,-47.9179 380.718,-50.6071 390.406,-54.8955 390.966,-47.9179"/>
<text text-anchor="middle" x="473" y="-80" font-family="Helvetica,sans-Serif" font-size="10.00"> imageSize</text>
<text text-anchor="middle" x="473" y="-69" font-family="Helvetica,sans-Serif" font-size="10.00">buttonSize</text>
</g>
<!-- Node7 -->
<g id="node7" class="node"><title>Node7</title>
<g id="a_node7"><a xlink:href="../../df/db4/classutilities_1_1_x_m_l_parsing_1_1_x_m_l_parser.html" target="_top" xlink:title="utilities.XMLParsing.XMLParser">
<polygon fill="white" stroke="black" points="260,-0.5 260,-19.5 420,-19.5 420,-0.5 260,-0.5"/>
<text text-anchor="middle" x="340" y="-7.5" font-family="Helvetica,sans-Serif" font-size="10.00">utilities.XMLParsing.XMLParser</text>
</a>
</g>
</g>
<!-- Node7&#45;&gt;Node1 -->
<g id="edge6" class="edge"><title>Node7&#45;&gt;Node1</title>
<path fill="none" stroke="#9a32cd" stroke-dasharray="5,2" d="M423.524,-21.2563C450.822,-26.1777 481.087,-32.9456 508,-42 535.612,-51.2896 565.23,-66.5713 585.586,-77.9889"/>
<polygon fill="#9a32cd" stroke="#9a32cd" points="424.065,-17.7979 413.612,-19.5258 422.861,-24.6936 424.065,-17.7979"/>
<text text-anchor="middle" x="473" y="-45" font-family="Helvetica,sans-Serif" font-size="10.00"> myParser</text>
</g>
<!-- Node8 -->
<g id="node8" class="node"><title>Node8</title>
<polygon fill="white" stroke="#bfbfbf" points="43.5,-0.5 43.5,-19.5 110.5,-19.5 110.5,-0.5 43.5,-0.5"/>
<text text-anchor="middle" x="77" y="-7.5" font-family="Helvetica,sans-Serif" font-size="10.00">Document</text>
</g>
<!-- Node8&#45;&gt;Node7 -->
<g id="edge7" class="edge"><title>Node8&#45;&gt;Node7</title>
<path fill="none" stroke="#9a32cd" stroke-dasharray="5,2" d="M120.641,-10C158.292,-10 214.161,-10 259.961,-10"/>
<polygon fill="#9a32cd" stroke="#9a32cd" points="120.528,-6.5001 110.528,-10 120.528,-13.5001 120.528,-6.5001"/>
<text text-anchor="middle" x="207" y="-13" font-family="Helvetica,sans-Serif" font-size="10.00"> myDocument</text>
</g>
</g>
</svg>
        <g id="navigator" transform="translate(0 0)" fill="#404254">
                <rect fill="#f2f5e9" fill-opacity="0.5" stroke="#606060" stroke-width=".5" x="0" y="0" width="60" height="60"/>
                <use id="zoomplus" xlink:href="#zoomPlus" x="17" y="9" onmousedown="handleZoom(evt,'in')"/>
                <use id="zoomminus" xlink:href="#zoomMin" x="42" y="9" onmousedown="handleZoom(evt,'out')"/>
                <use id="reset" xlink:href="#resetDef" x="30" y="36" onmousedown="handleReset()"/>
                <g id="arrowUp" xlink:href="#dirArrow" transform="translate(30 24)" onmousedown="handlePan(0,-1)">
                  <use xlink:href="#rim" fill="#404040">
                        <set attributeName="fill" to="#808080" begin="arrowUp.mouseover" end="arrowUp.mouseout"/>
                  </use>
                  <path fill="none" stroke="white" stroke-width="1.5" d="M0,-3.0v7 M-2.5,-0.5L0,-3.0L2.5,-0.5"/>
                </g>
                <g id="arrowRight" xlink:href="#dirArrow" transform="rotate(90) translate(36 -43)" onmousedown="handlePan(1,0)">
                  <use xlink:href="#rim" fill="#404040">
                        <set attributeName="fill" to="#808080" begin="arrowRight.mouseover" end="arrowRight.mouseout"/>
                  </use>
                  <path fill="none" stroke="white" stroke-width="1.5" d="M0,-3.0v7 M-2.5,-0.5L0,-3.0L2.5,-0.5"/>
                </g>
                <g id="arrowDown" xlink:href="#dirArrow" transform="rotate(180) translate(-30 -48)" onmousedown="handlePan(0,1)">
                  <use xlink:href="#rim" fill="#404040">
                        <set attributeName="fill" to="#808080" begin="arrowDown.mouseover" end="arrowDown.mouseout"/>
                  </use>
                  <path fill="none" stroke="white" stroke-width="1.5" d="M0,-3.0v7 M-2.5,-0.5L0,-3.0L2.5,-0.5"/>
                </g>
                <g id="arrowLeft" xlink:href="#dirArrow" transform="rotate(270) translate(-36 17)" onmousedown="handlePan(-1,0)">
                  <use xlink:href="#rim" fill="#404040">
                        <set attributeName="fill" to="#808080" begin="arrowLeft.mouseover" end="arrowLeft.mouseout"/>
                  </use>
                  <path fill="none" stroke="white" stroke-width="1.5" d="M0,-3.0v7 M-2.5,-0.5L0,-3.0L2.5,-0.5"/>
                </g>
        </g>
        <svg viewBox="0 0 15 15" width="100%" height="30px" preserveAspectRatio="xMaxYMin meet">
         <g id="arrow_out" transform="scale(0.3 0.3)">
          <a xlink:href="classgame_player_1_1gui_items_1_1control_dock_buttons_1_1_control_dock_button__coll__graph_org.svg" target="_base">
           <rect id="button" ry="5" rx="5" y="6" x="6" height="38" width="38"
                fill="#f2f5e9" fill-opacity="0.5" stroke="#606060" stroke-width="1.0"/>
           <path id="arrow"
             d="M 11.500037,31.436501 C 11.940474,20.09759 22.043105,11.32322 32.158766,21.979434 L 37.068811,17.246167 C 37.068811,17.246167 37.088388,32 37.088388,32 L 22.160133,31.978069 C 22.160133,31.978069 26.997745,27.140456 26.997745,27.140456 C 18.528582,18.264221 13.291696,25.230495 11.500037,31.436501 z"
             style="fill:#404040;"/>
          </a>
         </g>
        </svg>
</svg>
