<?xml version="1.0" encoding="UTF-8" standalone="no"?>
<!DOCTYPE svg PUBLIC "-//W3C//DTD SVG 1.1//EN"
 "http://www.w3.org/Graphics/SVG/1.1/DTD/svg11.dtd">
<!-- Generated by graphviz version 2.36.0 (20140111.2315)
 -->
<!-- Title: gameAuthoring.mainclasses.AuthorController.setTowerRegions Pages: 1 -->
<svg width="620pt" height="38pt"
 viewBox="0.00 0.00 620.00 38.00" xmlns="http://www.w3.org/2000/svg" xmlns:xlink="http://www.w3.org/1999/xlink">
<g id="graph0" class="graph" transform="scale(1 1) rotate(0) translate(4 34)">
<title>gameAuthoring.mainclasses.AuthorController.setTowerRegions</title>
<polygon fill="white" stroke="none" points="-4,4 -4,-34 616,-34 616,4 -4,4"/>
<!-- Node1 -->
<g id="node1" class="node"><title>Node1</title>
<polygon fill="#bfbfbf" stroke="black" points="0,-0 0,-30 176,-30 176,-0 0,-0"/>
<text text-anchor="start" x="8" y="-18" font-family="Helvetica,sans-Serif" font-size="10.00">gameAuthoring.mainclasses.</text>
<text text-anchor="middle" x="88" y="-7" font-family="Helvetica,sans-Serif" font-size="10.00">AuthorController.setTowerRegions</text>
</g>
<!-- Node2 -->
<g id="node2" class="node"><title>Node2</title>
<g id="a_node2"><a xlink:href="../../d3/d3e/classutilities_1_1_g_s_o_n_1_1_g_s_o_n_file_writer.html#ab7c988160e6352721b786f13001d3e9b" target="_top" xlink:title="utilities.GSON.GSONFileWriter.write\lTowerRegions">
<polygon fill="white" stroke="black" points="212,-0 212,-30 394,-30 394,-0 212,-0"/>
<text text-anchor="start" x="220" y="-18" font-family="Helvetica,sans-Serif" font-size="10.00">utilities.GSON.GSONFileWriter.write</text>
<text text-anchor="middle" x="303" y="-7" font-family="Helvetica,sans-Serif" font-size="10.00">TowerRegions</text>
</a>
</g>
</g>
<!-- Node1&#45;&gt;Node2 -->
<g id="edge1" class="edge"><title>Node1&#45;&gt;Node2</title>
<path fill="none" stroke="midnightblue" d="M176.25,-15C184.581,-15 193.075,-15 201.518,-15"/>
<polygon fill="midnightblue" stroke="midnightblue" points="201.777,-18.5001 211.777,-15 201.777,-11.5001 201.777,-18.5001"/>
</g>
<!-- Node3 -->
<g id="node3" class="node"><title>Node3</title>
<g id="a_node3"><a xlink:href="../../d3/d3e/classutilities_1_1_g_s_o_n_1_1_g_s_o_n_file_writer.html#a9018e07caa8dfef50acd084050fc8713" target="_top" xlink:title="utilities.GSON.GSONFileWriter.write\lToFile">
<polygon fill="white" stroke="black" points="430,-0 430,-30 612,-30 612,-0 430,-0"/>
<text text-anchor="start" x="438" y="-18" font-family="Helvetica,sans-Serif" font-size="10.00">utilities.GSON.GSONFileWriter.write</text>
<text text-anchor="middle" x="521" y="-7" font-family="Helvetica,sans-Serif" font-size="10.00">ToFile</text>
</a>
</g>
</g>
<!-- Node2&#45;&gt;Node3 -->
<g id="edge2" class="edge"><title>Node2&#45;&gt;Node3</title>
<path fill="none" stroke="midnightblue" d="M394.039,-15C402.526,-15 411.165,-15 419.738,-15"/>
<polygon fill="midnightblue" stroke="midnightblue" points="419.759,-18.5001 429.759,-15 419.759,-11.5001 419.759,-18.5001"/>
</g>
</g>
</svg>
