<?xml version="1.0" encoding="UTF-8" standalone="no"?>
<!DOCTYPE svg PUBLIC "-//W3C//DTD SVG 1.1//EN"
 "http://www.w3.org/Graphics/SVG/1.1/DTD/svg11.dtd">
<!-- Generated by graphviz version 2.36.0 (20140111.2315)
 -->
<!-- Title: gameAuthoring.mainclasses.AuthorController.configureTowers Pages: 1 -->
<svg width="854pt" height="111pt"
 viewBox="0.00 0.00 854.00 111.00" xmlns="http://www.w3.org/2000/svg" xmlns:xlink="http://www.w3.org/1999/xlink">
<g id="graph0" class="graph" transform="scale(1 1) rotate(0) translate(4 107)">
<title>gameAuthoring.mainclasses.AuthorController.configureTowers</title>
<polygon fill="white" stroke="none" points="-4,4 -4,-107 850,-107 850,4 -4,4"/>
<!-- Node1 -->
<g id="node1" class="node"><title>Node1</title>
<polygon fill="#bfbfbf" stroke="black" points="0.5,-48 0.5,-78 173.5,-78 173.5,-48 0.5,-48"/>
<text text-anchor="start" x="8.5" y="-66" font-family="Helvetica,sans-Serif" font-size="10.00">gameAuthoring.mainclasses.</text>
<text text-anchor="middle" x="87" y="-55" font-family="Helvetica,sans-Serif" font-size="10.00">AuthorController.configureTowers</text>
</g>
<!-- Node2 -->
<g id="node2" class="node"><title>Node2</title>
<g id="a_node2"><a xlink:href="../../d6/d87/classgame_authoring_1_1mainclasses_1_1_author_controller.html#a4e4a7c79ed3afaf0c52781ee2912c3c6" target="_top" xlink:title="gameAuthoring.mainclasses.\lAuthorController.notEnoughTowers">
<polygon fill="white" stroke="black" points="226.5,-73 226.5,-103 407.5,-103 407.5,-73 226.5,-73"/>
<text text-anchor="start" x="234.5" y="-91" font-family="Helvetica,sans-Serif" font-size="10.00">gameAuthoring.mainclasses.</text>
<text text-anchor="middle" x="317" y="-80" font-family="Helvetica,sans-Serif" font-size="10.00">AuthorController.notEnoughTowers</text>
</a>
</g>
</g>
<!-- Node1&#45;&gt;Node2 -->
<g id="edge1" class="edge"><title>Node1&#45;&gt;Node2</title>
<path fill="none" stroke="midnightblue" d="M173.547,-72.3802C187.376,-73.8965 201.801,-75.4782 215.936,-77.0281"/>
<polygon fill="midnightblue" stroke="midnightblue" points="215.843,-80.5387 226.165,-78.1496 216.606,-73.5804 215.843,-80.5387"/>
</g>
<!-- Node3 -->
<g id="node3" class="node"><title>Node3</title>
<g id="a_node3"><a xlink:href="../../d6/d87/classgame_authoring_1_1mainclasses_1_1_author_controller.html#ade2c0b5aaad7029da07a3dadb4b81b9f" target="_top" xlink:title="gameAuthoring.mainclasses.\lAuthorController.showLevelBuildingScene">
<polygon fill="white" stroke="black" points="210,-24 210,-54 424,-54 424,-24 210,-24"/>
<text text-anchor="start" x="218" y="-42" font-family="Helvetica,sans-Serif" font-size="10.00">gameAuthoring.mainclasses.</text>
<text text-anchor="middle" x="317" y="-31" font-family="Helvetica,sans-Serif" font-size="10.00">AuthorController.showLevelBuildingScene</text>
</a>
</g>
</g>
<!-- Node1&#45;&gt;Node3 -->
<g id="edge2" class="edge"><title>Node1&#45;&gt;Node3</title>
<path fill="none" stroke="midnightblue" d="M173.547,-53.995C182.177,-53.0866 191.04,-52.1537 199.919,-51.2191"/>
<polygon fill="midnightblue" stroke="midnightblue" points="200.361,-54.692 209.939,-50.1643 199.628,-47.7304 200.361,-54.692"/>
</g>
<!-- Node4 -->
<g id="node4" class="node"><title>Node4</title>
<g id="a_node4"><a xlink:href="../../d6/d87/classgame_authoring_1_1mainclasses_1_1_author_controller.html#a91f790fde3a8af19e3308cac96d4dc23" target="_top" xlink:title="gameAuthoring.mainclasses.\lAuthorController.setSceneAndTitle">
<polygon fill="white" stroke="black" points="460.5,-24 460.5,-54 641.5,-54 641.5,-24 460.5,-24"/>
<text text-anchor="start" x="468.5" y="-42" font-family="Helvetica,sans-Serif" font-size="10.00">gameAuthoring.mainclasses.</text>
<text text-anchor="middle" x="551" y="-31" font-family="Helvetica,sans-Serif" font-size="10.00">AuthorController.setSceneAndTitle</text>
</a>
</g>
</g>
<!-- Node3&#45;&gt;Node4 -->
<g id="edge3" class="edge"><title>Node3&#45;&gt;Node4</title>
<path fill="none" stroke="midnightblue" d="M424.155,-39C432.816,-39 441.552,-39 450.166,-39"/>
<polygon fill="midnightblue" stroke="midnightblue" points="450.21,-42.5001 460.21,-39 450.21,-35.5001 450.21,-42.5001"/>
</g>
<!-- Node5 -->
<g id="node5" class="node"><title>Node5</title>
<g id="a_node5"><a xlink:href="../../d3/d57/classgame_authoring_1_1scenes_1_1_building_scene.html#adc8d9b19ad9462a9a8e6ab8a82f7bf3a" target="_top" xlink:title="gameAuthoring.scenes.Building\lScene.getScene">
<polygon fill="white" stroke="black" points="678,-49 678,-79 846,-79 846,-49 678,-49"/>
<text text-anchor="start" x="686" y="-67" font-family="Helvetica,sans-Serif" font-size="10.00">gameAuthoring.scenes.Building</text>
<text text-anchor="middle" x="762" y="-56" font-family="Helvetica,sans-Serif" font-size="10.00">Scene.getScene</text>
</a>
</g>
</g>
<!-- Node4&#45;&gt;Node5 -->
<g id="edge4" class="edge"><title>Node4&#45;&gt;Node5</title>
<path fill="none" stroke="midnightblue" d="M641.544,-49.711C650.224,-50.7493 659.045,-51.8044 667.76,-52.8468"/>
<polygon fill="midnightblue" stroke="midnightblue" points="667.582,-56.3504 677.927,-54.063 668.413,-49.4 667.582,-56.3504"/>
</g>
<!-- Node6 -->
<g id="node6" class="node"><title>Node6</title>
<g id="a_node6"><a xlink:href="../../d3/d57/classgame_authoring_1_1scenes_1_1_building_scene.html#a0a4c161ec45d0064d18c5e9997bb6a22" target="_top" xlink:title="gameAuthoring.scenes.Building\lScene.getTitle">
<polygon fill="white" stroke="black" points="678,-0 678,-30 846,-30 846,-0 678,-0"/>
<text text-anchor="start" x="686" y="-18" font-family="Helvetica,sans-Serif" font-size="10.00">gameAuthoring.scenes.Building</text>
<text text-anchor="middle" x="762" y="-7" font-family="Helvetica,sans-Serif" font-size="10.00">Scene.getTitle</text>
</a>
</g>
</g>
<!-- Node4&#45;&gt;Node6 -->
<g id="edge5" class="edge"><title>Node4&#45;&gt;Node6</title>
<path fill="none" stroke="midnightblue" d="M641.544,-28.7174C650.224,-27.7207 659.045,-26.7078 667.76,-25.707"/>
<polygon fill="midnightblue" stroke="midnightblue" points="668.391,-29.1576 677.927,-24.5395 667.593,-22.2033 668.391,-29.1576"/>
</g>
</g>
</svg>
