<?xml version="1.0" encoding="UTF-8" standalone="no"?>
<!DOCTYPE svg PUBLIC "-//W3C//DTD SVG 1.1//EN"
 "http://www.w3.org/Graphics/SVG/1.1/DTD/svg11.dtd">
<!-- Generated by graphviz version 2.36.0 (20140111.2315)
 -->
<!-- Title: gameAuthoring.mainclasses.AuthorController.showEnemyBuildingScene Pages: 1 -->
<svg width="430pt" height="38pt"
 viewBox="0.00 0.00 430.00 38.00" xmlns="http://www.w3.org/2000/svg" xmlns:xlink="http://www.w3.org/1999/xlink">
<g id="graph0" class="graph" transform="scale(1 1) rotate(0) translate(4 34)">
<title>gameAuthoring.mainclasses.AuthorController.showEnemyBuildingScene</title>
<polygon fill="white" stroke="none" points="-4,4 -4,-34 426,-34 426,4 -4,4"/>
<!-- Node1 -->
<g id="node1" class="node"><title>Node1</title>
<polygon fill="#bfbfbf" stroke="black" points="0,-0 0,-30 222,-30 222,-0 0,-0"/>
<text text-anchor="start" x="8" y="-18" font-family="Helvetica,sans-Serif" font-size="10.00">gameAuthoring.mainclasses.</text>
<text text-anchor="middle" x="111" y="-7" font-family="Helvetica,sans-Serif" font-size="10.00">AuthorController.showEnemyBuildingScene</text>
</g>
<!-- Node2 -->
<g id="node2" class="node"><title>Node2</title>
<g id="a_node2"><a xlink:href="../../d6/d87/classgame_authoring_1_1mainclasses_1_1_author_controller.html#a2bef83166256e4f814582d40095658fd" target="_top" xlink:title="gameAuthoring.mainclasses.\lAuthorController.configurePath">
<polygon fill="white" stroke="black" points="258.5,-0 258.5,-30 421.5,-30 421.5,-0 258.5,-0"/>
<text text-anchor="start" x="266.5" y="-18" font-family="Helvetica,sans-Serif" font-size="10.00">gameAuthoring.mainclasses.</text>
<text text-anchor="middle" x="340" y="-7" font-family="Helvetica,sans-Serif" font-size="10.00">AuthorController.configurePath</text>
</a>
</g>
</g>
<!-- Node1&#45;&gt;Node2 -->
<g id="edge1" class="edge"><title>Node1&#45;&gt;Node2</title>
<path fill="none" stroke="midnightblue" d="M232.183,-15C241.037,-15 249.836,-15 258.364,-15"/>
<polygon fill="midnightblue" stroke="midnightblue" points="232.175,-11.5001 222.175,-15 232.175,-18.5001 232.175,-11.5001"/>
</g>
</g>
</svg>
