<?xml version="1.0" encoding="UTF-8" standalone="no"?>
<!DOCTYPE svg PUBLIC "-//W3C//DTD SVG 1.1//EN"
 "http://www.w3.org/Graphics/SVG/1.1/DTD/svg11.dtd">
<!-- Generated by graphviz version 2.36.0 (20140111.2315)
 -->
<!-- Title: gameAuthoring.mainclasses.AuthorController.configurePath Pages: 1 -->
<svg width="866pt" height="133pt"
 viewBox="0.00 0.00 866.00 133.00" xmlns="http://www.w3.org/2000/svg" xmlns:xlink="http://www.w3.org/1999/xlink">
<g id="graph0" class="graph" transform="scale(1 1) rotate(0) translate(4 129)">
<title>gameAuthoring.mainclasses.AuthorController.configurePath</title>
<polygon fill="white" stroke="none" points="-4,4 -4,-129 862,-129 862,4 -4,4"/>
<!-- Node1 -->
<g id="node1" class="node"><title>Node1</title>
<polygon fill="#bfbfbf" stroke="black" points="0.5,-54 0.5,-84 163.5,-84 163.5,-54 0.5,-54"/>
<text text-anchor="start" x="8.5" y="-72" font-family="Helvetica,sans-Serif" font-size="10.00">gameAuthoring.mainclasses.</text>
<text text-anchor="middle" x="82" y="-61" font-family="Helvetica,sans-Serif" font-size="10.00">AuthorController.configurePath</text>
</g>
<!-- Node2 -->
<g id="node2" class="node"><title>Node2</title>
<g id="a_node2"><a xlink:href="../../d8/dc4/classgame_authoring_1_1scenes_1_1path_building_1_1path_components_1_1route_to_point_translation_1_1_backend_routes_generator.html#a3d1d0aa9b9bd76641d45856238273f4b" target="_top" xlink:title="gameAuthoring.scenes.path\lBuilding.pathComponents.routeTo\lPointTranslation.BackendRoutesGenerator.get\lBackendRoutes">
<polygon fill="white" stroke="black" points="200.5,-73 200.5,-125 435.5,-125 435.5,-73 200.5,-73"/>
<text text-anchor="start" x="208.5" y="-113" font-family="Helvetica,sans-Serif" font-size="10.00">gameAuthoring.scenes.path</text>
<text text-anchor="start" x="208.5" y="-102" font-family="Helvetica,sans-Serif" font-size="10.00">Building.pathComponents.routeTo</text>
<text text-anchor="start" x="208.5" y="-91" font-family="Helvetica,sans-Serif" font-size="10.00">PointTranslation.BackendRoutesGenerator.get</text>
<text text-anchor="middle" x="318" y="-80" font-family="Helvetica,sans-Serif" font-size="10.00">BackendRoutes</text>
</a>
</g>
</g>
<!-- Node1&#45;&gt;Node2 -->
<g id="edge1" class="edge"><title>Node1&#45;&gt;Node2</title>
<path fill="none" stroke="midnightblue" d="M163.53,-79.3243C172.174,-80.4326 181.114,-81.5788 190.133,-82.735"/>
<polygon fill="midnightblue" stroke="midnightblue" points="189.973,-86.2431 200.337,-84.0433 190.864,-79.2999 189.973,-86.2431"/>
</g>
<!-- Node3 -->
<g id="node3" class="node"><title>Node3</title>
<g id="a_node3"><a xlink:href="../../d6/d87/classgame_authoring_1_1mainclasses_1_1_author_controller.html#a186f2328add62d4efb4152295884e005" target="_top" xlink:title="gameAuthoring.mainclasses.\lAuthorController.showEnemyBuildingScene">
<polygon fill="white" stroke="black" points="207,-24 207,-54 429,-54 429,-24 207,-24"/>
<text text-anchor="start" x="215" y="-42" font-family="Helvetica,sans-Serif" font-size="10.00">gameAuthoring.mainclasses.</text>
<text text-anchor="middle" x="318" y="-31" font-family="Helvetica,sans-Serif" font-size="10.00">AuthorController.showEnemyBuildingScene</text>
</a>
</g>
</g>
<!-- Node1&#45;&gt;Node3 -->
<g id="edge2" class="edge"><title>Node1&#45;&gt;Node3</title>
<path fill="none" stroke="midnightblue" d="M163.53,-58.6757C174.368,-57.2861 185.671,-55.8371 197.011,-54.3833"/>
<polygon fill="midnightblue" stroke="midnightblue" points="197.501,-57.8491 206.975,-53.1058 196.611,-50.9059 197.501,-57.8491"/>
</g>
<!-- Node4 -->
<g id="node4" class="node"><title>Node4</title>
<g id="a_node4"><a xlink:href="../../d6/d87/classgame_authoring_1_1mainclasses_1_1_author_controller.html#a91f790fde3a8af19e3308cac96d4dc23" target="_top" xlink:title="gameAuthoring.mainclasses.\lAuthorController.setSceneAndTitle">
<polygon fill="white" stroke="black" points="472.5,-24 472.5,-54 653.5,-54 653.5,-24 472.5,-24"/>
<text text-anchor="start" x="480.5" y="-42" font-family="Helvetica,sans-Serif" font-size="10.00">gameAuthoring.mainclasses.</text>
<text text-anchor="middle" x="563" y="-31" font-family="Helvetica,sans-Serif" font-size="10.00">AuthorController.setSceneAndTitle</text>
</a>
</g>
</g>
<!-- Node3&#45;&gt;Node4 -->
<g id="edge3" class="edge"><title>Node3&#45;&gt;Node4</title>
<path fill="none" stroke="midnightblue" d="M429.124,-39C440.068,-39 451.136,-39 461.969,-39"/>
<polygon fill="midnightblue" stroke="midnightblue" points="462.271,-42.5001 472.271,-39 462.271,-35.5001 462.271,-42.5001"/>
</g>
<!-- Node5 -->
<g id="node5" class="node"><title>Node5</title>
<g id="a_node5"><a xlink:href="../../d3/d57/classgame_authoring_1_1scenes_1_1_building_scene.html#adc8d9b19ad9462a9a8e6ab8a82f7bf3a" target="_top" xlink:title="gameAuthoring.scenes.Building\lScene.getScene">
<polygon fill="white" stroke="black" points="690,-49 690,-79 858,-79 858,-49 690,-49"/>
<text text-anchor="start" x="698" y="-67" font-family="Helvetica,sans-Serif" font-size="10.00">gameAuthoring.scenes.Building</text>
<text text-anchor="middle" x="774" y="-56" font-family="Helvetica,sans-Serif" font-size="10.00">Scene.getScene</text>
</a>
</g>
</g>
<!-- Node4&#45;&gt;Node5 -->
<g id="edge4" class="edge"><title>Node4&#45;&gt;Node5</title>
<path fill="none" stroke="midnightblue" d="M653.544,-49.711C662.224,-50.7493 671.045,-51.8044 679.76,-52.8468"/>
<polygon fill="midnightblue" stroke="midnightblue" points="679.582,-56.3504 689.927,-54.063 680.413,-49.4 679.582,-56.3504"/>
</g>
<!-- Node6 -->
<g id="node6" class="node"><title>Node6</title>
<g id="a_node6"><a xlink:href="../../d3/d57/classgame_authoring_1_1scenes_1_1_building_scene.html#a0a4c161ec45d0064d18c5e9997bb6a22" target="_top" xlink:title="gameAuthoring.scenes.Building\lScene.getTitle">
<polygon fill="white" stroke="black" points="690,-0 690,-30 858,-30 858,-0 690,-0"/>
<text text-anchor="start" x="698" y="-18" font-family="Helvetica,sans-Serif" font-size="10.00">gameAuthoring.scenes.Building</text>
<text text-anchor="middle" x="774" y="-7" font-family="Helvetica,sans-Serif" font-size="10.00">Scene.getTitle</text>
</a>
</g>
</g>
<!-- Node4&#45;&gt;Node6 -->
<g id="edge5" class="edge"><title>Node4&#45;&gt;Node6</title>
<path fill="none" stroke="midnightblue" d="M653.544,-28.7174C662.224,-27.7207 671.045,-26.7078 679.76,-25.707"/>
<polygon fill="midnightblue" stroke="midnightblue" points="680.391,-29.1576 689.927,-24.5395 679.593,-22.2033 680.391,-29.1576"/>
</g>
</g>
</svg>
