<?xml version="1.0" encoding="UTF-8" standalone="no"?>
<!DOCTYPE svg PUBLIC "-//W3C//DTD SVG 1.1//EN"
 "http://www.w3.org/Graphics/SVG/1.1/DTD/svg11.dtd">
<!-- Generated by graphviz version 2.36.0 (20140111.2315)
 -->
<!-- Title: gameAuthoring.mainclasses.AuthorController.configureLevels Pages: 1 -->
<!--zoomable 97 -->
<svg id="main" version="1.1" xmlns="http://www.w3.org/2000/svg" xmlns:xlink="http://www.w3.org/1999/xlink" xml:space="preserve" onload="init(evt)">
<style type="text/css"><![CDATA[
.edge:hover path { stroke: red; }
.edge:hover polygon { stroke: red; fill: red; }
]]></style>
<script type="text/javascript"><![CDATA[
var edges = document.getElementsByTagName('g');
if (edges && edges.length) {
  for (var i=0;i<edges.length;i++) {
    if (edges[i].id.substr(0,4)=='edge') {
      edges[i].setAttribute('class','edge');
    }
  }
}
]]></script>
        <defs>
                <circle id="rim" cx="0" cy="0" r="7"/>
                <circle id="rim2" cx="0" cy="0" r="3.5"/>
                <g id="zoomPlus">
                        <use xlink:href="#rim" fill="#404040">
                                <set attributeName="fill" to="#808080" begin="zoomplus.mouseover" end="zoomplus.mouseout"/>
                        </use>
                        <path d="M-4,0h8M0,-4v8" fill="none" stroke="white" stroke-width="1.5" pointer-events="none"/>
                </g>
                <g id="zoomMin">
                        <use xlink:href="#rim" fill="#404040">
                                <set attributeName="fill" to="#808080" begin="zoomminus.mouseover" end="zoomminus.mouseout"/>
                        </use>
                        <path d="M-4,0h8" fill="none" stroke="white" stroke-width="1.5" pointer-events="none"/>
                </g>
                <g id="dirArrow">
                        <path fill="none" stroke="white" stroke-width="1.5" d="M0,-3.0v7 M-2.5,-0.5L0,-3.0L2.5,-0.5"/>
                </g>
               <g id="resetDef">
                       <use xlink:href="#rim2" fill="#404040">
                               <set attributeName="fill" to="#808080" begin="reset.mouseover" end="reset.mouseout"/>
                       </use>
               </g>
        </defs>

<script type="text/javascript">
var viewWidth = 864;
var viewHeight = 97;
var sectionId = 'dynsection-4';
</script>
<script xlink:href="../../svgpan.js"/>
<svg id="graph" class="graph">
<g id="viewport">
<title>gameAuthoring.mainclasses.AuthorController.configureLevels</title>
<polygon fill="white" stroke="none" points="-4,4 -4,-93 860,-93 860,4 -4,4"/>
<!-- Node1 -->
<g id="node1" class="node"><title>Node1</title>
<polygon fill="#bfbfbf" stroke="black" points="0,-32 0,-62 172,-62 172,-32 0,-32"/>
<text text-anchor="start" x="8" y="-50" font-family="Helvetica,sans-Serif" font-size="10.00">gameAuthoring.mainclasses.</text>
<text text-anchor="middle" x="86" y="-39" font-family="Helvetica,sans-Serif" font-size="10.00">AuthorController.configureLevels</text>
</g>
<!-- Node2 -->
<g id="node2" class="node"><title>Node2</title>
<g id="a_node2"><a xlink:href="../../d6/d87/classgame_authoring_1_1mainclasses_1_1_author_controller.html#a42183719550aaaf71d1f05630f6d8c42" target="_top" xlink:title="gameAuthoring.mainclasses.\lAuthorController.showGSONWritingScene">
<polygon fill="white" stroke="black" points="208,-32 208,-62 420,-62 420,-32 208,-32"/>
<text text-anchor="start" x="216" y="-50" font-family="Helvetica,sans-Serif" font-size="10.00">gameAuthoring.mainclasses.</text>
<text text-anchor="middle" x="314" y="-39" font-family="Helvetica,sans-Serif" font-size="10.00">AuthorController.showGSONWritingScene</text>
</a>
</g>
</g>
<!-- Node1&#45;&gt;Node2 -->
<g id="edge1" class="edge"><title>Node1&#45;&gt;Node2</title>
<path fill="none" stroke="midnightblue" d="M172.119,-47C180.483,-47 189.064,-47 197.663,-47"/>
<polygon fill="midnightblue" stroke="midnightblue" points="197.754,-50.5001 207.754,-47 197.754,-43.5001 197.754,-50.5001"/>
</g>
<!-- Node3 -->
<g id="node3" class="node"><title>Node3</title>
<g id="a_node3"><a xlink:href="../../d3/d3e/classutilities_1_1_g_s_o_n_1_1_g_s_o_n_file_writer.html#a333c331c33342ee0080df3ec1a0500e3" target="_top" xlink:title="utilities.GSON.GSONFileWriter.write\lGameFile">
<polygon fill="white" stroke="black" points="456,-59 456,-89 638,-89 638,-59 456,-59"/>
<text text-anchor="start" x="464" y="-77" font-family="Helvetica,sans-Serif" font-size="10.00">utilities.GSON.GSONFileWriter.write</text>
<text text-anchor="middle" x="547" y="-66" font-family="Helvetica,sans-Serif" font-size="10.00">GameFile</text>
</a>
</g>
</g>
<!-- Node2&#45;&gt;Node3 -->
<g id="edge2" class="edge"><title>Node2&#45;&gt;Node3</title>
<path fill="none" stroke="midnightblue" d="M420.023,-59.2754C428.589,-60.2767 437.233,-61.287 445.764,-62.2841"/>
<polygon fill="midnightblue" stroke="midnightblue" points="445.376,-65.7625 455.715,-63.4472 446.189,-58.8099 445.376,-65.7625"/>
</g>
<!-- Node5 -->
<g id="node5" class="node"><title>Node5</title>
<g id="a_node5"><a xlink:href="../../d6/d87/classgame_authoring_1_1mainclasses_1_1_author_controller.html#ae0c01835ccab7392448c7bb04657feed" target="_top" xlink:title="gameAuthoring.mainclasses.\lAuthorController.writeBackground\lImageToGameDir">
<polygon fill="white" stroke="black" points="458.5,0.5 458.5,-40.5 635.5,-40.5 635.5,0.5 458.5,0.5"/>
<text text-anchor="start" x="466.5" y="-28.5" font-family="Helvetica,sans-Serif" font-size="10.00">gameAuthoring.mainclasses.</text>
<text text-anchor="start" x="466.5" y="-17.5" font-family="Helvetica,sans-Serif" font-size="10.00">AuthorController.writeBackground</text>
<text text-anchor="middle" x="547" y="-6.5" font-family="Helvetica,sans-Serif" font-size="10.00">ImageToGameDir</text>
</a>
</g>
</g>
<!-- Node2&#45;&gt;Node5 -->
<g id="edge4" class="edge"><title>Node2&#45;&gt;Node5</title>
<path fill="none" stroke="midnightblue" d="M420.023,-34.7246C429.388,-33.6299 438.846,-32.5245 448.148,-31.4373"/>
<polygon fill="midnightblue" stroke="midnightblue" points="448.642,-34.9035 458.168,-30.2661 447.829,-27.9508 448.642,-34.9035"/>
</g>
<!-- Node4 -->
<g id="node4" class="node"><title>Node4</title>
<g id="a_node4"><a xlink:href="../../d3/d3e/classutilities_1_1_g_s_o_n_1_1_g_s_o_n_file_writer.html#a9018e07caa8dfef50acd084050fc8713" target="_top" xlink:title="utilities.GSON.GSONFileWriter.write\lToFile">
<polygon fill="white" stroke="black" points="674,-59 674,-89 856,-89 856,-59 674,-59"/>
<text text-anchor="start" x="682" y="-77" font-family="Helvetica,sans-Serif" font-size="10.00">utilities.GSON.GSONFileWriter.write</text>
<text text-anchor="middle" x="765" y="-66" font-family="Helvetica,sans-Serif" font-size="10.00">ToFile</text>
</a>
</g>
</g>
<!-- Node3&#45;&gt;Node4 -->
<g id="edge3" class="edge"><title>Node3&#45;&gt;Node4</title>
<path fill="none" stroke="midnightblue" d="M638.039,-74C646.526,-74 655.165,-74 663.738,-74"/>
<polygon fill="midnightblue" stroke="midnightblue" points="663.759,-77.5001 673.759,-74 663.759,-70.5001 663.759,-77.5001"/>
</g>
</g>
</svg>
        <g id="navigator" transform="translate(0 0)" fill="#404254">
                <rect fill="#f2f5e9" fill-opacity="0.5" stroke="#606060" stroke-width=".5" x="0" y="0" width="60" height="60"/>
                <use id="zoomplus" xlink:href="#zoomPlus" x="17" y="9" onmousedown="handleZoom(evt,'in')"/>
                <use id="zoomminus" xlink:href="#zoomMin" x="42" y="9" onmousedown="handleZoom(evt,'out')"/>
                <use id="reset" xlink:href="#resetDef" x="30" y="36" onmousedown="handleReset()"/>
                <g id="arrowUp" xlink:href="#dirArrow" transform="translate(30 24)" onmousedown="handlePan(0,-1)">
                  <use xlink:href="#rim" fill="#404040">
                        <set attributeName="fill" to="#808080" begin="arrowUp.mouseover" end="arrowUp.mouseout"/>
                  </use>
                  <path fill="none" stroke="white" stroke-width="1.5" d="M0,-3.0v7 M-2.5,-0.5L0,-3.0L2.5,-0.5"/>
                </g>
                <g id="arrowRight" xlink:href="#dirArrow" transform="rotate(90) translate(36 -43)" onmousedown="handlePan(1,0)">
                  <use xlink:href="#rim" fill="#404040">
                        <set attributeName="fill" to="#808080" begin="arrowRight.mouseover" end="arrowRight.mouseout"/>
                  </use>
                  <path fill="none" stroke="white" stroke-width="1.5" d="M0,-3.0v7 M-2.5,-0.5L0,-3.0L2.5,-0.5"/>
                </g>
                <g id="arrowDown" xlink:href="#dirArrow" transform="rotate(180) translate(-30 -48)" onmousedown="handlePan(0,1)">
                  <use xlink:href="#rim" fill="#404040">
                        <set attributeName="fill" to="#808080" begin="arrowDown.mouseover" end="arrowDown.mouseout"/>
                  </use>
                  <path fill="none" stroke="white" stroke-width="1.5" d="M0,-3.0v7 M-2.5,-0.5L0,-3.0L2.5,-0.5"/>
                </g>
                <g id="arrowLeft" xlink:href="#dirArrow" transform="rotate(270) translate(-36 17)" onmousedown="handlePan(-1,0)">
                  <use xlink:href="#rim" fill="#404040">
                        <set attributeName="fill" to="#808080" begin="arrowLeft.mouseover" end="arrowLeft.mouseout"/>
                  </use>
                  <path fill="none" stroke="white" stroke-width="1.5" d="M0,-3.0v7 M-2.5,-0.5L0,-3.0L2.5,-0.5"/>
                </g>
        </g>
        <svg viewBox="0 0 15 15" width="100%" height="30px" preserveAspectRatio="xMaxYMin meet">
         <g id="arrow_out" transform="scale(0.3 0.3)">
          <a xlink:href="classgame_authoring_1_1mainclasses_1_1_author_controller_ad97f76dfdff516d025e26ad75afe47e0_cgraph_org.svg" target="_base">
           <rect id="button" ry="5" rx="5" y="6" x="6" height="38" width="38"
                fill="#f2f5e9" fill-opacity="0.5" stroke="#606060" stroke-width="1.0"/>
           <path id="arrow"
             d="M 11.500037,31.436501 C 11.940474,20.09759 22.043105,11.32322 32.158766,21.979434 L 37.068811,17.246167 C 37.068811,17.246167 37.088388,32 37.088388,32 L 22.160133,31.978069 C 22.160133,31.978069 26.997745,27.140456 26.997745,27.140456 C 18.528582,18.264221 13.291696,25.230495 11.500037,31.436501 z"
             style="fill:#404040;"/>
          </a>
         </g>
        </svg>
</svg>
