<?xml version="1.0" encoding="UTF-8" standalone="no"?>
<!DOCTYPE svg PUBLIC "-//W3C//DTD SVG 1.1//EN"
 "http://www.w3.org/Graphics/SVG/1.1/DTD/svg11.dtd">
<!-- Generated by graphviz version 2.36.0 (20140111.2315)
 -->
<!-- Title: gameAuthoring.mainclasses.AuthorController.configureAndDisplayStage Pages: 1 -->
<svg width="424pt" height="38pt"
 viewBox="0.00 0.00 424.00 38.00" xmlns="http://www.w3.org/2000/svg" xmlns:xlink="http://www.w3.org/1999/xlink">
<g id="graph0" class="graph" transform="scale(1 1) rotate(0) translate(4 34)">
<title>gameAuthoring.mainclasses.AuthorController.configureAndDisplayStage</title>
<polygon fill="white" stroke="none" points="-4,4 -4,-34 420,-34 420,4 -4,4"/>
<!-- Node1 -->
<g id="node1" class="node"><title>Node1</title>
<polygon fill="#bfbfbf" stroke="black" points="0,-0 0,-30 224,-30 224,-0 0,-0"/>
<text text-anchor="start" x="8" y="-18" font-family="Helvetica,sans-Serif" font-size="10.00">gameAuthoring.mainclasses.</text>
<text text-anchor="middle" x="112" y="-7" font-family="Helvetica,sans-Serif" font-size="10.00">AuthorController.configureAndDisplayStage</text>
</g>
<!-- Node2 -->
<g id="node2" class="node"><title>Node2</title>
<g id="a_node2"><a xlink:href="../../d6/d87/classgame_authoring_1_1mainclasses_1_1_author_controller.html#ae542dc4fa7cdb6ede23dee41b5070676" target="_top" xlink:title="gameAuthoring.mainclasses.\lAuthorController.start">
<polygon fill="white" stroke="black" points="260,-0 260,-30 416,-30 416,-0 260,-0"/>
<text text-anchor="start" x="268" y="-18" font-family="Helvetica,sans-Serif" font-size="10.00">gameAuthoring.mainclasses.</text>
<text text-anchor="middle" x="338" y="-7" font-family="Helvetica,sans-Serif" font-size="10.00">AuthorController.start</text>
</a>
</g>
</g>
<!-- Node1&#45;&gt;Node2 -->
<g id="edge1" class="edge"><title>Node1&#45;&gt;Node2</title>
<path fill="none" stroke="midnightblue" d="M234.217,-15C242.889,-15 251.487,-15 259.8,-15"/>
<polygon fill="midnightblue" stroke="midnightblue" points="234.016,-11.5001 224.016,-15 234.016,-18.5001 234.016,-11.5001"/>
</g>
</g>
</svg>
