<?xml version="1.0" encoding="UTF-8" standalone="no"?>
<!DOCTYPE svg PUBLIC "-//W3C//DTD SVG 1.1//EN"
 "http://www.w3.org/Graphics/SVG/1.1/DTD/svg11.dtd">
<!-- Generated by graphviz version 2.36.0 (20140111.2315)
 -->
<!-- Title: gameAuthoring.mainclasses.AuthorController.configureLevels Pages: 1 -->
<svg width="864pt" height="97pt"
 viewBox="0.00 0.00 864.00 97.00" xmlns="http://www.w3.org/2000/svg" xmlns:xlink="http://www.w3.org/1999/xlink">
<g id="graph0" class="graph" transform="scale(1 1) rotate(0) translate(4 93)">
<title>gameAuthoring.mainclasses.AuthorController.configureLevels</title>
<polygon fill="white" stroke="none" points="-4,4 -4,-93 860,-93 860,4 -4,4"/>
<!-- Node1 -->
<g id="node1" class="node"><title>Node1</title>
<polygon fill="#bfbfbf" stroke="black" points="0,-32 0,-62 172,-62 172,-32 0,-32"/>
<text text-anchor="start" x="8" y="-50" font-family="Helvetica,sans-Serif" font-size="10.00">gameAuthoring.mainclasses.</text>
<text text-anchor="middle" x="86" y="-39" font-family="Helvetica,sans-Serif" font-size="10.00">AuthorController.configureLevels</text>
</g>
<!-- Node2 -->
<g id="node2" class="node"><title>Node2</title>
<g id="a_node2"><a xlink:href="../../d6/d87/classgame_authoring_1_1mainclasses_1_1_author_controller.html#a42183719550aaaf71d1f05630f6d8c42" target="_top" xlink:title="gameAuthoring.mainclasses.\lAuthorController.showGSONWritingScene">
<polygon fill="white" stroke="black" points="208,-32 208,-62 420,-62 420,-32 208,-32"/>
<text text-anchor="start" x="216" y="-50" font-family="Helvetica,sans-Serif" font-size="10.00">gameAuthoring.mainclasses.</text>
<text text-anchor="middle" x="314" y="-39" font-family="Helvetica,sans-Serif" font-size="10.00">AuthorController.showGSONWritingScene</text>
</a>
</g>
</g>
<!-- Node1&#45;&gt;Node2 -->
<g id="edge1" class="edge"><title>Node1&#45;&gt;Node2</title>
<path fill="none" stroke="midnightblue" d="M172.119,-47C180.483,-47 189.064,-47 197.663,-47"/>
<polygon fill="midnightblue" stroke="midnightblue" points="197.754,-50.5001 207.754,-47 197.754,-43.5001 197.754,-50.5001"/>
</g>
<!-- Node3 -->
<g id="node3" class="node"><title>Node3</title>
<g id="a_node3"><a xlink:href="../../d3/d3e/classutilities_1_1_g_s_o_n_1_1_g_s_o_n_file_writer.html#a333c331c33342ee0080df3ec1a0500e3" target="_top" xlink:title="utilities.GSON.GSONFileWriter.write\lGameFile">
<polygon fill="white" stroke="black" points="456,-59 456,-89 638,-89 638,-59 456,-59"/>
<text text-anchor="start" x="464" y="-77" font-family="Helvetica,sans-Serif" font-size="10.00">utilities.GSON.GSONFileWriter.write</text>
<text text-anchor="middle" x="547" y="-66" font-family="Helvetica,sans-Serif" font-size="10.00">GameFile</text>
</a>
</g>
</g>
<!-- Node2&#45;&gt;Node3 -->
<g id="edge2" class="edge"><title>Node2&#45;&gt;Node3</title>
<path fill="none" stroke="midnightblue" d="M420.023,-59.2754C428.589,-60.2767 437.233,-61.287 445.764,-62.2841"/>
<polygon fill="midnightblue" stroke="midnightblue" points="445.376,-65.7625 455.715,-63.4472 446.189,-58.8099 445.376,-65.7625"/>
</g>
<!-- Node5 -->
<g id="node5" class="node"><title>Node5</title>
<g id="a_node5"><a xlink:href="../../d6/d87/classgame_authoring_1_1mainclasses_1_1_author_controller.html#ae0c01835ccab7392448c7bb04657feed" target="_top" xlink:title="gameAuthoring.mainclasses.\lAuthorController.writeBackground\lImageToGameDir">
<polygon fill="white" stroke="black" points="458.5,0.5 458.5,-40.5 635.5,-40.5 635.5,0.5 458.5,0.5"/>
<text text-anchor="start" x="466.5" y="-28.5" font-family="Helvetica,sans-Serif" font-size="10.00">gameAuthoring.mainclasses.</text>
<text text-anchor="start" x="466.5" y="-17.5" font-family="Helvetica,sans-Serif" font-size="10.00">AuthorController.writeBackground</text>
<text text-anchor="middle" x="547" y="-6.5" font-family="Helvetica,sans-Serif" font-size="10.00">ImageToGameDir</text>
</a>
</g>
</g>
<!-- Node2&#45;&gt;Node5 -->
<g id="edge4" class="edge"><title>Node2&#45;&gt;Node5</title>
<path fill="none" stroke="midnightblue" d="M420.023,-34.7246C429.388,-33.6299 438.846,-32.5245 448.148,-31.4373"/>
<polygon fill="midnightblue" stroke="midnightblue" points="448.642,-34.9035 458.168,-30.2661 447.829,-27.9508 448.642,-34.9035"/>
</g>
<!-- Node4 -->
<g id="node4" class="node"><title>Node4</title>
<g id="a_node4"><a xlink:href="../../d3/d3e/classutilities_1_1_g_s_o_n_1_1_g_s_o_n_file_writer.html#a9018e07caa8dfef50acd084050fc8713" target="_top" xlink:title="utilities.GSON.GSONFileWriter.write\lToFile">
<polygon fill="white" stroke="black" points="674,-59 674,-89 856,-89 856,-59 674,-59"/>
<text text-anchor="start" x="682" y="-77" font-family="Helvetica,sans-Serif" font-size="10.00">utilities.GSON.GSONFileWriter.write</text>
<text text-anchor="middle" x="765" y="-66" font-family="Helvetica,sans-Serif" font-size="10.00">ToFile</text>
</a>
</g>
</g>
<!-- Node3&#45;&gt;Node4 -->
<g id="edge3" class="edge"><title>Node3&#45;&gt;Node4</title>
<path fill="none" stroke="midnightblue" d="M638.039,-74C646.526,-74 655.165,-74 663.738,-74"/>
<polygon fill="midnightblue" stroke="midnightblue" points="663.759,-77.5001 673.759,-74 663.759,-70.5001 663.759,-77.5001"/>
</g>
</g>
</svg>
