<?xml version="1.0" encoding="UTF-8" standalone="no"?>
<!DOCTYPE svg PUBLIC "-//W3C//DTD SVG 1.1//EN"
 "http://www.w3.org/Graphics/SVG/1.1/DTD/svg11.dtd">
<!-- Generated by graphviz version 2.36.0 (20140111.2315)
 -->
<!-- Title: gameAuthoring.scenes.levelBuilding.LevelBuildingScene.createMenuAndAddNewLevelOption Pages: 1 -->
<svg width="680pt" height="254pt"
 viewBox="0.00 0.00 680.00 254.00" xmlns="http://www.w3.org/2000/svg" xmlns:xlink="http://www.w3.org/1999/xlink">
<g id="graph0" class="graph" transform="scale(1 1) rotate(0) translate(4 250)">
<title>gameAuthoring.scenes.levelBuilding.LevelBuildingScene.createMenuAndAddNewLevelOption</title>
<polygon fill="white" stroke="none" points="-4,4 -4,-250 676,-250 676,4 -4,4"/>
<!-- Node1 -->
<g id="node1" class="node"><title>Node1</title>
<polygon fill="#bfbfbf" stroke="black" points="0.5,-102.5 0.5,-143.5 183.5,-143.5 183.5,-102.5 0.5,-102.5"/>
<text text-anchor="start" x="8.5" y="-131.5" font-family="Helvetica,sans-Serif" font-size="10.00">gameAuthoring.scenes.level</text>
<text text-anchor="start" x="8.5" y="-120.5" font-family="Helvetica,sans-Serif" font-size="10.00">Building.LevelBuildingScene.create</text>
<text text-anchor="middle" x="92" y="-109.5" font-family="Helvetica,sans-Serif" font-size="10.00">MenuAndAddNewLevelOption</text>
</g>
<!-- Node2 -->
<g id="node2" class="node"><title>Node2</title>
<g id="a_node2"><a xlink:href="../../d5/d00/classgame_authoring_1_1scenes_1_1level_building_1_1_level_building_display.html#abc6c11843142514e9859a6fd28654b1e" target="_top" xlink:title="gameAuthoring.scenes.level\lBuilding.LevelBuildingDisplay.addLevel">
<polygon fill="white" stroke="black" points="236,-216 236,-246 434,-246 434,-216 236,-216"/>
<text text-anchor="start" x="244" y="-234" font-family="Helvetica,sans-Serif" font-size="10.00">gameAuthoring.scenes.level</text>
<text text-anchor="middle" x="335" y="-223" font-family="Helvetica,sans-Serif" font-size="10.00">Building.LevelBuildingDisplay.addLevel</text>
</a>
</g>
</g>
<!-- Node1&#45;&gt;Node2 -->
<g id="edge1" class="edge"><title>Node1&#45;&gt;Node2</title>
<path fill="none" stroke="midnightblue" d="M118.653,-143.821C143.24,-162.756 182.112,-190.098 220,-206 226.151,-208.582 232.605,-210.912 239.183,-213.015"/>
<polygon fill="midnightblue" stroke="midnightblue" points="238.303,-216.405 248.888,-215.934 240.319,-209.702 238.303,-216.405"/>
</g>
<!-- Node3 -->
<g id="node3" class="node"><title>Node3</title>
<g id="a_node3"><a xlink:href="../../d9/d27/classgame_authoring_1_1scenes_1_1actor_building_scenes_1_1_building_scene_menu.html#a1e38c6d725576d05b411cc17379e98bd" target="_top" xlink:title="gameAuthoring.scenes.actor\lBuildingScenes.BuildingSceneMenu.add\lMenuItemToFileMenu">
<polygon fill="white" stroke="black" points="231.5,-156.5 231.5,-197.5 438.5,-197.5 438.5,-156.5 231.5,-156.5"/>
<text text-anchor="start" x="239.5" y="-185.5" font-family="Helvetica,sans-Serif" font-size="10.00">gameAuthoring.scenes.actor</text>
<text text-anchor="start" x="239.5" y="-174.5" font-family="Helvetica,sans-Serif" font-size="10.00">BuildingScenes.BuildingSceneMenu.add</text>
<text text-anchor="middle" x="335" y="-163.5" font-family="Helvetica,sans-Serif" font-size="10.00">MenuItemToFileMenu</text>
</a>
</g>
</g>
<!-- Node1&#45;&gt;Node3 -->
<g id="edge2" class="edge"><title>Node1&#45;&gt;Node3</title>
<path fill="none" stroke="midnightblue" d="M183.768,-143.338C199.569,-146.879 216.098,-150.582 232.172,-154.184"/>
<polygon fill="midnightblue" stroke="midnightblue" points="231.588,-157.64 242.111,-156.411 233.119,-150.809 231.588,-157.64"/>
</g>
<!-- Node4 -->
<g id="node4" class="node"><title>Node4</title>
<g id="a_node4"><a xlink:href="../../dc/d2e/classutilities_1_1multilanguage_1_1_multi_language_utility.html#aaa34262e5a69e5d96d435c4f9872e544" target="_top" xlink:title="utilities.multilanguage.\lMultiLanguageUtility.getInstance">
<polygon fill="white" stroke="black" points="249.5,-108 249.5,-138 420.5,-138 420.5,-108 249.5,-108"/>
<text text-anchor="start" x="257.5" y="-126" font-family="Helvetica,sans-Serif" font-size="10.00">utilities.multilanguage.</text>
<text text-anchor="middle" x="335" y="-115" font-family="Helvetica,sans-Serif" font-size="10.00">MultiLanguageUtility.getInstance</text>
</a>
</g>
</g>
<!-- Node1&#45;&gt;Node4 -->
<g id="edge3" class="edge"><title>Node1&#45;&gt;Node4</title>
<path fill="none" stroke="midnightblue" d="M183.768,-123C201.894,-123 220.977,-123 239.233,-123"/>
<polygon fill="midnightblue" stroke="midnightblue" points="239.279,-126.5 249.279,-123 239.279,-119.5 239.279,-126.5"/>
</g>
<!-- Node6 -->
<g id="node6" class="node"><title>Node6</title>
<g id="a_node6"><a xlink:href="../../d9/d27/classgame_authoring_1_1scenes_1_1actor_building_scenes_1_1_building_scene_menu.html#acc1752d80ddfffc75a7d96e19142ee92" target="_top" xlink:title="gameAuthoring.scenes.actor\lBuildingScenes.BuildingSceneMenu.getNode">
<polygon fill="white" stroke="black" points="220,-59 220,-89 450,-89 450,-59 220,-59"/>
<text text-anchor="start" x="228" y="-77" font-family="Helvetica,sans-Serif" font-size="10.00">gameAuthoring.scenes.actor</text>
<text text-anchor="middle" x="335" y="-66" font-family="Helvetica,sans-Serif" font-size="10.00">BuildingScenes.BuildingSceneMenu.getNode</text>
</a>
</g>
</g>
<!-- Node1&#45;&gt;Node6 -->
<g id="edge5" class="edge"><title>Node1&#45;&gt;Node6</title>
<path fill="none" stroke="midnightblue" d="M183.768,-104.545C205.539,-100.119 228.69,-95.4115 250.132,-91.052"/>
<polygon fill="midnightblue" stroke="midnightblue" points="251.076,-94.4318 260.178,-89.0094 249.681,-87.5721 251.076,-94.4318"/>
</g>
<!-- Node7 -->
<g id="node7" class="node"><title>Node7</title>
<g id="a_node7"><a xlink:href="../../dc/d2e/classutilities_1_1multilanguage_1_1_multi_language_utility.html#a6bc704aa624d0bc11d5f18717ef5842a" target="_top" xlink:title="utilities.multilanguage.\lMultiLanguageUtility.getString\lProperty">
<polygon fill="white" stroke="black" points="255.5,0.5 255.5,-40.5 414.5,-40.5 414.5,0.5 255.5,0.5"/>
<text text-anchor="start" x="263.5" y="-28.5" font-family="Helvetica,sans-Serif" font-size="10.00">utilities.multilanguage.</text>
<text text-anchor="start" x="263.5" y="-17.5" font-family="Helvetica,sans-Serif" font-size="10.00">MultiLanguageUtility.getString</text>
<text text-anchor="middle" x="335" y="-6.5" font-family="Helvetica,sans-Serif" font-size="10.00">Property</text>
</a>
</g>
</g>
<!-- Node1&#45;&gt;Node7 -->
<g id="edge6" class="edge"><title>Node1&#45;&gt;Node7</title>
<path fill="none" stroke="midnightblue" d="M123.401,-102.452C148.424,-86.3083 185.298,-64.2443 220,-50 228.116,-46.6686 236.71,-43.6117 245.395,-40.8308"/>
<polygon fill="midnightblue" stroke="midnightblue" points="246.69,-44.0944 255.219,-37.8085 244.632,-37.4039 246.69,-44.0944"/>
</g>
<!-- Node5 -->
<g id="node5" class="node"><title>Node5</title>
<g id="a_node5"><a xlink:href="../../dc/d2e/classutilities_1_1multilanguage_1_1_multi_language_utility.html#a18c8cee78f923458998009428cd84970" target="_top" xlink:title="utilities.multilanguage.\lMultiLanguageUtility.MultiLanguage\lUtility">
<polygon fill="white" stroke="black" points="486.5,-102.5 486.5,-143.5 671.5,-143.5 671.5,-102.5 486.5,-102.5"/>
<text text-anchor="start" x="494.5" y="-131.5" font-family="Helvetica,sans-Serif" font-size="10.00">utilities.multilanguage.</text>
<text text-anchor="start" x="494.5" y="-120.5" font-family="Helvetica,sans-Serif" font-size="10.00">MultiLanguageUtility.MultiLanguage</text>
<text text-anchor="middle" x="579" y="-109.5" font-family="Helvetica,sans-Serif" font-size="10.00">Utility</text>
</a>
</g>
</g>
<!-- Node4&#45;&gt;Node5 -->
<g id="edge4" class="edge"><title>Node4&#45;&gt;Node5</title>
<path fill="none" stroke="midnightblue" d="M420.64,-123C438.58,-123 457.697,-123 476.198,-123"/>
<polygon fill="midnightblue" stroke="midnightblue" points="476.402,-126.5 486.402,-123 476.402,-119.5 476.402,-126.5"/>
</g>
<!-- Node8 -->
<g id="node8" class="node"><title>Node8</title>
<g id="a_node8"><a xlink:href="../../dc/d2e/classutilities_1_1multilanguage_1_1_multi_language_utility.html#a124b4a760f410841ecc50dd4b16e40bb" target="_top" xlink:title="utilities.multilanguage.\lMultiLanguageUtility.getProperty">
<polygon fill="white" stroke="black" points="493.5,-5 493.5,-35 664.5,-35 664.5,-5 493.5,-5"/>
<text text-anchor="start" x="501.5" y="-23" font-family="Helvetica,sans-Serif" font-size="10.00">utilities.multilanguage.</text>
<text text-anchor="middle" x="579" y="-12" font-family="Helvetica,sans-Serif" font-size="10.00">MultiLanguageUtility.getProperty</text>
</a>
</g>
</g>
<!-- Node7&#45;&gt;Node8 -->
<g id="edge7" class="edge"><title>Node7&#45;&gt;Node8</title>
<path fill="none" stroke="midnightblue" d="M414.57,-20C436.353,-20 460.235,-20 482.854,-20"/>
<polygon fill="midnightblue" stroke="midnightblue" points="483.145,-23.5001 493.145,-20 483.145,-16.5001 483.145,-23.5001"/>
</g>
</g>
</svg>
