<?xml version="1.0" encoding="UTF-8" standalone="no"?>
<!DOCTYPE svg PUBLIC "-//W3C//DTD SVG 1.1//EN"
 "http://www.w3.org/Graphics/SVG/1.1/DTD/svg11.dtd">
<!-- Generated by graphviz version 2.36.0 (20140111.2315)
 -->
<!-- Title: gameAuthoring.scenes.pathBuilding.buildingPanes.CurveDrawingPane.stretchLineToEndAtCurrentMousePosition Pages: 1 -->
<svg width="770pt" height="229pt"
 viewBox="0.00 0.00 770.00 229.00" xmlns="http://www.w3.org/2000/svg" xmlns:xlink="http://www.w3.org/1999/xlink">
<g id="graph0" class="graph" transform="scale(1 1) rotate(0) translate(4 225)">
<title>gameAuthoring.scenes.pathBuilding.buildingPanes.CurveDrawingPane.stretchLineToEndAtCurrentMousePosition</title>
<polygon fill="white" stroke="none" points="-4,4 -4,-225 766,-225 766,4 -4,4"/>
<!-- Node1 -->
<g id="node1" class="node"><title>Node1</title>
<polygon fill="#bfbfbf" stroke="black" points="0.5,-89.5 0.5,-130.5 239.5,-130.5 239.5,-89.5 0.5,-89.5"/>
<text text-anchor="start" x="8.5" y="-118.5" font-family="Helvetica,sans-Serif" font-size="10.00">gameAuthoring.scenes.path</text>
<text text-anchor="start" x="8.5" y="-107.5" font-family="Helvetica,sans-Serif" font-size="10.00">Building.buildingPanes.CurveDrawing</text>
<text text-anchor="middle" x="120" y="-96.5" font-family="Helvetica,sans-Serif" font-size="10.00">Pane.stretchLineToEndAtCurrentMousePosition</text>
</g>
<!-- Node2 -->
<g id="node2" class="node"><title>Node2</title>
<g id="a_node2"><a xlink:href="../../d1/dc2/classgame_authoring_1_1scenes_1_1path_building_1_1path_components_1_1_path_curve.html#abd12240f87b943df70460a257b105c54" target="_top" xlink:title="gameAuthoring.scenes.path\lBuilding.pathComponents.PathCurve.calculate\lAndSetControlPoints">
<polygon fill="white" stroke="black" points="276,-89.5 276,-130.5 514,-130.5 514,-89.5 276,-89.5"/>
<text text-anchor="start" x="284" y="-118.5" font-family="Helvetica,sans-Serif" font-size="10.00">gameAuthoring.scenes.path</text>
<text text-anchor="start" x="284" y="-107.5" font-family="Helvetica,sans-Serif" font-size="10.00">Building.pathComponents.PathCurve.calculate</text>
<text text-anchor="middle" x="395" y="-96.5" font-family="Helvetica,sans-Serif" font-size="10.00">AndSetControlPoints</text>
</a>
</g>
</g>
<!-- Node1&#45;&gt;Node2 -->
<g id="edge1" class="edge"><title>Node1&#45;&gt;Node2</title>
<path fill="none" stroke="midnightblue" d="M239.551,-110C248.238,-110 257.025,-110 265.766,-110"/>
<polygon fill="midnightblue" stroke="midnightblue" points="265.998,-113.5 275.998,-110 265.998,-106.5 265.998,-113.5"/>
</g>
<!-- Node3 -->
<g id="node3" class="node"><title>Node3</title>
<g id="a_node3"><a xlink:href="../../d1/dc2/classgame_authoring_1_1scenes_1_1path_building_1_1path_components_1_1_path_curve.html#a2af9ccac89aa1b554bb7ac6a7ae04f1e" target="_top" xlink:title="gameAuthoring.scenes.path\lBuilding.pathComponents.PathCurve.get\lStartingPoint">
<polygon fill="white" stroke="black" points="550.5,-179.5 550.5,-220.5 761.5,-220.5 761.5,-179.5 550.5,-179.5"/>
<text text-anchor="start" x="558.5" y="-208.5" font-family="Helvetica,sans-Serif" font-size="10.00">gameAuthoring.scenes.path</text>
<text text-anchor="start" x="558.5" y="-197.5" font-family="Helvetica,sans-Serif" font-size="10.00">Building.pathComponents.PathCurve.get</text>
<text text-anchor="middle" x="656" y="-186.5" font-family="Helvetica,sans-Serif" font-size="10.00">StartingPoint</text>
</a>
</g>
</g>
<!-- Node2&#45;&gt;Node3 -->
<g id="edge2" class="edge"><title>Node2&#45;&gt;Node3</title>
<path fill="none" stroke="midnightblue" d="M446.617,-130.547C476.487,-142.382 515.152,-157.201 550,-169 557.487,-171.535 565.313,-174.065 573.17,-176.524"/>
<polygon fill="midnightblue" stroke="midnightblue" points="572.161,-179.875 582.748,-179.484 574.228,-173.187 572.161,-179.875"/>
</g>
<!-- Node4 -->
<g id="node4" class="node"><title>Node4</title>
<g id="a_node4"><a xlink:href="../../d1/dc2/classgame_authoring_1_1scenes_1_1path_building_1_1path_components_1_1_path_curve.html#a172e27da3276eedde12ea3c0d7176c98" target="_top" xlink:title="gameAuthoring.scenes.path\lBuilding.pathComponents.PathCurve.get\lEndingPoint">
<polygon fill="white" stroke="black" points="550.5,-119.5 550.5,-160.5 761.5,-160.5 761.5,-119.5 550.5,-119.5"/>
<text text-anchor="start" x="558.5" y="-148.5" font-family="Helvetica,sans-Serif" font-size="10.00">gameAuthoring.scenes.path</text>
<text text-anchor="start" x="558.5" y="-137.5" font-family="Helvetica,sans-Serif" font-size="10.00">Building.pathComponents.PathCurve.get</text>
<text text-anchor="middle" x="656" y="-126.5" font-family="Helvetica,sans-Serif" font-size="10.00">EndingPoint</text>
</a>
</g>
</g>
<!-- Node2&#45;&gt;Node4 -->
<g id="edge3" class="edge"><title>Node2&#45;&gt;Node4</title>
<path fill="none" stroke="midnightblue" d="M514.131,-123.683C522.761,-124.683 531.46,-125.69 540.071,-126.688"/>
<polygon fill="midnightblue" stroke="midnightblue" points="539.794,-130.179 550.13,-127.853 540.599,-123.225 539.794,-130.179"/>
</g>
<!-- Node5 -->
<g id="node5" class="node"><title>Node5</title>
<g id="a_node5"><a xlink:href="../../d1/dc2/classgame_authoring_1_1scenes_1_1path_building_1_1path_components_1_1_path_curve.html#ad65a7bf5f47b793d23b8e83d7b2f58ce" target="_top" xlink:title="gameAuthoring.scenes.path\lBuilding.pathComponents.PathCurve.set\lControlPoint1">
<polygon fill="white" stroke="black" points="551,-59.5 551,-100.5 761,-100.5 761,-59.5 551,-59.5"/>
<text text-anchor="start" x="559" y="-88.5" font-family="Helvetica,sans-Serif" font-size="10.00">gameAuthoring.scenes.path</text>
<text text-anchor="start" x="559" y="-77.5" font-family="Helvetica,sans-Serif" font-size="10.00">Building.pathComponents.PathCurve.set</text>
<text text-anchor="middle" x="656" y="-66.5" font-family="Helvetica,sans-Serif" font-size="10.00">ControlPoint1</text>
</a>
</g>
</g>
<!-- Node2&#45;&gt;Node5 -->
<g id="edge4" class="edge"><title>Node2&#45;&gt;Node5</title>
<path fill="none" stroke="midnightblue" d="M514.131,-96.3169C523.049,-95.2839 532.04,-94.2425 540.932,-93.2126"/>
<polygon fill="midnightblue" stroke="midnightblue" points="541.389,-96.6831 550.92,-92.0556 540.584,-89.7295 541.389,-96.6831"/>
</g>
<!-- Node6 -->
<g id="node6" class="node"><title>Node6</title>
<g id="a_node6"><a xlink:href="../../d1/dc2/classgame_authoring_1_1scenes_1_1path_building_1_1path_components_1_1_path_curve.html#a1424b7c75027732f88fb2c8bcb735807" target="_top" xlink:title="gameAuthoring.scenes.path\lBuilding.pathComponents.PathCurve.set\lControlPoint2">
<polygon fill="white" stroke="black" points="551,0.5 551,-40.5 761,-40.5 761,0.5 551,0.5"/>
<text text-anchor="start" x="559" y="-28.5" font-family="Helvetica,sans-Serif" font-size="10.00">gameAuthoring.scenes.path</text>
<text text-anchor="start" x="559" y="-17.5" font-family="Helvetica,sans-Serif" font-size="10.00">Building.pathComponents.PathCurve.set</text>
<text text-anchor="middle" x="656" y="-6.5" font-family="Helvetica,sans-Serif" font-size="10.00">ControlPoint2</text>
</a>
</g>
</g>
<!-- Node2&#45;&gt;Node6 -->
<g id="edge5" class="edge"><title>Node2&#45;&gt;Node6</title>
<path fill="none" stroke="midnightblue" d="M445.159,-89.497C475.188,-77.3116 514.514,-61.9534 550,-50 556.458,-47.8246 563.173,-45.6686 569.945,-43.5695"/>
<polygon fill="midnightblue" stroke="midnightblue" points="571.339,-46.8034 579.884,-40.5392 569.298,-40.1077 571.339,-46.8034"/>
</g>
</g>
</svg>
