<?xml version="1.0" encoding="UTF-8" standalone="no"?>
<!DOCTYPE svg PUBLIC "-//W3C//DTD SVG 1.1//EN"
 "http://www.w3.org/Graphics/SVG/1.1/DTD/svg11.dtd">
<!-- Generated by graphviz version 2.36.0 (20140111.2315)
 -->
<!-- Title: gameAuthoring.scenes.pathBuilding.buildingPanes.CurveDrawingPane.stretchLineToEndAtCurrentMousePosition Pages: 1 -->
<svg width="704pt" height="109pt"
 viewBox="0.00 0.00 704.00 109.00" xmlns="http://www.w3.org/2000/svg" xmlns:xlink="http://www.w3.org/1999/xlink">
<g id="graph0" class="graph" transform="scale(1 1) rotate(0) translate(4 105)">
<title>gameAuthoring.scenes.pathBuilding.buildingPanes.CurveDrawingPane.stretchLineToEndAtCurrentMousePosition</title>
<polygon fill="white" stroke="none" points="-4,4 -4,-105 700,-105 700,4 -4,4"/>
<!-- Node1 -->
<g id="node1" class="node"><title>Node1</title>
<polygon fill="#bfbfbf" stroke="black" points="0.5,0.5 0.5,-40.5 239.5,-40.5 239.5,0.5 0.5,0.5"/>
<text text-anchor="start" x="8.5" y="-28.5" font-family="Helvetica,sans-Serif" font-size="10.00">gameAuthoring.scenes.path</text>
<text text-anchor="start" x="8.5" y="-17.5" font-family="Helvetica,sans-Serif" font-size="10.00">Building.buildingPanes.CurveDrawing</text>
<text text-anchor="middle" x="120" y="-6.5" font-family="Helvetica,sans-Serif" font-size="10.00">Pane.stretchLineToEndAtCurrentMousePosition</text>
</g>
<!-- Node2 -->
<g id="node2" class="node"><title>Node2</title>
<g id="a_node2"><a xlink:href="../../d1/dad/classgame_authoring_1_1scenes_1_1path_building_1_1building_panes_1_1_curve_drawing_pane.html#a4157681e1cbd0859e25b7ece8ff99a56" target="_top" xlink:title="gameAuthoring.scenes.path\lBuilding.buildingPanes.CurveDrawing\lPane.addListeners">
<polygon fill="white" stroke="black" points="276.5,0.5 276.5,-40.5 467.5,-40.5 467.5,0.5 276.5,0.5"/>
<text text-anchor="start" x="284.5" y="-28.5" font-family="Helvetica,sans-Serif" font-size="10.00">gameAuthoring.scenes.path</text>
<text text-anchor="start" x="284.5" y="-17.5" font-family="Helvetica,sans-Serif" font-size="10.00">Building.buildingPanes.CurveDrawing</text>
<text text-anchor="middle" x="372" y="-6.5" font-family="Helvetica,sans-Serif" font-size="10.00">Pane.addListeners</text>
</a>
</g>
</g>
<!-- Node1&#45;&gt;Node2 -->
<g id="edge1" class="edge"><title>Node1&#45;&gt;Node2</title>
<path fill="none" stroke="midnightblue" d="M249.81,-20C258.695,-20 267.554,-20 276.208,-20"/>
<polygon fill="midnightblue" stroke="midnightblue" points="249.777,-16.5001 239.777,-20 249.777,-23.5001 249.777,-16.5001"/>
</g>
<!-- Node3 -->
<g id="node3" class="node"><title>Node3</title>
<g id="a_node3"><a xlink:href="../../d1/dad/classgame_authoring_1_1scenes_1_1path_building_1_1building_panes_1_1_curve_drawing_pane.html#a5e42a8d5bc78ce626583ea766277b804" target="_top" xlink:title="gameAuthoring.scenes.path\lBuilding.buildingPanes.CurveDrawing\lPane.executeEnterFunction">
<polygon fill="white" stroke="black" points="504.5,-59.5 504.5,-100.5 695.5,-100.5 695.5,-59.5 504.5,-59.5"/>
<text text-anchor="start" x="512.5" y="-88.5" font-family="Helvetica,sans-Serif" font-size="10.00">gameAuthoring.scenes.path</text>
<text text-anchor="start" x="512.5" y="-77.5" font-family="Helvetica,sans-Serif" font-size="10.00">Building.buildingPanes.CurveDrawing</text>
<text text-anchor="middle" x="600" y="-66.5" font-family="Helvetica,sans-Serif" font-size="10.00">Pane.executeEnterFunction</text>
</a>
</g>
</g>
<!-- Node2&#45;&gt;Node3 -->
<g id="edge2" class="edge"><title>Node2&#45;&gt;Node3</title>
<path fill="none" stroke="midnightblue" d="M460.281,-43.1719C480.501,-48.54 501.881,-54.2162 521.641,-59.4622"/>
<polygon fill="midnightblue" stroke="midnightblue" points="461.023,-39.7479 450.46,-40.5647 459.227,-46.5135 461.023,-39.7479"/>
</g>
<!-- Node4 -->
<g id="node4" class="node"><title>Node4</title>
<g id="a_node4"><a xlink:href="../../d1/dad/classgame_authoring_1_1scenes_1_1path_building_1_1building_panes_1_1_curve_drawing_pane.html#a9b35c65041978c3a4628a16e26033a42" target="_top" xlink:title="gameAuthoring.scenes.path\lBuilding.buildingPanes.CurveDrawing\lPane.handleBuildScreenClick">
<polygon fill="white" stroke="black" points="504.5,0.5 504.5,-40.5 695.5,-40.5 695.5,0.5 504.5,0.5"/>
<text text-anchor="start" x="512.5" y="-28.5" font-family="Helvetica,sans-Serif" font-size="10.00">gameAuthoring.scenes.path</text>
<text text-anchor="start" x="512.5" y="-17.5" font-family="Helvetica,sans-Serif" font-size="10.00">Building.buildingPanes.CurveDrawing</text>
<text text-anchor="middle" x="600" y="-6.5" font-family="Helvetica,sans-Serif" font-size="10.00">Pane.handleBuildScreenClick</text>
</a>
</g>
</g>
<!-- Node2&#45;&gt;Node4 -->
<g id="edge3" class="edge"><title>Node2&#45;&gt;Node4</title>
<path fill="none" stroke="midnightblue" d="M477.611,-13.2666C486.572,-13.2311 495.605,-13.2526 504.48,-13.3309"/>
<polygon fill="midnightblue" stroke="midnightblue" points="477.512,-9.76702 467.535,-13.3307 477.557,-16.7669 477.512,-9.76702"/>
</g>
<!-- Node4&#45;&gt;Node2 -->
<g id="edge4" class="edge"><title>Node4&#45;&gt;Node2</title>
<path fill="none" stroke="midnightblue" d="M494.405,-26.7334C485.443,-26.7689 476.411,-26.7475 467.535,-26.6693"/>
<polygon fill="midnightblue" stroke="midnightblue" points="494.503,-30.2329 504.48,-26.6691 494.458,-23.2331 494.503,-30.2329"/>
</g>
</g>
</svg>
