<?xml version="1.0" encoding="UTF-8" standalone="no"?>
<!DOCTYPE svg PUBLIC "-//W3C//DTD SVG 1.1//EN"
 "http://www.w3.org/Graphics/SVG/1.1/DTD/svg11.dtd">
<!-- Generated by graphviz version 2.36.0 (20140111.2315)
 -->
<!-- Title: gameAuthoring.scenes.pathBuilding.buildingPanes.CurveDrawingPane.moveControlPointSetter Pages: 1 -->
<svg width="1340pt" height="109pt"
 viewBox="0.00 0.00 1340.00 109.00" xmlns="http://www.w3.org/2000/svg" xmlns:xlink="http://www.w3.org/1999/xlink">
<g id="graph0" class="graph" transform="scale(1 1) rotate(0) translate(4 105)">
<title>gameAuthoring.scenes.pathBuilding.buildingPanes.CurveDrawingPane.moveControlPointSetter</title>
<polygon fill="white" stroke="none" points="-4,4 -4,-105 1336,-105 1336,4 -4,4"/>
<!-- Node1 -->
<g id="node1" class="node"><title>Node1</title>
<polygon fill="#bfbfbf" stroke="black" points="0.5,-29.5 0.5,-70.5 191.5,-70.5 191.5,-29.5 0.5,-29.5"/>
<text text-anchor="start" x="8.5" y="-58.5" font-family="Helvetica,sans-Serif" font-size="10.00">gameAuthoring.scenes.path</text>
<text text-anchor="start" x="8.5" y="-47.5" font-family="Helvetica,sans-Serif" font-size="10.00">Building.buildingPanes.CurveDrawing</text>
<text text-anchor="middle" x="96" y="-36.5" font-family="Helvetica,sans-Serif" font-size="10.00">Pane.moveControlPointSetter</text>
</g>
<!-- Node2 -->
<g id="node2" class="node"><title>Node2</title>
<g id="a_node2"><a xlink:href="../../d1/dad/classgame_authoring_1_1scenes_1_1path_building_1_1building_panes_1_1_curve_drawing_pane.html#a2ca3223aeaf03e0af84bcb93148ff80e" target="_top" xlink:title="gameAuthoring.scenes.path\lBuilding.buildingPanes.CurveDrawing\lPane.moveControlPoint1">
<polygon fill="white" stroke="black" points="228.5,-59.5 228.5,-100.5 419.5,-100.5 419.5,-59.5 228.5,-59.5"/>
<text text-anchor="start" x="236.5" y="-88.5" font-family="Helvetica,sans-Serif" font-size="10.00">gameAuthoring.scenes.path</text>
<text text-anchor="start" x="236.5" y="-77.5" font-family="Helvetica,sans-Serif" font-size="10.00">Building.buildingPanes.CurveDrawing</text>
<text text-anchor="middle" x="324" y="-66.5" font-family="Helvetica,sans-Serif" font-size="10.00">Pane.moveControlPoint1</text>
</a>
</g>
</g>
<!-- Node1&#45;&gt;Node2 -->
<g id="edge1" class="edge"><title>Node1&#45;&gt;Node2</title>
<path fill="none" stroke="midnightblue" d="M201.611,-63.8864C210.572,-65.076 219.605,-66.2749 228.48,-67.4532"/>
<polygon fill="midnightblue" stroke="midnightblue" points="201.909,-60.3953 191.535,-62.5489 200.987,-67.3344 201.909,-60.3953"/>
</g>
<!-- Node7 -->
<g id="node7" class="node"><title>Node7</title>
<g id="a_node7"><a xlink:href="../../d1/dad/classgame_authoring_1_1scenes_1_1path_building_1_1building_panes_1_1_curve_drawing_pane.html#a29c0b82c56c96df33fa83cc702908daf" target="_top" xlink:title="gameAuthoring.scenes.path\lBuilding.buildingPanes.CurveDrawing\lPane.moveControlPoint2">
<polygon fill="white" stroke="black" points="228.5,0.5 228.5,-40.5 419.5,-40.5 419.5,0.5 228.5,0.5"/>
<text text-anchor="start" x="236.5" y="-28.5" font-family="Helvetica,sans-Serif" font-size="10.00">gameAuthoring.scenes.path</text>
<text text-anchor="start" x="236.5" y="-17.5" font-family="Helvetica,sans-Serif" font-size="10.00">Building.buildingPanes.CurveDrawing</text>
<text text-anchor="middle" x="324" y="-6.5" font-family="Helvetica,sans-Serif" font-size="10.00">Pane.moveControlPoint2</text>
</a>
</g>
</g>
<!-- Node1&#45;&gt;Node7 -->
<g id="edge7" class="edge"><title>Node1&#45;&gt;Node7</title>
<path fill="none" stroke="midnightblue" d="M201.611,-36.1136C210.572,-34.924 219.605,-33.7251 228.48,-32.5468"/>
<polygon fill="midnightblue" stroke="midnightblue" points="200.987,-32.6656 191.535,-37.4511 201.909,-39.6047 200.987,-32.6656"/>
</g>
<!-- Node3 -->
<g id="node3" class="node"><title>Node3</title>
<g id="a_node3"><a xlink:href="../../d1/dad/classgame_authoring_1_1scenes_1_1path_building_1_1building_panes_1_1_curve_drawing_pane.html#a4165379980f2dda1d79b709c0e3f31ab" target="_top" xlink:title="gameAuthoring.scenes.path\lBuilding.buildingPanes.CurveDrawing\lPane.addControlPointSetters">
<polygon fill="white" stroke="black" points="456.5,-29.5 456.5,-70.5 647.5,-70.5 647.5,-29.5 456.5,-29.5"/>
<text text-anchor="start" x="464.5" y="-58.5" font-family="Helvetica,sans-Serif" font-size="10.00">gameAuthoring.scenes.path</text>
<text text-anchor="start" x="464.5" y="-47.5" font-family="Helvetica,sans-Serif" font-size="10.00">Building.buildingPanes.CurveDrawing</text>
<text text-anchor="middle" x="552" y="-36.5" font-family="Helvetica,sans-Serif" font-size="10.00">Pane.addControlPointSetters</text>
</a>
</g>
</g>
<!-- Node2&#45;&gt;Node3 -->
<g id="edge2" class="edge"><title>Node2&#45;&gt;Node3</title>
<path fill="none" stroke="midnightblue" d="M429.611,-66.1136C438.572,-64.924 447.605,-63.7251 456.48,-62.5468"/>
<polygon fill="midnightblue" stroke="midnightblue" points="428.987,-62.6656 419.535,-67.4511 429.909,-69.6047 428.987,-62.6656"/>
</g>
<!-- Node4 -->
<g id="node4" class="node"><title>Node4</title>
<g id="a_node4"><a xlink:href="../../d1/dad/classgame_authoring_1_1scenes_1_1path_building_1_1building_panes_1_1_curve_drawing_pane.html#a9b35c65041978c3a4628a16e26033a42" target="_top" xlink:title="gameAuthoring.scenes.path\lBuilding.buildingPanes.CurveDrawing\lPane.handleBuildScreenClick">
<polygon fill="white" stroke="black" points="684.5,-29.5 684.5,-70.5 875.5,-70.5 875.5,-29.5 684.5,-29.5"/>
<text text-anchor="start" x="692.5" y="-58.5" font-family="Helvetica,sans-Serif" font-size="10.00">gameAuthoring.scenes.path</text>
<text text-anchor="start" x="692.5" y="-47.5" font-family="Helvetica,sans-Serif" font-size="10.00">Building.buildingPanes.CurveDrawing</text>
<text text-anchor="middle" x="780" y="-36.5" font-family="Helvetica,sans-Serif" font-size="10.00">Pane.handleBuildScreenClick</text>
</a>
</g>
</g>
<!-- Node3&#45;&gt;Node4 -->
<g id="edge3" class="edge"><title>Node3&#45;&gt;Node4</title>
<path fill="none" stroke="midnightblue" d="M657.611,-50C666.572,-50 675.605,-50 684.48,-50"/>
<polygon fill="midnightblue" stroke="midnightblue" points="657.535,-46.5001 647.535,-50 657.535,-53.5001 657.535,-46.5001"/>
</g>
<!-- Node5 -->
<g id="node5" class="node"><title>Node5</title>
<g id="a_node5"><a xlink:href="../../d1/dad/classgame_authoring_1_1scenes_1_1path_building_1_1building_panes_1_1_curve_drawing_pane.html#a4157681e1cbd0859e25b7ece8ff99a56" target="_top" xlink:title="gameAuthoring.scenes.path\lBuilding.buildingPanes.CurveDrawing\lPane.addListeners">
<polygon fill="white" stroke="black" points="912.5,-29.5 912.5,-70.5 1103.5,-70.5 1103.5,-29.5 912.5,-29.5"/>
<text text-anchor="start" x="920.5" y="-58.5" font-family="Helvetica,sans-Serif" font-size="10.00">gameAuthoring.scenes.path</text>
<text text-anchor="start" x="920.5" y="-47.5" font-family="Helvetica,sans-Serif" font-size="10.00">Building.buildingPanes.CurveDrawing</text>
<text text-anchor="middle" x="1008" y="-36.5" font-family="Helvetica,sans-Serif" font-size="10.00">Pane.addListeners</text>
</a>
</g>
</g>
<!-- Node4&#45;&gt;Node5 -->
<g id="edge4" class="edge"><title>Node4&#45;&gt;Node5</title>
<path fill="none" stroke="midnightblue" d="M885.611,-43.2666C894.572,-43.2311 903.605,-43.2526 912.48,-43.3309"/>
<polygon fill="midnightblue" stroke="midnightblue" points="885.512,-39.767 875.535,-43.3307 885.557,-46.7669 885.512,-39.767"/>
</g>
<!-- Node5&#45;&gt;Node4 -->
<g id="edge6" class="edge"><title>Node5&#45;&gt;Node4</title>
<path fill="none" stroke="midnightblue" d="M902.405,-56.7334C893.443,-56.7689 884.411,-56.7475 875.535,-56.6693"/>
<polygon fill="midnightblue" stroke="midnightblue" points="902.503,-60.2329 912.48,-56.6691 902.458,-53.2331 902.503,-60.2329"/>
</g>
<!-- Node6 -->
<g id="node6" class="node"><title>Node6</title>
<g id="a_node6"><a xlink:href="../../d1/dad/classgame_authoring_1_1scenes_1_1path_building_1_1building_panes_1_1_curve_drawing_pane.html#a5e42a8d5bc78ce626583ea766277b804" target="_top" xlink:title="gameAuthoring.scenes.path\lBuilding.buildingPanes.CurveDrawing\lPane.executeEnterFunction">
<polygon fill="white" stroke="black" points="1140.5,-29.5 1140.5,-70.5 1331.5,-70.5 1331.5,-29.5 1140.5,-29.5"/>
<text text-anchor="start" x="1148.5" y="-58.5" font-family="Helvetica,sans-Serif" font-size="10.00">gameAuthoring.scenes.path</text>
<text text-anchor="start" x="1148.5" y="-47.5" font-family="Helvetica,sans-Serif" font-size="10.00">Building.buildingPanes.CurveDrawing</text>
<text text-anchor="middle" x="1236" y="-36.5" font-family="Helvetica,sans-Serif" font-size="10.00">Pane.executeEnterFunction</text>
</a>
</g>
</g>
<!-- Node5&#45;&gt;Node6 -->
<g id="edge5" class="edge"><title>Node5&#45;&gt;Node6</title>
<path fill="none" stroke="midnightblue" d="M1113.61,-50C1122.57,-50 1131.6,-50 1140.48,-50"/>
<polygon fill="midnightblue" stroke="midnightblue" points="1113.53,-46.5001 1103.53,-50 1113.53,-53.5001 1113.53,-46.5001"/>
</g>
<!-- Node7&#45;&gt;Node3 -->
<g id="edge8" class="edge"><title>Node7&#45;&gt;Node3</title>
<path fill="none" stroke="midnightblue" d="M429.611,-33.8864C438.572,-35.076 447.605,-36.2749 456.48,-37.4532"/>
<polygon fill="midnightblue" stroke="midnightblue" points="429.909,-30.3953 419.535,-32.5489 428.987,-37.3344 429.909,-30.3953"/>
</g>
</g>
</svg>
