<?xml version="1.0" encoding="UTF-8" standalone="no"?>
<!DOCTYPE svg PUBLIC "-//W3C//DTD SVG 1.1//EN"
 "http://www.w3.org/Graphics/SVG/1.1/DTD/svg11.dtd">
<!-- Generated by graphviz version 2.36.0 (20140111.2315)
 -->
<!-- Title: gameAuthoring.scenes.pathBuilding.buildingPanes.SelectComponentPane.executeExitFunction Pages: 1 -->
<svg width="688pt" height="48pt"
 viewBox="0.00 0.00 688.00 48.00" xmlns="http://www.w3.org/2000/svg" xmlns:xlink="http://www.w3.org/1999/xlink">
<g id="graph0" class="graph" transform="scale(1 1) rotate(0) translate(4 44)">
<title>gameAuthoring.scenes.pathBuilding.buildingPanes.SelectComponentPane.executeExitFunction</title>
<polygon fill="white" stroke="none" points="-4,4 -4,-44 684,-44 684,4 -4,4"/>
<!-- Node1 -->
<g id="node1" class="node"><title>Node1</title>
<polygon fill="#bfbfbf" stroke="black" points="0,0.5 0,-40.5 212,-40.5 212,0.5 0,0.5"/>
<text text-anchor="start" x="8" y="-28.5" font-family="Helvetica,sans-Serif" font-size="10.00">gameAuthoring.scenes.path</text>
<text text-anchor="start" x="8" y="-17.5" font-family="Helvetica,sans-Serif" font-size="10.00">Building.buildingPanes.SelectComponent</text>
<text text-anchor="middle" x="106" y="-6.5" font-family="Helvetica,sans-Serif" font-size="10.00">Pane.executeExitFunction</text>
</g>
<!-- Node2 -->
<g id="node2" class="node"><title>Node2</title>
<g id="a_node2"><a xlink:href="../../d7/da7/classgame_authoring_1_1scenes_1_1path_building_1_1building_panes_1_1_select_component_pane.html#a932dc92cb96faed85eeb241cebd82791" target="_top" xlink:title="gameAuthoring.scenes.path\lBuilding.buildingPanes.SelectComponent\lPane.removeListenerFromComponents">
<polygon fill="white" stroke="black" points="248,0.5 248,-40.5 460,-40.5 460,0.5 248,0.5"/>
<text text-anchor="start" x="256" y="-28.5" font-family="Helvetica,sans-Serif" font-size="10.00">gameAuthoring.scenes.path</text>
<text text-anchor="start" x="256" y="-17.5" font-family="Helvetica,sans-Serif" font-size="10.00">Building.buildingPanes.SelectComponent</text>
<text text-anchor="middle" x="354" y="-6.5" font-family="Helvetica,sans-Serif" font-size="10.00">Pane.removeListenerFromComponents</text>
</a>
</g>
</g>
<!-- Node1&#45;&gt;Node2 -->
<g id="edge1" class="edge"><title>Node1&#45;&gt;Node2</title>
<path fill="none" stroke="midnightblue" d="M212.04,-20C220.581,-20 229.241,-20 237.849,-20"/>
<polygon fill="midnightblue" stroke="midnightblue" points="237.92,-23.5001 247.92,-20 237.92,-16.5001 237.92,-23.5001"/>
</g>
<!-- Node3 -->
<g id="node3" class="node"><title>Node3</title>
<g id="a_node3"><a xlink:href="../../d1/d65/classgame_authoring_1_1scenes_1_1path_building_1_1path_components_1_1_path.html#abc157365887356e62820ada65bf18002" target="_top" xlink:title="gameAuthoring.scenes.path\lBuilding.pathComponents.Path.get\lAllPathComponents">
<polygon fill="white" stroke="black" points="496.5,0.5 496.5,-40.5 679.5,-40.5 679.5,0.5 496.5,0.5"/>
<text text-anchor="start" x="504.5" y="-28.5" font-family="Helvetica,sans-Serif" font-size="10.00">gameAuthoring.scenes.path</text>
<text text-anchor="start" x="504.5" y="-17.5" font-family="Helvetica,sans-Serif" font-size="10.00">Building.pathComponents.Path.get</text>
<text text-anchor="middle" x="588" y="-6.5" font-family="Helvetica,sans-Serif" font-size="10.00">AllPathComponents</text>
</a>
</g>
</g>
<!-- Node2&#45;&gt;Node3 -->
<g id="edge2" class="edge"><title>Node2&#45;&gt;Node3</title>
<path fill="none" stroke="midnightblue" d="M460.139,-20C468.843,-20 477.628,-20 486.298,-20"/>
<polygon fill="midnightblue" stroke="midnightblue" points="486.41,-23.5001 496.41,-20 486.41,-16.5001 486.41,-23.5001"/>
</g>
</g>
</svg>
