<?xml version="1.0" encoding="UTF-8" standalone="no"?>
<!DOCTYPE svg PUBLIC "-//W3C//DTD SVG 1.1//EN"
 "http://www.w3.org/Graphics/SVG/1.1/DTD/svg11.dtd">
<!-- Generated by graphviz version 2.36.0 (20140111.2315)
 -->
<!-- Title: gameAuthoring.scenes.pathBuilding.buildingPanes.SelectComponentPane.handleSelectionAndTryToConnectComponents Pages: 1 -->
<!--zoomable 720 -->
<svg id="main" version="1.1" xmlns="http://www.w3.org/2000/svg" xmlns:xlink="http://www.w3.org/1999/xlink" xml:space="preserve" onload="init(evt)">
<style type="text/css"><![CDATA[
.edge:hover path { stroke: red; }
.edge:hover polygon { stroke: red; fill: red; }
]]></style>
<script type="text/javascript"><![CDATA[
var edges = document.getElementsByTagName('g');
if (edges && edges.length) {
  for (var i=0;i<edges.length;i++) {
    if (edges[i].id.substr(0,4)=='edge') {
      edges[i].setAttribute('class','edge');
    }
  }
}
]]></script>
        <defs>
                <circle id="rim" cx="0" cy="0" r="7"/>
                <circle id="rim2" cx="0" cy="0" r="3.5"/>
                <g id="zoomPlus">
                        <use xlink:href="#rim" fill="#404040">
                                <set attributeName="fill" to="#808080" begin="zoomplus.mouseover" end="zoomplus.mouseout"/>
                        </use>
                        <path d="M-4,0h8M0,-4v8" fill="none" stroke="white" stroke-width="1.5" pointer-events="none"/>
                </g>
                <g id="zoomMin">
                        <use xlink:href="#rim" fill="#404040">
                                <set attributeName="fill" to="#808080" begin="zoomminus.mouseover" end="zoomminus.mouseout"/>
                        </use>
                        <path d="M-4,0h8" fill="none" stroke="white" stroke-width="1.5" pointer-events="none"/>
                </g>
                <g id="dirArrow">
                        <path fill="none" stroke="white" stroke-width="1.5" d="M0,-3.0v7 M-2.5,-0.5L0,-3.0L2.5,-0.5"/>
                </g>
               <g id="resetDef">
                       <use xlink:href="#rim2" fill="#404040">
                               <set attributeName="fill" to="#808080" begin="reset.mouseover" end="reset.mouseout"/>
                       </use>
               </g>
        </defs>

<script type="text/javascript">
var viewWidth = 1052;
var viewHeight = 720;
var sectionId = 'dynsection-8';
</script>
<script xlink:href="../../svgpan.js"/>
<svg id="graph" class="graph">
<g id="viewport">
<title>gameAuthoring.scenes.pathBuilding.buildingPanes.SelectComponentPane.handleSelectionAndTryToConnectComponents</title>
<polygon fill="white" stroke="none" points="-4,4 -4,-716.197 1048,-716.197 1048,4 -4,4"/>
<!-- Node1 -->
<g id="node1" class="node"><title>Node1</title>
<polygon fill="#bfbfbf" stroke="black" points="0,-484.5 0,-525.5 262,-525.5 262,-484.5 0,-484.5"/>
<text text-anchor="start" x="8" y="-513.5" font-family="Helvetica,sans-Serif" font-size="10.00">gameAuthoring.scenes.path</text>
<text text-anchor="start" x="8" y="-502.5" font-family="Helvetica,sans-Serif" font-size="10.00">Building.buildingPanes.SelectComponent</text>
<text text-anchor="middle" x="131" y="-491.5" font-family="Helvetica,sans-Serif" font-size="10.00">Pane.handleSelectionAndTryToConnectComponents</text>
</g>
<!-- Node2 -->
<g id="node2" class="node"><title>Node2</title>
<g id="a_node2"><a xlink:href="../../d1/d65/classgame_authoring_1_1scenes_1_1path_building_1_1path_components_1_1_path.html#af2f92d642a6fe0c48c6b87193d462f00" target="_top" xlink:title="gameAuthoring.scenes.path\lBuilding.pathComponents.Path.attempt\lToConnectRoutes">
<polygon fill="white" stroke="black" points="298,-352.5 298,-393.5 504,-393.5 504,-352.5 298,-352.5"/>
<text text-anchor="start" x="306" y="-381.5" font-family="Helvetica,sans-Serif" font-size="10.00">gameAuthoring.scenes.path</text>
<text text-anchor="start" x="306" y="-370.5" font-family="Helvetica,sans-Serif" font-size="10.00">Building.pathComponents.Path.attempt</text>
<text text-anchor="middle" x="401" y="-359.5" font-family="Helvetica,sans-Serif" font-size="10.00">ToConnectRoutes</text>
</a>
</g>
</g>
<!-- Node1&#45;&gt;Node2 -->
<g id="edge1" class="edge"><title>Node1&#45;&gt;Node2</title>
<path fill="none" stroke="midnightblue" d="M173.875,-484.375C221.134,-461.098 298.025,-423.226 348.812,-398.212"/>
<polygon fill="midnightblue" stroke="midnightblue" points="350.553,-401.256 357.978,-393.698 347.46,-394.976 350.553,-401.256"/>
</g>
<!-- Node20 -->
<g id="node20" class="node"><title>Node20</title>
<g id="a_node20"><a xlink:href="../../d1/d65/classgame_authoring_1_1scenes_1_1path_building_1_1path_components_1_1_path.html#a1ca79faad555f9a136f99cad0509f6ee" target="_top" xlink:title="gameAuthoring.scenes.path\lBuilding.pathComponents.Path.handle\lComponentSelection">
<polygon fill="white" stroke="black" points="301,-592.5 301,-633.5 501,-633.5 501,-592.5 301,-592.5"/>
<text text-anchor="start" x="309" y="-621.5" font-family="Helvetica,sans-Serif" font-size="10.00">gameAuthoring.scenes.path</text>
<text text-anchor="start" x="309" y="-610.5" font-family="Helvetica,sans-Serif" font-size="10.00">Building.pathComponents.Path.handle</text>
<text text-anchor="middle" x="401" y="-599.5" font-family="Helvetica,sans-Serif" font-size="10.00">ComponentSelection</text>
</a>
</g>
</g>
<!-- Node1&#45;&gt;Node20 -->
<g id="edge22" class="edge"><title>Node1&#45;&gt;Node20</title>
<path fill="none" stroke="midnightblue" d="M183.04,-525.568C227.511,-543.49 292.082,-569.51 339.214,-588.504"/>
<polygon fill="midnightblue" stroke="midnightblue" points="338.111,-591.833 348.695,-592.325 340.728,-585.341 338.111,-591.833"/>
</g>
<!-- Node3 -->
<g id="node3" class="node"><title>Node3</title>
<g id="a_node3"><a xlink:href="../../d1/d65/classgame_authoring_1_1scenes_1_1path_building_1_1path_components_1_1_path.html#a628d6d2e49adf5a7f774d6fc2c1cefbe" target="_top" xlink:title="gameAuthoring.scenes.path\lBuilding.pathComponents.Path.get\lRouteContaining">
<polygon fill="white" stroke="black" points="832.5,-559.5 832.5,-600.5 1015.5,-600.5 1015.5,-559.5 832.5,-559.5"/>
<text text-anchor="start" x="840.5" y="-588.5" font-family="Helvetica,sans-Serif" font-size="10.00">gameAuthoring.scenes.path</text>
<text text-anchor="start" x="840.5" y="-577.5" font-family="Helvetica,sans-Serif" font-size="10.00">Building.pathComponents.Path.get</text>
<text text-anchor="middle" x="924" y="-566.5" font-family="Helvetica,sans-Serif" font-size="10.00">RouteContaining</text>
</a>
</g>
</g>
<!-- Node2&#45;&gt;Node3 -->
<g id="edge2" class="edge"><title>Node2&#45;&gt;Node3</title>
<path fill="none" stroke="midnightblue" d="M430.66,-393.667C457.588,-412.074 499.671,-438.301 540,-453 636.661,-488.231 681.844,-436.771 768,-493 792.155,-508.765 780.636,-530.085 804,-547 809.91,-551.279 816.351,-555.003 823.079,-558.245"/>
<polygon fill="midnightblue" stroke="midnightblue" points="821.845,-561.526 832.406,-562.373 824.678,-555.125 821.845,-561.526"/>
</g>
<!-- Node4 -->
<g id="node4" class="node"><title>Node4</title>
<g id="a_node4"><a xlink:href="../../d1/d65/classgame_authoring_1_1scenes_1_1path_building_1_1path_components_1_1_path.html#a6ea935a9238c3c073740926923914205" target="_top" xlink:title="gameAuthoring.scenes.path\lBuilding.pathComponents.Path.close\lEnoughToConnect">
<polygon fill="white" stroke="black" points="558,-228.5 558,-269.5 750,-269.5 750,-228.5 558,-228.5"/>
<text text-anchor="start" x="566" y="-257.5" font-family="Helvetica,sans-Serif" font-size="10.00">gameAuthoring.scenes.path</text>
<text text-anchor="start" x="566" y="-246.5" font-family="Helvetica,sans-Serif" font-size="10.00">Building.pathComponents.Path.close</text>
<text text-anchor="middle" x="654" y="-235.5" font-family="Helvetica,sans-Serif" font-size="10.00">EnoughToConnect</text>
</a>
</g>
</g>
<!-- Node2&#45;&gt;Node4 -->
<g id="edge3" class="edge"><title>Node2&#45;&gt;Node4</title>
<path fill="none" stroke="midnightblue" d="M430.157,-352.335C457.245,-333.173 499.888,-304.858 540,-286 550.042,-281.279 560.849,-276.909 571.657,-272.951"/>
<polygon fill="midnightblue" stroke="midnightblue" points="572.887,-276.229 581.136,-269.581 570.541,-269.634 572.887,-276.229"/>
</g>
<!-- Node7 -->
<g id="node7" class="node"><title>Node7</title>
<g id="a_node7"><a xlink:href="../../d7/d4d/classgame_authoring_1_1scenes_1_1path_building_1_1path_components_1_1_path_route.html#a13ce0765803077a702f680249baa9bb3" target="_top" xlink:title="gameAuthoring.scenes.path\lBuilding.pathComponents.PathRoute.getFirst">
<polygon fill="white" stroke="black" points="809,-288 809,-318 1039,-318 1039,-288 809,-288"/>
<text text-anchor="start" x="817" y="-306" font-family="Helvetica,sans-Serif" font-size="10.00">gameAuthoring.scenes.path</text>
<text text-anchor="middle" x="924" y="-295" font-family="Helvetica,sans-Serif" font-size="10.00">Building.pathComponents.PathRoute.getFirst</text>
</a>
</g>
</g>
<!-- Node2&#45;&gt;Node7 -->
<g id="edge6" class="edge"><title>Node2&#45;&gt;Node7</title>
<path fill="none" stroke="midnightblue" d="M443.77,-352.46C470.576,-340.345 506.516,-326.045 540,-319 625.076,-301.1 723.057,-297.303 798.619,-297.875"/>
<polygon fill="midnightblue" stroke="midnightblue" points="798.623,-301.375 808.658,-297.978 798.695,-294.376 798.623,-301.375"/>
</g>
<!-- Node8 -->
<g id="node8" class="node"><title>Node8</title>
<g id="a_node8"><a xlink:href="../../d7/d4d/classgame_authoring_1_1scenes_1_1path_building_1_1path_components_1_1_path_route.html#a3fd91e69117cf50c3374a5c30324ea8c" target="_top" xlink:title="gameAuthoring.scenes.path\lBuilding.pathComponents.PathRoute.get\lComponentsBefore">
<polygon fill="white" stroke="black" points="549,-114.5 549,-155.5 759,-155.5 759,-114.5 549,-114.5"/>
<text text-anchor="start" x="557" y="-143.5" font-family="Helvetica,sans-Serif" font-size="10.00">gameAuthoring.scenes.path</text>
<text text-anchor="start" x="557" y="-132.5" font-family="Helvetica,sans-Serif" font-size="10.00">Building.pathComponents.PathRoute.get</text>
<text text-anchor="middle" x="654" y="-121.5" font-family="Helvetica,sans-Serif" font-size="10.00">ComponentsBefore</text>
</a>
</g>
</g>
<!-- Node2&#45;&gt;Node8 -->
<g id="edge7" class="edge"><title>Node2&#45;&gt;Node8</title>
<path fill="none" stroke="midnightblue" d="M418.234,-352.369C442.89,-321.648 492.001,-262.8 540,-219 563.056,-197.961 591.225,-177.012 613.67,-161.297"/>
<polygon fill="midnightblue" stroke="midnightblue" points="615.747,-164.116 621.969,-155.541 611.757,-158.364 615.747,-164.116"/>
</g>
<!-- Node12 -->
<g id="node12" class="node"><title>Node12</title>
<g id="a_node12"><a xlink:href="../../d1/d65/classgame_authoring_1_1scenes_1_1path_building_1_1path_components_1_1_path.html#a951795636cdc85669be6d0ddc9ac7416" target="_top" xlink:title="gameAuthoring.scenes.path\lBuilding.pathComponents.Path.draw\lComponents">
<polygon fill="white" stroke="black" points="559,-54.5 559,-95.5 749,-95.5 749,-54.5 559,-54.5"/>
<text text-anchor="start" x="567" y="-83.5" font-family="Helvetica,sans-Serif" font-size="10.00">gameAuthoring.scenes.path</text>
<text text-anchor="start" x="567" y="-72.5" font-family="Helvetica,sans-Serif" font-size="10.00">Building.pathComponents.Path.draw</text>
<text text-anchor="middle" x="654" y="-61.5" font-family="Helvetica,sans-Serif" font-size="10.00">Components</text>
</a>
</g>
</g>
<!-- Node2&#45;&gt;Node12 -->
<g id="edge11" class="edge"><title>Node2&#45;&gt;Node12</title>
<path fill="none" stroke="midnightblue" d="M406.561,-352.231C418.761,-301.727 457.014,-171.75 540,-105 543.157,-102.461 546.509,-100.135 550.006,-98.0048"/>
<polygon fill="midnightblue" stroke="midnightblue" points="551.874,-100.972 558.969,-93.1031 548.515,-94.8306 551.874,-100.972"/>
</g>
<!-- Node13 -->
<g id="node13" class="node"><title>Node13</title>
<g id="a_node13"><a xlink:href="../../d7/d4d/classgame_authoring_1_1scenes_1_1path_building_1_1path_components_1_1_path_route.html#aa15bdbf4ff5f98537667883999ebaf2b" target="_top" xlink:title="gameAuthoring.scenes.path\lBuilding.pathComponents.PathRoute.get\lComponents">
<polygon fill="white" stroke="black" points="819,-497.5 819,-538.5 1029,-538.5 1029,-497.5 819,-497.5"/>
<text text-anchor="start" x="827" y="-526.5" font-family="Helvetica,sans-Serif" font-size="10.00">gameAuthoring.scenes.path</text>
<text text-anchor="start" x="827" y="-515.5" font-family="Helvetica,sans-Serif" font-size="10.00">Building.pathComponents.PathRoute.get</text>
<text text-anchor="middle" x="924" y="-504.5" font-family="Helvetica,sans-Serif" font-size="10.00">Components</text>
</a>
</g>
</g>
<!-- Node2&#45;&gt;Node13 -->
<g id="edge12" class="edge"><title>Node2&#45;&gt;Node13</title>
<path fill="none" stroke="midnightblue" d="M459.243,-393.557C483.876,-401.909 513.133,-411.177 540,-418 639.868,-443.361 672.508,-421.295 768,-460 785.821,-467.223 786.546,-475.929 804,-484 811.935,-487.669 820.354,-491.031 828.902,-494.091"/>
<polygon fill="midnightblue" stroke="midnightblue" points="827.994,-497.48 838.589,-497.417 830.267,-490.859 827.994,-497.48"/>
</g>
<!-- Node14 -->
<g id="node14" class="node"><title>Node14</title>
<g id="a_node14"><a xlink:href="../../d1/d65/classgame_authoring_1_1scenes_1_1path_building_1_1path_components_1_1_path.html#ab8d42b0db73a69b6c63a74445e552045" target="_top" xlink:title="gameAuthoring.scenes.path\lBuilding.pathComponents.Path.connect\lRoutes">
<polygon fill="white" stroke="black" points="551,-328.5 551,-369.5 757,-369.5 757,-328.5 551,-328.5"/>
<text text-anchor="start" x="559" y="-357.5" font-family="Helvetica,sans-Serif" font-size="10.00">gameAuthoring.scenes.path</text>
<text text-anchor="start" x="559" y="-346.5" font-family="Helvetica,sans-Serif" font-size="10.00">Building.pathComponents.Path.connect</text>
<text text-anchor="middle" x="654" y="-335.5" font-family="Helvetica,sans-Serif" font-size="10.00">Routes</text>
</a>
</g>
</g>
<!-- Node2&#45;&gt;Node14 -->
<g id="edge13" class="edge"><title>Node2&#45;&gt;Node14</title>
<path fill="none" stroke="midnightblue" d="M504.091,-363.238C516.179,-362.082 528.568,-360.898 540.786,-359.73"/>
<polygon fill="midnightblue" stroke="midnightblue" points="541.378,-363.189 550.999,-358.753 540.711,-356.221 541.378,-363.189"/>
</g>
<!-- Node16 -->
<g id="node16" class="node"><title>Node16</title>
<g id="a_node16"><a xlink:href="../../d7/d4d/classgame_authoring_1_1scenes_1_1path_building_1_1path_components_1_1_path_route.html#aa9aab066fdb4fe1e6a4b37f991b9ad4b" target="_top" xlink:title="gameAuthoring.scenes.path\lBuilding.pathComponents.PathRoute.getLast">
<polygon fill="white" stroke="black" points="809,-445 809,-475 1039,-475 1039,-445 809,-445"/>
<text text-anchor="start" x="817" y="-463" font-family="Helvetica,sans-Serif" font-size="10.00">gameAuthoring.scenes.path</text>
<text text-anchor="middle" x="924" y="-452" font-family="Helvetica,sans-Serif" font-size="10.00">Building.pathComponents.PathRoute.getLast</text>
</a>
</g>
</g>
<!-- Node2&#45;&gt;Node16 -->
<g id="edge21" class="edge"><title>Node2&#45;&gt;Node16</title>
<path fill="none" stroke="midnightblue" d="M504.06,-380.782C578.082,-387.846 680.194,-400.53 768,-422 784.524,-426.041 787.636,-430.351 804,-435 813.695,-437.754 823.913,-440.351 834.121,-442.753"/>
<polygon fill="midnightblue" stroke="midnightblue" points="833.358,-446.169 843.888,-444.994 834.924,-439.346 833.358,-446.169"/>
</g>
<!-- Node18 -->
<g id="node18" class="node"><title>Node18</title>
<g id="a_node18"><a xlink:href="../../d1/d65/classgame_authoring_1_1scenes_1_1path_building_1_1path_components_1_1_path.html#a0e9944b01a3b570b39583f806a5a53a4" target="_top" xlink:title="gameAuthoring.scenes.path\lBuilding.pathComponents.Path.ensure\lLocationsAreInFront">
<polygon fill="white" stroke="black" points="554,-622.5 554,-663.5 754,-663.5 754,-622.5 554,-622.5"/>
<text text-anchor="start" x="562" y="-651.5" font-family="Helvetica,sans-Serif" font-size="10.00">gameAuthoring.scenes.path</text>
<text text-anchor="start" x="562" y="-640.5" font-family="Helvetica,sans-Serif" font-size="10.00">Building.pathComponents.Path.ensure</text>
<text text-anchor="middle" x="654" y="-629.5" font-family="Helvetica,sans-Serif" font-size="10.00">LocationsAreInFront</text>
</a>
</g>
</g>
<!-- Node2&#45;&gt;Node18 -->
<g id="edge19" class="edge"><title>Node2&#45;&gt;Node18</title>
<path fill="none" stroke="midnightblue" d="M407.924,-393.551C422.379,-439.941 463.959,-553.294 540,-612 542.496,-613.927 545.104,-615.734 547.801,-617.429"/>
<polygon fill="midnightblue" stroke="midnightblue" points="546.265,-620.582 556.691,-622.469 549.718,-614.492 546.265,-620.582"/>
</g>
<!-- Node5 -->
<g id="node5" class="node"><title>Node5</title>
<g id="a_node5"><a xlink:href="../../df/dea/interfacegame_authoring_1_1scenes_1_1path_building_1_1path_components_1_1_path_component.html#a40cb4921333d7a54fa51132e33b8bfa2" target="_top" xlink:title="gameAuthoring.scenes.path\lBuilding.pathComponents.PathComponent.get\lEndingPoint">
<polygon fill="white" stroke="black" points="804.5,-228.5 804.5,-269.5 1043.5,-269.5 1043.5,-228.5 804.5,-228.5"/>
<text text-anchor="start" x="812.5" y="-257.5" font-family="Helvetica,sans-Serif" font-size="10.00">gameAuthoring.scenes.path</text>
<text text-anchor="start" x="812.5" y="-246.5" font-family="Helvetica,sans-Serif" font-size="10.00">Building.pathComponents.PathComponent.get</text>
<text text-anchor="middle" x="924" y="-235.5" font-family="Helvetica,sans-Serif" font-size="10.00">EndingPoint</text>
</a>
</g>
</g>
<!-- Node4&#45;&gt;Node5 -->
<g id="edge4" class="edge"><title>Node4&#45;&gt;Node5</title>
<path fill="none" stroke="midnightblue" d="M750.241,-249C764.421,-249 779.235,-249 793.968,-249"/>
<polygon fill="midnightblue" stroke="midnightblue" points="794.147,-252.5 804.147,-249 794.147,-245.5 794.147,-252.5"/>
</g>
<!-- Node6 -->
<g id="node6" class="node"><title>Node6</title>
<g id="a_node6"><a xlink:href="../../df/dea/interfacegame_authoring_1_1scenes_1_1path_building_1_1path_components_1_1_path_component.html#afce688f365df0f66dad76d541e0c2b24" target="_top" xlink:title="gameAuthoring.scenes.path\lBuilding.pathComponents.PathComponent.get\lStartingPoint">
<polygon fill="white" stroke="black" points="804.5,-168.5 804.5,-209.5 1043.5,-209.5 1043.5,-168.5 804.5,-168.5"/>
<text text-anchor="start" x="812.5" y="-197.5" font-family="Helvetica,sans-Serif" font-size="10.00">gameAuthoring.scenes.path</text>
<text text-anchor="start" x="812.5" y="-186.5" font-family="Helvetica,sans-Serif" font-size="10.00">Building.pathComponents.PathComponent.get</text>
<text text-anchor="middle" x="924" y="-175.5" font-family="Helvetica,sans-Serif" font-size="10.00">StartingPoint</text>
</a>
</g>
</g>
<!-- Node4&#45;&gt;Node6 -->
<g id="edge5" class="edge"><title>Node4&#45;&gt;Node6</title>
<path fill="none" stroke="midnightblue" d="M746.855,-228.435C770.827,-223.069 796.802,-217.253 821.254,-211.779"/>
<polygon fill="midnightblue" stroke="midnightblue" points="822.271,-215.138 831.265,-209.538 820.741,-208.307 822.271,-215.138"/>
</g>
<!-- Node9 -->
<g id="node9" class="node"><title>Node9</title>
<g id="a_node9"><a xlink:href="../../d7/d4d/classgame_authoring_1_1scenes_1_1path_building_1_1path_components_1_1_path_route.html#aeee9e89e67151550871dc81b5c2c8938" target="_top" xlink:title="gameAuthoring.scenes.path\lBuilding.pathComponents.PathRoute.\lPathRoute">
<polygon fill="white" stroke="black" points="827,-60.5 827,-101.5 1021,-101.5 1021,-60.5 827,-60.5"/>
<text text-anchor="start" x="835" y="-89.5" font-family="Helvetica,sans-Serif" font-size="10.00">gameAuthoring.scenes.path</text>
<text text-anchor="start" x="835" y="-78.5" font-family="Helvetica,sans-Serif" font-size="10.00">Building.pathComponents.PathRoute.</text>
<text text-anchor="middle" x="924" y="-67.5" font-family="Helvetica,sans-Serif" font-size="10.00">PathRoute</text>
</a>
</g>
</g>
<!-- Node8&#45;&gt;Node9 -->
<g id="edge8" class="edge"><title>Node8&#45;&gt;Node9</title>
<path fill="none" stroke="midnightblue" d="M757.084,-114.431C776.698,-110.479 797.281,-106.331 817.015,-102.355"/>
<polygon fill="midnightblue" stroke="midnightblue" points="817.825,-105.762 826.936,-100.356 816.442,-98.9004 817.825,-105.762"/>
</g>
<!-- Node10 -->
<g id="node10" class="node"><title>Node10</title>
<g id="a_node10"><a xlink:href="../../d7/d4d/classgame_authoring_1_1scenes_1_1path_building_1_1path_components_1_1_path_route.html#a9096e6b2d30f29e4fb791a73297079ac" target="_top" xlink:title="gameAuthoring.scenes.path\lBuilding.pathComponents.PathRoute.set\lStartingLocation">
<polygon fill="white" stroke="black" points="819.5,-0.5 819.5,-41.5 1028.5,-41.5 1028.5,-0.5 819.5,-0.5"/>
<text text-anchor="start" x="827.5" y="-29.5" font-family="Helvetica,sans-Serif" font-size="10.00">gameAuthoring.scenes.path</text>
<text text-anchor="start" x="827.5" y="-18.5" font-family="Helvetica,sans-Serif" font-size="10.00">Building.pathComponents.PathRoute.set</text>
<text text-anchor="middle" x="924" y="-7.5" font-family="Helvetica,sans-Serif" font-size="10.00">StartingLocation</text>
</a>
</g>
</g>
<!-- Node8&#45;&gt;Node10 -->
<g id="edge9" class="edge"><title>Node8&#45;&gt;Node10</title>
<path fill="none" stroke="midnightblue" d="M750.14,-114.439C756.43,-111.423 762.457,-107.965 768,-104 791.16,-87.4328 780.669,-67.3255 804,-51 806.373,-49.3395 808.83,-47.7708 811.354,-46.2887"/>
<polygon fill="midnightblue" stroke="midnightblue" points="813.005,-49.375 820.177,-41.5765 809.707,-43.2005 813.005,-49.375"/>
</g>
<!-- Node11 -->
<g id="node11" class="node"><title>Node11</title>
<g id="a_node11"><a xlink:href="../../d7/d4d/classgame_authoring_1_1scenes_1_1path_building_1_1path_components_1_1_path_route.html#ab8edca6679b327f0dd85b506e458dffd" target="_top" xlink:title="gameAuthoring.scenes.path\lBuilding.pathComponents.PathRoute.add">
<polygon fill="white" stroke="black" points="818,-120 818,-150 1030,-150 1030,-120 818,-120"/>
<text text-anchor="start" x="826" y="-138" font-family="Helvetica,sans-Serif" font-size="10.00">gameAuthoring.scenes.path</text>
<text text-anchor="middle" x="924" y="-127" font-family="Helvetica,sans-Serif" font-size="10.00">Building.pathComponents.PathRoute.add</text>
</a>
</g>
</g>
<!-- Node8&#45;&gt;Node11 -->
<g id="edge10" class="edge"><title>Node8&#45;&gt;Node11</title>
<path fill="none" stroke="midnightblue" d="M759.383,-135C775.056,-135 791.299,-135 807.193,-135"/>
<polygon fill="midnightblue" stroke="midnightblue" points="807.578,-138.5 817.578,-135 807.578,-131.5 807.578,-138.5"/>
</g>
<!-- Node14&#45;&gt;Node5 -->
<g id="edge17" class="edge"><title>Node14&#45;&gt;Node5</title>
<path fill="none" stroke="midnightblue" d="M692.667,-328.387C722.252,-312.857 764.855,-291.929 804,-278 809.455,-276.059 815.095,-274.203 820.82,-272.436"/>
<polygon fill="midnightblue" stroke="midnightblue" points="821.933,-275.756 830.516,-269.546 819.933,-269.048 821.933,-275.756"/>
</g>
<!-- Node14&#45;&gt;Node7 -->
<g id="edge14" class="edge"><title>Node14&#45;&gt;Node7</title>
<path fill="none" stroke="midnightblue" d="M757.084,-331.478C779.404,-327.647 802.979,-323.601 825.13,-319.799"/>
<polygon fill="midnightblue" stroke="midnightblue" points="825.934,-323.212 835.197,-318.071 824.75,-316.313 825.934,-323.212"/>
</g>
<!-- Node15 -->
<g id="node15" class="node"><title>Node15</title>
<g id="a_node15"><a xlink:href="../../df/dea/interfacegame_authoring_1_1scenes_1_1path_building_1_1path_components_1_1_path_component.html#aab453652f9fce168759c573fb46d08f2" target="_top" xlink:title="gameAuthoring.scenes.path\lBuilding.pathComponents.PathComponent.set\lStartingPoint">
<polygon fill="white" stroke="black" points="804.5,-336.5 804.5,-377.5 1043.5,-377.5 1043.5,-336.5 804.5,-336.5"/>
<text text-anchor="start" x="812.5" y="-365.5" font-family="Helvetica,sans-Serif" font-size="10.00">gameAuthoring.scenes.path</text>
<text text-anchor="start" x="812.5" y="-354.5" font-family="Helvetica,sans-Serif" font-size="10.00">Building.pathComponents.PathComponent.set</text>
<text text-anchor="middle" x="924" y="-343.5" font-family="Helvetica,sans-Serif" font-size="10.00">StartingPoint</text>
</a>
</g>
</g>
<!-- Node14&#45;&gt;Node15 -->
<g id="edge15" class="edge"><title>Node14&#45;&gt;Node15</title>
<path fill="none" stroke="midnightblue" d="M757.084,-352.047C769.103,-352.406 781.485,-352.776 793.813,-353.144"/>
<polygon fill="midnightblue" stroke="midnightblue" points="794.047,-356.652 804.147,-353.452 794.256,-349.655 794.047,-356.652"/>
</g>
<!-- Node14&#45;&gt;Node16 -->
<g id="edge16" class="edge"><title>Node14&#45;&gt;Node16</title>
<path fill="none" stroke="midnightblue" d="M742.356,-369.55C751.44,-373.557 760.19,-378.327 768,-384 790.447,-400.306 780.817,-419.758 804,-435 807.139,-437.064 810.417,-438.962 813.799,-440.707"/>
<polygon fill="midnightblue" stroke="midnightblue" points="812.429,-443.929 822.972,-444.977 815.383,-437.583 812.429,-443.929"/>
</g>
<!-- Node17 -->
<g id="node17" class="node"><title>Node17</title>
<g id="a_node17"><a xlink:href="../../d7/d4d/classgame_authoring_1_1scenes_1_1path_building_1_1path_components_1_1_path_route.html#aa583fef68392267c832ea1229641d3dc" target="_top" xlink:title="gameAuthoring.scenes.path\lBuilding.pathComponents.PathRoute.addAll">
<polygon fill="white" stroke="black" points="812,-396 812,-426 1036,-426 1036,-396 812,-396"/>
<text text-anchor="start" x="820" y="-414" font-family="Helvetica,sans-Serif" font-size="10.00">gameAuthoring.scenes.path</text>
<text text-anchor="middle" x="924" y="-403" font-family="Helvetica,sans-Serif" font-size="10.00">Building.pathComponents.PathRoute.addAll</text>
</a>
</g>
</g>
<!-- Node14&#45;&gt;Node17 -->
<g id="edge18" class="edge"><title>Node14&#45;&gt;Node17</title>
<path fill="none" stroke="midnightblue" d="M735.293,-369.506C757.51,-375.025 781.657,-380.881 804,-386 815.414,-388.615 827.469,-391.271 839.35,-393.827"/>
<polygon fill="midnightblue" stroke="midnightblue" points="838.762,-397.28 849.272,-395.947 840.225,-390.434 838.762,-397.28"/>
</g>
<!-- Node19 -->
<g id="node19" class="node"><title>Node19</title>
<g id="a_node19"><a xlink:href="../../d1/d65/classgame_authoring_1_1scenes_1_1path_building_1_1path_components_1_1_path.html#a3af7f7eaea416705f5035403d7e3c560" target="_top" xlink:title="gameAuthoring.scenes.path\lBuilding.pathComponents.Path.bring\lComponentToFrontOfGroup">
<polygon fill="white" stroke="black" points="828.5,-665.5 828.5,-706.5 1019.5,-706.5 1019.5,-665.5 828.5,-665.5"/>
<text text-anchor="start" x="836.5" y="-694.5" font-family="Helvetica,sans-Serif" font-size="10.00">gameAuthoring.scenes.path</text>
<text text-anchor="start" x="836.5" y="-683.5" font-family="Helvetica,sans-Serif" font-size="10.00">Building.pathComponents.Path.bring</text>
<text text-anchor="middle" x="924" y="-672.5" font-family="Helvetica,sans-Serif" font-size="10.00">ComponentToFrontOfGroup</text>
</a>
</g>
</g>
<!-- Node18&#45;&gt;Node19 -->
<g id="edge20" class="edge"><title>Node18&#45;&gt;Node19</title>
<path fill="none" stroke="midnightblue" d="M754.032,-658.889C775.014,-662.256 797.225,-665.82 818.406,-669.218"/>
<polygon fill="midnightblue" stroke="midnightblue" points="817.954,-672.69 828.382,-670.819 819.063,-665.779 817.954,-672.69"/>
</g>
<!-- Node20&#45;&gt;Node3 -->
<g id="edge28" class="edge"><title>Node20&#45;&gt;Node3</title>
<path fill="none" stroke="midnightblue" d="M438.735,-633.559C465.8,-647.479 504.008,-664.629 540,-672 639.273,-692.331 670.279,-698.817 768,-672 792.096,-665.387 846.447,-631.223 883.929,-606.455"/>
<polygon fill="midnightblue" stroke="midnightblue" points="886.201,-609.147 892.594,-600.698 882.328,-603.317 886.201,-609.147"/>
</g>
<!-- Node20&#45;&gt;Node18 -->
<g id="edge30" class="edge"><title>Node20&#45;&gt;Node18</title>
<path fill="none" stroke="midnightblue" d="M501.202,-624.857C515.095,-626.517 529.439,-628.232 543.51,-629.914"/>
<polygon fill="midnightblue" stroke="midnightblue" points="543.352,-633.419 553.697,-631.131 544.183,-626.469 543.352,-633.419"/>
</g>
<!-- Node20&#45;&gt;Node19 -->
<g id="edge29" class="edge"><title>Node20&#45;&gt;Node19</title>
<path fill="none" stroke="midnightblue" d="M427.569,-633.711C453.924,-653.616 497.107,-682.342 540,-694 631.518,-718.874 739.916,-713.555 817.993,-703.962"/>
<polygon fill="midnightblue" stroke="midnightblue" points="818.844,-707.382 828.322,-702.646 817.96,-700.438 818.844,-707.382"/>
</g>
<!-- Node21 -->
<g id="node21" class="node"><title>Node21</title>
<g id="a_node21"><a xlink:href="../../d1/d65/classgame_authoring_1_1scenes_1_1path_building_1_1path_components_1_1_path.html#a138d058d8c94fb825efa490cf82ec00f" target="_top" xlink:title="gameAuthoring.scenes.path\lBuilding.pathComponents.Path.is\lComponentInPreviouslySelectedComponent">
<polygon fill="white" stroke="black" points="540.5,-502.5 540.5,-543.5 767.5,-543.5 767.5,-502.5 540.5,-502.5"/>
<text text-anchor="start" x="548.5" y="-531.5" font-family="Helvetica,sans-Serif" font-size="10.00">gameAuthoring.scenes.path</text>
<text text-anchor="start" x="548.5" y="-520.5" font-family="Helvetica,sans-Serif" font-size="10.00">Building.pathComponents.Path.is</text>
<text text-anchor="middle" x="654" y="-509.5" font-family="Helvetica,sans-Serif" font-size="10.00">ComponentInPreviouslySelectedComponent</text>
</a>
</g>
</g>
<!-- Node20&#45;&gt;Node21 -->
<g id="edge23" class="edge"><title>Node20&#45;&gt;Node21</title>
<path fill="none" stroke="midnightblue" d="M444.842,-592.382C471.758,-579.93 507.43,-564.331 540,-553 546.44,-550.759 553.136,-548.59 559.909,-546.512"/>
<polygon fill="midnightblue" stroke="midnightblue" points="561.289,-549.753 569.868,-543.536 559.285,-543.046 561.289,-549.753"/>
</g>
<!-- Node22 -->
<g id="node22" class="node"><title>Node22</title>
<g id="a_node22"><a xlink:href="../../d1/d65/classgame_authoring_1_1scenes_1_1path_building_1_1path_components_1_1_path.html#a2a9077c32611c7b1d15f60c37b3a5634" target="_top" xlink:title="gameAuthoring.scenes.path\lBuilding.pathComponents.Path.deselect\lSelectedConnectedComponent">
<polygon fill="white" stroke="black" points="550,-562.5 550,-603.5 758,-603.5 758,-562.5 550,-562.5"/>
<text text-anchor="start" x="558" y="-591.5" font-family="Helvetica,sans-Serif" font-size="10.00">gameAuthoring.scenes.path</text>
<text text-anchor="start" x="558" y="-580.5" font-family="Helvetica,sans-Serif" font-size="10.00">Building.pathComponents.Path.deselect</text>
<text text-anchor="middle" x="654" y="-569.5" font-family="Helvetica,sans-Serif" font-size="10.00">SelectedConnectedComponent</text>
</a>
</g>
</g>
<!-- Node20&#45;&gt;Node22 -->
<g id="edge26" class="edge"><title>Node20&#45;&gt;Node22</title>
<path fill="none" stroke="midnightblue" d="M501.202,-601.143C513.852,-599.631 526.876,-598.075 539.727,-596.539"/>
<polygon fill="midnightblue" stroke="midnightblue" points="540.472,-599.975 549.986,-595.312 539.642,-593.024 540.472,-599.975"/>
</g>
<!-- Node21&#45;&gt;Node3 -->
<g id="edge24" class="edge"><title>Node21&#45;&gt;Node3</title>
<path fill="none" stroke="midnightblue" d="M751.754,-543.578C774.713,-548.461 799.255,-553.681 822.382,-558.6"/>
<polygon fill="midnightblue" stroke="midnightblue" points="821.688,-562.031 832.197,-560.687 823.144,-555.184 821.688,-562.031"/>
</g>
<!-- Node21&#45;&gt;Node13 -->
<g id="edge25" class="edge"><title>Node21&#45;&gt;Node13</title>
<path fill="none" stroke="midnightblue" d="M767.879,-520.894C781.331,-520.643 795.073,-520.387 808.547,-520.135"/>
<polygon fill="midnightblue" stroke="midnightblue" points="808.855,-523.63 818.788,-519.944 808.724,-516.631 808.855,-523.63"/>
</g>
<!-- Node22&#45;&gt;Node3 -->
<g id="edge27" class="edge"><title>Node22&#45;&gt;Node3</title>
<path fill="none" stroke="midnightblue" d="M758.232,-581.844C779.268,-581.609 801.372,-581.362 822.317,-581.127"/>
<polygon fill="midnightblue" stroke="midnightblue" points="822.536,-584.625 832.497,-581.013 822.458,-577.625 822.536,-584.625"/>
</g>
</g>
</svg>
        <g id="navigator" transform="translate(0 0)" fill="#404254">
                <rect fill="#f2f5e9" fill-opacity="0.5" stroke="#606060" stroke-width=".5" x="0" y="0" width="60" height="60"/>
                <use id="zoomplus" xlink:href="#zoomPlus" x="17" y="9" onmousedown="handleZoom(evt,'in')"/>
                <use id="zoomminus" xlink:href="#zoomMin" x="42" y="9" onmousedown="handleZoom(evt,'out')"/>
                <use id="reset" xlink:href="#resetDef" x="30" y="36" onmousedown="handleReset()"/>
                <g id="arrowUp" xlink:href="#dirArrow" transform="translate(30 24)" onmousedown="handlePan(0,-1)">
                  <use xlink:href="#rim" fill="#404040">
                        <set attributeName="fill" to="#808080" begin="arrowUp.mouseover" end="arrowUp.mouseout"/>
                  </use>
                  <path fill="none" stroke="white" stroke-width="1.5" d="M0,-3.0v7 M-2.5,-0.5L0,-3.0L2.5,-0.5"/>
                </g>
                <g id="arrowRight" xlink:href="#dirArrow" transform="rotate(90) translate(36 -43)" onmousedown="handlePan(1,0)">
                  <use xlink:href="#rim" fill="#404040">
                        <set attributeName="fill" to="#808080" begin="arrowRight.mouseover" end="arrowRight.mouseout"/>
                  </use>
                  <path fill="none" stroke="white" stroke-width="1.5" d="M0,-3.0v7 M-2.5,-0.5L0,-3.0L2.5,-0.5"/>
                </g>
                <g id="arrowDown" xlink:href="#dirArrow" transform="rotate(180) translate(-30 -48)" onmousedown="handlePan(0,1)">
                  <use xlink:href="#rim" fill="#404040">
                        <set attributeName="fill" to="#808080" begin="arrowDown.mouseover" end="arrowDown.mouseout"/>
                  </use>
                  <path fill="none" stroke="white" stroke-width="1.5" d="M0,-3.0v7 M-2.5,-0.5L0,-3.0L2.5,-0.5"/>
                </g>
                <g id="arrowLeft" xlink:href="#dirArrow" transform="rotate(270) translate(-36 17)" onmousedown="handlePan(-1,0)">
                  <use xlink:href="#rim" fill="#404040">
                        <set attributeName="fill" to="#808080" begin="arrowLeft.mouseover" end="arrowLeft.mouseout"/>
                  </use>
                  <path fill="none" stroke="white" stroke-width="1.5" d="M0,-3.0v7 M-2.5,-0.5L0,-3.0L2.5,-0.5"/>
                </g>
        </g>
        <svg viewBox="0 0 15 15" width="100%" height="30px" preserveAspectRatio="xMaxYMin meet">
         <g id="arrow_out" transform="scale(0.3 0.3)">
          <a xlink:href="classgame_authoring_1_1scenes_1_1path_building_1_1building_panes_1_1_select_component_pane_abfee75cf2b6d4ca0978cc7b44d15f3de_cgraph_org.svg" target="_base">
           <rect id="button" ry="5" rx="5" y="6" x="6" height="38" width="38"
                fill="#f2f5e9" fill-opacity="0.5" stroke="#606060" stroke-width="1.0"/>
           <path id="arrow"
             d="M 11.500037,31.436501 C 11.940474,20.09759 22.043105,11.32322 32.158766,21.979434 L 37.068811,17.246167 C 37.068811,17.246167 37.088388,32 37.088388,32 L 22.160133,31.978069 C 22.160133,31.978069 26.997745,27.140456 26.997745,27.140456 C 18.528582,18.264221 13.291696,25.230495 11.500037,31.436501 z"
             style="fill:#404040;"/>
          </a>
         </g>
        </svg>
</svg>
