<?xml version="1.0" encoding="UTF-8" standalone="no"?>
<!DOCTYPE svg PUBLIC "-//W3C//DTD SVG 1.1//EN"
 "http://www.w3.org/Graphics/SVG/1.1/DTD/svg11.dtd">
<!-- Generated by graphviz version 2.36.0 (20140111.2315)
 -->
<!-- Title: gameEngine.actors.behaviors.RangeAttack Pages: 1 -->
<svg width="764pt" height="136pt"
 viewBox="0.00 0.00 764.00 136.00" xmlns="http://www.w3.org/2000/svg" xmlns:xlink="http://www.w3.org/1999/xlink">
<g id="graph0" class="graph" transform="scale(1 1) rotate(0) translate(4 132)">
<title>gameEngine.actors.behaviors.RangeAttack</title>
<polygon fill="white" stroke="none" points="-4,4 -4,-132 760,-132 760,4 -4,4"/>
<!-- Node1 -->
<g id="node1" class="node"><title>Node1</title>
<polygon fill="#bfbfbf" stroke="black" points="396,-49 396,-79 558,-79 558,-49 396,-49"/>
<text text-anchor="start" x="404" y="-67" font-family="Helvetica,sans-Serif" font-size="10.00">gameEngine.actors.behaviors.</text>
<text text-anchor="middle" x="477" y="-56" font-family="Helvetica,sans-Serif" font-size="10.00">RangeAttack</text>
</g>
<!-- Node4 -->
<g id="node4" class="node"><title>Node4</title>
<g id="a_node4"><a xlink:href="../../dc/d78/classgame_engine_1_1actors_1_1behaviors_1_1_closest_range_attack.html" target="_top" xlink:title="gameEngine.actors.behaviors.\lClosestRangeAttack">
<polygon fill="white" stroke="black" points="594,-98 594,-128 756,-128 756,-98 594,-98"/>
<text text-anchor="start" x="602" y="-116" font-family="Helvetica,sans-Serif" font-size="10.00">gameEngine.actors.behaviors.</text>
<text text-anchor="middle" x="675" y="-105" font-family="Helvetica,sans-Serif" font-size="10.00">ClosestRangeAttack</text>
</a>
</g>
</g>
<!-- Node1&#45;&gt;Node4 -->
<g id="edge3" class="edge"><title>Node1&#45;&gt;Node4</title>
<path fill="none" stroke="midnightblue" d="M547.907,-81.4768C569.51,-86.8775 593.102,-92.7755 613.975,-97.9938"/>
<polygon fill="midnightblue" stroke="midnightblue" points="548.689,-78.0645 538.138,-79.0346 546.991,-84.8555 548.689,-78.0645"/>
</g>
<!-- Node5 -->
<g id="node5" class="node"><title>Node5</title>
<g id="a_node5"><a xlink:href="../../d6/db4/classgame_engine_1_1actors_1_1behaviors_1_1_farthest_range_attack.html" target="_top" xlink:title="gameEngine.actors.behaviors.\lFarthestRangeAttack">
<polygon fill="white" stroke="black" points="594,-49 594,-79 756,-79 756,-49 594,-49"/>
<text text-anchor="start" x="602" y="-67" font-family="Helvetica,sans-Serif" font-size="10.00">gameEngine.actors.behaviors.</text>
<text text-anchor="middle" x="675" y="-56" font-family="Helvetica,sans-Serif" font-size="10.00">FarthestRangeAttack</text>
</a>
</g>
</g>
<!-- Node1&#45;&gt;Node5 -->
<g id="edge4" class="edge"><title>Node1&#45;&gt;Node5</title>
<path fill="none" stroke="midnightblue" d="M568.077,-64C576.703,-64 585.413,-64 593.935,-64"/>
<polygon fill="midnightblue" stroke="midnightblue" points="568.003,-60.5001 558.003,-64 568.003,-67.5001 568.003,-60.5001"/>
</g>
<!-- Node6 -->
<g id="node6" class="node"><title>Node6</title>
<g id="a_node6"><a xlink:href="../../da/d49/classgame_engine_1_1actors_1_1behaviors_1_1_strongest_range_attack.html" target="_top" xlink:title="gameEngine.actors.behaviors.\lStrongestRangeAttack">
<polygon fill="white" stroke="black" points="594,-0 594,-30 756,-30 756,-0 594,-0"/>
<text text-anchor="start" x="602" y="-18" font-family="Helvetica,sans-Serif" font-size="10.00">gameEngine.actors.behaviors.</text>
<text text-anchor="middle" x="675" y="-7" font-family="Helvetica,sans-Serif" font-size="10.00">StrongestRangeAttack</text>
</a>
</g>
</g>
<!-- Node1&#45;&gt;Node6 -->
<g id="edge5" class="edge"><title>Node1&#45;&gt;Node6</title>
<path fill="none" stroke="midnightblue" d="M547.907,-46.5232C569.51,-41.1225 593.102,-35.2245 613.975,-30.0062"/>
<polygon fill="midnightblue" stroke="midnightblue" points="546.991,-43.1445 538.138,-48.9654 548.689,-49.9355 546.991,-43.1445"/>
</g>
<!-- Node2 -->
<g id="node2" class="node"><title>Node2</title>
<g id="a_node2"><a xlink:href="../../dd/d7b/classgame_engine_1_1actors_1_1behaviors_1_1_base_attack.html" target="_top" xlink:title="gameEngine.actors.behaviors.\lBaseAttack">
<polygon fill="white" stroke="black" points="198,-49 198,-79 360,-79 360,-49 198,-49"/>
<text text-anchor="start" x="206" y="-67" font-family="Helvetica,sans-Serif" font-size="10.00">gameEngine.actors.behaviors.</text>
<text text-anchor="middle" x="279" y="-56" font-family="Helvetica,sans-Serif" font-size="10.00">BaseAttack</text>
</a>
</g>
</g>
<!-- Node2&#45;&gt;Node1 -->
<g id="edge1" class="edge"><title>Node2&#45;&gt;Node1</title>
<path fill="none" stroke="midnightblue" d="M370.077,-64C378.703,-64 387.413,-64 395.935,-64"/>
<polygon fill="midnightblue" stroke="midnightblue" points="370.003,-60.5001 360.003,-64 370.003,-67.5001 370.003,-60.5001"/>
</g>
<!-- Node3 -->
<g id="node3" class="node"><title>Node3</title>
<g id="a_node3"><a xlink:href="../../dd/d43/interfacegame_engine_1_1actors_1_1behaviors_1_1_i_behavior.html" target="_top" xlink:title="gameEngine.actors.behaviors.\lIBehavior">
<polygon fill="white" stroke="black" points="0,-49 0,-79 162,-79 162,-49 0,-49"/>
<text text-anchor="start" x="8" y="-67" font-family="Helvetica,sans-Serif" font-size="10.00">gameEngine.actors.behaviors.</text>
<text text-anchor="middle" x="81" y="-56" font-family="Helvetica,sans-Serif" font-size="10.00">IBehavior</text>
</a>
</g>
</g>
<!-- Node3&#45;&gt;Node2 -->
<g id="edge2" class="edge"><title>Node3&#45;&gt;Node2</title>
<path fill="none" stroke="midnightblue" d="M172.077,-64C180.703,-64 189.413,-64 197.935,-64"/>
<polygon fill="midnightblue" stroke="midnightblue" points="172.003,-60.5001 162.003,-64 172.003,-67.5001 172.003,-60.5001"/>
</g>
</g>
</svg>
